G04 #@! TF.FileFunction,Copper,L2,Bot,Signal*
%FSLAX46Y46*%
G04 Gerber Fmt 4.6, Leading zero omitted, Abs format (unit mm)*
G04 Created by KiCad (PCBNEW 4.0.7) date 12/23/19 17:32:06*
%MOMM*%
%LPD*%
G01*
G04 APERTURE LIST*
%ADD10C,0.100000*%
%ADD11C,1.600000*%
%ADD12O,1.600000X1.600000*%
%ADD13R,1.700000X1.700000*%
%ADD14O,1.700000X1.700000*%
%ADD15C,1.000000*%
%ADD16R,1.000000X1.000000*%
%ADD17C,2.000000*%
%ADD18R,1.600000X2.400000*%
%ADD19O,1.600000X2.400000*%
%ADD20C,5.000000*%
%ADD21C,1.524000*%
%ADD22C,0.600000*%
%ADD23C,0.250000*%
%ADD24C,0.254000*%
G04 APERTURE END LIST*
D10*
D11*
X128905000Y-121920000D03*
D12*
X128905000Y-132080000D03*
D11*
X102235000Y-104775000D03*
X102235000Y-109775000D03*
X102235000Y-89535000D03*
X102235000Y-94535000D03*
D13*
X104140000Y-80010000D03*
D14*
X106680000Y-80010000D03*
X109220000Y-80010000D03*
X111760000Y-80010000D03*
X114300000Y-80010000D03*
X116840000Y-80010000D03*
X119380000Y-80010000D03*
X121920000Y-80010000D03*
X124460000Y-80010000D03*
X127000000Y-80010000D03*
D13*
X132080000Y-80010000D03*
D14*
X134620000Y-80010000D03*
X137160000Y-80010000D03*
X139700000Y-80010000D03*
X142240000Y-80010000D03*
X144780000Y-80010000D03*
X147320000Y-80010000D03*
X149860000Y-80010000D03*
X152400000Y-80010000D03*
X154940000Y-80010000D03*
D13*
X198120000Y-145415000D03*
D14*
X195580000Y-145415000D03*
X193040000Y-145415000D03*
X190500000Y-145415000D03*
X187960000Y-145415000D03*
X185420000Y-145415000D03*
X182880000Y-145415000D03*
X180340000Y-145415000D03*
X177800000Y-145415000D03*
X175260000Y-145415000D03*
X172720000Y-145415000D03*
X170180000Y-145415000D03*
X167640000Y-145415000D03*
X165100000Y-145415000D03*
X162560000Y-145415000D03*
X160020000Y-145415000D03*
X157480000Y-145415000D03*
X154940000Y-145415000D03*
X152400000Y-145415000D03*
X149860000Y-145415000D03*
X147320000Y-145415000D03*
X144780000Y-145415000D03*
X142240000Y-145415000D03*
X139700000Y-145415000D03*
X137160000Y-145415000D03*
X134620000Y-145415000D03*
X132080000Y-145415000D03*
X129540000Y-145415000D03*
X127000000Y-145415000D03*
X124460000Y-145415000D03*
X121920000Y-145415000D03*
X119380000Y-145415000D03*
X116840000Y-145415000D03*
X114300000Y-145415000D03*
X111760000Y-145415000D03*
X109220000Y-145415000D03*
X106680000Y-145415000D03*
X104140000Y-145415000D03*
X101600000Y-145415000D03*
D15*
X106680000Y-116205000D03*
X107950000Y-117475000D03*
D16*
X105410000Y-117475000D03*
D15*
X113665000Y-116205000D03*
X114935000Y-117475000D03*
D16*
X112395000Y-117475000D03*
D15*
X120650000Y-116205000D03*
X121920000Y-117475000D03*
D16*
X119380000Y-117475000D03*
D15*
X127635000Y-116205000D03*
X128905000Y-117475000D03*
D16*
X126365000Y-117475000D03*
D11*
X104775000Y-121920000D03*
D12*
X104775000Y-132080000D03*
D11*
X111760000Y-121920000D03*
D12*
X111760000Y-132080000D03*
D11*
X118745000Y-121920000D03*
D12*
X118745000Y-132080000D03*
D11*
X125730000Y-121920000D03*
D12*
X125730000Y-132080000D03*
D11*
X114935000Y-121920000D03*
D12*
X114935000Y-132080000D03*
D11*
X121920000Y-121920000D03*
D12*
X121920000Y-132080000D03*
D11*
X144145000Y-93345000D03*
D12*
X154305000Y-93345000D03*
D11*
X107950000Y-121920000D03*
D12*
X107950000Y-132080000D03*
D11*
X158115000Y-93345000D03*
D12*
X168275000Y-93345000D03*
D11*
X172085000Y-93345000D03*
D12*
X182245000Y-93345000D03*
D11*
X186055000Y-93345000D03*
D12*
X196215000Y-93345000D03*
D11*
X137160000Y-132080000D03*
D12*
X137160000Y-121920000D03*
D11*
X133985000Y-132080000D03*
D12*
X133985000Y-121920000D03*
D11*
X144145000Y-97155000D03*
D12*
X154305000Y-97155000D03*
D11*
X158115000Y-97155000D03*
D12*
X168275000Y-97155000D03*
D11*
X172085000Y-97155000D03*
D12*
X182245000Y-97155000D03*
D11*
X186055000Y-97155000D03*
D12*
X196215000Y-97155000D03*
D11*
X144145000Y-123825000D03*
D12*
X154305000Y-123825000D03*
D11*
X158115000Y-123825000D03*
D12*
X168275000Y-123825000D03*
D11*
X172085000Y-123825000D03*
D12*
X182245000Y-123825000D03*
D11*
X186055000Y-123825000D03*
D12*
X196215000Y-123825000D03*
D11*
X144145000Y-127635000D03*
D12*
X154305000Y-127635000D03*
D11*
X158115000Y-127635000D03*
D12*
X168275000Y-127635000D03*
D11*
X172085000Y-127635000D03*
D12*
X182245000Y-127635000D03*
D11*
X186055000Y-127635000D03*
D12*
X196215000Y-127635000D03*
D17*
X110490000Y-141660000D03*
X110490000Y-137160000D03*
X116990000Y-141660000D03*
X116990000Y-137160000D03*
X121920000Y-141660000D03*
X121920000Y-137160000D03*
X128420000Y-141660000D03*
X128420000Y-137160000D03*
D18*
X106045000Y-95885000D03*
D19*
X128905000Y-88265000D03*
X108585000Y-95885000D03*
X126365000Y-88265000D03*
X111125000Y-95885000D03*
X123825000Y-88265000D03*
X113665000Y-95885000D03*
X121285000Y-88265000D03*
X116205000Y-95885000D03*
X118745000Y-88265000D03*
X118745000Y-95885000D03*
X116205000Y-88265000D03*
X121285000Y-95885000D03*
X113665000Y-88265000D03*
X123825000Y-95885000D03*
X111125000Y-88265000D03*
X126365000Y-95885000D03*
X108585000Y-88265000D03*
X128905000Y-95885000D03*
X106045000Y-88265000D03*
D18*
X106045000Y-111125000D03*
D19*
X128905000Y-103505000D03*
X108585000Y-111125000D03*
X126365000Y-103505000D03*
X111125000Y-111125000D03*
X123825000Y-103505000D03*
X113665000Y-111125000D03*
X121285000Y-103505000D03*
X116205000Y-111125000D03*
X118745000Y-103505000D03*
X118745000Y-111125000D03*
X116205000Y-103505000D03*
X121285000Y-111125000D03*
X113665000Y-103505000D03*
X123825000Y-111125000D03*
X111125000Y-103505000D03*
X126365000Y-111125000D03*
X108585000Y-103505000D03*
X128905000Y-111125000D03*
X106045000Y-103505000D03*
D20*
X104140000Y-140335000D03*
X195580000Y-140335000D03*
X195580000Y-81280000D03*
D21*
X144145000Y-85090000D03*
X159385000Y-85090000D03*
X174625000Y-85090000D03*
X189865000Y-85090000D03*
X144145000Y-100330000D03*
X159385000Y-100330000D03*
X174625000Y-100330000D03*
X189865000Y-100330000D03*
X144145000Y-115570000D03*
X159385000Y-115570000D03*
X174625000Y-115570000D03*
X189865000Y-115570000D03*
X144145000Y-130810000D03*
X159385000Y-130810000D03*
X174625000Y-130810000D03*
X189865000Y-130810000D03*
X140335000Y-93980000D03*
X140335000Y-97790000D03*
X140335000Y-109220000D03*
X140335000Y-113030000D03*
D22*
X136525000Y-113030000D03*
X129540000Y-113665000D03*
X137160000Y-113665000D03*
X130175000Y-114300000D03*
X130810000Y-114935000D03*
X137795000Y-114300000D03*
X138430000Y-114935000D03*
X131445000Y-115570000D03*
X123190000Y-84455000D03*
X120650000Y-83820000D03*
X113030000Y-84455000D03*
X110490000Y-81280000D03*
X110490000Y-85090000D03*
X135890000Y-91440000D03*
X154940000Y-95250000D03*
X138430000Y-93345000D03*
X120650000Y-92710000D03*
X180975000Y-95885000D03*
X153035000Y-95885000D03*
X137795000Y-95250000D03*
X120015000Y-93345000D03*
X137160000Y-95885000D03*
X130175000Y-93980000D03*
X135890000Y-90170000D03*
X130175000Y-90170000D03*
X120650000Y-90805000D03*
X125730000Y-90805000D03*
X129540000Y-90805000D03*
X136525000Y-90805000D03*
X156210000Y-92075000D03*
X153035000Y-92075000D03*
X145415000Y-83185000D03*
X146050000Y-82550000D03*
X109220000Y-107315000D03*
X153670000Y-110490000D03*
X144780000Y-110490000D03*
X121285000Y-107950000D03*
X167640000Y-111125000D03*
X144145000Y-111125000D03*
X121920000Y-108585000D03*
X181610000Y-111760000D03*
X143510000Y-111760000D03*
X142875000Y-112395000D03*
X196215000Y-113030000D03*
X131445000Y-109220000D03*
X131445000Y-104775000D03*
X154940000Y-107950000D03*
X147320000Y-107950000D03*
X168910000Y-109220000D03*
X146685000Y-108585000D03*
X183515000Y-111125000D03*
X146050000Y-109220000D03*
X145415000Y-109855000D03*
D23*
X133985000Y-121920000D02*
X137160000Y-121920000D01*
X106045000Y-88265000D02*
X103505000Y-88265000D01*
X103505000Y-88265000D02*
X102235000Y-89535000D01*
X106045000Y-103505000D02*
X103505000Y-103505000D01*
X103505000Y-103505000D02*
X102235000Y-104775000D01*
X186055000Y-127635000D02*
X189230000Y-130810000D01*
X189230000Y-130810000D02*
X189865000Y-130810000D01*
X186055000Y-127635000D02*
X186690000Y-127635000D01*
X135890000Y-113665000D02*
X129540000Y-113665000D01*
X136525000Y-113030000D02*
X135890000Y-113665000D01*
X136525000Y-114300000D02*
X130175000Y-114300000D01*
X137160000Y-113665000D02*
X136525000Y-114300000D01*
X137795000Y-114300000D02*
X137160000Y-114935000D01*
X137160000Y-114935000D02*
X130810000Y-114935000D01*
X144145000Y-93345000D02*
X144145000Y-85090000D01*
X158115000Y-93345000D02*
X158115000Y-86360000D01*
X158115000Y-86360000D02*
X159385000Y-85090000D01*
X172085000Y-93345000D02*
X172085000Y-87630000D01*
X172085000Y-87630000D02*
X174625000Y-85090000D01*
X186055000Y-93345000D02*
X186055000Y-88900000D01*
X186055000Y-88900000D02*
X189865000Y-85090000D01*
X144145000Y-100330000D02*
X144145000Y-97155000D01*
X158115000Y-97155000D02*
X158115000Y-99060000D01*
X158115000Y-99060000D02*
X159385000Y-100330000D01*
X172085000Y-97155000D02*
X172085000Y-97790000D01*
X172085000Y-97790000D02*
X174625000Y-100330000D01*
X186055000Y-97155000D02*
X189230000Y-100330000D01*
X189230000Y-100330000D02*
X189865000Y-100330000D01*
X144145000Y-123825000D02*
X144145000Y-115570000D01*
X158115000Y-123825000D02*
X158115000Y-116840000D01*
X158115000Y-116840000D02*
X159385000Y-115570000D01*
X172085000Y-123825000D02*
X172085000Y-118110000D01*
X172085000Y-118110000D02*
X174625000Y-115570000D01*
X186055000Y-123825000D02*
X186055000Y-119380000D01*
X186055000Y-119380000D02*
X189865000Y-115570000D01*
X144145000Y-130810000D02*
X144145000Y-127635000D01*
X158115000Y-127635000D02*
X158115000Y-129540000D01*
X158115000Y-129540000D02*
X159385000Y-130810000D01*
X172085000Y-127635000D02*
X172085000Y-128270000D01*
X172085000Y-128270000D02*
X174625000Y-130810000D01*
X137795000Y-115570000D02*
X131445000Y-115570000D01*
X137795000Y-115570000D02*
X138430000Y-114935000D01*
X123825000Y-85090000D02*
X123825000Y-88265000D01*
X123190000Y-84455000D02*
X123825000Y-85090000D01*
X121285000Y-88265000D02*
X121285000Y-84455000D01*
X121285000Y-84455000D02*
X120650000Y-83820000D01*
X113030000Y-86360000D02*
X113665000Y-86995000D01*
X113030000Y-84455000D02*
X113030000Y-86360000D01*
X113665000Y-86995000D02*
X113665000Y-88265000D01*
X111125000Y-88265000D02*
X111125000Y-86995000D01*
X121285000Y-78740000D02*
X121920000Y-79375000D01*
X111125000Y-78740000D02*
X121285000Y-78740000D01*
X110490000Y-79375000D02*
X111125000Y-78740000D01*
X110490000Y-81280000D02*
X110490000Y-79375000D01*
X110490000Y-86360000D02*
X110490000Y-85090000D01*
X111125000Y-86995000D02*
X110490000Y-86360000D01*
X121920000Y-79375000D02*
X121920000Y-80010000D01*
X118745000Y-92075000D02*
X135255000Y-92075000D01*
X109855000Y-92075000D02*
X118745000Y-92075000D01*
X108585000Y-95885000D02*
X108585000Y-93345000D01*
X108585000Y-92710000D02*
X109220000Y-92075000D01*
X109220000Y-92075000D02*
X109855000Y-92075000D01*
X108585000Y-93345000D02*
X108585000Y-92710000D01*
X135255000Y-92075000D02*
X135890000Y-91440000D01*
X168275000Y-94615000D02*
X168275000Y-93345000D01*
X167640000Y-95250000D02*
X168275000Y-94615000D01*
X154940000Y-95250000D02*
X167640000Y-95250000D01*
X137160000Y-94615000D02*
X138430000Y-93345000D01*
X133350000Y-94615000D02*
X137160000Y-94615000D01*
X131445000Y-92710000D02*
X133350000Y-94615000D01*
X120650000Y-92710000D02*
X131445000Y-92710000D01*
X153035000Y-95885000D02*
X180975000Y-95885000D01*
X132715000Y-95250000D02*
X137795000Y-95250000D01*
X130810000Y-93345000D02*
X132715000Y-95250000D01*
X129540000Y-93345000D02*
X130810000Y-93345000D01*
X120015000Y-93345000D02*
X129540000Y-93345000D01*
X132080000Y-95885000D02*
X137160000Y-95885000D01*
X130175000Y-93980000D02*
X132080000Y-95885000D01*
X130175000Y-90170000D02*
X135890000Y-90170000D01*
X120650000Y-90805000D02*
X125730000Y-90805000D01*
X129540000Y-90805000D02*
X136525000Y-90805000D01*
X153035000Y-92075000D02*
X156210000Y-92075000D01*
X116205000Y-88265000D02*
X116205000Y-83820000D01*
X116205000Y-83820000D02*
X116840000Y-83185000D01*
X116840000Y-83185000D02*
X145415000Y-83185000D01*
X108585000Y-83185000D02*
X109220000Y-82550000D01*
X109220000Y-82550000D02*
X146050000Y-82550000D01*
X108585000Y-88265000D02*
X108585000Y-83185000D01*
X141605000Y-107315000D02*
X144780000Y-110490000D01*
X109220000Y-107315000D02*
X133350000Y-107315000D01*
X138430000Y-107315000D02*
X141605000Y-107315000D01*
X133350000Y-107315000D02*
X138430000Y-107315000D01*
X154305000Y-111125000D02*
X154305000Y-123825000D01*
X153670000Y-110490000D02*
X154305000Y-111125000D01*
X141605000Y-108585000D02*
X140970000Y-107950000D01*
X132715000Y-107950000D02*
X139065000Y-107950000D01*
X139065000Y-107950000D02*
X140970000Y-107950000D01*
X121285000Y-107950000D02*
X132715000Y-107950000D01*
X168275000Y-111760000D02*
X168275000Y-123825000D01*
X167640000Y-111125000D02*
X168275000Y-111760000D01*
X141605000Y-108585000D02*
X144145000Y-111125000D01*
X141605000Y-110490000D02*
X142240000Y-110490000D01*
X121920000Y-108585000D02*
X132080000Y-108585000D01*
X139700000Y-110490000D02*
X141605000Y-110490000D01*
X137795000Y-108585000D02*
X139700000Y-110490000D01*
X132080000Y-108585000D02*
X137795000Y-108585000D01*
X182245000Y-112395000D02*
X182245000Y-123825000D01*
X181610000Y-111760000D02*
X182245000Y-112395000D01*
X142240000Y-110490000D02*
X143510000Y-111760000D01*
X196215000Y-113665000D02*
X196215000Y-113030000D01*
X141605000Y-111125000D02*
X142875000Y-112395000D01*
X131445000Y-109220000D02*
X137160000Y-109220000D01*
X137160000Y-109220000D02*
X139065000Y-111125000D01*
X139065000Y-111125000D02*
X141605000Y-111125000D01*
X196215000Y-113665000D02*
X196215000Y-123825000D01*
X139700000Y-104775000D02*
X144145000Y-104775000D01*
X131445000Y-104775000D02*
X139700000Y-104775000D01*
X155575000Y-127000000D02*
X154940000Y-127635000D01*
X155575000Y-108585000D02*
X155575000Y-127000000D01*
X154940000Y-107950000D02*
X155575000Y-108585000D01*
X144145000Y-104775000D02*
X147320000Y-107950000D01*
X154940000Y-127635000D02*
X154305000Y-127635000D01*
X169545000Y-110490000D02*
X169545000Y-109855000D01*
X169545000Y-109855000D02*
X168910000Y-109220000D01*
X140335000Y-105410000D02*
X143510000Y-105410000D01*
X143510000Y-105410000D02*
X146685000Y-108585000D01*
X118745000Y-103505000D02*
X118745000Y-104775000D01*
X119380000Y-105410000D02*
X140335000Y-105410000D01*
X118745000Y-104775000D02*
X119380000Y-105410000D01*
X169545000Y-127000000D02*
X168910000Y-127635000D01*
X169545000Y-110490000D02*
X169545000Y-127000000D01*
X168910000Y-127635000D02*
X168275000Y-127635000D01*
X140970000Y-106045000D02*
X142875000Y-106045000D01*
X116205000Y-105410000D02*
X116840000Y-106045000D01*
X116840000Y-106045000D02*
X140970000Y-106045000D01*
X116205000Y-103505000D02*
X116205000Y-105410000D01*
X183515000Y-127000000D02*
X182880000Y-127635000D01*
X183515000Y-111125000D02*
X183515000Y-127000000D01*
X142875000Y-106045000D02*
X146050000Y-109220000D01*
X182880000Y-127635000D02*
X182245000Y-127635000D01*
X140970000Y-106680000D02*
X142240000Y-106680000D01*
X108585000Y-106045000D02*
X109220000Y-106680000D01*
X109220000Y-106680000D02*
X140970000Y-106680000D01*
X108585000Y-103505000D02*
X108585000Y-106045000D01*
X142240000Y-106680000D02*
X145415000Y-109855000D01*
D24*
G36*
X130633569Y-78908110D02*
X130582560Y-79160000D01*
X130582560Y-80860000D01*
X130626838Y-81095317D01*
X130765910Y-81311441D01*
X130978110Y-81456431D01*
X131230000Y-81507440D01*
X132930000Y-81507440D01*
X133165317Y-81463162D01*
X133381441Y-81324090D01*
X133526431Y-81111890D01*
X133540086Y-81044459D01*
X133569946Y-81089147D01*
X134051715Y-81411054D01*
X134620000Y-81524093D01*
X135188285Y-81411054D01*
X135670054Y-81089147D01*
X135890000Y-80759974D01*
X136109946Y-81089147D01*
X136591715Y-81411054D01*
X137160000Y-81524093D01*
X137728285Y-81411054D01*
X138210054Y-81089147D01*
X138430000Y-80759974D01*
X138649946Y-81089147D01*
X139131715Y-81411054D01*
X139700000Y-81524093D01*
X140268285Y-81411054D01*
X140750054Y-81089147D01*
X140970000Y-80759974D01*
X141189946Y-81089147D01*
X141671715Y-81411054D01*
X142240000Y-81524093D01*
X142808285Y-81411054D01*
X143290054Y-81089147D01*
X143510000Y-80759974D01*
X143729946Y-81089147D01*
X144211715Y-81411054D01*
X144780000Y-81524093D01*
X145348285Y-81411054D01*
X145830054Y-81089147D01*
X146050000Y-80759974D01*
X146269946Y-81089147D01*
X146751715Y-81411054D01*
X147320000Y-81524093D01*
X147888285Y-81411054D01*
X148370054Y-81089147D01*
X148590000Y-80759974D01*
X148809946Y-81089147D01*
X149291715Y-81411054D01*
X149860000Y-81524093D01*
X150428285Y-81411054D01*
X150910054Y-81089147D01*
X151130000Y-80759974D01*
X151349946Y-81089147D01*
X151831715Y-81411054D01*
X152400000Y-81524093D01*
X152968285Y-81411054D01*
X153450054Y-81089147D01*
X153670000Y-80759974D01*
X153889946Y-81089147D01*
X154371715Y-81411054D01*
X154940000Y-81524093D01*
X155508285Y-81411054D01*
X155990054Y-81089147D01*
X156311961Y-80607378D01*
X156425000Y-80039093D01*
X156425000Y-79980907D01*
X156311961Y-79412622D01*
X155990054Y-78930853D01*
X155816667Y-78815000D01*
X193611873Y-78815000D01*
X192923826Y-79501847D01*
X192445546Y-80653674D01*
X192444457Y-81900854D01*
X192920727Y-83053515D01*
X193801847Y-83936174D01*
X194953674Y-84414454D01*
X196200854Y-84415543D01*
X197353515Y-83939273D01*
X198236174Y-83058153D01*
X198680000Y-81989301D01*
X198680000Y-139628125D01*
X198239273Y-138561485D01*
X197358153Y-137678826D01*
X196206326Y-137200546D01*
X194959146Y-137199457D01*
X193806485Y-137675727D01*
X192923826Y-138556847D01*
X192445546Y-139708674D01*
X192444457Y-140955854D01*
X192920727Y-142108515D01*
X193801847Y-142991174D01*
X194953674Y-143469454D01*
X196200854Y-143470543D01*
X197353515Y-142994273D01*
X198236174Y-142113153D01*
X198680000Y-141044301D01*
X198680000Y-143917560D01*
X197270000Y-143917560D01*
X197034683Y-143961838D01*
X196818559Y-144100910D01*
X196673569Y-144313110D01*
X196659914Y-144380541D01*
X196630054Y-144335853D01*
X196148285Y-144013946D01*
X195580000Y-143900907D01*
X195011715Y-144013946D01*
X194529946Y-144335853D01*
X194310000Y-144665026D01*
X194090054Y-144335853D01*
X193608285Y-144013946D01*
X193040000Y-143900907D01*
X192471715Y-144013946D01*
X191989946Y-144335853D01*
X191770000Y-144665026D01*
X191550054Y-144335853D01*
X191068285Y-144013946D01*
X190500000Y-143900907D01*
X189931715Y-144013946D01*
X189449946Y-144335853D01*
X189230000Y-144665026D01*
X189010054Y-144335853D01*
X188528285Y-144013946D01*
X187960000Y-143900907D01*
X187391715Y-144013946D01*
X186909946Y-144335853D01*
X186690000Y-144665026D01*
X186470054Y-144335853D01*
X185988285Y-144013946D01*
X185420000Y-143900907D01*
X184851715Y-144013946D01*
X184369946Y-144335853D01*
X184150000Y-144665026D01*
X183930054Y-144335853D01*
X183448285Y-144013946D01*
X182880000Y-143900907D01*
X182311715Y-144013946D01*
X181829946Y-144335853D01*
X181610000Y-144665026D01*
X181390054Y-144335853D01*
X180908285Y-144013946D01*
X180340000Y-143900907D01*
X179771715Y-144013946D01*
X179289946Y-144335853D01*
X179070000Y-144665026D01*
X178850054Y-144335853D01*
X178368285Y-144013946D01*
X177800000Y-143900907D01*
X177231715Y-144013946D01*
X176749946Y-144335853D01*
X176530000Y-144665026D01*
X176310054Y-144335853D01*
X175828285Y-144013946D01*
X175260000Y-143900907D01*
X174691715Y-144013946D01*
X174209946Y-144335853D01*
X173990000Y-144665026D01*
X173770054Y-144335853D01*
X173288285Y-144013946D01*
X172720000Y-143900907D01*
X172151715Y-144013946D01*
X171669946Y-144335853D01*
X171450000Y-144665026D01*
X171230054Y-144335853D01*
X170748285Y-144013946D01*
X170180000Y-143900907D01*
X169611715Y-144013946D01*
X169129946Y-144335853D01*
X168910000Y-144665026D01*
X168690054Y-144335853D01*
X168208285Y-144013946D01*
X167640000Y-143900907D01*
X167071715Y-144013946D01*
X166589946Y-144335853D01*
X166370000Y-144665026D01*
X166150054Y-144335853D01*
X165668285Y-144013946D01*
X165100000Y-143900907D01*
X164531715Y-144013946D01*
X164049946Y-144335853D01*
X163830000Y-144665026D01*
X163610054Y-144335853D01*
X163128285Y-144013946D01*
X162560000Y-143900907D01*
X161991715Y-144013946D01*
X161509946Y-144335853D01*
X161290000Y-144665026D01*
X161070054Y-144335853D01*
X160588285Y-144013946D01*
X160020000Y-143900907D01*
X159451715Y-144013946D01*
X158969946Y-144335853D01*
X158742298Y-144676553D01*
X158675183Y-144533642D01*
X158246924Y-144143355D01*
X157836890Y-143973524D01*
X157607000Y-144094845D01*
X157607000Y-145288000D01*
X157627000Y-145288000D01*
X157627000Y-145542000D01*
X157607000Y-145542000D01*
X157607000Y-145562000D01*
X157353000Y-145562000D01*
X157353000Y-145542000D01*
X157333000Y-145542000D01*
X157333000Y-145288000D01*
X157353000Y-145288000D01*
X157353000Y-144094845D01*
X157123110Y-143973524D01*
X156713076Y-144143355D01*
X156284817Y-144533642D01*
X156217702Y-144676553D01*
X155990054Y-144335853D01*
X155508285Y-144013946D01*
X154940000Y-143900907D01*
X154371715Y-144013946D01*
X153889946Y-144335853D01*
X153670000Y-144665026D01*
X153450054Y-144335853D01*
X152968285Y-144013946D01*
X152400000Y-143900907D01*
X151831715Y-144013946D01*
X151349946Y-144335853D01*
X151130000Y-144665026D01*
X150910054Y-144335853D01*
X150428285Y-144013946D01*
X149860000Y-143900907D01*
X149291715Y-144013946D01*
X148809946Y-144335853D01*
X148590000Y-144665026D01*
X148370054Y-144335853D01*
X147888285Y-144013946D01*
X147320000Y-143900907D01*
X146751715Y-144013946D01*
X146269946Y-144335853D01*
X146050000Y-144665026D01*
X145830054Y-144335853D01*
X145348285Y-144013946D01*
X144780000Y-143900907D01*
X144211715Y-144013946D01*
X143729946Y-144335853D01*
X143510000Y-144665026D01*
X143290054Y-144335853D01*
X142808285Y-144013946D01*
X142240000Y-143900907D01*
X141671715Y-144013946D01*
X141189946Y-144335853D01*
X140970000Y-144665026D01*
X140750054Y-144335853D01*
X140268285Y-144013946D01*
X139700000Y-143900907D01*
X139131715Y-144013946D01*
X138649946Y-144335853D01*
X138430000Y-144665026D01*
X138210054Y-144335853D01*
X137728285Y-144013946D01*
X137160000Y-143900907D01*
X136591715Y-144013946D01*
X136109946Y-144335853D01*
X135890000Y-144665026D01*
X135670054Y-144335853D01*
X135188285Y-144013946D01*
X134620000Y-143900907D01*
X134051715Y-144013946D01*
X133569946Y-144335853D01*
X133350000Y-144665026D01*
X133130054Y-144335853D01*
X132648285Y-144013946D01*
X132080000Y-143900907D01*
X131511715Y-144013946D01*
X131029946Y-144335853D01*
X130810000Y-144665026D01*
X130590054Y-144335853D01*
X130108285Y-144013946D01*
X129540000Y-143900907D01*
X128971715Y-144013946D01*
X128489946Y-144335853D01*
X128270000Y-144665026D01*
X128050054Y-144335853D01*
X127568285Y-144013946D01*
X127000000Y-143900907D01*
X126431715Y-144013946D01*
X125949946Y-144335853D01*
X125730000Y-144665026D01*
X125510054Y-144335853D01*
X125028285Y-144013946D01*
X124460000Y-143900907D01*
X123891715Y-144013946D01*
X123409946Y-144335853D01*
X123190000Y-144665026D01*
X122970054Y-144335853D01*
X122488285Y-144013946D01*
X121920000Y-143900907D01*
X121351715Y-144013946D01*
X120869946Y-144335853D01*
X120650000Y-144665026D01*
X120430054Y-144335853D01*
X119948285Y-144013946D01*
X119380000Y-143900907D01*
X118811715Y-144013946D01*
X118329946Y-144335853D01*
X118110000Y-144665026D01*
X117890054Y-144335853D01*
X117408285Y-144013946D01*
X116840000Y-143900907D01*
X116271715Y-144013946D01*
X115789946Y-144335853D01*
X115570000Y-144665026D01*
X115350054Y-144335853D01*
X114868285Y-144013946D01*
X114300000Y-143900907D01*
X113731715Y-144013946D01*
X113249946Y-144335853D01*
X113030000Y-144665026D01*
X112810054Y-144335853D01*
X112328285Y-144013946D01*
X111760000Y-143900907D01*
X111191715Y-144013946D01*
X110709946Y-144335853D01*
X110490000Y-144665026D01*
X110270054Y-144335853D01*
X109788285Y-144013946D01*
X109220000Y-143900907D01*
X108651715Y-144013946D01*
X108169946Y-144335853D01*
X107950000Y-144665026D01*
X107730054Y-144335853D01*
X107248285Y-144013946D01*
X106680000Y-143900907D01*
X106111715Y-144013946D01*
X105629946Y-144335853D01*
X105410000Y-144665026D01*
X105190054Y-144335853D01*
X104708285Y-144013946D01*
X104140000Y-143900907D01*
X103571715Y-144013946D01*
X103089946Y-144335853D01*
X102870000Y-144665026D01*
X102650054Y-144335853D01*
X102168285Y-144013946D01*
X101600000Y-143900907D01*
X101040000Y-144012298D01*
X101040000Y-141041875D01*
X101480727Y-142108515D01*
X102361847Y-142991174D01*
X103513674Y-143469454D01*
X104760854Y-143470543D01*
X105913515Y-142994273D01*
X106095573Y-142812532D01*
X109517073Y-142812532D01*
X109615736Y-143079387D01*
X110225461Y-143305908D01*
X110875460Y-143281856D01*
X111364264Y-143079387D01*
X111462927Y-142812532D01*
X116017073Y-142812532D01*
X116115736Y-143079387D01*
X116725461Y-143305908D01*
X117375460Y-143281856D01*
X117864264Y-143079387D01*
X117962927Y-142812532D01*
X120947073Y-142812532D01*
X121045736Y-143079387D01*
X121655461Y-143305908D01*
X122305460Y-143281856D01*
X122794264Y-143079387D01*
X122892927Y-142812532D01*
X127447073Y-142812532D01*
X127545736Y-143079387D01*
X128155461Y-143305908D01*
X128805460Y-143281856D01*
X129294264Y-143079387D01*
X129392927Y-142812532D01*
X128420000Y-141839605D01*
X127447073Y-142812532D01*
X122892927Y-142812532D01*
X121920000Y-141839605D01*
X120947073Y-142812532D01*
X117962927Y-142812532D01*
X116990000Y-141839605D01*
X116017073Y-142812532D01*
X111462927Y-142812532D01*
X110490000Y-141839605D01*
X109517073Y-142812532D01*
X106095573Y-142812532D01*
X106796174Y-142113153D01*
X107094185Y-141395461D01*
X108844092Y-141395461D01*
X108868144Y-142045460D01*
X109070613Y-142534264D01*
X109337468Y-142632927D01*
X110310395Y-141660000D01*
X110669605Y-141660000D01*
X111642532Y-142632927D01*
X111909387Y-142534264D01*
X112135908Y-141924539D01*
X112116331Y-141395461D01*
X115344092Y-141395461D01*
X115368144Y-142045460D01*
X115570613Y-142534264D01*
X115837468Y-142632927D01*
X116810395Y-141660000D01*
X117169605Y-141660000D01*
X118142532Y-142632927D01*
X118409387Y-142534264D01*
X118635908Y-141924539D01*
X118616331Y-141395461D01*
X120274092Y-141395461D01*
X120298144Y-142045460D01*
X120500613Y-142534264D01*
X120767468Y-142632927D01*
X121740395Y-141660000D01*
X122099605Y-141660000D01*
X123072532Y-142632927D01*
X123339387Y-142534264D01*
X123565908Y-141924539D01*
X123546331Y-141395461D01*
X126774092Y-141395461D01*
X126798144Y-142045460D01*
X127000613Y-142534264D01*
X127267468Y-142632927D01*
X128240395Y-141660000D01*
X128599605Y-141660000D01*
X129572532Y-142632927D01*
X129839387Y-142534264D01*
X130065908Y-141924539D01*
X130041856Y-141274540D01*
X129839387Y-140785736D01*
X129572532Y-140687073D01*
X128599605Y-141660000D01*
X128240395Y-141660000D01*
X127267468Y-140687073D01*
X127000613Y-140785736D01*
X126774092Y-141395461D01*
X123546331Y-141395461D01*
X123541856Y-141274540D01*
X123339387Y-140785736D01*
X123072532Y-140687073D01*
X122099605Y-141660000D01*
X121740395Y-141660000D01*
X120767468Y-140687073D01*
X120500613Y-140785736D01*
X120274092Y-141395461D01*
X118616331Y-141395461D01*
X118611856Y-141274540D01*
X118409387Y-140785736D01*
X118142532Y-140687073D01*
X117169605Y-141660000D01*
X116810395Y-141660000D01*
X115837468Y-140687073D01*
X115570613Y-140785736D01*
X115344092Y-141395461D01*
X112116331Y-141395461D01*
X112111856Y-141274540D01*
X111909387Y-140785736D01*
X111642532Y-140687073D01*
X110669605Y-141660000D01*
X110310395Y-141660000D01*
X109337468Y-140687073D01*
X109070613Y-140785736D01*
X108844092Y-141395461D01*
X107094185Y-141395461D01*
X107274454Y-140961326D01*
X107274850Y-140507468D01*
X109517073Y-140507468D01*
X110490000Y-141480395D01*
X111462927Y-140507468D01*
X116017073Y-140507468D01*
X116990000Y-141480395D01*
X117962927Y-140507468D01*
X120947073Y-140507468D01*
X121920000Y-141480395D01*
X122892927Y-140507468D01*
X127447073Y-140507468D01*
X128420000Y-141480395D01*
X129392927Y-140507468D01*
X129294264Y-140240613D01*
X128684539Y-140014092D01*
X128034540Y-140038144D01*
X127545736Y-140240613D01*
X127447073Y-140507468D01*
X122892927Y-140507468D01*
X122794264Y-140240613D01*
X122184539Y-140014092D01*
X121534540Y-140038144D01*
X121045736Y-140240613D01*
X120947073Y-140507468D01*
X117962927Y-140507468D01*
X117864264Y-140240613D01*
X117254539Y-140014092D01*
X116604540Y-140038144D01*
X116115736Y-140240613D01*
X116017073Y-140507468D01*
X111462927Y-140507468D01*
X111364264Y-140240613D01*
X110754539Y-140014092D01*
X110104540Y-140038144D01*
X109615736Y-140240613D01*
X109517073Y-140507468D01*
X107274850Y-140507468D01*
X107275543Y-139714146D01*
X106799273Y-138561485D01*
X105918153Y-137678826D01*
X105448466Y-137483795D01*
X108854716Y-137483795D01*
X109103106Y-138084943D01*
X109562637Y-138545278D01*
X110163352Y-138794716D01*
X110813795Y-138795284D01*
X111414943Y-138546894D01*
X111875278Y-138087363D01*
X112124716Y-137486648D01*
X112124718Y-137483795D01*
X115354716Y-137483795D01*
X115603106Y-138084943D01*
X116062637Y-138545278D01*
X116663352Y-138794716D01*
X117313795Y-138795284D01*
X117914943Y-138546894D01*
X118375278Y-138087363D01*
X118624716Y-137486648D01*
X118624718Y-137483795D01*
X120284716Y-137483795D01*
X120533106Y-138084943D01*
X120992637Y-138545278D01*
X121593352Y-138794716D01*
X122243795Y-138795284D01*
X122844943Y-138546894D01*
X123305278Y-138087363D01*
X123554716Y-137486648D01*
X123554718Y-137483795D01*
X126784716Y-137483795D01*
X127033106Y-138084943D01*
X127492637Y-138545278D01*
X128093352Y-138794716D01*
X128743795Y-138795284D01*
X129344943Y-138546894D01*
X129805278Y-138087363D01*
X130054716Y-137486648D01*
X130055284Y-136836205D01*
X129806894Y-136235057D01*
X129347363Y-135774722D01*
X128746648Y-135525284D01*
X128096205Y-135524716D01*
X127495057Y-135773106D01*
X127034722Y-136232637D01*
X126785284Y-136833352D01*
X126784716Y-137483795D01*
X123554718Y-137483795D01*
X123555284Y-136836205D01*
X123306894Y-136235057D01*
X122847363Y-135774722D01*
X122246648Y-135525284D01*
X121596205Y-135524716D01*
X120995057Y-135773106D01*
X120534722Y-136232637D01*
X120285284Y-136833352D01*
X120284716Y-137483795D01*
X118624718Y-137483795D01*
X118625284Y-136836205D01*
X118376894Y-136235057D01*
X117917363Y-135774722D01*
X117316648Y-135525284D01*
X116666205Y-135524716D01*
X116065057Y-135773106D01*
X115604722Y-136232637D01*
X115355284Y-136833352D01*
X115354716Y-137483795D01*
X112124718Y-137483795D01*
X112125284Y-136836205D01*
X111876894Y-136235057D01*
X111417363Y-135774722D01*
X110816648Y-135525284D01*
X110166205Y-135524716D01*
X109565057Y-135773106D01*
X109104722Y-136232637D01*
X108855284Y-136833352D01*
X108854716Y-137483795D01*
X105448466Y-137483795D01*
X104766326Y-137200546D01*
X103519146Y-137199457D01*
X102366485Y-137675727D01*
X101483826Y-138556847D01*
X101040000Y-139625699D01*
X101040000Y-132051887D01*
X103340000Y-132051887D01*
X103340000Y-132108113D01*
X103449233Y-132657264D01*
X103760302Y-133122811D01*
X104225849Y-133433880D01*
X104775000Y-133543113D01*
X105324151Y-133433880D01*
X105789698Y-133122811D01*
X106100767Y-132657264D01*
X106210000Y-132108113D01*
X106210000Y-132051887D01*
X106515000Y-132051887D01*
X106515000Y-132108113D01*
X106624233Y-132657264D01*
X106935302Y-133122811D01*
X107400849Y-133433880D01*
X107950000Y-133543113D01*
X108499151Y-133433880D01*
X108964698Y-133122811D01*
X109275767Y-132657264D01*
X109385000Y-132108113D01*
X109385000Y-132051887D01*
X110325000Y-132051887D01*
X110325000Y-132108113D01*
X110434233Y-132657264D01*
X110745302Y-133122811D01*
X111210849Y-133433880D01*
X111760000Y-133543113D01*
X112309151Y-133433880D01*
X112774698Y-133122811D01*
X113085767Y-132657264D01*
X113195000Y-132108113D01*
X113195000Y-132051887D01*
X113500000Y-132051887D01*
X113500000Y-132108113D01*
X113609233Y-132657264D01*
X113920302Y-133122811D01*
X114385849Y-133433880D01*
X114935000Y-133543113D01*
X115484151Y-133433880D01*
X115949698Y-133122811D01*
X116260767Y-132657264D01*
X116370000Y-132108113D01*
X116370000Y-132051887D01*
X117310000Y-132051887D01*
X117310000Y-132108113D01*
X117419233Y-132657264D01*
X117730302Y-133122811D01*
X118195849Y-133433880D01*
X118745000Y-133543113D01*
X119294151Y-133433880D01*
X119759698Y-133122811D01*
X120070767Y-132657264D01*
X120180000Y-132108113D01*
X120180000Y-132051887D01*
X120485000Y-132051887D01*
X120485000Y-132108113D01*
X120594233Y-132657264D01*
X120905302Y-133122811D01*
X121370849Y-133433880D01*
X121920000Y-133543113D01*
X122469151Y-133433880D01*
X122934698Y-133122811D01*
X123245767Y-132657264D01*
X123355000Y-132108113D01*
X123355000Y-132051887D01*
X124295000Y-132051887D01*
X124295000Y-132108113D01*
X124404233Y-132657264D01*
X124715302Y-133122811D01*
X125180849Y-133433880D01*
X125730000Y-133543113D01*
X126279151Y-133433880D01*
X126744698Y-133122811D01*
X127055767Y-132657264D01*
X127165000Y-132108113D01*
X127165000Y-132051887D01*
X127470000Y-132051887D01*
X127470000Y-132108113D01*
X127579233Y-132657264D01*
X127890302Y-133122811D01*
X128355849Y-133433880D01*
X128905000Y-133543113D01*
X129454151Y-133433880D01*
X129919698Y-133122811D01*
X130230767Y-132657264D01*
X130289063Y-132364187D01*
X132549752Y-132364187D01*
X132767757Y-132891800D01*
X133171077Y-133295824D01*
X133698309Y-133514750D01*
X134269187Y-133515248D01*
X134796800Y-133297243D01*
X135200824Y-132893923D01*
X135419750Y-132366691D01*
X135419752Y-132364187D01*
X135724752Y-132364187D01*
X135942757Y-132891800D01*
X136346077Y-133295824D01*
X136873309Y-133514750D01*
X137444187Y-133515248D01*
X137971800Y-133297243D01*
X138375824Y-132893923D01*
X138594750Y-132366691D01*
X138595248Y-131795813D01*
X138377243Y-131268200D01*
X137973923Y-130864176D01*
X137446691Y-130645250D01*
X136875813Y-130644752D01*
X136348200Y-130862757D01*
X135944176Y-131266077D01*
X135725250Y-131793309D01*
X135724752Y-132364187D01*
X135419752Y-132364187D01*
X135420248Y-131795813D01*
X135202243Y-131268200D01*
X134798923Y-130864176D01*
X134271691Y-130645250D01*
X133700813Y-130644752D01*
X133173200Y-130862757D01*
X132769176Y-131266077D01*
X132550250Y-131793309D01*
X132549752Y-132364187D01*
X130289063Y-132364187D01*
X130340000Y-132108113D01*
X130340000Y-132051887D01*
X130230767Y-131502736D01*
X129919698Y-131037189D01*
X129454151Y-130726120D01*
X128905000Y-130616887D01*
X128355849Y-130726120D01*
X127890302Y-131037189D01*
X127579233Y-131502736D01*
X127470000Y-132051887D01*
X127165000Y-132051887D01*
X127055767Y-131502736D01*
X126744698Y-131037189D01*
X126279151Y-130726120D01*
X125730000Y-130616887D01*
X125180849Y-130726120D01*
X124715302Y-131037189D01*
X124404233Y-131502736D01*
X124295000Y-132051887D01*
X123355000Y-132051887D01*
X123245767Y-131502736D01*
X122934698Y-131037189D01*
X122469151Y-130726120D01*
X121920000Y-130616887D01*
X121370849Y-130726120D01*
X120905302Y-131037189D01*
X120594233Y-131502736D01*
X120485000Y-132051887D01*
X120180000Y-132051887D01*
X120070767Y-131502736D01*
X119759698Y-131037189D01*
X119294151Y-130726120D01*
X118745000Y-130616887D01*
X118195849Y-130726120D01*
X117730302Y-131037189D01*
X117419233Y-131502736D01*
X117310000Y-132051887D01*
X116370000Y-132051887D01*
X116260767Y-131502736D01*
X115949698Y-131037189D01*
X115484151Y-130726120D01*
X114935000Y-130616887D01*
X114385849Y-130726120D01*
X113920302Y-131037189D01*
X113609233Y-131502736D01*
X113500000Y-132051887D01*
X113195000Y-132051887D01*
X113085767Y-131502736D01*
X112774698Y-131037189D01*
X112309151Y-130726120D01*
X111760000Y-130616887D01*
X111210849Y-130726120D01*
X110745302Y-131037189D01*
X110434233Y-131502736D01*
X110325000Y-132051887D01*
X109385000Y-132051887D01*
X109275767Y-131502736D01*
X108964698Y-131037189D01*
X108499151Y-130726120D01*
X107950000Y-130616887D01*
X107400849Y-130726120D01*
X106935302Y-131037189D01*
X106624233Y-131502736D01*
X106515000Y-132051887D01*
X106210000Y-132051887D01*
X106100767Y-131502736D01*
X105789698Y-131037189D01*
X105324151Y-130726120D01*
X104775000Y-130616887D01*
X104225849Y-130726120D01*
X103760302Y-131037189D01*
X103449233Y-131502736D01*
X103340000Y-132051887D01*
X101040000Y-132051887D01*
X101040000Y-127919187D01*
X142709752Y-127919187D01*
X142927757Y-128446800D01*
X143331077Y-128850824D01*
X143385000Y-128873215D01*
X143385000Y-129612469D01*
X143354697Y-129624990D01*
X142961371Y-130017630D01*
X142748243Y-130530900D01*
X142747758Y-131086661D01*
X142959990Y-131600303D01*
X143352630Y-131993629D01*
X143865900Y-132206757D01*
X144421661Y-132207242D01*
X144835723Y-132036156D01*
X144354347Y-132756586D01*
X144110000Y-133985000D01*
X144354347Y-135213414D01*
X145050187Y-136254813D01*
X146091586Y-136950653D01*
X147320000Y-137195000D01*
X148548414Y-136950653D01*
X149589813Y-136254813D01*
X150285653Y-135213414D01*
X150530000Y-133985000D01*
X150285653Y-132756586D01*
X149589813Y-131715187D01*
X148548414Y-131019347D01*
X147320000Y-130775000D01*
X146091586Y-131019347D01*
X145370714Y-131501018D01*
X145541757Y-131089100D01*
X145542242Y-130533339D01*
X145330010Y-130019697D01*
X144937370Y-129626371D01*
X144905000Y-129612930D01*
X144905000Y-128873646D01*
X144956800Y-128852243D01*
X145360824Y-128448923D01*
X145579750Y-127921691D01*
X145580248Y-127350813D01*
X145362243Y-126823200D01*
X144958923Y-126419176D01*
X144431691Y-126200250D01*
X143860813Y-126199752D01*
X143333200Y-126417757D01*
X142929176Y-126821077D01*
X142710250Y-127348309D01*
X142709752Y-127919187D01*
X101040000Y-127919187D01*
X101040000Y-124109187D01*
X142709752Y-124109187D01*
X142927757Y-124636800D01*
X143331077Y-125040824D01*
X143858309Y-125259750D01*
X144429187Y-125260248D01*
X144956800Y-125042243D01*
X145360824Y-124638923D01*
X145579750Y-124111691D01*
X145580248Y-123540813D01*
X145362243Y-123013200D01*
X144958923Y-122609176D01*
X144905000Y-122586785D01*
X144905000Y-120797525D01*
X145050187Y-121014813D01*
X146091586Y-121710653D01*
X147320000Y-121955000D01*
X148548414Y-121710653D01*
X149589813Y-121014813D01*
X150285653Y-119973414D01*
X150530000Y-118745000D01*
X150285653Y-117516586D01*
X149589813Y-116475187D01*
X148548414Y-115779347D01*
X147320000Y-115535000D01*
X146091586Y-115779347D01*
X145370714Y-116261018D01*
X145541757Y-115849100D01*
X145542242Y-115293339D01*
X145330010Y-114779697D01*
X144937370Y-114386371D01*
X144424100Y-114173243D01*
X143868339Y-114172758D01*
X143354697Y-114384990D01*
X142961371Y-114777630D01*
X142748243Y-115290900D01*
X142747758Y-115846661D01*
X142959990Y-116360303D01*
X143352630Y-116753629D01*
X143385000Y-116767070D01*
X143385000Y-122586354D01*
X143333200Y-122607757D01*
X142929176Y-123011077D01*
X142710250Y-123538309D01*
X142709752Y-124109187D01*
X101040000Y-124109187D01*
X101040000Y-122204187D01*
X103339752Y-122204187D01*
X103557757Y-122731800D01*
X103961077Y-123135824D01*
X104488309Y-123354750D01*
X105059187Y-123355248D01*
X105586800Y-123137243D01*
X105990824Y-122733923D01*
X106209750Y-122206691D01*
X106209752Y-122204187D01*
X106514752Y-122204187D01*
X106732757Y-122731800D01*
X107136077Y-123135824D01*
X107663309Y-123354750D01*
X108234187Y-123355248D01*
X108761800Y-123137243D01*
X109165824Y-122733923D01*
X109384750Y-122206691D01*
X109384752Y-122204187D01*
X110324752Y-122204187D01*
X110542757Y-122731800D01*
X110946077Y-123135824D01*
X111473309Y-123354750D01*
X112044187Y-123355248D01*
X112571800Y-123137243D01*
X112975824Y-122733923D01*
X113194750Y-122206691D01*
X113194752Y-122204187D01*
X113499752Y-122204187D01*
X113717757Y-122731800D01*
X114121077Y-123135824D01*
X114648309Y-123354750D01*
X115219187Y-123355248D01*
X115746800Y-123137243D01*
X116150824Y-122733923D01*
X116369750Y-122206691D01*
X116369752Y-122204187D01*
X117309752Y-122204187D01*
X117527757Y-122731800D01*
X117931077Y-123135824D01*
X118458309Y-123354750D01*
X119029187Y-123355248D01*
X119556800Y-123137243D01*
X119960824Y-122733923D01*
X120179750Y-122206691D01*
X120179752Y-122204187D01*
X120484752Y-122204187D01*
X120702757Y-122731800D01*
X121106077Y-123135824D01*
X121633309Y-123354750D01*
X122204187Y-123355248D01*
X122731800Y-123137243D01*
X123135824Y-122733923D01*
X123354750Y-122206691D01*
X123354752Y-122204187D01*
X124294752Y-122204187D01*
X124512757Y-122731800D01*
X124916077Y-123135824D01*
X125443309Y-123354750D01*
X126014187Y-123355248D01*
X126541800Y-123137243D01*
X126945824Y-122733923D01*
X127164750Y-122206691D01*
X127164752Y-122204187D01*
X127469752Y-122204187D01*
X127687757Y-122731800D01*
X128091077Y-123135824D01*
X128618309Y-123354750D01*
X129189187Y-123355248D01*
X129716800Y-123137243D01*
X130120824Y-122733923D01*
X130339750Y-122206691D01*
X130340024Y-121891887D01*
X132550000Y-121891887D01*
X132550000Y-121948113D01*
X132659233Y-122497264D01*
X132970302Y-122962811D01*
X133435849Y-123273880D01*
X133985000Y-123383113D01*
X134534151Y-123273880D01*
X134999698Y-122962811D01*
X135188667Y-122680000D01*
X135956333Y-122680000D01*
X136145302Y-122962811D01*
X136610849Y-123273880D01*
X137160000Y-123383113D01*
X137709151Y-123273880D01*
X138174698Y-122962811D01*
X138485767Y-122497264D01*
X138595000Y-121948113D01*
X138595000Y-121891887D01*
X138485767Y-121342736D01*
X138174698Y-120877189D01*
X137709151Y-120566120D01*
X137160000Y-120456887D01*
X136610849Y-120566120D01*
X136145302Y-120877189D01*
X135956333Y-121160000D01*
X135188667Y-121160000D01*
X134999698Y-120877189D01*
X134534151Y-120566120D01*
X133985000Y-120456887D01*
X133435849Y-120566120D01*
X132970302Y-120877189D01*
X132659233Y-121342736D01*
X132550000Y-121891887D01*
X130340024Y-121891887D01*
X130340248Y-121635813D01*
X130122243Y-121108200D01*
X129718923Y-120704176D01*
X129191691Y-120485250D01*
X128620813Y-120484752D01*
X128093200Y-120702757D01*
X127689176Y-121106077D01*
X127470250Y-121633309D01*
X127469752Y-122204187D01*
X127164752Y-122204187D01*
X127165248Y-121635813D01*
X126947243Y-121108200D01*
X126543923Y-120704176D01*
X126016691Y-120485250D01*
X125445813Y-120484752D01*
X124918200Y-120702757D01*
X124514176Y-121106077D01*
X124295250Y-121633309D01*
X124294752Y-122204187D01*
X123354752Y-122204187D01*
X123355248Y-121635813D01*
X123137243Y-121108200D01*
X122733923Y-120704176D01*
X122206691Y-120485250D01*
X121635813Y-120484752D01*
X121108200Y-120702757D01*
X120704176Y-121106077D01*
X120485250Y-121633309D01*
X120484752Y-122204187D01*
X120179752Y-122204187D01*
X120180248Y-121635813D01*
X119962243Y-121108200D01*
X119558923Y-120704176D01*
X119031691Y-120485250D01*
X118460813Y-120484752D01*
X117933200Y-120702757D01*
X117529176Y-121106077D01*
X117310250Y-121633309D01*
X117309752Y-122204187D01*
X116369752Y-122204187D01*
X116370248Y-121635813D01*
X116152243Y-121108200D01*
X115748923Y-120704176D01*
X115221691Y-120485250D01*
X114650813Y-120484752D01*
X114123200Y-120702757D01*
X113719176Y-121106077D01*
X113500250Y-121633309D01*
X113499752Y-122204187D01*
X113194752Y-122204187D01*
X113195248Y-121635813D01*
X112977243Y-121108200D01*
X112573923Y-120704176D01*
X112046691Y-120485250D01*
X111475813Y-120484752D01*
X110948200Y-120702757D01*
X110544176Y-121106077D01*
X110325250Y-121633309D01*
X110324752Y-122204187D01*
X109384752Y-122204187D01*
X109385248Y-121635813D01*
X109167243Y-121108200D01*
X108763923Y-120704176D01*
X108236691Y-120485250D01*
X107665813Y-120484752D01*
X107138200Y-120702757D01*
X106734176Y-121106077D01*
X106515250Y-121633309D01*
X106514752Y-122204187D01*
X106209752Y-122204187D01*
X106210248Y-121635813D01*
X105992243Y-121108200D01*
X105588923Y-120704176D01*
X105061691Y-120485250D01*
X104490813Y-120484752D01*
X103963200Y-120702757D01*
X103559176Y-121106077D01*
X103340250Y-121633309D01*
X103339752Y-122204187D01*
X101040000Y-122204187D01*
X101040000Y-117760750D01*
X104275000Y-117760750D01*
X104275000Y-118101309D01*
X104371673Y-118334698D01*
X104550301Y-118513327D01*
X104783690Y-118610000D01*
X105124250Y-118610000D01*
X105283000Y-118451250D01*
X105283000Y-117602000D01*
X105537000Y-117602000D01*
X105537000Y-118451250D01*
X105695750Y-118610000D01*
X106036310Y-118610000D01*
X106269699Y-118513327D01*
X106448327Y-118334698D01*
X106545000Y-118101309D01*
X106545000Y-117760750D01*
X106386250Y-117602000D01*
X105537000Y-117602000D01*
X105283000Y-117602000D01*
X104433750Y-117602000D01*
X104275000Y-117760750D01*
X101040000Y-117760750D01*
X101040000Y-116848691D01*
X104275000Y-116848691D01*
X104275000Y-117189250D01*
X104433750Y-117348000D01*
X105283000Y-117348000D01*
X105283000Y-116498750D01*
X105537000Y-116498750D01*
X105537000Y-117348000D01*
X106386250Y-117348000D01*
X106411698Y-117322552D01*
X106453244Y-117339803D01*
X106815117Y-117340119D01*
X106814803Y-117699775D01*
X106987233Y-118117086D01*
X107306235Y-118436645D01*
X107723244Y-118609803D01*
X108174775Y-118610197D01*
X108592086Y-118437767D01*
X108911645Y-118118765D01*
X109060306Y-117760750D01*
X111260000Y-117760750D01*
X111260000Y-118101309D01*
X111356673Y-118334698D01*
X111535301Y-118513327D01*
X111768690Y-118610000D01*
X112109250Y-118610000D01*
X112268000Y-118451250D01*
X112268000Y-117602000D01*
X112522000Y-117602000D01*
X112522000Y-118451250D01*
X112680750Y-118610000D01*
X113021310Y-118610000D01*
X113254699Y-118513327D01*
X113433327Y-118334698D01*
X113530000Y-118101309D01*
X113530000Y-117760750D01*
X113371250Y-117602000D01*
X112522000Y-117602000D01*
X112268000Y-117602000D01*
X111418750Y-117602000D01*
X111260000Y-117760750D01*
X109060306Y-117760750D01*
X109084803Y-117701756D01*
X109085197Y-117250225D01*
X108919286Y-116848691D01*
X111260000Y-116848691D01*
X111260000Y-117189250D01*
X111418750Y-117348000D01*
X112268000Y-117348000D01*
X112268000Y-116498750D01*
X112522000Y-116498750D01*
X112522000Y-117348000D01*
X113371250Y-117348000D01*
X113396698Y-117322552D01*
X113438244Y-117339803D01*
X113800117Y-117340119D01*
X113799803Y-117699775D01*
X113972233Y-118117086D01*
X114291235Y-118436645D01*
X114708244Y-118609803D01*
X115159775Y-118610197D01*
X115577086Y-118437767D01*
X115896645Y-118118765D01*
X116045306Y-117760750D01*
X118245000Y-117760750D01*
X118245000Y-118101309D01*
X118341673Y-118334698D01*
X118520301Y-118513327D01*
X118753690Y-118610000D01*
X119094250Y-118610000D01*
X119253000Y-118451250D01*
X119253000Y-117602000D01*
X119507000Y-117602000D01*
X119507000Y-118451250D01*
X119665750Y-118610000D01*
X120006310Y-118610000D01*
X120239699Y-118513327D01*
X120418327Y-118334698D01*
X120515000Y-118101309D01*
X120515000Y-117760750D01*
X120356250Y-117602000D01*
X119507000Y-117602000D01*
X119253000Y-117602000D01*
X118403750Y-117602000D01*
X118245000Y-117760750D01*
X116045306Y-117760750D01*
X116069803Y-117701756D01*
X116070197Y-117250225D01*
X115904286Y-116848691D01*
X118245000Y-116848691D01*
X118245000Y-117189250D01*
X118403750Y-117348000D01*
X119253000Y-117348000D01*
X119253000Y-116498750D01*
X119507000Y-116498750D01*
X119507000Y-117348000D01*
X120356250Y-117348000D01*
X120381698Y-117322552D01*
X120423244Y-117339803D01*
X120785117Y-117340119D01*
X120784803Y-117699775D01*
X120957233Y-118117086D01*
X121276235Y-118436645D01*
X121693244Y-118609803D01*
X122144775Y-118610197D01*
X122562086Y-118437767D01*
X122881645Y-118118765D01*
X123030306Y-117760750D01*
X125230000Y-117760750D01*
X125230000Y-118101309D01*
X125326673Y-118334698D01*
X125505301Y-118513327D01*
X125738690Y-118610000D01*
X126079250Y-118610000D01*
X126238000Y-118451250D01*
X126238000Y-117602000D01*
X126492000Y-117602000D01*
X126492000Y-118451250D01*
X126650750Y-118610000D01*
X126991310Y-118610000D01*
X127224699Y-118513327D01*
X127403327Y-118334698D01*
X127500000Y-118101309D01*
X127500000Y-117760750D01*
X127341250Y-117602000D01*
X126492000Y-117602000D01*
X126238000Y-117602000D01*
X125388750Y-117602000D01*
X125230000Y-117760750D01*
X123030306Y-117760750D01*
X123054803Y-117701756D01*
X123055197Y-117250225D01*
X122889286Y-116848691D01*
X125230000Y-116848691D01*
X125230000Y-117189250D01*
X125388750Y-117348000D01*
X126238000Y-117348000D01*
X126238000Y-116498750D01*
X126492000Y-116498750D01*
X126492000Y-117348000D01*
X127341250Y-117348000D01*
X127366698Y-117322552D01*
X127408244Y-117339803D01*
X127770117Y-117340119D01*
X127769803Y-117699775D01*
X127942233Y-118117086D01*
X128261235Y-118436645D01*
X128678244Y-118609803D01*
X129129775Y-118610197D01*
X129547086Y-118437767D01*
X129866645Y-118118765D01*
X130039803Y-117701756D01*
X130040197Y-117250225D01*
X129867767Y-116832914D01*
X129548765Y-116513355D01*
X129131756Y-116340197D01*
X128769883Y-116339881D01*
X128770197Y-115980225D01*
X128597767Y-115562914D01*
X128278765Y-115243355D01*
X127861756Y-115070197D01*
X127410225Y-115069803D01*
X126992914Y-115242233D01*
X126673355Y-115561235D01*
X126500197Y-115978244D01*
X126499803Y-116429775D01*
X126517689Y-116473061D01*
X126492000Y-116498750D01*
X126238000Y-116498750D01*
X126079250Y-116340000D01*
X125738690Y-116340000D01*
X125505301Y-116436673D01*
X125326673Y-116615302D01*
X125230000Y-116848691D01*
X122889286Y-116848691D01*
X122882767Y-116832914D01*
X122563765Y-116513355D01*
X122146756Y-116340197D01*
X121784883Y-116339881D01*
X121785197Y-115980225D01*
X121612767Y-115562914D01*
X121293765Y-115243355D01*
X120876756Y-115070197D01*
X120425225Y-115069803D01*
X120007914Y-115242233D01*
X119688355Y-115561235D01*
X119515197Y-115978244D01*
X119514803Y-116429775D01*
X119532689Y-116473061D01*
X119507000Y-116498750D01*
X119253000Y-116498750D01*
X119094250Y-116340000D01*
X118753690Y-116340000D01*
X118520301Y-116436673D01*
X118341673Y-116615302D01*
X118245000Y-116848691D01*
X115904286Y-116848691D01*
X115897767Y-116832914D01*
X115578765Y-116513355D01*
X115161756Y-116340197D01*
X114799883Y-116339881D01*
X114800197Y-115980225D01*
X114627767Y-115562914D01*
X114308765Y-115243355D01*
X113891756Y-115070197D01*
X113440225Y-115069803D01*
X113022914Y-115242233D01*
X112703355Y-115561235D01*
X112530197Y-115978244D01*
X112529803Y-116429775D01*
X112547689Y-116473061D01*
X112522000Y-116498750D01*
X112268000Y-116498750D01*
X112109250Y-116340000D01*
X111768690Y-116340000D01*
X111535301Y-116436673D01*
X111356673Y-116615302D01*
X111260000Y-116848691D01*
X108919286Y-116848691D01*
X108912767Y-116832914D01*
X108593765Y-116513355D01*
X108176756Y-116340197D01*
X107814883Y-116339881D01*
X107815197Y-115980225D01*
X107642767Y-115562914D01*
X107323765Y-115243355D01*
X106906756Y-115070197D01*
X106455225Y-115069803D01*
X106037914Y-115242233D01*
X105718355Y-115561235D01*
X105545197Y-115978244D01*
X105544803Y-116429775D01*
X105562689Y-116473061D01*
X105537000Y-116498750D01*
X105283000Y-116498750D01*
X105124250Y-116340000D01*
X104783690Y-116340000D01*
X104550301Y-116436673D01*
X104371673Y-116615302D01*
X104275000Y-116848691D01*
X101040000Y-116848691D01*
X101040000Y-113850167D01*
X128604838Y-113850167D01*
X128746883Y-114193943D01*
X129009673Y-114457192D01*
X129273554Y-114566765D01*
X129381883Y-114828943D01*
X129644673Y-115092192D01*
X129908554Y-115201765D01*
X130016883Y-115463943D01*
X130279673Y-115727192D01*
X130543554Y-115836765D01*
X130651883Y-116098943D01*
X130914673Y-116362192D01*
X131258201Y-116504838D01*
X131630167Y-116505162D01*
X131973943Y-116363117D01*
X132007118Y-116330000D01*
X137795000Y-116330000D01*
X138085839Y-116272148D01*
X138332401Y-116107401D01*
X138569680Y-115870122D01*
X138615167Y-115870162D01*
X138958943Y-115728117D01*
X139222192Y-115465327D01*
X139364838Y-115121799D01*
X139365162Y-114749833D01*
X139223117Y-114406057D01*
X138960327Y-114142808D01*
X138696446Y-114033235D01*
X138588117Y-113771057D01*
X138325327Y-113507808D01*
X138061446Y-113398235D01*
X137953117Y-113136057D01*
X137690327Y-112872808D01*
X137426446Y-112763235D01*
X137318117Y-112501057D01*
X137055327Y-112237808D01*
X136711799Y-112095162D01*
X136339833Y-112094838D01*
X135996057Y-112236883D01*
X135732808Y-112499673D01*
X135590162Y-112843201D01*
X135590121Y-112890077D01*
X135575198Y-112905000D01*
X130102463Y-112905000D01*
X130070327Y-112872808D01*
X129726799Y-112730162D01*
X129646104Y-112730092D01*
X129829896Y-112629500D01*
X130182166Y-112191483D01*
X130340000Y-111652000D01*
X130340000Y-111252000D01*
X129032000Y-111252000D01*
X129032000Y-112794915D01*
X129102969Y-112833906D01*
X129011057Y-112871883D01*
X128747808Y-113134673D01*
X128605162Y-113478201D01*
X128604838Y-113850167D01*
X101040000Y-113850167D01*
X101040000Y-111410750D01*
X104610000Y-111410750D01*
X104610000Y-112451309D01*
X104706673Y-112684698D01*
X104885301Y-112863327D01*
X105118690Y-112960000D01*
X105759250Y-112960000D01*
X105918000Y-112801250D01*
X105918000Y-111252000D01*
X104768750Y-111252000D01*
X104610000Y-111410750D01*
X101040000Y-111410750D01*
X101040000Y-110782745D01*
X101406861Y-110782745D01*
X101480995Y-111028864D01*
X102018223Y-111221965D01*
X102588454Y-111194778D01*
X102989005Y-111028864D01*
X103063139Y-110782745D01*
X102235000Y-109954605D01*
X101406861Y-110782745D01*
X101040000Y-110782745D01*
X101040000Y-110546736D01*
X101227255Y-110603139D01*
X102055395Y-109775000D01*
X102414605Y-109775000D01*
X103242745Y-110603139D01*
X103488864Y-110529005D01*
X103681965Y-109991777D01*
X103672760Y-109798691D01*
X104610000Y-109798691D01*
X104610000Y-110839250D01*
X104768750Y-110998000D01*
X105918000Y-110998000D01*
X105918000Y-109448750D01*
X105759250Y-109290000D01*
X105118690Y-109290000D01*
X104885301Y-109386673D01*
X104706673Y-109565302D01*
X104610000Y-109798691D01*
X103672760Y-109798691D01*
X103654778Y-109421546D01*
X103488864Y-109020995D01*
X103242745Y-108946861D01*
X102414605Y-109775000D01*
X102055395Y-109775000D01*
X101227255Y-108946861D01*
X101040000Y-109003264D01*
X101040000Y-108767255D01*
X101406861Y-108767255D01*
X102235000Y-109595395D01*
X103063139Y-108767255D01*
X102989005Y-108521136D01*
X102451777Y-108328035D01*
X101881546Y-108355222D01*
X101480995Y-108521136D01*
X101406861Y-108767255D01*
X101040000Y-108767255D01*
X101040000Y-105609082D01*
X101421077Y-105990824D01*
X101948309Y-106209750D01*
X102519187Y-106210248D01*
X103046800Y-105992243D01*
X103450824Y-105588923D01*
X103669750Y-105061691D01*
X103670248Y-104490813D01*
X103647951Y-104436851D01*
X103819802Y-104265000D01*
X104674458Y-104265000D01*
X104719233Y-104490101D01*
X105030302Y-104955648D01*
X105495849Y-105266717D01*
X106045000Y-105375950D01*
X106594151Y-105266717D01*
X107059698Y-104955648D01*
X107315000Y-104573562D01*
X107570302Y-104955648D01*
X107825000Y-105125832D01*
X107825000Y-106045000D01*
X107882852Y-106335839D01*
X108047599Y-106582401D01*
X108375600Y-106910402D01*
X108285162Y-107128201D01*
X108284838Y-107500167D01*
X108426883Y-107843943D01*
X108689673Y-108107192D01*
X109033201Y-108249838D01*
X109405167Y-108250162D01*
X109748943Y-108108117D01*
X109782118Y-108075000D01*
X120349890Y-108075000D01*
X120349838Y-108135167D01*
X120491883Y-108478943D01*
X120754673Y-108742192D01*
X121018554Y-108851765D01*
X121126883Y-109113943D01*
X121269770Y-109257079D01*
X120735849Y-109363283D01*
X120270302Y-109674352D01*
X120015000Y-110056438D01*
X119759698Y-109674352D01*
X119294151Y-109363283D01*
X118745000Y-109254050D01*
X118195849Y-109363283D01*
X117730302Y-109674352D01*
X117475000Y-110056438D01*
X117219698Y-109674352D01*
X116754151Y-109363283D01*
X116205000Y-109254050D01*
X115655849Y-109363283D01*
X115190302Y-109674352D01*
X114935000Y-110056438D01*
X114679698Y-109674352D01*
X114214151Y-109363283D01*
X113665000Y-109254050D01*
X113115849Y-109363283D01*
X112650302Y-109674352D01*
X112395000Y-110056438D01*
X112139698Y-109674352D01*
X111674151Y-109363283D01*
X111125000Y-109254050D01*
X110575849Y-109363283D01*
X110110302Y-109674352D01*
X109855000Y-110056438D01*
X109599698Y-109674352D01*
X109134151Y-109363283D01*
X108585000Y-109254050D01*
X108035849Y-109363283D01*
X107570302Y-109674352D01*
X107480000Y-109809498D01*
X107480000Y-109798691D01*
X107383327Y-109565302D01*
X107204699Y-109386673D01*
X106971310Y-109290000D01*
X106330750Y-109290000D01*
X106172000Y-109448750D01*
X106172000Y-110998000D01*
X106192000Y-110998000D01*
X106192000Y-111252000D01*
X106172000Y-111252000D01*
X106172000Y-112801250D01*
X106330750Y-112960000D01*
X106971310Y-112960000D01*
X107204699Y-112863327D01*
X107383327Y-112684698D01*
X107480000Y-112451309D01*
X107480000Y-112440502D01*
X107570302Y-112575648D01*
X108035849Y-112886717D01*
X108585000Y-112995950D01*
X109134151Y-112886717D01*
X109599698Y-112575648D01*
X109855000Y-112193562D01*
X110110302Y-112575648D01*
X110575849Y-112886717D01*
X111125000Y-112995950D01*
X111674151Y-112886717D01*
X112139698Y-112575648D01*
X112395000Y-112193562D01*
X112650302Y-112575648D01*
X113115849Y-112886717D01*
X113665000Y-112995950D01*
X114214151Y-112886717D01*
X114679698Y-112575648D01*
X114935000Y-112193562D01*
X115190302Y-112575648D01*
X115655849Y-112886717D01*
X116205000Y-112995950D01*
X116754151Y-112886717D01*
X117219698Y-112575648D01*
X117475000Y-112193562D01*
X117730302Y-112575648D01*
X118195849Y-112886717D01*
X118745000Y-112995950D01*
X119294151Y-112886717D01*
X119759698Y-112575648D01*
X120015000Y-112193562D01*
X120270302Y-112575648D01*
X120735849Y-112886717D01*
X121285000Y-112995950D01*
X121834151Y-112886717D01*
X122299698Y-112575648D01*
X122555000Y-112193562D01*
X122810302Y-112575648D01*
X123275849Y-112886717D01*
X123825000Y-112995950D01*
X124374151Y-112886717D01*
X124839698Y-112575648D01*
X125095000Y-112193562D01*
X125350302Y-112575648D01*
X125815849Y-112886717D01*
X126365000Y-112995950D01*
X126914151Y-112886717D01*
X127379698Y-112575648D01*
X127632507Y-112197293D01*
X127980104Y-112629500D01*
X128473181Y-112899367D01*
X128555961Y-112916904D01*
X128778000Y-112794915D01*
X128778000Y-111252000D01*
X128758000Y-111252000D01*
X128758000Y-110998000D01*
X128778000Y-110998000D01*
X128778000Y-110978000D01*
X129032000Y-110978000D01*
X129032000Y-110998000D01*
X130340000Y-110998000D01*
X130340000Y-110598000D01*
X130182166Y-110058517D01*
X129829896Y-109620500D01*
X129336819Y-109350633D01*
X129310230Y-109345000D01*
X130509890Y-109345000D01*
X130509838Y-109405167D01*
X130651883Y-109748943D01*
X130914673Y-110012192D01*
X131258201Y-110154838D01*
X131630167Y-110155162D01*
X131973943Y-110013117D01*
X132007118Y-109980000D01*
X136845198Y-109980000D01*
X138527599Y-111662401D01*
X138774161Y-111827148D01*
X139065000Y-111885000D01*
X139504617Y-111885000D01*
X139151371Y-112237630D01*
X138938243Y-112750900D01*
X138937758Y-113306661D01*
X139149990Y-113820303D01*
X139542630Y-114213629D01*
X140055900Y-114426757D01*
X140611661Y-114427242D01*
X141125303Y-114215010D01*
X141518629Y-113822370D01*
X141731757Y-113309100D01*
X141732242Y-112753339D01*
X141520010Y-112239697D01*
X141165932Y-111885000D01*
X141290198Y-111885000D01*
X141939878Y-112534680D01*
X141939838Y-112580167D01*
X142081883Y-112923943D01*
X142344673Y-113187192D01*
X142688201Y-113329838D01*
X143060167Y-113330162D01*
X143403943Y-113188117D01*
X143667192Y-112925327D01*
X143776765Y-112661446D01*
X144038943Y-112553117D01*
X144302192Y-112290327D01*
X144411765Y-112026446D01*
X144673943Y-111918117D01*
X144937192Y-111655327D01*
X145046765Y-111391446D01*
X145308943Y-111283117D01*
X145572192Y-111020327D01*
X145681765Y-110756446D01*
X145878476Y-110675167D01*
X152734838Y-110675167D01*
X152876883Y-111018943D01*
X153139673Y-111282192D01*
X153483201Y-111424838D01*
X153530077Y-111424879D01*
X153545000Y-111439802D01*
X153545000Y-122621333D01*
X153262189Y-122810302D01*
X152951120Y-123275849D01*
X152841887Y-123825000D01*
X152951120Y-124374151D01*
X153262189Y-124839698D01*
X153727736Y-125150767D01*
X154276887Y-125260000D01*
X154333113Y-125260000D01*
X154815000Y-125164147D01*
X154815000Y-126295853D01*
X154333113Y-126200000D01*
X154276887Y-126200000D01*
X153727736Y-126309233D01*
X153262189Y-126620302D01*
X152951120Y-127085849D01*
X152841887Y-127635000D01*
X152951120Y-128184151D01*
X153262189Y-128649698D01*
X153727736Y-128960767D01*
X154276887Y-129070000D01*
X154333113Y-129070000D01*
X154882264Y-128960767D01*
X155347811Y-128649698D01*
X155658880Y-128184151D01*
X155706859Y-127942943D01*
X155730615Y-127919187D01*
X156679752Y-127919187D01*
X156897757Y-128446800D01*
X157301077Y-128850824D01*
X157355000Y-128873215D01*
X157355000Y-129540000D01*
X157412852Y-129830839D01*
X157577599Y-130077401D01*
X158000817Y-130500619D01*
X157988243Y-130530900D01*
X157987758Y-131086661D01*
X158199990Y-131600303D01*
X158592630Y-131993629D01*
X159105900Y-132206757D01*
X159326602Y-132206950D01*
X158959347Y-132756586D01*
X158715000Y-133985000D01*
X158959347Y-135213414D01*
X159655187Y-136254813D01*
X160696586Y-136950653D01*
X161925000Y-137195000D01*
X163153414Y-136950653D01*
X164194813Y-136254813D01*
X164890653Y-135213414D01*
X165135000Y-133985000D01*
X164890653Y-132756586D01*
X164194813Y-131715187D01*
X163153414Y-131019347D01*
X161925000Y-130775000D01*
X160781833Y-131002390D01*
X160782242Y-130533339D01*
X160570010Y-130019697D01*
X160177370Y-129626371D01*
X159664100Y-129413243D01*
X159108339Y-129412758D01*
X159075945Y-129426143D01*
X158875000Y-129225198D01*
X158875000Y-128873646D01*
X158926800Y-128852243D01*
X159330824Y-128448923D01*
X159549750Y-127921691D01*
X159550248Y-127350813D01*
X159332243Y-126823200D01*
X158928923Y-126419176D01*
X158401691Y-126200250D01*
X157830813Y-126199752D01*
X157303200Y-126417757D01*
X156899176Y-126821077D01*
X156680250Y-127348309D01*
X156679752Y-127919187D01*
X155730615Y-127919187D01*
X156112401Y-127537401D01*
X156277148Y-127290839D01*
X156335000Y-127000000D01*
X156335000Y-124109187D01*
X156679752Y-124109187D01*
X156897757Y-124636800D01*
X157301077Y-125040824D01*
X157828309Y-125259750D01*
X158399187Y-125260248D01*
X158926800Y-125042243D01*
X159330824Y-124638923D01*
X159549750Y-124111691D01*
X159550248Y-123540813D01*
X159332243Y-123013200D01*
X158928923Y-122609176D01*
X158875000Y-122586785D01*
X158875000Y-119549373D01*
X158959347Y-119973414D01*
X159655187Y-121014813D01*
X160696586Y-121710653D01*
X161925000Y-121955000D01*
X163153414Y-121710653D01*
X164194813Y-121014813D01*
X164890653Y-119973414D01*
X165135000Y-118745000D01*
X164890653Y-117516586D01*
X164194813Y-116475187D01*
X163153414Y-115779347D01*
X161925000Y-115535000D01*
X160781833Y-115762390D01*
X160782242Y-115293339D01*
X160570010Y-114779697D01*
X160177370Y-114386371D01*
X159664100Y-114173243D01*
X159108339Y-114172758D01*
X158594697Y-114384990D01*
X158201371Y-114777630D01*
X157988243Y-115290900D01*
X157987758Y-115846661D01*
X158001143Y-115879055D01*
X157577599Y-116302599D01*
X157412852Y-116549161D01*
X157355000Y-116840000D01*
X157355000Y-122586354D01*
X157303200Y-122607757D01*
X156899176Y-123011077D01*
X156680250Y-123538309D01*
X156679752Y-124109187D01*
X156335000Y-124109187D01*
X156335000Y-111310167D01*
X166704838Y-111310167D01*
X166846883Y-111653943D01*
X167109673Y-111917192D01*
X167453201Y-112059838D01*
X167500077Y-112059879D01*
X167515000Y-112074802D01*
X167515000Y-122621333D01*
X167232189Y-122810302D01*
X166921120Y-123275849D01*
X166811887Y-123825000D01*
X166921120Y-124374151D01*
X167232189Y-124839698D01*
X167697736Y-125150767D01*
X168246887Y-125260000D01*
X168303113Y-125260000D01*
X168785000Y-125164147D01*
X168785000Y-126295853D01*
X168303113Y-126200000D01*
X168246887Y-126200000D01*
X167697736Y-126309233D01*
X167232189Y-126620302D01*
X166921120Y-127085849D01*
X166811887Y-127635000D01*
X166921120Y-128184151D01*
X167232189Y-128649698D01*
X167697736Y-128960767D01*
X168246887Y-129070000D01*
X168303113Y-129070000D01*
X168852264Y-128960767D01*
X169317811Y-128649698D01*
X169628880Y-128184151D01*
X169676859Y-127942943D01*
X169700615Y-127919187D01*
X170649752Y-127919187D01*
X170867757Y-128446800D01*
X171271077Y-128850824D01*
X171798309Y-129069750D01*
X171809958Y-129069760D01*
X173240817Y-130500619D01*
X173228243Y-130530900D01*
X173227758Y-131086661D01*
X173439990Y-131600303D01*
X173832630Y-131993629D01*
X174345900Y-132206757D01*
X174901661Y-132207242D01*
X175315723Y-132036156D01*
X174834347Y-132756586D01*
X174590000Y-133985000D01*
X174834347Y-135213414D01*
X175530187Y-136254813D01*
X176571586Y-136950653D01*
X177800000Y-137195000D01*
X179028414Y-136950653D01*
X180069813Y-136254813D01*
X180765653Y-135213414D01*
X181010000Y-133985000D01*
X180765653Y-132756586D01*
X180069813Y-131715187D01*
X179028414Y-131019347D01*
X177800000Y-130775000D01*
X176571586Y-131019347D01*
X175850714Y-131501018D01*
X176021757Y-131089100D01*
X176022242Y-130533339D01*
X175810010Y-130019697D01*
X175417370Y-129626371D01*
X174904100Y-129413243D01*
X174348339Y-129412758D01*
X174315945Y-129426143D01*
X173311944Y-128422142D01*
X173519750Y-127921691D01*
X173520248Y-127350813D01*
X173302243Y-126823200D01*
X172898923Y-126419176D01*
X172371691Y-126200250D01*
X171800813Y-126199752D01*
X171273200Y-126417757D01*
X170869176Y-126821077D01*
X170650250Y-127348309D01*
X170649752Y-127919187D01*
X169700615Y-127919187D01*
X170082401Y-127537401D01*
X170247148Y-127290839D01*
X170305000Y-127000000D01*
X170305000Y-124109187D01*
X170649752Y-124109187D01*
X170867757Y-124636800D01*
X171271077Y-125040824D01*
X171798309Y-125259750D01*
X172369187Y-125260248D01*
X172896800Y-125042243D01*
X173300824Y-124638923D01*
X173519750Y-124111691D01*
X173520248Y-123540813D01*
X173302243Y-123013200D01*
X172898923Y-122609176D01*
X172845000Y-122586785D01*
X172845000Y-118424802D01*
X174315619Y-116954183D01*
X174345900Y-116966757D01*
X174901661Y-116967242D01*
X175315723Y-116796156D01*
X174834347Y-117516586D01*
X174590000Y-118745000D01*
X174834347Y-119973414D01*
X175530187Y-121014813D01*
X176571586Y-121710653D01*
X177800000Y-121955000D01*
X179028414Y-121710653D01*
X180069813Y-121014813D01*
X180765653Y-119973414D01*
X181010000Y-118745000D01*
X180765653Y-117516586D01*
X180069813Y-116475187D01*
X179028414Y-115779347D01*
X177800000Y-115535000D01*
X176571586Y-115779347D01*
X175850714Y-116261018D01*
X176021757Y-115849100D01*
X176022242Y-115293339D01*
X175810010Y-114779697D01*
X175417370Y-114386371D01*
X174904100Y-114173243D01*
X174348339Y-114172758D01*
X173834697Y-114384990D01*
X173441371Y-114777630D01*
X173228243Y-115290900D01*
X173227758Y-115846661D01*
X173241143Y-115879055D01*
X171547599Y-117572599D01*
X171382852Y-117819161D01*
X171325000Y-118110000D01*
X171325000Y-122586354D01*
X171273200Y-122607757D01*
X170869176Y-123011077D01*
X170650250Y-123538309D01*
X170649752Y-124109187D01*
X170305000Y-124109187D01*
X170305000Y-111945167D01*
X180674838Y-111945167D01*
X180816883Y-112288943D01*
X181079673Y-112552192D01*
X181423201Y-112694838D01*
X181470077Y-112694879D01*
X181485000Y-112709802D01*
X181485000Y-122621333D01*
X181202189Y-122810302D01*
X180891120Y-123275849D01*
X180781887Y-123825000D01*
X180891120Y-124374151D01*
X181202189Y-124839698D01*
X181667736Y-125150767D01*
X182216887Y-125260000D01*
X182273113Y-125260000D01*
X182755000Y-125164147D01*
X182755000Y-126295853D01*
X182273113Y-126200000D01*
X182216887Y-126200000D01*
X181667736Y-126309233D01*
X181202189Y-126620302D01*
X180891120Y-127085849D01*
X180781887Y-127635000D01*
X180891120Y-128184151D01*
X181202189Y-128649698D01*
X181667736Y-128960767D01*
X182216887Y-129070000D01*
X182273113Y-129070000D01*
X182822264Y-128960767D01*
X183287811Y-128649698D01*
X183598880Y-128184151D01*
X183646859Y-127942943D01*
X183670615Y-127919187D01*
X184619752Y-127919187D01*
X184837757Y-128446800D01*
X185241077Y-128850824D01*
X185768309Y-129069750D01*
X186339187Y-129070248D01*
X186393149Y-129047951D01*
X188493036Y-131147838D01*
X188679990Y-131600303D01*
X189072630Y-131993629D01*
X189585900Y-132206757D01*
X190141661Y-132207242D01*
X190555723Y-132036156D01*
X190074347Y-132756586D01*
X189830000Y-133985000D01*
X190074347Y-135213414D01*
X190770187Y-136254813D01*
X191811586Y-136950653D01*
X193040000Y-137195000D01*
X194268414Y-136950653D01*
X195309813Y-136254813D01*
X196005653Y-135213414D01*
X196250000Y-133985000D01*
X196005653Y-132756586D01*
X195309813Y-131715187D01*
X194268414Y-131019347D01*
X193040000Y-130775000D01*
X191811586Y-131019347D01*
X191090714Y-131501018D01*
X191261757Y-131089100D01*
X191262242Y-130533339D01*
X191050010Y-130019697D01*
X190657370Y-129626371D01*
X190144100Y-129413243D01*
X189588339Y-129412758D01*
X189106607Y-129611805D01*
X187468256Y-127973454D01*
X187489750Y-127921691D01*
X187490000Y-127635000D01*
X194751887Y-127635000D01*
X194861120Y-128184151D01*
X195172189Y-128649698D01*
X195637736Y-128960767D01*
X196186887Y-129070000D01*
X196243113Y-129070000D01*
X196792264Y-128960767D01*
X197257811Y-128649698D01*
X197568880Y-128184151D01*
X197678113Y-127635000D01*
X197568880Y-127085849D01*
X197257811Y-126620302D01*
X196792264Y-126309233D01*
X196243113Y-126200000D01*
X196186887Y-126200000D01*
X195637736Y-126309233D01*
X195172189Y-126620302D01*
X194861120Y-127085849D01*
X194751887Y-127635000D01*
X187490000Y-127635000D01*
X187490248Y-127350813D01*
X187272243Y-126823200D01*
X186868923Y-126419176D01*
X186341691Y-126200250D01*
X185770813Y-126199752D01*
X185243200Y-126417757D01*
X184839176Y-126821077D01*
X184620250Y-127348309D01*
X184619752Y-127919187D01*
X183670615Y-127919187D01*
X184052401Y-127537401D01*
X184217148Y-127290839D01*
X184275000Y-127000000D01*
X184275000Y-124109187D01*
X184619752Y-124109187D01*
X184837757Y-124636800D01*
X185241077Y-125040824D01*
X185768309Y-125259750D01*
X186339187Y-125260248D01*
X186866800Y-125042243D01*
X187270824Y-124638923D01*
X187489750Y-124111691D01*
X187490248Y-123540813D01*
X187272243Y-123013200D01*
X186868923Y-122609176D01*
X186815000Y-122586785D01*
X186815000Y-119694802D01*
X189555619Y-116954183D01*
X189585900Y-116966757D01*
X190141661Y-116967242D01*
X190555723Y-116796156D01*
X190074347Y-117516586D01*
X189830000Y-118745000D01*
X190074347Y-119973414D01*
X190770187Y-121014813D01*
X191811586Y-121710653D01*
X193040000Y-121955000D01*
X194268414Y-121710653D01*
X195309813Y-121014813D01*
X195455000Y-120797525D01*
X195455000Y-122621333D01*
X195172189Y-122810302D01*
X194861120Y-123275849D01*
X194751887Y-123825000D01*
X194861120Y-124374151D01*
X195172189Y-124839698D01*
X195637736Y-125150767D01*
X196186887Y-125260000D01*
X196243113Y-125260000D01*
X196792264Y-125150767D01*
X197257811Y-124839698D01*
X197568880Y-124374151D01*
X197678113Y-123825000D01*
X197568880Y-123275849D01*
X197257811Y-122810302D01*
X196975000Y-122621333D01*
X196975000Y-113592463D01*
X197007192Y-113560327D01*
X197149838Y-113216799D01*
X197150162Y-112844833D01*
X197008117Y-112501057D01*
X196745327Y-112237808D01*
X196401799Y-112095162D01*
X196029833Y-112094838D01*
X195686057Y-112236883D01*
X195422808Y-112499673D01*
X195280162Y-112843201D01*
X195279838Y-113215167D01*
X195421883Y-113558943D01*
X195455000Y-113592118D01*
X195455000Y-116692475D01*
X195309813Y-116475187D01*
X194268414Y-115779347D01*
X193040000Y-115535000D01*
X191811586Y-115779347D01*
X191090714Y-116261018D01*
X191261757Y-115849100D01*
X191262242Y-115293339D01*
X191050010Y-114779697D01*
X190657370Y-114386371D01*
X190144100Y-114173243D01*
X189588339Y-114172758D01*
X189074697Y-114384990D01*
X188681371Y-114777630D01*
X188468243Y-115290900D01*
X188467758Y-115846661D01*
X188481143Y-115879055D01*
X185517599Y-118842599D01*
X185352852Y-119089161D01*
X185295000Y-119380000D01*
X185295000Y-122586354D01*
X185243200Y-122607757D01*
X184839176Y-123011077D01*
X184620250Y-123538309D01*
X184619752Y-124109187D01*
X184275000Y-124109187D01*
X184275000Y-111687463D01*
X184307192Y-111655327D01*
X184449838Y-111311799D01*
X184450162Y-110939833D01*
X184308117Y-110596057D01*
X184045327Y-110332808D01*
X183701799Y-110190162D01*
X183329833Y-110189838D01*
X182986057Y-110331883D01*
X182722808Y-110594673D01*
X182580162Y-110938201D01*
X182579838Y-111310167D01*
X182721883Y-111653943D01*
X182755000Y-111687118D01*
X182755000Y-111830198D01*
X182545122Y-111620320D01*
X182545162Y-111574833D01*
X182403117Y-111231057D01*
X182140327Y-110967808D01*
X181796799Y-110825162D01*
X181424833Y-110824838D01*
X181081057Y-110966883D01*
X180817808Y-111229673D01*
X180675162Y-111573201D01*
X180674838Y-111945167D01*
X170305000Y-111945167D01*
X170305000Y-109855000D01*
X170247148Y-109564161D01*
X170082401Y-109317599D01*
X169845122Y-109080320D01*
X169845162Y-109034833D01*
X169703117Y-108691057D01*
X169440327Y-108427808D01*
X169096799Y-108285162D01*
X168724833Y-108284838D01*
X168381057Y-108426883D01*
X168117808Y-108689673D01*
X167975162Y-109033201D01*
X167974838Y-109405167D01*
X168116883Y-109748943D01*
X168379673Y-110012192D01*
X168723201Y-110154838D01*
X168770077Y-110154879D01*
X168785000Y-110169802D01*
X168785000Y-111195198D01*
X168575122Y-110985320D01*
X168575162Y-110939833D01*
X168433117Y-110596057D01*
X168170327Y-110332808D01*
X167826799Y-110190162D01*
X167454833Y-110189838D01*
X167111057Y-110331883D01*
X166847808Y-110594673D01*
X166705162Y-110938201D01*
X166704838Y-111310167D01*
X156335000Y-111310167D01*
X156335000Y-108585000D01*
X156277148Y-108294161D01*
X156112401Y-108047599D01*
X155875122Y-107810320D01*
X155875162Y-107764833D01*
X155733117Y-107421057D01*
X155470327Y-107157808D01*
X155126799Y-107015162D01*
X154754833Y-107014838D01*
X154411057Y-107156883D01*
X154147808Y-107419673D01*
X154005162Y-107763201D01*
X154004838Y-108135167D01*
X154146883Y-108478943D01*
X154409673Y-108742192D01*
X154753201Y-108884838D01*
X154800077Y-108884879D01*
X154815000Y-108899802D01*
X154815000Y-110560198D01*
X154605122Y-110350320D01*
X154605162Y-110304833D01*
X154463117Y-109961057D01*
X154200327Y-109697808D01*
X153856799Y-109555162D01*
X153484833Y-109554838D01*
X153141057Y-109696883D01*
X152877808Y-109959673D01*
X152735162Y-110303201D01*
X152734838Y-110675167D01*
X145878476Y-110675167D01*
X145943943Y-110648117D01*
X146207192Y-110385327D01*
X146316765Y-110121446D01*
X146578943Y-110013117D01*
X146842192Y-109750327D01*
X146951765Y-109486446D01*
X147213943Y-109378117D01*
X147477192Y-109115327D01*
X147586765Y-108851446D01*
X147848943Y-108743117D01*
X148112192Y-108480327D01*
X148254838Y-108136799D01*
X148255162Y-107764833D01*
X148113117Y-107421057D01*
X147850327Y-107157808D01*
X147506799Y-107015162D01*
X147459923Y-107015121D01*
X147120024Y-106675222D01*
X147320000Y-106715000D01*
X148548414Y-106470653D01*
X149589813Y-105774813D01*
X150285653Y-104733414D01*
X150530000Y-103505000D01*
X150285653Y-102276586D01*
X149589813Y-101235187D01*
X148548414Y-100539347D01*
X147320000Y-100295000D01*
X146091586Y-100539347D01*
X145370714Y-101021018D01*
X145541757Y-100609100D01*
X145542242Y-100053339D01*
X145330010Y-99539697D01*
X144937370Y-99146371D01*
X144905000Y-99132930D01*
X144905000Y-98393646D01*
X144956800Y-98372243D01*
X145360824Y-97968923D01*
X145579750Y-97441691D01*
X145580248Y-96870813D01*
X145362243Y-96343200D01*
X144958923Y-95939176D01*
X144431691Y-95720250D01*
X143860813Y-95719752D01*
X143333200Y-95937757D01*
X142929176Y-96341077D01*
X142710250Y-96868309D01*
X142709752Y-97439187D01*
X142927757Y-97966800D01*
X143331077Y-98370824D01*
X143385000Y-98393215D01*
X143385000Y-99132469D01*
X143354697Y-99144990D01*
X142961371Y-99537630D01*
X142748243Y-100050900D01*
X142747758Y-100606661D01*
X142959990Y-101120303D01*
X143352630Y-101513629D01*
X143865900Y-101726757D01*
X144421661Y-101727242D01*
X144835723Y-101556156D01*
X144354347Y-102276586D01*
X144110000Y-103505000D01*
X144214183Y-104028761D01*
X144145000Y-104015000D01*
X132007463Y-104015000D01*
X131975327Y-103982808D01*
X131631799Y-103840162D01*
X131259833Y-103839838D01*
X130916057Y-103981883D01*
X130652808Y-104244673D01*
X130510162Y-104588201D01*
X130510108Y-104650000D01*
X130123926Y-104650000D01*
X130230767Y-104490101D01*
X130340000Y-103940950D01*
X130340000Y-103069050D01*
X130230767Y-102519899D01*
X129919698Y-102054352D01*
X129454151Y-101743283D01*
X128905000Y-101634050D01*
X128355849Y-101743283D01*
X127890302Y-102054352D01*
X127635000Y-102436438D01*
X127379698Y-102054352D01*
X126914151Y-101743283D01*
X126365000Y-101634050D01*
X125815849Y-101743283D01*
X125350302Y-102054352D01*
X125095000Y-102436438D01*
X124839698Y-102054352D01*
X124374151Y-101743283D01*
X123825000Y-101634050D01*
X123275849Y-101743283D01*
X122810302Y-102054352D01*
X122555000Y-102436438D01*
X122299698Y-102054352D01*
X121834151Y-101743283D01*
X121285000Y-101634050D01*
X120735849Y-101743283D01*
X120270302Y-102054352D01*
X120015000Y-102436438D01*
X119759698Y-102054352D01*
X119294151Y-101743283D01*
X118745000Y-101634050D01*
X118195849Y-101743283D01*
X117730302Y-102054352D01*
X117475000Y-102436438D01*
X117219698Y-102054352D01*
X116754151Y-101743283D01*
X116205000Y-101634050D01*
X115655849Y-101743283D01*
X115190302Y-102054352D01*
X114935000Y-102436438D01*
X114679698Y-102054352D01*
X114214151Y-101743283D01*
X113665000Y-101634050D01*
X113115849Y-101743283D01*
X112650302Y-102054352D01*
X112395000Y-102436438D01*
X112139698Y-102054352D01*
X111674151Y-101743283D01*
X111125000Y-101634050D01*
X110575849Y-101743283D01*
X110110302Y-102054352D01*
X109855000Y-102436438D01*
X109599698Y-102054352D01*
X109134151Y-101743283D01*
X108585000Y-101634050D01*
X108035849Y-101743283D01*
X107570302Y-102054352D01*
X107315000Y-102436438D01*
X107059698Y-102054352D01*
X106594151Y-101743283D01*
X106045000Y-101634050D01*
X105495849Y-101743283D01*
X105030302Y-102054352D01*
X104719233Y-102519899D01*
X104674458Y-102745000D01*
X103505000Y-102745000D01*
X103214160Y-102802852D01*
X102967599Y-102967599D01*
X102573454Y-103361744D01*
X102521691Y-103340250D01*
X101950813Y-103339752D01*
X101423200Y-103557757D01*
X101040000Y-103940289D01*
X101040000Y-98066661D01*
X138937758Y-98066661D01*
X139149990Y-98580303D01*
X139542630Y-98973629D01*
X140055900Y-99186757D01*
X140611661Y-99187242D01*
X141125303Y-98975010D01*
X141518629Y-98582370D01*
X141731757Y-98069100D01*
X141732242Y-97513339D01*
X141520010Y-96999697D01*
X141127370Y-96606371D01*
X140614100Y-96393243D01*
X140058339Y-96392758D01*
X139544697Y-96604990D01*
X139151371Y-96997630D01*
X138938243Y-97510900D01*
X138937758Y-98066661D01*
X101040000Y-98066661D01*
X101040000Y-96170750D01*
X104610000Y-96170750D01*
X104610000Y-97211309D01*
X104706673Y-97444698D01*
X104885301Y-97623327D01*
X105118690Y-97720000D01*
X105759250Y-97720000D01*
X105918000Y-97561250D01*
X105918000Y-96012000D01*
X104768750Y-96012000D01*
X104610000Y-96170750D01*
X101040000Y-96170750D01*
X101040000Y-95542745D01*
X101406861Y-95542745D01*
X101480995Y-95788864D01*
X102018223Y-95981965D01*
X102588454Y-95954778D01*
X102989005Y-95788864D01*
X103063139Y-95542745D01*
X102235000Y-94714605D01*
X101406861Y-95542745D01*
X101040000Y-95542745D01*
X101040000Y-95306736D01*
X101227255Y-95363139D01*
X102055395Y-94535000D01*
X102414605Y-94535000D01*
X103242745Y-95363139D01*
X103488864Y-95289005D01*
X103681965Y-94751777D01*
X103672760Y-94558691D01*
X104610000Y-94558691D01*
X104610000Y-95599250D01*
X104768750Y-95758000D01*
X105918000Y-95758000D01*
X105918000Y-94208750D01*
X105759250Y-94050000D01*
X105118690Y-94050000D01*
X104885301Y-94146673D01*
X104706673Y-94325302D01*
X104610000Y-94558691D01*
X103672760Y-94558691D01*
X103654778Y-94181546D01*
X103488864Y-93780995D01*
X103242745Y-93706861D01*
X102414605Y-94535000D01*
X102055395Y-94535000D01*
X101227255Y-93706861D01*
X101040000Y-93763264D01*
X101040000Y-93527255D01*
X101406861Y-93527255D01*
X102235000Y-94355395D01*
X103063139Y-93527255D01*
X102989005Y-93281136D01*
X102451777Y-93088035D01*
X101881546Y-93115222D01*
X101480995Y-93281136D01*
X101406861Y-93527255D01*
X101040000Y-93527255D01*
X101040000Y-90369082D01*
X101421077Y-90750824D01*
X101948309Y-90969750D01*
X102519187Y-90970248D01*
X103046800Y-90752243D01*
X103450824Y-90348923D01*
X103669750Y-89821691D01*
X103670248Y-89250813D01*
X103647951Y-89196851D01*
X103819802Y-89025000D01*
X104674458Y-89025000D01*
X104719233Y-89250101D01*
X105030302Y-89715648D01*
X105495849Y-90026717D01*
X106045000Y-90135950D01*
X106594151Y-90026717D01*
X107059698Y-89715648D01*
X107315000Y-89333562D01*
X107570302Y-89715648D01*
X108035849Y-90026717D01*
X108585000Y-90135950D01*
X109134151Y-90026717D01*
X109599698Y-89715648D01*
X109855000Y-89333562D01*
X110110302Y-89715648D01*
X110575849Y-90026717D01*
X111125000Y-90135950D01*
X111674151Y-90026717D01*
X112139698Y-89715648D01*
X112395000Y-89333562D01*
X112650302Y-89715648D01*
X113115849Y-90026717D01*
X113665000Y-90135950D01*
X114214151Y-90026717D01*
X114679698Y-89715648D01*
X114935000Y-89333562D01*
X115190302Y-89715648D01*
X115655849Y-90026717D01*
X116205000Y-90135950D01*
X116754151Y-90026717D01*
X117219698Y-89715648D01*
X117475000Y-89333562D01*
X117730302Y-89715648D01*
X118195849Y-90026717D01*
X118745000Y-90135950D01*
X119294151Y-90026717D01*
X119759698Y-89715648D01*
X120015000Y-89333562D01*
X120270302Y-89715648D01*
X120501111Y-89869870D01*
X120464833Y-89869838D01*
X120121057Y-90011883D01*
X119857808Y-90274673D01*
X119715162Y-90618201D01*
X119714838Y-90990167D01*
X119849056Y-91315000D01*
X109220000Y-91315000D01*
X108929161Y-91372852D01*
X108682599Y-91537599D01*
X108047599Y-92172599D01*
X107882852Y-92419161D01*
X107825000Y-92710000D01*
X107825000Y-94264168D01*
X107570302Y-94434352D01*
X107480000Y-94569498D01*
X107480000Y-94558691D01*
X107383327Y-94325302D01*
X107204699Y-94146673D01*
X106971310Y-94050000D01*
X106330750Y-94050000D01*
X106172000Y-94208750D01*
X106172000Y-95758000D01*
X106192000Y-95758000D01*
X106192000Y-96012000D01*
X106172000Y-96012000D01*
X106172000Y-97561250D01*
X106330750Y-97720000D01*
X106971310Y-97720000D01*
X107204699Y-97623327D01*
X107383327Y-97444698D01*
X107480000Y-97211309D01*
X107480000Y-97200502D01*
X107570302Y-97335648D01*
X108035849Y-97646717D01*
X108585000Y-97755950D01*
X109134151Y-97646717D01*
X109599698Y-97335648D01*
X109855000Y-96953562D01*
X110110302Y-97335648D01*
X110575849Y-97646717D01*
X111125000Y-97755950D01*
X111674151Y-97646717D01*
X112139698Y-97335648D01*
X112395000Y-96953562D01*
X112650302Y-97335648D01*
X113115849Y-97646717D01*
X113665000Y-97755950D01*
X114214151Y-97646717D01*
X114679698Y-97335648D01*
X114935000Y-96953562D01*
X115190302Y-97335648D01*
X115655849Y-97646717D01*
X116205000Y-97755950D01*
X116754151Y-97646717D01*
X117219698Y-97335648D01*
X117475000Y-96953562D01*
X117730302Y-97335648D01*
X118195849Y-97646717D01*
X118745000Y-97755950D01*
X119294151Y-97646717D01*
X119759698Y-97335648D01*
X120015000Y-96953562D01*
X120270302Y-97335648D01*
X120735849Y-97646717D01*
X121285000Y-97755950D01*
X121834151Y-97646717D01*
X122299698Y-97335648D01*
X122555000Y-96953562D01*
X122810302Y-97335648D01*
X123275849Y-97646717D01*
X123825000Y-97755950D01*
X124374151Y-97646717D01*
X124839698Y-97335648D01*
X125095000Y-96953562D01*
X125350302Y-97335648D01*
X125815849Y-97646717D01*
X126365000Y-97755950D01*
X126914151Y-97646717D01*
X127379698Y-97335648D01*
X127632507Y-96957293D01*
X127980104Y-97389500D01*
X128473181Y-97659367D01*
X128555961Y-97676904D01*
X128778000Y-97554915D01*
X128778000Y-96012000D01*
X129032000Y-96012000D01*
X129032000Y-97554915D01*
X129254039Y-97676904D01*
X129336819Y-97659367D01*
X129829896Y-97389500D01*
X130182166Y-96951483D01*
X130340000Y-96412000D01*
X130340000Y-96012000D01*
X129032000Y-96012000D01*
X128778000Y-96012000D01*
X128758000Y-96012000D01*
X128758000Y-95758000D01*
X128778000Y-95758000D01*
X128778000Y-95738000D01*
X129032000Y-95738000D01*
X129032000Y-95758000D01*
X130340000Y-95758000D01*
X130340000Y-95358000D01*
X130282847Y-95162649D01*
X131542599Y-96422401D01*
X131789161Y-96587148D01*
X132080000Y-96645000D01*
X136597537Y-96645000D01*
X136629673Y-96677192D01*
X136973201Y-96819838D01*
X137345167Y-96820162D01*
X137688943Y-96678117D01*
X137952192Y-96415327D01*
X138061765Y-96151446D01*
X138323943Y-96043117D01*
X138587192Y-95780327D01*
X138729838Y-95436799D01*
X138730162Y-95064833D01*
X138588117Y-94721057D01*
X138358631Y-94491171D01*
X138569680Y-94280122D01*
X138615167Y-94280162D01*
X138937854Y-94146831D01*
X138937758Y-94256661D01*
X139149990Y-94770303D01*
X139542630Y-95163629D01*
X140055900Y-95376757D01*
X140611661Y-95377242D01*
X141125303Y-95165010D01*
X141518629Y-94772370D01*
X141731757Y-94259100D01*
X141732242Y-93703339D01*
X141520010Y-93189697D01*
X141127370Y-92796371D01*
X140614100Y-92583243D01*
X140058339Y-92582758D01*
X139544697Y-92794990D01*
X139310862Y-93028417D01*
X139223117Y-92816057D01*
X138960327Y-92552808D01*
X138616799Y-92410162D01*
X138244833Y-92409838D01*
X137901057Y-92551883D01*
X137637808Y-92814673D01*
X137495162Y-93158201D01*
X137495121Y-93205077D01*
X136845198Y-93855000D01*
X133664802Y-93855000D01*
X132644802Y-92835000D01*
X135255000Y-92835000D01*
X135545839Y-92777148D01*
X135792401Y-92612401D01*
X136029680Y-92375122D01*
X136075167Y-92375162D01*
X136418943Y-92233117D01*
X136682192Y-91970327D01*
X136791765Y-91706446D01*
X137053943Y-91598117D01*
X137317192Y-91335327D01*
X137459838Y-90991799D01*
X137460162Y-90619833D01*
X137318117Y-90276057D01*
X137055327Y-90012808D01*
X136791446Y-89903235D01*
X136683117Y-89641057D01*
X136420327Y-89377808D01*
X136076799Y-89235162D01*
X135704833Y-89234838D01*
X135361057Y-89376883D01*
X135327882Y-89410000D01*
X130737463Y-89410000D01*
X130705327Y-89377808D01*
X130361799Y-89235162D01*
X130233761Y-89235050D01*
X130340000Y-88700950D01*
X130340000Y-87829050D01*
X130230767Y-87279899D01*
X129919698Y-86814352D01*
X129454151Y-86503283D01*
X128905000Y-86394050D01*
X128355849Y-86503283D01*
X127890302Y-86814352D01*
X127635000Y-87196438D01*
X127379698Y-86814352D01*
X126914151Y-86503283D01*
X126365000Y-86394050D01*
X125815849Y-86503283D01*
X125350302Y-86814352D01*
X125095000Y-87196438D01*
X124839698Y-86814352D01*
X124585000Y-86644168D01*
X124585000Y-85090000D01*
X124527148Y-84799161D01*
X124362401Y-84552599D01*
X124125122Y-84315320D01*
X124125162Y-84269833D01*
X123990944Y-83945000D01*
X143314617Y-83945000D01*
X142961371Y-84297630D01*
X142748243Y-84810900D01*
X142747758Y-85366661D01*
X142959990Y-85880303D01*
X143352630Y-86273629D01*
X143385000Y-86287070D01*
X143385000Y-92106354D01*
X143333200Y-92127757D01*
X142929176Y-92531077D01*
X142710250Y-93058309D01*
X142709752Y-93629187D01*
X142927757Y-94156800D01*
X143331077Y-94560824D01*
X143858309Y-94779750D01*
X144429187Y-94780248D01*
X144956800Y-94562243D01*
X145360824Y-94158923D01*
X145579750Y-93631691D01*
X145580248Y-93060813D01*
X145362243Y-92533200D01*
X145089686Y-92260167D01*
X152099838Y-92260167D01*
X152241883Y-92603943D01*
X152504673Y-92867192D01*
X152848201Y-93009838D01*
X152908544Y-93009891D01*
X152841887Y-93345000D01*
X152951120Y-93894151D01*
X153262189Y-94359698D01*
X153727736Y-94670767D01*
X154134517Y-94751681D01*
X154005162Y-95063201D01*
X154005108Y-95125000D01*
X153597463Y-95125000D01*
X153565327Y-95092808D01*
X153221799Y-94950162D01*
X152849833Y-94949838D01*
X152506057Y-95091883D01*
X152242808Y-95354673D01*
X152100162Y-95698201D01*
X152099838Y-96070167D01*
X152241883Y-96413943D01*
X152504673Y-96677192D01*
X152848201Y-96819838D01*
X152908544Y-96819891D01*
X152841887Y-97155000D01*
X152951120Y-97704151D01*
X153262189Y-98169698D01*
X153727736Y-98480767D01*
X154276887Y-98590000D01*
X154333113Y-98590000D01*
X154882264Y-98480767D01*
X155347811Y-98169698D01*
X155658880Y-97704151D01*
X155768113Y-97155000D01*
X155666668Y-96645000D01*
X156772976Y-96645000D01*
X156680250Y-96868309D01*
X156679752Y-97439187D01*
X156897757Y-97966800D01*
X157301077Y-98370824D01*
X157355000Y-98393215D01*
X157355000Y-99060000D01*
X157412852Y-99350839D01*
X157577599Y-99597401D01*
X158000817Y-100020619D01*
X157988243Y-100050900D01*
X157987758Y-100606661D01*
X158199990Y-101120303D01*
X158592630Y-101513629D01*
X159105900Y-101726757D01*
X159326602Y-101726950D01*
X158959347Y-102276586D01*
X158715000Y-103505000D01*
X158959347Y-104733414D01*
X159655187Y-105774813D01*
X160696586Y-106470653D01*
X161925000Y-106715000D01*
X163153414Y-106470653D01*
X164194813Y-105774813D01*
X164890653Y-104733414D01*
X165135000Y-103505000D01*
X164890653Y-102276586D01*
X164194813Y-101235187D01*
X163153414Y-100539347D01*
X161925000Y-100295000D01*
X160781833Y-100522390D01*
X160782242Y-100053339D01*
X160570010Y-99539697D01*
X160177370Y-99146371D01*
X159664100Y-98933243D01*
X159108339Y-98932758D01*
X159075945Y-98946143D01*
X158875000Y-98745198D01*
X158875000Y-98393646D01*
X158926800Y-98372243D01*
X159330824Y-97968923D01*
X159549750Y-97441691D01*
X159550248Y-96870813D01*
X159456944Y-96645000D01*
X166913332Y-96645000D01*
X166811887Y-97155000D01*
X166921120Y-97704151D01*
X167232189Y-98169698D01*
X167697736Y-98480767D01*
X168246887Y-98590000D01*
X168303113Y-98590000D01*
X168852264Y-98480767D01*
X169317811Y-98169698D01*
X169628880Y-97704151D01*
X169738113Y-97155000D01*
X169636668Y-96645000D01*
X170742976Y-96645000D01*
X170650250Y-96868309D01*
X170649752Y-97439187D01*
X170867757Y-97966800D01*
X171271077Y-98370824D01*
X171798309Y-98589750D01*
X171809958Y-98589760D01*
X173240817Y-100020619D01*
X173228243Y-100050900D01*
X173227758Y-100606661D01*
X173439990Y-101120303D01*
X173832630Y-101513629D01*
X174345900Y-101726757D01*
X174901661Y-101727242D01*
X175315723Y-101556156D01*
X174834347Y-102276586D01*
X174590000Y-103505000D01*
X174834347Y-104733414D01*
X175530187Y-105774813D01*
X176571586Y-106470653D01*
X177800000Y-106715000D01*
X179028414Y-106470653D01*
X180069813Y-105774813D01*
X180765653Y-104733414D01*
X181010000Y-103505000D01*
X180765653Y-102276586D01*
X180069813Y-101235187D01*
X179028414Y-100539347D01*
X177800000Y-100295000D01*
X176571586Y-100539347D01*
X175850714Y-101021018D01*
X176021757Y-100609100D01*
X176022242Y-100053339D01*
X175810010Y-99539697D01*
X175417370Y-99146371D01*
X174904100Y-98933243D01*
X174348339Y-98932758D01*
X174315945Y-98946143D01*
X173311944Y-97942142D01*
X173519750Y-97441691D01*
X173520248Y-96870813D01*
X173426944Y-96645000D01*
X180412537Y-96645000D01*
X180444673Y-96677192D01*
X180788201Y-96819838D01*
X180848544Y-96819891D01*
X180781887Y-97155000D01*
X180891120Y-97704151D01*
X181202189Y-98169698D01*
X181667736Y-98480767D01*
X182216887Y-98590000D01*
X182273113Y-98590000D01*
X182822264Y-98480767D01*
X183287811Y-98169698D01*
X183598880Y-97704151D01*
X183651584Y-97439187D01*
X184619752Y-97439187D01*
X184837757Y-97966800D01*
X185241077Y-98370824D01*
X185768309Y-98589750D01*
X186339187Y-98590248D01*
X186393149Y-98567951D01*
X188493036Y-100667838D01*
X188679990Y-101120303D01*
X189072630Y-101513629D01*
X189585900Y-101726757D01*
X190141661Y-101727242D01*
X190555723Y-101556156D01*
X190074347Y-102276586D01*
X189830000Y-103505000D01*
X190074347Y-104733414D01*
X190770187Y-105774813D01*
X191811586Y-106470653D01*
X193040000Y-106715000D01*
X194268414Y-106470653D01*
X195309813Y-105774813D01*
X196005653Y-104733414D01*
X196250000Y-103505000D01*
X196005653Y-102276586D01*
X195309813Y-101235187D01*
X194268414Y-100539347D01*
X193040000Y-100295000D01*
X191811586Y-100539347D01*
X191090714Y-101021018D01*
X191261757Y-100609100D01*
X191262242Y-100053339D01*
X191050010Y-99539697D01*
X190657370Y-99146371D01*
X190144100Y-98933243D01*
X189588339Y-98932758D01*
X189106607Y-99131805D01*
X187468256Y-97493454D01*
X187489750Y-97441691D01*
X187490000Y-97155000D01*
X194751887Y-97155000D01*
X194861120Y-97704151D01*
X195172189Y-98169698D01*
X195637736Y-98480767D01*
X196186887Y-98590000D01*
X196243113Y-98590000D01*
X196792264Y-98480767D01*
X197257811Y-98169698D01*
X197568880Y-97704151D01*
X197678113Y-97155000D01*
X197568880Y-96605849D01*
X197257811Y-96140302D01*
X196792264Y-95829233D01*
X196243113Y-95720000D01*
X196186887Y-95720000D01*
X195637736Y-95829233D01*
X195172189Y-96140302D01*
X194861120Y-96605849D01*
X194751887Y-97155000D01*
X187490000Y-97155000D01*
X187490248Y-96870813D01*
X187272243Y-96343200D01*
X186868923Y-95939176D01*
X186341691Y-95720250D01*
X185770813Y-95719752D01*
X185243200Y-95937757D01*
X184839176Y-96341077D01*
X184620250Y-96868309D01*
X184619752Y-97439187D01*
X183651584Y-97439187D01*
X183708113Y-97155000D01*
X183598880Y-96605849D01*
X183287811Y-96140302D01*
X182822264Y-95829233D01*
X182273113Y-95720000D01*
X182216887Y-95720000D01*
X181910091Y-95781026D01*
X181910162Y-95699833D01*
X181768117Y-95356057D01*
X181505327Y-95092808D01*
X181161799Y-94950162D01*
X180789833Y-94949838D01*
X180446057Y-95091883D01*
X180412882Y-95125000D01*
X168830710Y-95125000D01*
X168977148Y-94905839D01*
X169035000Y-94615000D01*
X169035000Y-94548667D01*
X169317811Y-94359698D01*
X169628880Y-93894151D01*
X169681584Y-93629187D01*
X170649752Y-93629187D01*
X170867757Y-94156800D01*
X171271077Y-94560824D01*
X171798309Y-94779750D01*
X172369187Y-94780248D01*
X172896800Y-94562243D01*
X173300824Y-94158923D01*
X173519750Y-93631691D01*
X173520000Y-93345000D01*
X180781887Y-93345000D01*
X180891120Y-93894151D01*
X181202189Y-94359698D01*
X181667736Y-94670767D01*
X182216887Y-94780000D01*
X182273113Y-94780000D01*
X182822264Y-94670767D01*
X183287811Y-94359698D01*
X183598880Y-93894151D01*
X183651584Y-93629187D01*
X184619752Y-93629187D01*
X184837757Y-94156800D01*
X185241077Y-94560824D01*
X185768309Y-94779750D01*
X186339187Y-94780248D01*
X186866800Y-94562243D01*
X187270824Y-94158923D01*
X187489750Y-93631691D01*
X187490000Y-93345000D01*
X194751887Y-93345000D01*
X194861120Y-93894151D01*
X195172189Y-94359698D01*
X195637736Y-94670767D01*
X196186887Y-94780000D01*
X196243113Y-94780000D01*
X196792264Y-94670767D01*
X197257811Y-94359698D01*
X197568880Y-93894151D01*
X197678113Y-93345000D01*
X197568880Y-92795849D01*
X197257811Y-92330302D01*
X196792264Y-92019233D01*
X196243113Y-91910000D01*
X196186887Y-91910000D01*
X195637736Y-92019233D01*
X195172189Y-92330302D01*
X194861120Y-92795849D01*
X194751887Y-93345000D01*
X187490000Y-93345000D01*
X187490248Y-93060813D01*
X187272243Y-92533200D01*
X186868923Y-92129176D01*
X186815000Y-92106785D01*
X186815000Y-89214802D01*
X189555619Y-86474183D01*
X189585900Y-86486757D01*
X190141661Y-86487242D01*
X190555723Y-86316156D01*
X190074347Y-87036586D01*
X189830000Y-88265000D01*
X190074347Y-89493414D01*
X190770187Y-90534813D01*
X191811586Y-91230653D01*
X193040000Y-91475000D01*
X194268414Y-91230653D01*
X195309813Y-90534813D01*
X196005653Y-89493414D01*
X196250000Y-88265000D01*
X196005653Y-87036586D01*
X195309813Y-85995187D01*
X194268414Y-85299347D01*
X193040000Y-85055000D01*
X191811586Y-85299347D01*
X191090714Y-85781018D01*
X191261757Y-85369100D01*
X191262242Y-84813339D01*
X191050010Y-84299697D01*
X190657370Y-83906371D01*
X190144100Y-83693243D01*
X189588339Y-83692758D01*
X189074697Y-83904990D01*
X188681371Y-84297630D01*
X188468243Y-84810900D01*
X188467758Y-85366661D01*
X188481143Y-85399055D01*
X185517599Y-88362599D01*
X185352852Y-88609161D01*
X185295000Y-88900000D01*
X185295000Y-92106354D01*
X185243200Y-92127757D01*
X184839176Y-92531077D01*
X184620250Y-93058309D01*
X184619752Y-93629187D01*
X183651584Y-93629187D01*
X183708113Y-93345000D01*
X183598880Y-92795849D01*
X183287811Y-92330302D01*
X182822264Y-92019233D01*
X182273113Y-91910000D01*
X182216887Y-91910000D01*
X181667736Y-92019233D01*
X181202189Y-92330302D01*
X180891120Y-92795849D01*
X180781887Y-93345000D01*
X173520000Y-93345000D01*
X173520248Y-93060813D01*
X173302243Y-92533200D01*
X172898923Y-92129176D01*
X172845000Y-92106785D01*
X172845000Y-87944802D01*
X174315619Y-86474183D01*
X174345900Y-86486757D01*
X174901661Y-86487242D01*
X175315723Y-86316156D01*
X174834347Y-87036586D01*
X174590000Y-88265000D01*
X174834347Y-89493414D01*
X175530187Y-90534813D01*
X176571586Y-91230653D01*
X177800000Y-91475000D01*
X179028414Y-91230653D01*
X180069813Y-90534813D01*
X180765653Y-89493414D01*
X181010000Y-88265000D01*
X180765653Y-87036586D01*
X180069813Y-85995187D01*
X179028414Y-85299347D01*
X177800000Y-85055000D01*
X176571586Y-85299347D01*
X175850714Y-85781018D01*
X176021757Y-85369100D01*
X176022242Y-84813339D01*
X175810010Y-84299697D01*
X175417370Y-83906371D01*
X174904100Y-83693243D01*
X174348339Y-83692758D01*
X173834697Y-83904990D01*
X173441371Y-84297630D01*
X173228243Y-84810900D01*
X173227758Y-85366661D01*
X173241143Y-85399055D01*
X171547599Y-87092599D01*
X171382852Y-87339161D01*
X171325000Y-87630000D01*
X171325000Y-92106354D01*
X171273200Y-92127757D01*
X170869176Y-92531077D01*
X170650250Y-93058309D01*
X170649752Y-93629187D01*
X169681584Y-93629187D01*
X169738113Y-93345000D01*
X169628880Y-92795849D01*
X169317811Y-92330302D01*
X168852264Y-92019233D01*
X168303113Y-91910000D01*
X168246887Y-91910000D01*
X167697736Y-92019233D01*
X167232189Y-92330302D01*
X166921120Y-92795849D01*
X166811887Y-93345000D01*
X166921120Y-93894151D01*
X167232189Y-94359698D01*
X167366054Y-94449144D01*
X167325198Y-94490000D01*
X158999169Y-94490000D01*
X159330824Y-94158923D01*
X159549750Y-93631691D01*
X159550248Y-93060813D01*
X159332243Y-92533200D01*
X158928923Y-92129176D01*
X158875000Y-92106785D01*
X158875000Y-86674802D01*
X159075619Y-86474183D01*
X159105900Y-86486757D01*
X159661661Y-86487242D01*
X160075723Y-86316156D01*
X159594347Y-87036586D01*
X159350000Y-88265000D01*
X159594347Y-89493414D01*
X160290187Y-90534813D01*
X161331586Y-91230653D01*
X162560000Y-91475000D01*
X163788414Y-91230653D01*
X164829813Y-90534813D01*
X165525653Y-89493414D01*
X165770000Y-88265000D01*
X165525653Y-87036586D01*
X164829813Y-85995187D01*
X163788414Y-85299347D01*
X162560000Y-85055000D01*
X161331586Y-85299347D01*
X160610714Y-85781018D01*
X160781757Y-85369100D01*
X160782242Y-84813339D01*
X160570010Y-84299697D01*
X160177370Y-83906371D01*
X159664100Y-83693243D01*
X159108339Y-83692758D01*
X158594697Y-83904990D01*
X158201371Y-84297630D01*
X157988243Y-84810900D01*
X157987758Y-85366661D01*
X158001143Y-85399055D01*
X157577599Y-85822599D01*
X157412852Y-86069161D01*
X157355000Y-86360000D01*
X157355000Y-92106354D01*
X157303200Y-92127757D01*
X157127785Y-92302866D01*
X157144838Y-92261799D01*
X157145162Y-91889833D01*
X157003117Y-91546057D01*
X156740327Y-91282808D01*
X156396799Y-91140162D01*
X156024833Y-91139838D01*
X155681057Y-91281883D01*
X155647882Y-91315000D01*
X153597463Y-91315000D01*
X153565327Y-91282808D01*
X153221799Y-91140162D01*
X152849833Y-91139838D01*
X152506057Y-91281883D01*
X152242808Y-91544673D01*
X152100162Y-91888201D01*
X152099838Y-92260167D01*
X145089686Y-92260167D01*
X144958923Y-92129176D01*
X144905000Y-92106785D01*
X144905000Y-90317525D01*
X145050187Y-90534813D01*
X146091586Y-91230653D01*
X147320000Y-91475000D01*
X148548414Y-91230653D01*
X149589813Y-90534813D01*
X150285653Y-89493414D01*
X150530000Y-88265000D01*
X150285653Y-87036586D01*
X149589813Y-85995187D01*
X148548414Y-85299347D01*
X147320000Y-85055000D01*
X146091586Y-85299347D01*
X145370714Y-85781018D01*
X145541757Y-85369100D01*
X145542242Y-84813339D01*
X145330010Y-84299697D01*
X145095429Y-84064706D01*
X145228201Y-84119838D01*
X145600167Y-84120162D01*
X145943943Y-83978117D01*
X146207192Y-83715327D01*
X146316765Y-83451446D01*
X146578943Y-83343117D01*
X146842192Y-83080327D01*
X146984838Y-82736799D01*
X146985162Y-82364833D01*
X146843117Y-82021057D01*
X146580327Y-81757808D01*
X146236799Y-81615162D01*
X145864833Y-81614838D01*
X145521057Y-81756883D01*
X145487882Y-81790000D01*
X111290633Y-81790000D01*
X111424838Y-81466799D01*
X111424846Y-81457427D01*
X111760000Y-81524093D01*
X112328285Y-81411054D01*
X112810054Y-81089147D01*
X113030000Y-80759974D01*
X113249946Y-81089147D01*
X113731715Y-81411054D01*
X114300000Y-81524093D01*
X114868285Y-81411054D01*
X115350054Y-81089147D01*
X115570000Y-80759974D01*
X115789946Y-81089147D01*
X116271715Y-81411054D01*
X116840000Y-81524093D01*
X117408285Y-81411054D01*
X117890054Y-81089147D01*
X118110000Y-80759974D01*
X118329946Y-81089147D01*
X118811715Y-81411054D01*
X119380000Y-81524093D01*
X119948285Y-81411054D01*
X120430054Y-81089147D01*
X120650000Y-80759974D01*
X120869946Y-81089147D01*
X121351715Y-81411054D01*
X121920000Y-81524093D01*
X122488285Y-81411054D01*
X122970054Y-81089147D01*
X123190000Y-80759974D01*
X123409946Y-81089147D01*
X123891715Y-81411054D01*
X124460000Y-81524093D01*
X125028285Y-81411054D01*
X125510054Y-81089147D01*
X125730000Y-80759974D01*
X125949946Y-81089147D01*
X126431715Y-81411054D01*
X127000000Y-81524093D01*
X127568285Y-81411054D01*
X128050054Y-81089147D01*
X128371961Y-80607378D01*
X128485000Y-80039093D01*
X128485000Y-79980907D01*
X128371961Y-79412622D01*
X128050054Y-78930853D01*
X127876667Y-78815000D01*
X130697188Y-78815000D01*
X130633569Y-78908110D01*
X130633569Y-78908110D01*
G37*
X130633569Y-78908110D02*
X130582560Y-79160000D01*
X130582560Y-80860000D01*
X130626838Y-81095317D01*
X130765910Y-81311441D01*
X130978110Y-81456431D01*
X131230000Y-81507440D01*
X132930000Y-81507440D01*
X133165317Y-81463162D01*
X133381441Y-81324090D01*
X133526431Y-81111890D01*
X133540086Y-81044459D01*
X133569946Y-81089147D01*
X134051715Y-81411054D01*
X134620000Y-81524093D01*
X135188285Y-81411054D01*
X135670054Y-81089147D01*
X135890000Y-80759974D01*
X136109946Y-81089147D01*
X136591715Y-81411054D01*
X137160000Y-81524093D01*
X137728285Y-81411054D01*
X138210054Y-81089147D01*
X138430000Y-80759974D01*
X138649946Y-81089147D01*
X139131715Y-81411054D01*
X139700000Y-81524093D01*
X140268285Y-81411054D01*
X140750054Y-81089147D01*
X140970000Y-80759974D01*
X141189946Y-81089147D01*
X141671715Y-81411054D01*
X142240000Y-81524093D01*
X142808285Y-81411054D01*
X143290054Y-81089147D01*
X143510000Y-80759974D01*
X143729946Y-81089147D01*
X144211715Y-81411054D01*
X144780000Y-81524093D01*
X145348285Y-81411054D01*
X145830054Y-81089147D01*
X146050000Y-80759974D01*
X146269946Y-81089147D01*
X146751715Y-81411054D01*
X147320000Y-81524093D01*
X147888285Y-81411054D01*
X148370054Y-81089147D01*
X148590000Y-80759974D01*
X148809946Y-81089147D01*
X149291715Y-81411054D01*
X149860000Y-81524093D01*
X150428285Y-81411054D01*
X150910054Y-81089147D01*
X151130000Y-80759974D01*
X151349946Y-81089147D01*
X151831715Y-81411054D01*
X152400000Y-81524093D01*
X152968285Y-81411054D01*
X153450054Y-81089147D01*
X153670000Y-80759974D01*
X153889946Y-81089147D01*
X154371715Y-81411054D01*
X154940000Y-81524093D01*
X155508285Y-81411054D01*
X155990054Y-81089147D01*
X156311961Y-80607378D01*
X156425000Y-80039093D01*
X156425000Y-79980907D01*
X156311961Y-79412622D01*
X155990054Y-78930853D01*
X155816667Y-78815000D01*
X193611873Y-78815000D01*
X192923826Y-79501847D01*
X192445546Y-80653674D01*
X192444457Y-81900854D01*
X192920727Y-83053515D01*
X193801847Y-83936174D01*
X194953674Y-84414454D01*
X196200854Y-84415543D01*
X197353515Y-83939273D01*
X198236174Y-83058153D01*
X198680000Y-81989301D01*
X198680000Y-139628125D01*
X198239273Y-138561485D01*
X197358153Y-137678826D01*
X196206326Y-137200546D01*
X194959146Y-137199457D01*
X193806485Y-137675727D01*
X192923826Y-138556847D01*
X192445546Y-139708674D01*
X192444457Y-140955854D01*
X192920727Y-142108515D01*
X193801847Y-142991174D01*
X194953674Y-143469454D01*
X196200854Y-143470543D01*
X197353515Y-142994273D01*
X198236174Y-142113153D01*
X198680000Y-141044301D01*
X198680000Y-143917560D01*
X197270000Y-143917560D01*
X197034683Y-143961838D01*
X196818559Y-144100910D01*
X196673569Y-144313110D01*
X196659914Y-144380541D01*
X196630054Y-144335853D01*
X196148285Y-144013946D01*
X195580000Y-143900907D01*
X195011715Y-144013946D01*
X194529946Y-144335853D01*
X194310000Y-144665026D01*
X194090054Y-144335853D01*
X193608285Y-144013946D01*
X193040000Y-143900907D01*
X192471715Y-144013946D01*
X191989946Y-144335853D01*
X191770000Y-144665026D01*
X191550054Y-144335853D01*
X191068285Y-144013946D01*
X190500000Y-143900907D01*
X189931715Y-144013946D01*
X189449946Y-144335853D01*
X189230000Y-144665026D01*
X189010054Y-144335853D01*
X188528285Y-144013946D01*
X187960000Y-143900907D01*
X187391715Y-144013946D01*
X186909946Y-144335853D01*
X186690000Y-144665026D01*
X186470054Y-144335853D01*
X185988285Y-144013946D01*
X185420000Y-143900907D01*
X184851715Y-144013946D01*
X184369946Y-144335853D01*
X184150000Y-144665026D01*
X183930054Y-144335853D01*
X183448285Y-144013946D01*
X182880000Y-143900907D01*
X182311715Y-144013946D01*
X181829946Y-144335853D01*
X181610000Y-144665026D01*
X181390054Y-144335853D01*
X180908285Y-144013946D01*
X180340000Y-143900907D01*
X179771715Y-144013946D01*
X179289946Y-144335853D01*
X179070000Y-144665026D01*
X178850054Y-144335853D01*
X178368285Y-144013946D01*
X177800000Y-143900907D01*
X177231715Y-144013946D01*
X176749946Y-144335853D01*
X176530000Y-144665026D01*
X176310054Y-144335853D01*
X175828285Y-144013946D01*
X175260000Y-143900907D01*
X174691715Y-144013946D01*
X174209946Y-144335853D01*
X173990000Y-144665026D01*
X173770054Y-144335853D01*
X173288285Y-144013946D01*
X172720000Y-143900907D01*
X172151715Y-144013946D01*
X171669946Y-144335853D01*
X171450000Y-144665026D01*
X171230054Y-144335853D01*
X170748285Y-144013946D01*
X170180000Y-143900907D01*
X169611715Y-144013946D01*
X169129946Y-144335853D01*
X168910000Y-144665026D01*
X168690054Y-144335853D01*
X168208285Y-144013946D01*
X167640000Y-143900907D01*
X167071715Y-144013946D01*
X166589946Y-144335853D01*
X166370000Y-144665026D01*
X166150054Y-144335853D01*
X165668285Y-144013946D01*
X165100000Y-143900907D01*
X164531715Y-144013946D01*
X164049946Y-144335853D01*
X163830000Y-144665026D01*
X163610054Y-144335853D01*
X163128285Y-144013946D01*
X162560000Y-143900907D01*
X161991715Y-144013946D01*
X161509946Y-144335853D01*
X161290000Y-144665026D01*
X161070054Y-144335853D01*
X160588285Y-144013946D01*
X160020000Y-143900907D01*
X159451715Y-144013946D01*
X158969946Y-144335853D01*
X158742298Y-144676553D01*
X158675183Y-144533642D01*
X158246924Y-144143355D01*
X157836890Y-143973524D01*
X157607000Y-144094845D01*
X157607000Y-145288000D01*
X157627000Y-145288000D01*
X157627000Y-145542000D01*
X157607000Y-145542000D01*
X157607000Y-145562000D01*
X157353000Y-145562000D01*
X157353000Y-145542000D01*
X157333000Y-145542000D01*
X157333000Y-145288000D01*
X157353000Y-145288000D01*
X157353000Y-144094845D01*
X157123110Y-143973524D01*
X156713076Y-144143355D01*
X156284817Y-144533642D01*
X156217702Y-144676553D01*
X155990054Y-144335853D01*
X155508285Y-144013946D01*
X154940000Y-143900907D01*
X154371715Y-144013946D01*
X153889946Y-144335853D01*
X153670000Y-144665026D01*
X153450054Y-144335853D01*
X152968285Y-144013946D01*
X152400000Y-143900907D01*
X151831715Y-144013946D01*
X151349946Y-144335853D01*
X151130000Y-144665026D01*
X150910054Y-144335853D01*
X150428285Y-144013946D01*
X149860000Y-143900907D01*
X149291715Y-144013946D01*
X148809946Y-144335853D01*
X148590000Y-144665026D01*
X148370054Y-144335853D01*
X147888285Y-144013946D01*
X147320000Y-143900907D01*
X146751715Y-144013946D01*
X146269946Y-144335853D01*
X146050000Y-144665026D01*
X145830054Y-144335853D01*
X145348285Y-144013946D01*
X144780000Y-143900907D01*
X144211715Y-144013946D01*
X143729946Y-144335853D01*
X143510000Y-144665026D01*
X143290054Y-144335853D01*
X142808285Y-144013946D01*
X142240000Y-143900907D01*
X141671715Y-144013946D01*
X141189946Y-144335853D01*
X140970000Y-144665026D01*
X140750054Y-144335853D01*
X140268285Y-144013946D01*
X139700000Y-143900907D01*
X139131715Y-144013946D01*
X138649946Y-144335853D01*
X138430000Y-144665026D01*
X138210054Y-144335853D01*
X137728285Y-144013946D01*
X137160000Y-143900907D01*
X136591715Y-144013946D01*
X136109946Y-144335853D01*
X135890000Y-144665026D01*
X135670054Y-144335853D01*
X135188285Y-144013946D01*
X134620000Y-143900907D01*
X134051715Y-144013946D01*
X133569946Y-144335853D01*
X133350000Y-144665026D01*
X133130054Y-144335853D01*
X132648285Y-144013946D01*
X132080000Y-143900907D01*
X131511715Y-144013946D01*
X131029946Y-144335853D01*
X130810000Y-144665026D01*
X130590054Y-144335853D01*
X130108285Y-144013946D01*
X129540000Y-143900907D01*
X128971715Y-144013946D01*
X128489946Y-144335853D01*
X128270000Y-144665026D01*
X128050054Y-144335853D01*
X127568285Y-144013946D01*
X127000000Y-143900907D01*
X126431715Y-144013946D01*
X125949946Y-144335853D01*
X125730000Y-144665026D01*
X125510054Y-144335853D01*
X125028285Y-144013946D01*
X124460000Y-143900907D01*
X123891715Y-144013946D01*
X123409946Y-144335853D01*
X123190000Y-144665026D01*
X122970054Y-144335853D01*
X122488285Y-144013946D01*
X121920000Y-143900907D01*
X121351715Y-144013946D01*
X120869946Y-144335853D01*
X120650000Y-144665026D01*
X120430054Y-144335853D01*
X119948285Y-144013946D01*
X119380000Y-143900907D01*
X118811715Y-144013946D01*
X118329946Y-144335853D01*
X118110000Y-144665026D01*
X117890054Y-144335853D01*
X117408285Y-144013946D01*
X116840000Y-143900907D01*
X116271715Y-144013946D01*
X115789946Y-144335853D01*
X115570000Y-144665026D01*
X115350054Y-144335853D01*
X114868285Y-144013946D01*
X114300000Y-143900907D01*
X113731715Y-144013946D01*
X113249946Y-144335853D01*
X113030000Y-144665026D01*
X112810054Y-144335853D01*
X112328285Y-144013946D01*
X111760000Y-143900907D01*
X111191715Y-144013946D01*
X110709946Y-144335853D01*
X110490000Y-144665026D01*
X110270054Y-144335853D01*
X109788285Y-144013946D01*
X109220000Y-143900907D01*
X108651715Y-144013946D01*
X108169946Y-144335853D01*
X107950000Y-144665026D01*
X107730054Y-144335853D01*
X107248285Y-144013946D01*
X106680000Y-143900907D01*
X106111715Y-144013946D01*
X105629946Y-144335853D01*
X105410000Y-144665026D01*
X105190054Y-144335853D01*
X104708285Y-144013946D01*
X104140000Y-143900907D01*
X103571715Y-144013946D01*
X103089946Y-144335853D01*
X102870000Y-144665026D01*
X102650054Y-144335853D01*
X102168285Y-144013946D01*
X101600000Y-143900907D01*
X101040000Y-144012298D01*
X101040000Y-141041875D01*
X101480727Y-142108515D01*
X102361847Y-142991174D01*
X103513674Y-143469454D01*
X104760854Y-143470543D01*
X105913515Y-142994273D01*
X106095573Y-142812532D01*
X109517073Y-142812532D01*
X109615736Y-143079387D01*
X110225461Y-143305908D01*
X110875460Y-143281856D01*
X111364264Y-143079387D01*
X111462927Y-142812532D01*
X116017073Y-142812532D01*
X116115736Y-143079387D01*
X116725461Y-143305908D01*
X117375460Y-143281856D01*
X117864264Y-143079387D01*
X117962927Y-142812532D01*
X120947073Y-142812532D01*
X121045736Y-143079387D01*
X121655461Y-143305908D01*
X122305460Y-143281856D01*
X122794264Y-143079387D01*
X122892927Y-142812532D01*
X127447073Y-142812532D01*
X127545736Y-143079387D01*
X128155461Y-143305908D01*
X128805460Y-143281856D01*
X129294264Y-143079387D01*
X129392927Y-142812532D01*
X128420000Y-141839605D01*
X127447073Y-142812532D01*
X122892927Y-142812532D01*
X121920000Y-141839605D01*
X120947073Y-142812532D01*
X117962927Y-142812532D01*
X116990000Y-141839605D01*
X116017073Y-142812532D01*
X111462927Y-142812532D01*
X110490000Y-141839605D01*
X109517073Y-142812532D01*
X106095573Y-142812532D01*
X106796174Y-142113153D01*
X107094185Y-141395461D01*
X108844092Y-141395461D01*
X108868144Y-142045460D01*
X109070613Y-142534264D01*
X109337468Y-142632927D01*
X110310395Y-141660000D01*
X110669605Y-141660000D01*
X111642532Y-142632927D01*
X111909387Y-142534264D01*
X112135908Y-141924539D01*
X112116331Y-141395461D01*
X115344092Y-141395461D01*
X115368144Y-142045460D01*
X115570613Y-142534264D01*
X115837468Y-142632927D01*
X116810395Y-141660000D01*
X117169605Y-141660000D01*
X118142532Y-142632927D01*
X118409387Y-142534264D01*
X118635908Y-141924539D01*
X118616331Y-141395461D01*
X120274092Y-141395461D01*
X120298144Y-142045460D01*
X120500613Y-142534264D01*
X120767468Y-142632927D01*
X121740395Y-141660000D01*
X122099605Y-141660000D01*
X123072532Y-142632927D01*
X123339387Y-142534264D01*
X123565908Y-141924539D01*
X123546331Y-141395461D01*
X126774092Y-141395461D01*
X126798144Y-142045460D01*
X127000613Y-142534264D01*
X127267468Y-142632927D01*
X128240395Y-141660000D01*
X128599605Y-141660000D01*
X129572532Y-142632927D01*
X129839387Y-142534264D01*
X130065908Y-141924539D01*
X130041856Y-141274540D01*
X129839387Y-140785736D01*
X129572532Y-140687073D01*
X128599605Y-141660000D01*
X128240395Y-141660000D01*
X127267468Y-140687073D01*
X127000613Y-140785736D01*
X126774092Y-141395461D01*
X123546331Y-141395461D01*
X123541856Y-141274540D01*
X123339387Y-140785736D01*
X123072532Y-140687073D01*
X122099605Y-141660000D01*
X121740395Y-141660000D01*
X120767468Y-140687073D01*
X120500613Y-140785736D01*
X120274092Y-141395461D01*
X118616331Y-141395461D01*
X118611856Y-141274540D01*
X118409387Y-140785736D01*
X118142532Y-140687073D01*
X117169605Y-141660000D01*
X116810395Y-141660000D01*
X115837468Y-140687073D01*
X115570613Y-140785736D01*
X115344092Y-141395461D01*
X112116331Y-141395461D01*
X112111856Y-141274540D01*
X111909387Y-140785736D01*
X111642532Y-140687073D01*
X110669605Y-141660000D01*
X110310395Y-141660000D01*
X109337468Y-140687073D01*
X109070613Y-140785736D01*
X108844092Y-141395461D01*
X107094185Y-141395461D01*
X107274454Y-140961326D01*
X107274850Y-140507468D01*
X109517073Y-140507468D01*
X110490000Y-141480395D01*
X111462927Y-140507468D01*
X116017073Y-140507468D01*
X116990000Y-141480395D01*
X117962927Y-140507468D01*
X120947073Y-140507468D01*
X121920000Y-141480395D01*
X122892927Y-140507468D01*
X127447073Y-140507468D01*
X128420000Y-141480395D01*
X129392927Y-140507468D01*
X129294264Y-140240613D01*
X128684539Y-140014092D01*
X128034540Y-140038144D01*
X127545736Y-140240613D01*
X127447073Y-140507468D01*
X122892927Y-140507468D01*
X122794264Y-140240613D01*
X122184539Y-140014092D01*
X121534540Y-140038144D01*
X121045736Y-140240613D01*
X120947073Y-140507468D01*
X117962927Y-140507468D01*
X117864264Y-140240613D01*
X117254539Y-140014092D01*
X116604540Y-140038144D01*
X116115736Y-140240613D01*
X116017073Y-140507468D01*
X111462927Y-140507468D01*
X111364264Y-140240613D01*
X110754539Y-140014092D01*
X110104540Y-140038144D01*
X109615736Y-140240613D01*
X109517073Y-140507468D01*
X107274850Y-140507468D01*
X107275543Y-139714146D01*
X106799273Y-138561485D01*
X105918153Y-137678826D01*
X105448466Y-137483795D01*
X108854716Y-137483795D01*
X109103106Y-138084943D01*
X109562637Y-138545278D01*
X110163352Y-138794716D01*
X110813795Y-138795284D01*
X111414943Y-138546894D01*
X111875278Y-138087363D01*
X112124716Y-137486648D01*
X112124718Y-137483795D01*
X115354716Y-137483795D01*
X115603106Y-138084943D01*
X116062637Y-138545278D01*
X116663352Y-138794716D01*
X117313795Y-138795284D01*
X117914943Y-138546894D01*
X118375278Y-138087363D01*
X118624716Y-137486648D01*
X118624718Y-137483795D01*
X120284716Y-137483795D01*
X120533106Y-138084943D01*
X120992637Y-138545278D01*
X121593352Y-138794716D01*
X122243795Y-138795284D01*
X122844943Y-138546894D01*
X123305278Y-138087363D01*
X123554716Y-137486648D01*
X123554718Y-137483795D01*
X126784716Y-137483795D01*
X127033106Y-138084943D01*
X127492637Y-138545278D01*
X128093352Y-138794716D01*
X128743795Y-138795284D01*
X129344943Y-138546894D01*
X129805278Y-138087363D01*
X130054716Y-137486648D01*
X130055284Y-136836205D01*
X129806894Y-136235057D01*
X129347363Y-135774722D01*
X128746648Y-135525284D01*
X128096205Y-135524716D01*
X127495057Y-135773106D01*
X127034722Y-136232637D01*
X126785284Y-136833352D01*
X126784716Y-137483795D01*
X123554718Y-137483795D01*
X123555284Y-136836205D01*
X123306894Y-136235057D01*
X122847363Y-135774722D01*
X122246648Y-135525284D01*
X121596205Y-135524716D01*
X120995057Y-135773106D01*
X120534722Y-136232637D01*
X120285284Y-136833352D01*
X120284716Y-137483795D01*
X118624718Y-137483795D01*
X118625284Y-136836205D01*
X118376894Y-136235057D01*
X117917363Y-135774722D01*
X117316648Y-135525284D01*
X116666205Y-135524716D01*
X116065057Y-135773106D01*
X115604722Y-136232637D01*
X115355284Y-136833352D01*
X115354716Y-137483795D01*
X112124718Y-137483795D01*
X112125284Y-136836205D01*
X111876894Y-136235057D01*
X111417363Y-135774722D01*
X110816648Y-135525284D01*
X110166205Y-135524716D01*
X109565057Y-135773106D01*
X109104722Y-136232637D01*
X108855284Y-136833352D01*
X108854716Y-137483795D01*
X105448466Y-137483795D01*
X104766326Y-137200546D01*
X103519146Y-137199457D01*
X102366485Y-137675727D01*
X101483826Y-138556847D01*
X101040000Y-139625699D01*
X101040000Y-132051887D01*
X103340000Y-132051887D01*
X103340000Y-132108113D01*
X103449233Y-132657264D01*
X103760302Y-133122811D01*
X104225849Y-133433880D01*
X104775000Y-133543113D01*
X105324151Y-133433880D01*
X105789698Y-133122811D01*
X106100767Y-132657264D01*
X106210000Y-132108113D01*
X106210000Y-132051887D01*
X106515000Y-132051887D01*
X106515000Y-132108113D01*
X106624233Y-132657264D01*
X106935302Y-133122811D01*
X107400849Y-133433880D01*
X107950000Y-133543113D01*
X108499151Y-133433880D01*
X108964698Y-133122811D01*
X109275767Y-132657264D01*
X109385000Y-132108113D01*
X109385000Y-132051887D01*
X110325000Y-132051887D01*
X110325000Y-132108113D01*
X110434233Y-132657264D01*
X110745302Y-133122811D01*
X111210849Y-133433880D01*
X111760000Y-133543113D01*
X112309151Y-133433880D01*
X112774698Y-133122811D01*
X113085767Y-132657264D01*
X113195000Y-132108113D01*
X113195000Y-132051887D01*
X113500000Y-132051887D01*
X113500000Y-132108113D01*
X113609233Y-132657264D01*
X113920302Y-133122811D01*
X114385849Y-133433880D01*
X114935000Y-133543113D01*
X115484151Y-133433880D01*
X115949698Y-133122811D01*
X116260767Y-132657264D01*
X116370000Y-132108113D01*
X116370000Y-132051887D01*
X117310000Y-132051887D01*
X117310000Y-132108113D01*
X117419233Y-132657264D01*
X117730302Y-133122811D01*
X118195849Y-133433880D01*
X118745000Y-133543113D01*
X119294151Y-133433880D01*
X119759698Y-133122811D01*
X120070767Y-132657264D01*
X120180000Y-132108113D01*
X120180000Y-132051887D01*
X120485000Y-132051887D01*
X120485000Y-132108113D01*
X120594233Y-132657264D01*
X120905302Y-133122811D01*
X121370849Y-133433880D01*
X121920000Y-133543113D01*
X122469151Y-133433880D01*
X122934698Y-133122811D01*
X123245767Y-132657264D01*
X123355000Y-132108113D01*
X123355000Y-132051887D01*
X124295000Y-132051887D01*
X124295000Y-132108113D01*
X124404233Y-132657264D01*
X124715302Y-133122811D01*
X125180849Y-133433880D01*
X125730000Y-133543113D01*
X126279151Y-133433880D01*
X126744698Y-133122811D01*
X127055767Y-132657264D01*
X127165000Y-132108113D01*
X127165000Y-132051887D01*
X127470000Y-132051887D01*
X127470000Y-132108113D01*
X127579233Y-132657264D01*
X127890302Y-133122811D01*
X128355849Y-133433880D01*
X128905000Y-133543113D01*
X129454151Y-133433880D01*
X129919698Y-133122811D01*
X130230767Y-132657264D01*
X130289063Y-132364187D01*
X132549752Y-132364187D01*
X132767757Y-132891800D01*
X133171077Y-133295824D01*
X133698309Y-133514750D01*
X134269187Y-133515248D01*
X134796800Y-133297243D01*
X135200824Y-132893923D01*
X135419750Y-132366691D01*
X135419752Y-132364187D01*
X135724752Y-132364187D01*
X135942757Y-132891800D01*
X136346077Y-133295824D01*
X136873309Y-133514750D01*
X137444187Y-133515248D01*
X137971800Y-133297243D01*
X138375824Y-132893923D01*
X138594750Y-132366691D01*
X138595248Y-131795813D01*
X138377243Y-131268200D01*
X137973923Y-130864176D01*
X137446691Y-130645250D01*
X136875813Y-130644752D01*
X136348200Y-130862757D01*
X135944176Y-131266077D01*
X135725250Y-131793309D01*
X135724752Y-132364187D01*
X135419752Y-132364187D01*
X135420248Y-131795813D01*
X135202243Y-131268200D01*
X134798923Y-130864176D01*
X134271691Y-130645250D01*
X133700813Y-130644752D01*
X133173200Y-130862757D01*
X132769176Y-131266077D01*
X132550250Y-131793309D01*
X132549752Y-132364187D01*
X130289063Y-132364187D01*
X130340000Y-132108113D01*
X130340000Y-132051887D01*
X130230767Y-131502736D01*
X129919698Y-131037189D01*
X129454151Y-130726120D01*
X128905000Y-130616887D01*
X128355849Y-130726120D01*
X127890302Y-131037189D01*
X127579233Y-131502736D01*
X127470000Y-132051887D01*
X127165000Y-132051887D01*
X127055767Y-131502736D01*
X126744698Y-131037189D01*
X126279151Y-130726120D01*
X125730000Y-130616887D01*
X125180849Y-130726120D01*
X124715302Y-131037189D01*
X124404233Y-131502736D01*
X124295000Y-132051887D01*
X123355000Y-132051887D01*
X123245767Y-131502736D01*
X122934698Y-131037189D01*
X122469151Y-130726120D01*
X121920000Y-130616887D01*
X121370849Y-130726120D01*
X120905302Y-131037189D01*
X120594233Y-131502736D01*
X120485000Y-132051887D01*
X120180000Y-132051887D01*
X120070767Y-131502736D01*
X119759698Y-131037189D01*
X119294151Y-130726120D01*
X118745000Y-130616887D01*
X118195849Y-130726120D01*
X117730302Y-131037189D01*
X117419233Y-131502736D01*
X117310000Y-132051887D01*
X116370000Y-132051887D01*
X116260767Y-131502736D01*
X115949698Y-131037189D01*
X115484151Y-130726120D01*
X114935000Y-130616887D01*
X114385849Y-130726120D01*
X113920302Y-131037189D01*
X113609233Y-131502736D01*
X113500000Y-132051887D01*
X113195000Y-132051887D01*
X113085767Y-131502736D01*
X112774698Y-131037189D01*
X112309151Y-130726120D01*
X111760000Y-130616887D01*
X111210849Y-130726120D01*
X110745302Y-131037189D01*
X110434233Y-131502736D01*
X110325000Y-132051887D01*
X109385000Y-132051887D01*
X109275767Y-131502736D01*
X108964698Y-131037189D01*
X108499151Y-130726120D01*
X107950000Y-130616887D01*
X107400849Y-130726120D01*
X106935302Y-131037189D01*
X106624233Y-131502736D01*
X106515000Y-132051887D01*
X106210000Y-132051887D01*
X106100767Y-131502736D01*
X105789698Y-131037189D01*
X105324151Y-130726120D01*
X104775000Y-130616887D01*
X104225849Y-130726120D01*
X103760302Y-131037189D01*
X103449233Y-131502736D01*
X103340000Y-132051887D01*
X101040000Y-132051887D01*
X101040000Y-127919187D01*
X142709752Y-127919187D01*
X142927757Y-128446800D01*
X143331077Y-128850824D01*
X143385000Y-128873215D01*
X143385000Y-129612469D01*
X143354697Y-129624990D01*
X142961371Y-130017630D01*
X142748243Y-130530900D01*
X142747758Y-131086661D01*
X142959990Y-131600303D01*
X143352630Y-131993629D01*
X143865900Y-132206757D01*
X144421661Y-132207242D01*
X144835723Y-132036156D01*
X144354347Y-132756586D01*
X144110000Y-133985000D01*
X144354347Y-135213414D01*
X145050187Y-136254813D01*
X146091586Y-136950653D01*
X147320000Y-137195000D01*
X148548414Y-136950653D01*
X149589813Y-136254813D01*
X150285653Y-135213414D01*
X150530000Y-133985000D01*
X150285653Y-132756586D01*
X149589813Y-131715187D01*
X148548414Y-131019347D01*
X147320000Y-130775000D01*
X146091586Y-131019347D01*
X145370714Y-131501018D01*
X145541757Y-131089100D01*
X145542242Y-130533339D01*
X145330010Y-130019697D01*
X144937370Y-129626371D01*
X144905000Y-129612930D01*
X144905000Y-128873646D01*
X144956800Y-128852243D01*
X145360824Y-128448923D01*
X145579750Y-127921691D01*
X145580248Y-127350813D01*
X145362243Y-126823200D01*
X144958923Y-126419176D01*
X144431691Y-126200250D01*
X143860813Y-126199752D01*
X143333200Y-126417757D01*
X142929176Y-126821077D01*
X142710250Y-127348309D01*
X142709752Y-127919187D01*
X101040000Y-127919187D01*
X101040000Y-124109187D01*
X142709752Y-124109187D01*
X142927757Y-124636800D01*
X143331077Y-125040824D01*
X143858309Y-125259750D01*
X144429187Y-125260248D01*
X144956800Y-125042243D01*
X145360824Y-124638923D01*
X145579750Y-124111691D01*
X145580248Y-123540813D01*
X145362243Y-123013200D01*
X144958923Y-122609176D01*
X144905000Y-122586785D01*
X144905000Y-120797525D01*
X145050187Y-121014813D01*
X146091586Y-121710653D01*
X147320000Y-121955000D01*
X148548414Y-121710653D01*
X149589813Y-121014813D01*
X150285653Y-119973414D01*
X150530000Y-118745000D01*
X150285653Y-117516586D01*
X149589813Y-116475187D01*
X148548414Y-115779347D01*
X147320000Y-115535000D01*
X146091586Y-115779347D01*
X145370714Y-116261018D01*
X145541757Y-115849100D01*
X145542242Y-115293339D01*
X145330010Y-114779697D01*
X144937370Y-114386371D01*
X144424100Y-114173243D01*
X143868339Y-114172758D01*
X143354697Y-114384990D01*
X142961371Y-114777630D01*
X142748243Y-115290900D01*
X142747758Y-115846661D01*
X142959990Y-116360303D01*
X143352630Y-116753629D01*
X143385000Y-116767070D01*
X143385000Y-122586354D01*
X143333200Y-122607757D01*
X142929176Y-123011077D01*
X142710250Y-123538309D01*
X142709752Y-124109187D01*
X101040000Y-124109187D01*
X101040000Y-122204187D01*
X103339752Y-122204187D01*
X103557757Y-122731800D01*
X103961077Y-123135824D01*
X104488309Y-123354750D01*
X105059187Y-123355248D01*
X105586800Y-123137243D01*
X105990824Y-122733923D01*
X106209750Y-122206691D01*
X106209752Y-122204187D01*
X106514752Y-122204187D01*
X106732757Y-122731800D01*
X107136077Y-123135824D01*
X107663309Y-123354750D01*
X108234187Y-123355248D01*
X108761800Y-123137243D01*
X109165824Y-122733923D01*
X109384750Y-122206691D01*
X109384752Y-122204187D01*
X110324752Y-122204187D01*
X110542757Y-122731800D01*
X110946077Y-123135824D01*
X111473309Y-123354750D01*
X112044187Y-123355248D01*
X112571800Y-123137243D01*
X112975824Y-122733923D01*
X113194750Y-122206691D01*
X113194752Y-122204187D01*
X113499752Y-122204187D01*
X113717757Y-122731800D01*
X114121077Y-123135824D01*
X114648309Y-123354750D01*
X115219187Y-123355248D01*
X115746800Y-123137243D01*
X116150824Y-122733923D01*
X116369750Y-122206691D01*
X116369752Y-122204187D01*
X117309752Y-122204187D01*
X117527757Y-122731800D01*
X117931077Y-123135824D01*
X118458309Y-123354750D01*
X119029187Y-123355248D01*
X119556800Y-123137243D01*
X119960824Y-122733923D01*
X120179750Y-122206691D01*
X120179752Y-122204187D01*
X120484752Y-122204187D01*
X120702757Y-122731800D01*
X121106077Y-123135824D01*
X121633309Y-123354750D01*
X122204187Y-123355248D01*
X122731800Y-123137243D01*
X123135824Y-122733923D01*
X123354750Y-122206691D01*
X123354752Y-122204187D01*
X124294752Y-122204187D01*
X124512757Y-122731800D01*
X124916077Y-123135824D01*
X125443309Y-123354750D01*
X126014187Y-123355248D01*
X126541800Y-123137243D01*
X126945824Y-122733923D01*
X127164750Y-122206691D01*
X127164752Y-122204187D01*
X127469752Y-122204187D01*
X127687757Y-122731800D01*
X128091077Y-123135824D01*
X128618309Y-123354750D01*
X129189187Y-123355248D01*
X129716800Y-123137243D01*
X130120824Y-122733923D01*
X130339750Y-122206691D01*
X130340024Y-121891887D01*
X132550000Y-121891887D01*
X132550000Y-121948113D01*
X132659233Y-122497264D01*
X132970302Y-122962811D01*
X133435849Y-123273880D01*
X133985000Y-123383113D01*
X134534151Y-123273880D01*
X134999698Y-122962811D01*
X135188667Y-122680000D01*
X135956333Y-122680000D01*
X136145302Y-122962811D01*
X136610849Y-123273880D01*
X137160000Y-123383113D01*
X137709151Y-123273880D01*
X138174698Y-122962811D01*
X138485767Y-122497264D01*
X138595000Y-121948113D01*
X138595000Y-121891887D01*
X138485767Y-121342736D01*
X138174698Y-120877189D01*
X137709151Y-120566120D01*
X137160000Y-120456887D01*
X136610849Y-120566120D01*
X136145302Y-120877189D01*
X135956333Y-121160000D01*
X135188667Y-121160000D01*
X134999698Y-120877189D01*
X134534151Y-120566120D01*
X133985000Y-120456887D01*
X133435849Y-120566120D01*
X132970302Y-120877189D01*
X132659233Y-121342736D01*
X132550000Y-121891887D01*
X130340024Y-121891887D01*
X130340248Y-121635813D01*
X130122243Y-121108200D01*
X129718923Y-120704176D01*
X129191691Y-120485250D01*
X128620813Y-120484752D01*
X128093200Y-120702757D01*
X127689176Y-121106077D01*
X127470250Y-121633309D01*
X127469752Y-122204187D01*
X127164752Y-122204187D01*
X127165248Y-121635813D01*
X126947243Y-121108200D01*
X126543923Y-120704176D01*
X126016691Y-120485250D01*
X125445813Y-120484752D01*
X124918200Y-120702757D01*
X124514176Y-121106077D01*
X124295250Y-121633309D01*
X124294752Y-122204187D01*
X123354752Y-122204187D01*
X123355248Y-121635813D01*
X123137243Y-121108200D01*
X122733923Y-120704176D01*
X122206691Y-120485250D01*
X121635813Y-120484752D01*
X121108200Y-120702757D01*
X120704176Y-121106077D01*
X120485250Y-121633309D01*
X120484752Y-122204187D01*
X120179752Y-122204187D01*
X120180248Y-121635813D01*
X119962243Y-121108200D01*
X119558923Y-120704176D01*
X119031691Y-120485250D01*
X118460813Y-120484752D01*
X117933200Y-120702757D01*
X117529176Y-121106077D01*
X117310250Y-121633309D01*
X117309752Y-122204187D01*
X116369752Y-122204187D01*
X116370248Y-121635813D01*
X116152243Y-121108200D01*
X115748923Y-120704176D01*
X115221691Y-120485250D01*
X114650813Y-120484752D01*
X114123200Y-120702757D01*
X113719176Y-121106077D01*
X113500250Y-121633309D01*
X113499752Y-122204187D01*
X113194752Y-122204187D01*
X113195248Y-121635813D01*
X112977243Y-121108200D01*
X112573923Y-120704176D01*
X112046691Y-120485250D01*
X111475813Y-120484752D01*
X110948200Y-120702757D01*
X110544176Y-121106077D01*
X110325250Y-121633309D01*
X110324752Y-122204187D01*
X109384752Y-122204187D01*
X109385248Y-121635813D01*
X109167243Y-121108200D01*
X108763923Y-120704176D01*
X108236691Y-120485250D01*
X107665813Y-120484752D01*
X107138200Y-120702757D01*
X106734176Y-121106077D01*
X106515250Y-121633309D01*
X106514752Y-122204187D01*
X106209752Y-122204187D01*
X106210248Y-121635813D01*
X105992243Y-121108200D01*
X105588923Y-120704176D01*
X105061691Y-120485250D01*
X104490813Y-120484752D01*
X103963200Y-120702757D01*
X103559176Y-121106077D01*
X103340250Y-121633309D01*
X103339752Y-122204187D01*
X101040000Y-122204187D01*
X101040000Y-117760750D01*
X104275000Y-117760750D01*
X104275000Y-118101309D01*
X104371673Y-118334698D01*
X104550301Y-118513327D01*
X104783690Y-118610000D01*
X105124250Y-118610000D01*
X105283000Y-118451250D01*
X105283000Y-117602000D01*
X105537000Y-117602000D01*
X105537000Y-118451250D01*
X105695750Y-118610000D01*
X106036310Y-118610000D01*
X106269699Y-118513327D01*
X106448327Y-118334698D01*
X106545000Y-118101309D01*
X106545000Y-117760750D01*
X106386250Y-117602000D01*
X105537000Y-117602000D01*
X105283000Y-117602000D01*
X104433750Y-117602000D01*
X104275000Y-117760750D01*
X101040000Y-117760750D01*
X101040000Y-116848691D01*
X104275000Y-116848691D01*
X104275000Y-117189250D01*
X104433750Y-117348000D01*
X105283000Y-117348000D01*
X105283000Y-116498750D01*
X105537000Y-116498750D01*
X105537000Y-117348000D01*
X106386250Y-117348000D01*
X106411698Y-117322552D01*
X106453244Y-117339803D01*
X106815117Y-117340119D01*
X106814803Y-117699775D01*
X106987233Y-118117086D01*
X107306235Y-118436645D01*
X107723244Y-118609803D01*
X108174775Y-118610197D01*
X108592086Y-118437767D01*
X108911645Y-118118765D01*
X109060306Y-117760750D01*
X111260000Y-117760750D01*
X111260000Y-118101309D01*
X111356673Y-118334698D01*
X111535301Y-118513327D01*
X111768690Y-118610000D01*
X112109250Y-118610000D01*
X112268000Y-118451250D01*
X112268000Y-117602000D01*
X112522000Y-117602000D01*
X112522000Y-118451250D01*
X112680750Y-118610000D01*
X113021310Y-118610000D01*
X113254699Y-118513327D01*
X113433327Y-118334698D01*
X113530000Y-118101309D01*
X113530000Y-117760750D01*
X113371250Y-117602000D01*
X112522000Y-117602000D01*
X112268000Y-117602000D01*
X111418750Y-117602000D01*
X111260000Y-117760750D01*
X109060306Y-117760750D01*
X109084803Y-117701756D01*
X109085197Y-117250225D01*
X108919286Y-116848691D01*
X111260000Y-116848691D01*
X111260000Y-117189250D01*
X111418750Y-117348000D01*
X112268000Y-117348000D01*
X112268000Y-116498750D01*
X112522000Y-116498750D01*
X112522000Y-117348000D01*
X113371250Y-117348000D01*
X113396698Y-117322552D01*
X113438244Y-117339803D01*
X113800117Y-117340119D01*
X113799803Y-117699775D01*
X113972233Y-118117086D01*
X114291235Y-118436645D01*
X114708244Y-118609803D01*
X115159775Y-118610197D01*
X115577086Y-118437767D01*
X115896645Y-118118765D01*
X116045306Y-117760750D01*
X118245000Y-117760750D01*
X118245000Y-118101309D01*
X118341673Y-118334698D01*
X118520301Y-118513327D01*
X118753690Y-118610000D01*
X119094250Y-118610000D01*
X119253000Y-118451250D01*
X119253000Y-117602000D01*
X119507000Y-117602000D01*
X119507000Y-118451250D01*
X119665750Y-118610000D01*
X120006310Y-118610000D01*
X120239699Y-118513327D01*
X120418327Y-118334698D01*
X120515000Y-118101309D01*
X120515000Y-117760750D01*
X120356250Y-117602000D01*
X119507000Y-117602000D01*
X119253000Y-117602000D01*
X118403750Y-117602000D01*
X118245000Y-117760750D01*
X116045306Y-117760750D01*
X116069803Y-117701756D01*
X116070197Y-117250225D01*
X115904286Y-116848691D01*
X118245000Y-116848691D01*
X118245000Y-117189250D01*
X118403750Y-117348000D01*
X119253000Y-117348000D01*
X119253000Y-116498750D01*
X119507000Y-116498750D01*
X119507000Y-117348000D01*
X120356250Y-117348000D01*
X120381698Y-117322552D01*
X120423244Y-117339803D01*
X120785117Y-117340119D01*
X120784803Y-117699775D01*
X120957233Y-118117086D01*
X121276235Y-118436645D01*
X121693244Y-118609803D01*
X122144775Y-118610197D01*
X122562086Y-118437767D01*
X122881645Y-118118765D01*
X123030306Y-117760750D01*
X125230000Y-117760750D01*
X125230000Y-118101309D01*
X125326673Y-118334698D01*
X125505301Y-118513327D01*
X125738690Y-118610000D01*
X126079250Y-118610000D01*
X126238000Y-118451250D01*
X126238000Y-117602000D01*
X126492000Y-117602000D01*
X126492000Y-118451250D01*
X126650750Y-118610000D01*
X126991310Y-118610000D01*
X127224699Y-118513327D01*
X127403327Y-118334698D01*
X127500000Y-118101309D01*
X127500000Y-117760750D01*
X127341250Y-117602000D01*
X126492000Y-117602000D01*
X126238000Y-117602000D01*
X125388750Y-117602000D01*
X125230000Y-117760750D01*
X123030306Y-117760750D01*
X123054803Y-117701756D01*
X123055197Y-117250225D01*
X122889286Y-116848691D01*
X125230000Y-116848691D01*
X125230000Y-117189250D01*
X125388750Y-117348000D01*
X126238000Y-117348000D01*
X126238000Y-116498750D01*
X126492000Y-116498750D01*
X126492000Y-117348000D01*
X127341250Y-117348000D01*
X127366698Y-117322552D01*
X127408244Y-117339803D01*
X127770117Y-117340119D01*
X127769803Y-117699775D01*
X127942233Y-118117086D01*
X128261235Y-118436645D01*
X128678244Y-118609803D01*
X129129775Y-118610197D01*
X129547086Y-118437767D01*
X129866645Y-118118765D01*
X130039803Y-117701756D01*
X130040197Y-117250225D01*
X129867767Y-116832914D01*
X129548765Y-116513355D01*
X129131756Y-116340197D01*
X128769883Y-116339881D01*
X128770197Y-115980225D01*
X128597767Y-115562914D01*
X128278765Y-115243355D01*
X127861756Y-115070197D01*
X127410225Y-115069803D01*
X126992914Y-115242233D01*
X126673355Y-115561235D01*
X126500197Y-115978244D01*
X126499803Y-116429775D01*
X126517689Y-116473061D01*
X126492000Y-116498750D01*
X126238000Y-116498750D01*
X126079250Y-116340000D01*
X125738690Y-116340000D01*
X125505301Y-116436673D01*
X125326673Y-116615302D01*
X125230000Y-116848691D01*
X122889286Y-116848691D01*
X122882767Y-116832914D01*
X122563765Y-116513355D01*
X122146756Y-116340197D01*
X121784883Y-116339881D01*
X121785197Y-115980225D01*
X121612767Y-115562914D01*
X121293765Y-115243355D01*
X120876756Y-115070197D01*
X120425225Y-115069803D01*
X120007914Y-115242233D01*
X119688355Y-115561235D01*
X119515197Y-115978244D01*
X119514803Y-116429775D01*
X119532689Y-116473061D01*
X119507000Y-116498750D01*
X119253000Y-116498750D01*
X119094250Y-116340000D01*
X118753690Y-116340000D01*
X118520301Y-116436673D01*
X118341673Y-116615302D01*
X118245000Y-116848691D01*
X115904286Y-116848691D01*
X115897767Y-116832914D01*
X115578765Y-116513355D01*
X115161756Y-116340197D01*
X114799883Y-116339881D01*
X114800197Y-115980225D01*
X114627767Y-115562914D01*
X114308765Y-115243355D01*
X113891756Y-115070197D01*
X113440225Y-115069803D01*
X113022914Y-115242233D01*
X112703355Y-115561235D01*
X112530197Y-115978244D01*
X112529803Y-116429775D01*
X112547689Y-116473061D01*
X112522000Y-116498750D01*
X112268000Y-116498750D01*
X112109250Y-116340000D01*
X111768690Y-116340000D01*
X111535301Y-116436673D01*
X111356673Y-116615302D01*
X111260000Y-116848691D01*
X108919286Y-116848691D01*
X108912767Y-116832914D01*
X108593765Y-116513355D01*
X108176756Y-116340197D01*
X107814883Y-116339881D01*
X107815197Y-115980225D01*
X107642767Y-115562914D01*
X107323765Y-115243355D01*
X106906756Y-115070197D01*
X106455225Y-115069803D01*
X106037914Y-115242233D01*
X105718355Y-115561235D01*
X105545197Y-115978244D01*
X105544803Y-116429775D01*
X105562689Y-116473061D01*
X105537000Y-116498750D01*
X105283000Y-116498750D01*
X105124250Y-116340000D01*
X104783690Y-116340000D01*
X104550301Y-116436673D01*
X104371673Y-116615302D01*
X104275000Y-116848691D01*
X101040000Y-116848691D01*
X101040000Y-113850167D01*
X128604838Y-113850167D01*
X128746883Y-114193943D01*
X129009673Y-114457192D01*
X129273554Y-114566765D01*
X129381883Y-114828943D01*
X129644673Y-115092192D01*
X129908554Y-115201765D01*
X130016883Y-115463943D01*
X130279673Y-115727192D01*
X130543554Y-115836765D01*
X130651883Y-116098943D01*
X130914673Y-116362192D01*
X131258201Y-116504838D01*
X131630167Y-116505162D01*
X131973943Y-116363117D01*
X132007118Y-116330000D01*
X137795000Y-116330000D01*
X138085839Y-116272148D01*
X138332401Y-116107401D01*
X138569680Y-115870122D01*
X138615167Y-115870162D01*
X138958943Y-115728117D01*
X139222192Y-115465327D01*
X139364838Y-115121799D01*
X139365162Y-114749833D01*
X139223117Y-114406057D01*
X138960327Y-114142808D01*
X138696446Y-114033235D01*
X138588117Y-113771057D01*
X138325327Y-113507808D01*
X138061446Y-113398235D01*
X137953117Y-113136057D01*
X137690327Y-112872808D01*
X137426446Y-112763235D01*
X137318117Y-112501057D01*
X137055327Y-112237808D01*
X136711799Y-112095162D01*
X136339833Y-112094838D01*
X135996057Y-112236883D01*
X135732808Y-112499673D01*
X135590162Y-112843201D01*
X135590121Y-112890077D01*
X135575198Y-112905000D01*
X130102463Y-112905000D01*
X130070327Y-112872808D01*
X129726799Y-112730162D01*
X129646104Y-112730092D01*
X129829896Y-112629500D01*
X130182166Y-112191483D01*
X130340000Y-111652000D01*
X130340000Y-111252000D01*
X129032000Y-111252000D01*
X129032000Y-112794915D01*
X129102969Y-112833906D01*
X129011057Y-112871883D01*
X128747808Y-113134673D01*
X128605162Y-113478201D01*
X128604838Y-113850167D01*
X101040000Y-113850167D01*
X101040000Y-111410750D01*
X104610000Y-111410750D01*
X104610000Y-112451309D01*
X104706673Y-112684698D01*
X104885301Y-112863327D01*
X105118690Y-112960000D01*
X105759250Y-112960000D01*
X105918000Y-112801250D01*
X105918000Y-111252000D01*
X104768750Y-111252000D01*
X104610000Y-111410750D01*
X101040000Y-111410750D01*
X101040000Y-110782745D01*
X101406861Y-110782745D01*
X101480995Y-111028864D01*
X102018223Y-111221965D01*
X102588454Y-111194778D01*
X102989005Y-111028864D01*
X103063139Y-110782745D01*
X102235000Y-109954605D01*
X101406861Y-110782745D01*
X101040000Y-110782745D01*
X101040000Y-110546736D01*
X101227255Y-110603139D01*
X102055395Y-109775000D01*
X102414605Y-109775000D01*
X103242745Y-110603139D01*
X103488864Y-110529005D01*
X103681965Y-109991777D01*
X103672760Y-109798691D01*
X104610000Y-109798691D01*
X104610000Y-110839250D01*
X104768750Y-110998000D01*
X105918000Y-110998000D01*
X105918000Y-109448750D01*
X105759250Y-109290000D01*
X105118690Y-109290000D01*
X104885301Y-109386673D01*
X104706673Y-109565302D01*
X104610000Y-109798691D01*
X103672760Y-109798691D01*
X103654778Y-109421546D01*
X103488864Y-109020995D01*
X103242745Y-108946861D01*
X102414605Y-109775000D01*
X102055395Y-109775000D01*
X101227255Y-108946861D01*
X101040000Y-109003264D01*
X101040000Y-108767255D01*
X101406861Y-108767255D01*
X102235000Y-109595395D01*
X103063139Y-108767255D01*
X102989005Y-108521136D01*
X102451777Y-108328035D01*
X101881546Y-108355222D01*
X101480995Y-108521136D01*
X101406861Y-108767255D01*
X101040000Y-108767255D01*
X101040000Y-105609082D01*
X101421077Y-105990824D01*
X101948309Y-106209750D01*
X102519187Y-106210248D01*
X103046800Y-105992243D01*
X103450824Y-105588923D01*
X103669750Y-105061691D01*
X103670248Y-104490813D01*
X103647951Y-104436851D01*
X103819802Y-104265000D01*
X104674458Y-104265000D01*
X104719233Y-104490101D01*
X105030302Y-104955648D01*
X105495849Y-105266717D01*
X106045000Y-105375950D01*
X106594151Y-105266717D01*
X107059698Y-104955648D01*
X107315000Y-104573562D01*
X107570302Y-104955648D01*
X107825000Y-105125832D01*
X107825000Y-106045000D01*
X107882852Y-106335839D01*
X108047599Y-106582401D01*
X108375600Y-106910402D01*
X108285162Y-107128201D01*
X108284838Y-107500167D01*
X108426883Y-107843943D01*
X108689673Y-108107192D01*
X109033201Y-108249838D01*
X109405167Y-108250162D01*
X109748943Y-108108117D01*
X109782118Y-108075000D01*
X120349890Y-108075000D01*
X120349838Y-108135167D01*
X120491883Y-108478943D01*
X120754673Y-108742192D01*
X121018554Y-108851765D01*
X121126883Y-109113943D01*
X121269770Y-109257079D01*
X120735849Y-109363283D01*
X120270302Y-109674352D01*
X120015000Y-110056438D01*
X119759698Y-109674352D01*
X119294151Y-109363283D01*
X118745000Y-109254050D01*
X118195849Y-109363283D01*
X117730302Y-109674352D01*
X117475000Y-110056438D01*
X117219698Y-109674352D01*
X116754151Y-109363283D01*
X116205000Y-109254050D01*
X115655849Y-109363283D01*
X115190302Y-109674352D01*
X114935000Y-110056438D01*
X114679698Y-109674352D01*
X114214151Y-109363283D01*
X113665000Y-109254050D01*
X113115849Y-109363283D01*
X112650302Y-109674352D01*
X112395000Y-110056438D01*
X112139698Y-109674352D01*
X111674151Y-109363283D01*
X111125000Y-109254050D01*
X110575849Y-109363283D01*
X110110302Y-109674352D01*
X109855000Y-110056438D01*
X109599698Y-109674352D01*
X109134151Y-109363283D01*
X108585000Y-109254050D01*
X108035849Y-109363283D01*
X107570302Y-109674352D01*
X107480000Y-109809498D01*
X107480000Y-109798691D01*
X107383327Y-109565302D01*
X107204699Y-109386673D01*
X106971310Y-109290000D01*
X106330750Y-109290000D01*
X106172000Y-109448750D01*
X106172000Y-110998000D01*
X106192000Y-110998000D01*
X106192000Y-111252000D01*
X106172000Y-111252000D01*
X106172000Y-112801250D01*
X106330750Y-112960000D01*
X106971310Y-112960000D01*
X107204699Y-112863327D01*
X107383327Y-112684698D01*
X107480000Y-112451309D01*
X107480000Y-112440502D01*
X107570302Y-112575648D01*
X108035849Y-112886717D01*
X108585000Y-112995950D01*
X109134151Y-112886717D01*
X109599698Y-112575648D01*
X109855000Y-112193562D01*
X110110302Y-112575648D01*
X110575849Y-112886717D01*
X111125000Y-112995950D01*
X111674151Y-112886717D01*
X112139698Y-112575648D01*
X112395000Y-112193562D01*
X112650302Y-112575648D01*
X113115849Y-112886717D01*
X113665000Y-112995950D01*
X114214151Y-112886717D01*
X114679698Y-112575648D01*
X114935000Y-112193562D01*
X115190302Y-112575648D01*
X115655849Y-112886717D01*
X116205000Y-112995950D01*
X116754151Y-112886717D01*
X117219698Y-112575648D01*
X117475000Y-112193562D01*
X117730302Y-112575648D01*
X118195849Y-112886717D01*
X118745000Y-112995950D01*
X119294151Y-112886717D01*
X119759698Y-112575648D01*
X120015000Y-112193562D01*
X120270302Y-112575648D01*
X120735849Y-112886717D01*
X121285000Y-112995950D01*
X121834151Y-112886717D01*
X122299698Y-112575648D01*
X122555000Y-112193562D01*
X122810302Y-112575648D01*
X123275849Y-112886717D01*
X123825000Y-112995950D01*
X124374151Y-112886717D01*
X124839698Y-112575648D01*
X125095000Y-112193562D01*
X125350302Y-112575648D01*
X125815849Y-112886717D01*
X126365000Y-112995950D01*
X126914151Y-112886717D01*
X127379698Y-112575648D01*
X127632507Y-112197293D01*
X127980104Y-112629500D01*
X128473181Y-112899367D01*
X128555961Y-112916904D01*
X128778000Y-112794915D01*
X128778000Y-111252000D01*
X128758000Y-111252000D01*
X128758000Y-110998000D01*
X128778000Y-110998000D01*
X128778000Y-110978000D01*
X129032000Y-110978000D01*
X129032000Y-110998000D01*
X130340000Y-110998000D01*
X130340000Y-110598000D01*
X130182166Y-110058517D01*
X129829896Y-109620500D01*
X129336819Y-109350633D01*
X129310230Y-109345000D01*
X130509890Y-109345000D01*
X130509838Y-109405167D01*
X130651883Y-109748943D01*
X130914673Y-110012192D01*
X131258201Y-110154838D01*
X131630167Y-110155162D01*
X131973943Y-110013117D01*
X132007118Y-109980000D01*
X136845198Y-109980000D01*
X138527599Y-111662401D01*
X138774161Y-111827148D01*
X139065000Y-111885000D01*
X139504617Y-111885000D01*
X139151371Y-112237630D01*
X138938243Y-112750900D01*
X138937758Y-113306661D01*
X139149990Y-113820303D01*
X139542630Y-114213629D01*
X140055900Y-114426757D01*
X140611661Y-114427242D01*
X141125303Y-114215010D01*
X141518629Y-113822370D01*
X141731757Y-113309100D01*
X141732242Y-112753339D01*
X141520010Y-112239697D01*
X141165932Y-111885000D01*
X141290198Y-111885000D01*
X141939878Y-112534680D01*
X141939838Y-112580167D01*
X142081883Y-112923943D01*
X142344673Y-113187192D01*
X142688201Y-113329838D01*
X143060167Y-113330162D01*
X143403943Y-113188117D01*
X143667192Y-112925327D01*
X143776765Y-112661446D01*
X144038943Y-112553117D01*
X144302192Y-112290327D01*
X144411765Y-112026446D01*
X144673943Y-111918117D01*
X144937192Y-111655327D01*
X145046765Y-111391446D01*
X145308943Y-111283117D01*
X145572192Y-111020327D01*
X145681765Y-110756446D01*
X145878476Y-110675167D01*
X152734838Y-110675167D01*
X152876883Y-111018943D01*
X153139673Y-111282192D01*
X153483201Y-111424838D01*
X153530077Y-111424879D01*
X153545000Y-111439802D01*
X153545000Y-122621333D01*
X153262189Y-122810302D01*
X152951120Y-123275849D01*
X152841887Y-123825000D01*
X152951120Y-124374151D01*
X153262189Y-124839698D01*
X153727736Y-125150767D01*
X154276887Y-125260000D01*
X154333113Y-125260000D01*
X154815000Y-125164147D01*
X154815000Y-126295853D01*
X154333113Y-126200000D01*
X154276887Y-126200000D01*
X153727736Y-126309233D01*
X153262189Y-126620302D01*
X152951120Y-127085849D01*
X152841887Y-127635000D01*
X152951120Y-128184151D01*
X153262189Y-128649698D01*
X153727736Y-128960767D01*
X154276887Y-129070000D01*
X154333113Y-129070000D01*
X154882264Y-128960767D01*
X155347811Y-128649698D01*
X155658880Y-128184151D01*
X155706859Y-127942943D01*
X155730615Y-127919187D01*
X156679752Y-127919187D01*
X156897757Y-128446800D01*
X157301077Y-128850824D01*
X157355000Y-128873215D01*
X157355000Y-129540000D01*
X157412852Y-129830839D01*
X157577599Y-130077401D01*
X158000817Y-130500619D01*
X157988243Y-130530900D01*
X157987758Y-131086661D01*
X158199990Y-131600303D01*
X158592630Y-131993629D01*
X159105900Y-132206757D01*
X159326602Y-132206950D01*
X158959347Y-132756586D01*
X158715000Y-133985000D01*
X158959347Y-135213414D01*
X159655187Y-136254813D01*
X160696586Y-136950653D01*
X161925000Y-137195000D01*
X163153414Y-136950653D01*
X164194813Y-136254813D01*
X164890653Y-135213414D01*
X165135000Y-133985000D01*
X164890653Y-132756586D01*
X164194813Y-131715187D01*
X163153414Y-131019347D01*
X161925000Y-130775000D01*
X160781833Y-131002390D01*
X160782242Y-130533339D01*
X160570010Y-130019697D01*
X160177370Y-129626371D01*
X159664100Y-129413243D01*
X159108339Y-129412758D01*
X159075945Y-129426143D01*
X158875000Y-129225198D01*
X158875000Y-128873646D01*
X158926800Y-128852243D01*
X159330824Y-128448923D01*
X159549750Y-127921691D01*
X159550248Y-127350813D01*
X159332243Y-126823200D01*
X158928923Y-126419176D01*
X158401691Y-126200250D01*
X157830813Y-126199752D01*
X157303200Y-126417757D01*
X156899176Y-126821077D01*
X156680250Y-127348309D01*
X156679752Y-127919187D01*
X155730615Y-127919187D01*
X156112401Y-127537401D01*
X156277148Y-127290839D01*
X156335000Y-127000000D01*
X156335000Y-124109187D01*
X156679752Y-124109187D01*
X156897757Y-124636800D01*
X157301077Y-125040824D01*
X157828309Y-125259750D01*
X158399187Y-125260248D01*
X158926800Y-125042243D01*
X159330824Y-124638923D01*
X159549750Y-124111691D01*
X159550248Y-123540813D01*
X159332243Y-123013200D01*
X158928923Y-122609176D01*
X158875000Y-122586785D01*
X158875000Y-119549373D01*
X158959347Y-119973414D01*
X159655187Y-121014813D01*
X160696586Y-121710653D01*
X161925000Y-121955000D01*
X163153414Y-121710653D01*
X164194813Y-121014813D01*
X164890653Y-119973414D01*
X165135000Y-118745000D01*
X164890653Y-117516586D01*
X164194813Y-116475187D01*
X163153414Y-115779347D01*
X161925000Y-115535000D01*
X160781833Y-115762390D01*
X160782242Y-115293339D01*
X160570010Y-114779697D01*
X160177370Y-114386371D01*
X159664100Y-114173243D01*
X159108339Y-114172758D01*
X158594697Y-114384990D01*
X158201371Y-114777630D01*
X157988243Y-115290900D01*
X157987758Y-115846661D01*
X158001143Y-115879055D01*
X157577599Y-116302599D01*
X157412852Y-116549161D01*
X157355000Y-116840000D01*
X157355000Y-122586354D01*
X157303200Y-122607757D01*
X156899176Y-123011077D01*
X156680250Y-123538309D01*
X156679752Y-124109187D01*
X156335000Y-124109187D01*
X156335000Y-111310167D01*
X166704838Y-111310167D01*
X166846883Y-111653943D01*
X167109673Y-111917192D01*
X167453201Y-112059838D01*
X167500077Y-112059879D01*
X167515000Y-112074802D01*
X167515000Y-122621333D01*
X167232189Y-122810302D01*
X166921120Y-123275849D01*
X166811887Y-123825000D01*
X166921120Y-124374151D01*
X167232189Y-124839698D01*
X167697736Y-125150767D01*
X168246887Y-125260000D01*
X168303113Y-125260000D01*
X168785000Y-125164147D01*
X168785000Y-126295853D01*
X168303113Y-126200000D01*
X168246887Y-126200000D01*
X167697736Y-126309233D01*
X167232189Y-126620302D01*
X166921120Y-127085849D01*
X166811887Y-127635000D01*
X166921120Y-128184151D01*
X167232189Y-128649698D01*
X167697736Y-128960767D01*
X168246887Y-129070000D01*
X168303113Y-129070000D01*
X168852264Y-128960767D01*
X169317811Y-128649698D01*
X169628880Y-128184151D01*
X169676859Y-127942943D01*
X169700615Y-127919187D01*
X170649752Y-127919187D01*
X170867757Y-128446800D01*
X171271077Y-128850824D01*
X171798309Y-129069750D01*
X171809958Y-129069760D01*
X173240817Y-130500619D01*
X173228243Y-130530900D01*
X173227758Y-131086661D01*
X173439990Y-131600303D01*
X173832630Y-131993629D01*
X174345900Y-132206757D01*
X174901661Y-132207242D01*
X175315723Y-132036156D01*
X174834347Y-132756586D01*
X174590000Y-133985000D01*
X174834347Y-135213414D01*
X175530187Y-136254813D01*
X176571586Y-136950653D01*
X177800000Y-137195000D01*
X179028414Y-136950653D01*
X180069813Y-136254813D01*
X180765653Y-135213414D01*
X181010000Y-133985000D01*
X180765653Y-132756586D01*
X180069813Y-131715187D01*
X179028414Y-131019347D01*
X177800000Y-130775000D01*
X176571586Y-131019347D01*
X175850714Y-131501018D01*
X176021757Y-131089100D01*
X176022242Y-130533339D01*
X175810010Y-130019697D01*
X175417370Y-129626371D01*
X174904100Y-129413243D01*
X174348339Y-129412758D01*
X174315945Y-129426143D01*
X173311944Y-128422142D01*
X173519750Y-127921691D01*
X173520248Y-127350813D01*
X173302243Y-126823200D01*
X172898923Y-126419176D01*
X172371691Y-126200250D01*
X171800813Y-126199752D01*
X171273200Y-126417757D01*
X170869176Y-126821077D01*
X170650250Y-127348309D01*
X170649752Y-127919187D01*
X169700615Y-127919187D01*
X170082401Y-127537401D01*
X170247148Y-127290839D01*
X170305000Y-127000000D01*
X170305000Y-124109187D01*
X170649752Y-124109187D01*
X170867757Y-124636800D01*
X171271077Y-125040824D01*
X171798309Y-125259750D01*
X172369187Y-125260248D01*
X172896800Y-125042243D01*
X173300824Y-124638923D01*
X173519750Y-124111691D01*
X173520248Y-123540813D01*
X173302243Y-123013200D01*
X172898923Y-122609176D01*
X172845000Y-122586785D01*
X172845000Y-118424802D01*
X174315619Y-116954183D01*
X174345900Y-116966757D01*
X174901661Y-116967242D01*
X175315723Y-116796156D01*
X174834347Y-117516586D01*
X174590000Y-118745000D01*
X174834347Y-119973414D01*
X175530187Y-121014813D01*
X176571586Y-121710653D01*
X177800000Y-121955000D01*
X179028414Y-121710653D01*
X180069813Y-121014813D01*
X180765653Y-119973414D01*
X181010000Y-118745000D01*
X180765653Y-117516586D01*
X180069813Y-116475187D01*
X179028414Y-115779347D01*
X177800000Y-115535000D01*
X176571586Y-115779347D01*
X175850714Y-116261018D01*
X176021757Y-115849100D01*
X176022242Y-115293339D01*
X175810010Y-114779697D01*
X175417370Y-114386371D01*
X174904100Y-114173243D01*
X174348339Y-114172758D01*
X173834697Y-114384990D01*
X173441371Y-114777630D01*
X173228243Y-115290900D01*
X173227758Y-115846661D01*
X173241143Y-115879055D01*
X171547599Y-117572599D01*
X171382852Y-117819161D01*
X171325000Y-118110000D01*
X171325000Y-122586354D01*
X171273200Y-122607757D01*
X170869176Y-123011077D01*
X170650250Y-123538309D01*
X170649752Y-124109187D01*
X170305000Y-124109187D01*
X170305000Y-111945167D01*
X180674838Y-111945167D01*
X180816883Y-112288943D01*
X181079673Y-112552192D01*
X181423201Y-112694838D01*
X181470077Y-112694879D01*
X181485000Y-112709802D01*
X181485000Y-122621333D01*
X181202189Y-122810302D01*
X180891120Y-123275849D01*
X180781887Y-123825000D01*
X180891120Y-124374151D01*
X181202189Y-124839698D01*
X181667736Y-125150767D01*
X182216887Y-125260000D01*
X182273113Y-125260000D01*
X182755000Y-125164147D01*
X182755000Y-126295853D01*
X182273113Y-126200000D01*
X182216887Y-126200000D01*
X181667736Y-126309233D01*
X181202189Y-126620302D01*
X180891120Y-127085849D01*
X180781887Y-127635000D01*
X180891120Y-128184151D01*
X181202189Y-128649698D01*
X181667736Y-128960767D01*
X182216887Y-129070000D01*
X182273113Y-129070000D01*
X182822264Y-128960767D01*
X183287811Y-128649698D01*
X183598880Y-128184151D01*
X183646859Y-127942943D01*
X183670615Y-127919187D01*
X184619752Y-127919187D01*
X184837757Y-128446800D01*
X185241077Y-128850824D01*
X185768309Y-129069750D01*
X186339187Y-129070248D01*
X186393149Y-129047951D01*
X188493036Y-131147838D01*
X188679990Y-131600303D01*
X189072630Y-131993629D01*
X189585900Y-132206757D01*
X190141661Y-132207242D01*
X190555723Y-132036156D01*
X190074347Y-132756586D01*
X189830000Y-133985000D01*
X190074347Y-135213414D01*
X190770187Y-136254813D01*
X191811586Y-136950653D01*
X193040000Y-137195000D01*
X194268414Y-136950653D01*
X195309813Y-136254813D01*
X196005653Y-135213414D01*
X196250000Y-133985000D01*
X196005653Y-132756586D01*
X195309813Y-131715187D01*
X194268414Y-131019347D01*
X193040000Y-130775000D01*
X191811586Y-131019347D01*
X191090714Y-131501018D01*
X191261757Y-131089100D01*
X191262242Y-130533339D01*
X191050010Y-130019697D01*
X190657370Y-129626371D01*
X190144100Y-129413243D01*
X189588339Y-129412758D01*
X189106607Y-129611805D01*
X187468256Y-127973454D01*
X187489750Y-127921691D01*
X187490000Y-127635000D01*
X194751887Y-127635000D01*
X194861120Y-128184151D01*
X195172189Y-128649698D01*
X195637736Y-128960767D01*
X196186887Y-129070000D01*
X196243113Y-129070000D01*
X196792264Y-128960767D01*
X197257811Y-128649698D01*
X197568880Y-128184151D01*
X197678113Y-127635000D01*
X197568880Y-127085849D01*
X197257811Y-126620302D01*
X196792264Y-126309233D01*
X196243113Y-126200000D01*
X196186887Y-126200000D01*
X195637736Y-126309233D01*
X195172189Y-126620302D01*
X194861120Y-127085849D01*
X194751887Y-127635000D01*
X187490000Y-127635000D01*
X187490248Y-127350813D01*
X187272243Y-126823200D01*
X186868923Y-126419176D01*
X186341691Y-126200250D01*
X185770813Y-126199752D01*
X185243200Y-126417757D01*
X184839176Y-126821077D01*
X184620250Y-127348309D01*
X184619752Y-127919187D01*
X183670615Y-127919187D01*
X184052401Y-127537401D01*
X184217148Y-127290839D01*
X184275000Y-127000000D01*
X184275000Y-124109187D01*
X184619752Y-124109187D01*
X184837757Y-124636800D01*
X185241077Y-125040824D01*
X185768309Y-125259750D01*
X186339187Y-125260248D01*
X186866800Y-125042243D01*
X187270824Y-124638923D01*
X187489750Y-124111691D01*
X187490248Y-123540813D01*
X187272243Y-123013200D01*
X186868923Y-122609176D01*
X186815000Y-122586785D01*
X186815000Y-119694802D01*
X189555619Y-116954183D01*
X189585900Y-116966757D01*
X190141661Y-116967242D01*
X190555723Y-116796156D01*
X190074347Y-117516586D01*
X189830000Y-118745000D01*
X190074347Y-119973414D01*
X190770187Y-121014813D01*
X191811586Y-121710653D01*
X193040000Y-121955000D01*
X194268414Y-121710653D01*
X195309813Y-121014813D01*
X195455000Y-120797525D01*
X195455000Y-122621333D01*
X195172189Y-122810302D01*
X194861120Y-123275849D01*
X194751887Y-123825000D01*
X194861120Y-124374151D01*
X195172189Y-124839698D01*
X195637736Y-125150767D01*
X196186887Y-125260000D01*
X196243113Y-125260000D01*
X196792264Y-125150767D01*
X197257811Y-124839698D01*
X197568880Y-124374151D01*
X197678113Y-123825000D01*
X197568880Y-123275849D01*
X197257811Y-122810302D01*
X196975000Y-122621333D01*
X196975000Y-113592463D01*
X197007192Y-113560327D01*
X197149838Y-113216799D01*
X197150162Y-112844833D01*
X197008117Y-112501057D01*
X196745327Y-112237808D01*
X196401799Y-112095162D01*
X196029833Y-112094838D01*
X195686057Y-112236883D01*
X195422808Y-112499673D01*
X195280162Y-112843201D01*
X195279838Y-113215167D01*
X195421883Y-113558943D01*
X195455000Y-113592118D01*
X195455000Y-116692475D01*
X195309813Y-116475187D01*
X194268414Y-115779347D01*
X193040000Y-115535000D01*
X191811586Y-115779347D01*
X191090714Y-116261018D01*
X191261757Y-115849100D01*
X191262242Y-115293339D01*
X191050010Y-114779697D01*
X190657370Y-114386371D01*
X190144100Y-114173243D01*
X189588339Y-114172758D01*
X189074697Y-114384990D01*
X188681371Y-114777630D01*
X188468243Y-115290900D01*
X188467758Y-115846661D01*
X188481143Y-115879055D01*
X185517599Y-118842599D01*
X185352852Y-119089161D01*
X185295000Y-119380000D01*
X185295000Y-122586354D01*
X185243200Y-122607757D01*
X184839176Y-123011077D01*
X184620250Y-123538309D01*
X184619752Y-124109187D01*
X184275000Y-124109187D01*
X184275000Y-111687463D01*
X184307192Y-111655327D01*
X184449838Y-111311799D01*
X184450162Y-110939833D01*
X184308117Y-110596057D01*
X184045327Y-110332808D01*
X183701799Y-110190162D01*
X183329833Y-110189838D01*
X182986057Y-110331883D01*
X182722808Y-110594673D01*
X182580162Y-110938201D01*
X182579838Y-111310167D01*
X182721883Y-111653943D01*
X182755000Y-111687118D01*
X182755000Y-111830198D01*
X182545122Y-111620320D01*
X182545162Y-111574833D01*
X182403117Y-111231057D01*
X182140327Y-110967808D01*
X181796799Y-110825162D01*
X181424833Y-110824838D01*
X181081057Y-110966883D01*
X180817808Y-111229673D01*
X180675162Y-111573201D01*
X180674838Y-111945167D01*
X170305000Y-111945167D01*
X170305000Y-109855000D01*
X170247148Y-109564161D01*
X170082401Y-109317599D01*
X169845122Y-109080320D01*
X169845162Y-109034833D01*
X169703117Y-108691057D01*
X169440327Y-108427808D01*
X169096799Y-108285162D01*
X168724833Y-108284838D01*
X168381057Y-108426883D01*
X168117808Y-108689673D01*
X167975162Y-109033201D01*
X167974838Y-109405167D01*
X168116883Y-109748943D01*
X168379673Y-110012192D01*
X168723201Y-110154838D01*
X168770077Y-110154879D01*
X168785000Y-110169802D01*
X168785000Y-111195198D01*
X168575122Y-110985320D01*
X168575162Y-110939833D01*
X168433117Y-110596057D01*
X168170327Y-110332808D01*
X167826799Y-110190162D01*
X167454833Y-110189838D01*
X167111057Y-110331883D01*
X166847808Y-110594673D01*
X166705162Y-110938201D01*
X166704838Y-111310167D01*
X156335000Y-111310167D01*
X156335000Y-108585000D01*
X156277148Y-108294161D01*
X156112401Y-108047599D01*
X155875122Y-107810320D01*
X155875162Y-107764833D01*
X155733117Y-107421057D01*
X155470327Y-107157808D01*
X155126799Y-107015162D01*
X154754833Y-107014838D01*
X154411057Y-107156883D01*
X154147808Y-107419673D01*
X154005162Y-107763201D01*
X154004838Y-108135167D01*
X154146883Y-108478943D01*
X154409673Y-108742192D01*
X154753201Y-108884838D01*
X154800077Y-108884879D01*
X154815000Y-108899802D01*
X154815000Y-110560198D01*
X154605122Y-110350320D01*
X154605162Y-110304833D01*
X154463117Y-109961057D01*
X154200327Y-109697808D01*
X153856799Y-109555162D01*
X153484833Y-109554838D01*
X153141057Y-109696883D01*
X152877808Y-109959673D01*
X152735162Y-110303201D01*
X152734838Y-110675167D01*
X145878476Y-110675167D01*
X145943943Y-110648117D01*
X146207192Y-110385327D01*
X146316765Y-110121446D01*
X146578943Y-110013117D01*
X146842192Y-109750327D01*
X146951765Y-109486446D01*
X147213943Y-109378117D01*
X147477192Y-109115327D01*
X147586765Y-108851446D01*
X147848943Y-108743117D01*
X148112192Y-108480327D01*
X148254838Y-108136799D01*
X148255162Y-107764833D01*
X148113117Y-107421057D01*
X147850327Y-107157808D01*
X147506799Y-107015162D01*
X147459923Y-107015121D01*
X147120024Y-106675222D01*
X147320000Y-106715000D01*
X148548414Y-106470653D01*
X149589813Y-105774813D01*
X150285653Y-104733414D01*
X150530000Y-103505000D01*
X150285653Y-102276586D01*
X149589813Y-101235187D01*
X148548414Y-100539347D01*
X147320000Y-100295000D01*
X146091586Y-100539347D01*
X145370714Y-101021018D01*
X145541757Y-100609100D01*
X145542242Y-100053339D01*
X145330010Y-99539697D01*
X144937370Y-99146371D01*
X144905000Y-99132930D01*
X144905000Y-98393646D01*
X144956800Y-98372243D01*
X145360824Y-97968923D01*
X145579750Y-97441691D01*
X145580248Y-96870813D01*
X145362243Y-96343200D01*
X144958923Y-95939176D01*
X144431691Y-95720250D01*
X143860813Y-95719752D01*
X143333200Y-95937757D01*
X142929176Y-96341077D01*
X142710250Y-96868309D01*
X142709752Y-97439187D01*
X142927757Y-97966800D01*
X143331077Y-98370824D01*
X143385000Y-98393215D01*
X143385000Y-99132469D01*
X143354697Y-99144990D01*
X142961371Y-99537630D01*
X142748243Y-100050900D01*
X142747758Y-100606661D01*
X142959990Y-101120303D01*
X143352630Y-101513629D01*
X143865900Y-101726757D01*
X144421661Y-101727242D01*
X144835723Y-101556156D01*
X144354347Y-102276586D01*
X144110000Y-103505000D01*
X144214183Y-104028761D01*
X144145000Y-104015000D01*
X132007463Y-104015000D01*
X131975327Y-103982808D01*
X131631799Y-103840162D01*
X131259833Y-103839838D01*
X130916057Y-103981883D01*
X130652808Y-104244673D01*
X130510162Y-104588201D01*
X130510108Y-104650000D01*
X130123926Y-104650000D01*
X130230767Y-104490101D01*
X130340000Y-103940950D01*
X130340000Y-103069050D01*
X130230767Y-102519899D01*
X129919698Y-102054352D01*
X129454151Y-101743283D01*
X128905000Y-101634050D01*
X128355849Y-101743283D01*
X127890302Y-102054352D01*
X127635000Y-102436438D01*
X127379698Y-102054352D01*
X126914151Y-101743283D01*
X126365000Y-101634050D01*
X125815849Y-101743283D01*
X125350302Y-102054352D01*
X125095000Y-102436438D01*
X124839698Y-102054352D01*
X124374151Y-101743283D01*
X123825000Y-101634050D01*
X123275849Y-101743283D01*
X122810302Y-102054352D01*
X122555000Y-102436438D01*
X122299698Y-102054352D01*
X121834151Y-101743283D01*
X121285000Y-101634050D01*
X120735849Y-101743283D01*
X120270302Y-102054352D01*
X120015000Y-102436438D01*
X119759698Y-102054352D01*
X119294151Y-101743283D01*
X118745000Y-101634050D01*
X118195849Y-101743283D01*
X117730302Y-102054352D01*
X117475000Y-102436438D01*
X117219698Y-102054352D01*
X116754151Y-101743283D01*
X116205000Y-101634050D01*
X115655849Y-101743283D01*
X115190302Y-102054352D01*
X114935000Y-102436438D01*
X114679698Y-102054352D01*
X114214151Y-101743283D01*
X113665000Y-101634050D01*
X113115849Y-101743283D01*
X112650302Y-102054352D01*
X112395000Y-102436438D01*
X112139698Y-102054352D01*
X111674151Y-101743283D01*
X111125000Y-101634050D01*
X110575849Y-101743283D01*
X110110302Y-102054352D01*
X109855000Y-102436438D01*
X109599698Y-102054352D01*
X109134151Y-101743283D01*
X108585000Y-101634050D01*
X108035849Y-101743283D01*
X107570302Y-102054352D01*
X107315000Y-102436438D01*
X107059698Y-102054352D01*
X106594151Y-101743283D01*
X106045000Y-101634050D01*
X105495849Y-101743283D01*
X105030302Y-102054352D01*
X104719233Y-102519899D01*
X104674458Y-102745000D01*
X103505000Y-102745000D01*
X103214160Y-102802852D01*
X102967599Y-102967599D01*
X102573454Y-103361744D01*
X102521691Y-103340250D01*
X101950813Y-103339752D01*
X101423200Y-103557757D01*
X101040000Y-103940289D01*
X101040000Y-98066661D01*
X138937758Y-98066661D01*
X139149990Y-98580303D01*
X139542630Y-98973629D01*
X140055900Y-99186757D01*
X140611661Y-99187242D01*
X141125303Y-98975010D01*
X141518629Y-98582370D01*
X141731757Y-98069100D01*
X141732242Y-97513339D01*
X141520010Y-96999697D01*
X141127370Y-96606371D01*
X140614100Y-96393243D01*
X140058339Y-96392758D01*
X139544697Y-96604990D01*
X139151371Y-96997630D01*
X138938243Y-97510900D01*
X138937758Y-98066661D01*
X101040000Y-98066661D01*
X101040000Y-96170750D01*
X104610000Y-96170750D01*
X104610000Y-97211309D01*
X104706673Y-97444698D01*
X104885301Y-97623327D01*
X105118690Y-97720000D01*
X105759250Y-97720000D01*
X105918000Y-97561250D01*
X105918000Y-96012000D01*
X104768750Y-96012000D01*
X104610000Y-96170750D01*
X101040000Y-96170750D01*
X101040000Y-95542745D01*
X101406861Y-95542745D01*
X101480995Y-95788864D01*
X102018223Y-95981965D01*
X102588454Y-95954778D01*
X102989005Y-95788864D01*
X103063139Y-95542745D01*
X102235000Y-94714605D01*
X101406861Y-95542745D01*
X101040000Y-95542745D01*
X101040000Y-95306736D01*
X101227255Y-95363139D01*
X102055395Y-94535000D01*
X102414605Y-94535000D01*
X103242745Y-95363139D01*
X103488864Y-95289005D01*
X103681965Y-94751777D01*
X103672760Y-94558691D01*
X104610000Y-94558691D01*
X104610000Y-95599250D01*
X104768750Y-95758000D01*
X105918000Y-95758000D01*
X105918000Y-94208750D01*
X105759250Y-94050000D01*
X105118690Y-94050000D01*
X104885301Y-94146673D01*
X104706673Y-94325302D01*
X104610000Y-94558691D01*
X103672760Y-94558691D01*
X103654778Y-94181546D01*
X103488864Y-93780995D01*
X103242745Y-93706861D01*
X102414605Y-94535000D01*
X102055395Y-94535000D01*
X101227255Y-93706861D01*
X101040000Y-93763264D01*
X101040000Y-93527255D01*
X101406861Y-93527255D01*
X102235000Y-94355395D01*
X103063139Y-93527255D01*
X102989005Y-93281136D01*
X102451777Y-93088035D01*
X101881546Y-93115222D01*
X101480995Y-93281136D01*
X101406861Y-93527255D01*
X101040000Y-93527255D01*
X101040000Y-90369082D01*
X101421077Y-90750824D01*
X101948309Y-90969750D01*
X102519187Y-90970248D01*
X103046800Y-90752243D01*
X103450824Y-90348923D01*
X103669750Y-89821691D01*
X103670248Y-89250813D01*
X103647951Y-89196851D01*
X103819802Y-89025000D01*
X104674458Y-89025000D01*
X104719233Y-89250101D01*
X105030302Y-89715648D01*
X105495849Y-90026717D01*
X106045000Y-90135950D01*
X106594151Y-90026717D01*
X107059698Y-89715648D01*
X107315000Y-89333562D01*
X107570302Y-89715648D01*
X108035849Y-90026717D01*
X108585000Y-90135950D01*
X109134151Y-90026717D01*
X109599698Y-89715648D01*
X109855000Y-89333562D01*
X110110302Y-89715648D01*
X110575849Y-90026717D01*
X111125000Y-90135950D01*
X111674151Y-90026717D01*
X112139698Y-89715648D01*
X112395000Y-89333562D01*
X112650302Y-89715648D01*
X113115849Y-90026717D01*
X113665000Y-90135950D01*
X114214151Y-90026717D01*
X114679698Y-89715648D01*
X114935000Y-89333562D01*
X115190302Y-89715648D01*
X115655849Y-90026717D01*
X116205000Y-90135950D01*
X116754151Y-90026717D01*
X117219698Y-89715648D01*
X117475000Y-89333562D01*
X117730302Y-89715648D01*
X118195849Y-90026717D01*
X118745000Y-90135950D01*
X119294151Y-90026717D01*
X119759698Y-89715648D01*
X120015000Y-89333562D01*
X120270302Y-89715648D01*
X120501111Y-89869870D01*
X120464833Y-89869838D01*
X120121057Y-90011883D01*
X119857808Y-90274673D01*
X119715162Y-90618201D01*
X119714838Y-90990167D01*
X119849056Y-91315000D01*
X109220000Y-91315000D01*
X108929161Y-91372852D01*
X108682599Y-91537599D01*
X108047599Y-92172599D01*
X107882852Y-92419161D01*
X107825000Y-92710000D01*
X107825000Y-94264168D01*
X107570302Y-94434352D01*
X107480000Y-94569498D01*
X107480000Y-94558691D01*
X107383327Y-94325302D01*
X107204699Y-94146673D01*
X106971310Y-94050000D01*
X106330750Y-94050000D01*
X106172000Y-94208750D01*
X106172000Y-95758000D01*
X106192000Y-95758000D01*
X106192000Y-96012000D01*
X106172000Y-96012000D01*
X106172000Y-97561250D01*
X106330750Y-97720000D01*
X106971310Y-97720000D01*
X107204699Y-97623327D01*
X107383327Y-97444698D01*
X107480000Y-97211309D01*
X107480000Y-97200502D01*
X107570302Y-97335648D01*
X108035849Y-97646717D01*
X108585000Y-97755950D01*
X109134151Y-97646717D01*
X109599698Y-97335648D01*
X109855000Y-96953562D01*
X110110302Y-97335648D01*
X110575849Y-97646717D01*
X111125000Y-97755950D01*
X111674151Y-97646717D01*
X112139698Y-97335648D01*
X112395000Y-96953562D01*
X112650302Y-97335648D01*
X113115849Y-97646717D01*
X113665000Y-97755950D01*
X114214151Y-97646717D01*
X114679698Y-97335648D01*
X114935000Y-96953562D01*
X115190302Y-97335648D01*
X115655849Y-97646717D01*
X116205000Y-97755950D01*
X116754151Y-97646717D01*
X117219698Y-97335648D01*
X117475000Y-96953562D01*
X117730302Y-97335648D01*
X118195849Y-97646717D01*
X118745000Y-97755950D01*
X119294151Y-97646717D01*
X119759698Y-97335648D01*
X120015000Y-96953562D01*
X120270302Y-97335648D01*
X120735849Y-97646717D01*
X121285000Y-97755950D01*
X121834151Y-97646717D01*
X122299698Y-97335648D01*
X122555000Y-96953562D01*
X122810302Y-97335648D01*
X123275849Y-97646717D01*
X123825000Y-97755950D01*
X124374151Y-97646717D01*
X124839698Y-97335648D01*
X125095000Y-96953562D01*
X125350302Y-97335648D01*
X125815849Y-97646717D01*
X126365000Y-97755950D01*
X126914151Y-97646717D01*
X127379698Y-97335648D01*
X127632507Y-96957293D01*
X127980104Y-97389500D01*
X128473181Y-97659367D01*
X128555961Y-97676904D01*
X128778000Y-97554915D01*
X128778000Y-96012000D01*
X129032000Y-96012000D01*
X129032000Y-97554915D01*
X129254039Y-97676904D01*
X129336819Y-97659367D01*
X129829896Y-97389500D01*
X130182166Y-96951483D01*
X130340000Y-96412000D01*
X130340000Y-96012000D01*
X129032000Y-96012000D01*
X128778000Y-96012000D01*
X128758000Y-96012000D01*
X128758000Y-95758000D01*
X128778000Y-95758000D01*
X128778000Y-95738000D01*
X129032000Y-95738000D01*
X129032000Y-95758000D01*
X130340000Y-95758000D01*
X130340000Y-95358000D01*
X130282847Y-95162649D01*
X131542599Y-96422401D01*
X131789161Y-96587148D01*
X132080000Y-96645000D01*
X136597537Y-96645000D01*
X136629673Y-96677192D01*
X136973201Y-96819838D01*
X137345167Y-96820162D01*
X137688943Y-96678117D01*
X137952192Y-96415327D01*
X138061765Y-96151446D01*
X138323943Y-96043117D01*
X138587192Y-95780327D01*
X138729838Y-95436799D01*
X138730162Y-95064833D01*
X138588117Y-94721057D01*
X138358631Y-94491171D01*
X138569680Y-94280122D01*
X138615167Y-94280162D01*
X138937854Y-94146831D01*
X138937758Y-94256661D01*
X139149990Y-94770303D01*
X139542630Y-95163629D01*
X140055900Y-95376757D01*
X140611661Y-95377242D01*
X141125303Y-95165010D01*
X141518629Y-94772370D01*
X141731757Y-94259100D01*
X141732242Y-93703339D01*
X141520010Y-93189697D01*
X141127370Y-92796371D01*
X140614100Y-92583243D01*
X140058339Y-92582758D01*
X139544697Y-92794990D01*
X139310862Y-93028417D01*
X139223117Y-92816057D01*
X138960327Y-92552808D01*
X138616799Y-92410162D01*
X138244833Y-92409838D01*
X137901057Y-92551883D01*
X137637808Y-92814673D01*
X137495162Y-93158201D01*
X137495121Y-93205077D01*
X136845198Y-93855000D01*
X133664802Y-93855000D01*
X132644802Y-92835000D01*
X135255000Y-92835000D01*
X135545839Y-92777148D01*
X135792401Y-92612401D01*
X136029680Y-92375122D01*
X136075167Y-92375162D01*
X136418943Y-92233117D01*
X136682192Y-91970327D01*
X136791765Y-91706446D01*
X137053943Y-91598117D01*
X137317192Y-91335327D01*
X137459838Y-90991799D01*
X137460162Y-90619833D01*
X137318117Y-90276057D01*
X137055327Y-90012808D01*
X136791446Y-89903235D01*
X136683117Y-89641057D01*
X136420327Y-89377808D01*
X136076799Y-89235162D01*
X135704833Y-89234838D01*
X135361057Y-89376883D01*
X135327882Y-89410000D01*
X130737463Y-89410000D01*
X130705327Y-89377808D01*
X130361799Y-89235162D01*
X130233761Y-89235050D01*
X130340000Y-88700950D01*
X130340000Y-87829050D01*
X130230767Y-87279899D01*
X129919698Y-86814352D01*
X129454151Y-86503283D01*
X128905000Y-86394050D01*
X128355849Y-86503283D01*
X127890302Y-86814352D01*
X127635000Y-87196438D01*
X127379698Y-86814352D01*
X126914151Y-86503283D01*
X126365000Y-86394050D01*
X125815849Y-86503283D01*
X125350302Y-86814352D01*
X125095000Y-87196438D01*
X124839698Y-86814352D01*
X124585000Y-86644168D01*
X124585000Y-85090000D01*
X124527148Y-84799161D01*
X124362401Y-84552599D01*
X124125122Y-84315320D01*
X124125162Y-84269833D01*
X123990944Y-83945000D01*
X143314617Y-83945000D01*
X142961371Y-84297630D01*
X142748243Y-84810900D01*
X142747758Y-85366661D01*
X142959990Y-85880303D01*
X143352630Y-86273629D01*
X143385000Y-86287070D01*
X143385000Y-92106354D01*
X143333200Y-92127757D01*
X142929176Y-92531077D01*
X142710250Y-93058309D01*
X142709752Y-93629187D01*
X142927757Y-94156800D01*
X143331077Y-94560824D01*
X143858309Y-94779750D01*
X144429187Y-94780248D01*
X144956800Y-94562243D01*
X145360824Y-94158923D01*
X145579750Y-93631691D01*
X145580248Y-93060813D01*
X145362243Y-92533200D01*
X145089686Y-92260167D01*
X152099838Y-92260167D01*
X152241883Y-92603943D01*
X152504673Y-92867192D01*
X152848201Y-93009838D01*
X152908544Y-93009891D01*
X152841887Y-93345000D01*
X152951120Y-93894151D01*
X153262189Y-94359698D01*
X153727736Y-94670767D01*
X154134517Y-94751681D01*
X154005162Y-95063201D01*
X154005108Y-95125000D01*
X153597463Y-95125000D01*
X153565327Y-95092808D01*
X153221799Y-94950162D01*
X152849833Y-94949838D01*
X152506057Y-95091883D01*
X152242808Y-95354673D01*
X152100162Y-95698201D01*
X152099838Y-96070167D01*
X152241883Y-96413943D01*
X152504673Y-96677192D01*
X152848201Y-96819838D01*
X152908544Y-96819891D01*
X152841887Y-97155000D01*
X152951120Y-97704151D01*
X153262189Y-98169698D01*
X153727736Y-98480767D01*
X154276887Y-98590000D01*
X154333113Y-98590000D01*
X154882264Y-98480767D01*
X155347811Y-98169698D01*
X155658880Y-97704151D01*
X155768113Y-97155000D01*
X155666668Y-96645000D01*
X156772976Y-96645000D01*
X156680250Y-96868309D01*
X156679752Y-97439187D01*
X156897757Y-97966800D01*
X157301077Y-98370824D01*
X157355000Y-98393215D01*
X157355000Y-99060000D01*
X157412852Y-99350839D01*
X157577599Y-99597401D01*
X158000817Y-100020619D01*
X157988243Y-100050900D01*
X157987758Y-100606661D01*
X158199990Y-101120303D01*
X158592630Y-101513629D01*
X159105900Y-101726757D01*
X159326602Y-101726950D01*
X158959347Y-102276586D01*
X158715000Y-103505000D01*
X158959347Y-104733414D01*
X159655187Y-105774813D01*
X160696586Y-106470653D01*
X161925000Y-106715000D01*
X163153414Y-106470653D01*
X164194813Y-105774813D01*
X164890653Y-104733414D01*
X165135000Y-103505000D01*
X164890653Y-102276586D01*
X164194813Y-101235187D01*
X163153414Y-100539347D01*
X161925000Y-100295000D01*
X160781833Y-100522390D01*
X160782242Y-100053339D01*
X160570010Y-99539697D01*
X160177370Y-99146371D01*
X159664100Y-98933243D01*
X159108339Y-98932758D01*
X159075945Y-98946143D01*
X158875000Y-98745198D01*
X158875000Y-98393646D01*
X158926800Y-98372243D01*
X159330824Y-97968923D01*
X159549750Y-97441691D01*
X159550248Y-96870813D01*
X159456944Y-96645000D01*
X166913332Y-96645000D01*
X166811887Y-97155000D01*
X166921120Y-97704151D01*
X167232189Y-98169698D01*
X167697736Y-98480767D01*
X168246887Y-98590000D01*
X168303113Y-98590000D01*
X168852264Y-98480767D01*
X169317811Y-98169698D01*
X169628880Y-97704151D01*
X169738113Y-97155000D01*
X169636668Y-96645000D01*
X170742976Y-96645000D01*
X170650250Y-96868309D01*
X170649752Y-97439187D01*
X170867757Y-97966800D01*
X171271077Y-98370824D01*
X171798309Y-98589750D01*
X171809958Y-98589760D01*
X173240817Y-100020619D01*
X173228243Y-100050900D01*
X173227758Y-100606661D01*
X173439990Y-101120303D01*
X173832630Y-101513629D01*
X174345900Y-101726757D01*
X174901661Y-101727242D01*
X175315723Y-101556156D01*
X174834347Y-102276586D01*
X174590000Y-103505000D01*
X174834347Y-104733414D01*
X175530187Y-105774813D01*
X176571586Y-106470653D01*
X177800000Y-106715000D01*
X179028414Y-106470653D01*
X180069813Y-105774813D01*
X180765653Y-104733414D01*
X181010000Y-103505000D01*
X180765653Y-102276586D01*
X180069813Y-101235187D01*
X179028414Y-100539347D01*
X177800000Y-100295000D01*
X176571586Y-100539347D01*
X175850714Y-101021018D01*
X176021757Y-100609100D01*
X176022242Y-100053339D01*
X175810010Y-99539697D01*
X175417370Y-99146371D01*
X174904100Y-98933243D01*
X174348339Y-98932758D01*
X174315945Y-98946143D01*
X173311944Y-97942142D01*
X173519750Y-97441691D01*
X173520248Y-96870813D01*
X173426944Y-96645000D01*
X180412537Y-96645000D01*
X180444673Y-96677192D01*
X180788201Y-96819838D01*
X180848544Y-96819891D01*
X180781887Y-97155000D01*
X180891120Y-97704151D01*
X181202189Y-98169698D01*
X181667736Y-98480767D01*
X182216887Y-98590000D01*
X182273113Y-98590000D01*
X182822264Y-98480767D01*
X183287811Y-98169698D01*
X183598880Y-97704151D01*
X183651584Y-97439187D01*
X184619752Y-97439187D01*
X184837757Y-97966800D01*
X185241077Y-98370824D01*
X185768309Y-98589750D01*
X186339187Y-98590248D01*
X186393149Y-98567951D01*
X188493036Y-100667838D01*
X188679990Y-101120303D01*
X189072630Y-101513629D01*
X189585900Y-101726757D01*
X190141661Y-101727242D01*
X190555723Y-101556156D01*
X190074347Y-102276586D01*
X189830000Y-103505000D01*
X190074347Y-104733414D01*
X190770187Y-105774813D01*
X191811586Y-106470653D01*
X193040000Y-106715000D01*
X194268414Y-106470653D01*
X195309813Y-105774813D01*
X196005653Y-104733414D01*
X196250000Y-103505000D01*
X196005653Y-102276586D01*
X195309813Y-101235187D01*
X194268414Y-100539347D01*
X193040000Y-100295000D01*
X191811586Y-100539347D01*
X191090714Y-101021018D01*
X191261757Y-100609100D01*
X191262242Y-100053339D01*
X191050010Y-99539697D01*
X190657370Y-99146371D01*
X190144100Y-98933243D01*
X189588339Y-98932758D01*
X189106607Y-99131805D01*
X187468256Y-97493454D01*
X187489750Y-97441691D01*
X187490000Y-97155000D01*
X194751887Y-97155000D01*
X194861120Y-97704151D01*
X195172189Y-98169698D01*
X195637736Y-98480767D01*
X196186887Y-98590000D01*
X196243113Y-98590000D01*
X196792264Y-98480767D01*
X197257811Y-98169698D01*
X197568880Y-97704151D01*
X197678113Y-97155000D01*
X197568880Y-96605849D01*
X197257811Y-96140302D01*
X196792264Y-95829233D01*
X196243113Y-95720000D01*
X196186887Y-95720000D01*
X195637736Y-95829233D01*
X195172189Y-96140302D01*
X194861120Y-96605849D01*
X194751887Y-97155000D01*
X187490000Y-97155000D01*
X187490248Y-96870813D01*
X187272243Y-96343200D01*
X186868923Y-95939176D01*
X186341691Y-95720250D01*
X185770813Y-95719752D01*
X185243200Y-95937757D01*
X184839176Y-96341077D01*
X184620250Y-96868309D01*
X184619752Y-97439187D01*
X183651584Y-97439187D01*
X183708113Y-97155000D01*
X183598880Y-96605849D01*
X183287811Y-96140302D01*
X182822264Y-95829233D01*
X182273113Y-95720000D01*
X182216887Y-95720000D01*
X181910091Y-95781026D01*
X181910162Y-95699833D01*
X181768117Y-95356057D01*
X181505327Y-95092808D01*
X181161799Y-94950162D01*
X180789833Y-94949838D01*
X180446057Y-95091883D01*
X180412882Y-95125000D01*
X168830710Y-95125000D01*
X168977148Y-94905839D01*
X169035000Y-94615000D01*
X169035000Y-94548667D01*
X169317811Y-94359698D01*
X169628880Y-93894151D01*
X169681584Y-93629187D01*
X170649752Y-93629187D01*
X170867757Y-94156800D01*
X171271077Y-94560824D01*
X171798309Y-94779750D01*
X172369187Y-94780248D01*
X172896800Y-94562243D01*
X173300824Y-94158923D01*
X173519750Y-93631691D01*
X173520000Y-93345000D01*
X180781887Y-93345000D01*
X180891120Y-93894151D01*
X181202189Y-94359698D01*
X181667736Y-94670767D01*
X182216887Y-94780000D01*
X182273113Y-94780000D01*
X182822264Y-94670767D01*
X183287811Y-94359698D01*
X183598880Y-93894151D01*
X183651584Y-93629187D01*
X184619752Y-93629187D01*
X184837757Y-94156800D01*
X185241077Y-94560824D01*
X185768309Y-94779750D01*
X186339187Y-94780248D01*
X186866800Y-94562243D01*
X187270824Y-94158923D01*
X187489750Y-93631691D01*
X187490000Y-93345000D01*
X194751887Y-93345000D01*
X194861120Y-93894151D01*
X195172189Y-94359698D01*
X195637736Y-94670767D01*
X196186887Y-94780000D01*
X196243113Y-94780000D01*
X196792264Y-94670767D01*
X197257811Y-94359698D01*
X197568880Y-93894151D01*
X197678113Y-93345000D01*
X197568880Y-92795849D01*
X197257811Y-92330302D01*
X196792264Y-92019233D01*
X196243113Y-91910000D01*
X196186887Y-91910000D01*
X195637736Y-92019233D01*
X195172189Y-92330302D01*
X194861120Y-92795849D01*
X194751887Y-93345000D01*
X187490000Y-93345000D01*
X187490248Y-93060813D01*
X187272243Y-92533200D01*
X186868923Y-92129176D01*
X186815000Y-92106785D01*
X186815000Y-89214802D01*
X189555619Y-86474183D01*
X189585900Y-86486757D01*
X190141661Y-86487242D01*
X190555723Y-86316156D01*
X190074347Y-87036586D01*
X189830000Y-88265000D01*
X190074347Y-89493414D01*
X190770187Y-90534813D01*
X191811586Y-91230653D01*
X193040000Y-91475000D01*
X194268414Y-91230653D01*
X195309813Y-90534813D01*
X196005653Y-89493414D01*
X196250000Y-88265000D01*
X196005653Y-87036586D01*
X195309813Y-85995187D01*
X194268414Y-85299347D01*
X193040000Y-85055000D01*
X191811586Y-85299347D01*
X191090714Y-85781018D01*
X191261757Y-85369100D01*
X191262242Y-84813339D01*
X191050010Y-84299697D01*
X190657370Y-83906371D01*
X190144100Y-83693243D01*
X189588339Y-83692758D01*
X189074697Y-83904990D01*
X188681371Y-84297630D01*
X188468243Y-84810900D01*
X188467758Y-85366661D01*
X188481143Y-85399055D01*
X185517599Y-88362599D01*
X185352852Y-88609161D01*
X185295000Y-88900000D01*
X185295000Y-92106354D01*
X185243200Y-92127757D01*
X184839176Y-92531077D01*
X184620250Y-93058309D01*
X184619752Y-93629187D01*
X183651584Y-93629187D01*
X183708113Y-93345000D01*
X183598880Y-92795849D01*
X183287811Y-92330302D01*
X182822264Y-92019233D01*
X182273113Y-91910000D01*
X182216887Y-91910000D01*
X181667736Y-92019233D01*
X181202189Y-92330302D01*
X180891120Y-92795849D01*
X180781887Y-93345000D01*
X173520000Y-93345000D01*
X173520248Y-93060813D01*
X173302243Y-92533200D01*
X172898923Y-92129176D01*
X172845000Y-92106785D01*
X172845000Y-87944802D01*
X174315619Y-86474183D01*
X174345900Y-86486757D01*
X174901661Y-86487242D01*
X175315723Y-86316156D01*
X174834347Y-87036586D01*
X174590000Y-88265000D01*
X174834347Y-89493414D01*
X175530187Y-90534813D01*
X176571586Y-91230653D01*
X177800000Y-91475000D01*
X179028414Y-91230653D01*
X180069813Y-90534813D01*
X180765653Y-89493414D01*
X181010000Y-88265000D01*
X180765653Y-87036586D01*
X180069813Y-85995187D01*
X179028414Y-85299347D01*
X177800000Y-85055000D01*
X176571586Y-85299347D01*
X175850714Y-85781018D01*
X176021757Y-85369100D01*
X176022242Y-84813339D01*
X175810010Y-84299697D01*
X175417370Y-83906371D01*
X174904100Y-83693243D01*
X174348339Y-83692758D01*
X173834697Y-83904990D01*
X173441371Y-84297630D01*
X173228243Y-84810900D01*
X173227758Y-85366661D01*
X173241143Y-85399055D01*
X171547599Y-87092599D01*
X171382852Y-87339161D01*
X171325000Y-87630000D01*
X171325000Y-92106354D01*
X171273200Y-92127757D01*
X170869176Y-92531077D01*
X170650250Y-93058309D01*
X170649752Y-93629187D01*
X169681584Y-93629187D01*
X169738113Y-93345000D01*
X169628880Y-92795849D01*
X169317811Y-92330302D01*
X168852264Y-92019233D01*
X168303113Y-91910000D01*
X168246887Y-91910000D01*
X167697736Y-92019233D01*
X167232189Y-92330302D01*
X166921120Y-92795849D01*
X166811887Y-93345000D01*
X166921120Y-93894151D01*
X167232189Y-94359698D01*
X167366054Y-94449144D01*
X167325198Y-94490000D01*
X158999169Y-94490000D01*
X159330824Y-94158923D01*
X159549750Y-93631691D01*
X159550248Y-93060813D01*
X159332243Y-92533200D01*
X158928923Y-92129176D01*
X158875000Y-92106785D01*
X158875000Y-86674802D01*
X159075619Y-86474183D01*
X159105900Y-86486757D01*
X159661661Y-86487242D01*
X160075723Y-86316156D01*
X159594347Y-87036586D01*
X159350000Y-88265000D01*
X159594347Y-89493414D01*
X160290187Y-90534813D01*
X161331586Y-91230653D01*
X162560000Y-91475000D01*
X163788414Y-91230653D01*
X164829813Y-90534813D01*
X165525653Y-89493414D01*
X165770000Y-88265000D01*
X165525653Y-87036586D01*
X164829813Y-85995187D01*
X163788414Y-85299347D01*
X162560000Y-85055000D01*
X161331586Y-85299347D01*
X160610714Y-85781018D01*
X160781757Y-85369100D01*
X160782242Y-84813339D01*
X160570010Y-84299697D01*
X160177370Y-83906371D01*
X159664100Y-83693243D01*
X159108339Y-83692758D01*
X158594697Y-83904990D01*
X158201371Y-84297630D01*
X157988243Y-84810900D01*
X157987758Y-85366661D01*
X158001143Y-85399055D01*
X157577599Y-85822599D01*
X157412852Y-86069161D01*
X157355000Y-86360000D01*
X157355000Y-92106354D01*
X157303200Y-92127757D01*
X157127785Y-92302866D01*
X157144838Y-92261799D01*
X157145162Y-91889833D01*
X157003117Y-91546057D01*
X156740327Y-91282808D01*
X156396799Y-91140162D01*
X156024833Y-91139838D01*
X155681057Y-91281883D01*
X155647882Y-91315000D01*
X153597463Y-91315000D01*
X153565327Y-91282808D01*
X153221799Y-91140162D01*
X152849833Y-91139838D01*
X152506057Y-91281883D01*
X152242808Y-91544673D01*
X152100162Y-91888201D01*
X152099838Y-92260167D01*
X145089686Y-92260167D01*
X144958923Y-92129176D01*
X144905000Y-92106785D01*
X144905000Y-90317525D01*
X145050187Y-90534813D01*
X146091586Y-91230653D01*
X147320000Y-91475000D01*
X148548414Y-91230653D01*
X149589813Y-90534813D01*
X150285653Y-89493414D01*
X150530000Y-88265000D01*
X150285653Y-87036586D01*
X149589813Y-85995187D01*
X148548414Y-85299347D01*
X147320000Y-85055000D01*
X146091586Y-85299347D01*
X145370714Y-85781018D01*
X145541757Y-85369100D01*
X145542242Y-84813339D01*
X145330010Y-84299697D01*
X145095429Y-84064706D01*
X145228201Y-84119838D01*
X145600167Y-84120162D01*
X145943943Y-83978117D01*
X146207192Y-83715327D01*
X146316765Y-83451446D01*
X146578943Y-83343117D01*
X146842192Y-83080327D01*
X146984838Y-82736799D01*
X146985162Y-82364833D01*
X146843117Y-82021057D01*
X146580327Y-81757808D01*
X146236799Y-81615162D01*
X145864833Y-81614838D01*
X145521057Y-81756883D01*
X145487882Y-81790000D01*
X111290633Y-81790000D01*
X111424838Y-81466799D01*
X111424846Y-81457427D01*
X111760000Y-81524093D01*
X112328285Y-81411054D01*
X112810054Y-81089147D01*
X113030000Y-80759974D01*
X113249946Y-81089147D01*
X113731715Y-81411054D01*
X114300000Y-81524093D01*
X114868285Y-81411054D01*
X115350054Y-81089147D01*
X115570000Y-80759974D01*
X115789946Y-81089147D01*
X116271715Y-81411054D01*
X116840000Y-81524093D01*
X117408285Y-81411054D01*
X117890054Y-81089147D01*
X118110000Y-80759974D01*
X118329946Y-81089147D01*
X118811715Y-81411054D01*
X119380000Y-81524093D01*
X119948285Y-81411054D01*
X120430054Y-81089147D01*
X120650000Y-80759974D01*
X120869946Y-81089147D01*
X121351715Y-81411054D01*
X121920000Y-81524093D01*
X122488285Y-81411054D01*
X122970054Y-81089147D01*
X123190000Y-80759974D01*
X123409946Y-81089147D01*
X123891715Y-81411054D01*
X124460000Y-81524093D01*
X125028285Y-81411054D01*
X125510054Y-81089147D01*
X125730000Y-80759974D01*
X125949946Y-81089147D01*
X126431715Y-81411054D01*
X127000000Y-81524093D01*
X127568285Y-81411054D01*
X128050054Y-81089147D01*
X128371961Y-80607378D01*
X128485000Y-80039093D01*
X128485000Y-79980907D01*
X128371961Y-79412622D01*
X128050054Y-78930853D01*
X127876667Y-78815000D01*
X130697188Y-78815000D01*
X130633569Y-78908110D01*
M02*
