G04 #@! TF.FileFunction,Legend,Bot*
%FSLAX46Y46*%
G04 Gerber Fmt 4.6, Leading zero omitted, Abs format (unit mm)*
G04 Created by KiCad (PCBNEW 4.0.7) date 12/23/19 17:32:06*
%MOMM*%
%LPD*%
G01*
G04 APERTURE LIST*
%ADD10C,0.100000*%
%ADD11C,0.200000*%
%ADD12C,0.150000*%
%ADD13C,0.120000*%
G04 APERTURE END LIST*
D10*
X144983047Y-87382333D02*
X144602095Y-87382333D01*
X145059238Y-87610905D02*
X144792571Y-86810905D01*
X144525904Y-87610905D01*
X144030666Y-87915667D02*
X144068762Y-87877571D01*
X144144952Y-87763286D01*
X144183047Y-87687095D01*
X144221143Y-87572810D01*
X144259238Y-87382333D01*
X144259238Y-87229952D01*
X144221143Y-87039476D01*
X144183047Y-86925190D01*
X144144952Y-86849000D01*
X144068762Y-86734714D01*
X144030666Y-86696619D01*
X143725905Y-87306143D02*
X143116381Y-87306143D01*
X143421143Y-87610905D02*
X143421143Y-87001381D01*
X142811619Y-87915667D02*
X142773524Y-87877571D01*
X142697334Y-87763286D01*
X142659238Y-87687095D01*
X142621143Y-87572810D01*
X142583048Y-87382333D01*
X142583048Y-87229952D01*
X142621143Y-87039476D01*
X142659238Y-86925190D01*
X142697334Y-86849000D01*
X142773524Y-86734714D01*
X142811619Y-86696619D01*
X153434952Y-91344714D02*
X153473047Y-91382810D01*
X153587333Y-91420905D01*
X153663523Y-91420905D01*
X153777809Y-91382810D01*
X153854000Y-91306619D01*
X153892095Y-91230429D01*
X153930190Y-91078048D01*
X153930190Y-90963762D01*
X153892095Y-90811381D01*
X153854000Y-90735190D01*
X153777809Y-90659000D01*
X153663523Y-90620905D01*
X153587333Y-90620905D01*
X153473047Y-90659000D01*
X153434952Y-90697095D01*
X152863523Y-91725667D02*
X152901619Y-91687571D01*
X152977809Y-91573286D01*
X153015904Y-91497095D01*
X153054000Y-91382810D01*
X153092095Y-91192333D01*
X153092095Y-91039952D01*
X153054000Y-90849476D01*
X153015904Y-90735190D01*
X152977809Y-90659000D01*
X152901619Y-90544714D01*
X152863523Y-90506619D01*
X152558762Y-91116143D02*
X151949238Y-91116143D01*
X151644476Y-91725667D02*
X151606381Y-91687571D01*
X151530191Y-91573286D01*
X151492095Y-91497095D01*
X151454000Y-91382810D01*
X151415905Y-91192333D01*
X151415905Y-91039952D01*
X151454000Y-90849476D01*
X151492095Y-90735190D01*
X151530191Y-90659000D01*
X151606381Y-90544714D01*
X151644476Y-90506619D01*
D11*
X156845000Y-90170000D02*
X150495000Y-90170000D01*
X150495000Y-90170000D02*
X151130000Y-90805000D01*
X150495000Y-90170000D02*
X151130000Y-89535000D01*
D12*
X171275476Y-107547143D02*
X171323095Y-107594762D01*
X171465952Y-107642381D01*
X171561190Y-107642381D01*
X171704048Y-107594762D01*
X171799286Y-107499524D01*
X171846905Y-107404286D01*
X171894524Y-107213810D01*
X171894524Y-107070952D01*
X171846905Y-106880476D01*
X171799286Y-106785238D01*
X171704048Y-106690000D01*
X171561190Y-106642381D01*
X171465952Y-106642381D01*
X171323095Y-106690000D01*
X171275476Y-106737619D01*
X170846905Y-107642381D02*
X170846905Y-106975714D01*
X170846905Y-107166190D02*
X170799286Y-107070952D01*
X170751667Y-107023333D01*
X170656429Y-106975714D01*
X170561190Y-106975714D01*
X169846904Y-107594762D02*
X169942142Y-107642381D01*
X170132619Y-107642381D01*
X170227857Y-107594762D01*
X170275476Y-107499524D01*
X170275476Y-107118571D01*
X170227857Y-107023333D01*
X170132619Y-106975714D01*
X169942142Y-106975714D01*
X169846904Y-107023333D01*
X169799285Y-107118571D01*
X169799285Y-107213810D01*
X170275476Y-107309048D01*
X168942142Y-107642381D02*
X168942142Y-107118571D01*
X168989761Y-107023333D01*
X169084999Y-106975714D01*
X169275476Y-106975714D01*
X169370714Y-107023333D01*
X168942142Y-107594762D02*
X169037380Y-107642381D01*
X169275476Y-107642381D01*
X169370714Y-107594762D01*
X169418333Y-107499524D01*
X169418333Y-107404286D01*
X169370714Y-107309048D01*
X169275476Y-107261429D01*
X169037380Y-107261429D01*
X168942142Y-107213810D01*
X168608809Y-106975714D02*
X168227857Y-106975714D01*
X168465952Y-106642381D02*
X168465952Y-107499524D01*
X168418333Y-107594762D01*
X168323095Y-107642381D01*
X168227857Y-107642381D01*
X167513570Y-107594762D02*
X167608808Y-107642381D01*
X167799285Y-107642381D01*
X167894523Y-107594762D01*
X167942142Y-107499524D01*
X167942142Y-107118571D01*
X167894523Y-107023333D01*
X167799285Y-106975714D01*
X167608808Y-106975714D01*
X167513570Y-107023333D01*
X167465951Y-107118571D01*
X167465951Y-107213810D01*
X167942142Y-107309048D01*
X165846903Y-106975714D02*
X165846903Y-107642381D01*
X166084999Y-106594762D02*
X166323094Y-107309048D01*
X165704046Y-107309048D01*
X164418332Y-107642381D02*
X164513570Y-107594762D01*
X164561189Y-107499524D01*
X164561189Y-106642381D01*
X163608807Y-107642381D02*
X163608807Y-107118571D01*
X163656426Y-107023333D01*
X163751664Y-106975714D01*
X163942141Y-106975714D01*
X164037379Y-107023333D01*
X163608807Y-107594762D02*
X163704045Y-107642381D01*
X163942141Y-107642381D01*
X164037379Y-107594762D01*
X164084998Y-107499524D01*
X164084998Y-107404286D01*
X164037379Y-107309048D01*
X163942141Y-107261429D01*
X163704045Y-107261429D01*
X163608807Y-107213810D01*
X163227855Y-106975714D02*
X162989760Y-107642381D01*
X162751664Y-106975714D02*
X162989760Y-107642381D01*
X163084998Y-107880476D01*
X163132617Y-107928095D01*
X163227855Y-107975714D01*
X161989759Y-107594762D02*
X162084997Y-107642381D01*
X162275474Y-107642381D01*
X162370712Y-107594762D01*
X162418331Y-107499524D01*
X162418331Y-107118571D01*
X162370712Y-107023333D01*
X162275474Y-106975714D01*
X162084997Y-106975714D01*
X161989759Y-107023333D01*
X161942140Y-107118571D01*
X161942140Y-107213810D01*
X162418331Y-107309048D01*
X161513569Y-107642381D02*
X161513569Y-106975714D01*
X161513569Y-107166190D02*
X161465950Y-107070952D01*
X161418331Y-107023333D01*
X161323093Y-106975714D01*
X161227854Y-106975714D01*
X160942140Y-107594762D02*
X160846902Y-107642381D01*
X160656426Y-107642381D01*
X160561187Y-107594762D01*
X160513568Y-107499524D01*
X160513568Y-107451905D01*
X160561187Y-107356667D01*
X160656426Y-107309048D01*
X160799283Y-107309048D01*
X160894521Y-107261429D01*
X160942140Y-107166190D01*
X160942140Y-107118571D01*
X160894521Y-107023333D01*
X160799283Y-106975714D01*
X160656426Y-106975714D01*
X160561187Y-107023333D01*
X171894524Y-109244762D02*
X171799286Y-109292381D01*
X171608810Y-109292381D01*
X171513571Y-109244762D01*
X171465952Y-109149524D01*
X171465952Y-109101905D01*
X171513571Y-109006667D01*
X171608810Y-108959048D01*
X171751667Y-108959048D01*
X171846905Y-108911429D01*
X171894524Y-108816190D01*
X171894524Y-108768571D01*
X171846905Y-108673333D01*
X171751667Y-108625714D01*
X171608810Y-108625714D01*
X171513571Y-108673333D01*
X170656428Y-109244762D02*
X170751666Y-109292381D01*
X170942143Y-109292381D01*
X171037381Y-109244762D01*
X171085000Y-109149524D01*
X171085000Y-108768571D01*
X171037381Y-108673333D01*
X170942143Y-108625714D01*
X170751666Y-108625714D01*
X170656428Y-108673333D01*
X170608809Y-108768571D01*
X170608809Y-108863810D01*
X171085000Y-108959048D01*
X170180238Y-108625714D02*
X170180238Y-109625714D01*
X170180238Y-108673333D02*
X170085000Y-108625714D01*
X169894523Y-108625714D01*
X169799285Y-108673333D01*
X169751666Y-108720952D01*
X169704047Y-108816190D01*
X169704047Y-109101905D01*
X169751666Y-109197143D01*
X169799285Y-109244762D01*
X169894523Y-109292381D01*
X170085000Y-109292381D01*
X170180238Y-109244762D01*
X168846904Y-109292381D02*
X168846904Y-108768571D01*
X168894523Y-108673333D01*
X168989761Y-108625714D01*
X169180238Y-108625714D01*
X169275476Y-108673333D01*
X168846904Y-109244762D02*
X168942142Y-109292381D01*
X169180238Y-109292381D01*
X169275476Y-109244762D01*
X169323095Y-109149524D01*
X169323095Y-109054286D01*
X169275476Y-108959048D01*
X169180238Y-108911429D01*
X168942142Y-108911429D01*
X168846904Y-108863810D01*
X168370714Y-109292381D02*
X168370714Y-108625714D01*
X168370714Y-108816190D02*
X168323095Y-108720952D01*
X168275476Y-108673333D01*
X168180238Y-108625714D01*
X168084999Y-108625714D01*
X167323094Y-109292381D02*
X167323094Y-108768571D01*
X167370713Y-108673333D01*
X167465951Y-108625714D01*
X167656428Y-108625714D01*
X167751666Y-108673333D01*
X167323094Y-109244762D02*
X167418332Y-109292381D01*
X167656428Y-109292381D01*
X167751666Y-109244762D01*
X167799285Y-109149524D01*
X167799285Y-109054286D01*
X167751666Y-108959048D01*
X167656428Y-108911429D01*
X167418332Y-108911429D01*
X167323094Y-108863810D01*
X166989761Y-108625714D02*
X166608809Y-108625714D01*
X166846904Y-108292381D02*
X166846904Y-109149524D01*
X166799285Y-109244762D01*
X166704047Y-109292381D01*
X166608809Y-109292381D01*
X165894522Y-109244762D02*
X165989760Y-109292381D01*
X166180237Y-109292381D01*
X166275475Y-109244762D01*
X166323094Y-109149524D01*
X166323094Y-108768571D01*
X166275475Y-108673333D01*
X166180237Y-108625714D01*
X165989760Y-108625714D01*
X165894522Y-108673333D01*
X165846903Y-108768571D01*
X165846903Y-108863810D01*
X166323094Y-108959048D01*
X165275475Y-109292381D02*
X165370713Y-109244762D01*
X165418332Y-109149524D01*
X165418332Y-108292381D01*
X164989760Y-108625714D02*
X164751665Y-109292381D01*
X164513569Y-108625714D02*
X164751665Y-109292381D01*
X164846903Y-109530476D01*
X164894522Y-109578095D01*
X164989760Y-109625714D01*
X164084998Y-109244762D02*
X164084998Y-109292381D01*
X164132617Y-109387619D01*
X164180236Y-109435238D01*
X162894522Y-109292381D02*
X162894522Y-108625714D01*
X162894522Y-108720952D02*
X162846903Y-108673333D01*
X162751665Y-108625714D01*
X162608807Y-108625714D01*
X162513569Y-108673333D01*
X162465950Y-108768571D01*
X162465950Y-109292381D01*
X162465950Y-108768571D02*
X162418331Y-108673333D01*
X162323093Y-108625714D01*
X162180236Y-108625714D01*
X162084998Y-108673333D01*
X162037379Y-108768571D01*
X162037379Y-109292381D01*
X161418332Y-109292381D02*
X161513570Y-109244762D01*
X161561189Y-109197143D01*
X161608808Y-109101905D01*
X161608808Y-108816190D01*
X161561189Y-108720952D01*
X161513570Y-108673333D01*
X161418332Y-108625714D01*
X161275474Y-108625714D01*
X161180236Y-108673333D01*
X161132617Y-108720952D01*
X161084998Y-108816190D01*
X161084998Y-109101905D01*
X161132617Y-109197143D01*
X161180236Y-109244762D01*
X161275474Y-109292381D01*
X161418332Y-109292381D01*
X160227855Y-108625714D02*
X160227855Y-109292381D01*
X160656427Y-108625714D02*
X160656427Y-109149524D01*
X160608808Y-109244762D01*
X160513570Y-109292381D01*
X160370712Y-109292381D01*
X160275474Y-109244762D01*
X160227855Y-109197143D01*
X159751665Y-108625714D02*
X159751665Y-109292381D01*
X159751665Y-108720952D02*
X159704046Y-108673333D01*
X159608808Y-108625714D01*
X159465950Y-108625714D01*
X159370712Y-108673333D01*
X159323093Y-108768571D01*
X159323093Y-109292381D01*
X158989760Y-108625714D02*
X158608808Y-108625714D01*
X158846903Y-108292381D02*
X158846903Y-109149524D01*
X158799284Y-109244762D01*
X158704046Y-109292381D01*
X158608808Y-109292381D01*
X171465952Y-110894762D02*
X171561190Y-110942381D01*
X171751667Y-110942381D01*
X171846905Y-110894762D01*
X171894524Y-110799524D01*
X171894524Y-110418571D01*
X171846905Y-110323333D01*
X171751667Y-110275714D01*
X171561190Y-110275714D01*
X171465952Y-110323333D01*
X171418333Y-110418571D01*
X171418333Y-110513810D01*
X171894524Y-110609048D01*
X170561190Y-110942381D02*
X170561190Y-110418571D01*
X170608809Y-110323333D01*
X170704047Y-110275714D01*
X170894524Y-110275714D01*
X170989762Y-110323333D01*
X170561190Y-110894762D02*
X170656428Y-110942381D01*
X170894524Y-110942381D01*
X170989762Y-110894762D01*
X171037381Y-110799524D01*
X171037381Y-110704286D01*
X170989762Y-110609048D01*
X170894524Y-110561429D01*
X170656428Y-110561429D01*
X170561190Y-110513810D01*
X169656428Y-110894762D02*
X169751666Y-110942381D01*
X169942143Y-110942381D01*
X170037381Y-110894762D01*
X170085000Y-110847143D01*
X170132619Y-110751905D01*
X170132619Y-110466190D01*
X170085000Y-110370952D01*
X170037381Y-110323333D01*
X169942143Y-110275714D01*
X169751666Y-110275714D01*
X169656428Y-110323333D01*
X169227857Y-110942381D02*
X169227857Y-109942381D01*
X168799285Y-110942381D02*
X168799285Y-110418571D01*
X168846904Y-110323333D01*
X168942142Y-110275714D01*
X169085000Y-110275714D01*
X169180238Y-110323333D01*
X169227857Y-110370952D01*
X167418333Y-110942381D02*
X167513571Y-110894762D01*
X167561190Y-110847143D01*
X167608809Y-110751905D01*
X167608809Y-110466190D01*
X167561190Y-110370952D01*
X167513571Y-110323333D01*
X167418333Y-110275714D01*
X167275475Y-110275714D01*
X167180237Y-110323333D01*
X167132618Y-110370952D01*
X167084999Y-110466190D01*
X167084999Y-110751905D01*
X167132618Y-110847143D01*
X167180237Y-110894762D01*
X167275475Y-110942381D01*
X167418333Y-110942381D01*
X166656428Y-110275714D02*
X166656428Y-110942381D01*
X166656428Y-110370952D02*
X166608809Y-110323333D01*
X166513571Y-110275714D01*
X166370713Y-110275714D01*
X166275475Y-110323333D01*
X166227856Y-110418571D01*
X166227856Y-110942381D01*
X164989761Y-110942381D02*
X164989761Y-110275714D01*
X164989761Y-110466190D02*
X164942142Y-110370952D01*
X164894523Y-110323333D01*
X164799285Y-110275714D01*
X164704046Y-110275714D01*
X164227856Y-110942381D02*
X164323094Y-110894762D01*
X164370713Y-110847143D01*
X164418332Y-110751905D01*
X164418332Y-110466190D01*
X164370713Y-110370952D01*
X164323094Y-110323333D01*
X164227856Y-110275714D01*
X164084998Y-110275714D01*
X163989760Y-110323333D01*
X163942141Y-110370952D01*
X163894522Y-110466190D01*
X163894522Y-110751905D01*
X163942141Y-110847143D01*
X163989760Y-110894762D01*
X164084998Y-110942381D01*
X164227856Y-110942381D01*
X163037379Y-110942381D02*
X163037379Y-109942381D01*
X163037379Y-110894762D02*
X163132617Y-110942381D01*
X163323094Y-110942381D01*
X163418332Y-110894762D01*
X163465951Y-110847143D01*
X163513570Y-110751905D01*
X163513570Y-110466190D01*
X163465951Y-110370952D01*
X163418332Y-110323333D01*
X163323094Y-110275714D01*
X163132617Y-110275714D01*
X163037379Y-110323333D01*
X162608808Y-110894762D02*
X162513570Y-110942381D01*
X162323094Y-110942381D01*
X162227855Y-110894762D01*
X162180236Y-110799524D01*
X162180236Y-110751905D01*
X162227855Y-110656667D01*
X162323094Y-110609048D01*
X162465951Y-110609048D01*
X162561189Y-110561429D01*
X162608808Y-110466190D01*
X162608808Y-110418571D01*
X162561189Y-110323333D01*
X162465951Y-110275714D01*
X162323094Y-110275714D01*
X162227855Y-110323333D01*
X160561188Y-110942381D02*
X160561188Y-110418571D01*
X160608807Y-110323333D01*
X160704045Y-110275714D01*
X160894522Y-110275714D01*
X160989760Y-110323333D01*
X160561188Y-110894762D02*
X160656426Y-110942381D01*
X160894522Y-110942381D01*
X160989760Y-110894762D01*
X161037379Y-110799524D01*
X161037379Y-110704286D01*
X160989760Y-110609048D01*
X160894522Y-110561429D01*
X160656426Y-110561429D01*
X160561188Y-110513810D01*
X160084998Y-110275714D02*
X160084998Y-110942381D01*
X160084998Y-110370952D02*
X160037379Y-110323333D01*
X159942141Y-110275714D01*
X159799283Y-110275714D01*
X159704045Y-110323333D01*
X159656426Y-110418571D01*
X159656426Y-110942381D01*
X158751664Y-110942381D02*
X158751664Y-109942381D01*
X158751664Y-110894762D02*
X158846902Y-110942381D01*
X159037379Y-110942381D01*
X159132617Y-110894762D01*
X159180236Y-110847143D01*
X159227855Y-110751905D01*
X159227855Y-110466190D01*
X159180236Y-110370952D01*
X159132617Y-110323333D01*
X159037379Y-110275714D01*
X158846902Y-110275714D01*
X158751664Y-110323333D01*
X171894524Y-112544762D02*
X171799286Y-112592381D01*
X171608810Y-112592381D01*
X171513571Y-112544762D01*
X171465952Y-112449524D01*
X171465952Y-112401905D01*
X171513571Y-112306667D01*
X171608810Y-112259048D01*
X171751667Y-112259048D01*
X171846905Y-112211429D01*
X171894524Y-112116190D01*
X171894524Y-112068571D01*
X171846905Y-111973333D01*
X171751667Y-111925714D01*
X171608810Y-111925714D01*
X171513571Y-111973333D01*
X170894524Y-112592381D02*
X170989762Y-112544762D01*
X171037381Y-112497143D01*
X171085000Y-112401905D01*
X171085000Y-112116190D01*
X171037381Y-112020952D01*
X170989762Y-111973333D01*
X170894524Y-111925714D01*
X170751666Y-111925714D01*
X170656428Y-111973333D01*
X170608809Y-112020952D01*
X170561190Y-112116190D01*
X170561190Y-112401905D01*
X170608809Y-112497143D01*
X170656428Y-112544762D01*
X170751666Y-112592381D01*
X170894524Y-112592381D01*
X169989762Y-112592381D02*
X170085000Y-112544762D01*
X170132619Y-112449524D01*
X170132619Y-111592381D01*
X169180237Y-112592381D02*
X169180237Y-111592381D01*
X169180237Y-112544762D02*
X169275475Y-112592381D01*
X169465952Y-112592381D01*
X169561190Y-112544762D01*
X169608809Y-112497143D01*
X169656428Y-112401905D01*
X169656428Y-112116190D01*
X169608809Y-112020952D01*
X169561190Y-111973333D01*
X169465952Y-111925714D01*
X169275475Y-111925714D01*
X169180237Y-111973333D01*
X168323094Y-112544762D02*
X168418332Y-112592381D01*
X168608809Y-112592381D01*
X168704047Y-112544762D01*
X168751666Y-112449524D01*
X168751666Y-112068571D01*
X168704047Y-111973333D01*
X168608809Y-111925714D01*
X168418332Y-111925714D01*
X168323094Y-111973333D01*
X168275475Y-112068571D01*
X168275475Y-112163810D01*
X168751666Y-112259048D01*
X167846904Y-112592381D02*
X167846904Y-111925714D01*
X167846904Y-112116190D02*
X167799285Y-112020952D01*
X167751666Y-111973333D01*
X167656428Y-111925714D01*
X167561189Y-111925714D01*
X166037379Y-112592381D02*
X166037379Y-112068571D01*
X166084998Y-111973333D01*
X166180236Y-111925714D01*
X166370713Y-111925714D01*
X166465951Y-111973333D01*
X166037379Y-112544762D02*
X166132617Y-112592381D01*
X166370713Y-112592381D01*
X166465951Y-112544762D01*
X166513570Y-112449524D01*
X166513570Y-112354286D01*
X166465951Y-112259048D01*
X166370713Y-112211429D01*
X166132617Y-112211429D01*
X166037379Y-112163810D01*
X165704046Y-111925714D02*
X165323094Y-111925714D01*
X165561189Y-111592381D02*
X165561189Y-112449524D01*
X165513570Y-112544762D01*
X165418332Y-112592381D01*
X165323094Y-112592381D01*
X164275474Y-112544762D02*
X164180236Y-112592381D01*
X163989760Y-112592381D01*
X163894521Y-112544762D01*
X163846902Y-112449524D01*
X163846902Y-112401905D01*
X163894521Y-112306667D01*
X163989760Y-112259048D01*
X164132617Y-112259048D01*
X164227855Y-112211429D01*
X164275474Y-112116190D01*
X164275474Y-112068571D01*
X164227855Y-111973333D01*
X164132617Y-111925714D01*
X163989760Y-111925714D01*
X163894521Y-111973333D01*
X162989759Y-111925714D02*
X162989759Y-112592381D01*
X163418331Y-111925714D02*
X163418331Y-112449524D01*
X163370712Y-112544762D01*
X163275474Y-112592381D01*
X163132616Y-112592381D01*
X163037378Y-112544762D01*
X162989759Y-112497143D01*
X162513569Y-112592381D02*
X162513569Y-111925714D01*
X162513569Y-111592381D02*
X162561188Y-111640000D01*
X162513569Y-111687619D01*
X162465950Y-111640000D01*
X162513569Y-111592381D01*
X162513569Y-111687619D01*
X162180236Y-111925714D02*
X161799284Y-111925714D01*
X162037379Y-111592381D02*
X162037379Y-112449524D01*
X161989760Y-112544762D01*
X161894522Y-112592381D01*
X161799284Y-112592381D01*
X161037378Y-112592381D02*
X161037378Y-112068571D01*
X161084997Y-111973333D01*
X161180235Y-111925714D01*
X161370712Y-111925714D01*
X161465950Y-111973333D01*
X161037378Y-112544762D02*
X161132616Y-112592381D01*
X161370712Y-112592381D01*
X161465950Y-112544762D01*
X161513569Y-112449524D01*
X161513569Y-112354286D01*
X161465950Y-112259048D01*
X161370712Y-112211429D01*
X161132616Y-112211429D01*
X161037378Y-112163810D01*
X160561188Y-112592381D02*
X160561188Y-111592381D01*
X160561188Y-111973333D02*
X160465950Y-111925714D01*
X160275473Y-111925714D01*
X160180235Y-111973333D01*
X160132616Y-112020952D01*
X160084997Y-112116190D01*
X160084997Y-112401905D01*
X160132616Y-112497143D01*
X160180235Y-112544762D01*
X160275473Y-112592381D01*
X160465950Y-112592381D01*
X160561188Y-112544762D01*
X159513569Y-112592381D02*
X159608807Y-112544762D01*
X159656426Y-112449524D01*
X159656426Y-111592381D01*
X158751663Y-112544762D02*
X158846901Y-112592381D01*
X159037378Y-112592381D01*
X159132616Y-112544762D01*
X159180235Y-112449524D01*
X159180235Y-112068571D01*
X159132616Y-111973333D01*
X159037378Y-111925714D01*
X158846901Y-111925714D01*
X158751663Y-111973333D01*
X158704044Y-112068571D01*
X158704044Y-112163810D01*
X159180235Y-112259048D01*
X171846905Y-114242381D02*
X171846905Y-113242381D01*
X171418333Y-114242381D02*
X171418333Y-113718571D01*
X171465952Y-113623333D01*
X171561190Y-113575714D01*
X171704048Y-113575714D01*
X171799286Y-113623333D01*
X171846905Y-113670952D01*
X170561190Y-114194762D02*
X170656428Y-114242381D01*
X170846905Y-114242381D01*
X170942143Y-114194762D01*
X170989762Y-114099524D01*
X170989762Y-113718571D01*
X170942143Y-113623333D01*
X170846905Y-113575714D01*
X170656428Y-113575714D01*
X170561190Y-113623333D01*
X170513571Y-113718571D01*
X170513571Y-113813810D01*
X170989762Y-113909048D01*
X170085000Y-114242381D02*
X170085000Y-113575714D01*
X170085000Y-113242381D02*
X170132619Y-113290000D01*
X170085000Y-113337619D01*
X170037381Y-113290000D01*
X170085000Y-113242381D01*
X170085000Y-113337619D01*
X169180238Y-113575714D02*
X169180238Y-114385238D01*
X169227857Y-114480476D01*
X169275476Y-114528095D01*
X169370715Y-114575714D01*
X169513572Y-114575714D01*
X169608810Y-114528095D01*
X169180238Y-114194762D02*
X169275476Y-114242381D01*
X169465953Y-114242381D01*
X169561191Y-114194762D01*
X169608810Y-114147143D01*
X169656429Y-114051905D01*
X169656429Y-113766190D01*
X169608810Y-113670952D01*
X169561191Y-113623333D01*
X169465953Y-113575714D01*
X169275476Y-113575714D01*
X169180238Y-113623333D01*
X168704048Y-114242381D02*
X168704048Y-113242381D01*
X168275476Y-114242381D02*
X168275476Y-113718571D01*
X168323095Y-113623333D01*
X168418333Y-113575714D01*
X168561191Y-113575714D01*
X168656429Y-113623333D01*
X168704048Y-113670952D01*
X167942143Y-113575714D02*
X167561191Y-113575714D01*
X167799286Y-113242381D02*
X167799286Y-114099524D01*
X167751667Y-114194762D01*
X167656429Y-114242381D01*
X167561191Y-114242381D01*
X167275476Y-114194762D02*
X167180238Y-114242381D01*
X166989762Y-114242381D01*
X166894523Y-114194762D01*
X166846904Y-114099524D01*
X166846904Y-114051905D01*
X166894523Y-113956667D01*
X166989762Y-113909048D01*
X167132619Y-113909048D01*
X167227857Y-113861429D01*
X167275476Y-113766190D01*
X167275476Y-113718571D01*
X167227857Y-113623333D01*
X167132619Y-113575714D01*
X166989762Y-113575714D01*
X166894523Y-113623333D01*
X166418333Y-114147143D02*
X166370714Y-114194762D01*
X166418333Y-114242381D01*
X166465952Y-114194762D01*
X166418333Y-114147143D01*
X166418333Y-114242381D01*
X187134524Y-107356667D02*
X186658333Y-107356667D01*
X187229762Y-107642381D02*
X186896429Y-106642381D01*
X186563095Y-107642381D01*
X186277381Y-107594762D02*
X186182143Y-107642381D01*
X185991667Y-107642381D01*
X185896428Y-107594762D01*
X185848809Y-107499524D01*
X185848809Y-107451905D01*
X185896428Y-107356667D01*
X185991667Y-107309048D01*
X186134524Y-107309048D01*
X186229762Y-107261429D01*
X186277381Y-107166190D01*
X186277381Y-107118571D01*
X186229762Y-107023333D01*
X186134524Y-106975714D01*
X185991667Y-106975714D01*
X185896428Y-107023333D01*
X185467857Y-107594762D02*
X185372619Y-107642381D01*
X185182143Y-107642381D01*
X185086904Y-107594762D01*
X185039285Y-107499524D01*
X185039285Y-107451905D01*
X185086904Y-107356667D01*
X185182143Y-107309048D01*
X185325000Y-107309048D01*
X185420238Y-107261429D01*
X185467857Y-107166190D01*
X185467857Y-107118571D01*
X185420238Y-107023333D01*
X185325000Y-106975714D01*
X185182143Y-106975714D01*
X185086904Y-107023333D01*
X184229761Y-107594762D02*
X184324999Y-107642381D01*
X184515476Y-107642381D01*
X184610714Y-107594762D01*
X184658333Y-107499524D01*
X184658333Y-107118571D01*
X184610714Y-107023333D01*
X184515476Y-106975714D01*
X184324999Y-106975714D01*
X184229761Y-107023333D01*
X184182142Y-107118571D01*
X184182142Y-107213810D01*
X184658333Y-107309048D01*
X183753571Y-107642381D02*
X183753571Y-106975714D01*
X183753571Y-107070952D02*
X183705952Y-107023333D01*
X183610714Y-106975714D01*
X183467856Y-106975714D01*
X183372618Y-107023333D01*
X183324999Y-107118571D01*
X183324999Y-107642381D01*
X183324999Y-107118571D02*
X183277380Y-107023333D01*
X183182142Y-106975714D01*
X183039285Y-106975714D01*
X182944047Y-107023333D01*
X182896428Y-107118571D01*
X182896428Y-107642381D01*
X182420238Y-107642381D02*
X182420238Y-106642381D01*
X182420238Y-107023333D02*
X182325000Y-106975714D01*
X182134523Y-106975714D01*
X182039285Y-107023333D01*
X181991666Y-107070952D01*
X181944047Y-107166190D01*
X181944047Y-107451905D01*
X181991666Y-107547143D01*
X182039285Y-107594762D01*
X182134523Y-107642381D01*
X182325000Y-107642381D01*
X182420238Y-107594762D01*
X181372619Y-107642381D02*
X181467857Y-107594762D01*
X181515476Y-107499524D01*
X181515476Y-106642381D01*
X180610713Y-107594762D02*
X180705951Y-107642381D01*
X180896428Y-107642381D01*
X180991666Y-107594762D01*
X181039285Y-107499524D01*
X181039285Y-107118571D01*
X180991666Y-107023333D01*
X180896428Y-106975714D01*
X180705951Y-106975714D01*
X180610713Y-107023333D01*
X180563094Y-107118571D01*
X180563094Y-107213810D01*
X181039285Y-107309048D01*
X179229761Y-107642381D02*
X179324999Y-107594762D01*
X179372618Y-107499524D01*
X179372618Y-106642381D01*
X178420236Y-107642381D02*
X178420236Y-107118571D01*
X178467855Y-107023333D01*
X178563093Y-106975714D01*
X178753570Y-106975714D01*
X178848808Y-107023333D01*
X178420236Y-107594762D02*
X178515474Y-107642381D01*
X178753570Y-107642381D01*
X178848808Y-107594762D01*
X178896427Y-107499524D01*
X178896427Y-107404286D01*
X178848808Y-107309048D01*
X178753570Y-107261429D01*
X178515474Y-107261429D01*
X178420236Y-107213810D01*
X178086903Y-106975714D02*
X177705951Y-106975714D01*
X177944046Y-106642381D02*
X177944046Y-107499524D01*
X177896427Y-107594762D01*
X177801189Y-107642381D01*
X177705951Y-107642381D01*
X177515474Y-106975714D02*
X177134522Y-106975714D01*
X177372617Y-106642381D02*
X177372617Y-107499524D01*
X177324998Y-107594762D01*
X177229760Y-107642381D01*
X177134522Y-107642381D01*
X176801188Y-107642381D02*
X176801188Y-106975714D01*
X176801188Y-106642381D02*
X176848807Y-106690000D01*
X176801188Y-106737619D01*
X176753569Y-106690000D01*
X176801188Y-106642381D01*
X176801188Y-106737619D01*
X175896426Y-107594762D02*
X175991664Y-107642381D01*
X176182141Y-107642381D01*
X176277379Y-107594762D01*
X176324998Y-107547143D01*
X176372617Y-107451905D01*
X176372617Y-107166190D01*
X176324998Y-107070952D01*
X176277379Y-107023333D01*
X176182141Y-106975714D01*
X175991664Y-106975714D01*
X175896426Y-107023333D01*
X175086902Y-107594762D02*
X175182140Y-107642381D01*
X175372617Y-107642381D01*
X175467855Y-107594762D01*
X175515474Y-107499524D01*
X175515474Y-107118571D01*
X175467855Y-107023333D01*
X175372617Y-106975714D01*
X175182140Y-106975714D01*
X175086902Y-107023333D01*
X175039283Y-107118571D01*
X175039283Y-107213810D01*
X175515474Y-107309048D01*
X186944048Y-109292381D02*
X187039286Y-109244762D01*
X187086905Y-109197143D01*
X187134524Y-109101905D01*
X187134524Y-108816190D01*
X187086905Y-108720952D01*
X187039286Y-108673333D01*
X186944048Y-108625714D01*
X186801190Y-108625714D01*
X186705952Y-108673333D01*
X186658333Y-108720952D01*
X186610714Y-108816190D01*
X186610714Y-109101905D01*
X186658333Y-109197143D01*
X186705952Y-109244762D01*
X186801190Y-109292381D01*
X186944048Y-109292381D01*
X186182143Y-108625714D02*
X186182143Y-109292381D01*
X186182143Y-108720952D02*
X186134524Y-108673333D01*
X186039286Y-108625714D01*
X185896428Y-108625714D01*
X185801190Y-108673333D01*
X185753571Y-108768571D01*
X185753571Y-109292381D01*
X184658333Y-108625714D02*
X184277381Y-108625714D01*
X184515476Y-108292381D02*
X184515476Y-109149524D01*
X184467857Y-109244762D01*
X184372619Y-109292381D01*
X184277381Y-109292381D01*
X183944047Y-109292381D02*
X183944047Y-108292381D01*
X183515475Y-109292381D02*
X183515475Y-108768571D01*
X183563094Y-108673333D01*
X183658332Y-108625714D01*
X183801190Y-108625714D01*
X183896428Y-108673333D01*
X183944047Y-108720952D01*
X183039285Y-109292381D02*
X183039285Y-108625714D01*
X183039285Y-108292381D02*
X183086904Y-108340000D01*
X183039285Y-108387619D01*
X182991666Y-108340000D01*
X183039285Y-108292381D01*
X183039285Y-108387619D01*
X182610714Y-109244762D02*
X182515476Y-109292381D01*
X182325000Y-109292381D01*
X182229761Y-109244762D01*
X182182142Y-109149524D01*
X182182142Y-109101905D01*
X182229761Y-109006667D01*
X182325000Y-108959048D01*
X182467857Y-108959048D01*
X182563095Y-108911429D01*
X182610714Y-108816190D01*
X182610714Y-108768571D01*
X182563095Y-108673333D01*
X182467857Y-108625714D01*
X182325000Y-108625714D01*
X182229761Y-108673333D01*
X181039285Y-109244762D02*
X180944047Y-109292381D01*
X180753571Y-109292381D01*
X180658332Y-109244762D01*
X180610713Y-109149524D01*
X180610713Y-109101905D01*
X180658332Y-109006667D01*
X180753571Y-108959048D01*
X180896428Y-108959048D01*
X180991666Y-108911429D01*
X181039285Y-108816190D01*
X181039285Y-108768571D01*
X180991666Y-108673333D01*
X180896428Y-108625714D01*
X180753571Y-108625714D01*
X180658332Y-108673333D01*
X180182142Y-109292381D02*
X180182142Y-108625714D01*
X180182142Y-108292381D02*
X180229761Y-108340000D01*
X180182142Y-108387619D01*
X180134523Y-108340000D01*
X180182142Y-108292381D01*
X180182142Y-108387619D01*
X179277380Y-109292381D02*
X179277380Y-108292381D01*
X179277380Y-109244762D02*
X179372618Y-109292381D01*
X179563095Y-109292381D01*
X179658333Y-109244762D01*
X179705952Y-109197143D01*
X179753571Y-109101905D01*
X179753571Y-108816190D01*
X179705952Y-108720952D01*
X179658333Y-108673333D01*
X179563095Y-108625714D01*
X179372618Y-108625714D01*
X179277380Y-108673333D01*
X178420237Y-109244762D02*
X178515475Y-109292381D01*
X178705952Y-109292381D01*
X178801190Y-109244762D01*
X178848809Y-109149524D01*
X178848809Y-108768571D01*
X178801190Y-108673333D01*
X178705952Y-108625714D01*
X178515475Y-108625714D01*
X178420237Y-108673333D01*
X178372618Y-108768571D01*
X178372618Y-108863810D01*
X178848809Y-108959048D01*
X177896428Y-109244762D02*
X177896428Y-109292381D01*
X177944047Y-109387619D01*
X177991666Y-109435238D01*
X176801190Y-108625714D02*
X176610714Y-109292381D01*
X176420237Y-108816190D01*
X176229761Y-109292381D01*
X176039285Y-108625714D01*
X175658333Y-109292381D02*
X175658333Y-108625714D01*
X175658333Y-108816190D02*
X175610714Y-108720952D01*
X175563095Y-108673333D01*
X175467857Y-108625714D01*
X175372618Y-108625714D01*
X174610713Y-109292381D02*
X174610713Y-108768571D01*
X174658332Y-108673333D01*
X174753570Y-108625714D01*
X174944047Y-108625714D01*
X175039285Y-108673333D01*
X174610713Y-109244762D02*
X174705951Y-109292381D01*
X174944047Y-109292381D01*
X175039285Y-109244762D01*
X175086904Y-109149524D01*
X175086904Y-109054286D01*
X175039285Y-108959048D01*
X174944047Y-108911429D01*
X174705951Y-108911429D01*
X174610713Y-108863810D01*
X174134523Y-108625714D02*
X174134523Y-109625714D01*
X174134523Y-108673333D02*
X174039285Y-108625714D01*
X173848808Y-108625714D01*
X173753570Y-108673333D01*
X173705951Y-108720952D01*
X173658332Y-108816190D01*
X173658332Y-109101905D01*
X173705951Y-109197143D01*
X173753570Y-109244762D01*
X173848808Y-109292381D01*
X174039285Y-109292381D01*
X174134523Y-109244762D01*
X186658333Y-110942381D02*
X186658333Y-110418571D01*
X186705952Y-110323333D01*
X186801190Y-110275714D01*
X186991667Y-110275714D01*
X187086905Y-110323333D01*
X186658333Y-110894762D02*
X186753571Y-110942381D01*
X186991667Y-110942381D01*
X187086905Y-110894762D01*
X187134524Y-110799524D01*
X187134524Y-110704286D01*
X187086905Y-110609048D01*
X186991667Y-110561429D01*
X186753571Y-110561429D01*
X186658333Y-110513810D01*
X186182143Y-110275714D02*
X186182143Y-110942381D01*
X186182143Y-110370952D02*
X186134524Y-110323333D01*
X186039286Y-110275714D01*
X185896428Y-110275714D01*
X185801190Y-110323333D01*
X185753571Y-110418571D01*
X185753571Y-110942381D01*
X185134524Y-110942381D02*
X185229762Y-110894762D01*
X185277381Y-110847143D01*
X185325000Y-110751905D01*
X185325000Y-110466190D01*
X185277381Y-110370952D01*
X185229762Y-110323333D01*
X185134524Y-110275714D01*
X184991666Y-110275714D01*
X184896428Y-110323333D01*
X184848809Y-110370952D01*
X184801190Y-110466190D01*
X184801190Y-110751905D01*
X184848809Y-110847143D01*
X184896428Y-110894762D01*
X184991666Y-110942381D01*
X185134524Y-110942381D01*
X183944047Y-110942381D02*
X183944047Y-109942381D01*
X183944047Y-110894762D02*
X184039285Y-110942381D01*
X184229762Y-110942381D01*
X184325000Y-110894762D01*
X184372619Y-110847143D01*
X184420238Y-110751905D01*
X184420238Y-110466190D01*
X184372619Y-110370952D01*
X184325000Y-110323333D01*
X184229762Y-110275714D01*
X184039285Y-110275714D01*
X183944047Y-110323333D01*
X183086904Y-110894762D02*
X183182142Y-110942381D01*
X183372619Y-110942381D01*
X183467857Y-110894762D01*
X183515476Y-110799524D01*
X183515476Y-110418571D01*
X183467857Y-110323333D01*
X183372619Y-110275714D01*
X183182142Y-110275714D01*
X183086904Y-110323333D01*
X183039285Y-110418571D01*
X183039285Y-110513810D01*
X183515476Y-110609048D01*
X181563094Y-111323333D02*
X181610714Y-111275714D01*
X181705952Y-111132857D01*
X181753571Y-111037619D01*
X181801190Y-110894762D01*
X181848809Y-110656667D01*
X181848809Y-110466190D01*
X181801190Y-110228095D01*
X181753571Y-110085238D01*
X181705952Y-109990000D01*
X181610714Y-109847143D01*
X181563094Y-109799524D01*
X181182142Y-110561429D02*
X180420237Y-110561429D01*
X180801189Y-110942381D02*
X180801189Y-110180476D01*
X180039285Y-111323333D02*
X179991666Y-111275714D01*
X179896428Y-111132857D01*
X179848809Y-111037619D01*
X179801190Y-110894762D01*
X179753571Y-110656667D01*
X179753571Y-110466190D01*
X179801190Y-110228095D01*
X179848809Y-110085238D01*
X179896428Y-109990000D01*
X179991666Y-109847143D01*
X180039285Y-109799524D01*
X178086903Y-110942381D02*
X178086903Y-110418571D01*
X178134522Y-110323333D01*
X178229760Y-110275714D01*
X178420237Y-110275714D01*
X178515475Y-110323333D01*
X178086903Y-110894762D02*
X178182141Y-110942381D01*
X178420237Y-110942381D01*
X178515475Y-110894762D01*
X178563094Y-110799524D01*
X178563094Y-110704286D01*
X178515475Y-110609048D01*
X178420237Y-110561429D01*
X178182141Y-110561429D01*
X178086903Y-110513810D01*
X177610713Y-110942381D02*
X177610713Y-110275714D01*
X177610713Y-110466190D02*
X177563094Y-110370952D01*
X177515475Y-110323333D01*
X177420237Y-110275714D01*
X177324998Y-110275714D01*
X176848808Y-110942381D02*
X176944046Y-110894762D01*
X176991665Y-110847143D01*
X177039284Y-110751905D01*
X177039284Y-110466190D01*
X176991665Y-110370952D01*
X176944046Y-110323333D01*
X176848808Y-110275714D01*
X176705950Y-110275714D01*
X176610712Y-110323333D01*
X176563093Y-110370952D01*
X176515474Y-110466190D01*
X176515474Y-110751905D01*
X176563093Y-110847143D01*
X176610712Y-110894762D01*
X176705950Y-110942381D01*
X176848808Y-110942381D01*
X175658331Y-110275714D02*
X175658331Y-110942381D01*
X176086903Y-110275714D02*
X176086903Y-110799524D01*
X176039284Y-110894762D01*
X175944046Y-110942381D01*
X175801188Y-110942381D01*
X175705950Y-110894762D01*
X175658331Y-110847143D01*
X175182141Y-110275714D02*
X175182141Y-110942381D01*
X175182141Y-110370952D02*
X175134522Y-110323333D01*
X175039284Y-110275714D01*
X174896426Y-110275714D01*
X174801188Y-110323333D01*
X174753569Y-110418571D01*
X174753569Y-110942381D01*
X173848807Y-110942381D02*
X173848807Y-109942381D01*
X173848807Y-110894762D02*
X173944045Y-110942381D01*
X174134522Y-110942381D01*
X174229760Y-110894762D01*
X174277379Y-110847143D01*
X174324998Y-110751905D01*
X174324998Y-110466190D01*
X174277379Y-110370952D01*
X174229760Y-110323333D01*
X174134522Y-110275714D01*
X173944045Y-110275714D01*
X173848807Y-110323333D01*
X187086905Y-112592381D02*
X187086905Y-111925714D01*
X187086905Y-112020952D02*
X187039286Y-111973333D01*
X186944048Y-111925714D01*
X186801190Y-111925714D01*
X186705952Y-111973333D01*
X186658333Y-112068571D01*
X186658333Y-112592381D01*
X186658333Y-112068571D02*
X186610714Y-111973333D01*
X186515476Y-111925714D01*
X186372619Y-111925714D01*
X186277381Y-111973333D01*
X186229762Y-112068571D01*
X186229762Y-112592381D01*
X185372619Y-112544762D02*
X185467857Y-112592381D01*
X185658334Y-112592381D01*
X185753572Y-112544762D01*
X185801191Y-112449524D01*
X185801191Y-112068571D01*
X185753572Y-111973333D01*
X185658334Y-111925714D01*
X185467857Y-111925714D01*
X185372619Y-111973333D01*
X185325000Y-112068571D01*
X185325000Y-112163810D01*
X185801191Y-112259048D01*
X185039286Y-111925714D02*
X184658334Y-111925714D01*
X184896429Y-111592381D02*
X184896429Y-112449524D01*
X184848810Y-112544762D01*
X184753572Y-112592381D01*
X184658334Y-112592381D01*
X183896428Y-112592381D02*
X183896428Y-112068571D01*
X183944047Y-111973333D01*
X184039285Y-111925714D01*
X184229762Y-111925714D01*
X184325000Y-111973333D01*
X183896428Y-112544762D02*
X183991666Y-112592381D01*
X184229762Y-112592381D01*
X184325000Y-112544762D01*
X184372619Y-112449524D01*
X184372619Y-112354286D01*
X184325000Y-112259048D01*
X184229762Y-112211429D01*
X183991666Y-112211429D01*
X183896428Y-112163810D01*
X183277381Y-112592381D02*
X183372619Y-112544762D01*
X183420238Y-112449524D01*
X183420238Y-111592381D01*
X182134523Y-112592381D02*
X182134523Y-111925714D01*
X182134523Y-112116190D02*
X182086904Y-112020952D01*
X182039285Y-111973333D01*
X181944047Y-111925714D01*
X181848808Y-111925714D01*
X181372618Y-112592381D02*
X181467856Y-112544762D01*
X181515475Y-112497143D01*
X181563094Y-112401905D01*
X181563094Y-112116190D01*
X181515475Y-112020952D01*
X181467856Y-111973333D01*
X181372618Y-111925714D01*
X181229760Y-111925714D01*
X181134522Y-111973333D01*
X181086903Y-112020952D01*
X181039284Y-112116190D01*
X181039284Y-112401905D01*
X181086903Y-112497143D01*
X181134522Y-112544762D01*
X181229760Y-112592381D01*
X181372618Y-112592381D01*
X180182141Y-112592381D02*
X180182141Y-111592381D01*
X180182141Y-112544762D02*
X180277379Y-112592381D01*
X180467856Y-112592381D01*
X180563094Y-112544762D01*
X180610713Y-112497143D01*
X180658332Y-112401905D01*
X180658332Y-112116190D01*
X180610713Y-112020952D01*
X180563094Y-111973333D01*
X180467856Y-111925714D01*
X180277379Y-111925714D01*
X180182141Y-111973333D01*
X179705951Y-112497143D02*
X179658332Y-112544762D01*
X179705951Y-112592381D01*
X179753570Y-112544762D01*
X179705951Y-112497143D01*
X179705951Y-112592381D01*
X178515475Y-112544762D02*
X178372618Y-112592381D01*
X178134522Y-112592381D01*
X178039284Y-112544762D01*
X177991665Y-112497143D01*
X177944046Y-112401905D01*
X177944046Y-112306667D01*
X177991665Y-112211429D01*
X178039284Y-112163810D01*
X178134522Y-112116190D01*
X178324999Y-112068571D01*
X178420237Y-112020952D01*
X178467856Y-111973333D01*
X178515475Y-111878095D01*
X178515475Y-111782857D01*
X178467856Y-111687619D01*
X178420237Y-111640000D01*
X178324999Y-111592381D01*
X178086903Y-111592381D01*
X177944046Y-111640000D01*
X177372618Y-112592381D02*
X177467856Y-112544762D01*
X177515475Y-112497143D01*
X177563094Y-112401905D01*
X177563094Y-112116190D01*
X177515475Y-112020952D01*
X177467856Y-111973333D01*
X177372618Y-111925714D01*
X177229760Y-111925714D01*
X177134522Y-111973333D01*
X177086903Y-112020952D01*
X177039284Y-112116190D01*
X177039284Y-112401905D01*
X177086903Y-112497143D01*
X177134522Y-112544762D01*
X177229760Y-112592381D01*
X177372618Y-112592381D01*
X176467856Y-112592381D02*
X176563094Y-112544762D01*
X176610713Y-112449524D01*
X176610713Y-111592381D01*
X175658331Y-112592381D02*
X175658331Y-111592381D01*
X175658331Y-112544762D02*
X175753569Y-112592381D01*
X175944046Y-112592381D01*
X176039284Y-112544762D01*
X176086903Y-112497143D01*
X176134522Y-112401905D01*
X176134522Y-112116190D01*
X176086903Y-112020952D01*
X176039284Y-111973333D01*
X175944046Y-111925714D01*
X175753569Y-111925714D01*
X175658331Y-111973333D01*
X174801188Y-112544762D02*
X174896426Y-112592381D01*
X175086903Y-112592381D01*
X175182141Y-112544762D01*
X175229760Y-112449524D01*
X175229760Y-112068571D01*
X175182141Y-111973333D01*
X175086903Y-111925714D01*
X174896426Y-111925714D01*
X174801188Y-111973333D01*
X174753569Y-112068571D01*
X174753569Y-112163810D01*
X175229760Y-112259048D01*
X174324998Y-112592381D02*
X174324998Y-111925714D01*
X174324998Y-112116190D02*
X174277379Y-112020952D01*
X174229760Y-111973333D01*
X174134522Y-111925714D01*
X174039283Y-111925714D01*
X186658333Y-114194762D02*
X186753571Y-114242381D01*
X186944048Y-114242381D01*
X187039286Y-114194762D01*
X187086905Y-114147143D01*
X187134524Y-114051905D01*
X187134524Y-113766190D01*
X187086905Y-113670952D01*
X187039286Y-113623333D01*
X186944048Y-113575714D01*
X186753571Y-113575714D01*
X186658333Y-113623333D01*
X185801190Y-114242381D02*
X185801190Y-113718571D01*
X185848809Y-113623333D01*
X185944047Y-113575714D01*
X186134524Y-113575714D01*
X186229762Y-113623333D01*
X185801190Y-114194762D02*
X185896428Y-114242381D01*
X186134524Y-114242381D01*
X186229762Y-114194762D01*
X186277381Y-114099524D01*
X186277381Y-114004286D01*
X186229762Y-113909048D01*
X186134524Y-113861429D01*
X185896428Y-113861429D01*
X185801190Y-113813810D01*
X185467857Y-113575714D02*
X185086905Y-113575714D01*
X185325000Y-113242381D02*
X185325000Y-114099524D01*
X185277381Y-114194762D01*
X185182143Y-114242381D01*
X185086905Y-114242381D01*
X184753571Y-114242381D02*
X184753571Y-113242381D01*
X184324999Y-114242381D02*
X184324999Y-113718571D01*
X184372618Y-113623333D01*
X184467856Y-113575714D01*
X184610714Y-113575714D01*
X184705952Y-113623333D01*
X184753571Y-113670952D01*
X183705952Y-114242381D02*
X183801190Y-114194762D01*
X183848809Y-114147143D01*
X183896428Y-114051905D01*
X183896428Y-113766190D01*
X183848809Y-113670952D01*
X183801190Y-113623333D01*
X183705952Y-113575714D01*
X183563094Y-113575714D01*
X183467856Y-113623333D01*
X183420237Y-113670952D01*
X183372618Y-113766190D01*
X183372618Y-114051905D01*
X183420237Y-114147143D01*
X183467856Y-114194762D01*
X183563094Y-114242381D01*
X183705952Y-114242381D01*
X182515475Y-114242381D02*
X182515475Y-113242381D01*
X182515475Y-114194762D02*
X182610713Y-114242381D01*
X182801190Y-114242381D01*
X182896428Y-114194762D01*
X182944047Y-114147143D01*
X182991666Y-114051905D01*
X182991666Y-113766190D01*
X182944047Y-113670952D01*
X182896428Y-113623333D01*
X182801190Y-113575714D01*
X182610713Y-113575714D01*
X182515475Y-113623333D01*
X181658332Y-114194762D02*
X181753570Y-114242381D01*
X181944047Y-114242381D01*
X182039285Y-114194762D01*
X182086904Y-114099524D01*
X182086904Y-113718571D01*
X182039285Y-113623333D01*
X181944047Y-113575714D01*
X181753570Y-113575714D01*
X181658332Y-113623333D01*
X181610713Y-113718571D01*
X181610713Y-113813810D01*
X182086904Y-113909048D01*
X181229761Y-114194762D02*
X181134523Y-114242381D01*
X180944047Y-114242381D01*
X180848808Y-114194762D01*
X180801189Y-114099524D01*
X180801189Y-114051905D01*
X180848808Y-113956667D01*
X180944047Y-113909048D01*
X181086904Y-113909048D01*
X181182142Y-113861429D01*
X181229761Y-113766190D01*
X181229761Y-113718571D01*
X181182142Y-113623333D01*
X181086904Y-113575714D01*
X180944047Y-113575714D01*
X180848808Y-113623333D01*
X179753570Y-113575714D02*
X179372618Y-113575714D01*
X179610713Y-113242381D02*
X179610713Y-114099524D01*
X179563094Y-114194762D01*
X179467856Y-114242381D01*
X179372618Y-114242381D01*
X178896427Y-114242381D02*
X178991665Y-114194762D01*
X179039284Y-114147143D01*
X179086903Y-114051905D01*
X179086903Y-113766190D01*
X179039284Y-113670952D01*
X178991665Y-113623333D01*
X178896427Y-113575714D01*
X178753569Y-113575714D01*
X178658331Y-113623333D01*
X178610712Y-113670952D01*
X178563093Y-113766190D01*
X178563093Y-114051905D01*
X178610712Y-114147143D01*
X178658331Y-114194762D01*
X178753569Y-114242381D01*
X178896427Y-114242381D01*
X177705950Y-113575714D02*
X177705950Y-114385238D01*
X177753569Y-114480476D01*
X177801188Y-114528095D01*
X177896427Y-114575714D01*
X178039284Y-114575714D01*
X178134522Y-114528095D01*
X177705950Y-114194762D02*
X177801188Y-114242381D01*
X177991665Y-114242381D01*
X178086903Y-114194762D01*
X178134522Y-114147143D01*
X178182141Y-114051905D01*
X178182141Y-113766190D01*
X178134522Y-113670952D01*
X178086903Y-113623333D01*
X177991665Y-113575714D01*
X177801188Y-113575714D01*
X177705950Y-113623333D01*
X176848807Y-114194762D02*
X176944045Y-114242381D01*
X177134522Y-114242381D01*
X177229760Y-114194762D01*
X177277379Y-114099524D01*
X177277379Y-113718571D01*
X177229760Y-113623333D01*
X177134522Y-113575714D01*
X176944045Y-113575714D01*
X176848807Y-113623333D01*
X176801188Y-113718571D01*
X176801188Y-113813810D01*
X177277379Y-113909048D01*
X176515474Y-113575714D02*
X176134522Y-113575714D01*
X176372617Y-113242381D02*
X176372617Y-114099524D01*
X176324998Y-114194762D01*
X176229760Y-114242381D01*
X176134522Y-114242381D01*
X175801188Y-114242381D02*
X175801188Y-113242381D01*
X175372616Y-114242381D02*
X175372616Y-113718571D01*
X175420235Y-113623333D01*
X175515473Y-113575714D01*
X175658331Y-113575714D01*
X175753569Y-113623333D01*
X175801188Y-113670952D01*
X174515473Y-114194762D02*
X174610711Y-114242381D01*
X174801188Y-114242381D01*
X174896426Y-114194762D01*
X174944045Y-114099524D01*
X174944045Y-113718571D01*
X174896426Y-113623333D01*
X174801188Y-113575714D01*
X174610711Y-113575714D01*
X174515473Y-113623333D01*
X174467854Y-113718571D01*
X174467854Y-113813810D01*
X174944045Y-113909048D01*
X174039283Y-114242381D02*
X174039283Y-113575714D01*
X174039283Y-113766190D02*
X173991664Y-113670952D01*
X173944045Y-113623333D01*
X173848807Y-113575714D01*
X173753568Y-113575714D01*
X173420235Y-114147143D02*
X173372616Y-114194762D01*
X173420235Y-114242381D01*
X173467854Y-114194762D01*
X173420235Y-114147143D01*
X173420235Y-114242381D01*
D10*
X119894001Y-118573571D02*
X119894001Y-119106905D01*
X120084477Y-118268810D02*
X120274953Y-118840238D01*
X119779715Y-118840238D01*
X119551143Y-119106905D02*
X119132096Y-118573571D01*
X119551143Y-118573571D02*
X119132096Y-119106905D01*
X118255905Y-118383095D02*
X118217810Y-118345000D01*
X118141619Y-118306905D01*
X117951143Y-118306905D01*
X117874953Y-118345000D01*
X117836857Y-118383095D01*
X117798762Y-118459286D01*
X117798762Y-118535476D01*
X117836857Y-118649762D01*
X118294000Y-119106905D01*
X117798762Y-119106905D01*
X117455905Y-119106905D02*
X117455905Y-118306905D01*
X116998762Y-119106905D01*
X116998762Y-118306905D01*
X116655905Y-118383095D02*
X116617810Y-118345000D01*
X116541619Y-118306905D01*
X116351143Y-118306905D01*
X116274953Y-118345000D01*
X116236857Y-118383095D01*
X116198762Y-118459286D01*
X116198762Y-118535476D01*
X116236857Y-118649762D01*
X116694000Y-119106905D01*
X116198762Y-119106905D01*
X115894000Y-118383095D02*
X115855905Y-118345000D01*
X115779714Y-118306905D01*
X115589238Y-118306905D01*
X115513048Y-118345000D01*
X115474952Y-118383095D01*
X115436857Y-118459286D01*
X115436857Y-118535476D01*
X115474952Y-118649762D01*
X115932095Y-119106905D01*
X115436857Y-119106905D01*
X115132095Y-118383095D02*
X115094000Y-118345000D01*
X115017809Y-118306905D01*
X114827333Y-118306905D01*
X114751143Y-118345000D01*
X114713047Y-118383095D01*
X114674952Y-118459286D01*
X114674952Y-118535476D01*
X114713047Y-118649762D01*
X115170190Y-119106905D01*
X114674952Y-119106905D01*
X114370190Y-118383095D02*
X114332095Y-118345000D01*
X114255904Y-118306905D01*
X114065428Y-118306905D01*
X113989238Y-118345000D01*
X113951142Y-118383095D01*
X113913047Y-118459286D01*
X113913047Y-118535476D01*
X113951142Y-118649762D01*
X114408285Y-119106905D01*
X113913047Y-119106905D01*
D11*
X105410000Y-82550000D02*
X120650000Y-82550000D01*
D10*
X122510476Y-82911905D02*
X122510476Y-82111905D01*
X122320000Y-82111905D01*
X122205714Y-82150000D01*
X122129523Y-82226190D01*
X122091428Y-82302381D01*
X122053333Y-82454762D01*
X122053333Y-82569048D01*
X122091428Y-82721429D01*
X122129523Y-82797619D01*
X122205714Y-82873810D01*
X122320000Y-82911905D01*
X122510476Y-82911905D01*
X121786666Y-82111905D02*
X121253333Y-82111905D01*
X121596190Y-82911905D01*
X104730476Y-82911905D02*
X104730476Y-82111905D01*
X104540000Y-82111905D01*
X104425714Y-82150000D01*
X104349523Y-82226190D01*
X104311428Y-82302381D01*
X104273333Y-82454762D01*
X104273333Y-82569048D01*
X104311428Y-82721429D01*
X104349523Y-82797619D01*
X104425714Y-82873810D01*
X104540000Y-82911905D01*
X104730476Y-82911905D01*
X103778095Y-82111905D02*
X103701904Y-82111905D01*
X103625714Y-82150000D01*
X103587619Y-82188095D01*
X103549523Y-82264286D01*
X103511428Y-82416667D01*
X103511428Y-82607143D01*
X103549523Y-82759524D01*
X103587619Y-82835714D01*
X103625714Y-82873810D01*
X103701904Y-82911905D01*
X103778095Y-82911905D01*
X103854285Y-82873810D01*
X103892381Y-82835714D01*
X103930476Y-82759524D01*
X103968571Y-82607143D01*
X103968571Y-82416667D01*
X103930476Y-82264286D01*
X103892381Y-82188095D01*
X103854285Y-82150000D01*
X103778095Y-82111905D01*
X134181905Y-82105476D02*
X134829524Y-82105476D01*
X134905714Y-82143571D01*
X134943810Y-82181667D01*
X134981905Y-82257857D01*
X134981905Y-82410238D01*
X134943810Y-82486429D01*
X134905714Y-82524524D01*
X134829524Y-82562619D01*
X134181905Y-82562619D01*
X134258095Y-82905476D02*
X134220000Y-82943571D01*
X134181905Y-83019762D01*
X134181905Y-83210238D01*
X134220000Y-83286428D01*
X134258095Y-83324524D01*
X134334286Y-83362619D01*
X134410476Y-83362619D01*
X134524762Y-83324524D01*
X134981905Y-82867381D01*
X134981905Y-83362619D01*
X134905714Y-84772143D02*
X134943810Y-84734048D01*
X134981905Y-84619762D01*
X134981905Y-84543572D01*
X134943810Y-84429286D01*
X134867619Y-84353095D01*
X134791429Y-84315000D01*
X134639048Y-84276905D01*
X134524762Y-84276905D01*
X134372381Y-84315000D01*
X134296190Y-84353095D01*
X134220000Y-84429286D01*
X134181905Y-84543572D01*
X134181905Y-84619762D01*
X134220000Y-84734048D01*
X134258095Y-84772143D01*
X134981905Y-85115000D02*
X134181905Y-85115000D01*
X134181905Y-85419762D01*
X134220000Y-85495953D01*
X134258095Y-85534048D01*
X134334286Y-85572143D01*
X134448571Y-85572143D01*
X134524762Y-85534048D01*
X134562857Y-85495953D01*
X134600952Y-85419762D01*
X134600952Y-85115000D01*
X134044000Y-84124524D02*
X134044000Y-85724524D01*
X131641905Y-82105476D02*
X132289524Y-82105476D01*
X132365714Y-82143571D01*
X132403810Y-82181667D01*
X132441905Y-82257857D01*
X132441905Y-82410238D01*
X132403810Y-82486429D01*
X132365714Y-82524524D01*
X132289524Y-82562619D01*
X131641905Y-82562619D01*
X132441905Y-83362619D02*
X132441905Y-82905476D01*
X132441905Y-83134047D02*
X131641905Y-83134047D01*
X131756190Y-83057857D01*
X131832381Y-82981666D01*
X131870476Y-82905476D01*
X132365714Y-84772143D02*
X132403810Y-84734048D01*
X132441905Y-84619762D01*
X132441905Y-84543572D01*
X132403810Y-84429286D01*
X132327619Y-84353095D01*
X132251429Y-84315000D01*
X132099048Y-84276905D01*
X131984762Y-84276905D01*
X131832381Y-84315000D01*
X131756190Y-84353095D01*
X131680000Y-84429286D01*
X131641905Y-84543572D01*
X131641905Y-84619762D01*
X131680000Y-84734048D01*
X131718095Y-84772143D01*
X132441905Y-85115000D02*
X131641905Y-85115000D01*
X131641905Y-85419762D01*
X131680000Y-85495953D01*
X131718095Y-85534048D01*
X131794286Y-85572143D01*
X131908571Y-85572143D01*
X131984762Y-85534048D01*
X132022857Y-85495953D01*
X132060952Y-85419762D01*
X132060952Y-85115000D01*
X131504000Y-84124524D02*
X131504000Y-85724524D01*
X150183810Y-82067381D02*
X150221905Y-82181667D01*
X150221905Y-82372143D01*
X150183810Y-82448333D01*
X150145714Y-82486429D01*
X150069524Y-82524524D01*
X149993333Y-82524524D01*
X149917143Y-82486429D01*
X149879048Y-82448333D01*
X149840952Y-82372143D01*
X149802857Y-82219762D01*
X149764762Y-82143571D01*
X149726667Y-82105476D01*
X149650476Y-82067381D01*
X149574286Y-82067381D01*
X149498095Y-82105476D01*
X149460000Y-82143571D01*
X149421905Y-82219762D01*
X149421905Y-82410238D01*
X149460000Y-82524524D01*
X149421905Y-82791191D02*
X150221905Y-82981667D01*
X149650476Y-83134048D01*
X150221905Y-83286429D01*
X149421905Y-83476905D01*
X147643810Y-82067381D02*
X147681905Y-82181667D01*
X147681905Y-82372143D01*
X147643810Y-82448333D01*
X147605714Y-82486429D01*
X147529524Y-82524524D01*
X147453333Y-82524524D01*
X147377143Y-82486429D01*
X147339048Y-82448333D01*
X147300952Y-82372143D01*
X147262857Y-82219762D01*
X147224762Y-82143571D01*
X147186667Y-82105476D01*
X147110476Y-82067381D01*
X147034286Y-82067381D01*
X146958095Y-82105476D01*
X146920000Y-82143571D01*
X146881905Y-82219762D01*
X146881905Y-82410238D01*
X146920000Y-82524524D01*
X146881905Y-82791191D02*
X147681905Y-82981667D01*
X147110476Y-83134048D01*
X147681905Y-83286429D01*
X146881905Y-83476905D01*
X145141905Y-82486429D02*
X145141905Y-82105476D01*
X144341905Y-82105476D01*
X144341905Y-82676905D02*
X144341905Y-83172143D01*
X144646667Y-82905476D01*
X144646667Y-83019762D01*
X144684762Y-83095952D01*
X144722857Y-83134048D01*
X144799048Y-83172143D01*
X144989524Y-83172143D01*
X145065714Y-83134048D01*
X145103810Y-83095952D01*
X145141905Y-83019762D01*
X145141905Y-82791190D01*
X145103810Y-82715000D01*
X145065714Y-82676905D01*
X142601905Y-82486429D02*
X142601905Y-82105476D01*
X141801905Y-82105476D01*
X141878095Y-82715000D02*
X141840000Y-82753095D01*
X141801905Y-82829286D01*
X141801905Y-83019762D01*
X141840000Y-83095952D01*
X141878095Y-83134048D01*
X141954286Y-83172143D01*
X142030476Y-83172143D01*
X142144762Y-83134048D01*
X142601905Y-82676905D01*
X142601905Y-83172143D01*
X140061905Y-82486429D02*
X140061905Y-82105476D01*
X139261905Y-82105476D01*
X140061905Y-83172143D02*
X140061905Y-82715000D01*
X140061905Y-82943571D02*
X139261905Y-82943571D01*
X139376190Y-82867381D01*
X139452381Y-82791190D01*
X139490476Y-82715000D01*
X120770238Y-107026905D02*
X120770238Y-106226905D01*
X120579762Y-106226905D01*
X120465476Y-106265000D01*
X120389285Y-106341190D01*
X120351190Y-106417381D01*
X120313095Y-106569762D01*
X120313095Y-106684048D01*
X120351190Y-106836429D01*
X120389285Y-106912619D01*
X120465476Y-106988810D01*
X120579762Y-107026905D01*
X120770238Y-107026905D01*
X120008333Y-106798333D02*
X119627381Y-106798333D01*
X120084524Y-107026905D02*
X119817857Y-106226905D01*
X119551190Y-107026905D01*
X119398810Y-106226905D02*
X118941667Y-106226905D01*
X119170238Y-107026905D02*
X119170238Y-106226905D01*
X118713095Y-106798333D02*
X118332143Y-106798333D01*
X118789286Y-107026905D02*
X118522619Y-106226905D01*
X118255952Y-107026905D01*
X116998809Y-107026905D02*
X117379762Y-107026905D01*
X117379762Y-106226905D01*
X116770238Y-106798333D02*
X116389286Y-106798333D01*
X116846429Y-107026905D02*
X116579762Y-106226905D01*
X116313095Y-107026905D01*
X116160715Y-106226905D02*
X115703572Y-106226905D01*
X115932143Y-107026905D02*
X115932143Y-106226905D01*
X114979762Y-106950714D02*
X115017857Y-106988810D01*
X115132143Y-107026905D01*
X115208333Y-107026905D01*
X115322619Y-106988810D01*
X115398810Y-106912619D01*
X115436905Y-106836429D01*
X115475000Y-106684048D01*
X115475000Y-106569762D01*
X115436905Y-106417381D01*
X115398810Y-106341190D01*
X115322619Y-106265000D01*
X115208333Y-106226905D01*
X115132143Y-106226905D01*
X115017857Y-106265000D01*
X114979762Y-106303095D01*
X114636905Y-107026905D02*
X114636905Y-106226905D01*
X114636905Y-106607857D02*
X114179762Y-106607857D01*
X114179762Y-107026905D02*
X114179762Y-106226905D01*
X121589286Y-108098333D02*
X121208334Y-108098333D01*
X121665477Y-108326905D02*
X121398810Y-107526905D01*
X121132143Y-108326905D01*
X120865477Y-108326905D02*
X120865477Y-107526905D01*
X120408334Y-108326905D01*
X120408334Y-107526905D01*
X119875001Y-107526905D02*
X119722620Y-107526905D01*
X119646429Y-107565000D01*
X119570239Y-107641190D01*
X119532144Y-107793571D01*
X119532144Y-108060238D01*
X119570239Y-108212619D01*
X119646429Y-108288810D01*
X119722620Y-108326905D01*
X119875001Y-108326905D01*
X119951191Y-108288810D01*
X120027382Y-108212619D01*
X120065477Y-108060238D01*
X120065477Y-107793571D01*
X120027382Y-107641190D01*
X119951191Y-107565000D01*
X119875001Y-107526905D01*
X119189287Y-108326905D02*
X119189287Y-107526905D01*
X118998811Y-107526905D01*
X118884525Y-107565000D01*
X118808334Y-107641190D01*
X118770239Y-107717381D01*
X118732144Y-107869762D01*
X118732144Y-107984048D01*
X118770239Y-108136429D01*
X118808334Y-108212619D01*
X118884525Y-108288810D01*
X118998811Y-108326905D01*
X119189287Y-108326905D01*
X118389287Y-107907857D02*
X118122620Y-107907857D01*
X118008334Y-108326905D02*
X118389287Y-108326905D01*
X118389287Y-107526905D01*
X118008334Y-107526905D01*
X117703572Y-108288810D02*
X117589286Y-108326905D01*
X117398810Y-108326905D01*
X117322620Y-108288810D01*
X117284524Y-108250714D01*
X117246429Y-108174524D01*
X117246429Y-108098333D01*
X117284524Y-108022143D01*
X117322620Y-107984048D01*
X117398810Y-107945952D01*
X117551191Y-107907857D01*
X117627382Y-107869762D01*
X117665477Y-107831667D01*
X117703572Y-107755476D01*
X117703572Y-107679286D01*
X117665477Y-107603095D01*
X117627382Y-107565000D01*
X117551191Y-107526905D01*
X117360715Y-107526905D01*
X117246429Y-107565000D01*
X116255953Y-108326905D02*
X116103572Y-108326905D01*
X116027381Y-108288810D01*
X115989286Y-108250714D01*
X115913095Y-108136429D01*
X115875000Y-107984048D01*
X115875000Y-107679286D01*
X115913095Y-107603095D01*
X115951191Y-107565000D01*
X116027381Y-107526905D01*
X116179762Y-107526905D01*
X116255953Y-107565000D01*
X116294048Y-107603095D01*
X116332143Y-107679286D01*
X116332143Y-107869762D01*
X116294048Y-107945952D01*
X116255953Y-107984048D01*
X116179762Y-108022143D01*
X116027381Y-108022143D01*
X115951191Y-107984048D01*
X115913095Y-107945952D01*
X115875000Y-107869762D01*
X115532143Y-108022143D02*
X114922619Y-108022143D01*
X114122619Y-108326905D02*
X114579762Y-108326905D01*
X114351191Y-108326905D02*
X114351191Y-107526905D01*
X114427381Y-107641190D01*
X114503572Y-107717381D01*
X114579762Y-107755476D01*
X113436905Y-107526905D02*
X113589286Y-107526905D01*
X113665476Y-107565000D01*
X113703571Y-107603095D01*
X113779762Y-107717381D01*
X113817857Y-107869762D01*
X113817857Y-108174524D01*
X113779762Y-108250714D01*
X113741667Y-108288810D01*
X113665476Y-108326905D01*
X113513095Y-108326905D01*
X113436905Y-108288810D01*
X113398809Y-108250714D01*
X113360714Y-108174524D01*
X113360714Y-107984048D01*
X113398809Y-107907857D01*
X113436905Y-107869762D01*
X113513095Y-107831667D01*
X113665476Y-107831667D01*
X113741667Y-107869762D01*
X113779762Y-107907857D01*
X113817857Y-107984048D01*
X120770238Y-91786905D02*
X120770238Y-90986905D01*
X120579762Y-90986905D01*
X120465476Y-91025000D01*
X120389285Y-91101190D01*
X120351190Y-91177381D01*
X120313095Y-91329762D01*
X120313095Y-91444048D01*
X120351190Y-91596429D01*
X120389285Y-91672619D01*
X120465476Y-91748810D01*
X120579762Y-91786905D01*
X120770238Y-91786905D01*
X120008333Y-91558333D02*
X119627381Y-91558333D01*
X120084524Y-91786905D02*
X119817857Y-90986905D01*
X119551190Y-91786905D01*
X119398810Y-90986905D02*
X118941667Y-90986905D01*
X119170238Y-91786905D02*
X119170238Y-90986905D01*
X118713095Y-91558333D02*
X118332143Y-91558333D01*
X118789286Y-91786905D02*
X118522619Y-90986905D01*
X118255952Y-91786905D01*
X116998809Y-91786905D02*
X117379762Y-91786905D01*
X117379762Y-90986905D01*
X116770238Y-91558333D02*
X116389286Y-91558333D01*
X116846429Y-91786905D02*
X116579762Y-90986905D01*
X116313095Y-91786905D01*
X116160715Y-90986905D02*
X115703572Y-90986905D01*
X115932143Y-91786905D02*
X115932143Y-90986905D01*
X114979762Y-91710714D02*
X115017857Y-91748810D01*
X115132143Y-91786905D01*
X115208333Y-91786905D01*
X115322619Y-91748810D01*
X115398810Y-91672619D01*
X115436905Y-91596429D01*
X115475000Y-91444048D01*
X115475000Y-91329762D01*
X115436905Y-91177381D01*
X115398810Y-91101190D01*
X115322619Y-91025000D01*
X115208333Y-90986905D01*
X115132143Y-90986905D01*
X115017857Y-91025000D01*
X114979762Y-91063095D01*
X114636905Y-91786905D02*
X114636905Y-90986905D01*
X114636905Y-91367857D02*
X114179762Y-91367857D01*
X114179762Y-91786905D02*
X114179762Y-90986905D01*
X121208333Y-92858333D02*
X120827381Y-92858333D01*
X121284524Y-93086905D02*
X121017857Y-92286905D01*
X120751190Y-93086905D01*
X120484524Y-93086905D02*
X120484524Y-92286905D01*
X120027381Y-93086905D01*
X120027381Y-92286905D01*
X119494048Y-92286905D02*
X119341667Y-92286905D01*
X119265476Y-92325000D01*
X119189286Y-92401190D01*
X119151191Y-92553571D01*
X119151191Y-92820238D01*
X119189286Y-92972619D01*
X119265476Y-93048810D01*
X119341667Y-93086905D01*
X119494048Y-93086905D01*
X119570238Y-93048810D01*
X119646429Y-92972619D01*
X119684524Y-92820238D01*
X119684524Y-92553571D01*
X119646429Y-92401190D01*
X119570238Y-92325000D01*
X119494048Y-92286905D01*
X118808334Y-93086905D02*
X118808334Y-92286905D01*
X118617858Y-92286905D01*
X118503572Y-92325000D01*
X118427381Y-92401190D01*
X118389286Y-92477381D01*
X118351191Y-92629762D01*
X118351191Y-92744048D01*
X118389286Y-92896429D01*
X118427381Y-92972619D01*
X118503572Y-93048810D01*
X118617858Y-93086905D01*
X118808334Y-93086905D01*
X118008334Y-92667857D02*
X117741667Y-92667857D01*
X117627381Y-93086905D02*
X118008334Y-93086905D01*
X118008334Y-92286905D01*
X117627381Y-92286905D01*
X117322619Y-93048810D02*
X117208333Y-93086905D01*
X117017857Y-93086905D01*
X116941667Y-93048810D01*
X116903571Y-93010714D01*
X116865476Y-92934524D01*
X116865476Y-92858333D01*
X116903571Y-92782143D01*
X116941667Y-92744048D01*
X117017857Y-92705952D01*
X117170238Y-92667857D01*
X117246429Y-92629762D01*
X117284524Y-92591667D01*
X117322619Y-92515476D01*
X117322619Y-92439286D01*
X117284524Y-92363095D01*
X117246429Y-92325000D01*
X117170238Y-92286905D01*
X116979762Y-92286905D01*
X116865476Y-92325000D01*
X115494047Y-93086905D02*
X115951190Y-93086905D01*
X115722619Y-93086905D02*
X115722619Y-92286905D01*
X115798809Y-92401190D01*
X115875000Y-92477381D01*
X115951190Y-92515476D01*
X115151190Y-92782143D02*
X114541666Y-92782143D01*
X114046428Y-92629762D02*
X114122619Y-92591667D01*
X114160714Y-92553571D01*
X114198809Y-92477381D01*
X114198809Y-92439286D01*
X114160714Y-92363095D01*
X114122619Y-92325000D01*
X114046428Y-92286905D01*
X113894047Y-92286905D01*
X113817857Y-92325000D01*
X113779761Y-92363095D01*
X113741666Y-92439286D01*
X113741666Y-92477381D01*
X113779761Y-92553571D01*
X113817857Y-92591667D01*
X113894047Y-92629762D01*
X114046428Y-92629762D01*
X114122619Y-92667857D01*
X114160714Y-92705952D01*
X114198809Y-92782143D01*
X114198809Y-92934524D01*
X114160714Y-93010714D01*
X114122619Y-93048810D01*
X114046428Y-93086905D01*
X113894047Y-93086905D01*
X113817857Y-93048810D01*
X113779761Y-93010714D01*
X113741666Y-92934524D01*
X113741666Y-92782143D01*
X113779761Y-92705952D01*
X113817857Y-92667857D01*
X113894047Y-92629762D01*
D11*
X130810000Y-88265000D02*
X129540000Y-88265000D01*
X130810000Y-95885000D02*
X130810000Y-88265000D01*
X129540000Y-95885000D02*
X130810000Y-95885000D01*
X130810000Y-103505000D02*
X129540000Y-103505000D01*
X130810000Y-111125000D02*
X130810000Y-103505000D01*
X129540000Y-111125000D02*
X130810000Y-111125000D01*
X104140000Y-111125000D02*
X105410000Y-111125000D01*
X104140000Y-103505000D02*
X104140000Y-111125000D01*
X105410000Y-103505000D02*
X104140000Y-103505000D01*
X104140000Y-95885000D02*
X105410000Y-95885000D01*
X104140000Y-88265000D02*
X104140000Y-95885000D01*
X105410000Y-88265000D02*
X104140000Y-88265000D01*
X187960000Y-120015000D02*
X187960000Y-133985000D01*
X187960000Y-104775000D02*
X187960000Y-118745000D01*
X187960000Y-89535000D02*
X187960000Y-103505000D01*
X172720000Y-103505000D02*
X172720000Y-89535000D01*
X172720000Y-118745000D02*
X172720000Y-104775000D01*
X172720000Y-133985000D02*
X172720000Y-120015000D01*
X157480000Y-120015000D02*
X157480000Y-133985000D01*
X157480000Y-104775000D02*
X157480000Y-118745000D01*
X157480000Y-89535000D02*
X157480000Y-103505000D01*
X142875000Y-134620000D02*
X193675000Y-134620000D01*
X142875000Y-119380000D02*
X193675000Y-119380000D01*
X142875000Y-104140000D02*
X193675000Y-104140000D01*
X142240000Y-88900000D02*
X142240000Y-134620000D01*
X142875000Y-88900000D02*
X143510000Y-89535000D01*
X142875000Y-88900000D02*
X143510000Y-88265000D01*
X147955000Y-88900000D02*
X193675000Y-88900000D01*
X147955000Y-88900000D02*
X142875000Y-88900000D01*
X142875000Y-86360000D02*
X142240000Y-86360000D01*
X142875000Y-86360000D02*
X142875000Y-85725000D01*
X142875000Y-83820000D02*
G75*
G03X142875000Y-86360000I1270000J-1270000D01*
G01*
X145415000Y-83820000D02*
G75*
G03X142875000Y-83820000I-1270000J-1270000D01*
G01*
X145415000Y-86360000D02*
G75*
G03X145415000Y-83820000I-1270000J1270000D01*
G01*
X146685000Y-87630000D02*
X145415000Y-86360000D01*
D10*
X137521905Y-82486429D02*
X137521905Y-82105476D01*
X136721905Y-82105476D01*
X136721905Y-82905476D02*
X136721905Y-82981667D01*
X136760000Y-83057857D01*
X136798095Y-83095952D01*
X136874286Y-83134048D01*
X137026667Y-83172143D01*
X137217143Y-83172143D01*
X137369524Y-83134048D01*
X137445714Y-83095952D01*
X137483810Y-83057857D01*
X137521905Y-82981667D01*
X137521905Y-82905476D01*
X137483810Y-82829286D01*
X137445714Y-82791190D01*
X137369524Y-82753095D01*
X137217143Y-82715000D01*
X137026667Y-82715000D01*
X136874286Y-82753095D01*
X136798095Y-82791190D01*
X136760000Y-82829286D01*
X136721905Y-82905476D01*
D12*
X108505238Y-143962381D02*
X108838572Y-143486190D01*
X109076667Y-143962381D02*
X109076667Y-142962381D01*
X108695714Y-142962381D01*
X108600476Y-143010000D01*
X108552857Y-143057619D01*
X108505238Y-143152857D01*
X108505238Y-143295714D01*
X108552857Y-143390952D01*
X108600476Y-143438571D01*
X108695714Y-143486190D01*
X109076667Y-143486190D01*
X107695714Y-143914762D02*
X107790952Y-143962381D01*
X107981429Y-143962381D01*
X108076667Y-143914762D01*
X108124286Y-143819524D01*
X108124286Y-143438571D01*
X108076667Y-143343333D01*
X107981429Y-143295714D01*
X107790952Y-143295714D01*
X107695714Y-143343333D01*
X107648095Y-143438571D01*
X107648095Y-143533810D01*
X108124286Y-143629048D01*
X107314762Y-143295714D02*
X107076667Y-143962381D01*
X106838571Y-143295714D01*
X106457619Y-143962381D02*
X106457619Y-143295714D01*
X106457619Y-142962381D02*
X106505238Y-143010000D01*
X106457619Y-143057619D01*
X106410000Y-143010000D01*
X106457619Y-142962381D01*
X106457619Y-143057619D01*
X106029048Y-143914762D02*
X105933810Y-143962381D01*
X105743334Y-143962381D01*
X105648095Y-143914762D01*
X105600476Y-143819524D01*
X105600476Y-143771905D01*
X105648095Y-143676667D01*
X105743334Y-143629048D01*
X105886191Y-143629048D01*
X105981429Y-143581429D01*
X106029048Y-143486190D01*
X106029048Y-143438571D01*
X105981429Y-143343333D01*
X105886191Y-143295714D01*
X105743334Y-143295714D01*
X105648095Y-143343333D01*
X105171905Y-143962381D02*
X105171905Y-143295714D01*
X105171905Y-142962381D02*
X105219524Y-143010000D01*
X105171905Y-143057619D01*
X105124286Y-143010000D01*
X105171905Y-142962381D01*
X105171905Y-143057619D01*
X104552858Y-143962381D02*
X104648096Y-143914762D01*
X104695715Y-143867143D01*
X104743334Y-143771905D01*
X104743334Y-143486190D01*
X104695715Y-143390952D01*
X104648096Y-143343333D01*
X104552858Y-143295714D01*
X104410000Y-143295714D01*
X104314762Y-143343333D01*
X104267143Y-143390952D01*
X104219524Y-143486190D01*
X104219524Y-143771905D01*
X104267143Y-143867143D01*
X104314762Y-143914762D01*
X104410000Y-143962381D01*
X104552858Y-143962381D01*
X103790953Y-143295714D02*
X103790953Y-143962381D01*
X103790953Y-143390952D02*
X103743334Y-143343333D01*
X103648096Y-143295714D01*
X103505238Y-143295714D01*
X103410000Y-143343333D01*
X103362381Y-143438571D01*
X103362381Y-143962381D01*
X102171905Y-143676667D02*
X101695714Y-143676667D01*
X102267143Y-143962381D02*
X101933810Y-142962381D01*
X101600476Y-143962381D01*
D13*
X128330000Y-78680000D02*
X128330000Y-81340000D01*
X105410000Y-78680000D02*
X128330000Y-78680000D01*
X105410000Y-81340000D02*
X128330000Y-81340000D01*
X105410000Y-78680000D02*
X105410000Y-81340000D01*
X104140000Y-78680000D02*
X102810000Y-78680000D01*
X102810000Y-78680000D02*
X102810000Y-80010000D01*
X156270000Y-78680000D02*
X156270000Y-81340000D01*
X133350000Y-78680000D02*
X156270000Y-78680000D01*
X133350000Y-81340000D02*
X156270000Y-81340000D01*
X133350000Y-78680000D02*
X133350000Y-81340000D01*
X132080000Y-78680000D02*
X130750000Y-78680000D01*
X130750000Y-78680000D02*
X130750000Y-80010000D01*
X100270000Y-146745000D02*
X100270000Y-144085000D01*
X196850000Y-146745000D02*
X100270000Y-146745000D01*
X196850000Y-144085000D02*
X100270000Y-144085000D01*
X196850000Y-146745000D02*
X196850000Y-144085000D01*
X198120000Y-146745000D02*
X199450000Y-146745000D01*
X199450000Y-146745000D02*
X199450000Y-145415000D01*
D12*
X199902381Y-145081667D02*
X200616667Y-145081667D01*
X200759524Y-145034047D01*
X200854762Y-144938809D01*
X200902381Y-144795952D01*
X200902381Y-144700714D01*
X200902381Y-146081667D02*
X200902381Y-145510238D01*
X200902381Y-145795952D02*
X199902381Y-145795952D01*
X200045238Y-145700714D01*
X200140476Y-145605476D01*
X200188095Y-145510238D01*
X106775238Y-115482619D02*
X106870476Y-115435000D01*
X106965714Y-115339762D01*
X107108571Y-115196905D01*
X107203810Y-115149286D01*
X107299048Y-115149286D01*
X107251429Y-115387381D02*
X107346667Y-115339762D01*
X107441905Y-115244524D01*
X107489524Y-115054048D01*
X107489524Y-114720714D01*
X107441905Y-114530238D01*
X107346667Y-114435000D01*
X107251429Y-114387381D01*
X107060952Y-114387381D01*
X106965714Y-114435000D01*
X106870476Y-114530238D01*
X106822857Y-114720714D01*
X106822857Y-115054048D01*
X106870476Y-115244524D01*
X106965714Y-115339762D01*
X107060952Y-115387381D01*
X107251429Y-115387381D01*
X105870476Y-115387381D02*
X106441905Y-115387381D01*
X106156191Y-115387381D02*
X106156191Y-114387381D01*
X106251429Y-114530238D01*
X106346667Y-114625476D01*
X106441905Y-114673095D01*
X113760238Y-115482619D02*
X113855476Y-115435000D01*
X113950714Y-115339762D01*
X114093571Y-115196905D01*
X114188810Y-115149286D01*
X114284048Y-115149286D01*
X114236429Y-115387381D02*
X114331667Y-115339762D01*
X114426905Y-115244524D01*
X114474524Y-115054048D01*
X114474524Y-114720714D01*
X114426905Y-114530238D01*
X114331667Y-114435000D01*
X114236429Y-114387381D01*
X114045952Y-114387381D01*
X113950714Y-114435000D01*
X113855476Y-114530238D01*
X113807857Y-114720714D01*
X113807857Y-115054048D01*
X113855476Y-115244524D01*
X113950714Y-115339762D01*
X114045952Y-115387381D01*
X114236429Y-115387381D01*
X113426905Y-114482619D02*
X113379286Y-114435000D01*
X113284048Y-114387381D01*
X113045952Y-114387381D01*
X112950714Y-114435000D01*
X112903095Y-114482619D01*
X112855476Y-114577857D01*
X112855476Y-114673095D01*
X112903095Y-114815952D01*
X113474524Y-115387381D01*
X112855476Y-115387381D01*
X120745238Y-115482619D02*
X120840476Y-115435000D01*
X120935714Y-115339762D01*
X121078571Y-115196905D01*
X121173810Y-115149286D01*
X121269048Y-115149286D01*
X121221429Y-115387381D02*
X121316667Y-115339762D01*
X121411905Y-115244524D01*
X121459524Y-115054048D01*
X121459524Y-114720714D01*
X121411905Y-114530238D01*
X121316667Y-114435000D01*
X121221429Y-114387381D01*
X121030952Y-114387381D01*
X120935714Y-114435000D01*
X120840476Y-114530238D01*
X120792857Y-114720714D01*
X120792857Y-115054048D01*
X120840476Y-115244524D01*
X120935714Y-115339762D01*
X121030952Y-115387381D01*
X121221429Y-115387381D01*
X120459524Y-114387381D02*
X119840476Y-114387381D01*
X120173810Y-114768333D01*
X120030952Y-114768333D01*
X119935714Y-114815952D01*
X119888095Y-114863571D01*
X119840476Y-114958810D01*
X119840476Y-115196905D01*
X119888095Y-115292143D01*
X119935714Y-115339762D01*
X120030952Y-115387381D01*
X120316667Y-115387381D01*
X120411905Y-115339762D01*
X120459524Y-115292143D01*
X127730238Y-115482619D02*
X127825476Y-115435000D01*
X127920714Y-115339762D01*
X128063571Y-115196905D01*
X128158810Y-115149286D01*
X128254048Y-115149286D01*
X128206429Y-115387381D02*
X128301667Y-115339762D01*
X128396905Y-115244524D01*
X128444524Y-115054048D01*
X128444524Y-114720714D01*
X128396905Y-114530238D01*
X128301667Y-114435000D01*
X128206429Y-114387381D01*
X128015952Y-114387381D01*
X127920714Y-114435000D01*
X127825476Y-114530238D01*
X127777857Y-114720714D01*
X127777857Y-115054048D01*
X127825476Y-115244524D01*
X127920714Y-115339762D01*
X128015952Y-115387381D01*
X128206429Y-115387381D01*
X126920714Y-114720714D02*
X126920714Y-115387381D01*
X127158810Y-114339762D02*
X127396905Y-115054048D01*
X126777857Y-115054048D01*
M02*
