M48
;DRILL file {KiCad 4.0.7} date 12/23/19 17:32:09
;FORMAT={2:4/ absolute / inch / suppress leading zeros}
FMAT,2
INCH,TZ
T1C0.016
T2C0.024
T3C0.031
T4C0.039
T5C0.043
T6C0.120
%
G90
G05
M72
T1
X43000Y-42250
X43500Y-32000
X43500Y-33500
X44500Y-33250
X47250Y-36750
X47500Y-33000
X47500Y-35750
X47500Y-36500
X47750Y-42500
X48000Y-42750
X48500Y-33250
X49500Y-35750
X51000Y-35750
X51000Y-44750
X51250Y-35500
X51250Y-37000
X51250Y-45000
X51500Y-45250
X51750Y-41250
X51750Y-43000
X51750Y-45500
X53500Y-35500
X53500Y-36000
X53750Y-35750
X53750Y-44500
X54000Y-37750
X54000Y-44750
X54250Y-37500
X54250Y-45000
X54500Y-36750
X54500Y-45250
X56250Y-44250
X56500Y-44000
X56750Y-43750
X57000Y-43500
X57250Y-32750
X57250Y-43250
X57500Y-32500
X57500Y-43000
X57750Y-42750
X58000Y-42500
X60250Y-36250
X60250Y-37750
X60500Y-43500
X61000Y-37500
X61000Y-42500
X61500Y-36250
X66000Y-43750
X66500Y-43000
X71250Y-37750
X71500Y-44000
X72250Y-43750
X77250Y-44500
T2
X41500Y-46250
X42000Y-45750
X42500Y-46250
X44250Y-46250
X44750Y-45750
X45250Y-46250
X47000Y-46250
X47500Y-45750
X48000Y-46250
X49750Y-46250
X50250Y-45750
X50750Y-46250
X55250Y-37000
X55250Y-38500
X55250Y-43000
X55250Y-44500
X56750Y-33500
X56750Y-39500
X56750Y-45500
X56750Y-51500
X62750Y-33500
X62750Y-39500
X62750Y-45500
X62750Y-51500
X68750Y-33500
X68750Y-39500
X68750Y-45500
X68750Y-51500
X74750Y-33500
X74750Y-39500
X74750Y-45500
X74750Y-51500
T3
X40250Y-35250
X40250Y-37219
X40250Y-41250
X40250Y-43219
X41250Y-48000
X41250Y-52000
X41750Y-34750
X41750Y-37750
X41750Y-40750
X41750Y-43750
X42500Y-48000
X42500Y-52000
X42750Y-34750
X42750Y-37750
X42750Y-40750
X42750Y-43750
X43750Y-34750
X43750Y-37750
X43750Y-40750
X43750Y-43750
X44000Y-48000
X44000Y-52000
X44750Y-34750
X44750Y-37750
X44750Y-40750
X44750Y-43750
X45250Y-48000
X45250Y-52000
X45750Y-34750
X45750Y-37750
X45750Y-40750
X45750Y-43750
X46750Y-34750
X46750Y-37750
X46750Y-40750
X46750Y-43750
X46750Y-48000
X46750Y-52000
X47750Y-34750
X47750Y-37750
X47750Y-40750
X47750Y-43750
X48000Y-48000
X48000Y-52000
X48750Y-34750
X48750Y-37750
X48750Y-40750
X48750Y-43750
X49500Y-48000
X49500Y-52000
X49750Y-34750
X49750Y-37750
X49750Y-40750
X49750Y-43750
X50750Y-34750
X50750Y-37750
X50750Y-40750
X50750Y-43750
X50750Y-48000
X50750Y-52000
X52750Y-48000
X52750Y-52000
X54000Y-48000
X54000Y-52000
X56750Y-36750
X56750Y-38250
X56750Y-48750
X56750Y-50250
X60750Y-36750
X60750Y-38250
X60750Y-48750
X60750Y-50250
X62250Y-36750
X62250Y-38250
X62250Y-48750
X62250Y-50250
X66250Y-36750
X66250Y-38250
X66250Y-48750
X66250Y-50250
X67750Y-36750
X67750Y-38250
X67750Y-48750
X67750Y-50250
X71750Y-36750
X71750Y-38250
X71750Y-48750
X71750Y-50250
X73250Y-36750
X73250Y-38250
X73250Y-48750
X73250Y-50250
X77250Y-36750
X77250Y-38250
X77250Y-48750
X77250Y-50250
T4
X40000Y-57250
X41000Y-31500
X41000Y-57250
X42000Y-31500
X42000Y-57250
X43000Y-31500
X43000Y-57250
X44000Y-31500
X44000Y-57250
X45000Y-31500
X45000Y-57250
X46000Y-31500
X46000Y-57250
X47000Y-31500
X47000Y-57250
X48000Y-31500
X48000Y-57250
X49000Y-31500
X49000Y-57250
X50000Y-31500
X50000Y-57250
X51000Y-57250
X52000Y-31500
X52000Y-57250
X53000Y-31500
X53000Y-57250
X54000Y-31500
X54000Y-57250
X55000Y-31500
X55000Y-57250
X56000Y-31500
X56000Y-57250
X57000Y-31500
X57000Y-57250
X58000Y-31500
X58000Y-57250
X59000Y-31500
X59000Y-57250
X60000Y-31500
X60000Y-57250
X61000Y-31500
X61000Y-57250
X62000Y-57250
X63000Y-57250
X64000Y-57250
X65000Y-57250
X66000Y-57250
X67000Y-57250
X68000Y-57250
X69000Y-57250
X70000Y-57250
X71000Y-57250
X72000Y-57250
X73000Y-57250
X74000Y-57250
X75000Y-57250
X76000Y-57250
X77000Y-57250
X78000Y-57250
T5
X43500Y-54000
X43500Y-55772
X46059Y-54000
X46059Y-55772
X48000Y-54000
X48000Y-55772
X50559Y-54000
X50559Y-55772
T6
X41000Y-55250
X77000Y-32000
X77000Y-55250
T0
M30
