G04 #@! TF.FileFunction,Legend,Top*
%FSLAX46Y46*%
G04 Gerber Fmt 4.6, Leading zero omitted, Abs format (unit mm)*
G04 Created by KiCad (PCBNEW 4.0.7) date 12/23/19 17:32:06*
%MOMM*%
%LPD*%
G01*
G04 APERTURE LIST*
%ADD10C,0.100000*%
%ADD11C,0.200000*%
%ADD12C,0.150000*%
%ADD13C,0.300000*%
%ADD14C,0.120000*%
G04 APERTURE END LIST*
D10*
D11*
X198755000Y-110490000D02*
X198755000Y-80010000D01*
X198120000Y-80010000D02*
X198120000Y-110490000D01*
X197485000Y-110490000D02*
X197485000Y-80010000D01*
X198755000Y-146685000D02*
X198755000Y-147320000D01*
X198120000Y-146685000D02*
X198120000Y-147320000D01*
X197485000Y-146685000D02*
X197485000Y-147320000D01*
X198755000Y-115570000D02*
X198755000Y-144145000D01*
X198120000Y-144145000D02*
X198120000Y-115570000D01*
X197485000Y-115570000D02*
X197485000Y-144145000D01*
X198755000Y-80010000D02*
X198755000Y-78105000D01*
X198120000Y-80010000D02*
X198120000Y-78105000D01*
X197485000Y-80010000D02*
X197485000Y-78105000D01*
D12*
X178110238Y-80430714D02*
X178110238Y-81240238D01*
X178062619Y-81335476D01*
X178015000Y-81383095D01*
X177919761Y-81430714D01*
X177776904Y-81430714D01*
X177681666Y-81383095D01*
X178110238Y-81049762D02*
X178015000Y-81097381D01*
X177824523Y-81097381D01*
X177729285Y-81049762D01*
X177681666Y-81002143D01*
X177634047Y-80906905D01*
X177634047Y-80621190D01*
X177681666Y-80525952D01*
X177729285Y-80478333D01*
X177824523Y-80430714D01*
X178015000Y-80430714D01*
X178110238Y-80478333D01*
X178586428Y-81097381D02*
X178586428Y-80430714D01*
X178586428Y-80097381D02*
X178538809Y-80145000D01*
X178586428Y-80192619D01*
X178634047Y-80145000D01*
X178586428Y-80097381D01*
X178586428Y-80192619D01*
X178919761Y-80430714D02*
X179300713Y-80430714D01*
X179062618Y-80097381D02*
X179062618Y-80954524D01*
X179110237Y-81049762D01*
X179205475Y-81097381D01*
X179300713Y-81097381D01*
X179634047Y-81097381D02*
X179634047Y-80097381D01*
X180062619Y-81097381D02*
X180062619Y-80573571D01*
X180015000Y-80478333D01*
X179919762Y-80430714D01*
X179776904Y-80430714D01*
X179681666Y-80478333D01*
X179634047Y-80525952D01*
X180967381Y-80430714D02*
X180967381Y-81097381D01*
X180538809Y-80430714D02*
X180538809Y-80954524D01*
X180586428Y-81049762D01*
X180681666Y-81097381D01*
X180824524Y-81097381D01*
X180919762Y-81049762D01*
X180967381Y-81002143D01*
X181443571Y-81097381D02*
X181443571Y-80097381D01*
X181443571Y-80478333D02*
X181538809Y-80430714D01*
X181729286Y-80430714D01*
X181824524Y-80478333D01*
X181872143Y-80525952D01*
X181919762Y-80621190D01*
X181919762Y-80906905D01*
X181872143Y-81002143D01*
X181824524Y-81049762D01*
X181729286Y-81097381D01*
X181538809Y-81097381D01*
X181443571Y-81049762D01*
X182348333Y-81002143D02*
X182395952Y-81049762D01*
X182348333Y-81097381D01*
X182300714Y-81049762D01*
X182348333Y-81002143D01*
X182348333Y-81097381D01*
X183253095Y-81049762D02*
X183157857Y-81097381D01*
X182967380Y-81097381D01*
X182872142Y-81049762D01*
X182824523Y-81002143D01*
X182776904Y-80906905D01*
X182776904Y-80621190D01*
X182824523Y-80525952D01*
X182872142Y-80478333D01*
X182967380Y-80430714D01*
X183157857Y-80430714D01*
X183253095Y-80478333D01*
X183824523Y-81097381D02*
X183729285Y-81049762D01*
X183681666Y-81002143D01*
X183634047Y-80906905D01*
X183634047Y-80621190D01*
X183681666Y-80525952D01*
X183729285Y-80478333D01*
X183824523Y-80430714D01*
X183967381Y-80430714D01*
X184062619Y-80478333D01*
X184110238Y-80525952D01*
X184157857Y-80621190D01*
X184157857Y-80906905D01*
X184110238Y-81002143D01*
X184062619Y-81049762D01*
X183967381Y-81097381D01*
X183824523Y-81097381D01*
X184586428Y-81097381D02*
X184586428Y-80430714D01*
X184586428Y-80525952D02*
X184634047Y-80478333D01*
X184729285Y-80430714D01*
X184872143Y-80430714D01*
X184967381Y-80478333D01*
X185015000Y-80573571D01*
X185015000Y-81097381D01*
X185015000Y-80573571D02*
X185062619Y-80478333D01*
X185157857Y-80430714D01*
X185300714Y-80430714D01*
X185395952Y-80478333D01*
X185443571Y-80573571D01*
X185443571Y-81097381D01*
X186634047Y-80049762D02*
X185776904Y-81335476D01*
X186824523Y-80430714D02*
X187205475Y-80430714D01*
X186967380Y-80097381D02*
X186967380Y-80954524D01*
X187014999Y-81049762D01*
X187110237Y-81097381D01*
X187205475Y-81097381D01*
X187919762Y-81049762D02*
X187824524Y-81097381D01*
X187634047Y-81097381D01*
X187538809Y-81049762D01*
X187491190Y-80954524D01*
X187491190Y-80573571D01*
X187538809Y-80478333D01*
X187634047Y-80430714D01*
X187824524Y-80430714D01*
X187919762Y-80478333D01*
X187967381Y-80573571D01*
X187967381Y-80668810D01*
X187491190Y-80764048D01*
X188395952Y-81097381D02*
X188395952Y-80097381D01*
X188395952Y-80478333D02*
X188491190Y-80430714D01*
X188681667Y-80430714D01*
X188776905Y-80478333D01*
X188824524Y-80525952D01*
X188872143Y-80621190D01*
X188872143Y-80906905D01*
X188824524Y-81002143D01*
X188776905Y-81049762D01*
X188681667Y-81097381D01*
X188491190Y-81097381D01*
X188395952Y-81049762D01*
X189443571Y-81097381D02*
X189348333Y-81049762D01*
X189300714Y-80954524D01*
X189300714Y-80097381D01*
X178919762Y-79827381D02*
X178443571Y-79827381D01*
X178443571Y-78827381D01*
X179253095Y-79303571D02*
X179586429Y-79303571D01*
X179729286Y-79827381D02*
X179253095Y-79827381D01*
X179253095Y-78827381D01*
X179729286Y-78827381D01*
X180157857Y-79827381D02*
X180157857Y-78827381D01*
X180395952Y-78827381D01*
X180538810Y-78875000D01*
X180634048Y-78970238D01*
X180681667Y-79065476D01*
X180729286Y-79255952D01*
X180729286Y-79398810D01*
X180681667Y-79589286D01*
X180634048Y-79684524D01*
X180538810Y-79779762D01*
X180395952Y-79827381D01*
X180157857Y-79827381D01*
X182491191Y-79732143D02*
X182443572Y-79779762D01*
X182300715Y-79827381D01*
X182205477Y-79827381D01*
X182062619Y-79779762D01*
X181967381Y-79684524D01*
X181919762Y-79589286D01*
X181872143Y-79398810D01*
X181872143Y-79255952D01*
X181919762Y-79065476D01*
X181967381Y-78970238D01*
X182062619Y-78875000D01*
X182205477Y-78827381D01*
X182300715Y-78827381D01*
X182443572Y-78875000D01*
X182491191Y-78922619D01*
X183348334Y-79160714D02*
X183348334Y-79827381D01*
X182919762Y-79160714D02*
X182919762Y-79684524D01*
X182967381Y-79779762D01*
X183062619Y-79827381D01*
X183205477Y-79827381D01*
X183300715Y-79779762D01*
X183348334Y-79732143D01*
X183824524Y-79827381D02*
X183824524Y-78827381D01*
X183824524Y-79208333D02*
X183919762Y-79160714D01*
X184110239Y-79160714D01*
X184205477Y-79208333D01*
X184253096Y-79255952D01*
X184300715Y-79351190D01*
X184300715Y-79636905D01*
X184253096Y-79732143D01*
X184205477Y-79779762D01*
X184110239Y-79827381D01*
X183919762Y-79827381D01*
X183824524Y-79779762D01*
X185110239Y-79779762D02*
X185015001Y-79827381D01*
X184824524Y-79827381D01*
X184729286Y-79779762D01*
X184681667Y-79684524D01*
X184681667Y-79303571D01*
X184729286Y-79208333D01*
X184824524Y-79160714D01*
X185015001Y-79160714D01*
X185110239Y-79208333D01*
X185157858Y-79303571D01*
X185157858Y-79398810D01*
X184681667Y-79494048D01*
X186776906Y-79160714D02*
X186776906Y-79827381D01*
X186538810Y-78779762D02*
X186300715Y-79494048D01*
X186919763Y-79494048D01*
X187205477Y-79827381D02*
X187729287Y-79160714D01*
X187205477Y-79160714D02*
X187729287Y-79827381D01*
X188538811Y-79160714D02*
X188538811Y-79827381D01*
X188300715Y-78779762D02*
X188062620Y-79494048D01*
X188681668Y-79494048D01*
D13*
X164175714Y-80688571D02*
X163675714Y-79974286D01*
X163318571Y-80688571D02*
X163318571Y-79188571D01*
X163889999Y-79188571D01*
X164032857Y-79260000D01*
X164104285Y-79331429D01*
X164175714Y-79474286D01*
X164175714Y-79688571D01*
X164104285Y-79831429D01*
X164032857Y-79902857D01*
X163889999Y-79974286D01*
X163318571Y-79974286D01*
X165675714Y-80545714D02*
X165604285Y-80617143D01*
X165389999Y-80688571D01*
X165247142Y-80688571D01*
X165032857Y-80617143D01*
X164889999Y-80474286D01*
X164818571Y-80331429D01*
X164747142Y-80045714D01*
X164747142Y-79831429D01*
X164818571Y-79545714D01*
X164889999Y-79402857D01*
X165032857Y-79260000D01*
X165247142Y-79188571D01*
X165389999Y-79188571D01*
X165604285Y-79260000D01*
X165675714Y-79331429D01*
X166318571Y-80117143D02*
X167461428Y-80117143D01*
X168461428Y-79188571D02*
X168747142Y-79188571D01*
X168890000Y-79260000D01*
X169032857Y-79402857D01*
X169104285Y-79688571D01*
X169104285Y-80188571D01*
X169032857Y-80474286D01*
X168890000Y-80617143D01*
X168747142Y-80688571D01*
X168461428Y-80688571D01*
X168318571Y-80617143D01*
X168175714Y-80474286D01*
X168104285Y-80188571D01*
X168104285Y-79688571D01*
X168175714Y-79402857D01*
X168318571Y-79260000D01*
X168461428Y-79188571D01*
X169747143Y-80688571D02*
X169747143Y-79188571D01*
X170604286Y-80688571D01*
X170604286Y-79188571D01*
X171318572Y-79902857D02*
X171818572Y-79902857D01*
X172032858Y-80688571D02*
X171318572Y-80688571D01*
X171318572Y-79188571D01*
X172032858Y-79188571D01*
D12*
X198572381Y-114910952D02*
X197572381Y-114910952D01*
X197572381Y-114529999D01*
X197620000Y-114434761D01*
X197667619Y-114387142D01*
X197762857Y-114339523D01*
X197905714Y-114339523D01*
X198000952Y-114387142D01*
X198048571Y-114434761D01*
X198096190Y-114529999D01*
X198096190Y-114910952D01*
X198572381Y-113910952D02*
X197572381Y-113910952D01*
X198572381Y-113434762D02*
X197572381Y-113434762D01*
X198572381Y-112863333D01*
X197572381Y-112863333D01*
X198572381Y-111101428D02*
X198572381Y-111672857D01*
X198572381Y-111387143D02*
X197572381Y-111387143D01*
X197715238Y-111482381D01*
X197810476Y-111577619D01*
X197858095Y-111672857D01*
D14*
X130215000Y-123790000D02*
X127595000Y-123790000D01*
X127595000Y-123790000D02*
X127595000Y-130210000D01*
X127595000Y-130210000D02*
X130215000Y-130210000D01*
X130215000Y-130210000D02*
X130215000Y-123790000D01*
X128905000Y-122900000D02*
X128905000Y-123790000D01*
X128905000Y-131100000D02*
X128905000Y-130210000D01*
X103545000Y-104865000D02*
X103545000Y-109685000D01*
X100925000Y-104865000D02*
X100925000Y-109685000D01*
X103545000Y-104865000D02*
X103231000Y-104865000D01*
X101239000Y-104865000D02*
X100925000Y-104865000D01*
X103545000Y-109685000D02*
X103231000Y-109685000D01*
X101239000Y-109685000D02*
X100925000Y-109685000D01*
X103545000Y-89625000D02*
X103545000Y-94445000D01*
X100925000Y-89625000D02*
X100925000Y-94445000D01*
X103545000Y-89625000D02*
X103231000Y-89625000D01*
X101239000Y-89625000D02*
X100925000Y-89625000D01*
X103545000Y-94445000D02*
X103231000Y-94445000D01*
X101239000Y-94445000D02*
X100925000Y-94445000D01*
X104880000Y-119325000D02*
X108480000Y-119325000D01*
X104841522Y-119313478D02*
G75*
G02X106680000Y-114875000I1838478J1838478D01*
G01*
X108518478Y-119313478D02*
G75*
G03X106680000Y-114875000I-1838478J1838478D01*
G01*
X111865000Y-119325000D02*
X115465000Y-119325000D01*
X111826522Y-119313478D02*
G75*
G02X113665000Y-114875000I1838478J1838478D01*
G01*
X115503478Y-119313478D02*
G75*
G03X113665000Y-114875000I-1838478J1838478D01*
G01*
X118850000Y-119325000D02*
X122450000Y-119325000D01*
X118811522Y-119313478D02*
G75*
G02X120650000Y-114875000I1838478J1838478D01*
G01*
X122488478Y-119313478D02*
G75*
G03X120650000Y-114875000I-1838478J1838478D01*
G01*
X125835000Y-119325000D02*
X129435000Y-119325000D01*
X125796522Y-119313478D02*
G75*
G02X127635000Y-114875000I1838478J1838478D01*
G01*
X129473478Y-119313478D02*
G75*
G03X127635000Y-114875000I-1838478J1838478D01*
G01*
X106085000Y-123790000D02*
X103465000Y-123790000D01*
X103465000Y-123790000D02*
X103465000Y-130210000D01*
X103465000Y-130210000D02*
X106085000Y-130210000D01*
X106085000Y-130210000D02*
X106085000Y-123790000D01*
X104775000Y-122900000D02*
X104775000Y-123790000D01*
X104775000Y-131100000D02*
X104775000Y-130210000D01*
X113070000Y-123790000D02*
X110450000Y-123790000D01*
X110450000Y-123790000D02*
X110450000Y-130210000D01*
X110450000Y-130210000D02*
X113070000Y-130210000D01*
X113070000Y-130210000D02*
X113070000Y-123790000D01*
X111760000Y-122900000D02*
X111760000Y-123790000D01*
X111760000Y-131100000D02*
X111760000Y-130210000D01*
X120055000Y-123790000D02*
X117435000Y-123790000D01*
X117435000Y-123790000D02*
X117435000Y-130210000D01*
X117435000Y-130210000D02*
X120055000Y-130210000D01*
X120055000Y-130210000D02*
X120055000Y-123790000D01*
X118745000Y-122900000D02*
X118745000Y-123790000D01*
X118745000Y-131100000D02*
X118745000Y-130210000D01*
X127040000Y-123790000D02*
X124420000Y-123790000D01*
X124420000Y-123790000D02*
X124420000Y-130210000D01*
X124420000Y-130210000D02*
X127040000Y-130210000D01*
X127040000Y-130210000D02*
X127040000Y-123790000D01*
X125730000Y-122900000D02*
X125730000Y-123790000D01*
X125730000Y-131100000D02*
X125730000Y-130210000D01*
X116245000Y-123790000D02*
X113625000Y-123790000D01*
X113625000Y-123790000D02*
X113625000Y-130210000D01*
X113625000Y-130210000D02*
X116245000Y-130210000D01*
X116245000Y-130210000D02*
X116245000Y-123790000D01*
X114935000Y-122900000D02*
X114935000Y-123790000D01*
X114935000Y-131100000D02*
X114935000Y-130210000D01*
X123230000Y-123790000D02*
X120610000Y-123790000D01*
X120610000Y-123790000D02*
X120610000Y-130210000D01*
X120610000Y-130210000D02*
X123230000Y-130210000D01*
X123230000Y-130210000D02*
X123230000Y-123790000D01*
X121920000Y-122900000D02*
X121920000Y-123790000D01*
X121920000Y-131100000D02*
X121920000Y-130210000D01*
X146015000Y-92035000D02*
X146015000Y-94655000D01*
X146015000Y-94655000D02*
X152435000Y-94655000D01*
X152435000Y-94655000D02*
X152435000Y-92035000D01*
X152435000Y-92035000D02*
X146015000Y-92035000D01*
X145125000Y-93345000D02*
X146015000Y-93345000D01*
X153325000Y-93345000D02*
X152435000Y-93345000D01*
X109260000Y-123790000D02*
X106640000Y-123790000D01*
X106640000Y-123790000D02*
X106640000Y-130210000D01*
X106640000Y-130210000D02*
X109260000Y-130210000D01*
X109260000Y-130210000D02*
X109260000Y-123790000D01*
X107950000Y-122900000D02*
X107950000Y-123790000D01*
X107950000Y-131100000D02*
X107950000Y-130210000D01*
X159985000Y-92035000D02*
X159985000Y-94655000D01*
X159985000Y-94655000D02*
X166405000Y-94655000D01*
X166405000Y-94655000D02*
X166405000Y-92035000D01*
X166405000Y-92035000D02*
X159985000Y-92035000D01*
X159095000Y-93345000D02*
X159985000Y-93345000D01*
X167295000Y-93345000D02*
X166405000Y-93345000D01*
X173955000Y-92035000D02*
X173955000Y-94655000D01*
X173955000Y-94655000D02*
X180375000Y-94655000D01*
X180375000Y-94655000D02*
X180375000Y-92035000D01*
X180375000Y-92035000D02*
X173955000Y-92035000D01*
X173065000Y-93345000D02*
X173955000Y-93345000D01*
X181265000Y-93345000D02*
X180375000Y-93345000D01*
X187925000Y-92035000D02*
X187925000Y-94655000D01*
X187925000Y-94655000D02*
X194345000Y-94655000D01*
X194345000Y-94655000D02*
X194345000Y-92035000D01*
X194345000Y-92035000D02*
X187925000Y-92035000D01*
X187035000Y-93345000D02*
X187925000Y-93345000D01*
X195235000Y-93345000D02*
X194345000Y-93345000D01*
X135850000Y-130210000D02*
X138470000Y-130210000D01*
X138470000Y-130210000D02*
X138470000Y-123790000D01*
X138470000Y-123790000D02*
X135850000Y-123790000D01*
X135850000Y-123790000D02*
X135850000Y-130210000D01*
X137160000Y-131100000D02*
X137160000Y-130210000D01*
X137160000Y-122900000D02*
X137160000Y-123790000D01*
X132675000Y-130210000D02*
X135295000Y-130210000D01*
X135295000Y-130210000D02*
X135295000Y-123790000D01*
X135295000Y-123790000D02*
X132675000Y-123790000D01*
X132675000Y-123790000D02*
X132675000Y-130210000D01*
X133985000Y-131100000D02*
X133985000Y-130210000D01*
X133985000Y-122900000D02*
X133985000Y-123790000D01*
X146015000Y-95845000D02*
X146015000Y-98465000D01*
X146015000Y-98465000D02*
X152435000Y-98465000D01*
X152435000Y-98465000D02*
X152435000Y-95845000D01*
X152435000Y-95845000D02*
X146015000Y-95845000D01*
X145125000Y-97155000D02*
X146015000Y-97155000D01*
X153325000Y-97155000D02*
X152435000Y-97155000D01*
X159985000Y-95845000D02*
X159985000Y-98465000D01*
X159985000Y-98465000D02*
X166405000Y-98465000D01*
X166405000Y-98465000D02*
X166405000Y-95845000D01*
X166405000Y-95845000D02*
X159985000Y-95845000D01*
X159095000Y-97155000D02*
X159985000Y-97155000D01*
X167295000Y-97155000D02*
X166405000Y-97155000D01*
X173955000Y-95845000D02*
X173955000Y-98465000D01*
X173955000Y-98465000D02*
X180375000Y-98465000D01*
X180375000Y-98465000D02*
X180375000Y-95845000D01*
X180375000Y-95845000D02*
X173955000Y-95845000D01*
X173065000Y-97155000D02*
X173955000Y-97155000D01*
X181265000Y-97155000D02*
X180375000Y-97155000D01*
X187925000Y-95845000D02*
X187925000Y-98465000D01*
X187925000Y-98465000D02*
X194345000Y-98465000D01*
X194345000Y-98465000D02*
X194345000Y-95845000D01*
X194345000Y-95845000D02*
X187925000Y-95845000D01*
X187035000Y-97155000D02*
X187925000Y-97155000D01*
X195235000Y-97155000D02*
X194345000Y-97155000D01*
X146015000Y-122515000D02*
X146015000Y-125135000D01*
X146015000Y-125135000D02*
X152435000Y-125135000D01*
X152435000Y-125135000D02*
X152435000Y-122515000D01*
X152435000Y-122515000D02*
X146015000Y-122515000D01*
X145125000Y-123825000D02*
X146015000Y-123825000D01*
X153325000Y-123825000D02*
X152435000Y-123825000D01*
X159985000Y-122515000D02*
X159985000Y-125135000D01*
X159985000Y-125135000D02*
X166405000Y-125135000D01*
X166405000Y-125135000D02*
X166405000Y-122515000D01*
X166405000Y-122515000D02*
X159985000Y-122515000D01*
X159095000Y-123825000D02*
X159985000Y-123825000D01*
X167295000Y-123825000D02*
X166405000Y-123825000D01*
X173955000Y-122515000D02*
X173955000Y-125135000D01*
X173955000Y-125135000D02*
X180375000Y-125135000D01*
X180375000Y-125135000D02*
X180375000Y-122515000D01*
X180375000Y-122515000D02*
X173955000Y-122515000D01*
X173065000Y-123825000D02*
X173955000Y-123825000D01*
X181265000Y-123825000D02*
X180375000Y-123825000D01*
X187925000Y-122515000D02*
X187925000Y-125135000D01*
X187925000Y-125135000D02*
X194345000Y-125135000D01*
X194345000Y-125135000D02*
X194345000Y-122515000D01*
X194345000Y-122515000D02*
X187925000Y-122515000D01*
X187035000Y-123825000D02*
X187925000Y-123825000D01*
X195235000Y-123825000D02*
X194345000Y-123825000D01*
X146015000Y-126325000D02*
X146015000Y-128945000D01*
X146015000Y-128945000D02*
X152435000Y-128945000D01*
X152435000Y-128945000D02*
X152435000Y-126325000D01*
X152435000Y-126325000D02*
X146015000Y-126325000D01*
X145125000Y-127635000D02*
X146015000Y-127635000D01*
X153325000Y-127635000D02*
X152435000Y-127635000D01*
X159985000Y-126325000D02*
X159985000Y-128945000D01*
X159985000Y-128945000D02*
X166405000Y-128945000D01*
X166405000Y-128945000D02*
X166405000Y-126325000D01*
X166405000Y-126325000D02*
X159985000Y-126325000D01*
X159095000Y-127635000D02*
X159985000Y-127635000D01*
X167295000Y-127635000D02*
X166405000Y-127635000D01*
X173955000Y-126325000D02*
X173955000Y-128945000D01*
X173955000Y-128945000D02*
X180375000Y-128945000D01*
X180375000Y-128945000D02*
X180375000Y-126325000D01*
X180375000Y-126325000D02*
X173955000Y-126325000D01*
X173065000Y-127635000D02*
X173955000Y-127635000D01*
X181265000Y-127635000D02*
X180375000Y-127635000D01*
X187925000Y-126325000D02*
X187925000Y-128945000D01*
X187925000Y-128945000D02*
X194345000Y-128945000D01*
X194345000Y-128945000D02*
X194345000Y-126325000D01*
X194345000Y-126325000D02*
X187925000Y-126325000D01*
X187035000Y-127635000D02*
X187925000Y-127635000D01*
X195235000Y-127635000D02*
X194345000Y-127635000D01*
X111490000Y-142660000D02*
X115990000Y-142660000D01*
X110240000Y-138660000D02*
X110240000Y-140160000D01*
X115990000Y-136160000D02*
X111490000Y-136160000D01*
X117240000Y-140160000D02*
X117240000Y-138660000D01*
X122920000Y-142660000D02*
X127420000Y-142660000D01*
X121670000Y-138660000D02*
X121670000Y-140160000D01*
X127420000Y-136160000D02*
X122920000Y-136160000D01*
X128670000Y-140160000D02*
X128670000Y-138660000D01*
X104715000Y-91075000D02*
G75*
G02X104715000Y-93075000I0J-1000000D01*
G01*
X104715000Y-93075000D02*
X104715000Y-94325000D01*
X104715000Y-94325000D02*
X130235000Y-94325000D01*
X130235000Y-94325000D02*
X130235000Y-89825000D01*
X130235000Y-89825000D02*
X104715000Y-89825000D01*
X104715000Y-89825000D02*
X104715000Y-91075000D01*
X104655000Y-97325000D02*
X130295000Y-97325000D01*
X130295000Y-97325000D02*
X130295000Y-86825000D01*
X130295000Y-86825000D02*
X104655000Y-86825000D01*
X104655000Y-86825000D02*
X104655000Y-97325000D01*
X104715000Y-106315000D02*
G75*
G02X104715000Y-108315000I0J-1000000D01*
G01*
X104715000Y-108315000D02*
X104715000Y-109565000D01*
X104715000Y-109565000D02*
X130235000Y-109565000D01*
X130235000Y-109565000D02*
X130235000Y-105065000D01*
X130235000Y-105065000D02*
X104715000Y-105065000D01*
X104715000Y-105065000D02*
X104715000Y-106315000D01*
X104655000Y-112565000D02*
X130295000Y-112565000D01*
X130295000Y-112565000D02*
X130295000Y-102065000D01*
X130295000Y-102065000D02*
X104655000Y-102065000D01*
X104655000Y-102065000D02*
X104655000Y-112565000D01*
X106426000Y-140335000D02*
G75*
G03X106426000Y-140335000I-2286000J0D01*
G01*
X197866000Y-140335000D02*
G75*
G03X197866000Y-140335000I-2286000J0D01*
G01*
X197866000Y-81280000D02*
G75*
G03X197866000Y-81280000I-2286000J0D01*
G01*
D12*
X128738334Y-125547381D02*
X128405000Y-125071190D01*
X128166905Y-125547381D02*
X128166905Y-124547381D01*
X128547858Y-124547381D01*
X128643096Y-124595000D01*
X128690715Y-124642619D01*
X128738334Y-124737857D01*
X128738334Y-124880714D01*
X128690715Y-124975952D01*
X128643096Y-125023571D01*
X128547858Y-125071190D01*
X128166905Y-125071190D01*
X129071667Y-124547381D02*
X129738334Y-124547381D01*
X129309762Y-125547381D01*
X129357381Y-128936666D02*
X129357381Y-129508095D01*
X129357381Y-129222381D02*
X128357381Y-129222381D01*
X128500238Y-129317619D01*
X128595476Y-129412857D01*
X128643095Y-129508095D01*
X128357381Y-128317619D02*
X128357381Y-128222380D01*
X128405000Y-128127142D01*
X128452619Y-128079523D01*
X128547857Y-128031904D01*
X128738333Y-127984285D01*
X128976429Y-127984285D01*
X129166905Y-128031904D01*
X129262143Y-128079523D01*
X129309762Y-128127142D01*
X129357381Y-128222380D01*
X129357381Y-128317619D01*
X129309762Y-128412857D01*
X129262143Y-128460476D01*
X129166905Y-128508095D01*
X128976429Y-128555714D01*
X128738333Y-128555714D01*
X128547857Y-128508095D01*
X128452619Y-128460476D01*
X128405000Y-128412857D01*
X128357381Y-128317619D01*
X128357381Y-127365238D02*
X128357381Y-127269999D01*
X128405000Y-127174761D01*
X128452619Y-127127142D01*
X128547857Y-127079523D01*
X128738333Y-127031904D01*
X128976429Y-127031904D01*
X129166905Y-127079523D01*
X129262143Y-127127142D01*
X129309762Y-127174761D01*
X129357381Y-127269999D01*
X129357381Y-127365238D01*
X129309762Y-127460476D01*
X129262143Y-127508095D01*
X129166905Y-127555714D01*
X128976429Y-127603333D01*
X128738333Y-127603333D01*
X128547857Y-127555714D01*
X128452619Y-127508095D01*
X128405000Y-127460476D01*
X128357381Y-127365238D01*
X102592143Y-107481666D02*
X102639762Y-107529285D01*
X102687381Y-107672142D01*
X102687381Y-107767380D01*
X102639762Y-107910238D01*
X102544524Y-108005476D01*
X102449286Y-108053095D01*
X102258810Y-108100714D01*
X102115952Y-108100714D01*
X101925476Y-108053095D01*
X101830238Y-108005476D01*
X101735000Y-107910238D01*
X101687381Y-107767380D01*
X101687381Y-107672142D01*
X101735000Y-107529285D01*
X101782619Y-107481666D01*
X102687381Y-106529285D02*
X102687381Y-107100714D01*
X102687381Y-106815000D02*
X101687381Y-106815000D01*
X101830238Y-106910238D01*
X101925476Y-107005476D01*
X101973095Y-107100714D01*
X102507144Y-92241666D02*
X102554763Y-92289285D01*
X102602382Y-92432142D01*
X102602382Y-92527380D01*
X102554763Y-92670238D01*
X102459525Y-92765476D01*
X102364287Y-92813095D01*
X102173811Y-92860714D01*
X102030953Y-92860714D01*
X101840477Y-92813095D01*
X101745239Y-92765476D01*
X101650001Y-92670238D01*
X101602382Y-92527380D01*
X101602382Y-92432142D01*
X101650001Y-92289285D01*
X101697620Y-92241666D01*
X101697620Y-91860714D02*
X101650001Y-91813095D01*
X101602382Y-91717857D01*
X101602382Y-91479761D01*
X101650001Y-91384523D01*
X101697620Y-91336904D01*
X101792858Y-91289285D01*
X101888096Y-91289285D01*
X102030953Y-91336904D01*
X102602382Y-91908333D01*
X102602382Y-91289285D01*
X104608334Y-125547381D02*
X104275000Y-125071190D01*
X104036905Y-125547381D02*
X104036905Y-124547381D01*
X104417858Y-124547381D01*
X104513096Y-124595000D01*
X104560715Y-124642619D01*
X104608334Y-124737857D01*
X104608334Y-124880714D01*
X104560715Y-124975952D01*
X104513096Y-125023571D01*
X104417858Y-125071190D01*
X104036905Y-125071190D01*
X105560715Y-125547381D02*
X104989286Y-125547381D01*
X105275000Y-125547381D02*
X105275000Y-124547381D01*
X105179762Y-124690238D01*
X105084524Y-124785476D01*
X104989286Y-124833095D01*
X105227381Y-128936666D02*
X105227381Y-129508095D01*
X105227381Y-129222381D02*
X104227381Y-129222381D01*
X104370238Y-129317619D01*
X104465476Y-129412857D01*
X104513095Y-129508095D01*
X104227381Y-128317619D02*
X104227381Y-128222380D01*
X104275000Y-128127142D01*
X104322619Y-128079523D01*
X104417857Y-128031904D01*
X104608333Y-127984285D01*
X104846429Y-127984285D01*
X105036905Y-128031904D01*
X105132143Y-128079523D01*
X105179762Y-128127142D01*
X105227381Y-128222380D01*
X105227381Y-128317619D01*
X105179762Y-128412857D01*
X105132143Y-128460476D01*
X105036905Y-128508095D01*
X104846429Y-128555714D01*
X104608333Y-128555714D01*
X104417857Y-128508095D01*
X104322619Y-128460476D01*
X104275000Y-128412857D01*
X104227381Y-128317619D01*
X104227381Y-127365238D02*
X104227381Y-127269999D01*
X104275000Y-127174761D01*
X104322619Y-127127142D01*
X104417857Y-127079523D01*
X104608333Y-127031904D01*
X104846429Y-127031904D01*
X105036905Y-127079523D01*
X105132143Y-127127142D01*
X105179762Y-127174761D01*
X105227381Y-127269999D01*
X105227381Y-127365238D01*
X105179762Y-127460476D01*
X105132143Y-127508095D01*
X105036905Y-127555714D01*
X104846429Y-127603333D01*
X104608333Y-127603333D01*
X104417857Y-127555714D01*
X104322619Y-127508095D01*
X104275000Y-127460476D01*
X104227381Y-127365238D01*
X111593334Y-125547381D02*
X111260000Y-125071190D01*
X111021905Y-125547381D02*
X111021905Y-124547381D01*
X111402858Y-124547381D01*
X111498096Y-124595000D01*
X111545715Y-124642619D01*
X111593334Y-124737857D01*
X111593334Y-124880714D01*
X111545715Y-124975952D01*
X111498096Y-125023571D01*
X111402858Y-125071190D01*
X111021905Y-125071190D01*
X111974286Y-124642619D02*
X112021905Y-124595000D01*
X112117143Y-124547381D01*
X112355239Y-124547381D01*
X112450477Y-124595000D01*
X112498096Y-124642619D01*
X112545715Y-124737857D01*
X112545715Y-124833095D01*
X112498096Y-124975952D01*
X111926667Y-125547381D01*
X112545715Y-125547381D01*
X112212381Y-128936666D02*
X112212381Y-129508095D01*
X112212381Y-129222381D02*
X111212381Y-129222381D01*
X111355238Y-129317619D01*
X111450476Y-129412857D01*
X111498095Y-129508095D01*
X111212381Y-128317619D02*
X111212381Y-128222380D01*
X111260000Y-128127142D01*
X111307619Y-128079523D01*
X111402857Y-128031904D01*
X111593333Y-127984285D01*
X111831429Y-127984285D01*
X112021905Y-128031904D01*
X112117143Y-128079523D01*
X112164762Y-128127142D01*
X112212381Y-128222380D01*
X112212381Y-128317619D01*
X112164762Y-128412857D01*
X112117143Y-128460476D01*
X112021905Y-128508095D01*
X111831429Y-128555714D01*
X111593333Y-128555714D01*
X111402857Y-128508095D01*
X111307619Y-128460476D01*
X111260000Y-128412857D01*
X111212381Y-128317619D01*
X111212381Y-127365238D02*
X111212381Y-127269999D01*
X111260000Y-127174761D01*
X111307619Y-127127142D01*
X111402857Y-127079523D01*
X111593333Y-127031904D01*
X111831429Y-127031904D01*
X112021905Y-127079523D01*
X112117143Y-127127142D01*
X112164762Y-127174761D01*
X112212381Y-127269999D01*
X112212381Y-127365238D01*
X112164762Y-127460476D01*
X112117143Y-127508095D01*
X112021905Y-127555714D01*
X111831429Y-127603333D01*
X111593333Y-127603333D01*
X111402857Y-127555714D01*
X111307619Y-127508095D01*
X111260000Y-127460476D01*
X111212381Y-127365238D01*
X118578334Y-125420381D02*
X118245000Y-124944190D01*
X118006905Y-125420381D02*
X118006905Y-124420381D01*
X118387858Y-124420381D01*
X118483096Y-124468000D01*
X118530715Y-124515619D01*
X118578334Y-124610857D01*
X118578334Y-124753714D01*
X118530715Y-124848952D01*
X118483096Y-124896571D01*
X118387858Y-124944190D01*
X118006905Y-124944190D01*
X118911667Y-124420381D02*
X119530715Y-124420381D01*
X119197381Y-124801333D01*
X119340239Y-124801333D01*
X119435477Y-124848952D01*
X119483096Y-124896571D01*
X119530715Y-124991810D01*
X119530715Y-125229905D01*
X119483096Y-125325143D01*
X119435477Y-125372762D01*
X119340239Y-125420381D01*
X119054524Y-125420381D01*
X118959286Y-125372762D01*
X118911667Y-125325143D01*
X119197381Y-128936666D02*
X119197381Y-129508095D01*
X119197381Y-129222381D02*
X118197381Y-129222381D01*
X118340238Y-129317619D01*
X118435476Y-129412857D01*
X118483095Y-129508095D01*
X118197381Y-128317619D02*
X118197381Y-128222380D01*
X118245000Y-128127142D01*
X118292619Y-128079523D01*
X118387857Y-128031904D01*
X118578333Y-127984285D01*
X118816429Y-127984285D01*
X119006905Y-128031904D01*
X119102143Y-128079523D01*
X119149762Y-128127142D01*
X119197381Y-128222380D01*
X119197381Y-128317619D01*
X119149762Y-128412857D01*
X119102143Y-128460476D01*
X119006905Y-128508095D01*
X118816429Y-128555714D01*
X118578333Y-128555714D01*
X118387857Y-128508095D01*
X118292619Y-128460476D01*
X118245000Y-128412857D01*
X118197381Y-128317619D01*
X118197381Y-127365238D02*
X118197381Y-127269999D01*
X118245000Y-127174761D01*
X118292619Y-127127142D01*
X118387857Y-127079523D01*
X118578333Y-127031904D01*
X118816429Y-127031904D01*
X119006905Y-127079523D01*
X119102143Y-127127142D01*
X119149762Y-127174761D01*
X119197381Y-127269999D01*
X119197381Y-127365238D01*
X119149762Y-127460476D01*
X119102143Y-127508095D01*
X119006905Y-127555714D01*
X118816429Y-127603333D01*
X118578333Y-127603333D01*
X118387857Y-127555714D01*
X118292619Y-127508095D01*
X118245000Y-127460476D01*
X118197381Y-127365238D01*
X125563334Y-125420381D02*
X125230000Y-124944190D01*
X124991905Y-125420381D02*
X124991905Y-124420381D01*
X125372858Y-124420381D01*
X125468096Y-124468000D01*
X125515715Y-124515619D01*
X125563334Y-124610857D01*
X125563334Y-124753714D01*
X125515715Y-124848952D01*
X125468096Y-124896571D01*
X125372858Y-124944190D01*
X124991905Y-124944190D01*
X126420477Y-124753714D02*
X126420477Y-125420381D01*
X126182381Y-124372762D02*
X125944286Y-125087048D01*
X126563334Y-125087048D01*
X126182381Y-128936666D02*
X126182381Y-129508095D01*
X126182381Y-129222381D02*
X125182381Y-129222381D01*
X125325238Y-129317619D01*
X125420476Y-129412857D01*
X125468095Y-129508095D01*
X125182381Y-128317619D02*
X125182381Y-128222380D01*
X125230000Y-128127142D01*
X125277619Y-128079523D01*
X125372857Y-128031904D01*
X125563333Y-127984285D01*
X125801429Y-127984285D01*
X125991905Y-128031904D01*
X126087143Y-128079523D01*
X126134762Y-128127142D01*
X126182381Y-128222380D01*
X126182381Y-128317619D01*
X126134762Y-128412857D01*
X126087143Y-128460476D01*
X125991905Y-128508095D01*
X125801429Y-128555714D01*
X125563333Y-128555714D01*
X125372857Y-128508095D01*
X125277619Y-128460476D01*
X125230000Y-128412857D01*
X125182381Y-128317619D01*
X125182381Y-127365238D02*
X125182381Y-127269999D01*
X125230000Y-127174761D01*
X125277619Y-127127142D01*
X125372857Y-127079523D01*
X125563333Y-127031904D01*
X125801429Y-127031904D01*
X125991905Y-127079523D01*
X126087143Y-127127142D01*
X126134762Y-127174761D01*
X126182381Y-127269999D01*
X126182381Y-127365238D01*
X126134762Y-127460476D01*
X126087143Y-127508095D01*
X125991905Y-127555714D01*
X125801429Y-127603333D01*
X125563333Y-127603333D01*
X125372857Y-127555714D01*
X125277619Y-127508095D01*
X125230000Y-127460476D01*
X125182381Y-127365238D01*
X114768334Y-125420381D02*
X114435000Y-124944190D01*
X114196905Y-125420381D02*
X114196905Y-124420381D01*
X114577858Y-124420381D01*
X114673096Y-124468000D01*
X114720715Y-124515619D01*
X114768334Y-124610857D01*
X114768334Y-124753714D01*
X114720715Y-124848952D01*
X114673096Y-124896571D01*
X114577858Y-124944190D01*
X114196905Y-124944190D01*
X115673096Y-124420381D02*
X115196905Y-124420381D01*
X115149286Y-124896571D01*
X115196905Y-124848952D01*
X115292143Y-124801333D01*
X115530239Y-124801333D01*
X115625477Y-124848952D01*
X115673096Y-124896571D01*
X115720715Y-124991810D01*
X115720715Y-125229905D01*
X115673096Y-125325143D01*
X115625477Y-125372762D01*
X115530239Y-125420381D01*
X115292143Y-125420381D01*
X115196905Y-125372762D01*
X115149286Y-125325143D01*
X115387381Y-128936666D02*
X115387381Y-129508095D01*
X115387381Y-129222381D02*
X114387381Y-129222381D01*
X114530238Y-129317619D01*
X114625476Y-129412857D01*
X114673095Y-129508095D01*
X114387381Y-128317619D02*
X114387381Y-128222380D01*
X114435000Y-128127142D01*
X114482619Y-128079523D01*
X114577857Y-128031904D01*
X114768333Y-127984285D01*
X115006429Y-127984285D01*
X115196905Y-128031904D01*
X115292143Y-128079523D01*
X115339762Y-128127142D01*
X115387381Y-128222380D01*
X115387381Y-128317619D01*
X115339762Y-128412857D01*
X115292143Y-128460476D01*
X115196905Y-128508095D01*
X115006429Y-128555714D01*
X114768333Y-128555714D01*
X114577857Y-128508095D01*
X114482619Y-128460476D01*
X114435000Y-128412857D01*
X114387381Y-128317619D01*
X114387381Y-127365238D02*
X114387381Y-127269999D01*
X114435000Y-127174761D01*
X114482619Y-127127142D01*
X114577857Y-127079523D01*
X114768333Y-127031904D01*
X115006429Y-127031904D01*
X115196905Y-127079523D01*
X115292143Y-127127142D01*
X115339762Y-127174761D01*
X115387381Y-127269999D01*
X115387381Y-127365238D01*
X115339762Y-127460476D01*
X115292143Y-127508095D01*
X115196905Y-127555714D01*
X115006429Y-127603333D01*
X114768333Y-127603333D01*
X114577857Y-127555714D01*
X114482619Y-127508095D01*
X114435000Y-127460476D01*
X114387381Y-127365238D01*
X121753334Y-125420381D02*
X121420000Y-124944190D01*
X121181905Y-125420381D02*
X121181905Y-124420381D01*
X121562858Y-124420381D01*
X121658096Y-124468000D01*
X121705715Y-124515619D01*
X121753334Y-124610857D01*
X121753334Y-124753714D01*
X121705715Y-124848952D01*
X121658096Y-124896571D01*
X121562858Y-124944190D01*
X121181905Y-124944190D01*
X122610477Y-124420381D02*
X122420000Y-124420381D01*
X122324762Y-124468000D01*
X122277143Y-124515619D01*
X122181905Y-124658476D01*
X122134286Y-124848952D01*
X122134286Y-125229905D01*
X122181905Y-125325143D01*
X122229524Y-125372762D01*
X122324762Y-125420381D01*
X122515239Y-125420381D01*
X122610477Y-125372762D01*
X122658096Y-125325143D01*
X122705715Y-125229905D01*
X122705715Y-124991810D01*
X122658096Y-124896571D01*
X122610477Y-124848952D01*
X122515239Y-124801333D01*
X122324762Y-124801333D01*
X122229524Y-124848952D01*
X122181905Y-124896571D01*
X122134286Y-124991810D01*
X122372381Y-128936666D02*
X122372381Y-129508095D01*
X122372381Y-129222381D02*
X121372381Y-129222381D01*
X121515238Y-129317619D01*
X121610476Y-129412857D01*
X121658095Y-129508095D01*
X121372381Y-128317619D02*
X121372381Y-128222380D01*
X121420000Y-128127142D01*
X121467619Y-128079523D01*
X121562857Y-128031904D01*
X121753333Y-127984285D01*
X121991429Y-127984285D01*
X122181905Y-128031904D01*
X122277143Y-128079523D01*
X122324762Y-128127142D01*
X122372381Y-128222380D01*
X122372381Y-128317619D01*
X122324762Y-128412857D01*
X122277143Y-128460476D01*
X122181905Y-128508095D01*
X121991429Y-128555714D01*
X121753333Y-128555714D01*
X121562857Y-128508095D01*
X121467619Y-128460476D01*
X121420000Y-128412857D01*
X121372381Y-128317619D01*
X121372381Y-127365238D02*
X121372381Y-127269999D01*
X121420000Y-127174761D01*
X121467619Y-127127142D01*
X121562857Y-127079523D01*
X121753333Y-127031904D01*
X121991429Y-127031904D01*
X122181905Y-127079523D01*
X122277143Y-127127142D01*
X122324762Y-127174761D01*
X122372381Y-127269999D01*
X122372381Y-127365238D01*
X122324762Y-127460476D01*
X122277143Y-127508095D01*
X122181905Y-127555714D01*
X121991429Y-127603333D01*
X121753333Y-127603333D01*
X121562857Y-127555714D01*
X121467619Y-127508095D01*
X121420000Y-127460476D01*
X121372381Y-127365238D01*
X147772381Y-93511666D02*
X147296190Y-93845000D01*
X147772381Y-94083095D02*
X146772381Y-94083095D01*
X146772381Y-93702142D01*
X146820000Y-93606904D01*
X146867619Y-93559285D01*
X146962857Y-93511666D01*
X147105714Y-93511666D01*
X147200952Y-93559285D01*
X147248571Y-93606904D01*
X147296190Y-93702142D01*
X147296190Y-94083095D01*
X147200952Y-92940238D02*
X147153333Y-93035476D01*
X147105714Y-93083095D01*
X147010476Y-93130714D01*
X146962857Y-93130714D01*
X146867619Y-93083095D01*
X146820000Y-93035476D01*
X146772381Y-92940238D01*
X146772381Y-92749761D01*
X146820000Y-92654523D01*
X146867619Y-92606904D01*
X146962857Y-92559285D01*
X147010476Y-92559285D01*
X147105714Y-92606904D01*
X147153333Y-92654523D01*
X147200952Y-92749761D01*
X147200952Y-92940238D01*
X147248571Y-93035476D01*
X147296190Y-93083095D01*
X147391429Y-93130714D01*
X147581905Y-93130714D01*
X147677143Y-93083095D01*
X147724762Y-93035476D01*
X147772381Y-92940238D01*
X147772381Y-92749761D01*
X147724762Y-92654523D01*
X147677143Y-92606904D01*
X147581905Y-92559285D01*
X147391429Y-92559285D01*
X147296190Y-92606904D01*
X147248571Y-92654523D01*
X147200952Y-92749761D01*
X149828334Y-93797381D02*
X149256905Y-93797381D01*
X149542619Y-93797381D02*
X149542619Y-92797381D01*
X149447381Y-92940238D01*
X149352143Y-93035476D01*
X149256905Y-93083095D01*
X150447381Y-92797381D02*
X150542620Y-92797381D01*
X150637858Y-92845000D01*
X150685477Y-92892619D01*
X150733096Y-92987857D01*
X150780715Y-93178333D01*
X150780715Y-93416429D01*
X150733096Y-93606905D01*
X150685477Y-93702143D01*
X150637858Y-93749762D01*
X150542620Y-93797381D01*
X150447381Y-93797381D01*
X150352143Y-93749762D01*
X150304524Y-93702143D01*
X150256905Y-93606905D01*
X150209286Y-93416429D01*
X150209286Y-93178333D01*
X150256905Y-92987857D01*
X150304524Y-92892619D01*
X150352143Y-92845000D01*
X150447381Y-92797381D01*
X151399762Y-92797381D02*
X151495001Y-92797381D01*
X151590239Y-92845000D01*
X151637858Y-92892619D01*
X151685477Y-92987857D01*
X151733096Y-93178333D01*
X151733096Y-93416429D01*
X151685477Y-93606905D01*
X151637858Y-93702143D01*
X151590239Y-93749762D01*
X151495001Y-93797381D01*
X151399762Y-93797381D01*
X151304524Y-93749762D01*
X151256905Y-93702143D01*
X151209286Y-93606905D01*
X151161667Y-93416429D01*
X151161667Y-93178333D01*
X151209286Y-92987857D01*
X151256905Y-92892619D01*
X151304524Y-92845000D01*
X151399762Y-92797381D01*
X107783334Y-125547381D02*
X107450000Y-125071190D01*
X107211905Y-125547381D02*
X107211905Y-124547381D01*
X107592858Y-124547381D01*
X107688096Y-124595000D01*
X107735715Y-124642619D01*
X107783334Y-124737857D01*
X107783334Y-124880714D01*
X107735715Y-124975952D01*
X107688096Y-125023571D01*
X107592858Y-125071190D01*
X107211905Y-125071190D01*
X108259524Y-125547381D02*
X108450000Y-125547381D01*
X108545239Y-125499762D01*
X108592858Y-125452143D01*
X108688096Y-125309286D01*
X108735715Y-125118810D01*
X108735715Y-124737857D01*
X108688096Y-124642619D01*
X108640477Y-124595000D01*
X108545239Y-124547381D01*
X108354762Y-124547381D01*
X108259524Y-124595000D01*
X108211905Y-124642619D01*
X108164286Y-124737857D01*
X108164286Y-124975952D01*
X108211905Y-125071190D01*
X108259524Y-125118810D01*
X108354762Y-125166429D01*
X108545239Y-125166429D01*
X108640477Y-125118810D01*
X108688096Y-125071190D01*
X108735715Y-124975952D01*
X108402381Y-128936666D02*
X108402381Y-129508095D01*
X108402381Y-129222381D02*
X107402381Y-129222381D01*
X107545238Y-129317619D01*
X107640476Y-129412857D01*
X107688095Y-129508095D01*
X107402381Y-128317619D02*
X107402381Y-128222380D01*
X107450000Y-128127142D01*
X107497619Y-128079523D01*
X107592857Y-128031904D01*
X107783333Y-127984285D01*
X108021429Y-127984285D01*
X108211905Y-128031904D01*
X108307143Y-128079523D01*
X108354762Y-128127142D01*
X108402381Y-128222380D01*
X108402381Y-128317619D01*
X108354762Y-128412857D01*
X108307143Y-128460476D01*
X108211905Y-128508095D01*
X108021429Y-128555714D01*
X107783333Y-128555714D01*
X107592857Y-128508095D01*
X107497619Y-128460476D01*
X107450000Y-128412857D01*
X107402381Y-128317619D01*
X107402381Y-127365238D02*
X107402381Y-127269999D01*
X107450000Y-127174761D01*
X107497619Y-127127142D01*
X107592857Y-127079523D01*
X107783333Y-127031904D01*
X108021429Y-127031904D01*
X108211905Y-127079523D01*
X108307143Y-127127142D01*
X108354762Y-127174761D01*
X108402381Y-127269999D01*
X108402381Y-127365238D01*
X108354762Y-127460476D01*
X108307143Y-127508095D01*
X108211905Y-127555714D01*
X108021429Y-127603333D01*
X107783333Y-127603333D01*
X107592857Y-127555714D01*
X107497619Y-127508095D01*
X107450000Y-127460476D01*
X107402381Y-127365238D01*
X161742381Y-93987857D02*
X161266190Y-94321191D01*
X161742381Y-94559286D02*
X160742381Y-94559286D01*
X160742381Y-94178333D01*
X160790000Y-94083095D01*
X160837619Y-94035476D01*
X160932857Y-93987857D01*
X161075714Y-93987857D01*
X161170952Y-94035476D01*
X161218571Y-94083095D01*
X161266190Y-94178333D01*
X161266190Y-94559286D01*
X161742381Y-93035476D02*
X161742381Y-93606905D01*
X161742381Y-93321191D02*
X160742381Y-93321191D01*
X160885238Y-93416429D01*
X160980476Y-93511667D01*
X161028095Y-93606905D01*
X160742381Y-92416429D02*
X160742381Y-92321190D01*
X160790000Y-92225952D01*
X160837619Y-92178333D01*
X160932857Y-92130714D01*
X161123333Y-92083095D01*
X161361429Y-92083095D01*
X161551905Y-92130714D01*
X161647143Y-92178333D01*
X161694762Y-92225952D01*
X161742381Y-92321190D01*
X161742381Y-92416429D01*
X161694762Y-92511667D01*
X161647143Y-92559286D01*
X161551905Y-92606905D01*
X161361429Y-92654524D01*
X161123333Y-92654524D01*
X160932857Y-92606905D01*
X160837619Y-92559286D01*
X160790000Y-92511667D01*
X160742381Y-92416429D01*
X163798334Y-93797381D02*
X163226905Y-93797381D01*
X163512619Y-93797381D02*
X163512619Y-92797381D01*
X163417381Y-92940238D01*
X163322143Y-93035476D01*
X163226905Y-93083095D01*
X164417381Y-92797381D02*
X164512620Y-92797381D01*
X164607858Y-92845000D01*
X164655477Y-92892619D01*
X164703096Y-92987857D01*
X164750715Y-93178333D01*
X164750715Y-93416429D01*
X164703096Y-93606905D01*
X164655477Y-93702143D01*
X164607858Y-93749762D01*
X164512620Y-93797381D01*
X164417381Y-93797381D01*
X164322143Y-93749762D01*
X164274524Y-93702143D01*
X164226905Y-93606905D01*
X164179286Y-93416429D01*
X164179286Y-93178333D01*
X164226905Y-92987857D01*
X164274524Y-92892619D01*
X164322143Y-92845000D01*
X164417381Y-92797381D01*
X165369762Y-92797381D02*
X165465001Y-92797381D01*
X165560239Y-92845000D01*
X165607858Y-92892619D01*
X165655477Y-92987857D01*
X165703096Y-93178333D01*
X165703096Y-93416429D01*
X165655477Y-93606905D01*
X165607858Y-93702143D01*
X165560239Y-93749762D01*
X165465001Y-93797381D01*
X165369762Y-93797381D01*
X165274524Y-93749762D01*
X165226905Y-93702143D01*
X165179286Y-93606905D01*
X165131667Y-93416429D01*
X165131667Y-93178333D01*
X165179286Y-92987857D01*
X165226905Y-92892619D01*
X165274524Y-92845000D01*
X165369762Y-92797381D01*
X175712381Y-93987857D02*
X175236190Y-94321191D01*
X175712381Y-94559286D02*
X174712381Y-94559286D01*
X174712381Y-94178333D01*
X174760000Y-94083095D01*
X174807619Y-94035476D01*
X174902857Y-93987857D01*
X175045714Y-93987857D01*
X175140952Y-94035476D01*
X175188571Y-94083095D01*
X175236190Y-94178333D01*
X175236190Y-94559286D01*
X175712381Y-93035476D02*
X175712381Y-93606905D01*
X175712381Y-93321191D02*
X174712381Y-93321191D01*
X174855238Y-93416429D01*
X174950476Y-93511667D01*
X174998095Y-93606905D01*
X175712381Y-92083095D02*
X175712381Y-92654524D01*
X175712381Y-92368810D02*
X174712381Y-92368810D01*
X174855238Y-92464048D01*
X174950476Y-92559286D01*
X174998095Y-92654524D01*
X177768334Y-93797381D02*
X177196905Y-93797381D01*
X177482619Y-93797381D02*
X177482619Y-92797381D01*
X177387381Y-92940238D01*
X177292143Y-93035476D01*
X177196905Y-93083095D01*
X178387381Y-92797381D02*
X178482620Y-92797381D01*
X178577858Y-92845000D01*
X178625477Y-92892619D01*
X178673096Y-92987857D01*
X178720715Y-93178333D01*
X178720715Y-93416429D01*
X178673096Y-93606905D01*
X178625477Y-93702143D01*
X178577858Y-93749762D01*
X178482620Y-93797381D01*
X178387381Y-93797381D01*
X178292143Y-93749762D01*
X178244524Y-93702143D01*
X178196905Y-93606905D01*
X178149286Y-93416429D01*
X178149286Y-93178333D01*
X178196905Y-92987857D01*
X178244524Y-92892619D01*
X178292143Y-92845000D01*
X178387381Y-92797381D01*
X179339762Y-92797381D02*
X179435001Y-92797381D01*
X179530239Y-92845000D01*
X179577858Y-92892619D01*
X179625477Y-92987857D01*
X179673096Y-93178333D01*
X179673096Y-93416429D01*
X179625477Y-93606905D01*
X179577858Y-93702143D01*
X179530239Y-93749762D01*
X179435001Y-93797381D01*
X179339762Y-93797381D01*
X179244524Y-93749762D01*
X179196905Y-93702143D01*
X179149286Y-93606905D01*
X179101667Y-93416429D01*
X179101667Y-93178333D01*
X179149286Y-92987857D01*
X179196905Y-92892619D01*
X179244524Y-92845000D01*
X179339762Y-92797381D01*
X189682381Y-93987857D02*
X189206190Y-94321191D01*
X189682381Y-94559286D02*
X188682381Y-94559286D01*
X188682381Y-94178333D01*
X188730000Y-94083095D01*
X188777619Y-94035476D01*
X188872857Y-93987857D01*
X189015714Y-93987857D01*
X189110952Y-94035476D01*
X189158571Y-94083095D01*
X189206190Y-94178333D01*
X189206190Y-94559286D01*
X189682381Y-93035476D02*
X189682381Y-93606905D01*
X189682381Y-93321191D02*
X188682381Y-93321191D01*
X188825238Y-93416429D01*
X188920476Y-93511667D01*
X188968095Y-93606905D01*
X188777619Y-92654524D02*
X188730000Y-92606905D01*
X188682381Y-92511667D01*
X188682381Y-92273571D01*
X188730000Y-92178333D01*
X188777619Y-92130714D01*
X188872857Y-92083095D01*
X188968095Y-92083095D01*
X189110952Y-92130714D01*
X189682381Y-92702143D01*
X189682381Y-92083095D01*
X191738334Y-93797381D02*
X191166905Y-93797381D01*
X191452619Y-93797381D02*
X191452619Y-92797381D01*
X191357381Y-92940238D01*
X191262143Y-93035476D01*
X191166905Y-93083095D01*
X192357381Y-92797381D02*
X192452620Y-92797381D01*
X192547858Y-92845000D01*
X192595477Y-92892619D01*
X192643096Y-92987857D01*
X192690715Y-93178333D01*
X192690715Y-93416429D01*
X192643096Y-93606905D01*
X192595477Y-93702143D01*
X192547858Y-93749762D01*
X192452620Y-93797381D01*
X192357381Y-93797381D01*
X192262143Y-93749762D01*
X192214524Y-93702143D01*
X192166905Y-93606905D01*
X192119286Y-93416429D01*
X192119286Y-93178333D01*
X192166905Y-92987857D01*
X192214524Y-92892619D01*
X192262143Y-92845000D01*
X192357381Y-92797381D01*
X193309762Y-92797381D02*
X193405001Y-92797381D01*
X193500239Y-92845000D01*
X193547858Y-92892619D01*
X193595477Y-92987857D01*
X193643096Y-93178333D01*
X193643096Y-93416429D01*
X193595477Y-93606905D01*
X193547858Y-93702143D01*
X193500239Y-93749762D01*
X193405001Y-93797381D01*
X193309762Y-93797381D01*
X193214524Y-93749762D01*
X193166905Y-93702143D01*
X193119286Y-93606905D01*
X193071667Y-93416429D01*
X193071667Y-93178333D01*
X193119286Y-92987857D01*
X193166905Y-92892619D01*
X193214524Y-92845000D01*
X193309762Y-92797381D01*
X136517143Y-125547381D02*
X136183809Y-125071190D01*
X135945714Y-125547381D02*
X135945714Y-124547381D01*
X136326667Y-124547381D01*
X136421905Y-124595000D01*
X136469524Y-124642619D01*
X136517143Y-124737857D01*
X136517143Y-124880714D01*
X136469524Y-124975952D01*
X136421905Y-125023571D01*
X136326667Y-125071190D01*
X135945714Y-125071190D01*
X137469524Y-125547381D02*
X136898095Y-125547381D01*
X137183809Y-125547381D02*
X137183809Y-124547381D01*
X137088571Y-124690238D01*
X136993333Y-124785476D01*
X136898095Y-124833095D01*
X137802857Y-124547381D02*
X138421905Y-124547381D01*
X138088571Y-124928333D01*
X138231429Y-124928333D01*
X138326667Y-124975952D01*
X138374286Y-125023571D01*
X138421905Y-125118810D01*
X138421905Y-125356905D01*
X138374286Y-125452143D01*
X138326667Y-125499762D01*
X138231429Y-125547381D01*
X137945714Y-125547381D01*
X137850476Y-125499762D01*
X137802857Y-125452143D01*
X137612381Y-128389047D02*
X137612381Y-128960476D01*
X137612381Y-128674762D02*
X136612381Y-128674762D01*
X136755238Y-128770000D01*
X136850476Y-128865238D01*
X136898095Y-128960476D01*
X137612381Y-127960476D02*
X136612381Y-127960476D01*
X137231429Y-127865238D02*
X137612381Y-127579523D01*
X136945714Y-127579523D02*
X137326667Y-127960476D01*
X133342143Y-125547381D02*
X133008809Y-125071190D01*
X132770714Y-125547381D02*
X132770714Y-124547381D01*
X133151667Y-124547381D01*
X133246905Y-124595000D01*
X133294524Y-124642619D01*
X133342143Y-124737857D01*
X133342143Y-124880714D01*
X133294524Y-124975952D01*
X133246905Y-125023571D01*
X133151667Y-125071190D01*
X132770714Y-125071190D01*
X134294524Y-125547381D02*
X133723095Y-125547381D01*
X134008809Y-125547381D02*
X134008809Y-124547381D01*
X133913571Y-124690238D01*
X133818333Y-124785476D01*
X133723095Y-124833095D01*
X135151667Y-124880714D02*
X135151667Y-125547381D01*
X134913571Y-124499762D02*
X134675476Y-125214048D01*
X135294524Y-125214048D01*
X134437381Y-128389047D02*
X134437381Y-128960476D01*
X134437381Y-128674762D02*
X133437381Y-128674762D01*
X133580238Y-128770000D01*
X133675476Y-128865238D01*
X133723095Y-128960476D01*
X134437381Y-127960476D02*
X133437381Y-127960476D01*
X134056429Y-127865238D02*
X134437381Y-127579523D01*
X133770714Y-127579523D02*
X134151667Y-127960476D01*
X147772381Y-97797857D02*
X147296190Y-98131191D01*
X147772381Y-98369286D02*
X146772381Y-98369286D01*
X146772381Y-97988333D01*
X146820000Y-97893095D01*
X146867619Y-97845476D01*
X146962857Y-97797857D01*
X147105714Y-97797857D01*
X147200952Y-97845476D01*
X147248571Y-97893095D01*
X147296190Y-97988333D01*
X147296190Y-98369286D01*
X147772381Y-96845476D02*
X147772381Y-97416905D01*
X147772381Y-97131191D02*
X146772381Y-97131191D01*
X146915238Y-97226429D01*
X147010476Y-97321667D01*
X147058095Y-97416905D01*
X146772381Y-95940714D02*
X146772381Y-96416905D01*
X147248571Y-96464524D01*
X147200952Y-96416905D01*
X147153333Y-96321667D01*
X147153333Y-96083571D01*
X147200952Y-95988333D01*
X147248571Y-95940714D01*
X147343810Y-95893095D01*
X147581905Y-95893095D01*
X147677143Y-95940714D01*
X147724762Y-95988333D01*
X147772381Y-96083571D01*
X147772381Y-96321667D01*
X147724762Y-96416905D01*
X147677143Y-96464524D01*
X149828334Y-97607381D02*
X149256905Y-97607381D01*
X149542619Y-97607381D02*
X149542619Y-96607381D01*
X149447381Y-96750238D01*
X149352143Y-96845476D01*
X149256905Y-96893095D01*
X150447381Y-96607381D02*
X150542620Y-96607381D01*
X150637858Y-96655000D01*
X150685477Y-96702619D01*
X150733096Y-96797857D01*
X150780715Y-96988333D01*
X150780715Y-97226429D01*
X150733096Y-97416905D01*
X150685477Y-97512143D01*
X150637858Y-97559762D01*
X150542620Y-97607381D01*
X150447381Y-97607381D01*
X150352143Y-97559762D01*
X150304524Y-97512143D01*
X150256905Y-97416905D01*
X150209286Y-97226429D01*
X150209286Y-96988333D01*
X150256905Y-96797857D01*
X150304524Y-96702619D01*
X150352143Y-96655000D01*
X150447381Y-96607381D01*
X151399762Y-96607381D02*
X151495001Y-96607381D01*
X151590239Y-96655000D01*
X151637858Y-96702619D01*
X151685477Y-96797857D01*
X151733096Y-96988333D01*
X151733096Y-97226429D01*
X151685477Y-97416905D01*
X151637858Y-97512143D01*
X151590239Y-97559762D01*
X151495001Y-97607381D01*
X151399762Y-97607381D01*
X151304524Y-97559762D01*
X151256905Y-97512143D01*
X151209286Y-97416905D01*
X151161667Y-97226429D01*
X151161667Y-96988333D01*
X151209286Y-96797857D01*
X151256905Y-96702619D01*
X151304524Y-96655000D01*
X151399762Y-96607381D01*
X161742381Y-97797857D02*
X161266190Y-98131191D01*
X161742381Y-98369286D02*
X160742381Y-98369286D01*
X160742381Y-97988333D01*
X160790000Y-97893095D01*
X160837619Y-97845476D01*
X160932857Y-97797857D01*
X161075714Y-97797857D01*
X161170952Y-97845476D01*
X161218571Y-97893095D01*
X161266190Y-97988333D01*
X161266190Y-98369286D01*
X161742381Y-96845476D02*
X161742381Y-97416905D01*
X161742381Y-97131191D02*
X160742381Y-97131191D01*
X160885238Y-97226429D01*
X160980476Y-97321667D01*
X161028095Y-97416905D01*
X160742381Y-95988333D02*
X160742381Y-96178810D01*
X160790000Y-96274048D01*
X160837619Y-96321667D01*
X160980476Y-96416905D01*
X161170952Y-96464524D01*
X161551905Y-96464524D01*
X161647143Y-96416905D01*
X161694762Y-96369286D01*
X161742381Y-96274048D01*
X161742381Y-96083571D01*
X161694762Y-95988333D01*
X161647143Y-95940714D01*
X161551905Y-95893095D01*
X161313810Y-95893095D01*
X161218571Y-95940714D01*
X161170952Y-95988333D01*
X161123333Y-96083571D01*
X161123333Y-96274048D01*
X161170952Y-96369286D01*
X161218571Y-96416905D01*
X161313810Y-96464524D01*
X163798334Y-97607381D02*
X163226905Y-97607381D01*
X163512619Y-97607381D02*
X163512619Y-96607381D01*
X163417381Y-96750238D01*
X163322143Y-96845476D01*
X163226905Y-96893095D01*
X164417381Y-96607381D02*
X164512620Y-96607381D01*
X164607858Y-96655000D01*
X164655477Y-96702619D01*
X164703096Y-96797857D01*
X164750715Y-96988333D01*
X164750715Y-97226429D01*
X164703096Y-97416905D01*
X164655477Y-97512143D01*
X164607858Y-97559762D01*
X164512620Y-97607381D01*
X164417381Y-97607381D01*
X164322143Y-97559762D01*
X164274524Y-97512143D01*
X164226905Y-97416905D01*
X164179286Y-97226429D01*
X164179286Y-96988333D01*
X164226905Y-96797857D01*
X164274524Y-96702619D01*
X164322143Y-96655000D01*
X164417381Y-96607381D01*
X165369762Y-96607381D02*
X165465001Y-96607381D01*
X165560239Y-96655000D01*
X165607858Y-96702619D01*
X165655477Y-96797857D01*
X165703096Y-96988333D01*
X165703096Y-97226429D01*
X165655477Y-97416905D01*
X165607858Y-97512143D01*
X165560239Y-97559762D01*
X165465001Y-97607381D01*
X165369762Y-97607381D01*
X165274524Y-97559762D01*
X165226905Y-97512143D01*
X165179286Y-97416905D01*
X165131667Y-97226429D01*
X165131667Y-96988333D01*
X165179286Y-96797857D01*
X165226905Y-96702619D01*
X165274524Y-96655000D01*
X165369762Y-96607381D01*
X175712381Y-97797857D02*
X175236190Y-98131191D01*
X175712381Y-98369286D02*
X174712381Y-98369286D01*
X174712381Y-97988333D01*
X174760000Y-97893095D01*
X174807619Y-97845476D01*
X174902857Y-97797857D01*
X175045714Y-97797857D01*
X175140952Y-97845476D01*
X175188571Y-97893095D01*
X175236190Y-97988333D01*
X175236190Y-98369286D01*
X175712381Y-96845476D02*
X175712381Y-97416905D01*
X175712381Y-97131191D02*
X174712381Y-97131191D01*
X174855238Y-97226429D01*
X174950476Y-97321667D01*
X174998095Y-97416905D01*
X174712381Y-96512143D02*
X174712381Y-95845476D01*
X175712381Y-96274048D01*
X177768334Y-97607381D02*
X177196905Y-97607381D01*
X177482619Y-97607381D02*
X177482619Y-96607381D01*
X177387381Y-96750238D01*
X177292143Y-96845476D01*
X177196905Y-96893095D01*
X178387381Y-96607381D02*
X178482620Y-96607381D01*
X178577858Y-96655000D01*
X178625477Y-96702619D01*
X178673096Y-96797857D01*
X178720715Y-96988333D01*
X178720715Y-97226429D01*
X178673096Y-97416905D01*
X178625477Y-97512143D01*
X178577858Y-97559762D01*
X178482620Y-97607381D01*
X178387381Y-97607381D01*
X178292143Y-97559762D01*
X178244524Y-97512143D01*
X178196905Y-97416905D01*
X178149286Y-97226429D01*
X178149286Y-96988333D01*
X178196905Y-96797857D01*
X178244524Y-96702619D01*
X178292143Y-96655000D01*
X178387381Y-96607381D01*
X179339762Y-96607381D02*
X179435001Y-96607381D01*
X179530239Y-96655000D01*
X179577858Y-96702619D01*
X179625477Y-96797857D01*
X179673096Y-96988333D01*
X179673096Y-97226429D01*
X179625477Y-97416905D01*
X179577858Y-97512143D01*
X179530239Y-97559762D01*
X179435001Y-97607381D01*
X179339762Y-97607381D01*
X179244524Y-97559762D01*
X179196905Y-97512143D01*
X179149286Y-97416905D01*
X179101667Y-97226429D01*
X179101667Y-96988333D01*
X179149286Y-96797857D01*
X179196905Y-96702619D01*
X179244524Y-96655000D01*
X179339762Y-96607381D01*
X189682381Y-97797857D02*
X189206190Y-98131191D01*
X189682381Y-98369286D02*
X188682381Y-98369286D01*
X188682381Y-97988333D01*
X188730000Y-97893095D01*
X188777619Y-97845476D01*
X188872857Y-97797857D01*
X189015714Y-97797857D01*
X189110952Y-97845476D01*
X189158571Y-97893095D01*
X189206190Y-97988333D01*
X189206190Y-98369286D01*
X189682381Y-96845476D02*
X189682381Y-97416905D01*
X189682381Y-97131191D02*
X188682381Y-97131191D01*
X188825238Y-97226429D01*
X188920476Y-97321667D01*
X188968095Y-97416905D01*
X189110952Y-96274048D02*
X189063333Y-96369286D01*
X189015714Y-96416905D01*
X188920476Y-96464524D01*
X188872857Y-96464524D01*
X188777619Y-96416905D01*
X188730000Y-96369286D01*
X188682381Y-96274048D01*
X188682381Y-96083571D01*
X188730000Y-95988333D01*
X188777619Y-95940714D01*
X188872857Y-95893095D01*
X188920476Y-95893095D01*
X189015714Y-95940714D01*
X189063333Y-95988333D01*
X189110952Y-96083571D01*
X189110952Y-96274048D01*
X189158571Y-96369286D01*
X189206190Y-96416905D01*
X189301429Y-96464524D01*
X189491905Y-96464524D01*
X189587143Y-96416905D01*
X189634762Y-96369286D01*
X189682381Y-96274048D01*
X189682381Y-96083571D01*
X189634762Y-95988333D01*
X189587143Y-95940714D01*
X189491905Y-95893095D01*
X189301429Y-95893095D01*
X189206190Y-95940714D01*
X189158571Y-95988333D01*
X189110952Y-96083571D01*
X191738334Y-97607381D02*
X191166905Y-97607381D01*
X191452619Y-97607381D02*
X191452619Y-96607381D01*
X191357381Y-96750238D01*
X191262143Y-96845476D01*
X191166905Y-96893095D01*
X192357381Y-96607381D02*
X192452620Y-96607381D01*
X192547858Y-96655000D01*
X192595477Y-96702619D01*
X192643096Y-96797857D01*
X192690715Y-96988333D01*
X192690715Y-97226429D01*
X192643096Y-97416905D01*
X192595477Y-97512143D01*
X192547858Y-97559762D01*
X192452620Y-97607381D01*
X192357381Y-97607381D01*
X192262143Y-97559762D01*
X192214524Y-97512143D01*
X192166905Y-97416905D01*
X192119286Y-97226429D01*
X192119286Y-96988333D01*
X192166905Y-96797857D01*
X192214524Y-96702619D01*
X192262143Y-96655000D01*
X192357381Y-96607381D01*
X193309762Y-96607381D02*
X193405001Y-96607381D01*
X193500239Y-96655000D01*
X193547858Y-96702619D01*
X193595477Y-96797857D01*
X193643096Y-96988333D01*
X193643096Y-97226429D01*
X193595477Y-97416905D01*
X193547858Y-97512143D01*
X193500239Y-97559762D01*
X193405001Y-97607381D01*
X193309762Y-97607381D01*
X193214524Y-97559762D01*
X193166905Y-97512143D01*
X193119286Y-97416905D01*
X193071667Y-97226429D01*
X193071667Y-96988333D01*
X193119286Y-96797857D01*
X193166905Y-96702619D01*
X193214524Y-96655000D01*
X193309762Y-96607381D01*
X147772381Y-124467857D02*
X147296190Y-124801191D01*
X147772381Y-125039286D02*
X146772381Y-125039286D01*
X146772381Y-124658333D01*
X146820000Y-124563095D01*
X146867619Y-124515476D01*
X146962857Y-124467857D01*
X147105714Y-124467857D01*
X147200952Y-124515476D01*
X147248571Y-124563095D01*
X147296190Y-124658333D01*
X147296190Y-125039286D01*
X147772381Y-123515476D02*
X147772381Y-124086905D01*
X147772381Y-123801191D02*
X146772381Y-123801191D01*
X146915238Y-123896429D01*
X147010476Y-123991667D01*
X147058095Y-124086905D01*
X147772381Y-123039286D02*
X147772381Y-122848810D01*
X147724762Y-122753571D01*
X147677143Y-122705952D01*
X147534286Y-122610714D01*
X147343810Y-122563095D01*
X146962857Y-122563095D01*
X146867619Y-122610714D01*
X146820000Y-122658333D01*
X146772381Y-122753571D01*
X146772381Y-122944048D01*
X146820000Y-123039286D01*
X146867619Y-123086905D01*
X146962857Y-123134524D01*
X147200952Y-123134524D01*
X147296190Y-123086905D01*
X147343810Y-123039286D01*
X147391429Y-122944048D01*
X147391429Y-122753571D01*
X147343810Y-122658333D01*
X147296190Y-122610714D01*
X147200952Y-122563095D01*
X149828334Y-124277381D02*
X149256905Y-124277381D01*
X149542619Y-124277381D02*
X149542619Y-123277381D01*
X149447381Y-123420238D01*
X149352143Y-123515476D01*
X149256905Y-123563095D01*
X150447381Y-123277381D02*
X150542620Y-123277381D01*
X150637858Y-123325000D01*
X150685477Y-123372619D01*
X150733096Y-123467857D01*
X150780715Y-123658333D01*
X150780715Y-123896429D01*
X150733096Y-124086905D01*
X150685477Y-124182143D01*
X150637858Y-124229762D01*
X150542620Y-124277381D01*
X150447381Y-124277381D01*
X150352143Y-124229762D01*
X150304524Y-124182143D01*
X150256905Y-124086905D01*
X150209286Y-123896429D01*
X150209286Y-123658333D01*
X150256905Y-123467857D01*
X150304524Y-123372619D01*
X150352143Y-123325000D01*
X150447381Y-123277381D01*
X151399762Y-123277381D02*
X151495001Y-123277381D01*
X151590239Y-123325000D01*
X151637858Y-123372619D01*
X151685477Y-123467857D01*
X151733096Y-123658333D01*
X151733096Y-123896429D01*
X151685477Y-124086905D01*
X151637858Y-124182143D01*
X151590239Y-124229762D01*
X151495001Y-124277381D01*
X151399762Y-124277381D01*
X151304524Y-124229762D01*
X151256905Y-124182143D01*
X151209286Y-124086905D01*
X151161667Y-123896429D01*
X151161667Y-123658333D01*
X151209286Y-123467857D01*
X151256905Y-123372619D01*
X151304524Y-123325000D01*
X151399762Y-123277381D01*
X161742381Y-124467857D02*
X161266190Y-124801191D01*
X161742381Y-125039286D02*
X160742381Y-125039286D01*
X160742381Y-124658333D01*
X160790000Y-124563095D01*
X160837619Y-124515476D01*
X160932857Y-124467857D01*
X161075714Y-124467857D01*
X161170952Y-124515476D01*
X161218571Y-124563095D01*
X161266190Y-124658333D01*
X161266190Y-125039286D01*
X160837619Y-124086905D02*
X160790000Y-124039286D01*
X160742381Y-123944048D01*
X160742381Y-123705952D01*
X160790000Y-123610714D01*
X160837619Y-123563095D01*
X160932857Y-123515476D01*
X161028095Y-123515476D01*
X161170952Y-123563095D01*
X161742381Y-124134524D01*
X161742381Y-123515476D01*
X160742381Y-122896429D02*
X160742381Y-122801190D01*
X160790000Y-122705952D01*
X160837619Y-122658333D01*
X160932857Y-122610714D01*
X161123333Y-122563095D01*
X161361429Y-122563095D01*
X161551905Y-122610714D01*
X161647143Y-122658333D01*
X161694762Y-122705952D01*
X161742381Y-122801190D01*
X161742381Y-122896429D01*
X161694762Y-122991667D01*
X161647143Y-123039286D01*
X161551905Y-123086905D01*
X161361429Y-123134524D01*
X161123333Y-123134524D01*
X160932857Y-123086905D01*
X160837619Y-123039286D01*
X160790000Y-122991667D01*
X160742381Y-122896429D01*
X163798334Y-124277381D02*
X163226905Y-124277381D01*
X163512619Y-124277381D02*
X163512619Y-123277381D01*
X163417381Y-123420238D01*
X163322143Y-123515476D01*
X163226905Y-123563095D01*
X164417381Y-123277381D02*
X164512620Y-123277381D01*
X164607858Y-123325000D01*
X164655477Y-123372619D01*
X164703096Y-123467857D01*
X164750715Y-123658333D01*
X164750715Y-123896429D01*
X164703096Y-124086905D01*
X164655477Y-124182143D01*
X164607858Y-124229762D01*
X164512620Y-124277381D01*
X164417381Y-124277381D01*
X164322143Y-124229762D01*
X164274524Y-124182143D01*
X164226905Y-124086905D01*
X164179286Y-123896429D01*
X164179286Y-123658333D01*
X164226905Y-123467857D01*
X164274524Y-123372619D01*
X164322143Y-123325000D01*
X164417381Y-123277381D01*
X165369762Y-123277381D02*
X165465001Y-123277381D01*
X165560239Y-123325000D01*
X165607858Y-123372619D01*
X165655477Y-123467857D01*
X165703096Y-123658333D01*
X165703096Y-123896429D01*
X165655477Y-124086905D01*
X165607858Y-124182143D01*
X165560239Y-124229762D01*
X165465001Y-124277381D01*
X165369762Y-124277381D01*
X165274524Y-124229762D01*
X165226905Y-124182143D01*
X165179286Y-124086905D01*
X165131667Y-123896429D01*
X165131667Y-123658333D01*
X165179286Y-123467857D01*
X165226905Y-123372619D01*
X165274524Y-123325000D01*
X165369762Y-123277381D01*
X175712381Y-124467857D02*
X175236190Y-124801191D01*
X175712381Y-125039286D02*
X174712381Y-125039286D01*
X174712381Y-124658333D01*
X174760000Y-124563095D01*
X174807619Y-124515476D01*
X174902857Y-124467857D01*
X175045714Y-124467857D01*
X175140952Y-124515476D01*
X175188571Y-124563095D01*
X175236190Y-124658333D01*
X175236190Y-125039286D01*
X174807619Y-124086905D02*
X174760000Y-124039286D01*
X174712381Y-123944048D01*
X174712381Y-123705952D01*
X174760000Y-123610714D01*
X174807619Y-123563095D01*
X174902857Y-123515476D01*
X174998095Y-123515476D01*
X175140952Y-123563095D01*
X175712381Y-124134524D01*
X175712381Y-123515476D01*
X175712381Y-122563095D02*
X175712381Y-123134524D01*
X175712381Y-122848810D02*
X174712381Y-122848810D01*
X174855238Y-122944048D01*
X174950476Y-123039286D01*
X174998095Y-123134524D01*
X177768334Y-124277381D02*
X177196905Y-124277381D01*
X177482619Y-124277381D02*
X177482619Y-123277381D01*
X177387381Y-123420238D01*
X177292143Y-123515476D01*
X177196905Y-123563095D01*
X178387381Y-123277381D02*
X178482620Y-123277381D01*
X178577858Y-123325000D01*
X178625477Y-123372619D01*
X178673096Y-123467857D01*
X178720715Y-123658333D01*
X178720715Y-123896429D01*
X178673096Y-124086905D01*
X178625477Y-124182143D01*
X178577858Y-124229762D01*
X178482620Y-124277381D01*
X178387381Y-124277381D01*
X178292143Y-124229762D01*
X178244524Y-124182143D01*
X178196905Y-124086905D01*
X178149286Y-123896429D01*
X178149286Y-123658333D01*
X178196905Y-123467857D01*
X178244524Y-123372619D01*
X178292143Y-123325000D01*
X178387381Y-123277381D01*
X179339762Y-123277381D02*
X179435001Y-123277381D01*
X179530239Y-123325000D01*
X179577858Y-123372619D01*
X179625477Y-123467857D01*
X179673096Y-123658333D01*
X179673096Y-123896429D01*
X179625477Y-124086905D01*
X179577858Y-124182143D01*
X179530239Y-124229762D01*
X179435001Y-124277381D01*
X179339762Y-124277381D01*
X179244524Y-124229762D01*
X179196905Y-124182143D01*
X179149286Y-124086905D01*
X179101667Y-123896429D01*
X179101667Y-123658333D01*
X179149286Y-123467857D01*
X179196905Y-123372619D01*
X179244524Y-123325000D01*
X179339762Y-123277381D01*
X189682381Y-124467857D02*
X189206190Y-124801191D01*
X189682381Y-125039286D02*
X188682381Y-125039286D01*
X188682381Y-124658333D01*
X188730000Y-124563095D01*
X188777619Y-124515476D01*
X188872857Y-124467857D01*
X189015714Y-124467857D01*
X189110952Y-124515476D01*
X189158571Y-124563095D01*
X189206190Y-124658333D01*
X189206190Y-125039286D01*
X188777619Y-124086905D02*
X188730000Y-124039286D01*
X188682381Y-123944048D01*
X188682381Y-123705952D01*
X188730000Y-123610714D01*
X188777619Y-123563095D01*
X188872857Y-123515476D01*
X188968095Y-123515476D01*
X189110952Y-123563095D01*
X189682381Y-124134524D01*
X189682381Y-123515476D01*
X188777619Y-123134524D02*
X188730000Y-123086905D01*
X188682381Y-122991667D01*
X188682381Y-122753571D01*
X188730000Y-122658333D01*
X188777619Y-122610714D01*
X188872857Y-122563095D01*
X188968095Y-122563095D01*
X189110952Y-122610714D01*
X189682381Y-123182143D01*
X189682381Y-122563095D01*
X191738334Y-124277381D02*
X191166905Y-124277381D01*
X191452619Y-124277381D02*
X191452619Y-123277381D01*
X191357381Y-123420238D01*
X191262143Y-123515476D01*
X191166905Y-123563095D01*
X192357381Y-123277381D02*
X192452620Y-123277381D01*
X192547858Y-123325000D01*
X192595477Y-123372619D01*
X192643096Y-123467857D01*
X192690715Y-123658333D01*
X192690715Y-123896429D01*
X192643096Y-124086905D01*
X192595477Y-124182143D01*
X192547858Y-124229762D01*
X192452620Y-124277381D01*
X192357381Y-124277381D01*
X192262143Y-124229762D01*
X192214524Y-124182143D01*
X192166905Y-124086905D01*
X192119286Y-123896429D01*
X192119286Y-123658333D01*
X192166905Y-123467857D01*
X192214524Y-123372619D01*
X192262143Y-123325000D01*
X192357381Y-123277381D01*
X193309762Y-123277381D02*
X193405001Y-123277381D01*
X193500239Y-123325000D01*
X193547858Y-123372619D01*
X193595477Y-123467857D01*
X193643096Y-123658333D01*
X193643096Y-123896429D01*
X193595477Y-124086905D01*
X193547858Y-124182143D01*
X193500239Y-124229762D01*
X193405001Y-124277381D01*
X193309762Y-124277381D01*
X193214524Y-124229762D01*
X193166905Y-124182143D01*
X193119286Y-124086905D01*
X193071667Y-123896429D01*
X193071667Y-123658333D01*
X193119286Y-123467857D01*
X193166905Y-123372619D01*
X193214524Y-123325000D01*
X193309762Y-123277381D01*
X147772381Y-128277857D02*
X147296190Y-128611191D01*
X147772381Y-128849286D02*
X146772381Y-128849286D01*
X146772381Y-128468333D01*
X146820000Y-128373095D01*
X146867619Y-128325476D01*
X146962857Y-128277857D01*
X147105714Y-128277857D01*
X147200952Y-128325476D01*
X147248571Y-128373095D01*
X147296190Y-128468333D01*
X147296190Y-128849286D01*
X146867619Y-127896905D02*
X146820000Y-127849286D01*
X146772381Y-127754048D01*
X146772381Y-127515952D01*
X146820000Y-127420714D01*
X146867619Y-127373095D01*
X146962857Y-127325476D01*
X147058095Y-127325476D01*
X147200952Y-127373095D01*
X147772381Y-127944524D01*
X147772381Y-127325476D01*
X146772381Y-126992143D02*
X146772381Y-126373095D01*
X147153333Y-126706429D01*
X147153333Y-126563571D01*
X147200952Y-126468333D01*
X147248571Y-126420714D01*
X147343810Y-126373095D01*
X147581905Y-126373095D01*
X147677143Y-126420714D01*
X147724762Y-126468333D01*
X147772381Y-126563571D01*
X147772381Y-126849286D01*
X147724762Y-126944524D01*
X147677143Y-126992143D01*
X149828334Y-128087381D02*
X149256905Y-128087381D01*
X149542619Y-128087381D02*
X149542619Y-127087381D01*
X149447381Y-127230238D01*
X149352143Y-127325476D01*
X149256905Y-127373095D01*
X150447381Y-127087381D02*
X150542620Y-127087381D01*
X150637858Y-127135000D01*
X150685477Y-127182619D01*
X150733096Y-127277857D01*
X150780715Y-127468333D01*
X150780715Y-127706429D01*
X150733096Y-127896905D01*
X150685477Y-127992143D01*
X150637858Y-128039762D01*
X150542620Y-128087381D01*
X150447381Y-128087381D01*
X150352143Y-128039762D01*
X150304524Y-127992143D01*
X150256905Y-127896905D01*
X150209286Y-127706429D01*
X150209286Y-127468333D01*
X150256905Y-127277857D01*
X150304524Y-127182619D01*
X150352143Y-127135000D01*
X150447381Y-127087381D01*
X151399762Y-127087381D02*
X151495001Y-127087381D01*
X151590239Y-127135000D01*
X151637858Y-127182619D01*
X151685477Y-127277857D01*
X151733096Y-127468333D01*
X151733096Y-127706429D01*
X151685477Y-127896905D01*
X151637858Y-127992143D01*
X151590239Y-128039762D01*
X151495001Y-128087381D01*
X151399762Y-128087381D01*
X151304524Y-128039762D01*
X151256905Y-127992143D01*
X151209286Y-127896905D01*
X151161667Y-127706429D01*
X151161667Y-127468333D01*
X151209286Y-127277857D01*
X151256905Y-127182619D01*
X151304524Y-127135000D01*
X151399762Y-127087381D01*
X161742381Y-128277857D02*
X161266190Y-128611191D01*
X161742381Y-128849286D02*
X160742381Y-128849286D01*
X160742381Y-128468333D01*
X160790000Y-128373095D01*
X160837619Y-128325476D01*
X160932857Y-128277857D01*
X161075714Y-128277857D01*
X161170952Y-128325476D01*
X161218571Y-128373095D01*
X161266190Y-128468333D01*
X161266190Y-128849286D01*
X160837619Y-127896905D02*
X160790000Y-127849286D01*
X160742381Y-127754048D01*
X160742381Y-127515952D01*
X160790000Y-127420714D01*
X160837619Y-127373095D01*
X160932857Y-127325476D01*
X161028095Y-127325476D01*
X161170952Y-127373095D01*
X161742381Y-127944524D01*
X161742381Y-127325476D01*
X161075714Y-126468333D02*
X161742381Y-126468333D01*
X160694762Y-126706429D02*
X161409048Y-126944524D01*
X161409048Y-126325476D01*
X163798334Y-128087381D02*
X163226905Y-128087381D01*
X163512619Y-128087381D02*
X163512619Y-127087381D01*
X163417381Y-127230238D01*
X163322143Y-127325476D01*
X163226905Y-127373095D01*
X164417381Y-127087381D02*
X164512620Y-127087381D01*
X164607858Y-127135000D01*
X164655477Y-127182619D01*
X164703096Y-127277857D01*
X164750715Y-127468333D01*
X164750715Y-127706429D01*
X164703096Y-127896905D01*
X164655477Y-127992143D01*
X164607858Y-128039762D01*
X164512620Y-128087381D01*
X164417381Y-128087381D01*
X164322143Y-128039762D01*
X164274524Y-127992143D01*
X164226905Y-127896905D01*
X164179286Y-127706429D01*
X164179286Y-127468333D01*
X164226905Y-127277857D01*
X164274524Y-127182619D01*
X164322143Y-127135000D01*
X164417381Y-127087381D01*
X165369762Y-127087381D02*
X165465001Y-127087381D01*
X165560239Y-127135000D01*
X165607858Y-127182619D01*
X165655477Y-127277857D01*
X165703096Y-127468333D01*
X165703096Y-127706429D01*
X165655477Y-127896905D01*
X165607858Y-127992143D01*
X165560239Y-128039762D01*
X165465001Y-128087381D01*
X165369762Y-128087381D01*
X165274524Y-128039762D01*
X165226905Y-127992143D01*
X165179286Y-127896905D01*
X165131667Y-127706429D01*
X165131667Y-127468333D01*
X165179286Y-127277857D01*
X165226905Y-127182619D01*
X165274524Y-127135000D01*
X165369762Y-127087381D01*
X175712381Y-128277857D02*
X175236190Y-128611191D01*
X175712381Y-128849286D02*
X174712381Y-128849286D01*
X174712381Y-128468333D01*
X174760000Y-128373095D01*
X174807619Y-128325476D01*
X174902857Y-128277857D01*
X175045714Y-128277857D01*
X175140952Y-128325476D01*
X175188571Y-128373095D01*
X175236190Y-128468333D01*
X175236190Y-128849286D01*
X174807619Y-127896905D02*
X174760000Y-127849286D01*
X174712381Y-127754048D01*
X174712381Y-127515952D01*
X174760000Y-127420714D01*
X174807619Y-127373095D01*
X174902857Y-127325476D01*
X174998095Y-127325476D01*
X175140952Y-127373095D01*
X175712381Y-127944524D01*
X175712381Y-127325476D01*
X174712381Y-126420714D02*
X174712381Y-126896905D01*
X175188571Y-126944524D01*
X175140952Y-126896905D01*
X175093333Y-126801667D01*
X175093333Y-126563571D01*
X175140952Y-126468333D01*
X175188571Y-126420714D01*
X175283810Y-126373095D01*
X175521905Y-126373095D01*
X175617143Y-126420714D01*
X175664762Y-126468333D01*
X175712381Y-126563571D01*
X175712381Y-126801667D01*
X175664762Y-126896905D01*
X175617143Y-126944524D01*
X177768334Y-128087381D02*
X177196905Y-128087381D01*
X177482619Y-128087381D02*
X177482619Y-127087381D01*
X177387381Y-127230238D01*
X177292143Y-127325476D01*
X177196905Y-127373095D01*
X178387381Y-127087381D02*
X178482620Y-127087381D01*
X178577858Y-127135000D01*
X178625477Y-127182619D01*
X178673096Y-127277857D01*
X178720715Y-127468333D01*
X178720715Y-127706429D01*
X178673096Y-127896905D01*
X178625477Y-127992143D01*
X178577858Y-128039762D01*
X178482620Y-128087381D01*
X178387381Y-128087381D01*
X178292143Y-128039762D01*
X178244524Y-127992143D01*
X178196905Y-127896905D01*
X178149286Y-127706429D01*
X178149286Y-127468333D01*
X178196905Y-127277857D01*
X178244524Y-127182619D01*
X178292143Y-127135000D01*
X178387381Y-127087381D01*
X179339762Y-127087381D02*
X179435001Y-127087381D01*
X179530239Y-127135000D01*
X179577858Y-127182619D01*
X179625477Y-127277857D01*
X179673096Y-127468333D01*
X179673096Y-127706429D01*
X179625477Y-127896905D01*
X179577858Y-127992143D01*
X179530239Y-128039762D01*
X179435001Y-128087381D01*
X179339762Y-128087381D01*
X179244524Y-128039762D01*
X179196905Y-127992143D01*
X179149286Y-127896905D01*
X179101667Y-127706429D01*
X179101667Y-127468333D01*
X179149286Y-127277857D01*
X179196905Y-127182619D01*
X179244524Y-127135000D01*
X179339762Y-127087381D01*
X189682381Y-128277857D02*
X189206190Y-128611191D01*
X189682381Y-128849286D02*
X188682381Y-128849286D01*
X188682381Y-128468333D01*
X188730000Y-128373095D01*
X188777619Y-128325476D01*
X188872857Y-128277857D01*
X189015714Y-128277857D01*
X189110952Y-128325476D01*
X189158571Y-128373095D01*
X189206190Y-128468333D01*
X189206190Y-128849286D01*
X188777619Y-127896905D02*
X188730000Y-127849286D01*
X188682381Y-127754048D01*
X188682381Y-127515952D01*
X188730000Y-127420714D01*
X188777619Y-127373095D01*
X188872857Y-127325476D01*
X188968095Y-127325476D01*
X189110952Y-127373095D01*
X189682381Y-127944524D01*
X189682381Y-127325476D01*
X188682381Y-126468333D02*
X188682381Y-126658810D01*
X188730000Y-126754048D01*
X188777619Y-126801667D01*
X188920476Y-126896905D01*
X189110952Y-126944524D01*
X189491905Y-126944524D01*
X189587143Y-126896905D01*
X189634762Y-126849286D01*
X189682381Y-126754048D01*
X189682381Y-126563571D01*
X189634762Y-126468333D01*
X189587143Y-126420714D01*
X189491905Y-126373095D01*
X189253810Y-126373095D01*
X189158571Y-126420714D01*
X189110952Y-126468333D01*
X189063333Y-126563571D01*
X189063333Y-126754048D01*
X189110952Y-126849286D01*
X189158571Y-126896905D01*
X189253810Y-126944524D01*
X191738334Y-128087381D02*
X191166905Y-128087381D01*
X191452619Y-128087381D02*
X191452619Y-127087381D01*
X191357381Y-127230238D01*
X191262143Y-127325476D01*
X191166905Y-127373095D01*
X192357381Y-127087381D02*
X192452620Y-127087381D01*
X192547858Y-127135000D01*
X192595477Y-127182619D01*
X192643096Y-127277857D01*
X192690715Y-127468333D01*
X192690715Y-127706429D01*
X192643096Y-127896905D01*
X192595477Y-127992143D01*
X192547858Y-128039762D01*
X192452620Y-128087381D01*
X192357381Y-128087381D01*
X192262143Y-128039762D01*
X192214524Y-127992143D01*
X192166905Y-127896905D01*
X192119286Y-127706429D01*
X192119286Y-127468333D01*
X192166905Y-127277857D01*
X192214524Y-127182619D01*
X192262143Y-127135000D01*
X192357381Y-127087381D01*
X193309762Y-127087381D02*
X193405001Y-127087381D01*
X193500239Y-127135000D01*
X193547858Y-127182619D01*
X193595477Y-127277857D01*
X193643096Y-127468333D01*
X193643096Y-127706429D01*
X193595477Y-127896905D01*
X193547858Y-127992143D01*
X193500239Y-128039762D01*
X193405001Y-128087381D01*
X193309762Y-128087381D01*
X193214524Y-128039762D01*
X193166905Y-127992143D01*
X193119286Y-127896905D01*
X193071667Y-127706429D01*
X193071667Y-127468333D01*
X193119286Y-127277857D01*
X193166905Y-127182619D01*
X193214524Y-127135000D01*
X193309762Y-127087381D01*
X107823095Y-91527381D02*
X107823095Y-92336905D01*
X107870714Y-92432143D01*
X107918333Y-92479762D01*
X108013571Y-92527381D01*
X108204048Y-92527381D01*
X108299286Y-92479762D01*
X108346905Y-92432143D01*
X108394524Y-92336905D01*
X108394524Y-91527381D01*
X109394524Y-92527381D02*
X108823095Y-92527381D01*
X109108809Y-92527381D02*
X109108809Y-91527381D01*
X109013571Y-91670238D01*
X108918333Y-91765476D01*
X108823095Y-91813095D01*
X114355952Y-91527381D02*
X115022619Y-91527381D01*
X114594047Y-92527381D01*
X115832143Y-91860714D02*
X115832143Y-92527381D01*
X115594047Y-91479762D02*
X115355952Y-92194048D01*
X115975000Y-92194048D01*
X116832143Y-92527381D02*
X116355952Y-92527381D01*
X116355952Y-91527381D01*
X117117857Y-92479762D02*
X117260714Y-92527381D01*
X117498810Y-92527381D01*
X117594048Y-92479762D01*
X117641667Y-92432143D01*
X117689286Y-92336905D01*
X117689286Y-92241667D01*
X117641667Y-92146429D01*
X117594048Y-92098810D01*
X117498810Y-92051190D01*
X117308333Y-92003571D01*
X117213095Y-91955952D01*
X117165476Y-91908333D01*
X117117857Y-91813095D01*
X117117857Y-91717857D01*
X117165476Y-91622619D01*
X117213095Y-91575000D01*
X117308333Y-91527381D01*
X117546429Y-91527381D01*
X117689286Y-91575000D01*
X118022619Y-91527381D02*
X118641667Y-91527381D01*
X118308333Y-91908333D01*
X118451191Y-91908333D01*
X118546429Y-91955952D01*
X118594048Y-92003571D01*
X118641667Y-92098810D01*
X118641667Y-92336905D01*
X118594048Y-92432143D01*
X118546429Y-92479762D01*
X118451191Y-92527381D01*
X118165476Y-92527381D01*
X118070238Y-92479762D01*
X118022619Y-92432143D01*
X118975000Y-91527381D02*
X119641667Y-91527381D01*
X119213095Y-92527381D01*
X120451191Y-91860714D02*
X120451191Y-92527381D01*
X120213095Y-91479762D02*
X119975000Y-92194048D01*
X120594048Y-92194048D01*
X107823095Y-106767381D02*
X107823095Y-107576905D01*
X107870714Y-107672143D01*
X107918333Y-107719762D01*
X108013571Y-107767381D01*
X108204048Y-107767381D01*
X108299286Y-107719762D01*
X108346905Y-107672143D01*
X108394524Y-107576905D01*
X108394524Y-106767381D01*
X108823095Y-106862619D02*
X108870714Y-106815000D01*
X108965952Y-106767381D01*
X109204048Y-106767381D01*
X109299286Y-106815000D01*
X109346905Y-106862619D01*
X109394524Y-106957857D01*
X109394524Y-107053095D01*
X109346905Y-107195952D01*
X108775476Y-107767381D01*
X109394524Y-107767381D01*
X114355952Y-106767381D02*
X115022619Y-106767381D01*
X114594047Y-107767381D01*
X115832143Y-107100714D02*
X115832143Y-107767381D01*
X115594047Y-106719762D02*
X115355952Y-107434048D01*
X115975000Y-107434048D01*
X116832143Y-107767381D02*
X116355952Y-107767381D01*
X116355952Y-106767381D01*
X117117857Y-107719762D02*
X117260714Y-107767381D01*
X117498810Y-107767381D01*
X117594048Y-107719762D01*
X117641667Y-107672143D01*
X117689286Y-107576905D01*
X117689286Y-107481667D01*
X117641667Y-107386429D01*
X117594048Y-107338810D01*
X117498810Y-107291190D01*
X117308333Y-107243571D01*
X117213095Y-107195952D01*
X117165476Y-107148333D01*
X117117857Y-107053095D01*
X117117857Y-106957857D01*
X117165476Y-106862619D01*
X117213095Y-106815000D01*
X117308333Y-106767381D01*
X117546429Y-106767381D01*
X117689286Y-106815000D01*
X118022619Y-106767381D02*
X118641667Y-106767381D01*
X118308333Y-107148333D01*
X118451191Y-107148333D01*
X118546429Y-107195952D01*
X118594048Y-107243571D01*
X118641667Y-107338810D01*
X118641667Y-107576905D01*
X118594048Y-107672143D01*
X118546429Y-107719762D01*
X118451191Y-107767381D01*
X118165476Y-107767381D01*
X118070238Y-107719762D01*
X118022619Y-107672143D01*
X118975000Y-106767381D02*
X119641667Y-106767381D01*
X119213095Y-107767381D01*
X120451191Y-107100714D02*
X120451191Y-107767381D01*
X120213095Y-106719762D02*
X119975000Y-107434048D01*
X120594048Y-107434048D01*
M02*
