M48
;DRILL file {KiCad 4.0.7} date 01/25/20 12:18:54
;FORMAT={2:4/ absolute / inch / suppress leading zeros}
FMAT,2
INCH,TZ
T1C0.016
T2C0.031
T3C0.039
%
G90
G05
M72
T1
X37750Y-37500
X43500Y-55750
X43750Y-56000
X44000Y-55750
X45750Y-39750
X46500Y-43250
X46500Y-44250
X46500Y-45500
X46750Y-46000
X47000Y-56000
X47250Y-55750
X47500Y-55500
X47750Y-55250
X48750Y-43250
X49000Y-44250
X49250Y-45250
X49500Y-46250
X52750Y-56500
X53250Y-41500
X53500Y-56250
X54000Y-43250
X54000Y-56250
X54750Y-43250
X56500Y-56750
X57000Y-56750
X59000Y-49250
X59250Y-57000
X59500Y-49250
X59500Y-57250
X61750Y-45500
X61750Y-49500
X62000Y-46500
X62000Y-49750
X62250Y-48000
X62250Y-49500
X68000Y-45500
X68000Y-48500
X68250Y-46500
X68250Y-48750
X68500Y-47250
X68500Y-49250
T2
X38750Y-40281
X38750Y-42250
X39250Y-44250
X39250Y-50250
X40250Y-38250
X40250Y-42250
X42250Y-39250
X42250Y-41171
X42250Y-44250
X42250Y-50250
X44500Y-37750
X44500Y-38750
X44500Y-39750
X44500Y-40750
X44500Y-41750
X44500Y-42750
X44500Y-43750
X44500Y-44750
X44500Y-45750
X44500Y-46750
X44500Y-47750
X44500Y-48750
X44500Y-49750
X44500Y-50750
X50500Y-37750
X50500Y-38750
X50500Y-39750
X50500Y-40750
X50500Y-41750
X50500Y-42750
X50500Y-43750
X50500Y-44750
X50500Y-45750
X50500Y-46750
X50500Y-47750
X50500Y-48750
X50500Y-49750
X50500Y-50750
X52000Y-37800
X52000Y-41800
X52000Y-48781
X52000Y-50750
X54000Y-44750
X54000Y-45750
X54000Y-46750
X54000Y-47750
X54000Y-48750
X54000Y-49750
X54000Y-50750
X57000Y-44750
X57000Y-45750
X57000Y-46750
X57000Y-47750
X57000Y-48750
X57000Y-49750
X57000Y-50750
X58500Y-44750
X58500Y-46719
X60000Y-44750
X60000Y-45750
X60000Y-46750
X60000Y-47750
X60000Y-48750
X60000Y-49750
X60000Y-50750
X60000Y-51750
X63000Y-44750
X63000Y-45750
X63000Y-46750
X63000Y-47750
X63000Y-48750
X63000Y-49750
X63000Y-50750
X63000Y-51750
X64500Y-37750
X64500Y-41750
X64500Y-44750
X64500Y-46719
X66000Y-37750
X66000Y-41750
X66000Y-44750
X66000Y-45750
X66000Y-46750
X66000Y-47750
X66000Y-48750
X66000Y-49750
X66000Y-50750
X66000Y-51750
X67500Y-37750
X67500Y-41750
X69000Y-37750
X69000Y-41750
X69000Y-44750
X69000Y-45750
X69000Y-46750
X69000Y-47750
X69000Y-48750
X69000Y-49750
X69000Y-50750
X69000Y-51750
X70500Y-44750
X70500Y-46719
T3
X38000Y-58000
X39000Y-58000
X40000Y-58000
X41000Y-58000
X42000Y-58000
X43000Y-58000
X44000Y-58000
X45000Y-58000
X46000Y-58000
X47000Y-58000
X48000Y-58000
X49000Y-58000
X50000Y-58000
X51000Y-58000
X52000Y-58000
X53000Y-58000
X54000Y-37750
X54000Y-38750
X54000Y-39750
X54000Y-40750
X54000Y-41750
X54000Y-58000
X55000Y-37750
X55000Y-38750
X55000Y-39750
X55000Y-40750
X55000Y-41750
X55000Y-58000
X56000Y-58000
X57000Y-58000
X58000Y-58000
X59000Y-58000
X60000Y-58000
X61000Y-58000
X62000Y-58000
X63000Y-58000
X64000Y-58000
X65000Y-58000
X66000Y-58000
X67000Y-58000
X68000Y-58000
X69000Y-58000
X70000Y-58000
X71000Y-58000
X72000Y-44750
X72000Y-45750
X72000Y-46750
X72000Y-47750
X72000Y-48750
X72000Y-49750
X72000Y-58000
X73000Y-44750
X73000Y-45750
X73000Y-46750
X73000Y-47750
X73000Y-48750
X73000Y-49750
X73000Y-58000
X74000Y-58000
X75000Y-37750
X75000Y-38750
X75000Y-39750
X75000Y-40750
X75000Y-41750
X75000Y-42750
X75000Y-58000
X76000Y-58000
T0
M30
