G04 #@! TF.FileFunction,Copper,L2,Bot,Signal*
%FSLAX46Y46*%
G04 Gerber Fmt 4.6, Leading zero omitted, Abs format (unit mm)*
G04 Created by KiCad (PCBNEW 4.0.7) date 01/25/20 12:18:52*
%MOMM*%
%LPD*%
G01*
G04 APERTURE LIST*
%ADD10C,0.100000*%
%ADD11C,1.600000*%
%ADD12R,1.700000X1.700000*%
%ADD13O,1.700000X1.700000*%
%ADD14R,1.600000X1.600000*%
%ADD15O,1.600000X1.600000*%
%ADD16R,2.400000X1.600000*%
%ADD17O,2.400000X1.600000*%
%ADD18C,1.500000*%
%ADD19C,0.600000*%
%ADD20C,0.250000*%
%ADD21C,0.254000*%
G04 APERTURE END LIST*
D10*
D11*
X98425000Y-107315000D03*
X98425000Y-102315000D03*
D12*
X193040000Y-147320000D03*
D13*
X190500000Y-147320000D03*
X187960000Y-147320000D03*
X185420000Y-147320000D03*
X182880000Y-147320000D03*
X180340000Y-147320000D03*
X177800000Y-147320000D03*
X175260000Y-147320000D03*
X172720000Y-147320000D03*
X170180000Y-147320000D03*
X167640000Y-147320000D03*
X165100000Y-147320000D03*
X162560000Y-147320000D03*
X160020000Y-147320000D03*
X157480000Y-147320000D03*
X154940000Y-147320000D03*
X152400000Y-147320000D03*
X149860000Y-147320000D03*
X147320000Y-147320000D03*
X144780000Y-147320000D03*
X142240000Y-147320000D03*
X139700000Y-147320000D03*
X137160000Y-147320000D03*
X134620000Y-147320000D03*
X132080000Y-147320000D03*
X129540000Y-147320000D03*
X127000000Y-147320000D03*
X124460000Y-147320000D03*
X121920000Y-147320000D03*
X119380000Y-147320000D03*
X116840000Y-147320000D03*
X114300000Y-147320000D03*
X111760000Y-147320000D03*
X109220000Y-147320000D03*
X106680000Y-147320000D03*
X104140000Y-147320000D03*
X101600000Y-147320000D03*
X99060000Y-147320000D03*
X96520000Y-147320000D03*
D14*
X167640000Y-113665000D03*
D15*
X175260000Y-131445000D03*
X167640000Y-116205000D03*
X175260000Y-128905000D03*
X167640000Y-118745000D03*
X175260000Y-126365000D03*
X167640000Y-121285000D03*
X175260000Y-123825000D03*
X167640000Y-123825000D03*
X175260000Y-121285000D03*
X167640000Y-126365000D03*
X175260000Y-118745000D03*
X167640000Y-128905000D03*
X175260000Y-116205000D03*
X167640000Y-131445000D03*
X175260000Y-113665000D03*
D14*
X152400000Y-113665000D03*
D15*
X160020000Y-131445000D03*
X152400000Y-116205000D03*
X160020000Y-128905000D03*
X152400000Y-118745000D03*
X160020000Y-126365000D03*
X152400000Y-121285000D03*
X160020000Y-123825000D03*
X152400000Y-123825000D03*
X160020000Y-121285000D03*
X152400000Y-126365000D03*
X160020000Y-118745000D03*
X152400000Y-128905000D03*
X160020000Y-116205000D03*
X152400000Y-131445000D03*
X160020000Y-113665000D03*
D12*
X182880000Y-113665000D03*
D13*
X185420000Y-113665000D03*
X182880000Y-116205000D03*
X185420000Y-116205000D03*
X182880000Y-118745000D03*
X185420000Y-118745000D03*
X182880000Y-121285000D03*
X185420000Y-121285000D03*
X182880000Y-123825000D03*
X185420000Y-123825000D03*
X182880000Y-126365000D03*
X185420000Y-126365000D03*
D11*
X132080000Y-128905000D03*
X132080000Y-123905000D03*
X179070000Y-113665000D03*
X179070000Y-118665000D03*
X148590000Y-113665000D03*
X148590000Y-118665000D03*
X163830000Y-113665000D03*
X163830000Y-118665000D03*
D14*
X107315000Y-127635000D03*
D11*
X99695000Y-127635000D03*
X99695000Y-112395000D03*
X107315000Y-112395000D03*
D12*
X137160000Y-95885000D03*
D13*
X139700000Y-95885000D03*
X137160000Y-98425000D03*
X139700000Y-98425000D03*
X137160000Y-100965000D03*
X139700000Y-100965000D03*
X137160000Y-103505000D03*
X139700000Y-103505000D03*
X137160000Y-106045000D03*
X139700000Y-106045000D03*
D12*
X190500000Y-95885000D03*
D13*
X190500000Y-98425000D03*
X190500000Y-100965000D03*
X190500000Y-103505000D03*
X190500000Y-106045000D03*
X190500000Y-108585000D03*
D11*
X132080000Y-96012000D03*
D15*
X132080000Y-106172000D03*
D11*
X102235000Y-97155000D03*
D15*
X102235000Y-107315000D03*
D11*
X167640000Y-106045000D03*
D15*
X167640000Y-95885000D03*
D11*
X171450000Y-106045000D03*
D15*
X171450000Y-95885000D03*
D11*
X175260000Y-106045000D03*
D15*
X175260000Y-95885000D03*
D11*
X163830000Y-106045000D03*
D15*
X163830000Y-95885000D03*
D16*
X113030000Y-95885000D03*
D17*
X128270000Y-128905000D03*
X113030000Y-98425000D03*
X128270000Y-126365000D03*
X113030000Y-100965000D03*
X128270000Y-123825000D03*
X113030000Y-103505000D03*
X128270000Y-121285000D03*
X113030000Y-106045000D03*
X128270000Y-118745000D03*
X113030000Y-108585000D03*
X128270000Y-116205000D03*
X113030000Y-111125000D03*
X128270000Y-113665000D03*
X113030000Y-113665000D03*
X128270000Y-111125000D03*
X113030000Y-116205000D03*
X128270000Y-108585000D03*
X113030000Y-118745000D03*
X128270000Y-106045000D03*
X113030000Y-121285000D03*
X128270000Y-103505000D03*
X113030000Y-123825000D03*
X128270000Y-100965000D03*
X113030000Y-126365000D03*
X128270000Y-98425000D03*
X113030000Y-128905000D03*
X128270000Y-95885000D03*
D16*
X137160000Y-113665000D03*
D17*
X144780000Y-128905000D03*
X137160000Y-116205000D03*
X144780000Y-126365000D03*
X137160000Y-118745000D03*
X144780000Y-123825000D03*
X137160000Y-121285000D03*
X144780000Y-121285000D03*
X137160000Y-123825000D03*
X144780000Y-118745000D03*
X137160000Y-126365000D03*
X144780000Y-116205000D03*
X137160000Y-128905000D03*
X144780000Y-113665000D03*
D18*
X107315000Y-99695000D03*
X107315000Y-104575000D03*
D19*
X95885000Y-95250000D03*
X173990000Y-120015000D03*
X173990000Y-125095000D03*
X173355000Y-118110000D03*
X173355000Y-123825000D03*
X172720000Y-123190000D03*
X172720000Y-115570000D03*
X158115000Y-121920000D03*
X158115000Y-125730000D03*
X157480000Y-118110000D03*
X157480000Y-126365000D03*
X156845000Y-115570000D03*
X156845000Y-125730000D03*
X150495000Y-144780000D03*
X111125000Y-142240000D03*
X151130000Y-145415000D03*
X110490000Y-141605000D03*
X144780000Y-144145000D03*
X120015000Y-141605000D03*
X119380000Y-142240000D03*
X133985000Y-143510000D03*
X135255000Y-105410000D03*
X118745000Y-116840000D03*
X125730000Y-117475000D03*
X151130000Y-125095000D03*
X149860000Y-125095000D03*
X116205000Y-100965000D03*
X143510000Y-144145000D03*
X111760000Y-141605000D03*
X137160000Y-142875000D03*
X121285000Y-140335000D03*
X135890000Y-142875000D03*
X120650000Y-140970000D03*
X139065000Y-109855000D03*
X137160000Y-109855000D03*
X123825000Y-109855000D03*
X118110000Y-109855000D03*
X124460000Y-112395000D03*
X118110000Y-112395000D03*
X118110000Y-115570000D03*
X125095000Y-114935000D03*
D20*
X95885000Y-95250000D02*
X95885000Y-107950000D01*
X95885000Y-128270000D02*
X95885000Y-107950000D01*
X99695000Y-127635000D02*
X96520000Y-127635000D01*
X96520000Y-127635000D02*
X95885000Y-128270000D01*
X149860000Y-147320000D02*
X149860000Y-146685000D01*
X149860000Y-146685000D02*
X149225000Y-146050000D01*
X95885000Y-139700000D02*
X95885000Y-128270000D01*
X95885000Y-144780000D02*
X95885000Y-139700000D01*
X149225000Y-146050000D02*
X96520000Y-146050000D01*
X96520000Y-146050000D02*
X95885000Y-145415000D01*
X95885000Y-145415000D02*
X95885000Y-144780000D01*
X159385000Y-113665000D02*
X160020000Y-113665000D01*
X173990000Y-120015000D02*
X173990000Y-125095000D01*
X173355000Y-118110000D02*
X173355000Y-123825000D01*
X172720000Y-123190000D02*
X172720000Y-115570000D01*
X158115000Y-125730000D02*
X158115000Y-121920000D01*
X157480000Y-126365000D02*
X157480000Y-118110000D01*
X156845000Y-125730000D02*
X156845000Y-115570000D01*
X111760000Y-144780000D02*
X150495000Y-144780000D01*
X111125000Y-144145000D02*
X111760000Y-144780000D01*
X111125000Y-142240000D02*
X111125000Y-144145000D01*
X110490000Y-141605000D02*
X110490000Y-144780000D01*
X111125000Y-145415000D02*
X110490000Y-144780000D01*
X151130000Y-145415000D02*
X111125000Y-145415000D01*
X144145000Y-143510000D02*
X144780000Y-144145000D01*
X135255000Y-143510000D02*
X134620000Y-142875000D01*
X135890000Y-143510000D02*
X135255000Y-143510000D01*
X144145000Y-143510000D02*
X135890000Y-143510000D01*
X120015000Y-142240000D02*
X120015000Y-141605000D01*
X120650000Y-142875000D02*
X120015000Y-142240000D01*
X134620000Y-142875000D02*
X120650000Y-142875000D01*
X119380000Y-142875000D02*
X119380000Y-142240000D01*
X120015000Y-143510000D02*
X119380000Y-142875000D01*
X133985000Y-143510000D02*
X120015000Y-143510000D01*
X137160000Y-98425000D02*
X135890000Y-98425000D01*
X135255000Y-99060000D02*
X135255000Y-105410000D01*
X135890000Y-98425000D02*
X135255000Y-99060000D01*
X136525000Y-98425000D02*
X137160000Y-98425000D01*
X119380000Y-117475000D02*
X118745000Y-116840000D01*
X151130000Y-125095000D02*
X149860000Y-125095000D01*
X125730000Y-117475000D02*
X119380000Y-117475000D01*
X116205000Y-100965000D02*
X113030000Y-100965000D01*
X112395000Y-144145000D02*
X143510000Y-144145000D01*
X111760000Y-143510000D02*
X112395000Y-144145000D01*
X111760000Y-141605000D02*
X111760000Y-143510000D01*
X135890000Y-141605000D02*
X137160000Y-142875000D01*
X121285000Y-140970000D02*
X121285000Y-140335000D01*
X121920000Y-141605000D02*
X121285000Y-140970000D01*
X135890000Y-141605000D02*
X121920000Y-141605000D01*
X135255000Y-142240000D02*
X135890000Y-142875000D01*
X120650000Y-141605000D02*
X120650000Y-140970000D01*
X121285000Y-142240000D02*
X120650000Y-141605000D01*
X135255000Y-142240000D02*
X121285000Y-142240000D01*
X139700000Y-98425000D02*
X139700000Y-95885000D01*
X139700000Y-100965000D02*
X139700000Y-98425000D01*
X138430000Y-107315000D02*
X138430000Y-107950000D01*
X139065000Y-108585000D02*
X138430000Y-107950000D01*
X139065000Y-108585000D02*
X139065000Y-109855000D01*
X138430000Y-101600000D02*
X137795000Y-100965000D01*
X138430000Y-107315000D02*
X138430000Y-101600000D01*
X137795000Y-100965000D02*
X137160000Y-100965000D01*
X137160000Y-109855000D02*
X137160000Y-106045000D01*
X137160000Y-116205000D02*
X137160000Y-113665000D01*
X137160000Y-106045000D02*
X137160000Y-103505000D01*
X118110000Y-109855000D02*
X118745000Y-109855000D01*
X119380000Y-109855000D02*
X118745000Y-109855000D01*
X123825000Y-109855000D02*
X119380000Y-109855000D01*
X124460000Y-112395000D02*
X118745000Y-112395000D01*
X118745000Y-112395000D02*
X118110000Y-112395000D01*
X118745000Y-114935000D02*
X118110000Y-115570000D01*
X125095000Y-114935000D02*
X119380000Y-114935000D01*
X119380000Y-114935000D02*
X118745000Y-114935000D01*
D21*
G36*
X191289001Y-91177161D02*
X192496209Y-91983791D01*
X193302839Y-93191001D01*
X193600000Y-94684931D01*
X193600000Y-145822560D01*
X192190000Y-145822560D01*
X191954683Y-145866838D01*
X191738559Y-146005910D01*
X191593569Y-146218110D01*
X191579914Y-146285541D01*
X191550054Y-146240853D01*
X191068285Y-145918946D01*
X190500000Y-145805907D01*
X189931715Y-145918946D01*
X189449946Y-146240853D01*
X189230000Y-146570026D01*
X189010054Y-146240853D01*
X188528285Y-145918946D01*
X187960000Y-145805907D01*
X187391715Y-145918946D01*
X186909946Y-146240853D01*
X186690000Y-146570026D01*
X186470054Y-146240853D01*
X185988285Y-145918946D01*
X185420000Y-145805907D01*
X184851715Y-145918946D01*
X184369946Y-146240853D01*
X184150000Y-146570026D01*
X183930054Y-146240853D01*
X183448285Y-145918946D01*
X182880000Y-145805907D01*
X182311715Y-145918946D01*
X181829946Y-146240853D01*
X181610000Y-146570026D01*
X181390054Y-146240853D01*
X180908285Y-145918946D01*
X180340000Y-145805907D01*
X179771715Y-145918946D01*
X179289946Y-146240853D01*
X179070000Y-146570026D01*
X178850054Y-146240853D01*
X178368285Y-145918946D01*
X177800000Y-145805907D01*
X177231715Y-145918946D01*
X176749946Y-146240853D01*
X176530000Y-146570026D01*
X176310054Y-146240853D01*
X175828285Y-145918946D01*
X175260000Y-145805907D01*
X174691715Y-145918946D01*
X174209946Y-146240853D01*
X173990000Y-146570026D01*
X173770054Y-146240853D01*
X173288285Y-145918946D01*
X172720000Y-145805907D01*
X172151715Y-145918946D01*
X171669946Y-146240853D01*
X171450000Y-146570026D01*
X171230054Y-146240853D01*
X170748285Y-145918946D01*
X170180000Y-145805907D01*
X169611715Y-145918946D01*
X169129946Y-146240853D01*
X168910000Y-146570026D01*
X168690054Y-146240853D01*
X168208285Y-145918946D01*
X167640000Y-145805907D01*
X167071715Y-145918946D01*
X166589946Y-146240853D01*
X166370000Y-146570026D01*
X166150054Y-146240853D01*
X165668285Y-145918946D01*
X165100000Y-145805907D01*
X164531715Y-145918946D01*
X164049946Y-146240853D01*
X163830000Y-146570026D01*
X163610054Y-146240853D01*
X163128285Y-145918946D01*
X162560000Y-145805907D01*
X161991715Y-145918946D01*
X161509946Y-146240853D01*
X161290000Y-146570026D01*
X161070054Y-146240853D01*
X160588285Y-145918946D01*
X160020000Y-145805907D01*
X159451715Y-145918946D01*
X158969946Y-146240853D01*
X158750000Y-146570026D01*
X158530054Y-146240853D01*
X158048285Y-145918946D01*
X157480000Y-145805907D01*
X156911715Y-145918946D01*
X156429946Y-146240853D01*
X156210000Y-146570026D01*
X155990054Y-146240853D01*
X155508285Y-145918946D01*
X154940000Y-145805907D01*
X154371715Y-145918946D01*
X153889946Y-146240853D01*
X153662298Y-146581553D01*
X153595183Y-146438642D01*
X153166924Y-146048355D01*
X152756890Y-145878524D01*
X152527000Y-145999845D01*
X152527000Y-147193000D01*
X152547000Y-147193000D01*
X152547000Y-147447000D01*
X152527000Y-147447000D01*
X152527000Y-147467000D01*
X152273000Y-147467000D01*
X152273000Y-147447000D01*
X152253000Y-147447000D01*
X152253000Y-147193000D01*
X152273000Y-147193000D01*
X152273000Y-145999845D01*
X152043110Y-145878524D01*
X151930577Y-145925134D01*
X152064838Y-145601799D01*
X152065162Y-145229833D01*
X151923117Y-144886057D01*
X151660327Y-144622808D01*
X151396446Y-144513235D01*
X151288117Y-144251057D01*
X151025327Y-143987808D01*
X150681799Y-143845162D01*
X150309833Y-143844838D01*
X149966057Y-143986883D01*
X149932882Y-144020000D01*
X145715110Y-144020000D01*
X145715162Y-143959833D01*
X145573117Y-143616057D01*
X145310327Y-143352808D01*
X144966799Y-143210162D01*
X144919923Y-143210121D01*
X144682401Y-142972599D01*
X144435839Y-142807852D01*
X144145000Y-142750000D01*
X138095110Y-142750000D01*
X138095162Y-142689833D01*
X137953117Y-142346057D01*
X137690327Y-142082808D01*
X137346799Y-141940162D01*
X137299923Y-141940121D01*
X136427401Y-141067599D01*
X136180839Y-140902852D01*
X135890000Y-140845000D01*
X122234802Y-140845000D01*
X122129400Y-140739598D01*
X122219838Y-140521799D01*
X122220162Y-140149833D01*
X122078117Y-139806057D01*
X121815327Y-139542808D01*
X121471799Y-139400162D01*
X121099833Y-139399838D01*
X120756057Y-139541883D01*
X120492808Y-139804673D01*
X120383235Y-140068554D01*
X120121057Y-140176883D01*
X119857808Y-140439673D01*
X119748235Y-140703554D01*
X119486057Y-140811883D01*
X119222808Y-141074673D01*
X119113235Y-141338554D01*
X118851057Y-141446883D01*
X118587808Y-141709673D01*
X118445162Y-142053201D01*
X118444838Y-142425167D01*
X118586883Y-142768943D01*
X118620000Y-142802118D01*
X118620000Y-142875000D01*
X118677852Y-143165839D01*
X118824290Y-143385000D01*
X112709802Y-143385000D01*
X112520000Y-143195198D01*
X112520000Y-142167463D01*
X112552192Y-142135327D01*
X112694838Y-141791799D01*
X112695162Y-141419833D01*
X112553117Y-141076057D01*
X112290327Y-140812808D01*
X111946799Y-140670162D01*
X111574833Y-140669838D01*
X111231057Y-140811883D01*
X111125046Y-140917710D01*
X111020327Y-140812808D01*
X110676799Y-140670162D01*
X110304833Y-140669838D01*
X109961057Y-140811883D01*
X109697808Y-141074673D01*
X109555162Y-141418201D01*
X109554838Y-141790167D01*
X109696883Y-142133943D01*
X109730000Y-142167118D01*
X109730000Y-144780000D01*
X109787852Y-145070839D01*
X109934290Y-145290000D01*
X96834802Y-145290000D01*
X96645000Y-145100198D01*
X96645000Y-131794039D01*
X151008096Y-131794039D01*
X151168959Y-132182423D01*
X151544866Y-132597389D01*
X152050959Y-132836914D01*
X152273000Y-132715629D01*
X152273000Y-131572000D01*
X152527000Y-131572000D01*
X152527000Y-132715629D01*
X152749041Y-132836914D01*
X153255134Y-132597389D01*
X153631041Y-132182423D01*
X153791904Y-131794039D01*
X153669915Y-131572000D01*
X152527000Y-131572000D01*
X152273000Y-131572000D01*
X151130085Y-131572000D01*
X151008096Y-131794039D01*
X96645000Y-131794039D01*
X96645000Y-128584802D01*
X96834802Y-128395000D01*
X98456354Y-128395000D01*
X98477757Y-128446800D01*
X98881077Y-128850824D01*
X99408309Y-129069750D01*
X99979187Y-129070248D01*
X100506800Y-128852243D01*
X100910824Y-128448923D01*
X101129750Y-127921691D01*
X101130248Y-127350813D01*
X100917119Y-126835000D01*
X105867560Y-126835000D01*
X105867560Y-128435000D01*
X105911838Y-128670317D01*
X106050910Y-128886441D01*
X106263110Y-129031431D01*
X106515000Y-129082440D01*
X108115000Y-129082440D01*
X108350317Y-129038162D01*
X108566441Y-128899090D01*
X108711431Y-128686890D01*
X108762440Y-128435000D01*
X108762440Y-126835000D01*
X108718162Y-126599683D01*
X108579090Y-126383559D01*
X108366890Y-126238569D01*
X108115000Y-126187560D01*
X106515000Y-126187560D01*
X106279683Y-126231838D01*
X106063559Y-126370910D01*
X105918569Y-126583110D01*
X105867560Y-126835000D01*
X100917119Y-126835000D01*
X100912243Y-126823200D01*
X100508923Y-126419176D01*
X99981691Y-126200250D01*
X99410813Y-126199752D01*
X98883200Y-126417757D01*
X98479176Y-126821077D01*
X98456785Y-126875000D01*
X96645000Y-126875000D01*
X96645000Y-112679187D01*
X98259752Y-112679187D01*
X98477757Y-113206800D01*
X98881077Y-113610824D01*
X99408309Y-113829750D01*
X99979187Y-113830248D01*
X100506800Y-113612243D01*
X100716663Y-113402745D01*
X106486861Y-113402745D01*
X106560995Y-113648864D01*
X107098223Y-113841965D01*
X107668454Y-113814778D01*
X108069005Y-113648864D01*
X108143139Y-113402745D01*
X107315000Y-112574605D01*
X106486861Y-113402745D01*
X100716663Y-113402745D01*
X100910824Y-113208923D01*
X101129750Y-112681691D01*
X101130189Y-112178223D01*
X105868035Y-112178223D01*
X105895222Y-112748454D01*
X106061136Y-113149005D01*
X106307255Y-113223139D01*
X107135395Y-112395000D01*
X107494605Y-112395000D01*
X108322745Y-113223139D01*
X108568864Y-113149005D01*
X108761965Y-112611777D01*
X108734778Y-112041546D01*
X108568864Y-111640995D01*
X108322745Y-111566861D01*
X107494605Y-112395000D01*
X107135395Y-112395000D01*
X106307255Y-111566861D01*
X106061136Y-111640995D01*
X105868035Y-112178223D01*
X101130189Y-112178223D01*
X101130248Y-112110813D01*
X100912243Y-111583200D01*
X100716640Y-111387255D01*
X106486861Y-111387255D01*
X107315000Y-112215395D01*
X108143139Y-111387255D01*
X108069005Y-111141136D01*
X107531777Y-110948035D01*
X106961546Y-110975222D01*
X106560995Y-111141136D01*
X106486861Y-111387255D01*
X100716640Y-111387255D01*
X100508923Y-111179176D01*
X99981691Y-110960250D01*
X99410813Y-110959752D01*
X98883200Y-111177757D01*
X98479176Y-111581077D01*
X98260250Y-112108309D01*
X98259752Y-112679187D01*
X96645000Y-112679187D01*
X96645000Y-107599187D01*
X96989752Y-107599187D01*
X97207757Y-108126800D01*
X97611077Y-108530824D01*
X98138309Y-108749750D01*
X98709187Y-108750248D01*
X99236800Y-108532243D01*
X99640824Y-108128923D01*
X99859750Y-107601691D01*
X99860024Y-107286887D01*
X100800000Y-107286887D01*
X100800000Y-107343113D01*
X100909233Y-107892264D01*
X101220302Y-108357811D01*
X101685849Y-108668880D01*
X102235000Y-108778113D01*
X102784151Y-108668880D01*
X103249698Y-108357811D01*
X103560767Y-107892264D01*
X103670000Y-107343113D01*
X103670000Y-107286887D01*
X103560767Y-106737736D01*
X103249698Y-106272189D01*
X102784151Y-105961120D01*
X102235000Y-105851887D01*
X101685849Y-105961120D01*
X101220302Y-106272189D01*
X100909233Y-106737736D01*
X100800000Y-107286887D01*
X99860024Y-107286887D01*
X99860248Y-107030813D01*
X99642243Y-106503200D01*
X99238923Y-106099176D01*
X98711691Y-105880250D01*
X98140813Y-105879752D01*
X97613200Y-106097757D01*
X97209176Y-106501077D01*
X96990250Y-107028309D01*
X96989752Y-107599187D01*
X96645000Y-107599187D01*
X96645000Y-104849285D01*
X105929760Y-104849285D01*
X106140169Y-105358515D01*
X106529436Y-105748461D01*
X107038298Y-105959759D01*
X107589285Y-105960240D01*
X108098515Y-105749831D01*
X108488461Y-105360564D01*
X108699759Y-104851702D01*
X108700240Y-104300715D01*
X108489831Y-103791485D01*
X108100564Y-103401539D01*
X107591702Y-103190241D01*
X107040715Y-103189760D01*
X106531485Y-103400169D01*
X106141539Y-103789436D01*
X105930241Y-104298298D01*
X105929760Y-104849285D01*
X96645000Y-104849285D01*
X96645000Y-103322745D01*
X97596861Y-103322745D01*
X97670995Y-103568864D01*
X98208223Y-103761965D01*
X98778454Y-103734778D01*
X99179005Y-103568864D01*
X99253139Y-103322745D01*
X98425000Y-102494605D01*
X97596861Y-103322745D01*
X96645000Y-103322745D01*
X96645000Y-102098223D01*
X96978035Y-102098223D01*
X97005222Y-102668454D01*
X97171136Y-103069005D01*
X97417255Y-103143139D01*
X98245395Y-102315000D01*
X98604605Y-102315000D01*
X99432745Y-103143139D01*
X99678864Y-103069005D01*
X99871965Y-102531777D01*
X99844778Y-101961546D01*
X99678864Y-101560995D01*
X99432745Y-101486861D01*
X98604605Y-102315000D01*
X98245395Y-102315000D01*
X97417255Y-101486861D01*
X97171136Y-101560995D01*
X96978035Y-102098223D01*
X96645000Y-102098223D01*
X96645000Y-101307255D01*
X97596861Y-101307255D01*
X98425000Y-102135395D01*
X99253139Y-101307255D01*
X99179005Y-101061136D01*
X98641777Y-100868035D01*
X98071546Y-100895222D01*
X97670995Y-101061136D01*
X97596861Y-101307255D01*
X96645000Y-101307255D01*
X96645000Y-99969285D01*
X105929760Y-99969285D01*
X106140169Y-100478515D01*
X106529436Y-100868461D01*
X107038298Y-101079759D01*
X107589285Y-101080240D01*
X108098515Y-100869831D01*
X108488461Y-100480564D01*
X108699759Y-99971702D01*
X108700240Y-99420715D01*
X108489831Y-98911485D01*
X108100564Y-98521539D01*
X107868073Y-98425000D01*
X111159050Y-98425000D01*
X111268283Y-98974151D01*
X111579352Y-99439698D01*
X111961438Y-99695000D01*
X111579352Y-99950302D01*
X111268283Y-100415849D01*
X111159050Y-100965000D01*
X111268283Y-101514151D01*
X111579352Y-101979698D01*
X111961438Y-102235000D01*
X111579352Y-102490302D01*
X111268283Y-102955849D01*
X111159050Y-103505000D01*
X111268283Y-104054151D01*
X111579352Y-104519698D01*
X111961438Y-104775000D01*
X111579352Y-105030302D01*
X111268283Y-105495849D01*
X111159050Y-106045000D01*
X111268283Y-106594151D01*
X111579352Y-107059698D01*
X111961438Y-107315000D01*
X111579352Y-107570302D01*
X111268283Y-108035849D01*
X111159050Y-108585000D01*
X111268283Y-109134151D01*
X111579352Y-109599698D01*
X111961438Y-109855000D01*
X111579352Y-110110302D01*
X111268283Y-110575849D01*
X111159050Y-111125000D01*
X111268283Y-111674151D01*
X111579352Y-112139698D01*
X111961438Y-112395000D01*
X111579352Y-112650302D01*
X111268283Y-113115849D01*
X111159050Y-113665000D01*
X111268283Y-114214151D01*
X111579352Y-114679698D01*
X111961438Y-114935000D01*
X111579352Y-115190302D01*
X111268283Y-115655849D01*
X111159050Y-116205000D01*
X111268283Y-116754151D01*
X111579352Y-117219698D01*
X111961438Y-117475000D01*
X111579352Y-117730302D01*
X111268283Y-118195849D01*
X111159050Y-118745000D01*
X111268283Y-119294151D01*
X111579352Y-119759698D01*
X111961438Y-120015000D01*
X111579352Y-120270302D01*
X111268283Y-120735849D01*
X111159050Y-121285000D01*
X111268283Y-121834151D01*
X111579352Y-122299698D01*
X111961438Y-122555000D01*
X111579352Y-122810302D01*
X111268283Y-123275849D01*
X111159050Y-123825000D01*
X111268283Y-124374151D01*
X111579352Y-124839698D01*
X111961438Y-125095000D01*
X111579352Y-125350302D01*
X111268283Y-125815849D01*
X111159050Y-126365000D01*
X111268283Y-126914151D01*
X111579352Y-127379698D01*
X111961438Y-127635000D01*
X111579352Y-127890302D01*
X111268283Y-128355849D01*
X111159050Y-128905000D01*
X111268283Y-129454151D01*
X111579352Y-129919698D01*
X112044899Y-130230767D01*
X112594050Y-130340000D01*
X113465950Y-130340000D01*
X114015101Y-130230767D01*
X114480648Y-129919698D01*
X114791717Y-129454151D01*
X114900950Y-128905000D01*
X126399050Y-128905000D01*
X126508283Y-129454151D01*
X126819352Y-129919698D01*
X127284899Y-130230767D01*
X127834050Y-130340000D01*
X128705950Y-130340000D01*
X129255101Y-130230767D01*
X129720648Y-129919698D01*
X130031717Y-129454151D01*
X130084421Y-129189187D01*
X130644752Y-129189187D01*
X130862757Y-129716800D01*
X131266077Y-130120824D01*
X131793309Y-130339750D01*
X132364187Y-130340248D01*
X132891800Y-130122243D01*
X133295824Y-129718923D01*
X133488860Y-129254039D01*
X135368096Y-129254039D01*
X135385633Y-129336819D01*
X135655500Y-129829896D01*
X136093517Y-130182166D01*
X136633000Y-130340000D01*
X137033000Y-130340000D01*
X137033000Y-129032000D01*
X137287000Y-129032000D01*
X137287000Y-130340000D01*
X137687000Y-130340000D01*
X138226483Y-130182166D01*
X138664500Y-129829896D01*
X138934367Y-129336819D01*
X138951904Y-129254039D01*
X138829915Y-129032000D01*
X137287000Y-129032000D01*
X137033000Y-129032000D01*
X135490085Y-129032000D01*
X135368096Y-129254039D01*
X133488860Y-129254039D01*
X133514750Y-129191691D01*
X133515000Y-128905000D01*
X142909050Y-128905000D01*
X143018283Y-129454151D01*
X143329352Y-129919698D01*
X143794899Y-130230767D01*
X144344050Y-130340000D01*
X145215950Y-130340000D01*
X145765101Y-130230767D01*
X146230648Y-129919698D01*
X146541717Y-129454151D01*
X146650950Y-128905000D01*
X146541717Y-128355849D01*
X146230648Y-127890302D01*
X145852293Y-127637493D01*
X146284500Y-127289896D01*
X146554367Y-126796819D01*
X146571904Y-126714039D01*
X146449915Y-126492000D01*
X144907000Y-126492000D01*
X144907000Y-126512000D01*
X144653000Y-126512000D01*
X144653000Y-126492000D01*
X143110085Y-126492000D01*
X142988096Y-126714039D01*
X143005633Y-126796819D01*
X143275500Y-127289896D01*
X143707707Y-127637493D01*
X143329352Y-127890302D01*
X143018283Y-128355849D01*
X142909050Y-128905000D01*
X133515000Y-128905000D01*
X133515248Y-128620813D01*
X133297243Y-128093200D01*
X132893923Y-127689176D01*
X132366691Y-127470250D01*
X131795813Y-127469752D01*
X131268200Y-127687757D01*
X130864176Y-128091077D01*
X130645250Y-128618309D01*
X130644752Y-129189187D01*
X130084421Y-129189187D01*
X130140950Y-128905000D01*
X130031717Y-128355849D01*
X129720648Y-127890302D01*
X129342293Y-127637493D01*
X129774500Y-127289896D01*
X130044367Y-126796819D01*
X130061904Y-126714039D01*
X129939915Y-126492000D01*
X128397000Y-126492000D01*
X128397000Y-126512000D01*
X128143000Y-126512000D01*
X128143000Y-126492000D01*
X126600085Y-126492000D01*
X126478096Y-126714039D01*
X126495633Y-126796819D01*
X126765500Y-127289896D01*
X127197707Y-127637493D01*
X126819352Y-127890302D01*
X126508283Y-128355849D01*
X126399050Y-128905000D01*
X114900950Y-128905000D01*
X114791717Y-128355849D01*
X114480648Y-127890302D01*
X114098562Y-127635000D01*
X114480648Y-127379698D01*
X114791717Y-126914151D01*
X114900950Y-126365000D01*
X135289050Y-126365000D01*
X135398283Y-126914151D01*
X135709352Y-127379698D01*
X136087707Y-127632507D01*
X135655500Y-127980104D01*
X135385633Y-128473181D01*
X135368096Y-128555961D01*
X135490085Y-128778000D01*
X137033000Y-128778000D01*
X137033000Y-128758000D01*
X137287000Y-128758000D01*
X137287000Y-128778000D01*
X138829915Y-128778000D01*
X138951904Y-128555961D01*
X138934367Y-128473181D01*
X138664500Y-127980104D01*
X138232293Y-127632507D01*
X138610648Y-127379698D01*
X138921717Y-126914151D01*
X139030950Y-126365000D01*
X138921717Y-125815849D01*
X138610648Y-125350302D01*
X138232293Y-125097493D01*
X138664500Y-124749896D01*
X138934367Y-124256819D01*
X138951904Y-124174039D01*
X142988096Y-124174039D01*
X143005633Y-124256819D01*
X143275500Y-124749896D01*
X143704607Y-125095000D01*
X143275500Y-125440104D01*
X143005633Y-125933181D01*
X142988096Y-126015961D01*
X143110085Y-126238000D01*
X144653000Y-126238000D01*
X144653000Y-123952000D01*
X144907000Y-123952000D01*
X144907000Y-126238000D01*
X146449915Y-126238000D01*
X146571904Y-126015961D01*
X146554367Y-125933181D01*
X146284500Y-125440104D01*
X146085633Y-125280167D01*
X148924838Y-125280167D01*
X149066883Y-125623943D01*
X149329673Y-125887192D01*
X149673201Y-126029838D01*
X150045167Y-126030162D01*
X150388943Y-125888117D01*
X150422118Y-125855000D01*
X150567537Y-125855000D01*
X150599673Y-125887192D01*
X150943201Y-126029838D01*
X151003544Y-126029891D01*
X150936887Y-126365000D01*
X151046120Y-126914151D01*
X151357189Y-127379698D01*
X151739275Y-127635000D01*
X151357189Y-127890302D01*
X151046120Y-128355849D01*
X150936887Y-128905000D01*
X151046120Y-129454151D01*
X151357189Y-129919698D01*
X151761703Y-130189986D01*
X151544866Y-130292611D01*
X151168959Y-130707577D01*
X151008096Y-131095961D01*
X151130085Y-131318000D01*
X152273000Y-131318000D01*
X152273000Y-131298000D01*
X152527000Y-131298000D01*
X152527000Y-131318000D01*
X153669915Y-131318000D01*
X153791904Y-131095961D01*
X153631041Y-130707577D01*
X153255134Y-130292611D01*
X153038297Y-130189986D01*
X153442811Y-129919698D01*
X153753880Y-129454151D01*
X153863113Y-128905000D01*
X153753880Y-128355849D01*
X153442811Y-127890302D01*
X153060725Y-127635000D01*
X153442811Y-127379698D01*
X153753880Y-126914151D01*
X153863113Y-126365000D01*
X153753880Y-125815849D01*
X153442811Y-125350302D01*
X153060725Y-125095000D01*
X153442811Y-124839698D01*
X153753880Y-124374151D01*
X153863113Y-123825000D01*
X153753880Y-123275849D01*
X153442811Y-122810302D01*
X153038297Y-122540014D01*
X153255134Y-122437389D01*
X153631041Y-122022423D01*
X153791904Y-121634039D01*
X153669915Y-121412000D01*
X152527000Y-121412000D01*
X152527000Y-121432000D01*
X152273000Y-121432000D01*
X152273000Y-121412000D01*
X151130085Y-121412000D01*
X151008096Y-121634039D01*
X151168959Y-122022423D01*
X151544866Y-122437389D01*
X151761703Y-122540014D01*
X151357189Y-122810302D01*
X151046120Y-123275849D01*
X150936887Y-123825000D01*
X151003501Y-124159889D01*
X150944833Y-124159838D01*
X150601057Y-124301883D01*
X150567882Y-124335000D01*
X150422463Y-124335000D01*
X150390327Y-124302808D01*
X150046799Y-124160162D01*
X149674833Y-124159838D01*
X149331057Y-124301883D01*
X149067808Y-124564673D01*
X148925162Y-124908201D01*
X148924838Y-125280167D01*
X146085633Y-125280167D01*
X145855393Y-125095000D01*
X146284500Y-124749896D01*
X146554367Y-124256819D01*
X146571904Y-124174039D01*
X146449915Y-123952000D01*
X144907000Y-123952000D01*
X144653000Y-123952000D01*
X143110085Y-123952000D01*
X142988096Y-124174039D01*
X138951904Y-124174039D01*
X138829915Y-123952000D01*
X137287000Y-123952000D01*
X137287000Y-123972000D01*
X137033000Y-123972000D01*
X137033000Y-123952000D01*
X135490085Y-123952000D01*
X135368096Y-124174039D01*
X135385633Y-124256819D01*
X135655500Y-124749896D01*
X136087707Y-125097493D01*
X135709352Y-125350302D01*
X135398283Y-125815849D01*
X135289050Y-126365000D01*
X114900950Y-126365000D01*
X114791717Y-125815849D01*
X114480648Y-125350302D01*
X114098562Y-125095000D01*
X114480648Y-124839698D01*
X114791717Y-124374151D01*
X114831521Y-124174039D01*
X126478096Y-124174039D01*
X126495633Y-124256819D01*
X126765500Y-124749896D01*
X127194607Y-125095000D01*
X126765500Y-125440104D01*
X126495633Y-125933181D01*
X126478096Y-126015961D01*
X126600085Y-126238000D01*
X128143000Y-126238000D01*
X128143000Y-123952000D01*
X128397000Y-123952000D01*
X128397000Y-126238000D01*
X129939915Y-126238000D01*
X130061904Y-126015961D01*
X130044367Y-125933181D01*
X129774500Y-125440104D01*
X129345393Y-125095000D01*
X129572011Y-124912745D01*
X131251861Y-124912745D01*
X131325995Y-125158864D01*
X131863223Y-125351965D01*
X132433454Y-125324778D01*
X132834005Y-125158864D01*
X132908139Y-124912745D01*
X132080000Y-124084605D01*
X131251861Y-124912745D01*
X129572011Y-124912745D01*
X129774500Y-124749896D01*
X130044367Y-124256819D01*
X130061904Y-124174039D01*
X129939915Y-123952000D01*
X128397000Y-123952000D01*
X128143000Y-123952000D01*
X126600085Y-123952000D01*
X126478096Y-124174039D01*
X114831521Y-124174039D01*
X114900950Y-123825000D01*
X114791717Y-123275849D01*
X114480648Y-122810302D01*
X114098562Y-122555000D01*
X114480648Y-122299698D01*
X114791717Y-121834151D01*
X114900950Y-121285000D01*
X114791717Y-120735849D01*
X114480648Y-120270302D01*
X114098562Y-120015000D01*
X114480648Y-119759698D01*
X114791717Y-119294151D01*
X114900950Y-118745000D01*
X114791717Y-118195849D01*
X114480648Y-117730302D01*
X114098562Y-117475000D01*
X114480648Y-117219698D01*
X114791717Y-116754151D01*
X114900950Y-116205000D01*
X114811473Y-115755167D01*
X117174838Y-115755167D01*
X117316883Y-116098943D01*
X117579673Y-116362192D01*
X117879332Y-116486622D01*
X117810162Y-116653201D01*
X117809838Y-117025167D01*
X117951883Y-117368943D01*
X118214673Y-117632192D01*
X118558201Y-117774838D01*
X118605077Y-117774879D01*
X118842599Y-118012401D01*
X119089161Y-118177148D01*
X119380000Y-118235000D01*
X125167537Y-118235000D01*
X125199673Y-118267192D01*
X125543201Y-118409838D01*
X125915167Y-118410162D01*
X126258943Y-118268117D01*
X126522192Y-118005327D01*
X126664838Y-117661799D01*
X126665162Y-117289833D01*
X126523117Y-116946057D01*
X126260327Y-116682808D01*
X125916799Y-116540162D01*
X125544833Y-116539838D01*
X125201057Y-116681883D01*
X125167882Y-116715000D01*
X119694802Y-116715000D01*
X119680122Y-116700320D01*
X119680162Y-116654833D01*
X119538117Y-116311057D01*
X119275327Y-116047808D01*
X118975668Y-115923378D01*
X119044838Y-115756799D01*
X119044879Y-115709923D01*
X119059802Y-115695000D01*
X124532537Y-115695000D01*
X124564673Y-115727192D01*
X124908201Y-115869838D01*
X125280167Y-115870162D01*
X125623943Y-115728117D01*
X125887192Y-115465327D01*
X126029838Y-115121799D01*
X126030162Y-114749833D01*
X125888117Y-114406057D01*
X125625327Y-114142808D01*
X125281799Y-114000162D01*
X124909833Y-113999838D01*
X124566057Y-114141883D01*
X124532882Y-114175000D01*
X118745000Y-114175000D01*
X118454161Y-114232852D01*
X118207599Y-114397599D01*
X117970320Y-114634878D01*
X117924833Y-114634838D01*
X117581057Y-114776883D01*
X117317808Y-115039673D01*
X117175162Y-115383201D01*
X117174838Y-115755167D01*
X114811473Y-115755167D01*
X114791717Y-115655849D01*
X114480648Y-115190302D01*
X114098562Y-114935000D01*
X114480648Y-114679698D01*
X114791717Y-114214151D01*
X114900950Y-113665000D01*
X114791717Y-113115849D01*
X114480648Y-112650302D01*
X114375684Y-112580167D01*
X117174838Y-112580167D01*
X117316883Y-112923943D01*
X117579673Y-113187192D01*
X117923201Y-113329838D01*
X118295167Y-113330162D01*
X118638943Y-113188117D01*
X118672118Y-113155000D01*
X123897537Y-113155000D01*
X123929673Y-113187192D01*
X124273201Y-113329838D01*
X124645167Y-113330162D01*
X124988943Y-113188117D01*
X125252192Y-112925327D01*
X125394838Y-112581799D01*
X125395162Y-112209833D01*
X125253117Y-111866057D01*
X124990327Y-111602808D01*
X124646799Y-111460162D01*
X124274833Y-111459838D01*
X123931057Y-111601883D01*
X123897882Y-111635000D01*
X118672463Y-111635000D01*
X118640327Y-111602808D01*
X118296799Y-111460162D01*
X117924833Y-111459838D01*
X117581057Y-111601883D01*
X117317808Y-111864673D01*
X117175162Y-112208201D01*
X117174838Y-112580167D01*
X114375684Y-112580167D01*
X114098562Y-112395000D01*
X114480648Y-112139698D01*
X114791717Y-111674151D01*
X114900950Y-111125000D01*
X114791717Y-110575849D01*
X114480648Y-110110302D01*
X114375684Y-110040167D01*
X117174838Y-110040167D01*
X117316883Y-110383943D01*
X117579673Y-110647192D01*
X117923201Y-110789838D01*
X118295167Y-110790162D01*
X118638943Y-110648117D01*
X118672118Y-110615000D01*
X123262537Y-110615000D01*
X123294673Y-110647192D01*
X123638201Y-110789838D01*
X124010167Y-110790162D01*
X124353943Y-110648117D01*
X124617192Y-110385327D01*
X124759838Y-110041799D01*
X124760162Y-109669833D01*
X124618117Y-109326057D01*
X124355327Y-109062808D01*
X124011799Y-108920162D01*
X123639833Y-108919838D01*
X123296057Y-109061883D01*
X123262882Y-109095000D01*
X118672463Y-109095000D01*
X118640327Y-109062808D01*
X118296799Y-108920162D01*
X117924833Y-108919838D01*
X117581057Y-109061883D01*
X117317808Y-109324673D01*
X117175162Y-109668201D01*
X117174838Y-110040167D01*
X114375684Y-110040167D01*
X114098562Y-109855000D01*
X114480648Y-109599698D01*
X114791717Y-109134151D01*
X114900950Y-108585000D01*
X114791717Y-108035849D01*
X114480648Y-107570302D01*
X114098562Y-107315000D01*
X114480648Y-107059698D01*
X114791717Y-106594151D01*
X114900950Y-106045000D01*
X114791717Y-105495849D01*
X114480648Y-105030302D01*
X114098562Y-104775000D01*
X114480648Y-104519698D01*
X114791717Y-104054151D01*
X114900950Y-103505000D01*
X114791717Y-102955849D01*
X114480648Y-102490302D01*
X114098562Y-102235000D01*
X114480648Y-101979698D01*
X114650832Y-101725000D01*
X115642537Y-101725000D01*
X115674673Y-101757192D01*
X116018201Y-101899838D01*
X116390167Y-101900162D01*
X116733943Y-101758117D01*
X116997192Y-101495327D01*
X117139838Y-101151799D01*
X117140162Y-100779833D01*
X116998117Y-100436057D01*
X116735327Y-100172808D01*
X116391799Y-100030162D01*
X116019833Y-100029838D01*
X115676057Y-100171883D01*
X115642882Y-100205000D01*
X114650832Y-100205000D01*
X114480648Y-99950302D01*
X114098562Y-99695000D01*
X114480648Y-99439698D01*
X114791717Y-98974151D01*
X114900950Y-98425000D01*
X114791717Y-97875849D01*
X114480648Y-97410302D01*
X114345502Y-97320000D01*
X114356309Y-97320000D01*
X114589698Y-97223327D01*
X114768327Y-97044699D01*
X114865000Y-96811310D01*
X114865000Y-96170750D01*
X114706250Y-96012000D01*
X113157000Y-96012000D01*
X113157000Y-96032000D01*
X112903000Y-96032000D01*
X112903000Y-96012000D01*
X111353750Y-96012000D01*
X111195000Y-96170750D01*
X111195000Y-96811310D01*
X111291673Y-97044699D01*
X111470302Y-97223327D01*
X111703691Y-97320000D01*
X111714498Y-97320000D01*
X111579352Y-97410302D01*
X111268283Y-97875849D01*
X111159050Y-98425000D01*
X107868073Y-98425000D01*
X107591702Y-98310241D01*
X107040715Y-98309760D01*
X106531485Y-98520169D01*
X106141539Y-98909436D01*
X105930241Y-99418298D01*
X105929760Y-99969285D01*
X96645000Y-99969285D01*
X96645000Y-97439187D01*
X100799752Y-97439187D01*
X101017757Y-97966800D01*
X101421077Y-98370824D01*
X101948309Y-98589750D01*
X102519187Y-98590248D01*
X103046800Y-98372243D01*
X103450824Y-97968923D01*
X103669750Y-97441691D01*
X103670248Y-96870813D01*
X103452243Y-96343200D01*
X103048923Y-95939176D01*
X102918453Y-95885000D01*
X126399050Y-95885000D01*
X126508283Y-96434151D01*
X126819352Y-96899698D01*
X127201438Y-97155000D01*
X126819352Y-97410302D01*
X126508283Y-97875849D01*
X126399050Y-98425000D01*
X126508283Y-98974151D01*
X126819352Y-99439698D01*
X127201438Y-99695000D01*
X126819352Y-99950302D01*
X126508283Y-100415849D01*
X126399050Y-100965000D01*
X126508283Y-101514151D01*
X126819352Y-101979698D01*
X127201438Y-102235000D01*
X126819352Y-102490302D01*
X126508283Y-102955849D01*
X126399050Y-103505000D01*
X126508283Y-104054151D01*
X126819352Y-104519698D01*
X127201438Y-104775000D01*
X126819352Y-105030302D01*
X126508283Y-105495849D01*
X126399050Y-106045000D01*
X126508283Y-106594151D01*
X126819352Y-107059698D01*
X127201438Y-107315000D01*
X126819352Y-107570302D01*
X126508283Y-108035849D01*
X126399050Y-108585000D01*
X126508283Y-109134151D01*
X126819352Y-109599698D01*
X127201438Y-109855000D01*
X126819352Y-110110302D01*
X126508283Y-110575849D01*
X126399050Y-111125000D01*
X126508283Y-111674151D01*
X126819352Y-112139698D01*
X127201438Y-112395000D01*
X126819352Y-112650302D01*
X126508283Y-113115849D01*
X126399050Y-113665000D01*
X126508283Y-114214151D01*
X126819352Y-114679698D01*
X127201438Y-114935000D01*
X126819352Y-115190302D01*
X126508283Y-115655849D01*
X126399050Y-116205000D01*
X126508283Y-116754151D01*
X126819352Y-117219698D01*
X127201438Y-117475000D01*
X126819352Y-117730302D01*
X126508283Y-118195849D01*
X126399050Y-118745000D01*
X126508283Y-119294151D01*
X126819352Y-119759698D01*
X127201438Y-120015000D01*
X126819352Y-120270302D01*
X126508283Y-120735849D01*
X126399050Y-121285000D01*
X126508283Y-121834151D01*
X126819352Y-122299698D01*
X127197707Y-122552507D01*
X126765500Y-122900104D01*
X126495633Y-123393181D01*
X126478096Y-123475961D01*
X126600085Y-123698000D01*
X128143000Y-123698000D01*
X128143000Y-123678000D01*
X128397000Y-123678000D01*
X128397000Y-123698000D01*
X129939915Y-123698000D01*
X129945286Y-123688223D01*
X130633035Y-123688223D01*
X130660222Y-124258454D01*
X130826136Y-124659005D01*
X131072255Y-124733139D01*
X131900395Y-123905000D01*
X132259605Y-123905000D01*
X133087745Y-124733139D01*
X133333864Y-124659005D01*
X133526965Y-124121777D01*
X133499778Y-123551546D01*
X133333864Y-123150995D01*
X133087745Y-123076861D01*
X132259605Y-123905000D01*
X131900395Y-123905000D01*
X131072255Y-123076861D01*
X130826136Y-123150995D01*
X130633035Y-123688223D01*
X129945286Y-123688223D01*
X130061904Y-123475961D01*
X130044367Y-123393181D01*
X129774500Y-122900104D01*
X129770958Y-122897255D01*
X131251861Y-122897255D01*
X132080000Y-123725395D01*
X132908139Y-122897255D01*
X132834005Y-122651136D01*
X132296777Y-122458035D01*
X131726546Y-122485222D01*
X131325995Y-122651136D01*
X131251861Y-122897255D01*
X129770958Y-122897255D01*
X129342293Y-122552507D01*
X129720648Y-122299698D01*
X130031717Y-121834151D01*
X130071521Y-121634039D01*
X135368096Y-121634039D01*
X135385633Y-121716819D01*
X135655500Y-122209896D01*
X136084607Y-122555000D01*
X135655500Y-122900104D01*
X135385633Y-123393181D01*
X135368096Y-123475961D01*
X135490085Y-123698000D01*
X137033000Y-123698000D01*
X137033000Y-121412000D01*
X137287000Y-121412000D01*
X137287000Y-123698000D01*
X138829915Y-123698000D01*
X138951904Y-123475961D01*
X138934367Y-123393181D01*
X138664500Y-122900104D01*
X138235393Y-122555000D01*
X138664500Y-122209896D01*
X138934367Y-121716819D01*
X138951904Y-121634039D01*
X138829915Y-121412000D01*
X137287000Y-121412000D01*
X137033000Y-121412000D01*
X135490085Y-121412000D01*
X135368096Y-121634039D01*
X130071521Y-121634039D01*
X130140950Y-121285000D01*
X142909050Y-121285000D01*
X143018283Y-121834151D01*
X143329352Y-122299698D01*
X143707707Y-122552507D01*
X143275500Y-122900104D01*
X143005633Y-123393181D01*
X142988096Y-123475961D01*
X143110085Y-123698000D01*
X144653000Y-123698000D01*
X144653000Y-123678000D01*
X144907000Y-123678000D01*
X144907000Y-123698000D01*
X146449915Y-123698000D01*
X146571904Y-123475961D01*
X146554367Y-123393181D01*
X146284500Y-122900104D01*
X145852293Y-122552507D01*
X146230648Y-122299698D01*
X146541717Y-121834151D01*
X146650950Y-121285000D01*
X146541717Y-120735849D01*
X146230648Y-120270302D01*
X145852293Y-120017493D01*
X146280957Y-119672745D01*
X147761861Y-119672745D01*
X147835995Y-119918864D01*
X148373223Y-120111965D01*
X148943454Y-120084778D01*
X149344005Y-119918864D01*
X149418139Y-119672745D01*
X148590000Y-118844605D01*
X147761861Y-119672745D01*
X146280957Y-119672745D01*
X146284500Y-119669896D01*
X146554367Y-119176819D01*
X146571904Y-119094039D01*
X146449915Y-118872000D01*
X144907000Y-118872000D01*
X144907000Y-118892000D01*
X144653000Y-118892000D01*
X144653000Y-118872000D01*
X143110085Y-118872000D01*
X142988096Y-119094039D01*
X143005633Y-119176819D01*
X143275500Y-119669896D01*
X143707707Y-120017493D01*
X143329352Y-120270302D01*
X143018283Y-120735849D01*
X142909050Y-121285000D01*
X130140950Y-121285000D01*
X130031717Y-120735849D01*
X129720648Y-120270302D01*
X129338562Y-120015000D01*
X129720648Y-119759698D01*
X130031717Y-119294151D01*
X130140950Y-118745000D01*
X130031717Y-118195849D01*
X129720648Y-117730302D01*
X129338562Y-117475000D01*
X129720648Y-117219698D01*
X130031717Y-116754151D01*
X130140950Y-116205000D01*
X135289050Y-116205000D01*
X135398283Y-116754151D01*
X135709352Y-117219698D01*
X136091438Y-117475000D01*
X135709352Y-117730302D01*
X135398283Y-118195849D01*
X135289050Y-118745000D01*
X135398283Y-119294151D01*
X135709352Y-119759698D01*
X136087707Y-120012507D01*
X135655500Y-120360104D01*
X135385633Y-120853181D01*
X135368096Y-120935961D01*
X135490085Y-121158000D01*
X137033000Y-121158000D01*
X137033000Y-121138000D01*
X137287000Y-121138000D01*
X137287000Y-121158000D01*
X138829915Y-121158000D01*
X138951904Y-120935961D01*
X138934367Y-120853181D01*
X138664500Y-120360104D01*
X138232293Y-120012507D01*
X138610648Y-119759698D01*
X138921717Y-119294151D01*
X139030950Y-118745000D01*
X138921717Y-118195849D01*
X138610648Y-117730302D01*
X138228562Y-117475000D01*
X138610648Y-117219698D01*
X138921717Y-116754151D01*
X138961521Y-116554039D01*
X142988096Y-116554039D01*
X143005633Y-116636819D01*
X143275500Y-117129896D01*
X143704607Y-117475000D01*
X143275500Y-117820104D01*
X143005633Y-118313181D01*
X142988096Y-118395961D01*
X143110085Y-118618000D01*
X144653000Y-118618000D01*
X144653000Y-116332000D01*
X144907000Y-116332000D01*
X144907000Y-118618000D01*
X146449915Y-118618000D01*
X146543191Y-118448223D01*
X147143035Y-118448223D01*
X147170222Y-119018454D01*
X147336136Y-119419005D01*
X147582255Y-119493139D01*
X148410395Y-118665000D01*
X148769605Y-118665000D01*
X149597745Y-119493139D01*
X149843864Y-119419005D01*
X150036965Y-118881777D01*
X150009778Y-118311546D01*
X149843864Y-117910995D01*
X149597745Y-117836861D01*
X148769605Y-118665000D01*
X148410395Y-118665000D01*
X147582255Y-117836861D01*
X147336136Y-117910995D01*
X147143035Y-118448223D01*
X146543191Y-118448223D01*
X146571904Y-118395961D01*
X146554367Y-118313181D01*
X146284500Y-117820104D01*
X146082012Y-117657255D01*
X147761861Y-117657255D01*
X148590000Y-118485395D01*
X149418139Y-117657255D01*
X149344005Y-117411136D01*
X148806777Y-117218035D01*
X148236546Y-117245222D01*
X147835995Y-117411136D01*
X147761861Y-117657255D01*
X146082012Y-117657255D01*
X145855393Y-117475000D01*
X146284500Y-117129896D01*
X146554367Y-116636819D01*
X146571904Y-116554039D01*
X146449915Y-116332000D01*
X144907000Y-116332000D01*
X144653000Y-116332000D01*
X143110085Y-116332000D01*
X142988096Y-116554039D01*
X138961521Y-116554039D01*
X139030950Y-116205000D01*
X150936887Y-116205000D01*
X151046120Y-116754151D01*
X151357189Y-117219698D01*
X151739275Y-117475000D01*
X151357189Y-117730302D01*
X151046120Y-118195849D01*
X150936887Y-118745000D01*
X151046120Y-119294151D01*
X151357189Y-119759698D01*
X151761703Y-120029986D01*
X151544866Y-120132611D01*
X151168959Y-120547577D01*
X151008096Y-120935961D01*
X151130085Y-121158000D01*
X152273000Y-121158000D01*
X152273000Y-121138000D01*
X152527000Y-121138000D01*
X152527000Y-121158000D01*
X153669915Y-121158000D01*
X153791904Y-120935961D01*
X153631041Y-120547577D01*
X153255134Y-120132611D01*
X153038297Y-120029986D01*
X153442811Y-119759698D01*
X153753880Y-119294151D01*
X153863113Y-118745000D01*
X153753880Y-118195849D01*
X153442811Y-117730302D01*
X153060725Y-117475000D01*
X153442811Y-117219698D01*
X153753880Y-116754151D01*
X153863113Y-116205000D01*
X153773636Y-115755167D01*
X155909838Y-115755167D01*
X156051883Y-116098943D01*
X156085000Y-116132118D01*
X156085000Y-125167537D01*
X156052808Y-125199673D01*
X155910162Y-125543201D01*
X155909838Y-125915167D01*
X156051883Y-126258943D01*
X156314673Y-126522192D01*
X156578554Y-126631765D01*
X156686883Y-126893943D01*
X156949673Y-127157192D01*
X157293201Y-127299838D01*
X157665167Y-127300162D01*
X158008943Y-127158117D01*
X158272192Y-126895327D01*
X158381765Y-126631446D01*
X158592561Y-126544347D01*
X158666120Y-126914151D01*
X158977189Y-127379698D01*
X159359275Y-127635000D01*
X158977189Y-127890302D01*
X158666120Y-128355849D01*
X158556887Y-128905000D01*
X158666120Y-129454151D01*
X158977189Y-129919698D01*
X159359275Y-130175000D01*
X158977189Y-130430302D01*
X158666120Y-130895849D01*
X158556887Y-131445000D01*
X158666120Y-131994151D01*
X158977189Y-132459698D01*
X159442736Y-132770767D01*
X159991887Y-132880000D01*
X160048113Y-132880000D01*
X160597264Y-132770767D01*
X161062811Y-132459698D01*
X161373880Y-131994151D01*
X161413684Y-131794039D01*
X166248096Y-131794039D01*
X166408959Y-132182423D01*
X166784866Y-132597389D01*
X167290959Y-132836914D01*
X167513000Y-132715629D01*
X167513000Y-131572000D01*
X167767000Y-131572000D01*
X167767000Y-132715629D01*
X167989041Y-132836914D01*
X168495134Y-132597389D01*
X168871041Y-132182423D01*
X169031904Y-131794039D01*
X168909915Y-131572000D01*
X167767000Y-131572000D01*
X167513000Y-131572000D01*
X166370085Y-131572000D01*
X166248096Y-131794039D01*
X161413684Y-131794039D01*
X161483113Y-131445000D01*
X161373880Y-130895849D01*
X161062811Y-130430302D01*
X160680725Y-130175000D01*
X161062811Y-129919698D01*
X161373880Y-129454151D01*
X161483113Y-128905000D01*
X161373880Y-128355849D01*
X161062811Y-127890302D01*
X160680725Y-127635000D01*
X161062811Y-127379698D01*
X161373880Y-126914151D01*
X161483113Y-126365000D01*
X166176887Y-126365000D01*
X166286120Y-126914151D01*
X166597189Y-127379698D01*
X166979275Y-127635000D01*
X166597189Y-127890302D01*
X166286120Y-128355849D01*
X166176887Y-128905000D01*
X166286120Y-129454151D01*
X166597189Y-129919698D01*
X167001703Y-130189986D01*
X166784866Y-130292611D01*
X166408959Y-130707577D01*
X166248096Y-131095961D01*
X166370085Y-131318000D01*
X167513000Y-131318000D01*
X167513000Y-131298000D01*
X167767000Y-131298000D01*
X167767000Y-131318000D01*
X168909915Y-131318000D01*
X169031904Y-131095961D01*
X168871041Y-130707577D01*
X168495134Y-130292611D01*
X168278297Y-130189986D01*
X168682811Y-129919698D01*
X168993880Y-129454151D01*
X169103113Y-128905000D01*
X168993880Y-128355849D01*
X168682811Y-127890302D01*
X168300725Y-127635000D01*
X168682811Y-127379698D01*
X168993880Y-126914151D01*
X169103113Y-126365000D01*
X168993880Y-125815849D01*
X168682811Y-125350302D01*
X168278297Y-125080014D01*
X168495134Y-124977389D01*
X168871041Y-124562423D01*
X169031904Y-124174039D01*
X168909915Y-123952000D01*
X167767000Y-123952000D01*
X167767000Y-123972000D01*
X167513000Y-123972000D01*
X167513000Y-123952000D01*
X166370085Y-123952000D01*
X166248096Y-124174039D01*
X166408959Y-124562423D01*
X166784866Y-124977389D01*
X167001703Y-125080014D01*
X166597189Y-125350302D01*
X166286120Y-125815849D01*
X166176887Y-126365000D01*
X161483113Y-126365000D01*
X161373880Y-125815849D01*
X161062811Y-125350302D01*
X160680725Y-125095000D01*
X161062811Y-124839698D01*
X161373880Y-124374151D01*
X161483113Y-123825000D01*
X161373880Y-123275849D01*
X161062811Y-122810302D01*
X160680725Y-122555000D01*
X161062811Y-122299698D01*
X161373880Y-121834151D01*
X161413684Y-121634039D01*
X166248096Y-121634039D01*
X166408959Y-122022423D01*
X166784866Y-122437389D01*
X167033367Y-122555000D01*
X166784866Y-122672611D01*
X166408959Y-123087577D01*
X166248096Y-123475961D01*
X166370085Y-123698000D01*
X167513000Y-123698000D01*
X167513000Y-121412000D01*
X167767000Y-121412000D01*
X167767000Y-123698000D01*
X168909915Y-123698000D01*
X169031904Y-123475961D01*
X168871041Y-123087577D01*
X168495134Y-122672611D01*
X168246633Y-122555000D01*
X168495134Y-122437389D01*
X168871041Y-122022423D01*
X169031904Y-121634039D01*
X168909915Y-121412000D01*
X167767000Y-121412000D01*
X167513000Y-121412000D01*
X166370085Y-121412000D01*
X166248096Y-121634039D01*
X161413684Y-121634039D01*
X161483113Y-121285000D01*
X161373880Y-120735849D01*
X161062811Y-120270302D01*
X160680725Y-120015000D01*
X161062811Y-119759698D01*
X161120911Y-119672745D01*
X163001861Y-119672745D01*
X163075995Y-119918864D01*
X163613223Y-120111965D01*
X164183454Y-120084778D01*
X164584005Y-119918864D01*
X164658139Y-119672745D01*
X163830000Y-118844605D01*
X163001861Y-119672745D01*
X161120911Y-119672745D01*
X161373880Y-119294151D01*
X161483113Y-118745000D01*
X161424081Y-118448223D01*
X162383035Y-118448223D01*
X162410222Y-119018454D01*
X162576136Y-119419005D01*
X162822255Y-119493139D01*
X163650395Y-118665000D01*
X164009605Y-118665000D01*
X164837745Y-119493139D01*
X165083864Y-119419005D01*
X165276965Y-118881777D01*
X165249778Y-118311546D01*
X165083864Y-117910995D01*
X164837745Y-117836861D01*
X164009605Y-118665000D01*
X163650395Y-118665000D01*
X162822255Y-117836861D01*
X162576136Y-117910995D01*
X162383035Y-118448223D01*
X161424081Y-118448223D01*
X161373880Y-118195849D01*
X161062811Y-117730302D01*
X160953489Y-117657255D01*
X163001861Y-117657255D01*
X163830000Y-118485395D01*
X164658139Y-117657255D01*
X164584005Y-117411136D01*
X164046777Y-117218035D01*
X163476546Y-117245222D01*
X163075995Y-117411136D01*
X163001861Y-117657255D01*
X160953489Y-117657255D01*
X160680725Y-117475000D01*
X161062811Y-117219698D01*
X161373880Y-116754151D01*
X161483113Y-116205000D01*
X166176887Y-116205000D01*
X166286120Y-116754151D01*
X166597189Y-117219698D01*
X166979275Y-117475000D01*
X166597189Y-117730302D01*
X166286120Y-118195849D01*
X166176887Y-118745000D01*
X166286120Y-119294151D01*
X166597189Y-119759698D01*
X167001703Y-120029986D01*
X166784866Y-120132611D01*
X166408959Y-120547577D01*
X166248096Y-120935961D01*
X166370085Y-121158000D01*
X167513000Y-121158000D01*
X167513000Y-121138000D01*
X167767000Y-121138000D01*
X167767000Y-121158000D01*
X168909915Y-121158000D01*
X169031904Y-120935961D01*
X168871041Y-120547577D01*
X168495134Y-120132611D01*
X168278297Y-120029986D01*
X168682811Y-119759698D01*
X168993880Y-119294151D01*
X169103113Y-118745000D01*
X168993880Y-118195849D01*
X168682811Y-117730302D01*
X168300725Y-117475000D01*
X168682811Y-117219698D01*
X168993880Y-116754151D01*
X169103113Y-116205000D01*
X169013636Y-115755167D01*
X171784838Y-115755167D01*
X171926883Y-116098943D01*
X171960000Y-116132118D01*
X171960000Y-122627537D01*
X171927808Y-122659673D01*
X171785162Y-123003201D01*
X171784838Y-123375167D01*
X171926883Y-123718943D01*
X172189673Y-123982192D01*
X172453554Y-124091765D01*
X172561883Y-124353943D01*
X172824673Y-124617192D01*
X173124332Y-124741622D01*
X173055162Y-124908201D01*
X173054838Y-125280167D01*
X173196883Y-125623943D01*
X173459673Y-125887192D01*
X173803201Y-126029838D01*
X173863544Y-126029891D01*
X173796887Y-126365000D01*
X173906120Y-126914151D01*
X174217189Y-127379698D01*
X174599275Y-127635000D01*
X174217189Y-127890302D01*
X173906120Y-128355849D01*
X173796887Y-128905000D01*
X173906120Y-129454151D01*
X174217189Y-129919698D01*
X174599275Y-130175000D01*
X174217189Y-130430302D01*
X173906120Y-130895849D01*
X173796887Y-131445000D01*
X173906120Y-131994151D01*
X174217189Y-132459698D01*
X174682736Y-132770767D01*
X175231887Y-132880000D01*
X175288113Y-132880000D01*
X175837264Y-132770767D01*
X176302811Y-132459698D01*
X176613880Y-131994151D01*
X176723113Y-131445000D01*
X176613880Y-130895849D01*
X176302811Y-130430302D01*
X175920725Y-130175000D01*
X176302811Y-129919698D01*
X176613880Y-129454151D01*
X176723113Y-128905000D01*
X176613880Y-128355849D01*
X176302811Y-127890302D01*
X175920725Y-127635000D01*
X176302811Y-127379698D01*
X176613880Y-126914151D01*
X176723113Y-126365000D01*
X176613880Y-125815849D01*
X176302811Y-125350302D01*
X175920725Y-125095000D01*
X176302811Y-124839698D01*
X176613880Y-124374151D01*
X176723113Y-123825000D01*
X176613880Y-123275849D01*
X176302811Y-122810302D01*
X175920725Y-122555000D01*
X176302811Y-122299698D01*
X176613880Y-121834151D01*
X176723113Y-121285000D01*
X176613880Y-120735849D01*
X176302811Y-120270302D01*
X175920725Y-120015000D01*
X176302811Y-119759698D01*
X176360911Y-119672745D01*
X178241861Y-119672745D01*
X178315995Y-119918864D01*
X178853223Y-120111965D01*
X179423454Y-120084778D01*
X179824005Y-119918864D01*
X179898139Y-119672745D01*
X179070000Y-118844605D01*
X178241861Y-119672745D01*
X176360911Y-119672745D01*
X176613880Y-119294151D01*
X176723113Y-118745000D01*
X176664081Y-118448223D01*
X177623035Y-118448223D01*
X177650222Y-119018454D01*
X177816136Y-119419005D01*
X178062255Y-119493139D01*
X178890395Y-118665000D01*
X179249605Y-118665000D01*
X180077745Y-119493139D01*
X180323864Y-119419005D01*
X180516965Y-118881777D01*
X180489778Y-118311546D01*
X180323864Y-117910995D01*
X180077745Y-117836861D01*
X179249605Y-118665000D01*
X178890395Y-118665000D01*
X178062255Y-117836861D01*
X177816136Y-117910995D01*
X177623035Y-118448223D01*
X176664081Y-118448223D01*
X176613880Y-118195849D01*
X176302811Y-117730302D01*
X176193489Y-117657255D01*
X178241861Y-117657255D01*
X179070000Y-118485395D01*
X179898139Y-117657255D01*
X179824005Y-117411136D01*
X179286777Y-117218035D01*
X178716546Y-117245222D01*
X178315995Y-117411136D01*
X178241861Y-117657255D01*
X176193489Y-117657255D01*
X175920725Y-117475000D01*
X176302811Y-117219698D01*
X176613880Y-116754151D01*
X176723113Y-116205000D01*
X181365907Y-116205000D01*
X181478946Y-116773285D01*
X181800853Y-117255054D01*
X182130026Y-117475000D01*
X181800853Y-117694946D01*
X181478946Y-118176715D01*
X181365907Y-118745000D01*
X181478946Y-119313285D01*
X181800853Y-119795054D01*
X182130026Y-120015000D01*
X181800853Y-120234946D01*
X181478946Y-120716715D01*
X181365907Y-121285000D01*
X181478946Y-121853285D01*
X181800853Y-122335054D01*
X182130026Y-122555000D01*
X181800853Y-122774946D01*
X181478946Y-123256715D01*
X181365907Y-123825000D01*
X181478946Y-124393285D01*
X181800853Y-124875054D01*
X182130026Y-125095000D01*
X181800853Y-125314946D01*
X181478946Y-125796715D01*
X181365907Y-126365000D01*
X181478946Y-126933285D01*
X181800853Y-127415054D01*
X182282622Y-127736961D01*
X182850907Y-127850000D01*
X182909093Y-127850000D01*
X183477378Y-127736961D01*
X183959147Y-127415054D01*
X184150000Y-127129422D01*
X184340853Y-127415054D01*
X184822622Y-127736961D01*
X185390907Y-127850000D01*
X185449093Y-127850000D01*
X186017378Y-127736961D01*
X186499147Y-127415054D01*
X186821054Y-126933285D01*
X186934093Y-126365000D01*
X186821054Y-125796715D01*
X186499147Y-125314946D01*
X186169974Y-125095000D01*
X186499147Y-124875054D01*
X186821054Y-124393285D01*
X186934093Y-123825000D01*
X186821054Y-123256715D01*
X186499147Y-122774946D01*
X186169974Y-122555000D01*
X186499147Y-122335054D01*
X186821054Y-121853285D01*
X186934093Y-121285000D01*
X186821054Y-120716715D01*
X186499147Y-120234946D01*
X186169974Y-120015000D01*
X186499147Y-119795054D01*
X186821054Y-119313285D01*
X186934093Y-118745000D01*
X186821054Y-118176715D01*
X186499147Y-117694946D01*
X186169974Y-117475000D01*
X186499147Y-117255054D01*
X186821054Y-116773285D01*
X186934093Y-116205000D01*
X186821054Y-115636715D01*
X186499147Y-115154946D01*
X186169974Y-114935000D01*
X186499147Y-114715054D01*
X186821054Y-114233285D01*
X186934093Y-113665000D01*
X186821054Y-113096715D01*
X186499147Y-112614946D01*
X186017378Y-112293039D01*
X185449093Y-112180000D01*
X185390907Y-112180000D01*
X184822622Y-112293039D01*
X184340853Y-112614946D01*
X184340029Y-112616179D01*
X184333162Y-112579683D01*
X184194090Y-112363559D01*
X183981890Y-112218569D01*
X183730000Y-112167560D01*
X182030000Y-112167560D01*
X181794683Y-112211838D01*
X181578559Y-112350910D01*
X181433569Y-112563110D01*
X181382560Y-112815000D01*
X181382560Y-114515000D01*
X181426838Y-114750317D01*
X181565910Y-114966441D01*
X181778110Y-115111431D01*
X181845541Y-115125086D01*
X181800853Y-115154946D01*
X181478946Y-115636715D01*
X181365907Y-116205000D01*
X176723113Y-116205000D01*
X176613880Y-115655849D01*
X176302811Y-115190302D01*
X175920725Y-114935000D01*
X176302811Y-114679698D01*
X176613880Y-114214151D01*
X176666584Y-113949187D01*
X177634752Y-113949187D01*
X177852757Y-114476800D01*
X178256077Y-114880824D01*
X178783309Y-115099750D01*
X179354187Y-115100248D01*
X179881800Y-114882243D01*
X180285824Y-114478923D01*
X180504750Y-113951691D01*
X180505248Y-113380813D01*
X180287243Y-112853200D01*
X179883923Y-112449176D01*
X179356691Y-112230250D01*
X178785813Y-112229752D01*
X178258200Y-112447757D01*
X177854176Y-112851077D01*
X177635250Y-113378309D01*
X177634752Y-113949187D01*
X176666584Y-113949187D01*
X176723113Y-113665000D01*
X176613880Y-113115849D01*
X176302811Y-112650302D01*
X175837264Y-112339233D01*
X175288113Y-112230000D01*
X175231887Y-112230000D01*
X174682736Y-112339233D01*
X174217189Y-112650302D01*
X173906120Y-113115849D01*
X173796887Y-113665000D01*
X173906120Y-114214151D01*
X174217189Y-114679698D01*
X174599275Y-114935000D01*
X174217189Y-115190302D01*
X173906120Y-115655849D01*
X173796887Y-116205000D01*
X173906120Y-116754151D01*
X174217189Y-117219698D01*
X174599275Y-117475000D01*
X174217189Y-117730302D01*
X174212613Y-117737150D01*
X174148117Y-117581057D01*
X173885327Y-117317808D01*
X173541799Y-117175162D01*
X173480000Y-117175108D01*
X173480000Y-116132463D01*
X173512192Y-116100327D01*
X173654838Y-115756799D01*
X173655162Y-115384833D01*
X173513117Y-115041057D01*
X173250327Y-114777808D01*
X172906799Y-114635162D01*
X172534833Y-114634838D01*
X172191057Y-114776883D01*
X171927808Y-115039673D01*
X171785162Y-115383201D01*
X171784838Y-115755167D01*
X169013636Y-115755167D01*
X168993880Y-115655849D01*
X168682811Y-115190302D01*
X168538535Y-115093899D01*
X168675317Y-115068162D01*
X168891441Y-114929090D01*
X169036431Y-114716890D01*
X169087440Y-114465000D01*
X169087440Y-112865000D01*
X169043162Y-112629683D01*
X168904090Y-112413559D01*
X168691890Y-112268569D01*
X168440000Y-112217560D01*
X166840000Y-112217560D01*
X166604683Y-112261838D01*
X166388559Y-112400910D01*
X166243569Y-112613110D01*
X166192560Y-112865000D01*
X166192560Y-114465000D01*
X166236838Y-114700317D01*
X166375910Y-114916441D01*
X166588110Y-115061431D01*
X166743089Y-115092815D01*
X166597189Y-115190302D01*
X166286120Y-115655849D01*
X166176887Y-116205000D01*
X161483113Y-116205000D01*
X161373880Y-115655849D01*
X161062811Y-115190302D01*
X160680725Y-114935000D01*
X161062811Y-114679698D01*
X161373880Y-114214151D01*
X161426584Y-113949187D01*
X162394752Y-113949187D01*
X162612757Y-114476800D01*
X163016077Y-114880824D01*
X163543309Y-115099750D01*
X164114187Y-115100248D01*
X164641800Y-114882243D01*
X165045824Y-114478923D01*
X165264750Y-113951691D01*
X165265248Y-113380813D01*
X165047243Y-112853200D01*
X164643923Y-112449176D01*
X164116691Y-112230250D01*
X163545813Y-112229752D01*
X163018200Y-112447757D01*
X162614176Y-112851077D01*
X162395250Y-113378309D01*
X162394752Y-113949187D01*
X161426584Y-113949187D01*
X161483113Y-113665000D01*
X161373880Y-113115849D01*
X161062811Y-112650302D01*
X160597264Y-112339233D01*
X160048113Y-112230000D01*
X159991887Y-112230000D01*
X159442736Y-112339233D01*
X158977189Y-112650302D01*
X158666120Y-113115849D01*
X158556887Y-113665000D01*
X158666120Y-114214151D01*
X158977189Y-114679698D01*
X159359275Y-114935000D01*
X158977189Y-115190302D01*
X158666120Y-115655849D01*
X158556887Y-116205000D01*
X158666120Y-116754151D01*
X158977189Y-117219698D01*
X159359275Y-117475000D01*
X158977189Y-117730302D01*
X158666120Y-118195849D01*
X158556887Y-118745000D01*
X158666120Y-119294151D01*
X158977189Y-119759698D01*
X159359275Y-120015000D01*
X158977189Y-120270302D01*
X158666120Y-120735849D01*
X158592516Y-121105879D01*
X158301799Y-120985162D01*
X158240000Y-120985108D01*
X158240000Y-118672463D01*
X158272192Y-118640327D01*
X158414838Y-118296799D01*
X158415162Y-117924833D01*
X158273117Y-117581057D01*
X158010327Y-117317808D01*
X157666799Y-117175162D01*
X157605000Y-117175108D01*
X157605000Y-116132463D01*
X157637192Y-116100327D01*
X157779838Y-115756799D01*
X157780162Y-115384833D01*
X157638117Y-115041057D01*
X157375327Y-114777808D01*
X157031799Y-114635162D01*
X156659833Y-114634838D01*
X156316057Y-114776883D01*
X156052808Y-115039673D01*
X155910162Y-115383201D01*
X155909838Y-115755167D01*
X153773636Y-115755167D01*
X153753880Y-115655849D01*
X153442811Y-115190302D01*
X153298535Y-115093899D01*
X153435317Y-115068162D01*
X153651441Y-114929090D01*
X153796431Y-114716890D01*
X153847440Y-114465000D01*
X153847440Y-112865000D01*
X153803162Y-112629683D01*
X153664090Y-112413559D01*
X153451890Y-112268569D01*
X153200000Y-112217560D01*
X151600000Y-112217560D01*
X151364683Y-112261838D01*
X151148559Y-112400910D01*
X151003569Y-112613110D01*
X150952560Y-112865000D01*
X150952560Y-114465000D01*
X150996838Y-114700317D01*
X151135910Y-114916441D01*
X151348110Y-115061431D01*
X151503089Y-115092815D01*
X151357189Y-115190302D01*
X151046120Y-115655849D01*
X150936887Y-116205000D01*
X139030950Y-116205000D01*
X138921717Y-115655849D01*
X138610648Y-115190302D01*
X138464650Y-115092749D01*
X138595317Y-115068162D01*
X138811441Y-114929090D01*
X138956431Y-114716890D01*
X139007440Y-114465000D01*
X139007440Y-113665000D01*
X142909050Y-113665000D01*
X143018283Y-114214151D01*
X143329352Y-114679698D01*
X143707707Y-114932507D01*
X143275500Y-115280104D01*
X143005633Y-115773181D01*
X142988096Y-115855961D01*
X143110085Y-116078000D01*
X144653000Y-116078000D01*
X144653000Y-116058000D01*
X144907000Y-116058000D01*
X144907000Y-116078000D01*
X146449915Y-116078000D01*
X146571904Y-115855961D01*
X146554367Y-115773181D01*
X146284500Y-115280104D01*
X145852293Y-114932507D01*
X146230648Y-114679698D01*
X146541717Y-114214151D01*
X146594421Y-113949187D01*
X147154752Y-113949187D01*
X147372757Y-114476800D01*
X147776077Y-114880824D01*
X148303309Y-115099750D01*
X148874187Y-115100248D01*
X149401800Y-114882243D01*
X149805824Y-114478923D01*
X150024750Y-113951691D01*
X150025248Y-113380813D01*
X149807243Y-112853200D01*
X149403923Y-112449176D01*
X148876691Y-112230250D01*
X148305813Y-112229752D01*
X147778200Y-112447757D01*
X147374176Y-112851077D01*
X147155250Y-113378309D01*
X147154752Y-113949187D01*
X146594421Y-113949187D01*
X146650950Y-113665000D01*
X146541717Y-113115849D01*
X146230648Y-112650302D01*
X145765101Y-112339233D01*
X145215950Y-112230000D01*
X144344050Y-112230000D01*
X143794899Y-112339233D01*
X143329352Y-112650302D01*
X143018283Y-113115849D01*
X142909050Y-113665000D01*
X139007440Y-113665000D01*
X139007440Y-112865000D01*
X138963162Y-112629683D01*
X138824090Y-112413559D01*
X138611890Y-112268569D01*
X138360000Y-112217560D01*
X135960000Y-112217560D01*
X135724683Y-112261838D01*
X135508559Y-112400910D01*
X135363569Y-112613110D01*
X135312560Y-112865000D01*
X135312560Y-114465000D01*
X135356838Y-114700317D01*
X135495910Y-114916441D01*
X135708110Y-115061431D01*
X135857074Y-115091597D01*
X135709352Y-115190302D01*
X135398283Y-115655849D01*
X135289050Y-116205000D01*
X130140950Y-116205000D01*
X130031717Y-115655849D01*
X129720648Y-115190302D01*
X129338562Y-114935000D01*
X129720648Y-114679698D01*
X130031717Y-114214151D01*
X130140950Y-113665000D01*
X130031717Y-113115849D01*
X129720648Y-112650302D01*
X129338562Y-112395000D01*
X129720648Y-112139698D01*
X130031717Y-111674151D01*
X130140950Y-111125000D01*
X130031717Y-110575849D01*
X129720648Y-110110302D01*
X129338562Y-109855000D01*
X129720648Y-109599698D01*
X130031717Y-109134151D01*
X130140950Y-108585000D01*
X130031717Y-108035849D01*
X129720648Y-107570302D01*
X129338562Y-107315000D01*
X129720648Y-107059698D01*
X130031717Y-106594151D01*
X130121280Y-106143887D01*
X130645000Y-106143887D01*
X130645000Y-106200113D01*
X130754233Y-106749264D01*
X131065302Y-107214811D01*
X131530849Y-107525880D01*
X132080000Y-107635113D01*
X132629151Y-107525880D01*
X133094698Y-107214811D01*
X133405767Y-106749264D01*
X133515000Y-106200113D01*
X133515000Y-106143887D01*
X133405853Y-105595167D01*
X134319838Y-105595167D01*
X134461883Y-105938943D01*
X134724673Y-106202192D01*
X135068201Y-106344838D01*
X135440167Y-106345162D01*
X135685453Y-106243812D01*
X135758946Y-106613285D01*
X136080853Y-107095054D01*
X136400000Y-107308301D01*
X136400000Y-109292537D01*
X136367808Y-109324673D01*
X136225162Y-109668201D01*
X136224838Y-110040167D01*
X136366883Y-110383943D01*
X136629673Y-110647192D01*
X136973201Y-110789838D01*
X137345167Y-110790162D01*
X137688943Y-110648117D01*
X137952192Y-110385327D01*
X138094838Y-110041799D01*
X138095162Y-109669833D01*
X137953117Y-109326057D01*
X137920000Y-109292882D01*
X137920000Y-108514802D01*
X138305000Y-108899802D01*
X138305000Y-109292537D01*
X138272808Y-109324673D01*
X138130162Y-109668201D01*
X138129838Y-110040167D01*
X138271883Y-110383943D01*
X138534673Y-110647192D01*
X138878201Y-110789838D01*
X139250167Y-110790162D01*
X139593943Y-110648117D01*
X139857192Y-110385327D01*
X139999838Y-110041799D01*
X140000162Y-109669833D01*
X139858117Y-109326057D01*
X139825000Y-109292882D01*
X139825000Y-108585000D01*
X139767148Y-108294161D01*
X139602401Y-108047599D01*
X139190000Y-107635198D01*
X139190000Y-107434342D01*
X139670907Y-107530000D01*
X139729093Y-107530000D01*
X140297378Y-107416961D01*
X140779147Y-107095054D01*
X141101054Y-106613285D01*
X141157564Y-106329187D01*
X162394752Y-106329187D01*
X162612757Y-106856800D01*
X163016077Y-107260824D01*
X163543309Y-107479750D01*
X164114187Y-107480248D01*
X164641800Y-107262243D01*
X165045824Y-106858923D01*
X165264750Y-106331691D01*
X165264752Y-106329187D01*
X166204752Y-106329187D01*
X166422757Y-106856800D01*
X166826077Y-107260824D01*
X167353309Y-107479750D01*
X167924187Y-107480248D01*
X168451800Y-107262243D01*
X168855824Y-106858923D01*
X169074750Y-106331691D01*
X169074752Y-106329187D01*
X170014752Y-106329187D01*
X170232757Y-106856800D01*
X170636077Y-107260824D01*
X171163309Y-107479750D01*
X171734187Y-107480248D01*
X172261800Y-107262243D01*
X172665824Y-106858923D01*
X172884750Y-106331691D01*
X172884752Y-106329187D01*
X173824752Y-106329187D01*
X174042757Y-106856800D01*
X174446077Y-107260824D01*
X174973309Y-107479750D01*
X175544187Y-107480248D01*
X176071800Y-107262243D01*
X176475824Y-106858923D01*
X176694750Y-106331691D01*
X176695248Y-105760813D01*
X176477243Y-105233200D01*
X176073923Y-104829176D01*
X175546691Y-104610250D01*
X174975813Y-104609752D01*
X174448200Y-104827757D01*
X174044176Y-105231077D01*
X173825250Y-105758309D01*
X173824752Y-106329187D01*
X172884752Y-106329187D01*
X172885248Y-105760813D01*
X172667243Y-105233200D01*
X172263923Y-104829176D01*
X171736691Y-104610250D01*
X171165813Y-104609752D01*
X170638200Y-104827757D01*
X170234176Y-105231077D01*
X170015250Y-105758309D01*
X170014752Y-106329187D01*
X169074752Y-106329187D01*
X169075248Y-105760813D01*
X168857243Y-105233200D01*
X168453923Y-104829176D01*
X167926691Y-104610250D01*
X167355813Y-104609752D01*
X166828200Y-104827757D01*
X166424176Y-105231077D01*
X166205250Y-105758309D01*
X166204752Y-106329187D01*
X165264752Y-106329187D01*
X165265248Y-105760813D01*
X165047243Y-105233200D01*
X164643923Y-104829176D01*
X164116691Y-104610250D01*
X163545813Y-104609752D01*
X163018200Y-104827757D01*
X162614176Y-105231077D01*
X162395250Y-105758309D01*
X162394752Y-106329187D01*
X141157564Y-106329187D01*
X141214093Y-106045000D01*
X141101054Y-105476715D01*
X140779147Y-104994946D01*
X140449974Y-104775000D01*
X140779147Y-104555054D01*
X141101054Y-104073285D01*
X141214093Y-103505000D01*
X141101054Y-102936715D01*
X140779147Y-102454946D01*
X140449974Y-102235000D01*
X140779147Y-102015054D01*
X141101054Y-101533285D01*
X141214093Y-100965000D01*
X141101054Y-100396715D01*
X140779147Y-99914946D01*
X140460000Y-99701699D01*
X140460000Y-99688301D01*
X140779147Y-99475054D01*
X141101054Y-98993285D01*
X141214093Y-98425000D01*
X188985907Y-98425000D01*
X189098946Y-98993285D01*
X189420853Y-99475054D01*
X189750026Y-99695000D01*
X189420853Y-99914946D01*
X189098946Y-100396715D01*
X188985907Y-100965000D01*
X189098946Y-101533285D01*
X189420853Y-102015054D01*
X189750026Y-102235000D01*
X189420853Y-102454946D01*
X189098946Y-102936715D01*
X188985907Y-103505000D01*
X189098946Y-104073285D01*
X189420853Y-104555054D01*
X189750026Y-104775000D01*
X189420853Y-104994946D01*
X189098946Y-105476715D01*
X188985907Y-106045000D01*
X189098946Y-106613285D01*
X189420853Y-107095054D01*
X189750026Y-107315000D01*
X189420853Y-107534946D01*
X189098946Y-108016715D01*
X188985907Y-108585000D01*
X189098946Y-109153285D01*
X189420853Y-109635054D01*
X189902622Y-109956961D01*
X190470907Y-110070000D01*
X190529093Y-110070000D01*
X191097378Y-109956961D01*
X191579147Y-109635054D01*
X191901054Y-109153285D01*
X192014093Y-108585000D01*
X191901054Y-108016715D01*
X191579147Y-107534946D01*
X191249974Y-107315000D01*
X191579147Y-107095054D01*
X191901054Y-106613285D01*
X192014093Y-106045000D01*
X191901054Y-105476715D01*
X191579147Y-104994946D01*
X191249974Y-104775000D01*
X191579147Y-104555054D01*
X191901054Y-104073285D01*
X192014093Y-103505000D01*
X191901054Y-102936715D01*
X191579147Y-102454946D01*
X191249974Y-102235000D01*
X191579147Y-102015054D01*
X191901054Y-101533285D01*
X192014093Y-100965000D01*
X191901054Y-100396715D01*
X191579147Y-99914946D01*
X191249974Y-99695000D01*
X191579147Y-99475054D01*
X191901054Y-98993285D01*
X192014093Y-98425000D01*
X191901054Y-97856715D01*
X191579147Y-97374946D01*
X191535223Y-97345597D01*
X191709698Y-97273327D01*
X191888327Y-97094699D01*
X191985000Y-96861310D01*
X191985000Y-96170750D01*
X191826250Y-96012000D01*
X190627000Y-96012000D01*
X190627000Y-96032000D01*
X190373000Y-96032000D01*
X190373000Y-96012000D01*
X189173750Y-96012000D01*
X189015000Y-96170750D01*
X189015000Y-96861310D01*
X189111673Y-97094699D01*
X189290302Y-97273327D01*
X189464777Y-97345597D01*
X189420853Y-97374946D01*
X189098946Y-97856715D01*
X188985907Y-98425000D01*
X141214093Y-98425000D01*
X141101054Y-97856715D01*
X140779147Y-97374946D01*
X140460000Y-97161699D01*
X140460000Y-97148301D01*
X140779147Y-96935054D01*
X141101054Y-96453285D01*
X141214093Y-95885000D01*
X141208501Y-95856887D01*
X162395000Y-95856887D01*
X162395000Y-95913113D01*
X162504233Y-96462264D01*
X162815302Y-96927811D01*
X163280849Y-97238880D01*
X163830000Y-97348113D01*
X164379151Y-97238880D01*
X164844698Y-96927811D01*
X165155767Y-96462264D01*
X165265000Y-95913113D01*
X165265000Y-95856887D01*
X166205000Y-95856887D01*
X166205000Y-95913113D01*
X166314233Y-96462264D01*
X166625302Y-96927811D01*
X167090849Y-97238880D01*
X167640000Y-97348113D01*
X168189151Y-97238880D01*
X168654698Y-96927811D01*
X168965767Y-96462264D01*
X169075000Y-95913113D01*
X169075000Y-95856887D01*
X170015000Y-95856887D01*
X170015000Y-95913113D01*
X170124233Y-96462264D01*
X170435302Y-96927811D01*
X170900849Y-97238880D01*
X171450000Y-97348113D01*
X171999151Y-97238880D01*
X172464698Y-96927811D01*
X172775767Y-96462264D01*
X172885000Y-95913113D01*
X172885000Y-95856887D01*
X173825000Y-95856887D01*
X173825000Y-95913113D01*
X173934233Y-96462264D01*
X174245302Y-96927811D01*
X174710849Y-97238880D01*
X175260000Y-97348113D01*
X175809151Y-97238880D01*
X176274698Y-96927811D01*
X176585767Y-96462264D01*
X176695000Y-95913113D01*
X176695000Y-95856887D01*
X176585767Y-95307736D01*
X176319133Y-94908690D01*
X189015000Y-94908690D01*
X189015000Y-95599250D01*
X189173750Y-95758000D01*
X190373000Y-95758000D01*
X190373000Y-94558750D01*
X190627000Y-94558750D01*
X190627000Y-95758000D01*
X191826250Y-95758000D01*
X191985000Y-95599250D01*
X191985000Y-94908690D01*
X191888327Y-94675301D01*
X191709698Y-94496673D01*
X191476309Y-94400000D01*
X190785750Y-94400000D01*
X190627000Y-94558750D01*
X190373000Y-94558750D01*
X190214250Y-94400000D01*
X189523691Y-94400000D01*
X189290302Y-94496673D01*
X189111673Y-94675301D01*
X189015000Y-94908690D01*
X176319133Y-94908690D01*
X176274698Y-94842189D01*
X175809151Y-94531120D01*
X175260000Y-94421887D01*
X174710849Y-94531120D01*
X174245302Y-94842189D01*
X173934233Y-95307736D01*
X173825000Y-95856887D01*
X172885000Y-95856887D01*
X172775767Y-95307736D01*
X172464698Y-94842189D01*
X171999151Y-94531120D01*
X171450000Y-94421887D01*
X170900849Y-94531120D01*
X170435302Y-94842189D01*
X170124233Y-95307736D01*
X170015000Y-95856887D01*
X169075000Y-95856887D01*
X168965767Y-95307736D01*
X168654698Y-94842189D01*
X168189151Y-94531120D01*
X167640000Y-94421887D01*
X167090849Y-94531120D01*
X166625302Y-94842189D01*
X166314233Y-95307736D01*
X166205000Y-95856887D01*
X165265000Y-95856887D01*
X165155767Y-95307736D01*
X164844698Y-94842189D01*
X164379151Y-94531120D01*
X163830000Y-94421887D01*
X163280849Y-94531120D01*
X162815302Y-94842189D01*
X162504233Y-95307736D01*
X162395000Y-95856887D01*
X141208501Y-95856887D01*
X141101054Y-95316715D01*
X140779147Y-94834946D01*
X140297378Y-94513039D01*
X139729093Y-94400000D01*
X139670907Y-94400000D01*
X139102622Y-94513039D01*
X138620853Y-94834946D01*
X138620029Y-94836179D01*
X138613162Y-94799683D01*
X138474090Y-94583559D01*
X138261890Y-94438569D01*
X138010000Y-94387560D01*
X136310000Y-94387560D01*
X136074683Y-94431838D01*
X135858559Y-94570910D01*
X135713569Y-94783110D01*
X135662560Y-95035000D01*
X135662560Y-96735000D01*
X135706838Y-96970317D01*
X135845910Y-97186441D01*
X136058110Y-97331431D01*
X136125541Y-97345086D01*
X136080853Y-97374946D01*
X135886593Y-97665678D01*
X135599161Y-97722852D01*
X135352599Y-97887599D01*
X134717599Y-98522599D01*
X134552852Y-98769161D01*
X134495000Y-99060000D01*
X134495000Y-104847537D01*
X134462808Y-104879673D01*
X134320162Y-105223201D01*
X134319838Y-105595167D01*
X133405853Y-105595167D01*
X133405767Y-105594736D01*
X133094698Y-105129189D01*
X132629151Y-104818120D01*
X132080000Y-104708887D01*
X131530849Y-104818120D01*
X131065302Y-105129189D01*
X130754233Y-105594736D01*
X130645000Y-106143887D01*
X130121280Y-106143887D01*
X130140950Y-106045000D01*
X130031717Y-105495849D01*
X129720648Y-105030302D01*
X129338562Y-104775000D01*
X129720648Y-104519698D01*
X130031717Y-104054151D01*
X130140950Y-103505000D01*
X130031717Y-102955849D01*
X129720648Y-102490302D01*
X129338562Y-102235000D01*
X129720648Y-101979698D01*
X130031717Y-101514151D01*
X130140950Y-100965000D01*
X130031717Y-100415849D01*
X129720648Y-99950302D01*
X129338562Y-99695000D01*
X129720648Y-99439698D01*
X130031717Y-98974151D01*
X130140950Y-98425000D01*
X130031717Y-97875849D01*
X129720648Y-97410302D01*
X129338562Y-97155000D01*
X129720648Y-96899698D01*
X130031717Y-96434151D01*
X130059159Y-96296187D01*
X130644752Y-96296187D01*
X130862757Y-96823800D01*
X131266077Y-97227824D01*
X131793309Y-97446750D01*
X132364187Y-97447248D01*
X132891800Y-97229243D01*
X133295824Y-96825923D01*
X133514750Y-96298691D01*
X133515248Y-95727813D01*
X133297243Y-95200200D01*
X132893923Y-94796176D01*
X132366691Y-94577250D01*
X131795813Y-94576752D01*
X131268200Y-94794757D01*
X130864176Y-95198077D01*
X130645250Y-95725309D01*
X130644752Y-96296187D01*
X130059159Y-96296187D01*
X130140950Y-95885000D01*
X130031717Y-95335849D01*
X129720648Y-94870302D01*
X129255101Y-94559233D01*
X128705950Y-94450000D01*
X127834050Y-94450000D01*
X127284899Y-94559233D01*
X126819352Y-94870302D01*
X126508283Y-95335849D01*
X126399050Y-95885000D01*
X102918453Y-95885000D01*
X102521691Y-95720250D01*
X101950813Y-95719752D01*
X101423200Y-95937757D01*
X101019176Y-96341077D01*
X100800250Y-96868309D01*
X100799752Y-97439187D01*
X96645000Y-97439187D01*
X96645000Y-95812463D01*
X96677192Y-95780327D01*
X96819838Y-95436799D01*
X96820162Y-95064833D01*
X96776305Y-94958690D01*
X111195000Y-94958690D01*
X111195000Y-95599250D01*
X111353750Y-95758000D01*
X112903000Y-95758000D01*
X112903000Y-94608750D01*
X113157000Y-94608750D01*
X113157000Y-95758000D01*
X114706250Y-95758000D01*
X114865000Y-95599250D01*
X114865000Y-94958690D01*
X114768327Y-94725301D01*
X114589698Y-94546673D01*
X114356309Y-94450000D01*
X113315750Y-94450000D01*
X113157000Y-94608750D01*
X112903000Y-94608750D01*
X112744250Y-94450000D01*
X111703691Y-94450000D01*
X111470302Y-94546673D01*
X111291673Y-94725301D01*
X111195000Y-94958690D01*
X96776305Y-94958690D01*
X96678117Y-94721057D01*
X96415327Y-94457808D01*
X96071799Y-94315162D01*
X96033558Y-94315129D01*
X96257161Y-93190999D01*
X97063791Y-91983791D01*
X98271001Y-91177161D01*
X99764931Y-90880000D01*
X189795069Y-90880000D01*
X191289001Y-91177161D01*
X191289001Y-91177161D01*
G37*
X191289001Y-91177161D02*
X192496209Y-91983791D01*
X193302839Y-93191001D01*
X193600000Y-94684931D01*
X193600000Y-145822560D01*
X192190000Y-145822560D01*
X191954683Y-145866838D01*
X191738559Y-146005910D01*
X191593569Y-146218110D01*
X191579914Y-146285541D01*
X191550054Y-146240853D01*
X191068285Y-145918946D01*
X190500000Y-145805907D01*
X189931715Y-145918946D01*
X189449946Y-146240853D01*
X189230000Y-146570026D01*
X189010054Y-146240853D01*
X188528285Y-145918946D01*
X187960000Y-145805907D01*
X187391715Y-145918946D01*
X186909946Y-146240853D01*
X186690000Y-146570026D01*
X186470054Y-146240853D01*
X185988285Y-145918946D01*
X185420000Y-145805907D01*
X184851715Y-145918946D01*
X184369946Y-146240853D01*
X184150000Y-146570026D01*
X183930054Y-146240853D01*
X183448285Y-145918946D01*
X182880000Y-145805907D01*
X182311715Y-145918946D01*
X181829946Y-146240853D01*
X181610000Y-146570026D01*
X181390054Y-146240853D01*
X180908285Y-145918946D01*
X180340000Y-145805907D01*
X179771715Y-145918946D01*
X179289946Y-146240853D01*
X179070000Y-146570026D01*
X178850054Y-146240853D01*
X178368285Y-145918946D01*
X177800000Y-145805907D01*
X177231715Y-145918946D01*
X176749946Y-146240853D01*
X176530000Y-146570026D01*
X176310054Y-146240853D01*
X175828285Y-145918946D01*
X175260000Y-145805907D01*
X174691715Y-145918946D01*
X174209946Y-146240853D01*
X173990000Y-146570026D01*
X173770054Y-146240853D01*
X173288285Y-145918946D01*
X172720000Y-145805907D01*
X172151715Y-145918946D01*
X171669946Y-146240853D01*
X171450000Y-146570026D01*
X171230054Y-146240853D01*
X170748285Y-145918946D01*
X170180000Y-145805907D01*
X169611715Y-145918946D01*
X169129946Y-146240853D01*
X168910000Y-146570026D01*
X168690054Y-146240853D01*
X168208285Y-145918946D01*
X167640000Y-145805907D01*
X167071715Y-145918946D01*
X166589946Y-146240853D01*
X166370000Y-146570026D01*
X166150054Y-146240853D01*
X165668285Y-145918946D01*
X165100000Y-145805907D01*
X164531715Y-145918946D01*
X164049946Y-146240853D01*
X163830000Y-146570026D01*
X163610054Y-146240853D01*
X163128285Y-145918946D01*
X162560000Y-145805907D01*
X161991715Y-145918946D01*
X161509946Y-146240853D01*
X161290000Y-146570026D01*
X161070054Y-146240853D01*
X160588285Y-145918946D01*
X160020000Y-145805907D01*
X159451715Y-145918946D01*
X158969946Y-146240853D01*
X158750000Y-146570026D01*
X158530054Y-146240853D01*
X158048285Y-145918946D01*
X157480000Y-145805907D01*
X156911715Y-145918946D01*
X156429946Y-146240853D01*
X156210000Y-146570026D01*
X155990054Y-146240853D01*
X155508285Y-145918946D01*
X154940000Y-145805907D01*
X154371715Y-145918946D01*
X153889946Y-146240853D01*
X153662298Y-146581553D01*
X153595183Y-146438642D01*
X153166924Y-146048355D01*
X152756890Y-145878524D01*
X152527000Y-145999845D01*
X152527000Y-147193000D01*
X152547000Y-147193000D01*
X152547000Y-147447000D01*
X152527000Y-147447000D01*
X152527000Y-147467000D01*
X152273000Y-147467000D01*
X152273000Y-147447000D01*
X152253000Y-147447000D01*
X152253000Y-147193000D01*
X152273000Y-147193000D01*
X152273000Y-145999845D01*
X152043110Y-145878524D01*
X151930577Y-145925134D01*
X152064838Y-145601799D01*
X152065162Y-145229833D01*
X151923117Y-144886057D01*
X151660327Y-144622808D01*
X151396446Y-144513235D01*
X151288117Y-144251057D01*
X151025327Y-143987808D01*
X150681799Y-143845162D01*
X150309833Y-143844838D01*
X149966057Y-143986883D01*
X149932882Y-144020000D01*
X145715110Y-144020000D01*
X145715162Y-143959833D01*
X145573117Y-143616057D01*
X145310327Y-143352808D01*
X144966799Y-143210162D01*
X144919923Y-143210121D01*
X144682401Y-142972599D01*
X144435839Y-142807852D01*
X144145000Y-142750000D01*
X138095110Y-142750000D01*
X138095162Y-142689833D01*
X137953117Y-142346057D01*
X137690327Y-142082808D01*
X137346799Y-141940162D01*
X137299923Y-141940121D01*
X136427401Y-141067599D01*
X136180839Y-140902852D01*
X135890000Y-140845000D01*
X122234802Y-140845000D01*
X122129400Y-140739598D01*
X122219838Y-140521799D01*
X122220162Y-140149833D01*
X122078117Y-139806057D01*
X121815327Y-139542808D01*
X121471799Y-139400162D01*
X121099833Y-139399838D01*
X120756057Y-139541883D01*
X120492808Y-139804673D01*
X120383235Y-140068554D01*
X120121057Y-140176883D01*
X119857808Y-140439673D01*
X119748235Y-140703554D01*
X119486057Y-140811883D01*
X119222808Y-141074673D01*
X119113235Y-141338554D01*
X118851057Y-141446883D01*
X118587808Y-141709673D01*
X118445162Y-142053201D01*
X118444838Y-142425167D01*
X118586883Y-142768943D01*
X118620000Y-142802118D01*
X118620000Y-142875000D01*
X118677852Y-143165839D01*
X118824290Y-143385000D01*
X112709802Y-143385000D01*
X112520000Y-143195198D01*
X112520000Y-142167463D01*
X112552192Y-142135327D01*
X112694838Y-141791799D01*
X112695162Y-141419833D01*
X112553117Y-141076057D01*
X112290327Y-140812808D01*
X111946799Y-140670162D01*
X111574833Y-140669838D01*
X111231057Y-140811883D01*
X111125046Y-140917710D01*
X111020327Y-140812808D01*
X110676799Y-140670162D01*
X110304833Y-140669838D01*
X109961057Y-140811883D01*
X109697808Y-141074673D01*
X109555162Y-141418201D01*
X109554838Y-141790167D01*
X109696883Y-142133943D01*
X109730000Y-142167118D01*
X109730000Y-144780000D01*
X109787852Y-145070839D01*
X109934290Y-145290000D01*
X96834802Y-145290000D01*
X96645000Y-145100198D01*
X96645000Y-131794039D01*
X151008096Y-131794039D01*
X151168959Y-132182423D01*
X151544866Y-132597389D01*
X152050959Y-132836914D01*
X152273000Y-132715629D01*
X152273000Y-131572000D01*
X152527000Y-131572000D01*
X152527000Y-132715629D01*
X152749041Y-132836914D01*
X153255134Y-132597389D01*
X153631041Y-132182423D01*
X153791904Y-131794039D01*
X153669915Y-131572000D01*
X152527000Y-131572000D01*
X152273000Y-131572000D01*
X151130085Y-131572000D01*
X151008096Y-131794039D01*
X96645000Y-131794039D01*
X96645000Y-128584802D01*
X96834802Y-128395000D01*
X98456354Y-128395000D01*
X98477757Y-128446800D01*
X98881077Y-128850824D01*
X99408309Y-129069750D01*
X99979187Y-129070248D01*
X100506800Y-128852243D01*
X100910824Y-128448923D01*
X101129750Y-127921691D01*
X101130248Y-127350813D01*
X100917119Y-126835000D01*
X105867560Y-126835000D01*
X105867560Y-128435000D01*
X105911838Y-128670317D01*
X106050910Y-128886441D01*
X106263110Y-129031431D01*
X106515000Y-129082440D01*
X108115000Y-129082440D01*
X108350317Y-129038162D01*
X108566441Y-128899090D01*
X108711431Y-128686890D01*
X108762440Y-128435000D01*
X108762440Y-126835000D01*
X108718162Y-126599683D01*
X108579090Y-126383559D01*
X108366890Y-126238569D01*
X108115000Y-126187560D01*
X106515000Y-126187560D01*
X106279683Y-126231838D01*
X106063559Y-126370910D01*
X105918569Y-126583110D01*
X105867560Y-126835000D01*
X100917119Y-126835000D01*
X100912243Y-126823200D01*
X100508923Y-126419176D01*
X99981691Y-126200250D01*
X99410813Y-126199752D01*
X98883200Y-126417757D01*
X98479176Y-126821077D01*
X98456785Y-126875000D01*
X96645000Y-126875000D01*
X96645000Y-112679187D01*
X98259752Y-112679187D01*
X98477757Y-113206800D01*
X98881077Y-113610824D01*
X99408309Y-113829750D01*
X99979187Y-113830248D01*
X100506800Y-113612243D01*
X100716663Y-113402745D01*
X106486861Y-113402745D01*
X106560995Y-113648864D01*
X107098223Y-113841965D01*
X107668454Y-113814778D01*
X108069005Y-113648864D01*
X108143139Y-113402745D01*
X107315000Y-112574605D01*
X106486861Y-113402745D01*
X100716663Y-113402745D01*
X100910824Y-113208923D01*
X101129750Y-112681691D01*
X101130189Y-112178223D01*
X105868035Y-112178223D01*
X105895222Y-112748454D01*
X106061136Y-113149005D01*
X106307255Y-113223139D01*
X107135395Y-112395000D01*
X107494605Y-112395000D01*
X108322745Y-113223139D01*
X108568864Y-113149005D01*
X108761965Y-112611777D01*
X108734778Y-112041546D01*
X108568864Y-111640995D01*
X108322745Y-111566861D01*
X107494605Y-112395000D01*
X107135395Y-112395000D01*
X106307255Y-111566861D01*
X106061136Y-111640995D01*
X105868035Y-112178223D01*
X101130189Y-112178223D01*
X101130248Y-112110813D01*
X100912243Y-111583200D01*
X100716640Y-111387255D01*
X106486861Y-111387255D01*
X107315000Y-112215395D01*
X108143139Y-111387255D01*
X108069005Y-111141136D01*
X107531777Y-110948035D01*
X106961546Y-110975222D01*
X106560995Y-111141136D01*
X106486861Y-111387255D01*
X100716640Y-111387255D01*
X100508923Y-111179176D01*
X99981691Y-110960250D01*
X99410813Y-110959752D01*
X98883200Y-111177757D01*
X98479176Y-111581077D01*
X98260250Y-112108309D01*
X98259752Y-112679187D01*
X96645000Y-112679187D01*
X96645000Y-107599187D01*
X96989752Y-107599187D01*
X97207757Y-108126800D01*
X97611077Y-108530824D01*
X98138309Y-108749750D01*
X98709187Y-108750248D01*
X99236800Y-108532243D01*
X99640824Y-108128923D01*
X99859750Y-107601691D01*
X99860024Y-107286887D01*
X100800000Y-107286887D01*
X100800000Y-107343113D01*
X100909233Y-107892264D01*
X101220302Y-108357811D01*
X101685849Y-108668880D01*
X102235000Y-108778113D01*
X102784151Y-108668880D01*
X103249698Y-108357811D01*
X103560767Y-107892264D01*
X103670000Y-107343113D01*
X103670000Y-107286887D01*
X103560767Y-106737736D01*
X103249698Y-106272189D01*
X102784151Y-105961120D01*
X102235000Y-105851887D01*
X101685849Y-105961120D01*
X101220302Y-106272189D01*
X100909233Y-106737736D01*
X100800000Y-107286887D01*
X99860024Y-107286887D01*
X99860248Y-107030813D01*
X99642243Y-106503200D01*
X99238923Y-106099176D01*
X98711691Y-105880250D01*
X98140813Y-105879752D01*
X97613200Y-106097757D01*
X97209176Y-106501077D01*
X96990250Y-107028309D01*
X96989752Y-107599187D01*
X96645000Y-107599187D01*
X96645000Y-104849285D01*
X105929760Y-104849285D01*
X106140169Y-105358515D01*
X106529436Y-105748461D01*
X107038298Y-105959759D01*
X107589285Y-105960240D01*
X108098515Y-105749831D01*
X108488461Y-105360564D01*
X108699759Y-104851702D01*
X108700240Y-104300715D01*
X108489831Y-103791485D01*
X108100564Y-103401539D01*
X107591702Y-103190241D01*
X107040715Y-103189760D01*
X106531485Y-103400169D01*
X106141539Y-103789436D01*
X105930241Y-104298298D01*
X105929760Y-104849285D01*
X96645000Y-104849285D01*
X96645000Y-103322745D01*
X97596861Y-103322745D01*
X97670995Y-103568864D01*
X98208223Y-103761965D01*
X98778454Y-103734778D01*
X99179005Y-103568864D01*
X99253139Y-103322745D01*
X98425000Y-102494605D01*
X97596861Y-103322745D01*
X96645000Y-103322745D01*
X96645000Y-102098223D01*
X96978035Y-102098223D01*
X97005222Y-102668454D01*
X97171136Y-103069005D01*
X97417255Y-103143139D01*
X98245395Y-102315000D01*
X98604605Y-102315000D01*
X99432745Y-103143139D01*
X99678864Y-103069005D01*
X99871965Y-102531777D01*
X99844778Y-101961546D01*
X99678864Y-101560995D01*
X99432745Y-101486861D01*
X98604605Y-102315000D01*
X98245395Y-102315000D01*
X97417255Y-101486861D01*
X97171136Y-101560995D01*
X96978035Y-102098223D01*
X96645000Y-102098223D01*
X96645000Y-101307255D01*
X97596861Y-101307255D01*
X98425000Y-102135395D01*
X99253139Y-101307255D01*
X99179005Y-101061136D01*
X98641777Y-100868035D01*
X98071546Y-100895222D01*
X97670995Y-101061136D01*
X97596861Y-101307255D01*
X96645000Y-101307255D01*
X96645000Y-99969285D01*
X105929760Y-99969285D01*
X106140169Y-100478515D01*
X106529436Y-100868461D01*
X107038298Y-101079759D01*
X107589285Y-101080240D01*
X108098515Y-100869831D01*
X108488461Y-100480564D01*
X108699759Y-99971702D01*
X108700240Y-99420715D01*
X108489831Y-98911485D01*
X108100564Y-98521539D01*
X107868073Y-98425000D01*
X111159050Y-98425000D01*
X111268283Y-98974151D01*
X111579352Y-99439698D01*
X111961438Y-99695000D01*
X111579352Y-99950302D01*
X111268283Y-100415849D01*
X111159050Y-100965000D01*
X111268283Y-101514151D01*
X111579352Y-101979698D01*
X111961438Y-102235000D01*
X111579352Y-102490302D01*
X111268283Y-102955849D01*
X111159050Y-103505000D01*
X111268283Y-104054151D01*
X111579352Y-104519698D01*
X111961438Y-104775000D01*
X111579352Y-105030302D01*
X111268283Y-105495849D01*
X111159050Y-106045000D01*
X111268283Y-106594151D01*
X111579352Y-107059698D01*
X111961438Y-107315000D01*
X111579352Y-107570302D01*
X111268283Y-108035849D01*
X111159050Y-108585000D01*
X111268283Y-109134151D01*
X111579352Y-109599698D01*
X111961438Y-109855000D01*
X111579352Y-110110302D01*
X111268283Y-110575849D01*
X111159050Y-111125000D01*
X111268283Y-111674151D01*
X111579352Y-112139698D01*
X111961438Y-112395000D01*
X111579352Y-112650302D01*
X111268283Y-113115849D01*
X111159050Y-113665000D01*
X111268283Y-114214151D01*
X111579352Y-114679698D01*
X111961438Y-114935000D01*
X111579352Y-115190302D01*
X111268283Y-115655849D01*
X111159050Y-116205000D01*
X111268283Y-116754151D01*
X111579352Y-117219698D01*
X111961438Y-117475000D01*
X111579352Y-117730302D01*
X111268283Y-118195849D01*
X111159050Y-118745000D01*
X111268283Y-119294151D01*
X111579352Y-119759698D01*
X111961438Y-120015000D01*
X111579352Y-120270302D01*
X111268283Y-120735849D01*
X111159050Y-121285000D01*
X111268283Y-121834151D01*
X111579352Y-122299698D01*
X111961438Y-122555000D01*
X111579352Y-122810302D01*
X111268283Y-123275849D01*
X111159050Y-123825000D01*
X111268283Y-124374151D01*
X111579352Y-124839698D01*
X111961438Y-125095000D01*
X111579352Y-125350302D01*
X111268283Y-125815849D01*
X111159050Y-126365000D01*
X111268283Y-126914151D01*
X111579352Y-127379698D01*
X111961438Y-127635000D01*
X111579352Y-127890302D01*
X111268283Y-128355849D01*
X111159050Y-128905000D01*
X111268283Y-129454151D01*
X111579352Y-129919698D01*
X112044899Y-130230767D01*
X112594050Y-130340000D01*
X113465950Y-130340000D01*
X114015101Y-130230767D01*
X114480648Y-129919698D01*
X114791717Y-129454151D01*
X114900950Y-128905000D01*
X126399050Y-128905000D01*
X126508283Y-129454151D01*
X126819352Y-129919698D01*
X127284899Y-130230767D01*
X127834050Y-130340000D01*
X128705950Y-130340000D01*
X129255101Y-130230767D01*
X129720648Y-129919698D01*
X130031717Y-129454151D01*
X130084421Y-129189187D01*
X130644752Y-129189187D01*
X130862757Y-129716800D01*
X131266077Y-130120824D01*
X131793309Y-130339750D01*
X132364187Y-130340248D01*
X132891800Y-130122243D01*
X133295824Y-129718923D01*
X133488860Y-129254039D01*
X135368096Y-129254039D01*
X135385633Y-129336819D01*
X135655500Y-129829896D01*
X136093517Y-130182166D01*
X136633000Y-130340000D01*
X137033000Y-130340000D01*
X137033000Y-129032000D01*
X137287000Y-129032000D01*
X137287000Y-130340000D01*
X137687000Y-130340000D01*
X138226483Y-130182166D01*
X138664500Y-129829896D01*
X138934367Y-129336819D01*
X138951904Y-129254039D01*
X138829915Y-129032000D01*
X137287000Y-129032000D01*
X137033000Y-129032000D01*
X135490085Y-129032000D01*
X135368096Y-129254039D01*
X133488860Y-129254039D01*
X133514750Y-129191691D01*
X133515000Y-128905000D01*
X142909050Y-128905000D01*
X143018283Y-129454151D01*
X143329352Y-129919698D01*
X143794899Y-130230767D01*
X144344050Y-130340000D01*
X145215950Y-130340000D01*
X145765101Y-130230767D01*
X146230648Y-129919698D01*
X146541717Y-129454151D01*
X146650950Y-128905000D01*
X146541717Y-128355849D01*
X146230648Y-127890302D01*
X145852293Y-127637493D01*
X146284500Y-127289896D01*
X146554367Y-126796819D01*
X146571904Y-126714039D01*
X146449915Y-126492000D01*
X144907000Y-126492000D01*
X144907000Y-126512000D01*
X144653000Y-126512000D01*
X144653000Y-126492000D01*
X143110085Y-126492000D01*
X142988096Y-126714039D01*
X143005633Y-126796819D01*
X143275500Y-127289896D01*
X143707707Y-127637493D01*
X143329352Y-127890302D01*
X143018283Y-128355849D01*
X142909050Y-128905000D01*
X133515000Y-128905000D01*
X133515248Y-128620813D01*
X133297243Y-128093200D01*
X132893923Y-127689176D01*
X132366691Y-127470250D01*
X131795813Y-127469752D01*
X131268200Y-127687757D01*
X130864176Y-128091077D01*
X130645250Y-128618309D01*
X130644752Y-129189187D01*
X130084421Y-129189187D01*
X130140950Y-128905000D01*
X130031717Y-128355849D01*
X129720648Y-127890302D01*
X129342293Y-127637493D01*
X129774500Y-127289896D01*
X130044367Y-126796819D01*
X130061904Y-126714039D01*
X129939915Y-126492000D01*
X128397000Y-126492000D01*
X128397000Y-126512000D01*
X128143000Y-126512000D01*
X128143000Y-126492000D01*
X126600085Y-126492000D01*
X126478096Y-126714039D01*
X126495633Y-126796819D01*
X126765500Y-127289896D01*
X127197707Y-127637493D01*
X126819352Y-127890302D01*
X126508283Y-128355849D01*
X126399050Y-128905000D01*
X114900950Y-128905000D01*
X114791717Y-128355849D01*
X114480648Y-127890302D01*
X114098562Y-127635000D01*
X114480648Y-127379698D01*
X114791717Y-126914151D01*
X114900950Y-126365000D01*
X135289050Y-126365000D01*
X135398283Y-126914151D01*
X135709352Y-127379698D01*
X136087707Y-127632507D01*
X135655500Y-127980104D01*
X135385633Y-128473181D01*
X135368096Y-128555961D01*
X135490085Y-128778000D01*
X137033000Y-128778000D01*
X137033000Y-128758000D01*
X137287000Y-128758000D01*
X137287000Y-128778000D01*
X138829915Y-128778000D01*
X138951904Y-128555961D01*
X138934367Y-128473181D01*
X138664500Y-127980104D01*
X138232293Y-127632507D01*
X138610648Y-127379698D01*
X138921717Y-126914151D01*
X139030950Y-126365000D01*
X138921717Y-125815849D01*
X138610648Y-125350302D01*
X138232293Y-125097493D01*
X138664500Y-124749896D01*
X138934367Y-124256819D01*
X138951904Y-124174039D01*
X142988096Y-124174039D01*
X143005633Y-124256819D01*
X143275500Y-124749896D01*
X143704607Y-125095000D01*
X143275500Y-125440104D01*
X143005633Y-125933181D01*
X142988096Y-126015961D01*
X143110085Y-126238000D01*
X144653000Y-126238000D01*
X144653000Y-123952000D01*
X144907000Y-123952000D01*
X144907000Y-126238000D01*
X146449915Y-126238000D01*
X146571904Y-126015961D01*
X146554367Y-125933181D01*
X146284500Y-125440104D01*
X146085633Y-125280167D01*
X148924838Y-125280167D01*
X149066883Y-125623943D01*
X149329673Y-125887192D01*
X149673201Y-126029838D01*
X150045167Y-126030162D01*
X150388943Y-125888117D01*
X150422118Y-125855000D01*
X150567537Y-125855000D01*
X150599673Y-125887192D01*
X150943201Y-126029838D01*
X151003544Y-126029891D01*
X150936887Y-126365000D01*
X151046120Y-126914151D01*
X151357189Y-127379698D01*
X151739275Y-127635000D01*
X151357189Y-127890302D01*
X151046120Y-128355849D01*
X150936887Y-128905000D01*
X151046120Y-129454151D01*
X151357189Y-129919698D01*
X151761703Y-130189986D01*
X151544866Y-130292611D01*
X151168959Y-130707577D01*
X151008096Y-131095961D01*
X151130085Y-131318000D01*
X152273000Y-131318000D01*
X152273000Y-131298000D01*
X152527000Y-131298000D01*
X152527000Y-131318000D01*
X153669915Y-131318000D01*
X153791904Y-131095961D01*
X153631041Y-130707577D01*
X153255134Y-130292611D01*
X153038297Y-130189986D01*
X153442811Y-129919698D01*
X153753880Y-129454151D01*
X153863113Y-128905000D01*
X153753880Y-128355849D01*
X153442811Y-127890302D01*
X153060725Y-127635000D01*
X153442811Y-127379698D01*
X153753880Y-126914151D01*
X153863113Y-126365000D01*
X153753880Y-125815849D01*
X153442811Y-125350302D01*
X153060725Y-125095000D01*
X153442811Y-124839698D01*
X153753880Y-124374151D01*
X153863113Y-123825000D01*
X153753880Y-123275849D01*
X153442811Y-122810302D01*
X153038297Y-122540014D01*
X153255134Y-122437389D01*
X153631041Y-122022423D01*
X153791904Y-121634039D01*
X153669915Y-121412000D01*
X152527000Y-121412000D01*
X152527000Y-121432000D01*
X152273000Y-121432000D01*
X152273000Y-121412000D01*
X151130085Y-121412000D01*
X151008096Y-121634039D01*
X151168959Y-122022423D01*
X151544866Y-122437389D01*
X151761703Y-122540014D01*
X151357189Y-122810302D01*
X151046120Y-123275849D01*
X150936887Y-123825000D01*
X151003501Y-124159889D01*
X150944833Y-124159838D01*
X150601057Y-124301883D01*
X150567882Y-124335000D01*
X150422463Y-124335000D01*
X150390327Y-124302808D01*
X150046799Y-124160162D01*
X149674833Y-124159838D01*
X149331057Y-124301883D01*
X149067808Y-124564673D01*
X148925162Y-124908201D01*
X148924838Y-125280167D01*
X146085633Y-125280167D01*
X145855393Y-125095000D01*
X146284500Y-124749896D01*
X146554367Y-124256819D01*
X146571904Y-124174039D01*
X146449915Y-123952000D01*
X144907000Y-123952000D01*
X144653000Y-123952000D01*
X143110085Y-123952000D01*
X142988096Y-124174039D01*
X138951904Y-124174039D01*
X138829915Y-123952000D01*
X137287000Y-123952000D01*
X137287000Y-123972000D01*
X137033000Y-123972000D01*
X137033000Y-123952000D01*
X135490085Y-123952000D01*
X135368096Y-124174039D01*
X135385633Y-124256819D01*
X135655500Y-124749896D01*
X136087707Y-125097493D01*
X135709352Y-125350302D01*
X135398283Y-125815849D01*
X135289050Y-126365000D01*
X114900950Y-126365000D01*
X114791717Y-125815849D01*
X114480648Y-125350302D01*
X114098562Y-125095000D01*
X114480648Y-124839698D01*
X114791717Y-124374151D01*
X114831521Y-124174039D01*
X126478096Y-124174039D01*
X126495633Y-124256819D01*
X126765500Y-124749896D01*
X127194607Y-125095000D01*
X126765500Y-125440104D01*
X126495633Y-125933181D01*
X126478096Y-126015961D01*
X126600085Y-126238000D01*
X128143000Y-126238000D01*
X128143000Y-123952000D01*
X128397000Y-123952000D01*
X128397000Y-126238000D01*
X129939915Y-126238000D01*
X130061904Y-126015961D01*
X130044367Y-125933181D01*
X129774500Y-125440104D01*
X129345393Y-125095000D01*
X129572011Y-124912745D01*
X131251861Y-124912745D01*
X131325995Y-125158864D01*
X131863223Y-125351965D01*
X132433454Y-125324778D01*
X132834005Y-125158864D01*
X132908139Y-124912745D01*
X132080000Y-124084605D01*
X131251861Y-124912745D01*
X129572011Y-124912745D01*
X129774500Y-124749896D01*
X130044367Y-124256819D01*
X130061904Y-124174039D01*
X129939915Y-123952000D01*
X128397000Y-123952000D01*
X128143000Y-123952000D01*
X126600085Y-123952000D01*
X126478096Y-124174039D01*
X114831521Y-124174039D01*
X114900950Y-123825000D01*
X114791717Y-123275849D01*
X114480648Y-122810302D01*
X114098562Y-122555000D01*
X114480648Y-122299698D01*
X114791717Y-121834151D01*
X114900950Y-121285000D01*
X114791717Y-120735849D01*
X114480648Y-120270302D01*
X114098562Y-120015000D01*
X114480648Y-119759698D01*
X114791717Y-119294151D01*
X114900950Y-118745000D01*
X114791717Y-118195849D01*
X114480648Y-117730302D01*
X114098562Y-117475000D01*
X114480648Y-117219698D01*
X114791717Y-116754151D01*
X114900950Y-116205000D01*
X114811473Y-115755167D01*
X117174838Y-115755167D01*
X117316883Y-116098943D01*
X117579673Y-116362192D01*
X117879332Y-116486622D01*
X117810162Y-116653201D01*
X117809838Y-117025167D01*
X117951883Y-117368943D01*
X118214673Y-117632192D01*
X118558201Y-117774838D01*
X118605077Y-117774879D01*
X118842599Y-118012401D01*
X119089161Y-118177148D01*
X119380000Y-118235000D01*
X125167537Y-118235000D01*
X125199673Y-118267192D01*
X125543201Y-118409838D01*
X125915167Y-118410162D01*
X126258943Y-118268117D01*
X126522192Y-118005327D01*
X126664838Y-117661799D01*
X126665162Y-117289833D01*
X126523117Y-116946057D01*
X126260327Y-116682808D01*
X125916799Y-116540162D01*
X125544833Y-116539838D01*
X125201057Y-116681883D01*
X125167882Y-116715000D01*
X119694802Y-116715000D01*
X119680122Y-116700320D01*
X119680162Y-116654833D01*
X119538117Y-116311057D01*
X119275327Y-116047808D01*
X118975668Y-115923378D01*
X119044838Y-115756799D01*
X119044879Y-115709923D01*
X119059802Y-115695000D01*
X124532537Y-115695000D01*
X124564673Y-115727192D01*
X124908201Y-115869838D01*
X125280167Y-115870162D01*
X125623943Y-115728117D01*
X125887192Y-115465327D01*
X126029838Y-115121799D01*
X126030162Y-114749833D01*
X125888117Y-114406057D01*
X125625327Y-114142808D01*
X125281799Y-114000162D01*
X124909833Y-113999838D01*
X124566057Y-114141883D01*
X124532882Y-114175000D01*
X118745000Y-114175000D01*
X118454161Y-114232852D01*
X118207599Y-114397599D01*
X117970320Y-114634878D01*
X117924833Y-114634838D01*
X117581057Y-114776883D01*
X117317808Y-115039673D01*
X117175162Y-115383201D01*
X117174838Y-115755167D01*
X114811473Y-115755167D01*
X114791717Y-115655849D01*
X114480648Y-115190302D01*
X114098562Y-114935000D01*
X114480648Y-114679698D01*
X114791717Y-114214151D01*
X114900950Y-113665000D01*
X114791717Y-113115849D01*
X114480648Y-112650302D01*
X114375684Y-112580167D01*
X117174838Y-112580167D01*
X117316883Y-112923943D01*
X117579673Y-113187192D01*
X117923201Y-113329838D01*
X118295167Y-113330162D01*
X118638943Y-113188117D01*
X118672118Y-113155000D01*
X123897537Y-113155000D01*
X123929673Y-113187192D01*
X124273201Y-113329838D01*
X124645167Y-113330162D01*
X124988943Y-113188117D01*
X125252192Y-112925327D01*
X125394838Y-112581799D01*
X125395162Y-112209833D01*
X125253117Y-111866057D01*
X124990327Y-111602808D01*
X124646799Y-111460162D01*
X124274833Y-111459838D01*
X123931057Y-111601883D01*
X123897882Y-111635000D01*
X118672463Y-111635000D01*
X118640327Y-111602808D01*
X118296799Y-111460162D01*
X117924833Y-111459838D01*
X117581057Y-111601883D01*
X117317808Y-111864673D01*
X117175162Y-112208201D01*
X117174838Y-112580167D01*
X114375684Y-112580167D01*
X114098562Y-112395000D01*
X114480648Y-112139698D01*
X114791717Y-111674151D01*
X114900950Y-111125000D01*
X114791717Y-110575849D01*
X114480648Y-110110302D01*
X114375684Y-110040167D01*
X117174838Y-110040167D01*
X117316883Y-110383943D01*
X117579673Y-110647192D01*
X117923201Y-110789838D01*
X118295167Y-110790162D01*
X118638943Y-110648117D01*
X118672118Y-110615000D01*
X123262537Y-110615000D01*
X123294673Y-110647192D01*
X123638201Y-110789838D01*
X124010167Y-110790162D01*
X124353943Y-110648117D01*
X124617192Y-110385327D01*
X124759838Y-110041799D01*
X124760162Y-109669833D01*
X124618117Y-109326057D01*
X124355327Y-109062808D01*
X124011799Y-108920162D01*
X123639833Y-108919838D01*
X123296057Y-109061883D01*
X123262882Y-109095000D01*
X118672463Y-109095000D01*
X118640327Y-109062808D01*
X118296799Y-108920162D01*
X117924833Y-108919838D01*
X117581057Y-109061883D01*
X117317808Y-109324673D01*
X117175162Y-109668201D01*
X117174838Y-110040167D01*
X114375684Y-110040167D01*
X114098562Y-109855000D01*
X114480648Y-109599698D01*
X114791717Y-109134151D01*
X114900950Y-108585000D01*
X114791717Y-108035849D01*
X114480648Y-107570302D01*
X114098562Y-107315000D01*
X114480648Y-107059698D01*
X114791717Y-106594151D01*
X114900950Y-106045000D01*
X114791717Y-105495849D01*
X114480648Y-105030302D01*
X114098562Y-104775000D01*
X114480648Y-104519698D01*
X114791717Y-104054151D01*
X114900950Y-103505000D01*
X114791717Y-102955849D01*
X114480648Y-102490302D01*
X114098562Y-102235000D01*
X114480648Y-101979698D01*
X114650832Y-101725000D01*
X115642537Y-101725000D01*
X115674673Y-101757192D01*
X116018201Y-101899838D01*
X116390167Y-101900162D01*
X116733943Y-101758117D01*
X116997192Y-101495327D01*
X117139838Y-101151799D01*
X117140162Y-100779833D01*
X116998117Y-100436057D01*
X116735327Y-100172808D01*
X116391799Y-100030162D01*
X116019833Y-100029838D01*
X115676057Y-100171883D01*
X115642882Y-100205000D01*
X114650832Y-100205000D01*
X114480648Y-99950302D01*
X114098562Y-99695000D01*
X114480648Y-99439698D01*
X114791717Y-98974151D01*
X114900950Y-98425000D01*
X114791717Y-97875849D01*
X114480648Y-97410302D01*
X114345502Y-97320000D01*
X114356309Y-97320000D01*
X114589698Y-97223327D01*
X114768327Y-97044699D01*
X114865000Y-96811310D01*
X114865000Y-96170750D01*
X114706250Y-96012000D01*
X113157000Y-96012000D01*
X113157000Y-96032000D01*
X112903000Y-96032000D01*
X112903000Y-96012000D01*
X111353750Y-96012000D01*
X111195000Y-96170750D01*
X111195000Y-96811310D01*
X111291673Y-97044699D01*
X111470302Y-97223327D01*
X111703691Y-97320000D01*
X111714498Y-97320000D01*
X111579352Y-97410302D01*
X111268283Y-97875849D01*
X111159050Y-98425000D01*
X107868073Y-98425000D01*
X107591702Y-98310241D01*
X107040715Y-98309760D01*
X106531485Y-98520169D01*
X106141539Y-98909436D01*
X105930241Y-99418298D01*
X105929760Y-99969285D01*
X96645000Y-99969285D01*
X96645000Y-97439187D01*
X100799752Y-97439187D01*
X101017757Y-97966800D01*
X101421077Y-98370824D01*
X101948309Y-98589750D01*
X102519187Y-98590248D01*
X103046800Y-98372243D01*
X103450824Y-97968923D01*
X103669750Y-97441691D01*
X103670248Y-96870813D01*
X103452243Y-96343200D01*
X103048923Y-95939176D01*
X102918453Y-95885000D01*
X126399050Y-95885000D01*
X126508283Y-96434151D01*
X126819352Y-96899698D01*
X127201438Y-97155000D01*
X126819352Y-97410302D01*
X126508283Y-97875849D01*
X126399050Y-98425000D01*
X126508283Y-98974151D01*
X126819352Y-99439698D01*
X127201438Y-99695000D01*
X126819352Y-99950302D01*
X126508283Y-100415849D01*
X126399050Y-100965000D01*
X126508283Y-101514151D01*
X126819352Y-101979698D01*
X127201438Y-102235000D01*
X126819352Y-102490302D01*
X126508283Y-102955849D01*
X126399050Y-103505000D01*
X126508283Y-104054151D01*
X126819352Y-104519698D01*
X127201438Y-104775000D01*
X126819352Y-105030302D01*
X126508283Y-105495849D01*
X126399050Y-106045000D01*
X126508283Y-106594151D01*
X126819352Y-107059698D01*
X127201438Y-107315000D01*
X126819352Y-107570302D01*
X126508283Y-108035849D01*
X126399050Y-108585000D01*
X126508283Y-109134151D01*
X126819352Y-109599698D01*
X127201438Y-109855000D01*
X126819352Y-110110302D01*
X126508283Y-110575849D01*
X126399050Y-111125000D01*
X126508283Y-111674151D01*
X126819352Y-112139698D01*
X127201438Y-112395000D01*
X126819352Y-112650302D01*
X126508283Y-113115849D01*
X126399050Y-113665000D01*
X126508283Y-114214151D01*
X126819352Y-114679698D01*
X127201438Y-114935000D01*
X126819352Y-115190302D01*
X126508283Y-115655849D01*
X126399050Y-116205000D01*
X126508283Y-116754151D01*
X126819352Y-117219698D01*
X127201438Y-117475000D01*
X126819352Y-117730302D01*
X126508283Y-118195849D01*
X126399050Y-118745000D01*
X126508283Y-119294151D01*
X126819352Y-119759698D01*
X127201438Y-120015000D01*
X126819352Y-120270302D01*
X126508283Y-120735849D01*
X126399050Y-121285000D01*
X126508283Y-121834151D01*
X126819352Y-122299698D01*
X127197707Y-122552507D01*
X126765500Y-122900104D01*
X126495633Y-123393181D01*
X126478096Y-123475961D01*
X126600085Y-123698000D01*
X128143000Y-123698000D01*
X128143000Y-123678000D01*
X128397000Y-123678000D01*
X128397000Y-123698000D01*
X129939915Y-123698000D01*
X129945286Y-123688223D01*
X130633035Y-123688223D01*
X130660222Y-124258454D01*
X130826136Y-124659005D01*
X131072255Y-124733139D01*
X131900395Y-123905000D01*
X132259605Y-123905000D01*
X133087745Y-124733139D01*
X133333864Y-124659005D01*
X133526965Y-124121777D01*
X133499778Y-123551546D01*
X133333864Y-123150995D01*
X133087745Y-123076861D01*
X132259605Y-123905000D01*
X131900395Y-123905000D01*
X131072255Y-123076861D01*
X130826136Y-123150995D01*
X130633035Y-123688223D01*
X129945286Y-123688223D01*
X130061904Y-123475961D01*
X130044367Y-123393181D01*
X129774500Y-122900104D01*
X129770958Y-122897255D01*
X131251861Y-122897255D01*
X132080000Y-123725395D01*
X132908139Y-122897255D01*
X132834005Y-122651136D01*
X132296777Y-122458035D01*
X131726546Y-122485222D01*
X131325995Y-122651136D01*
X131251861Y-122897255D01*
X129770958Y-122897255D01*
X129342293Y-122552507D01*
X129720648Y-122299698D01*
X130031717Y-121834151D01*
X130071521Y-121634039D01*
X135368096Y-121634039D01*
X135385633Y-121716819D01*
X135655500Y-122209896D01*
X136084607Y-122555000D01*
X135655500Y-122900104D01*
X135385633Y-123393181D01*
X135368096Y-123475961D01*
X135490085Y-123698000D01*
X137033000Y-123698000D01*
X137033000Y-121412000D01*
X137287000Y-121412000D01*
X137287000Y-123698000D01*
X138829915Y-123698000D01*
X138951904Y-123475961D01*
X138934367Y-123393181D01*
X138664500Y-122900104D01*
X138235393Y-122555000D01*
X138664500Y-122209896D01*
X138934367Y-121716819D01*
X138951904Y-121634039D01*
X138829915Y-121412000D01*
X137287000Y-121412000D01*
X137033000Y-121412000D01*
X135490085Y-121412000D01*
X135368096Y-121634039D01*
X130071521Y-121634039D01*
X130140950Y-121285000D01*
X142909050Y-121285000D01*
X143018283Y-121834151D01*
X143329352Y-122299698D01*
X143707707Y-122552507D01*
X143275500Y-122900104D01*
X143005633Y-123393181D01*
X142988096Y-123475961D01*
X143110085Y-123698000D01*
X144653000Y-123698000D01*
X144653000Y-123678000D01*
X144907000Y-123678000D01*
X144907000Y-123698000D01*
X146449915Y-123698000D01*
X146571904Y-123475961D01*
X146554367Y-123393181D01*
X146284500Y-122900104D01*
X145852293Y-122552507D01*
X146230648Y-122299698D01*
X146541717Y-121834151D01*
X146650950Y-121285000D01*
X146541717Y-120735849D01*
X146230648Y-120270302D01*
X145852293Y-120017493D01*
X146280957Y-119672745D01*
X147761861Y-119672745D01*
X147835995Y-119918864D01*
X148373223Y-120111965D01*
X148943454Y-120084778D01*
X149344005Y-119918864D01*
X149418139Y-119672745D01*
X148590000Y-118844605D01*
X147761861Y-119672745D01*
X146280957Y-119672745D01*
X146284500Y-119669896D01*
X146554367Y-119176819D01*
X146571904Y-119094039D01*
X146449915Y-118872000D01*
X144907000Y-118872000D01*
X144907000Y-118892000D01*
X144653000Y-118892000D01*
X144653000Y-118872000D01*
X143110085Y-118872000D01*
X142988096Y-119094039D01*
X143005633Y-119176819D01*
X143275500Y-119669896D01*
X143707707Y-120017493D01*
X143329352Y-120270302D01*
X143018283Y-120735849D01*
X142909050Y-121285000D01*
X130140950Y-121285000D01*
X130031717Y-120735849D01*
X129720648Y-120270302D01*
X129338562Y-120015000D01*
X129720648Y-119759698D01*
X130031717Y-119294151D01*
X130140950Y-118745000D01*
X130031717Y-118195849D01*
X129720648Y-117730302D01*
X129338562Y-117475000D01*
X129720648Y-117219698D01*
X130031717Y-116754151D01*
X130140950Y-116205000D01*
X135289050Y-116205000D01*
X135398283Y-116754151D01*
X135709352Y-117219698D01*
X136091438Y-117475000D01*
X135709352Y-117730302D01*
X135398283Y-118195849D01*
X135289050Y-118745000D01*
X135398283Y-119294151D01*
X135709352Y-119759698D01*
X136087707Y-120012507D01*
X135655500Y-120360104D01*
X135385633Y-120853181D01*
X135368096Y-120935961D01*
X135490085Y-121158000D01*
X137033000Y-121158000D01*
X137033000Y-121138000D01*
X137287000Y-121138000D01*
X137287000Y-121158000D01*
X138829915Y-121158000D01*
X138951904Y-120935961D01*
X138934367Y-120853181D01*
X138664500Y-120360104D01*
X138232293Y-120012507D01*
X138610648Y-119759698D01*
X138921717Y-119294151D01*
X139030950Y-118745000D01*
X138921717Y-118195849D01*
X138610648Y-117730302D01*
X138228562Y-117475000D01*
X138610648Y-117219698D01*
X138921717Y-116754151D01*
X138961521Y-116554039D01*
X142988096Y-116554039D01*
X143005633Y-116636819D01*
X143275500Y-117129896D01*
X143704607Y-117475000D01*
X143275500Y-117820104D01*
X143005633Y-118313181D01*
X142988096Y-118395961D01*
X143110085Y-118618000D01*
X144653000Y-118618000D01*
X144653000Y-116332000D01*
X144907000Y-116332000D01*
X144907000Y-118618000D01*
X146449915Y-118618000D01*
X146543191Y-118448223D01*
X147143035Y-118448223D01*
X147170222Y-119018454D01*
X147336136Y-119419005D01*
X147582255Y-119493139D01*
X148410395Y-118665000D01*
X148769605Y-118665000D01*
X149597745Y-119493139D01*
X149843864Y-119419005D01*
X150036965Y-118881777D01*
X150009778Y-118311546D01*
X149843864Y-117910995D01*
X149597745Y-117836861D01*
X148769605Y-118665000D01*
X148410395Y-118665000D01*
X147582255Y-117836861D01*
X147336136Y-117910995D01*
X147143035Y-118448223D01*
X146543191Y-118448223D01*
X146571904Y-118395961D01*
X146554367Y-118313181D01*
X146284500Y-117820104D01*
X146082012Y-117657255D01*
X147761861Y-117657255D01*
X148590000Y-118485395D01*
X149418139Y-117657255D01*
X149344005Y-117411136D01*
X148806777Y-117218035D01*
X148236546Y-117245222D01*
X147835995Y-117411136D01*
X147761861Y-117657255D01*
X146082012Y-117657255D01*
X145855393Y-117475000D01*
X146284500Y-117129896D01*
X146554367Y-116636819D01*
X146571904Y-116554039D01*
X146449915Y-116332000D01*
X144907000Y-116332000D01*
X144653000Y-116332000D01*
X143110085Y-116332000D01*
X142988096Y-116554039D01*
X138961521Y-116554039D01*
X139030950Y-116205000D01*
X150936887Y-116205000D01*
X151046120Y-116754151D01*
X151357189Y-117219698D01*
X151739275Y-117475000D01*
X151357189Y-117730302D01*
X151046120Y-118195849D01*
X150936887Y-118745000D01*
X151046120Y-119294151D01*
X151357189Y-119759698D01*
X151761703Y-120029986D01*
X151544866Y-120132611D01*
X151168959Y-120547577D01*
X151008096Y-120935961D01*
X151130085Y-121158000D01*
X152273000Y-121158000D01*
X152273000Y-121138000D01*
X152527000Y-121138000D01*
X152527000Y-121158000D01*
X153669915Y-121158000D01*
X153791904Y-120935961D01*
X153631041Y-120547577D01*
X153255134Y-120132611D01*
X153038297Y-120029986D01*
X153442811Y-119759698D01*
X153753880Y-119294151D01*
X153863113Y-118745000D01*
X153753880Y-118195849D01*
X153442811Y-117730302D01*
X153060725Y-117475000D01*
X153442811Y-117219698D01*
X153753880Y-116754151D01*
X153863113Y-116205000D01*
X153773636Y-115755167D01*
X155909838Y-115755167D01*
X156051883Y-116098943D01*
X156085000Y-116132118D01*
X156085000Y-125167537D01*
X156052808Y-125199673D01*
X155910162Y-125543201D01*
X155909838Y-125915167D01*
X156051883Y-126258943D01*
X156314673Y-126522192D01*
X156578554Y-126631765D01*
X156686883Y-126893943D01*
X156949673Y-127157192D01*
X157293201Y-127299838D01*
X157665167Y-127300162D01*
X158008943Y-127158117D01*
X158272192Y-126895327D01*
X158381765Y-126631446D01*
X158592561Y-126544347D01*
X158666120Y-126914151D01*
X158977189Y-127379698D01*
X159359275Y-127635000D01*
X158977189Y-127890302D01*
X158666120Y-128355849D01*
X158556887Y-128905000D01*
X158666120Y-129454151D01*
X158977189Y-129919698D01*
X159359275Y-130175000D01*
X158977189Y-130430302D01*
X158666120Y-130895849D01*
X158556887Y-131445000D01*
X158666120Y-131994151D01*
X158977189Y-132459698D01*
X159442736Y-132770767D01*
X159991887Y-132880000D01*
X160048113Y-132880000D01*
X160597264Y-132770767D01*
X161062811Y-132459698D01*
X161373880Y-131994151D01*
X161413684Y-131794039D01*
X166248096Y-131794039D01*
X166408959Y-132182423D01*
X166784866Y-132597389D01*
X167290959Y-132836914D01*
X167513000Y-132715629D01*
X167513000Y-131572000D01*
X167767000Y-131572000D01*
X167767000Y-132715629D01*
X167989041Y-132836914D01*
X168495134Y-132597389D01*
X168871041Y-132182423D01*
X169031904Y-131794039D01*
X168909915Y-131572000D01*
X167767000Y-131572000D01*
X167513000Y-131572000D01*
X166370085Y-131572000D01*
X166248096Y-131794039D01*
X161413684Y-131794039D01*
X161483113Y-131445000D01*
X161373880Y-130895849D01*
X161062811Y-130430302D01*
X160680725Y-130175000D01*
X161062811Y-129919698D01*
X161373880Y-129454151D01*
X161483113Y-128905000D01*
X161373880Y-128355849D01*
X161062811Y-127890302D01*
X160680725Y-127635000D01*
X161062811Y-127379698D01*
X161373880Y-126914151D01*
X161483113Y-126365000D01*
X166176887Y-126365000D01*
X166286120Y-126914151D01*
X166597189Y-127379698D01*
X166979275Y-127635000D01*
X166597189Y-127890302D01*
X166286120Y-128355849D01*
X166176887Y-128905000D01*
X166286120Y-129454151D01*
X166597189Y-129919698D01*
X167001703Y-130189986D01*
X166784866Y-130292611D01*
X166408959Y-130707577D01*
X166248096Y-131095961D01*
X166370085Y-131318000D01*
X167513000Y-131318000D01*
X167513000Y-131298000D01*
X167767000Y-131298000D01*
X167767000Y-131318000D01*
X168909915Y-131318000D01*
X169031904Y-131095961D01*
X168871041Y-130707577D01*
X168495134Y-130292611D01*
X168278297Y-130189986D01*
X168682811Y-129919698D01*
X168993880Y-129454151D01*
X169103113Y-128905000D01*
X168993880Y-128355849D01*
X168682811Y-127890302D01*
X168300725Y-127635000D01*
X168682811Y-127379698D01*
X168993880Y-126914151D01*
X169103113Y-126365000D01*
X168993880Y-125815849D01*
X168682811Y-125350302D01*
X168278297Y-125080014D01*
X168495134Y-124977389D01*
X168871041Y-124562423D01*
X169031904Y-124174039D01*
X168909915Y-123952000D01*
X167767000Y-123952000D01*
X167767000Y-123972000D01*
X167513000Y-123972000D01*
X167513000Y-123952000D01*
X166370085Y-123952000D01*
X166248096Y-124174039D01*
X166408959Y-124562423D01*
X166784866Y-124977389D01*
X167001703Y-125080014D01*
X166597189Y-125350302D01*
X166286120Y-125815849D01*
X166176887Y-126365000D01*
X161483113Y-126365000D01*
X161373880Y-125815849D01*
X161062811Y-125350302D01*
X160680725Y-125095000D01*
X161062811Y-124839698D01*
X161373880Y-124374151D01*
X161483113Y-123825000D01*
X161373880Y-123275849D01*
X161062811Y-122810302D01*
X160680725Y-122555000D01*
X161062811Y-122299698D01*
X161373880Y-121834151D01*
X161413684Y-121634039D01*
X166248096Y-121634039D01*
X166408959Y-122022423D01*
X166784866Y-122437389D01*
X167033367Y-122555000D01*
X166784866Y-122672611D01*
X166408959Y-123087577D01*
X166248096Y-123475961D01*
X166370085Y-123698000D01*
X167513000Y-123698000D01*
X167513000Y-121412000D01*
X167767000Y-121412000D01*
X167767000Y-123698000D01*
X168909915Y-123698000D01*
X169031904Y-123475961D01*
X168871041Y-123087577D01*
X168495134Y-122672611D01*
X168246633Y-122555000D01*
X168495134Y-122437389D01*
X168871041Y-122022423D01*
X169031904Y-121634039D01*
X168909915Y-121412000D01*
X167767000Y-121412000D01*
X167513000Y-121412000D01*
X166370085Y-121412000D01*
X166248096Y-121634039D01*
X161413684Y-121634039D01*
X161483113Y-121285000D01*
X161373880Y-120735849D01*
X161062811Y-120270302D01*
X160680725Y-120015000D01*
X161062811Y-119759698D01*
X161120911Y-119672745D01*
X163001861Y-119672745D01*
X163075995Y-119918864D01*
X163613223Y-120111965D01*
X164183454Y-120084778D01*
X164584005Y-119918864D01*
X164658139Y-119672745D01*
X163830000Y-118844605D01*
X163001861Y-119672745D01*
X161120911Y-119672745D01*
X161373880Y-119294151D01*
X161483113Y-118745000D01*
X161424081Y-118448223D01*
X162383035Y-118448223D01*
X162410222Y-119018454D01*
X162576136Y-119419005D01*
X162822255Y-119493139D01*
X163650395Y-118665000D01*
X164009605Y-118665000D01*
X164837745Y-119493139D01*
X165083864Y-119419005D01*
X165276965Y-118881777D01*
X165249778Y-118311546D01*
X165083864Y-117910995D01*
X164837745Y-117836861D01*
X164009605Y-118665000D01*
X163650395Y-118665000D01*
X162822255Y-117836861D01*
X162576136Y-117910995D01*
X162383035Y-118448223D01*
X161424081Y-118448223D01*
X161373880Y-118195849D01*
X161062811Y-117730302D01*
X160953489Y-117657255D01*
X163001861Y-117657255D01*
X163830000Y-118485395D01*
X164658139Y-117657255D01*
X164584005Y-117411136D01*
X164046777Y-117218035D01*
X163476546Y-117245222D01*
X163075995Y-117411136D01*
X163001861Y-117657255D01*
X160953489Y-117657255D01*
X160680725Y-117475000D01*
X161062811Y-117219698D01*
X161373880Y-116754151D01*
X161483113Y-116205000D01*
X166176887Y-116205000D01*
X166286120Y-116754151D01*
X166597189Y-117219698D01*
X166979275Y-117475000D01*
X166597189Y-117730302D01*
X166286120Y-118195849D01*
X166176887Y-118745000D01*
X166286120Y-119294151D01*
X166597189Y-119759698D01*
X167001703Y-120029986D01*
X166784866Y-120132611D01*
X166408959Y-120547577D01*
X166248096Y-120935961D01*
X166370085Y-121158000D01*
X167513000Y-121158000D01*
X167513000Y-121138000D01*
X167767000Y-121138000D01*
X167767000Y-121158000D01*
X168909915Y-121158000D01*
X169031904Y-120935961D01*
X168871041Y-120547577D01*
X168495134Y-120132611D01*
X168278297Y-120029986D01*
X168682811Y-119759698D01*
X168993880Y-119294151D01*
X169103113Y-118745000D01*
X168993880Y-118195849D01*
X168682811Y-117730302D01*
X168300725Y-117475000D01*
X168682811Y-117219698D01*
X168993880Y-116754151D01*
X169103113Y-116205000D01*
X169013636Y-115755167D01*
X171784838Y-115755167D01*
X171926883Y-116098943D01*
X171960000Y-116132118D01*
X171960000Y-122627537D01*
X171927808Y-122659673D01*
X171785162Y-123003201D01*
X171784838Y-123375167D01*
X171926883Y-123718943D01*
X172189673Y-123982192D01*
X172453554Y-124091765D01*
X172561883Y-124353943D01*
X172824673Y-124617192D01*
X173124332Y-124741622D01*
X173055162Y-124908201D01*
X173054838Y-125280167D01*
X173196883Y-125623943D01*
X173459673Y-125887192D01*
X173803201Y-126029838D01*
X173863544Y-126029891D01*
X173796887Y-126365000D01*
X173906120Y-126914151D01*
X174217189Y-127379698D01*
X174599275Y-127635000D01*
X174217189Y-127890302D01*
X173906120Y-128355849D01*
X173796887Y-128905000D01*
X173906120Y-129454151D01*
X174217189Y-129919698D01*
X174599275Y-130175000D01*
X174217189Y-130430302D01*
X173906120Y-130895849D01*
X173796887Y-131445000D01*
X173906120Y-131994151D01*
X174217189Y-132459698D01*
X174682736Y-132770767D01*
X175231887Y-132880000D01*
X175288113Y-132880000D01*
X175837264Y-132770767D01*
X176302811Y-132459698D01*
X176613880Y-131994151D01*
X176723113Y-131445000D01*
X176613880Y-130895849D01*
X176302811Y-130430302D01*
X175920725Y-130175000D01*
X176302811Y-129919698D01*
X176613880Y-129454151D01*
X176723113Y-128905000D01*
X176613880Y-128355849D01*
X176302811Y-127890302D01*
X175920725Y-127635000D01*
X176302811Y-127379698D01*
X176613880Y-126914151D01*
X176723113Y-126365000D01*
X176613880Y-125815849D01*
X176302811Y-125350302D01*
X175920725Y-125095000D01*
X176302811Y-124839698D01*
X176613880Y-124374151D01*
X176723113Y-123825000D01*
X176613880Y-123275849D01*
X176302811Y-122810302D01*
X175920725Y-122555000D01*
X176302811Y-122299698D01*
X176613880Y-121834151D01*
X176723113Y-121285000D01*
X176613880Y-120735849D01*
X176302811Y-120270302D01*
X175920725Y-120015000D01*
X176302811Y-119759698D01*
X176360911Y-119672745D01*
X178241861Y-119672745D01*
X178315995Y-119918864D01*
X178853223Y-120111965D01*
X179423454Y-120084778D01*
X179824005Y-119918864D01*
X179898139Y-119672745D01*
X179070000Y-118844605D01*
X178241861Y-119672745D01*
X176360911Y-119672745D01*
X176613880Y-119294151D01*
X176723113Y-118745000D01*
X176664081Y-118448223D01*
X177623035Y-118448223D01*
X177650222Y-119018454D01*
X177816136Y-119419005D01*
X178062255Y-119493139D01*
X178890395Y-118665000D01*
X179249605Y-118665000D01*
X180077745Y-119493139D01*
X180323864Y-119419005D01*
X180516965Y-118881777D01*
X180489778Y-118311546D01*
X180323864Y-117910995D01*
X180077745Y-117836861D01*
X179249605Y-118665000D01*
X178890395Y-118665000D01*
X178062255Y-117836861D01*
X177816136Y-117910995D01*
X177623035Y-118448223D01*
X176664081Y-118448223D01*
X176613880Y-118195849D01*
X176302811Y-117730302D01*
X176193489Y-117657255D01*
X178241861Y-117657255D01*
X179070000Y-118485395D01*
X179898139Y-117657255D01*
X179824005Y-117411136D01*
X179286777Y-117218035D01*
X178716546Y-117245222D01*
X178315995Y-117411136D01*
X178241861Y-117657255D01*
X176193489Y-117657255D01*
X175920725Y-117475000D01*
X176302811Y-117219698D01*
X176613880Y-116754151D01*
X176723113Y-116205000D01*
X181365907Y-116205000D01*
X181478946Y-116773285D01*
X181800853Y-117255054D01*
X182130026Y-117475000D01*
X181800853Y-117694946D01*
X181478946Y-118176715D01*
X181365907Y-118745000D01*
X181478946Y-119313285D01*
X181800853Y-119795054D01*
X182130026Y-120015000D01*
X181800853Y-120234946D01*
X181478946Y-120716715D01*
X181365907Y-121285000D01*
X181478946Y-121853285D01*
X181800853Y-122335054D01*
X182130026Y-122555000D01*
X181800853Y-122774946D01*
X181478946Y-123256715D01*
X181365907Y-123825000D01*
X181478946Y-124393285D01*
X181800853Y-124875054D01*
X182130026Y-125095000D01*
X181800853Y-125314946D01*
X181478946Y-125796715D01*
X181365907Y-126365000D01*
X181478946Y-126933285D01*
X181800853Y-127415054D01*
X182282622Y-127736961D01*
X182850907Y-127850000D01*
X182909093Y-127850000D01*
X183477378Y-127736961D01*
X183959147Y-127415054D01*
X184150000Y-127129422D01*
X184340853Y-127415054D01*
X184822622Y-127736961D01*
X185390907Y-127850000D01*
X185449093Y-127850000D01*
X186017378Y-127736961D01*
X186499147Y-127415054D01*
X186821054Y-126933285D01*
X186934093Y-126365000D01*
X186821054Y-125796715D01*
X186499147Y-125314946D01*
X186169974Y-125095000D01*
X186499147Y-124875054D01*
X186821054Y-124393285D01*
X186934093Y-123825000D01*
X186821054Y-123256715D01*
X186499147Y-122774946D01*
X186169974Y-122555000D01*
X186499147Y-122335054D01*
X186821054Y-121853285D01*
X186934093Y-121285000D01*
X186821054Y-120716715D01*
X186499147Y-120234946D01*
X186169974Y-120015000D01*
X186499147Y-119795054D01*
X186821054Y-119313285D01*
X186934093Y-118745000D01*
X186821054Y-118176715D01*
X186499147Y-117694946D01*
X186169974Y-117475000D01*
X186499147Y-117255054D01*
X186821054Y-116773285D01*
X186934093Y-116205000D01*
X186821054Y-115636715D01*
X186499147Y-115154946D01*
X186169974Y-114935000D01*
X186499147Y-114715054D01*
X186821054Y-114233285D01*
X186934093Y-113665000D01*
X186821054Y-113096715D01*
X186499147Y-112614946D01*
X186017378Y-112293039D01*
X185449093Y-112180000D01*
X185390907Y-112180000D01*
X184822622Y-112293039D01*
X184340853Y-112614946D01*
X184340029Y-112616179D01*
X184333162Y-112579683D01*
X184194090Y-112363559D01*
X183981890Y-112218569D01*
X183730000Y-112167560D01*
X182030000Y-112167560D01*
X181794683Y-112211838D01*
X181578559Y-112350910D01*
X181433569Y-112563110D01*
X181382560Y-112815000D01*
X181382560Y-114515000D01*
X181426838Y-114750317D01*
X181565910Y-114966441D01*
X181778110Y-115111431D01*
X181845541Y-115125086D01*
X181800853Y-115154946D01*
X181478946Y-115636715D01*
X181365907Y-116205000D01*
X176723113Y-116205000D01*
X176613880Y-115655849D01*
X176302811Y-115190302D01*
X175920725Y-114935000D01*
X176302811Y-114679698D01*
X176613880Y-114214151D01*
X176666584Y-113949187D01*
X177634752Y-113949187D01*
X177852757Y-114476800D01*
X178256077Y-114880824D01*
X178783309Y-115099750D01*
X179354187Y-115100248D01*
X179881800Y-114882243D01*
X180285824Y-114478923D01*
X180504750Y-113951691D01*
X180505248Y-113380813D01*
X180287243Y-112853200D01*
X179883923Y-112449176D01*
X179356691Y-112230250D01*
X178785813Y-112229752D01*
X178258200Y-112447757D01*
X177854176Y-112851077D01*
X177635250Y-113378309D01*
X177634752Y-113949187D01*
X176666584Y-113949187D01*
X176723113Y-113665000D01*
X176613880Y-113115849D01*
X176302811Y-112650302D01*
X175837264Y-112339233D01*
X175288113Y-112230000D01*
X175231887Y-112230000D01*
X174682736Y-112339233D01*
X174217189Y-112650302D01*
X173906120Y-113115849D01*
X173796887Y-113665000D01*
X173906120Y-114214151D01*
X174217189Y-114679698D01*
X174599275Y-114935000D01*
X174217189Y-115190302D01*
X173906120Y-115655849D01*
X173796887Y-116205000D01*
X173906120Y-116754151D01*
X174217189Y-117219698D01*
X174599275Y-117475000D01*
X174217189Y-117730302D01*
X174212613Y-117737150D01*
X174148117Y-117581057D01*
X173885327Y-117317808D01*
X173541799Y-117175162D01*
X173480000Y-117175108D01*
X173480000Y-116132463D01*
X173512192Y-116100327D01*
X173654838Y-115756799D01*
X173655162Y-115384833D01*
X173513117Y-115041057D01*
X173250327Y-114777808D01*
X172906799Y-114635162D01*
X172534833Y-114634838D01*
X172191057Y-114776883D01*
X171927808Y-115039673D01*
X171785162Y-115383201D01*
X171784838Y-115755167D01*
X169013636Y-115755167D01*
X168993880Y-115655849D01*
X168682811Y-115190302D01*
X168538535Y-115093899D01*
X168675317Y-115068162D01*
X168891441Y-114929090D01*
X169036431Y-114716890D01*
X169087440Y-114465000D01*
X169087440Y-112865000D01*
X169043162Y-112629683D01*
X168904090Y-112413559D01*
X168691890Y-112268569D01*
X168440000Y-112217560D01*
X166840000Y-112217560D01*
X166604683Y-112261838D01*
X166388559Y-112400910D01*
X166243569Y-112613110D01*
X166192560Y-112865000D01*
X166192560Y-114465000D01*
X166236838Y-114700317D01*
X166375910Y-114916441D01*
X166588110Y-115061431D01*
X166743089Y-115092815D01*
X166597189Y-115190302D01*
X166286120Y-115655849D01*
X166176887Y-116205000D01*
X161483113Y-116205000D01*
X161373880Y-115655849D01*
X161062811Y-115190302D01*
X160680725Y-114935000D01*
X161062811Y-114679698D01*
X161373880Y-114214151D01*
X161426584Y-113949187D01*
X162394752Y-113949187D01*
X162612757Y-114476800D01*
X163016077Y-114880824D01*
X163543309Y-115099750D01*
X164114187Y-115100248D01*
X164641800Y-114882243D01*
X165045824Y-114478923D01*
X165264750Y-113951691D01*
X165265248Y-113380813D01*
X165047243Y-112853200D01*
X164643923Y-112449176D01*
X164116691Y-112230250D01*
X163545813Y-112229752D01*
X163018200Y-112447757D01*
X162614176Y-112851077D01*
X162395250Y-113378309D01*
X162394752Y-113949187D01*
X161426584Y-113949187D01*
X161483113Y-113665000D01*
X161373880Y-113115849D01*
X161062811Y-112650302D01*
X160597264Y-112339233D01*
X160048113Y-112230000D01*
X159991887Y-112230000D01*
X159442736Y-112339233D01*
X158977189Y-112650302D01*
X158666120Y-113115849D01*
X158556887Y-113665000D01*
X158666120Y-114214151D01*
X158977189Y-114679698D01*
X159359275Y-114935000D01*
X158977189Y-115190302D01*
X158666120Y-115655849D01*
X158556887Y-116205000D01*
X158666120Y-116754151D01*
X158977189Y-117219698D01*
X159359275Y-117475000D01*
X158977189Y-117730302D01*
X158666120Y-118195849D01*
X158556887Y-118745000D01*
X158666120Y-119294151D01*
X158977189Y-119759698D01*
X159359275Y-120015000D01*
X158977189Y-120270302D01*
X158666120Y-120735849D01*
X158592516Y-121105879D01*
X158301799Y-120985162D01*
X158240000Y-120985108D01*
X158240000Y-118672463D01*
X158272192Y-118640327D01*
X158414838Y-118296799D01*
X158415162Y-117924833D01*
X158273117Y-117581057D01*
X158010327Y-117317808D01*
X157666799Y-117175162D01*
X157605000Y-117175108D01*
X157605000Y-116132463D01*
X157637192Y-116100327D01*
X157779838Y-115756799D01*
X157780162Y-115384833D01*
X157638117Y-115041057D01*
X157375327Y-114777808D01*
X157031799Y-114635162D01*
X156659833Y-114634838D01*
X156316057Y-114776883D01*
X156052808Y-115039673D01*
X155910162Y-115383201D01*
X155909838Y-115755167D01*
X153773636Y-115755167D01*
X153753880Y-115655849D01*
X153442811Y-115190302D01*
X153298535Y-115093899D01*
X153435317Y-115068162D01*
X153651441Y-114929090D01*
X153796431Y-114716890D01*
X153847440Y-114465000D01*
X153847440Y-112865000D01*
X153803162Y-112629683D01*
X153664090Y-112413559D01*
X153451890Y-112268569D01*
X153200000Y-112217560D01*
X151600000Y-112217560D01*
X151364683Y-112261838D01*
X151148559Y-112400910D01*
X151003569Y-112613110D01*
X150952560Y-112865000D01*
X150952560Y-114465000D01*
X150996838Y-114700317D01*
X151135910Y-114916441D01*
X151348110Y-115061431D01*
X151503089Y-115092815D01*
X151357189Y-115190302D01*
X151046120Y-115655849D01*
X150936887Y-116205000D01*
X139030950Y-116205000D01*
X138921717Y-115655849D01*
X138610648Y-115190302D01*
X138464650Y-115092749D01*
X138595317Y-115068162D01*
X138811441Y-114929090D01*
X138956431Y-114716890D01*
X139007440Y-114465000D01*
X139007440Y-113665000D01*
X142909050Y-113665000D01*
X143018283Y-114214151D01*
X143329352Y-114679698D01*
X143707707Y-114932507D01*
X143275500Y-115280104D01*
X143005633Y-115773181D01*
X142988096Y-115855961D01*
X143110085Y-116078000D01*
X144653000Y-116078000D01*
X144653000Y-116058000D01*
X144907000Y-116058000D01*
X144907000Y-116078000D01*
X146449915Y-116078000D01*
X146571904Y-115855961D01*
X146554367Y-115773181D01*
X146284500Y-115280104D01*
X145852293Y-114932507D01*
X146230648Y-114679698D01*
X146541717Y-114214151D01*
X146594421Y-113949187D01*
X147154752Y-113949187D01*
X147372757Y-114476800D01*
X147776077Y-114880824D01*
X148303309Y-115099750D01*
X148874187Y-115100248D01*
X149401800Y-114882243D01*
X149805824Y-114478923D01*
X150024750Y-113951691D01*
X150025248Y-113380813D01*
X149807243Y-112853200D01*
X149403923Y-112449176D01*
X148876691Y-112230250D01*
X148305813Y-112229752D01*
X147778200Y-112447757D01*
X147374176Y-112851077D01*
X147155250Y-113378309D01*
X147154752Y-113949187D01*
X146594421Y-113949187D01*
X146650950Y-113665000D01*
X146541717Y-113115849D01*
X146230648Y-112650302D01*
X145765101Y-112339233D01*
X145215950Y-112230000D01*
X144344050Y-112230000D01*
X143794899Y-112339233D01*
X143329352Y-112650302D01*
X143018283Y-113115849D01*
X142909050Y-113665000D01*
X139007440Y-113665000D01*
X139007440Y-112865000D01*
X138963162Y-112629683D01*
X138824090Y-112413559D01*
X138611890Y-112268569D01*
X138360000Y-112217560D01*
X135960000Y-112217560D01*
X135724683Y-112261838D01*
X135508559Y-112400910D01*
X135363569Y-112613110D01*
X135312560Y-112865000D01*
X135312560Y-114465000D01*
X135356838Y-114700317D01*
X135495910Y-114916441D01*
X135708110Y-115061431D01*
X135857074Y-115091597D01*
X135709352Y-115190302D01*
X135398283Y-115655849D01*
X135289050Y-116205000D01*
X130140950Y-116205000D01*
X130031717Y-115655849D01*
X129720648Y-115190302D01*
X129338562Y-114935000D01*
X129720648Y-114679698D01*
X130031717Y-114214151D01*
X130140950Y-113665000D01*
X130031717Y-113115849D01*
X129720648Y-112650302D01*
X129338562Y-112395000D01*
X129720648Y-112139698D01*
X130031717Y-111674151D01*
X130140950Y-111125000D01*
X130031717Y-110575849D01*
X129720648Y-110110302D01*
X129338562Y-109855000D01*
X129720648Y-109599698D01*
X130031717Y-109134151D01*
X130140950Y-108585000D01*
X130031717Y-108035849D01*
X129720648Y-107570302D01*
X129338562Y-107315000D01*
X129720648Y-107059698D01*
X130031717Y-106594151D01*
X130121280Y-106143887D01*
X130645000Y-106143887D01*
X130645000Y-106200113D01*
X130754233Y-106749264D01*
X131065302Y-107214811D01*
X131530849Y-107525880D01*
X132080000Y-107635113D01*
X132629151Y-107525880D01*
X133094698Y-107214811D01*
X133405767Y-106749264D01*
X133515000Y-106200113D01*
X133515000Y-106143887D01*
X133405853Y-105595167D01*
X134319838Y-105595167D01*
X134461883Y-105938943D01*
X134724673Y-106202192D01*
X135068201Y-106344838D01*
X135440167Y-106345162D01*
X135685453Y-106243812D01*
X135758946Y-106613285D01*
X136080853Y-107095054D01*
X136400000Y-107308301D01*
X136400000Y-109292537D01*
X136367808Y-109324673D01*
X136225162Y-109668201D01*
X136224838Y-110040167D01*
X136366883Y-110383943D01*
X136629673Y-110647192D01*
X136973201Y-110789838D01*
X137345167Y-110790162D01*
X137688943Y-110648117D01*
X137952192Y-110385327D01*
X138094838Y-110041799D01*
X138095162Y-109669833D01*
X137953117Y-109326057D01*
X137920000Y-109292882D01*
X137920000Y-108514802D01*
X138305000Y-108899802D01*
X138305000Y-109292537D01*
X138272808Y-109324673D01*
X138130162Y-109668201D01*
X138129838Y-110040167D01*
X138271883Y-110383943D01*
X138534673Y-110647192D01*
X138878201Y-110789838D01*
X139250167Y-110790162D01*
X139593943Y-110648117D01*
X139857192Y-110385327D01*
X139999838Y-110041799D01*
X140000162Y-109669833D01*
X139858117Y-109326057D01*
X139825000Y-109292882D01*
X139825000Y-108585000D01*
X139767148Y-108294161D01*
X139602401Y-108047599D01*
X139190000Y-107635198D01*
X139190000Y-107434342D01*
X139670907Y-107530000D01*
X139729093Y-107530000D01*
X140297378Y-107416961D01*
X140779147Y-107095054D01*
X141101054Y-106613285D01*
X141157564Y-106329187D01*
X162394752Y-106329187D01*
X162612757Y-106856800D01*
X163016077Y-107260824D01*
X163543309Y-107479750D01*
X164114187Y-107480248D01*
X164641800Y-107262243D01*
X165045824Y-106858923D01*
X165264750Y-106331691D01*
X165264752Y-106329187D01*
X166204752Y-106329187D01*
X166422757Y-106856800D01*
X166826077Y-107260824D01*
X167353309Y-107479750D01*
X167924187Y-107480248D01*
X168451800Y-107262243D01*
X168855824Y-106858923D01*
X169074750Y-106331691D01*
X169074752Y-106329187D01*
X170014752Y-106329187D01*
X170232757Y-106856800D01*
X170636077Y-107260824D01*
X171163309Y-107479750D01*
X171734187Y-107480248D01*
X172261800Y-107262243D01*
X172665824Y-106858923D01*
X172884750Y-106331691D01*
X172884752Y-106329187D01*
X173824752Y-106329187D01*
X174042757Y-106856800D01*
X174446077Y-107260824D01*
X174973309Y-107479750D01*
X175544187Y-107480248D01*
X176071800Y-107262243D01*
X176475824Y-106858923D01*
X176694750Y-106331691D01*
X176695248Y-105760813D01*
X176477243Y-105233200D01*
X176073923Y-104829176D01*
X175546691Y-104610250D01*
X174975813Y-104609752D01*
X174448200Y-104827757D01*
X174044176Y-105231077D01*
X173825250Y-105758309D01*
X173824752Y-106329187D01*
X172884752Y-106329187D01*
X172885248Y-105760813D01*
X172667243Y-105233200D01*
X172263923Y-104829176D01*
X171736691Y-104610250D01*
X171165813Y-104609752D01*
X170638200Y-104827757D01*
X170234176Y-105231077D01*
X170015250Y-105758309D01*
X170014752Y-106329187D01*
X169074752Y-106329187D01*
X169075248Y-105760813D01*
X168857243Y-105233200D01*
X168453923Y-104829176D01*
X167926691Y-104610250D01*
X167355813Y-104609752D01*
X166828200Y-104827757D01*
X166424176Y-105231077D01*
X166205250Y-105758309D01*
X166204752Y-106329187D01*
X165264752Y-106329187D01*
X165265248Y-105760813D01*
X165047243Y-105233200D01*
X164643923Y-104829176D01*
X164116691Y-104610250D01*
X163545813Y-104609752D01*
X163018200Y-104827757D01*
X162614176Y-105231077D01*
X162395250Y-105758309D01*
X162394752Y-106329187D01*
X141157564Y-106329187D01*
X141214093Y-106045000D01*
X141101054Y-105476715D01*
X140779147Y-104994946D01*
X140449974Y-104775000D01*
X140779147Y-104555054D01*
X141101054Y-104073285D01*
X141214093Y-103505000D01*
X141101054Y-102936715D01*
X140779147Y-102454946D01*
X140449974Y-102235000D01*
X140779147Y-102015054D01*
X141101054Y-101533285D01*
X141214093Y-100965000D01*
X141101054Y-100396715D01*
X140779147Y-99914946D01*
X140460000Y-99701699D01*
X140460000Y-99688301D01*
X140779147Y-99475054D01*
X141101054Y-98993285D01*
X141214093Y-98425000D01*
X188985907Y-98425000D01*
X189098946Y-98993285D01*
X189420853Y-99475054D01*
X189750026Y-99695000D01*
X189420853Y-99914946D01*
X189098946Y-100396715D01*
X188985907Y-100965000D01*
X189098946Y-101533285D01*
X189420853Y-102015054D01*
X189750026Y-102235000D01*
X189420853Y-102454946D01*
X189098946Y-102936715D01*
X188985907Y-103505000D01*
X189098946Y-104073285D01*
X189420853Y-104555054D01*
X189750026Y-104775000D01*
X189420853Y-104994946D01*
X189098946Y-105476715D01*
X188985907Y-106045000D01*
X189098946Y-106613285D01*
X189420853Y-107095054D01*
X189750026Y-107315000D01*
X189420853Y-107534946D01*
X189098946Y-108016715D01*
X188985907Y-108585000D01*
X189098946Y-109153285D01*
X189420853Y-109635054D01*
X189902622Y-109956961D01*
X190470907Y-110070000D01*
X190529093Y-110070000D01*
X191097378Y-109956961D01*
X191579147Y-109635054D01*
X191901054Y-109153285D01*
X192014093Y-108585000D01*
X191901054Y-108016715D01*
X191579147Y-107534946D01*
X191249974Y-107315000D01*
X191579147Y-107095054D01*
X191901054Y-106613285D01*
X192014093Y-106045000D01*
X191901054Y-105476715D01*
X191579147Y-104994946D01*
X191249974Y-104775000D01*
X191579147Y-104555054D01*
X191901054Y-104073285D01*
X192014093Y-103505000D01*
X191901054Y-102936715D01*
X191579147Y-102454946D01*
X191249974Y-102235000D01*
X191579147Y-102015054D01*
X191901054Y-101533285D01*
X192014093Y-100965000D01*
X191901054Y-100396715D01*
X191579147Y-99914946D01*
X191249974Y-99695000D01*
X191579147Y-99475054D01*
X191901054Y-98993285D01*
X192014093Y-98425000D01*
X191901054Y-97856715D01*
X191579147Y-97374946D01*
X191535223Y-97345597D01*
X191709698Y-97273327D01*
X191888327Y-97094699D01*
X191985000Y-96861310D01*
X191985000Y-96170750D01*
X191826250Y-96012000D01*
X190627000Y-96012000D01*
X190627000Y-96032000D01*
X190373000Y-96032000D01*
X190373000Y-96012000D01*
X189173750Y-96012000D01*
X189015000Y-96170750D01*
X189015000Y-96861310D01*
X189111673Y-97094699D01*
X189290302Y-97273327D01*
X189464777Y-97345597D01*
X189420853Y-97374946D01*
X189098946Y-97856715D01*
X188985907Y-98425000D01*
X141214093Y-98425000D01*
X141101054Y-97856715D01*
X140779147Y-97374946D01*
X140460000Y-97161699D01*
X140460000Y-97148301D01*
X140779147Y-96935054D01*
X141101054Y-96453285D01*
X141214093Y-95885000D01*
X141208501Y-95856887D01*
X162395000Y-95856887D01*
X162395000Y-95913113D01*
X162504233Y-96462264D01*
X162815302Y-96927811D01*
X163280849Y-97238880D01*
X163830000Y-97348113D01*
X164379151Y-97238880D01*
X164844698Y-96927811D01*
X165155767Y-96462264D01*
X165265000Y-95913113D01*
X165265000Y-95856887D01*
X166205000Y-95856887D01*
X166205000Y-95913113D01*
X166314233Y-96462264D01*
X166625302Y-96927811D01*
X167090849Y-97238880D01*
X167640000Y-97348113D01*
X168189151Y-97238880D01*
X168654698Y-96927811D01*
X168965767Y-96462264D01*
X169075000Y-95913113D01*
X169075000Y-95856887D01*
X170015000Y-95856887D01*
X170015000Y-95913113D01*
X170124233Y-96462264D01*
X170435302Y-96927811D01*
X170900849Y-97238880D01*
X171450000Y-97348113D01*
X171999151Y-97238880D01*
X172464698Y-96927811D01*
X172775767Y-96462264D01*
X172885000Y-95913113D01*
X172885000Y-95856887D01*
X173825000Y-95856887D01*
X173825000Y-95913113D01*
X173934233Y-96462264D01*
X174245302Y-96927811D01*
X174710849Y-97238880D01*
X175260000Y-97348113D01*
X175809151Y-97238880D01*
X176274698Y-96927811D01*
X176585767Y-96462264D01*
X176695000Y-95913113D01*
X176695000Y-95856887D01*
X176585767Y-95307736D01*
X176319133Y-94908690D01*
X189015000Y-94908690D01*
X189015000Y-95599250D01*
X189173750Y-95758000D01*
X190373000Y-95758000D01*
X190373000Y-94558750D01*
X190627000Y-94558750D01*
X190627000Y-95758000D01*
X191826250Y-95758000D01*
X191985000Y-95599250D01*
X191985000Y-94908690D01*
X191888327Y-94675301D01*
X191709698Y-94496673D01*
X191476309Y-94400000D01*
X190785750Y-94400000D01*
X190627000Y-94558750D01*
X190373000Y-94558750D01*
X190214250Y-94400000D01*
X189523691Y-94400000D01*
X189290302Y-94496673D01*
X189111673Y-94675301D01*
X189015000Y-94908690D01*
X176319133Y-94908690D01*
X176274698Y-94842189D01*
X175809151Y-94531120D01*
X175260000Y-94421887D01*
X174710849Y-94531120D01*
X174245302Y-94842189D01*
X173934233Y-95307736D01*
X173825000Y-95856887D01*
X172885000Y-95856887D01*
X172775767Y-95307736D01*
X172464698Y-94842189D01*
X171999151Y-94531120D01*
X171450000Y-94421887D01*
X170900849Y-94531120D01*
X170435302Y-94842189D01*
X170124233Y-95307736D01*
X170015000Y-95856887D01*
X169075000Y-95856887D01*
X168965767Y-95307736D01*
X168654698Y-94842189D01*
X168189151Y-94531120D01*
X167640000Y-94421887D01*
X167090849Y-94531120D01*
X166625302Y-94842189D01*
X166314233Y-95307736D01*
X166205000Y-95856887D01*
X165265000Y-95856887D01*
X165155767Y-95307736D01*
X164844698Y-94842189D01*
X164379151Y-94531120D01*
X163830000Y-94421887D01*
X163280849Y-94531120D01*
X162815302Y-94842189D01*
X162504233Y-95307736D01*
X162395000Y-95856887D01*
X141208501Y-95856887D01*
X141101054Y-95316715D01*
X140779147Y-94834946D01*
X140297378Y-94513039D01*
X139729093Y-94400000D01*
X139670907Y-94400000D01*
X139102622Y-94513039D01*
X138620853Y-94834946D01*
X138620029Y-94836179D01*
X138613162Y-94799683D01*
X138474090Y-94583559D01*
X138261890Y-94438569D01*
X138010000Y-94387560D01*
X136310000Y-94387560D01*
X136074683Y-94431838D01*
X135858559Y-94570910D01*
X135713569Y-94783110D01*
X135662560Y-95035000D01*
X135662560Y-96735000D01*
X135706838Y-96970317D01*
X135845910Y-97186441D01*
X136058110Y-97331431D01*
X136125541Y-97345086D01*
X136080853Y-97374946D01*
X135886593Y-97665678D01*
X135599161Y-97722852D01*
X135352599Y-97887599D01*
X134717599Y-98522599D01*
X134552852Y-98769161D01*
X134495000Y-99060000D01*
X134495000Y-104847537D01*
X134462808Y-104879673D01*
X134320162Y-105223201D01*
X134319838Y-105595167D01*
X133405853Y-105595167D01*
X133405767Y-105594736D01*
X133094698Y-105129189D01*
X132629151Y-104818120D01*
X132080000Y-104708887D01*
X131530849Y-104818120D01*
X131065302Y-105129189D01*
X130754233Y-105594736D01*
X130645000Y-106143887D01*
X130121280Y-106143887D01*
X130140950Y-106045000D01*
X130031717Y-105495849D01*
X129720648Y-105030302D01*
X129338562Y-104775000D01*
X129720648Y-104519698D01*
X130031717Y-104054151D01*
X130140950Y-103505000D01*
X130031717Y-102955849D01*
X129720648Y-102490302D01*
X129338562Y-102235000D01*
X129720648Y-101979698D01*
X130031717Y-101514151D01*
X130140950Y-100965000D01*
X130031717Y-100415849D01*
X129720648Y-99950302D01*
X129338562Y-99695000D01*
X129720648Y-99439698D01*
X130031717Y-98974151D01*
X130140950Y-98425000D01*
X130031717Y-97875849D01*
X129720648Y-97410302D01*
X129338562Y-97155000D01*
X129720648Y-96899698D01*
X130031717Y-96434151D01*
X130059159Y-96296187D01*
X130644752Y-96296187D01*
X130862757Y-96823800D01*
X131266077Y-97227824D01*
X131793309Y-97446750D01*
X132364187Y-97447248D01*
X132891800Y-97229243D01*
X133295824Y-96825923D01*
X133514750Y-96298691D01*
X133515248Y-95727813D01*
X133297243Y-95200200D01*
X132893923Y-94796176D01*
X132366691Y-94577250D01*
X131795813Y-94576752D01*
X131268200Y-94794757D01*
X130864176Y-95198077D01*
X130645250Y-95725309D01*
X130644752Y-96296187D01*
X130059159Y-96296187D01*
X130140950Y-95885000D01*
X130031717Y-95335849D01*
X129720648Y-94870302D01*
X129255101Y-94559233D01*
X128705950Y-94450000D01*
X127834050Y-94450000D01*
X127284899Y-94559233D01*
X126819352Y-94870302D01*
X126508283Y-95335849D01*
X126399050Y-95885000D01*
X102918453Y-95885000D01*
X102521691Y-95720250D01*
X101950813Y-95719752D01*
X101423200Y-95937757D01*
X101019176Y-96341077D01*
X100800250Y-96868309D01*
X100799752Y-97439187D01*
X96645000Y-97439187D01*
X96645000Y-95812463D01*
X96677192Y-95780327D01*
X96819838Y-95436799D01*
X96820162Y-95064833D01*
X96776305Y-94958690D01*
X111195000Y-94958690D01*
X111195000Y-95599250D01*
X111353750Y-95758000D01*
X112903000Y-95758000D01*
X112903000Y-94608750D01*
X113157000Y-94608750D01*
X113157000Y-95758000D01*
X114706250Y-95758000D01*
X114865000Y-95599250D01*
X114865000Y-94958690D01*
X114768327Y-94725301D01*
X114589698Y-94546673D01*
X114356309Y-94450000D01*
X113315750Y-94450000D01*
X113157000Y-94608750D01*
X112903000Y-94608750D01*
X112744250Y-94450000D01*
X111703691Y-94450000D01*
X111470302Y-94546673D01*
X111291673Y-94725301D01*
X111195000Y-94958690D01*
X96776305Y-94958690D01*
X96678117Y-94721057D01*
X96415327Y-94457808D01*
X96071799Y-94315162D01*
X96033558Y-94315129D01*
X96257161Y-93190999D01*
X97063791Y-91983791D01*
X98271001Y-91177161D01*
X99764931Y-90880000D01*
X189795069Y-90880000D01*
X191289001Y-91177161D01*
M02*
