G04 #@! TF.FileFunction,Copper,L1,Top,Signal*
%FSLAX46Y46*%
G04 Gerber Fmt 4.6, Leading zero omitted, Abs format (unit mm)*
G04 Created by KiCad (PCBNEW 4.0.7) date 01/25/20 16:08:00*
%MOMM*%
%LPD*%
G01*
G04 APERTURE LIST*
%ADD10C,0.100000*%
%ADD11C,1.600000*%
%ADD12R,1.700000X1.700000*%
%ADD13O,1.700000X1.700000*%
%ADD14R,1.600000X1.600000*%
%ADD15O,1.600000X1.600000*%
%ADD16R,2.400000X1.600000*%
%ADD17O,2.400000X1.600000*%
%ADD18C,1.500000*%
%ADD19C,0.600000*%
%ADD20C,0.250000*%
G04 APERTURE END LIST*
D10*
D11*
X98425000Y-107315000D03*
X98425000Y-102315000D03*
D12*
X193040000Y-147320000D03*
D13*
X190500000Y-147320000D03*
X187960000Y-147320000D03*
X185420000Y-147320000D03*
X182880000Y-147320000D03*
X180340000Y-147320000D03*
X177800000Y-147320000D03*
X175260000Y-147320000D03*
X172720000Y-147320000D03*
X170180000Y-147320000D03*
X167640000Y-147320000D03*
X165100000Y-147320000D03*
X162560000Y-147320000D03*
X160020000Y-147320000D03*
X157480000Y-147320000D03*
X154940000Y-147320000D03*
X152400000Y-147320000D03*
X149860000Y-147320000D03*
X147320000Y-147320000D03*
X144780000Y-147320000D03*
X142240000Y-147320000D03*
X139700000Y-147320000D03*
X137160000Y-147320000D03*
X134620000Y-147320000D03*
X132080000Y-147320000D03*
X129540000Y-147320000D03*
X127000000Y-147320000D03*
X124460000Y-147320000D03*
X121920000Y-147320000D03*
X119380000Y-147320000D03*
X116840000Y-147320000D03*
X114300000Y-147320000D03*
X111760000Y-147320000D03*
X109220000Y-147320000D03*
X106680000Y-147320000D03*
X104140000Y-147320000D03*
X101600000Y-147320000D03*
X99060000Y-147320000D03*
X96520000Y-147320000D03*
D14*
X167640000Y-113665000D03*
D15*
X175260000Y-131445000D03*
X167640000Y-116205000D03*
X175260000Y-128905000D03*
X167640000Y-118745000D03*
X175260000Y-126365000D03*
X167640000Y-121285000D03*
X175260000Y-123825000D03*
X167640000Y-123825000D03*
X175260000Y-121285000D03*
X167640000Y-126365000D03*
X175260000Y-118745000D03*
X167640000Y-128905000D03*
X175260000Y-116205000D03*
X167640000Y-131445000D03*
X175260000Y-113665000D03*
D14*
X152400000Y-113665000D03*
D15*
X160020000Y-131445000D03*
X152400000Y-116205000D03*
X160020000Y-128905000D03*
X152400000Y-118745000D03*
X160020000Y-126365000D03*
X152400000Y-121285000D03*
X160020000Y-123825000D03*
X152400000Y-123825000D03*
X160020000Y-121285000D03*
X152400000Y-126365000D03*
X160020000Y-118745000D03*
X152400000Y-128905000D03*
X160020000Y-116205000D03*
X152400000Y-131445000D03*
X160020000Y-113665000D03*
D12*
X182880000Y-113665000D03*
D13*
X185420000Y-113665000D03*
X182880000Y-116205000D03*
X185420000Y-116205000D03*
X182880000Y-118745000D03*
X185420000Y-118745000D03*
X182880000Y-121285000D03*
X185420000Y-121285000D03*
X182880000Y-123825000D03*
X185420000Y-123825000D03*
X182880000Y-126365000D03*
X185420000Y-126365000D03*
D11*
X132080000Y-128905000D03*
X132080000Y-123905000D03*
X179070000Y-113665000D03*
X179070000Y-118665000D03*
X148590000Y-113665000D03*
X148590000Y-118665000D03*
X163830000Y-113665000D03*
X163830000Y-118665000D03*
D14*
X107315000Y-127635000D03*
D11*
X99695000Y-127635000D03*
X99695000Y-112395000D03*
X107315000Y-112395000D03*
D12*
X137160000Y-95885000D03*
D13*
X139700000Y-95885000D03*
X137160000Y-98425000D03*
X139700000Y-98425000D03*
X137160000Y-100965000D03*
X139700000Y-100965000D03*
X137160000Y-103505000D03*
X139700000Y-103505000D03*
X137160000Y-106045000D03*
X139700000Y-106045000D03*
D12*
X190500000Y-95885000D03*
D13*
X190500000Y-98425000D03*
X190500000Y-100965000D03*
X190500000Y-103505000D03*
X190500000Y-106045000D03*
X190500000Y-108585000D03*
D11*
X132080000Y-96012000D03*
D15*
X132080000Y-106172000D03*
D11*
X102235000Y-97155000D03*
D15*
X102235000Y-107315000D03*
D11*
X167640000Y-106045000D03*
D15*
X167640000Y-95885000D03*
D11*
X171450000Y-106045000D03*
D15*
X171450000Y-95885000D03*
D11*
X175260000Y-106045000D03*
D15*
X175260000Y-95885000D03*
D11*
X163830000Y-106045000D03*
D15*
X163830000Y-95885000D03*
D16*
X113030000Y-95885000D03*
D17*
X128270000Y-128905000D03*
X113030000Y-98425000D03*
X128270000Y-126365000D03*
X113030000Y-100965000D03*
X128270000Y-123825000D03*
X113030000Y-103505000D03*
X128270000Y-121285000D03*
X113030000Y-106045000D03*
X128270000Y-118745000D03*
X113030000Y-108585000D03*
X128270000Y-116205000D03*
X113030000Y-111125000D03*
X128270000Y-113665000D03*
X113030000Y-113665000D03*
X128270000Y-111125000D03*
X113030000Y-116205000D03*
X128270000Y-108585000D03*
X113030000Y-118745000D03*
X128270000Y-106045000D03*
X113030000Y-121285000D03*
X128270000Y-103505000D03*
X113030000Y-123825000D03*
X128270000Y-100965000D03*
X113030000Y-126365000D03*
X128270000Y-98425000D03*
X113030000Y-128905000D03*
X128270000Y-95885000D03*
D16*
X137160000Y-113665000D03*
D17*
X144780000Y-128905000D03*
X137160000Y-116205000D03*
X144780000Y-126365000D03*
X137160000Y-118745000D03*
X144780000Y-123825000D03*
X137160000Y-121285000D03*
X144780000Y-121285000D03*
X137160000Y-123825000D03*
X144780000Y-118745000D03*
X137160000Y-126365000D03*
X144780000Y-116205000D03*
X137160000Y-128905000D03*
X144780000Y-113665000D03*
D18*
X107315000Y-99695000D03*
X107315000Y-104575000D03*
D19*
X95885000Y-95250000D03*
X173990000Y-120015000D03*
X173990000Y-125095000D03*
X173355000Y-118110000D03*
X173355000Y-123825000D03*
X172720000Y-123190000D03*
X172720000Y-115570000D03*
X158115000Y-121920000D03*
X158115000Y-125730000D03*
X157480000Y-118110000D03*
X157480000Y-126365000D03*
X156845000Y-115570000D03*
X156845000Y-125730000D03*
X150495000Y-144780000D03*
X111125000Y-142240000D03*
X151130000Y-145415000D03*
X110490000Y-141605000D03*
X144780000Y-144145000D03*
X120015000Y-141605000D03*
X119380000Y-142240000D03*
X133985000Y-143510000D03*
X135255000Y-105410000D03*
X118745000Y-116840000D03*
X125730000Y-117475000D03*
X151130000Y-125095000D03*
X149860000Y-125095000D03*
X116205000Y-100965000D03*
X143510000Y-144145000D03*
X111760000Y-141605000D03*
X137160000Y-142875000D03*
X121285000Y-140335000D03*
X135890000Y-142875000D03*
X120650000Y-140970000D03*
X139065000Y-109855000D03*
X137160000Y-109855000D03*
X123825000Y-109855000D03*
X118110000Y-109855000D03*
X124460000Y-112395000D03*
X118110000Y-112395000D03*
X118110000Y-115570000D03*
X125095000Y-114935000D03*
D20*
X149860000Y-147320000D02*
X149860000Y-142875000D01*
X149860000Y-142875000D02*
X149860000Y-132080000D01*
X97155000Y-92710000D02*
X95885000Y-93980000D01*
X95885000Y-93980000D02*
X95885000Y-95250000D01*
X109855000Y-92710000D02*
X110490000Y-92710000D01*
X110490000Y-93345000D02*
X109855000Y-92710000D01*
X109855000Y-92710000D02*
X97155000Y-92710000D01*
X132080000Y-93345000D02*
X131445000Y-92710000D01*
X132080000Y-96012000D02*
X132080000Y-93345000D01*
X131445000Y-92710000D02*
X110490000Y-92710000D01*
X148590000Y-113665000D02*
X149860000Y-113665000D01*
X149860000Y-113665000D02*
X150495000Y-114300000D01*
X150495000Y-127000000D02*
X150495000Y-114300000D01*
X150495000Y-114300000D02*
X150495000Y-112395000D01*
X151130000Y-111760000D02*
X163195000Y-111760000D01*
X150495000Y-112395000D02*
X151130000Y-111760000D01*
X149860000Y-130810000D02*
X150495000Y-130175000D01*
X149860000Y-132080000D02*
X149860000Y-130810000D01*
X150495000Y-130175000D02*
X150495000Y-127000000D01*
X150495000Y-127000000D02*
X151130000Y-126365000D01*
X148590000Y-113665000D02*
X149225000Y-113665000D01*
X163830000Y-112395000D02*
X163195000Y-111760000D01*
X163830000Y-113665000D02*
X163830000Y-112395000D01*
X178435000Y-111760000D02*
X179070000Y-112395000D01*
X179070000Y-113665000D02*
X179070000Y-112395000D01*
X163830000Y-111760000D02*
X164465000Y-111760000D01*
X164465000Y-111760000D02*
X178435000Y-111760000D01*
X163195000Y-111760000D02*
X163830000Y-111760000D01*
X111125000Y-98425000D02*
X110490000Y-97790000D01*
X110490000Y-97790000D02*
X110490000Y-93345000D01*
X111125000Y-98425000D02*
X113030000Y-98425000D01*
X149860000Y-132080000D02*
X149225000Y-131445000D01*
X149225000Y-131445000D02*
X132715000Y-131445000D01*
X132715000Y-131445000D02*
X132080000Y-130810000D01*
X132080000Y-130810000D02*
X132080000Y-128905000D01*
X151130000Y-126365000D02*
X152400000Y-126365000D01*
X128270000Y-128905000D02*
X132080000Y-128905000D01*
X148590000Y-113665000D02*
X144780000Y-113665000D01*
X175260000Y-113665000D02*
X179070000Y-113665000D01*
X160020000Y-113665000D02*
X163830000Y-113665000D01*
X193040000Y-139700000D02*
X193040000Y-139065000D01*
X174625000Y-138430000D02*
X173990000Y-137795000D01*
X192405000Y-138430000D02*
X174625000Y-138430000D01*
X193040000Y-139065000D02*
X192405000Y-138430000D01*
X173990000Y-125095000D02*
X173990000Y-137795000D01*
X172720000Y-118745000D02*
X173355000Y-118745000D01*
X173990000Y-119380000D02*
X173990000Y-120015000D01*
X173355000Y-118745000D02*
X173990000Y-119380000D01*
X167640000Y-118745000D02*
X172720000Y-118745000D01*
X193040000Y-139700000D02*
X193040000Y-147320000D01*
X173355000Y-138430000D02*
X173990000Y-139065000D01*
X190500000Y-139700000D02*
X190500000Y-140335000D01*
X189865000Y-139065000D02*
X190500000Y-139700000D01*
X173990000Y-139065000D02*
X189865000Y-139065000D01*
X173355000Y-123825000D02*
X173355000Y-138430000D01*
X172720000Y-116205000D02*
X173355000Y-116840000D01*
X173355000Y-116840000D02*
X173355000Y-118110000D01*
X167640000Y-116205000D02*
X172720000Y-116205000D01*
X190500000Y-140335000D02*
X190500000Y-147320000D01*
X187960000Y-140970000D02*
X187960000Y-140335000D01*
X173355000Y-139700000D02*
X172720000Y-139065000D01*
X187325000Y-139700000D02*
X173355000Y-139700000D01*
X187960000Y-140335000D02*
X187325000Y-139700000D01*
X172720000Y-123190000D02*
X172720000Y-139065000D01*
X172085000Y-113665000D02*
X172720000Y-114300000D01*
X172720000Y-114300000D02*
X172720000Y-115570000D01*
X167640000Y-113665000D02*
X172085000Y-113665000D01*
X187960000Y-140970000D02*
X187960000Y-147320000D01*
X172085000Y-139700000D02*
X172720000Y-140335000D01*
X185420000Y-140970000D02*
X185420000Y-141605000D01*
X184785000Y-140335000D02*
X185420000Y-140970000D01*
X172720000Y-140335000D02*
X184785000Y-140335000D01*
X167640000Y-126365000D02*
X171450000Y-126365000D01*
X185420000Y-141605000D02*
X185420000Y-147320000D01*
X172085000Y-127000000D02*
X172085000Y-139700000D01*
X171450000Y-126365000D02*
X172085000Y-127000000D01*
X182880000Y-142240000D02*
X182880000Y-141605000D01*
X158750000Y-140970000D02*
X158115000Y-140335000D01*
X182245000Y-140970000D02*
X158750000Y-140970000D01*
X182880000Y-141605000D02*
X182245000Y-140970000D01*
X182880000Y-147320000D02*
X182880000Y-142240000D01*
X157480000Y-118745000D02*
X152400000Y-118745000D01*
X158115000Y-119380000D02*
X158115000Y-121920000D01*
X157480000Y-118745000D02*
X158115000Y-119380000D01*
X158115000Y-140335000D02*
X158115000Y-125730000D01*
X157480000Y-140970000D02*
X158115000Y-141605000D01*
X180340000Y-142240000D02*
X180340000Y-147320000D01*
X179705000Y-141605000D02*
X180340000Y-142240000D01*
X158115000Y-141605000D02*
X179705000Y-141605000D01*
X157480000Y-126365000D02*
X157480000Y-140970000D01*
X152400000Y-116205000D02*
X156845000Y-116205000D01*
X157480000Y-116840000D02*
X157480000Y-118110000D01*
X156845000Y-116205000D02*
X157480000Y-116840000D01*
X156845000Y-125730000D02*
X156845000Y-141605000D01*
X152400000Y-113665000D02*
X156210000Y-113665000D01*
X156845000Y-114300000D02*
X156845000Y-115570000D01*
X156210000Y-113665000D02*
X156845000Y-114300000D01*
X177800000Y-142875000D02*
X177800000Y-147320000D01*
X177165000Y-142240000D02*
X177800000Y-142875000D01*
X157480000Y-142240000D02*
X177165000Y-142240000D01*
X156845000Y-141605000D02*
X157480000Y-142240000D01*
X150495000Y-144780000D02*
X156845000Y-144780000D01*
X111760000Y-128905000D02*
X111125000Y-129540000D01*
X111125000Y-129540000D02*
X111125000Y-142240000D01*
X157480000Y-147320000D02*
X157480000Y-145415000D01*
X157480000Y-145415000D02*
X156845000Y-144780000D01*
X111760000Y-128905000D02*
X113030000Y-128905000D01*
X154940000Y-147320000D02*
X154940000Y-146050000D01*
X154305000Y-145415000D02*
X151130000Y-145415000D01*
X154940000Y-146050000D02*
X154305000Y-145415000D01*
X111125000Y-126365000D02*
X113030000Y-126365000D01*
X110490000Y-127000000D02*
X111125000Y-126365000D01*
X110490000Y-141605000D02*
X110490000Y-127000000D01*
X144780000Y-144145000D02*
X147320000Y-146685000D01*
X147320000Y-146685000D02*
X147320000Y-147320000D01*
X120650000Y-98425000D02*
X128270000Y-98425000D01*
X120015000Y-99060000D02*
X120650000Y-98425000D01*
X120015000Y-141605000D02*
X120015000Y-99060000D01*
X134620000Y-147320000D02*
X134620000Y-144145000D01*
X120015000Y-95885000D02*
X128270000Y-95885000D01*
X119380000Y-96520000D02*
X120015000Y-95885000D01*
X119380000Y-115570000D02*
X119380000Y-96520000D01*
X119380000Y-142240000D02*
X119380000Y-115570000D01*
X134620000Y-144145000D02*
X133985000Y-143510000D01*
X126365000Y-131445000D02*
X126365000Y-146685000D01*
X126365000Y-146685000D02*
X127000000Y-147320000D01*
X127000000Y-121285000D02*
X128270000Y-121285000D01*
X126365000Y-121920000D02*
X127000000Y-121285000D01*
X126365000Y-131445000D02*
X126365000Y-121920000D01*
X128270000Y-118745000D02*
X126365000Y-118745000D01*
X125730000Y-146050000D02*
X124460000Y-147320000D01*
X125730000Y-119380000D02*
X125730000Y-146050000D01*
X126365000Y-118745000D02*
X125730000Y-119380000D01*
X123190000Y-146050000D02*
X122555000Y-146050000D01*
X122555000Y-146050000D02*
X121920000Y-146685000D01*
X121920000Y-146685000D02*
X121920000Y-147320000D01*
X125095000Y-144145000D02*
X125095000Y-145415000D01*
X124460000Y-146050000D02*
X123190000Y-146050000D01*
X125095000Y-145415000D02*
X124460000Y-146050000D01*
X128270000Y-116205000D02*
X125730000Y-116205000D01*
X125095000Y-116840000D02*
X125095000Y-144145000D01*
X125730000Y-116205000D02*
X125095000Y-116840000D01*
X121285000Y-145415000D02*
X120015000Y-145415000D01*
X119380000Y-146050000D02*
X119380000Y-147320000D01*
X120015000Y-145415000D02*
X119380000Y-146050000D01*
X124460000Y-142240000D02*
X124460000Y-144780000D01*
X123825000Y-145415000D02*
X121285000Y-145415000D01*
X124460000Y-144780000D02*
X123825000Y-145415000D01*
X128270000Y-113665000D02*
X125095000Y-113665000D01*
X124460000Y-114300000D02*
X124460000Y-142240000D01*
X125095000Y-113665000D02*
X124460000Y-114300000D01*
X119380000Y-144780000D02*
X117475000Y-144780000D01*
X116840000Y-145415000D02*
X116840000Y-147320000D01*
X117475000Y-144780000D02*
X116840000Y-145415000D01*
X123825000Y-140335000D02*
X123825000Y-144145000D01*
X123190000Y-144780000D02*
X119380000Y-144780000D01*
X123825000Y-144145000D02*
X123190000Y-144780000D01*
X128270000Y-111125000D02*
X124460000Y-111125000D01*
X123825000Y-111760000D02*
X123825000Y-140335000D01*
X124460000Y-111125000D02*
X123825000Y-111760000D01*
X117475000Y-144145000D02*
X114935000Y-144145000D01*
X114300000Y-144780000D02*
X114300000Y-147320000D01*
X114935000Y-144145000D02*
X114300000Y-144780000D01*
X123190000Y-138430000D02*
X123190000Y-143510000D01*
X122555000Y-144145000D02*
X117475000Y-144145000D01*
X123190000Y-143510000D02*
X122555000Y-144145000D01*
X128270000Y-108585000D02*
X123825000Y-108585000D01*
X123190000Y-109220000D02*
X123190000Y-138430000D01*
X123825000Y-108585000D02*
X123190000Y-109220000D01*
X115570000Y-143510000D02*
X112395000Y-143510000D01*
X111760000Y-144145000D02*
X111760000Y-147320000D01*
X112395000Y-143510000D02*
X111760000Y-144145000D01*
X122555000Y-136525000D02*
X122555000Y-142875000D01*
X121920000Y-143510000D02*
X115570000Y-143510000D01*
X122555000Y-142875000D02*
X121920000Y-143510000D01*
X128270000Y-106045000D02*
X123190000Y-106045000D01*
X122555000Y-106680000D02*
X122555000Y-136525000D01*
X123190000Y-106045000D02*
X122555000Y-106680000D01*
X113665000Y-142875000D02*
X109855000Y-142875000D01*
X109220000Y-143510000D02*
X109220000Y-147320000D01*
X109855000Y-142875000D02*
X109220000Y-143510000D01*
X121920000Y-134620000D02*
X121920000Y-142240000D01*
X121285000Y-142875000D02*
X113665000Y-142875000D01*
X121920000Y-142240000D02*
X121285000Y-142875000D01*
X128270000Y-103505000D02*
X122555000Y-103505000D01*
X121920000Y-104140000D02*
X121920000Y-134620000D01*
X122555000Y-103505000D02*
X121920000Y-104140000D01*
X179705000Y-121285000D02*
X178435000Y-122555000D01*
X178435000Y-122555000D02*
X177800000Y-122555000D01*
X180975000Y-118745000D02*
X180975000Y-118110000D01*
X179705000Y-121285000D02*
X180975000Y-120015000D01*
X180975000Y-120015000D02*
X180975000Y-118745000D01*
X158750000Y-122555000D02*
X177165000Y-122555000D01*
X157480000Y-123825000D02*
X158750000Y-122555000D01*
X152400000Y-123825000D02*
X157480000Y-123825000D01*
X177165000Y-122555000D02*
X177800000Y-122555000D01*
X181610000Y-117475000D02*
X185420000Y-117475000D01*
X180975000Y-118110000D02*
X181610000Y-117475000D01*
X185420000Y-123825000D02*
X185420000Y-126365000D01*
X185420000Y-121285000D02*
X185420000Y-123825000D01*
X185420000Y-118745000D02*
X185420000Y-120015000D01*
X185420000Y-120015000D02*
X185420000Y-121285000D01*
X185420000Y-116205000D02*
X185420000Y-117475000D01*
X185420000Y-117475000D02*
X185420000Y-118745000D01*
X185420000Y-113665000D02*
X185420000Y-116205000D01*
X131445000Y-97790000D02*
X130810000Y-97790000D01*
X130175000Y-94615000D02*
X129540000Y-93980000D01*
X130175000Y-97155000D02*
X130175000Y-94615000D01*
X130810000Y-97790000D02*
X130175000Y-97155000D01*
X113030000Y-113665000D02*
X114935000Y-113665000D01*
X116205000Y-93980000D02*
X129540000Y-93980000D01*
X115570000Y-94615000D02*
X116205000Y-93980000D01*
X115570000Y-113030000D02*
X115570000Y-94615000D01*
X114935000Y-113665000D02*
X115570000Y-113030000D01*
X134620000Y-95885000D02*
X137160000Y-95885000D01*
X133985000Y-96520000D02*
X134620000Y-95885000D01*
X133985000Y-97155000D02*
X133985000Y-96520000D01*
X133350000Y-97790000D02*
X133985000Y-97155000D01*
X131445000Y-97790000D02*
X133350000Y-97790000D01*
X132080000Y-106172000D02*
X134493000Y-106172000D01*
X134493000Y-106172000D02*
X135255000Y-105410000D01*
X177165000Y-116205000D02*
X177165000Y-115570000D01*
X177800000Y-114935000D02*
X180340000Y-114935000D01*
X177165000Y-115570000D02*
X177800000Y-114935000D01*
X177165000Y-116205000D02*
X177165000Y-118110000D01*
X180340000Y-114935000D02*
X180975000Y-114300000D01*
X175260000Y-118745000D02*
X176530000Y-118745000D01*
X181610000Y-113665000D02*
X182880000Y-113665000D01*
X180975000Y-114300000D02*
X181610000Y-113665000D01*
X176530000Y-118745000D02*
X177165000Y-118110000D01*
X179705000Y-120015000D02*
X178435000Y-121285000D01*
X178435000Y-121285000D02*
X177800000Y-121285000D01*
X180340000Y-118110000D02*
X180340000Y-117475000D01*
X181610000Y-116205000D02*
X182880000Y-116205000D01*
X180340000Y-117475000D02*
X181610000Y-116205000D01*
X179705000Y-120015000D02*
X180340000Y-119380000D01*
X180340000Y-119380000D02*
X180340000Y-118110000D01*
X175260000Y-121285000D02*
X177800000Y-121285000D01*
X182245000Y-116205000D02*
X182880000Y-116205000D01*
X179070000Y-123190000D02*
X180340000Y-121920000D01*
X181610000Y-120015000D02*
X181610000Y-120650000D01*
X181610000Y-120650000D02*
X180340000Y-121920000D01*
X175260000Y-123825000D02*
X178435000Y-123825000D01*
X178435000Y-123825000D02*
X179070000Y-123190000D01*
X181610000Y-119380000D02*
X182245000Y-118745000D01*
X181610000Y-120015000D02*
X181610000Y-119380000D01*
X182245000Y-118745000D02*
X182880000Y-118745000D01*
X177165000Y-126365000D02*
X177800000Y-126365000D01*
X177800000Y-126365000D02*
X182880000Y-121285000D01*
X175260000Y-126365000D02*
X177165000Y-126365000D01*
X175260000Y-128905000D02*
X176530000Y-128905000D01*
X176530000Y-128905000D02*
X181610000Y-123825000D01*
X175260000Y-128905000D02*
X175895000Y-128905000D01*
X181610000Y-123825000D02*
X182880000Y-123825000D01*
X181610000Y-126365000D02*
X180340000Y-126365000D01*
X180340000Y-126365000D02*
X175260000Y-131445000D01*
X182880000Y-126365000D02*
X181610000Y-126365000D01*
X118745000Y-107315000D02*
X118745000Y-101600000D01*
X118745000Y-116840000D02*
X118745000Y-107315000D01*
X135255000Y-123190000D02*
X135255000Y-118110000D01*
X134620000Y-117475000D02*
X125730000Y-117475000D01*
X135255000Y-118110000D02*
X134620000Y-117475000D01*
X149860000Y-125095000D02*
X135890000Y-125095000D01*
X158750000Y-123825000D02*
X157480000Y-125095000D01*
X157480000Y-125095000D02*
X151130000Y-125095000D01*
X160020000Y-123825000D02*
X158750000Y-123825000D01*
X135255000Y-124460000D02*
X135255000Y-123190000D01*
X135890000Y-125095000D02*
X135255000Y-124460000D01*
X118110000Y-100965000D02*
X116205000Y-100965000D01*
X118745000Y-101600000D02*
X118110000Y-100965000D01*
X110490000Y-111125000D02*
X109220000Y-111125000D01*
X108585000Y-107950000D02*
X107950000Y-107315000D01*
X108585000Y-110490000D02*
X108585000Y-107950000D01*
X109220000Y-111125000D02*
X108585000Y-110490000D01*
X107315000Y-104575000D02*
X107315000Y-106680000D01*
X107315000Y-106680000D02*
X107950000Y-107315000D01*
X111125000Y-111125000D02*
X110490000Y-111125000D01*
X111125000Y-111125000D02*
X113030000Y-111125000D01*
X102235000Y-107315000D02*
X107950000Y-107315000D01*
X98425000Y-107315000D02*
X102235000Y-107315000D01*
X98425000Y-107315000D02*
X98425000Y-111125000D01*
X98425000Y-111125000D02*
X99695000Y-112395000D01*
X144780000Y-145415000D02*
X143510000Y-144145000D01*
X113030000Y-103505000D02*
X114300000Y-103505000D01*
X111760000Y-132080000D02*
X111760000Y-141605000D01*
X112395000Y-131445000D02*
X111760000Y-132080000D01*
X114300000Y-131445000D02*
X112395000Y-131445000D01*
X114935000Y-130810000D02*
X114300000Y-131445000D01*
X114935000Y-125730000D02*
X114935000Y-130810000D01*
X114300000Y-125095000D02*
X114935000Y-125730000D01*
X111760000Y-125095000D02*
X114300000Y-125095000D01*
X111125000Y-124460000D02*
X111760000Y-125095000D01*
X111125000Y-113030000D02*
X111125000Y-124460000D01*
X111760000Y-112395000D02*
X111125000Y-113030000D01*
X114300000Y-112395000D02*
X111760000Y-112395000D01*
X114935000Y-111760000D02*
X114300000Y-112395000D01*
X114935000Y-104140000D02*
X114935000Y-111760000D01*
X114300000Y-103505000D02*
X114935000Y-104140000D01*
X144780000Y-145415000D02*
X144780000Y-147320000D01*
X137160000Y-142875000D02*
X139700000Y-145415000D01*
X139065000Y-104775000D02*
X139700000Y-105410000D01*
X135890000Y-104775000D02*
X138430000Y-104775000D01*
X135255000Y-104140000D02*
X135890000Y-104775000D01*
X135255000Y-102870000D02*
X135255000Y-104140000D01*
X134620000Y-102235000D02*
X135255000Y-102870000D01*
X121920000Y-102235000D02*
X134620000Y-102235000D01*
X121285000Y-102870000D02*
X121920000Y-102235000D01*
X121285000Y-140335000D02*
X121285000Y-102870000D01*
X138430000Y-104775000D02*
X139065000Y-104775000D01*
X139700000Y-105410000D02*
X139700000Y-106045000D01*
X139700000Y-147320000D02*
X139700000Y-145415000D01*
X135890000Y-142875000D02*
X137160000Y-144145000D01*
X138430000Y-100330000D02*
X138430000Y-102870000D01*
X137795000Y-99695000D02*
X138430000Y-100330000D01*
X121285000Y-99695000D02*
X137795000Y-99695000D01*
X120650000Y-100330000D02*
X121285000Y-99695000D01*
X120650000Y-140970000D02*
X120650000Y-100330000D01*
X138430000Y-102870000D02*
X139065000Y-103505000D01*
X137160000Y-147320000D02*
X137160000Y-144145000D01*
X139065000Y-103505000D02*
X139700000Y-103505000D01*
X163830000Y-106045000D02*
X163830000Y-106680000D01*
X163830000Y-106680000D02*
X163195000Y-107315000D01*
X141605000Y-106680000D02*
X141605000Y-105410000D01*
X142240000Y-107315000D02*
X141605000Y-106680000D01*
X163195000Y-107315000D02*
X142240000Y-107315000D01*
X141605000Y-104775000D02*
X141605000Y-105410000D01*
X141605000Y-101600000D02*
X140970000Y-100965000D01*
X141605000Y-104775000D02*
X141605000Y-101600000D01*
X139700000Y-100965000D02*
X140970000Y-100965000D01*
X137160000Y-118745000D02*
X138430000Y-118745000D01*
X138430000Y-118745000D02*
X139065000Y-118110000D01*
X139065000Y-118110000D02*
X139065000Y-109855000D01*
X137160000Y-103505000D02*
X134620000Y-100965000D01*
X134620000Y-100965000D02*
X128270000Y-100965000D01*
X137160000Y-113665000D02*
X137160000Y-109855000D01*
X163830000Y-95885000D02*
X163830000Y-94615000D01*
X189230000Y-98425000D02*
X190500000Y-98425000D01*
X188595000Y-97790000D02*
X189230000Y-98425000D01*
X188595000Y-94615000D02*
X188595000Y-97790000D01*
X187960000Y-93980000D02*
X188595000Y-94615000D01*
X164465000Y-93980000D02*
X187960000Y-93980000D01*
X163830000Y-94615000D02*
X164465000Y-93980000D01*
X175260000Y-95885000D02*
X175260000Y-102235000D01*
X179070000Y-103505000D02*
X190500000Y-103505000D01*
X178435000Y-102870000D02*
X179070000Y-103505000D01*
X175895000Y-102870000D02*
X178435000Y-102870000D01*
X175260000Y-102235000D02*
X175895000Y-102870000D01*
X190500000Y-106045000D02*
X179070000Y-106045000D01*
X171450000Y-102870000D02*
X171450000Y-95885000D01*
X172085000Y-103505000D02*
X171450000Y-102870000D01*
X177800000Y-103505000D02*
X172085000Y-103505000D01*
X178435000Y-104140000D02*
X177800000Y-103505000D01*
X178435000Y-105410000D02*
X178435000Y-104140000D01*
X179070000Y-106045000D02*
X178435000Y-105410000D01*
X167640000Y-95885000D02*
X167640000Y-103505000D01*
X178435000Y-108585000D02*
X190500000Y-108585000D01*
X177800000Y-107950000D02*
X178435000Y-108585000D01*
X177800000Y-104775000D02*
X177800000Y-107950000D01*
X177165000Y-104140000D02*
X177800000Y-104775000D01*
X168275000Y-104140000D02*
X177165000Y-104140000D01*
X167640000Y-103505000D02*
X168275000Y-104140000D01*
X167640000Y-106045000D02*
X167640000Y-107315000D01*
X116205000Y-116205000D02*
X116840000Y-115570000D01*
X116840000Y-115570000D02*
X116840000Y-110490000D01*
X116840000Y-110490000D02*
X117475000Y-109855000D01*
X130810000Y-109220000D02*
X130175000Y-109855000D01*
X130175000Y-109855000D02*
X123825000Y-109855000D01*
X140335000Y-107950000D02*
X131445000Y-107950000D01*
X130810000Y-108585000D02*
X130810000Y-109220000D01*
X131445000Y-107950000D02*
X130810000Y-108585000D01*
X167005000Y-107950000D02*
X167640000Y-107315000D01*
X140335000Y-107950000D02*
X167005000Y-107950000D01*
X116205000Y-116205000D02*
X113030000Y-116205000D01*
X118110000Y-109855000D02*
X117475000Y-109855000D01*
X171450000Y-106045000D02*
X171450000Y-107950000D01*
X117475000Y-118110000D02*
X116840000Y-118745000D01*
X117475000Y-113030000D02*
X117475000Y-118110000D01*
X116840000Y-118745000D02*
X113030000Y-118745000D01*
X131445000Y-111760000D02*
X130810000Y-112395000D01*
X130810000Y-112395000D02*
X124460000Y-112395000D01*
X132080000Y-108585000D02*
X140970000Y-108585000D01*
X131445000Y-109220000D02*
X132080000Y-108585000D01*
X131445000Y-111760000D02*
X131445000Y-109220000D01*
X140970000Y-108585000D02*
X170815000Y-108585000D01*
X170815000Y-108585000D02*
X171450000Y-107950000D01*
X118110000Y-112395000D02*
X117475000Y-113030000D01*
X175260000Y-106045000D02*
X175260000Y-108585000D01*
X118110000Y-115570000D02*
X118110000Y-123190000D01*
X118110000Y-123190000D02*
X117475000Y-123825000D01*
X117475000Y-123825000D02*
X113030000Y-123825000D01*
X132080000Y-114300000D02*
X131445000Y-114935000D01*
X131445000Y-114935000D02*
X125095000Y-114935000D01*
X132715000Y-109220000D02*
X141605000Y-109220000D01*
X132080000Y-109855000D02*
X132715000Y-109220000D01*
X132080000Y-114300000D02*
X132080000Y-109855000D01*
X141605000Y-109220000D02*
X174625000Y-109220000D01*
X174625000Y-109220000D02*
X175260000Y-108585000D01*
X102235000Y-97155000D02*
X104775000Y-97155000D01*
X104775000Y-97155000D02*
X107315000Y-99695000D01*
X113030000Y-108585000D02*
X111125000Y-108585000D01*
X109855000Y-99695000D02*
X107315000Y-99695000D01*
X110490000Y-100330000D02*
X109855000Y-99695000D01*
X110490000Y-107950000D02*
X110490000Y-100330000D01*
X111125000Y-108585000D02*
X110490000Y-107950000D01*
M02*
