G04 #@! TF.FileFunction,Soldermask,Bot*
%FSLAX46Y46*%
G04 Gerber Fmt 4.6, Leading zero omitted, Abs format (unit mm)*
G04 Created by KiCad (PCBNEW 4.0.7) date 01/25/20 16:08:00*
%MOMM*%
%LPD*%
G01*
G04 APERTURE LIST*
%ADD10C,0.100000*%
%ADD11C,2.000000*%
%ADD12R,2.100000X2.100000*%
%ADD13O,2.100000X2.100000*%
%ADD14R,2.000000X2.000000*%
%ADD15O,2.000000X2.000000*%
%ADD16R,2.800000X2.000000*%
%ADD17O,2.800000X2.000000*%
%ADD18C,1.900000*%
G04 APERTURE END LIST*
D10*
D11*
X98425000Y-107315000D03*
X98425000Y-102315000D03*
D12*
X193040000Y-147320000D03*
D13*
X190500000Y-147320000D03*
X187960000Y-147320000D03*
X185420000Y-147320000D03*
X182880000Y-147320000D03*
X180340000Y-147320000D03*
X177800000Y-147320000D03*
X175260000Y-147320000D03*
X172720000Y-147320000D03*
X170180000Y-147320000D03*
X167640000Y-147320000D03*
X165100000Y-147320000D03*
X162560000Y-147320000D03*
X160020000Y-147320000D03*
X157480000Y-147320000D03*
X154940000Y-147320000D03*
X152400000Y-147320000D03*
X149860000Y-147320000D03*
X147320000Y-147320000D03*
X144780000Y-147320000D03*
X142240000Y-147320000D03*
X139700000Y-147320000D03*
X137160000Y-147320000D03*
X134620000Y-147320000D03*
X132080000Y-147320000D03*
X129540000Y-147320000D03*
X127000000Y-147320000D03*
X124460000Y-147320000D03*
X121920000Y-147320000D03*
X119380000Y-147320000D03*
X116840000Y-147320000D03*
X114300000Y-147320000D03*
X111760000Y-147320000D03*
X109220000Y-147320000D03*
X106680000Y-147320000D03*
X104140000Y-147320000D03*
X101600000Y-147320000D03*
X99060000Y-147320000D03*
X96520000Y-147320000D03*
D14*
X167640000Y-113665000D03*
D15*
X175260000Y-131445000D03*
X167640000Y-116205000D03*
X175260000Y-128905000D03*
X167640000Y-118745000D03*
X175260000Y-126365000D03*
X167640000Y-121285000D03*
X175260000Y-123825000D03*
X167640000Y-123825000D03*
X175260000Y-121285000D03*
X167640000Y-126365000D03*
X175260000Y-118745000D03*
X167640000Y-128905000D03*
X175260000Y-116205000D03*
X167640000Y-131445000D03*
X175260000Y-113665000D03*
D14*
X152400000Y-113665000D03*
D15*
X160020000Y-131445000D03*
X152400000Y-116205000D03*
X160020000Y-128905000D03*
X152400000Y-118745000D03*
X160020000Y-126365000D03*
X152400000Y-121285000D03*
X160020000Y-123825000D03*
X152400000Y-123825000D03*
X160020000Y-121285000D03*
X152400000Y-126365000D03*
X160020000Y-118745000D03*
X152400000Y-128905000D03*
X160020000Y-116205000D03*
X152400000Y-131445000D03*
X160020000Y-113665000D03*
D12*
X182880000Y-113665000D03*
D13*
X185420000Y-113665000D03*
X182880000Y-116205000D03*
X185420000Y-116205000D03*
X182880000Y-118745000D03*
X185420000Y-118745000D03*
X182880000Y-121285000D03*
X185420000Y-121285000D03*
X182880000Y-123825000D03*
X185420000Y-123825000D03*
X182880000Y-126365000D03*
X185420000Y-126365000D03*
D11*
X132080000Y-128905000D03*
X132080000Y-123905000D03*
X179070000Y-113665000D03*
X179070000Y-118665000D03*
X148590000Y-113665000D03*
X148590000Y-118665000D03*
X163830000Y-113665000D03*
X163830000Y-118665000D03*
D14*
X107315000Y-127635000D03*
D11*
X99695000Y-127635000D03*
X99695000Y-112395000D03*
X107315000Y-112395000D03*
D12*
X137160000Y-95885000D03*
D13*
X139700000Y-95885000D03*
X137160000Y-98425000D03*
X139700000Y-98425000D03*
X137160000Y-100965000D03*
X139700000Y-100965000D03*
X137160000Y-103505000D03*
X139700000Y-103505000D03*
X137160000Y-106045000D03*
X139700000Y-106045000D03*
D12*
X190500000Y-95885000D03*
D13*
X190500000Y-98425000D03*
X190500000Y-100965000D03*
X190500000Y-103505000D03*
X190500000Y-106045000D03*
X190500000Y-108585000D03*
D11*
X132080000Y-96012000D03*
D15*
X132080000Y-106172000D03*
D11*
X102235000Y-97155000D03*
D15*
X102235000Y-107315000D03*
D11*
X167640000Y-106045000D03*
D15*
X167640000Y-95885000D03*
D11*
X171450000Y-106045000D03*
D15*
X171450000Y-95885000D03*
D11*
X175260000Y-106045000D03*
D15*
X175260000Y-95885000D03*
D11*
X163830000Y-106045000D03*
D15*
X163830000Y-95885000D03*
D16*
X113030000Y-95885000D03*
D17*
X128270000Y-128905000D03*
X113030000Y-98425000D03*
X128270000Y-126365000D03*
X113030000Y-100965000D03*
X128270000Y-123825000D03*
X113030000Y-103505000D03*
X128270000Y-121285000D03*
X113030000Y-106045000D03*
X128270000Y-118745000D03*
X113030000Y-108585000D03*
X128270000Y-116205000D03*
X113030000Y-111125000D03*
X128270000Y-113665000D03*
X113030000Y-113665000D03*
X128270000Y-111125000D03*
X113030000Y-116205000D03*
X128270000Y-108585000D03*
X113030000Y-118745000D03*
X128270000Y-106045000D03*
X113030000Y-121285000D03*
X128270000Y-103505000D03*
X113030000Y-123825000D03*
X128270000Y-100965000D03*
X113030000Y-126365000D03*
X128270000Y-98425000D03*
X113030000Y-128905000D03*
X128270000Y-95885000D03*
D16*
X137160000Y-113665000D03*
D17*
X144780000Y-128905000D03*
X137160000Y-116205000D03*
X144780000Y-126365000D03*
X137160000Y-118745000D03*
X144780000Y-123825000D03*
X137160000Y-121285000D03*
X144780000Y-121285000D03*
X137160000Y-123825000D03*
X144780000Y-118745000D03*
X137160000Y-126365000D03*
X144780000Y-116205000D03*
X137160000Y-128905000D03*
X144780000Y-113665000D03*
D18*
X107315000Y-99695000D03*
X107315000Y-104575000D03*
M02*
