G04 #@! TF.FileFunction,Legend,Bot*
%FSLAX46Y46*%
G04 Gerber Fmt 4.6, Leading zero omitted, Abs format (unit mm)*
G04 Created by KiCad (PCBNEW 4.0.7) date 01/25/20 12:18:52*
%MOMM*%
%LPD*%
G01*
G04 APERTURE LIST*
%ADD10C,0.100000*%
%ADD11C,0.200000*%
%ADD12C,0.150000*%
G04 APERTURE END LIST*
D10*
X141954286Y-104984046D02*
X141916190Y-105022141D01*
X141878095Y-105136427D01*
X141878095Y-105212617D01*
X141916190Y-105326903D01*
X141992381Y-105403094D01*
X142068571Y-105441189D01*
X142220952Y-105479284D01*
X142335238Y-105479284D01*
X142487619Y-105441189D01*
X142563810Y-105403094D01*
X142640000Y-105326903D01*
X142678095Y-105212617D01*
X142678095Y-105136427D01*
X142640000Y-105022141D01*
X142601905Y-104984046D01*
X142678095Y-104488808D02*
X142678095Y-104336427D01*
X142640000Y-104260236D01*
X142563810Y-104184046D01*
X142411429Y-104145951D01*
X142144762Y-104145951D01*
X141992381Y-104184046D01*
X141916190Y-104260236D01*
X141878095Y-104336427D01*
X141878095Y-104488808D01*
X141916190Y-104564998D01*
X141992381Y-104641189D01*
X142144762Y-104679284D01*
X142411429Y-104679284D01*
X142563810Y-104641189D01*
X142640000Y-104564998D01*
X142678095Y-104488808D01*
X141878095Y-103803094D02*
X142678095Y-103803094D01*
X141878095Y-103345951D01*
X142678095Y-103345951D01*
X142297143Y-102698332D02*
X142297143Y-102964999D01*
X141878095Y-102964999D02*
X142678095Y-102964999D01*
X142678095Y-102584046D01*
X141878095Y-102279285D02*
X142678095Y-102279285D01*
X142640000Y-101479285D02*
X142678095Y-101555476D01*
X142678095Y-101669761D01*
X142640000Y-101784047D01*
X142563810Y-101860238D01*
X142487619Y-101898333D01*
X142335238Y-101936428D01*
X142220952Y-101936428D01*
X142068571Y-101898333D01*
X141992381Y-101860238D01*
X141916190Y-101784047D01*
X141878095Y-101669761D01*
X141878095Y-101593571D01*
X141916190Y-101479285D01*
X141954286Y-101441190D01*
X142220952Y-101441190D01*
X142220952Y-101593571D01*
X142678095Y-101098333D02*
X142030476Y-101098333D01*
X141954286Y-101060238D01*
X141916190Y-101022142D01*
X141878095Y-100945952D01*
X141878095Y-100793571D01*
X141916190Y-100717380D01*
X141954286Y-100679285D01*
X142030476Y-100641190D01*
X142678095Y-100641190D01*
X141878095Y-99803095D02*
X142259048Y-100069762D01*
X141878095Y-100260238D02*
X142678095Y-100260238D01*
X142678095Y-99955476D01*
X142640000Y-99879285D01*
X142601905Y-99841190D01*
X142525714Y-99803095D01*
X142411429Y-99803095D01*
X142335238Y-99841190D01*
X142297143Y-99879285D01*
X142259048Y-99955476D01*
X142259048Y-100260238D01*
X142106667Y-99498333D02*
X142106667Y-99117381D01*
X141878095Y-99574524D02*
X142678095Y-99307857D01*
X141878095Y-99041190D01*
X142678095Y-98888810D02*
X142678095Y-98431667D01*
X141878095Y-98660238D02*
X142678095Y-98660238D01*
X141878095Y-98165000D02*
X142678095Y-98165000D01*
X142678095Y-97631667D02*
X142678095Y-97479286D01*
X142640000Y-97403095D01*
X142563810Y-97326905D01*
X142411429Y-97288810D01*
X142144762Y-97288810D01*
X141992381Y-97326905D01*
X141916190Y-97403095D01*
X141878095Y-97479286D01*
X141878095Y-97631667D01*
X141916190Y-97707857D01*
X141992381Y-97784048D01*
X142144762Y-97822143D01*
X142411429Y-97822143D01*
X142563810Y-97784048D01*
X142640000Y-97707857D01*
X142678095Y-97631667D01*
X141878095Y-96945953D02*
X142678095Y-96945953D01*
X141878095Y-96488810D01*
X142678095Y-96488810D01*
D11*
X136525000Y-93980000D02*
X135255000Y-93980000D01*
X141605000Y-93980000D02*
X140335000Y-93980000D01*
X139700000Y-93980000D02*
X139700000Y-95250000D01*
X137160000Y-93980000D02*
X139700000Y-93980000D01*
X137160000Y-95250000D02*
X137160000Y-93980000D01*
X135255000Y-107950000D02*
X135255000Y-93980000D01*
X141605000Y-107950000D02*
X135255000Y-107950000D01*
X141605000Y-93980000D02*
X141605000Y-107950000D01*
X186055000Y-127635000D02*
X187325000Y-127635000D01*
X181610000Y-127635000D02*
X182245000Y-127635000D01*
X185420000Y-128270000D02*
X185420000Y-127000000D01*
X182880000Y-128270000D02*
X185420000Y-128270000D01*
X182880000Y-127000000D02*
X182880000Y-128270000D01*
D10*
X150126666Y-139896905D02*
X149593333Y-139896905D01*
X149936190Y-140696905D01*
X153517619Y-139896905D02*
X153670000Y-139896905D01*
X153746190Y-139935000D01*
X153784285Y-139973095D01*
X153860476Y-140087381D01*
X153898571Y-140239762D01*
X153898571Y-140544524D01*
X153860476Y-140620714D01*
X153822381Y-140658810D01*
X153746190Y-140696905D01*
X153593809Y-140696905D01*
X153517619Y-140658810D01*
X153479523Y-140620714D01*
X153441428Y-140544524D01*
X153441428Y-140354048D01*
X153479523Y-140277857D01*
X153517619Y-140239762D01*
X153593809Y-140201667D01*
X153746190Y-140201667D01*
X153822381Y-140239762D01*
X153860476Y-140277857D01*
X153898571Y-140354048D01*
X157289523Y-139896905D02*
X157670476Y-139896905D01*
X157708571Y-140277857D01*
X157670476Y-140239762D01*
X157594285Y-140201667D01*
X157403809Y-140201667D01*
X157327619Y-140239762D01*
X157289523Y-140277857D01*
X157251428Y-140354048D01*
X157251428Y-140544524D01*
X157289523Y-140620714D01*
X157327619Y-140658810D01*
X157403809Y-140696905D01*
X157594285Y-140696905D01*
X157670476Y-140658810D01*
X157708571Y-140620714D01*
X161137619Y-140163571D02*
X161137619Y-140696905D01*
X161328095Y-139858810D02*
X161518571Y-140430238D01*
X161023333Y-140430238D01*
X165366666Y-139896905D02*
X164871428Y-139896905D01*
X165138095Y-140201667D01*
X165023809Y-140201667D01*
X164947619Y-140239762D01*
X164909523Y-140277857D01*
X164871428Y-140354048D01*
X164871428Y-140544524D01*
X164909523Y-140620714D01*
X164947619Y-140658810D01*
X165023809Y-140696905D01*
X165252381Y-140696905D01*
X165328571Y-140658810D01*
X165366666Y-140620714D01*
X169138571Y-139973095D02*
X169100476Y-139935000D01*
X169024285Y-139896905D01*
X168833809Y-139896905D01*
X168757619Y-139935000D01*
X168719523Y-139973095D01*
X168681428Y-140049286D01*
X168681428Y-140125476D01*
X168719523Y-140239762D01*
X169176666Y-140696905D01*
X168681428Y-140696905D01*
X172491428Y-140696905D02*
X172948571Y-140696905D01*
X172720000Y-140696905D02*
X172720000Y-139896905D01*
X172796190Y-140011190D01*
X172872381Y-140087381D01*
X172948571Y-140125476D01*
X176568095Y-139896905D02*
X176491904Y-139896905D01*
X176415714Y-139935000D01*
X176377619Y-139973095D01*
X176339523Y-140049286D01*
X176301428Y-140201667D01*
X176301428Y-140392143D01*
X176339523Y-140544524D01*
X176377619Y-140620714D01*
X176415714Y-140658810D01*
X176491904Y-140696905D01*
X176568095Y-140696905D01*
X176644285Y-140658810D01*
X176682381Y-140620714D01*
X176720476Y-140544524D01*
X176758571Y-140392143D01*
X176758571Y-140201667D01*
X176720476Y-140049286D01*
X176682381Y-139973095D01*
X176644285Y-139935000D01*
X176568095Y-139896905D01*
X112026666Y-138626905D02*
X111493333Y-138626905D01*
X111836190Y-139426905D01*
X115417619Y-138626905D02*
X115570000Y-138626905D01*
X115646190Y-138665000D01*
X115684285Y-138703095D01*
X115760476Y-138817381D01*
X115798571Y-138969762D01*
X115798571Y-139274524D01*
X115760476Y-139350714D01*
X115722381Y-139388810D01*
X115646190Y-139426905D01*
X115493809Y-139426905D01*
X115417619Y-139388810D01*
X115379523Y-139350714D01*
X115341428Y-139274524D01*
X115341428Y-139084048D01*
X115379523Y-139007857D01*
X115417619Y-138969762D01*
X115493809Y-138931667D01*
X115646190Y-138931667D01*
X115722381Y-138969762D01*
X115760476Y-139007857D01*
X115798571Y-139084048D01*
X119189523Y-138626905D02*
X119570476Y-138626905D01*
X119608571Y-139007857D01*
X119570476Y-138969762D01*
X119494285Y-138931667D01*
X119303809Y-138931667D01*
X119227619Y-138969762D01*
X119189523Y-139007857D01*
X119151428Y-139084048D01*
X119151428Y-139274524D01*
X119189523Y-139350714D01*
X119227619Y-139388810D01*
X119303809Y-139426905D01*
X119494285Y-139426905D01*
X119570476Y-139388810D01*
X119608571Y-139350714D01*
X123037619Y-138893571D02*
X123037619Y-139426905D01*
X123228095Y-138588810D02*
X123418571Y-139160238D01*
X122923333Y-139160238D01*
X127266666Y-138626905D02*
X126771428Y-138626905D01*
X127038095Y-138931667D01*
X126923809Y-138931667D01*
X126847619Y-138969762D01*
X126809523Y-139007857D01*
X126771428Y-139084048D01*
X126771428Y-139274524D01*
X126809523Y-139350714D01*
X126847619Y-139388810D01*
X126923809Y-139426905D01*
X127152381Y-139426905D01*
X127228571Y-139388810D01*
X127266666Y-139350714D01*
X131038571Y-138703095D02*
X131000476Y-138665000D01*
X130924285Y-138626905D01*
X130733809Y-138626905D01*
X130657619Y-138665000D01*
X130619523Y-138703095D01*
X130581428Y-138779286D01*
X130581428Y-138855476D01*
X130619523Y-138969762D01*
X131076666Y-139426905D01*
X130581428Y-139426905D01*
X134391428Y-139426905D02*
X134848571Y-139426905D01*
X134620000Y-139426905D02*
X134620000Y-138626905D01*
X134696190Y-138741190D01*
X134772381Y-138817381D01*
X134848571Y-138855476D01*
X138468095Y-138626905D02*
X138391904Y-138626905D01*
X138315714Y-138665000D01*
X138277619Y-138703095D01*
X138239523Y-138779286D01*
X138201428Y-138931667D01*
X138201428Y-139122143D01*
X138239523Y-139274524D01*
X138277619Y-139350714D01*
X138315714Y-139388810D01*
X138391904Y-139426905D01*
X138468095Y-139426905D01*
X138544285Y-139388810D01*
X138582381Y-139350714D01*
X138620476Y-139274524D01*
X138658571Y-139122143D01*
X138658571Y-138931667D01*
X138620476Y-138779286D01*
X138582381Y-138703095D01*
X138544285Y-138665000D01*
X138468095Y-138626905D01*
X179381190Y-144855952D02*
X179343095Y-144741666D01*
X179343095Y-144551190D01*
X179381190Y-144475000D01*
X179419286Y-144436904D01*
X179495476Y-144398809D01*
X179571667Y-144398809D01*
X179647857Y-144436904D01*
X179685952Y-144475000D01*
X179724048Y-144551190D01*
X179762143Y-144703571D01*
X179800238Y-144779762D01*
X179838333Y-144817857D01*
X179914524Y-144855952D01*
X179990714Y-144855952D01*
X180066905Y-144817857D01*
X180105000Y-144779762D01*
X180143095Y-144703571D01*
X180143095Y-144513095D01*
X180105000Y-144398809D01*
X180143095Y-144170238D02*
X180143095Y-143713095D01*
X179343095Y-143941666D02*
X180143095Y-143941666D01*
X179571667Y-143484523D02*
X179571667Y-143103571D01*
X179343095Y-143560714D02*
X180143095Y-143294047D01*
X179343095Y-143027380D01*
X180143095Y-142875000D02*
X180143095Y-142417857D01*
X179343095Y-142646428D02*
X180143095Y-142646428D01*
X180143095Y-142151190D02*
X179495476Y-142151190D01*
X179419286Y-142113095D01*
X179381190Y-142074999D01*
X179343095Y-141998809D01*
X179343095Y-141846428D01*
X179381190Y-141770237D01*
X179419286Y-141732142D01*
X179495476Y-141694047D01*
X180143095Y-141694047D01*
X179381190Y-141351190D02*
X179343095Y-141236904D01*
X179343095Y-141046428D01*
X179381190Y-140970238D01*
X179419286Y-140932142D01*
X179495476Y-140894047D01*
X179571667Y-140894047D01*
X179647857Y-140932142D01*
X179685952Y-140970238D01*
X179724048Y-141046428D01*
X179762143Y-141198809D01*
X179800238Y-141275000D01*
X179838333Y-141313095D01*
X179914524Y-141351190D01*
X179990714Y-141351190D01*
X180066905Y-141313095D01*
X180105000Y-141275000D01*
X180143095Y-141198809D01*
X180143095Y-141008333D01*
X180105000Y-140894047D01*
X141319286Y-137293095D02*
X141281190Y-137331190D01*
X141243095Y-137445476D01*
X141243095Y-137521666D01*
X141281190Y-137635952D01*
X141357381Y-137712143D01*
X141433571Y-137750238D01*
X141585952Y-137788333D01*
X141700238Y-137788333D01*
X141852619Y-137750238D01*
X141928810Y-137712143D01*
X142005000Y-137635952D01*
X142043095Y-137521666D01*
X142043095Y-137445476D01*
X142005000Y-137331190D01*
X141966905Y-137293095D01*
X142043095Y-136797857D02*
X142043095Y-136645476D01*
X142005000Y-136569285D01*
X141928810Y-136493095D01*
X141776429Y-136455000D01*
X141509762Y-136455000D01*
X141357381Y-136493095D01*
X141281190Y-136569285D01*
X141243095Y-136645476D01*
X141243095Y-136797857D01*
X141281190Y-136874047D01*
X141357381Y-136950238D01*
X141509762Y-136988333D01*
X141776429Y-136988333D01*
X141928810Y-136950238D01*
X142005000Y-136874047D01*
X142043095Y-136797857D01*
X141243095Y-136112143D02*
X142043095Y-136112143D01*
X141243095Y-135655000D01*
X142043095Y-135655000D01*
X142043095Y-135388334D02*
X142043095Y-134931191D01*
X141243095Y-135159762D02*
X142043095Y-135159762D01*
X141243095Y-134207381D02*
X141624048Y-134474048D01*
X141243095Y-134664524D02*
X142043095Y-134664524D01*
X142043095Y-134359762D01*
X142005000Y-134283571D01*
X141966905Y-134245476D01*
X141890714Y-134207381D01*
X141776429Y-134207381D01*
X141700238Y-134245476D01*
X141662143Y-134283571D01*
X141624048Y-134359762D01*
X141624048Y-134664524D01*
X142043095Y-133712143D02*
X142043095Y-133559762D01*
X142005000Y-133483571D01*
X141928810Y-133407381D01*
X141776429Y-133369286D01*
X141509762Y-133369286D01*
X141357381Y-133407381D01*
X141281190Y-133483571D01*
X141243095Y-133559762D01*
X141243095Y-133712143D01*
X141281190Y-133788333D01*
X141357381Y-133864524D01*
X141509762Y-133902619D01*
X141776429Y-133902619D01*
X141928810Y-133864524D01*
X142005000Y-133788333D01*
X142043095Y-133712143D01*
X141243095Y-132645476D02*
X141243095Y-133026429D01*
X142043095Y-133026429D01*
X141319286Y-145122619D02*
X141281190Y-145160714D01*
X141243095Y-145275000D01*
X141243095Y-145351190D01*
X141281190Y-145465476D01*
X141357381Y-145541667D01*
X141433571Y-145579762D01*
X141585952Y-145617857D01*
X141700238Y-145617857D01*
X141852619Y-145579762D01*
X141928810Y-145541667D01*
X142005000Y-145465476D01*
X142043095Y-145351190D01*
X142043095Y-145275000D01*
X142005000Y-145160714D01*
X141966905Y-145122619D01*
X142043095Y-144627381D02*
X142043095Y-144475000D01*
X142005000Y-144398809D01*
X141928810Y-144322619D01*
X141776429Y-144284524D01*
X141509762Y-144284524D01*
X141357381Y-144322619D01*
X141281190Y-144398809D01*
X141243095Y-144475000D01*
X141243095Y-144627381D01*
X141281190Y-144703571D01*
X141357381Y-144779762D01*
X141509762Y-144817857D01*
X141776429Y-144817857D01*
X141928810Y-144779762D01*
X142005000Y-144703571D01*
X142043095Y-144627381D01*
X141243095Y-143941667D02*
X142043095Y-143941667D01*
X141471667Y-143675000D01*
X142043095Y-143408333D01*
X141243095Y-143408333D01*
X141243095Y-143027381D02*
X142043095Y-143027381D01*
X141471667Y-142760714D01*
X142043095Y-142494047D01*
X141243095Y-142494047D01*
X141471667Y-142151190D02*
X141471667Y-141770238D01*
X141243095Y-142227381D02*
X142043095Y-141960714D01*
X141243095Y-141694047D01*
X141243095Y-141427381D02*
X142043095Y-141427381D01*
X141243095Y-140970238D01*
X142043095Y-140970238D01*
X141243095Y-140589286D02*
X142043095Y-140589286D01*
X142043095Y-140398810D01*
X142005000Y-140284524D01*
X141928810Y-140208333D01*
X141852619Y-140170238D01*
X141700238Y-140132143D01*
X141585952Y-140132143D01*
X141433571Y-140170238D01*
X141357381Y-140208333D01*
X141281190Y-140284524D01*
X141243095Y-140398810D01*
X141243095Y-140589286D01*
X139344286Y-143236905D02*
X139344286Y-142436905D01*
X139153810Y-142436905D01*
X139039524Y-142475000D01*
X138963333Y-142551190D01*
X138925238Y-142627381D01*
X138887143Y-142779762D01*
X138887143Y-142894048D01*
X138925238Y-143046429D01*
X138963333Y-143122619D01*
X139039524Y-143198810D01*
X139153810Y-143236905D01*
X139344286Y-143236905D01*
X138658572Y-142436905D02*
X138201429Y-142436905D01*
X138430000Y-143236905D02*
X138430000Y-142436905D01*
X137477619Y-143236905D02*
X137744286Y-142855952D01*
X137934762Y-143236905D02*
X137934762Y-142436905D01*
X137630000Y-142436905D01*
X137553809Y-142475000D01*
X137515714Y-142513095D01*
X137477619Y-142589286D01*
X137477619Y-142703571D01*
X137515714Y-142779762D01*
X137553809Y-142817857D01*
X137630000Y-142855952D01*
X137934762Y-142855952D01*
X135420000Y-143236905D02*
X135420000Y-142436905D01*
X134581905Y-143236905D02*
X134848572Y-142855952D01*
X135039048Y-143236905D02*
X135039048Y-142436905D01*
X134734286Y-142436905D01*
X134658095Y-142475000D01*
X134620000Y-142513095D01*
X134581905Y-142589286D01*
X134581905Y-142703571D01*
X134620000Y-142779762D01*
X134658095Y-142817857D01*
X134734286Y-142855952D01*
X135039048Y-142855952D01*
X134239048Y-143236905D02*
X134239048Y-142436905D01*
X134048572Y-142436905D01*
X133934286Y-142475000D01*
X133858095Y-142551190D01*
X133820000Y-142627381D01*
X133781905Y-142779762D01*
X133781905Y-142894048D01*
X133820000Y-143046429D01*
X133858095Y-143122619D01*
X133934286Y-143198810D01*
X134048572Y-143236905D01*
X134239048Y-143236905D01*
X128200000Y-141166905D02*
X127742857Y-141166905D01*
X127971428Y-141966905D02*
X127971428Y-141166905D01*
X127476190Y-141966905D02*
X127476190Y-141166905D01*
X126638095Y-141890714D02*
X126676190Y-141928810D01*
X126790476Y-141966905D01*
X126866666Y-141966905D01*
X126980952Y-141928810D01*
X127057143Y-141852619D01*
X127095238Y-141776429D01*
X127133333Y-141624048D01*
X127133333Y-141509762D01*
X127095238Y-141357381D01*
X127057143Y-141281190D01*
X126980952Y-141205000D01*
X126866666Y-141166905D01*
X126790476Y-141166905D01*
X126676190Y-141205000D01*
X126638095Y-141243095D01*
X125876190Y-141966905D02*
X126333333Y-141966905D01*
X126104762Y-141966905D02*
X126104762Y-141166905D01*
X126180952Y-141281190D01*
X126257143Y-141357381D01*
X126333333Y-141395476D01*
X132010000Y-141166905D02*
X131552857Y-141166905D01*
X131781428Y-141966905D02*
X131781428Y-141166905D01*
X131286190Y-141966905D02*
X131286190Y-141166905D01*
X130448095Y-141890714D02*
X130486190Y-141928810D01*
X130600476Y-141966905D01*
X130676666Y-141966905D01*
X130790952Y-141928810D01*
X130867143Y-141852619D01*
X130905238Y-141776429D01*
X130943333Y-141624048D01*
X130943333Y-141509762D01*
X130905238Y-141357381D01*
X130867143Y-141281190D01*
X130790952Y-141205000D01*
X130676666Y-141166905D01*
X130600476Y-141166905D01*
X130486190Y-141205000D01*
X130448095Y-141243095D01*
X129952857Y-141166905D02*
X129876666Y-141166905D01*
X129800476Y-141205000D01*
X129762381Y-141243095D01*
X129724285Y-141319286D01*
X129686190Y-141471667D01*
X129686190Y-141662143D01*
X129724285Y-141814524D01*
X129762381Y-141890714D01*
X129800476Y-141928810D01*
X129876666Y-141966905D01*
X129952857Y-141966905D01*
X130029047Y-141928810D01*
X130067143Y-141890714D01*
X130105238Y-141814524D01*
X130143333Y-141662143D01*
X130143333Y-141471667D01*
X130105238Y-141319286D01*
X130067143Y-141243095D01*
X130029047Y-141205000D01*
X129952857Y-141166905D01*
X129724048Y-143706905D02*
X129266905Y-143706905D01*
X129495476Y-144506905D02*
X129495476Y-143706905D01*
X129000238Y-144506905D02*
X129000238Y-143706905D01*
X128162143Y-144430714D02*
X128200238Y-144468810D01*
X128314524Y-144506905D01*
X128390714Y-144506905D01*
X128505000Y-144468810D01*
X128581191Y-144392619D01*
X128619286Y-144316429D01*
X128657381Y-144164048D01*
X128657381Y-144049762D01*
X128619286Y-143897381D01*
X128581191Y-143821190D01*
X128505000Y-143745000D01*
X128390714Y-143706905D01*
X128314524Y-143706905D01*
X128200238Y-143745000D01*
X128162143Y-143783095D01*
X123761429Y-143236905D02*
X124028096Y-142855952D01*
X124218572Y-143236905D02*
X124218572Y-142436905D01*
X123913810Y-142436905D01*
X123837619Y-142475000D01*
X123799524Y-142513095D01*
X123761429Y-142589286D01*
X123761429Y-142703571D01*
X123799524Y-142779762D01*
X123837619Y-142817857D01*
X123913810Y-142855952D01*
X124218572Y-142855952D01*
X123418572Y-142817857D02*
X123151905Y-142817857D01*
X123037619Y-143236905D02*
X123418572Y-143236905D01*
X123418572Y-142436905D01*
X123037619Y-142436905D01*
X122694762Y-143236905D02*
X122694762Y-142436905D01*
X122428095Y-143008333D01*
X122161428Y-142436905D01*
X122161428Y-143236905D01*
X120408572Y-143236905D02*
X120408572Y-142436905D01*
X120103810Y-142436905D01*
X120027619Y-142475000D01*
X119989524Y-142513095D01*
X119951429Y-142589286D01*
X119951429Y-142703571D01*
X119989524Y-142779762D01*
X120027619Y-142817857D01*
X120103810Y-142855952D01*
X120408572Y-142855952D01*
X119608572Y-143236905D02*
X119608572Y-142436905D01*
X119341905Y-143008333D01*
X119075238Y-142436905D01*
X119075238Y-143236905D01*
X118694286Y-142817857D02*
X118427619Y-142817857D01*
X118313333Y-143236905D02*
X118694286Y-143236905D01*
X118694286Y-142436905D01*
X118313333Y-142436905D01*
X113207619Y-141966905D02*
X113207619Y-141166905D01*
X112902857Y-141166905D01*
X112826666Y-141205000D01*
X112788571Y-141243095D01*
X112750476Y-141319286D01*
X112750476Y-141433571D01*
X112788571Y-141509762D01*
X112826666Y-141547857D01*
X112902857Y-141585952D01*
X113207619Y-141585952D01*
X112407619Y-141966905D02*
X112407619Y-141166905D01*
X112140952Y-141738333D01*
X111874285Y-141166905D01*
X111874285Y-141966905D01*
X111036190Y-141890714D02*
X111074285Y-141928810D01*
X111188571Y-141966905D01*
X111264761Y-141966905D01*
X111379047Y-141928810D01*
X111455238Y-141852619D01*
X111493333Y-141776429D01*
X111531428Y-141624048D01*
X111531428Y-141509762D01*
X111493333Y-141357381D01*
X111455238Y-141281190D01*
X111379047Y-141205000D01*
X111264761Y-141166905D01*
X111188571Y-141166905D01*
X111074285Y-141205000D01*
X111036190Y-141243095D01*
X110274285Y-141966905D02*
X110731428Y-141966905D01*
X110502857Y-141966905D02*
X110502857Y-141166905D01*
X110579047Y-141281190D01*
X110655238Y-141357381D01*
X110731428Y-141395476D01*
X117017619Y-141966905D02*
X117017619Y-141166905D01*
X116712857Y-141166905D01*
X116636666Y-141205000D01*
X116598571Y-141243095D01*
X116560476Y-141319286D01*
X116560476Y-141433571D01*
X116598571Y-141509762D01*
X116636666Y-141547857D01*
X116712857Y-141585952D01*
X117017619Y-141585952D01*
X116217619Y-141966905D02*
X116217619Y-141166905D01*
X115950952Y-141738333D01*
X115684285Y-141166905D01*
X115684285Y-141966905D01*
X114846190Y-141890714D02*
X114884285Y-141928810D01*
X114998571Y-141966905D01*
X115074761Y-141966905D01*
X115189047Y-141928810D01*
X115265238Y-141852619D01*
X115303333Y-141776429D01*
X115341428Y-141624048D01*
X115341428Y-141509762D01*
X115303333Y-141357381D01*
X115265238Y-141281190D01*
X115189047Y-141205000D01*
X115074761Y-141166905D01*
X114998571Y-141166905D01*
X114884285Y-141205000D01*
X114846190Y-141243095D01*
X114350952Y-141166905D02*
X114274761Y-141166905D01*
X114198571Y-141205000D01*
X114160476Y-141243095D01*
X114122380Y-141319286D01*
X114084285Y-141471667D01*
X114084285Y-141662143D01*
X114122380Y-141814524D01*
X114160476Y-141890714D01*
X114198571Y-141928810D01*
X114274761Y-141966905D01*
X114350952Y-141966905D01*
X114427142Y-141928810D01*
X114465238Y-141890714D01*
X114503333Y-141814524D01*
X114541428Y-141662143D01*
X114541428Y-141471667D01*
X114503333Y-141319286D01*
X114465238Y-141243095D01*
X114427142Y-141205000D01*
X114350952Y-141166905D01*
X114731667Y-144506905D02*
X114731667Y-143706905D01*
X114426905Y-143706905D01*
X114350714Y-143745000D01*
X114312619Y-143783095D01*
X114274524Y-143859286D01*
X114274524Y-143973571D01*
X114312619Y-144049762D01*
X114350714Y-144087857D01*
X114426905Y-144125952D01*
X114731667Y-144125952D01*
X113931667Y-144506905D02*
X113931667Y-143706905D01*
X113665000Y-144278333D01*
X113398333Y-143706905D01*
X113398333Y-144506905D01*
X112560238Y-144430714D02*
X112598333Y-144468810D01*
X112712619Y-144506905D01*
X112788809Y-144506905D01*
X112903095Y-144468810D01*
X112979286Y-144392619D01*
X113017381Y-144316429D01*
X113055476Y-144164048D01*
X113055476Y-144049762D01*
X113017381Y-143897381D01*
X112979286Y-143821190D01*
X112903095Y-143745000D01*
X112788809Y-143706905D01*
X112712619Y-143706905D01*
X112598333Y-143745000D01*
X112560238Y-143783095D01*
D11*
X113665000Y-142875000D02*
X113665000Y-140335000D01*
X109855000Y-142875000D02*
X117475000Y-142875000D01*
X117475000Y-145415000D02*
X117475000Y-140335000D01*
X121285000Y-145415000D02*
X121285000Y-140335000D01*
X128905000Y-142875000D02*
X128905000Y-140335000D01*
X125095000Y-142875000D02*
X132715000Y-142875000D01*
X125095000Y-145415000D02*
X125095000Y-140335000D01*
X132715000Y-145415000D02*
X132715000Y-140335000D01*
X136525000Y-145415000D02*
X136525000Y-140335000D01*
X174625000Y-144145000D02*
X174625000Y-141605000D01*
X170815000Y-144145000D02*
X170815000Y-141605000D01*
X167005000Y-144145000D02*
X167005000Y-141605000D01*
X163195000Y-144145000D02*
X163195000Y-141605000D01*
X159385000Y-144145000D02*
X159385000Y-141605000D01*
X155575000Y-144145000D02*
X155575000Y-141605000D01*
X151765000Y-144145000D02*
X151765000Y-141605000D01*
X109855000Y-140335000D02*
X109855000Y-145415000D01*
X140335000Y-140335000D02*
X109855000Y-140335000D01*
X140335000Y-145415000D02*
X140335000Y-140335000D01*
X109855000Y-145415000D02*
X140335000Y-145415000D01*
D10*
X150679047Y-143236905D02*
X150679047Y-142436905D01*
X149840952Y-143236905D02*
X150107619Y-142855952D01*
X150298095Y-143236905D02*
X150298095Y-142436905D01*
X149993333Y-142436905D01*
X149917142Y-142475000D01*
X149879047Y-142513095D01*
X149840952Y-142589286D01*
X149840952Y-142703571D01*
X149879047Y-142779762D01*
X149917142Y-142817857D01*
X149993333Y-142855952D01*
X150298095Y-142855952D01*
X148964761Y-143313095D02*
X149040952Y-143275000D01*
X149117142Y-143198810D01*
X149231428Y-143084524D01*
X149307619Y-143046429D01*
X149383809Y-143046429D01*
X149345714Y-143236905D02*
X149421904Y-143198810D01*
X149498095Y-143122619D01*
X149536190Y-142970238D01*
X149536190Y-142703571D01*
X149498095Y-142551190D01*
X149421904Y-142475000D01*
X149345714Y-142436905D01*
X149193333Y-142436905D01*
X149117142Y-142475000D01*
X149040952Y-142551190D01*
X149002857Y-142703571D01*
X149002857Y-142970238D01*
X149040952Y-143122619D01*
X149117142Y-143198810D01*
X149193333Y-143236905D01*
X149345714Y-143236905D01*
X154660476Y-143236905D02*
X154660476Y-142436905D01*
X154470000Y-142436905D01*
X154355714Y-142475000D01*
X154279523Y-142551190D01*
X154241428Y-142627381D01*
X154203333Y-142779762D01*
X154203333Y-142894048D01*
X154241428Y-143046429D01*
X154279523Y-143122619D01*
X154355714Y-143198810D01*
X154470000Y-143236905D01*
X154660476Y-143236905D01*
X153898571Y-143198810D02*
X153784285Y-143236905D01*
X153593809Y-143236905D01*
X153517619Y-143198810D01*
X153479523Y-143160714D01*
X153441428Y-143084524D01*
X153441428Y-143008333D01*
X153479523Y-142932143D01*
X153517619Y-142894048D01*
X153593809Y-142855952D01*
X153746190Y-142817857D01*
X153822381Y-142779762D01*
X153860476Y-142741667D01*
X153898571Y-142665476D01*
X153898571Y-142589286D01*
X153860476Y-142513095D01*
X153822381Y-142475000D01*
X153746190Y-142436905D01*
X153555714Y-142436905D01*
X153441428Y-142475000D01*
X152641428Y-143236905D02*
X152908095Y-142855952D01*
X153098571Y-143236905D02*
X153098571Y-142436905D01*
X152793809Y-142436905D01*
X152717618Y-142475000D01*
X152679523Y-142513095D01*
X152641428Y-142589286D01*
X152641428Y-142703571D01*
X152679523Y-142779762D01*
X152717618Y-142817857D01*
X152793809Y-142855952D01*
X153098571Y-142855952D01*
X154850952Y-142299000D02*
X152489047Y-142299000D01*
X158489524Y-143236905D02*
X158489524Y-142436905D01*
X158299048Y-142436905D01*
X158184762Y-142475000D01*
X158108571Y-142551190D01*
X158070476Y-142627381D01*
X158032381Y-142779762D01*
X158032381Y-142894048D01*
X158070476Y-143046429D01*
X158108571Y-143122619D01*
X158184762Y-143198810D01*
X158299048Y-143236905D01*
X158489524Y-143236905D01*
X157232381Y-143160714D02*
X157270476Y-143198810D01*
X157384762Y-143236905D01*
X157460952Y-143236905D01*
X157575238Y-143198810D01*
X157651429Y-143122619D01*
X157689524Y-143046429D01*
X157727619Y-142894048D01*
X157727619Y-142779762D01*
X157689524Y-142627381D01*
X157651429Y-142551190D01*
X157575238Y-142475000D01*
X157460952Y-142436905D01*
X157384762Y-142436905D01*
X157270476Y-142475000D01*
X157232381Y-142513095D01*
X156889524Y-143236905D02*
X156889524Y-142436905D01*
X156699048Y-142436905D01*
X156584762Y-142475000D01*
X156508571Y-142551190D01*
X156470476Y-142627381D01*
X156432381Y-142779762D01*
X156432381Y-142894048D01*
X156470476Y-143046429D01*
X156508571Y-143122619D01*
X156584762Y-143198810D01*
X156699048Y-143236905D01*
X156889524Y-143236905D01*
X158680000Y-142299000D02*
X156280000Y-142299000D01*
X162680477Y-142436905D02*
X162223334Y-142436905D01*
X162451905Y-143236905D02*
X162451905Y-142436905D01*
X161956667Y-143236905D02*
X161956667Y-142436905D01*
X161766191Y-142436905D01*
X161651905Y-142475000D01*
X161575714Y-142551190D01*
X161537619Y-142627381D01*
X161499524Y-142779762D01*
X161499524Y-142894048D01*
X161537619Y-143046429D01*
X161575714Y-143122619D01*
X161651905Y-143198810D01*
X161766191Y-143236905D01*
X161956667Y-143236905D01*
X160699524Y-143236905D02*
X160966191Y-142855952D01*
X161156667Y-143236905D02*
X161156667Y-142436905D01*
X160851905Y-142436905D01*
X160775714Y-142475000D01*
X160737619Y-142513095D01*
X160699524Y-142589286D01*
X160699524Y-142703571D01*
X160737619Y-142779762D01*
X160775714Y-142817857D01*
X160851905Y-142855952D01*
X161156667Y-142855952D01*
X160356667Y-142817857D02*
X160090000Y-142817857D01*
X159975714Y-143236905D02*
X160356667Y-143236905D01*
X160356667Y-142436905D01*
X159975714Y-142436905D01*
X165995238Y-143236905D02*
X166261905Y-142855952D01*
X166452381Y-143236905D02*
X166452381Y-142436905D01*
X166147619Y-142436905D01*
X166071428Y-142475000D01*
X166033333Y-142513095D01*
X165995238Y-142589286D01*
X165995238Y-142703571D01*
X166033333Y-142779762D01*
X166071428Y-142817857D01*
X166147619Y-142855952D01*
X166452381Y-142855952D01*
X165652381Y-143236905D02*
X165652381Y-142436905D01*
X165461905Y-142436905D01*
X165347619Y-142475000D01*
X165271428Y-142551190D01*
X165233333Y-142627381D01*
X165195238Y-142779762D01*
X165195238Y-142894048D01*
X165233333Y-143046429D01*
X165271428Y-143122619D01*
X165347619Y-143198810D01*
X165461905Y-143236905D01*
X165652381Y-143236905D01*
X164395238Y-143236905D02*
X164661905Y-142855952D01*
X164852381Y-143236905D02*
X164852381Y-142436905D01*
X164547619Y-142436905D01*
X164471428Y-142475000D01*
X164433333Y-142513095D01*
X164395238Y-142589286D01*
X164395238Y-142703571D01*
X164433333Y-142779762D01*
X164471428Y-142817857D01*
X164547619Y-142855952D01*
X164852381Y-142855952D01*
X163785714Y-142817857D02*
X164052381Y-142817857D01*
X164052381Y-143236905D02*
X164052381Y-142436905D01*
X163671428Y-142436905D01*
X170148095Y-142436905D02*
X169995714Y-142436905D01*
X169919523Y-142475000D01*
X169843333Y-142551190D01*
X169805238Y-142703571D01*
X169805238Y-142970238D01*
X169843333Y-143122619D01*
X169919523Y-143198810D01*
X169995714Y-143236905D01*
X170148095Y-143236905D01*
X170224285Y-143198810D01*
X170300476Y-143122619D01*
X170338571Y-142970238D01*
X170338571Y-142703571D01*
X170300476Y-142551190D01*
X170224285Y-142475000D01*
X170148095Y-142436905D01*
X169576667Y-142436905D02*
X169310000Y-143236905D01*
X169043333Y-142436905D01*
X168319524Y-143236905D02*
X168586191Y-142855952D01*
X168776667Y-143236905D02*
X168776667Y-142436905D01*
X168471905Y-142436905D01*
X168395714Y-142475000D01*
X168357619Y-142513095D01*
X168319524Y-142589286D01*
X168319524Y-142703571D01*
X168357619Y-142779762D01*
X168395714Y-142817857D01*
X168471905Y-142855952D01*
X168776667Y-142855952D01*
X167976667Y-143236905D02*
X167976667Y-142436905D01*
X167519524Y-143236905D01*
X167519524Y-142436905D01*
X172967619Y-142817857D02*
X173234286Y-142817857D01*
X173234286Y-143236905D02*
X173234286Y-142436905D01*
X172853333Y-142436905D01*
X172548572Y-142817857D02*
X172281905Y-142817857D01*
X172167619Y-143236905D02*
X172548572Y-143236905D01*
X172548572Y-142436905D01*
X172167619Y-142436905D01*
X177101429Y-143236905D02*
X177101429Y-142436905D01*
X176796667Y-142436905D01*
X176720476Y-142475000D01*
X176682381Y-142513095D01*
X176644286Y-142589286D01*
X176644286Y-142703571D01*
X176682381Y-142779762D01*
X176720476Y-142817857D01*
X176796667Y-142855952D01*
X177101429Y-142855952D01*
X176301429Y-142817857D02*
X176034762Y-142817857D01*
X175920476Y-143236905D02*
X176301429Y-143236905D01*
X176301429Y-142436905D01*
X175920476Y-142436905D01*
D11*
X178435000Y-141605000D02*
X178435000Y-144145000D01*
X147955000Y-141605000D02*
X178435000Y-141605000D01*
X147955000Y-144145000D02*
X147955000Y-141605000D01*
X178435000Y-144145000D02*
X147955000Y-144145000D01*
X113665000Y-137795000D02*
X109855000Y-137795000D01*
X109855000Y-132715000D02*
X113665000Y-132715000D01*
X109855000Y-137795000D02*
X109855000Y-132715000D01*
X113665000Y-137795000D02*
X113665000Y-135255000D01*
X121285000Y-137795000D02*
X113665000Y-137795000D01*
X113665000Y-132715000D02*
X117475000Y-132715000D01*
X113665000Y-135255000D02*
X113665000Y-132715000D01*
X117475000Y-135255000D02*
X113665000Y-135255000D01*
X117475000Y-135255000D02*
X117475000Y-132715000D01*
X121285000Y-135255000D02*
X117475000Y-135255000D01*
X117475000Y-132715000D02*
X121285000Y-132715000D01*
X125095000Y-137795000D02*
X121285000Y-137795000D01*
X121285000Y-132715000D02*
X125095000Y-132715000D01*
X121285000Y-137795000D02*
X121285000Y-132715000D01*
X125095000Y-137795000D02*
X125095000Y-135255000D01*
X140335000Y-137795000D02*
X125095000Y-137795000D01*
X140335000Y-135255000D02*
X140335000Y-137795000D01*
D10*
X133743571Y-136848810D02*
X133629285Y-136886905D01*
X133438809Y-136886905D01*
X133362619Y-136848810D01*
X133324523Y-136810714D01*
X133286428Y-136734524D01*
X133286428Y-136658333D01*
X133324523Y-136582143D01*
X133362619Y-136544048D01*
X133438809Y-136505952D01*
X133591190Y-136467857D01*
X133667381Y-136429762D01*
X133705476Y-136391667D01*
X133743571Y-136315476D01*
X133743571Y-136239286D01*
X133705476Y-136163095D01*
X133667381Y-136125000D01*
X133591190Y-136086905D01*
X133400714Y-136086905D01*
X133286428Y-136125000D01*
X132676904Y-136467857D02*
X132562618Y-136505952D01*
X132524523Y-136544048D01*
X132486428Y-136620238D01*
X132486428Y-136734524D01*
X132524523Y-136810714D01*
X132562618Y-136848810D01*
X132638809Y-136886905D01*
X132943571Y-136886905D01*
X132943571Y-136086905D01*
X132676904Y-136086905D01*
X132600714Y-136125000D01*
X132562618Y-136163095D01*
X132524523Y-136239286D01*
X132524523Y-136315476D01*
X132562618Y-136391667D01*
X132600714Y-136429762D01*
X132676904Y-136467857D01*
X132943571Y-136467857D01*
X131686428Y-136886905D02*
X131953095Y-136505952D01*
X132143571Y-136886905D02*
X132143571Y-136086905D01*
X131838809Y-136086905D01*
X131762618Y-136125000D01*
X131724523Y-136163095D01*
X131686428Y-136239286D01*
X131686428Y-136353571D01*
X131724523Y-136429762D01*
X131762618Y-136467857D01*
X131838809Y-136505952D01*
X132143571Y-136505952D01*
D11*
X128905000Y-135255000D02*
X128905000Y-132715000D01*
X132715000Y-135255000D02*
X132715000Y-132715000D01*
X136525000Y-132715000D02*
X136525000Y-135255000D01*
X125095000Y-132715000D02*
X125095000Y-135255000D01*
X140335000Y-132715000D02*
X125095000Y-132715000D01*
X140335000Y-135255000D02*
X140335000Y-132715000D01*
X125095000Y-135255000D02*
X140335000Y-135255000D01*
D10*
X139839524Y-134308810D02*
X139725238Y-134346905D01*
X139534762Y-134346905D01*
X139458572Y-134308810D01*
X139420476Y-134270714D01*
X139382381Y-134194524D01*
X139382381Y-134118333D01*
X139420476Y-134042143D01*
X139458572Y-134004048D01*
X139534762Y-133965952D01*
X139687143Y-133927857D01*
X139763334Y-133889762D01*
X139801429Y-133851667D01*
X139839524Y-133775476D01*
X139839524Y-133699286D01*
X139801429Y-133623095D01*
X139763334Y-133585000D01*
X139687143Y-133546905D01*
X139496667Y-133546905D01*
X139382381Y-133585000D01*
X138772857Y-133927857D02*
X138658571Y-133965952D01*
X138620476Y-134004048D01*
X138582381Y-134080238D01*
X138582381Y-134194524D01*
X138620476Y-134270714D01*
X138658571Y-134308810D01*
X138734762Y-134346905D01*
X139039524Y-134346905D01*
X139039524Y-133546905D01*
X138772857Y-133546905D01*
X138696667Y-133585000D01*
X138658571Y-133623095D01*
X138620476Y-133699286D01*
X138620476Y-133775476D01*
X138658571Y-133851667D01*
X138696667Y-133889762D01*
X138772857Y-133927857D01*
X139039524Y-133927857D01*
X137782381Y-134346905D02*
X138049048Y-133965952D01*
X138239524Y-134346905D02*
X138239524Y-133546905D01*
X137934762Y-133546905D01*
X137858571Y-133585000D01*
X137820476Y-133623095D01*
X137782381Y-133699286D01*
X137782381Y-133813571D01*
X137820476Y-133889762D01*
X137858571Y-133927857D01*
X137934762Y-133965952D01*
X138239524Y-133965952D01*
X137287143Y-133546905D02*
X137210952Y-133546905D01*
X137134762Y-133585000D01*
X137096667Y-133623095D01*
X137058571Y-133699286D01*
X137020476Y-133851667D01*
X137020476Y-134042143D01*
X137058571Y-134194524D01*
X137096667Y-134270714D01*
X137134762Y-134308810D01*
X137210952Y-134346905D01*
X137287143Y-134346905D01*
X137363333Y-134308810D01*
X137401429Y-134270714D01*
X137439524Y-134194524D01*
X137477619Y-134042143D01*
X137477619Y-133851667D01*
X137439524Y-133699286D01*
X137401429Y-133623095D01*
X137363333Y-133585000D01*
X137287143Y-133546905D01*
X136029524Y-134308810D02*
X135915238Y-134346905D01*
X135724762Y-134346905D01*
X135648572Y-134308810D01*
X135610476Y-134270714D01*
X135572381Y-134194524D01*
X135572381Y-134118333D01*
X135610476Y-134042143D01*
X135648572Y-134004048D01*
X135724762Y-133965952D01*
X135877143Y-133927857D01*
X135953334Y-133889762D01*
X135991429Y-133851667D01*
X136029524Y-133775476D01*
X136029524Y-133699286D01*
X135991429Y-133623095D01*
X135953334Y-133585000D01*
X135877143Y-133546905D01*
X135686667Y-133546905D01*
X135572381Y-133585000D01*
X134962857Y-133927857D02*
X134848571Y-133965952D01*
X134810476Y-134004048D01*
X134772381Y-134080238D01*
X134772381Y-134194524D01*
X134810476Y-134270714D01*
X134848571Y-134308810D01*
X134924762Y-134346905D01*
X135229524Y-134346905D01*
X135229524Y-133546905D01*
X134962857Y-133546905D01*
X134886667Y-133585000D01*
X134848571Y-133623095D01*
X134810476Y-133699286D01*
X134810476Y-133775476D01*
X134848571Y-133851667D01*
X134886667Y-133889762D01*
X134962857Y-133927857D01*
X135229524Y-133927857D01*
X133972381Y-134346905D02*
X134239048Y-133965952D01*
X134429524Y-134346905D02*
X134429524Y-133546905D01*
X134124762Y-133546905D01*
X134048571Y-133585000D01*
X134010476Y-133623095D01*
X133972381Y-133699286D01*
X133972381Y-133813571D01*
X134010476Y-133889762D01*
X134048571Y-133927857D01*
X134124762Y-133965952D01*
X134429524Y-133965952D01*
X133210476Y-134346905D02*
X133667619Y-134346905D01*
X133439048Y-134346905D02*
X133439048Y-133546905D01*
X133515238Y-133661190D01*
X133591429Y-133737381D01*
X133667619Y-133775476D01*
X132219524Y-134308810D02*
X132105238Y-134346905D01*
X131914762Y-134346905D01*
X131838572Y-134308810D01*
X131800476Y-134270714D01*
X131762381Y-134194524D01*
X131762381Y-134118333D01*
X131800476Y-134042143D01*
X131838572Y-134004048D01*
X131914762Y-133965952D01*
X132067143Y-133927857D01*
X132143334Y-133889762D01*
X132181429Y-133851667D01*
X132219524Y-133775476D01*
X132219524Y-133699286D01*
X132181429Y-133623095D01*
X132143334Y-133585000D01*
X132067143Y-133546905D01*
X131876667Y-133546905D01*
X131762381Y-133585000D01*
X131152857Y-133927857D02*
X131038571Y-133965952D01*
X131000476Y-134004048D01*
X130962381Y-134080238D01*
X130962381Y-134194524D01*
X131000476Y-134270714D01*
X131038571Y-134308810D01*
X131114762Y-134346905D01*
X131419524Y-134346905D01*
X131419524Y-133546905D01*
X131152857Y-133546905D01*
X131076667Y-133585000D01*
X131038571Y-133623095D01*
X131000476Y-133699286D01*
X131000476Y-133775476D01*
X131038571Y-133851667D01*
X131076667Y-133889762D01*
X131152857Y-133927857D01*
X131419524Y-133927857D01*
X130162381Y-134346905D02*
X130429048Y-133965952D01*
X130619524Y-134346905D02*
X130619524Y-133546905D01*
X130314762Y-133546905D01*
X130238571Y-133585000D01*
X130200476Y-133623095D01*
X130162381Y-133699286D01*
X130162381Y-133813571D01*
X130200476Y-133889762D01*
X130238571Y-133927857D01*
X130314762Y-133965952D01*
X130619524Y-133965952D01*
X129857619Y-133623095D02*
X129819524Y-133585000D01*
X129743333Y-133546905D01*
X129552857Y-133546905D01*
X129476667Y-133585000D01*
X129438571Y-133623095D01*
X129400476Y-133699286D01*
X129400476Y-133775476D01*
X129438571Y-133889762D01*
X129895714Y-134346905D01*
X129400476Y-134346905D01*
X128409524Y-134308810D02*
X128295238Y-134346905D01*
X128104762Y-134346905D01*
X128028572Y-134308810D01*
X127990476Y-134270714D01*
X127952381Y-134194524D01*
X127952381Y-134118333D01*
X127990476Y-134042143D01*
X128028572Y-134004048D01*
X128104762Y-133965952D01*
X128257143Y-133927857D01*
X128333334Y-133889762D01*
X128371429Y-133851667D01*
X128409524Y-133775476D01*
X128409524Y-133699286D01*
X128371429Y-133623095D01*
X128333334Y-133585000D01*
X128257143Y-133546905D01*
X128066667Y-133546905D01*
X127952381Y-133585000D01*
X127342857Y-133927857D02*
X127228571Y-133965952D01*
X127190476Y-134004048D01*
X127152381Y-134080238D01*
X127152381Y-134194524D01*
X127190476Y-134270714D01*
X127228571Y-134308810D01*
X127304762Y-134346905D01*
X127609524Y-134346905D01*
X127609524Y-133546905D01*
X127342857Y-133546905D01*
X127266667Y-133585000D01*
X127228571Y-133623095D01*
X127190476Y-133699286D01*
X127190476Y-133775476D01*
X127228571Y-133851667D01*
X127266667Y-133889762D01*
X127342857Y-133927857D01*
X127609524Y-133927857D01*
X126352381Y-134346905D02*
X126619048Y-133965952D01*
X126809524Y-134346905D02*
X126809524Y-133546905D01*
X126504762Y-133546905D01*
X126428571Y-133585000D01*
X126390476Y-133623095D01*
X126352381Y-133699286D01*
X126352381Y-133813571D01*
X126390476Y-133889762D01*
X126428571Y-133927857D01*
X126504762Y-133965952D01*
X126809524Y-133965952D01*
X126085714Y-133546905D02*
X125590476Y-133546905D01*
X125857143Y-133851667D01*
X125742857Y-133851667D01*
X125666667Y-133889762D01*
X125628571Y-133927857D01*
X125590476Y-134004048D01*
X125590476Y-134194524D01*
X125628571Y-134270714D01*
X125666667Y-134308810D01*
X125742857Y-134346905D01*
X125971429Y-134346905D01*
X126047619Y-134308810D01*
X126085714Y-134270714D01*
X123723333Y-135616905D02*
X123990000Y-135235952D01*
X124180476Y-135616905D02*
X124180476Y-134816905D01*
X123875714Y-134816905D01*
X123799523Y-134855000D01*
X123761428Y-134893095D01*
X123723333Y-134969286D01*
X123723333Y-135083571D01*
X123761428Y-135159762D01*
X123799523Y-135197857D01*
X123875714Y-135235952D01*
X124180476Y-135235952D01*
X122923333Y-135540714D02*
X122961428Y-135578810D01*
X123075714Y-135616905D01*
X123151904Y-135616905D01*
X123266190Y-135578810D01*
X123342381Y-135502619D01*
X123380476Y-135426429D01*
X123418571Y-135274048D01*
X123418571Y-135159762D01*
X123380476Y-135007381D01*
X123342381Y-134931190D01*
X123266190Y-134855000D01*
X123151904Y-134816905D01*
X123075714Y-134816905D01*
X122961428Y-134855000D01*
X122923333Y-134893095D01*
X122618571Y-135578810D02*
X122504285Y-135616905D01*
X122313809Y-135616905D01*
X122237619Y-135578810D01*
X122199523Y-135540714D01*
X122161428Y-135464524D01*
X122161428Y-135388333D01*
X122199523Y-135312143D01*
X122237619Y-135274048D01*
X122313809Y-135235952D01*
X122466190Y-135197857D01*
X122542381Y-135159762D01*
X122580476Y-135121667D01*
X122618571Y-135045476D01*
X122618571Y-134969286D01*
X122580476Y-134893095D01*
X122542381Y-134855000D01*
X122466190Y-134816905D01*
X122275714Y-134816905D01*
X122161428Y-134855000D01*
X120427619Y-133546905D02*
X120237143Y-134346905D01*
X120084762Y-133775476D01*
X119932381Y-134346905D01*
X119741905Y-133546905D01*
X119056190Y-134346905D02*
X119437143Y-134346905D01*
X119437143Y-133546905D01*
X118637143Y-133546905D02*
X118560952Y-133546905D01*
X118484762Y-133585000D01*
X118446667Y-133623095D01*
X118408571Y-133699286D01*
X118370476Y-133851667D01*
X118370476Y-134042143D01*
X118408571Y-134194524D01*
X118446667Y-134270714D01*
X118484762Y-134308810D01*
X118560952Y-134346905D01*
X118637143Y-134346905D01*
X118713333Y-134308810D01*
X118751429Y-134270714D01*
X118789524Y-134194524D01*
X118827619Y-134042143D01*
X118827619Y-133851667D01*
X118789524Y-133699286D01*
X118751429Y-133623095D01*
X118713333Y-133585000D01*
X118637143Y-133546905D01*
X116617619Y-133546905D02*
X116427143Y-134346905D01*
X116274762Y-133775476D01*
X116122381Y-134346905D01*
X115931905Y-133546905D01*
X115246190Y-134346905D02*
X115627143Y-134346905D01*
X115627143Y-133546905D01*
X114560476Y-134346905D02*
X115017619Y-134346905D01*
X114789048Y-134346905D02*
X114789048Y-133546905D01*
X114865238Y-133661190D01*
X114941429Y-133737381D01*
X115017619Y-133775476D01*
X118141666Y-136086905D02*
X117951190Y-136886905D01*
X117798809Y-136315476D01*
X117646428Y-136886905D01*
X117455952Y-136086905D01*
X116770237Y-136886905D02*
X117151190Y-136886905D01*
X117151190Y-136086905D01*
X112807619Y-135578810D02*
X112693333Y-135616905D01*
X112502857Y-135616905D01*
X112426667Y-135578810D01*
X112388571Y-135540714D01*
X112350476Y-135464524D01*
X112350476Y-135388333D01*
X112388571Y-135312143D01*
X112426667Y-135274048D01*
X112502857Y-135235952D01*
X112655238Y-135197857D01*
X112731429Y-135159762D01*
X112769524Y-135121667D01*
X112807619Y-135045476D01*
X112807619Y-134969286D01*
X112769524Y-134893095D01*
X112731429Y-134855000D01*
X112655238Y-134816905D01*
X112464762Y-134816905D01*
X112350476Y-134855000D01*
X111740952Y-135197857D02*
X111626666Y-135235952D01*
X111588571Y-135274048D01*
X111550476Y-135350238D01*
X111550476Y-135464524D01*
X111588571Y-135540714D01*
X111626666Y-135578810D01*
X111702857Y-135616905D01*
X112007619Y-135616905D01*
X112007619Y-134816905D01*
X111740952Y-134816905D01*
X111664762Y-134855000D01*
X111626666Y-134893095D01*
X111588571Y-134969286D01*
X111588571Y-135045476D01*
X111626666Y-135121667D01*
X111664762Y-135159762D01*
X111740952Y-135197857D01*
X112007619Y-135197857D01*
X111207619Y-135616905D02*
X111207619Y-134816905D01*
X110750476Y-135616905D01*
X110750476Y-134816905D01*
X105352619Y-95535714D02*
X105390714Y-95573810D01*
X105505000Y-95611905D01*
X105581190Y-95611905D01*
X105695476Y-95573810D01*
X105771667Y-95497619D01*
X105809762Y-95421429D01*
X105847857Y-95269048D01*
X105847857Y-95154762D01*
X105809762Y-95002381D01*
X105771667Y-94926190D01*
X105695476Y-94850000D01*
X105581190Y-94811905D01*
X105505000Y-94811905D01*
X105390714Y-94850000D01*
X105352619Y-94888095D01*
X104552619Y-95611905D02*
X104819286Y-95230952D01*
X105009762Y-95611905D02*
X105009762Y-94811905D01*
X104705000Y-94811905D01*
X104628809Y-94850000D01*
X104590714Y-94888095D01*
X104552619Y-94964286D01*
X104552619Y-95078571D01*
X104590714Y-95154762D01*
X104628809Y-95192857D01*
X104705000Y-95230952D01*
X105009762Y-95230952D01*
X104057381Y-95230952D02*
X104057381Y-95611905D01*
X104324048Y-94811905D02*
X104057381Y-95230952D01*
X103790714Y-94811905D01*
X103562143Y-95573810D02*
X103447857Y-95611905D01*
X103257381Y-95611905D01*
X103181191Y-95573810D01*
X103143095Y-95535714D01*
X103105000Y-95459524D01*
X103105000Y-95383333D01*
X103143095Y-95307143D01*
X103181191Y-95269048D01*
X103257381Y-95230952D01*
X103409762Y-95192857D01*
X103485953Y-95154762D01*
X103524048Y-95116667D01*
X103562143Y-95040476D01*
X103562143Y-94964286D01*
X103524048Y-94888095D01*
X103485953Y-94850000D01*
X103409762Y-94811905D01*
X103219286Y-94811905D01*
X103105000Y-94850000D01*
X102876429Y-94811905D02*
X102419286Y-94811905D01*
X102647857Y-95611905D02*
X102647857Y-94811905D01*
X102190714Y-95383333D02*
X101809762Y-95383333D01*
X102266905Y-95611905D02*
X102000238Y-94811905D01*
X101733571Y-95611905D01*
X101085952Y-95611905D02*
X101466905Y-95611905D01*
X101466905Y-94811905D01*
X108171667Y-110051905D02*
X107714524Y-110051905D01*
X107943095Y-110851905D02*
X107943095Y-110051905D01*
X107562143Y-110051905D02*
X107105000Y-110051905D01*
X107333571Y-110851905D02*
X107333571Y-110051905D01*
X106457380Y-110851905D02*
X106838333Y-110851905D01*
X106838333Y-110051905D01*
X105428809Y-110051905D02*
X105276428Y-110051905D01*
X105200237Y-110090000D01*
X105124047Y-110166190D01*
X105085952Y-110318571D01*
X105085952Y-110585238D01*
X105124047Y-110737619D01*
X105200237Y-110813810D01*
X105276428Y-110851905D01*
X105428809Y-110851905D01*
X105504999Y-110813810D01*
X105581190Y-110737619D01*
X105619285Y-110585238D01*
X105619285Y-110318571D01*
X105581190Y-110166190D01*
X105504999Y-110090000D01*
X105428809Y-110051905D01*
X104781190Y-110813810D02*
X104666904Y-110851905D01*
X104476428Y-110851905D01*
X104400238Y-110813810D01*
X104362142Y-110775714D01*
X104324047Y-110699524D01*
X104324047Y-110623333D01*
X104362142Y-110547143D01*
X104400238Y-110509048D01*
X104476428Y-110470952D01*
X104628809Y-110432857D01*
X104705000Y-110394762D01*
X104743095Y-110356667D01*
X104781190Y-110280476D01*
X104781190Y-110204286D01*
X104743095Y-110128095D01*
X104705000Y-110090000D01*
X104628809Y-110051905D01*
X104438333Y-110051905D01*
X104324047Y-110090000D01*
X103524047Y-110775714D02*
X103562142Y-110813810D01*
X103676428Y-110851905D01*
X103752618Y-110851905D01*
X103866904Y-110813810D01*
X103943095Y-110737619D01*
X103981190Y-110661429D01*
X104019285Y-110509048D01*
X104019285Y-110394762D01*
X103981190Y-110242381D01*
X103943095Y-110166190D01*
X103866904Y-110090000D01*
X103752618Y-110051905D01*
X103676428Y-110051905D01*
X103562142Y-110090000D01*
X103524047Y-110128095D01*
X103181190Y-110851905D02*
X103181190Y-110051905D01*
X102419285Y-110851905D02*
X102800238Y-110851905D01*
X102800238Y-110051905D01*
X101771666Y-110851905D02*
X102152619Y-110851905D01*
X102152619Y-110051905D01*
X101543095Y-110623333D02*
X101162143Y-110623333D01*
X101619286Y-110851905D02*
X101352619Y-110051905D01*
X101085952Y-110851905D01*
X100933572Y-110051905D02*
X100476429Y-110051905D01*
X100705000Y-110851905D02*
X100705000Y-110051905D01*
X100057381Y-110051905D02*
X99905000Y-110051905D01*
X99828809Y-110090000D01*
X99752619Y-110166190D01*
X99714524Y-110318571D01*
X99714524Y-110585238D01*
X99752619Y-110737619D01*
X99828809Y-110813810D01*
X99905000Y-110851905D01*
X100057381Y-110851905D01*
X100133571Y-110813810D01*
X100209762Y-110737619D01*
X100247857Y-110585238D01*
X100247857Y-110318571D01*
X100209762Y-110166190D01*
X100133571Y-110090000D01*
X100057381Y-110051905D01*
X98914524Y-110851905D02*
X99181191Y-110470952D01*
X99371667Y-110851905D02*
X99371667Y-110051905D01*
X99066905Y-110051905D01*
X98990714Y-110090000D01*
X98952619Y-110128095D01*
X98914524Y-110204286D01*
X98914524Y-110318571D01*
X98952619Y-110394762D01*
X98990714Y-110432857D01*
X99066905Y-110470952D01*
X99371667Y-110470952D01*
X100596429Y-119658810D02*
X100482143Y-119696905D01*
X100291667Y-119696905D01*
X100215477Y-119658810D01*
X100177381Y-119620714D01*
X100139286Y-119544524D01*
X100139286Y-119468333D01*
X100177381Y-119392143D01*
X100215477Y-119354048D01*
X100291667Y-119315952D01*
X100444048Y-119277857D01*
X100520239Y-119239762D01*
X100558334Y-119201667D01*
X100596429Y-119125476D01*
X100596429Y-119049286D01*
X100558334Y-118973095D01*
X100520239Y-118935000D01*
X100444048Y-118896905D01*
X100253572Y-118896905D01*
X100139286Y-118935000D01*
X100367858Y-118782619D02*
X100367858Y-119811190D01*
X99377381Y-119696905D02*
X99834524Y-119696905D01*
X99605953Y-119696905D02*
X99605953Y-118896905D01*
X99682143Y-119011190D01*
X99758334Y-119087381D01*
X99834524Y-119125476D01*
X98577381Y-119620714D02*
X98615476Y-119658810D01*
X98729762Y-119696905D01*
X98805952Y-119696905D01*
X98920238Y-119658810D01*
X98996429Y-119582619D01*
X99034524Y-119506429D01*
X99072619Y-119354048D01*
X99072619Y-119239762D01*
X99034524Y-119087381D01*
X98996429Y-119011190D01*
X98920238Y-118935000D01*
X98805952Y-118896905D01*
X98729762Y-118896905D01*
X98615476Y-118935000D01*
X98577381Y-118973095D01*
X100596429Y-120958810D02*
X100482143Y-120996905D01*
X100291667Y-120996905D01*
X100215477Y-120958810D01*
X100177381Y-120920714D01*
X100139286Y-120844524D01*
X100139286Y-120768333D01*
X100177381Y-120692143D01*
X100215477Y-120654048D01*
X100291667Y-120615952D01*
X100444048Y-120577857D01*
X100520239Y-120539762D01*
X100558334Y-120501667D01*
X100596429Y-120425476D01*
X100596429Y-120349286D01*
X100558334Y-120273095D01*
X100520239Y-120235000D01*
X100444048Y-120196905D01*
X100253572Y-120196905D01*
X100139286Y-120235000D01*
X100367858Y-120082619D02*
X100367858Y-121111190D01*
X99377381Y-120996905D02*
X99834524Y-120996905D01*
X99605953Y-120996905D02*
X99605953Y-120196905D01*
X99682143Y-120311190D01*
X99758334Y-120387381D01*
X99834524Y-120425476D01*
X99034524Y-120996905D02*
X99034524Y-120196905D01*
X98844048Y-120196905D01*
X98729762Y-120235000D01*
X98653571Y-120311190D01*
X98615476Y-120387381D01*
X98577381Y-120539762D01*
X98577381Y-120654048D01*
X98615476Y-120806429D01*
X98653571Y-120882619D01*
X98729762Y-120958810D01*
X98844048Y-120996905D01*
X99034524Y-120996905D01*
X100520239Y-122258810D02*
X100405953Y-122296905D01*
X100215477Y-122296905D01*
X100139287Y-122258810D01*
X100101191Y-122220714D01*
X100063096Y-122144524D01*
X100063096Y-122068333D01*
X100101191Y-121992143D01*
X100139287Y-121954048D01*
X100215477Y-121915952D01*
X100367858Y-121877857D01*
X100444049Y-121839762D01*
X100482144Y-121801667D01*
X100520239Y-121725476D01*
X100520239Y-121649286D01*
X100482144Y-121573095D01*
X100444049Y-121535000D01*
X100367858Y-121496905D01*
X100177382Y-121496905D01*
X100063096Y-121535000D01*
X100291668Y-121382619D02*
X100291668Y-122411190D01*
X99301191Y-122296905D02*
X99758334Y-122296905D01*
X99529763Y-122296905D02*
X99529763Y-121496905D01*
X99605953Y-121611190D01*
X99682144Y-121687381D01*
X99758334Y-121725476D01*
X98958334Y-121877857D02*
X98691667Y-121877857D01*
X98577381Y-122296905D02*
X98958334Y-122296905D01*
X98958334Y-121496905D01*
X98577381Y-121496905D01*
X100482143Y-123558810D02*
X100367857Y-123596905D01*
X100177381Y-123596905D01*
X100101191Y-123558810D01*
X100063095Y-123520714D01*
X100025000Y-123444524D01*
X100025000Y-123368333D01*
X100063095Y-123292143D01*
X100101191Y-123254048D01*
X100177381Y-123215952D01*
X100329762Y-123177857D01*
X100405953Y-123139762D01*
X100444048Y-123101667D01*
X100482143Y-123025476D01*
X100482143Y-122949286D01*
X100444048Y-122873095D01*
X100405953Y-122835000D01*
X100329762Y-122796905D01*
X100139286Y-122796905D01*
X100025000Y-122835000D01*
X100253572Y-122682619D02*
X100253572Y-123711190D01*
X99263095Y-123596905D02*
X99720238Y-123596905D01*
X99491667Y-123596905D02*
X99491667Y-122796905D01*
X99567857Y-122911190D01*
X99644048Y-122987381D01*
X99720238Y-123025476D01*
X98653571Y-123177857D02*
X98920238Y-123177857D01*
X98920238Y-123596905D02*
X98920238Y-122796905D01*
X98539285Y-122796905D01*
X108051667Y-119163571D02*
X108051667Y-119696905D01*
X108242143Y-118858810D02*
X108432619Y-119430238D01*
X107937381Y-119430238D01*
X107518333Y-119239762D02*
X107594524Y-119201667D01*
X107632619Y-119163571D01*
X107670714Y-119087381D01*
X107670714Y-119049286D01*
X107632619Y-118973095D01*
X107594524Y-118935000D01*
X107518333Y-118896905D01*
X107365952Y-118896905D01*
X107289762Y-118935000D01*
X107251666Y-118973095D01*
X107213571Y-119049286D01*
X107213571Y-119087381D01*
X107251666Y-119163571D01*
X107289762Y-119201667D01*
X107365952Y-119239762D01*
X107518333Y-119239762D01*
X107594524Y-119277857D01*
X107632619Y-119315952D01*
X107670714Y-119392143D01*
X107670714Y-119544524D01*
X107632619Y-119620714D01*
X107594524Y-119658810D01*
X107518333Y-119696905D01*
X107365952Y-119696905D01*
X107289762Y-119658810D01*
X107251666Y-119620714D01*
X107213571Y-119544524D01*
X107213571Y-119392143D01*
X107251666Y-119315952D01*
X107289762Y-119277857D01*
X107365952Y-119239762D01*
X106718333Y-118896905D02*
X106642142Y-118896905D01*
X106565952Y-118935000D01*
X106527857Y-118973095D01*
X106489761Y-119049286D01*
X106451666Y-119201667D01*
X106451666Y-119392143D01*
X106489761Y-119544524D01*
X106527857Y-119620714D01*
X106565952Y-119658810D01*
X106642142Y-119696905D01*
X106718333Y-119696905D01*
X106794523Y-119658810D01*
X106832619Y-119620714D01*
X106870714Y-119544524D01*
X106908809Y-119392143D01*
X106908809Y-119201667D01*
X106870714Y-119049286D01*
X106832619Y-118973095D01*
X106794523Y-118935000D01*
X106718333Y-118896905D01*
X105956428Y-118896905D02*
X105880237Y-118896905D01*
X105804047Y-118935000D01*
X105765952Y-118973095D01*
X105727856Y-119049286D01*
X105689761Y-119201667D01*
X105689761Y-119392143D01*
X105727856Y-119544524D01*
X105765952Y-119620714D01*
X105804047Y-119658810D01*
X105880237Y-119696905D01*
X105956428Y-119696905D01*
X106032618Y-119658810D01*
X106070714Y-119620714D01*
X106108809Y-119544524D01*
X106146904Y-119392143D01*
X106146904Y-119201667D01*
X106108809Y-119049286D01*
X106070714Y-118973095D01*
X106032618Y-118935000D01*
X105956428Y-118896905D01*
X108470714Y-120196905D02*
X107937381Y-120196905D01*
X108280238Y-120996905D01*
X107670714Y-120273095D02*
X107632619Y-120235000D01*
X107556428Y-120196905D01*
X107365952Y-120196905D01*
X107289762Y-120235000D01*
X107251666Y-120273095D01*
X107213571Y-120349286D01*
X107213571Y-120425476D01*
X107251666Y-120539762D01*
X107708809Y-120996905D01*
X107213571Y-120996905D01*
X106718333Y-120196905D02*
X106642142Y-120196905D01*
X106565952Y-120235000D01*
X106527857Y-120273095D01*
X106489761Y-120349286D01*
X106451666Y-120501667D01*
X106451666Y-120692143D01*
X106489761Y-120844524D01*
X106527857Y-120920714D01*
X106565952Y-120958810D01*
X106642142Y-120996905D01*
X106718333Y-120996905D01*
X106794523Y-120958810D01*
X106832619Y-120920714D01*
X106870714Y-120844524D01*
X106908809Y-120692143D01*
X106908809Y-120501667D01*
X106870714Y-120349286D01*
X106832619Y-120273095D01*
X106794523Y-120235000D01*
X106718333Y-120196905D01*
X105956428Y-120196905D02*
X105880237Y-120196905D01*
X105804047Y-120235000D01*
X105765952Y-120273095D01*
X105727856Y-120349286D01*
X105689761Y-120501667D01*
X105689761Y-120692143D01*
X105727856Y-120844524D01*
X105765952Y-120920714D01*
X105804047Y-120958810D01*
X105880237Y-120996905D01*
X105956428Y-120996905D01*
X106032618Y-120958810D01*
X106070714Y-120920714D01*
X106108809Y-120844524D01*
X106146904Y-120692143D01*
X106146904Y-120501667D01*
X106108809Y-120349286D01*
X106070714Y-120273095D01*
X106032618Y-120235000D01*
X105956428Y-120196905D01*
X108356429Y-122296905D02*
X108204048Y-122296905D01*
X108127857Y-122258810D01*
X108089762Y-122220714D01*
X108013571Y-122106429D01*
X107975476Y-121954048D01*
X107975476Y-121649286D01*
X108013571Y-121573095D01*
X108051667Y-121535000D01*
X108127857Y-121496905D01*
X108280238Y-121496905D01*
X108356429Y-121535000D01*
X108394524Y-121573095D01*
X108432619Y-121649286D01*
X108432619Y-121839762D01*
X108394524Y-121915952D01*
X108356429Y-121954048D01*
X108280238Y-121992143D01*
X108127857Y-121992143D01*
X108051667Y-121954048D01*
X108013571Y-121915952D01*
X107975476Y-121839762D01*
X107289762Y-121496905D02*
X107442143Y-121496905D01*
X107518333Y-121535000D01*
X107556428Y-121573095D01*
X107632619Y-121687381D01*
X107670714Y-121839762D01*
X107670714Y-122144524D01*
X107632619Y-122220714D01*
X107594524Y-122258810D01*
X107518333Y-122296905D01*
X107365952Y-122296905D01*
X107289762Y-122258810D01*
X107251666Y-122220714D01*
X107213571Y-122144524D01*
X107213571Y-121954048D01*
X107251666Y-121877857D01*
X107289762Y-121839762D01*
X107365952Y-121801667D01*
X107518333Y-121801667D01*
X107594524Y-121839762D01*
X107632619Y-121877857D01*
X107670714Y-121954048D01*
X106718333Y-121496905D02*
X106642142Y-121496905D01*
X106565952Y-121535000D01*
X106527857Y-121573095D01*
X106489761Y-121649286D01*
X106451666Y-121801667D01*
X106451666Y-121992143D01*
X106489761Y-122144524D01*
X106527857Y-122220714D01*
X106565952Y-122258810D01*
X106642142Y-122296905D01*
X106718333Y-122296905D01*
X106794523Y-122258810D01*
X106832619Y-122220714D01*
X106870714Y-122144524D01*
X106908809Y-121992143D01*
X106908809Y-121801667D01*
X106870714Y-121649286D01*
X106832619Y-121573095D01*
X106794523Y-121535000D01*
X106718333Y-121496905D01*
X105956428Y-121496905D02*
X105880237Y-121496905D01*
X105804047Y-121535000D01*
X105765952Y-121573095D01*
X105727856Y-121649286D01*
X105689761Y-121801667D01*
X105689761Y-121992143D01*
X105727856Y-122144524D01*
X105765952Y-122220714D01*
X105804047Y-122258810D01*
X105880237Y-122296905D01*
X105956428Y-122296905D01*
X106032618Y-122258810D01*
X106070714Y-122220714D01*
X106108809Y-122144524D01*
X106146904Y-121992143D01*
X106146904Y-121801667D01*
X106108809Y-121649286D01*
X106070714Y-121573095D01*
X106032618Y-121535000D01*
X105956428Y-121496905D01*
X107975476Y-123596905D02*
X108432619Y-123596905D01*
X108204048Y-123596905D02*
X108204048Y-122796905D01*
X108280238Y-122911190D01*
X108356429Y-122987381D01*
X108432619Y-123025476D01*
X107594524Y-123596905D02*
X107442143Y-123596905D01*
X107365952Y-123558810D01*
X107327857Y-123520714D01*
X107251666Y-123406429D01*
X107213571Y-123254048D01*
X107213571Y-122949286D01*
X107251666Y-122873095D01*
X107289762Y-122835000D01*
X107365952Y-122796905D01*
X107518333Y-122796905D01*
X107594524Y-122835000D01*
X107632619Y-122873095D01*
X107670714Y-122949286D01*
X107670714Y-123139762D01*
X107632619Y-123215952D01*
X107594524Y-123254048D01*
X107518333Y-123292143D01*
X107365952Y-123292143D01*
X107289762Y-123254048D01*
X107251666Y-123215952D01*
X107213571Y-123139762D01*
X106908809Y-122873095D02*
X106870714Y-122835000D01*
X106794523Y-122796905D01*
X106604047Y-122796905D01*
X106527857Y-122835000D01*
X106489761Y-122873095D01*
X106451666Y-122949286D01*
X106451666Y-123025476D01*
X106489761Y-123139762D01*
X106946904Y-123596905D01*
X106451666Y-123596905D01*
X105956428Y-122796905D02*
X105880237Y-122796905D01*
X105804047Y-122835000D01*
X105765952Y-122873095D01*
X105727856Y-122949286D01*
X105689761Y-123101667D01*
X105689761Y-123292143D01*
X105727856Y-123444524D01*
X105765952Y-123520714D01*
X105804047Y-123558810D01*
X105880237Y-123596905D01*
X105956428Y-123596905D01*
X106032618Y-123558810D01*
X106070714Y-123520714D01*
X106108809Y-123444524D01*
X106146904Y-123292143D01*
X106146904Y-123101667D01*
X106108809Y-122949286D01*
X106070714Y-122873095D01*
X106032618Y-122835000D01*
X105956428Y-122796905D01*
X105194523Y-122796905D02*
X105118332Y-122796905D01*
X105042142Y-122835000D01*
X105004047Y-122873095D01*
X104965951Y-122949286D01*
X104927856Y-123101667D01*
X104927856Y-123292143D01*
X104965951Y-123444524D01*
X105004047Y-123520714D01*
X105042142Y-123558810D01*
X105118332Y-123596905D01*
X105194523Y-123596905D01*
X105270713Y-123558810D01*
X105308809Y-123520714D01*
X105346904Y-123444524D01*
X105384999Y-123292143D01*
X105384999Y-123101667D01*
X105346904Y-122949286D01*
X105308809Y-122873095D01*
X105270713Y-122835000D01*
X105194523Y-122796905D01*
D12*
X105838333Y-117355952D02*
X105933571Y-117308333D01*
X105981190Y-117260714D01*
X106028809Y-117165476D01*
X106028809Y-117117857D01*
X105981190Y-117022619D01*
X105933571Y-116975000D01*
X105838333Y-116927381D01*
X105647856Y-116927381D01*
X105552618Y-116975000D01*
X105504999Y-117022619D01*
X105457380Y-117117857D01*
X105457380Y-117165476D01*
X105504999Y-117260714D01*
X105552618Y-117308333D01*
X105647856Y-117355952D01*
X105838333Y-117355952D01*
X105933571Y-117403571D01*
X105981190Y-117451190D01*
X106028809Y-117546429D01*
X106028809Y-117736905D01*
X105981190Y-117832143D01*
X105933571Y-117879762D01*
X105838333Y-117927381D01*
X105647856Y-117927381D01*
X105552618Y-117879762D01*
X105504999Y-117832143D01*
X105457380Y-117736905D01*
X105457380Y-117546429D01*
X105504999Y-117451190D01*
X105552618Y-117403571D01*
X105647856Y-117355952D01*
X105028809Y-117546429D02*
X104266904Y-117546429D01*
X103790714Y-117927381D02*
X103790714Y-116927381D01*
X103219285Y-117927381D01*
X103219285Y-116927381D01*
X102743095Y-117546429D02*
X101981190Y-117546429D01*
X100981190Y-117927381D02*
X101552619Y-117927381D01*
X101266905Y-117927381D02*
X101266905Y-116927381D01*
X101362143Y-117070238D01*
X101457381Y-117165476D01*
X101552619Y-117213095D01*
X123816666Y-117927381D02*
X124150000Y-117451190D01*
X124388095Y-117927381D02*
X124388095Y-116927381D01*
X124007142Y-116927381D01*
X123911904Y-116975000D01*
X123864285Y-117022619D01*
X123816666Y-117117857D01*
X123816666Y-117260714D01*
X123864285Y-117355952D01*
X123911904Y-117403571D01*
X124007142Y-117451190D01*
X124388095Y-117451190D01*
X123388095Y-117403571D02*
X123054761Y-117403571D01*
X122911904Y-117927381D02*
X123388095Y-117927381D01*
X123388095Y-116927381D01*
X122911904Y-116927381D01*
X121959523Y-116975000D02*
X122054761Y-116927381D01*
X122197618Y-116927381D01*
X122340476Y-116975000D01*
X122435714Y-117070238D01*
X122483333Y-117165476D01*
X122530952Y-117355952D01*
X122530952Y-117498810D01*
X122483333Y-117689286D01*
X122435714Y-117784524D01*
X122340476Y-117879762D01*
X122197618Y-117927381D01*
X122102380Y-117927381D01*
X121959523Y-117879762D01*
X121911904Y-117832143D01*
X121911904Y-117498810D01*
X122102380Y-117498810D01*
X121483333Y-117927381D02*
X121483333Y-116927381D01*
X121054762Y-117879762D02*
X120911905Y-117927381D01*
X120673809Y-117927381D01*
X120578571Y-117879762D01*
X120530952Y-117832143D01*
X120483333Y-117736905D01*
X120483333Y-117641667D01*
X120530952Y-117546429D01*
X120578571Y-117498810D01*
X120673809Y-117451190D01*
X120864286Y-117403571D01*
X120959524Y-117355952D01*
X121007143Y-117308333D01*
X121054762Y-117213095D01*
X121054762Y-117117857D01*
X121007143Y-117022619D01*
X120959524Y-116975000D01*
X120864286Y-116927381D01*
X120626190Y-116927381D01*
X120483333Y-116975000D01*
X120197619Y-116927381D02*
X119626190Y-116927381D01*
X119911905Y-117927381D02*
X119911905Y-116927381D01*
X119292857Y-117403571D02*
X118959523Y-117403571D01*
X118816666Y-117927381D02*
X119292857Y-117927381D01*
X119292857Y-116927381D01*
X118816666Y-116927381D01*
X117816666Y-117927381D02*
X118150000Y-117451190D01*
X118388095Y-117927381D02*
X118388095Y-116927381D01*
X118007142Y-116927381D01*
X117911904Y-116975000D01*
X117864285Y-117022619D01*
X117816666Y-117117857D01*
X117816666Y-117260714D01*
X117864285Y-117355952D01*
X117911904Y-117403571D01*
X118007142Y-117451190D01*
X118388095Y-117451190D01*
X117435714Y-117879762D02*
X117292857Y-117927381D01*
X117054761Y-117927381D01*
X116959523Y-117879762D01*
X116911904Y-117832143D01*
X116864285Y-117736905D01*
X116864285Y-117641667D01*
X116911904Y-117546429D01*
X116959523Y-117498810D01*
X117054761Y-117451190D01*
X117245238Y-117403571D01*
X117340476Y-117355952D01*
X117388095Y-117308333D01*
X117435714Y-117213095D01*
X117435714Y-117117857D01*
X117388095Y-117022619D01*
X117340476Y-116975000D01*
X117245238Y-116927381D01*
X117007142Y-116927381D01*
X116864285Y-116975000D01*
D10*
X126174524Y-119696905D02*
X126174524Y-118896905D01*
X125984048Y-118896905D01*
X125869762Y-118935000D01*
X125793571Y-119011190D01*
X125755476Y-119087381D01*
X125717381Y-119239762D01*
X125717381Y-119354048D01*
X125755476Y-119506429D01*
X125793571Y-119582619D01*
X125869762Y-119658810D01*
X125984048Y-119696905D01*
X126174524Y-119696905D01*
X125412619Y-119468333D02*
X125031667Y-119468333D01*
X125488810Y-119696905D02*
X125222143Y-118896905D01*
X124955476Y-119696905D01*
X124803096Y-118896905D02*
X124345953Y-118896905D01*
X124574524Y-119696905D02*
X124574524Y-118896905D01*
X124117381Y-119468333D02*
X123736429Y-119468333D01*
X124193572Y-119696905D02*
X123926905Y-118896905D01*
X123660238Y-119696905D01*
X126212619Y-120958810D02*
X126098333Y-120996905D01*
X125907857Y-120996905D01*
X125831667Y-120958810D01*
X125793571Y-120920714D01*
X125755476Y-120844524D01*
X125755476Y-120768333D01*
X125793571Y-120692143D01*
X125831667Y-120654048D01*
X125907857Y-120615952D01*
X126060238Y-120577857D01*
X126136429Y-120539762D01*
X126174524Y-120501667D01*
X126212619Y-120425476D01*
X126212619Y-120349286D01*
X126174524Y-120273095D01*
X126136429Y-120235000D01*
X126060238Y-120196905D01*
X125869762Y-120196905D01*
X125755476Y-120235000D01*
X125526905Y-120196905D02*
X125069762Y-120196905D01*
X125298333Y-120996905D02*
X125298333Y-120196905D01*
X124841190Y-120768333D02*
X124460238Y-120768333D01*
X124917381Y-120996905D02*
X124650714Y-120196905D01*
X124384047Y-120996905D01*
X124231667Y-120196905D02*
X123774524Y-120196905D01*
X124003095Y-120996905D02*
X124003095Y-120196905D01*
X123507857Y-120196905D02*
X123507857Y-120844524D01*
X123469762Y-120920714D01*
X123431666Y-120958810D01*
X123355476Y-120996905D01*
X123203095Y-120996905D01*
X123126904Y-120958810D01*
X123088809Y-120920714D01*
X123050714Y-120844524D01*
X123050714Y-120196905D01*
X122707857Y-120958810D02*
X122593571Y-120996905D01*
X122403095Y-120996905D01*
X122326905Y-120958810D01*
X122288809Y-120920714D01*
X122250714Y-120844524D01*
X122250714Y-120768333D01*
X122288809Y-120692143D01*
X122326905Y-120654048D01*
X122403095Y-120615952D01*
X122555476Y-120577857D01*
X122631667Y-120539762D01*
X122669762Y-120501667D01*
X122707857Y-120425476D01*
X122707857Y-120349286D01*
X122669762Y-120273095D01*
X122631667Y-120235000D01*
X122555476Y-120196905D01*
X122365000Y-120196905D01*
X122250714Y-120235000D01*
X125717381Y-122220714D02*
X125755476Y-122258810D01*
X125869762Y-122296905D01*
X125945952Y-122296905D01*
X126060238Y-122258810D01*
X126136429Y-122182619D01*
X126174524Y-122106429D01*
X126212619Y-121954048D01*
X126212619Y-121839762D01*
X126174524Y-121687381D01*
X126136429Y-121611190D01*
X126060238Y-121535000D01*
X125945952Y-121496905D01*
X125869762Y-121496905D01*
X125755476Y-121535000D01*
X125717381Y-121573095D01*
X125222143Y-121496905D02*
X125069762Y-121496905D01*
X124993571Y-121535000D01*
X124917381Y-121611190D01*
X124879286Y-121763571D01*
X124879286Y-122030238D01*
X124917381Y-122182619D01*
X124993571Y-122258810D01*
X125069762Y-122296905D01*
X125222143Y-122296905D01*
X125298333Y-122258810D01*
X125374524Y-122182619D01*
X125412619Y-122030238D01*
X125412619Y-121763571D01*
X125374524Y-121611190D01*
X125298333Y-121535000D01*
X125222143Y-121496905D01*
X124536429Y-122296905D02*
X124536429Y-121496905D01*
X124269762Y-122068333D01*
X124003095Y-121496905D01*
X124003095Y-122296905D01*
X123622143Y-122296905D02*
X123622143Y-121496905D01*
X123355476Y-122068333D01*
X123088809Y-121496905D01*
X123088809Y-122296905D01*
X122745952Y-122068333D02*
X122365000Y-122068333D01*
X122822143Y-122296905D02*
X122555476Y-121496905D01*
X122288809Y-122296905D01*
X122022143Y-122296905D02*
X122022143Y-121496905D01*
X121565000Y-122296905D01*
X121565000Y-121496905D01*
X121184048Y-122296905D02*
X121184048Y-121496905D01*
X120993572Y-121496905D01*
X120879286Y-121535000D01*
X120803095Y-121611190D01*
X120765000Y-121687381D01*
X120726905Y-121839762D01*
X120726905Y-121954048D01*
X120765000Y-122106429D01*
X120803095Y-122182619D01*
X120879286Y-122258810D01*
X120993572Y-122296905D01*
X121184048Y-122296905D01*
X125717381Y-123520714D02*
X125755476Y-123558810D01*
X125869762Y-123596905D01*
X125945952Y-123596905D01*
X126060238Y-123558810D01*
X126136429Y-123482619D01*
X126174524Y-123406429D01*
X126212619Y-123254048D01*
X126212619Y-123139762D01*
X126174524Y-122987381D01*
X126136429Y-122911190D01*
X126060238Y-122835000D01*
X125945952Y-122796905D01*
X125869762Y-122796905D01*
X125755476Y-122835000D01*
X125717381Y-122873095D01*
X125222143Y-122796905D02*
X125069762Y-122796905D01*
X124993571Y-122835000D01*
X124917381Y-122911190D01*
X124879286Y-123063571D01*
X124879286Y-123330238D01*
X124917381Y-123482619D01*
X124993571Y-123558810D01*
X125069762Y-123596905D01*
X125222143Y-123596905D01*
X125298333Y-123558810D01*
X125374524Y-123482619D01*
X125412619Y-123330238D01*
X125412619Y-123063571D01*
X125374524Y-122911190D01*
X125298333Y-122835000D01*
X125222143Y-122796905D01*
X124536429Y-123596905D02*
X124536429Y-122796905D01*
X124079286Y-123596905D01*
X124079286Y-122796905D01*
X123812620Y-122796905D02*
X123355477Y-122796905D01*
X123584048Y-123596905D02*
X123584048Y-122796905D01*
X122631667Y-123596905D02*
X122898334Y-123215952D01*
X123088810Y-123596905D02*
X123088810Y-122796905D01*
X122784048Y-122796905D01*
X122707857Y-122835000D01*
X122669762Y-122873095D01*
X122631667Y-122949286D01*
X122631667Y-123063571D01*
X122669762Y-123139762D01*
X122707857Y-123177857D01*
X122784048Y-123215952D01*
X123088810Y-123215952D01*
X122136429Y-122796905D02*
X121984048Y-122796905D01*
X121907857Y-122835000D01*
X121831667Y-122911190D01*
X121793572Y-123063571D01*
X121793572Y-123330238D01*
X121831667Y-123482619D01*
X121907857Y-123558810D01*
X121984048Y-123596905D01*
X122136429Y-123596905D01*
X122212619Y-123558810D01*
X122288810Y-123482619D01*
X122326905Y-123330238D01*
X122326905Y-123063571D01*
X122288810Y-122911190D01*
X122212619Y-122835000D01*
X122136429Y-122796905D01*
X121069762Y-123596905D02*
X121450715Y-123596905D01*
X121450715Y-122796905D01*
X118477858Y-119658810D02*
X118363572Y-119696905D01*
X118173096Y-119696905D01*
X118096906Y-119658810D01*
X118058810Y-119620714D01*
X118020715Y-119544524D01*
X118020715Y-119468333D01*
X118058810Y-119392143D01*
X118096906Y-119354048D01*
X118173096Y-119315952D01*
X118325477Y-119277857D01*
X118401668Y-119239762D01*
X118439763Y-119201667D01*
X118477858Y-119125476D01*
X118477858Y-119049286D01*
X118439763Y-118973095D01*
X118401668Y-118935000D01*
X118325477Y-118896905D01*
X118135001Y-118896905D01*
X118020715Y-118935000D01*
X118249287Y-118782619D02*
X118249287Y-119811190D01*
X117754048Y-119696905D02*
X117335001Y-119163571D01*
X117754048Y-119163571D02*
X117335001Y-119696905D01*
X116687382Y-118896905D02*
X116839763Y-118896905D01*
X116915953Y-118935000D01*
X116954048Y-118973095D01*
X117030239Y-119087381D01*
X117068334Y-119239762D01*
X117068334Y-119544524D01*
X117030239Y-119620714D01*
X116992144Y-119658810D01*
X116915953Y-119696905D01*
X116763572Y-119696905D01*
X116687382Y-119658810D01*
X116649286Y-119620714D01*
X116611191Y-119544524D01*
X116611191Y-119354048D01*
X116649286Y-119277857D01*
X116687382Y-119239762D01*
X116763572Y-119201667D01*
X116915953Y-119201667D01*
X116992144Y-119239762D01*
X117030239Y-119277857D01*
X117068334Y-119354048D01*
X116115953Y-118896905D02*
X116039762Y-118896905D01*
X115963572Y-118935000D01*
X115925477Y-118973095D01*
X115887381Y-119049286D01*
X115849286Y-119201667D01*
X115849286Y-119392143D01*
X115887381Y-119544524D01*
X115925477Y-119620714D01*
X115963572Y-119658810D01*
X116039762Y-119696905D01*
X116115953Y-119696905D01*
X116192143Y-119658810D01*
X116230239Y-119620714D01*
X116268334Y-119544524D01*
X116306429Y-119392143D01*
X116306429Y-119201667D01*
X116268334Y-119049286D01*
X116230239Y-118973095D01*
X116192143Y-118935000D01*
X116115953Y-118896905D01*
X115354048Y-118896905D02*
X115277857Y-118896905D01*
X115201667Y-118935000D01*
X115163572Y-118973095D01*
X115125476Y-119049286D01*
X115087381Y-119201667D01*
X115087381Y-119392143D01*
X115125476Y-119544524D01*
X115163572Y-119620714D01*
X115201667Y-119658810D01*
X115277857Y-119696905D01*
X115354048Y-119696905D01*
X115430238Y-119658810D01*
X115468334Y-119620714D01*
X115506429Y-119544524D01*
X115544524Y-119392143D01*
X115544524Y-119201667D01*
X115506429Y-119049286D01*
X115468334Y-118973095D01*
X115430238Y-118935000D01*
X115354048Y-118896905D01*
X118477858Y-120958810D02*
X118363572Y-120996905D01*
X118173096Y-120996905D01*
X118096906Y-120958810D01*
X118058810Y-120920714D01*
X118020715Y-120844524D01*
X118020715Y-120768333D01*
X118058810Y-120692143D01*
X118096906Y-120654048D01*
X118173096Y-120615952D01*
X118325477Y-120577857D01*
X118401668Y-120539762D01*
X118439763Y-120501667D01*
X118477858Y-120425476D01*
X118477858Y-120349286D01*
X118439763Y-120273095D01*
X118401668Y-120235000D01*
X118325477Y-120196905D01*
X118135001Y-120196905D01*
X118020715Y-120235000D01*
X118249287Y-120082619D02*
X118249287Y-121111190D01*
X117754048Y-120996905D02*
X117335001Y-120463571D01*
X117754048Y-120463571D02*
X117335001Y-120996905D01*
X116687382Y-120196905D02*
X116839763Y-120196905D01*
X116915953Y-120235000D01*
X116954048Y-120273095D01*
X117030239Y-120387381D01*
X117068334Y-120539762D01*
X117068334Y-120844524D01*
X117030239Y-120920714D01*
X116992144Y-120958810D01*
X116915953Y-120996905D01*
X116763572Y-120996905D01*
X116687382Y-120958810D01*
X116649286Y-120920714D01*
X116611191Y-120844524D01*
X116611191Y-120654048D01*
X116649286Y-120577857D01*
X116687382Y-120539762D01*
X116763572Y-120501667D01*
X116915953Y-120501667D01*
X116992144Y-120539762D01*
X117030239Y-120577857D01*
X117068334Y-120654048D01*
X116115953Y-120196905D02*
X116039762Y-120196905D01*
X115963572Y-120235000D01*
X115925477Y-120273095D01*
X115887381Y-120349286D01*
X115849286Y-120501667D01*
X115849286Y-120692143D01*
X115887381Y-120844524D01*
X115925477Y-120920714D01*
X115963572Y-120958810D01*
X116039762Y-120996905D01*
X116115953Y-120996905D01*
X116192143Y-120958810D01*
X116230239Y-120920714D01*
X116268334Y-120844524D01*
X116306429Y-120692143D01*
X116306429Y-120501667D01*
X116268334Y-120349286D01*
X116230239Y-120273095D01*
X116192143Y-120235000D01*
X116115953Y-120196905D01*
X115087381Y-120996905D02*
X115544524Y-120996905D01*
X115315953Y-120996905D02*
X115315953Y-120196905D01*
X115392143Y-120311190D01*
X115468334Y-120387381D01*
X115544524Y-120425476D01*
X118477858Y-122258810D02*
X118363572Y-122296905D01*
X118173096Y-122296905D01*
X118096906Y-122258810D01*
X118058810Y-122220714D01*
X118020715Y-122144524D01*
X118020715Y-122068333D01*
X118058810Y-121992143D01*
X118096906Y-121954048D01*
X118173096Y-121915952D01*
X118325477Y-121877857D01*
X118401668Y-121839762D01*
X118439763Y-121801667D01*
X118477858Y-121725476D01*
X118477858Y-121649286D01*
X118439763Y-121573095D01*
X118401668Y-121535000D01*
X118325477Y-121496905D01*
X118135001Y-121496905D01*
X118020715Y-121535000D01*
X118249287Y-121382619D02*
X118249287Y-122411190D01*
X117754048Y-122296905D02*
X117335001Y-121763571D01*
X117754048Y-121763571D02*
X117335001Y-122296905D01*
X116687382Y-121496905D02*
X116839763Y-121496905D01*
X116915953Y-121535000D01*
X116954048Y-121573095D01*
X117030239Y-121687381D01*
X117068334Y-121839762D01*
X117068334Y-122144524D01*
X117030239Y-122220714D01*
X116992144Y-122258810D01*
X116915953Y-122296905D01*
X116763572Y-122296905D01*
X116687382Y-122258810D01*
X116649286Y-122220714D01*
X116611191Y-122144524D01*
X116611191Y-121954048D01*
X116649286Y-121877857D01*
X116687382Y-121839762D01*
X116763572Y-121801667D01*
X116915953Y-121801667D01*
X116992144Y-121839762D01*
X117030239Y-121877857D01*
X117068334Y-121954048D01*
X116115953Y-121496905D02*
X116039762Y-121496905D01*
X115963572Y-121535000D01*
X115925477Y-121573095D01*
X115887381Y-121649286D01*
X115849286Y-121801667D01*
X115849286Y-121992143D01*
X115887381Y-122144524D01*
X115925477Y-122220714D01*
X115963572Y-122258810D01*
X116039762Y-122296905D01*
X116115953Y-122296905D01*
X116192143Y-122258810D01*
X116230239Y-122220714D01*
X116268334Y-122144524D01*
X116306429Y-121992143D01*
X116306429Y-121801667D01*
X116268334Y-121649286D01*
X116230239Y-121573095D01*
X116192143Y-121535000D01*
X116115953Y-121496905D01*
X115544524Y-121573095D02*
X115506429Y-121535000D01*
X115430238Y-121496905D01*
X115239762Y-121496905D01*
X115163572Y-121535000D01*
X115125476Y-121573095D01*
X115087381Y-121649286D01*
X115087381Y-121725476D01*
X115125476Y-121839762D01*
X115582619Y-122296905D01*
X115087381Y-122296905D01*
X118477858Y-123558810D02*
X118363572Y-123596905D01*
X118173096Y-123596905D01*
X118096906Y-123558810D01*
X118058810Y-123520714D01*
X118020715Y-123444524D01*
X118020715Y-123368333D01*
X118058810Y-123292143D01*
X118096906Y-123254048D01*
X118173096Y-123215952D01*
X118325477Y-123177857D01*
X118401668Y-123139762D01*
X118439763Y-123101667D01*
X118477858Y-123025476D01*
X118477858Y-122949286D01*
X118439763Y-122873095D01*
X118401668Y-122835000D01*
X118325477Y-122796905D01*
X118135001Y-122796905D01*
X118020715Y-122835000D01*
X118249287Y-122682619D02*
X118249287Y-123711190D01*
X117754048Y-123596905D02*
X117335001Y-123063571D01*
X117754048Y-123063571D02*
X117335001Y-123596905D01*
X116687382Y-122796905D02*
X116839763Y-122796905D01*
X116915953Y-122835000D01*
X116954048Y-122873095D01*
X117030239Y-122987381D01*
X117068334Y-123139762D01*
X117068334Y-123444524D01*
X117030239Y-123520714D01*
X116992144Y-123558810D01*
X116915953Y-123596905D01*
X116763572Y-123596905D01*
X116687382Y-123558810D01*
X116649286Y-123520714D01*
X116611191Y-123444524D01*
X116611191Y-123254048D01*
X116649286Y-123177857D01*
X116687382Y-123139762D01*
X116763572Y-123101667D01*
X116915953Y-123101667D01*
X116992144Y-123139762D01*
X117030239Y-123177857D01*
X117068334Y-123254048D01*
X116115953Y-122796905D02*
X116039762Y-122796905D01*
X115963572Y-122835000D01*
X115925477Y-122873095D01*
X115887381Y-122949286D01*
X115849286Y-123101667D01*
X115849286Y-123292143D01*
X115887381Y-123444524D01*
X115925477Y-123520714D01*
X115963572Y-123558810D01*
X116039762Y-123596905D01*
X116115953Y-123596905D01*
X116192143Y-123558810D01*
X116230239Y-123520714D01*
X116268334Y-123444524D01*
X116306429Y-123292143D01*
X116306429Y-123101667D01*
X116268334Y-122949286D01*
X116230239Y-122873095D01*
X116192143Y-122835000D01*
X116115953Y-122796905D01*
X115582619Y-122796905D02*
X115087381Y-122796905D01*
X115354048Y-123101667D01*
X115239762Y-123101667D01*
X115163572Y-123139762D01*
X115125476Y-123177857D01*
X115087381Y-123254048D01*
X115087381Y-123444524D01*
X115125476Y-123520714D01*
X115163572Y-123558810D01*
X115239762Y-123596905D01*
X115468334Y-123596905D01*
X115544524Y-123558810D01*
X115582619Y-123520714D01*
D12*
X125471427Y-100143571D02*
X125757141Y-100143571D01*
X125899998Y-100215000D01*
X125971427Y-100286429D01*
X126114284Y-100500714D01*
X126185713Y-100786429D01*
X126185713Y-101357857D01*
X126114284Y-101500714D01*
X126042856Y-101572143D01*
X125899998Y-101643571D01*
X125614284Y-101643571D01*
X125471427Y-101572143D01*
X125399998Y-101500714D01*
X125328570Y-101357857D01*
X125328570Y-101000714D01*
X125399998Y-100857857D01*
X125471427Y-100786429D01*
X125614284Y-100715000D01*
X125899998Y-100715000D01*
X126042856Y-100786429D01*
X126114284Y-100857857D01*
X126185713Y-101000714D01*
X123971427Y-100143571D02*
X124685713Y-100143571D01*
X124757142Y-100857857D01*
X124685713Y-100786429D01*
X124542856Y-100715000D01*
X124185713Y-100715000D01*
X124042856Y-100786429D01*
X123971427Y-100857857D01*
X123899999Y-101000714D01*
X123899999Y-101357857D01*
X123971427Y-101500714D01*
X124042856Y-101572143D01*
X124185713Y-101643571D01*
X124542856Y-101643571D01*
X124685713Y-101572143D01*
X124757142Y-101500714D01*
X122542856Y-100143571D02*
X123257142Y-100143571D01*
X123328571Y-100857857D01*
X123257142Y-100786429D01*
X123114285Y-100715000D01*
X122757142Y-100715000D01*
X122614285Y-100786429D01*
X122542856Y-100857857D01*
X122471428Y-101000714D01*
X122471428Y-101357857D01*
X122542856Y-101500714D01*
X122614285Y-101572143D01*
X122757142Y-101643571D01*
X123114285Y-101643571D01*
X123257142Y-101572143D01*
X123328571Y-101500714D01*
X121042857Y-101643571D02*
X121900000Y-101643571D01*
X121471428Y-101643571D02*
X121471428Y-100143571D01*
X121614285Y-100357857D01*
X121757143Y-100500714D01*
X121900000Y-100572143D01*
X119328572Y-101215000D02*
X118614286Y-101215000D01*
X119471429Y-101643571D02*
X118971429Y-100143571D01*
X118471429Y-101643571D01*
X117114286Y-101500714D02*
X117185715Y-101572143D01*
X117400001Y-101643571D01*
X117542858Y-101643571D01*
X117757143Y-101572143D01*
X117900001Y-101429286D01*
X117971429Y-101286429D01*
X118042858Y-101000714D01*
X118042858Y-100786429D01*
X117971429Y-100500714D01*
X117900001Y-100357857D01*
X117757143Y-100215000D01*
X117542858Y-100143571D01*
X117400001Y-100143571D01*
X117185715Y-100215000D01*
X117114286Y-100286429D01*
X116471429Y-101643571D02*
X116471429Y-100143571D01*
X115828572Y-101215000D02*
X115114286Y-101215000D01*
X115971429Y-101643571D02*
X115471429Y-100143571D01*
X114971429Y-101643571D01*
D10*
X142360476Y-121631905D02*
X142360476Y-120831905D01*
X141903333Y-121631905D01*
X141903333Y-120831905D01*
X141560476Y-121403333D02*
X141179524Y-121403333D01*
X141636667Y-121631905D02*
X141370000Y-120831905D01*
X141103333Y-121631905D01*
X140836667Y-121631905D02*
X140836667Y-120831905D01*
X140379524Y-121631905D01*
X140379524Y-120831905D01*
X139998572Y-121631905D02*
X139998572Y-120831905D01*
X139808096Y-120831905D01*
X139693810Y-120870000D01*
X139617619Y-120946190D01*
X139579524Y-121022381D01*
X139541429Y-121174762D01*
X139541429Y-121289048D01*
X139579524Y-121441429D01*
X139617619Y-121517619D01*
X139693810Y-121593810D01*
X139808096Y-121631905D01*
X139998572Y-121631905D01*
X142150952Y-122170000D02*
X142227143Y-122131905D01*
X142341428Y-122131905D01*
X142455714Y-122170000D01*
X142531905Y-122246190D01*
X142570000Y-122322381D01*
X142608095Y-122474762D01*
X142608095Y-122589048D01*
X142570000Y-122741429D01*
X142531905Y-122817619D01*
X142455714Y-122893810D01*
X142341428Y-122931905D01*
X142265238Y-122931905D01*
X142150952Y-122893810D01*
X142112857Y-122855714D01*
X142112857Y-122589048D01*
X142265238Y-122589048D01*
X141808095Y-122703333D02*
X141427143Y-122703333D01*
X141884286Y-122931905D02*
X141617619Y-122131905D01*
X141350952Y-122931905D01*
X141198572Y-122131905D02*
X140741429Y-122131905D01*
X140970000Y-122931905D02*
X140970000Y-122131905D01*
X140474762Y-122512857D02*
X140208095Y-122512857D01*
X140093809Y-122931905D02*
X140474762Y-122931905D01*
X140474762Y-122131905D01*
X140093809Y-122131905D01*
X139789047Y-122893810D02*
X139674761Y-122931905D01*
X139484285Y-122931905D01*
X139408095Y-122893810D01*
X139369999Y-122855714D01*
X139331904Y-122779524D01*
X139331904Y-122703333D01*
X139369999Y-122627143D01*
X139408095Y-122589048D01*
X139484285Y-122550952D01*
X139636666Y-122512857D01*
X139712857Y-122474762D01*
X139750952Y-122436667D01*
X139789047Y-122360476D01*
X139789047Y-122284286D01*
X139750952Y-122208095D01*
X139712857Y-122170000D01*
X139636666Y-122131905D01*
X139446190Y-122131905D01*
X139331904Y-122170000D01*
D11*
X111125000Y-109220000D02*
X96520000Y-109220000D01*
X96520000Y-108585000D02*
X111125000Y-108585000D01*
X96520000Y-93980000D02*
X112395000Y-93980000D01*
X96520000Y-108585000D02*
X96520000Y-93980000D01*
X96520000Y-130810000D02*
X96520000Y-109220000D01*
X112395000Y-130810000D02*
X96520000Y-130810000D01*
X128270000Y-93980000D02*
X128270000Y-95250000D01*
X113030000Y-93980000D02*
X128270000Y-93980000D01*
X113030000Y-95250000D02*
X113030000Y-93980000D01*
X128270000Y-130810000D02*
X128270000Y-129540000D01*
X113030000Y-130810000D02*
X128270000Y-130810000D01*
X113030000Y-129540000D02*
X113030000Y-130810000D01*
X144780000Y-130810000D02*
X144780000Y-129540000D01*
X137160000Y-130810000D02*
X144780000Y-130810000D01*
X137160000Y-129540000D02*
X137160000Y-130810000D01*
X144780000Y-111760000D02*
X144780000Y-113030000D01*
X137160000Y-111760000D02*
X144780000Y-111760000D01*
X137160000Y-113030000D02*
X137160000Y-111760000D01*
X184785000Y-98425000D02*
X184150000Y-99060000D01*
X184785000Y-98425000D02*
X184150000Y-97790000D01*
X182880000Y-98425000D02*
X184785000Y-98425000D01*
X182880000Y-103505000D02*
X183515000Y-104140000D01*
X183515000Y-102870000D02*
X182880000Y-103505000D01*
X184785000Y-103505000D02*
X182880000Y-103505000D01*
X184785000Y-106045000D02*
X182880000Y-106045000D01*
X184785000Y-106045000D02*
X184150000Y-106680000D01*
X184785000Y-106045000D02*
X184150000Y-105410000D01*
X182880000Y-108585000D02*
X183515000Y-109220000D01*
X182880000Y-108585000D02*
X183515000Y-107950000D01*
X184785000Y-108585000D02*
X182880000Y-108585000D01*
D10*
X187312381Y-108946905D02*
X187579048Y-108565952D01*
X187769524Y-108946905D02*
X187769524Y-108146905D01*
X187464762Y-108146905D01*
X187388571Y-108185000D01*
X187350476Y-108223095D01*
X187312381Y-108299286D01*
X187312381Y-108413571D01*
X187350476Y-108489762D01*
X187388571Y-108527857D01*
X187464762Y-108565952D01*
X187769524Y-108565952D01*
X187083810Y-108146905D02*
X186626667Y-108146905D01*
X186855238Y-108946905D02*
X186855238Y-108146905D01*
X186398095Y-108908810D02*
X186283809Y-108946905D01*
X186093333Y-108946905D01*
X186017143Y-108908810D01*
X185979047Y-108870714D01*
X185940952Y-108794524D01*
X185940952Y-108718333D01*
X185979047Y-108642143D01*
X186017143Y-108604048D01*
X186093333Y-108565952D01*
X186245714Y-108527857D01*
X186321905Y-108489762D01*
X186360000Y-108451667D01*
X186398095Y-108375476D01*
X186398095Y-108299286D01*
X186360000Y-108223095D01*
X186321905Y-108185000D01*
X186245714Y-108146905D01*
X186055238Y-108146905D01*
X185940952Y-108185000D01*
X187960000Y-108009000D02*
X185788571Y-108009000D01*
X187312381Y-106406905D02*
X187579048Y-106025952D01*
X187769524Y-106406905D02*
X187769524Y-105606905D01*
X187464762Y-105606905D01*
X187388571Y-105645000D01*
X187350476Y-105683095D01*
X187312381Y-105759286D01*
X187312381Y-105873571D01*
X187350476Y-105949762D01*
X187388571Y-105987857D01*
X187464762Y-106025952D01*
X187769524Y-106025952D01*
X187045714Y-106406905D02*
X186626667Y-105873571D01*
X187045714Y-105873571D02*
X186626667Y-106406905D01*
X186321905Y-106406905D02*
X186321905Y-105606905D01*
X186131429Y-105606905D01*
X186017143Y-105645000D01*
X185940952Y-105721190D01*
X185902857Y-105797381D01*
X185864762Y-105949762D01*
X185864762Y-106064048D01*
X185902857Y-106216429D01*
X185940952Y-106292619D01*
X186017143Y-106368810D01*
X186131429Y-106406905D01*
X186321905Y-106406905D01*
X187883810Y-103066905D02*
X187426667Y-103066905D01*
X187655238Y-103866905D02*
X187655238Y-103066905D01*
X187236190Y-103866905D02*
X186817143Y-103333571D01*
X187236190Y-103333571D02*
X186817143Y-103866905D01*
X186512381Y-103866905D02*
X186512381Y-103066905D01*
X186321905Y-103066905D01*
X186207619Y-103105000D01*
X186131428Y-103181190D01*
X186093333Y-103257381D01*
X186055238Y-103409762D01*
X186055238Y-103524048D01*
X186093333Y-103676429D01*
X186131428Y-103752619D01*
X186207619Y-103828810D01*
X186321905Y-103866905D01*
X186512381Y-103866905D01*
X187312381Y-98710714D02*
X187350476Y-98748810D01*
X187464762Y-98786905D01*
X187540952Y-98786905D01*
X187655238Y-98748810D01*
X187731429Y-98672619D01*
X187769524Y-98596429D01*
X187807619Y-98444048D01*
X187807619Y-98329762D01*
X187769524Y-98177381D01*
X187731429Y-98101190D01*
X187655238Y-98025000D01*
X187540952Y-97986905D01*
X187464762Y-97986905D01*
X187350476Y-98025000D01*
X187312381Y-98063095D01*
X187083810Y-97986905D02*
X186626667Y-97986905D01*
X186855238Y-98786905D02*
X186855238Y-97986905D01*
X186398095Y-98748810D02*
X186283809Y-98786905D01*
X186093333Y-98786905D01*
X186017143Y-98748810D01*
X185979047Y-98710714D01*
X185940952Y-98634524D01*
X185940952Y-98558333D01*
X185979047Y-98482143D01*
X186017143Y-98444048D01*
X186093333Y-98405952D01*
X186245714Y-98367857D01*
X186321905Y-98329762D01*
X186360000Y-98291667D01*
X186398095Y-98215476D01*
X186398095Y-98139286D01*
X186360000Y-98063095D01*
X186321905Y-98025000D01*
X186245714Y-97986905D01*
X186055238Y-97986905D01*
X185940952Y-98025000D01*
X187960000Y-97849000D02*
X185788571Y-97849000D01*
X187350476Y-95485000D02*
X187426667Y-95446905D01*
X187540952Y-95446905D01*
X187655238Y-95485000D01*
X187731429Y-95561190D01*
X187769524Y-95637381D01*
X187807619Y-95789762D01*
X187807619Y-95904048D01*
X187769524Y-96056429D01*
X187731429Y-96132619D01*
X187655238Y-96208810D01*
X187540952Y-96246905D01*
X187464762Y-96246905D01*
X187350476Y-96208810D01*
X187312381Y-96170714D01*
X187312381Y-95904048D01*
X187464762Y-95904048D01*
X186969524Y-96246905D02*
X186969524Y-95446905D01*
X186512381Y-96246905D01*
X186512381Y-95446905D01*
X186131429Y-96246905D02*
X186131429Y-95446905D01*
X185940953Y-95446905D01*
X185826667Y-95485000D01*
X185750476Y-95561190D01*
X185712381Y-95637381D01*
X185674286Y-95789762D01*
X185674286Y-95904048D01*
X185712381Y-96056429D01*
X185750476Y-96132619D01*
X185826667Y-96208810D01*
X185940953Y-96246905D01*
X186131429Y-96246905D01*
D11*
X193040000Y-93980000D02*
X193040000Y-100330000D01*
X181610000Y-93980000D02*
X193040000Y-93980000D01*
X181610000Y-110490000D02*
X181610000Y-93980000D01*
X193040000Y-110490000D02*
X181610000Y-110490000D01*
X193040000Y-104140000D02*
X193040000Y-110490000D01*
D10*
X193097143Y-103015952D02*
X193097143Y-103282619D01*
X192678095Y-103282619D02*
X193478095Y-103282619D01*
X193478095Y-102901666D01*
X193478095Y-102711191D02*
X193478095Y-102254048D01*
X192678095Y-102482619D02*
X193478095Y-102482619D01*
X192678095Y-101987381D02*
X193478095Y-101987381D01*
X193478095Y-101796905D01*
X193440000Y-101682619D01*
X193363810Y-101606428D01*
X193287619Y-101568333D01*
X193135238Y-101530238D01*
X193020952Y-101530238D01*
X192868571Y-101568333D01*
X192792381Y-101606428D01*
X192716190Y-101682619D01*
X192678095Y-101796905D01*
X192678095Y-101987381D01*
X192678095Y-101187381D02*
X193478095Y-101187381D01*
X173964286Y-121403333D02*
X173583334Y-121403333D01*
X174040477Y-121631905D02*
X173773810Y-120831905D01*
X173507143Y-121631905D01*
X173240477Y-121631905D02*
X173240477Y-120831905D01*
X173050001Y-120831905D01*
X172935715Y-120870000D01*
X172859524Y-120946190D01*
X172821429Y-121022381D01*
X172783334Y-121174762D01*
X172783334Y-121289048D01*
X172821429Y-121441429D01*
X172859524Y-121517619D01*
X172935715Y-121593810D01*
X173050001Y-121631905D01*
X173240477Y-121631905D01*
X172440477Y-121631905D02*
X172440477Y-120831905D01*
X172250001Y-120831905D01*
X172135715Y-120870000D01*
X172059524Y-120946190D01*
X172021429Y-121022381D01*
X171983334Y-121174762D01*
X171983334Y-121289048D01*
X172021429Y-121441429D01*
X172059524Y-121517619D01*
X172135715Y-121593810D01*
X172250001Y-121631905D01*
X172440477Y-121631905D01*
X171183334Y-121631905D02*
X171450001Y-121250952D01*
X171640477Y-121631905D02*
X171640477Y-120831905D01*
X171335715Y-120831905D01*
X171259524Y-120870000D01*
X171221429Y-120908095D01*
X171183334Y-120984286D01*
X171183334Y-121098571D01*
X171221429Y-121174762D01*
X171259524Y-121212857D01*
X171335715Y-121250952D01*
X171640477Y-121250952D01*
X170840477Y-121212857D02*
X170573810Y-121212857D01*
X170459524Y-121631905D02*
X170840477Y-121631905D01*
X170840477Y-120831905D01*
X170459524Y-120831905D01*
X170154762Y-121593810D02*
X170040476Y-121631905D01*
X169850000Y-121631905D01*
X169773810Y-121593810D01*
X169735714Y-121555714D01*
X169697619Y-121479524D01*
X169697619Y-121403333D01*
X169735714Y-121327143D01*
X169773810Y-121289048D01*
X169850000Y-121250952D01*
X170002381Y-121212857D01*
X170078572Y-121174762D01*
X170116667Y-121136667D01*
X170154762Y-121060476D01*
X170154762Y-120984286D01*
X170116667Y-120908095D01*
X170078572Y-120870000D01*
X170002381Y-120831905D01*
X169811905Y-120831905D01*
X169697619Y-120870000D01*
X169392857Y-121593810D02*
X169278571Y-121631905D01*
X169088095Y-121631905D01*
X169011905Y-121593810D01*
X168973809Y-121555714D01*
X168935714Y-121479524D01*
X168935714Y-121403333D01*
X168973809Y-121327143D01*
X169011905Y-121289048D01*
X169088095Y-121250952D01*
X169240476Y-121212857D01*
X169316667Y-121174762D01*
X169354762Y-121136667D01*
X169392857Y-121060476D01*
X169392857Y-120984286D01*
X169354762Y-120908095D01*
X169316667Y-120870000D01*
X169240476Y-120831905D01*
X169050000Y-120831905D01*
X168935714Y-120870000D01*
X174250000Y-122931905D02*
X174250000Y-122131905D01*
X174059524Y-122131905D01*
X173945238Y-122170000D01*
X173869047Y-122246190D01*
X173830952Y-122322381D01*
X173792857Y-122474762D01*
X173792857Y-122589048D01*
X173830952Y-122741429D01*
X173869047Y-122817619D01*
X173945238Y-122893810D01*
X174059524Y-122931905D01*
X174250000Y-122931905D01*
X173450000Y-122512857D02*
X173183333Y-122512857D01*
X173069047Y-122931905D02*
X173450000Y-122931905D01*
X173450000Y-122131905D01*
X173069047Y-122131905D01*
X172269047Y-122855714D02*
X172307142Y-122893810D01*
X172421428Y-122931905D01*
X172497618Y-122931905D01*
X172611904Y-122893810D01*
X172688095Y-122817619D01*
X172726190Y-122741429D01*
X172764285Y-122589048D01*
X172764285Y-122474762D01*
X172726190Y-122322381D01*
X172688095Y-122246190D01*
X172611904Y-122170000D01*
X172497618Y-122131905D01*
X172421428Y-122131905D01*
X172307142Y-122170000D01*
X172269047Y-122208095D01*
X171773809Y-122131905D02*
X171621428Y-122131905D01*
X171545237Y-122170000D01*
X171469047Y-122246190D01*
X171430952Y-122398571D01*
X171430952Y-122665238D01*
X171469047Y-122817619D01*
X171545237Y-122893810D01*
X171621428Y-122931905D01*
X171773809Y-122931905D01*
X171849999Y-122893810D01*
X171926190Y-122817619D01*
X171964285Y-122665238D01*
X171964285Y-122398571D01*
X171926190Y-122246190D01*
X171849999Y-122170000D01*
X171773809Y-122131905D01*
X171088095Y-122931905D02*
X171088095Y-122131905D01*
X170897619Y-122131905D01*
X170783333Y-122170000D01*
X170707142Y-122246190D01*
X170669047Y-122322381D01*
X170630952Y-122474762D01*
X170630952Y-122589048D01*
X170669047Y-122741429D01*
X170707142Y-122817619D01*
X170783333Y-122893810D01*
X170897619Y-122931905D01*
X171088095Y-122931905D01*
X170288095Y-122931905D02*
X170288095Y-122131905D01*
X169907143Y-122931905D02*
X169907143Y-122131905D01*
X169450000Y-122931905D01*
X169450000Y-122131905D01*
X168650000Y-122170000D02*
X168726191Y-122131905D01*
X168840476Y-122131905D01*
X168954762Y-122170000D01*
X169030953Y-122246190D01*
X169069048Y-122322381D01*
X169107143Y-122474762D01*
X169107143Y-122589048D01*
X169069048Y-122741429D01*
X169030953Y-122817619D01*
X168954762Y-122893810D01*
X168840476Y-122931905D01*
X168764286Y-122931905D01*
X168650000Y-122893810D01*
X168611905Y-122855714D01*
X168611905Y-122589048D01*
X168764286Y-122589048D01*
X158724286Y-121403333D02*
X158343334Y-121403333D01*
X158800477Y-121631905D02*
X158533810Y-120831905D01*
X158267143Y-121631905D01*
X158000477Y-121631905D02*
X158000477Y-120831905D01*
X157810001Y-120831905D01*
X157695715Y-120870000D01*
X157619524Y-120946190D01*
X157581429Y-121022381D01*
X157543334Y-121174762D01*
X157543334Y-121289048D01*
X157581429Y-121441429D01*
X157619524Y-121517619D01*
X157695715Y-121593810D01*
X157810001Y-121631905D01*
X158000477Y-121631905D01*
X157200477Y-121631905D02*
X157200477Y-120831905D01*
X157010001Y-120831905D01*
X156895715Y-120870000D01*
X156819524Y-120946190D01*
X156781429Y-121022381D01*
X156743334Y-121174762D01*
X156743334Y-121289048D01*
X156781429Y-121441429D01*
X156819524Y-121517619D01*
X156895715Y-121593810D01*
X157010001Y-121631905D01*
X157200477Y-121631905D01*
X155943334Y-121631905D02*
X156210001Y-121250952D01*
X156400477Y-121631905D02*
X156400477Y-120831905D01*
X156095715Y-120831905D01*
X156019524Y-120870000D01*
X155981429Y-120908095D01*
X155943334Y-120984286D01*
X155943334Y-121098571D01*
X155981429Y-121174762D01*
X156019524Y-121212857D01*
X156095715Y-121250952D01*
X156400477Y-121250952D01*
X155600477Y-121212857D02*
X155333810Y-121212857D01*
X155219524Y-121631905D02*
X155600477Y-121631905D01*
X155600477Y-120831905D01*
X155219524Y-120831905D01*
X154914762Y-121593810D02*
X154800476Y-121631905D01*
X154610000Y-121631905D01*
X154533810Y-121593810D01*
X154495714Y-121555714D01*
X154457619Y-121479524D01*
X154457619Y-121403333D01*
X154495714Y-121327143D01*
X154533810Y-121289048D01*
X154610000Y-121250952D01*
X154762381Y-121212857D01*
X154838572Y-121174762D01*
X154876667Y-121136667D01*
X154914762Y-121060476D01*
X154914762Y-120984286D01*
X154876667Y-120908095D01*
X154838572Y-120870000D01*
X154762381Y-120831905D01*
X154571905Y-120831905D01*
X154457619Y-120870000D01*
X154152857Y-121593810D02*
X154038571Y-121631905D01*
X153848095Y-121631905D01*
X153771905Y-121593810D01*
X153733809Y-121555714D01*
X153695714Y-121479524D01*
X153695714Y-121403333D01*
X153733809Y-121327143D01*
X153771905Y-121289048D01*
X153848095Y-121250952D01*
X154000476Y-121212857D01*
X154076667Y-121174762D01*
X154114762Y-121136667D01*
X154152857Y-121060476D01*
X154152857Y-120984286D01*
X154114762Y-120908095D01*
X154076667Y-120870000D01*
X154000476Y-120831905D01*
X153810000Y-120831905D01*
X153695714Y-120870000D01*
X159010000Y-122931905D02*
X159010000Y-122131905D01*
X158819524Y-122131905D01*
X158705238Y-122170000D01*
X158629047Y-122246190D01*
X158590952Y-122322381D01*
X158552857Y-122474762D01*
X158552857Y-122589048D01*
X158590952Y-122741429D01*
X158629047Y-122817619D01*
X158705238Y-122893810D01*
X158819524Y-122931905D01*
X159010000Y-122931905D01*
X158210000Y-122512857D02*
X157943333Y-122512857D01*
X157829047Y-122931905D02*
X158210000Y-122931905D01*
X158210000Y-122131905D01*
X157829047Y-122131905D01*
X157029047Y-122855714D02*
X157067142Y-122893810D01*
X157181428Y-122931905D01*
X157257618Y-122931905D01*
X157371904Y-122893810D01*
X157448095Y-122817619D01*
X157486190Y-122741429D01*
X157524285Y-122589048D01*
X157524285Y-122474762D01*
X157486190Y-122322381D01*
X157448095Y-122246190D01*
X157371904Y-122170000D01*
X157257618Y-122131905D01*
X157181428Y-122131905D01*
X157067142Y-122170000D01*
X157029047Y-122208095D01*
X156533809Y-122131905D02*
X156381428Y-122131905D01*
X156305237Y-122170000D01*
X156229047Y-122246190D01*
X156190952Y-122398571D01*
X156190952Y-122665238D01*
X156229047Y-122817619D01*
X156305237Y-122893810D01*
X156381428Y-122931905D01*
X156533809Y-122931905D01*
X156609999Y-122893810D01*
X156686190Y-122817619D01*
X156724285Y-122665238D01*
X156724285Y-122398571D01*
X156686190Y-122246190D01*
X156609999Y-122170000D01*
X156533809Y-122131905D01*
X155848095Y-122931905D02*
X155848095Y-122131905D01*
X155657619Y-122131905D01*
X155543333Y-122170000D01*
X155467142Y-122246190D01*
X155429047Y-122322381D01*
X155390952Y-122474762D01*
X155390952Y-122589048D01*
X155429047Y-122741429D01*
X155467142Y-122817619D01*
X155543333Y-122893810D01*
X155657619Y-122931905D01*
X155848095Y-122931905D01*
X155048095Y-122931905D02*
X155048095Y-122131905D01*
X154667143Y-122931905D02*
X154667143Y-122131905D01*
X154210000Y-122931905D01*
X154210000Y-122131905D01*
X153410000Y-122170000D02*
X153486191Y-122131905D01*
X153600476Y-122131905D01*
X153714762Y-122170000D01*
X153790953Y-122246190D01*
X153829048Y-122322381D01*
X153867143Y-122474762D01*
X153867143Y-122589048D01*
X153829048Y-122741429D01*
X153790953Y-122817619D01*
X153714762Y-122893810D01*
X153600476Y-122931905D01*
X153524286Y-122931905D01*
X153410000Y-122893810D01*
X153371905Y-122855714D01*
X153371905Y-122589048D01*
X153524286Y-122589048D01*
D11*
X175260000Y-133350000D02*
X175260000Y-132080000D01*
X167640000Y-133350000D02*
X175260000Y-133350000D01*
X167640000Y-132080000D02*
X167640000Y-133350000D01*
X160020000Y-133350000D02*
X160020000Y-132080000D01*
X152400000Y-133350000D02*
X160020000Y-133350000D01*
X152400000Y-132080000D02*
X152400000Y-133350000D01*
X175260000Y-111760000D02*
X175260000Y-113030000D01*
X167640000Y-111760000D02*
X175260000Y-111760000D01*
X167640000Y-113030000D02*
X167640000Y-111760000D01*
X160020000Y-111760000D02*
X160020000Y-113030000D01*
X152400000Y-111760000D02*
X160020000Y-111760000D01*
X152400000Y-113030000D02*
X152400000Y-111760000D01*
X181610000Y-112395000D02*
X181610000Y-127635000D01*
X187325000Y-112395000D02*
X181610000Y-112395000D01*
D10*
X192906667Y-126757858D02*
X192906667Y-126376906D01*
X192678095Y-126834049D02*
X193478095Y-126567382D01*
X192678095Y-126300715D01*
X192678095Y-126034049D02*
X193478095Y-126034049D01*
X193478095Y-125843573D01*
X193440000Y-125729287D01*
X193363810Y-125653096D01*
X193287619Y-125615001D01*
X193135238Y-125576906D01*
X193020952Y-125576906D01*
X192868571Y-125615001D01*
X192792381Y-125653096D01*
X192716190Y-125729287D01*
X192678095Y-125843573D01*
X192678095Y-126034049D01*
X192678095Y-125234049D02*
X193478095Y-125234049D01*
X193478095Y-125043573D01*
X193440000Y-124929287D01*
X193363810Y-124853096D01*
X193287619Y-124815001D01*
X193135238Y-124776906D01*
X193020952Y-124776906D01*
X192868571Y-124815001D01*
X192792381Y-124853096D01*
X192716190Y-124929287D01*
X192678095Y-125043573D01*
X192678095Y-125234049D01*
X192678095Y-123976906D02*
X193059048Y-124243573D01*
X192678095Y-124434049D02*
X193478095Y-124434049D01*
X193478095Y-124129287D01*
X193440000Y-124053096D01*
X193401905Y-124015001D01*
X193325714Y-123976906D01*
X193211429Y-123976906D01*
X193135238Y-124015001D01*
X193097143Y-124053096D01*
X193059048Y-124129287D01*
X193059048Y-124434049D01*
X193097143Y-123634049D02*
X193097143Y-123367382D01*
X192678095Y-123253096D02*
X192678095Y-123634049D01*
X193478095Y-123634049D01*
X193478095Y-123253096D01*
X192716190Y-122948334D02*
X192678095Y-122834048D01*
X192678095Y-122643572D01*
X192716190Y-122567382D01*
X192754286Y-122529286D01*
X192830476Y-122491191D01*
X192906667Y-122491191D01*
X192982857Y-122529286D01*
X193020952Y-122567382D01*
X193059048Y-122643572D01*
X193097143Y-122795953D01*
X193135238Y-122872144D01*
X193173333Y-122910239D01*
X193249524Y-122948334D01*
X193325714Y-122948334D01*
X193401905Y-122910239D01*
X193440000Y-122872144D01*
X193478095Y-122795953D01*
X193478095Y-122605477D01*
X193440000Y-122491191D01*
X192716190Y-122186429D02*
X192678095Y-122072143D01*
X192678095Y-121881667D01*
X192716190Y-121805477D01*
X192754286Y-121767381D01*
X192830476Y-121729286D01*
X192906667Y-121729286D01*
X192982857Y-121767381D01*
X193020952Y-121805477D01*
X193059048Y-121881667D01*
X193097143Y-122034048D01*
X193135238Y-122110239D01*
X193173333Y-122148334D01*
X193249524Y-122186429D01*
X193325714Y-122186429D01*
X193401905Y-122148334D01*
X193440000Y-122110239D01*
X193478095Y-122034048D01*
X193478095Y-121843572D01*
X193440000Y-121729286D01*
X193097143Y-120510238D02*
X193059048Y-120395952D01*
X193020952Y-120357857D01*
X192944762Y-120319762D01*
X192830476Y-120319762D01*
X192754286Y-120357857D01*
X192716190Y-120395952D01*
X192678095Y-120472143D01*
X192678095Y-120776905D01*
X193478095Y-120776905D01*
X193478095Y-120510238D01*
X193440000Y-120434048D01*
X193401905Y-120395952D01*
X193325714Y-120357857D01*
X193249524Y-120357857D01*
X193173333Y-120395952D01*
X193135238Y-120434048D01*
X193097143Y-120510238D01*
X193097143Y-120776905D01*
X192906667Y-120015000D02*
X192906667Y-119634048D01*
X192678095Y-120091191D02*
X193478095Y-119824524D01*
X192678095Y-119557857D01*
X192716190Y-119329286D02*
X192678095Y-119215000D01*
X192678095Y-119024524D01*
X192716190Y-118948334D01*
X192754286Y-118910238D01*
X192830476Y-118872143D01*
X192906667Y-118872143D01*
X192982857Y-118910238D01*
X193020952Y-118948334D01*
X193059048Y-119024524D01*
X193097143Y-119176905D01*
X193135238Y-119253096D01*
X193173333Y-119291191D01*
X193249524Y-119329286D01*
X193325714Y-119329286D01*
X193401905Y-119291191D01*
X193440000Y-119253096D01*
X193478095Y-119176905D01*
X193478095Y-118986429D01*
X193440000Y-118872143D01*
X193097143Y-118529286D02*
X193097143Y-118262619D01*
X192678095Y-118148333D02*
X192678095Y-118529286D01*
X193478095Y-118529286D01*
X193478095Y-118148333D01*
X192716190Y-117234047D02*
X192678095Y-117119761D01*
X192678095Y-116929285D01*
X192716190Y-116853095D01*
X192754286Y-116814999D01*
X192830476Y-116776904D01*
X192906667Y-116776904D01*
X192982857Y-116814999D01*
X193020952Y-116853095D01*
X193059048Y-116929285D01*
X193097143Y-117081666D01*
X193135238Y-117157857D01*
X193173333Y-117195952D01*
X193249524Y-117234047D01*
X193325714Y-117234047D01*
X193401905Y-117195952D01*
X193440000Y-117157857D01*
X193478095Y-117081666D01*
X193478095Y-116891190D01*
X193440000Y-116776904D01*
X193097143Y-116434047D02*
X193097143Y-116167380D01*
X192678095Y-116053094D02*
X192678095Y-116434047D01*
X193478095Y-116434047D01*
X193478095Y-116053094D01*
X192678095Y-115329284D02*
X192678095Y-115710237D01*
X193478095Y-115710237D01*
X193097143Y-115062618D02*
X193097143Y-114795951D01*
X192678095Y-114681665D02*
X192678095Y-115062618D01*
X193478095Y-115062618D01*
X193478095Y-114681665D01*
X192754286Y-113881665D02*
X192716190Y-113919760D01*
X192678095Y-114034046D01*
X192678095Y-114110236D01*
X192716190Y-114224522D01*
X192792381Y-114300713D01*
X192868571Y-114338808D01*
X193020952Y-114376903D01*
X193135238Y-114376903D01*
X193287619Y-114338808D01*
X193363810Y-114300713D01*
X193440000Y-114224522D01*
X193478095Y-114110236D01*
X193478095Y-114034046D01*
X193440000Y-113919760D01*
X193401905Y-113881665D01*
X193478095Y-113653094D02*
X193478095Y-113195951D01*
X192678095Y-113424522D02*
X193478095Y-113424522D01*
D11*
X193040000Y-127635000D02*
X187325000Y-127635000D01*
X193040000Y-127000000D02*
X193040000Y-127635000D01*
X193040000Y-112395000D02*
X193040000Y-113030000D01*
X187325000Y-112395000D02*
X193040000Y-112395000D01*
X191770000Y-114935000D02*
X187325000Y-114935000D01*
X187325000Y-117475000D02*
X191770000Y-117475000D01*
X191770000Y-120015000D02*
X187325000Y-120015000D01*
X187325000Y-122555000D02*
X191770000Y-122555000D01*
X187325000Y-125095000D02*
X191770000Y-125095000D01*
D10*
X191617619Y-126688810D02*
X191503333Y-126726905D01*
X191312857Y-126726905D01*
X191236667Y-126688810D01*
X191198571Y-126650714D01*
X191160476Y-126574524D01*
X191160476Y-126498333D01*
X191198571Y-126422143D01*
X191236667Y-126384048D01*
X191312857Y-126345952D01*
X191465238Y-126307857D01*
X191541429Y-126269762D01*
X191579524Y-126231667D01*
X191617619Y-126155476D01*
X191617619Y-126079286D01*
X191579524Y-126003095D01*
X191541429Y-125965000D01*
X191465238Y-125926905D01*
X191274762Y-125926905D01*
X191160476Y-125965000D01*
X191389048Y-125812619D02*
X191389048Y-126841190D01*
X190817619Y-126726905D02*
X190817619Y-125926905D01*
X190627143Y-125926905D01*
X190512857Y-125965000D01*
X190436666Y-126041190D01*
X190398571Y-126117381D01*
X190360476Y-126269762D01*
X190360476Y-126384048D01*
X190398571Y-126536429D01*
X190436666Y-126612619D01*
X190512857Y-126688810D01*
X190627143Y-126726905D01*
X190817619Y-126726905D01*
X189674762Y-125926905D02*
X189827143Y-125926905D01*
X189903333Y-125965000D01*
X189941428Y-126003095D01*
X190017619Y-126117381D01*
X190055714Y-126269762D01*
X190055714Y-126574524D01*
X190017619Y-126650714D01*
X189979524Y-126688810D01*
X189903333Y-126726905D01*
X189750952Y-126726905D01*
X189674762Y-126688810D01*
X189636666Y-126650714D01*
X189598571Y-126574524D01*
X189598571Y-126384048D01*
X189636666Y-126307857D01*
X189674762Y-126269762D01*
X189750952Y-126231667D01*
X189903333Y-126231667D01*
X189979524Y-126269762D01*
X190017619Y-126307857D01*
X190055714Y-126384048D01*
X189103333Y-125926905D02*
X189027142Y-125926905D01*
X188950952Y-125965000D01*
X188912857Y-126003095D01*
X188874761Y-126079286D01*
X188836666Y-126231667D01*
X188836666Y-126422143D01*
X188874761Y-126574524D01*
X188912857Y-126650714D01*
X188950952Y-126688810D01*
X189027142Y-126726905D01*
X189103333Y-126726905D01*
X189179523Y-126688810D01*
X189217619Y-126650714D01*
X189255714Y-126574524D01*
X189293809Y-126422143D01*
X189293809Y-126231667D01*
X189255714Y-126079286D01*
X189217619Y-126003095D01*
X189179523Y-125965000D01*
X189103333Y-125926905D01*
X188341428Y-125926905D02*
X188265237Y-125926905D01*
X188189047Y-125965000D01*
X188150952Y-126003095D01*
X188112856Y-126079286D01*
X188074761Y-126231667D01*
X188074761Y-126422143D01*
X188112856Y-126574524D01*
X188150952Y-126650714D01*
X188189047Y-126688810D01*
X188265237Y-126726905D01*
X188341428Y-126726905D01*
X188417618Y-126688810D01*
X188455714Y-126650714D01*
X188493809Y-126574524D01*
X188531904Y-126422143D01*
X188531904Y-126231667D01*
X188493809Y-126079286D01*
X188455714Y-126003095D01*
X188417618Y-125965000D01*
X188341428Y-125926905D01*
X191617619Y-124148810D02*
X191503333Y-124186905D01*
X191312857Y-124186905D01*
X191236667Y-124148810D01*
X191198571Y-124110714D01*
X191160476Y-124034524D01*
X191160476Y-123958333D01*
X191198571Y-123882143D01*
X191236667Y-123844048D01*
X191312857Y-123805952D01*
X191465238Y-123767857D01*
X191541429Y-123729762D01*
X191579524Y-123691667D01*
X191617619Y-123615476D01*
X191617619Y-123539286D01*
X191579524Y-123463095D01*
X191541429Y-123425000D01*
X191465238Y-123386905D01*
X191274762Y-123386905D01*
X191160476Y-123425000D01*
X191389048Y-123272619D02*
X191389048Y-124301190D01*
X190550952Y-123767857D02*
X190436666Y-123805952D01*
X190398571Y-123844048D01*
X190360476Y-123920238D01*
X190360476Y-124034524D01*
X190398571Y-124110714D01*
X190436666Y-124148810D01*
X190512857Y-124186905D01*
X190817619Y-124186905D01*
X190817619Y-123386905D01*
X190550952Y-123386905D01*
X190474762Y-123425000D01*
X190436666Y-123463095D01*
X190398571Y-123539286D01*
X190398571Y-123615476D01*
X190436666Y-123691667D01*
X190474762Y-123729762D01*
X190550952Y-123767857D01*
X190817619Y-123767857D01*
X189674762Y-123386905D02*
X189827143Y-123386905D01*
X189903333Y-123425000D01*
X189941428Y-123463095D01*
X190017619Y-123577381D01*
X190055714Y-123729762D01*
X190055714Y-124034524D01*
X190017619Y-124110714D01*
X189979524Y-124148810D01*
X189903333Y-124186905D01*
X189750952Y-124186905D01*
X189674762Y-124148810D01*
X189636666Y-124110714D01*
X189598571Y-124034524D01*
X189598571Y-123844048D01*
X189636666Y-123767857D01*
X189674762Y-123729762D01*
X189750952Y-123691667D01*
X189903333Y-123691667D01*
X189979524Y-123729762D01*
X190017619Y-123767857D01*
X190055714Y-123844048D01*
X189103333Y-123386905D02*
X189027142Y-123386905D01*
X188950952Y-123425000D01*
X188912857Y-123463095D01*
X188874761Y-123539286D01*
X188836666Y-123691667D01*
X188836666Y-123882143D01*
X188874761Y-124034524D01*
X188912857Y-124110714D01*
X188950952Y-124148810D01*
X189027142Y-124186905D01*
X189103333Y-124186905D01*
X189179523Y-124148810D01*
X189217619Y-124110714D01*
X189255714Y-124034524D01*
X189293809Y-123882143D01*
X189293809Y-123691667D01*
X189255714Y-123539286D01*
X189217619Y-123463095D01*
X189179523Y-123425000D01*
X189103333Y-123386905D01*
X188341428Y-123386905D02*
X188265237Y-123386905D01*
X188189047Y-123425000D01*
X188150952Y-123463095D01*
X188112856Y-123539286D01*
X188074761Y-123691667D01*
X188074761Y-123882143D01*
X188112856Y-124034524D01*
X188150952Y-124110714D01*
X188189047Y-124148810D01*
X188265237Y-124186905D01*
X188341428Y-124186905D01*
X188417618Y-124148810D01*
X188455714Y-124110714D01*
X188493809Y-124034524D01*
X188531904Y-123882143D01*
X188531904Y-123691667D01*
X188493809Y-123539286D01*
X188455714Y-123463095D01*
X188417618Y-123425000D01*
X188341428Y-123386905D01*
X191617619Y-121608810D02*
X191503333Y-121646905D01*
X191312857Y-121646905D01*
X191236667Y-121608810D01*
X191198571Y-121570714D01*
X191160476Y-121494524D01*
X191160476Y-121418333D01*
X191198571Y-121342143D01*
X191236667Y-121304048D01*
X191312857Y-121265952D01*
X191465238Y-121227857D01*
X191541429Y-121189762D01*
X191579524Y-121151667D01*
X191617619Y-121075476D01*
X191617619Y-120999286D01*
X191579524Y-120923095D01*
X191541429Y-120885000D01*
X191465238Y-120846905D01*
X191274762Y-120846905D01*
X191160476Y-120885000D01*
X191389048Y-120732619D02*
X191389048Y-121761190D01*
X190779524Y-121646905D02*
X190627143Y-121646905D01*
X190550952Y-121608810D01*
X190512857Y-121570714D01*
X190436666Y-121456429D01*
X190398571Y-121304048D01*
X190398571Y-120999286D01*
X190436666Y-120923095D01*
X190474762Y-120885000D01*
X190550952Y-120846905D01*
X190703333Y-120846905D01*
X190779524Y-120885000D01*
X190817619Y-120923095D01*
X190855714Y-120999286D01*
X190855714Y-121189762D01*
X190817619Y-121265952D01*
X190779524Y-121304048D01*
X190703333Y-121342143D01*
X190550952Y-121342143D01*
X190474762Y-121304048D01*
X190436666Y-121265952D01*
X190398571Y-121189762D01*
X189712857Y-120846905D02*
X189865238Y-120846905D01*
X189941428Y-120885000D01*
X189979523Y-120923095D01*
X190055714Y-121037381D01*
X190093809Y-121189762D01*
X190093809Y-121494524D01*
X190055714Y-121570714D01*
X190017619Y-121608810D01*
X189941428Y-121646905D01*
X189789047Y-121646905D01*
X189712857Y-121608810D01*
X189674761Y-121570714D01*
X189636666Y-121494524D01*
X189636666Y-121304048D01*
X189674761Y-121227857D01*
X189712857Y-121189762D01*
X189789047Y-121151667D01*
X189941428Y-121151667D01*
X190017619Y-121189762D01*
X190055714Y-121227857D01*
X190093809Y-121304048D01*
X189141428Y-120846905D02*
X189065237Y-120846905D01*
X188989047Y-120885000D01*
X188950952Y-120923095D01*
X188912856Y-120999286D01*
X188874761Y-121151667D01*
X188874761Y-121342143D01*
X188912856Y-121494524D01*
X188950952Y-121570714D01*
X188989047Y-121608810D01*
X189065237Y-121646905D01*
X189141428Y-121646905D01*
X189217618Y-121608810D01*
X189255714Y-121570714D01*
X189293809Y-121494524D01*
X189331904Y-121342143D01*
X189331904Y-121151667D01*
X189293809Y-120999286D01*
X189255714Y-120923095D01*
X189217618Y-120885000D01*
X189141428Y-120846905D01*
X188379523Y-120846905D02*
X188303332Y-120846905D01*
X188227142Y-120885000D01*
X188189047Y-120923095D01*
X188150951Y-120999286D01*
X188112856Y-121151667D01*
X188112856Y-121342143D01*
X188150951Y-121494524D01*
X188189047Y-121570714D01*
X188227142Y-121608810D01*
X188303332Y-121646905D01*
X188379523Y-121646905D01*
X188455713Y-121608810D01*
X188493809Y-121570714D01*
X188531904Y-121494524D01*
X188569999Y-121342143D01*
X188569999Y-121151667D01*
X188531904Y-120999286D01*
X188493809Y-120923095D01*
X188455713Y-120885000D01*
X188379523Y-120846905D01*
X191617619Y-119068810D02*
X191503333Y-119106905D01*
X191312857Y-119106905D01*
X191236667Y-119068810D01*
X191198571Y-119030714D01*
X191160476Y-118954524D01*
X191160476Y-118878333D01*
X191198571Y-118802143D01*
X191236667Y-118764048D01*
X191312857Y-118725952D01*
X191465238Y-118687857D01*
X191541429Y-118649762D01*
X191579524Y-118611667D01*
X191617619Y-118535476D01*
X191617619Y-118459286D01*
X191579524Y-118383095D01*
X191541429Y-118345000D01*
X191465238Y-118306905D01*
X191274762Y-118306905D01*
X191160476Y-118345000D01*
X191389048Y-118192619D02*
X191389048Y-119221190D01*
X190893809Y-118306905D02*
X190360476Y-118306905D01*
X190703333Y-119106905D01*
X189712857Y-118306905D02*
X189865238Y-118306905D01*
X189941428Y-118345000D01*
X189979523Y-118383095D01*
X190055714Y-118497381D01*
X190093809Y-118649762D01*
X190093809Y-118954524D01*
X190055714Y-119030714D01*
X190017619Y-119068810D01*
X189941428Y-119106905D01*
X189789047Y-119106905D01*
X189712857Y-119068810D01*
X189674761Y-119030714D01*
X189636666Y-118954524D01*
X189636666Y-118764048D01*
X189674761Y-118687857D01*
X189712857Y-118649762D01*
X189789047Y-118611667D01*
X189941428Y-118611667D01*
X190017619Y-118649762D01*
X190055714Y-118687857D01*
X190093809Y-118764048D01*
X189141428Y-118306905D02*
X189065237Y-118306905D01*
X188989047Y-118345000D01*
X188950952Y-118383095D01*
X188912856Y-118459286D01*
X188874761Y-118611667D01*
X188874761Y-118802143D01*
X188912856Y-118954524D01*
X188950952Y-119030714D01*
X188989047Y-119068810D01*
X189065237Y-119106905D01*
X189141428Y-119106905D01*
X189217618Y-119068810D01*
X189255714Y-119030714D01*
X189293809Y-118954524D01*
X189331904Y-118802143D01*
X189331904Y-118611667D01*
X189293809Y-118459286D01*
X189255714Y-118383095D01*
X189217618Y-118345000D01*
X189141428Y-118306905D01*
X188379523Y-118306905D02*
X188303332Y-118306905D01*
X188227142Y-118345000D01*
X188189047Y-118383095D01*
X188150951Y-118459286D01*
X188112856Y-118611667D01*
X188112856Y-118802143D01*
X188150951Y-118954524D01*
X188189047Y-119030714D01*
X188227142Y-119068810D01*
X188303332Y-119106905D01*
X188379523Y-119106905D01*
X188455713Y-119068810D01*
X188493809Y-119030714D01*
X188531904Y-118954524D01*
X188569999Y-118802143D01*
X188569999Y-118611667D01*
X188531904Y-118459286D01*
X188493809Y-118383095D01*
X188455713Y-118345000D01*
X188379523Y-118306905D01*
X191617619Y-116528810D02*
X191503333Y-116566905D01*
X191312857Y-116566905D01*
X191236667Y-116528810D01*
X191198571Y-116490714D01*
X191160476Y-116414524D01*
X191160476Y-116338333D01*
X191198571Y-116262143D01*
X191236667Y-116224048D01*
X191312857Y-116185952D01*
X191465238Y-116147857D01*
X191541429Y-116109762D01*
X191579524Y-116071667D01*
X191617619Y-115995476D01*
X191617619Y-115919286D01*
X191579524Y-115843095D01*
X191541429Y-115805000D01*
X191465238Y-115766905D01*
X191274762Y-115766905D01*
X191160476Y-115805000D01*
X191389048Y-115652619D02*
X191389048Y-116681190D01*
X190436666Y-115766905D02*
X190817619Y-115766905D01*
X190855714Y-116147857D01*
X190817619Y-116109762D01*
X190741428Y-116071667D01*
X190550952Y-116071667D01*
X190474762Y-116109762D01*
X190436666Y-116147857D01*
X190398571Y-116224048D01*
X190398571Y-116414524D01*
X190436666Y-116490714D01*
X190474762Y-116528810D01*
X190550952Y-116566905D01*
X190741428Y-116566905D01*
X190817619Y-116528810D01*
X190855714Y-116490714D01*
X189712857Y-115766905D02*
X189865238Y-115766905D01*
X189941428Y-115805000D01*
X189979523Y-115843095D01*
X190055714Y-115957381D01*
X190093809Y-116109762D01*
X190093809Y-116414524D01*
X190055714Y-116490714D01*
X190017619Y-116528810D01*
X189941428Y-116566905D01*
X189789047Y-116566905D01*
X189712857Y-116528810D01*
X189674761Y-116490714D01*
X189636666Y-116414524D01*
X189636666Y-116224048D01*
X189674761Y-116147857D01*
X189712857Y-116109762D01*
X189789047Y-116071667D01*
X189941428Y-116071667D01*
X190017619Y-116109762D01*
X190055714Y-116147857D01*
X190093809Y-116224048D01*
X189141428Y-115766905D02*
X189065237Y-115766905D01*
X188989047Y-115805000D01*
X188950952Y-115843095D01*
X188912856Y-115919286D01*
X188874761Y-116071667D01*
X188874761Y-116262143D01*
X188912856Y-116414524D01*
X188950952Y-116490714D01*
X188989047Y-116528810D01*
X189065237Y-116566905D01*
X189141428Y-116566905D01*
X189217618Y-116528810D01*
X189255714Y-116490714D01*
X189293809Y-116414524D01*
X189331904Y-116262143D01*
X189331904Y-116071667D01*
X189293809Y-115919286D01*
X189255714Y-115843095D01*
X189217618Y-115805000D01*
X189141428Y-115766905D01*
X188379523Y-115766905D02*
X188303332Y-115766905D01*
X188227142Y-115805000D01*
X188189047Y-115843095D01*
X188150951Y-115919286D01*
X188112856Y-116071667D01*
X188112856Y-116262143D01*
X188150951Y-116414524D01*
X188189047Y-116490714D01*
X188227142Y-116528810D01*
X188303332Y-116566905D01*
X188379523Y-116566905D01*
X188455713Y-116528810D01*
X188493809Y-116490714D01*
X188531904Y-116414524D01*
X188569999Y-116262143D01*
X188569999Y-116071667D01*
X188531904Y-115919286D01*
X188493809Y-115843095D01*
X188455713Y-115805000D01*
X188379523Y-115766905D01*
X191617619Y-113988810D02*
X191503333Y-114026905D01*
X191312857Y-114026905D01*
X191236667Y-113988810D01*
X191198571Y-113950714D01*
X191160476Y-113874524D01*
X191160476Y-113798333D01*
X191198571Y-113722143D01*
X191236667Y-113684048D01*
X191312857Y-113645952D01*
X191465238Y-113607857D01*
X191541429Y-113569762D01*
X191579524Y-113531667D01*
X191617619Y-113455476D01*
X191617619Y-113379286D01*
X191579524Y-113303095D01*
X191541429Y-113265000D01*
X191465238Y-113226905D01*
X191274762Y-113226905D01*
X191160476Y-113265000D01*
X191389048Y-113112619D02*
X191389048Y-114141190D01*
X190893809Y-113226905D02*
X190398571Y-113226905D01*
X190665238Y-113531667D01*
X190550952Y-113531667D01*
X190474762Y-113569762D01*
X190436666Y-113607857D01*
X190398571Y-113684048D01*
X190398571Y-113874524D01*
X190436666Y-113950714D01*
X190474762Y-113988810D01*
X190550952Y-114026905D01*
X190779524Y-114026905D01*
X190855714Y-113988810D01*
X190893809Y-113950714D01*
X189712857Y-113226905D02*
X189865238Y-113226905D01*
X189941428Y-113265000D01*
X189979523Y-113303095D01*
X190055714Y-113417381D01*
X190093809Y-113569762D01*
X190093809Y-113874524D01*
X190055714Y-113950714D01*
X190017619Y-113988810D01*
X189941428Y-114026905D01*
X189789047Y-114026905D01*
X189712857Y-113988810D01*
X189674761Y-113950714D01*
X189636666Y-113874524D01*
X189636666Y-113684048D01*
X189674761Y-113607857D01*
X189712857Y-113569762D01*
X189789047Y-113531667D01*
X189941428Y-113531667D01*
X190017619Y-113569762D01*
X190055714Y-113607857D01*
X190093809Y-113684048D01*
X189141428Y-113226905D02*
X189065237Y-113226905D01*
X188989047Y-113265000D01*
X188950952Y-113303095D01*
X188912856Y-113379286D01*
X188874761Y-113531667D01*
X188874761Y-113722143D01*
X188912856Y-113874524D01*
X188950952Y-113950714D01*
X188989047Y-113988810D01*
X189065237Y-114026905D01*
X189141428Y-114026905D01*
X189217618Y-113988810D01*
X189255714Y-113950714D01*
X189293809Y-113874524D01*
X189331904Y-113722143D01*
X189331904Y-113531667D01*
X189293809Y-113379286D01*
X189255714Y-113303095D01*
X189217618Y-113265000D01*
X189141428Y-113226905D01*
X188379523Y-113226905D02*
X188303332Y-113226905D01*
X188227142Y-113265000D01*
X188189047Y-113303095D01*
X188150951Y-113379286D01*
X188112856Y-113531667D01*
X188112856Y-113722143D01*
X188150951Y-113874524D01*
X188189047Y-113950714D01*
X188227142Y-113988810D01*
X188303332Y-114026905D01*
X188379523Y-114026905D01*
X188455713Y-113988810D01*
X188493809Y-113950714D01*
X188531904Y-113874524D01*
X188569999Y-113722143D01*
X188569999Y-113531667D01*
X188531904Y-113379286D01*
X188493809Y-113303095D01*
X188455713Y-113265000D01*
X188379523Y-113226905D01*
D12*
X103027857Y-145867381D02*
X103361191Y-145391190D01*
X103599286Y-145867381D02*
X103599286Y-144867381D01*
X103218333Y-144867381D01*
X103123095Y-144915000D01*
X103075476Y-144962619D01*
X103027857Y-145057857D01*
X103027857Y-145200714D01*
X103075476Y-145295952D01*
X103123095Y-145343571D01*
X103218333Y-145391190D01*
X103599286Y-145391190D01*
X102218333Y-145819762D02*
X102313571Y-145867381D01*
X102504048Y-145867381D01*
X102599286Y-145819762D01*
X102646905Y-145724524D01*
X102646905Y-145343571D01*
X102599286Y-145248333D01*
X102504048Y-145200714D01*
X102313571Y-145200714D01*
X102218333Y-145248333D01*
X102170714Y-145343571D01*
X102170714Y-145438810D01*
X102646905Y-145534048D01*
X101837381Y-145200714D02*
X101599286Y-145867381D01*
X101361190Y-145200714D01*
X100980238Y-145867381D02*
X100980238Y-145200714D01*
X100980238Y-144867381D02*
X101027857Y-144915000D01*
X100980238Y-144962619D01*
X100932619Y-144915000D01*
X100980238Y-144867381D01*
X100980238Y-144962619D01*
X100551667Y-145819762D02*
X100456429Y-145867381D01*
X100265953Y-145867381D01*
X100170714Y-145819762D01*
X100123095Y-145724524D01*
X100123095Y-145676905D01*
X100170714Y-145581667D01*
X100265953Y-145534048D01*
X100408810Y-145534048D01*
X100504048Y-145486429D01*
X100551667Y-145391190D01*
X100551667Y-145343571D01*
X100504048Y-145248333D01*
X100408810Y-145200714D01*
X100265953Y-145200714D01*
X100170714Y-145248333D01*
X99694524Y-145867381D02*
X99694524Y-145200714D01*
X99694524Y-144867381D02*
X99742143Y-144915000D01*
X99694524Y-144962619D01*
X99646905Y-144915000D01*
X99694524Y-144867381D01*
X99694524Y-144962619D01*
X99075477Y-145867381D02*
X99170715Y-145819762D01*
X99218334Y-145772143D01*
X99265953Y-145676905D01*
X99265953Y-145391190D01*
X99218334Y-145295952D01*
X99170715Y-145248333D01*
X99075477Y-145200714D01*
X98932619Y-145200714D01*
X98837381Y-145248333D01*
X98789762Y-145295952D01*
X98742143Y-145391190D01*
X98742143Y-145676905D01*
X98789762Y-145772143D01*
X98837381Y-145819762D01*
X98932619Y-145867381D01*
X99075477Y-145867381D01*
X98313572Y-145200714D02*
X98313572Y-145867381D01*
X98313572Y-145295952D02*
X98265953Y-145248333D01*
X98170715Y-145200714D01*
X98027857Y-145200714D01*
X97932619Y-145248333D01*
X97885000Y-145343571D01*
X97885000Y-145867381D01*
X96313571Y-145343571D02*
X96170714Y-145391190D01*
X96123095Y-145438810D01*
X96075476Y-145534048D01*
X96075476Y-145676905D01*
X96123095Y-145772143D01*
X96170714Y-145819762D01*
X96265952Y-145867381D01*
X96646905Y-145867381D01*
X96646905Y-144867381D01*
X96313571Y-144867381D01*
X96218333Y-144915000D01*
X96170714Y-144962619D01*
X96123095Y-145057857D01*
X96123095Y-145153095D01*
X96170714Y-145248333D01*
X96218333Y-145295952D01*
X96313571Y-145343571D01*
X96646905Y-145343571D01*
M02*
