G04 #@! TF.FileFunction,Soldermask,Bot*
%FSLAX46Y46*%
G04 Gerber Fmt 4.6, Leading zero omitted, Abs format (unit mm)*
G04 Created by KiCad (PCBNEW 4.0.7) date 01/25/20 16:01:31*
%MOMM*%
%LPD*%
G01*
G04 APERTURE LIST*
%ADD10C,0.100000*%
%ADD11R,2.100000X2.100000*%
%ADD12O,2.100000X2.100000*%
%ADD13C,2.000000*%
%ADD14O,2.000000X2.000000*%
%ADD15R,2.800000X2.000000*%
%ADD16O,2.800000X2.000000*%
%ADD17R,2.127200X2.127200*%
%ADD18O,2.127200X2.127200*%
%ADD19R,2.200000X2.200000*%
%ADD20C,2.200000*%
G04 APERTURE END LIST*
D10*
D11*
X193040000Y-147320000D03*
D12*
X190500000Y-147320000D03*
X187960000Y-147320000D03*
X185420000Y-147320000D03*
X182880000Y-147320000D03*
X180340000Y-147320000D03*
X177800000Y-147320000D03*
X175260000Y-147320000D03*
X172720000Y-147320000D03*
X170180000Y-147320000D03*
X167640000Y-147320000D03*
X165100000Y-147320000D03*
X162560000Y-147320000D03*
X160020000Y-147320000D03*
X157480000Y-147320000D03*
X154940000Y-147320000D03*
X152400000Y-147320000D03*
X149860000Y-147320000D03*
X147320000Y-147320000D03*
X144780000Y-147320000D03*
X142240000Y-147320000D03*
X139700000Y-147320000D03*
X137160000Y-147320000D03*
X134620000Y-147320000D03*
X132080000Y-147320000D03*
X129540000Y-147320000D03*
X127000000Y-147320000D03*
X124460000Y-147320000D03*
X121920000Y-147320000D03*
X119380000Y-147320000D03*
X116840000Y-147320000D03*
X114300000Y-147320000D03*
X111760000Y-147320000D03*
X109220000Y-147320000D03*
X106680000Y-147320000D03*
X104140000Y-147320000D03*
X101600000Y-147320000D03*
X99060000Y-147320000D03*
X96520000Y-147320000D03*
D11*
X182880000Y-113665000D03*
D12*
X185420000Y-113665000D03*
X182880000Y-116205000D03*
X185420000Y-116205000D03*
X182880000Y-118745000D03*
X185420000Y-118745000D03*
X182880000Y-121285000D03*
X185420000Y-121285000D03*
X182880000Y-123825000D03*
X185420000Y-123825000D03*
X182880000Y-126365000D03*
X185420000Y-126365000D03*
D13*
X148590000Y-113665000D03*
X148590000Y-118665000D03*
X179070000Y-113665000D03*
X179070000Y-118665000D03*
X118110000Y-113665000D03*
X118110000Y-118665000D03*
X148590000Y-131445000D03*
D14*
X148590000Y-121285000D03*
D13*
X179070000Y-131445000D03*
D14*
X179070000Y-121285000D03*
D13*
X163830000Y-131445000D03*
D14*
X163830000Y-121285000D03*
D13*
X177800000Y-107950000D03*
D14*
X187960000Y-107950000D03*
D15*
X137160000Y-113665000D03*
D16*
X144780000Y-128905000D03*
X137160000Y-116205000D03*
X144780000Y-126365000D03*
X137160000Y-118745000D03*
X144780000Y-123825000D03*
X137160000Y-121285000D03*
X144780000Y-121285000D03*
X137160000Y-123825000D03*
X144780000Y-118745000D03*
X137160000Y-126365000D03*
X144780000Y-116205000D03*
X137160000Y-128905000D03*
X144780000Y-113665000D03*
D17*
X120015000Y-107315000D03*
D18*
X120015000Y-104775000D03*
X122555000Y-107315000D03*
X122555000Y-104775000D03*
X125095000Y-107315000D03*
X125095000Y-104775000D03*
X127635000Y-107315000D03*
X127635000Y-104775000D03*
X130175000Y-107315000D03*
X130175000Y-104775000D03*
X132715000Y-107315000D03*
X132715000Y-104775000D03*
X135255000Y-107315000D03*
X135255000Y-104775000D03*
X137795000Y-107315000D03*
X137795000Y-104775000D03*
X140335000Y-107315000D03*
X140335000Y-104775000D03*
X142875000Y-107315000D03*
X142875000Y-104775000D03*
X145415000Y-107315000D03*
X145415000Y-104775000D03*
X147955000Y-107315000D03*
X147955000Y-104775000D03*
X150495000Y-107315000D03*
X150495000Y-104775000D03*
X153035000Y-107315000D03*
X153035000Y-104775000D03*
X155575000Y-107315000D03*
X155575000Y-104775000D03*
X158115000Y-107315000D03*
X158115000Y-104775000D03*
X160655000Y-107315000D03*
X160655000Y-104775000D03*
X163195000Y-107315000D03*
X163195000Y-104775000D03*
X165735000Y-107315000D03*
X165735000Y-104775000D03*
X168275000Y-107315000D03*
X168275000Y-104775000D03*
D11*
X99695000Y-104140000D03*
D12*
X102235000Y-104140000D03*
X104775000Y-104140000D03*
X107315000Y-104140000D03*
D11*
X179070000Y-104140000D03*
D12*
X181610000Y-104140000D03*
X184150000Y-104140000D03*
X186690000Y-104140000D03*
D19*
X190500000Y-104140000D03*
D20*
X190500000Y-101600000D03*
D13*
X163830000Y-113665000D03*
X163830000Y-118665000D03*
X133350000Y-113665000D03*
X133350000Y-118665000D03*
D15*
X106680000Y-113665000D03*
D16*
X114300000Y-136525000D03*
X106680000Y-116205000D03*
X114300000Y-133985000D03*
X106680000Y-118745000D03*
X114300000Y-131445000D03*
X106680000Y-121285000D03*
X114300000Y-128905000D03*
X106680000Y-123825000D03*
X114300000Y-126365000D03*
X106680000Y-126365000D03*
X114300000Y-123825000D03*
X106680000Y-128905000D03*
X114300000Y-121285000D03*
X106680000Y-131445000D03*
X114300000Y-118745000D03*
X106680000Y-133985000D03*
X114300000Y-116205000D03*
X106680000Y-136525000D03*
X114300000Y-113665000D03*
D15*
X121920000Y-113665000D03*
D16*
X129540000Y-136525000D03*
X121920000Y-116205000D03*
X129540000Y-133985000D03*
X121920000Y-118745000D03*
X129540000Y-131445000D03*
X121920000Y-121285000D03*
X129540000Y-128905000D03*
X121920000Y-123825000D03*
X129540000Y-126365000D03*
X121920000Y-126365000D03*
X129540000Y-123825000D03*
X121920000Y-128905000D03*
X129540000Y-121285000D03*
X121920000Y-131445000D03*
X129540000Y-118745000D03*
X121920000Y-133985000D03*
X129540000Y-116205000D03*
X121920000Y-136525000D03*
X129540000Y-113665000D03*
D15*
X167640000Y-113665000D03*
D16*
X175260000Y-131445000D03*
X167640000Y-116205000D03*
X175260000Y-128905000D03*
X167640000Y-118745000D03*
X175260000Y-126365000D03*
X167640000Y-121285000D03*
X175260000Y-123825000D03*
X167640000Y-123825000D03*
X175260000Y-121285000D03*
X167640000Y-126365000D03*
X175260000Y-118745000D03*
X167640000Y-128905000D03*
X175260000Y-116205000D03*
X167640000Y-131445000D03*
X175260000Y-113665000D03*
D15*
X152400000Y-113665000D03*
D16*
X160020000Y-131445000D03*
X152400000Y-116205000D03*
X160020000Y-128905000D03*
X152400000Y-118745000D03*
X160020000Y-126365000D03*
X152400000Y-121285000D03*
X160020000Y-123825000D03*
X152400000Y-123825000D03*
X160020000Y-121285000D03*
X152400000Y-126365000D03*
X160020000Y-118745000D03*
X152400000Y-128905000D03*
X160020000Y-116205000D03*
X152400000Y-131445000D03*
X160020000Y-113665000D03*
M02*
