G04 #@! TF.FileFunction,Legend,Top*
%FSLAX46Y46*%
G04 Gerber Fmt 4.6, Leading zero omitted, Abs format (unit mm)*
G04 Created by KiCad (PCBNEW 4.0.7) date 01/25/20 16:01:31*
%MOMM*%
%LPD*%
G01*
G04 APERTURE LIST*
%ADD10C,0.100000*%
%ADD11C,0.200000*%
%ADD12C,0.150000*%
%ADD13C,0.300000*%
%ADD14C,0.120000*%
G04 APERTURE END LIST*
D10*
D11*
X193675000Y-111760000D02*
X193675000Y-112395000D01*
X192405000Y-137160000D02*
X192405000Y-128270000D01*
X193040000Y-128270000D02*
X193040000Y-137160000D01*
X193675000Y-137160000D02*
X193675000Y-127635000D01*
X193675000Y-142240000D02*
X193675000Y-146050000D01*
X193040000Y-146050000D02*
X193040000Y-142240000D01*
X192405000Y-142240000D02*
X192405000Y-146050000D01*
X193675000Y-111760000D02*
X193675000Y-93980000D01*
X192405000Y-93980000D02*
X192405000Y-111760000D01*
X193040000Y-111760000D02*
X193040000Y-93980000D01*
D12*
X193492381Y-141580952D02*
X192492381Y-141580952D01*
X192492381Y-141199999D01*
X192540000Y-141104761D01*
X192587619Y-141057142D01*
X192682857Y-141009523D01*
X192825714Y-141009523D01*
X192920952Y-141057142D01*
X192968571Y-141104761D01*
X193016190Y-141199999D01*
X193016190Y-141580952D01*
X193492381Y-140580952D02*
X192492381Y-140580952D01*
X193492381Y-140104762D02*
X192492381Y-140104762D01*
X193492381Y-139533333D01*
X192492381Y-139533333D01*
X193492381Y-137771428D02*
X193492381Y-138342857D01*
X193492381Y-138057143D02*
X192492381Y-138057143D01*
X192635238Y-138152381D01*
X192730476Y-138247619D01*
X192778095Y-138342857D01*
D10*
X187858333Y-126193571D02*
X187858333Y-126726905D01*
X187667857Y-125888810D02*
X187477381Y-126460238D01*
X187972619Y-126460238D01*
X188277381Y-126726905D02*
X188277381Y-125926905D01*
X188734524Y-126726905D02*
X188391667Y-126269762D01*
X188734524Y-125926905D02*
X188277381Y-126384048D01*
X189534524Y-126650714D02*
X189496429Y-126688810D01*
X189382143Y-126726905D01*
X189305953Y-126726905D01*
X189191667Y-126688810D01*
X189115476Y-126612619D01*
X189077381Y-126536429D01*
X189039286Y-126384048D01*
X189039286Y-126269762D01*
X189077381Y-126117381D01*
X189115476Y-126041190D01*
X189191667Y-125965000D01*
X189305953Y-125926905D01*
X189382143Y-125926905D01*
X189496429Y-125965000D01*
X189534524Y-126003095D01*
X187858333Y-123653571D02*
X187858333Y-124186905D01*
X187667857Y-123348810D02*
X187477381Y-123920238D01*
X187972619Y-123920238D01*
X188277381Y-124186905D02*
X188277381Y-123386905D01*
X188734524Y-124186905D02*
X188391667Y-123729762D01*
X188734524Y-123386905D02*
X188277381Y-123844048D01*
X189039286Y-123958333D02*
X189420238Y-123958333D01*
X188963095Y-124186905D02*
X189229762Y-123386905D01*
X189496429Y-124186905D01*
X187858333Y-121113571D02*
X187858333Y-121646905D01*
X187667857Y-120808810D02*
X187477381Y-121380238D01*
X187972619Y-121380238D01*
X188277381Y-121646905D02*
X188277381Y-120846905D01*
X188734524Y-121646905D02*
X188391667Y-121189762D01*
X188734524Y-120846905D02*
X188277381Y-121304048D01*
X189191667Y-121189762D02*
X189115476Y-121151667D01*
X189077381Y-121113571D01*
X189039286Y-121037381D01*
X189039286Y-120999286D01*
X189077381Y-120923095D01*
X189115476Y-120885000D01*
X189191667Y-120846905D01*
X189344048Y-120846905D01*
X189420238Y-120885000D01*
X189458334Y-120923095D01*
X189496429Y-120999286D01*
X189496429Y-121037381D01*
X189458334Y-121113571D01*
X189420238Y-121151667D01*
X189344048Y-121189762D01*
X189191667Y-121189762D01*
X189115476Y-121227857D01*
X189077381Y-121265952D01*
X189039286Y-121342143D01*
X189039286Y-121494524D01*
X189077381Y-121570714D01*
X189115476Y-121608810D01*
X189191667Y-121646905D01*
X189344048Y-121646905D01*
X189420238Y-121608810D01*
X189458334Y-121570714D01*
X189496429Y-121494524D01*
X189496429Y-121342143D01*
X189458334Y-121265952D01*
X189420238Y-121227857D01*
X189344048Y-121189762D01*
X187858333Y-118573571D02*
X187858333Y-119106905D01*
X187667857Y-118268810D02*
X187477381Y-118840238D01*
X187972619Y-118840238D01*
X188277381Y-119106905D02*
X188277381Y-118306905D01*
X188734524Y-119106905D02*
X188391667Y-118649762D01*
X188734524Y-118306905D02*
X188277381Y-118764048D01*
X189420238Y-118306905D02*
X189267857Y-118306905D01*
X189191667Y-118345000D01*
X189153572Y-118383095D01*
X189077381Y-118497381D01*
X189039286Y-118649762D01*
X189039286Y-118954524D01*
X189077381Y-119030714D01*
X189115476Y-119068810D01*
X189191667Y-119106905D01*
X189344048Y-119106905D01*
X189420238Y-119068810D01*
X189458334Y-119030714D01*
X189496429Y-118954524D01*
X189496429Y-118764048D01*
X189458334Y-118687857D01*
X189420238Y-118649762D01*
X189344048Y-118611667D01*
X189191667Y-118611667D01*
X189115476Y-118649762D01*
X189077381Y-118687857D01*
X189039286Y-118764048D01*
X187858333Y-116033571D02*
X187858333Y-116566905D01*
X187667857Y-115728810D02*
X187477381Y-116300238D01*
X187972619Y-116300238D01*
X188277381Y-116566905D02*
X188277381Y-115766905D01*
X188734524Y-116566905D02*
X188391667Y-116109762D01*
X188734524Y-115766905D02*
X188277381Y-116224048D01*
X189420238Y-116033571D02*
X189420238Y-116566905D01*
X189229762Y-115728810D02*
X189039286Y-116300238D01*
X189534524Y-116300238D01*
X193173333Y-126757858D02*
X193173333Y-126376906D01*
X193401905Y-126834049D02*
X192601905Y-126567382D01*
X193401905Y-126300715D01*
X193401905Y-126034049D02*
X192601905Y-126034049D01*
X192601905Y-125843573D01*
X192640000Y-125729287D01*
X192716190Y-125653096D01*
X192792381Y-125615001D01*
X192944762Y-125576906D01*
X193059048Y-125576906D01*
X193211429Y-125615001D01*
X193287619Y-125653096D01*
X193363810Y-125729287D01*
X193401905Y-125843573D01*
X193401905Y-126034049D01*
X193401905Y-125234049D02*
X192601905Y-125234049D01*
X192601905Y-125043573D01*
X192640000Y-124929287D01*
X192716190Y-124853096D01*
X192792381Y-124815001D01*
X192944762Y-124776906D01*
X193059048Y-124776906D01*
X193211429Y-124815001D01*
X193287619Y-124853096D01*
X193363810Y-124929287D01*
X193401905Y-125043573D01*
X193401905Y-125234049D01*
X193401905Y-123976906D02*
X193020952Y-124243573D01*
X193401905Y-124434049D02*
X192601905Y-124434049D01*
X192601905Y-124129287D01*
X192640000Y-124053096D01*
X192678095Y-124015001D01*
X192754286Y-123976906D01*
X192868571Y-123976906D01*
X192944762Y-124015001D01*
X192982857Y-124053096D01*
X193020952Y-124129287D01*
X193020952Y-124434049D01*
X192982857Y-123634049D02*
X192982857Y-123367382D01*
X193401905Y-123253096D02*
X193401905Y-123634049D01*
X192601905Y-123634049D01*
X192601905Y-123253096D01*
X193363810Y-122948334D02*
X193401905Y-122834048D01*
X193401905Y-122643572D01*
X193363810Y-122567382D01*
X193325714Y-122529286D01*
X193249524Y-122491191D01*
X193173333Y-122491191D01*
X193097143Y-122529286D01*
X193059048Y-122567382D01*
X193020952Y-122643572D01*
X192982857Y-122795953D01*
X192944762Y-122872144D01*
X192906667Y-122910239D01*
X192830476Y-122948334D01*
X192754286Y-122948334D01*
X192678095Y-122910239D01*
X192640000Y-122872144D01*
X192601905Y-122795953D01*
X192601905Y-122605477D01*
X192640000Y-122491191D01*
X193363810Y-122186429D02*
X193401905Y-122072143D01*
X193401905Y-121881667D01*
X193363810Y-121805477D01*
X193325714Y-121767381D01*
X193249524Y-121729286D01*
X193173333Y-121729286D01*
X193097143Y-121767381D01*
X193059048Y-121805477D01*
X193020952Y-121881667D01*
X192982857Y-122034048D01*
X192944762Y-122110239D01*
X192906667Y-122148334D01*
X192830476Y-122186429D01*
X192754286Y-122186429D01*
X192678095Y-122148334D01*
X192640000Y-122110239D01*
X192601905Y-122034048D01*
X192601905Y-121843572D01*
X192640000Y-121729286D01*
X192982857Y-120510238D02*
X193020952Y-120395952D01*
X193059048Y-120357857D01*
X193135238Y-120319762D01*
X193249524Y-120319762D01*
X193325714Y-120357857D01*
X193363810Y-120395952D01*
X193401905Y-120472143D01*
X193401905Y-120776905D01*
X192601905Y-120776905D01*
X192601905Y-120510238D01*
X192640000Y-120434048D01*
X192678095Y-120395952D01*
X192754286Y-120357857D01*
X192830476Y-120357857D01*
X192906667Y-120395952D01*
X192944762Y-120434048D01*
X192982857Y-120510238D01*
X192982857Y-120776905D01*
X193173333Y-120015000D02*
X193173333Y-119634048D01*
X193401905Y-120091191D02*
X192601905Y-119824524D01*
X193401905Y-119557857D01*
X193363810Y-119329286D02*
X193401905Y-119215000D01*
X193401905Y-119024524D01*
X193363810Y-118948334D01*
X193325714Y-118910238D01*
X193249524Y-118872143D01*
X193173333Y-118872143D01*
X193097143Y-118910238D01*
X193059048Y-118948334D01*
X193020952Y-119024524D01*
X192982857Y-119176905D01*
X192944762Y-119253096D01*
X192906667Y-119291191D01*
X192830476Y-119329286D01*
X192754286Y-119329286D01*
X192678095Y-119291191D01*
X192640000Y-119253096D01*
X192601905Y-119176905D01*
X192601905Y-118986429D01*
X192640000Y-118872143D01*
X192982857Y-118529286D02*
X192982857Y-118262619D01*
X193401905Y-118148333D02*
X193401905Y-118529286D01*
X192601905Y-118529286D01*
X192601905Y-118148333D01*
X193363810Y-117234047D02*
X193401905Y-117119761D01*
X193401905Y-116929285D01*
X193363810Y-116853095D01*
X193325714Y-116814999D01*
X193249524Y-116776904D01*
X193173333Y-116776904D01*
X193097143Y-116814999D01*
X193059048Y-116853095D01*
X193020952Y-116929285D01*
X192982857Y-117081666D01*
X192944762Y-117157857D01*
X192906667Y-117195952D01*
X192830476Y-117234047D01*
X192754286Y-117234047D01*
X192678095Y-117195952D01*
X192640000Y-117157857D01*
X192601905Y-117081666D01*
X192601905Y-116891190D01*
X192640000Y-116776904D01*
X192982857Y-116434047D02*
X192982857Y-116167380D01*
X193401905Y-116053094D02*
X193401905Y-116434047D01*
X192601905Y-116434047D01*
X192601905Y-116053094D01*
X193401905Y-115329284D02*
X193401905Y-115710237D01*
X192601905Y-115710237D01*
X192982857Y-115062618D02*
X192982857Y-114795951D01*
X193401905Y-114681665D02*
X193401905Y-115062618D01*
X192601905Y-115062618D01*
X192601905Y-114681665D01*
X193325714Y-113881665D02*
X193363810Y-113919760D01*
X193401905Y-114034046D01*
X193401905Y-114110236D01*
X193363810Y-114224522D01*
X193287619Y-114300713D01*
X193211429Y-114338808D01*
X193059048Y-114376903D01*
X192944762Y-114376903D01*
X192792381Y-114338808D01*
X192716190Y-114300713D01*
X192640000Y-114224522D01*
X192601905Y-114110236D01*
X192601905Y-114034046D01*
X192640000Y-113919760D01*
X192678095Y-113881665D01*
X192601905Y-113653094D02*
X192601905Y-113195951D01*
X193401905Y-113424522D02*
X192601905Y-113424522D01*
D11*
X193040000Y-127635000D02*
X193040000Y-127000000D01*
X187325000Y-127635000D02*
X193040000Y-127635000D01*
X193040000Y-112395000D02*
X193040000Y-113030000D01*
X187325000Y-112395000D02*
X193040000Y-112395000D01*
X187325000Y-125095000D02*
X191770000Y-125095000D01*
X187325000Y-122555000D02*
X191770000Y-122555000D01*
X187325000Y-120015000D02*
X191770000Y-120015000D01*
X187325000Y-117475000D02*
X191770000Y-117475000D01*
X187325000Y-114935000D02*
X191770000Y-114935000D01*
D10*
X187858333Y-113493571D02*
X187858333Y-114026905D01*
X187667857Y-113188810D02*
X187477381Y-113760238D01*
X187972619Y-113760238D01*
X188277381Y-114026905D02*
X188277381Y-113226905D01*
X188734524Y-114026905D02*
X188391667Y-113569762D01*
X188734524Y-113226905D02*
X188277381Y-113684048D01*
X189039286Y-113303095D02*
X189077381Y-113265000D01*
X189153572Y-113226905D01*
X189344048Y-113226905D01*
X189420238Y-113265000D01*
X189458334Y-113303095D01*
X189496429Y-113379286D01*
X189496429Y-113455476D01*
X189458334Y-113569762D01*
X189001191Y-114026905D01*
X189496429Y-114026905D01*
D12*
X139375238Y-140755714D02*
X139375238Y-141565238D01*
X139327619Y-141660476D01*
X139280000Y-141708095D01*
X139184761Y-141755714D01*
X139041904Y-141755714D01*
X138946666Y-141708095D01*
X139375238Y-141374762D02*
X139280000Y-141422381D01*
X139089523Y-141422381D01*
X138994285Y-141374762D01*
X138946666Y-141327143D01*
X138899047Y-141231905D01*
X138899047Y-140946190D01*
X138946666Y-140850952D01*
X138994285Y-140803333D01*
X139089523Y-140755714D01*
X139280000Y-140755714D01*
X139375238Y-140803333D01*
X139851428Y-141422381D02*
X139851428Y-140755714D01*
X139851428Y-140422381D02*
X139803809Y-140470000D01*
X139851428Y-140517619D01*
X139899047Y-140470000D01*
X139851428Y-140422381D01*
X139851428Y-140517619D01*
X140184761Y-140755714D02*
X140565713Y-140755714D01*
X140327618Y-140422381D02*
X140327618Y-141279524D01*
X140375237Y-141374762D01*
X140470475Y-141422381D01*
X140565713Y-141422381D01*
X140899047Y-141422381D02*
X140899047Y-140422381D01*
X141327619Y-141422381D02*
X141327619Y-140898571D01*
X141280000Y-140803333D01*
X141184762Y-140755714D01*
X141041904Y-140755714D01*
X140946666Y-140803333D01*
X140899047Y-140850952D01*
X142232381Y-140755714D02*
X142232381Y-141422381D01*
X141803809Y-140755714D02*
X141803809Y-141279524D01*
X141851428Y-141374762D01*
X141946666Y-141422381D01*
X142089524Y-141422381D01*
X142184762Y-141374762D01*
X142232381Y-141327143D01*
X142708571Y-141422381D02*
X142708571Y-140422381D01*
X142708571Y-140803333D02*
X142803809Y-140755714D01*
X142994286Y-140755714D01*
X143089524Y-140803333D01*
X143137143Y-140850952D01*
X143184762Y-140946190D01*
X143184762Y-141231905D01*
X143137143Y-141327143D01*
X143089524Y-141374762D01*
X142994286Y-141422381D01*
X142803809Y-141422381D01*
X142708571Y-141374762D01*
X143613333Y-141327143D02*
X143660952Y-141374762D01*
X143613333Y-141422381D01*
X143565714Y-141374762D01*
X143613333Y-141327143D01*
X143613333Y-141422381D01*
X144518095Y-141374762D02*
X144422857Y-141422381D01*
X144232380Y-141422381D01*
X144137142Y-141374762D01*
X144089523Y-141327143D01*
X144041904Y-141231905D01*
X144041904Y-140946190D01*
X144089523Y-140850952D01*
X144137142Y-140803333D01*
X144232380Y-140755714D01*
X144422857Y-140755714D01*
X144518095Y-140803333D01*
X145089523Y-141422381D02*
X144994285Y-141374762D01*
X144946666Y-141327143D01*
X144899047Y-141231905D01*
X144899047Y-140946190D01*
X144946666Y-140850952D01*
X144994285Y-140803333D01*
X145089523Y-140755714D01*
X145232381Y-140755714D01*
X145327619Y-140803333D01*
X145375238Y-140850952D01*
X145422857Y-140946190D01*
X145422857Y-141231905D01*
X145375238Y-141327143D01*
X145327619Y-141374762D01*
X145232381Y-141422381D01*
X145089523Y-141422381D01*
X145851428Y-141422381D02*
X145851428Y-140755714D01*
X145851428Y-140850952D02*
X145899047Y-140803333D01*
X145994285Y-140755714D01*
X146137143Y-140755714D01*
X146232381Y-140803333D01*
X146280000Y-140898571D01*
X146280000Y-141422381D01*
X146280000Y-140898571D02*
X146327619Y-140803333D01*
X146422857Y-140755714D01*
X146565714Y-140755714D01*
X146660952Y-140803333D01*
X146708571Y-140898571D01*
X146708571Y-141422381D01*
X147899047Y-140374762D02*
X147041904Y-141660476D01*
X148089523Y-140755714D02*
X148470475Y-140755714D01*
X148232380Y-140422381D02*
X148232380Y-141279524D01*
X148279999Y-141374762D01*
X148375237Y-141422381D01*
X148470475Y-141422381D01*
X149184762Y-141374762D02*
X149089524Y-141422381D01*
X148899047Y-141422381D01*
X148803809Y-141374762D01*
X148756190Y-141279524D01*
X148756190Y-140898571D01*
X148803809Y-140803333D01*
X148899047Y-140755714D01*
X149089524Y-140755714D01*
X149184762Y-140803333D01*
X149232381Y-140898571D01*
X149232381Y-140993810D01*
X148756190Y-141089048D01*
X149660952Y-141422381D02*
X149660952Y-140422381D01*
X149660952Y-140803333D02*
X149756190Y-140755714D01*
X149946667Y-140755714D01*
X150041905Y-140803333D01*
X150089524Y-140850952D01*
X150137143Y-140946190D01*
X150137143Y-141231905D01*
X150089524Y-141327143D01*
X150041905Y-141374762D01*
X149946667Y-141422381D01*
X149756190Y-141422381D01*
X149660952Y-141374762D01*
X150708571Y-141422381D02*
X150613333Y-141374762D01*
X150565714Y-141279524D01*
X150565714Y-140422381D01*
X139970476Y-139422143D02*
X139922857Y-139469762D01*
X139780000Y-139517381D01*
X139684762Y-139517381D01*
X139541904Y-139469762D01*
X139446666Y-139374524D01*
X139399047Y-139279286D01*
X139351428Y-139088810D01*
X139351428Y-138945952D01*
X139399047Y-138755476D01*
X139446666Y-138660238D01*
X139541904Y-138565000D01*
X139684762Y-138517381D01*
X139780000Y-138517381D01*
X139922857Y-138565000D01*
X139970476Y-138612619D01*
X140541904Y-139517381D02*
X140446666Y-139469762D01*
X140399047Y-139422143D01*
X140351428Y-139326905D01*
X140351428Y-139041190D01*
X140399047Y-138945952D01*
X140446666Y-138898333D01*
X140541904Y-138850714D01*
X140684762Y-138850714D01*
X140780000Y-138898333D01*
X140827619Y-138945952D01*
X140875238Y-139041190D01*
X140875238Y-139326905D01*
X140827619Y-139422143D01*
X140780000Y-139469762D01*
X140684762Y-139517381D01*
X140541904Y-139517381D01*
X141303809Y-139517381D02*
X141303809Y-138850714D01*
X141303809Y-138945952D02*
X141351428Y-138898333D01*
X141446666Y-138850714D01*
X141589524Y-138850714D01*
X141684762Y-138898333D01*
X141732381Y-138993571D01*
X141732381Y-139517381D01*
X141732381Y-138993571D02*
X141780000Y-138898333D01*
X141875238Y-138850714D01*
X142018095Y-138850714D01*
X142113333Y-138898333D01*
X142160952Y-138993571D01*
X142160952Y-139517381D01*
X142637142Y-138850714D02*
X142637142Y-139850714D01*
X142637142Y-138898333D02*
X142732380Y-138850714D01*
X142922857Y-138850714D01*
X143018095Y-138898333D01*
X143065714Y-138945952D01*
X143113333Y-139041190D01*
X143113333Y-139326905D01*
X143065714Y-139422143D01*
X143018095Y-139469762D01*
X142922857Y-139517381D01*
X142732380Y-139517381D01*
X142637142Y-139469762D01*
X143970476Y-139517381D02*
X143970476Y-138993571D01*
X143922857Y-138898333D01*
X143827619Y-138850714D01*
X143637142Y-138850714D01*
X143541904Y-138898333D01*
X143970476Y-139469762D02*
X143875238Y-139517381D01*
X143637142Y-139517381D01*
X143541904Y-139469762D01*
X143494285Y-139374524D01*
X143494285Y-139279286D01*
X143541904Y-139184048D01*
X143637142Y-139136429D01*
X143875238Y-139136429D01*
X143970476Y-139088810D01*
X144875238Y-139469762D02*
X144780000Y-139517381D01*
X144589523Y-139517381D01*
X144494285Y-139469762D01*
X144446666Y-139422143D01*
X144399047Y-139326905D01*
X144399047Y-139041190D01*
X144446666Y-138945952D01*
X144494285Y-138898333D01*
X144589523Y-138850714D01*
X144780000Y-138850714D01*
X144875238Y-138898333D01*
X145160952Y-138850714D02*
X145541904Y-138850714D01*
X145303809Y-138517381D02*
X145303809Y-139374524D01*
X145351428Y-139469762D01*
X145446666Y-139517381D01*
X145541904Y-139517381D01*
X146970477Y-138993571D02*
X146637143Y-138993571D01*
X146637143Y-139517381D02*
X146637143Y-138517381D01*
X147113334Y-138517381D01*
X147637143Y-139517381D02*
X147541905Y-139469762D01*
X147494286Y-139374524D01*
X147494286Y-138517381D01*
X148446668Y-139517381D02*
X148446668Y-138993571D01*
X148399049Y-138898333D01*
X148303811Y-138850714D01*
X148113334Y-138850714D01*
X148018096Y-138898333D01*
X148446668Y-139469762D02*
X148351430Y-139517381D01*
X148113334Y-139517381D01*
X148018096Y-139469762D01*
X147970477Y-139374524D01*
X147970477Y-139279286D01*
X148018096Y-139184048D01*
X148113334Y-139136429D01*
X148351430Y-139136429D01*
X148446668Y-139088810D01*
X148875239Y-139469762D02*
X148970477Y-139517381D01*
X149160953Y-139517381D01*
X149256192Y-139469762D01*
X149303811Y-139374524D01*
X149303811Y-139326905D01*
X149256192Y-139231667D01*
X149160953Y-139184048D01*
X149018096Y-139184048D01*
X148922858Y-139136429D01*
X148875239Y-139041190D01*
X148875239Y-138993571D01*
X148922858Y-138898333D01*
X149018096Y-138850714D01*
X149160953Y-138850714D01*
X149256192Y-138898333D01*
X149732382Y-139517381D02*
X149732382Y-138517381D01*
X150160954Y-139517381D02*
X150160954Y-138993571D01*
X150113335Y-138898333D01*
X150018097Y-138850714D01*
X149875239Y-138850714D01*
X149780001Y-138898333D01*
X149732382Y-138945952D01*
D13*
X141315714Y-137838571D02*
X140815714Y-137124286D01*
X140458571Y-137838571D02*
X140458571Y-136338571D01*
X141029999Y-136338571D01*
X141172857Y-136410000D01*
X141244285Y-136481429D01*
X141315714Y-136624286D01*
X141315714Y-136838571D01*
X141244285Y-136981429D01*
X141172857Y-137052857D01*
X141029999Y-137124286D01*
X140458571Y-137124286D01*
X142815714Y-137695714D02*
X142744285Y-137767143D01*
X142529999Y-137838571D01*
X142387142Y-137838571D01*
X142172857Y-137767143D01*
X142029999Y-137624286D01*
X141958571Y-137481429D01*
X141887142Y-137195714D01*
X141887142Y-136981429D01*
X141958571Y-136695714D01*
X142029999Y-136552857D01*
X142172857Y-136410000D01*
X142387142Y-136338571D01*
X142529999Y-136338571D01*
X142744285Y-136410000D01*
X142815714Y-136481429D01*
X143458571Y-137267143D02*
X144601428Y-137267143D01*
X145601428Y-136338571D02*
X145887142Y-136338571D01*
X146030000Y-136410000D01*
X146172857Y-136552857D01*
X146244285Y-136838571D01*
X146244285Y-137338571D01*
X146172857Y-137624286D01*
X146030000Y-137767143D01*
X145887142Y-137838571D01*
X145601428Y-137838571D01*
X145458571Y-137767143D01*
X145315714Y-137624286D01*
X145244285Y-137338571D01*
X145244285Y-136838571D01*
X145315714Y-136552857D01*
X145458571Y-136410000D01*
X145601428Y-136338571D01*
X146887143Y-137838571D02*
X146887143Y-136338571D01*
X147744286Y-137838571D01*
X147744286Y-136338571D01*
X148458572Y-137052857D02*
X148958572Y-137052857D01*
X149172858Y-137838571D02*
X148458572Y-137838571D01*
X148458572Y-136338571D01*
X149172858Y-136338571D01*
D14*
X194370000Y-148760000D02*
X95190000Y-148760000D01*
X95190000Y-148760000D02*
X95190000Y-151420000D01*
X95190000Y-151420000D02*
X194370000Y-151420000D01*
X194370000Y-151420000D02*
X194370000Y-148760000D01*
X193420000Y-151420000D02*
X193420000Y-157420000D01*
X193420000Y-157420000D02*
X192660000Y-157420000D01*
X192660000Y-157420000D02*
X192660000Y-151420000D01*
X193360000Y-151420000D02*
X193360000Y-157420000D01*
X193240000Y-151420000D02*
X193240000Y-157420000D01*
X193120000Y-151420000D02*
X193120000Y-157420000D01*
X193000000Y-151420000D02*
X193000000Y-157420000D01*
X192880000Y-151420000D02*
X192880000Y-157420000D01*
X192760000Y-151420000D02*
X192760000Y-157420000D01*
X193420000Y-148430000D02*
X193420000Y-148760000D01*
X192660000Y-148430000D02*
X192660000Y-148760000D01*
X191770000Y-148760000D02*
X191770000Y-151420000D01*
X190880000Y-151420000D02*
X190880000Y-157420000D01*
X190880000Y-157420000D02*
X190120000Y-157420000D01*
X190120000Y-157420000D02*
X190120000Y-151420000D01*
X190880000Y-148362929D02*
X190880000Y-148760000D01*
X190120000Y-148362929D02*
X190120000Y-148760000D01*
X189230000Y-148760000D02*
X189230000Y-151420000D01*
X188340000Y-151420000D02*
X188340000Y-157420000D01*
X188340000Y-157420000D02*
X187580000Y-157420000D01*
X187580000Y-157420000D02*
X187580000Y-151420000D01*
X188340000Y-148362929D02*
X188340000Y-148760000D01*
X187580000Y-148362929D02*
X187580000Y-148760000D01*
X186690000Y-148760000D02*
X186690000Y-151420000D01*
X185800000Y-151420000D02*
X185800000Y-157420000D01*
X185800000Y-157420000D02*
X185040000Y-157420000D01*
X185040000Y-157420000D02*
X185040000Y-151420000D01*
X185800000Y-148362929D02*
X185800000Y-148760000D01*
X185040000Y-148362929D02*
X185040000Y-148760000D01*
X184150000Y-148760000D02*
X184150000Y-151420000D01*
X183260000Y-151420000D02*
X183260000Y-157420000D01*
X183260000Y-157420000D02*
X182500000Y-157420000D01*
X182500000Y-157420000D02*
X182500000Y-151420000D01*
X183260000Y-148362929D02*
X183260000Y-148760000D01*
X182500000Y-148362929D02*
X182500000Y-148760000D01*
X181610000Y-148760000D02*
X181610000Y-151420000D01*
X180720000Y-151420000D02*
X180720000Y-157420000D01*
X180720000Y-157420000D02*
X179960000Y-157420000D01*
X179960000Y-157420000D02*
X179960000Y-151420000D01*
X180720000Y-148362929D02*
X180720000Y-148760000D01*
X179960000Y-148362929D02*
X179960000Y-148760000D01*
X179070000Y-148760000D02*
X179070000Y-151420000D01*
X178180000Y-151420000D02*
X178180000Y-157420000D01*
X178180000Y-157420000D02*
X177420000Y-157420000D01*
X177420000Y-157420000D02*
X177420000Y-151420000D01*
X178180000Y-148362929D02*
X178180000Y-148760000D01*
X177420000Y-148362929D02*
X177420000Y-148760000D01*
X176530000Y-148760000D02*
X176530000Y-151420000D01*
X175640000Y-151420000D02*
X175640000Y-157420000D01*
X175640000Y-157420000D02*
X174880000Y-157420000D01*
X174880000Y-157420000D02*
X174880000Y-151420000D01*
X175640000Y-148362929D02*
X175640000Y-148760000D01*
X174880000Y-148362929D02*
X174880000Y-148760000D01*
X173990000Y-148760000D02*
X173990000Y-151420000D01*
X173100000Y-151420000D02*
X173100000Y-157420000D01*
X173100000Y-157420000D02*
X172340000Y-157420000D01*
X172340000Y-157420000D02*
X172340000Y-151420000D01*
X173100000Y-148362929D02*
X173100000Y-148760000D01*
X172340000Y-148362929D02*
X172340000Y-148760000D01*
X171450000Y-148760000D02*
X171450000Y-151420000D01*
X170560000Y-151420000D02*
X170560000Y-157420000D01*
X170560000Y-157420000D02*
X169800000Y-157420000D01*
X169800000Y-157420000D02*
X169800000Y-151420000D01*
X170560000Y-148362929D02*
X170560000Y-148760000D01*
X169800000Y-148362929D02*
X169800000Y-148760000D01*
X168910000Y-148760000D02*
X168910000Y-151420000D01*
X168020000Y-151420000D02*
X168020000Y-157420000D01*
X168020000Y-157420000D02*
X167260000Y-157420000D01*
X167260000Y-157420000D02*
X167260000Y-151420000D01*
X168020000Y-148362929D02*
X168020000Y-148760000D01*
X167260000Y-148362929D02*
X167260000Y-148760000D01*
X166370000Y-148760000D02*
X166370000Y-151420000D01*
X165480000Y-151420000D02*
X165480000Y-157420000D01*
X165480000Y-157420000D02*
X164720000Y-157420000D01*
X164720000Y-157420000D02*
X164720000Y-151420000D01*
X165480000Y-148362929D02*
X165480000Y-148760000D01*
X164720000Y-148362929D02*
X164720000Y-148760000D01*
X163830000Y-148760000D02*
X163830000Y-151420000D01*
X162940000Y-151420000D02*
X162940000Y-157420000D01*
X162940000Y-157420000D02*
X162180000Y-157420000D01*
X162180000Y-157420000D02*
X162180000Y-151420000D01*
X162940000Y-148362929D02*
X162940000Y-148760000D01*
X162180000Y-148362929D02*
X162180000Y-148760000D01*
X161290000Y-148760000D02*
X161290000Y-151420000D01*
X160400000Y-151420000D02*
X160400000Y-157420000D01*
X160400000Y-157420000D02*
X159640000Y-157420000D01*
X159640000Y-157420000D02*
X159640000Y-151420000D01*
X160400000Y-148362929D02*
X160400000Y-148760000D01*
X159640000Y-148362929D02*
X159640000Y-148760000D01*
X158750000Y-148760000D02*
X158750000Y-151420000D01*
X157860000Y-151420000D02*
X157860000Y-157420000D01*
X157860000Y-157420000D02*
X157100000Y-157420000D01*
X157100000Y-157420000D02*
X157100000Y-151420000D01*
X157860000Y-148362929D02*
X157860000Y-148760000D01*
X157100000Y-148362929D02*
X157100000Y-148760000D01*
X156210000Y-148760000D02*
X156210000Y-151420000D01*
X155320000Y-151420000D02*
X155320000Y-157420000D01*
X155320000Y-157420000D02*
X154560000Y-157420000D01*
X154560000Y-157420000D02*
X154560000Y-151420000D01*
X155320000Y-148362929D02*
X155320000Y-148760000D01*
X154560000Y-148362929D02*
X154560000Y-148760000D01*
X153670000Y-148760000D02*
X153670000Y-151420000D01*
X152780000Y-151420000D02*
X152780000Y-157420000D01*
X152780000Y-157420000D02*
X152020000Y-157420000D01*
X152020000Y-157420000D02*
X152020000Y-151420000D01*
X152780000Y-148362929D02*
X152780000Y-148760000D01*
X152020000Y-148362929D02*
X152020000Y-148760000D01*
X151130000Y-148760000D02*
X151130000Y-151420000D01*
X150240000Y-151420000D02*
X150240000Y-157420000D01*
X150240000Y-157420000D02*
X149480000Y-157420000D01*
X149480000Y-157420000D02*
X149480000Y-151420000D01*
X150240000Y-148362929D02*
X150240000Y-148760000D01*
X149480000Y-148362929D02*
X149480000Y-148760000D01*
X148590000Y-148760000D02*
X148590000Y-151420000D01*
X147700000Y-151420000D02*
X147700000Y-157420000D01*
X147700000Y-157420000D02*
X146940000Y-157420000D01*
X146940000Y-157420000D02*
X146940000Y-151420000D01*
X147700000Y-148362929D02*
X147700000Y-148760000D01*
X146940000Y-148362929D02*
X146940000Y-148760000D01*
X146050000Y-148760000D02*
X146050000Y-151420000D01*
X145160000Y-151420000D02*
X145160000Y-157420000D01*
X145160000Y-157420000D02*
X144400000Y-157420000D01*
X144400000Y-157420000D02*
X144400000Y-151420000D01*
X145160000Y-148362929D02*
X145160000Y-148760000D01*
X144400000Y-148362929D02*
X144400000Y-148760000D01*
X143510000Y-148760000D02*
X143510000Y-151420000D01*
X142620000Y-151420000D02*
X142620000Y-157420000D01*
X142620000Y-157420000D02*
X141860000Y-157420000D01*
X141860000Y-157420000D02*
X141860000Y-151420000D01*
X142620000Y-148362929D02*
X142620000Y-148760000D01*
X141860000Y-148362929D02*
X141860000Y-148760000D01*
X140970000Y-148760000D02*
X140970000Y-151420000D01*
X140080000Y-151420000D02*
X140080000Y-157420000D01*
X140080000Y-157420000D02*
X139320000Y-157420000D01*
X139320000Y-157420000D02*
X139320000Y-151420000D01*
X140080000Y-148362929D02*
X140080000Y-148760000D01*
X139320000Y-148362929D02*
X139320000Y-148760000D01*
X138430000Y-148760000D02*
X138430000Y-151420000D01*
X137540000Y-151420000D02*
X137540000Y-157420000D01*
X137540000Y-157420000D02*
X136780000Y-157420000D01*
X136780000Y-157420000D02*
X136780000Y-151420000D01*
X137540000Y-148362929D02*
X137540000Y-148760000D01*
X136780000Y-148362929D02*
X136780000Y-148760000D01*
X135890000Y-148760000D02*
X135890000Y-151420000D01*
X135000000Y-151420000D02*
X135000000Y-157420000D01*
X135000000Y-157420000D02*
X134240000Y-157420000D01*
X134240000Y-157420000D02*
X134240000Y-151420000D01*
X135000000Y-148362929D02*
X135000000Y-148760000D01*
X134240000Y-148362929D02*
X134240000Y-148760000D01*
X133350000Y-148760000D02*
X133350000Y-151420000D01*
X132460000Y-151420000D02*
X132460000Y-157420000D01*
X132460000Y-157420000D02*
X131700000Y-157420000D01*
X131700000Y-157420000D02*
X131700000Y-151420000D01*
X132460000Y-148362929D02*
X132460000Y-148760000D01*
X131700000Y-148362929D02*
X131700000Y-148760000D01*
X130810000Y-148760000D02*
X130810000Y-151420000D01*
X129920000Y-151420000D02*
X129920000Y-157420000D01*
X129920000Y-157420000D02*
X129160000Y-157420000D01*
X129160000Y-157420000D02*
X129160000Y-151420000D01*
X129920000Y-148362929D02*
X129920000Y-148760000D01*
X129160000Y-148362929D02*
X129160000Y-148760000D01*
X128270000Y-148760000D02*
X128270000Y-151420000D01*
X127380000Y-151420000D02*
X127380000Y-157420000D01*
X127380000Y-157420000D02*
X126620000Y-157420000D01*
X126620000Y-157420000D02*
X126620000Y-151420000D01*
X127380000Y-148362929D02*
X127380000Y-148760000D01*
X126620000Y-148362929D02*
X126620000Y-148760000D01*
X125730000Y-148760000D02*
X125730000Y-151420000D01*
X124840000Y-151420000D02*
X124840000Y-157420000D01*
X124840000Y-157420000D02*
X124080000Y-157420000D01*
X124080000Y-157420000D02*
X124080000Y-151420000D01*
X124840000Y-148362929D02*
X124840000Y-148760000D01*
X124080000Y-148362929D02*
X124080000Y-148760000D01*
X123190000Y-148760000D02*
X123190000Y-151420000D01*
X122300000Y-151420000D02*
X122300000Y-157420000D01*
X122300000Y-157420000D02*
X121540000Y-157420000D01*
X121540000Y-157420000D02*
X121540000Y-151420000D01*
X122300000Y-148362929D02*
X122300000Y-148760000D01*
X121540000Y-148362929D02*
X121540000Y-148760000D01*
X120650000Y-148760000D02*
X120650000Y-151420000D01*
X119760000Y-151420000D02*
X119760000Y-157420000D01*
X119760000Y-157420000D02*
X119000000Y-157420000D01*
X119000000Y-157420000D02*
X119000000Y-151420000D01*
X119760000Y-148362929D02*
X119760000Y-148760000D01*
X119000000Y-148362929D02*
X119000000Y-148760000D01*
X118110000Y-148760000D02*
X118110000Y-151420000D01*
X117220000Y-151420000D02*
X117220000Y-157420000D01*
X117220000Y-157420000D02*
X116460000Y-157420000D01*
X116460000Y-157420000D02*
X116460000Y-151420000D01*
X117220000Y-148362929D02*
X117220000Y-148760000D01*
X116460000Y-148362929D02*
X116460000Y-148760000D01*
X115570000Y-148760000D02*
X115570000Y-151420000D01*
X114680000Y-151420000D02*
X114680000Y-157420000D01*
X114680000Y-157420000D02*
X113920000Y-157420000D01*
X113920000Y-157420000D02*
X113920000Y-151420000D01*
X114680000Y-148362929D02*
X114680000Y-148760000D01*
X113920000Y-148362929D02*
X113920000Y-148760000D01*
X113030000Y-148760000D02*
X113030000Y-151420000D01*
X112140000Y-151420000D02*
X112140000Y-157420000D01*
X112140000Y-157420000D02*
X111380000Y-157420000D01*
X111380000Y-157420000D02*
X111380000Y-151420000D01*
X112140000Y-148362929D02*
X112140000Y-148760000D01*
X111380000Y-148362929D02*
X111380000Y-148760000D01*
X110490000Y-148760000D02*
X110490000Y-151420000D01*
X109600000Y-151420000D02*
X109600000Y-157420000D01*
X109600000Y-157420000D02*
X108840000Y-157420000D01*
X108840000Y-157420000D02*
X108840000Y-151420000D01*
X109600000Y-148362929D02*
X109600000Y-148760000D01*
X108840000Y-148362929D02*
X108840000Y-148760000D01*
X107950000Y-148760000D02*
X107950000Y-151420000D01*
X107060000Y-151420000D02*
X107060000Y-157420000D01*
X107060000Y-157420000D02*
X106300000Y-157420000D01*
X106300000Y-157420000D02*
X106300000Y-151420000D01*
X107060000Y-148362929D02*
X107060000Y-148760000D01*
X106300000Y-148362929D02*
X106300000Y-148760000D01*
X105410000Y-148760000D02*
X105410000Y-151420000D01*
X104520000Y-151420000D02*
X104520000Y-157420000D01*
X104520000Y-157420000D02*
X103760000Y-157420000D01*
X103760000Y-157420000D02*
X103760000Y-151420000D01*
X104520000Y-148362929D02*
X104520000Y-148760000D01*
X103760000Y-148362929D02*
X103760000Y-148760000D01*
X102870000Y-148760000D02*
X102870000Y-151420000D01*
X101980000Y-151420000D02*
X101980000Y-157420000D01*
X101980000Y-157420000D02*
X101220000Y-157420000D01*
X101220000Y-157420000D02*
X101220000Y-151420000D01*
X101980000Y-148362929D02*
X101980000Y-148760000D01*
X101220000Y-148362929D02*
X101220000Y-148760000D01*
X100330000Y-148760000D02*
X100330000Y-151420000D01*
X99440000Y-151420000D02*
X99440000Y-157420000D01*
X99440000Y-157420000D02*
X98680000Y-157420000D01*
X98680000Y-157420000D02*
X98680000Y-151420000D01*
X99440000Y-148362929D02*
X99440000Y-148760000D01*
X98680000Y-148362929D02*
X98680000Y-148760000D01*
X97790000Y-148760000D02*
X97790000Y-151420000D01*
X96900000Y-151420000D02*
X96900000Y-157420000D01*
X96900000Y-157420000D02*
X96140000Y-157420000D01*
X96140000Y-157420000D02*
X96140000Y-151420000D01*
X96900000Y-148362929D02*
X96900000Y-148760000D01*
X96140000Y-148362929D02*
X96140000Y-148760000D01*
X193040000Y-146050000D02*
X194310000Y-146050000D01*
X194310000Y-146050000D02*
X194310000Y-147320000D01*
X181550000Y-127695000D02*
X186750000Y-127695000D01*
X181550000Y-114935000D02*
X181550000Y-127695000D01*
X186750000Y-112335000D02*
X186750000Y-127695000D01*
X181550000Y-114935000D02*
X184150000Y-114935000D01*
X184150000Y-114935000D02*
X184150000Y-112335000D01*
X184150000Y-112335000D02*
X186750000Y-112335000D01*
X181550000Y-113665000D02*
X181550000Y-112335000D01*
X181550000Y-112335000D02*
X182880000Y-112335000D01*
X149900000Y-113755000D02*
X149900000Y-118575000D01*
X147280000Y-113755000D02*
X147280000Y-118575000D01*
X149900000Y-113755000D02*
X149586000Y-113755000D01*
X147594000Y-113755000D02*
X147280000Y-113755000D01*
X149900000Y-118575000D02*
X149586000Y-118575000D01*
X147594000Y-118575000D02*
X147280000Y-118575000D01*
X180380000Y-113755000D02*
X180380000Y-118575000D01*
X177760000Y-113755000D02*
X177760000Y-118575000D01*
X180380000Y-113755000D02*
X180066000Y-113755000D01*
X178074000Y-113755000D02*
X177760000Y-113755000D01*
X180380000Y-118575000D02*
X180066000Y-118575000D01*
X178074000Y-118575000D02*
X177760000Y-118575000D01*
X119420000Y-113755000D02*
X119420000Y-118575000D01*
X116800000Y-113755000D02*
X116800000Y-118575000D01*
X119420000Y-113755000D02*
X119106000Y-113755000D01*
X117114000Y-113755000D02*
X116800000Y-113755000D01*
X119420000Y-118575000D02*
X119106000Y-118575000D01*
X117114000Y-118575000D02*
X116800000Y-118575000D01*
X147280000Y-129575000D02*
X149900000Y-129575000D01*
X149900000Y-129575000D02*
X149900000Y-123155000D01*
X149900000Y-123155000D02*
X147280000Y-123155000D01*
X147280000Y-123155000D02*
X147280000Y-129575000D01*
X148590000Y-130465000D02*
X148590000Y-129575000D01*
X148590000Y-122265000D02*
X148590000Y-123155000D01*
X177760000Y-129575000D02*
X180380000Y-129575000D01*
X180380000Y-129575000D02*
X180380000Y-123155000D01*
X180380000Y-123155000D02*
X177760000Y-123155000D01*
X177760000Y-123155000D02*
X177760000Y-129575000D01*
X179070000Y-130465000D02*
X179070000Y-129575000D01*
X179070000Y-122265000D02*
X179070000Y-123155000D01*
X162520000Y-129575000D02*
X165140000Y-129575000D01*
X165140000Y-129575000D02*
X165140000Y-123155000D01*
X165140000Y-123155000D02*
X162520000Y-123155000D01*
X162520000Y-123155000D02*
X162520000Y-129575000D01*
X163830000Y-130465000D02*
X163830000Y-129575000D01*
X163830000Y-122265000D02*
X163830000Y-123155000D01*
X179670000Y-106640000D02*
X179670000Y-109260000D01*
X179670000Y-109260000D02*
X186090000Y-109260000D01*
X186090000Y-109260000D02*
X186090000Y-106640000D01*
X186090000Y-106640000D02*
X179670000Y-106640000D01*
X178780000Y-107950000D02*
X179670000Y-107950000D01*
X186980000Y-107950000D02*
X186090000Y-107950000D01*
X141970000Y-112335000D02*
G75*
G02X139970000Y-112335000I-1000000J0D01*
G01*
X139970000Y-112335000D02*
X138720000Y-112335000D01*
X138720000Y-112335000D02*
X138720000Y-130235000D01*
X138720000Y-130235000D02*
X143220000Y-130235000D01*
X143220000Y-130235000D02*
X143220000Y-112335000D01*
X143220000Y-112335000D02*
X141970000Y-112335000D01*
X135720000Y-112275000D02*
X135720000Y-130295000D01*
X135720000Y-130295000D02*
X146220000Y-130295000D01*
X146220000Y-130295000D02*
X146220000Y-112275000D01*
X146220000Y-112275000D02*
X135720000Y-112275000D01*
X118745000Y-108585000D02*
X120015000Y-108585000D01*
X118745000Y-107315000D02*
X118745000Y-108585000D01*
X114665000Y-93835000D02*
X173625000Y-93835000D01*
X114665000Y-103185000D02*
X114665000Y-93835000D01*
X141895000Y-103185000D02*
X141895000Y-93835000D01*
X146395000Y-103185000D02*
X146395000Y-93835000D01*
X173625000Y-103185000D02*
X173625000Y-93835000D01*
X173625000Y-103185000D02*
X114665000Y-103185000D01*
X98365000Y-102700000D02*
X108645000Y-102700000D01*
X108645000Y-102700000D02*
X108645000Y-100040000D01*
X108645000Y-100040000D02*
X98365000Y-100040000D01*
X98365000Y-100040000D02*
X98365000Y-102700000D01*
X99315000Y-100040000D02*
X99315000Y-94040000D01*
X99315000Y-94040000D02*
X100075000Y-94040000D01*
X100075000Y-94040000D02*
X100075000Y-100040000D01*
X99375000Y-100040000D02*
X99375000Y-94040000D01*
X99495000Y-100040000D02*
X99495000Y-94040000D01*
X99615000Y-100040000D02*
X99615000Y-94040000D01*
X99735000Y-100040000D02*
X99735000Y-94040000D01*
X99855000Y-100040000D02*
X99855000Y-94040000D01*
X99975000Y-100040000D02*
X99975000Y-94040000D01*
X99315000Y-103030000D02*
X99315000Y-102700000D01*
X100075000Y-103030000D02*
X100075000Y-102700000D01*
X100965000Y-102700000D02*
X100965000Y-100040000D01*
X101855000Y-100040000D02*
X101855000Y-94040000D01*
X101855000Y-94040000D02*
X102615000Y-94040000D01*
X102615000Y-94040000D02*
X102615000Y-100040000D01*
X101855000Y-103097071D02*
X101855000Y-102700000D01*
X102615000Y-103097071D02*
X102615000Y-102700000D01*
X103505000Y-102700000D02*
X103505000Y-100040000D01*
X104395000Y-100040000D02*
X104395000Y-94040000D01*
X104395000Y-94040000D02*
X105155000Y-94040000D01*
X105155000Y-94040000D02*
X105155000Y-100040000D01*
X104395000Y-103097071D02*
X104395000Y-102700000D01*
X105155000Y-103097071D02*
X105155000Y-102700000D01*
X106045000Y-102700000D02*
X106045000Y-100040000D01*
X106935000Y-100040000D02*
X106935000Y-94040000D01*
X106935000Y-94040000D02*
X107695000Y-94040000D01*
X107695000Y-94040000D02*
X107695000Y-100040000D01*
X106935000Y-103097071D02*
X106935000Y-102700000D01*
X107695000Y-103097071D02*
X107695000Y-102700000D01*
X99695000Y-105410000D02*
X98425000Y-105410000D01*
X98425000Y-105410000D02*
X98425000Y-104140000D01*
X177740000Y-102700000D02*
X188020000Y-102700000D01*
X188020000Y-102700000D02*
X188020000Y-100040000D01*
X188020000Y-100040000D02*
X177740000Y-100040000D01*
X177740000Y-100040000D02*
X177740000Y-102700000D01*
X178690000Y-100040000D02*
X178690000Y-94040000D01*
X178690000Y-94040000D02*
X179450000Y-94040000D01*
X179450000Y-94040000D02*
X179450000Y-100040000D01*
X178750000Y-100040000D02*
X178750000Y-94040000D01*
X178870000Y-100040000D02*
X178870000Y-94040000D01*
X178990000Y-100040000D02*
X178990000Y-94040000D01*
X179110000Y-100040000D02*
X179110000Y-94040000D01*
X179230000Y-100040000D02*
X179230000Y-94040000D01*
X179350000Y-100040000D02*
X179350000Y-94040000D01*
X178690000Y-103030000D02*
X178690000Y-102700000D01*
X179450000Y-103030000D02*
X179450000Y-102700000D01*
X180340000Y-102700000D02*
X180340000Y-100040000D01*
X181230000Y-100040000D02*
X181230000Y-94040000D01*
X181230000Y-94040000D02*
X181990000Y-94040000D01*
X181990000Y-94040000D02*
X181990000Y-100040000D01*
X181230000Y-103097071D02*
X181230000Y-102700000D01*
X181990000Y-103097071D02*
X181990000Y-102700000D01*
X182880000Y-102700000D02*
X182880000Y-100040000D01*
X183770000Y-100040000D02*
X183770000Y-94040000D01*
X183770000Y-94040000D02*
X184530000Y-94040000D01*
X184530000Y-94040000D02*
X184530000Y-100040000D01*
X183770000Y-103097071D02*
X183770000Y-102700000D01*
X184530000Y-103097071D02*
X184530000Y-102700000D01*
X185420000Y-102700000D02*
X185420000Y-100040000D01*
X186310000Y-100040000D02*
X186310000Y-94040000D01*
X186310000Y-94040000D02*
X187070000Y-94040000D01*
X187070000Y-94040000D02*
X187070000Y-100040000D01*
X186310000Y-103097071D02*
X186310000Y-102700000D01*
X187070000Y-103097071D02*
X187070000Y-102700000D01*
X179070000Y-105410000D02*
X177800000Y-105410000D01*
X177800000Y-105410000D02*
X177800000Y-104140000D01*
X200410000Y-100310000D02*
G75*
G02X200410000Y-105430000I0J-2560000D01*
G01*
X194250000Y-105430000D02*
X200410000Y-105430000D01*
X194250000Y-100310000D02*
X200410000Y-100310000D01*
X194250000Y-105430000D02*
X194250000Y-100310000D01*
X194250000Y-99910000D02*
X195370000Y-99910000D01*
X195370000Y-99910000D02*
X195370000Y-100310000D01*
X195370000Y-100310000D02*
X194250000Y-100310000D01*
X194250000Y-100310000D02*
X194250000Y-99910000D01*
X191580000Y-104140000D02*
X194250000Y-104140000D01*
X194250000Y-104140000D02*
X194250000Y-104140000D01*
X194250000Y-104140000D02*
X191580000Y-104140000D01*
X191580000Y-104140000D02*
X191580000Y-104140000D01*
X191580000Y-101600000D02*
X194250000Y-101600000D01*
X194250000Y-101600000D02*
X194250000Y-101600000D01*
X194250000Y-101600000D02*
X191580000Y-101600000D01*
X191580000Y-101600000D02*
X191580000Y-101600000D01*
X165140000Y-113755000D02*
X165140000Y-118575000D01*
X162520000Y-113755000D02*
X162520000Y-118575000D01*
X165140000Y-113755000D02*
X164826000Y-113755000D01*
X162834000Y-113755000D02*
X162520000Y-113755000D01*
X165140000Y-118575000D02*
X164826000Y-118575000D01*
X162834000Y-118575000D02*
X162520000Y-118575000D01*
X134660000Y-113755000D02*
X134660000Y-118575000D01*
X132040000Y-113755000D02*
X132040000Y-118575000D01*
X134660000Y-113755000D02*
X134346000Y-113755000D01*
X132354000Y-113755000D02*
X132040000Y-113755000D01*
X134660000Y-118575000D02*
X134346000Y-118575000D01*
X132354000Y-118575000D02*
X132040000Y-118575000D01*
X111490000Y-112335000D02*
G75*
G02X109490000Y-112335000I-1000000J0D01*
G01*
X109490000Y-112335000D02*
X108240000Y-112335000D01*
X108240000Y-112335000D02*
X108240000Y-137855000D01*
X108240000Y-137855000D02*
X112740000Y-137855000D01*
X112740000Y-137855000D02*
X112740000Y-112335000D01*
X112740000Y-112335000D02*
X111490000Y-112335000D01*
X105240000Y-112275000D02*
X105240000Y-137915000D01*
X105240000Y-137915000D02*
X115740000Y-137915000D01*
X115740000Y-137915000D02*
X115740000Y-112275000D01*
X115740000Y-112275000D02*
X105240000Y-112275000D01*
X126730000Y-112335000D02*
G75*
G02X124730000Y-112335000I-1000000J0D01*
G01*
X124730000Y-112335000D02*
X123480000Y-112335000D01*
X123480000Y-112335000D02*
X123480000Y-137855000D01*
X123480000Y-137855000D02*
X127980000Y-137855000D01*
X127980000Y-137855000D02*
X127980000Y-112335000D01*
X127980000Y-112335000D02*
X126730000Y-112335000D01*
X120480000Y-112275000D02*
X120480000Y-137915000D01*
X120480000Y-137915000D02*
X130980000Y-137915000D01*
X130980000Y-137915000D02*
X130980000Y-112275000D01*
X130980000Y-112275000D02*
X120480000Y-112275000D01*
X172450000Y-112335000D02*
G75*
G02X170450000Y-112335000I-1000000J0D01*
G01*
X170450000Y-112335000D02*
X169200000Y-112335000D01*
X169200000Y-112335000D02*
X169200000Y-132775000D01*
X169200000Y-132775000D02*
X173700000Y-132775000D01*
X173700000Y-132775000D02*
X173700000Y-112335000D01*
X173700000Y-112335000D02*
X172450000Y-112335000D01*
X166200000Y-112275000D02*
X166200000Y-132835000D01*
X166200000Y-132835000D02*
X176700000Y-132835000D01*
X176700000Y-132835000D02*
X176700000Y-112275000D01*
X176700000Y-112275000D02*
X166200000Y-112275000D01*
X157210000Y-112335000D02*
G75*
G02X155210000Y-112335000I-1000000J0D01*
G01*
X155210000Y-112335000D02*
X153960000Y-112335000D01*
X153960000Y-112335000D02*
X153960000Y-132775000D01*
X153960000Y-132775000D02*
X158460000Y-132775000D01*
X158460000Y-132775000D02*
X158460000Y-112335000D01*
X158460000Y-112335000D02*
X157210000Y-112335000D01*
X150960000Y-112275000D02*
X150960000Y-132835000D01*
X150960000Y-132835000D02*
X161460000Y-132835000D01*
X161460000Y-132835000D02*
X161460000Y-112275000D01*
X161460000Y-112275000D02*
X150960000Y-112275000D01*
D12*
X194762381Y-152038333D02*
X195476667Y-152038333D01*
X195619524Y-152085953D01*
X195714762Y-152181191D01*
X195762381Y-152324048D01*
X195762381Y-152419286D01*
X195762381Y-151038333D02*
X195762381Y-151609762D01*
X195762381Y-151324048D02*
X194762381Y-151324048D01*
X194905238Y-151419286D01*
X195000476Y-151514524D01*
X195048095Y-151609762D01*
X148423334Y-116562143D02*
X148375715Y-116609762D01*
X148232858Y-116657381D01*
X148137620Y-116657381D01*
X147994762Y-116609762D01*
X147899524Y-116514524D01*
X147851905Y-116419286D01*
X147804286Y-116228810D01*
X147804286Y-116085952D01*
X147851905Y-115895476D01*
X147899524Y-115800238D01*
X147994762Y-115705000D01*
X148137620Y-115657381D01*
X148232858Y-115657381D01*
X148375715Y-115705000D01*
X148423334Y-115752619D01*
X149375715Y-116657381D02*
X148804286Y-116657381D01*
X149090000Y-116657381D02*
X149090000Y-115657381D01*
X148994762Y-115800238D01*
X148899524Y-115895476D01*
X148804286Y-115943095D01*
X178903334Y-116562143D02*
X178855715Y-116609762D01*
X178712858Y-116657381D01*
X178617620Y-116657381D01*
X178474762Y-116609762D01*
X178379524Y-116514524D01*
X178331905Y-116419286D01*
X178284286Y-116228810D01*
X178284286Y-116085952D01*
X178331905Y-115895476D01*
X178379524Y-115800238D01*
X178474762Y-115705000D01*
X178617620Y-115657381D01*
X178712858Y-115657381D01*
X178855715Y-115705000D01*
X178903334Y-115752619D01*
X179236667Y-115657381D02*
X179855715Y-115657381D01*
X179522381Y-116038333D01*
X179665239Y-116038333D01*
X179760477Y-116085952D01*
X179808096Y-116133571D01*
X179855715Y-116228810D01*
X179855715Y-116466905D01*
X179808096Y-116562143D01*
X179760477Y-116609762D01*
X179665239Y-116657381D01*
X179379524Y-116657381D01*
X179284286Y-116609762D01*
X179236667Y-116562143D01*
X117943334Y-116562143D02*
X117895715Y-116609762D01*
X117752858Y-116657381D01*
X117657620Y-116657381D01*
X117514762Y-116609762D01*
X117419524Y-116514524D01*
X117371905Y-116419286D01*
X117324286Y-116228810D01*
X117324286Y-116085952D01*
X117371905Y-115895476D01*
X117419524Y-115800238D01*
X117514762Y-115705000D01*
X117657620Y-115657381D01*
X117752858Y-115657381D01*
X117895715Y-115705000D01*
X117943334Y-115752619D01*
X118324286Y-115752619D02*
X118371905Y-115705000D01*
X118467143Y-115657381D01*
X118705239Y-115657381D01*
X118800477Y-115705000D01*
X118848096Y-115752619D01*
X118895715Y-115847857D01*
X118895715Y-115943095D01*
X118848096Y-116085952D01*
X118276667Y-116657381D01*
X118895715Y-116657381D01*
X148423334Y-124912381D02*
X148090000Y-124436190D01*
X147851905Y-124912381D02*
X147851905Y-123912381D01*
X148232858Y-123912381D01*
X148328096Y-123960000D01*
X148375715Y-124007619D01*
X148423334Y-124102857D01*
X148423334Y-124245714D01*
X148375715Y-124340952D01*
X148328096Y-124388571D01*
X148232858Y-124436190D01*
X147851905Y-124436190D01*
X149375715Y-124912381D02*
X148804286Y-124912381D01*
X149090000Y-124912381D02*
X149090000Y-123912381D01*
X148994762Y-124055238D01*
X148899524Y-124150476D01*
X148804286Y-124198095D01*
X149042381Y-127754047D02*
X149042381Y-128325476D01*
X149042381Y-128039762D02*
X148042381Y-128039762D01*
X148185238Y-128135000D01*
X148280476Y-128230238D01*
X148328095Y-128325476D01*
X149042381Y-127325476D02*
X148042381Y-127325476D01*
X148661429Y-127230238D02*
X149042381Y-126944523D01*
X148375714Y-126944523D02*
X148756667Y-127325476D01*
X178903334Y-124912381D02*
X178570000Y-124436190D01*
X178331905Y-124912381D02*
X178331905Y-123912381D01*
X178712858Y-123912381D01*
X178808096Y-123960000D01*
X178855715Y-124007619D01*
X178903334Y-124102857D01*
X178903334Y-124245714D01*
X178855715Y-124340952D01*
X178808096Y-124388571D01*
X178712858Y-124436190D01*
X178331905Y-124436190D01*
X179284286Y-124007619D02*
X179331905Y-123960000D01*
X179427143Y-123912381D01*
X179665239Y-123912381D01*
X179760477Y-123960000D01*
X179808096Y-124007619D01*
X179855715Y-124102857D01*
X179855715Y-124198095D01*
X179808096Y-124340952D01*
X179236667Y-124912381D01*
X179855715Y-124912381D01*
X179522381Y-127754047D02*
X179522381Y-128325476D01*
X179522381Y-128039762D02*
X178522381Y-128039762D01*
X178665238Y-128135000D01*
X178760476Y-128230238D01*
X178808095Y-128325476D01*
X179522381Y-127325476D02*
X178522381Y-127325476D01*
X179141429Y-127230238D02*
X179522381Y-126944523D01*
X178855714Y-126944523D02*
X179236667Y-127325476D01*
X163663334Y-124912381D02*
X163330000Y-124436190D01*
X163091905Y-124912381D02*
X163091905Y-123912381D01*
X163472858Y-123912381D01*
X163568096Y-123960000D01*
X163615715Y-124007619D01*
X163663334Y-124102857D01*
X163663334Y-124245714D01*
X163615715Y-124340952D01*
X163568096Y-124388571D01*
X163472858Y-124436190D01*
X163091905Y-124436190D01*
X163996667Y-123912381D02*
X164615715Y-123912381D01*
X164282381Y-124293333D01*
X164425239Y-124293333D01*
X164520477Y-124340952D01*
X164568096Y-124388571D01*
X164615715Y-124483810D01*
X164615715Y-124721905D01*
X164568096Y-124817143D01*
X164520477Y-124864762D01*
X164425239Y-124912381D01*
X164139524Y-124912381D01*
X164044286Y-124864762D01*
X163996667Y-124817143D01*
X164282381Y-127754047D02*
X164282381Y-128325476D01*
X164282381Y-128039762D02*
X163282381Y-128039762D01*
X163425238Y-128135000D01*
X163520476Y-128230238D01*
X163568095Y-128325476D01*
X164282381Y-127325476D02*
X163282381Y-127325476D01*
X163901429Y-127230238D02*
X164282381Y-126944523D01*
X163615714Y-126944523D02*
X163996667Y-127325476D01*
X181427381Y-108116666D02*
X180951190Y-108450000D01*
X181427381Y-108688095D02*
X180427381Y-108688095D01*
X180427381Y-108307142D01*
X180475000Y-108211904D01*
X180522619Y-108164285D01*
X180617857Y-108116666D01*
X180760714Y-108116666D01*
X180855952Y-108164285D01*
X180903571Y-108211904D01*
X180951190Y-108307142D01*
X180951190Y-108688095D01*
X180760714Y-107259523D02*
X181427381Y-107259523D01*
X180379762Y-107497619D02*
X181094048Y-107735714D01*
X181094048Y-107116666D01*
X182911905Y-107497619D02*
X182959524Y-107450000D01*
X183054762Y-107402381D01*
X183292858Y-107402381D01*
X183388096Y-107450000D01*
X183435715Y-107497619D01*
X183483334Y-107592857D01*
X183483334Y-107688095D01*
X183435715Y-107830952D01*
X182864286Y-108402381D01*
X183483334Y-108402381D01*
X183864286Y-107497619D02*
X183911905Y-107450000D01*
X184007143Y-107402381D01*
X184245239Y-107402381D01*
X184340477Y-107450000D01*
X184388096Y-107497619D01*
X184435715Y-107592857D01*
X184435715Y-107688095D01*
X184388096Y-107830952D01*
X183816667Y-108402381D01*
X184435715Y-108402381D01*
X185054762Y-107402381D02*
X185150001Y-107402381D01*
X185245239Y-107450000D01*
X185292858Y-107497619D01*
X185340477Y-107592857D01*
X185388096Y-107783333D01*
X185388096Y-108021429D01*
X185340477Y-108211905D01*
X185292858Y-108307143D01*
X185245239Y-108354762D01*
X185150001Y-108402381D01*
X185054762Y-108402381D01*
X184959524Y-108354762D01*
X184911905Y-108307143D01*
X184864286Y-108211905D01*
X184816667Y-108021429D01*
X184816667Y-107783333D01*
X184864286Y-107592857D01*
X184911905Y-107497619D01*
X184959524Y-107450000D01*
X185054762Y-107402381D01*
X140208095Y-115657381D02*
X140208095Y-116466905D01*
X140255714Y-116562143D01*
X140303333Y-116609762D01*
X140398571Y-116657381D01*
X140589048Y-116657381D01*
X140684286Y-116609762D01*
X140731905Y-116562143D01*
X140779524Y-116466905D01*
X140779524Y-115657381D01*
X141779524Y-116657381D02*
X141208095Y-116657381D01*
X141493809Y-116657381D02*
X141493809Y-115657381D01*
X141398571Y-115800238D01*
X141303333Y-115895476D01*
X141208095Y-115943095D01*
X140422381Y-123927857D02*
X140422381Y-123261190D01*
X141422381Y-123689762D01*
X140755714Y-122451666D02*
X141422381Y-122451666D01*
X140374762Y-122689762D02*
X141089048Y-122927857D01*
X141089048Y-122308809D01*
X141422381Y-121451666D02*
X141422381Y-121927857D01*
X140422381Y-121927857D01*
X141374762Y-121165952D02*
X141422381Y-121023095D01*
X141422381Y-120784999D01*
X141374762Y-120689761D01*
X141327143Y-120642142D01*
X141231905Y-120594523D01*
X141136667Y-120594523D01*
X141041429Y-120642142D01*
X140993810Y-120689761D01*
X140946190Y-120784999D01*
X140898571Y-120975476D01*
X140850952Y-121070714D01*
X140803333Y-121118333D01*
X140708095Y-121165952D01*
X140612857Y-121165952D01*
X140517619Y-121118333D01*
X140470000Y-121070714D01*
X140422381Y-120975476D01*
X140422381Y-120737380D01*
X140470000Y-120594523D01*
X140422381Y-119975476D02*
X140422381Y-119880237D01*
X140470000Y-119784999D01*
X140517619Y-119737380D01*
X140612857Y-119689761D01*
X140803333Y-119642142D01*
X141041429Y-119642142D01*
X141231905Y-119689761D01*
X141327143Y-119737380D01*
X141374762Y-119784999D01*
X141422381Y-119880237D01*
X141422381Y-119975476D01*
X141374762Y-120070714D01*
X141327143Y-120118333D01*
X141231905Y-120165952D01*
X141041429Y-120213571D01*
X140803333Y-120213571D01*
X140612857Y-120165952D01*
X140517619Y-120118333D01*
X140470000Y-120070714D01*
X140422381Y-119975476D01*
X140422381Y-119023095D02*
X140422381Y-118927856D01*
X140470000Y-118832618D01*
X140517619Y-118784999D01*
X140612857Y-118737380D01*
X140803333Y-118689761D01*
X141041429Y-118689761D01*
X141231905Y-118737380D01*
X141327143Y-118784999D01*
X141374762Y-118832618D01*
X141422381Y-118927856D01*
X141422381Y-119023095D01*
X141374762Y-119118333D01*
X141327143Y-119165952D01*
X141231905Y-119213571D01*
X141041429Y-119261190D01*
X140803333Y-119261190D01*
X140612857Y-119213571D01*
X140517619Y-119165952D01*
X140470000Y-119118333D01*
X140422381Y-119023095D01*
X143811667Y-97877381D02*
X143811667Y-98591667D01*
X143764047Y-98734524D01*
X143668809Y-98829762D01*
X143525952Y-98877381D01*
X143430714Y-98877381D01*
X144192619Y-97877381D02*
X144811667Y-97877381D01*
X144478333Y-98258333D01*
X144621191Y-98258333D01*
X144716429Y-98305952D01*
X144764048Y-98353571D01*
X144811667Y-98448810D01*
X144811667Y-98686905D01*
X144764048Y-98782143D01*
X144716429Y-98829762D01*
X144621191Y-98877381D01*
X144335476Y-98877381D01*
X144240238Y-98829762D01*
X144192619Y-98782143D01*
X101901667Y-101052381D02*
X101901667Y-101766667D01*
X101854047Y-101909524D01*
X101758809Y-102004762D01*
X101615952Y-102052381D01*
X101520714Y-102052381D01*
X102806429Y-101385714D02*
X102806429Y-102052381D01*
X102568333Y-101004762D02*
X102330238Y-101719048D01*
X102949286Y-101719048D01*
X181276667Y-101052381D02*
X181276667Y-101766667D01*
X181229047Y-101909524D01*
X181133809Y-102004762D01*
X180990952Y-102052381D01*
X180895714Y-102052381D01*
X182229048Y-101052381D02*
X181752857Y-101052381D01*
X181705238Y-101528571D01*
X181752857Y-101480952D01*
X181848095Y-101433333D01*
X182086191Y-101433333D01*
X182181429Y-101480952D01*
X182229048Y-101528571D01*
X182276667Y-101623810D01*
X182276667Y-101861905D01*
X182229048Y-101957143D01*
X182181429Y-102004762D01*
X182086191Y-102052381D01*
X181848095Y-102052381D01*
X181752857Y-102004762D01*
X181705238Y-101957143D01*
X194841905Y-102052381D02*
X194841905Y-101052381D01*
X195080000Y-101052381D01*
X195222858Y-101100000D01*
X195318096Y-101195238D01*
X195365715Y-101290476D01*
X195413334Y-101480952D01*
X195413334Y-101623810D01*
X195365715Y-101814286D01*
X195318096Y-101909524D01*
X195222858Y-102004762D01*
X195080000Y-102052381D01*
X194841905Y-102052381D01*
X196365715Y-102052381D02*
X195794286Y-102052381D01*
X196080000Y-102052381D02*
X196080000Y-101052381D01*
X195984762Y-101195238D01*
X195889524Y-101290476D01*
X195794286Y-101338095D01*
X163663334Y-116562143D02*
X163615715Y-116609762D01*
X163472858Y-116657381D01*
X163377620Y-116657381D01*
X163234762Y-116609762D01*
X163139524Y-116514524D01*
X163091905Y-116419286D01*
X163044286Y-116228810D01*
X163044286Y-116085952D01*
X163091905Y-115895476D01*
X163139524Y-115800238D01*
X163234762Y-115705000D01*
X163377620Y-115657381D01*
X163472858Y-115657381D01*
X163615715Y-115705000D01*
X163663334Y-115752619D01*
X164520477Y-115990714D02*
X164520477Y-116657381D01*
X164282381Y-115609762D02*
X164044286Y-116324048D01*
X164663334Y-116324048D01*
X133183334Y-116562143D02*
X133135715Y-116609762D01*
X132992858Y-116657381D01*
X132897620Y-116657381D01*
X132754762Y-116609762D01*
X132659524Y-116514524D01*
X132611905Y-116419286D01*
X132564286Y-116228810D01*
X132564286Y-116085952D01*
X132611905Y-115895476D01*
X132659524Y-115800238D01*
X132754762Y-115705000D01*
X132897620Y-115657381D01*
X132992858Y-115657381D01*
X133135715Y-115705000D01*
X133183334Y-115752619D01*
X134088096Y-115657381D02*
X133611905Y-115657381D01*
X133564286Y-116133571D01*
X133611905Y-116085952D01*
X133707143Y-116038333D01*
X133945239Y-116038333D01*
X134040477Y-116085952D01*
X134088096Y-116133571D01*
X134135715Y-116228810D01*
X134135715Y-116466905D01*
X134088096Y-116562143D01*
X134040477Y-116609762D01*
X133945239Y-116657381D01*
X133707143Y-116657381D01*
X133611905Y-116609762D01*
X133564286Y-116562143D01*
X109728095Y-115657381D02*
X109728095Y-116466905D01*
X109775714Y-116562143D01*
X109823333Y-116609762D01*
X109918571Y-116657381D01*
X110109048Y-116657381D01*
X110204286Y-116609762D01*
X110251905Y-116562143D01*
X110299524Y-116466905D01*
X110299524Y-115657381D01*
X110728095Y-115752619D02*
X110775714Y-115705000D01*
X110870952Y-115657381D01*
X111109048Y-115657381D01*
X111204286Y-115705000D01*
X111251905Y-115752619D01*
X111299524Y-115847857D01*
X111299524Y-115943095D01*
X111251905Y-116085952D01*
X110680476Y-116657381D01*
X111299524Y-116657381D01*
X109942381Y-125039048D02*
X109942381Y-124372381D01*
X110942381Y-124800953D01*
X110275714Y-123562857D02*
X110942381Y-123562857D01*
X109894762Y-123800953D02*
X110609048Y-124039048D01*
X110609048Y-123420000D01*
X110942381Y-122562857D02*
X110942381Y-123039048D01*
X109942381Y-123039048D01*
X110894762Y-122277143D02*
X110942381Y-122134286D01*
X110942381Y-121896190D01*
X110894762Y-121800952D01*
X110847143Y-121753333D01*
X110751905Y-121705714D01*
X110656667Y-121705714D01*
X110561429Y-121753333D01*
X110513810Y-121800952D01*
X110466190Y-121896190D01*
X110418571Y-122086667D01*
X110370952Y-122181905D01*
X110323333Y-122229524D01*
X110228095Y-122277143D01*
X110132857Y-122277143D01*
X110037619Y-122229524D01*
X109990000Y-122181905D01*
X109942381Y-122086667D01*
X109942381Y-121848571D01*
X109990000Y-121705714D01*
X110037619Y-121324762D02*
X109990000Y-121277143D01*
X109942381Y-121181905D01*
X109942381Y-120943809D01*
X109990000Y-120848571D01*
X110037619Y-120800952D01*
X110132857Y-120753333D01*
X110228095Y-120753333D01*
X110370952Y-120800952D01*
X110942381Y-121372381D01*
X110942381Y-120753333D01*
X110275714Y-119896190D02*
X110942381Y-119896190D01*
X109894762Y-120134286D02*
X110609048Y-120372381D01*
X110609048Y-119753333D01*
X109942381Y-118896190D02*
X109942381Y-119372381D01*
X110418571Y-119420000D01*
X110370952Y-119372381D01*
X110323333Y-119277143D01*
X110323333Y-119039047D01*
X110370952Y-118943809D01*
X110418571Y-118896190D01*
X110513810Y-118848571D01*
X110751905Y-118848571D01*
X110847143Y-118896190D01*
X110894762Y-118943809D01*
X110942381Y-119039047D01*
X110942381Y-119277143D01*
X110894762Y-119372381D01*
X110847143Y-119420000D01*
X124968095Y-115657381D02*
X124968095Y-116466905D01*
X125015714Y-116562143D01*
X125063333Y-116609762D01*
X125158571Y-116657381D01*
X125349048Y-116657381D01*
X125444286Y-116609762D01*
X125491905Y-116562143D01*
X125539524Y-116466905D01*
X125539524Y-115657381D01*
X126491905Y-115657381D02*
X126015714Y-115657381D01*
X125968095Y-116133571D01*
X126015714Y-116085952D01*
X126110952Y-116038333D01*
X126349048Y-116038333D01*
X126444286Y-116085952D01*
X126491905Y-116133571D01*
X126539524Y-116228810D01*
X126539524Y-116466905D01*
X126491905Y-116562143D01*
X126444286Y-116609762D01*
X126349048Y-116657381D01*
X126110952Y-116657381D01*
X126015714Y-116609762D01*
X125968095Y-116562143D01*
X125182381Y-125039048D02*
X125182381Y-124372381D01*
X126182381Y-124800953D01*
X125515714Y-123562857D02*
X126182381Y-123562857D01*
X125134762Y-123800953D02*
X125849048Y-124039048D01*
X125849048Y-123420000D01*
X126182381Y-122562857D02*
X126182381Y-123039048D01*
X125182381Y-123039048D01*
X126134762Y-122277143D02*
X126182381Y-122134286D01*
X126182381Y-121896190D01*
X126134762Y-121800952D01*
X126087143Y-121753333D01*
X125991905Y-121705714D01*
X125896667Y-121705714D01*
X125801429Y-121753333D01*
X125753810Y-121800952D01*
X125706190Y-121896190D01*
X125658571Y-122086667D01*
X125610952Y-122181905D01*
X125563333Y-122229524D01*
X125468095Y-122277143D01*
X125372857Y-122277143D01*
X125277619Y-122229524D01*
X125230000Y-122181905D01*
X125182381Y-122086667D01*
X125182381Y-121848571D01*
X125230000Y-121705714D01*
X125277619Y-121324762D02*
X125230000Y-121277143D01*
X125182381Y-121181905D01*
X125182381Y-120943809D01*
X125230000Y-120848571D01*
X125277619Y-120800952D01*
X125372857Y-120753333D01*
X125468095Y-120753333D01*
X125610952Y-120800952D01*
X126182381Y-121372381D01*
X126182381Y-120753333D01*
X125515714Y-119896190D02*
X126182381Y-119896190D01*
X125134762Y-120134286D02*
X125849048Y-120372381D01*
X125849048Y-119753333D01*
X125515714Y-118943809D02*
X126182381Y-118943809D01*
X125134762Y-119181905D02*
X125849048Y-119420000D01*
X125849048Y-118800952D01*
X170688095Y-115657381D02*
X170688095Y-116466905D01*
X170735714Y-116562143D01*
X170783333Y-116609762D01*
X170878571Y-116657381D01*
X171069048Y-116657381D01*
X171164286Y-116609762D01*
X171211905Y-116562143D01*
X171259524Y-116466905D01*
X171259524Y-115657381D01*
X171640476Y-115657381D02*
X172259524Y-115657381D01*
X171926190Y-116038333D01*
X172069048Y-116038333D01*
X172164286Y-116085952D01*
X172211905Y-116133571D01*
X172259524Y-116228810D01*
X172259524Y-116466905D01*
X172211905Y-116562143D01*
X172164286Y-116609762D01*
X172069048Y-116657381D01*
X171783333Y-116657381D01*
X171688095Y-116609762D01*
X171640476Y-116562143D01*
X170902381Y-125039048D02*
X170902381Y-124372381D01*
X171902381Y-124800953D01*
X171235714Y-123562857D02*
X171902381Y-123562857D01*
X170854762Y-123800953D02*
X171569048Y-124039048D01*
X171569048Y-123420000D01*
X171902381Y-122562857D02*
X171902381Y-123039048D01*
X170902381Y-123039048D01*
X171854762Y-122277143D02*
X171902381Y-122134286D01*
X171902381Y-121896190D01*
X171854762Y-121800952D01*
X171807143Y-121753333D01*
X171711905Y-121705714D01*
X171616667Y-121705714D01*
X171521429Y-121753333D01*
X171473810Y-121800952D01*
X171426190Y-121896190D01*
X171378571Y-122086667D01*
X171330952Y-122181905D01*
X171283333Y-122229524D01*
X171188095Y-122277143D01*
X171092857Y-122277143D01*
X170997619Y-122229524D01*
X170950000Y-122181905D01*
X170902381Y-122086667D01*
X170902381Y-121848571D01*
X170950000Y-121705714D01*
X171902381Y-120753333D02*
X171902381Y-121324762D01*
X171902381Y-121039048D02*
X170902381Y-121039048D01*
X171045238Y-121134286D01*
X171140476Y-121229524D01*
X171188095Y-121324762D01*
X170902381Y-120420000D02*
X170902381Y-119800952D01*
X171283333Y-120134286D01*
X171283333Y-119991428D01*
X171330952Y-119896190D01*
X171378571Y-119848571D01*
X171473810Y-119800952D01*
X171711905Y-119800952D01*
X171807143Y-119848571D01*
X171854762Y-119896190D01*
X171902381Y-119991428D01*
X171902381Y-120277143D01*
X171854762Y-120372381D01*
X171807143Y-120420000D01*
X171330952Y-119229524D02*
X171283333Y-119324762D01*
X171235714Y-119372381D01*
X171140476Y-119420000D01*
X171092857Y-119420000D01*
X170997619Y-119372381D01*
X170950000Y-119324762D01*
X170902381Y-119229524D01*
X170902381Y-119039047D01*
X170950000Y-118943809D01*
X170997619Y-118896190D01*
X171092857Y-118848571D01*
X171140476Y-118848571D01*
X171235714Y-118896190D01*
X171283333Y-118943809D01*
X171330952Y-119039047D01*
X171330952Y-119229524D01*
X171378571Y-119324762D01*
X171426190Y-119372381D01*
X171521429Y-119420000D01*
X171711905Y-119420000D01*
X171807143Y-119372381D01*
X171854762Y-119324762D01*
X171902381Y-119229524D01*
X171902381Y-119039047D01*
X171854762Y-118943809D01*
X171807143Y-118896190D01*
X171711905Y-118848571D01*
X171521429Y-118848571D01*
X171426190Y-118896190D01*
X171378571Y-118943809D01*
X171330952Y-119039047D01*
X155448095Y-115657381D02*
X155448095Y-116466905D01*
X155495714Y-116562143D01*
X155543333Y-116609762D01*
X155638571Y-116657381D01*
X155829048Y-116657381D01*
X155924286Y-116609762D01*
X155971905Y-116562143D01*
X156019524Y-116466905D01*
X156019524Y-115657381D01*
X156924286Y-115990714D02*
X156924286Y-116657381D01*
X156686190Y-115609762D02*
X156448095Y-116324048D01*
X157067143Y-116324048D01*
X155662381Y-125039048D02*
X155662381Y-124372381D01*
X156662381Y-124800953D01*
X155995714Y-123562857D02*
X156662381Y-123562857D01*
X155614762Y-123800953D02*
X156329048Y-124039048D01*
X156329048Y-123420000D01*
X156662381Y-122562857D02*
X156662381Y-123039048D01*
X155662381Y-123039048D01*
X156614762Y-122277143D02*
X156662381Y-122134286D01*
X156662381Y-121896190D01*
X156614762Y-121800952D01*
X156567143Y-121753333D01*
X156471905Y-121705714D01*
X156376667Y-121705714D01*
X156281429Y-121753333D01*
X156233810Y-121800952D01*
X156186190Y-121896190D01*
X156138571Y-122086667D01*
X156090952Y-122181905D01*
X156043333Y-122229524D01*
X155948095Y-122277143D01*
X155852857Y-122277143D01*
X155757619Y-122229524D01*
X155710000Y-122181905D01*
X155662381Y-122086667D01*
X155662381Y-121848571D01*
X155710000Y-121705714D01*
X156662381Y-120753333D02*
X156662381Y-121324762D01*
X156662381Y-121039048D02*
X155662381Y-121039048D01*
X155805238Y-121134286D01*
X155900476Y-121229524D01*
X155948095Y-121324762D01*
X155662381Y-120420000D02*
X155662381Y-119800952D01*
X156043333Y-120134286D01*
X156043333Y-119991428D01*
X156090952Y-119896190D01*
X156138571Y-119848571D01*
X156233810Y-119800952D01*
X156471905Y-119800952D01*
X156567143Y-119848571D01*
X156614762Y-119896190D01*
X156662381Y-119991428D01*
X156662381Y-120277143D01*
X156614762Y-120372381D01*
X156567143Y-120420000D01*
X156090952Y-119229524D02*
X156043333Y-119324762D01*
X155995714Y-119372381D01*
X155900476Y-119420000D01*
X155852857Y-119420000D01*
X155757619Y-119372381D01*
X155710000Y-119324762D01*
X155662381Y-119229524D01*
X155662381Y-119039047D01*
X155710000Y-118943809D01*
X155757619Y-118896190D01*
X155852857Y-118848571D01*
X155900476Y-118848571D01*
X155995714Y-118896190D01*
X156043333Y-118943809D01*
X156090952Y-119039047D01*
X156090952Y-119229524D01*
X156138571Y-119324762D01*
X156186190Y-119372381D01*
X156281429Y-119420000D01*
X156471905Y-119420000D01*
X156567143Y-119372381D01*
X156614762Y-119324762D01*
X156662381Y-119229524D01*
X156662381Y-119039047D01*
X156614762Y-118943809D01*
X156567143Y-118896190D01*
X156471905Y-118848571D01*
X156281429Y-118848571D01*
X156186190Y-118896190D01*
X156138571Y-118943809D01*
X156090952Y-119039047D01*
M02*
