M48
;DRILL file {KiCad 4.0.7} date 01/25/20 16:01:33
;FORMAT={2:4/ absolute / inch / suppress leading zeros}
FMAT,2
INCH,TZ
T1C0.016
T2C0.031
T3C0.035
T4C0.039
T5C0.040
%
G90
G05
M72
T1
X37750Y-47750
X42250Y-43750
X42500Y-44000
X42750Y-47250
X43000Y-48500
X43250Y-49500
X43500Y-50500
X43750Y-51500
X44000Y-52500
X45750Y-47250
X46000Y-42250
X46000Y-47500
X46250Y-42500
X47250Y-48250
X49000Y-48000
X49250Y-48750
X49250Y-50000
X49500Y-50250
X49500Y-52000
X52500Y-53000
X52750Y-52250
X57750Y-44500
X57750Y-45000
X58000Y-44250
X58000Y-45250
X59000Y-50750
X60500Y-57500
X60750Y-43750
X60750Y-51000
X61000Y-43500
X61000Y-51250
X61250Y-43750
X61250Y-51000
X61500Y-49250
X61500Y-54000
X61750Y-43750
X61750Y-45500
X61750Y-49000
X62000Y-46500
X62000Y-49250
X62250Y-47000
X62250Y-49000
X62500Y-54000
X64750Y-43500
X65000Y-44250
X67250Y-43750
X67250Y-52500
X67500Y-47750
X67750Y-45500
X67750Y-48500
X68000Y-46500
X68000Y-48750
X68250Y-47000
X68250Y-48500
X68500Y-52500
X76250Y-40250
X76250Y-44250
X76250Y-52000
T2
X42000Y-44750
X42000Y-45750
X42000Y-46750
X42000Y-47750
X42000Y-48750
X42000Y-49750
X42000Y-50750
X42000Y-51750
X42000Y-52750
X42000Y-53750
X45000Y-44750
X45000Y-45750
X45000Y-46750
X45000Y-47750
X45000Y-48750
X45000Y-49750
X45000Y-50750
X45000Y-51750
X45000Y-52750
X45000Y-53750
X46500Y-44750
X46500Y-46719
X48000Y-44750
X48000Y-45750
X48000Y-46750
X48000Y-47750
X48000Y-48750
X48000Y-49750
X48000Y-50750
X48000Y-51750
X48000Y-52750
X48000Y-53750
X51000Y-44750
X51000Y-45750
X51000Y-46750
X51000Y-47750
X51000Y-48750
X51000Y-49750
X51000Y-50750
X51000Y-51750
X51000Y-52750
X51000Y-53750
X52500Y-44750
X52500Y-46719
X54000Y-44750
X54000Y-45750
X54000Y-46750
X54000Y-47750
X54000Y-48750
X54000Y-49750
X54000Y-50750
X57000Y-44750
X57000Y-45750
X57000Y-46750
X57000Y-47750
X57000Y-48750
X57000Y-49750
X57000Y-50750
X58500Y-44750
X58500Y-46719
X58500Y-47750
X58500Y-51750
X60000Y-44750
X60000Y-45750
X60000Y-46750
X60000Y-47750
X60000Y-48750
X60000Y-49750
X60000Y-50750
X60000Y-51750
X63000Y-44750
X63000Y-45750
X63000Y-46750
X63000Y-47750
X63000Y-48750
X63000Y-49750
X63000Y-50750
X63000Y-51750
X64500Y-44750
X64500Y-46719
X64500Y-47750
X64500Y-51750
X66000Y-44750
X66000Y-45750
X66000Y-46750
X66000Y-47750
X66000Y-48750
X66000Y-49750
X66000Y-50750
X66000Y-51750
X69000Y-44750
X69000Y-45750
X69000Y-46750
X69000Y-47750
X69000Y-48750
X69000Y-49750
X69000Y-50750
X69000Y-51750
X70000Y-42500
X70500Y-44750
X70500Y-46719
X70500Y-47750
X70500Y-51750
X74000Y-42500
T3
X75000Y-40000
X75000Y-41000
T4
X38000Y-58000
X39000Y-58000
X39250Y-41000
X40000Y-58000
X40250Y-41000
X41000Y-58000
X41250Y-41000
X42000Y-58000
X42250Y-41000
X43000Y-58000
X44000Y-58000
X45000Y-58000
X46000Y-58000
X47000Y-58000
X48000Y-58000
X49000Y-58000
X50000Y-58000
X51000Y-58000
X52000Y-58000
X53000Y-58000
X54000Y-58000
X55000Y-58000
X56000Y-58000
X57000Y-58000
X58000Y-58000
X59000Y-58000
X60000Y-58000
X61000Y-58000
X62000Y-58000
X63000Y-58000
X64000Y-58000
X65000Y-58000
X66000Y-58000
X67000Y-58000
X68000Y-58000
X69000Y-58000
X70000Y-58000
X70500Y-41000
X71000Y-58000
X71500Y-41000
X72000Y-44750
X72000Y-45750
X72000Y-46750
X72000Y-47750
X72000Y-48750
X72000Y-49750
X72000Y-58000
X72500Y-41000
X73000Y-44750
X73000Y-45750
X73000Y-46750
X73000Y-47750
X73000Y-48750
X73000Y-49750
X73000Y-58000
X73500Y-41000
X74000Y-58000
X75000Y-58000
X76000Y-58000
T5
X47250Y-41250
X47250Y-42250
X48250Y-41250
X48250Y-42250
X49250Y-41250
X49250Y-42250
X50250Y-41250
X50250Y-42250
X51250Y-41250
X51250Y-42250
X52250Y-41250
X52250Y-42250
X53250Y-41250
X53250Y-42250
X54250Y-41250
X54250Y-42250
X55250Y-41250
X55250Y-42250
X56250Y-41250
X56250Y-42250
X57250Y-41250
X57250Y-42250
X58250Y-41250
X58250Y-42250
X59250Y-41250
X59250Y-42250
X60250Y-41250
X60250Y-42250
X61250Y-41250
X61250Y-42250
X62250Y-41250
X62250Y-42250
X63250Y-41250
X63250Y-42250
X64250Y-41250
X64250Y-42250
X65250Y-41250
X65250Y-42250
X66250Y-41250
X66250Y-42250
T0
M30
