G04 #@! TF.FileFunction,Copper,L1,Top,Signal*
%FSLAX46Y46*%
G04 Gerber Fmt 4.6, Leading zero omitted, Abs format (unit mm)*
G04 Created by KiCad (PCBNEW 4.0.7) date 01/25/20 16:01:31*
%MOMM*%
%LPD*%
G01*
G04 APERTURE LIST*
%ADD10C,0.100000*%
%ADD11R,1.700000X1.700000*%
%ADD12O,1.700000X1.700000*%
%ADD13C,1.600000*%
%ADD14O,1.600000X1.600000*%
%ADD15R,2.400000X1.600000*%
%ADD16O,2.400000X1.600000*%
%ADD17R,1.727200X1.727200*%
%ADD18O,1.727200X1.727200*%
%ADD19R,1.800000X1.800000*%
%ADD20C,1.800000*%
%ADD21C,0.600000*%
%ADD22C,0.250000*%
G04 APERTURE END LIST*
D10*
D11*
X193040000Y-147320000D03*
D12*
X190500000Y-147320000D03*
X187960000Y-147320000D03*
X185420000Y-147320000D03*
X182880000Y-147320000D03*
X180340000Y-147320000D03*
X177800000Y-147320000D03*
X175260000Y-147320000D03*
X172720000Y-147320000D03*
X170180000Y-147320000D03*
X167640000Y-147320000D03*
X165100000Y-147320000D03*
X162560000Y-147320000D03*
X160020000Y-147320000D03*
X157480000Y-147320000D03*
X154940000Y-147320000D03*
X152400000Y-147320000D03*
X149860000Y-147320000D03*
X147320000Y-147320000D03*
X144780000Y-147320000D03*
X142240000Y-147320000D03*
X139700000Y-147320000D03*
X137160000Y-147320000D03*
X134620000Y-147320000D03*
X132080000Y-147320000D03*
X129540000Y-147320000D03*
X127000000Y-147320000D03*
X124460000Y-147320000D03*
X121920000Y-147320000D03*
X119380000Y-147320000D03*
X116840000Y-147320000D03*
X114300000Y-147320000D03*
X111760000Y-147320000D03*
X109220000Y-147320000D03*
X106680000Y-147320000D03*
X104140000Y-147320000D03*
X101600000Y-147320000D03*
X99060000Y-147320000D03*
X96520000Y-147320000D03*
D11*
X182880000Y-113665000D03*
D12*
X185420000Y-113665000D03*
X182880000Y-116205000D03*
X185420000Y-116205000D03*
X182880000Y-118745000D03*
X185420000Y-118745000D03*
X182880000Y-121285000D03*
X185420000Y-121285000D03*
X182880000Y-123825000D03*
X185420000Y-123825000D03*
X182880000Y-126365000D03*
X185420000Y-126365000D03*
D13*
X148590000Y-113665000D03*
X148590000Y-118665000D03*
X179070000Y-113665000D03*
X179070000Y-118665000D03*
X118110000Y-113665000D03*
X118110000Y-118665000D03*
X148590000Y-131445000D03*
D14*
X148590000Y-121285000D03*
D13*
X179070000Y-131445000D03*
D14*
X179070000Y-121285000D03*
D13*
X163830000Y-131445000D03*
D14*
X163830000Y-121285000D03*
D13*
X177800000Y-107950000D03*
D14*
X187960000Y-107950000D03*
D15*
X137160000Y-113665000D03*
D16*
X144780000Y-128905000D03*
X137160000Y-116205000D03*
X144780000Y-126365000D03*
X137160000Y-118745000D03*
X144780000Y-123825000D03*
X137160000Y-121285000D03*
X144780000Y-121285000D03*
X137160000Y-123825000D03*
X144780000Y-118745000D03*
X137160000Y-126365000D03*
X144780000Y-116205000D03*
X137160000Y-128905000D03*
X144780000Y-113665000D03*
D17*
X120015000Y-107315000D03*
D18*
X120015000Y-104775000D03*
X122555000Y-107315000D03*
X122555000Y-104775000D03*
X125095000Y-107315000D03*
X125095000Y-104775000D03*
X127635000Y-107315000D03*
X127635000Y-104775000D03*
X130175000Y-107315000D03*
X130175000Y-104775000D03*
X132715000Y-107315000D03*
X132715000Y-104775000D03*
X135255000Y-107315000D03*
X135255000Y-104775000D03*
X137795000Y-107315000D03*
X137795000Y-104775000D03*
X140335000Y-107315000D03*
X140335000Y-104775000D03*
X142875000Y-107315000D03*
X142875000Y-104775000D03*
X145415000Y-107315000D03*
X145415000Y-104775000D03*
X147955000Y-107315000D03*
X147955000Y-104775000D03*
X150495000Y-107315000D03*
X150495000Y-104775000D03*
X153035000Y-107315000D03*
X153035000Y-104775000D03*
X155575000Y-107315000D03*
X155575000Y-104775000D03*
X158115000Y-107315000D03*
X158115000Y-104775000D03*
X160655000Y-107315000D03*
X160655000Y-104775000D03*
X163195000Y-107315000D03*
X163195000Y-104775000D03*
X165735000Y-107315000D03*
X165735000Y-104775000D03*
X168275000Y-107315000D03*
X168275000Y-104775000D03*
D11*
X99695000Y-104140000D03*
D12*
X102235000Y-104140000D03*
X104775000Y-104140000D03*
X107315000Y-104140000D03*
D11*
X179070000Y-104140000D03*
D12*
X181610000Y-104140000D03*
X184150000Y-104140000D03*
X186690000Y-104140000D03*
D19*
X190500000Y-104140000D03*
D20*
X190500000Y-101600000D03*
D13*
X163830000Y-113665000D03*
X163830000Y-118665000D03*
X133350000Y-113665000D03*
X133350000Y-118665000D03*
D15*
X106680000Y-113665000D03*
D16*
X114300000Y-136525000D03*
X106680000Y-116205000D03*
X114300000Y-133985000D03*
X106680000Y-118745000D03*
X114300000Y-131445000D03*
X106680000Y-121285000D03*
X114300000Y-128905000D03*
X106680000Y-123825000D03*
X114300000Y-126365000D03*
X106680000Y-126365000D03*
X114300000Y-123825000D03*
X106680000Y-128905000D03*
X114300000Y-121285000D03*
X106680000Y-131445000D03*
X114300000Y-118745000D03*
X106680000Y-133985000D03*
X114300000Y-116205000D03*
X106680000Y-136525000D03*
X114300000Y-113665000D03*
D15*
X121920000Y-113665000D03*
D16*
X129540000Y-136525000D03*
X121920000Y-116205000D03*
X129540000Y-133985000D03*
X121920000Y-118745000D03*
X129540000Y-131445000D03*
X121920000Y-121285000D03*
X129540000Y-128905000D03*
X121920000Y-123825000D03*
X129540000Y-126365000D03*
X121920000Y-126365000D03*
X129540000Y-123825000D03*
X121920000Y-128905000D03*
X129540000Y-121285000D03*
X121920000Y-131445000D03*
X129540000Y-118745000D03*
X121920000Y-133985000D03*
X129540000Y-116205000D03*
X121920000Y-136525000D03*
X129540000Y-113665000D03*
D15*
X167640000Y-113665000D03*
D16*
X175260000Y-131445000D03*
X167640000Y-116205000D03*
X175260000Y-128905000D03*
X167640000Y-118745000D03*
X175260000Y-126365000D03*
X167640000Y-121285000D03*
X175260000Y-123825000D03*
X167640000Y-123825000D03*
X175260000Y-121285000D03*
X167640000Y-126365000D03*
X175260000Y-118745000D03*
X167640000Y-128905000D03*
X175260000Y-116205000D03*
X167640000Y-131445000D03*
X175260000Y-113665000D03*
D15*
X152400000Y-113665000D03*
D16*
X160020000Y-131445000D03*
X152400000Y-116205000D03*
X160020000Y-128905000D03*
X152400000Y-118745000D03*
X160020000Y-126365000D03*
X152400000Y-121285000D03*
X160020000Y-123825000D03*
X152400000Y-123825000D03*
X160020000Y-121285000D03*
X152400000Y-126365000D03*
X160020000Y-118745000D03*
X152400000Y-128905000D03*
X160020000Y-116205000D03*
X152400000Y-131445000D03*
X160020000Y-113665000D03*
D21*
X173990000Y-133350000D03*
X170815000Y-133350000D03*
X193675000Y-132080000D03*
X107315000Y-111125000D03*
X193675000Y-112395000D03*
X153670000Y-146050000D03*
X193675000Y-102235000D03*
X95885000Y-121285000D03*
X173355000Y-119380000D03*
X173355000Y-123190000D03*
X172720000Y-118110000D03*
X172720000Y-123825000D03*
X172085000Y-115570000D03*
X172085000Y-123190000D03*
X158115000Y-124460000D03*
X158115000Y-119380000D03*
X157480000Y-118110000D03*
X157480000Y-125095000D03*
X156845000Y-115570000D03*
X156845000Y-124460000D03*
X154305000Y-129540000D03*
X154305000Y-111125000D03*
X133985000Y-132715000D03*
X155575000Y-111125000D03*
X155575000Y-129540000D03*
X133350000Y-134620000D03*
X156210000Y-137160000D03*
X158750000Y-137160000D03*
X111760000Y-133350000D03*
X111125000Y-130810000D03*
X110490000Y-128270000D03*
X109855000Y-125730000D03*
X109220000Y-123190000D03*
X108585000Y-120015000D03*
X117475000Y-107950000D03*
X107950000Y-111760000D03*
X125095000Y-123825000D03*
X116840000Y-107315000D03*
X116840000Y-120650000D03*
X120015000Y-122555000D03*
X147320000Y-112395000D03*
X147320000Y-114935000D03*
X154940000Y-110490000D03*
X154940000Y-130175000D03*
X125730000Y-127635000D03*
X146685000Y-114300000D03*
X146685000Y-113030000D03*
X170815000Y-111125000D03*
X171450000Y-121285000D03*
X149860000Y-128905000D03*
X156845000Y-111125000D03*
X156210000Y-125095000D03*
X165100000Y-112395000D03*
X164465000Y-110490000D03*
X125730000Y-132080000D03*
X125095000Y-127000000D03*
X124460000Y-121920000D03*
X116205000Y-120015000D03*
D22*
X163830000Y-131445000D02*
X163830000Y-132715000D01*
X179070000Y-132715000D02*
X179070000Y-131445000D01*
X178435000Y-133350000D02*
X179070000Y-132715000D01*
X173990000Y-133350000D02*
X178435000Y-133350000D01*
X164465000Y-133350000D02*
X170815000Y-133350000D01*
X163830000Y-132715000D02*
X164465000Y-133350000D01*
X179070000Y-131445000D02*
X193040000Y-131445000D01*
X193040000Y-131445000D02*
X193675000Y-132080000D01*
X142875000Y-101600000D02*
X142875000Y-99695000D01*
X142875000Y-99695000D02*
X142240000Y-99060000D01*
X144780000Y-113665000D02*
X142240000Y-113665000D01*
X142240000Y-113665000D02*
X140970000Y-114935000D01*
X96520000Y-111125000D02*
X95885000Y-111760000D01*
X107315000Y-111125000D02*
X96520000Y-111125000D01*
X144780000Y-113665000D02*
X144145000Y-113665000D01*
X134620000Y-114935000D02*
X133350000Y-113665000D01*
X140970000Y-114935000D02*
X134620000Y-114935000D01*
X185420000Y-111760000D02*
X193040000Y-111760000D01*
X193040000Y-111760000D02*
X193675000Y-112395000D01*
X150495000Y-127000000D02*
X150495000Y-130810000D01*
X149860000Y-131445000D02*
X148590000Y-131445000D01*
X150495000Y-130810000D02*
X149860000Y-131445000D01*
X149860000Y-147320000D02*
X149860000Y-146685000D01*
X149860000Y-146685000D02*
X150495000Y-146050000D01*
X150495000Y-146050000D02*
X153670000Y-146050000D01*
X193040000Y-101600000D02*
X190500000Y-101600000D01*
X193675000Y-102235000D02*
X193040000Y-101600000D01*
X107950000Y-99060000D02*
X96520000Y-99060000D01*
X95885000Y-99695000D02*
X95885000Y-107315000D01*
X96520000Y-99060000D02*
X95885000Y-99695000D01*
X95885000Y-107315000D02*
X95885000Y-111760000D01*
X95885000Y-111760000D02*
X95885000Y-121285000D01*
X129540000Y-113665000D02*
X133350000Y-113665000D01*
X114300000Y-113665000D02*
X118110000Y-113665000D01*
X142875000Y-101600000D02*
X142875000Y-104775000D01*
X107950000Y-99060000D02*
X107315000Y-99695000D01*
X142240000Y-99060000D02*
X107950000Y-99060000D01*
X107315000Y-104140000D02*
X107315000Y-99695000D01*
X149860000Y-146685000D02*
X149860000Y-147320000D01*
X178435000Y-111760000D02*
X185420000Y-111760000D01*
X186690000Y-104140000D02*
X186690000Y-102235000D01*
X186690000Y-102235000D02*
X187325000Y-101600000D01*
X187325000Y-101600000D02*
X190500000Y-101600000D01*
X148590000Y-113665000D02*
X144780000Y-113665000D01*
X148590000Y-113665000D02*
X149860000Y-113665000D01*
X149860000Y-113665000D02*
X150495000Y-114300000D01*
X150495000Y-127000000D02*
X150495000Y-114300000D01*
X150495000Y-114300000D02*
X150495000Y-112395000D01*
X151130000Y-111760000D02*
X163195000Y-111760000D01*
X150495000Y-112395000D02*
X151130000Y-111760000D01*
X150495000Y-127000000D02*
X151130000Y-126365000D01*
X148590000Y-113665000D02*
X149225000Y-113665000D01*
X163830000Y-112395000D02*
X163195000Y-111760000D01*
X163830000Y-113665000D02*
X163830000Y-112395000D01*
X178435000Y-111760000D02*
X179070000Y-112395000D01*
X179070000Y-113665000D02*
X179070000Y-112395000D01*
X163830000Y-111760000D02*
X164465000Y-111760000D01*
X164465000Y-111760000D02*
X178435000Y-111760000D01*
X163195000Y-111760000D02*
X163830000Y-111760000D01*
X151130000Y-126365000D02*
X152400000Y-126365000D01*
X175260000Y-113665000D02*
X179070000Y-113665000D01*
X160020000Y-113665000D02*
X163830000Y-113665000D01*
X174625000Y-138430000D02*
X173990000Y-138430000D01*
X173355000Y-119380000D02*
X172720000Y-118745000D01*
X167640000Y-118745000D02*
X172720000Y-118745000D01*
X173355000Y-137795000D02*
X173355000Y-123190000D01*
X173990000Y-138430000D02*
X173355000Y-137795000D01*
X193040000Y-139700000D02*
X193040000Y-139065000D01*
X192405000Y-138430000D02*
X174625000Y-138430000D01*
X193040000Y-139065000D02*
X192405000Y-138430000D01*
X193040000Y-139700000D02*
X193040000Y-147320000D01*
X172085000Y-116205000D02*
X172720000Y-116840000D01*
X167640000Y-116205000D02*
X172085000Y-116205000D01*
X172720000Y-116840000D02*
X172720000Y-118110000D01*
X190500000Y-139700000D02*
X190500000Y-140335000D01*
X189865000Y-139065000D02*
X190500000Y-139700000D01*
X173990000Y-139065000D02*
X189865000Y-139065000D01*
X190500000Y-140335000D02*
X190500000Y-147320000D01*
X173990000Y-139065000D02*
X173355000Y-139065000D01*
X172720000Y-138430000D02*
X173355000Y-139065000D01*
X172720000Y-123825000D02*
X172720000Y-138430000D01*
X172085000Y-114300000D02*
X171450000Y-113665000D01*
X172085000Y-115570000D02*
X172085000Y-114300000D01*
X187960000Y-140970000D02*
X187960000Y-140335000D01*
X187325000Y-139700000D02*
X173355000Y-139700000D01*
X187960000Y-140335000D02*
X187325000Y-139700000D01*
X167640000Y-113665000D02*
X171450000Y-113665000D01*
X187960000Y-140970000D02*
X187960000Y-147320000D01*
X173355000Y-139700000D02*
X172720000Y-139700000D01*
X172720000Y-139700000D02*
X172085000Y-139065000D01*
X172085000Y-139065000D02*
X172085000Y-123190000D01*
X170815000Y-123825000D02*
X171450000Y-124460000D01*
X172085000Y-140335000D02*
X172720000Y-140335000D01*
X171450000Y-139700000D02*
X172085000Y-140335000D01*
X171450000Y-124460000D02*
X171450000Y-139700000D01*
X185420000Y-147320000D02*
X185420000Y-141605000D01*
X172720000Y-140335000D02*
X184785000Y-140335000D01*
X184785000Y-140335000D02*
X185420000Y-140970000D01*
X185420000Y-140970000D02*
X185420000Y-141605000D01*
X170815000Y-123825000D02*
X167640000Y-123825000D01*
X157480000Y-118745000D02*
X158115000Y-119380000D01*
X152400000Y-118745000D02*
X157480000Y-118745000D01*
X158115000Y-140335000D02*
X158115000Y-124460000D01*
X182880000Y-142240000D02*
X182880000Y-147320000D01*
X182880000Y-141605000D02*
X182245000Y-140970000D01*
X182245000Y-140970000D02*
X158750000Y-140970000D01*
X158750000Y-140970000D02*
X158115000Y-140335000D01*
X182880000Y-142240000D02*
X182880000Y-141605000D01*
X157480000Y-140970000D02*
X158115000Y-141605000D01*
X180340000Y-142240000D02*
X180340000Y-147320000D01*
X179705000Y-141605000D02*
X180340000Y-142240000D01*
X158115000Y-141605000D02*
X179705000Y-141605000D01*
X157480000Y-125095000D02*
X157480000Y-140970000D01*
X152400000Y-116205000D02*
X156845000Y-116205000D01*
X157480000Y-116840000D02*
X157480000Y-118110000D01*
X156845000Y-116205000D02*
X157480000Y-116840000D01*
X156845000Y-124460000D02*
X156845000Y-141605000D01*
X152400000Y-113665000D02*
X156210000Y-113665000D01*
X156845000Y-114300000D02*
X156845000Y-115570000D01*
X156210000Y-113665000D02*
X156845000Y-114300000D01*
X177800000Y-142875000D02*
X177800000Y-147320000D01*
X177165000Y-142240000D02*
X177800000Y-142875000D01*
X157480000Y-142240000D02*
X177165000Y-142240000D01*
X156845000Y-141605000D02*
X157480000Y-142240000D01*
X134620000Y-133985000D02*
X134620000Y-133350000D01*
X154305000Y-134620000D02*
X153670000Y-135255000D01*
X153670000Y-135255000D02*
X135255000Y-135255000D01*
X135255000Y-135255000D02*
X134620000Y-134620000D01*
X134620000Y-134620000D02*
X134620000Y-133985000D01*
X154305000Y-109855000D02*
X154305000Y-111125000D01*
X160655000Y-108585000D02*
X160020000Y-109220000D01*
X160020000Y-109220000D02*
X154940000Y-109220000D01*
X154940000Y-109220000D02*
X154305000Y-109855000D01*
X160655000Y-107315000D02*
X160655000Y-108585000D01*
X154305000Y-129540000D02*
X154305000Y-134620000D01*
X134620000Y-133350000D02*
X133985000Y-132715000D01*
X155575000Y-129540000D02*
X155575000Y-135890000D01*
X163195000Y-109855000D02*
X162560000Y-110490000D01*
X162560000Y-110490000D02*
X156210000Y-110490000D01*
X156210000Y-110490000D02*
X155575000Y-111125000D01*
X163195000Y-107315000D02*
X163195000Y-109855000D01*
X133350000Y-135890000D02*
X133350000Y-134620000D01*
X133985000Y-136525000D02*
X133350000Y-135890000D01*
X154940000Y-136525000D02*
X133985000Y-136525000D01*
X155575000Y-135890000D02*
X154940000Y-136525000D01*
X167640000Y-126365000D02*
X162560000Y-126365000D01*
X132080000Y-128905000D02*
X129540000Y-128905000D01*
X132715000Y-129540000D02*
X132080000Y-128905000D01*
X132715000Y-136525000D02*
X132715000Y-129540000D01*
X133350000Y-137160000D02*
X132715000Y-136525000D01*
X156210000Y-137160000D02*
X133350000Y-137160000D01*
X161290000Y-137160000D02*
X158750000Y-137160000D01*
X161925000Y-136525000D02*
X161290000Y-137160000D01*
X161925000Y-127000000D02*
X161925000Y-136525000D01*
X162560000Y-126365000D02*
X161925000Y-127000000D01*
X140335000Y-111125000D02*
X140335000Y-111760000D01*
X113030000Y-112395000D02*
X112395000Y-113030000D01*
X139700000Y-112395000D02*
X113030000Y-112395000D01*
X140335000Y-111760000D02*
X139700000Y-112395000D01*
X113030000Y-136525000D02*
X112395000Y-135890000D01*
X114300000Y-136525000D02*
X113030000Y-136525000D01*
X112395000Y-135890000D02*
X112395000Y-113030000D01*
X140335000Y-111125000D02*
X140335000Y-107315000D01*
X137795000Y-107315000D02*
X137795000Y-111309998D01*
X111760000Y-112395000D02*
X111760000Y-133350000D01*
X112395000Y-111760000D02*
X111760000Y-112395000D01*
X137344998Y-111760000D02*
X112395000Y-111760000D01*
X137795000Y-111309998D02*
X137344998Y-111760000D01*
X135255000Y-110490000D02*
X135255000Y-107315000D01*
X134620000Y-111125000D02*
X135255000Y-110490000D01*
X111760000Y-111125000D02*
X134620000Y-111125000D01*
X111125000Y-111760000D02*
X111760000Y-111125000D01*
X111125000Y-112395000D02*
X111125000Y-111760000D01*
X111125000Y-130810000D02*
X111125000Y-112395000D01*
X132715000Y-107315000D02*
X132715000Y-109855000D01*
X110490000Y-111125000D02*
X110490000Y-128270000D01*
X111125000Y-110490000D02*
X110490000Y-111125000D01*
X132080000Y-110490000D02*
X111125000Y-110490000D01*
X132715000Y-109855000D02*
X132080000Y-110490000D01*
X130175000Y-109220000D02*
X130175000Y-107315000D01*
X129540000Y-109855000D02*
X130175000Y-109220000D01*
X110490000Y-109855000D02*
X129540000Y-109855000D01*
X109855000Y-110490000D02*
X110490000Y-109855000D01*
X109855000Y-111125000D02*
X109855000Y-110490000D01*
X109855000Y-125730000D02*
X109855000Y-111125000D01*
X110490000Y-109220000D02*
X109855000Y-109220000D01*
X127635000Y-108585000D02*
X127000000Y-109220000D01*
X127000000Y-109220000D02*
X110490000Y-109220000D01*
X127635000Y-107315000D02*
X127635000Y-108585000D01*
X109220000Y-109855000D02*
X109220000Y-123190000D01*
X109855000Y-109220000D02*
X109220000Y-109855000D01*
X124460000Y-108585000D02*
X113030000Y-108585000D01*
X124460000Y-108585000D02*
X125095000Y-107950000D01*
X109220000Y-108585000D02*
X113030000Y-108585000D01*
X108585000Y-109220000D02*
X109220000Y-108585000D01*
X108585000Y-120015000D02*
X108585000Y-109220000D01*
X125095000Y-107315000D02*
X125095000Y-107950000D01*
X116840000Y-107950000D02*
X117475000Y-107950000D01*
X107950000Y-111760000D02*
X107950000Y-111125000D01*
X111125000Y-107950000D02*
X108585000Y-107950000D01*
X116840000Y-107950000D02*
X111125000Y-107950000D01*
X107950000Y-108585000D02*
X107950000Y-111125000D01*
X108585000Y-107950000D02*
X107950000Y-108585000D01*
X154305000Y-123190000D02*
X154940000Y-122555000D01*
X170815000Y-120650000D02*
X171450000Y-120015000D01*
X170815000Y-121920000D02*
X170815000Y-120650000D01*
X170180000Y-122555000D02*
X170815000Y-121920000D01*
X154940000Y-122555000D02*
X170180000Y-122555000D01*
X176530000Y-120015000D02*
X177165000Y-120015000D01*
X177165000Y-120015000D02*
X177800000Y-119380000D01*
X177800000Y-119380000D02*
X177800000Y-116205000D01*
X177800000Y-116205000D02*
X178435000Y-115570000D01*
X178435000Y-115570000D02*
X180975000Y-115570000D01*
X180975000Y-115570000D02*
X181610000Y-114935000D01*
X181610000Y-114935000D02*
X185420000Y-114935000D01*
X176530000Y-120015000D02*
X171450000Y-120015000D01*
X153670000Y-123825000D02*
X154305000Y-123190000D01*
X152400000Y-123825000D02*
X153670000Y-123825000D01*
X185420000Y-123825000D02*
X185420000Y-126365000D01*
X185420000Y-121285000D02*
X185420000Y-123825000D01*
X185420000Y-118745000D02*
X185420000Y-120015000D01*
X185420000Y-120015000D02*
X185420000Y-121285000D01*
X185420000Y-116205000D02*
X185420000Y-117475000D01*
X185420000Y-117475000D02*
X185420000Y-118745000D01*
X185420000Y-113665000D02*
X185420000Y-114935000D01*
X185420000Y-114935000D02*
X185420000Y-116205000D01*
X129540000Y-123825000D02*
X125095000Y-123825000D01*
X120015000Y-107315000D02*
X116840000Y-107315000D01*
X116840000Y-120650000D02*
X116840000Y-121920000D01*
X116840000Y-121920000D02*
X117475000Y-122555000D01*
X117475000Y-122555000D02*
X120015000Y-122555000D01*
X128905000Y-123825000D02*
X129540000Y-123825000D01*
X155575000Y-107315000D02*
X155575000Y-107950000D01*
X155575000Y-107950000D02*
X154940000Y-108585000D01*
X154940000Y-108585000D02*
X151765000Y-108585000D01*
X151765000Y-108585000D02*
X150495000Y-109855000D01*
X150495000Y-109855000D02*
X147955000Y-109855000D01*
X147955000Y-109855000D02*
X147320000Y-110490000D01*
X147320000Y-110490000D02*
X147320000Y-112395000D01*
X147320000Y-114935000D02*
X147320000Y-120015000D01*
X147320000Y-120015000D02*
X148590000Y-121285000D01*
X133985000Y-133985000D02*
X133350000Y-133350000D01*
X133350000Y-128270000D02*
X132715000Y-127635000D01*
X133350000Y-133350000D02*
X133350000Y-128270000D01*
X154940000Y-130175000D02*
X154940000Y-135255000D01*
X161925000Y-106045000D02*
X161925000Y-109220000D01*
X161925000Y-109220000D02*
X161290000Y-109855000D01*
X161290000Y-109855000D02*
X155575000Y-109855000D01*
X155575000Y-109855000D02*
X154940000Y-110490000D01*
X163195000Y-104775000D02*
X161925000Y-106045000D01*
X132715000Y-127635000D02*
X125730000Y-127635000D01*
X133985000Y-135255000D02*
X133985000Y-133985000D01*
X134620000Y-135890000D02*
X133985000Y-135255000D01*
X154305000Y-135890000D02*
X134620000Y-135890000D01*
X154940000Y-135255000D02*
X154305000Y-135890000D01*
X141605000Y-112395000D02*
X140335000Y-113665000D01*
X141605000Y-112395000D02*
X142240000Y-111760000D01*
X146685000Y-108585000D02*
X147955000Y-107315000D01*
X146050000Y-109220000D02*
X146685000Y-108585000D01*
X146050000Y-111125000D02*
X146050000Y-109220000D01*
X145415000Y-111760000D02*
X146050000Y-111125000D01*
X142240000Y-111760000D02*
X145415000Y-111760000D01*
X129540000Y-118745000D02*
X130810000Y-118745000D01*
X132080000Y-116205000D02*
X137160000Y-116205000D01*
X131445000Y-116840000D02*
X132080000Y-116205000D01*
X131445000Y-118110000D02*
X131445000Y-116840000D01*
X130810000Y-118745000D02*
X131445000Y-118110000D01*
X140335000Y-113665000D02*
X137160000Y-113665000D01*
X147955000Y-106680000D02*
X147955000Y-107315000D01*
X143510000Y-114935000D02*
X142875000Y-114935000D01*
X139700000Y-116205000D02*
X139065000Y-116840000D01*
X141605000Y-116205000D02*
X139700000Y-116205000D01*
X142875000Y-114935000D02*
X141605000Y-116205000D01*
X146050000Y-114935000D02*
X143510000Y-114935000D01*
X146050000Y-114935000D02*
X146685000Y-114300000D01*
X146685000Y-109855000D02*
X147320000Y-109220000D01*
X150495000Y-108585000D02*
X149860000Y-109220000D01*
X149860000Y-109220000D02*
X147320000Y-109220000D01*
X150495000Y-107315000D02*
X150495000Y-108585000D01*
X146685000Y-113030000D02*
X146685000Y-109855000D01*
X139065000Y-118110000D02*
X139065000Y-116840000D01*
X137160000Y-118745000D02*
X138430000Y-118745000D01*
X138430000Y-118745000D02*
X139065000Y-118110000D01*
X167005000Y-107950000D02*
X167005000Y-110490000D01*
X167640000Y-111125000D02*
X170815000Y-111125000D01*
X167005000Y-110490000D02*
X167640000Y-111125000D01*
X163830000Y-103505000D02*
X166370000Y-103505000D01*
X167005000Y-104140000D02*
X167005000Y-106680000D01*
X166370000Y-103505000D02*
X167005000Y-104140000D01*
X172720000Y-122555000D02*
X171450000Y-121285000D01*
X177165000Y-122555000D02*
X172720000Y-122555000D01*
X178435000Y-121285000D02*
X177165000Y-122555000D01*
X167005000Y-107950000D02*
X167005000Y-106680000D01*
X163830000Y-103505000D02*
X161290000Y-103505000D01*
X161290000Y-103505000D02*
X160655000Y-104140000D01*
X160655000Y-104140000D02*
X160655000Y-104775000D01*
X179070000Y-121285000D02*
X178435000Y-121285000D01*
X146050000Y-120015000D02*
X146685000Y-120650000D01*
X147320000Y-128905000D02*
X149860000Y-128905000D01*
X146685000Y-128270000D02*
X147320000Y-128905000D01*
X146685000Y-120650000D02*
X146685000Y-128270000D01*
X114300000Y-116205000D02*
X118745000Y-116205000D01*
X128270000Y-120015000D02*
X146050000Y-120015000D01*
X127635000Y-119380000D02*
X128270000Y-120015000D01*
X127635000Y-115570000D02*
X127635000Y-119380000D01*
X127000000Y-114935000D02*
X127635000Y-115570000D01*
X120015000Y-114935000D02*
X127000000Y-114935000D01*
X118745000Y-116205000D02*
X120015000Y-114935000D01*
X165735000Y-110490000D02*
X165735000Y-109855000D01*
X165100000Y-111125000D02*
X165735000Y-110490000D01*
X156845000Y-111125000D02*
X165100000Y-111125000D01*
X152400000Y-128905000D02*
X155575000Y-128905000D01*
X165735000Y-109855000D02*
X165735000Y-107315000D01*
X156210000Y-128270000D02*
X156210000Y-125095000D01*
X155575000Y-128905000D02*
X156210000Y-128270000D01*
X163830000Y-121285000D02*
X164465000Y-121285000D01*
X164465000Y-121285000D02*
X165100000Y-120650000D01*
X164465000Y-107950000D02*
X164465000Y-106045000D01*
X165100000Y-120650000D02*
X165100000Y-112395000D01*
X164465000Y-110490000D02*
X164465000Y-107950000D01*
X164465000Y-106045000D02*
X165735000Y-104775000D01*
X168275000Y-107315000D02*
X168910000Y-107950000D01*
X168910000Y-107950000D02*
X177800000Y-107950000D01*
X187960000Y-107950000D02*
X189865000Y-107950000D01*
X190500000Y-107315000D02*
X190500000Y-104140000D01*
X189865000Y-107950000D02*
X190500000Y-107315000D01*
X177165000Y-116205000D02*
X177165000Y-115570000D01*
X177800000Y-114935000D02*
X180340000Y-114935000D01*
X177165000Y-115570000D02*
X177800000Y-114935000D01*
X177165000Y-116205000D02*
X177165000Y-118110000D01*
X180340000Y-114935000D02*
X180975000Y-114300000D01*
X175260000Y-118745000D02*
X176530000Y-118745000D01*
X181610000Y-113665000D02*
X182880000Y-113665000D01*
X180975000Y-114300000D02*
X181610000Y-113665000D01*
X176530000Y-118745000D02*
X177165000Y-118110000D01*
X177800000Y-120650000D02*
X178435000Y-120015000D01*
X180975000Y-116840000D02*
X181610000Y-116205000D01*
X180975000Y-119380000D02*
X180975000Y-116840000D01*
X180340000Y-120015000D02*
X180975000Y-119380000D01*
X178435000Y-120015000D02*
X180340000Y-120015000D01*
X177165000Y-121285000D02*
X176530000Y-121285000D01*
X177800000Y-120650000D02*
X177165000Y-121285000D01*
X175260000Y-121285000D02*
X176530000Y-121285000D01*
X181610000Y-116205000D02*
X182245000Y-116205000D01*
X182245000Y-116205000D02*
X182880000Y-116205000D01*
X178435000Y-123825000D02*
X179070000Y-123825000D01*
X181610000Y-121285000D02*
X181610000Y-120650000D01*
X179070000Y-123825000D02*
X181610000Y-121285000D01*
X181610000Y-120015000D02*
X181610000Y-120650000D01*
X181610000Y-120015000D02*
X181610000Y-119380000D01*
X181610000Y-119380000D02*
X182245000Y-118745000D01*
X175260000Y-123825000D02*
X178435000Y-123825000D01*
X182245000Y-118745000D02*
X182880000Y-118745000D01*
X180340000Y-123825000D02*
X180340000Y-125730000D01*
X179705000Y-126365000D02*
X177800000Y-126365000D01*
X180340000Y-125730000D02*
X179705000Y-126365000D01*
X177165000Y-126365000D02*
X177800000Y-126365000D01*
X175260000Y-126365000D02*
X177165000Y-126365000D01*
X180340000Y-123825000D02*
X182880000Y-121285000D01*
X180975000Y-124460000D02*
X180975000Y-128270000D01*
X180340000Y-128905000D02*
X176530000Y-128905000D01*
X180975000Y-128270000D02*
X180340000Y-128905000D01*
X175260000Y-128905000D02*
X176530000Y-128905000D01*
X180975000Y-124460000D02*
X181610000Y-123825000D01*
X175260000Y-128905000D02*
X175895000Y-128905000D01*
X181610000Y-123825000D02*
X182880000Y-123825000D01*
X177165000Y-129540000D02*
X182245000Y-129540000D01*
X182880000Y-128905000D02*
X182880000Y-126365000D01*
X182245000Y-129540000D02*
X182880000Y-128905000D01*
X177165000Y-129540000D02*
X175260000Y-131445000D01*
X149225000Y-143059998D02*
X132899998Y-143059998D01*
X160020000Y-143510000D02*
X159569998Y-143059998D01*
X159569998Y-143059998D02*
X149225000Y-143059998D01*
X160020000Y-147320000D02*
X160020000Y-143510000D01*
X131445000Y-131445000D02*
X129540000Y-131445000D01*
X132080000Y-132080000D02*
X131445000Y-131445000D01*
X132080000Y-142240000D02*
X132080000Y-132080000D01*
X132899998Y-143059998D02*
X132080000Y-142240000D01*
X129540000Y-136525000D02*
X129540000Y-137795000D01*
X130810000Y-138430000D02*
X131445000Y-139065000D01*
X130175000Y-138430000D02*
X130810000Y-138430000D01*
X129540000Y-137795000D02*
X130175000Y-138430000D01*
X148590000Y-143510000D02*
X132080000Y-143510000D01*
X157480000Y-144145000D02*
X156845000Y-143510000D01*
X156845000Y-143510000D02*
X148590000Y-143510000D01*
X157480000Y-147320000D02*
X157480000Y-144145000D01*
X131445000Y-142875000D02*
X131445000Y-139065000D01*
X132080000Y-143510000D02*
X131445000Y-142875000D01*
X128905000Y-139065000D02*
X130175000Y-139065000D01*
X130810000Y-143510000D02*
X131445000Y-144145000D01*
X130810000Y-139700000D02*
X130810000Y-143510000D01*
X130175000Y-139065000D02*
X130810000Y-139700000D01*
X125730000Y-135255000D02*
X125730000Y-138430000D01*
X125730000Y-132080000D02*
X125730000Y-135255000D01*
X154940000Y-144780000D02*
X154940000Y-147320000D01*
X154305000Y-144145000D02*
X154940000Y-144780000D01*
X131445000Y-144145000D02*
X154305000Y-144145000D01*
X126365000Y-139065000D02*
X128905000Y-139065000D01*
X125730000Y-138430000D02*
X126365000Y-139065000D01*
X130810000Y-144780000D02*
X130175000Y-144145000D01*
X129540000Y-139700000D02*
X128270000Y-139700000D01*
X130175000Y-140335000D02*
X129540000Y-139700000D01*
X130175000Y-144145000D02*
X130175000Y-140335000D01*
X125095000Y-135255000D02*
X125095000Y-139065000D01*
X125095000Y-127000000D02*
X125095000Y-131445000D01*
X125095000Y-135255000D02*
X125095000Y-131445000D01*
X147320000Y-145415000D02*
X147320000Y-147320000D01*
X146685000Y-144780000D02*
X147320000Y-145415000D01*
X130810000Y-144780000D02*
X146685000Y-144780000D01*
X125730000Y-139700000D02*
X128270000Y-139700000D01*
X125095000Y-139065000D02*
X125730000Y-139700000D01*
X127635000Y-140335000D02*
X128905000Y-140335000D01*
X129540000Y-144780000D02*
X130175000Y-145415000D01*
X129540000Y-140970000D02*
X129540000Y-144780000D01*
X128905000Y-140335000D02*
X129540000Y-140970000D01*
X144780000Y-147320000D02*
X144780000Y-146050000D01*
X144145000Y-145415000D02*
X130175000Y-145415000D01*
X144780000Y-146050000D02*
X144145000Y-145415000D01*
X124460000Y-139700000D02*
X124460000Y-121920000D01*
X125095000Y-140335000D02*
X124460000Y-139700000D01*
X127635000Y-140335000D02*
X125095000Y-140335000D01*
X127000000Y-140970000D02*
X128270000Y-140970000D01*
X128905000Y-145415000D02*
X129540000Y-146050000D01*
X128905000Y-141605000D02*
X128905000Y-145415000D01*
X128270000Y-140970000D02*
X128905000Y-141605000D01*
X121920000Y-116205000D02*
X123190000Y-116205000D01*
X133985000Y-146050000D02*
X134620000Y-146685000D01*
X129540000Y-146050000D02*
X133985000Y-146050000D01*
X124460000Y-140970000D02*
X127000000Y-140970000D01*
X123825000Y-140335000D02*
X124460000Y-140970000D01*
X123825000Y-116840000D02*
X123825000Y-140335000D01*
X123190000Y-116205000D02*
X123825000Y-116840000D01*
X134620000Y-146685000D02*
X134620000Y-147320000D01*
X120650000Y-116205000D02*
X121920000Y-116205000D01*
X116205000Y-120015000D02*
X119380000Y-120015000D01*
X119380000Y-120015000D02*
X120015000Y-119380000D01*
X120015000Y-119380000D02*
X120015000Y-116840000D01*
X120015000Y-116840000D02*
X120650000Y-116205000D01*
X127000000Y-147320000D02*
X127000000Y-142240000D01*
X105410000Y-133985000D02*
X106680000Y-133985000D01*
X104775000Y-134620000D02*
X105410000Y-133985000D01*
X104775000Y-140970000D02*
X104775000Y-134620000D01*
X105410000Y-141605000D02*
X104775000Y-140970000D01*
X126365000Y-141605000D02*
X105410000Y-141605000D01*
X127000000Y-142240000D02*
X126365000Y-141605000D01*
X127000000Y-146685000D02*
X127000000Y-147320000D01*
X121285000Y-142240000D02*
X104775000Y-142240000D01*
X124460000Y-142875000D02*
X123825000Y-142240000D01*
X123825000Y-142240000D02*
X121285000Y-142240000D01*
X124460000Y-147320000D02*
X124460000Y-142875000D01*
X104775000Y-131445000D02*
X106680000Y-131445000D01*
X104140000Y-132080000D02*
X104775000Y-131445000D01*
X104140000Y-141605000D02*
X104140000Y-132080000D01*
X104775000Y-142240000D02*
X104140000Y-141605000D01*
X106680000Y-128905000D02*
X104140000Y-128905000D01*
X121920000Y-143510000D02*
X121920000Y-147320000D01*
X121285000Y-142875000D02*
X121920000Y-143510000D01*
X104140000Y-142875000D02*
X121285000Y-142875000D01*
X103505000Y-142240000D02*
X104140000Y-142875000D01*
X103505000Y-129540000D02*
X103505000Y-142240000D01*
X104140000Y-128905000D02*
X103505000Y-129540000D01*
X104775000Y-143510000D02*
X103505000Y-143510000D01*
X119380000Y-144145000D02*
X118745000Y-143510000D01*
X118745000Y-143510000D02*
X104775000Y-143510000D01*
X119380000Y-147320000D02*
X119380000Y-144145000D01*
X103505000Y-126365000D02*
X106680000Y-126365000D01*
X102870000Y-127000000D02*
X103505000Y-126365000D01*
X102870000Y-142875000D02*
X102870000Y-127000000D01*
X103505000Y-143510000D02*
X102870000Y-142875000D01*
X106680000Y-123825000D02*
X102870000Y-123825000D01*
X116840000Y-144780000D02*
X116205000Y-144145000D01*
X116205000Y-144145000D02*
X105410000Y-144145000D01*
X116840000Y-144780000D02*
X116840000Y-147320000D01*
X102870000Y-144145000D02*
X105410000Y-144145000D01*
X102235000Y-143510000D02*
X102870000Y-144145000D01*
X102235000Y-124460000D02*
X102235000Y-143510000D01*
X102870000Y-123825000D02*
X102235000Y-124460000D01*
X106045000Y-144780000D02*
X102235000Y-144780000D01*
X114300000Y-145415000D02*
X113665000Y-144780000D01*
X113665000Y-144780000D02*
X106045000Y-144780000D01*
X114300000Y-147320000D02*
X114300000Y-145415000D01*
X102235000Y-121285000D02*
X106680000Y-121285000D01*
X101600000Y-121920000D02*
X102235000Y-121285000D01*
X101600000Y-144145000D02*
X101600000Y-121920000D01*
X102235000Y-144780000D02*
X101600000Y-144145000D01*
X106680000Y-118745000D02*
X101600000Y-118745000D01*
X111760000Y-146050000D02*
X111125000Y-145415000D01*
X111125000Y-145415000D02*
X105410000Y-145415000D01*
X111760000Y-146050000D02*
X111760000Y-147320000D01*
X101600000Y-145415000D02*
X105410000Y-145415000D01*
X100965000Y-144780000D02*
X101600000Y-145415000D01*
X100965000Y-119380000D02*
X100965000Y-144780000D01*
X101600000Y-118745000D02*
X100965000Y-119380000D01*
X105410000Y-146050000D02*
X100965000Y-146050000D01*
X108585000Y-146050000D02*
X105410000Y-146050000D01*
X109220000Y-146685000D02*
X108585000Y-146050000D01*
X100965000Y-116205000D02*
X106680000Y-116205000D01*
X100330000Y-116840000D02*
X100965000Y-116205000D01*
X100330000Y-145415000D02*
X100330000Y-116840000D01*
X100965000Y-146050000D02*
X100330000Y-145415000D01*
X109220000Y-147320000D02*
X109220000Y-146685000D01*
M02*
