G04 #@! TF.FileFunction,Legend,Bot*
%FSLAX46Y46*%
G04 Gerber Fmt 4.6, Leading zero omitted, Abs format (unit mm)*
G04 Created by KiCad (PCBNEW 4.0.7) date 01/25/20 16:01:31*
%MOMM*%
%LPD*%
G01*
G04 APERTURE LIST*
%ADD10C,0.100000*%
%ADD11C,0.200000*%
%ADD12C,0.150000*%
G04 APERTURE END LIST*
D10*
X163004524Y-96836905D02*
X163004524Y-96036905D01*
X162814048Y-96036905D01*
X162699762Y-96075000D01*
X162623571Y-96151190D01*
X162585476Y-96227381D01*
X162547381Y-96379762D01*
X162547381Y-96494048D01*
X162585476Y-96646429D01*
X162623571Y-96722619D01*
X162699762Y-96798810D01*
X162814048Y-96836905D01*
X163004524Y-96836905D01*
X162242619Y-96608333D02*
X161861667Y-96608333D01*
X162318810Y-96836905D02*
X162052143Y-96036905D01*
X161785476Y-96836905D01*
X161633096Y-96036905D02*
X161175953Y-96036905D01*
X161404524Y-96836905D02*
X161404524Y-96036905D01*
X160947381Y-96608333D02*
X160566429Y-96608333D01*
X161023572Y-96836905D02*
X160756905Y-96036905D01*
X160490238Y-96836905D01*
X163004524Y-97717857D02*
X162737857Y-97717857D01*
X162623571Y-98136905D02*
X163004524Y-98136905D01*
X163004524Y-97336905D01*
X162623571Y-97336905D01*
X161823571Y-98136905D02*
X162090238Y-97755952D01*
X162280714Y-98136905D02*
X162280714Y-97336905D01*
X161975952Y-97336905D01*
X161899761Y-97375000D01*
X161861666Y-97413095D01*
X161823571Y-97489286D01*
X161823571Y-97603571D01*
X161861666Y-97679762D01*
X161899761Y-97717857D01*
X161975952Y-97755952D01*
X162280714Y-97755952D01*
X161023571Y-98136905D02*
X161290238Y-97755952D01*
X161480714Y-98136905D02*
X161480714Y-97336905D01*
X161175952Y-97336905D01*
X161099761Y-97375000D01*
X161061666Y-97413095D01*
X161023571Y-97489286D01*
X161023571Y-97603571D01*
X161061666Y-97679762D01*
X161099761Y-97717857D01*
X161175952Y-97755952D01*
X161480714Y-97755952D01*
X160528333Y-97336905D02*
X160375952Y-97336905D01*
X160299761Y-97375000D01*
X160223571Y-97451190D01*
X160185476Y-97603571D01*
X160185476Y-97870238D01*
X160223571Y-98022619D01*
X160299761Y-98098810D01*
X160375952Y-98136905D01*
X160528333Y-98136905D01*
X160604523Y-98098810D01*
X160680714Y-98022619D01*
X160718809Y-97870238D01*
X160718809Y-97603571D01*
X160680714Y-97451190D01*
X160604523Y-97375000D01*
X160528333Y-97336905D01*
X159385476Y-98136905D02*
X159652143Y-97755952D01*
X159842619Y-98136905D02*
X159842619Y-97336905D01*
X159537857Y-97336905D01*
X159461666Y-97375000D01*
X159423571Y-97413095D01*
X159385476Y-97489286D01*
X159385476Y-97603571D01*
X159423571Y-97679762D01*
X159461666Y-97717857D01*
X159537857Y-97755952D01*
X159842619Y-97755952D01*
X158204523Y-98441667D02*
X158242619Y-98403571D01*
X158318809Y-98289286D01*
X158356904Y-98213095D01*
X158395000Y-98098810D01*
X158433095Y-97908333D01*
X158433095Y-97755952D01*
X158395000Y-97565476D01*
X158356904Y-97451190D01*
X158318809Y-97375000D01*
X158242619Y-97260714D01*
X158204523Y-97222619D01*
X157442619Y-98136905D02*
X157709286Y-97755952D01*
X157899762Y-98136905D02*
X157899762Y-97336905D01*
X157595000Y-97336905D01*
X157518809Y-97375000D01*
X157480714Y-97413095D01*
X157442619Y-97489286D01*
X157442619Y-97603571D01*
X157480714Y-97679762D01*
X157518809Y-97717857D01*
X157595000Y-97755952D01*
X157899762Y-97755952D01*
X157175952Y-98441667D02*
X157137857Y-98403571D01*
X157061667Y-98289286D01*
X157023571Y-98213095D01*
X156985476Y-98098810D01*
X156947381Y-97908333D01*
X156947381Y-97755952D01*
X156985476Y-97565476D01*
X157023571Y-97451190D01*
X157061667Y-97375000D01*
X157137857Y-97260714D01*
X157175952Y-97222619D01*
X156528334Y-98098810D02*
X156528334Y-98136905D01*
X156566429Y-98213095D01*
X156604524Y-98251190D01*
X155614048Y-98098810D02*
X155499762Y-98136905D01*
X155309286Y-98136905D01*
X155233096Y-98098810D01*
X155195000Y-98060714D01*
X155156905Y-97984524D01*
X155156905Y-97908333D01*
X155195000Y-97832143D01*
X155233096Y-97794048D01*
X155309286Y-97755952D01*
X155461667Y-97717857D01*
X155537858Y-97679762D01*
X155575953Y-97641667D01*
X155614048Y-97565476D01*
X155614048Y-97489286D01*
X155575953Y-97413095D01*
X155537858Y-97375000D01*
X155461667Y-97336905D01*
X155271191Y-97336905D01*
X155156905Y-97375000D01*
X154814048Y-97717857D02*
X154547381Y-97717857D01*
X154433095Y-98136905D02*
X154814048Y-98136905D01*
X154814048Y-97336905D01*
X154433095Y-97336905D01*
X154204524Y-97336905D02*
X153747381Y-97336905D01*
X153975952Y-98136905D02*
X153975952Y-97336905D01*
X152604523Y-97717857D02*
X152871190Y-97717857D01*
X152871190Y-98136905D02*
X152871190Y-97336905D01*
X152490237Y-97336905D01*
X152185476Y-97717857D02*
X151918809Y-97717857D01*
X151804523Y-98136905D02*
X152185476Y-98136905D01*
X152185476Y-97336905D01*
X151804523Y-97336905D01*
X151499761Y-97908333D02*
X151118809Y-97908333D01*
X151575952Y-98136905D02*
X151309285Y-97336905D01*
X151042618Y-98136905D01*
X150890238Y-97336905D02*
X150433095Y-97336905D01*
X150661666Y-98136905D02*
X150661666Y-97336905D01*
X150166428Y-97336905D02*
X150166428Y-97984524D01*
X150128333Y-98060714D01*
X150090237Y-98098810D01*
X150014047Y-98136905D01*
X149861666Y-98136905D01*
X149785475Y-98098810D01*
X149747380Y-98060714D01*
X149709285Y-97984524D01*
X149709285Y-97336905D01*
X148871190Y-98136905D02*
X149137857Y-97755952D01*
X149328333Y-98136905D02*
X149328333Y-97336905D01*
X149023571Y-97336905D01*
X148947380Y-97375000D01*
X148909285Y-97413095D01*
X148871190Y-97489286D01*
X148871190Y-97603571D01*
X148909285Y-97679762D01*
X148947380Y-97717857D01*
X149023571Y-97755952D01*
X149328333Y-97755952D01*
X148528333Y-97717857D02*
X148261666Y-97717857D01*
X148147380Y-98136905D02*
X148528333Y-98136905D01*
X148528333Y-97336905D01*
X148147380Y-97336905D01*
X146966427Y-98441667D02*
X147004523Y-98403571D01*
X147080713Y-98289286D01*
X147118808Y-98213095D01*
X147156904Y-98098810D01*
X147194999Y-97908333D01*
X147194999Y-97755952D01*
X147156904Y-97565476D01*
X147118808Y-97451190D01*
X147080713Y-97375000D01*
X147004523Y-97260714D01*
X146966427Y-97222619D01*
X146737856Y-97336905D02*
X146547380Y-98136905D01*
X146394999Y-97565476D01*
X146242618Y-98136905D01*
X146052142Y-97336905D01*
X145823570Y-98441667D02*
X145785475Y-98403571D01*
X145709285Y-98289286D01*
X145671189Y-98213095D01*
X145633094Y-98098810D01*
X145594999Y-97908333D01*
X145594999Y-97755952D01*
X145633094Y-97565476D01*
X145671189Y-97451190D01*
X145709285Y-97375000D01*
X145785475Y-97260714D01*
X145823570Y-97222619D01*
X163042619Y-99398810D02*
X162928333Y-99436905D01*
X162737857Y-99436905D01*
X162661667Y-99398810D01*
X162623571Y-99360714D01*
X162585476Y-99284524D01*
X162585476Y-99208333D01*
X162623571Y-99132143D01*
X162661667Y-99094048D01*
X162737857Y-99055952D01*
X162890238Y-99017857D01*
X162966429Y-98979762D01*
X163004524Y-98941667D01*
X163042619Y-98865476D01*
X163042619Y-98789286D01*
X163004524Y-98713095D01*
X162966429Y-98675000D01*
X162890238Y-98636905D01*
X162699762Y-98636905D01*
X162585476Y-98675000D01*
X162242619Y-99017857D02*
X161975952Y-99017857D01*
X161861666Y-99436905D02*
X162242619Y-99436905D01*
X162242619Y-98636905D01*
X161861666Y-98636905D01*
X161061666Y-99360714D02*
X161099761Y-99398810D01*
X161214047Y-99436905D01*
X161290237Y-99436905D01*
X161404523Y-99398810D01*
X161480714Y-99322619D01*
X161518809Y-99246429D01*
X161556904Y-99094048D01*
X161556904Y-98979762D01*
X161518809Y-98827381D01*
X161480714Y-98751190D01*
X161404523Y-98675000D01*
X161290237Y-98636905D01*
X161214047Y-98636905D01*
X161099761Y-98675000D01*
X161061666Y-98713095D01*
X160833095Y-98636905D02*
X160375952Y-98636905D01*
X160604523Y-99436905D02*
X160604523Y-98636905D01*
X159956904Y-98636905D02*
X159804523Y-98636905D01*
X159728332Y-98675000D01*
X159652142Y-98751190D01*
X159614047Y-98903571D01*
X159614047Y-99170238D01*
X159652142Y-99322619D01*
X159728332Y-99398810D01*
X159804523Y-99436905D01*
X159956904Y-99436905D01*
X160033094Y-99398810D01*
X160109285Y-99322619D01*
X160147380Y-99170238D01*
X160147380Y-98903571D01*
X160109285Y-98751190D01*
X160033094Y-98675000D01*
X159956904Y-98636905D01*
X158814047Y-99436905D02*
X159080714Y-99055952D01*
X159271190Y-99436905D02*
X159271190Y-98636905D01*
X158966428Y-98636905D01*
X158890237Y-98675000D01*
X158852142Y-98713095D01*
X158814047Y-98789286D01*
X158814047Y-98903571D01*
X158852142Y-98979762D01*
X158890237Y-99017857D01*
X158966428Y-99055952D01*
X159271190Y-99055952D01*
X158509285Y-99398810D02*
X158394999Y-99436905D01*
X158204523Y-99436905D01*
X158128333Y-99398810D01*
X158090237Y-99360714D01*
X158052142Y-99284524D01*
X158052142Y-99208333D01*
X158090237Y-99132143D01*
X158128333Y-99094048D01*
X158204523Y-99055952D01*
X158356904Y-99017857D01*
X158433095Y-98979762D01*
X158471190Y-98941667D01*
X158509285Y-98865476D01*
X158509285Y-98789286D01*
X158471190Y-98713095D01*
X158433095Y-98675000D01*
X158356904Y-98636905D01*
X158166428Y-98636905D01*
X158052142Y-98675000D01*
X162623571Y-100736905D02*
X163004524Y-100736905D01*
X163004524Y-99936905D01*
X162090238Y-100317857D02*
X161975952Y-100355952D01*
X161937857Y-100394048D01*
X161899762Y-100470238D01*
X161899762Y-100584524D01*
X161937857Y-100660714D01*
X161975952Y-100698810D01*
X162052143Y-100736905D01*
X162356905Y-100736905D01*
X162356905Y-99936905D01*
X162090238Y-99936905D01*
X162014048Y-99975000D01*
X161975952Y-100013095D01*
X161937857Y-100089286D01*
X161937857Y-100165476D01*
X161975952Y-100241667D01*
X162014048Y-100279762D01*
X162090238Y-100317857D01*
X162356905Y-100317857D01*
X161595000Y-100508333D02*
X161214048Y-100508333D01*
X161671191Y-100736905D02*
X161404524Y-99936905D01*
X161137857Y-100736905D01*
X160109286Y-99936905D02*
X160033095Y-99936905D01*
X159956905Y-99975000D01*
X159918810Y-100013095D01*
X159880714Y-100089286D01*
X159842619Y-100241667D01*
X159842619Y-100432143D01*
X159880714Y-100584524D01*
X159918810Y-100660714D01*
X159956905Y-100698810D01*
X160033095Y-100736905D01*
X160109286Y-100736905D01*
X160185476Y-100698810D01*
X160223572Y-100660714D01*
X160261667Y-100584524D01*
X160299762Y-100432143D01*
X160299762Y-100241667D01*
X160261667Y-100089286D01*
X160223572Y-100013095D01*
X160185476Y-99975000D01*
X160109286Y-99936905D01*
X158661666Y-101041667D02*
X158699762Y-101003571D01*
X158775952Y-100889286D01*
X158814047Y-100813095D01*
X158852143Y-100698810D01*
X158890238Y-100508333D01*
X158890238Y-100355952D01*
X158852143Y-100165476D01*
X158814047Y-100051190D01*
X158775952Y-99975000D01*
X158699762Y-99860714D01*
X158661666Y-99822619D01*
X158204524Y-99936905D02*
X158128333Y-99936905D01*
X158052143Y-99975000D01*
X158014048Y-100013095D01*
X157975952Y-100089286D01*
X157937857Y-100241667D01*
X157937857Y-100432143D01*
X157975952Y-100584524D01*
X158014048Y-100660714D01*
X158052143Y-100698810D01*
X158128333Y-100736905D01*
X158204524Y-100736905D01*
X158280714Y-100698810D01*
X158318810Y-100660714D01*
X158356905Y-100584524D01*
X158395000Y-100432143D01*
X158395000Y-100241667D01*
X158356905Y-100089286D01*
X158318810Y-100013095D01*
X158280714Y-99975000D01*
X158204524Y-99936905D01*
X157595000Y-100432143D02*
X156985476Y-100432143D01*
X156680714Y-99936905D02*
X156147381Y-99936905D01*
X156490238Y-100736905D01*
X155918809Y-101041667D02*
X155880714Y-101003571D01*
X155804524Y-100889286D01*
X155766428Y-100813095D01*
X155728333Y-100698810D01*
X155690238Y-100508333D01*
X155690238Y-100355952D01*
X155728333Y-100165476D01*
X155766428Y-100051190D01*
X155804524Y-99975000D01*
X155880714Y-99860714D01*
X155918809Y-99822619D01*
X134683571Y-96836905D02*
X135064524Y-96836905D01*
X135064524Y-96036905D01*
X134150238Y-96417857D02*
X134035952Y-96455952D01*
X133997857Y-96494048D01*
X133959762Y-96570238D01*
X133959762Y-96684524D01*
X133997857Y-96760714D01*
X134035952Y-96798810D01*
X134112143Y-96836905D01*
X134416905Y-96836905D01*
X134416905Y-96036905D01*
X134150238Y-96036905D01*
X134074048Y-96075000D01*
X134035952Y-96113095D01*
X133997857Y-96189286D01*
X133997857Y-96265476D01*
X134035952Y-96341667D01*
X134074048Y-96379762D01*
X134150238Y-96417857D01*
X134416905Y-96417857D01*
X133655000Y-96608333D02*
X133274048Y-96608333D01*
X133731191Y-96836905D02*
X133464524Y-96036905D01*
X133197857Y-96836905D01*
X131902619Y-96836905D02*
X132359762Y-96836905D01*
X132131191Y-96836905D02*
X132131191Y-96036905D01*
X132207381Y-96151190D01*
X132283572Y-96227381D01*
X132359762Y-96265476D01*
X130721666Y-97141667D02*
X130759762Y-97103571D01*
X130835952Y-96989286D01*
X130874047Y-96913095D01*
X130912143Y-96798810D01*
X130950238Y-96608333D01*
X130950238Y-96455952D01*
X130912143Y-96265476D01*
X130874047Y-96151190D01*
X130835952Y-96075000D01*
X130759762Y-95960714D01*
X130721666Y-95922619D01*
X130302619Y-96379762D02*
X130378810Y-96341667D01*
X130416905Y-96303571D01*
X130455000Y-96227381D01*
X130455000Y-96189286D01*
X130416905Y-96113095D01*
X130378810Y-96075000D01*
X130302619Y-96036905D01*
X130150238Y-96036905D01*
X130074048Y-96075000D01*
X130035952Y-96113095D01*
X129997857Y-96189286D01*
X129997857Y-96227381D01*
X130035952Y-96303571D01*
X130074048Y-96341667D01*
X130150238Y-96379762D01*
X130302619Y-96379762D01*
X130378810Y-96417857D01*
X130416905Y-96455952D01*
X130455000Y-96532143D01*
X130455000Y-96684524D01*
X130416905Y-96760714D01*
X130378810Y-96798810D01*
X130302619Y-96836905D01*
X130150238Y-96836905D01*
X130074048Y-96798810D01*
X130035952Y-96760714D01*
X129997857Y-96684524D01*
X129997857Y-96532143D01*
X130035952Y-96455952D01*
X130074048Y-96417857D01*
X130150238Y-96379762D01*
X129655000Y-96532143D02*
X129045476Y-96532143D01*
X128245476Y-96836905D02*
X128702619Y-96836905D01*
X128474048Y-96836905D02*
X128474048Y-96036905D01*
X128550238Y-96151190D01*
X128626429Y-96227381D01*
X128702619Y-96265476D01*
X127521666Y-96036905D02*
X127902619Y-96036905D01*
X127940714Y-96417857D01*
X127902619Y-96379762D01*
X127826428Y-96341667D01*
X127635952Y-96341667D01*
X127559762Y-96379762D01*
X127521666Y-96417857D01*
X127483571Y-96494048D01*
X127483571Y-96684524D01*
X127521666Y-96760714D01*
X127559762Y-96798810D01*
X127635952Y-96836905D01*
X127826428Y-96836905D01*
X127902619Y-96798810D01*
X127940714Y-96760714D01*
X127216904Y-97141667D02*
X127178809Y-97103571D01*
X127102619Y-96989286D01*
X127064523Y-96913095D01*
X127026428Y-96798810D01*
X126988333Y-96608333D01*
X126988333Y-96455952D01*
X127026428Y-96265476D01*
X127064523Y-96151190D01*
X127102619Y-96075000D01*
X127178809Y-95960714D01*
X127216904Y-95922619D01*
X134683571Y-98136905D02*
X135064524Y-98136905D01*
X135064524Y-97336905D01*
X134150238Y-97717857D02*
X134035952Y-97755952D01*
X133997857Y-97794048D01*
X133959762Y-97870238D01*
X133959762Y-97984524D01*
X133997857Y-98060714D01*
X134035952Y-98098810D01*
X134112143Y-98136905D01*
X134416905Y-98136905D01*
X134416905Y-97336905D01*
X134150238Y-97336905D01*
X134074048Y-97375000D01*
X134035952Y-97413095D01*
X133997857Y-97489286D01*
X133997857Y-97565476D01*
X134035952Y-97641667D01*
X134074048Y-97679762D01*
X134150238Y-97717857D01*
X134416905Y-97717857D01*
X133655000Y-97908333D02*
X133274048Y-97908333D01*
X133731191Y-98136905D02*
X133464524Y-97336905D01*
X133197857Y-98136905D01*
X132359762Y-97413095D02*
X132321667Y-97375000D01*
X132245476Y-97336905D01*
X132055000Y-97336905D01*
X131978810Y-97375000D01*
X131940714Y-97413095D01*
X131902619Y-97489286D01*
X131902619Y-97565476D01*
X131940714Y-97679762D01*
X132397857Y-98136905D01*
X131902619Y-98136905D01*
X130721666Y-98441667D02*
X130759762Y-98403571D01*
X130835952Y-98289286D01*
X130874047Y-98213095D01*
X130912143Y-98098810D01*
X130950238Y-97908333D01*
X130950238Y-97755952D01*
X130912143Y-97565476D01*
X130874047Y-97451190D01*
X130835952Y-97375000D01*
X130759762Y-97260714D01*
X130721666Y-97222619D01*
X129997857Y-98136905D02*
X130455000Y-98136905D01*
X130226429Y-98136905D02*
X130226429Y-97336905D01*
X130302619Y-97451190D01*
X130378810Y-97527381D01*
X130455000Y-97565476D01*
X129312143Y-97336905D02*
X129464524Y-97336905D01*
X129540714Y-97375000D01*
X129578809Y-97413095D01*
X129655000Y-97527381D01*
X129693095Y-97679762D01*
X129693095Y-97984524D01*
X129655000Y-98060714D01*
X129616905Y-98098810D01*
X129540714Y-98136905D01*
X129388333Y-98136905D01*
X129312143Y-98098810D01*
X129274047Y-98060714D01*
X129235952Y-97984524D01*
X129235952Y-97794048D01*
X129274047Y-97717857D01*
X129312143Y-97679762D01*
X129388333Y-97641667D01*
X129540714Y-97641667D01*
X129616905Y-97679762D01*
X129655000Y-97717857D01*
X129693095Y-97794048D01*
X128893095Y-97832143D02*
X128283571Y-97832143D01*
X127940714Y-97413095D02*
X127902619Y-97375000D01*
X127826428Y-97336905D01*
X127635952Y-97336905D01*
X127559762Y-97375000D01*
X127521666Y-97413095D01*
X127483571Y-97489286D01*
X127483571Y-97565476D01*
X127521666Y-97679762D01*
X127978809Y-98136905D01*
X127483571Y-98136905D01*
X127216904Y-97336905D02*
X126721666Y-97336905D01*
X126988333Y-97641667D01*
X126874047Y-97641667D01*
X126797857Y-97679762D01*
X126759761Y-97717857D01*
X126721666Y-97794048D01*
X126721666Y-97984524D01*
X126759761Y-98060714D01*
X126797857Y-98098810D01*
X126874047Y-98136905D01*
X127102619Y-98136905D01*
X127178809Y-98098810D01*
X127216904Y-98060714D01*
X126454999Y-98441667D02*
X126416904Y-98403571D01*
X126340714Y-98289286D01*
X126302618Y-98213095D01*
X126264523Y-98098810D01*
X126226428Y-97908333D01*
X126226428Y-97755952D01*
X126264523Y-97565476D01*
X126302618Y-97451190D01*
X126340714Y-97375000D01*
X126416904Y-97260714D01*
X126454999Y-97222619D01*
X134683571Y-99436905D02*
X135064524Y-99436905D01*
X135064524Y-98636905D01*
X134150238Y-99017857D02*
X134035952Y-99055952D01*
X133997857Y-99094048D01*
X133959762Y-99170238D01*
X133959762Y-99284524D01*
X133997857Y-99360714D01*
X134035952Y-99398810D01*
X134112143Y-99436905D01*
X134416905Y-99436905D01*
X134416905Y-98636905D01*
X134150238Y-98636905D01*
X134074048Y-98675000D01*
X134035952Y-98713095D01*
X133997857Y-98789286D01*
X133997857Y-98865476D01*
X134035952Y-98941667D01*
X134074048Y-98979762D01*
X134150238Y-99017857D01*
X134416905Y-99017857D01*
X133655000Y-99208333D02*
X133274048Y-99208333D01*
X133731191Y-99436905D02*
X133464524Y-98636905D01*
X133197857Y-99436905D01*
X132397857Y-98636905D02*
X131902619Y-98636905D01*
X132169286Y-98941667D01*
X132055000Y-98941667D01*
X131978810Y-98979762D01*
X131940714Y-99017857D01*
X131902619Y-99094048D01*
X131902619Y-99284524D01*
X131940714Y-99360714D01*
X131978810Y-99398810D01*
X132055000Y-99436905D01*
X132283572Y-99436905D01*
X132359762Y-99398810D01*
X132397857Y-99360714D01*
X130721666Y-99741667D02*
X130759762Y-99703571D01*
X130835952Y-99589286D01*
X130874047Y-99513095D01*
X130912143Y-99398810D01*
X130950238Y-99208333D01*
X130950238Y-99055952D01*
X130912143Y-98865476D01*
X130874047Y-98751190D01*
X130835952Y-98675000D01*
X130759762Y-98560714D01*
X130721666Y-98522619D01*
X130455000Y-98713095D02*
X130416905Y-98675000D01*
X130340714Y-98636905D01*
X130150238Y-98636905D01*
X130074048Y-98675000D01*
X130035952Y-98713095D01*
X129997857Y-98789286D01*
X129997857Y-98865476D01*
X130035952Y-98979762D01*
X130493095Y-99436905D01*
X129997857Y-99436905D01*
X129312143Y-98903571D02*
X129312143Y-99436905D01*
X129502619Y-98598810D02*
X129693095Y-99170238D01*
X129197857Y-99170238D01*
X128893095Y-99132143D02*
X128283571Y-99132143D01*
X127940714Y-98713095D02*
X127902619Y-98675000D01*
X127826428Y-98636905D01*
X127635952Y-98636905D01*
X127559762Y-98675000D01*
X127521666Y-98713095D01*
X127483571Y-98789286D01*
X127483571Y-98865476D01*
X127521666Y-98979762D01*
X127978809Y-99436905D01*
X127483571Y-99436905D01*
X127216904Y-98636905D02*
X126683571Y-98636905D01*
X127026428Y-99436905D01*
X126454999Y-99741667D02*
X126416904Y-99703571D01*
X126340714Y-99589286D01*
X126302618Y-99513095D01*
X126264523Y-99398810D01*
X126226428Y-99208333D01*
X126226428Y-99055952D01*
X126264523Y-98865476D01*
X126302618Y-98751190D01*
X126340714Y-98675000D01*
X126416904Y-98560714D01*
X126454999Y-98522619D01*
X135102619Y-100698810D02*
X134988333Y-100736905D01*
X134797857Y-100736905D01*
X134721667Y-100698810D01*
X134683571Y-100660714D01*
X134645476Y-100584524D01*
X134645476Y-100508333D01*
X134683571Y-100432143D01*
X134721667Y-100394048D01*
X134797857Y-100355952D01*
X134950238Y-100317857D01*
X135026429Y-100279762D01*
X135064524Y-100241667D01*
X135102619Y-100165476D01*
X135102619Y-100089286D01*
X135064524Y-100013095D01*
X135026429Y-99975000D01*
X134950238Y-99936905D01*
X134759762Y-99936905D01*
X134645476Y-99975000D01*
X134416905Y-99936905D02*
X133959762Y-99936905D01*
X134188333Y-100736905D02*
X134188333Y-99936905D01*
X133731190Y-100508333D02*
X133350238Y-100508333D01*
X133807381Y-100736905D02*
X133540714Y-99936905D01*
X133274047Y-100736905D01*
X133121667Y-99936905D02*
X132664524Y-99936905D01*
X132893095Y-100736905D02*
X132893095Y-99936905D01*
X132397857Y-99936905D02*
X132397857Y-100584524D01*
X132359762Y-100660714D01*
X132321666Y-100698810D01*
X132245476Y-100736905D01*
X132093095Y-100736905D01*
X132016904Y-100698810D01*
X131978809Y-100660714D01*
X131940714Y-100584524D01*
X131940714Y-99936905D01*
X131597857Y-100698810D02*
X131483571Y-100736905D01*
X131293095Y-100736905D01*
X131216905Y-100698810D01*
X131178809Y-100660714D01*
X131140714Y-100584524D01*
X131140714Y-100508333D01*
X131178809Y-100432143D01*
X131216905Y-100394048D01*
X131293095Y-100355952D01*
X131445476Y-100317857D01*
X131521667Y-100279762D01*
X131559762Y-100241667D01*
X131597857Y-100165476D01*
X131597857Y-100089286D01*
X131559762Y-100013095D01*
X131521667Y-99975000D01*
X131445476Y-99936905D01*
X131255000Y-99936905D01*
X131140714Y-99975000D01*
X129959761Y-101041667D02*
X129997857Y-101003571D01*
X130074047Y-100889286D01*
X130112142Y-100813095D01*
X130150238Y-100698810D01*
X130188333Y-100508333D01*
X130188333Y-100355952D01*
X130150238Y-100165476D01*
X130112142Y-100051190D01*
X130074047Y-99975000D01*
X129997857Y-99860714D01*
X129959761Y-99822619D01*
X129197857Y-100736905D02*
X129464524Y-100355952D01*
X129655000Y-100736905D02*
X129655000Y-99936905D01*
X129350238Y-99936905D01*
X129274047Y-99975000D01*
X129235952Y-100013095D01*
X129197857Y-100089286D01*
X129197857Y-100203571D01*
X129235952Y-100279762D01*
X129274047Y-100317857D01*
X129350238Y-100355952D01*
X129655000Y-100355952D01*
X128931190Y-101041667D02*
X128893095Y-101003571D01*
X128816905Y-100889286D01*
X128778809Y-100813095D01*
X128740714Y-100698810D01*
X128702619Y-100508333D01*
X128702619Y-100355952D01*
X128740714Y-100165476D01*
X128778809Y-100051190D01*
X128816905Y-99975000D01*
X128893095Y-99860714D01*
X128931190Y-99822619D01*
X128283572Y-100698810D02*
X128283572Y-100736905D01*
X128321667Y-100813095D01*
X128359762Y-100851190D01*
X126874048Y-100660714D02*
X126912143Y-100698810D01*
X127026429Y-100736905D01*
X127102619Y-100736905D01*
X127216905Y-100698810D01*
X127293096Y-100622619D01*
X127331191Y-100546429D01*
X127369286Y-100394048D01*
X127369286Y-100279762D01*
X127331191Y-100127381D01*
X127293096Y-100051190D01*
X127216905Y-99975000D01*
X127102619Y-99936905D01*
X127026429Y-99936905D01*
X126912143Y-99975000D01*
X126874048Y-100013095D01*
X126378810Y-99936905D02*
X126226429Y-99936905D01*
X126150238Y-99975000D01*
X126074048Y-100051190D01*
X126035953Y-100203571D01*
X126035953Y-100470238D01*
X126074048Y-100622619D01*
X126150238Y-100698810D01*
X126226429Y-100736905D01*
X126378810Y-100736905D01*
X126455000Y-100698810D01*
X126531191Y-100622619D01*
X126569286Y-100470238D01*
X126569286Y-100203571D01*
X126531191Y-100051190D01*
X126455000Y-99975000D01*
X126378810Y-99936905D01*
X125693096Y-100736905D02*
X125693096Y-99936905D01*
X125426429Y-100508333D01*
X125159762Y-99936905D01*
X125159762Y-100736905D01*
X124778810Y-100736905D02*
X124778810Y-99936905D01*
X124512143Y-100508333D01*
X124245476Y-99936905D01*
X124245476Y-100736905D01*
X123902619Y-100508333D02*
X123521667Y-100508333D01*
X123978810Y-100736905D02*
X123712143Y-99936905D01*
X123445476Y-100736905D01*
X123178810Y-100736905D02*
X123178810Y-99936905D01*
X122721667Y-100736905D01*
X122721667Y-99936905D01*
X122340715Y-100736905D02*
X122340715Y-99936905D01*
X122150239Y-99936905D01*
X122035953Y-99975000D01*
X121959762Y-100051190D01*
X121921667Y-100127381D01*
X121883572Y-100279762D01*
X121883572Y-100394048D01*
X121921667Y-100546429D01*
X121959762Y-100622619D01*
X122035953Y-100698810D01*
X122150239Y-100736905D01*
X122340715Y-100736905D01*
X120702619Y-101041667D02*
X120740715Y-101003571D01*
X120816905Y-100889286D01*
X120855000Y-100813095D01*
X120893096Y-100698810D01*
X120931191Y-100508333D01*
X120931191Y-100355952D01*
X120893096Y-100165476D01*
X120855000Y-100051190D01*
X120816905Y-99975000D01*
X120740715Y-99860714D01*
X120702619Y-99822619D01*
X120474048Y-99936905D02*
X120283572Y-100736905D01*
X120131191Y-100165476D01*
X119978810Y-100736905D01*
X119788334Y-99936905D01*
X119559762Y-101041667D02*
X119521667Y-101003571D01*
X119445477Y-100889286D01*
X119407381Y-100813095D01*
X119369286Y-100698810D01*
X119331191Y-100508333D01*
X119331191Y-100355952D01*
X119369286Y-100165476D01*
X119407381Y-100051190D01*
X119445477Y-99975000D01*
X119521667Y-99860714D01*
X119559762Y-99822619D01*
X140182619Y-96798810D02*
X140068333Y-96836905D01*
X139877857Y-96836905D01*
X139801667Y-96798810D01*
X139763571Y-96760714D01*
X139725476Y-96684524D01*
X139725476Y-96608333D01*
X139763571Y-96532143D01*
X139801667Y-96494048D01*
X139877857Y-96455952D01*
X140030238Y-96417857D01*
X140106429Y-96379762D01*
X140144524Y-96341667D01*
X140182619Y-96265476D01*
X140182619Y-96189286D01*
X140144524Y-96113095D01*
X140106429Y-96075000D01*
X140030238Y-96036905D01*
X139839762Y-96036905D01*
X139725476Y-96075000D01*
X139954048Y-95922619D02*
X139954048Y-96951190D01*
X138925476Y-96760714D02*
X138963571Y-96798810D01*
X139077857Y-96836905D01*
X139154047Y-96836905D01*
X139268333Y-96798810D01*
X139344524Y-96722619D01*
X139382619Y-96646429D01*
X139420714Y-96494048D01*
X139420714Y-96379762D01*
X139382619Y-96227381D01*
X139344524Y-96151190D01*
X139268333Y-96075000D01*
X139154047Y-96036905D01*
X139077857Y-96036905D01*
X138963571Y-96075000D01*
X138925476Y-96113095D01*
X138582619Y-96417857D02*
X138315952Y-96417857D01*
X138201666Y-96836905D02*
X138582619Y-96836905D01*
X138582619Y-96036905D01*
X138201666Y-96036905D01*
X137706428Y-96036905D02*
X137630237Y-96036905D01*
X137554047Y-96075000D01*
X137515952Y-96113095D01*
X137477856Y-96189286D01*
X137439761Y-96341667D01*
X137439761Y-96532143D01*
X137477856Y-96684524D01*
X137515952Y-96760714D01*
X137554047Y-96798810D01*
X137630237Y-96836905D01*
X137706428Y-96836905D01*
X137782618Y-96798810D01*
X137820714Y-96760714D01*
X137858809Y-96684524D01*
X137896904Y-96532143D01*
X137896904Y-96341667D01*
X137858809Y-96189286D01*
X137820714Y-96113095D01*
X137782618Y-96075000D01*
X137706428Y-96036905D01*
X136754047Y-96303571D02*
X136754047Y-96836905D01*
X136944523Y-95998810D02*
X137134999Y-96570238D01*
X136639761Y-96570238D01*
X140182619Y-98098810D02*
X140068333Y-98136905D01*
X139877857Y-98136905D01*
X139801667Y-98098810D01*
X139763571Y-98060714D01*
X139725476Y-97984524D01*
X139725476Y-97908333D01*
X139763571Y-97832143D01*
X139801667Y-97794048D01*
X139877857Y-97755952D01*
X140030238Y-97717857D01*
X140106429Y-97679762D01*
X140144524Y-97641667D01*
X140182619Y-97565476D01*
X140182619Y-97489286D01*
X140144524Y-97413095D01*
X140106429Y-97375000D01*
X140030238Y-97336905D01*
X139839762Y-97336905D01*
X139725476Y-97375000D01*
X139954048Y-97222619D02*
X139954048Y-98251190D01*
X138925476Y-98060714D02*
X138963571Y-98098810D01*
X139077857Y-98136905D01*
X139154047Y-98136905D01*
X139268333Y-98098810D01*
X139344524Y-98022619D01*
X139382619Y-97946429D01*
X139420714Y-97794048D01*
X139420714Y-97679762D01*
X139382619Y-97527381D01*
X139344524Y-97451190D01*
X139268333Y-97375000D01*
X139154047Y-97336905D01*
X139077857Y-97336905D01*
X138963571Y-97375000D01*
X138925476Y-97413095D01*
X138582619Y-97717857D02*
X138315952Y-97717857D01*
X138201666Y-98136905D02*
X138582619Y-98136905D01*
X138582619Y-97336905D01*
X138201666Y-97336905D01*
X137706428Y-97336905D02*
X137630237Y-97336905D01*
X137554047Y-97375000D01*
X137515952Y-97413095D01*
X137477856Y-97489286D01*
X137439761Y-97641667D01*
X137439761Y-97832143D01*
X137477856Y-97984524D01*
X137515952Y-98060714D01*
X137554047Y-98098810D01*
X137630237Y-98136905D01*
X137706428Y-98136905D01*
X137782618Y-98098810D01*
X137820714Y-98060714D01*
X137858809Y-97984524D01*
X137896904Y-97832143D01*
X137896904Y-97641667D01*
X137858809Y-97489286D01*
X137820714Y-97413095D01*
X137782618Y-97375000D01*
X137706428Y-97336905D01*
X136715951Y-97336905D02*
X137096904Y-97336905D01*
X137134999Y-97717857D01*
X137096904Y-97679762D01*
X137020713Y-97641667D01*
X136830237Y-97641667D01*
X136754047Y-97679762D01*
X136715951Y-97717857D01*
X136677856Y-97794048D01*
X136677856Y-97984524D01*
X136715951Y-98060714D01*
X136754047Y-98098810D01*
X136830237Y-98136905D01*
X137020713Y-98136905D01*
X137096904Y-98098810D01*
X137134999Y-98060714D01*
X140182619Y-99398810D02*
X140068333Y-99436905D01*
X139877857Y-99436905D01*
X139801667Y-99398810D01*
X139763571Y-99360714D01*
X139725476Y-99284524D01*
X139725476Y-99208333D01*
X139763571Y-99132143D01*
X139801667Y-99094048D01*
X139877857Y-99055952D01*
X140030238Y-99017857D01*
X140106429Y-98979762D01*
X140144524Y-98941667D01*
X140182619Y-98865476D01*
X140182619Y-98789286D01*
X140144524Y-98713095D01*
X140106429Y-98675000D01*
X140030238Y-98636905D01*
X139839762Y-98636905D01*
X139725476Y-98675000D01*
X139954048Y-98522619D02*
X139954048Y-99551190D01*
X138925476Y-99360714D02*
X138963571Y-99398810D01*
X139077857Y-99436905D01*
X139154047Y-99436905D01*
X139268333Y-99398810D01*
X139344524Y-99322619D01*
X139382619Y-99246429D01*
X139420714Y-99094048D01*
X139420714Y-98979762D01*
X139382619Y-98827381D01*
X139344524Y-98751190D01*
X139268333Y-98675000D01*
X139154047Y-98636905D01*
X139077857Y-98636905D01*
X138963571Y-98675000D01*
X138925476Y-98713095D01*
X138582619Y-99017857D02*
X138315952Y-99017857D01*
X138201666Y-99436905D02*
X138582619Y-99436905D01*
X138582619Y-98636905D01*
X138201666Y-98636905D01*
X137706428Y-98636905D02*
X137630237Y-98636905D01*
X137554047Y-98675000D01*
X137515952Y-98713095D01*
X137477856Y-98789286D01*
X137439761Y-98941667D01*
X137439761Y-99132143D01*
X137477856Y-99284524D01*
X137515952Y-99360714D01*
X137554047Y-99398810D01*
X137630237Y-99436905D01*
X137706428Y-99436905D01*
X137782618Y-99398810D01*
X137820714Y-99360714D01*
X137858809Y-99284524D01*
X137896904Y-99132143D01*
X137896904Y-98941667D01*
X137858809Y-98789286D01*
X137820714Y-98713095D01*
X137782618Y-98675000D01*
X137706428Y-98636905D01*
X136754047Y-98636905D02*
X136906428Y-98636905D01*
X136982618Y-98675000D01*
X137020713Y-98713095D01*
X137096904Y-98827381D01*
X137134999Y-98979762D01*
X137134999Y-99284524D01*
X137096904Y-99360714D01*
X137058809Y-99398810D01*
X136982618Y-99436905D01*
X136830237Y-99436905D01*
X136754047Y-99398810D01*
X136715951Y-99360714D01*
X136677856Y-99284524D01*
X136677856Y-99094048D01*
X136715951Y-99017857D01*
X136754047Y-98979762D01*
X136830237Y-98941667D01*
X136982618Y-98941667D01*
X137058809Y-98979762D01*
X137096904Y-99017857D01*
X137134999Y-99094048D01*
X140182619Y-100698810D02*
X140068333Y-100736905D01*
X139877857Y-100736905D01*
X139801667Y-100698810D01*
X139763571Y-100660714D01*
X139725476Y-100584524D01*
X139725476Y-100508333D01*
X139763571Y-100432143D01*
X139801667Y-100394048D01*
X139877857Y-100355952D01*
X140030238Y-100317857D01*
X140106429Y-100279762D01*
X140144524Y-100241667D01*
X140182619Y-100165476D01*
X140182619Y-100089286D01*
X140144524Y-100013095D01*
X140106429Y-99975000D01*
X140030238Y-99936905D01*
X139839762Y-99936905D01*
X139725476Y-99975000D01*
X139954048Y-99822619D02*
X139954048Y-100851190D01*
X138925476Y-100660714D02*
X138963571Y-100698810D01*
X139077857Y-100736905D01*
X139154047Y-100736905D01*
X139268333Y-100698810D01*
X139344524Y-100622619D01*
X139382619Y-100546429D01*
X139420714Y-100394048D01*
X139420714Y-100279762D01*
X139382619Y-100127381D01*
X139344524Y-100051190D01*
X139268333Y-99975000D01*
X139154047Y-99936905D01*
X139077857Y-99936905D01*
X138963571Y-99975000D01*
X138925476Y-100013095D01*
X138582619Y-100317857D02*
X138315952Y-100317857D01*
X138201666Y-100736905D02*
X138582619Y-100736905D01*
X138582619Y-99936905D01*
X138201666Y-99936905D01*
X137706428Y-99936905D02*
X137630237Y-99936905D01*
X137554047Y-99975000D01*
X137515952Y-100013095D01*
X137477856Y-100089286D01*
X137439761Y-100241667D01*
X137439761Y-100432143D01*
X137477856Y-100584524D01*
X137515952Y-100660714D01*
X137554047Y-100698810D01*
X137630237Y-100736905D01*
X137706428Y-100736905D01*
X137782618Y-100698810D01*
X137820714Y-100660714D01*
X137858809Y-100584524D01*
X137896904Y-100432143D01*
X137896904Y-100241667D01*
X137858809Y-100089286D01*
X137820714Y-100013095D01*
X137782618Y-99975000D01*
X137706428Y-99936905D01*
X137173094Y-99936905D02*
X136639761Y-99936905D01*
X136982618Y-100736905D01*
X168122619Y-96798810D02*
X168008333Y-96836905D01*
X167817857Y-96836905D01*
X167741667Y-96798810D01*
X167703571Y-96760714D01*
X167665476Y-96684524D01*
X167665476Y-96608333D01*
X167703571Y-96532143D01*
X167741667Y-96494048D01*
X167817857Y-96455952D01*
X167970238Y-96417857D01*
X168046429Y-96379762D01*
X168084524Y-96341667D01*
X168122619Y-96265476D01*
X168122619Y-96189286D01*
X168084524Y-96113095D01*
X168046429Y-96075000D01*
X167970238Y-96036905D01*
X167779762Y-96036905D01*
X167665476Y-96075000D01*
X167894048Y-95922619D02*
X167894048Y-96951190D01*
X166865476Y-96760714D02*
X166903571Y-96798810D01*
X167017857Y-96836905D01*
X167094047Y-96836905D01*
X167208333Y-96798810D01*
X167284524Y-96722619D01*
X167322619Y-96646429D01*
X167360714Y-96494048D01*
X167360714Y-96379762D01*
X167322619Y-96227381D01*
X167284524Y-96151190D01*
X167208333Y-96075000D01*
X167094047Y-96036905D01*
X167017857Y-96036905D01*
X166903571Y-96075000D01*
X166865476Y-96113095D01*
X166522619Y-96417857D02*
X166255952Y-96417857D01*
X166141666Y-96836905D02*
X166522619Y-96836905D01*
X166522619Y-96036905D01*
X166141666Y-96036905D01*
X165646428Y-96036905D02*
X165570237Y-96036905D01*
X165494047Y-96075000D01*
X165455952Y-96113095D01*
X165417856Y-96189286D01*
X165379761Y-96341667D01*
X165379761Y-96532143D01*
X165417856Y-96684524D01*
X165455952Y-96760714D01*
X165494047Y-96798810D01*
X165570237Y-96836905D01*
X165646428Y-96836905D01*
X165722618Y-96798810D01*
X165760714Y-96760714D01*
X165798809Y-96684524D01*
X165836904Y-96532143D01*
X165836904Y-96341667D01*
X165798809Y-96189286D01*
X165760714Y-96113095D01*
X165722618Y-96075000D01*
X165646428Y-96036905D01*
X164884523Y-96036905D02*
X164808332Y-96036905D01*
X164732142Y-96075000D01*
X164694047Y-96113095D01*
X164655951Y-96189286D01*
X164617856Y-96341667D01*
X164617856Y-96532143D01*
X164655951Y-96684524D01*
X164694047Y-96760714D01*
X164732142Y-96798810D01*
X164808332Y-96836905D01*
X164884523Y-96836905D01*
X164960713Y-96798810D01*
X164998809Y-96760714D01*
X165036904Y-96684524D01*
X165074999Y-96532143D01*
X165074999Y-96341667D01*
X165036904Y-96189286D01*
X164998809Y-96113095D01*
X164960713Y-96075000D01*
X164884523Y-96036905D01*
X168122619Y-98098810D02*
X168008333Y-98136905D01*
X167817857Y-98136905D01*
X167741667Y-98098810D01*
X167703571Y-98060714D01*
X167665476Y-97984524D01*
X167665476Y-97908333D01*
X167703571Y-97832143D01*
X167741667Y-97794048D01*
X167817857Y-97755952D01*
X167970238Y-97717857D01*
X168046429Y-97679762D01*
X168084524Y-97641667D01*
X168122619Y-97565476D01*
X168122619Y-97489286D01*
X168084524Y-97413095D01*
X168046429Y-97375000D01*
X167970238Y-97336905D01*
X167779762Y-97336905D01*
X167665476Y-97375000D01*
X167894048Y-97222619D02*
X167894048Y-98251190D01*
X166865476Y-98060714D02*
X166903571Y-98098810D01*
X167017857Y-98136905D01*
X167094047Y-98136905D01*
X167208333Y-98098810D01*
X167284524Y-98022619D01*
X167322619Y-97946429D01*
X167360714Y-97794048D01*
X167360714Y-97679762D01*
X167322619Y-97527381D01*
X167284524Y-97451190D01*
X167208333Y-97375000D01*
X167094047Y-97336905D01*
X167017857Y-97336905D01*
X166903571Y-97375000D01*
X166865476Y-97413095D01*
X166522619Y-97717857D02*
X166255952Y-97717857D01*
X166141666Y-98136905D02*
X166522619Y-98136905D01*
X166522619Y-97336905D01*
X166141666Y-97336905D01*
X165646428Y-97336905D02*
X165570237Y-97336905D01*
X165494047Y-97375000D01*
X165455952Y-97413095D01*
X165417856Y-97489286D01*
X165379761Y-97641667D01*
X165379761Y-97832143D01*
X165417856Y-97984524D01*
X165455952Y-98060714D01*
X165494047Y-98098810D01*
X165570237Y-98136905D01*
X165646428Y-98136905D01*
X165722618Y-98098810D01*
X165760714Y-98060714D01*
X165798809Y-97984524D01*
X165836904Y-97832143D01*
X165836904Y-97641667D01*
X165798809Y-97489286D01*
X165760714Y-97413095D01*
X165722618Y-97375000D01*
X165646428Y-97336905D01*
X164617856Y-98136905D02*
X165074999Y-98136905D01*
X164846428Y-98136905D02*
X164846428Y-97336905D01*
X164922618Y-97451190D01*
X164998809Y-97527381D01*
X165074999Y-97565476D01*
X168122619Y-99398810D02*
X168008333Y-99436905D01*
X167817857Y-99436905D01*
X167741667Y-99398810D01*
X167703571Y-99360714D01*
X167665476Y-99284524D01*
X167665476Y-99208333D01*
X167703571Y-99132143D01*
X167741667Y-99094048D01*
X167817857Y-99055952D01*
X167970238Y-99017857D01*
X168046429Y-98979762D01*
X168084524Y-98941667D01*
X168122619Y-98865476D01*
X168122619Y-98789286D01*
X168084524Y-98713095D01*
X168046429Y-98675000D01*
X167970238Y-98636905D01*
X167779762Y-98636905D01*
X167665476Y-98675000D01*
X167894048Y-98522619D02*
X167894048Y-99551190D01*
X166865476Y-99360714D02*
X166903571Y-99398810D01*
X167017857Y-99436905D01*
X167094047Y-99436905D01*
X167208333Y-99398810D01*
X167284524Y-99322619D01*
X167322619Y-99246429D01*
X167360714Y-99094048D01*
X167360714Y-98979762D01*
X167322619Y-98827381D01*
X167284524Y-98751190D01*
X167208333Y-98675000D01*
X167094047Y-98636905D01*
X167017857Y-98636905D01*
X166903571Y-98675000D01*
X166865476Y-98713095D01*
X166522619Y-99017857D02*
X166255952Y-99017857D01*
X166141666Y-99436905D02*
X166522619Y-99436905D01*
X166522619Y-98636905D01*
X166141666Y-98636905D01*
X165646428Y-98636905D02*
X165570237Y-98636905D01*
X165494047Y-98675000D01*
X165455952Y-98713095D01*
X165417856Y-98789286D01*
X165379761Y-98941667D01*
X165379761Y-99132143D01*
X165417856Y-99284524D01*
X165455952Y-99360714D01*
X165494047Y-99398810D01*
X165570237Y-99436905D01*
X165646428Y-99436905D01*
X165722618Y-99398810D01*
X165760714Y-99360714D01*
X165798809Y-99284524D01*
X165836904Y-99132143D01*
X165836904Y-98941667D01*
X165798809Y-98789286D01*
X165760714Y-98713095D01*
X165722618Y-98675000D01*
X165646428Y-98636905D01*
X165074999Y-98713095D02*
X165036904Y-98675000D01*
X164960713Y-98636905D01*
X164770237Y-98636905D01*
X164694047Y-98675000D01*
X164655951Y-98713095D01*
X164617856Y-98789286D01*
X164617856Y-98865476D01*
X164655951Y-98979762D01*
X165113094Y-99436905D01*
X164617856Y-99436905D01*
X168122619Y-100698810D02*
X168008333Y-100736905D01*
X167817857Y-100736905D01*
X167741667Y-100698810D01*
X167703571Y-100660714D01*
X167665476Y-100584524D01*
X167665476Y-100508333D01*
X167703571Y-100432143D01*
X167741667Y-100394048D01*
X167817857Y-100355952D01*
X167970238Y-100317857D01*
X168046429Y-100279762D01*
X168084524Y-100241667D01*
X168122619Y-100165476D01*
X168122619Y-100089286D01*
X168084524Y-100013095D01*
X168046429Y-99975000D01*
X167970238Y-99936905D01*
X167779762Y-99936905D01*
X167665476Y-99975000D01*
X167894048Y-99822619D02*
X167894048Y-100851190D01*
X166865476Y-100660714D02*
X166903571Y-100698810D01*
X167017857Y-100736905D01*
X167094047Y-100736905D01*
X167208333Y-100698810D01*
X167284524Y-100622619D01*
X167322619Y-100546429D01*
X167360714Y-100394048D01*
X167360714Y-100279762D01*
X167322619Y-100127381D01*
X167284524Y-100051190D01*
X167208333Y-99975000D01*
X167094047Y-99936905D01*
X167017857Y-99936905D01*
X166903571Y-99975000D01*
X166865476Y-100013095D01*
X166522619Y-100317857D02*
X166255952Y-100317857D01*
X166141666Y-100736905D02*
X166522619Y-100736905D01*
X166522619Y-99936905D01*
X166141666Y-99936905D01*
X165646428Y-99936905D02*
X165570237Y-99936905D01*
X165494047Y-99975000D01*
X165455952Y-100013095D01*
X165417856Y-100089286D01*
X165379761Y-100241667D01*
X165379761Y-100432143D01*
X165417856Y-100584524D01*
X165455952Y-100660714D01*
X165494047Y-100698810D01*
X165570237Y-100736905D01*
X165646428Y-100736905D01*
X165722618Y-100698810D01*
X165760714Y-100660714D01*
X165798809Y-100584524D01*
X165836904Y-100432143D01*
X165836904Y-100241667D01*
X165798809Y-100089286D01*
X165760714Y-100013095D01*
X165722618Y-99975000D01*
X165646428Y-99936905D01*
X165113094Y-99936905D02*
X164617856Y-99936905D01*
X164884523Y-100241667D01*
X164770237Y-100241667D01*
X164694047Y-100279762D01*
X164655951Y-100317857D01*
X164617856Y-100394048D01*
X164617856Y-100584524D01*
X164655951Y-100660714D01*
X164694047Y-100698810D01*
X164770237Y-100736905D01*
X164998809Y-100736905D01*
X165074999Y-100698810D01*
X165113094Y-100660714D01*
X111690000Y-121631905D02*
X111690000Y-120831905D01*
X111499524Y-120831905D01*
X111385238Y-120870000D01*
X111309047Y-120946190D01*
X111270952Y-121022381D01*
X111232857Y-121174762D01*
X111232857Y-121289048D01*
X111270952Y-121441429D01*
X111309047Y-121517619D01*
X111385238Y-121593810D01*
X111499524Y-121631905D01*
X111690000Y-121631905D01*
X110928095Y-121403333D02*
X110547143Y-121403333D01*
X111004286Y-121631905D02*
X110737619Y-120831905D01*
X110470952Y-121631905D01*
X110318572Y-120831905D02*
X109861429Y-120831905D01*
X110090000Y-121631905D02*
X110090000Y-120831905D01*
X109632857Y-121403333D02*
X109251905Y-121403333D01*
X109709048Y-121631905D02*
X109442381Y-120831905D01*
X109175714Y-121631905D01*
X112299523Y-122512857D02*
X112185237Y-122550952D01*
X112147142Y-122589048D01*
X112109047Y-122665238D01*
X112109047Y-122779524D01*
X112147142Y-122855714D01*
X112185237Y-122893810D01*
X112261428Y-122931905D01*
X112566190Y-122931905D01*
X112566190Y-122131905D01*
X112299523Y-122131905D01*
X112223333Y-122170000D01*
X112185237Y-122208095D01*
X112147142Y-122284286D01*
X112147142Y-122360476D01*
X112185237Y-122436667D01*
X112223333Y-122474762D01*
X112299523Y-122512857D01*
X112566190Y-122512857D01*
X111766190Y-122131905D02*
X111766190Y-122779524D01*
X111728095Y-122855714D01*
X111689999Y-122893810D01*
X111613809Y-122931905D01*
X111461428Y-122931905D01*
X111385237Y-122893810D01*
X111347142Y-122855714D01*
X111309047Y-122779524D01*
X111309047Y-122131905D01*
X110661428Y-122512857D02*
X110928095Y-122512857D01*
X110928095Y-122931905D02*
X110928095Y-122131905D01*
X110547142Y-122131905D01*
X109975714Y-122512857D02*
X110242381Y-122512857D01*
X110242381Y-122931905D02*
X110242381Y-122131905D01*
X109861428Y-122131905D01*
X109556667Y-122512857D02*
X109290000Y-122512857D01*
X109175714Y-122931905D02*
X109556667Y-122931905D01*
X109556667Y-122131905D01*
X109175714Y-122131905D01*
X108375714Y-122931905D02*
X108642381Y-122550952D01*
X108832857Y-122931905D02*
X108832857Y-122131905D01*
X108528095Y-122131905D01*
X108451904Y-122170000D01*
X108413809Y-122208095D01*
X108375714Y-122284286D01*
X108375714Y-122398571D01*
X108413809Y-122474762D01*
X108451904Y-122512857D01*
X108528095Y-122550952D01*
X108832857Y-122550952D01*
X127634761Y-121593810D02*
X127520475Y-121631905D01*
X127329999Y-121631905D01*
X127253809Y-121593810D01*
X127215713Y-121555714D01*
X127177618Y-121479524D01*
X127177618Y-121403333D01*
X127215713Y-121327143D01*
X127253809Y-121289048D01*
X127329999Y-121250952D01*
X127482380Y-121212857D01*
X127558571Y-121174762D01*
X127596666Y-121136667D01*
X127634761Y-121060476D01*
X127634761Y-120984286D01*
X127596666Y-120908095D01*
X127558571Y-120870000D01*
X127482380Y-120831905D01*
X127291904Y-120831905D01*
X127177618Y-120870000D01*
X126834761Y-121631905D02*
X126834761Y-120831905D01*
X126034761Y-120870000D02*
X126110952Y-120831905D01*
X126225237Y-120831905D01*
X126339523Y-120870000D01*
X126415714Y-120946190D01*
X126453809Y-121022381D01*
X126491904Y-121174762D01*
X126491904Y-121289048D01*
X126453809Y-121441429D01*
X126415714Y-121517619D01*
X126339523Y-121593810D01*
X126225237Y-121631905D01*
X126149047Y-121631905D01*
X126034761Y-121593810D01*
X125996666Y-121555714D01*
X125996666Y-121289048D01*
X126149047Y-121289048D01*
X125653809Y-121631905D02*
X125653809Y-120831905D01*
X125196666Y-121631905D01*
X125196666Y-120831905D01*
X124853809Y-121403333D02*
X124472857Y-121403333D01*
X124930000Y-121631905D02*
X124663333Y-120831905D01*
X124396666Y-121631905D01*
X123749047Y-121631905D02*
X124130000Y-121631905D01*
X124130000Y-120831905D01*
X127539523Y-122512857D02*
X127425237Y-122550952D01*
X127387142Y-122589048D01*
X127349047Y-122665238D01*
X127349047Y-122779524D01*
X127387142Y-122855714D01*
X127425237Y-122893810D01*
X127501428Y-122931905D01*
X127806190Y-122931905D01*
X127806190Y-122131905D01*
X127539523Y-122131905D01*
X127463333Y-122170000D01*
X127425237Y-122208095D01*
X127387142Y-122284286D01*
X127387142Y-122360476D01*
X127425237Y-122436667D01*
X127463333Y-122474762D01*
X127539523Y-122512857D01*
X127806190Y-122512857D01*
X127006190Y-122131905D02*
X127006190Y-122779524D01*
X126968095Y-122855714D01*
X126929999Y-122893810D01*
X126853809Y-122931905D01*
X126701428Y-122931905D01*
X126625237Y-122893810D01*
X126587142Y-122855714D01*
X126549047Y-122779524D01*
X126549047Y-122131905D01*
X125901428Y-122512857D02*
X126168095Y-122512857D01*
X126168095Y-122931905D02*
X126168095Y-122131905D01*
X125787142Y-122131905D01*
X125215714Y-122512857D02*
X125482381Y-122512857D01*
X125482381Y-122931905D02*
X125482381Y-122131905D01*
X125101428Y-122131905D01*
X124796667Y-122512857D02*
X124530000Y-122512857D01*
X124415714Y-122931905D02*
X124796667Y-122931905D01*
X124796667Y-122131905D01*
X124415714Y-122131905D01*
X123615714Y-122931905D02*
X123882381Y-122550952D01*
X124072857Y-122931905D02*
X124072857Y-122131905D01*
X123768095Y-122131905D01*
X123691904Y-122170000D01*
X123653809Y-122208095D01*
X123615714Y-122284286D01*
X123615714Y-122398571D01*
X123653809Y-122474762D01*
X123691904Y-122512857D01*
X123768095Y-122550952D01*
X124072857Y-122550952D01*
D11*
X129540000Y-138430000D02*
X129540000Y-137160000D01*
X121920000Y-138430000D02*
X129540000Y-138430000D01*
X121920000Y-137160000D02*
X121920000Y-138430000D01*
X114300000Y-138430000D02*
X114300000Y-137160000D01*
X106680000Y-138430000D02*
X114300000Y-138430000D01*
X106680000Y-137160000D02*
X106680000Y-138430000D01*
X129540000Y-111760000D02*
X129540000Y-113030000D01*
X121920000Y-111760000D02*
X129540000Y-111760000D01*
X121920000Y-113030000D02*
X121920000Y-111760000D01*
X114300000Y-111760000D02*
X114300000Y-113030000D01*
X106680000Y-111760000D02*
X114300000Y-111760000D01*
X106680000Y-113030000D02*
X106680000Y-111760000D01*
D10*
X184759523Y-101200000D02*
X184835714Y-101161905D01*
X184949999Y-101161905D01*
X185064285Y-101200000D01*
X185140476Y-101276190D01*
X185178571Y-101352381D01*
X185216666Y-101504762D01*
X185216666Y-101619048D01*
X185178571Y-101771429D01*
X185140476Y-101847619D01*
X185064285Y-101923810D01*
X184949999Y-101961905D01*
X184873809Y-101961905D01*
X184759523Y-101923810D01*
X184721428Y-101885714D01*
X184721428Y-101619048D01*
X184873809Y-101619048D01*
X184378571Y-101961905D02*
X184378571Y-101161905D01*
X183921428Y-101961905D01*
X183921428Y-101161905D01*
X183540476Y-101961905D02*
X183540476Y-101161905D01*
X183350000Y-101161905D01*
X183235714Y-101200000D01*
X183159523Y-101276190D01*
X183121428Y-101352381D01*
X183083333Y-101504762D01*
X183083333Y-101619048D01*
X183121428Y-101771429D01*
X183159523Y-101847619D01*
X183235714Y-101923810D01*
X183350000Y-101961905D01*
X183540476Y-101961905D01*
X187756667Y-101161905D02*
X187490000Y-101961905D01*
X187223333Y-101161905D01*
X186499524Y-101885714D02*
X186537619Y-101923810D01*
X186651905Y-101961905D01*
X186728095Y-101961905D01*
X186842381Y-101923810D01*
X186918572Y-101847619D01*
X186956667Y-101771429D01*
X186994762Y-101619048D01*
X186994762Y-101504762D01*
X186956667Y-101352381D01*
X186918572Y-101276190D01*
X186842381Y-101200000D01*
X186728095Y-101161905D01*
X186651905Y-101161905D01*
X186537619Y-101200000D01*
X186499524Y-101238095D01*
X185699524Y-101885714D02*
X185737619Y-101923810D01*
X185851905Y-101961905D01*
X185928095Y-101961905D01*
X186042381Y-101923810D01*
X186118572Y-101847619D01*
X186156667Y-101771429D01*
X186194762Y-101619048D01*
X186194762Y-101504762D01*
X186156667Y-101352381D01*
X186118572Y-101276190D01*
X186042381Y-101200000D01*
X185928095Y-101161905D01*
X185851905Y-101161905D01*
X185737619Y-101200000D01*
X185699524Y-101238095D01*
X105384523Y-101200000D02*
X105460714Y-101161905D01*
X105574999Y-101161905D01*
X105689285Y-101200000D01*
X105765476Y-101276190D01*
X105803571Y-101352381D01*
X105841666Y-101504762D01*
X105841666Y-101619048D01*
X105803571Y-101771429D01*
X105765476Y-101847619D01*
X105689285Y-101923810D01*
X105574999Y-101961905D01*
X105498809Y-101961905D01*
X105384523Y-101923810D01*
X105346428Y-101885714D01*
X105346428Y-101619048D01*
X105498809Y-101619048D01*
X105003571Y-101961905D02*
X105003571Y-101161905D01*
X104546428Y-101961905D01*
X104546428Y-101161905D01*
X104165476Y-101961905D02*
X104165476Y-101161905D01*
X103975000Y-101161905D01*
X103860714Y-101200000D01*
X103784523Y-101276190D01*
X103746428Y-101352381D01*
X103708333Y-101504762D01*
X103708333Y-101619048D01*
X103746428Y-101771429D01*
X103784523Y-101847619D01*
X103860714Y-101923810D01*
X103975000Y-101961905D01*
X104165476Y-101961905D01*
X108381667Y-101161905D02*
X108115000Y-101961905D01*
X107848333Y-101161905D01*
X107124524Y-101885714D02*
X107162619Y-101923810D01*
X107276905Y-101961905D01*
X107353095Y-101961905D01*
X107467381Y-101923810D01*
X107543572Y-101847619D01*
X107581667Y-101771429D01*
X107619762Y-101619048D01*
X107619762Y-101504762D01*
X107581667Y-101352381D01*
X107543572Y-101276190D01*
X107467381Y-101200000D01*
X107353095Y-101161905D01*
X107276905Y-101161905D01*
X107162619Y-101200000D01*
X107124524Y-101238095D01*
X106324524Y-101885714D02*
X106362619Y-101923810D01*
X106476905Y-101961905D01*
X106553095Y-101961905D01*
X106667381Y-101923810D01*
X106743572Y-101847619D01*
X106781667Y-101771429D01*
X106819762Y-101619048D01*
X106819762Y-101504762D01*
X106781667Y-101352381D01*
X106743572Y-101276190D01*
X106667381Y-101200000D01*
X106553095Y-101161905D01*
X106476905Y-101161905D01*
X106362619Y-101200000D01*
X106324524Y-101238095D01*
X118338571Y-104413095D02*
X118300476Y-104375000D01*
X118224285Y-104336905D01*
X118033809Y-104336905D01*
X117957619Y-104375000D01*
X117919523Y-104413095D01*
X117881428Y-104489286D01*
X117881428Y-104565476D01*
X117919523Y-104679762D01*
X118376666Y-105136905D01*
X117881428Y-105136905D01*
X117881428Y-107676905D02*
X118338571Y-107676905D01*
X118110000Y-107676905D02*
X118110000Y-106876905D01*
X118186190Y-106991190D01*
X118262381Y-107067381D01*
X118338571Y-107105476D01*
X142360476Y-121631905D02*
X142360476Y-120831905D01*
X141903333Y-121631905D01*
X141903333Y-120831905D01*
X141560476Y-121403333D02*
X141179524Y-121403333D01*
X141636667Y-121631905D02*
X141370000Y-120831905D01*
X141103333Y-121631905D01*
X140836667Y-121631905D02*
X140836667Y-120831905D01*
X140379524Y-121631905D01*
X140379524Y-120831905D01*
X139998572Y-121631905D02*
X139998572Y-120831905D01*
X139808096Y-120831905D01*
X139693810Y-120870000D01*
X139617619Y-120946190D01*
X139579524Y-121022381D01*
X139541429Y-121174762D01*
X139541429Y-121289048D01*
X139579524Y-121441429D01*
X139617619Y-121517619D01*
X139693810Y-121593810D01*
X139808096Y-121631905D01*
X139998572Y-121631905D01*
X142150952Y-122170000D02*
X142227143Y-122131905D01*
X142341428Y-122131905D01*
X142455714Y-122170000D01*
X142531905Y-122246190D01*
X142570000Y-122322381D01*
X142608095Y-122474762D01*
X142608095Y-122589048D01*
X142570000Y-122741429D01*
X142531905Y-122817619D01*
X142455714Y-122893810D01*
X142341428Y-122931905D01*
X142265238Y-122931905D01*
X142150952Y-122893810D01*
X142112857Y-122855714D01*
X142112857Y-122589048D01*
X142265238Y-122589048D01*
X141808095Y-122703333D02*
X141427143Y-122703333D01*
X141884286Y-122931905D02*
X141617619Y-122131905D01*
X141350952Y-122931905D01*
X141198572Y-122131905D02*
X140741429Y-122131905D01*
X140970000Y-122931905D02*
X140970000Y-122131905D01*
X140474762Y-122512857D02*
X140208095Y-122512857D01*
X140093809Y-122931905D02*
X140474762Y-122931905D01*
X140474762Y-122131905D01*
X140093809Y-122131905D01*
X139789047Y-122893810D02*
X139674761Y-122931905D01*
X139484285Y-122931905D01*
X139408095Y-122893810D01*
X139369999Y-122855714D01*
X139331904Y-122779524D01*
X139331904Y-122703333D01*
X139369999Y-122627143D01*
X139408095Y-122589048D01*
X139484285Y-122550952D01*
X139636666Y-122512857D01*
X139712857Y-122474762D01*
X139750952Y-122436667D01*
X139789047Y-122360476D01*
X139789047Y-122284286D01*
X139750952Y-122208095D01*
X139712857Y-122170000D01*
X139636666Y-122131905D01*
X139446190Y-122131905D01*
X139331904Y-122170000D01*
D11*
X137160000Y-111760000D02*
X137160000Y-113030000D01*
X144780000Y-111760000D02*
X137160000Y-111760000D01*
X144780000Y-113030000D02*
X144780000Y-111760000D01*
X144780000Y-130810000D02*
X144780000Y-129540000D01*
X137160000Y-130810000D02*
X144780000Y-130810000D01*
X137160000Y-129540000D02*
X137160000Y-130810000D01*
X186055000Y-127635000D02*
X187325000Y-127635000D01*
X181610000Y-127635000D02*
X182245000Y-127635000D01*
X185420000Y-128270000D02*
X185420000Y-127000000D01*
X182880000Y-128270000D02*
X185420000Y-128270000D01*
X182880000Y-127000000D02*
X182880000Y-128270000D01*
D10*
X173964286Y-121403333D02*
X173583334Y-121403333D01*
X174040477Y-121631905D02*
X173773810Y-120831905D01*
X173507143Y-121631905D01*
X173240477Y-121631905D02*
X173240477Y-120831905D01*
X173050001Y-120831905D01*
X172935715Y-120870000D01*
X172859524Y-120946190D01*
X172821429Y-121022381D01*
X172783334Y-121174762D01*
X172783334Y-121289048D01*
X172821429Y-121441429D01*
X172859524Y-121517619D01*
X172935715Y-121593810D01*
X173050001Y-121631905D01*
X173240477Y-121631905D01*
X172440477Y-121631905D02*
X172440477Y-120831905D01*
X172250001Y-120831905D01*
X172135715Y-120870000D01*
X172059524Y-120946190D01*
X172021429Y-121022381D01*
X171983334Y-121174762D01*
X171983334Y-121289048D01*
X172021429Y-121441429D01*
X172059524Y-121517619D01*
X172135715Y-121593810D01*
X172250001Y-121631905D01*
X172440477Y-121631905D01*
X171183334Y-121631905D02*
X171450001Y-121250952D01*
X171640477Y-121631905D02*
X171640477Y-120831905D01*
X171335715Y-120831905D01*
X171259524Y-120870000D01*
X171221429Y-120908095D01*
X171183334Y-120984286D01*
X171183334Y-121098571D01*
X171221429Y-121174762D01*
X171259524Y-121212857D01*
X171335715Y-121250952D01*
X171640477Y-121250952D01*
X170840477Y-121212857D02*
X170573810Y-121212857D01*
X170459524Y-121631905D02*
X170840477Y-121631905D01*
X170840477Y-120831905D01*
X170459524Y-120831905D01*
X170154762Y-121593810D02*
X170040476Y-121631905D01*
X169850000Y-121631905D01*
X169773810Y-121593810D01*
X169735714Y-121555714D01*
X169697619Y-121479524D01*
X169697619Y-121403333D01*
X169735714Y-121327143D01*
X169773810Y-121289048D01*
X169850000Y-121250952D01*
X170002381Y-121212857D01*
X170078572Y-121174762D01*
X170116667Y-121136667D01*
X170154762Y-121060476D01*
X170154762Y-120984286D01*
X170116667Y-120908095D01*
X170078572Y-120870000D01*
X170002381Y-120831905D01*
X169811905Y-120831905D01*
X169697619Y-120870000D01*
X169392857Y-121593810D02*
X169278571Y-121631905D01*
X169088095Y-121631905D01*
X169011905Y-121593810D01*
X168973809Y-121555714D01*
X168935714Y-121479524D01*
X168935714Y-121403333D01*
X168973809Y-121327143D01*
X169011905Y-121289048D01*
X169088095Y-121250952D01*
X169240476Y-121212857D01*
X169316667Y-121174762D01*
X169354762Y-121136667D01*
X169392857Y-121060476D01*
X169392857Y-120984286D01*
X169354762Y-120908095D01*
X169316667Y-120870000D01*
X169240476Y-120831905D01*
X169050000Y-120831905D01*
X168935714Y-120870000D01*
X174250000Y-122931905D02*
X174250000Y-122131905D01*
X174059524Y-122131905D01*
X173945238Y-122170000D01*
X173869047Y-122246190D01*
X173830952Y-122322381D01*
X173792857Y-122474762D01*
X173792857Y-122589048D01*
X173830952Y-122741429D01*
X173869047Y-122817619D01*
X173945238Y-122893810D01*
X174059524Y-122931905D01*
X174250000Y-122931905D01*
X173450000Y-122512857D02*
X173183333Y-122512857D01*
X173069047Y-122931905D02*
X173450000Y-122931905D01*
X173450000Y-122131905D01*
X173069047Y-122131905D01*
X172269047Y-122855714D02*
X172307142Y-122893810D01*
X172421428Y-122931905D01*
X172497618Y-122931905D01*
X172611904Y-122893810D01*
X172688095Y-122817619D01*
X172726190Y-122741429D01*
X172764285Y-122589048D01*
X172764285Y-122474762D01*
X172726190Y-122322381D01*
X172688095Y-122246190D01*
X172611904Y-122170000D01*
X172497618Y-122131905D01*
X172421428Y-122131905D01*
X172307142Y-122170000D01*
X172269047Y-122208095D01*
X171773809Y-122131905D02*
X171621428Y-122131905D01*
X171545237Y-122170000D01*
X171469047Y-122246190D01*
X171430952Y-122398571D01*
X171430952Y-122665238D01*
X171469047Y-122817619D01*
X171545237Y-122893810D01*
X171621428Y-122931905D01*
X171773809Y-122931905D01*
X171849999Y-122893810D01*
X171926190Y-122817619D01*
X171964285Y-122665238D01*
X171964285Y-122398571D01*
X171926190Y-122246190D01*
X171849999Y-122170000D01*
X171773809Y-122131905D01*
X171088095Y-122931905D02*
X171088095Y-122131905D01*
X170897619Y-122131905D01*
X170783333Y-122170000D01*
X170707142Y-122246190D01*
X170669047Y-122322381D01*
X170630952Y-122474762D01*
X170630952Y-122589048D01*
X170669047Y-122741429D01*
X170707142Y-122817619D01*
X170783333Y-122893810D01*
X170897619Y-122931905D01*
X171088095Y-122931905D01*
X170288095Y-122931905D02*
X170288095Y-122131905D01*
X169907143Y-122931905D02*
X169907143Y-122131905D01*
X169450000Y-122931905D01*
X169450000Y-122131905D01*
X168650000Y-122170000D02*
X168726191Y-122131905D01*
X168840476Y-122131905D01*
X168954762Y-122170000D01*
X169030953Y-122246190D01*
X169069048Y-122322381D01*
X169107143Y-122474762D01*
X169107143Y-122589048D01*
X169069048Y-122741429D01*
X169030953Y-122817619D01*
X168954762Y-122893810D01*
X168840476Y-122931905D01*
X168764286Y-122931905D01*
X168650000Y-122893810D01*
X168611905Y-122855714D01*
X168611905Y-122589048D01*
X168764286Y-122589048D01*
X158724286Y-121403333D02*
X158343334Y-121403333D01*
X158800477Y-121631905D02*
X158533810Y-120831905D01*
X158267143Y-121631905D01*
X158000477Y-121631905D02*
X158000477Y-120831905D01*
X157810001Y-120831905D01*
X157695715Y-120870000D01*
X157619524Y-120946190D01*
X157581429Y-121022381D01*
X157543334Y-121174762D01*
X157543334Y-121289048D01*
X157581429Y-121441429D01*
X157619524Y-121517619D01*
X157695715Y-121593810D01*
X157810001Y-121631905D01*
X158000477Y-121631905D01*
X157200477Y-121631905D02*
X157200477Y-120831905D01*
X157010001Y-120831905D01*
X156895715Y-120870000D01*
X156819524Y-120946190D01*
X156781429Y-121022381D01*
X156743334Y-121174762D01*
X156743334Y-121289048D01*
X156781429Y-121441429D01*
X156819524Y-121517619D01*
X156895715Y-121593810D01*
X157010001Y-121631905D01*
X157200477Y-121631905D01*
X155943334Y-121631905D02*
X156210001Y-121250952D01*
X156400477Y-121631905D02*
X156400477Y-120831905D01*
X156095715Y-120831905D01*
X156019524Y-120870000D01*
X155981429Y-120908095D01*
X155943334Y-120984286D01*
X155943334Y-121098571D01*
X155981429Y-121174762D01*
X156019524Y-121212857D01*
X156095715Y-121250952D01*
X156400477Y-121250952D01*
X155600477Y-121212857D02*
X155333810Y-121212857D01*
X155219524Y-121631905D02*
X155600477Y-121631905D01*
X155600477Y-120831905D01*
X155219524Y-120831905D01*
X154914762Y-121593810D02*
X154800476Y-121631905D01*
X154610000Y-121631905D01*
X154533810Y-121593810D01*
X154495714Y-121555714D01*
X154457619Y-121479524D01*
X154457619Y-121403333D01*
X154495714Y-121327143D01*
X154533810Y-121289048D01*
X154610000Y-121250952D01*
X154762381Y-121212857D01*
X154838572Y-121174762D01*
X154876667Y-121136667D01*
X154914762Y-121060476D01*
X154914762Y-120984286D01*
X154876667Y-120908095D01*
X154838572Y-120870000D01*
X154762381Y-120831905D01*
X154571905Y-120831905D01*
X154457619Y-120870000D01*
X154152857Y-121593810D02*
X154038571Y-121631905D01*
X153848095Y-121631905D01*
X153771905Y-121593810D01*
X153733809Y-121555714D01*
X153695714Y-121479524D01*
X153695714Y-121403333D01*
X153733809Y-121327143D01*
X153771905Y-121289048D01*
X153848095Y-121250952D01*
X154000476Y-121212857D01*
X154076667Y-121174762D01*
X154114762Y-121136667D01*
X154152857Y-121060476D01*
X154152857Y-120984286D01*
X154114762Y-120908095D01*
X154076667Y-120870000D01*
X154000476Y-120831905D01*
X153810000Y-120831905D01*
X153695714Y-120870000D01*
X159010000Y-122931905D02*
X159010000Y-122131905D01*
X158819524Y-122131905D01*
X158705238Y-122170000D01*
X158629047Y-122246190D01*
X158590952Y-122322381D01*
X158552857Y-122474762D01*
X158552857Y-122589048D01*
X158590952Y-122741429D01*
X158629047Y-122817619D01*
X158705238Y-122893810D01*
X158819524Y-122931905D01*
X159010000Y-122931905D01*
X158210000Y-122512857D02*
X157943333Y-122512857D01*
X157829047Y-122931905D02*
X158210000Y-122931905D01*
X158210000Y-122131905D01*
X157829047Y-122131905D01*
X157029047Y-122855714D02*
X157067142Y-122893810D01*
X157181428Y-122931905D01*
X157257618Y-122931905D01*
X157371904Y-122893810D01*
X157448095Y-122817619D01*
X157486190Y-122741429D01*
X157524285Y-122589048D01*
X157524285Y-122474762D01*
X157486190Y-122322381D01*
X157448095Y-122246190D01*
X157371904Y-122170000D01*
X157257618Y-122131905D01*
X157181428Y-122131905D01*
X157067142Y-122170000D01*
X157029047Y-122208095D01*
X156533809Y-122131905D02*
X156381428Y-122131905D01*
X156305237Y-122170000D01*
X156229047Y-122246190D01*
X156190952Y-122398571D01*
X156190952Y-122665238D01*
X156229047Y-122817619D01*
X156305237Y-122893810D01*
X156381428Y-122931905D01*
X156533809Y-122931905D01*
X156609999Y-122893810D01*
X156686190Y-122817619D01*
X156724285Y-122665238D01*
X156724285Y-122398571D01*
X156686190Y-122246190D01*
X156609999Y-122170000D01*
X156533809Y-122131905D01*
X155848095Y-122931905D02*
X155848095Y-122131905D01*
X155657619Y-122131905D01*
X155543333Y-122170000D01*
X155467142Y-122246190D01*
X155429047Y-122322381D01*
X155390952Y-122474762D01*
X155390952Y-122589048D01*
X155429047Y-122741429D01*
X155467142Y-122817619D01*
X155543333Y-122893810D01*
X155657619Y-122931905D01*
X155848095Y-122931905D01*
X155048095Y-122931905D02*
X155048095Y-122131905D01*
X154667143Y-122931905D02*
X154667143Y-122131905D01*
X154210000Y-122931905D01*
X154210000Y-122131905D01*
X153410000Y-122170000D02*
X153486191Y-122131905D01*
X153600476Y-122131905D01*
X153714762Y-122170000D01*
X153790953Y-122246190D01*
X153829048Y-122322381D01*
X153867143Y-122474762D01*
X153867143Y-122589048D01*
X153829048Y-122741429D01*
X153790953Y-122817619D01*
X153714762Y-122893810D01*
X153600476Y-122931905D01*
X153524286Y-122931905D01*
X153410000Y-122893810D01*
X153371905Y-122855714D01*
X153371905Y-122589048D01*
X153524286Y-122589048D01*
D11*
X175260000Y-133350000D02*
X175260000Y-132080000D01*
X167640000Y-133350000D02*
X175260000Y-133350000D01*
X167640000Y-132080000D02*
X167640000Y-133350000D01*
X160020000Y-133350000D02*
X160020000Y-132080000D01*
X152400000Y-133350000D02*
X160020000Y-133350000D01*
X152400000Y-132080000D02*
X152400000Y-133350000D01*
X175260000Y-111760000D02*
X175260000Y-113030000D01*
X167640000Y-111760000D02*
X175260000Y-111760000D01*
X167640000Y-113030000D02*
X167640000Y-111760000D01*
X160020000Y-111760000D02*
X160020000Y-113030000D01*
X152400000Y-111760000D02*
X160020000Y-111760000D01*
X152400000Y-113030000D02*
X152400000Y-111760000D01*
X181610000Y-112395000D02*
X181610000Y-127635000D01*
X187325000Y-112395000D02*
X181610000Y-112395000D01*
D10*
X192906667Y-126757858D02*
X192906667Y-126376906D01*
X192678095Y-126834049D02*
X193478095Y-126567382D01*
X192678095Y-126300715D01*
X192678095Y-126034049D02*
X193478095Y-126034049D01*
X193478095Y-125843573D01*
X193440000Y-125729287D01*
X193363810Y-125653096D01*
X193287619Y-125615001D01*
X193135238Y-125576906D01*
X193020952Y-125576906D01*
X192868571Y-125615001D01*
X192792381Y-125653096D01*
X192716190Y-125729287D01*
X192678095Y-125843573D01*
X192678095Y-126034049D01*
X192678095Y-125234049D02*
X193478095Y-125234049D01*
X193478095Y-125043573D01*
X193440000Y-124929287D01*
X193363810Y-124853096D01*
X193287619Y-124815001D01*
X193135238Y-124776906D01*
X193020952Y-124776906D01*
X192868571Y-124815001D01*
X192792381Y-124853096D01*
X192716190Y-124929287D01*
X192678095Y-125043573D01*
X192678095Y-125234049D01*
X192678095Y-123976906D02*
X193059048Y-124243573D01*
X192678095Y-124434049D02*
X193478095Y-124434049D01*
X193478095Y-124129287D01*
X193440000Y-124053096D01*
X193401905Y-124015001D01*
X193325714Y-123976906D01*
X193211429Y-123976906D01*
X193135238Y-124015001D01*
X193097143Y-124053096D01*
X193059048Y-124129287D01*
X193059048Y-124434049D01*
X193097143Y-123634049D02*
X193097143Y-123367382D01*
X192678095Y-123253096D02*
X192678095Y-123634049D01*
X193478095Y-123634049D01*
X193478095Y-123253096D01*
X192716190Y-122948334D02*
X192678095Y-122834048D01*
X192678095Y-122643572D01*
X192716190Y-122567382D01*
X192754286Y-122529286D01*
X192830476Y-122491191D01*
X192906667Y-122491191D01*
X192982857Y-122529286D01*
X193020952Y-122567382D01*
X193059048Y-122643572D01*
X193097143Y-122795953D01*
X193135238Y-122872144D01*
X193173333Y-122910239D01*
X193249524Y-122948334D01*
X193325714Y-122948334D01*
X193401905Y-122910239D01*
X193440000Y-122872144D01*
X193478095Y-122795953D01*
X193478095Y-122605477D01*
X193440000Y-122491191D01*
X192716190Y-122186429D02*
X192678095Y-122072143D01*
X192678095Y-121881667D01*
X192716190Y-121805477D01*
X192754286Y-121767381D01*
X192830476Y-121729286D01*
X192906667Y-121729286D01*
X192982857Y-121767381D01*
X193020952Y-121805477D01*
X193059048Y-121881667D01*
X193097143Y-122034048D01*
X193135238Y-122110239D01*
X193173333Y-122148334D01*
X193249524Y-122186429D01*
X193325714Y-122186429D01*
X193401905Y-122148334D01*
X193440000Y-122110239D01*
X193478095Y-122034048D01*
X193478095Y-121843572D01*
X193440000Y-121729286D01*
X193097143Y-120510238D02*
X193059048Y-120395952D01*
X193020952Y-120357857D01*
X192944762Y-120319762D01*
X192830476Y-120319762D01*
X192754286Y-120357857D01*
X192716190Y-120395952D01*
X192678095Y-120472143D01*
X192678095Y-120776905D01*
X193478095Y-120776905D01*
X193478095Y-120510238D01*
X193440000Y-120434048D01*
X193401905Y-120395952D01*
X193325714Y-120357857D01*
X193249524Y-120357857D01*
X193173333Y-120395952D01*
X193135238Y-120434048D01*
X193097143Y-120510238D01*
X193097143Y-120776905D01*
X192906667Y-120015000D02*
X192906667Y-119634048D01*
X192678095Y-120091191D02*
X193478095Y-119824524D01*
X192678095Y-119557857D01*
X192716190Y-119329286D02*
X192678095Y-119215000D01*
X192678095Y-119024524D01*
X192716190Y-118948334D01*
X192754286Y-118910238D01*
X192830476Y-118872143D01*
X192906667Y-118872143D01*
X192982857Y-118910238D01*
X193020952Y-118948334D01*
X193059048Y-119024524D01*
X193097143Y-119176905D01*
X193135238Y-119253096D01*
X193173333Y-119291191D01*
X193249524Y-119329286D01*
X193325714Y-119329286D01*
X193401905Y-119291191D01*
X193440000Y-119253096D01*
X193478095Y-119176905D01*
X193478095Y-118986429D01*
X193440000Y-118872143D01*
X193097143Y-118529286D02*
X193097143Y-118262619D01*
X192678095Y-118148333D02*
X192678095Y-118529286D01*
X193478095Y-118529286D01*
X193478095Y-118148333D01*
X192716190Y-117234047D02*
X192678095Y-117119761D01*
X192678095Y-116929285D01*
X192716190Y-116853095D01*
X192754286Y-116814999D01*
X192830476Y-116776904D01*
X192906667Y-116776904D01*
X192982857Y-116814999D01*
X193020952Y-116853095D01*
X193059048Y-116929285D01*
X193097143Y-117081666D01*
X193135238Y-117157857D01*
X193173333Y-117195952D01*
X193249524Y-117234047D01*
X193325714Y-117234047D01*
X193401905Y-117195952D01*
X193440000Y-117157857D01*
X193478095Y-117081666D01*
X193478095Y-116891190D01*
X193440000Y-116776904D01*
X193097143Y-116434047D02*
X193097143Y-116167380D01*
X192678095Y-116053094D02*
X192678095Y-116434047D01*
X193478095Y-116434047D01*
X193478095Y-116053094D01*
X192678095Y-115329284D02*
X192678095Y-115710237D01*
X193478095Y-115710237D01*
X193097143Y-115062618D02*
X193097143Y-114795951D01*
X192678095Y-114681665D02*
X192678095Y-115062618D01*
X193478095Y-115062618D01*
X193478095Y-114681665D01*
X192754286Y-113881665D02*
X192716190Y-113919760D01*
X192678095Y-114034046D01*
X192678095Y-114110236D01*
X192716190Y-114224522D01*
X192792381Y-114300713D01*
X192868571Y-114338808D01*
X193020952Y-114376903D01*
X193135238Y-114376903D01*
X193287619Y-114338808D01*
X193363810Y-114300713D01*
X193440000Y-114224522D01*
X193478095Y-114110236D01*
X193478095Y-114034046D01*
X193440000Y-113919760D01*
X193401905Y-113881665D01*
X193478095Y-113653094D02*
X193478095Y-113195951D01*
X192678095Y-113424522D02*
X193478095Y-113424522D01*
D11*
X193040000Y-127635000D02*
X187325000Y-127635000D01*
X193040000Y-127000000D02*
X193040000Y-127635000D01*
X193040000Y-112395000D02*
X193040000Y-113030000D01*
X187325000Y-112395000D02*
X193040000Y-112395000D01*
X191770000Y-114935000D02*
X187325000Y-114935000D01*
X187325000Y-117475000D02*
X191770000Y-117475000D01*
X191770000Y-120015000D02*
X187325000Y-120015000D01*
X187325000Y-122555000D02*
X191770000Y-122555000D01*
X187325000Y-125095000D02*
X191770000Y-125095000D01*
D10*
X191617619Y-126688810D02*
X191503333Y-126726905D01*
X191312857Y-126726905D01*
X191236667Y-126688810D01*
X191198571Y-126650714D01*
X191160476Y-126574524D01*
X191160476Y-126498333D01*
X191198571Y-126422143D01*
X191236667Y-126384048D01*
X191312857Y-126345952D01*
X191465238Y-126307857D01*
X191541429Y-126269762D01*
X191579524Y-126231667D01*
X191617619Y-126155476D01*
X191617619Y-126079286D01*
X191579524Y-126003095D01*
X191541429Y-125965000D01*
X191465238Y-125926905D01*
X191274762Y-125926905D01*
X191160476Y-125965000D01*
X191389048Y-125812619D02*
X191389048Y-126841190D01*
X190360476Y-126650714D02*
X190398571Y-126688810D01*
X190512857Y-126726905D01*
X190589047Y-126726905D01*
X190703333Y-126688810D01*
X190779524Y-126612619D01*
X190817619Y-126536429D01*
X190855714Y-126384048D01*
X190855714Y-126269762D01*
X190817619Y-126117381D01*
X190779524Y-126041190D01*
X190703333Y-125965000D01*
X190589047Y-125926905D01*
X190512857Y-125926905D01*
X190398571Y-125965000D01*
X190360476Y-126003095D01*
X190017619Y-126307857D02*
X189750952Y-126307857D01*
X189636666Y-126726905D02*
X190017619Y-126726905D01*
X190017619Y-125926905D01*
X189636666Y-125926905D01*
X189141428Y-125926905D02*
X189065237Y-125926905D01*
X188989047Y-125965000D01*
X188950952Y-126003095D01*
X188912856Y-126079286D01*
X188874761Y-126231667D01*
X188874761Y-126422143D01*
X188912856Y-126574524D01*
X188950952Y-126650714D01*
X188989047Y-126688810D01*
X189065237Y-126726905D01*
X189141428Y-126726905D01*
X189217618Y-126688810D01*
X189255714Y-126650714D01*
X189293809Y-126574524D01*
X189331904Y-126422143D01*
X189331904Y-126231667D01*
X189293809Y-126079286D01*
X189255714Y-126003095D01*
X189217618Y-125965000D01*
X189141428Y-125926905D01*
X188379523Y-125926905D02*
X188303332Y-125926905D01*
X188227142Y-125965000D01*
X188189047Y-126003095D01*
X188150951Y-126079286D01*
X188112856Y-126231667D01*
X188112856Y-126422143D01*
X188150951Y-126574524D01*
X188189047Y-126650714D01*
X188227142Y-126688810D01*
X188303332Y-126726905D01*
X188379523Y-126726905D01*
X188455713Y-126688810D01*
X188493809Y-126650714D01*
X188531904Y-126574524D01*
X188569999Y-126422143D01*
X188569999Y-126231667D01*
X188531904Y-126079286D01*
X188493809Y-126003095D01*
X188455713Y-125965000D01*
X188379523Y-125926905D01*
X191617619Y-124148810D02*
X191503333Y-124186905D01*
X191312857Y-124186905D01*
X191236667Y-124148810D01*
X191198571Y-124110714D01*
X191160476Y-124034524D01*
X191160476Y-123958333D01*
X191198571Y-123882143D01*
X191236667Y-123844048D01*
X191312857Y-123805952D01*
X191465238Y-123767857D01*
X191541429Y-123729762D01*
X191579524Y-123691667D01*
X191617619Y-123615476D01*
X191617619Y-123539286D01*
X191579524Y-123463095D01*
X191541429Y-123425000D01*
X191465238Y-123386905D01*
X191274762Y-123386905D01*
X191160476Y-123425000D01*
X191389048Y-123272619D02*
X191389048Y-124301190D01*
X190855714Y-123958333D02*
X190474762Y-123958333D01*
X190931905Y-124186905D02*
X190665238Y-123386905D01*
X190398571Y-124186905D01*
X190131905Y-123767857D02*
X189865238Y-123767857D01*
X189750952Y-124186905D02*
X190131905Y-124186905D01*
X190131905Y-123386905D01*
X189750952Y-123386905D01*
X189255714Y-123386905D02*
X189179523Y-123386905D01*
X189103333Y-123425000D01*
X189065238Y-123463095D01*
X189027142Y-123539286D01*
X188989047Y-123691667D01*
X188989047Y-123882143D01*
X189027142Y-124034524D01*
X189065238Y-124110714D01*
X189103333Y-124148810D01*
X189179523Y-124186905D01*
X189255714Y-124186905D01*
X189331904Y-124148810D01*
X189370000Y-124110714D01*
X189408095Y-124034524D01*
X189446190Y-123882143D01*
X189446190Y-123691667D01*
X189408095Y-123539286D01*
X189370000Y-123463095D01*
X189331904Y-123425000D01*
X189255714Y-123386905D01*
X188493809Y-123386905D02*
X188417618Y-123386905D01*
X188341428Y-123425000D01*
X188303333Y-123463095D01*
X188265237Y-123539286D01*
X188227142Y-123691667D01*
X188227142Y-123882143D01*
X188265237Y-124034524D01*
X188303333Y-124110714D01*
X188341428Y-124148810D01*
X188417618Y-124186905D01*
X188493809Y-124186905D01*
X188569999Y-124148810D01*
X188608095Y-124110714D01*
X188646190Y-124034524D01*
X188684285Y-123882143D01*
X188684285Y-123691667D01*
X188646190Y-123539286D01*
X188608095Y-123463095D01*
X188569999Y-123425000D01*
X188493809Y-123386905D01*
X191617619Y-121608810D02*
X191503333Y-121646905D01*
X191312857Y-121646905D01*
X191236667Y-121608810D01*
X191198571Y-121570714D01*
X191160476Y-121494524D01*
X191160476Y-121418333D01*
X191198571Y-121342143D01*
X191236667Y-121304048D01*
X191312857Y-121265952D01*
X191465238Y-121227857D01*
X191541429Y-121189762D01*
X191579524Y-121151667D01*
X191617619Y-121075476D01*
X191617619Y-120999286D01*
X191579524Y-120923095D01*
X191541429Y-120885000D01*
X191465238Y-120846905D01*
X191274762Y-120846905D01*
X191160476Y-120885000D01*
X191389048Y-120732619D02*
X191389048Y-121761190D01*
X190703333Y-121189762D02*
X190779524Y-121151667D01*
X190817619Y-121113571D01*
X190855714Y-121037381D01*
X190855714Y-120999286D01*
X190817619Y-120923095D01*
X190779524Y-120885000D01*
X190703333Y-120846905D01*
X190550952Y-120846905D01*
X190474762Y-120885000D01*
X190436666Y-120923095D01*
X190398571Y-120999286D01*
X190398571Y-121037381D01*
X190436666Y-121113571D01*
X190474762Y-121151667D01*
X190550952Y-121189762D01*
X190703333Y-121189762D01*
X190779524Y-121227857D01*
X190817619Y-121265952D01*
X190855714Y-121342143D01*
X190855714Y-121494524D01*
X190817619Y-121570714D01*
X190779524Y-121608810D01*
X190703333Y-121646905D01*
X190550952Y-121646905D01*
X190474762Y-121608810D01*
X190436666Y-121570714D01*
X190398571Y-121494524D01*
X190398571Y-121342143D01*
X190436666Y-121265952D01*
X190474762Y-121227857D01*
X190550952Y-121189762D01*
X190055714Y-121227857D02*
X189789047Y-121227857D01*
X189674761Y-121646905D02*
X190055714Y-121646905D01*
X190055714Y-120846905D01*
X189674761Y-120846905D01*
X189179523Y-120846905D02*
X189103332Y-120846905D01*
X189027142Y-120885000D01*
X188989047Y-120923095D01*
X188950951Y-120999286D01*
X188912856Y-121151667D01*
X188912856Y-121342143D01*
X188950951Y-121494524D01*
X188989047Y-121570714D01*
X189027142Y-121608810D01*
X189103332Y-121646905D01*
X189179523Y-121646905D01*
X189255713Y-121608810D01*
X189293809Y-121570714D01*
X189331904Y-121494524D01*
X189369999Y-121342143D01*
X189369999Y-121151667D01*
X189331904Y-120999286D01*
X189293809Y-120923095D01*
X189255713Y-120885000D01*
X189179523Y-120846905D01*
X188417618Y-120846905D02*
X188341427Y-120846905D01*
X188265237Y-120885000D01*
X188227142Y-120923095D01*
X188189046Y-120999286D01*
X188150951Y-121151667D01*
X188150951Y-121342143D01*
X188189046Y-121494524D01*
X188227142Y-121570714D01*
X188265237Y-121608810D01*
X188341427Y-121646905D01*
X188417618Y-121646905D01*
X188493808Y-121608810D01*
X188531904Y-121570714D01*
X188569999Y-121494524D01*
X188608094Y-121342143D01*
X188608094Y-121151667D01*
X188569999Y-120999286D01*
X188531904Y-120923095D01*
X188493808Y-120885000D01*
X188417618Y-120846905D01*
X191617619Y-119068810D02*
X191503333Y-119106905D01*
X191312857Y-119106905D01*
X191236667Y-119068810D01*
X191198571Y-119030714D01*
X191160476Y-118954524D01*
X191160476Y-118878333D01*
X191198571Y-118802143D01*
X191236667Y-118764048D01*
X191312857Y-118725952D01*
X191465238Y-118687857D01*
X191541429Y-118649762D01*
X191579524Y-118611667D01*
X191617619Y-118535476D01*
X191617619Y-118459286D01*
X191579524Y-118383095D01*
X191541429Y-118345000D01*
X191465238Y-118306905D01*
X191274762Y-118306905D01*
X191160476Y-118345000D01*
X191389048Y-118192619D02*
X191389048Y-119221190D01*
X190474762Y-118306905D02*
X190627143Y-118306905D01*
X190703333Y-118345000D01*
X190741428Y-118383095D01*
X190817619Y-118497381D01*
X190855714Y-118649762D01*
X190855714Y-118954524D01*
X190817619Y-119030714D01*
X190779524Y-119068810D01*
X190703333Y-119106905D01*
X190550952Y-119106905D01*
X190474762Y-119068810D01*
X190436666Y-119030714D01*
X190398571Y-118954524D01*
X190398571Y-118764048D01*
X190436666Y-118687857D01*
X190474762Y-118649762D01*
X190550952Y-118611667D01*
X190703333Y-118611667D01*
X190779524Y-118649762D01*
X190817619Y-118687857D01*
X190855714Y-118764048D01*
X190055714Y-118687857D02*
X189789047Y-118687857D01*
X189674761Y-119106905D02*
X190055714Y-119106905D01*
X190055714Y-118306905D01*
X189674761Y-118306905D01*
X189179523Y-118306905D02*
X189103332Y-118306905D01*
X189027142Y-118345000D01*
X188989047Y-118383095D01*
X188950951Y-118459286D01*
X188912856Y-118611667D01*
X188912856Y-118802143D01*
X188950951Y-118954524D01*
X188989047Y-119030714D01*
X189027142Y-119068810D01*
X189103332Y-119106905D01*
X189179523Y-119106905D01*
X189255713Y-119068810D01*
X189293809Y-119030714D01*
X189331904Y-118954524D01*
X189369999Y-118802143D01*
X189369999Y-118611667D01*
X189331904Y-118459286D01*
X189293809Y-118383095D01*
X189255713Y-118345000D01*
X189179523Y-118306905D01*
X188417618Y-118306905D02*
X188341427Y-118306905D01*
X188265237Y-118345000D01*
X188227142Y-118383095D01*
X188189046Y-118459286D01*
X188150951Y-118611667D01*
X188150951Y-118802143D01*
X188189046Y-118954524D01*
X188227142Y-119030714D01*
X188265237Y-119068810D01*
X188341427Y-119106905D01*
X188417618Y-119106905D01*
X188493808Y-119068810D01*
X188531904Y-119030714D01*
X188569999Y-118954524D01*
X188608094Y-118802143D01*
X188608094Y-118611667D01*
X188569999Y-118459286D01*
X188531904Y-118383095D01*
X188493808Y-118345000D01*
X188417618Y-118306905D01*
X191617619Y-116528810D02*
X191503333Y-116566905D01*
X191312857Y-116566905D01*
X191236667Y-116528810D01*
X191198571Y-116490714D01*
X191160476Y-116414524D01*
X191160476Y-116338333D01*
X191198571Y-116262143D01*
X191236667Y-116224048D01*
X191312857Y-116185952D01*
X191465238Y-116147857D01*
X191541429Y-116109762D01*
X191579524Y-116071667D01*
X191617619Y-115995476D01*
X191617619Y-115919286D01*
X191579524Y-115843095D01*
X191541429Y-115805000D01*
X191465238Y-115766905D01*
X191274762Y-115766905D01*
X191160476Y-115805000D01*
X191389048Y-115652619D02*
X191389048Y-116681190D01*
X190474762Y-116033571D02*
X190474762Y-116566905D01*
X190665238Y-115728810D02*
X190855714Y-116300238D01*
X190360476Y-116300238D01*
X190055714Y-116147857D02*
X189789047Y-116147857D01*
X189674761Y-116566905D02*
X190055714Y-116566905D01*
X190055714Y-115766905D01*
X189674761Y-115766905D01*
X189179523Y-115766905D02*
X189103332Y-115766905D01*
X189027142Y-115805000D01*
X188989047Y-115843095D01*
X188950951Y-115919286D01*
X188912856Y-116071667D01*
X188912856Y-116262143D01*
X188950951Y-116414524D01*
X188989047Y-116490714D01*
X189027142Y-116528810D01*
X189103332Y-116566905D01*
X189179523Y-116566905D01*
X189255713Y-116528810D01*
X189293809Y-116490714D01*
X189331904Y-116414524D01*
X189369999Y-116262143D01*
X189369999Y-116071667D01*
X189331904Y-115919286D01*
X189293809Y-115843095D01*
X189255713Y-115805000D01*
X189179523Y-115766905D01*
X188417618Y-115766905D02*
X188341427Y-115766905D01*
X188265237Y-115805000D01*
X188227142Y-115843095D01*
X188189046Y-115919286D01*
X188150951Y-116071667D01*
X188150951Y-116262143D01*
X188189046Y-116414524D01*
X188227142Y-116490714D01*
X188265237Y-116528810D01*
X188341427Y-116566905D01*
X188417618Y-116566905D01*
X188493808Y-116528810D01*
X188531904Y-116490714D01*
X188569999Y-116414524D01*
X188608094Y-116262143D01*
X188608094Y-116071667D01*
X188569999Y-115919286D01*
X188531904Y-115843095D01*
X188493808Y-115805000D01*
X188417618Y-115766905D01*
X191617619Y-113988810D02*
X191503333Y-114026905D01*
X191312857Y-114026905D01*
X191236667Y-113988810D01*
X191198571Y-113950714D01*
X191160476Y-113874524D01*
X191160476Y-113798333D01*
X191198571Y-113722143D01*
X191236667Y-113684048D01*
X191312857Y-113645952D01*
X191465238Y-113607857D01*
X191541429Y-113569762D01*
X191579524Y-113531667D01*
X191617619Y-113455476D01*
X191617619Y-113379286D01*
X191579524Y-113303095D01*
X191541429Y-113265000D01*
X191465238Y-113226905D01*
X191274762Y-113226905D01*
X191160476Y-113265000D01*
X191389048Y-113112619D02*
X191389048Y-114141190D01*
X190855714Y-113303095D02*
X190817619Y-113265000D01*
X190741428Y-113226905D01*
X190550952Y-113226905D01*
X190474762Y-113265000D01*
X190436666Y-113303095D01*
X190398571Y-113379286D01*
X190398571Y-113455476D01*
X190436666Y-113569762D01*
X190893809Y-114026905D01*
X190398571Y-114026905D01*
X190055714Y-113607857D02*
X189789047Y-113607857D01*
X189674761Y-114026905D02*
X190055714Y-114026905D01*
X190055714Y-113226905D01*
X189674761Y-113226905D01*
X189179523Y-113226905D02*
X189103332Y-113226905D01*
X189027142Y-113265000D01*
X188989047Y-113303095D01*
X188950951Y-113379286D01*
X188912856Y-113531667D01*
X188912856Y-113722143D01*
X188950951Y-113874524D01*
X188989047Y-113950714D01*
X189027142Y-113988810D01*
X189103332Y-114026905D01*
X189179523Y-114026905D01*
X189255713Y-113988810D01*
X189293809Y-113950714D01*
X189331904Y-113874524D01*
X189369999Y-113722143D01*
X189369999Y-113531667D01*
X189331904Y-113379286D01*
X189293809Y-113303095D01*
X189255713Y-113265000D01*
X189179523Y-113226905D01*
X188417618Y-113226905D02*
X188341427Y-113226905D01*
X188265237Y-113265000D01*
X188227142Y-113303095D01*
X188189046Y-113379286D01*
X188150951Y-113531667D01*
X188150951Y-113722143D01*
X188189046Y-113874524D01*
X188227142Y-113950714D01*
X188265237Y-113988810D01*
X188341427Y-114026905D01*
X188417618Y-114026905D01*
X188493808Y-113988810D01*
X188531904Y-113950714D01*
X188569999Y-113874524D01*
X188608094Y-113722143D01*
X188608094Y-113531667D01*
X188569999Y-113379286D01*
X188531904Y-113303095D01*
X188493808Y-113265000D01*
X188417618Y-113226905D01*
D12*
X102885000Y-145867381D02*
X103218334Y-145391190D01*
X103456429Y-145867381D02*
X103456429Y-144867381D01*
X103075476Y-144867381D01*
X102980238Y-144915000D01*
X102932619Y-144962619D01*
X102885000Y-145057857D01*
X102885000Y-145200714D01*
X102932619Y-145295952D01*
X102980238Y-145343571D01*
X103075476Y-145391190D01*
X103456429Y-145391190D01*
X102075476Y-145819762D02*
X102170714Y-145867381D01*
X102361191Y-145867381D01*
X102456429Y-145819762D01*
X102504048Y-145724524D01*
X102504048Y-145343571D01*
X102456429Y-145248333D01*
X102361191Y-145200714D01*
X102170714Y-145200714D01*
X102075476Y-145248333D01*
X102027857Y-145343571D01*
X102027857Y-145438810D01*
X102504048Y-145534048D01*
X101694524Y-145200714D02*
X101456429Y-145867381D01*
X101218333Y-145200714D01*
X100837381Y-145867381D02*
X100837381Y-145200714D01*
X100837381Y-144867381D02*
X100885000Y-144915000D01*
X100837381Y-144962619D01*
X100789762Y-144915000D01*
X100837381Y-144867381D01*
X100837381Y-144962619D01*
X100408810Y-145819762D02*
X100313572Y-145867381D01*
X100123096Y-145867381D01*
X100027857Y-145819762D01*
X99980238Y-145724524D01*
X99980238Y-145676905D01*
X100027857Y-145581667D01*
X100123096Y-145534048D01*
X100265953Y-145534048D01*
X100361191Y-145486429D01*
X100408810Y-145391190D01*
X100408810Y-145343571D01*
X100361191Y-145248333D01*
X100265953Y-145200714D01*
X100123096Y-145200714D01*
X100027857Y-145248333D01*
X99551667Y-145867381D02*
X99551667Y-145200714D01*
X99551667Y-144867381D02*
X99599286Y-144915000D01*
X99551667Y-144962619D01*
X99504048Y-144915000D01*
X99551667Y-144867381D01*
X99551667Y-144962619D01*
X98932620Y-145867381D02*
X99027858Y-145819762D01*
X99075477Y-145772143D01*
X99123096Y-145676905D01*
X99123096Y-145391190D01*
X99075477Y-145295952D01*
X99027858Y-145248333D01*
X98932620Y-145200714D01*
X98789762Y-145200714D01*
X98694524Y-145248333D01*
X98646905Y-145295952D01*
X98599286Y-145391190D01*
X98599286Y-145676905D01*
X98646905Y-145772143D01*
X98694524Y-145819762D01*
X98789762Y-145867381D01*
X98932620Y-145867381D01*
X98170715Y-145200714D02*
X98170715Y-145867381D01*
X98170715Y-145295952D02*
X98123096Y-145248333D01*
X98027858Y-145200714D01*
X97885000Y-145200714D01*
X97789762Y-145248333D01*
X97742143Y-145343571D01*
X97742143Y-145867381D01*
X96551667Y-145581667D02*
X96075476Y-145581667D01*
X96646905Y-145867381D02*
X96313572Y-144867381D01*
X95980238Y-145867381D01*
M02*
