G04 #@! TF.FileFunction,Copper,L2,Bot,Signal*
%FSLAX46Y46*%
G04 Gerber Fmt 4.6, Leading zero omitted, Abs format (unit mm)*
G04 Created by KiCad (PCBNEW 4.0.7) date 12/23/19 18:48:18*
%MOMM*%
%LPD*%
G01*
G04 APERTURE LIST*
%ADD10C,0.100000*%
%ADD11R,1.700000X1.700000*%
%ADD12O,1.700000X1.700000*%
%ADD13C,1.524000*%
%ADD14C,0.254000*%
G04 APERTURE END LIST*
D10*
D11*
X104140000Y-80010000D03*
D12*
X106680000Y-80010000D03*
X109220000Y-80010000D03*
X111760000Y-80010000D03*
X114300000Y-80010000D03*
X116840000Y-80010000D03*
X119380000Y-80010000D03*
X121920000Y-80010000D03*
X124460000Y-80010000D03*
X127000000Y-80010000D03*
D11*
X132080000Y-80010000D03*
D12*
X134620000Y-80010000D03*
X137160000Y-80010000D03*
X139700000Y-80010000D03*
X142240000Y-80010000D03*
X144780000Y-80010000D03*
X147320000Y-80010000D03*
X149860000Y-80010000D03*
X152400000Y-80010000D03*
X154940000Y-80010000D03*
D11*
X198120000Y-145415000D03*
D12*
X195580000Y-145415000D03*
X193040000Y-145415000D03*
X190500000Y-145415000D03*
X187960000Y-145415000D03*
X185420000Y-145415000D03*
X182880000Y-145415000D03*
X180340000Y-145415000D03*
X177800000Y-145415000D03*
X175260000Y-145415000D03*
X172720000Y-145415000D03*
X170180000Y-145415000D03*
X167640000Y-145415000D03*
X165100000Y-145415000D03*
X162560000Y-145415000D03*
X160020000Y-145415000D03*
X157480000Y-145415000D03*
X154940000Y-145415000D03*
X152400000Y-145415000D03*
X149860000Y-145415000D03*
X147320000Y-145415000D03*
X144780000Y-145415000D03*
X142240000Y-145415000D03*
X139700000Y-145415000D03*
X137160000Y-145415000D03*
X134620000Y-145415000D03*
X132080000Y-145415000D03*
X129540000Y-145415000D03*
X127000000Y-145415000D03*
X124460000Y-145415000D03*
X121920000Y-145415000D03*
X119380000Y-145415000D03*
X116840000Y-145415000D03*
X114300000Y-145415000D03*
X111760000Y-145415000D03*
X109220000Y-145415000D03*
X106680000Y-145415000D03*
X104140000Y-145415000D03*
X101600000Y-145415000D03*
D13*
X106680000Y-137160000D03*
X106680000Y-134620000D03*
X106680000Y-132080000D03*
X106680000Y-129540000D03*
X106680000Y-127000000D03*
X106680000Y-124460000D03*
X106680000Y-121920000D03*
X106680000Y-119380000D03*
X106680000Y-116840000D03*
X106680000Y-114300000D03*
X106680000Y-111760000D03*
X106680000Y-109220000D03*
X106680000Y-106680000D03*
X106680000Y-104140000D03*
X106680000Y-101600000D03*
X106680000Y-99060000D03*
X106680000Y-96520000D03*
X106680000Y-93980000D03*
X106680000Y-91440000D03*
X106680000Y-88900000D03*
X106680000Y-86360000D03*
X104140000Y-137160000D03*
X104140000Y-134620000D03*
X104140000Y-132080000D03*
X104140000Y-129540000D03*
X104140000Y-127000000D03*
X104140000Y-124460000D03*
X104140000Y-121920000D03*
X104140000Y-119380000D03*
X104140000Y-116840000D03*
X104140000Y-114300000D03*
X104140000Y-111760000D03*
X104140000Y-109220000D03*
X104140000Y-106680000D03*
X104140000Y-104140000D03*
X104140000Y-101600000D03*
X104140000Y-99060000D03*
X104140000Y-96520000D03*
X104140000Y-93980000D03*
X104140000Y-91440000D03*
X104140000Y-88900000D03*
X104140000Y-86360000D03*
X109220000Y-137160000D03*
X109220000Y-134620000D03*
X109220000Y-132080000D03*
X109220000Y-129540000D03*
X109220000Y-127000000D03*
X109220000Y-124460000D03*
X109220000Y-121920000D03*
X109220000Y-119380000D03*
X109220000Y-116840000D03*
X109220000Y-114300000D03*
X109220000Y-111760000D03*
X109220000Y-109220000D03*
X109220000Y-106680000D03*
X109220000Y-104140000D03*
X109220000Y-101600000D03*
X109220000Y-99060000D03*
X109220000Y-96520000D03*
X109220000Y-93980000D03*
X109220000Y-91440000D03*
X109220000Y-88900000D03*
X109220000Y-86360000D03*
X111760000Y-137160000D03*
X111760000Y-134620000D03*
X111760000Y-132080000D03*
X111760000Y-129540000D03*
X111760000Y-127000000D03*
X111760000Y-124460000D03*
X111760000Y-121920000D03*
X111760000Y-119380000D03*
X111760000Y-116840000D03*
X111760000Y-114300000D03*
X111760000Y-111760000D03*
X111760000Y-109220000D03*
X111760000Y-106680000D03*
X111760000Y-104140000D03*
X111760000Y-101600000D03*
X111760000Y-99060000D03*
X111760000Y-96520000D03*
X111760000Y-93980000D03*
X111760000Y-91440000D03*
X111760000Y-88900000D03*
X111760000Y-86360000D03*
X114300000Y-137160000D03*
X114300000Y-134620000D03*
X114300000Y-132080000D03*
X114300000Y-129540000D03*
X114300000Y-127000000D03*
X114300000Y-124460000D03*
X114300000Y-121920000D03*
X114300000Y-119380000D03*
X114300000Y-116840000D03*
X114300000Y-114300000D03*
X114300000Y-111760000D03*
X114300000Y-109220000D03*
X114300000Y-106680000D03*
X114300000Y-104140000D03*
X114300000Y-101600000D03*
X114300000Y-99060000D03*
X114300000Y-96520000D03*
X114300000Y-93980000D03*
X114300000Y-91440000D03*
X114300000Y-88900000D03*
X114300000Y-86360000D03*
X116840000Y-137160000D03*
X116840000Y-134620000D03*
X116840000Y-132080000D03*
X116840000Y-129540000D03*
X116840000Y-127000000D03*
X116840000Y-124460000D03*
X116840000Y-121920000D03*
X116840000Y-119380000D03*
X116840000Y-116840000D03*
X116840000Y-114300000D03*
X116840000Y-111760000D03*
X116840000Y-109220000D03*
X116840000Y-106680000D03*
X116840000Y-104140000D03*
X116840000Y-101600000D03*
X116840000Y-99060000D03*
X116840000Y-96520000D03*
X116840000Y-93980000D03*
X116840000Y-91440000D03*
X116840000Y-88900000D03*
X116840000Y-86360000D03*
X119380000Y-137160000D03*
X119380000Y-134620000D03*
X119380000Y-132080000D03*
X119380000Y-129540000D03*
X119380000Y-127000000D03*
X119380000Y-124460000D03*
X119380000Y-121920000D03*
X119380000Y-119380000D03*
X119380000Y-116840000D03*
X119380000Y-114300000D03*
X119380000Y-111760000D03*
X119380000Y-109220000D03*
X119380000Y-106680000D03*
X119380000Y-104140000D03*
X119380000Y-101600000D03*
X119380000Y-99060000D03*
X119380000Y-96520000D03*
X119380000Y-93980000D03*
X119380000Y-91440000D03*
X119380000Y-88900000D03*
X119380000Y-86360000D03*
X121920000Y-137160000D03*
X121920000Y-134620000D03*
X121920000Y-132080000D03*
X121920000Y-129540000D03*
X121920000Y-127000000D03*
X121920000Y-124460000D03*
X121920000Y-121920000D03*
X121920000Y-119380000D03*
X121920000Y-116840000D03*
X121920000Y-114300000D03*
X121920000Y-111760000D03*
X121920000Y-109220000D03*
X121920000Y-106680000D03*
X121920000Y-104140000D03*
X121920000Y-101600000D03*
X121920000Y-99060000D03*
X121920000Y-96520000D03*
X121920000Y-93980000D03*
X121920000Y-91440000D03*
X121920000Y-88900000D03*
X121920000Y-86360000D03*
X124460000Y-137160000D03*
X124460000Y-134620000D03*
X124460000Y-132080000D03*
X124460000Y-129540000D03*
X124460000Y-127000000D03*
X124460000Y-124460000D03*
X124460000Y-121920000D03*
X124460000Y-119380000D03*
X124460000Y-116840000D03*
X124460000Y-114300000D03*
X124460000Y-111760000D03*
X124460000Y-109220000D03*
X124460000Y-106680000D03*
X124460000Y-104140000D03*
X124460000Y-101600000D03*
X124460000Y-99060000D03*
X124460000Y-96520000D03*
X124460000Y-93980000D03*
X124460000Y-91440000D03*
X124460000Y-88900000D03*
X124460000Y-86360000D03*
X127000000Y-137160000D03*
X127000000Y-134620000D03*
X127000000Y-132080000D03*
X127000000Y-129540000D03*
X127000000Y-127000000D03*
X127000000Y-124460000D03*
X127000000Y-121920000D03*
X127000000Y-119380000D03*
X127000000Y-116840000D03*
X127000000Y-114300000D03*
X127000000Y-111760000D03*
X127000000Y-109220000D03*
X127000000Y-106680000D03*
X127000000Y-104140000D03*
X127000000Y-101600000D03*
X127000000Y-99060000D03*
X127000000Y-96520000D03*
X127000000Y-93980000D03*
X127000000Y-91440000D03*
X127000000Y-88900000D03*
X127000000Y-86360000D03*
X129540000Y-137160000D03*
X129540000Y-134620000D03*
X129540000Y-132080000D03*
X129540000Y-129540000D03*
X129540000Y-127000000D03*
X129540000Y-124460000D03*
X129540000Y-121920000D03*
X129540000Y-119380000D03*
X129540000Y-116840000D03*
X129540000Y-114300000D03*
X129540000Y-111760000D03*
X129540000Y-109220000D03*
X129540000Y-106680000D03*
X129540000Y-104140000D03*
X129540000Y-101600000D03*
X129540000Y-99060000D03*
X129540000Y-96520000D03*
X129540000Y-93980000D03*
X129540000Y-91440000D03*
X129540000Y-88900000D03*
X129540000Y-86360000D03*
X132080000Y-137160000D03*
X132080000Y-134620000D03*
X132080000Y-132080000D03*
X132080000Y-129540000D03*
X132080000Y-127000000D03*
X132080000Y-124460000D03*
X132080000Y-121920000D03*
X132080000Y-119380000D03*
X132080000Y-116840000D03*
X132080000Y-114300000D03*
X132080000Y-111760000D03*
X132080000Y-109220000D03*
X132080000Y-106680000D03*
X132080000Y-104140000D03*
X132080000Y-101600000D03*
X132080000Y-99060000D03*
X132080000Y-96520000D03*
X132080000Y-93980000D03*
X132080000Y-91440000D03*
X132080000Y-88900000D03*
X132080000Y-86360000D03*
X134620000Y-137160000D03*
X134620000Y-134620000D03*
X134620000Y-132080000D03*
X134620000Y-129540000D03*
X134620000Y-127000000D03*
X134620000Y-124460000D03*
X134620000Y-121920000D03*
X134620000Y-119380000D03*
X134620000Y-116840000D03*
X134620000Y-114300000D03*
X134620000Y-111760000D03*
X134620000Y-109220000D03*
X134620000Y-106680000D03*
X134620000Y-104140000D03*
X134620000Y-101600000D03*
X134620000Y-99060000D03*
X134620000Y-96520000D03*
X134620000Y-93980000D03*
X134620000Y-91440000D03*
X134620000Y-88900000D03*
X134620000Y-86360000D03*
X137160000Y-137160000D03*
X137160000Y-134620000D03*
X137160000Y-132080000D03*
X137160000Y-129540000D03*
X137160000Y-127000000D03*
X137160000Y-124460000D03*
X137160000Y-121920000D03*
X137160000Y-119380000D03*
X137160000Y-116840000D03*
X137160000Y-114300000D03*
X137160000Y-111760000D03*
X137160000Y-109220000D03*
X137160000Y-106680000D03*
X137160000Y-104140000D03*
X137160000Y-101600000D03*
X137160000Y-99060000D03*
X137160000Y-96520000D03*
X137160000Y-93980000D03*
X137160000Y-91440000D03*
X137160000Y-88900000D03*
X137160000Y-86360000D03*
X139700000Y-137160000D03*
X139700000Y-134620000D03*
X139700000Y-132080000D03*
X139700000Y-129540000D03*
X139700000Y-127000000D03*
X139700000Y-124460000D03*
X139700000Y-121920000D03*
X139700000Y-119380000D03*
X139700000Y-116840000D03*
X139700000Y-114300000D03*
X139700000Y-111760000D03*
X139700000Y-109220000D03*
X139700000Y-106680000D03*
X139700000Y-104140000D03*
X139700000Y-101600000D03*
X139700000Y-99060000D03*
X139700000Y-96520000D03*
X139700000Y-93980000D03*
X139700000Y-91440000D03*
X139700000Y-88900000D03*
X139700000Y-86360000D03*
X142240000Y-137160000D03*
X142240000Y-134620000D03*
X142240000Y-132080000D03*
X142240000Y-129540000D03*
X142240000Y-127000000D03*
X142240000Y-124460000D03*
X142240000Y-121920000D03*
X142240000Y-119380000D03*
X142240000Y-116840000D03*
X142240000Y-114300000D03*
X142240000Y-111760000D03*
X142240000Y-109220000D03*
X142240000Y-106680000D03*
X142240000Y-104140000D03*
X142240000Y-101600000D03*
X142240000Y-99060000D03*
X142240000Y-96520000D03*
X142240000Y-93980000D03*
X142240000Y-91440000D03*
X142240000Y-88900000D03*
X142240000Y-86360000D03*
X144780000Y-137160000D03*
X144780000Y-134620000D03*
X144780000Y-132080000D03*
X144780000Y-129540000D03*
X144780000Y-127000000D03*
X144780000Y-124460000D03*
X144780000Y-121920000D03*
X144780000Y-119380000D03*
X144780000Y-116840000D03*
X144780000Y-114300000D03*
X144780000Y-111760000D03*
X144780000Y-109220000D03*
X144780000Y-106680000D03*
X144780000Y-104140000D03*
X144780000Y-101600000D03*
X144780000Y-99060000D03*
X144780000Y-96520000D03*
X144780000Y-93980000D03*
X144780000Y-91440000D03*
X144780000Y-88900000D03*
X144780000Y-86360000D03*
X147320000Y-137160000D03*
X147320000Y-134620000D03*
X147320000Y-132080000D03*
X147320000Y-129540000D03*
X147320000Y-127000000D03*
X147320000Y-124460000D03*
X147320000Y-121920000D03*
X147320000Y-119380000D03*
X147320000Y-116840000D03*
X147320000Y-114300000D03*
X147320000Y-111760000D03*
X147320000Y-109220000D03*
X147320000Y-106680000D03*
X147320000Y-104140000D03*
X147320000Y-101600000D03*
X147320000Y-99060000D03*
X147320000Y-96520000D03*
X147320000Y-93980000D03*
X147320000Y-91440000D03*
X147320000Y-88900000D03*
X147320000Y-86360000D03*
X149860000Y-137160000D03*
X149860000Y-134620000D03*
X149860000Y-132080000D03*
X149860000Y-129540000D03*
X149860000Y-127000000D03*
X149860000Y-124460000D03*
X149860000Y-121920000D03*
X149860000Y-119380000D03*
X149860000Y-116840000D03*
X149860000Y-114300000D03*
X149860000Y-111760000D03*
X149860000Y-109220000D03*
X149860000Y-106680000D03*
X149860000Y-104140000D03*
X149860000Y-101600000D03*
X149860000Y-99060000D03*
X149860000Y-96520000D03*
X149860000Y-93980000D03*
X149860000Y-91440000D03*
X149860000Y-88900000D03*
X149860000Y-86360000D03*
X152400000Y-137160000D03*
X152400000Y-134620000D03*
X152400000Y-132080000D03*
X152400000Y-129540000D03*
X152400000Y-127000000D03*
X152400000Y-124460000D03*
X152400000Y-121920000D03*
X152400000Y-119380000D03*
X152400000Y-116840000D03*
X152400000Y-114300000D03*
X152400000Y-111760000D03*
X152400000Y-109220000D03*
X152400000Y-106680000D03*
X152400000Y-104140000D03*
X152400000Y-101600000D03*
X152400000Y-99060000D03*
X152400000Y-96520000D03*
X152400000Y-93980000D03*
X152400000Y-91440000D03*
X152400000Y-88900000D03*
X152400000Y-86360000D03*
X154940000Y-137160000D03*
X154940000Y-134620000D03*
X154940000Y-132080000D03*
X154940000Y-129540000D03*
X154940000Y-127000000D03*
X154940000Y-124460000D03*
X154940000Y-121920000D03*
X154940000Y-119380000D03*
X154940000Y-116840000D03*
X154940000Y-114300000D03*
X154940000Y-111760000D03*
X154940000Y-109220000D03*
X154940000Y-106680000D03*
X154940000Y-104140000D03*
X154940000Y-101600000D03*
X154940000Y-99060000D03*
X154940000Y-96520000D03*
X154940000Y-93980000D03*
X154940000Y-91440000D03*
X154940000Y-88900000D03*
X154940000Y-86360000D03*
X157480000Y-137160000D03*
X157480000Y-134620000D03*
X157480000Y-132080000D03*
X157480000Y-129540000D03*
X157480000Y-127000000D03*
X157480000Y-124460000D03*
X157480000Y-121920000D03*
X157480000Y-119380000D03*
X157480000Y-116840000D03*
X157480000Y-114300000D03*
X157480000Y-111760000D03*
X157480000Y-109220000D03*
X157480000Y-106680000D03*
X157480000Y-104140000D03*
X157480000Y-101600000D03*
X157480000Y-99060000D03*
X157480000Y-96520000D03*
X157480000Y-93980000D03*
X157480000Y-91440000D03*
X157480000Y-88900000D03*
X157480000Y-86360000D03*
X160020000Y-137160000D03*
X160020000Y-134620000D03*
X160020000Y-132080000D03*
X160020000Y-129540000D03*
X160020000Y-127000000D03*
X160020000Y-124460000D03*
X160020000Y-121920000D03*
X160020000Y-119380000D03*
X160020000Y-116840000D03*
X160020000Y-114300000D03*
X160020000Y-111760000D03*
X160020000Y-109220000D03*
X160020000Y-106680000D03*
X160020000Y-104140000D03*
X160020000Y-101600000D03*
X160020000Y-99060000D03*
X160020000Y-96520000D03*
X160020000Y-93980000D03*
X160020000Y-91440000D03*
X160020000Y-88900000D03*
X160020000Y-86360000D03*
X162560000Y-137160000D03*
X162560000Y-134620000D03*
X162560000Y-132080000D03*
X162560000Y-129540000D03*
X162560000Y-127000000D03*
X162560000Y-124460000D03*
X162560000Y-121920000D03*
X162560000Y-119380000D03*
X162560000Y-116840000D03*
X162560000Y-114300000D03*
X162560000Y-111760000D03*
X162560000Y-109220000D03*
X162560000Y-106680000D03*
X162560000Y-104140000D03*
X162560000Y-101600000D03*
X162560000Y-99060000D03*
X162560000Y-96520000D03*
X162560000Y-93980000D03*
X162560000Y-91440000D03*
X162560000Y-88900000D03*
X162560000Y-86360000D03*
X165100000Y-137160000D03*
X165100000Y-134620000D03*
X165100000Y-132080000D03*
X165100000Y-129540000D03*
X165100000Y-127000000D03*
X165100000Y-124460000D03*
X165100000Y-121920000D03*
X165100000Y-119380000D03*
X165100000Y-116840000D03*
X165100000Y-114300000D03*
X165100000Y-111760000D03*
X165100000Y-109220000D03*
X165100000Y-106680000D03*
X165100000Y-104140000D03*
X165100000Y-101600000D03*
X165100000Y-99060000D03*
X165100000Y-96520000D03*
X165100000Y-93980000D03*
X165100000Y-91440000D03*
X165100000Y-88900000D03*
X165100000Y-86360000D03*
X167640000Y-137160000D03*
X167640000Y-134620000D03*
X167640000Y-132080000D03*
X167640000Y-129540000D03*
X167640000Y-127000000D03*
X167640000Y-124460000D03*
X167640000Y-121920000D03*
X167640000Y-119380000D03*
X167640000Y-116840000D03*
X167640000Y-114300000D03*
X167640000Y-111760000D03*
X167640000Y-109220000D03*
X167640000Y-106680000D03*
X167640000Y-104140000D03*
X167640000Y-101600000D03*
X167640000Y-99060000D03*
X167640000Y-96520000D03*
X167640000Y-93980000D03*
X167640000Y-91440000D03*
X167640000Y-88900000D03*
X167640000Y-86360000D03*
X170180000Y-137160000D03*
X170180000Y-134620000D03*
X170180000Y-132080000D03*
X170180000Y-129540000D03*
X170180000Y-127000000D03*
X170180000Y-124460000D03*
X170180000Y-121920000D03*
X170180000Y-119380000D03*
X170180000Y-116840000D03*
X170180000Y-114300000D03*
X170180000Y-111760000D03*
X170180000Y-109220000D03*
X170180000Y-106680000D03*
X170180000Y-104140000D03*
X170180000Y-101600000D03*
X170180000Y-99060000D03*
X170180000Y-96520000D03*
X170180000Y-93980000D03*
X170180000Y-91440000D03*
X170180000Y-88900000D03*
X170180000Y-86360000D03*
X172720000Y-137160000D03*
X172720000Y-134620000D03*
X172720000Y-132080000D03*
X172720000Y-129540000D03*
X172720000Y-127000000D03*
X172720000Y-124460000D03*
X172720000Y-121920000D03*
X172720000Y-119380000D03*
X172720000Y-116840000D03*
X172720000Y-114300000D03*
X172720000Y-111760000D03*
X172720000Y-109220000D03*
X172720000Y-106680000D03*
X172720000Y-104140000D03*
X172720000Y-101600000D03*
X172720000Y-99060000D03*
X172720000Y-96520000D03*
X172720000Y-93980000D03*
X172720000Y-91440000D03*
X172720000Y-88900000D03*
X172720000Y-86360000D03*
X175260000Y-137160000D03*
X175260000Y-134620000D03*
X175260000Y-132080000D03*
X175260000Y-129540000D03*
X175260000Y-127000000D03*
X175260000Y-124460000D03*
X175260000Y-121920000D03*
X175260000Y-119380000D03*
X175260000Y-116840000D03*
X175260000Y-114300000D03*
X175260000Y-111760000D03*
X175260000Y-109220000D03*
X175260000Y-106680000D03*
X175260000Y-104140000D03*
X175260000Y-101600000D03*
X175260000Y-99060000D03*
X175260000Y-96520000D03*
X175260000Y-93980000D03*
X175260000Y-91440000D03*
X175260000Y-88900000D03*
X175260000Y-86360000D03*
X177800000Y-137160000D03*
X177800000Y-134620000D03*
X177800000Y-132080000D03*
X177800000Y-129540000D03*
X177800000Y-127000000D03*
X177800000Y-124460000D03*
X177800000Y-121920000D03*
X177800000Y-119380000D03*
X177800000Y-116840000D03*
X177800000Y-114300000D03*
X177800000Y-111760000D03*
X177800000Y-109220000D03*
X177800000Y-106680000D03*
X177800000Y-104140000D03*
X177800000Y-101600000D03*
X177800000Y-99060000D03*
X177800000Y-96520000D03*
X177800000Y-93980000D03*
X177800000Y-91440000D03*
X177800000Y-88900000D03*
X177800000Y-86360000D03*
X180340000Y-137160000D03*
X180340000Y-134620000D03*
X180340000Y-132080000D03*
X180340000Y-129540000D03*
X180340000Y-127000000D03*
X180340000Y-124460000D03*
X180340000Y-121920000D03*
X180340000Y-119380000D03*
X180340000Y-116840000D03*
X180340000Y-114300000D03*
X180340000Y-111760000D03*
X180340000Y-109220000D03*
X180340000Y-106680000D03*
X180340000Y-104140000D03*
X180340000Y-101600000D03*
X180340000Y-99060000D03*
X180340000Y-96520000D03*
X180340000Y-93980000D03*
X180340000Y-91440000D03*
X180340000Y-88900000D03*
X180340000Y-86360000D03*
X182880000Y-137160000D03*
X182880000Y-134620000D03*
X182880000Y-132080000D03*
X182880000Y-129540000D03*
X182880000Y-127000000D03*
X182880000Y-124460000D03*
X182880000Y-121920000D03*
X182880000Y-119380000D03*
X182880000Y-116840000D03*
X182880000Y-114300000D03*
X182880000Y-111760000D03*
X182880000Y-109220000D03*
X182880000Y-106680000D03*
X182880000Y-104140000D03*
X182880000Y-101600000D03*
X182880000Y-99060000D03*
X182880000Y-96520000D03*
X182880000Y-93980000D03*
X182880000Y-91440000D03*
X182880000Y-88900000D03*
X182880000Y-86360000D03*
X185420000Y-137160000D03*
X185420000Y-134620000D03*
X185420000Y-132080000D03*
X185420000Y-129540000D03*
X185420000Y-127000000D03*
X185420000Y-124460000D03*
X185420000Y-121920000D03*
X185420000Y-119380000D03*
X185420000Y-116840000D03*
X185420000Y-114300000D03*
X185420000Y-111760000D03*
X185420000Y-109220000D03*
X185420000Y-106680000D03*
X185420000Y-104140000D03*
X185420000Y-101600000D03*
X185420000Y-99060000D03*
X185420000Y-96520000D03*
X185420000Y-93980000D03*
X185420000Y-91440000D03*
X185420000Y-88900000D03*
X185420000Y-86360000D03*
X187960000Y-137160000D03*
X187960000Y-134620000D03*
X187960000Y-132080000D03*
X187960000Y-129540000D03*
X187960000Y-127000000D03*
X187960000Y-124460000D03*
X187960000Y-121920000D03*
X187960000Y-119380000D03*
X187960000Y-116840000D03*
X187960000Y-114300000D03*
X187960000Y-111760000D03*
X187960000Y-109220000D03*
X187960000Y-106680000D03*
X187960000Y-104140000D03*
X187960000Y-101600000D03*
X187960000Y-99060000D03*
X187960000Y-96520000D03*
X187960000Y-93980000D03*
X187960000Y-91440000D03*
X187960000Y-88900000D03*
X187960000Y-86360000D03*
X190500000Y-137160000D03*
X190500000Y-134620000D03*
X190500000Y-132080000D03*
X190500000Y-129540000D03*
X190500000Y-127000000D03*
X190500000Y-124460000D03*
X190500000Y-121920000D03*
X190500000Y-119380000D03*
X190500000Y-116840000D03*
X190500000Y-114300000D03*
X190500000Y-111760000D03*
X190500000Y-109220000D03*
X190500000Y-106680000D03*
X190500000Y-104140000D03*
X190500000Y-101600000D03*
X190500000Y-99060000D03*
X190500000Y-96520000D03*
X190500000Y-93980000D03*
X190500000Y-91440000D03*
X190500000Y-88900000D03*
X190500000Y-86360000D03*
X193040000Y-137160000D03*
X193040000Y-134620000D03*
X193040000Y-132080000D03*
X193040000Y-129540000D03*
X193040000Y-127000000D03*
X193040000Y-124460000D03*
X193040000Y-121920000D03*
X193040000Y-119380000D03*
X193040000Y-116840000D03*
X193040000Y-114300000D03*
X193040000Y-111760000D03*
X193040000Y-109220000D03*
X193040000Y-106680000D03*
X193040000Y-104140000D03*
X193040000Y-101600000D03*
X193040000Y-99060000D03*
X193040000Y-96520000D03*
X193040000Y-93980000D03*
X193040000Y-91440000D03*
X193040000Y-88900000D03*
X193040000Y-86360000D03*
X195580000Y-137160000D03*
X195580000Y-134620000D03*
X195580000Y-132080000D03*
X195580000Y-129540000D03*
X195580000Y-127000000D03*
X195580000Y-124460000D03*
X195580000Y-121920000D03*
X195580000Y-119380000D03*
X195580000Y-116840000D03*
X195580000Y-114300000D03*
X195580000Y-111760000D03*
X195580000Y-109220000D03*
X195580000Y-106680000D03*
X195580000Y-104140000D03*
X195580000Y-101600000D03*
X195580000Y-99060000D03*
X195580000Y-96520000D03*
X195580000Y-93980000D03*
X195580000Y-91440000D03*
X195580000Y-88900000D03*
X195580000Y-86360000D03*
D14*
G36*
X102693569Y-78908110D02*
X102642560Y-79160000D01*
X102642560Y-80860000D01*
X102686838Y-81095317D01*
X102825910Y-81311441D01*
X103038110Y-81456431D01*
X103290000Y-81507440D01*
X104990000Y-81507440D01*
X105225317Y-81463162D01*
X105441441Y-81324090D01*
X105586431Y-81111890D01*
X105600086Y-81044459D01*
X105629946Y-81089147D01*
X106111715Y-81411054D01*
X106680000Y-81524093D01*
X107248285Y-81411054D01*
X107730054Y-81089147D01*
X107950000Y-80759974D01*
X108169946Y-81089147D01*
X108651715Y-81411054D01*
X109220000Y-81524093D01*
X109788285Y-81411054D01*
X110270054Y-81089147D01*
X110490000Y-80759974D01*
X110709946Y-81089147D01*
X111191715Y-81411054D01*
X111760000Y-81524093D01*
X112328285Y-81411054D01*
X112810054Y-81089147D01*
X113030000Y-80759974D01*
X113249946Y-81089147D01*
X113731715Y-81411054D01*
X114300000Y-81524093D01*
X114868285Y-81411054D01*
X115350054Y-81089147D01*
X115570000Y-80759974D01*
X115789946Y-81089147D01*
X116271715Y-81411054D01*
X116840000Y-81524093D01*
X117408285Y-81411054D01*
X117890054Y-81089147D01*
X118110000Y-80759974D01*
X118329946Y-81089147D01*
X118811715Y-81411054D01*
X119380000Y-81524093D01*
X119948285Y-81411054D01*
X120430054Y-81089147D01*
X120650000Y-80759974D01*
X120869946Y-81089147D01*
X121351715Y-81411054D01*
X121920000Y-81524093D01*
X122488285Y-81411054D01*
X122970054Y-81089147D01*
X123190000Y-80759974D01*
X123409946Y-81089147D01*
X123891715Y-81411054D01*
X124460000Y-81524093D01*
X125028285Y-81411054D01*
X125510054Y-81089147D01*
X125730000Y-80759974D01*
X125949946Y-81089147D01*
X126431715Y-81411054D01*
X127000000Y-81524093D01*
X127568285Y-81411054D01*
X128050054Y-81089147D01*
X128371961Y-80607378D01*
X128485000Y-80039093D01*
X128485000Y-79980907D01*
X128371961Y-79412622D01*
X128050054Y-78930853D01*
X127876667Y-78815000D01*
X130697188Y-78815000D01*
X130633569Y-78908110D01*
X130582560Y-79160000D01*
X130582560Y-80860000D01*
X130626838Y-81095317D01*
X130765910Y-81311441D01*
X130978110Y-81456431D01*
X131230000Y-81507440D01*
X132930000Y-81507440D01*
X133165317Y-81463162D01*
X133381441Y-81324090D01*
X133526431Y-81111890D01*
X133540086Y-81044459D01*
X133569946Y-81089147D01*
X134051715Y-81411054D01*
X134620000Y-81524093D01*
X135188285Y-81411054D01*
X135670054Y-81089147D01*
X135890000Y-80759974D01*
X136109946Y-81089147D01*
X136591715Y-81411054D01*
X137160000Y-81524093D01*
X137728285Y-81411054D01*
X138210054Y-81089147D01*
X138430000Y-80759974D01*
X138649946Y-81089147D01*
X139131715Y-81411054D01*
X139700000Y-81524093D01*
X140268285Y-81411054D01*
X140750054Y-81089147D01*
X140970000Y-80759974D01*
X141189946Y-81089147D01*
X141671715Y-81411054D01*
X142240000Y-81524093D01*
X142808285Y-81411054D01*
X143290054Y-81089147D01*
X143510000Y-80759974D01*
X143729946Y-81089147D01*
X144211715Y-81411054D01*
X144780000Y-81524093D01*
X145348285Y-81411054D01*
X145830054Y-81089147D01*
X146050000Y-80759974D01*
X146269946Y-81089147D01*
X146751715Y-81411054D01*
X147320000Y-81524093D01*
X147888285Y-81411054D01*
X148370054Y-81089147D01*
X148590000Y-80759974D01*
X148809946Y-81089147D01*
X149291715Y-81411054D01*
X149860000Y-81524093D01*
X150428285Y-81411054D01*
X150910054Y-81089147D01*
X151130000Y-80759974D01*
X151349946Y-81089147D01*
X151831715Y-81411054D01*
X152400000Y-81524093D01*
X152968285Y-81411054D01*
X153450054Y-81089147D01*
X153670000Y-80759974D01*
X153889946Y-81089147D01*
X154371715Y-81411054D01*
X154940000Y-81524093D01*
X155508285Y-81411054D01*
X155990054Y-81089147D01*
X156311961Y-80607378D01*
X156425000Y-80039093D01*
X156425000Y-79980907D01*
X156311961Y-79412622D01*
X155990054Y-78930853D01*
X155816667Y-78815000D01*
X198050070Y-78815000D01*
X198328979Y-78870478D01*
X198506145Y-78988856D01*
X198624521Y-79166019D01*
X198680000Y-79444931D01*
X198680000Y-143917560D01*
X197270000Y-143917560D01*
X197034683Y-143961838D01*
X196818559Y-144100910D01*
X196673569Y-144313110D01*
X196659914Y-144380541D01*
X196630054Y-144335853D01*
X196148285Y-144013946D01*
X195580000Y-143900907D01*
X195011715Y-144013946D01*
X194529946Y-144335853D01*
X194310000Y-144665026D01*
X194090054Y-144335853D01*
X193608285Y-144013946D01*
X193040000Y-143900907D01*
X192471715Y-144013946D01*
X191989946Y-144335853D01*
X191770000Y-144665026D01*
X191550054Y-144335853D01*
X191068285Y-144013946D01*
X190500000Y-143900907D01*
X189931715Y-144013946D01*
X189449946Y-144335853D01*
X189230000Y-144665026D01*
X189010054Y-144335853D01*
X188528285Y-144013946D01*
X187960000Y-143900907D01*
X187391715Y-144013946D01*
X186909946Y-144335853D01*
X186690000Y-144665026D01*
X186470054Y-144335853D01*
X185988285Y-144013946D01*
X185420000Y-143900907D01*
X184851715Y-144013946D01*
X184369946Y-144335853D01*
X184150000Y-144665026D01*
X183930054Y-144335853D01*
X183448285Y-144013946D01*
X182880000Y-143900907D01*
X182311715Y-144013946D01*
X181829946Y-144335853D01*
X181610000Y-144665026D01*
X181390054Y-144335853D01*
X180908285Y-144013946D01*
X180340000Y-143900907D01*
X179771715Y-144013946D01*
X179289946Y-144335853D01*
X179070000Y-144665026D01*
X178850054Y-144335853D01*
X178368285Y-144013946D01*
X177800000Y-143900907D01*
X177231715Y-144013946D01*
X176749946Y-144335853D01*
X176530000Y-144665026D01*
X176310054Y-144335853D01*
X175828285Y-144013946D01*
X175260000Y-143900907D01*
X174691715Y-144013946D01*
X174209946Y-144335853D01*
X173990000Y-144665026D01*
X173770054Y-144335853D01*
X173288285Y-144013946D01*
X172720000Y-143900907D01*
X172151715Y-144013946D01*
X171669946Y-144335853D01*
X171450000Y-144665026D01*
X171230054Y-144335853D01*
X170748285Y-144013946D01*
X170180000Y-143900907D01*
X169611715Y-144013946D01*
X169129946Y-144335853D01*
X168910000Y-144665026D01*
X168690054Y-144335853D01*
X168208285Y-144013946D01*
X167640000Y-143900907D01*
X167071715Y-144013946D01*
X166589946Y-144335853D01*
X166370000Y-144665026D01*
X166150054Y-144335853D01*
X165668285Y-144013946D01*
X165100000Y-143900907D01*
X164531715Y-144013946D01*
X164049946Y-144335853D01*
X163830000Y-144665026D01*
X163610054Y-144335853D01*
X163128285Y-144013946D01*
X162560000Y-143900907D01*
X161991715Y-144013946D01*
X161509946Y-144335853D01*
X161290000Y-144665026D01*
X161070054Y-144335853D01*
X160588285Y-144013946D01*
X160020000Y-143900907D01*
X159451715Y-144013946D01*
X158969946Y-144335853D01*
X158742298Y-144676553D01*
X158675183Y-144533642D01*
X158246924Y-144143355D01*
X157836890Y-143973524D01*
X157607000Y-144094845D01*
X157607000Y-145288000D01*
X157627000Y-145288000D01*
X157627000Y-145542000D01*
X157607000Y-145542000D01*
X157607000Y-145562000D01*
X157353000Y-145562000D01*
X157353000Y-145542000D01*
X157333000Y-145542000D01*
X157333000Y-145288000D01*
X157353000Y-145288000D01*
X157353000Y-144094845D01*
X157123110Y-143973524D01*
X156713076Y-144143355D01*
X156284817Y-144533642D01*
X156217702Y-144676553D01*
X155990054Y-144335853D01*
X155508285Y-144013946D01*
X154940000Y-143900907D01*
X154371715Y-144013946D01*
X153889946Y-144335853D01*
X153670000Y-144665026D01*
X153450054Y-144335853D01*
X152968285Y-144013946D01*
X152400000Y-143900907D01*
X151831715Y-144013946D01*
X151349946Y-144335853D01*
X151130000Y-144665026D01*
X150910054Y-144335853D01*
X150428285Y-144013946D01*
X149860000Y-143900907D01*
X149291715Y-144013946D01*
X148809946Y-144335853D01*
X148590000Y-144665026D01*
X148370054Y-144335853D01*
X147888285Y-144013946D01*
X147320000Y-143900907D01*
X146751715Y-144013946D01*
X146269946Y-144335853D01*
X146050000Y-144665026D01*
X145830054Y-144335853D01*
X145348285Y-144013946D01*
X144780000Y-143900907D01*
X144211715Y-144013946D01*
X143729946Y-144335853D01*
X143510000Y-144665026D01*
X143290054Y-144335853D01*
X142808285Y-144013946D01*
X142240000Y-143900907D01*
X141671715Y-144013946D01*
X141189946Y-144335853D01*
X140970000Y-144665026D01*
X140750054Y-144335853D01*
X140268285Y-144013946D01*
X139700000Y-143900907D01*
X139131715Y-144013946D01*
X138649946Y-144335853D01*
X138430000Y-144665026D01*
X138210054Y-144335853D01*
X137728285Y-144013946D01*
X137160000Y-143900907D01*
X136591715Y-144013946D01*
X136109946Y-144335853D01*
X135890000Y-144665026D01*
X135670054Y-144335853D01*
X135188285Y-144013946D01*
X134620000Y-143900907D01*
X134051715Y-144013946D01*
X133569946Y-144335853D01*
X133350000Y-144665026D01*
X133130054Y-144335853D01*
X132648285Y-144013946D01*
X132080000Y-143900907D01*
X131511715Y-144013946D01*
X131029946Y-144335853D01*
X130810000Y-144665026D01*
X130590054Y-144335853D01*
X130108285Y-144013946D01*
X129540000Y-143900907D01*
X128971715Y-144013946D01*
X128489946Y-144335853D01*
X128270000Y-144665026D01*
X128050054Y-144335853D01*
X127568285Y-144013946D01*
X127000000Y-143900907D01*
X126431715Y-144013946D01*
X125949946Y-144335853D01*
X125730000Y-144665026D01*
X125510054Y-144335853D01*
X125028285Y-144013946D01*
X124460000Y-143900907D01*
X123891715Y-144013946D01*
X123409946Y-144335853D01*
X123190000Y-144665026D01*
X122970054Y-144335853D01*
X122488285Y-144013946D01*
X121920000Y-143900907D01*
X121351715Y-144013946D01*
X120869946Y-144335853D01*
X120650000Y-144665026D01*
X120430054Y-144335853D01*
X119948285Y-144013946D01*
X119380000Y-143900907D01*
X118811715Y-144013946D01*
X118329946Y-144335853D01*
X118110000Y-144665026D01*
X117890054Y-144335853D01*
X117408285Y-144013946D01*
X116840000Y-143900907D01*
X116271715Y-144013946D01*
X115789946Y-144335853D01*
X115570000Y-144665026D01*
X115350054Y-144335853D01*
X114868285Y-144013946D01*
X114300000Y-143900907D01*
X113731715Y-144013946D01*
X113249946Y-144335853D01*
X113030000Y-144665026D01*
X112810054Y-144335853D01*
X112328285Y-144013946D01*
X111760000Y-143900907D01*
X111191715Y-144013946D01*
X110709946Y-144335853D01*
X110490000Y-144665026D01*
X110270054Y-144335853D01*
X109788285Y-144013946D01*
X109220000Y-143900907D01*
X108651715Y-144013946D01*
X108169946Y-144335853D01*
X107950000Y-144665026D01*
X107730054Y-144335853D01*
X107248285Y-144013946D01*
X106680000Y-143900907D01*
X106111715Y-144013946D01*
X105629946Y-144335853D01*
X105410000Y-144665026D01*
X105190054Y-144335853D01*
X104708285Y-144013946D01*
X104140000Y-143900907D01*
X103571715Y-144013946D01*
X103089946Y-144335853D01*
X102870000Y-144665026D01*
X102650054Y-144335853D01*
X102168285Y-144013946D01*
X101600000Y-143900907D01*
X101040000Y-144012298D01*
X101040000Y-86636661D01*
X102742758Y-86636661D01*
X102954990Y-87150303D01*
X103347630Y-87543629D01*
X103555512Y-87629949D01*
X103349697Y-87714990D01*
X102956371Y-88107630D01*
X102743243Y-88620900D01*
X102742758Y-89176661D01*
X102954990Y-89690303D01*
X103347630Y-90083629D01*
X103555512Y-90169949D01*
X103349697Y-90254990D01*
X102956371Y-90647630D01*
X102743243Y-91160900D01*
X102742758Y-91716661D01*
X102954990Y-92230303D01*
X103347630Y-92623629D01*
X103555512Y-92709949D01*
X103349697Y-92794990D01*
X102956371Y-93187630D01*
X102743243Y-93700900D01*
X102742758Y-94256661D01*
X102954990Y-94770303D01*
X103347630Y-95163629D01*
X103555512Y-95249949D01*
X103349697Y-95334990D01*
X102956371Y-95727630D01*
X102743243Y-96240900D01*
X102742758Y-96796661D01*
X102954990Y-97310303D01*
X103347630Y-97703629D01*
X103555512Y-97789949D01*
X103349697Y-97874990D01*
X102956371Y-98267630D01*
X102743243Y-98780900D01*
X102742758Y-99336661D01*
X102954990Y-99850303D01*
X103347630Y-100243629D01*
X103555512Y-100329949D01*
X103349697Y-100414990D01*
X102956371Y-100807630D01*
X102743243Y-101320900D01*
X102742758Y-101876661D01*
X102954990Y-102390303D01*
X103347630Y-102783629D01*
X103555512Y-102869949D01*
X103349697Y-102954990D01*
X102956371Y-103347630D01*
X102743243Y-103860900D01*
X102742758Y-104416661D01*
X102954990Y-104930303D01*
X103347630Y-105323629D01*
X103555512Y-105409949D01*
X103349697Y-105494990D01*
X102956371Y-105887630D01*
X102743243Y-106400900D01*
X102742758Y-106956661D01*
X102954990Y-107470303D01*
X103347630Y-107863629D01*
X103555512Y-107949949D01*
X103349697Y-108034990D01*
X102956371Y-108427630D01*
X102743243Y-108940900D01*
X102742758Y-109496661D01*
X102954990Y-110010303D01*
X103347630Y-110403629D01*
X103555512Y-110489949D01*
X103349697Y-110574990D01*
X102956371Y-110967630D01*
X102743243Y-111480900D01*
X102742758Y-112036661D01*
X102954990Y-112550303D01*
X103347630Y-112943629D01*
X103555512Y-113029949D01*
X103349697Y-113114990D01*
X102956371Y-113507630D01*
X102743243Y-114020900D01*
X102742758Y-114576661D01*
X102954990Y-115090303D01*
X103347630Y-115483629D01*
X103555512Y-115569949D01*
X103349697Y-115654990D01*
X102956371Y-116047630D01*
X102743243Y-116560900D01*
X102742758Y-117116661D01*
X102954990Y-117630303D01*
X103347630Y-118023629D01*
X103555512Y-118109949D01*
X103349697Y-118194990D01*
X102956371Y-118587630D01*
X102743243Y-119100900D01*
X102742758Y-119656661D01*
X102954990Y-120170303D01*
X103347630Y-120563629D01*
X103555512Y-120649949D01*
X103349697Y-120734990D01*
X102956371Y-121127630D01*
X102743243Y-121640900D01*
X102742758Y-122196661D01*
X102954990Y-122710303D01*
X103347630Y-123103629D01*
X103555512Y-123189949D01*
X103349697Y-123274990D01*
X102956371Y-123667630D01*
X102743243Y-124180900D01*
X102742758Y-124736661D01*
X102954990Y-125250303D01*
X103347630Y-125643629D01*
X103555512Y-125729949D01*
X103349697Y-125814990D01*
X102956371Y-126207630D01*
X102743243Y-126720900D01*
X102742758Y-127276661D01*
X102954990Y-127790303D01*
X103347630Y-128183629D01*
X103555512Y-128269949D01*
X103349697Y-128354990D01*
X102956371Y-128747630D01*
X102743243Y-129260900D01*
X102742758Y-129816661D01*
X102954990Y-130330303D01*
X103347630Y-130723629D01*
X103555512Y-130809949D01*
X103349697Y-130894990D01*
X102956371Y-131287630D01*
X102743243Y-131800900D01*
X102742758Y-132356661D01*
X102954990Y-132870303D01*
X103347630Y-133263629D01*
X103555512Y-133349949D01*
X103349697Y-133434990D01*
X102956371Y-133827630D01*
X102743243Y-134340900D01*
X102742758Y-134896661D01*
X102954990Y-135410303D01*
X103347630Y-135803629D01*
X103555512Y-135889949D01*
X103349697Y-135974990D01*
X102956371Y-136367630D01*
X102743243Y-136880900D01*
X102742758Y-137436661D01*
X102954990Y-137950303D01*
X103347630Y-138343629D01*
X103860900Y-138556757D01*
X104416661Y-138557242D01*
X104930303Y-138345010D01*
X105323629Y-137952370D01*
X105536757Y-137439100D01*
X105537242Y-136883339D01*
X105325010Y-136369697D01*
X104932370Y-135976371D01*
X104724488Y-135890051D01*
X104930303Y-135805010D01*
X105323629Y-135412370D01*
X105536757Y-134899100D01*
X105537242Y-134343339D01*
X105325010Y-133829697D01*
X104932370Y-133436371D01*
X104724488Y-133350051D01*
X104930303Y-133265010D01*
X105323629Y-132872370D01*
X105536757Y-132359100D01*
X105537242Y-131803339D01*
X105325010Y-131289697D01*
X104932370Y-130896371D01*
X104724488Y-130810051D01*
X104930303Y-130725010D01*
X105323629Y-130332370D01*
X105536757Y-129819100D01*
X105537242Y-129263339D01*
X105325010Y-128749697D01*
X104932370Y-128356371D01*
X104724488Y-128270051D01*
X104930303Y-128185010D01*
X105323629Y-127792370D01*
X105536757Y-127279100D01*
X105537242Y-126723339D01*
X105325010Y-126209697D01*
X104932370Y-125816371D01*
X104724488Y-125730051D01*
X104930303Y-125645010D01*
X105323629Y-125252370D01*
X105536757Y-124739100D01*
X105537242Y-124183339D01*
X105325010Y-123669697D01*
X104932370Y-123276371D01*
X104724488Y-123190051D01*
X104930303Y-123105010D01*
X105323629Y-122712370D01*
X105536757Y-122199100D01*
X105537242Y-121643339D01*
X105325010Y-121129697D01*
X104932370Y-120736371D01*
X104724488Y-120650051D01*
X104930303Y-120565010D01*
X105323629Y-120172370D01*
X105536757Y-119659100D01*
X105537242Y-119103339D01*
X105325010Y-118589697D01*
X104932370Y-118196371D01*
X104724488Y-118110051D01*
X104930303Y-118025010D01*
X105323629Y-117632370D01*
X105536757Y-117119100D01*
X105537242Y-116563339D01*
X105325010Y-116049697D01*
X104932370Y-115656371D01*
X104724488Y-115570051D01*
X104930303Y-115485010D01*
X105323629Y-115092370D01*
X105536757Y-114579100D01*
X105537242Y-114023339D01*
X105325010Y-113509697D01*
X104932370Y-113116371D01*
X104724488Y-113030051D01*
X104930303Y-112945010D01*
X105323629Y-112552370D01*
X105536757Y-112039100D01*
X105537242Y-111483339D01*
X105325010Y-110969697D01*
X104932370Y-110576371D01*
X104724488Y-110490051D01*
X104930303Y-110405010D01*
X105323629Y-110012370D01*
X105536757Y-109499100D01*
X105537242Y-108943339D01*
X105325010Y-108429697D01*
X104932370Y-108036371D01*
X104724488Y-107950051D01*
X104930303Y-107865010D01*
X105323629Y-107472370D01*
X105536757Y-106959100D01*
X105537242Y-106403339D01*
X105325010Y-105889697D01*
X104932370Y-105496371D01*
X104724488Y-105410051D01*
X104930303Y-105325010D01*
X105323629Y-104932370D01*
X105536757Y-104419100D01*
X105537242Y-103863339D01*
X105325010Y-103349697D01*
X104932370Y-102956371D01*
X104724488Y-102870051D01*
X104930303Y-102785010D01*
X105323629Y-102392370D01*
X105536757Y-101879100D01*
X105537242Y-101323339D01*
X105325010Y-100809697D01*
X104932370Y-100416371D01*
X104724488Y-100330051D01*
X104930303Y-100245010D01*
X105323629Y-99852370D01*
X105536757Y-99339100D01*
X105537242Y-98783339D01*
X105325010Y-98269697D01*
X104932370Y-97876371D01*
X104724488Y-97790051D01*
X104930303Y-97705010D01*
X105323629Y-97312370D01*
X105536757Y-96799100D01*
X105537242Y-96243339D01*
X105325010Y-95729697D01*
X104932370Y-95336371D01*
X104724488Y-95250051D01*
X104930303Y-95165010D01*
X105323629Y-94772370D01*
X105536757Y-94259100D01*
X105537242Y-93703339D01*
X105325010Y-93189697D01*
X104932370Y-92796371D01*
X104724488Y-92710051D01*
X104930303Y-92625010D01*
X105323629Y-92232370D01*
X105536757Y-91719100D01*
X105537242Y-91163339D01*
X105325010Y-90649697D01*
X104932370Y-90256371D01*
X104724488Y-90170051D01*
X104930303Y-90085010D01*
X105323629Y-89692370D01*
X105536757Y-89179100D01*
X105537242Y-88623339D01*
X105325010Y-88109697D01*
X104932370Y-87716371D01*
X104724488Y-87630051D01*
X104930303Y-87545010D01*
X105323629Y-87152370D01*
X105536757Y-86639100D01*
X105537242Y-86083339D01*
X105325010Y-85569697D01*
X104932370Y-85176371D01*
X104419100Y-84963243D01*
X103863339Y-84962758D01*
X103349697Y-85174990D01*
X102956371Y-85567630D01*
X102743243Y-86080900D01*
X102742758Y-86636661D01*
X101040000Y-86636661D01*
X101040000Y-79444930D01*
X101095478Y-79166021D01*
X101213856Y-78988855D01*
X101391019Y-78870479D01*
X101669931Y-78815000D01*
X102757188Y-78815000D01*
X102693569Y-78908110D01*
X102693569Y-78908110D01*
G37*
X102693569Y-78908110D02*
X102642560Y-79160000D01*
X102642560Y-80860000D01*
X102686838Y-81095317D01*
X102825910Y-81311441D01*
X103038110Y-81456431D01*
X103290000Y-81507440D01*
X104990000Y-81507440D01*
X105225317Y-81463162D01*
X105441441Y-81324090D01*
X105586431Y-81111890D01*
X105600086Y-81044459D01*
X105629946Y-81089147D01*
X106111715Y-81411054D01*
X106680000Y-81524093D01*
X107248285Y-81411054D01*
X107730054Y-81089147D01*
X107950000Y-80759974D01*
X108169946Y-81089147D01*
X108651715Y-81411054D01*
X109220000Y-81524093D01*
X109788285Y-81411054D01*
X110270054Y-81089147D01*
X110490000Y-80759974D01*
X110709946Y-81089147D01*
X111191715Y-81411054D01*
X111760000Y-81524093D01*
X112328285Y-81411054D01*
X112810054Y-81089147D01*
X113030000Y-80759974D01*
X113249946Y-81089147D01*
X113731715Y-81411054D01*
X114300000Y-81524093D01*
X114868285Y-81411054D01*
X115350054Y-81089147D01*
X115570000Y-80759974D01*
X115789946Y-81089147D01*
X116271715Y-81411054D01*
X116840000Y-81524093D01*
X117408285Y-81411054D01*
X117890054Y-81089147D01*
X118110000Y-80759974D01*
X118329946Y-81089147D01*
X118811715Y-81411054D01*
X119380000Y-81524093D01*
X119948285Y-81411054D01*
X120430054Y-81089147D01*
X120650000Y-80759974D01*
X120869946Y-81089147D01*
X121351715Y-81411054D01*
X121920000Y-81524093D01*
X122488285Y-81411054D01*
X122970054Y-81089147D01*
X123190000Y-80759974D01*
X123409946Y-81089147D01*
X123891715Y-81411054D01*
X124460000Y-81524093D01*
X125028285Y-81411054D01*
X125510054Y-81089147D01*
X125730000Y-80759974D01*
X125949946Y-81089147D01*
X126431715Y-81411054D01*
X127000000Y-81524093D01*
X127568285Y-81411054D01*
X128050054Y-81089147D01*
X128371961Y-80607378D01*
X128485000Y-80039093D01*
X128485000Y-79980907D01*
X128371961Y-79412622D01*
X128050054Y-78930853D01*
X127876667Y-78815000D01*
X130697188Y-78815000D01*
X130633569Y-78908110D01*
X130582560Y-79160000D01*
X130582560Y-80860000D01*
X130626838Y-81095317D01*
X130765910Y-81311441D01*
X130978110Y-81456431D01*
X131230000Y-81507440D01*
X132930000Y-81507440D01*
X133165317Y-81463162D01*
X133381441Y-81324090D01*
X133526431Y-81111890D01*
X133540086Y-81044459D01*
X133569946Y-81089147D01*
X134051715Y-81411054D01*
X134620000Y-81524093D01*
X135188285Y-81411054D01*
X135670054Y-81089147D01*
X135890000Y-80759974D01*
X136109946Y-81089147D01*
X136591715Y-81411054D01*
X137160000Y-81524093D01*
X137728285Y-81411054D01*
X138210054Y-81089147D01*
X138430000Y-80759974D01*
X138649946Y-81089147D01*
X139131715Y-81411054D01*
X139700000Y-81524093D01*
X140268285Y-81411054D01*
X140750054Y-81089147D01*
X140970000Y-80759974D01*
X141189946Y-81089147D01*
X141671715Y-81411054D01*
X142240000Y-81524093D01*
X142808285Y-81411054D01*
X143290054Y-81089147D01*
X143510000Y-80759974D01*
X143729946Y-81089147D01*
X144211715Y-81411054D01*
X144780000Y-81524093D01*
X145348285Y-81411054D01*
X145830054Y-81089147D01*
X146050000Y-80759974D01*
X146269946Y-81089147D01*
X146751715Y-81411054D01*
X147320000Y-81524093D01*
X147888285Y-81411054D01*
X148370054Y-81089147D01*
X148590000Y-80759974D01*
X148809946Y-81089147D01*
X149291715Y-81411054D01*
X149860000Y-81524093D01*
X150428285Y-81411054D01*
X150910054Y-81089147D01*
X151130000Y-80759974D01*
X151349946Y-81089147D01*
X151831715Y-81411054D01*
X152400000Y-81524093D01*
X152968285Y-81411054D01*
X153450054Y-81089147D01*
X153670000Y-80759974D01*
X153889946Y-81089147D01*
X154371715Y-81411054D01*
X154940000Y-81524093D01*
X155508285Y-81411054D01*
X155990054Y-81089147D01*
X156311961Y-80607378D01*
X156425000Y-80039093D01*
X156425000Y-79980907D01*
X156311961Y-79412622D01*
X155990054Y-78930853D01*
X155816667Y-78815000D01*
X198050070Y-78815000D01*
X198328979Y-78870478D01*
X198506145Y-78988856D01*
X198624521Y-79166019D01*
X198680000Y-79444931D01*
X198680000Y-143917560D01*
X197270000Y-143917560D01*
X197034683Y-143961838D01*
X196818559Y-144100910D01*
X196673569Y-144313110D01*
X196659914Y-144380541D01*
X196630054Y-144335853D01*
X196148285Y-144013946D01*
X195580000Y-143900907D01*
X195011715Y-144013946D01*
X194529946Y-144335853D01*
X194310000Y-144665026D01*
X194090054Y-144335853D01*
X193608285Y-144013946D01*
X193040000Y-143900907D01*
X192471715Y-144013946D01*
X191989946Y-144335853D01*
X191770000Y-144665026D01*
X191550054Y-144335853D01*
X191068285Y-144013946D01*
X190500000Y-143900907D01*
X189931715Y-144013946D01*
X189449946Y-144335853D01*
X189230000Y-144665026D01*
X189010054Y-144335853D01*
X188528285Y-144013946D01*
X187960000Y-143900907D01*
X187391715Y-144013946D01*
X186909946Y-144335853D01*
X186690000Y-144665026D01*
X186470054Y-144335853D01*
X185988285Y-144013946D01*
X185420000Y-143900907D01*
X184851715Y-144013946D01*
X184369946Y-144335853D01*
X184150000Y-144665026D01*
X183930054Y-144335853D01*
X183448285Y-144013946D01*
X182880000Y-143900907D01*
X182311715Y-144013946D01*
X181829946Y-144335853D01*
X181610000Y-144665026D01*
X181390054Y-144335853D01*
X180908285Y-144013946D01*
X180340000Y-143900907D01*
X179771715Y-144013946D01*
X179289946Y-144335853D01*
X179070000Y-144665026D01*
X178850054Y-144335853D01*
X178368285Y-144013946D01*
X177800000Y-143900907D01*
X177231715Y-144013946D01*
X176749946Y-144335853D01*
X176530000Y-144665026D01*
X176310054Y-144335853D01*
X175828285Y-144013946D01*
X175260000Y-143900907D01*
X174691715Y-144013946D01*
X174209946Y-144335853D01*
X173990000Y-144665026D01*
X173770054Y-144335853D01*
X173288285Y-144013946D01*
X172720000Y-143900907D01*
X172151715Y-144013946D01*
X171669946Y-144335853D01*
X171450000Y-144665026D01*
X171230054Y-144335853D01*
X170748285Y-144013946D01*
X170180000Y-143900907D01*
X169611715Y-144013946D01*
X169129946Y-144335853D01*
X168910000Y-144665026D01*
X168690054Y-144335853D01*
X168208285Y-144013946D01*
X167640000Y-143900907D01*
X167071715Y-144013946D01*
X166589946Y-144335853D01*
X166370000Y-144665026D01*
X166150054Y-144335853D01*
X165668285Y-144013946D01*
X165100000Y-143900907D01*
X164531715Y-144013946D01*
X164049946Y-144335853D01*
X163830000Y-144665026D01*
X163610054Y-144335853D01*
X163128285Y-144013946D01*
X162560000Y-143900907D01*
X161991715Y-144013946D01*
X161509946Y-144335853D01*
X161290000Y-144665026D01*
X161070054Y-144335853D01*
X160588285Y-144013946D01*
X160020000Y-143900907D01*
X159451715Y-144013946D01*
X158969946Y-144335853D01*
X158742298Y-144676553D01*
X158675183Y-144533642D01*
X158246924Y-144143355D01*
X157836890Y-143973524D01*
X157607000Y-144094845D01*
X157607000Y-145288000D01*
X157627000Y-145288000D01*
X157627000Y-145542000D01*
X157607000Y-145542000D01*
X157607000Y-145562000D01*
X157353000Y-145562000D01*
X157353000Y-145542000D01*
X157333000Y-145542000D01*
X157333000Y-145288000D01*
X157353000Y-145288000D01*
X157353000Y-144094845D01*
X157123110Y-143973524D01*
X156713076Y-144143355D01*
X156284817Y-144533642D01*
X156217702Y-144676553D01*
X155990054Y-144335853D01*
X155508285Y-144013946D01*
X154940000Y-143900907D01*
X154371715Y-144013946D01*
X153889946Y-144335853D01*
X153670000Y-144665026D01*
X153450054Y-144335853D01*
X152968285Y-144013946D01*
X152400000Y-143900907D01*
X151831715Y-144013946D01*
X151349946Y-144335853D01*
X151130000Y-144665026D01*
X150910054Y-144335853D01*
X150428285Y-144013946D01*
X149860000Y-143900907D01*
X149291715Y-144013946D01*
X148809946Y-144335853D01*
X148590000Y-144665026D01*
X148370054Y-144335853D01*
X147888285Y-144013946D01*
X147320000Y-143900907D01*
X146751715Y-144013946D01*
X146269946Y-144335853D01*
X146050000Y-144665026D01*
X145830054Y-144335853D01*
X145348285Y-144013946D01*
X144780000Y-143900907D01*
X144211715Y-144013946D01*
X143729946Y-144335853D01*
X143510000Y-144665026D01*
X143290054Y-144335853D01*
X142808285Y-144013946D01*
X142240000Y-143900907D01*
X141671715Y-144013946D01*
X141189946Y-144335853D01*
X140970000Y-144665026D01*
X140750054Y-144335853D01*
X140268285Y-144013946D01*
X139700000Y-143900907D01*
X139131715Y-144013946D01*
X138649946Y-144335853D01*
X138430000Y-144665026D01*
X138210054Y-144335853D01*
X137728285Y-144013946D01*
X137160000Y-143900907D01*
X136591715Y-144013946D01*
X136109946Y-144335853D01*
X135890000Y-144665026D01*
X135670054Y-144335853D01*
X135188285Y-144013946D01*
X134620000Y-143900907D01*
X134051715Y-144013946D01*
X133569946Y-144335853D01*
X133350000Y-144665026D01*
X133130054Y-144335853D01*
X132648285Y-144013946D01*
X132080000Y-143900907D01*
X131511715Y-144013946D01*
X131029946Y-144335853D01*
X130810000Y-144665026D01*
X130590054Y-144335853D01*
X130108285Y-144013946D01*
X129540000Y-143900907D01*
X128971715Y-144013946D01*
X128489946Y-144335853D01*
X128270000Y-144665026D01*
X128050054Y-144335853D01*
X127568285Y-144013946D01*
X127000000Y-143900907D01*
X126431715Y-144013946D01*
X125949946Y-144335853D01*
X125730000Y-144665026D01*
X125510054Y-144335853D01*
X125028285Y-144013946D01*
X124460000Y-143900907D01*
X123891715Y-144013946D01*
X123409946Y-144335853D01*
X123190000Y-144665026D01*
X122970054Y-144335853D01*
X122488285Y-144013946D01*
X121920000Y-143900907D01*
X121351715Y-144013946D01*
X120869946Y-144335853D01*
X120650000Y-144665026D01*
X120430054Y-144335853D01*
X119948285Y-144013946D01*
X119380000Y-143900907D01*
X118811715Y-144013946D01*
X118329946Y-144335853D01*
X118110000Y-144665026D01*
X117890054Y-144335853D01*
X117408285Y-144013946D01*
X116840000Y-143900907D01*
X116271715Y-144013946D01*
X115789946Y-144335853D01*
X115570000Y-144665026D01*
X115350054Y-144335853D01*
X114868285Y-144013946D01*
X114300000Y-143900907D01*
X113731715Y-144013946D01*
X113249946Y-144335853D01*
X113030000Y-144665026D01*
X112810054Y-144335853D01*
X112328285Y-144013946D01*
X111760000Y-143900907D01*
X111191715Y-144013946D01*
X110709946Y-144335853D01*
X110490000Y-144665026D01*
X110270054Y-144335853D01*
X109788285Y-144013946D01*
X109220000Y-143900907D01*
X108651715Y-144013946D01*
X108169946Y-144335853D01*
X107950000Y-144665026D01*
X107730054Y-144335853D01*
X107248285Y-144013946D01*
X106680000Y-143900907D01*
X106111715Y-144013946D01*
X105629946Y-144335853D01*
X105410000Y-144665026D01*
X105190054Y-144335853D01*
X104708285Y-144013946D01*
X104140000Y-143900907D01*
X103571715Y-144013946D01*
X103089946Y-144335853D01*
X102870000Y-144665026D01*
X102650054Y-144335853D01*
X102168285Y-144013946D01*
X101600000Y-143900907D01*
X101040000Y-144012298D01*
X101040000Y-86636661D01*
X102742758Y-86636661D01*
X102954990Y-87150303D01*
X103347630Y-87543629D01*
X103555512Y-87629949D01*
X103349697Y-87714990D01*
X102956371Y-88107630D01*
X102743243Y-88620900D01*
X102742758Y-89176661D01*
X102954990Y-89690303D01*
X103347630Y-90083629D01*
X103555512Y-90169949D01*
X103349697Y-90254990D01*
X102956371Y-90647630D01*
X102743243Y-91160900D01*
X102742758Y-91716661D01*
X102954990Y-92230303D01*
X103347630Y-92623629D01*
X103555512Y-92709949D01*
X103349697Y-92794990D01*
X102956371Y-93187630D01*
X102743243Y-93700900D01*
X102742758Y-94256661D01*
X102954990Y-94770303D01*
X103347630Y-95163629D01*
X103555512Y-95249949D01*
X103349697Y-95334990D01*
X102956371Y-95727630D01*
X102743243Y-96240900D01*
X102742758Y-96796661D01*
X102954990Y-97310303D01*
X103347630Y-97703629D01*
X103555512Y-97789949D01*
X103349697Y-97874990D01*
X102956371Y-98267630D01*
X102743243Y-98780900D01*
X102742758Y-99336661D01*
X102954990Y-99850303D01*
X103347630Y-100243629D01*
X103555512Y-100329949D01*
X103349697Y-100414990D01*
X102956371Y-100807630D01*
X102743243Y-101320900D01*
X102742758Y-101876661D01*
X102954990Y-102390303D01*
X103347630Y-102783629D01*
X103555512Y-102869949D01*
X103349697Y-102954990D01*
X102956371Y-103347630D01*
X102743243Y-103860900D01*
X102742758Y-104416661D01*
X102954990Y-104930303D01*
X103347630Y-105323629D01*
X103555512Y-105409949D01*
X103349697Y-105494990D01*
X102956371Y-105887630D01*
X102743243Y-106400900D01*
X102742758Y-106956661D01*
X102954990Y-107470303D01*
X103347630Y-107863629D01*
X103555512Y-107949949D01*
X103349697Y-108034990D01*
X102956371Y-108427630D01*
X102743243Y-108940900D01*
X102742758Y-109496661D01*
X102954990Y-110010303D01*
X103347630Y-110403629D01*
X103555512Y-110489949D01*
X103349697Y-110574990D01*
X102956371Y-110967630D01*
X102743243Y-111480900D01*
X102742758Y-112036661D01*
X102954990Y-112550303D01*
X103347630Y-112943629D01*
X103555512Y-113029949D01*
X103349697Y-113114990D01*
X102956371Y-113507630D01*
X102743243Y-114020900D01*
X102742758Y-114576661D01*
X102954990Y-115090303D01*
X103347630Y-115483629D01*
X103555512Y-115569949D01*
X103349697Y-115654990D01*
X102956371Y-116047630D01*
X102743243Y-116560900D01*
X102742758Y-117116661D01*
X102954990Y-117630303D01*
X103347630Y-118023629D01*
X103555512Y-118109949D01*
X103349697Y-118194990D01*
X102956371Y-118587630D01*
X102743243Y-119100900D01*
X102742758Y-119656661D01*
X102954990Y-120170303D01*
X103347630Y-120563629D01*
X103555512Y-120649949D01*
X103349697Y-120734990D01*
X102956371Y-121127630D01*
X102743243Y-121640900D01*
X102742758Y-122196661D01*
X102954990Y-122710303D01*
X103347630Y-123103629D01*
X103555512Y-123189949D01*
X103349697Y-123274990D01*
X102956371Y-123667630D01*
X102743243Y-124180900D01*
X102742758Y-124736661D01*
X102954990Y-125250303D01*
X103347630Y-125643629D01*
X103555512Y-125729949D01*
X103349697Y-125814990D01*
X102956371Y-126207630D01*
X102743243Y-126720900D01*
X102742758Y-127276661D01*
X102954990Y-127790303D01*
X103347630Y-128183629D01*
X103555512Y-128269949D01*
X103349697Y-128354990D01*
X102956371Y-128747630D01*
X102743243Y-129260900D01*
X102742758Y-129816661D01*
X102954990Y-130330303D01*
X103347630Y-130723629D01*
X103555512Y-130809949D01*
X103349697Y-130894990D01*
X102956371Y-131287630D01*
X102743243Y-131800900D01*
X102742758Y-132356661D01*
X102954990Y-132870303D01*
X103347630Y-133263629D01*
X103555512Y-133349949D01*
X103349697Y-133434990D01*
X102956371Y-133827630D01*
X102743243Y-134340900D01*
X102742758Y-134896661D01*
X102954990Y-135410303D01*
X103347630Y-135803629D01*
X103555512Y-135889949D01*
X103349697Y-135974990D01*
X102956371Y-136367630D01*
X102743243Y-136880900D01*
X102742758Y-137436661D01*
X102954990Y-137950303D01*
X103347630Y-138343629D01*
X103860900Y-138556757D01*
X104416661Y-138557242D01*
X104930303Y-138345010D01*
X105323629Y-137952370D01*
X105536757Y-137439100D01*
X105537242Y-136883339D01*
X105325010Y-136369697D01*
X104932370Y-135976371D01*
X104724488Y-135890051D01*
X104930303Y-135805010D01*
X105323629Y-135412370D01*
X105536757Y-134899100D01*
X105537242Y-134343339D01*
X105325010Y-133829697D01*
X104932370Y-133436371D01*
X104724488Y-133350051D01*
X104930303Y-133265010D01*
X105323629Y-132872370D01*
X105536757Y-132359100D01*
X105537242Y-131803339D01*
X105325010Y-131289697D01*
X104932370Y-130896371D01*
X104724488Y-130810051D01*
X104930303Y-130725010D01*
X105323629Y-130332370D01*
X105536757Y-129819100D01*
X105537242Y-129263339D01*
X105325010Y-128749697D01*
X104932370Y-128356371D01*
X104724488Y-128270051D01*
X104930303Y-128185010D01*
X105323629Y-127792370D01*
X105536757Y-127279100D01*
X105537242Y-126723339D01*
X105325010Y-126209697D01*
X104932370Y-125816371D01*
X104724488Y-125730051D01*
X104930303Y-125645010D01*
X105323629Y-125252370D01*
X105536757Y-124739100D01*
X105537242Y-124183339D01*
X105325010Y-123669697D01*
X104932370Y-123276371D01*
X104724488Y-123190051D01*
X104930303Y-123105010D01*
X105323629Y-122712370D01*
X105536757Y-122199100D01*
X105537242Y-121643339D01*
X105325010Y-121129697D01*
X104932370Y-120736371D01*
X104724488Y-120650051D01*
X104930303Y-120565010D01*
X105323629Y-120172370D01*
X105536757Y-119659100D01*
X105537242Y-119103339D01*
X105325010Y-118589697D01*
X104932370Y-118196371D01*
X104724488Y-118110051D01*
X104930303Y-118025010D01*
X105323629Y-117632370D01*
X105536757Y-117119100D01*
X105537242Y-116563339D01*
X105325010Y-116049697D01*
X104932370Y-115656371D01*
X104724488Y-115570051D01*
X104930303Y-115485010D01*
X105323629Y-115092370D01*
X105536757Y-114579100D01*
X105537242Y-114023339D01*
X105325010Y-113509697D01*
X104932370Y-113116371D01*
X104724488Y-113030051D01*
X104930303Y-112945010D01*
X105323629Y-112552370D01*
X105536757Y-112039100D01*
X105537242Y-111483339D01*
X105325010Y-110969697D01*
X104932370Y-110576371D01*
X104724488Y-110490051D01*
X104930303Y-110405010D01*
X105323629Y-110012370D01*
X105536757Y-109499100D01*
X105537242Y-108943339D01*
X105325010Y-108429697D01*
X104932370Y-108036371D01*
X104724488Y-107950051D01*
X104930303Y-107865010D01*
X105323629Y-107472370D01*
X105536757Y-106959100D01*
X105537242Y-106403339D01*
X105325010Y-105889697D01*
X104932370Y-105496371D01*
X104724488Y-105410051D01*
X104930303Y-105325010D01*
X105323629Y-104932370D01*
X105536757Y-104419100D01*
X105537242Y-103863339D01*
X105325010Y-103349697D01*
X104932370Y-102956371D01*
X104724488Y-102870051D01*
X104930303Y-102785010D01*
X105323629Y-102392370D01*
X105536757Y-101879100D01*
X105537242Y-101323339D01*
X105325010Y-100809697D01*
X104932370Y-100416371D01*
X104724488Y-100330051D01*
X104930303Y-100245010D01*
X105323629Y-99852370D01*
X105536757Y-99339100D01*
X105537242Y-98783339D01*
X105325010Y-98269697D01*
X104932370Y-97876371D01*
X104724488Y-97790051D01*
X104930303Y-97705010D01*
X105323629Y-97312370D01*
X105536757Y-96799100D01*
X105537242Y-96243339D01*
X105325010Y-95729697D01*
X104932370Y-95336371D01*
X104724488Y-95250051D01*
X104930303Y-95165010D01*
X105323629Y-94772370D01*
X105536757Y-94259100D01*
X105537242Y-93703339D01*
X105325010Y-93189697D01*
X104932370Y-92796371D01*
X104724488Y-92710051D01*
X104930303Y-92625010D01*
X105323629Y-92232370D01*
X105536757Y-91719100D01*
X105537242Y-91163339D01*
X105325010Y-90649697D01*
X104932370Y-90256371D01*
X104724488Y-90170051D01*
X104930303Y-90085010D01*
X105323629Y-89692370D01*
X105536757Y-89179100D01*
X105537242Y-88623339D01*
X105325010Y-88109697D01*
X104932370Y-87716371D01*
X104724488Y-87630051D01*
X104930303Y-87545010D01*
X105323629Y-87152370D01*
X105536757Y-86639100D01*
X105537242Y-86083339D01*
X105325010Y-85569697D01*
X104932370Y-85176371D01*
X104419100Y-84963243D01*
X103863339Y-84962758D01*
X103349697Y-85174990D01*
X102956371Y-85567630D01*
X102743243Y-86080900D01*
X102742758Y-86636661D01*
X101040000Y-86636661D01*
X101040000Y-79444930D01*
X101095478Y-79166021D01*
X101213856Y-78988855D01*
X101391019Y-78870479D01*
X101669931Y-78815000D01*
X102757188Y-78815000D01*
X102693569Y-78908110D01*
M02*
