G04 #@! TF.FileFunction,Legend,Top*
%FSLAX46Y46*%
G04 Gerber Fmt 4.6, Leading zero omitted, Abs format (unit mm)*
G04 Created by KiCad (PCBNEW 4.0.7) date 12/23/19 18:48:18*
%MOMM*%
%LPD*%
G01*
G04 APERTURE LIST*
%ADD10C,0.100000*%
%ADD11C,0.150000*%
%ADD12C,0.200000*%
%ADD13C,0.300000*%
G04 APERTURE END LIST*
D10*
D11*
X195746667Y-143319524D02*
X195746667Y-142843333D01*
X196032381Y-143414762D02*
X195032381Y-143081429D01*
X196032381Y-142748095D01*
X196032381Y-141890952D02*
X196032381Y-142462381D01*
X196032381Y-142176667D02*
X195032381Y-142176667D01*
X195175238Y-142271905D01*
X195270476Y-142367143D01*
X195318095Y-142462381D01*
X195365714Y-141033809D02*
X196032381Y-141033809D01*
X194984762Y-141271905D02*
X195699048Y-141510000D01*
X195699048Y-140890952D01*
D12*
X198755000Y-110490000D02*
X198755000Y-80010000D01*
X198120000Y-80010000D02*
X198120000Y-110490000D01*
X197485000Y-110490000D02*
X197485000Y-80010000D01*
X198755000Y-146685000D02*
X198755000Y-147320000D01*
X198120000Y-146685000D02*
X198120000Y-147320000D01*
X197485000Y-146685000D02*
X197485000Y-147320000D01*
X198755000Y-115570000D02*
X198755000Y-144145000D01*
X198120000Y-144145000D02*
X198120000Y-115570000D01*
X197485000Y-115570000D02*
X197485000Y-144145000D01*
X198755000Y-80010000D02*
X198755000Y-78105000D01*
X198120000Y-80010000D02*
X198120000Y-78105000D01*
X197485000Y-80010000D02*
X197485000Y-78105000D01*
D10*
X126714286Y-82562619D02*
X126676190Y-82524524D01*
X126638095Y-82410238D01*
X126638095Y-82334048D01*
X126676190Y-82219762D01*
X126752381Y-82143571D01*
X126828571Y-82105476D01*
X126980952Y-82067381D01*
X127095238Y-82067381D01*
X127247619Y-82105476D01*
X127323810Y-82143571D01*
X127400000Y-82219762D01*
X127438095Y-82334048D01*
X127438095Y-82410238D01*
X127400000Y-82524524D01*
X127361905Y-82562619D01*
X126866667Y-82867381D02*
X126866667Y-83248333D01*
X126638095Y-82791190D02*
X127438095Y-83057857D01*
X126638095Y-83324524D01*
X127361905Y-83553095D02*
X127400000Y-83591190D01*
X127438095Y-83667381D01*
X127438095Y-83857857D01*
X127400000Y-83934047D01*
X127361905Y-83972143D01*
X127285714Y-84010238D01*
X127209524Y-84010238D01*
X127095238Y-83972143D01*
X126638095Y-83515000D01*
X126638095Y-84010238D01*
X124174286Y-82562619D02*
X124136190Y-82524524D01*
X124098095Y-82410238D01*
X124098095Y-82334048D01*
X124136190Y-82219762D01*
X124212381Y-82143571D01*
X124288571Y-82105476D01*
X124440952Y-82067381D01*
X124555238Y-82067381D01*
X124707619Y-82105476D01*
X124783810Y-82143571D01*
X124860000Y-82219762D01*
X124898095Y-82334048D01*
X124898095Y-82410238D01*
X124860000Y-82524524D01*
X124821905Y-82562619D01*
X124326667Y-82867381D02*
X124326667Y-83248333D01*
X124098095Y-82791190D02*
X124898095Y-83057857D01*
X124098095Y-83324524D01*
X124098095Y-84010238D02*
X124098095Y-83553095D01*
X124098095Y-83781666D02*
X124898095Y-83781666D01*
X124783810Y-83705476D01*
X124707619Y-83629285D01*
X124669524Y-83553095D01*
X121558095Y-82105476D02*
X122358095Y-82105476D01*
X122358095Y-82410238D01*
X122320000Y-82486429D01*
X122281905Y-82524524D01*
X122205714Y-82562619D01*
X122091429Y-82562619D01*
X122015238Y-82524524D01*
X121977143Y-82486429D01*
X121939048Y-82410238D01*
X121939048Y-82105476D01*
X121786667Y-82867381D02*
X121786667Y-83248333D01*
X121558095Y-82791190D02*
X122358095Y-83057857D01*
X121558095Y-83324524D01*
X122358095Y-83515000D02*
X122358095Y-84048333D01*
X121558095Y-83705476D01*
X119018095Y-82105476D02*
X119818095Y-82105476D01*
X119818095Y-82410238D01*
X119780000Y-82486429D01*
X119741905Y-82524524D01*
X119665714Y-82562619D01*
X119551429Y-82562619D01*
X119475238Y-82524524D01*
X119437143Y-82486429D01*
X119399048Y-82410238D01*
X119399048Y-82105476D01*
X119246667Y-82867381D02*
X119246667Y-83248333D01*
X119018095Y-82791190D02*
X119818095Y-83057857D01*
X119018095Y-83324524D01*
X119818095Y-83934047D02*
X119818095Y-83781666D01*
X119780000Y-83705476D01*
X119741905Y-83667381D01*
X119627619Y-83591190D01*
X119475238Y-83553095D01*
X119170476Y-83553095D01*
X119094286Y-83591190D01*
X119056190Y-83629285D01*
X119018095Y-83705476D01*
X119018095Y-83857857D01*
X119056190Y-83934047D01*
X119094286Y-83972143D01*
X119170476Y-84010238D01*
X119360952Y-84010238D01*
X119437143Y-83972143D01*
X119475238Y-83934047D01*
X119513333Y-83857857D01*
X119513333Y-83705476D01*
X119475238Y-83629285D01*
X119437143Y-83591190D01*
X119360952Y-83553095D01*
X116478095Y-82105476D02*
X117278095Y-82105476D01*
X117278095Y-82410238D01*
X117240000Y-82486429D01*
X117201905Y-82524524D01*
X117125714Y-82562619D01*
X117011429Y-82562619D01*
X116935238Y-82524524D01*
X116897143Y-82486429D01*
X116859048Y-82410238D01*
X116859048Y-82105476D01*
X116706667Y-82867381D02*
X116706667Y-83248333D01*
X116478095Y-82791190D02*
X117278095Y-83057857D01*
X116478095Y-83324524D01*
X117278095Y-83972143D02*
X117278095Y-83591190D01*
X116897143Y-83553095D01*
X116935238Y-83591190D01*
X116973333Y-83667381D01*
X116973333Y-83857857D01*
X116935238Y-83934047D01*
X116897143Y-83972143D01*
X116820952Y-84010238D01*
X116630476Y-84010238D01*
X116554286Y-83972143D01*
X116516190Y-83934047D01*
X116478095Y-83857857D01*
X116478095Y-83667381D01*
X116516190Y-83591190D01*
X116554286Y-83553095D01*
X113938095Y-82105476D02*
X114738095Y-82105476D01*
X114738095Y-82410238D01*
X114700000Y-82486429D01*
X114661905Y-82524524D01*
X114585714Y-82562619D01*
X114471429Y-82562619D01*
X114395238Y-82524524D01*
X114357143Y-82486429D01*
X114319048Y-82410238D01*
X114319048Y-82105476D01*
X114166667Y-82867381D02*
X114166667Y-83248333D01*
X113938095Y-82791190D02*
X114738095Y-83057857D01*
X113938095Y-83324524D01*
X114471429Y-83934047D02*
X113938095Y-83934047D01*
X114776190Y-83743571D02*
X114204762Y-83553095D01*
X114204762Y-84048333D01*
X111398095Y-82105476D02*
X112198095Y-82105476D01*
X112198095Y-82410238D01*
X112160000Y-82486429D01*
X112121905Y-82524524D01*
X112045714Y-82562619D01*
X111931429Y-82562619D01*
X111855238Y-82524524D01*
X111817143Y-82486429D01*
X111779048Y-82410238D01*
X111779048Y-82105476D01*
X111626667Y-82867381D02*
X111626667Y-83248333D01*
X111398095Y-82791190D02*
X112198095Y-83057857D01*
X111398095Y-83324524D01*
X112198095Y-83515000D02*
X112198095Y-84010238D01*
X111893333Y-83743571D01*
X111893333Y-83857857D01*
X111855238Y-83934047D01*
X111817143Y-83972143D01*
X111740952Y-84010238D01*
X111550476Y-84010238D01*
X111474286Y-83972143D01*
X111436190Y-83934047D01*
X111398095Y-83857857D01*
X111398095Y-83629285D01*
X111436190Y-83553095D01*
X111474286Y-83515000D01*
X108858095Y-82105476D02*
X109658095Y-82105476D01*
X109658095Y-82410238D01*
X109620000Y-82486429D01*
X109581905Y-82524524D01*
X109505714Y-82562619D01*
X109391429Y-82562619D01*
X109315238Y-82524524D01*
X109277143Y-82486429D01*
X109239048Y-82410238D01*
X109239048Y-82105476D01*
X109086667Y-82867381D02*
X109086667Y-83248333D01*
X108858095Y-82791190D02*
X109658095Y-83057857D01*
X108858095Y-83324524D01*
X109581905Y-83553095D02*
X109620000Y-83591190D01*
X109658095Y-83667381D01*
X109658095Y-83857857D01*
X109620000Y-83934047D01*
X109581905Y-83972143D01*
X109505714Y-84010238D01*
X109429524Y-84010238D01*
X109315238Y-83972143D01*
X108858095Y-83515000D01*
X108858095Y-84010238D01*
X106318095Y-82105476D02*
X107118095Y-82105476D01*
X107118095Y-82410238D01*
X107080000Y-82486429D01*
X107041905Y-82524524D01*
X106965714Y-82562619D01*
X106851429Y-82562619D01*
X106775238Y-82524524D01*
X106737143Y-82486429D01*
X106699048Y-82410238D01*
X106699048Y-82105476D01*
X106546667Y-82867381D02*
X106546667Y-83248333D01*
X106318095Y-82791190D02*
X107118095Y-83057857D01*
X106318095Y-83324524D01*
X106318095Y-84010238D02*
X106318095Y-83553095D01*
X106318095Y-83781666D02*
X107118095Y-83781666D01*
X107003810Y-83705476D01*
X106927619Y-83629285D01*
X106889524Y-83553095D01*
X103778095Y-82105476D02*
X104578095Y-82105476D01*
X104578095Y-82410238D01*
X104540000Y-82486429D01*
X104501905Y-82524524D01*
X104425714Y-82562619D01*
X104311429Y-82562619D01*
X104235238Y-82524524D01*
X104197143Y-82486429D01*
X104159048Y-82410238D01*
X104159048Y-82105476D01*
X104006667Y-82867381D02*
X104006667Y-83248333D01*
X103778095Y-82791190D02*
X104578095Y-83057857D01*
X103778095Y-83324524D01*
X104578095Y-83743571D02*
X104578095Y-83819762D01*
X104540000Y-83895952D01*
X104501905Y-83934047D01*
X104425714Y-83972143D01*
X104273333Y-84010238D01*
X104082857Y-84010238D01*
X103930476Y-83972143D01*
X103854286Y-83934047D01*
X103816190Y-83895952D01*
X103778095Y-83819762D01*
X103778095Y-83743571D01*
X103816190Y-83667381D01*
X103854286Y-83629285D01*
X103930476Y-83591190D01*
X104082857Y-83553095D01*
X104273333Y-83553095D01*
X104425714Y-83591190D01*
X104501905Y-83629285D01*
X104540000Y-83667381D01*
X104578095Y-83743571D01*
X154654286Y-82562619D02*
X154616190Y-82524524D01*
X154578095Y-82410238D01*
X154578095Y-82334048D01*
X154616190Y-82219762D01*
X154692381Y-82143571D01*
X154768571Y-82105476D01*
X154920952Y-82067381D01*
X155035238Y-82067381D01*
X155187619Y-82105476D01*
X155263810Y-82143571D01*
X155340000Y-82219762D01*
X155378095Y-82334048D01*
X155378095Y-82410238D01*
X155340000Y-82524524D01*
X155301905Y-82562619D01*
X154997143Y-83172143D02*
X154959048Y-83286429D01*
X154920952Y-83324524D01*
X154844762Y-83362619D01*
X154730476Y-83362619D01*
X154654286Y-83324524D01*
X154616190Y-83286429D01*
X154578095Y-83210238D01*
X154578095Y-82905476D01*
X155378095Y-82905476D01*
X155378095Y-83172143D01*
X155340000Y-83248333D01*
X155301905Y-83286429D01*
X155225714Y-83324524D01*
X155149524Y-83324524D01*
X155073333Y-83286429D01*
X155035238Y-83248333D01*
X154997143Y-83172143D01*
X154997143Y-82905476D01*
X155301905Y-83667381D02*
X155340000Y-83705476D01*
X155378095Y-83781667D01*
X155378095Y-83972143D01*
X155340000Y-84048333D01*
X155301905Y-84086429D01*
X155225714Y-84124524D01*
X155149524Y-84124524D01*
X155035238Y-84086429D01*
X154578095Y-83629286D01*
X154578095Y-84124524D01*
X152114286Y-82562619D02*
X152076190Y-82524524D01*
X152038095Y-82410238D01*
X152038095Y-82334048D01*
X152076190Y-82219762D01*
X152152381Y-82143571D01*
X152228571Y-82105476D01*
X152380952Y-82067381D01*
X152495238Y-82067381D01*
X152647619Y-82105476D01*
X152723810Y-82143571D01*
X152800000Y-82219762D01*
X152838095Y-82334048D01*
X152838095Y-82410238D01*
X152800000Y-82524524D01*
X152761905Y-82562619D01*
X152457143Y-83172143D02*
X152419048Y-83286429D01*
X152380952Y-83324524D01*
X152304762Y-83362619D01*
X152190476Y-83362619D01*
X152114286Y-83324524D01*
X152076190Y-83286429D01*
X152038095Y-83210238D01*
X152038095Y-82905476D01*
X152838095Y-82905476D01*
X152838095Y-83172143D01*
X152800000Y-83248333D01*
X152761905Y-83286429D01*
X152685714Y-83324524D01*
X152609524Y-83324524D01*
X152533333Y-83286429D01*
X152495238Y-83248333D01*
X152457143Y-83172143D01*
X152457143Y-82905476D01*
X152038095Y-84124524D02*
X152038095Y-83667381D01*
X152038095Y-83895952D02*
X152838095Y-83895952D01*
X152723810Y-83819762D01*
X152647619Y-83743571D01*
X152609524Y-83667381D01*
X149498095Y-82105476D02*
X150298095Y-82105476D01*
X150298095Y-82410238D01*
X150260000Y-82486429D01*
X150221905Y-82524524D01*
X150145714Y-82562619D01*
X150031429Y-82562619D01*
X149955238Y-82524524D01*
X149917143Y-82486429D01*
X149879048Y-82410238D01*
X149879048Y-82105476D01*
X149917143Y-83172143D02*
X149879048Y-83286429D01*
X149840952Y-83324524D01*
X149764762Y-83362619D01*
X149650476Y-83362619D01*
X149574286Y-83324524D01*
X149536190Y-83286429D01*
X149498095Y-83210238D01*
X149498095Y-82905476D01*
X150298095Y-82905476D01*
X150298095Y-83172143D01*
X150260000Y-83248333D01*
X150221905Y-83286429D01*
X150145714Y-83324524D01*
X150069524Y-83324524D01*
X149993333Y-83286429D01*
X149955238Y-83248333D01*
X149917143Y-83172143D01*
X149917143Y-82905476D01*
X150298095Y-83629286D02*
X150298095Y-84162619D01*
X149498095Y-83819762D01*
X146958095Y-82105476D02*
X147758095Y-82105476D01*
X147758095Y-82410238D01*
X147720000Y-82486429D01*
X147681905Y-82524524D01*
X147605714Y-82562619D01*
X147491429Y-82562619D01*
X147415238Y-82524524D01*
X147377143Y-82486429D01*
X147339048Y-82410238D01*
X147339048Y-82105476D01*
X147377143Y-83172143D02*
X147339048Y-83286429D01*
X147300952Y-83324524D01*
X147224762Y-83362619D01*
X147110476Y-83362619D01*
X147034286Y-83324524D01*
X146996190Y-83286429D01*
X146958095Y-83210238D01*
X146958095Y-82905476D01*
X147758095Y-82905476D01*
X147758095Y-83172143D01*
X147720000Y-83248333D01*
X147681905Y-83286429D01*
X147605714Y-83324524D01*
X147529524Y-83324524D01*
X147453333Y-83286429D01*
X147415238Y-83248333D01*
X147377143Y-83172143D01*
X147377143Y-82905476D01*
X147758095Y-84048333D02*
X147758095Y-83895952D01*
X147720000Y-83819762D01*
X147681905Y-83781667D01*
X147567619Y-83705476D01*
X147415238Y-83667381D01*
X147110476Y-83667381D01*
X147034286Y-83705476D01*
X146996190Y-83743571D01*
X146958095Y-83819762D01*
X146958095Y-83972143D01*
X146996190Y-84048333D01*
X147034286Y-84086429D01*
X147110476Y-84124524D01*
X147300952Y-84124524D01*
X147377143Y-84086429D01*
X147415238Y-84048333D01*
X147453333Y-83972143D01*
X147453333Y-83819762D01*
X147415238Y-83743571D01*
X147377143Y-83705476D01*
X147300952Y-83667381D01*
X144418095Y-82105476D02*
X145218095Y-82105476D01*
X145218095Y-82410238D01*
X145180000Y-82486429D01*
X145141905Y-82524524D01*
X145065714Y-82562619D01*
X144951429Y-82562619D01*
X144875238Y-82524524D01*
X144837143Y-82486429D01*
X144799048Y-82410238D01*
X144799048Y-82105476D01*
X144837143Y-83172143D02*
X144799048Y-83286429D01*
X144760952Y-83324524D01*
X144684762Y-83362619D01*
X144570476Y-83362619D01*
X144494286Y-83324524D01*
X144456190Y-83286429D01*
X144418095Y-83210238D01*
X144418095Y-82905476D01*
X145218095Y-82905476D01*
X145218095Y-83172143D01*
X145180000Y-83248333D01*
X145141905Y-83286429D01*
X145065714Y-83324524D01*
X144989524Y-83324524D01*
X144913333Y-83286429D01*
X144875238Y-83248333D01*
X144837143Y-83172143D01*
X144837143Y-82905476D01*
X145218095Y-84086429D02*
X145218095Y-83705476D01*
X144837143Y-83667381D01*
X144875238Y-83705476D01*
X144913333Y-83781667D01*
X144913333Y-83972143D01*
X144875238Y-84048333D01*
X144837143Y-84086429D01*
X144760952Y-84124524D01*
X144570476Y-84124524D01*
X144494286Y-84086429D01*
X144456190Y-84048333D01*
X144418095Y-83972143D01*
X144418095Y-83781667D01*
X144456190Y-83705476D01*
X144494286Y-83667381D01*
X141878095Y-82105476D02*
X142678095Y-82105476D01*
X142678095Y-82410238D01*
X142640000Y-82486429D01*
X142601905Y-82524524D01*
X142525714Y-82562619D01*
X142411429Y-82562619D01*
X142335238Y-82524524D01*
X142297143Y-82486429D01*
X142259048Y-82410238D01*
X142259048Y-82105476D01*
X142297143Y-83172143D02*
X142259048Y-83286429D01*
X142220952Y-83324524D01*
X142144762Y-83362619D01*
X142030476Y-83362619D01*
X141954286Y-83324524D01*
X141916190Y-83286429D01*
X141878095Y-83210238D01*
X141878095Y-82905476D01*
X142678095Y-82905476D01*
X142678095Y-83172143D01*
X142640000Y-83248333D01*
X142601905Y-83286429D01*
X142525714Y-83324524D01*
X142449524Y-83324524D01*
X142373333Y-83286429D01*
X142335238Y-83248333D01*
X142297143Y-83172143D01*
X142297143Y-82905476D01*
X142411429Y-84048333D02*
X141878095Y-84048333D01*
X142716190Y-83857857D02*
X142144762Y-83667381D01*
X142144762Y-84162619D01*
X139338095Y-82105476D02*
X140138095Y-82105476D01*
X140138095Y-82410238D01*
X140100000Y-82486429D01*
X140061905Y-82524524D01*
X139985714Y-82562619D01*
X139871429Y-82562619D01*
X139795238Y-82524524D01*
X139757143Y-82486429D01*
X139719048Y-82410238D01*
X139719048Y-82105476D01*
X139757143Y-83172143D02*
X139719048Y-83286429D01*
X139680952Y-83324524D01*
X139604762Y-83362619D01*
X139490476Y-83362619D01*
X139414286Y-83324524D01*
X139376190Y-83286429D01*
X139338095Y-83210238D01*
X139338095Y-82905476D01*
X140138095Y-82905476D01*
X140138095Y-83172143D01*
X140100000Y-83248333D01*
X140061905Y-83286429D01*
X139985714Y-83324524D01*
X139909524Y-83324524D01*
X139833333Y-83286429D01*
X139795238Y-83248333D01*
X139757143Y-83172143D01*
X139757143Y-82905476D01*
X140138095Y-83629286D02*
X140138095Y-84124524D01*
X139833333Y-83857857D01*
X139833333Y-83972143D01*
X139795238Y-84048333D01*
X139757143Y-84086429D01*
X139680952Y-84124524D01*
X139490476Y-84124524D01*
X139414286Y-84086429D01*
X139376190Y-84048333D01*
X139338095Y-83972143D01*
X139338095Y-83743571D01*
X139376190Y-83667381D01*
X139414286Y-83629286D01*
X136798095Y-82105476D02*
X137598095Y-82105476D01*
X137598095Y-82410238D01*
X137560000Y-82486429D01*
X137521905Y-82524524D01*
X137445714Y-82562619D01*
X137331429Y-82562619D01*
X137255238Y-82524524D01*
X137217143Y-82486429D01*
X137179048Y-82410238D01*
X137179048Y-82105476D01*
X137217143Y-83172143D02*
X137179048Y-83286429D01*
X137140952Y-83324524D01*
X137064762Y-83362619D01*
X136950476Y-83362619D01*
X136874286Y-83324524D01*
X136836190Y-83286429D01*
X136798095Y-83210238D01*
X136798095Y-82905476D01*
X137598095Y-82905476D01*
X137598095Y-83172143D01*
X137560000Y-83248333D01*
X137521905Y-83286429D01*
X137445714Y-83324524D01*
X137369524Y-83324524D01*
X137293333Y-83286429D01*
X137255238Y-83248333D01*
X137217143Y-83172143D01*
X137217143Y-82905476D01*
X137521905Y-83667381D02*
X137560000Y-83705476D01*
X137598095Y-83781667D01*
X137598095Y-83972143D01*
X137560000Y-84048333D01*
X137521905Y-84086429D01*
X137445714Y-84124524D01*
X137369524Y-84124524D01*
X137255238Y-84086429D01*
X136798095Y-83629286D01*
X136798095Y-84124524D01*
X134258095Y-82105476D02*
X135058095Y-82105476D01*
X135058095Y-82410238D01*
X135020000Y-82486429D01*
X134981905Y-82524524D01*
X134905714Y-82562619D01*
X134791429Y-82562619D01*
X134715238Y-82524524D01*
X134677143Y-82486429D01*
X134639048Y-82410238D01*
X134639048Y-82105476D01*
X134677143Y-83172143D02*
X134639048Y-83286429D01*
X134600952Y-83324524D01*
X134524762Y-83362619D01*
X134410476Y-83362619D01*
X134334286Y-83324524D01*
X134296190Y-83286429D01*
X134258095Y-83210238D01*
X134258095Y-82905476D01*
X135058095Y-82905476D01*
X135058095Y-83172143D01*
X135020000Y-83248333D01*
X134981905Y-83286429D01*
X134905714Y-83324524D01*
X134829524Y-83324524D01*
X134753333Y-83286429D01*
X134715238Y-83248333D01*
X134677143Y-83172143D01*
X134677143Y-82905476D01*
X134258095Y-84124524D02*
X134258095Y-83667381D01*
X134258095Y-83895952D02*
X135058095Y-83895952D01*
X134943810Y-83819762D01*
X134867619Y-83743571D01*
X134829524Y-83667381D01*
X131718095Y-82105476D02*
X132518095Y-82105476D01*
X132518095Y-82410238D01*
X132480000Y-82486429D01*
X132441905Y-82524524D01*
X132365714Y-82562619D01*
X132251429Y-82562619D01*
X132175238Y-82524524D01*
X132137143Y-82486429D01*
X132099048Y-82410238D01*
X132099048Y-82105476D01*
X132137143Y-83172143D02*
X132099048Y-83286429D01*
X132060952Y-83324524D01*
X131984762Y-83362619D01*
X131870476Y-83362619D01*
X131794286Y-83324524D01*
X131756190Y-83286429D01*
X131718095Y-83210238D01*
X131718095Y-82905476D01*
X132518095Y-82905476D01*
X132518095Y-83172143D01*
X132480000Y-83248333D01*
X132441905Y-83286429D01*
X132365714Y-83324524D01*
X132289524Y-83324524D01*
X132213333Y-83286429D01*
X132175238Y-83248333D01*
X132137143Y-83172143D01*
X132137143Y-82905476D01*
X132518095Y-83857857D02*
X132518095Y-83934048D01*
X132480000Y-84010238D01*
X132441905Y-84048333D01*
X132365714Y-84086429D01*
X132213333Y-84124524D01*
X132022857Y-84124524D01*
X131870476Y-84086429D01*
X131794286Y-84048333D01*
X131756190Y-84010238D01*
X131718095Y-83934048D01*
X131718095Y-83857857D01*
X131756190Y-83781667D01*
X131794286Y-83743571D01*
X131870476Y-83705476D01*
X132022857Y-83667381D01*
X132213333Y-83667381D01*
X132365714Y-83705476D01*
X132441905Y-83743571D01*
X132480000Y-83781667D01*
X132518095Y-83857857D01*
D11*
X147772381Y-143271905D02*
X146772381Y-143271905D01*
X146772381Y-142890952D01*
X146820000Y-142795714D01*
X146867619Y-142748095D01*
X146962857Y-142700476D01*
X147105714Y-142700476D01*
X147200952Y-142748095D01*
X147248571Y-142795714D01*
X147296190Y-142890952D01*
X147296190Y-143271905D01*
X147772381Y-142271905D02*
X146772381Y-142271905D01*
X147248571Y-142271905D02*
X147248571Y-141700476D01*
X147772381Y-141700476D02*
X146772381Y-141700476D01*
X147772381Y-141224286D02*
X146772381Y-141224286D01*
X146772381Y-140557620D02*
X146772381Y-140462381D01*
X146820000Y-140367143D01*
X146867619Y-140319524D01*
X146962857Y-140271905D01*
X147153333Y-140224286D01*
X147391429Y-140224286D01*
X147581905Y-140271905D01*
X147677143Y-140319524D01*
X147724762Y-140367143D01*
X147772381Y-140462381D01*
X147772381Y-140557620D01*
X147724762Y-140652858D01*
X147677143Y-140700477D01*
X147581905Y-140748096D01*
X147391429Y-140795715D01*
X147153333Y-140795715D01*
X146962857Y-140748096D01*
X146867619Y-140700477D01*
X146820000Y-140652858D01*
X146772381Y-140557620D01*
X193206667Y-143319524D02*
X193206667Y-142843333D01*
X193492381Y-143414762D02*
X192492381Y-143081429D01*
X193492381Y-142748095D01*
X193492381Y-141890952D02*
X193492381Y-142462381D01*
X193492381Y-142176667D02*
X192492381Y-142176667D01*
X192635238Y-142271905D01*
X192730476Y-142367143D01*
X192778095Y-142462381D01*
X192492381Y-141557619D02*
X192492381Y-140938571D01*
X192873333Y-141271905D01*
X192873333Y-141129047D01*
X192920952Y-141033809D01*
X192968571Y-140986190D01*
X193063810Y-140938571D01*
X193301905Y-140938571D01*
X193397143Y-140986190D01*
X193444762Y-141033809D01*
X193492381Y-141129047D01*
X193492381Y-141414762D01*
X193444762Y-141510000D01*
X193397143Y-141557619D01*
X190666667Y-143319524D02*
X190666667Y-142843333D01*
X190952381Y-143414762D02*
X189952381Y-143081429D01*
X190952381Y-142748095D01*
X190952381Y-141890952D02*
X190952381Y-142462381D01*
X190952381Y-142176667D02*
X189952381Y-142176667D01*
X190095238Y-142271905D01*
X190190476Y-142367143D01*
X190238095Y-142462381D01*
X190047619Y-141510000D02*
X190000000Y-141462381D01*
X189952381Y-141367143D01*
X189952381Y-141129047D01*
X190000000Y-141033809D01*
X190047619Y-140986190D01*
X190142857Y-140938571D01*
X190238095Y-140938571D01*
X190380952Y-140986190D01*
X190952381Y-141557619D01*
X190952381Y-140938571D01*
X188126667Y-143319524D02*
X188126667Y-142843333D01*
X188412381Y-143414762D02*
X187412381Y-143081429D01*
X188412381Y-142748095D01*
X188412381Y-141890952D02*
X188412381Y-142462381D01*
X188412381Y-142176667D02*
X187412381Y-142176667D01*
X187555238Y-142271905D01*
X187650476Y-142367143D01*
X187698095Y-142462381D01*
X188412381Y-140938571D02*
X188412381Y-141510000D01*
X188412381Y-141224286D02*
X187412381Y-141224286D01*
X187555238Y-141319524D01*
X187650476Y-141414762D01*
X187698095Y-141510000D01*
X185586667Y-143319524D02*
X185586667Y-142843333D01*
X185872381Y-143414762D02*
X184872381Y-143081429D01*
X185872381Y-142748095D01*
X185872381Y-141890952D02*
X185872381Y-142462381D01*
X185872381Y-142176667D02*
X184872381Y-142176667D01*
X185015238Y-142271905D01*
X185110476Y-142367143D01*
X185158095Y-142462381D01*
X184872381Y-141271905D02*
X184872381Y-141176666D01*
X184920000Y-141081428D01*
X184967619Y-141033809D01*
X185062857Y-140986190D01*
X185253333Y-140938571D01*
X185491429Y-140938571D01*
X185681905Y-140986190D01*
X185777143Y-141033809D01*
X185824762Y-141081428D01*
X185872381Y-141176666D01*
X185872381Y-141271905D01*
X185824762Y-141367143D01*
X185777143Y-141414762D01*
X185681905Y-141462381D01*
X185491429Y-141510000D01*
X185253333Y-141510000D01*
X185062857Y-141462381D01*
X184967619Y-141414762D01*
X184920000Y-141367143D01*
X184872381Y-141271905D01*
X183046667Y-143319524D02*
X183046667Y-142843333D01*
X183332381Y-143414762D02*
X182332381Y-143081429D01*
X183332381Y-142748095D01*
X183332381Y-142367143D02*
X183332381Y-142176667D01*
X183284762Y-142081428D01*
X183237143Y-142033809D01*
X183094286Y-141938571D01*
X182903810Y-141890952D01*
X182522857Y-141890952D01*
X182427619Y-141938571D01*
X182380000Y-141986190D01*
X182332381Y-142081428D01*
X182332381Y-142271905D01*
X182380000Y-142367143D01*
X182427619Y-142414762D01*
X182522857Y-142462381D01*
X182760952Y-142462381D01*
X182856190Y-142414762D01*
X182903810Y-142367143D01*
X182951429Y-142271905D01*
X182951429Y-142081428D01*
X182903810Y-141986190D01*
X182856190Y-141938571D01*
X182760952Y-141890952D01*
X180506667Y-143319524D02*
X180506667Y-142843333D01*
X180792381Y-143414762D02*
X179792381Y-143081429D01*
X180792381Y-142748095D01*
X180220952Y-142271905D02*
X180173333Y-142367143D01*
X180125714Y-142414762D01*
X180030476Y-142462381D01*
X179982857Y-142462381D01*
X179887619Y-142414762D01*
X179840000Y-142367143D01*
X179792381Y-142271905D01*
X179792381Y-142081428D01*
X179840000Y-141986190D01*
X179887619Y-141938571D01*
X179982857Y-141890952D01*
X180030476Y-141890952D01*
X180125714Y-141938571D01*
X180173333Y-141986190D01*
X180220952Y-142081428D01*
X180220952Y-142271905D01*
X180268571Y-142367143D01*
X180316190Y-142414762D01*
X180411429Y-142462381D01*
X180601905Y-142462381D01*
X180697143Y-142414762D01*
X180744762Y-142367143D01*
X180792381Y-142271905D01*
X180792381Y-142081428D01*
X180744762Y-141986190D01*
X180697143Y-141938571D01*
X180601905Y-141890952D01*
X180411429Y-141890952D01*
X180316190Y-141938571D01*
X180268571Y-141986190D01*
X180220952Y-142081428D01*
X177966667Y-143319524D02*
X177966667Y-142843333D01*
X178252381Y-143414762D02*
X177252381Y-143081429D01*
X178252381Y-142748095D01*
X177252381Y-142510000D02*
X177252381Y-141843333D01*
X178252381Y-142271905D01*
X175426667Y-143319524D02*
X175426667Y-142843333D01*
X175712381Y-143414762D02*
X174712381Y-143081429D01*
X175712381Y-142748095D01*
X174712381Y-141986190D02*
X174712381Y-142176667D01*
X174760000Y-142271905D01*
X174807619Y-142319524D01*
X174950476Y-142414762D01*
X175140952Y-142462381D01*
X175521905Y-142462381D01*
X175617143Y-142414762D01*
X175664762Y-142367143D01*
X175712381Y-142271905D01*
X175712381Y-142081428D01*
X175664762Y-141986190D01*
X175617143Y-141938571D01*
X175521905Y-141890952D01*
X175283810Y-141890952D01*
X175188571Y-141938571D01*
X175140952Y-141986190D01*
X175093333Y-142081428D01*
X175093333Y-142271905D01*
X175140952Y-142367143D01*
X175188571Y-142414762D01*
X175283810Y-142462381D01*
X172886667Y-143319524D02*
X172886667Y-142843333D01*
X173172381Y-143414762D02*
X172172381Y-143081429D01*
X173172381Y-142748095D01*
X172172381Y-141938571D02*
X172172381Y-142414762D01*
X172648571Y-142462381D01*
X172600952Y-142414762D01*
X172553333Y-142319524D01*
X172553333Y-142081428D01*
X172600952Y-141986190D01*
X172648571Y-141938571D01*
X172743810Y-141890952D01*
X172981905Y-141890952D01*
X173077143Y-141938571D01*
X173124762Y-141986190D01*
X173172381Y-142081428D01*
X173172381Y-142319524D01*
X173124762Y-142414762D01*
X173077143Y-142462381D01*
X170346667Y-143319524D02*
X170346667Y-142843333D01*
X170632381Y-143414762D02*
X169632381Y-143081429D01*
X170632381Y-142748095D01*
X169965714Y-141986190D02*
X170632381Y-141986190D01*
X169584762Y-142224286D02*
X170299048Y-142462381D01*
X170299048Y-141843333D01*
X167806667Y-143319524D02*
X167806667Y-142843333D01*
X168092381Y-143414762D02*
X167092381Y-143081429D01*
X168092381Y-142748095D01*
X167092381Y-142510000D02*
X167092381Y-141890952D01*
X167473333Y-142224286D01*
X167473333Y-142081428D01*
X167520952Y-141986190D01*
X167568571Y-141938571D01*
X167663810Y-141890952D01*
X167901905Y-141890952D01*
X167997143Y-141938571D01*
X168044762Y-141986190D01*
X168092381Y-142081428D01*
X168092381Y-142367143D01*
X168044762Y-142462381D01*
X167997143Y-142510000D01*
X165266667Y-143319524D02*
X165266667Y-142843333D01*
X165552381Y-143414762D02*
X164552381Y-143081429D01*
X165552381Y-142748095D01*
X164647619Y-142462381D02*
X164600000Y-142414762D01*
X164552381Y-142319524D01*
X164552381Y-142081428D01*
X164600000Y-141986190D01*
X164647619Y-141938571D01*
X164742857Y-141890952D01*
X164838095Y-141890952D01*
X164980952Y-141938571D01*
X165552381Y-142510000D01*
X165552381Y-141890952D01*
X162726667Y-143319524D02*
X162726667Y-142843333D01*
X163012381Y-143414762D02*
X162012381Y-143081429D01*
X163012381Y-142748095D01*
X163012381Y-141890952D02*
X163012381Y-142462381D01*
X163012381Y-142176667D02*
X162012381Y-142176667D01*
X162155238Y-142271905D01*
X162250476Y-142367143D01*
X162298095Y-142462381D01*
X160186667Y-143319524D02*
X160186667Y-142843333D01*
X160472381Y-143414762D02*
X159472381Y-143081429D01*
X160472381Y-142748095D01*
X159472381Y-142224286D02*
X159472381Y-142129047D01*
X159520000Y-142033809D01*
X159567619Y-141986190D01*
X159662857Y-141938571D01*
X159853333Y-141890952D01*
X160091429Y-141890952D01*
X160281905Y-141938571D01*
X160377143Y-141986190D01*
X160424762Y-142033809D01*
X160472381Y-142129047D01*
X160472381Y-142224286D01*
X160424762Y-142319524D01*
X160377143Y-142367143D01*
X160281905Y-142414762D01*
X160091429Y-142462381D01*
X159853333Y-142462381D01*
X159662857Y-142414762D01*
X159567619Y-142367143D01*
X159520000Y-142319524D01*
X159472381Y-142224286D01*
X156980000Y-142748095D02*
X156932381Y-142843333D01*
X156932381Y-142986190D01*
X156980000Y-143129048D01*
X157075238Y-143224286D01*
X157170476Y-143271905D01*
X157360952Y-143319524D01*
X157503810Y-143319524D01*
X157694286Y-143271905D01*
X157789524Y-143224286D01*
X157884762Y-143129048D01*
X157932381Y-142986190D01*
X157932381Y-142890952D01*
X157884762Y-142748095D01*
X157837143Y-142700476D01*
X157503810Y-142700476D01*
X157503810Y-142890952D01*
X157932381Y-142271905D02*
X156932381Y-142271905D01*
X157932381Y-141700476D01*
X156932381Y-141700476D01*
X157932381Y-141224286D02*
X156932381Y-141224286D01*
X156932381Y-140986191D01*
X156980000Y-140843333D01*
X157075238Y-140748095D01*
X157170476Y-140700476D01*
X157360952Y-140652857D01*
X157503810Y-140652857D01*
X157694286Y-140700476D01*
X157789524Y-140748095D01*
X157884762Y-140843333D01*
X157932381Y-140986191D01*
X157932381Y-141224286D01*
X154392381Y-143414762D02*
X155392381Y-143081429D01*
X154392381Y-142748095D01*
X155297143Y-141843333D02*
X155344762Y-141890952D01*
X155392381Y-142033809D01*
X155392381Y-142129047D01*
X155344762Y-142271905D01*
X155249524Y-142367143D01*
X155154286Y-142414762D01*
X154963810Y-142462381D01*
X154820952Y-142462381D01*
X154630476Y-142414762D01*
X154535238Y-142367143D01*
X154440000Y-142271905D01*
X154392381Y-142129047D01*
X154392381Y-142033809D01*
X154440000Y-141890952D01*
X154487619Y-141843333D01*
X155297143Y-140843333D02*
X155344762Y-140890952D01*
X155392381Y-141033809D01*
X155392381Y-141129047D01*
X155344762Y-141271905D01*
X155249524Y-141367143D01*
X155154286Y-141414762D01*
X154963810Y-141462381D01*
X154820952Y-141462381D01*
X154630476Y-141414762D01*
X154535238Y-141367143D01*
X154440000Y-141271905D01*
X154392381Y-141129047D01*
X154392381Y-141033809D01*
X154440000Y-140890952D01*
X154487619Y-140843333D01*
X152852381Y-143271905D02*
X151852381Y-143271905D01*
X151852381Y-142890952D01*
X151900000Y-142795714D01*
X151947619Y-142748095D01*
X152042857Y-142700476D01*
X152185714Y-142700476D01*
X152280952Y-142748095D01*
X152328571Y-142795714D01*
X152376190Y-142890952D01*
X152376190Y-143271905D01*
X152852381Y-142271905D02*
X151852381Y-142271905D01*
X152328571Y-142271905D02*
X152328571Y-141700476D01*
X152852381Y-141700476D02*
X151852381Y-141700476D01*
X152852381Y-141224286D02*
X151852381Y-141224286D01*
X151947619Y-140795715D02*
X151900000Y-140748096D01*
X151852381Y-140652858D01*
X151852381Y-140414762D01*
X151900000Y-140319524D01*
X151947619Y-140271905D01*
X152042857Y-140224286D01*
X152138095Y-140224286D01*
X152280952Y-140271905D01*
X152852381Y-140843334D01*
X152852381Y-140224286D01*
X150312381Y-142700476D02*
X149836190Y-143033810D01*
X150312381Y-143271905D02*
X149312381Y-143271905D01*
X149312381Y-142890952D01*
X149360000Y-142795714D01*
X149407619Y-142748095D01*
X149502857Y-142700476D01*
X149645714Y-142700476D01*
X149740952Y-142748095D01*
X149788571Y-142795714D01*
X149836190Y-142890952D01*
X149836190Y-143271905D01*
X149788571Y-142271905D02*
X149788571Y-141938571D01*
X150312381Y-141795714D02*
X150312381Y-142271905D01*
X149312381Y-142271905D01*
X149312381Y-141795714D01*
X150264762Y-141414762D02*
X150312381Y-141271905D01*
X150312381Y-141033809D01*
X150264762Y-140938571D01*
X150217143Y-140890952D01*
X150121905Y-140843333D01*
X150026667Y-140843333D01*
X149931429Y-140890952D01*
X149883810Y-140938571D01*
X149836190Y-141033809D01*
X149788571Y-141224286D01*
X149740952Y-141319524D01*
X149693333Y-141367143D01*
X149598095Y-141414762D01*
X149502857Y-141414762D01*
X149407619Y-141367143D01*
X149360000Y-141319524D01*
X149312381Y-141224286D01*
X149312381Y-140986190D01*
X149360000Y-140843333D01*
X149788571Y-140414762D02*
X149788571Y-140081428D01*
X150312381Y-139938571D02*
X150312381Y-140414762D01*
X149312381Y-140414762D01*
X149312381Y-139938571D01*
X149312381Y-139652857D02*
X149312381Y-139081428D01*
X150312381Y-139367143D02*
X149312381Y-139367143D01*
X149140000Y-143510000D02*
X149140000Y-138986190D01*
X145232381Y-143271905D02*
X144232381Y-143271905D01*
X145232381Y-142224286D02*
X144756190Y-142557620D01*
X145232381Y-142795715D02*
X144232381Y-142795715D01*
X144232381Y-142414762D01*
X144280000Y-142319524D01*
X144327619Y-142271905D01*
X144422857Y-142224286D01*
X144565714Y-142224286D01*
X144660952Y-142271905D01*
X144708571Y-142319524D01*
X144756190Y-142414762D01*
X144756190Y-142795715D01*
X145327619Y-141129048D02*
X145280000Y-141224286D01*
X145184762Y-141319524D01*
X145041905Y-141462381D01*
X144994286Y-141557620D01*
X144994286Y-141652858D01*
X145232381Y-141605239D02*
X145184762Y-141700477D01*
X145089524Y-141795715D01*
X144899048Y-141843334D01*
X144565714Y-141843334D01*
X144375238Y-141795715D01*
X144280000Y-141700477D01*
X144232381Y-141605239D01*
X144232381Y-141414762D01*
X144280000Y-141319524D01*
X144375238Y-141224286D01*
X144565714Y-141176667D01*
X144899048Y-141176667D01*
X145089524Y-141224286D01*
X145184762Y-141319524D01*
X145232381Y-141414762D01*
X145232381Y-141605239D01*
X144060000Y-143510000D02*
X144060000Y-140986191D01*
X142692381Y-143271905D02*
X141692381Y-143271905D01*
X142692381Y-142700476D01*
X141692381Y-142700476D01*
X142692381Y-142224286D02*
X141692381Y-142224286D01*
X142406667Y-141890952D01*
X141692381Y-141557619D01*
X142692381Y-141557619D01*
X142692381Y-141081429D02*
X141692381Y-141081429D01*
X141520000Y-143510000D02*
X141520000Y-140843334D01*
X140152381Y-142700476D02*
X139676190Y-143033810D01*
X140152381Y-143271905D02*
X139152381Y-143271905D01*
X139152381Y-142890952D01*
X139200000Y-142795714D01*
X139247619Y-142748095D01*
X139342857Y-142700476D01*
X139485714Y-142700476D01*
X139580952Y-142748095D01*
X139628571Y-142795714D01*
X139676190Y-142890952D01*
X139676190Y-143271905D01*
X139104762Y-141557619D02*
X140390476Y-142414762D01*
X139152381Y-141319524D02*
X140152381Y-141081429D01*
X139438095Y-140890952D01*
X140152381Y-140700476D01*
X139152381Y-140462381D01*
X138980000Y-141462381D02*
X138980000Y-140319524D01*
X137612381Y-142700476D02*
X137136190Y-143033810D01*
X137612381Y-143271905D02*
X136612381Y-143271905D01*
X136612381Y-142890952D01*
X136660000Y-142795714D01*
X136707619Y-142748095D01*
X136802857Y-142700476D01*
X136945714Y-142700476D01*
X137040952Y-142748095D01*
X137088571Y-142795714D01*
X137136190Y-142890952D01*
X137136190Y-143271905D01*
X137088571Y-142271905D02*
X137088571Y-141938571D01*
X137612381Y-141795714D02*
X137612381Y-142271905D01*
X136612381Y-142271905D01*
X136612381Y-141795714D01*
X137326667Y-141414762D02*
X137326667Y-140938571D01*
X137612381Y-141510000D02*
X136612381Y-141176667D01*
X137612381Y-140843333D01*
X137612381Y-140510000D02*
X136612381Y-140510000D01*
X136612381Y-140271905D01*
X136660000Y-140129047D01*
X136755238Y-140033809D01*
X136850476Y-139986190D01*
X137040952Y-139938571D01*
X137183810Y-139938571D01*
X137374286Y-139986190D01*
X137469524Y-140033809D01*
X137564762Y-140129047D01*
X137612381Y-140271905D01*
X137612381Y-140510000D01*
X137136190Y-139319524D02*
X137612381Y-139319524D01*
X136612381Y-139652857D02*
X137136190Y-139319524D01*
X136612381Y-138986190D01*
X135024762Y-143319524D02*
X135072381Y-143176667D01*
X135072381Y-142938571D01*
X135024762Y-142843333D01*
X134977143Y-142795714D01*
X134881905Y-142748095D01*
X134786667Y-142748095D01*
X134691429Y-142795714D01*
X134643810Y-142843333D01*
X134596190Y-142938571D01*
X134548571Y-143129048D01*
X134500952Y-143224286D01*
X134453333Y-143271905D01*
X134358095Y-143319524D01*
X134262857Y-143319524D01*
X134167619Y-143271905D01*
X134120000Y-143224286D01*
X134072381Y-143129048D01*
X134072381Y-142890952D01*
X134120000Y-142748095D01*
X134596190Y-142129048D02*
X135072381Y-142129048D01*
X134072381Y-142462381D02*
X134596190Y-142129048D01*
X134072381Y-141795714D01*
X135072381Y-141462381D02*
X134072381Y-141462381D01*
X135072381Y-140890952D01*
X134072381Y-140890952D01*
X134977143Y-139843333D02*
X135024762Y-139890952D01*
X135072381Y-140033809D01*
X135072381Y-140129047D01*
X135024762Y-140271905D01*
X134929524Y-140367143D01*
X134834286Y-140414762D01*
X134643810Y-140462381D01*
X134500952Y-140462381D01*
X134310476Y-140414762D01*
X134215238Y-140367143D01*
X134120000Y-140271905D01*
X134072381Y-140129047D01*
X134072381Y-140033809D01*
X134120000Y-139890952D01*
X134167619Y-139843333D01*
X132532381Y-143271905D02*
X131532381Y-143271905D01*
X131532381Y-143033810D01*
X131580000Y-142890952D01*
X131675238Y-142795714D01*
X131770476Y-142748095D01*
X131960952Y-142700476D01*
X132103810Y-142700476D01*
X132294286Y-142748095D01*
X132389524Y-142795714D01*
X132484762Y-142890952D01*
X132532381Y-143033810D01*
X132532381Y-143271905D01*
X131532381Y-142081429D02*
X131532381Y-141986190D01*
X131580000Y-141890952D01*
X131627619Y-141843333D01*
X131722857Y-141795714D01*
X131913333Y-141748095D01*
X132151429Y-141748095D01*
X132341905Y-141795714D01*
X132437143Y-141843333D01*
X132484762Y-141890952D01*
X132532381Y-141986190D01*
X132532381Y-142081429D01*
X132484762Y-142176667D01*
X132437143Y-142224286D01*
X132341905Y-142271905D01*
X132151429Y-142319524D01*
X131913333Y-142319524D01*
X131722857Y-142271905D01*
X131627619Y-142224286D01*
X131580000Y-142176667D01*
X131532381Y-142081429D01*
X129992381Y-143271905D02*
X128992381Y-143271905D01*
X128992381Y-143033810D01*
X129040000Y-142890952D01*
X129135238Y-142795714D01*
X129230476Y-142748095D01*
X129420952Y-142700476D01*
X129563810Y-142700476D01*
X129754286Y-142748095D01*
X129849524Y-142795714D01*
X129944762Y-142890952D01*
X129992381Y-143033810D01*
X129992381Y-143271905D01*
X129992381Y-141748095D02*
X129992381Y-142319524D01*
X129992381Y-142033810D02*
X128992381Y-142033810D01*
X129135238Y-142129048D01*
X129230476Y-142224286D01*
X129278095Y-142319524D01*
X127452381Y-143271905D02*
X126452381Y-143271905D01*
X126452381Y-143033810D01*
X126500000Y-142890952D01*
X126595238Y-142795714D01*
X126690476Y-142748095D01*
X126880952Y-142700476D01*
X127023810Y-142700476D01*
X127214286Y-142748095D01*
X127309524Y-142795714D01*
X127404762Y-142890952D01*
X127452381Y-143033810D01*
X127452381Y-143271905D01*
X126547619Y-142319524D02*
X126500000Y-142271905D01*
X126452381Y-142176667D01*
X126452381Y-141938571D01*
X126500000Y-141843333D01*
X126547619Y-141795714D01*
X126642857Y-141748095D01*
X126738095Y-141748095D01*
X126880952Y-141795714D01*
X127452381Y-142367143D01*
X127452381Y-141748095D01*
X124912381Y-143271905D02*
X123912381Y-143271905D01*
X123912381Y-143033810D01*
X123960000Y-142890952D01*
X124055238Y-142795714D01*
X124150476Y-142748095D01*
X124340952Y-142700476D01*
X124483810Y-142700476D01*
X124674286Y-142748095D01*
X124769524Y-142795714D01*
X124864762Y-142890952D01*
X124912381Y-143033810D01*
X124912381Y-143271905D01*
X123912381Y-142367143D02*
X123912381Y-141748095D01*
X124293333Y-142081429D01*
X124293333Y-141938571D01*
X124340952Y-141843333D01*
X124388571Y-141795714D01*
X124483810Y-141748095D01*
X124721905Y-141748095D01*
X124817143Y-141795714D01*
X124864762Y-141843333D01*
X124912381Y-141938571D01*
X124912381Y-142224286D01*
X124864762Y-142319524D01*
X124817143Y-142367143D01*
X122372381Y-143271905D02*
X121372381Y-143271905D01*
X121372381Y-143033810D01*
X121420000Y-142890952D01*
X121515238Y-142795714D01*
X121610476Y-142748095D01*
X121800952Y-142700476D01*
X121943810Y-142700476D01*
X122134286Y-142748095D01*
X122229524Y-142795714D01*
X122324762Y-142890952D01*
X122372381Y-143033810D01*
X122372381Y-143271905D01*
X121705714Y-141843333D02*
X122372381Y-141843333D01*
X121324762Y-142081429D02*
X122039048Y-142319524D01*
X122039048Y-141700476D01*
X119832381Y-143271905D02*
X118832381Y-143271905D01*
X118832381Y-143033810D01*
X118880000Y-142890952D01*
X118975238Y-142795714D01*
X119070476Y-142748095D01*
X119260952Y-142700476D01*
X119403810Y-142700476D01*
X119594286Y-142748095D01*
X119689524Y-142795714D01*
X119784762Y-142890952D01*
X119832381Y-143033810D01*
X119832381Y-143271905D01*
X118832381Y-141795714D02*
X118832381Y-142271905D01*
X119308571Y-142319524D01*
X119260952Y-142271905D01*
X119213333Y-142176667D01*
X119213333Y-141938571D01*
X119260952Y-141843333D01*
X119308571Y-141795714D01*
X119403810Y-141748095D01*
X119641905Y-141748095D01*
X119737143Y-141795714D01*
X119784762Y-141843333D01*
X119832381Y-141938571D01*
X119832381Y-142176667D01*
X119784762Y-142271905D01*
X119737143Y-142319524D01*
X117292381Y-143271905D02*
X116292381Y-143271905D01*
X116292381Y-143033810D01*
X116340000Y-142890952D01*
X116435238Y-142795714D01*
X116530476Y-142748095D01*
X116720952Y-142700476D01*
X116863810Y-142700476D01*
X117054286Y-142748095D01*
X117149524Y-142795714D01*
X117244762Y-142890952D01*
X117292381Y-143033810D01*
X117292381Y-143271905D01*
X116292381Y-141843333D02*
X116292381Y-142033810D01*
X116340000Y-142129048D01*
X116387619Y-142176667D01*
X116530476Y-142271905D01*
X116720952Y-142319524D01*
X117101905Y-142319524D01*
X117197143Y-142271905D01*
X117244762Y-142224286D01*
X117292381Y-142129048D01*
X117292381Y-141938571D01*
X117244762Y-141843333D01*
X117197143Y-141795714D01*
X117101905Y-141748095D01*
X116863810Y-141748095D01*
X116768571Y-141795714D01*
X116720952Y-141843333D01*
X116673333Y-141938571D01*
X116673333Y-142129048D01*
X116720952Y-142224286D01*
X116768571Y-142271905D01*
X116863810Y-142319524D01*
X114752381Y-143271905D02*
X113752381Y-143271905D01*
X113752381Y-143033810D01*
X113800000Y-142890952D01*
X113895238Y-142795714D01*
X113990476Y-142748095D01*
X114180952Y-142700476D01*
X114323810Y-142700476D01*
X114514286Y-142748095D01*
X114609524Y-142795714D01*
X114704762Y-142890952D01*
X114752381Y-143033810D01*
X114752381Y-143271905D01*
X113752381Y-142367143D02*
X113752381Y-141700476D01*
X114752381Y-142129048D01*
X178110238Y-80430714D02*
X178110238Y-81240238D01*
X178062619Y-81335476D01*
X178015000Y-81383095D01*
X177919761Y-81430714D01*
X177776904Y-81430714D01*
X177681666Y-81383095D01*
X178110238Y-81049762D02*
X178015000Y-81097381D01*
X177824523Y-81097381D01*
X177729285Y-81049762D01*
X177681666Y-81002143D01*
X177634047Y-80906905D01*
X177634047Y-80621190D01*
X177681666Y-80525952D01*
X177729285Y-80478333D01*
X177824523Y-80430714D01*
X178015000Y-80430714D01*
X178110238Y-80478333D01*
X178586428Y-81097381D02*
X178586428Y-80430714D01*
X178586428Y-80097381D02*
X178538809Y-80145000D01*
X178586428Y-80192619D01*
X178634047Y-80145000D01*
X178586428Y-80097381D01*
X178586428Y-80192619D01*
X178919761Y-80430714D02*
X179300713Y-80430714D01*
X179062618Y-80097381D02*
X179062618Y-80954524D01*
X179110237Y-81049762D01*
X179205475Y-81097381D01*
X179300713Y-81097381D01*
X179634047Y-81097381D02*
X179634047Y-80097381D01*
X180062619Y-81097381D02*
X180062619Y-80573571D01*
X180015000Y-80478333D01*
X179919762Y-80430714D01*
X179776904Y-80430714D01*
X179681666Y-80478333D01*
X179634047Y-80525952D01*
X180967381Y-80430714D02*
X180967381Y-81097381D01*
X180538809Y-80430714D02*
X180538809Y-80954524D01*
X180586428Y-81049762D01*
X180681666Y-81097381D01*
X180824524Y-81097381D01*
X180919762Y-81049762D01*
X180967381Y-81002143D01*
X181443571Y-81097381D02*
X181443571Y-80097381D01*
X181443571Y-80478333D02*
X181538809Y-80430714D01*
X181729286Y-80430714D01*
X181824524Y-80478333D01*
X181872143Y-80525952D01*
X181919762Y-80621190D01*
X181919762Y-80906905D01*
X181872143Y-81002143D01*
X181824524Y-81049762D01*
X181729286Y-81097381D01*
X181538809Y-81097381D01*
X181443571Y-81049762D01*
X182348333Y-81002143D02*
X182395952Y-81049762D01*
X182348333Y-81097381D01*
X182300714Y-81049762D01*
X182348333Y-81002143D01*
X182348333Y-81097381D01*
X183253095Y-81049762D02*
X183157857Y-81097381D01*
X182967380Y-81097381D01*
X182872142Y-81049762D01*
X182824523Y-81002143D01*
X182776904Y-80906905D01*
X182776904Y-80621190D01*
X182824523Y-80525952D01*
X182872142Y-80478333D01*
X182967380Y-80430714D01*
X183157857Y-80430714D01*
X183253095Y-80478333D01*
X183824523Y-81097381D02*
X183729285Y-81049762D01*
X183681666Y-81002143D01*
X183634047Y-80906905D01*
X183634047Y-80621190D01*
X183681666Y-80525952D01*
X183729285Y-80478333D01*
X183824523Y-80430714D01*
X183967381Y-80430714D01*
X184062619Y-80478333D01*
X184110238Y-80525952D01*
X184157857Y-80621190D01*
X184157857Y-80906905D01*
X184110238Y-81002143D01*
X184062619Y-81049762D01*
X183967381Y-81097381D01*
X183824523Y-81097381D01*
X184586428Y-81097381D02*
X184586428Y-80430714D01*
X184586428Y-80525952D02*
X184634047Y-80478333D01*
X184729285Y-80430714D01*
X184872143Y-80430714D01*
X184967381Y-80478333D01*
X185015000Y-80573571D01*
X185015000Y-81097381D01*
X185015000Y-80573571D02*
X185062619Y-80478333D01*
X185157857Y-80430714D01*
X185300714Y-80430714D01*
X185395952Y-80478333D01*
X185443571Y-80573571D01*
X185443571Y-81097381D01*
X186634047Y-80049762D02*
X185776904Y-81335476D01*
X186824523Y-80430714D02*
X187205475Y-80430714D01*
X186967380Y-80097381D02*
X186967380Y-80954524D01*
X187014999Y-81049762D01*
X187110237Y-81097381D01*
X187205475Y-81097381D01*
X187919762Y-81049762D02*
X187824524Y-81097381D01*
X187634047Y-81097381D01*
X187538809Y-81049762D01*
X187491190Y-80954524D01*
X187491190Y-80573571D01*
X187538809Y-80478333D01*
X187634047Y-80430714D01*
X187824524Y-80430714D01*
X187919762Y-80478333D01*
X187967381Y-80573571D01*
X187967381Y-80668810D01*
X187491190Y-80764048D01*
X188395952Y-81097381D02*
X188395952Y-80097381D01*
X188395952Y-80478333D02*
X188491190Y-80430714D01*
X188681667Y-80430714D01*
X188776905Y-80478333D01*
X188824524Y-80525952D01*
X188872143Y-80621190D01*
X188872143Y-80906905D01*
X188824524Y-81002143D01*
X188776905Y-81049762D01*
X188681667Y-81097381D01*
X188491190Y-81097381D01*
X188395952Y-81049762D01*
X189443571Y-81097381D02*
X189348333Y-81049762D01*
X189300714Y-80954524D01*
X189300714Y-80097381D01*
X176967380Y-79827381D02*
X176967380Y-78827381D01*
X177348333Y-78827381D01*
X177443571Y-78875000D01*
X177491190Y-78922619D01*
X177538809Y-79017857D01*
X177538809Y-79160714D01*
X177491190Y-79255952D01*
X177443571Y-79303571D01*
X177348333Y-79351190D01*
X176967380Y-79351190D01*
X177967380Y-79827381D02*
X177967380Y-79160714D01*
X177967380Y-79351190D02*
X178014999Y-79255952D01*
X178062618Y-79208333D01*
X178157856Y-79160714D01*
X178253095Y-79160714D01*
X178729285Y-79827381D02*
X178634047Y-79779762D01*
X178586428Y-79732143D01*
X178538809Y-79636905D01*
X178538809Y-79351190D01*
X178586428Y-79255952D01*
X178634047Y-79208333D01*
X178729285Y-79160714D01*
X178872143Y-79160714D01*
X178967381Y-79208333D01*
X179015000Y-79255952D01*
X179062619Y-79351190D01*
X179062619Y-79636905D01*
X179015000Y-79732143D01*
X178967381Y-79779762D01*
X178872143Y-79827381D01*
X178729285Y-79827381D01*
X179348333Y-79160714D02*
X179729285Y-79160714D01*
X179491190Y-78827381D02*
X179491190Y-79684524D01*
X179538809Y-79779762D01*
X179634047Y-79827381D01*
X179729285Y-79827381D01*
X180205476Y-79827381D02*
X180110238Y-79779762D01*
X180062619Y-79732143D01*
X180015000Y-79636905D01*
X180015000Y-79351190D01*
X180062619Y-79255952D01*
X180110238Y-79208333D01*
X180205476Y-79160714D01*
X180348334Y-79160714D01*
X180443572Y-79208333D01*
X180491191Y-79255952D01*
X180538810Y-79351190D01*
X180538810Y-79636905D01*
X180491191Y-79732143D01*
X180443572Y-79779762D01*
X180348334Y-79827381D01*
X180205476Y-79827381D01*
X180824524Y-79160714D02*
X181205476Y-79160714D01*
X180967381Y-78827381D02*
X180967381Y-79684524D01*
X181015000Y-79779762D01*
X181110238Y-79827381D01*
X181205476Y-79827381D01*
X181443572Y-79160714D02*
X181681667Y-79827381D01*
X181919763Y-79160714D02*
X181681667Y-79827381D01*
X181586429Y-80065476D01*
X181538810Y-80113095D01*
X181443572Y-80160714D01*
X182300715Y-79160714D02*
X182300715Y-80160714D01*
X182300715Y-79208333D02*
X182395953Y-79160714D01*
X182586430Y-79160714D01*
X182681668Y-79208333D01*
X182729287Y-79255952D01*
X182776906Y-79351190D01*
X182776906Y-79636905D01*
X182729287Y-79732143D01*
X182681668Y-79779762D01*
X182586430Y-79827381D01*
X182395953Y-79827381D01*
X182300715Y-79779762D01*
X183205477Y-79827381D02*
X183205477Y-79160714D01*
X183205477Y-78827381D02*
X183157858Y-78875000D01*
X183205477Y-78922619D01*
X183253096Y-78875000D01*
X183205477Y-78827381D01*
X183205477Y-78922619D01*
X183681667Y-79160714D02*
X183681667Y-79827381D01*
X183681667Y-79255952D02*
X183729286Y-79208333D01*
X183824524Y-79160714D01*
X183967382Y-79160714D01*
X184062620Y-79208333D01*
X184110239Y-79303571D01*
X184110239Y-79827381D01*
X185015001Y-79160714D02*
X185015001Y-79970238D01*
X184967382Y-80065476D01*
X184919763Y-80113095D01*
X184824524Y-80160714D01*
X184681667Y-80160714D01*
X184586429Y-80113095D01*
X185015001Y-79779762D02*
X184919763Y-79827381D01*
X184729286Y-79827381D01*
X184634048Y-79779762D01*
X184586429Y-79732143D01*
X184538810Y-79636905D01*
X184538810Y-79351190D01*
X184586429Y-79255952D01*
X184634048Y-79208333D01*
X184729286Y-79160714D01*
X184919763Y-79160714D01*
X185015001Y-79208333D01*
X186538811Y-80208333D02*
X186491191Y-80160714D01*
X186395953Y-80017857D01*
X186348334Y-79922619D01*
X186300715Y-79779762D01*
X186253096Y-79541667D01*
X186253096Y-79351190D01*
X186300715Y-79113095D01*
X186348334Y-78970238D01*
X186395953Y-78875000D01*
X186491191Y-78732143D01*
X186538811Y-78684524D01*
X186919763Y-79827381D02*
X186919763Y-78827381D01*
X187300716Y-78827381D01*
X187395954Y-78875000D01*
X187443573Y-78922619D01*
X187491192Y-79017857D01*
X187491192Y-79160714D01*
X187443573Y-79255952D01*
X187395954Y-79303571D01*
X187300716Y-79351190D01*
X186919763Y-79351190D01*
X187919763Y-79732143D02*
X187967382Y-79779762D01*
X187919763Y-79827381D01*
X187872144Y-79779762D01*
X187919763Y-79732143D01*
X187919763Y-79827381D01*
X188729287Y-79303571D02*
X188872144Y-79351190D01*
X188919763Y-79398810D01*
X188967382Y-79494048D01*
X188967382Y-79636905D01*
X188919763Y-79732143D01*
X188872144Y-79779762D01*
X188776906Y-79827381D01*
X188395953Y-79827381D01*
X188395953Y-78827381D01*
X188729287Y-78827381D01*
X188824525Y-78875000D01*
X188872144Y-78922619D01*
X188919763Y-79017857D01*
X188919763Y-79113095D01*
X188872144Y-79208333D01*
X188824525Y-79255952D01*
X188729287Y-79303571D01*
X188395953Y-79303571D01*
X189395953Y-79732143D02*
X189443572Y-79779762D01*
X189395953Y-79827381D01*
X189348334Y-79779762D01*
X189395953Y-79732143D01*
X189395953Y-79827381D01*
X189776905Y-80208333D02*
X189824524Y-80160714D01*
X189919762Y-80017857D01*
X189967381Y-79922619D01*
X190015000Y-79779762D01*
X190062619Y-79541667D01*
X190062619Y-79351190D01*
X190015000Y-79113095D01*
X189967381Y-78970238D01*
X189919762Y-78875000D01*
X189824524Y-78732143D01*
X189776905Y-78684524D01*
D13*
X164175714Y-80688571D02*
X163675714Y-79974286D01*
X163318571Y-80688571D02*
X163318571Y-79188571D01*
X163889999Y-79188571D01*
X164032857Y-79260000D01*
X164104285Y-79331429D01*
X164175714Y-79474286D01*
X164175714Y-79688571D01*
X164104285Y-79831429D01*
X164032857Y-79902857D01*
X163889999Y-79974286D01*
X163318571Y-79974286D01*
X165675714Y-80545714D02*
X165604285Y-80617143D01*
X165389999Y-80688571D01*
X165247142Y-80688571D01*
X165032857Y-80617143D01*
X164889999Y-80474286D01*
X164818571Y-80331429D01*
X164747142Y-80045714D01*
X164747142Y-79831429D01*
X164818571Y-79545714D01*
X164889999Y-79402857D01*
X165032857Y-79260000D01*
X165247142Y-79188571D01*
X165389999Y-79188571D01*
X165604285Y-79260000D01*
X165675714Y-79331429D01*
X166318571Y-80117143D02*
X167461428Y-80117143D01*
X168461428Y-79188571D02*
X168747142Y-79188571D01*
X168890000Y-79260000D01*
X169032857Y-79402857D01*
X169104285Y-79688571D01*
X169104285Y-80188571D01*
X169032857Y-80474286D01*
X168890000Y-80617143D01*
X168747142Y-80688571D01*
X168461428Y-80688571D01*
X168318571Y-80617143D01*
X168175714Y-80474286D01*
X168104285Y-80188571D01*
X168104285Y-79688571D01*
X168175714Y-79402857D01*
X168318571Y-79260000D01*
X168461428Y-79188571D01*
X169747143Y-80688571D02*
X169747143Y-79188571D01*
X170604286Y-80688571D01*
X170604286Y-79188571D01*
X171318572Y-79902857D02*
X171818572Y-79902857D01*
X172032858Y-80688571D02*
X171318572Y-80688571D01*
X171318572Y-79188571D01*
X172032858Y-79188571D01*
D11*
X198572381Y-114910952D02*
X197572381Y-114910952D01*
X197572381Y-114529999D01*
X197620000Y-114434761D01*
X197667619Y-114387142D01*
X197762857Y-114339523D01*
X197905714Y-114339523D01*
X198000952Y-114387142D01*
X198048571Y-114434761D01*
X198096190Y-114529999D01*
X198096190Y-114910952D01*
X198572381Y-113910952D02*
X197572381Y-113910952D01*
X198572381Y-113434762D02*
X197572381Y-113434762D01*
X198572381Y-112863333D01*
X197572381Y-112863333D01*
X198572381Y-111101428D02*
X198572381Y-111672857D01*
X198572381Y-111387143D02*
X197572381Y-111387143D01*
X197715238Y-111482381D01*
X197810476Y-111577619D01*
X197858095Y-111672857D01*
D10*
X129901905Y-81705238D02*
X129101905Y-81705238D01*
X129101905Y-81400476D01*
X129140000Y-81324285D01*
X129178095Y-81286190D01*
X129254286Y-81248095D01*
X129368571Y-81248095D01*
X129444762Y-81286190D01*
X129482857Y-81324285D01*
X129520952Y-81400476D01*
X129520952Y-81705238D01*
X129901905Y-80790952D02*
X129863810Y-80867143D01*
X129825714Y-80905238D01*
X129749524Y-80943333D01*
X129520952Y-80943333D01*
X129444762Y-80905238D01*
X129406667Y-80867143D01*
X129368571Y-80790952D01*
X129368571Y-80676666D01*
X129406667Y-80600476D01*
X129444762Y-80562381D01*
X129520952Y-80524285D01*
X129749524Y-80524285D01*
X129825714Y-80562381D01*
X129863810Y-80600476D01*
X129901905Y-80676666D01*
X129901905Y-80790952D01*
X129901905Y-80181428D02*
X129368571Y-80181428D01*
X129520952Y-80181428D02*
X129444762Y-80143333D01*
X129406667Y-80105237D01*
X129368571Y-80029047D01*
X129368571Y-79952856D01*
X129368571Y-79800476D02*
X129368571Y-79495714D01*
X129101905Y-79686190D02*
X129787619Y-79686190D01*
X129863810Y-79648095D01*
X129901905Y-79571904D01*
X129901905Y-79495714D01*
X129673333Y-78657618D02*
X129673333Y-78276666D01*
X129901905Y-78733809D02*
X129101905Y-78467142D01*
X129901905Y-78200475D01*
X157841905Y-81762381D02*
X157041905Y-81762381D01*
X157041905Y-81457619D01*
X157080000Y-81381428D01*
X157118095Y-81343333D01*
X157194286Y-81305238D01*
X157308571Y-81305238D01*
X157384762Y-81343333D01*
X157422857Y-81381428D01*
X157460952Y-81457619D01*
X157460952Y-81762381D01*
X157841905Y-80848095D02*
X157803810Y-80924286D01*
X157765714Y-80962381D01*
X157689524Y-81000476D01*
X157460952Y-81000476D01*
X157384762Y-80962381D01*
X157346667Y-80924286D01*
X157308571Y-80848095D01*
X157308571Y-80733809D01*
X157346667Y-80657619D01*
X157384762Y-80619524D01*
X157460952Y-80581428D01*
X157689524Y-80581428D01*
X157765714Y-80619524D01*
X157803810Y-80657619D01*
X157841905Y-80733809D01*
X157841905Y-80848095D01*
X157841905Y-80238571D02*
X157308571Y-80238571D01*
X157460952Y-80238571D02*
X157384762Y-80200476D01*
X157346667Y-80162380D01*
X157308571Y-80086190D01*
X157308571Y-80009999D01*
X157308571Y-79857619D02*
X157308571Y-79552857D01*
X157041905Y-79743333D02*
X157727619Y-79743333D01*
X157803810Y-79705238D01*
X157841905Y-79629047D01*
X157841905Y-79552857D01*
X157422857Y-78409999D02*
X157460952Y-78295713D01*
X157499048Y-78257618D01*
X157575238Y-78219523D01*
X157689524Y-78219523D01*
X157765714Y-78257618D01*
X157803810Y-78295713D01*
X157841905Y-78371904D01*
X157841905Y-78676666D01*
X157041905Y-78676666D01*
X157041905Y-78409999D01*
X157080000Y-78333809D01*
X157118095Y-78295713D01*
X157194286Y-78257618D01*
X157270476Y-78257618D01*
X157346667Y-78295713D01*
X157384762Y-78333809D01*
X157422857Y-78409999D01*
X157422857Y-78676666D01*
M02*
