G04 #@! TF.FileFunction,Legend,Bot*
%FSLAX46Y46*%
G04 Gerber Fmt 4.6, Leading zero omitted, Abs format (unit mm)*
G04 Created by KiCad (PCBNEW 4.0.7) date 12/23/19 18:48:18*
%MOMM*%
%LPD*%
G01*
G04 APERTURE LIST*
%ADD10C,0.100000*%
%ADD11C,0.150000*%
%ADD12C,0.120000*%
G04 APERTURE END LIST*
D10*
D11*
X108505238Y-143962381D02*
X108838572Y-143486190D01*
X109076667Y-143962381D02*
X109076667Y-142962381D01*
X108695714Y-142962381D01*
X108600476Y-143010000D01*
X108552857Y-143057619D01*
X108505238Y-143152857D01*
X108505238Y-143295714D01*
X108552857Y-143390952D01*
X108600476Y-143438571D01*
X108695714Y-143486190D01*
X109076667Y-143486190D01*
X107695714Y-143914762D02*
X107790952Y-143962381D01*
X107981429Y-143962381D01*
X108076667Y-143914762D01*
X108124286Y-143819524D01*
X108124286Y-143438571D01*
X108076667Y-143343333D01*
X107981429Y-143295714D01*
X107790952Y-143295714D01*
X107695714Y-143343333D01*
X107648095Y-143438571D01*
X107648095Y-143533810D01*
X108124286Y-143629048D01*
X107314762Y-143295714D02*
X107076667Y-143962381D01*
X106838571Y-143295714D01*
X106457619Y-143962381D02*
X106457619Y-143295714D01*
X106457619Y-142962381D02*
X106505238Y-143010000D01*
X106457619Y-143057619D01*
X106410000Y-143010000D01*
X106457619Y-142962381D01*
X106457619Y-143057619D01*
X106029048Y-143914762D02*
X105933810Y-143962381D01*
X105743334Y-143962381D01*
X105648095Y-143914762D01*
X105600476Y-143819524D01*
X105600476Y-143771905D01*
X105648095Y-143676667D01*
X105743334Y-143629048D01*
X105886191Y-143629048D01*
X105981429Y-143581429D01*
X106029048Y-143486190D01*
X106029048Y-143438571D01*
X105981429Y-143343333D01*
X105886191Y-143295714D01*
X105743334Y-143295714D01*
X105648095Y-143343333D01*
X105171905Y-143962381D02*
X105171905Y-143295714D01*
X105171905Y-142962381D02*
X105219524Y-143010000D01*
X105171905Y-143057619D01*
X105124286Y-143010000D01*
X105171905Y-142962381D01*
X105171905Y-143057619D01*
X104552858Y-143962381D02*
X104648096Y-143914762D01*
X104695715Y-143867143D01*
X104743334Y-143771905D01*
X104743334Y-143486190D01*
X104695715Y-143390952D01*
X104648096Y-143343333D01*
X104552858Y-143295714D01*
X104410000Y-143295714D01*
X104314762Y-143343333D01*
X104267143Y-143390952D01*
X104219524Y-143486190D01*
X104219524Y-143771905D01*
X104267143Y-143867143D01*
X104314762Y-143914762D01*
X104410000Y-143962381D01*
X104552858Y-143962381D01*
X103790953Y-143295714D02*
X103790953Y-143962381D01*
X103790953Y-143390952D02*
X103743334Y-143343333D01*
X103648096Y-143295714D01*
X103505238Y-143295714D01*
X103410000Y-143343333D01*
X103362381Y-143438571D01*
X103362381Y-143962381D01*
X102171905Y-143676667D02*
X101695714Y-143676667D01*
X102267143Y-143962381D02*
X101933810Y-142962381D01*
X101600476Y-143962381D01*
D12*
X128330000Y-78680000D02*
X128330000Y-81340000D01*
X105410000Y-78680000D02*
X128330000Y-78680000D01*
X105410000Y-81340000D02*
X128330000Y-81340000D01*
X105410000Y-78680000D02*
X105410000Y-81340000D01*
X104140000Y-78680000D02*
X102810000Y-78680000D01*
X102810000Y-78680000D02*
X102810000Y-80010000D01*
X156270000Y-78680000D02*
X156270000Y-81340000D01*
X133350000Y-78680000D02*
X156270000Y-78680000D01*
X133350000Y-81340000D02*
X156270000Y-81340000D01*
X133350000Y-78680000D02*
X133350000Y-81340000D01*
X132080000Y-78680000D02*
X130750000Y-78680000D01*
X130750000Y-78680000D02*
X130750000Y-80010000D01*
X100270000Y-146745000D02*
X100270000Y-144085000D01*
X196850000Y-146745000D02*
X100270000Y-146745000D01*
X196850000Y-144085000D02*
X100270000Y-144085000D01*
X196850000Y-146745000D02*
X196850000Y-144085000D01*
X198120000Y-146745000D02*
X199450000Y-146745000D01*
X199450000Y-146745000D02*
X199450000Y-145415000D01*
D11*
X199902381Y-145081667D02*
X200616667Y-145081667D01*
X200759524Y-145034047D01*
X200854762Y-144938809D01*
X200902381Y-144795952D01*
X200902381Y-144700714D01*
X200902381Y-146081667D02*
X200902381Y-145510238D01*
X200902381Y-145795952D02*
X199902381Y-145795952D01*
X200045238Y-145700714D01*
X200140476Y-145605476D01*
X200188095Y-145510238D01*
M02*
