M48
;DRILL file {KiCad 4.0.7} date 12/23/19 18:48:20
;FORMAT={2:4/ absolute / inch / suppress leading zeros}
FMAT,2
INCH,TZ
T1C0.030
T2C0.039
%
G90
G05
M72
T1
X41000Y-34000
X41000Y-35000
X41000Y-36000
X41000Y-37000
X41000Y-38000
X41000Y-39000
X41000Y-40000
X41000Y-41000
X41000Y-42000
X41000Y-43000
X41000Y-44000
X41000Y-45000
X41000Y-46000
X41000Y-47000
X41000Y-48000
X41000Y-49000
X41000Y-50000
X41000Y-51000
X41000Y-52000
X41000Y-53000
X41000Y-54000
X42000Y-34000
X42000Y-35000
X42000Y-36000
X42000Y-37000
X42000Y-38000
X42000Y-39000
X42000Y-40000
X42000Y-41000
X42000Y-42000
X42000Y-43000
X42000Y-44000
X42000Y-45000
X42000Y-46000
X42000Y-47000
X42000Y-48000
X42000Y-49000
X42000Y-50000
X42000Y-51000
X42000Y-52000
X42000Y-53000
X42000Y-54000
X43000Y-34000
X43000Y-35000
X43000Y-36000
X43000Y-37000
X43000Y-38000
X43000Y-39000
X43000Y-40000
X43000Y-41000
X43000Y-42000
X43000Y-43000
X43000Y-44000
X43000Y-45000
X43000Y-46000
X43000Y-47000
X43000Y-48000
X43000Y-49000
X43000Y-50000
X43000Y-51000
X43000Y-52000
X43000Y-53000
X43000Y-54000
X44000Y-34000
X44000Y-35000
X44000Y-36000
X44000Y-37000
X44000Y-38000
X44000Y-39000
X44000Y-40000
X44000Y-41000
X44000Y-42000
X44000Y-43000
X44000Y-44000
X44000Y-45000
X44000Y-46000
X44000Y-47000
X44000Y-48000
X44000Y-49000
X44000Y-50000
X44000Y-51000
X44000Y-52000
X44000Y-53000
X44000Y-54000
X45000Y-34000
X45000Y-35000
X45000Y-36000
X45000Y-37000
X45000Y-38000
X45000Y-39000
X45000Y-40000
X45000Y-41000
X45000Y-42000
X45000Y-43000
X45000Y-44000
X45000Y-45000
X45000Y-46000
X45000Y-47000
X45000Y-48000
X45000Y-49000
X45000Y-50000
X45000Y-51000
X45000Y-52000
X45000Y-53000
X45000Y-54000
X46000Y-34000
X46000Y-35000
X46000Y-36000
X46000Y-37000
X46000Y-38000
X46000Y-39000
X46000Y-40000
X46000Y-41000
X46000Y-42000
X46000Y-43000
X46000Y-44000
X46000Y-45000
X46000Y-46000
X46000Y-47000
X46000Y-48000
X46000Y-49000
X46000Y-50000
X46000Y-51000
X46000Y-52000
X46000Y-53000
X46000Y-54000
X47000Y-34000
X47000Y-35000
X47000Y-36000
X47000Y-37000
X47000Y-38000
X47000Y-39000
X47000Y-40000
X47000Y-41000
X47000Y-42000
X47000Y-43000
X47000Y-44000
X47000Y-45000
X47000Y-46000
X47000Y-47000
X47000Y-48000
X47000Y-49000
X47000Y-50000
X47000Y-51000
X47000Y-52000
X47000Y-53000
X47000Y-54000
X48000Y-34000
X48000Y-35000
X48000Y-36000
X48000Y-37000
X48000Y-38000
X48000Y-39000
X48000Y-40000
X48000Y-41000
X48000Y-42000
X48000Y-43000
X48000Y-44000
X48000Y-45000
X48000Y-46000
X48000Y-47000
X48000Y-48000
X48000Y-49000
X48000Y-50000
X48000Y-51000
X48000Y-52000
X48000Y-53000
X48000Y-54000
X49000Y-34000
X49000Y-35000
X49000Y-36000
X49000Y-37000
X49000Y-38000
X49000Y-39000
X49000Y-40000
X49000Y-41000
X49000Y-42000
X49000Y-43000
X49000Y-44000
X49000Y-45000
X49000Y-46000
X49000Y-47000
X49000Y-48000
X49000Y-49000
X49000Y-50000
X49000Y-51000
X49000Y-52000
X49000Y-53000
X49000Y-54000
X50000Y-34000
X50000Y-35000
X50000Y-36000
X50000Y-37000
X50000Y-38000
X50000Y-39000
X50000Y-40000
X50000Y-41000
X50000Y-42000
X50000Y-43000
X50000Y-44000
X50000Y-45000
X50000Y-46000
X50000Y-47000
X50000Y-48000
X50000Y-49000
X50000Y-50000
X50000Y-51000
X50000Y-52000
X50000Y-53000
X50000Y-54000
X51000Y-34000
X51000Y-35000
X51000Y-36000
X51000Y-37000
X51000Y-38000
X51000Y-39000
X51000Y-40000
X51000Y-41000
X51000Y-42000
X51000Y-43000
X51000Y-44000
X51000Y-45000
X51000Y-46000
X51000Y-47000
X51000Y-48000
X51000Y-49000
X51000Y-50000
X51000Y-51000
X51000Y-52000
X51000Y-53000
X51000Y-54000
X52000Y-34000
X52000Y-35000
X52000Y-36000
X52000Y-37000
X52000Y-38000
X52000Y-39000
X52000Y-40000
X52000Y-41000
X52000Y-42000
X52000Y-43000
X52000Y-44000
X52000Y-45000
X52000Y-46000
X52000Y-47000
X52000Y-48000
X52000Y-49000
X52000Y-50000
X52000Y-51000
X52000Y-52000
X52000Y-53000
X52000Y-54000
X53000Y-34000
X53000Y-35000
X53000Y-36000
X53000Y-37000
X53000Y-38000
X53000Y-39000
X53000Y-40000
X53000Y-41000
X53000Y-42000
X53000Y-43000
X53000Y-44000
X53000Y-45000
X53000Y-46000
X53000Y-47000
X53000Y-48000
X53000Y-49000
X53000Y-50000
X53000Y-51000
X53000Y-52000
X53000Y-53000
X53000Y-54000
X54000Y-34000
X54000Y-35000
X54000Y-36000
X54000Y-37000
X54000Y-38000
X54000Y-39000
X54000Y-40000
X54000Y-41000
X54000Y-42000
X54000Y-43000
X54000Y-44000
X54000Y-45000
X54000Y-46000
X54000Y-47000
X54000Y-48000
X54000Y-49000
X54000Y-50000
X54000Y-51000
X54000Y-52000
X54000Y-53000
X54000Y-54000
X55000Y-34000
X55000Y-35000
X55000Y-36000
X55000Y-37000
X55000Y-38000
X55000Y-39000
X55000Y-40000
X55000Y-41000
X55000Y-42000
X55000Y-43000
X55000Y-44000
X55000Y-45000
X55000Y-46000
X55000Y-47000
X55000Y-48000
X55000Y-49000
X55000Y-50000
X55000Y-51000
X55000Y-52000
X55000Y-53000
X55000Y-54000
X56000Y-34000
X56000Y-35000
X56000Y-36000
X56000Y-37000
X56000Y-38000
X56000Y-39000
X56000Y-40000
X56000Y-41000
X56000Y-42000
X56000Y-43000
X56000Y-44000
X56000Y-45000
X56000Y-46000
X56000Y-47000
X56000Y-48000
X56000Y-49000
X56000Y-50000
X56000Y-51000
X56000Y-52000
X56000Y-53000
X56000Y-54000
X57000Y-34000
X57000Y-35000
X57000Y-36000
X57000Y-37000
X57000Y-38000
X57000Y-39000
X57000Y-40000
X57000Y-41000
X57000Y-42000
X57000Y-43000
X57000Y-44000
X57000Y-45000
X57000Y-46000
X57000Y-47000
X57000Y-48000
X57000Y-49000
X57000Y-50000
X57000Y-51000
X57000Y-52000
X57000Y-53000
X57000Y-54000
X58000Y-34000
X58000Y-35000
X58000Y-36000
X58000Y-37000
X58000Y-38000
X58000Y-39000
X58000Y-40000
X58000Y-41000
X58000Y-42000
X58000Y-43000
X58000Y-44000
X58000Y-45000
X58000Y-46000
X58000Y-47000
X58000Y-48000
X58000Y-49000
X58000Y-50000
X58000Y-51000
X58000Y-52000
X58000Y-53000
X58000Y-54000
X59000Y-34000
X59000Y-35000
X59000Y-36000
X59000Y-37000
X59000Y-38000
X59000Y-39000
X59000Y-40000
X59000Y-41000
X59000Y-42000
X59000Y-43000
X59000Y-44000
X59000Y-45000
X59000Y-46000
X59000Y-47000
X59000Y-48000
X59000Y-49000
X59000Y-50000
X59000Y-51000
X59000Y-52000
X59000Y-53000
X59000Y-54000
X60000Y-34000
X60000Y-35000
X60000Y-36000
X60000Y-37000
X60000Y-38000
X60000Y-39000
X60000Y-40000
X60000Y-41000
X60000Y-42000
X60000Y-43000
X60000Y-44000
X60000Y-45000
X60000Y-46000
X60000Y-47000
X60000Y-48000
X60000Y-49000
X60000Y-50000
X60000Y-51000
X60000Y-52000
X60000Y-53000
X60000Y-54000
X61000Y-34000
X61000Y-35000
X61000Y-36000
X61000Y-37000
X61000Y-38000
X61000Y-39000
X61000Y-40000
X61000Y-41000
X61000Y-42000
X61000Y-43000
X61000Y-44000
X61000Y-45000
X61000Y-46000
X61000Y-47000
X61000Y-48000
X61000Y-49000
X61000Y-50000
X61000Y-51000
X61000Y-52000
X61000Y-53000
X61000Y-54000
X62000Y-34000
X62000Y-35000
X62000Y-36000
X62000Y-37000
X62000Y-38000
X62000Y-39000
X62000Y-40000
X62000Y-41000
X62000Y-42000
X62000Y-43000
X62000Y-44000
X62000Y-45000
X62000Y-46000
X62000Y-47000
X62000Y-48000
X62000Y-49000
X62000Y-50000
X62000Y-51000
X62000Y-52000
X62000Y-53000
X62000Y-54000
X63000Y-34000
X63000Y-35000
X63000Y-36000
X63000Y-37000
X63000Y-38000
X63000Y-39000
X63000Y-40000
X63000Y-41000
X63000Y-42000
X63000Y-43000
X63000Y-44000
X63000Y-45000
X63000Y-46000
X63000Y-47000
X63000Y-48000
X63000Y-49000
X63000Y-50000
X63000Y-51000
X63000Y-52000
X63000Y-53000
X63000Y-54000
X64000Y-34000
X64000Y-35000
X64000Y-36000
X64000Y-37000
X64000Y-38000
X64000Y-39000
X64000Y-40000
X64000Y-41000
X64000Y-42000
X64000Y-43000
X64000Y-44000
X64000Y-45000
X64000Y-46000
X64000Y-47000
X64000Y-48000
X64000Y-49000
X64000Y-50000
X64000Y-51000
X64000Y-52000
X64000Y-53000
X64000Y-54000
X65000Y-34000
X65000Y-35000
X65000Y-36000
X65000Y-37000
X65000Y-38000
X65000Y-39000
X65000Y-40000
X65000Y-41000
X65000Y-42000
X65000Y-43000
X65000Y-44000
X65000Y-45000
X65000Y-46000
X65000Y-47000
X65000Y-48000
X65000Y-49000
X65000Y-50000
X65000Y-51000
X65000Y-52000
X65000Y-53000
X65000Y-54000
X66000Y-34000
X66000Y-35000
X66000Y-36000
X66000Y-37000
X66000Y-38000
X66000Y-39000
X66000Y-40000
X66000Y-41000
X66000Y-42000
X66000Y-43000
X66000Y-44000
X66000Y-45000
X66000Y-46000
X66000Y-47000
X66000Y-48000
X66000Y-49000
X66000Y-50000
X66000Y-51000
X66000Y-52000
X66000Y-53000
X66000Y-54000
X67000Y-34000
X67000Y-35000
X67000Y-36000
X67000Y-37000
X67000Y-38000
X67000Y-39000
X67000Y-40000
X67000Y-41000
X67000Y-42000
X67000Y-43000
X67000Y-44000
X67000Y-45000
X67000Y-46000
X67000Y-47000
X67000Y-48000
X67000Y-49000
X67000Y-50000
X67000Y-51000
X67000Y-52000
X67000Y-53000
X67000Y-54000
X68000Y-34000
X68000Y-35000
X68000Y-36000
X68000Y-37000
X68000Y-38000
X68000Y-39000
X68000Y-40000
X68000Y-41000
X68000Y-42000
X68000Y-43000
X68000Y-44000
X68000Y-45000
X68000Y-46000
X68000Y-47000
X68000Y-48000
X68000Y-49000
X68000Y-50000
X68000Y-51000
X68000Y-52000
X68000Y-53000
X68000Y-54000
X69000Y-34000
X69000Y-35000
X69000Y-36000
X69000Y-37000
X69000Y-38000
X69000Y-39000
X69000Y-40000
X69000Y-41000
X69000Y-42000
X69000Y-43000
X69000Y-44000
X69000Y-45000
X69000Y-46000
X69000Y-47000
X69000Y-48000
X69000Y-49000
X69000Y-50000
X69000Y-51000
X69000Y-52000
X69000Y-53000
X69000Y-54000
X70000Y-34000
X70000Y-35000
X70000Y-36000
X70000Y-37000
X70000Y-38000
X70000Y-39000
X70000Y-40000
X70000Y-41000
X70000Y-42000
X70000Y-43000
X70000Y-44000
X70000Y-45000
X70000Y-46000
X70000Y-47000
X70000Y-48000
X70000Y-49000
X70000Y-50000
X70000Y-51000
X70000Y-52000
X70000Y-53000
X70000Y-54000
X71000Y-34000
X71000Y-35000
X71000Y-36000
X71000Y-37000
X71000Y-38000
X71000Y-39000
X71000Y-40000
X71000Y-41000
X71000Y-42000
X71000Y-43000
X71000Y-44000
X71000Y-45000
X71000Y-46000
X71000Y-47000
X71000Y-48000
X71000Y-49000
X71000Y-50000
X71000Y-51000
X71000Y-52000
X71000Y-53000
X71000Y-54000
X72000Y-34000
X72000Y-35000
X72000Y-36000
X72000Y-37000
X72000Y-38000
X72000Y-39000
X72000Y-40000
X72000Y-41000
X72000Y-42000
X72000Y-43000
X72000Y-44000
X72000Y-45000
X72000Y-46000
X72000Y-47000
X72000Y-48000
X72000Y-49000
X72000Y-50000
X72000Y-51000
X72000Y-52000
X72000Y-53000
X72000Y-54000
X73000Y-34000
X73000Y-35000
X73000Y-36000
X73000Y-37000
X73000Y-38000
X73000Y-39000
X73000Y-40000
X73000Y-41000
X73000Y-42000
X73000Y-43000
X73000Y-44000
X73000Y-45000
X73000Y-46000
X73000Y-47000
X73000Y-48000
X73000Y-49000
X73000Y-50000
X73000Y-51000
X73000Y-52000
X73000Y-53000
X73000Y-54000
X74000Y-34000
X74000Y-35000
X74000Y-36000
X74000Y-37000
X74000Y-38000
X74000Y-39000
X74000Y-40000
X74000Y-41000
X74000Y-42000
X74000Y-43000
X74000Y-44000
X74000Y-45000
X74000Y-46000
X74000Y-47000
X74000Y-48000
X74000Y-49000
X74000Y-50000
X74000Y-51000
X74000Y-52000
X74000Y-53000
X74000Y-54000
X75000Y-34000
X75000Y-35000
X75000Y-36000
X75000Y-37000
X75000Y-38000
X75000Y-39000
X75000Y-40000
X75000Y-41000
X75000Y-42000
X75000Y-43000
X75000Y-44000
X75000Y-45000
X75000Y-46000
X75000Y-47000
X75000Y-48000
X75000Y-49000
X75000Y-50000
X75000Y-51000
X75000Y-52000
X75000Y-53000
X75000Y-54000
X76000Y-34000
X76000Y-35000
X76000Y-36000
X76000Y-37000
X76000Y-38000
X76000Y-39000
X76000Y-40000
X76000Y-41000
X76000Y-42000
X76000Y-43000
X76000Y-44000
X76000Y-45000
X76000Y-46000
X76000Y-47000
X76000Y-48000
X76000Y-49000
X76000Y-50000
X76000Y-51000
X76000Y-52000
X76000Y-53000
X76000Y-54000
X77000Y-34000
X77000Y-35000
X77000Y-36000
X77000Y-37000
X77000Y-38000
X77000Y-39000
X77000Y-40000
X77000Y-41000
X77000Y-42000
X77000Y-43000
X77000Y-44000
X77000Y-45000
X77000Y-46000
X77000Y-47000
X77000Y-48000
X77000Y-49000
X77000Y-50000
X77000Y-51000
X77000Y-52000
X77000Y-53000
X77000Y-54000
T2
X40000Y-57250
X41000Y-31500
X41000Y-57250
X42000Y-31500
X42000Y-57250
X43000Y-31500
X43000Y-57250
X44000Y-31500
X44000Y-57250
X45000Y-31500
X45000Y-57250
X46000Y-31500
X46000Y-57250
X47000Y-31500
X47000Y-57250
X48000Y-31500
X48000Y-57250
X49000Y-31500
X49000Y-57250
X50000Y-31500
X50000Y-57250
X51000Y-57250
X52000Y-31500
X52000Y-57250
X53000Y-31500
X53000Y-57250
X54000Y-31500
X54000Y-57250
X55000Y-31500
X55000Y-57250
X56000Y-31500
X56000Y-57250
X57000Y-31500
X57000Y-57250
X58000Y-31500
X58000Y-57250
X59000Y-31500
X59000Y-57250
X60000Y-31500
X60000Y-57250
X61000Y-31500
X61000Y-57250
X62000Y-57250
X63000Y-57250
X64000Y-57250
X65000Y-57250
X66000Y-57250
X67000Y-57250
X68000Y-57250
X69000Y-57250
X70000Y-57250
X71000Y-57250
X72000Y-57250
X73000Y-57250
X74000Y-57250
X75000Y-57250
X76000Y-57250
X77000Y-57250
X78000Y-57250
T0
M30
