G04 #@! TF.FileFunction,Legend,Bot*
%FSLAX46Y46*%
G04 Gerber Fmt 4.6, Leading zero omitted, Abs format (unit mm)*
G04 Created by KiCad (PCBNEW 4.0.7) date 09/07/19 14:43:51*
%MOMM*%
%LPD*%
G01*
G04 APERTURE LIST*
%ADD10C,0.100000*%
%ADD11C,0.200000*%
G04 APERTURE END LIST*
D10*
D11*
X114300000Y-136525000D02*
X114300000Y-137795000D01*
X111760000Y-136525000D02*
X114300000Y-136525000D01*
X111760000Y-137795000D02*
X111760000Y-136525000D01*
X114300000Y-143510000D02*
X114300000Y-142240000D01*
X111760000Y-143510000D02*
X114300000Y-143510000D01*
X111760000Y-142240000D02*
X111760000Y-143510000D01*
X181610000Y-143510000D02*
X181610000Y-142240000D01*
X179070000Y-143510000D02*
X181610000Y-143510000D01*
X179070000Y-142240000D02*
X179070000Y-143510000D01*
X181610000Y-136525000D02*
X181610000Y-137795000D01*
X179070000Y-136525000D02*
X181610000Y-136525000D01*
X179070000Y-137795000D02*
X179070000Y-136525000D01*
X185420000Y-122555000D02*
X185420000Y-121285000D01*
X182880000Y-122555000D02*
X185420000Y-122555000D01*
X182880000Y-121285000D02*
X182880000Y-122555000D01*
X195580000Y-122555000D02*
X195580000Y-121285000D01*
X193040000Y-122555000D02*
X195580000Y-122555000D01*
X193040000Y-121285000D02*
X193040000Y-122555000D01*
X191770000Y-104775000D02*
X191770000Y-103505000D01*
X189230000Y-104775000D02*
X191770000Y-104775000D01*
X189230000Y-103505000D02*
X189230000Y-104775000D01*
X191770000Y-97155000D02*
X191770000Y-98425000D01*
X189230000Y-97155000D02*
X191770000Y-97155000D01*
X189230000Y-98425000D02*
X189230000Y-97155000D01*
M02*
