G04 #@! TF.FileFunction,Legend,Bot*
%FSLAX46Y46*%
G04 Gerber Fmt 4.6, Leading zero omitted, Abs format (unit mm)*
G04 Created by KiCad (PCBNEW 4.0.7) date 09/29/19 20:33:00*
%MOMM*%
%LPD*%
G01*
G04 APERTURE LIST*
%ADD10C,0.100000*%
%ADD11C,0.150000*%
%ADD12C,0.200000*%
G04 APERTURE END LIST*
D10*
X195090476Y-98748810D02*
X194976190Y-98786905D01*
X194785714Y-98786905D01*
X194709524Y-98748810D01*
X194671428Y-98710714D01*
X194633333Y-98634524D01*
X194633333Y-98558333D01*
X194671428Y-98482143D01*
X194709524Y-98444048D01*
X194785714Y-98405952D01*
X194938095Y-98367857D01*
X195014286Y-98329762D01*
X195052381Y-98291667D01*
X195090476Y-98215476D01*
X195090476Y-98139286D01*
X195052381Y-98063095D01*
X195014286Y-98025000D01*
X194938095Y-97986905D01*
X194747619Y-97986905D01*
X194633333Y-98025000D01*
X194861905Y-97872619D02*
X194861905Y-98901190D01*
X194290476Y-98367857D02*
X194023809Y-98367857D01*
X193909523Y-98786905D02*
X194290476Y-98786905D01*
X194290476Y-97986905D01*
X193909523Y-97986905D01*
X193414285Y-97986905D02*
X193338094Y-97986905D01*
X193261904Y-98025000D01*
X193223809Y-98063095D01*
X193185713Y-98139286D01*
X193147618Y-98291667D01*
X193147618Y-98482143D01*
X193185713Y-98634524D01*
X193223809Y-98710714D01*
X193261904Y-98748810D01*
X193338094Y-98786905D01*
X193414285Y-98786905D01*
X193490475Y-98748810D01*
X193528571Y-98710714D01*
X193566666Y-98634524D01*
X193604761Y-98482143D01*
X193604761Y-98291667D01*
X193566666Y-98139286D01*
X193528571Y-98063095D01*
X193490475Y-98025000D01*
X193414285Y-97986905D01*
X192652380Y-97986905D02*
X192576189Y-97986905D01*
X192499999Y-98025000D01*
X192461904Y-98063095D01*
X192423808Y-98139286D01*
X192385713Y-98291667D01*
X192385713Y-98482143D01*
X192423808Y-98634524D01*
X192461904Y-98710714D01*
X192499999Y-98748810D01*
X192576189Y-98786905D01*
X192652380Y-98786905D01*
X192728570Y-98748810D01*
X192766666Y-98710714D01*
X192804761Y-98634524D01*
X192842856Y-98482143D01*
X192842856Y-98291667D01*
X192804761Y-98139286D01*
X192766666Y-98063095D01*
X192728570Y-98025000D01*
X192652380Y-97986905D01*
X191890475Y-97986905D02*
X191814284Y-97986905D01*
X191738094Y-98025000D01*
X191699999Y-98063095D01*
X191661903Y-98139286D01*
X191623808Y-98291667D01*
X191623808Y-98482143D01*
X191661903Y-98634524D01*
X191699999Y-98710714D01*
X191738094Y-98748810D01*
X191814284Y-98786905D01*
X191890475Y-98786905D01*
X191966665Y-98748810D01*
X192004761Y-98710714D01*
X192042856Y-98634524D01*
X192080951Y-98482143D01*
X192080951Y-98291667D01*
X192042856Y-98139286D01*
X192004761Y-98063095D01*
X191966665Y-98025000D01*
X191890475Y-97986905D01*
X190671427Y-98482143D02*
X190061903Y-98482143D01*
X189109522Y-98748810D02*
X188995236Y-98786905D01*
X188804760Y-98786905D01*
X188728570Y-98748810D01*
X188690474Y-98710714D01*
X188652379Y-98634524D01*
X188652379Y-98558333D01*
X188690474Y-98482143D01*
X188728570Y-98444048D01*
X188804760Y-98405952D01*
X188957141Y-98367857D01*
X189033332Y-98329762D01*
X189071427Y-98291667D01*
X189109522Y-98215476D01*
X189109522Y-98139286D01*
X189071427Y-98063095D01*
X189033332Y-98025000D01*
X188957141Y-97986905D01*
X188766665Y-97986905D01*
X188652379Y-98025000D01*
X188880951Y-97872619D02*
X188880951Y-98901190D01*
X188042855Y-98367857D02*
X188309522Y-98367857D01*
X188309522Y-98786905D02*
X188309522Y-97986905D01*
X187928569Y-97986905D01*
X187357141Y-98367857D02*
X187623808Y-98367857D01*
X187623808Y-98786905D02*
X187623808Y-97986905D01*
X187242855Y-97986905D01*
X186671427Y-98367857D02*
X186938094Y-98367857D01*
X186938094Y-98786905D02*
X186938094Y-97986905D01*
X186557141Y-97986905D01*
X185985713Y-98367857D02*
X186252380Y-98367857D01*
X186252380Y-98786905D02*
X186252380Y-97986905D01*
X185871427Y-97986905D01*
D11*
X195809523Y-95972381D02*
X196000000Y-95972381D01*
X196095238Y-96020000D01*
X196142857Y-96067619D01*
X196238095Y-96210476D01*
X196285714Y-96400952D01*
X196285714Y-96781905D01*
X196238095Y-96877143D01*
X196190476Y-96924762D01*
X196095238Y-96972381D01*
X195904761Y-96972381D01*
X195809523Y-96924762D01*
X195761904Y-96877143D01*
X195714285Y-96781905D01*
X195714285Y-96543810D01*
X195761904Y-96448571D01*
X195809523Y-96400952D01*
X195904761Y-96353333D01*
X196095238Y-96353333D01*
X196190476Y-96400952D01*
X196238095Y-96448571D01*
X196285714Y-96543810D01*
X194809523Y-95972381D02*
X195285714Y-95972381D01*
X195333333Y-96448571D01*
X195285714Y-96400952D01*
X195190476Y-96353333D01*
X194952380Y-96353333D01*
X194857142Y-96400952D01*
X194809523Y-96448571D01*
X194761904Y-96543810D01*
X194761904Y-96781905D01*
X194809523Y-96877143D01*
X194857142Y-96924762D01*
X194952380Y-96972381D01*
X195190476Y-96972381D01*
X195285714Y-96924762D01*
X195333333Y-96877143D01*
X194333333Y-96972381D02*
X194333333Y-95972381D01*
X193761904Y-96972381D02*
X194190476Y-96400952D01*
X193761904Y-95972381D02*
X194333333Y-96543810D01*
X192571428Y-96448571D02*
X192238094Y-96448571D01*
X192095237Y-96972381D02*
X192571428Y-96972381D01*
X192571428Y-95972381D01*
X192095237Y-95972381D01*
X191761904Y-95972381D02*
X191095237Y-96972381D01*
X191095237Y-95972381D02*
X191761904Y-96972381D01*
X190714285Y-96972381D02*
X190714285Y-95972381D01*
X190333332Y-95972381D01*
X190238094Y-96020000D01*
X190190475Y-96067619D01*
X190142856Y-96162857D01*
X190142856Y-96305714D01*
X190190475Y-96400952D01*
X190238094Y-96448571D01*
X190333332Y-96496190D01*
X190714285Y-96496190D01*
X189761904Y-96686667D02*
X189285713Y-96686667D01*
X189857142Y-96972381D02*
X189523809Y-95972381D01*
X189190475Y-96972381D01*
X188857142Y-96972381D02*
X188857142Y-95972381D01*
X188285713Y-96972381D01*
X188285713Y-95972381D01*
X187857142Y-96924762D02*
X187714285Y-96972381D01*
X187476189Y-96972381D01*
X187380951Y-96924762D01*
X187333332Y-96877143D01*
X187285713Y-96781905D01*
X187285713Y-96686667D01*
X187333332Y-96591429D01*
X187380951Y-96543810D01*
X187476189Y-96496190D01*
X187666666Y-96448571D01*
X187761904Y-96400952D01*
X187809523Y-96353333D01*
X187857142Y-96258095D01*
X187857142Y-96162857D01*
X187809523Y-96067619D01*
X187761904Y-96020000D01*
X187666666Y-95972381D01*
X187428570Y-95972381D01*
X187285713Y-96020000D01*
X186857142Y-96972381D02*
X186857142Y-95972381D01*
X186190476Y-95972381D02*
X185999999Y-95972381D01*
X185904761Y-96020000D01*
X185809523Y-96115238D01*
X185761904Y-96305714D01*
X185761904Y-96639048D01*
X185809523Y-96829524D01*
X185904761Y-96924762D01*
X185999999Y-96972381D01*
X186190476Y-96972381D01*
X186285714Y-96924762D01*
X186380952Y-96829524D01*
X186428571Y-96639048D01*
X186428571Y-96305714D01*
X186380952Y-96115238D01*
X186285714Y-96020000D01*
X186190476Y-95972381D01*
X185333333Y-96972381D02*
X185333333Y-95972381D01*
X184761904Y-96972381D01*
X184761904Y-95972381D01*
D10*
X172287619Y-98673810D02*
X172173333Y-98711905D01*
X171982857Y-98711905D01*
X171906667Y-98673810D01*
X171868571Y-98635714D01*
X171830476Y-98559524D01*
X171830476Y-98483333D01*
X171868571Y-98407143D01*
X171906667Y-98369048D01*
X171982857Y-98330952D01*
X172135238Y-98292857D01*
X172211429Y-98254762D01*
X172249524Y-98216667D01*
X172287619Y-98140476D01*
X172287619Y-98064286D01*
X172249524Y-97988095D01*
X172211429Y-97950000D01*
X172135238Y-97911905D01*
X171944762Y-97911905D01*
X171830476Y-97950000D01*
X172059048Y-97797619D02*
X172059048Y-98826190D01*
X171335238Y-97911905D02*
X171259047Y-97911905D01*
X171182857Y-97950000D01*
X171144762Y-97988095D01*
X171106666Y-98064286D01*
X171068571Y-98216667D01*
X171068571Y-98407143D01*
X171106666Y-98559524D01*
X171144762Y-98635714D01*
X171182857Y-98673810D01*
X171259047Y-98711905D01*
X171335238Y-98711905D01*
X171411428Y-98673810D01*
X171449524Y-98635714D01*
X171487619Y-98559524D01*
X171525714Y-98407143D01*
X171525714Y-98216667D01*
X171487619Y-98064286D01*
X171449524Y-97988095D01*
X171411428Y-97950000D01*
X171335238Y-97911905D01*
X170573333Y-97911905D02*
X170497142Y-97911905D01*
X170420952Y-97950000D01*
X170382857Y-97988095D01*
X170344761Y-98064286D01*
X170306666Y-98216667D01*
X170306666Y-98407143D01*
X170344761Y-98559524D01*
X170382857Y-98635714D01*
X170420952Y-98673810D01*
X170497142Y-98711905D01*
X170573333Y-98711905D01*
X170649523Y-98673810D01*
X170687619Y-98635714D01*
X170725714Y-98559524D01*
X170763809Y-98407143D01*
X170763809Y-98216667D01*
X170725714Y-98064286D01*
X170687619Y-97988095D01*
X170649523Y-97950000D01*
X170573333Y-97911905D01*
X169811428Y-97911905D02*
X169735237Y-97911905D01*
X169659047Y-97950000D01*
X169620952Y-97988095D01*
X169582856Y-98064286D01*
X169544761Y-98216667D01*
X169544761Y-98407143D01*
X169582856Y-98559524D01*
X169620952Y-98635714D01*
X169659047Y-98673810D01*
X169735237Y-98711905D01*
X169811428Y-98711905D01*
X169887618Y-98673810D01*
X169925714Y-98635714D01*
X169963809Y-98559524D01*
X170001904Y-98407143D01*
X170001904Y-98216667D01*
X169963809Y-98064286D01*
X169925714Y-97988095D01*
X169887618Y-97950000D01*
X169811428Y-97911905D01*
X169049523Y-97911905D02*
X168973332Y-97911905D01*
X168897142Y-97950000D01*
X168859047Y-97988095D01*
X168820951Y-98064286D01*
X168782856Y-98216667D01*
X168782856Y-98407143D01*
X168820951Y-98559524D01*
X168859047Y-98635714D01*
X168897142Y-98673810D01*
X168973332Y-98711905D01*
X169049523Y-98711905D01*
X169125713Y-98673810D01*
X169163809Y-98635714D01*
X169201904Y-98559524D01*
X169239999Y-98407143D01*
X169239999Y-98216667D01*
X169201904Y-98064286D01*
X169163809Y-97988095D01*
X169125713Y-97950000D01*
X169049523Y-97911905D01*
X167830475Y-98407143D02*
X167220951Y-98407143D01*
X166268570Y-98673810D02*
X166154284Y-98711905D01*
X165963808Y-98711905D01*
X165887618Y-98673810D01*
X165849522Y-98635714D01*
X165811427Y-98559524D01*
X165811427Y-98483333D01*
X165849522Y-98407143D01*
X165887618Y-98369048D01*
X165963808Y-98330952D01*
X166116189Y-98292857D01*
X166192380Y-98254762D01*
X166230475Y-98216667D01*
X166268570Y-98140476D01*
X166268570Y-98064286D01*
X166230475Y-97988095D01*
X166192380Y-97950000D01*
X166116189Y-97911905D01*
X165925713Y-97911905D01*
X165811427Y-97950000D01*
X166039999Y-97797619D02*
X166039999Y-98826190D01*
X165049522Y-98711905D02*
X165506665Y-98711905D01*
X165278094Y-98711905D02*
X165278094Y-97911905D01*
X165354284Y-98026190D01*
X165430475Y-98102381D01*
X165506665Y-98140476D01*
X164439998Y-98292857D02*
X164706665Y-98292857D01*
X164706665Y-98711905D02*
X164706665Y-97911905D01*
X164325712Y-97911905D01*
X163754284Y-98292857D02*
X164020951Y-98292857D01*
X164020951Y-98711905D02*
X164020951Y-97911905D01*
X163639998Y-97911905D01*
X163068570Y-98292857D02*
X163335237Y-98292857D01*
X163335237Y-98711905D02*
X163335237Y-97911905D01*
X162954284Y-97911905D01*
X170116190Y-100511905D02*
X169963809Y-100511905D01*
X169887618Y-100550000D01*
X169811428Y-100626190D01*
X169773333Y-100778571D01*
X169773333Y-101045238D01*
X169811428Y-101197619D01*
X169887618Y-101273810D01*
X169963809Y-101311905D01*
X170116190Y-101311905D01*
X170192380Y-101273810D01*
X170268571Y-101197619D01*
X170306666Y-101045238D01*
X170306666Y-100778571D01*
X170268571Y-100626190D01*
X170192380Y-100550000D01*
X170116190Y-100511905D01*
X169430476Y-101311905D02*
X169430476Y-100511905D01*
X169125714Y-100511905D01*
X169049523Y-100550000D01*
X169011428Y-100588095D01*
X168973333Y-100664286D01*
X168973333Y-100778571D01*
X169011428Y-100854762D01*
X169049523Y-100892857D01*
X169125714Y-100930952D01*
X169430476Y-100930952D01*
X168744762Y-100511905D02*
X168287619Y-100511905D01*
X168516190Y-101311905D02*
X168516190Y-100511905D01*
X168020952Y-101311905D02*
X168020952Y-100511905D01*
X167487619Y-100511905D02*
X167335238Y-100511905D01*
X167259047Y-100550000D01*
X167182857Y-100626190D01*
X167144762Y-100778571D01*
X167144762Y-101045238D01*
X167182857Y-101197619D01*
X167259047Y-101273810D01*
X167335238Y-101311905D01*
X167487619Y-101311905D01*
X167563809Y-101273810D01*
X167640000Y-101197619D01*
X167678095Y-101045238D01*
X167678095Y-100778571D01*
X167640000Y-100626190D01*
X167563809Y-100550000D01*
X167487619Y-100511905D01*
X166801905Y-101311905D02*
X166801905Y-100511905D01*
X166344762Y-101311905D01*
X166344762Y-100511905D01*
X166001905Y-101083333D02*
X165620953Y-101083333D01*
X166078096Y-101311905D02*
X165811429Y-100511905D01*
X165544762Y-101311905D01*
X164897143Y-101311905D02*
X165278096Y-101311905D01*
X165278096Y-100511905D01*
X172287619Y-102573810D02*
X172173333Y-102611905D01*
X171982857Y-102611905D01*
X171906667Y-102573810D01*
X171868571Y-102535714D01*
X171830476Y-102459524D01*
X171830476Y-102383333D01*
X171868571Y-102307143D01*
X171906667Y-102269048D01*
X171982857Y-102230952D01*
X172135238Y-102192857D01*
X172211429Y-102154762D01*
X172249524Y-102116667D01*
X172287619Y-102040476D01*
X172287619Y-101964286D01*
X172249524Y-101888095D01*
X172211429Y-101850000D01*
X172135238Y-101811905D01*
X171944762Y-101811905D01*
X171830476Y-101850000D01*
X172059048Y-101697619D02*
X172059048Y-102726190D01*
X171525714Y-101888095D02*
X171487619Y-101850000D01*
X171411428Y-101811905D01*
X171220952Y-101811905D01*
X171144762Y-101850000D01*
X171106666Y-101888095D01*
X171068571Y-101964286D01*
X171068571Y-102040476D01*
X171106666Y-102154762D01*
X171563809Y-102611905D01*
X171068571Y-102611905D01*
X170573333Y-101811905D02*
X170497142Y-101811905D01*
X170420952Y-101850000D01*
X170382857Y-101888095D01*
X170344761Y-101964286D01*
X170306666Y-102116667D01*
X170306666Y-102307143D01*
X170344761Y-102459524D01*
X170382857Y-102535714D01*
X170420952Y-102573810D01*
X170497142Y-102611905D01*
X170573333Y-102611905D01*
X170649523Y-102573810D01*
X170687619Y-102535714D01*
X170725714Y-102459524D01*
X170763809Y-102307143D01*
X170763809Y-102116667D01*
X170725714Y-101964286D01*
X170687619Y-101888095D01*
X170649523Y-101850000D01*
X170573333Y-101811905D01*
X169811428Y-101811905D02*
X169735237Y-101811905D01*
X169659047Y-101850000D01*
X169620952Y-101888095D01*
X169582856Y-101964286D01*
X169544761Y-102116667D01*
X169544761Y-102307143D01*
X169582856Y-102459524D01*
X169620952Y-102535714D01*
X169659047Y-102573810D01*
X169735237Y-102611905D01*
X169811428Y-102611905D01*
X169887618Y-102573810D01*
X169925714Y-102535714D01*
X169963809Y-102459524D01*
X170001904Y-102307143D01*
X170001904Y-102116667D01*
X169963809Y-101964286D01*
X169925714Y-101888095D01*
X169887618Y-101850000D01*
X169811428Y-101811905D01*
X169049523Y-101811905D02*
X168973332Y-101811905D01*
X168897142Y-101850000D01*
X168859047Y-101888095D01*
X168820951Y-101964286D01*
X168782856Y-102116667D01*
X168782856Y-102307143D01*
X168820951Y-102459524D01*
X168859047Y-102535714D01*
X168897142Y-102573810D01*
X168973332Y-102611905D01*
X169049523Y-102611905D01*
X169125713Y-102573810D01*
X169163809Y-102535714D01*
X169201904Y-102459524D01*
X169239999Y-102307143D01*
X169239999Y-102116667D01*
X169201904Y-101964286D01*
X169163809Y-101888095D01*
X169125713Y-101850000D01*
X169049523Y-101811905D01*
X167830475Y-102307143D02*
X167220951Y-102307143D01*
X166268570Y-102573810D02*
X166154284Y-102611905D01*
X165963808Y-102611905D01*
X165887618Y-102573810D01*
X165849522Y-102535714D01*
X165811427Y-102459524D01*
X165811427Y-102383333D01*
X165849522Y-102307143D01*
X165887618Y-102269048D01*
X165963808Y-102230952D01*
X166116189Y-102192857D01*
X166192380Y-102154762D01*
X166230475Y-102116667D01*
X166268570Y-102040476D01*
X166268570Y-101964286D01*
X166230475Y-101888095D01*
X166192380Y-101850000D01*
X166116189Y-101811905D01*
X165925713Y-101811905D01*
X165811427Y-101850000D01*
X166039999Y-101697619D02*
X166039999Y-102726190D01*
X165544760Y-101811905D02*
X165049522Y-101811905D01*
X165316189Y-102116667D01*
X165201903Y-102116667D01*
X165125713Y-102154762D01*
X165087617Y-102192857D01*
X165049522Y-102269048D01*
X165049522Y-102459524D01*
X165087617Y-102535714D01*
X165125713Y-102573810D01*
X165201903Y-102611905D01*
X165430475Y-102611905D01*
X165506665Y-102573810D01*
X165544760Y-102535714D01*
X164439998Y-102192857D02*
X164706665Y-102192857D01*
X164706665Y-102611905D02*
X164706665Y-101811905D01*
X164325712Y-101811905D01*
X163754284Y-102192857D02*
X164020951Y-102192857D01*
X164020951Y-102611905D02*
X164020951Y-101811905D01*
X163639998Y-101811905D01*
X163068570Y-102192857D02*
X163335237Y-102192857D01*
X163335237Y-102611905D02*
X163335237Y-101811905D01*
X162954284Y-101811905D01*
X172287619Y-103873810D02*
X172173333Y-103911905D01*
X171982857Y-103911905D01*
X171906667Y-103873810D01*
X171868571Y-103835714D01*
X171830476Y-103759524D01*
X171830476Y-103683333D01*
X171868571Y-103607143D01*
X171906667Y-103569048D01*
X171982857Y-103530952D01*
X172135238Y-103492857D01*
X172211429Y-103454762D01*
X172249524Y-103416667D01*
X172287619Y-103340476D01*
X172287619Y-103264286D01*
X172249524Y-103188095D01*
X172211429Y-103150000D01*
X172135238Y-103111905D01*
X171944762Y-103111905D01*
X171830476Y-103150000D01*
X172059048Y-102997619D02*
X172059048Y-104026190D01*
X171144762Y-103378571D02*
X171144762Y-103911905D01*
X171335238Y-103073810D02*
X171525714Y-103645238D01*
X171030476Y-103645238D01*
X170573333Y-103111905D02*
X170497142Y-103111905D01*
X170420952Y-103150000D01*
X170382857Y-103188095D01*
X170344761Y-103264286D01*
X170306666Y-103416667D01*
X170306666Y-103607143D01*
X170344761Y-103759524D01*
X170382857Y-103835714D01*
X170420952Y-103873810D01*
X170497142Y-103911905D01*
X170573333Y-103911905D01*
X170649523Y-103873810D01*
X170687619Y-103835714D01*
X170725714Y-103759524D01*
X170763809Y-103607143D01*
X170763809Y-103416667D01*
X170725714Y-103264286D01*
X170687619Y-103188095D01*
X170649523Y-103150000D01*
X170573333Y-103111905D01*
X169811428Y-103111905D02*
X169735237Y-103111905D01*
X169659047Y-103150000D01*
X169620952Y-103188095D01*
X169582856Y-103264286D01*
X169544761Y-103416667D01*
X169544761Y-103607143D01*
X169582856Y-103759524D01*
X169620952Y-103835714D01*
X169659047Y-103873810D01*
X169735237Y-103911905D01*
X169811428Y-103911905D01*
X169887618Y-103873810D01*
X169925714Y-103835714D01*
X169963809Y-103759524D01*
X170001904Y-103607143D01*
X170001904Y-103416667D01*
X169963809Y-103264286D01*
X169925714Y-103188095D01*
X169887618Y-103150000D01*
X169811428Y-103111905D01*
X169049523Y-103111905D02*
X168973332Y-103111905D01*
X168897142Y-103150000D01*
X168859047Y-103188095D01*
X168820951Y-103264286D01*
X168782856Y-103416667D01*
X168782856Y-103607143D01*
X168820951Y-103759524D01*
X168859047Y-103835714D01*
X168897142Y-103873810D01*
X168973332Y-103911905D01*
X169049523Y-103911905D01*
X169125713Y-103873810D01*
X169163809Y-103835714D01*
X169201904Y-103759524D01*
X169239999Y-103607143D01*
X169239999Y-103416667D01*
X169201904Y-103264286D01*
X169163809Y-103188095D01*
X169125713Y-103150000D01*
X169049523Y-103111905D01*
X167830475Y-103607143D02*
X167220951Y-103607143D01*
X166268570Y-103873810D02*
X166154284Y-103911905D01*
X165963808Y-103911905D01*
X165887618Y-103873810D01*
X165849522Y-103835714D01*
X165811427Y-103759524D01*
X165811427Y-103683333D01*
X165849522Y-103607143D01*
X165887618Y-103569048D01*
X165963808Y-103530952D01*
X166116189Y-103492857D01*
X166192380Y-103454762D01*
X166230475Y-103416667D01*
X166268570Y-103340476D01*
X166268570Y-103264286D01*
X166230475Y-103188095D01*
X166192380Y-103150000D01*
X166116189Y-103111905D01*
X165925713Y-103111905D01*
X165811427Y-103150000D01*
X166039999Y-102997619D02*
X166039999Y-104026190D01*
X165087617Y-103111905D02*
X165468570Y-103111905D01*
X165506665Y-103492857D01*
X165468570Y-103454762D01*
X165392379Y-103416667D01*
X165201903Y-103416667D01*
X165125713Y-103454762D01*
X165087617Y-103492857D01*
X165049522Y-103569048D01*
X165049522Y-103759524D01*
X165087617Y-103835714D01*
X165125713Y-103873810D01*
X165201903Y-103911905D01*
X165392379Y-103911905D01*
X165468570Y-103873810D01*
X165506665Y-103835714D01*
X164439998Y-103492857D02*
X164706665Y-103492857D01*
X164706665Y-103911905D02*
X164706665Y-103111905D01*
X164325712Y-103111905D01*
X163754284Y-103492857D02*
X164020951Y-103492857D01*
X164020951Y-103911905D02*
X164020951Y-103111905D01*
X163639998Y-103111905D01*
X163068570Y-103492857D02*
X163335237Y-103492857D01*
X163335237Y-103911905D02*
X163335237Y-103111905D01*
X162954284Y-103111905D01*
X172287619Y-105173810D02*
X172173333Y-105211905D01*
X171982857Y-105211905D01*
X171906667Y-105173810D01*
X171868571Y-105135714D01*
X171830476Y-105059524D01*
X171830476Y-104983333D01*
X171868571Y-104907143D01*
X171906667Y-104869048D01*
X171982857Y-104830952D01*
X172135238Y-104792857D01*
X172211429Y-104754762D01*
X172249524Y-104716667D01*
X172287619Y-104640476D01*
X172287619Y-104564286D01*
X172249524Y-104488095D01*
X172211429Y-104450000D01*
X172135238Y-104411905D01*
X171944762Y-104411905D01*
X171830476Y-104450000D01*
X172059048Y-104297619D02*
X172059048Y-105326190D01*
X171144762Y-104411905D02*
X171297143Y-104411905D01*
X171373333Y-104450000D01*
X171411428Y-104488095D01*
X171487619Y-104602381D01*
X171525714Y-104754762D01*
X171525714Y-105059524D01*
X171487619Y-105135714D01*
X171449524Y-105173810D01*
X171373333Y-105211905D01*
X171220952Y-105211905D01*
X171144762Y-105173810D01*
X171106666Y-105135714D01*
X171068571Y-105059524D01*
X171068571Y-104869048D01*
X171106666Y-104792857D01*
X171144762Y-104754762D01*
X171220952Y-104716667D01*
X171373333Y-104716667D01*
X171449524Y-104754762D01*
X171487619Y-104792857D01*
X171525714Y-104869048D01*
X170573333Y-104411905D02*
X170497142Y-104411905D01*
X170420952Y-104450000D01*
X170382857Y-104488095D01*
X170344761Y-104564286D01*
X170306666Y-104716667D01*
X170306666Y-104907143D01*
X170344761Y-105059524D01*
X170382857Y-105135714D01*
X170420952Y-105173810D01*
X170497142Y-105211905D01*
X170573333Y-105211905D01*
X170649523Y-105173810D01*
X170687619Y-105135714D01*
X170725714Y-105059524D01*
X170763809Y-104907143D01*
X170763809Y-104716667D01*
X170725714Y-104564286D01*
X170687619Y-104488095D01*
X170649523Y-104450000D01*
X170573333Y-104411905D01*
X169811428Y-104411905D02*
X169735237Y-104411905D01*
X169659047Y-104450000D01*
X169620952Y-104488095D01*
X169582856Y-104564286D01*
X169544761Y-104716667D01*
X169544761Y-104907143D01*
X169582856Y-105059524D01*
X169620952Y-105135714D01*
X169659047Y-105173810D01*
X169735237Y-105211905D01*
X169811428Y-105211905D01*
X169887618Y-105173810D01*
X169925714Y-105135714D01*
X169963809Y-105059524D01*
X170001904Y-104907143D01*
X170001904Y-104716667D01*
X169963809Y-104564286D01*
X169925714Y-104488095D01*
X169887618Y-104450000D01*
X169811428Y-104411905D01*
X169049523Y-104411905D02*
X168973332Y-104411905D01*
X168897142Y-104450000D01*
X168859047Y-104488095D01*
X168820951Y-104564286D01*
X168782856Y-104716667D01*
X168782856Y-104907143D01*
X168820951Y-105059524D01*
X168859047Y-105135714D01*
X168897142Y-105173810D01*
X168973332Y-105211905D01*
X169049523Y-105211905D01*
X169125713Y-105173810D01*
X169163809Y-105135714D01*
X169201904Y-105059524D01*
X169239999Y-104907143D01*
X169239999Y-104716667D01*
X169201904Y-104564286D01*
X169163809Y-104488095D01*
X169125713Y-104450000D01*
X169049523Y-104411905D01*
X167830475Y-104907143D02*
X167220951Y-104907143D01*
X166268570Y-105173810D02*
X166154284Y-105211905D01*
X165963808Y-105211905D01*
X165887618Y-105173810D01*
X165849522Y-105135714D01*
X165811427Y-105059524D01*
X165811427Y-104983333D01*
X165849522Y-104907143D01*
X165887618Y-104869048D01*
X165963808Y-104830952D01*
X166116189Y-104792857D01*
X166192380Y-104754762D01*
X166230475Y-104716667D01*
X166268570Y-104640476D01*
X166268570Y-104564286D01*
X166230475Y-104488095D01*
X166192380Y-104450000D01*
X166116189Y-104411905D01*
X165925713Y-104411905D01*
X165811427Y-104450000D01*
X166039999Y-104297619D02*
X166039999Y-105326190D01*
X165544760Y-104411905D02*
X165011427Y-104411905D01*
X165354284Y-105211905D01*
X164439998Y-104792857D02*
X164706665Y-104792857D01*
X164706665Y-105211905D02*
X164706665Y-104411905D01*
X164325712Y-104411905D01*
X163754284Y-104792857D02*
X164020951Y-104792857D01*
X164020951Y-105211905D02*
X164020951Y-104411905D01*
X163639998Y-104411905D01*
X163068570Y-104792857D02*
X163335237Y-104792857D01*
X163335237Y-105211905D02*
X163335237Y-104411905D01*
X162954284Y-104411905D01*
D11*
X172949523Y-95972381D02*
X173140000Y-95972381D01*
X173235238Y-96020000D01*
X173282857Y-96067619D01*
X173378095Y-96210476D01*
X173425714Y-96400952D01*
X173425714Y-96781905D01*
X173378095Y-96877143D01*
X173330476Y-96924762D01*
X173235238Y-96972381D01*
X173044761Y-96972381D01*
X172949523Y-96924762D01*
X172901904Y-96877143D01*
X172854285Y-96781905D01*
X172854285Y-96543810D01*
X172901904Y-96448571D01*
X172949523Y-96400952D01*
X173044761Y-96353333D01*
X173235238Y-96353333D01*
X173330476Y-96400952D01*
X173378095Y-96448571D01*
X173425714Y-96543810D01*
X171949523Y-95972381D02*
X172425714Y-95972381D01*
X172473333Y-96448571D01*
X172425714Y-96400952D01*
X172330476Y-96353333D01*
X172092380Y-96353333D01*
X171997142Y-96400952D01*
X171949523Y-96448571D01*
X171901904Y-96543810D01*
X171901904Y-96781905D01*
X171949523Y-96877143D01*
X171997142Y-96924762D01*
X172092380Y-96972381D01*
X172330476Y-96972381D01*
X172425714Y-96924762D01*
X172473333Y-96877143D01*
X171473333Y-96972381D02*
X171473333Y-95972381D01*
X170901904Y-96972381D02*
X171330476Y-96400952D01*
X170901904Y-95972381D02*
X171473333Y-96543810D01*
X169711428Y-96448571D02*
X169378094Y-96448571D01*
X169235237Y-96972381D02*
X169711428Y-96972381D01*
X169711428Y-95972381D01*
X169235237Y-95972381D01*
X168901904Y-95972381D02*
X168235237Y-96972381D01*
X168235237Y-95972381D02*
X168901904Y-96972381D01*
X167854285Y-96972381D02*
X167854285Y-95972381D01*
X167473332Y-95972381D01*
X167378094Y-96020000D01*
X167330475Y-96067619D01*
X167282856Y-96162857D01*
X167282856Y-96305714D01*
X167330475Y-96400952D01*
X167378094Y-96448571D01*
X167473332Y-96496190D01*
X167854285Y-96496190D01*
X166901904Y-96686667D02*
X166425713Y-96686667D01*
X166997142Y-96972381D02*
X166663809Y-95972381D01*
X166330475Y-96972381D01*
X165997142Y-96972381D02*
X165997142Y-95972381D01*
X165425713Y-96972381D01*
X165425713Y-95972381D01*
X164997142Y-96924762D02*
X164854285Y-96972381D01*
X164616189Y-96972381D01*
X164520951Y-96924762D01*
X164473332Y-96877143D01*
X164425713Y-96781905D01*
X164425713Y-96686667D01*
X164473332Y-96591429D01*
X164520951Y-96543810D01*
X164616189Y-96496190D01*
X164806666Y-96448571D01*
X164901904Y-96400952D01*
X164949523Y-96353333D01*
X164997142Y-96258095D01*
X164997142Y-96162857D01*
X164949523Y-96067619D01*
X164901904Y-96020000D01*
X164806666Y-95972381D01*
X164568570Y-95972381D01*
X164425713Y-96020000D01*
X163997142Y-96972381D02*
X163997142Y-95972381D01*
X163330476Y-95972381D02*
X163139999Y-95972381D01*
X163044761Y-96020000D01*
X162949523Y-96115238D01*
X162901904Y-96305714D01*
X162901904Y-96639048D01*
X162949523Y-96829524D01*
X163044761Y-96924762D01*
X163139999Y-96972381D01*
X163330476Y-96972381D01*
X163425714Y-96924762D01*
X163520952Y-96829524D01*
X163568571Y-96639048D01*
X163568571Y-96305714D01*
X163520952Y-96115238D01*
X163425714Y-96020000D01*
X163330476Y-95972381D01*
X162473333Y-96972381D02*
X162473333Y-95972381D01*
X161901904Y-96972381D01*
X161901904Y-95972381D01*
X198588333Y-121840476D02*
X198588333Y-121364285D01*
X198302619Y-121935714D02*
X199302619Y-121602381D01*
X198302619Y-121269047D01*
X198302619Y-120411904D02*
X198302619Y-120983333D01*
X198302619Y-120697619D02*
X199302619Y-120697619D01*
X199159762Y-120792857D01*
X199064524Y-120888095D01*
X199016905Y-120983333D01*
X198969286Y-119554761D02*
X198302619Y-119554761D01*
X199350238Y-119792857D02*
X198635952Y-120030952D01*
X198635952Y-119411904D01*
X186523333Y-121840476D02*
X186523333Y-121364285D01*
X186237619Y-121935714D02*
X187237619Y-121602381D01*
X186237619Y-121269047D01*
X186237619Y-120411904D02*
X186237619Y-120983333D01*
X186237619Y-120697619D02*
X187237619Y-120697619D01*
X187094762Y-120792857D01*
X186999524Y-120888095D01*
X186951905Y-120983333D01*
X187237619Y-120078571D02*
X187237619Y-119459523D01*
X186856667Y-119792857D01*
X186856667Y-119649999D01*
X186809048Y-119554761D01*
X186761429Y-119507142D01*
X186666190Y-119459523D01*
X186428095Y-119459523D01*
X186332857Y-119507142D01*
X186285238Y-119554761D01*
X186237619Y-119649999D01*
X186237619Y-119935714D01*
X186285238Y-120030952D01*
X186332857Y-120078571D01*
D12*
X163830000Y-143510000D02*
X176530000Y-143510000D01*
X163830000Y-136525000D02*
X163830000Y-143510000D01*
X176530000Y-136525000D02*
X163830000Y-136525000D01*
D10*
X175722857Y-138791905D02*
X175722857Y-137991905D01*
X175456190Y-138563333D01*
X175189523Y-137991905D01*
X175189523Y-138791905D01*
X174808571Y-138372857D02*
X174541904Y-138372857D01*
X174427618Y-138791905D02*
X174808571Y-138791905D01*
X174808571Y-137991905D01*
X174427618Y-137991905D01*
X174084761Y-138791905D02*
X174084761Y-137991905D01*
X173818094Y-138563333D01*
X173551427Y-137991905D01*
X173551427Y-138791905D01*
X173018094Y-137991905D02*
X172865713Y-137991905D01*
X172789522Y-138030000D01*
X172713332Y-138106190D01*
X172675237Y-138258571D01*
X172675237Y-138525238D01*
X172713332Y-138677619D01*
X172789522Y-138753810D01*
X172865713Y-138791905D01*
X173018094Y-138791905D01*
X173094284Y-138753810D01*
X173170475Y-138677619D01*
X173208570Y-138525238D01*
X173208570Y-138258571D01*
X173170475Y-138106190D01*
X173094284Y-138030000D01*
X173018094Y-137991905D01*
X171875237Y-138791905D02*
X172141904Y-138410952D01*
X172332380Y-138791905D02*
X172332380Y-137991905D01*
X172027618Y-137991905D01*
X171951427Y-138030000D01*
X171913332Y-138068095D01*
X171875237Y-138144286D01*
X171875237Y-138258571D01*
X171913332Y-138334762D01*
X171951427Y-138372857D01*
X172027618Y-138410952D01*
X172332380Y-138410952D01*
X171379999Y-138410952D02*
X171379999Y-138791905D01*
X171646666Y-137991905D02*
X171379999Y-138410952D01*
X171113332Y-137991905D01*
X170237142Y-138791905D02*
X170237142Y-137991905D01*
X170046666Y-137991905D01*
X169932380Y-138030000D01*
X169856189Y-138106190D01*
X169818094Y-138182381D01*
X169779999Y-138334762D01*
X169779999Y-138449048D01*
X169818094Y-138601429D01*
X169856189Y-138677619D01*
X169932380Y-138753810D01*
X170046666Y-138791905D01*
X170237142Y-138791905D01*
X169437142Y-138372857D02*
X169170475Y-138372857D01*
X169056189Y-138791905D02*
X169437142Y-138791905D01*
X169437142Y-137991905D01*
X169056189Y-137991905D01*
X168256189Y-138715714D02*
X168294284Y-138753810D01*
X168408570Y-138791905D01*
X168484760Y-138791905D01*
X168599046Y-138753810D01*
X168675237Y-138677619D01*
X168713332Y-138601429D01*
X168751427Y-138449048D01*
X168751427Y-138334762D01*
X168713332Y-138182381D01*
X168675237Y-138106190D01*
X168599046Y-138030000D01*
X168484760Y-137991905D01*
X168408570Y-137991905D01*
X168294284Y-138030000D01*
X168256189Y-138068095D01*
X167760951Y-137991905D02*
X167608570Y-137991905D01*
X167532379Y-138030000D01*
X167456189Y-138106190D01*
X167418094Y-138258571D01*
X167418094Y-138525238D01*
X167456189Y-138677619D01*
X167532379Y-138753810D01*
X167608570Y-138791905D01*
X167760951Y-138791905D01*
X167837141Y-138753810D01*
X167913332Y-138677619D01*
X167951427Y-138525238D01*
X167951427Y-138258571D01*
X167913332Y-138106190D01*
X167837141Y-138030000D01*
X167760951Y-137991905D01*
X167075237Y-138791905D02*
X167075237Y-137991905D01*
X166884761Y-137991905D01*
X166770475Y-138030000D01*
X166694284Y-138106190D01*
X166656189Y-138182381D01*
X166618094Y-138334762D01*
X166618094Y-138449048D01*
X166656189Y-138601429D01*
X166694284Y-138677619D01*
X166770475Y-138753810D01*
X166884761Y-138791905D01*
X167075237Y-138791905D01*
X166275237Y-138791905D02*
X166275237Y-137991905D01*
X165894285Y-138791905D02*
X165894285Y-137991905D01*
X165437142Y-138791905D01*
X165437142Y-137991905D01*
X164637142Y-138030000D02*
X164713333Y-137991905D01*
X164827618Y-137991905D01*
X164941904Y-138030000D01*
X165018095Y-138106190D01*
X165056190Y-138182381D01*
X165094285Y-138334762D01*
X165094285Y-138449048D01*
X165056190Y-138601429D01*
X165018095Y-138677619D01*
X164941904Y-138753810D01*
X164827618Y-138791905D01*
X164751428Y-138791905D01*
X164637142Y-138753810D01*
X164599047Y-138715714D01*
X164599047Y-138449048D01*
X164751428Y-138449048D01*
X175920476Y-141316905D02*
X176377619Y-141316905D01*
X176149048Y-141316905D02*
X176149048Y-140516905D01*
X176225238Y-140631190D01*
X176301429Y-140707381D01*
X176377619Y-140745476D01*
X175577619Y-141012143D02*
X174968095Y-141012143D01*
X174625238Y-140593095D02*
X174587143Y-140555000D01*
X174510952Y-140516905D01*
X174320476Y-140516905D01*
X174244286Y-140555000D01*
X174206190Y-140593095D01*
X174168095Y-140669286D01*
X174168095Y-140745476D01*
X174206190Y-140859762D01*
X174663333Y-141316905D01*
X174168095Y-141316905D01*
X173253809Y-141278810D02*
X173139523Y-141316905D01*
X172949047Y-141316905D01*
X172872857Y-141278810D01*
X172834761Y-141240714D01*
X172796666Y-141164524D01*
X172796666Y-141088333D01*
X172834761Y-141012143D01*
X172872857Y-140974048D01*
X172949047Y-140935952D01*
X173101428Y-140897857D01*
X173177619Y-140859762D01*
X173215714Y-140821667D01*
X173253809Y-140745476D01*
X173253809Y-140669286D01*
X173215714Y-140593095D01*
X173177619Y-140555000D01*
X173101428Y-140516905D01*
X172910952Y-140516905D01*
X172796666Y-140555000D01*
X172568095Y-140783571D02*
X172263333Y-140783571D01*
X172453809Y-140516905D02*
X172453809Y-141202619D01*
X172415714Y-141278810D01*
X172339523Y-141316905D01*
X172263333Y-141316905D01*
X171653809Y-141316905D02*
X171653809Y-140897857D01*
X171691904Y-140821667D01*
X171768094Y-140783571D01*
X171920475Y-140783571D01*
X171996666Y-140821667D01*
X171653809Y-141278810D02*
X171729999Y-141316905D01*
X171920475Y-141316905D01*
X171996666Y-141278810D01*
X172034761Y-141202619D01*
X172034761Y-141126429D01*
X171996666Y-141050238D01*
X171920475Y-141012143D01*
X171729999Y-141012143D01*
X171653809Y-140974048D01*
X171272856Y-140783571D02*
X171272856Y-141316905D01*
X171272856Y-140859762D02*
X171234761Y-140821667D01*
X171158570Y-140783571D01*
X171044284Y-140783571D01*
X170968094Y-140821667D01*
X170929999Y-140897857D01*
X170929999Y-141316905D01*
X170206189Y-141316905D02*
X170206189Y-140516905D01*
X170206189Y-141278810D02*
X170282379Y-141316905D01*
X170434760Y-141316905D01*
X170510951Y-141278810D01*
X170549046Y-141240714D01*
X170587141Y-141164524D01*
X170587141Y-140935952D01*
X170549046Y-140859762D01*
X170510951Y-140821667D01*
X170434760Y-140783571D01*
X170282379Y-140783571D01*
X170206189Y-140821667D01*
X169482379Y-141316905D02*
X169482379Y-140897857D01*
X169520474Y-140821667D01*
X169596664Y-140783571D01*
X169749045Y-140783571D01*
X169825236Y-140821667D01*
X169482379Y-141278810D02*
X169558569Y-141316905D01*
X169749045Y-141316905D01*
X169825236Y-141278810D01*
X169863331Y-141202619D01*
X169863331Y-141126429D01*
X169825236Y-141050238D01*
X169749045Y-141012143D01*
X169558569Y-141012143D01*
X169482379Y-140974048D01*
X168987140Y-141316905D02*
X169063331Y-141278810D01*
X169101426Y-141202619D01*
X169101426Y-140516905D01*
X168568092Y-141316905D02*
X168644283Y-141278810D01*
X168682378Y-141240714D01*
X168720473Y-141164524D01*
X168720473Y-140935952D01*
X168682378Y-140859762D01*
X168644283Y-140821667D01*
X168568092Y-140783571D01*
X168453806Y-140783571D01*
X168377616Y-140821667D01*
X168339521Y-140859762D01*
X168301425Y-140935952D01*
X168301425Y-141164524D01*
X168339521Y-141240714D01*
X168377616Y-141278810D01*
X168453806Y-141316905D01*
X168568092Y-141316905D01*
X167958568Y-140783571D02*
X167958568Y-141316905D01*
X167958568Y-140859762D02*
X167920473Y-140821667D01*
X167844282Y-140783571D01*
X167729996Y-140783571D01*
X167653806Y-140821667D01*
X167615711Y-140897857D01*
X167615711Y-141316905D01*
X166929996Y-141278810D02*
X167006186Y-141316905D01*
X167158567Y-141316905D01*
X167234758Y-141278810D01*
X167272853Y-141202619D01*
X167272853Y-140897857D01*
X167234758Y-140821667D01*
X167158567Y-140783571D01*
X167006186Y-140783571D01*
X166929996Y-140821667D01*
X166891901Y-140897857D01*
X166891901Y-140974048D01*
X167272853Y-141050238D01*
X176377619Y-141893095D02*
X176339524Y-141855000D01*
X176263333Y-141816905D01*
X176072857Y-141816905D01*
X175996667Y-141855000D01*
X175958571Y-141893095D01*
X175920476Y-141969286D01*
X175920476Y-142045476D01*
X175958571Y-142159762D01*
X176415714Y-142616905D01*
X175920476Y-142616905D01*
X175577619Y-142312143D02*
X174968095Y-142312143D01*
X174663333Y-141816905D02*
X174168095Y-141816905D01*
X174434762Y-142121667D01*
X174320476Y-142121667D01*
X174244286Y-142159762D01*
X174206190Y-142197857D01*
X174168095Y-142274048D01*
X174168095Y-142464524D01*
X174206190Y-142540714D01*
X174244286Y-142578810D01*
X174320476Y-142616905D01*
X174549048Y-142616905D01*
X174625238Y-142578810D01*
X174663333Y-142540714D01*
X172872857Y-141816905D02*
X173025238Y-141816905D01*
X173101428Y-141855000D01*
X173139523Y-141893095D01*
X173215714Y-142007381D01*
X173253809Y-142159762D01*
X173253809Y-142464524D01*
X173215714Y-142540714D01*
X173177619Y-142578810D01*
X173101428Y-142616905D01*
X172949047Y-142616905D01*
X172872857Y-142578810D01*
X172834761Y-142540714D01*
X172796666Y-142464524D01*
X172796666Y-142274048D01*
X172834761Y-142197857D01*
X172872857Y-142159762D01*
X172949047Y-142121667D01*
X173101428Y-142121667D01*
X173177619Y-142159762D01*
X173215714Y-142197857D01*
X173253809Y-142274048D01*
X172072856Y-141816905D02*
X172453809Y-141816905D01*
X172491904Y-142197857D01*
X172453809Y-142159762D01*
X172377618Y-142121667D01*
X172187142Y-142121667D01*
X172110952Y-142159762D01*
X172072856Y-142197857D01*
X172034761Y-142274048D01*
X172034761Y-142464524D01*
X172072856Y-142540714D01*
X172110952Y-142578810D01*
X172187142Y-142616905D01*
X172377618Y-142616905D01*
X172453809Y-142578810D01*
X172491904Y-142540714D01*
X171691904Y-142616905D02*
X171691904Y-141816905D01*
X171234761Y-142616905D02*
X171577618Y-142159762D01*
X171234761Y-141816905D02*
X171691904Y-142274048D01*
X170282380Y-142197857D02*
X170015713Y-142197857D01*
X169901427Y-142616905D02*
X170282380Y-142616905D01*
X170282380Y-141816905D01*
X169901427Y-141816905D01*
X169634760Y-142616905D02*
X169215713Y-142083571D01*
X169634760Y-142083571D02*
X169215713Y-142616905D01*
X168910951Y-142083571D02*
X168910951Y-142883571D01*
X168910951Y-142121667D02*
X168834760Y-142083571D01*
X168682379Y-142083571D01*
X168606189Y-142121667D01*
X168568094Y-142159762D01*
X168529998Y-142235952D01*
X168529998Y-142464524D01*
X168568094Y-142540714D01*
X168606189Y-142578810D01*
X168682379Y-142616905D01*
X168834760Y-142616905D01*
X168910951Y-142578810D01*
X167844284Y-142616905D02*
X167844284Y-142197857D01*
X167882379Y-142121667D01*
X167958569Y-142083571D01*
X168110950Y-142083571D01*
X168187141Y-142121667D01*
X167844284Y-142578810D02*
X167920474Y-142616905D01*
X168110950Y-142616905D01*
X168187141Y-142578810D01*
X168225236Y-142502619D01*
X168225236Y-142426429D01*
X168187141Y-142350238D01*
X168110950Y-142312143D01*
X167920474Y-142312143D01*
X167844284Y-142274048D01*
X167463331Y-142083571D02*
X167463331Y-142616905D01*
X167463331Y-142159762D02*
X167425236Y-142121667D01*
X167349045Y-142083571D01*
X167234759Y-142083571D01*
X167158569Y-142121667D01*
X167120474Y-142197857D01*
X167120474Y-142616905D01*
X166777616Y-142578810D02*
X166701426Y-142616905D01*
X166549045Y-142616905D01*
X166472854Y-142578810D01*
X166434759Y-142502619D01*
X166434759Y-142464524D01*
X166472854Y-142388333D01*
X166549045Y-142350238D01*
X166663330Y-142350238D01*
X166739521Y-142312143D01*
X166777616Y-142235952D01*
X166777616Y-142197857D01*
X166739521Y-142121667D01*
X166663330Y-142083571D01*
X166549045Y-142083571D01*
X166472854Y-142121667D01*
X166091902Y-142616905D02*
X166091902Y-142083571D01*
X166091902Y-141816905D02*
X166129997Y-141855000D01*
X166091902Y-141893095D01*
X166053807Y-141855000D01*
X166091902Y-141816905D01*
X166091902Y-141893095D01*
X165596664Y-142616905D02*
X165672855Y-142578810D01*
X165710950Y-142540714D01*
X165749045Y-142464524D01*
X165749045Y-142235952D01*
X165710950Y-142159762D01*
X165672855Y-142121667D01*
X165596664Y-142083571D01*
X165482378Y-142083571D01*
X165406188Y-142121667D01*
X165368093Y-142159762D01*
X165329997Y-142235952D01*
X165329997Y-142464524D01*
X165368093Y-142540714D01*
X165406188Y-142578810D01*
X165482378Y-142616905D01*
X165596664Y-142616905D01*
X164987140Y-142083571D02*
X164987140Y-142616905D01*
X164987140Y-142159762D02*
X164949045Y-142121667D01*
X164872854Y-142083571D01*
X164758568Y-142083571D01*
X164682378Y-142121667D01*
X164644283Y-142197857D01*
X164644283Y-142616905D01*
X150939524Y-98696905D02*
X150939524Y-97896905D01*
X150482381Y-98696905D01*
X150482381Y-97896905D01*
X150101429Y-98696905D02*
X150101429Y-97896905D01*
X149834762Y-98468333D01*
X149568095Y-97896905D01*
X149568095Y-98696905D01*
X149187143Y-98696905D02*
X149187143Y-97896905D01*
X150482381Y-102596905D02*
X150749048Y-102215952D01*
X150939524Y-102596905D02*
X150939524Y-101796905D01*
X150634762Y-101796905D01*
X150558571Y-101835000D01*
X150520476Y-101873095D01*
X150482381Y-101949286D01*
X150482381Y-102063571D01*
X150520476Y-102139762D01*
X150558571Y-102177857D01*
X150634762Y-102215952D01*
X150939524Y-102215952D01*
X150177619Y-102558810D02*
X150063333Y-102596905D01*
X149872857Y-102596905D01*
X149796667Y-102558810D01*
X149758571Y-102520714D01*
X149720476Y-102444524D01*
X149720476Y-102368333D01*
X149758571Y-102292143D01*
X149796667Y-102254048D01*
X149872857Y-102215952D01*
X150025238Y-102177857D01*
X150101429Y-102139762D01*
X150139524Y-102101667D01*
X150177619Y-102025476D01*
X150177619Y-101949286D01*
X150139524Y-101873095D01*
X150101429Y-101835000D01*
X150025238Y-101796905D01*
X149834762Y-101796905D01*
X149720476Y-101835000D01*
X149491905Y-101796905D02*
X149034762Y-101796905D01*
X149263333Y-102596905D02*
X149263333Y-101796905D01*
X150939524Y-106496905D02*
X150939524Y-105696905D01*
X150101429Y-106496905D02*
X150368096Y-106115952D01*
X150558572Y-106496905D02*
X150558572Y-105696905D01*
X150253810Y-105696905D01*
X150177619Y-105735000D01*
X150139524Y-105773095D01*
X150101429Y-105849286D01*
X150101429Y-105963571D01*
X150139524Y-106039762D01*
X150177619Y-106077857D01*
X150253810Y-106115952D01*
X150558572Y-106115952D01*
X149225238Y-106573095D02*
X149301429Y-106535000D01*
X149377619Y-106458810D01*
X149491905Y-106344524D01*
X149568096Y-106306429D01*
X149644286Y-106306429D01*
X149606191Y-106496905D02*
X149682381Y-106458810D01*
X149758572Y-106382619D01*
X149796667Y-106230238D01*
X149796667Y-105963571D01*
X149758572Y-105811190D01*
X149682381Y-105735000D01*
X149606191Y-105696905D01*
X149453810Y-105696905D01*
X149377619Y-105735000D01*
X149301429Y-105811190D01*
X149263334Y-105963571D01*
X149263334Y-106230238D01*
X149301429Y-106382619D01*
X149377619Y-106458810D01*
X149453810Y-106496905D01*
X149606191Y-106496905D01*
X146862380Y-98658810D02*
X146748094Y-98696905D01*
X146557618Y-98696905D01*
X146481428Y-98658810D01*
X146443332Y-98620714D01*
X146405237Y-98544524D01*
X146405237Y-98468333D01*
X146443332Y-98392143D01*
X146481428Y-98354048D01*
X146557618Y-98315952D01*
X146709999Y-98277857D01*
X146786190Y-98239762D01*
X146824285Y-98201667D01*
X146862380Y-98125476D01*
X146862380Y-98049286D01*
X146824285Y-97973095D01*
X146786190Y-97935000D01*
X146709999Y-97896905D01*
X146519523Y-97896905D01*
X146405237Y-97935000D01*
X146633809Y-97782619D02*
X146633809Y-98811190D01*
X145795713Y-98277857D02*
X146062380Y-98277857D01*
X146062380Y-98696905D02*
X146062380Y-97896905D01*
X145681427Y-97896905D01*
X145109999Y-98277857D02*
X145376666Y-98277857D01*
X145376666Y-98696905D02*
X145376666Y-97896905D01*
X144995713Y-97896905D01*
X144424285Y-98277857D02*
X144690952Y-98277857D01*
X144690952Y-98696905D02*
X144690952Y-97896905D01*
X144309999Y-97896905D01*
X144043333Y-98468333D02*
X143662381Y-98468333D01*
X144119524Y-98696905D02*
X143852857Y-97896905D01*
X143586190Y-98696905D01*
X147014762Y-99958810D02*
X146900476Y-99996905D01*
X146710000Y-99996905D01*
X146633810Y-99958810D01*
X146595714Y-99920714D01*
X146557619Y-99844524D01*
X146557619Y-99768333D01*
X146595714Y-99692143D01*
X146633810Y-99654048D01*
X146710000Y-99615952D01*
X146862381Y-99577857D01*
X146938572Y-99539762D01*
X146976667Y-99501667D01*
X147014762Y-99425476D01*
X147014762Y-99349286D01*
X146976667Y-99273095D01*
X146938572Y-99235000D01*
X146862381Y-99196905D01*
X146671905Y-99196905D01*
X146557619Y-99235000D01*
X146786191Y-99082619D02*
X146786191Y-100111190D01*
X145795714Y-99996905D02*
X146252857Y-99996905D01*
X146024286Y-99996905D02*
X146024286Y-99196905D01*
X146100476Y-99311190D01*
X146176667Y-99387381D01*
X146252857Y-99425476D01*
X145529047Y-99196905D02*
X144995714Y-99196905D01*
X145338571Y-99996905D01*
X144424285Y-99577857D02*
X144690952Y-99577857D01*
X144690952Y-99996905D02*
X144690952Y-99196905D01*
X144309999Y-99196905D01*
X144043333Y-99768333D02*
X143662381Y-99768333D01*
X144119524Y-99996905D02*
X143852857Y-99196905D01*
X143586190Y-99996905D01*
X146976666Y-102558810D02*
X146862380Y-102596905D01*
X146671904Y-102596905D01*
X146595714Y-102558810D01*
X146557618Y-102520714D01*
X146519523Y-102444524D01*
X146519523Y-102368333D01*
X146557618Y-102292143D01*
X146595714Y-102254048D01*
X146671904Y-102215952D01*
X146824285Y-102177857D01*
X146900476Y-102139762D01*
X146938571Y-102101667D01*
X146976666Y-102025476D01*
X146976666Y-101949286D01*
X146938571Y-101873095D01*
X146900476Y-101835000D01*
X146824285Y-101796905D01*
X146633809Y-101796905D01*
X146519523Y-101835000D01*
X146748095Y-101682619D02*
X146748095Y-102711190D01*
X145909999Y-102177857D02*
X146176666Y-102177857D01*
X146176666Y-102596905D02*
X146176666Y-101796905D01*
X145795713Y-101796905D01*
X145224285Y-102177857D02*
X145490952Y-102177857D01*
X145490952Y-102596905D02*
X145490952Y-101796905D01*
X145109999Y-101796905D01*
X144538571Y-102177857D02*
X144805238Y-102177857D01*
X144805238Y-102596905D02*
X144805238Y-101796905D01*
X144424285Y-101796905D01*
X143662381Y-102520714D02*
X143700476Y-102558810D01*
X143814762Y-102596905D01*
X143890952Y-102596905D01*
X144005238Y-102558810D01*
X144081429Y-102482619D01*
X144119524Y-102406429D01*
X144157619Y-102254048D01*
X144157619Y-102139762D01*
X144119524Y-101987381D01*
X144081429Y-101911190D01*
X144005238Y-101835000D01*
X143890952Y-101796905D01*
X143814762Y-101796905D01*
X143700476Y-101835000D01*
X143662381Y-101873095D01*
X146900476Y-105158810D02*
X146786190Y-105196905D01*
X146595714Y-105196905D01*
X146519524Y-105158810D01*
X146481428Y-105120714D01*
X146443333Y-105044524D01*
X146443333Y-104968333D01*
X146481428Y-104892143D01*
X146519524Y-104854048D01*
X146595714Y-104815952D01*
X146748095Y-104777857D01*
X146824286Y-104739762D01*
X146862381Y-104701667D01*
X146900476Y-104625476D01*
X146900476Y-104549286D01*
X146862381Y-104473095D01*
X146824286Y-104435000D01*
X146748095Y-104396905D01*
X146557619Y-104396905D01*
X146443333Y-104435000D01*
X146671905Y-104282619D02*
X146671905Y-105311190D01*
X145833809Y-104777857D02*
X146100476Y-104777857D01*
X146100476Y-105196905D02*
X146100476Y-104396905D01*
X145719523Y-104396905D01*
X145148095Y-104777857D02*
X145414762Y-104777857D01*
X145414762Y-105196905D02*
X145414762Y-104396905D01*
X145033809Y-104396905D01*
X144462381Y-104777857D02*
X144729048Y-104777857D01*
X144729048Y-105196905D02*
X144729048Y-104396905D01*
X144348095Y-104396905D01*
X144043334Y-104777857D02*
X143776667Y-104777857D01*
X143662381Y-105196905D02*
X144043334Y-105196905D01*
X144043334Y-104396905D01*
X143662381Y-104396905D01*
X147052858Y-106458810D02*
X146938572Y-106496905D01*
X146748096Y-106496905D01*
X146671906Y-106458810D01*
X146633810Y-106420714D01*
X146595715Y-106344524D01*
X146595715Y-106268333D01*
X146633810Y-106192143D01*
X146671906Y-106154048D01*
X146748096Y-106115952D01*
X146900477Y-106077857D01*
X146976668Y-106039762D01*
X147014763Y-106001667D01*
X147052858Y-105925476D01*
X147052858Y-105849286D01*
X147014763Y-105773095D01*
X146976668Y-105735000D01*
X146900477Y-105696905D01*
X146710001Y-105696905D01*
X146595715Y-105735000D01*
X146824287Y-105582619D02*
X146824287Y-106611190D01*
X145833810Y-106496905D02*
X146290953Y-106496905D01*
X146062382Y-106496905D02*
X146062382Y-105696905D01*
X146138572Y-105811190D01*
X146214763Y-105887381D01*
X146290953Y-105925476D01*
X145567143Y-105696905D02*
X145033810Y-105696905D01*
X145376667Y-106496905D01*
X144462381Y-106077857D02*
X144729048Y-106077857D01*
X144729048Y-106496905D02*
X144729048Y-105696905D01*
X144348095Y-105696905D01*
X144043334Y-106077857D02*
X143776667Y-106077857D01*
X143662381Y-106496905D02*
X144043334Y-106496905D01*
X144043334Y-105696905D01*
X143662381Y-105696905D01*
D11*
X147946667Y-95972381D02*
X147613334Y-96972381D01*
X147280000Y-95972381D01*
X146946667Y-96448571D02*
X146613333Y-96448571D01*
X146470476Y-96972381D02*
X146946667Y-96972381D01*
X146946667Y-95972381D01*
X146470476Y-95972381D01*
X145470476Y-96877143D02*
X145518095Y-96924762D01*
X145660952Y-96972381D01*
X145756190Y-96972381D01*
X145899048Y-96924762D01*
X145994286Y-96829524D01*
X146041905Y-96734286D01*
X146089524Y-96543810D01*
X146089524Y-96400952D01*
X146041905Y-96210476D01*
X145994286Y-96115238D01*
X145899048Y-96020000D01*
X145756190Y-95972381D01*
X145660952Y-95972381D01*
X145518095Y-96020000D01*
X145470476Y-96067619D01*
X145184762Y-95972381D02*
X144613333Y-95972381D01*
X144899048Y-96972381D02*
X144899048Y-95972381D01*
X144089524Y-95972381D02*
X143899047Y-95972381D01*
X143803809Y-96020000D01*
X143708571Y-96115238D01*
X143660952Y-96305714D01*
X143660952Y-96639048D01*
X143708571Y-96829524D01*
X143803809Y-96924762D01*
X143899047Y-96972381D01*
X144089524Y-96972381D01*
X144184762Y-96924762D01*
X144280000Y-96829524D01*
X144327619Y-96639048D01*
X144327619Y-96305714D01*
X144280000Y-96115238D01*
X144184762Y-96020000D01*
X144089524Y-95972381D01*
X142660952Y-96972381D02*
X142994286Y-96496190D01*
X143232381Y-96972381D02*
X143232381Y-95972381D01*
X142851428Y-95972381D01*
X142756190Y-96020000D01*
X142708571Y-96067619D01*
X142660952Y-96162857D01*
X142660952Y-96305714D01*
X142708571Y-96400952D01*
X142756190Y-96448571D01*
X142851428Y-96496190D01*
X143232381Y-96496190D01*
X142280000Y-96924762D02*
X142137143Y-96972381D01*
X141899047Y-96972381D01*
X141803809Y-96924762D01*
X141756190Y-96877143D01*
X141708571Y-96781905D01*
X141708571Y-96686667D01*
X141756190Y-96591429D01*
X141803809Y-96543810D01*
X141899047Y-96496190D01*
X142089524Y-96448571D01*
X142184762Y-96400952D01*
X142232381Y-96353333D01*
X142280000Y-96258095D01*
X142280000Y-96162857D01*
X142232381Y-96067619D01*
X142184762Y-96020000D01*
X142089524Y-95972381D01*
X141851428Y-95972381D01*
X141708571Y-96020000D01*
D10*
X141896666Y-98658810D02*
X141782380Y-98696905D01*
X141591904Y-98696905D01*
X141515714Y-98658810D01*
X141477618Y-98620714D01*
X141439523Y-98544524D01*
X141439523Y-98468333D01*
X141477618Y-98392143D01*
X141515714Y-98354048D01*
X141591904Y-98315952D01*
X141744285Y-98277857D01*
X141820476Y-98239762D01*
X141858571Y-98201667D01*
X141896666Y-98125476D01*
X141896666Y-98049286D01*
X141858571Y-97973095D01*
X141820476Y-97935000D01*
X141744285Y-97896905D01*
X141553809Y-97896905D01*
X141439523Y-97935000D01*
X141668095Y-97782619D02*
X141668095Y-98811190D01*
X140829999Y-98277857D02*
X141096666Y-98277857D01*
X141096666Y-98696905D02*
X141096666Y-97896905D01*
X140715713Y-97896905D01*
X140144285Y-98277857D02*
X140410952Y-98277857D01*
X140410952Y-98696905D02*
X140410952Y-97896905D01*
X140029999Y-97896905D01*
X139458571Y-98277857D02*
X139725238Y-98277857D01*
X139725238Y-98696905D02*
X139725238Y-97896905D01*
X139344285Y-97896905D01*
X138772857Y-98277857D02*
X138658571Y-98315952D01*
X138620476Y-98354048D01*
X138582381Y-98430238D01*
X138582381Y-98544524D01*
X138620476Y-98620714D01*
X138658571Y-98658810D01*
X138734762Y-98696905D01*
X139039524Y-98696905D01*
X139039524Y-97896905D01*
X138772857Y-97896905D01*
X138696667Y-97935000D01*
X138658571Y-97973095D01*
X138620476Y-98049286D01*
X138620476Y-98125476D01*
X138658571Y-98201667D01*
X138696667Y-98239762D01*
X138772857Y-98277857D01*
X139039524Y-98277857D01*
X142049048Y-99958810D02*
X141934762Y-99996905D01*
X141744286Y-99996905D01*
X141668096Y-99958810D01*
X141630000Y-99920714D01*
X141591905Y-99844524D01*
X141591905Y-99768333D01*
X141630000Y-99692143D01*
X141668096Y-99654048D01*
X141744286Y-99615952D01*
X141896667Y-99577857D01*
X141972858Y-99539762D01*
X142010953Y-99501667D01*
X142049048Y-99425476D01*
X142049048Y-99349286D01*
X142010953Y-99273095D01*
X141972858Y-99235000D01*
X141896667Y-99196905D01*
X141706191Y-99196905D01*
X141591905Y-99235000D01*
X141820477Y-99082619D02*
X141820477Y-100111190D01*
X140830000Y-99996905D02*
X141287143Y-99996905D01*
X141058572Y-99996905D02*
X141058572Y-99196905D01*
X141134762Y-99311190D01*
X141210953Y-99387381D01*
X141287143Y-99425476D01*
X140563333Y-99196905D02*
X140030000Y-99196905D01*
X140372857Y-99996905D01*
X139458571Y-99577857D02*
X139725238Y-99577857D01*
X139725238Y-99996905D02*
X139725238Y-99196905D01*
X139344285Y-99196905D01*
X138772857Y-99577857D02*
X138658571Y-99615952D01*
X138620476Y-99654048D01*
X138582381Y-99730238D01*
X138582381Y-99844524D01*
X138620476Y-99920714D01*
X138658571Y-99958810D01*
X138734762Y-99996905D01*
X139039524Y-99996905D01*
X139039524Y-99196905D01*
X138772857Y-99196905D01*
X138696667Y-99235000D01*
X138658571Y-99273095D01*
X138620476Y-99349286D01*
X138620476Y-99425476D01*
X138658571Y-99501667D01*
X138696667Y-99539762D01*
X138772857Y-99577857D01*
X139039524Y-99577857D01*
X141896666Y-102558810D02*
X141782380Y-102596905D01*
X141591904Y-102596905D01*
X141515714Y-102558810D01*
X141477618Y-102520714D01*
X141439523Y-102444524D01*
X141439523Y-102368333D01*
X141477618Y-102292143D01*
X141515714Y-102254048D01*
X141591904Y-102215952D01*
X141744285Y-102177857D01*
X141820476Y-102139762D01*
X141858571Y-102101667D01*
X141896666Y-102025476D01*
X141896666Y-101949286D01*
X141858571Y-101873095D01*
X141820476Y-101835000D01*
X141744285Y-101796905D01*
X141553809Y-101796905D01*
X141439523Y-101835000D01*
X141668095Y-101682619D02*
X141668095Y-102711190D01*
X140829999Y-102177857D02*
X141096666Y-102177857D01*
X141096666Y-102596905D02*
X141096666Y-101796905D01*
X140715713Y-101796905D01*
X140144285Y-102177857D02*
X140410952Y-102177857D01*
X140410952Y-102596905D02*
X140410952Y-101796905D01*
X140029999Y-101796905D01*
X139458571Y-102177857D02*
X139725238Y-102177857D01*
X139725238Y-102596905D02*
X139725238Y-101796905D01*
X139344285Y-101796905D01*
X139039524Y-102596905D02*
X139039524Y-101796905D01*
X138849048Y-101796905D01*
X138734762Y-101835000D01*
X138658571Y-101911190D01*
X138620476Y-101987381D01*
X138582381Y-102139762D01*
X138582381Y-102254048D01*
X138620476Y-102406429D01*
X138658571Y-102482619D01*
X138734762Y-102558810D01*
X138849048Y-102596905D01*
X139039524Y-102596905D01*
X141782380Y-105158810D02*
X141668094Y-105196905D01*
X141477618Y-105196905D01*
X141401428Y-105158810D01*
X141363332Y-105120714D01*
X141325237Y-105044524D01*
X141325237Y-104968333D01*
X141363332Y-104892143D01*
X141401428Y-104854048D01*
X141477618Y-104815952D01*
X141629999Y-104777857D01*
X141706190Y-104739762D01*
X141744285Y-104701667D01*
X141782380Y-104625476D01*
X141782380Y-104549286D01*
X141744285Y-104473095D01*
X141706190Y-104435000D01*
X141629999Y-104396905D01*
X141439523Y-104396905D01*
X141325237Y-104435000D01*
X141553809Y-104282619D02*
X141553809Y-105311190D01*
X140715713Y-104777857D02*
X140982380Y-104777857D01*
X140982380Y-105196905D02*
X140982380Y-104396905D01*
X140601427Y-104396905D01*
X140029999Y-104777857D02*
X140296666Y-104777857D01*
X140296666Y-105196905D02*
X140296666Y-104396905D01*
X139915713Y-104396905D01*
X139344285Y-104777857D02*
X139610952Y-104777857D01*
X139610952Y-105196905D02*
X139610952Y-104396905D01*
X139229999Y-104396905D01*
X138658571Y-104777857D02*
X138925238Y-104777857D01*
X138925238Y-105196905D02*
X138925238Y-104396905D01*
X138544285Y-104396905D01*
X141934762Y-106458810D02*
X141820476Y-106496905D01*
X141630000Y-106496905D01*
X141553810Y-106458810D01*
X141515714Y-106420714D01*
X141477619Y-106344524D01*
X141477619Y-106268333D01*
X141515714Y-106192143D01*
X141553810Y-106154048D01*
X141630000Y-106115952D01*
X141782381Y-106077857D01*
X141858572Y-106039762D01*
X141896667Y-106001667D01*
X141934762Y-105925476D01*
X141934762Y-105849286D01*
X141896667Y-105773095D01*
X141858572Y-105735000D01*
X141782381Y-105696905D01*
X141591905Y-105696905D01*
X141477619Y-105735000D01*
X141706191Y-105582619D02*
X141706191Y-106611190D01*
X140715714Y-106496905D02*
X141172857Y-106496905D01*
X140944286Y-106496905D02*
X140944286Y-105696905D01*
X141020476Y-105811190D01*
X141096667Y-105887381D01*
X141172857Y-105925476D01*
X140449047Y-105696905D02*
X139915714Y-105696905D01*
X140258571Y-106496905D01*
X139344285Y-106077857D02*
X139610952Y-106077857D01*
X139610952Y-106496905D02*
X139610952Y-105696905D01*
X139229999Y-105696905D01*
X138658571Y-106077857D02*
X138925238Y-106077857D01*
X138925238Y-106496905D02*
X138925238Y-105696905D01*
X138544285Y-105696905D01*
X119265239Y-121563810D02*
X119150953Y-121601905D01*
X118960477Y-121601905D01*
X118884287Y-121563810D01*
X118846191Y-121525714D01*
X118808096Y-121449524D01*
X118808096Y-121373333D01*
X118846191Y-121297143D01*
X118884287Y-121259048D01*
X118960477Y-121220952D01*
X119112858Y-121182857D01*
X119189049Y-121144762D01*
X119227144Y-121106667D01*
X119265239Y-121030476D01*
X119265239Y-120954286D01*
X119227144Y-120878095D01*
X119189049Y-120840000D01*
X119112858Y-120801905D01*
X118922382Y-120801905D01*
X118808096Y-120840000D01*
X119036668Y-120687619D02*
X119036668Y-121716190D01*
X118046191Y-121601905D02*
X118503334Y-121601905D01*
X118274763Y-121601905D02*
X118274763Y-120801905D01*
X118350953Y-120916190D01*
X118427144Y-120992381D01*
X118503334Y-121030476D01*
X117779524Y-120801905D02*
X117246191Y-120801905D01*
X117589048Y-121601905D01*
X116598572Y-121068571D02*
X116598572Y-121601905D01*
X116789048Y-120763810D02*
X116979524Y-121335238D01*
X116484286Y-121335238D01*
X115722381Y-121525714D02*
X115760476Y-121563810D01*
X115874762Y-121601905D01*
X115950952Y-121601905D01*
X116065238Y-121563810D01*
X116141429Y-121487619D01*
X116179524Y-121411429D01*
X116217619Y-121259048D01*
X116217619Y-121144762D01*
X116179524Y-120992381D01*
X116141429Y-120916190D01*
X116065238Y-120840000D01*
X115950952Y-120801905D01*
X115874762Y-120801905D01*
X115760476Y-120840000D01*
X115722381Y-120878095D01*
X119265239Y-122863810D02*
X119150953Y-122901905D01*
X118960477Y-122901905D01*
X118884287Y-122863810D01*
X118846191Y-122825714D01*
X118808096Y-122749524D01*
X118808096Y-122673333D01*
X118846191Y-122597143D01*
X118884287Y-122559048D01*
X118960477Y-122520952D01*
X119112858Y-122482857D01*
X119189049Y-122444762D01*
X119227144Y-122406667D01*
X119265239Y-122330476D01*
X119265239Y-122254286D01*
X119227144Y-122178095D01*
X119189049Y-122140000D01*
X119112858Y-122101905D01*
X118922382Y-122101905D01*
X118808096Y-122140000D01*
X119036668Y-121987619D02*
X119036668Y-123016190D01*
X118046191Y-122901905D02*
X118503334Y-122901905D01*
X118274763Y-122901905D02*
X118274763Y-122101905D01*
X118350953Y-122216190D01*
X118427144Y-122292381D01*
X118503334Y-122330476D01*
X117779524Y-122101905D02*
X117246191Y-122101905D01*
X117589048Y-122901905D01*
X116598572Y-122368571D02*
X116598572Y-122901905D01*
X116789048Y-122063810D02*
X116979524Y-122635238D01*
X116484286Y-122635238D01*
X116179524Y-122901905D02*
X116179524Y-122101905D01*
X115989048Y-122101905D01*
X115874762Y-122140000D01*
X115798571Y-122216190D01*
X115760476Y-122292381D01*
X115722381Y-122444762D01*
X115722381Y-122559048D01*
X115760476Y-122711429D01*
X115798571Y-122787619D01*
X115874762Y-122863810D01*
X115989048Y-122901905D01*
X116179524Y-122901905D01*
X119189049Y-124163810D02*
X119074763Y-124201905D01*
X118884287Y-124201905D01*
X118808097Y-124163810D01*
X118770001Y-124125714D01*
X118731906Y-124049524D01*
X118731906Y-123973333D01*
X118770001Y-123897143D01*
X118808097Y-123859048D01*
X118884287Y-123820952D01*
X119036668Y-123782857D01*
X119112859Y-123744762D01*
X119150954Y-123706667D01*
X119189049Y-123630476D01*
X119189049Y-123554286D01*
X119150954Y-123478095D01*
X119112859Y-123440000D01*
X119036668Y-123401905D01*
X118846192Y-123401905D01*
X118731906Y-123440000D01*
X118960478Y-123287619D02*
X118960478Y-124316190D01*
X117970001Y-124201905D02*
X118427144Y-124201905D01*
X118198573Y-124201905D02*
X118198573Y-123401905D01*
X118274763Y-123516190D01*
X118350954Y-123592381D01*
X118427144Y-123630476D01*
X117703334Y-123401905D02*
X117170001Y-123401905D01*
X117512858Y-124201905D01*
X116522382Y-123668571D02*
X116522382Y-124201905D01*
X116712858Y-123363810D02*
X116903334Y-123935238D01*
X116408096Y-123935238D01*
X116103334Y-123782857D02*
X115836667Y-123782857D01*
X115722381Y-124201905D02*
X116103334Y-124201905D01*
X116103334Y-123401905D01*
X115722381Y-123401905D01*
X119150953Y-125463810D02*
X119036667Y-125501905D01*
X118846191Y-125501905D01*
X118770001Y-125463810D01*
X118731905Y-125425714D01*
X118693810Y-125349524D01*
X118693810Y-125273333D01*
X118731905Y-125197143D01*
X118770001Y-125159048D01*
X118846191Y-125120952D01*
X118998572Y-125082857D01*
X119074763Y-125044762D01*
X119112858Y-125006667D01*
X119150953Y-124930476D01*
X119150953Y-124854286D01*
X119112858Y-124778095D01*
X119074763Y-124740000D01*
X118998572Y-124701905D01*
X118808096Y-124701905D01*
X118693810Y-124740000D01*
X118922382Y-124587619D02*
X118922382Y-125616190D01*
X117931905Y-125501905D02*
X118389048Y-125501905D01*
X118160477Y-125501905D02*
X118160477Y-124701905D01*
X118236667Y-124816190D01*
X118312858Y-124892381D01*
X118389048Y-124930476D01*
X117665238Y-124701905D02*
X117131905Y-124701905D01*
X117474762Y-125501905D01*
X116484286Y-124968571D02*
X116484286Y-125501905D01*
X116674762Y-124663810D02*
X116865238Y-125235238D01*
X116370000Y-125235238D01*
X115798571Y-125082857D02*
X116065238Y-125082857D01*
X116065238Y-125501905D02*
X116065238Y-124701905D01*
X115684285Y-124701905D01*
X119227144Y-112673810D02*
X119112858Y-112711905D01*
X118922382Y-112711905D01*
X118846192Y-112673810D01*
X118808096Y-112635714D01*
X118770001Y-112559524D01*
X118770001Y-112483333D01*
X118808096Y-112407143D01*
X118846192Y-112369048D01*
X118922382Y-112330952D01*
X119074763Y-112292857D01*
X119150954Y-112254762D01*
X119189049Y-112216667D01*
X119227144Y-112140476D01*
X119227144Y-112064286D01*
X119189049Y-111988095D01*
X119150954Y-111950000D01*
X119074763Y-111911905D01*
X118884287Y-111911905D01*
X118770001Y-111950000D01*
X118998573Y-111797619D02*
X118998573Y-112826190D01*
X118008096Y-112711905D02*
X118465239Y-112711905D01*
X118236668Y-112711905D02*
X118236668Y-111911905D01*
X118312858Y-112026190D01*
X118389049Y-112102381D01*
X118465239Y-112140476D01*
X117741429Y-111911905D02*
X117208096Y-111911905D01*
X117550953Y-112711905D01*
X116560477Y-112178571D02*
X116560477Y-112711905D01*
X116750953Y-111873810D02*
X116941429Y-112445238D01*
X116446191Y-112445238D01*
X115798572Y-112178571D02*
X115798572Y-112711905D01*
X115989048Y-111873810D02*
X116179524Y-112445238D01*
X115684286Y-112445238D01*
X119227144Y-113973810D02*
X119112858Y-114011905D01*
X118922382Y-114011905D01*
X118846192Y-113973810D01*
X118808096Y-113935714D01*
X118770001Y-113859524D01*
X118770001Y-113783333D01*
X118808096Y-113707143D01*
X118846192Y-113669048D01*
X118922382Y-113630952D01*
X119074763Y-113592857D01*
X119150954Y-113554762D01*
X119189049Y-113516667D01*
X119227144Y-113440476D01*
X119227144Y-113364286D01*
X119189049Y-113288095D01*
X119150954Y-113250000D01*
X119074763Y-113211905D01*
X118884287Y-113211905D01*
X118770001Y-113250000D01*
X118998573Y-113097619D02*
X118998573Y-114126190D01*
X118008096Y-114011905D02*
X118465239Y-114011905D01*
X118236668Y-114011905D02*
X118236668Y-113211905D01*
X118312858Y-113326190D01*
X118389049Y-113402381D01*
X118465239Y-113440476D01*
X117741429Y-113211905D02*
X117208096Y-113211905D01*
X117550953Y-114011905D01*
X116560477Y-113478571D02*
X116560477Y-114011905D01*
X116750953Y-113173810D02*
X116941429Y-113745238D01*
X116446191Y-113745238D01*
X115760476Y-113211905D02*
X116141429Y-113211905D01*
X116179524Y-113592857D01*
X116141429Y-113554762D01*
X116065238Y-113516667D01*
X115874762Y-113516667D01*
X115798572Y-113554762D01*
X115760476Y-113592857D01*
X115722381Y-113669048D01*
X115722381Y-113859524D01*
X115760476Y-113935714D01*
X115798572Y-113973810D01*
X115874762Y-114011905D01*
X116065238Y-114011905D01*
X116141429Y-113973810D01*
X116179524Y-113935714D01*
X119227144Y-115273810D02*
X119112858Y-115311905D01*
X118922382Y-115311905D01*
X118846192Y-115273810D01*
X118808096Y-115235714D01*
X118770001Y-115159524D01*
X118770001Y-115083333D01*
X118808096Y-115007143D01*
X118846192Y-114969048D01*
X118922382Y-114930952D01*
X119074763Y-114892857D01*
X119150954Y-114854762D01*
X119189049Y-114816667D01*
X119227144Y-114740476D01*
X119227144Y-114664286D01*
X119189049Y-114588095D01*
X119150954Y-114550000D01*
X119074763Y-114511905D01*
X118884287Y-114511905D01*
X118770001Y-114550000D01*
X118998573Y-114397619D02*
X118998573Y-115426190D01*
X118008096Y-115311905D02*
X118465239Y-115311905D01*
X118236668Y-115311905D02*
X118236668Y-114511905D01*
X118312858Y-114626190D01*
X118389049Y-114702381D01*
X118465239Y-114740476D01*
X117741429Y-114511905D02*
X117208096Y-114511905D01*
X117550953Y-115311905D01*
X116560477Y-114778571D02*
X116560477Y-115311905D01*
X116750953Y-114473810D02*
X116941429Y-115045238D01*
X116446191Y-115045238D01*
X115798572Y-114511905D02*
X115950953Y-114511905D01*
X116027143Y-114550000D01*
X116065238Y-114588095D01*
X116141429Y-114702381D01*
X116179524Y-114854762D01*
X116179524Y-115159524D01*
X116141429Y-115235714D01*
X116103334Y-115273810D01*
X116027143Y-115311905D01*
X115874762Y-115311905D01*
X115798572Y-115273810D01*
X115760476Y-115235714D01*
X115722381Y-115159524D01*
X115722381Y-114969048D01*
X115760476Y-114892857D01*
X115798572Y-114854762D01*
X115874762Y-114816667D01*
X116027143Y-114816667D01*
X116103334Y-114854762D01*
X116141429Y-114892857D01*
X116179524Y-114969048D01*
X119227144Y-116573810D02*
X119112858Y-116611905D01*
X118922382Y-116611905D01*
X118846192Y-116573810D01*
X118808096Y-116535714D01*
X118770001Y-116459524D01*
X118770001Y-116383333D01*
X118808096Y-116307143D01*
X118846192Y-116269048D01*
X118922382Y-116230952D01*
X119074763Y-116192857D01*
X119150954Y-116154762D01*
X119189049Y-116116667D01*
X119227144Y-116040476D01*
X119227144Y-115964286D01*
X119189049Y-115888095D01*
X119150954Y-115850000D01*
X119074763Y-115811905D01*
X118884287Y-115811905D01*
X118770001Y-115850000D01*
X118998573Y-115697619D02*
X118998573Y-116726190D01*
X118008096Y-116611905D02*
X118465239Y-116611905D01*
X118236668Y-116611905D02*
X118236668Y-115811905D01*
X118312858Y-115926190D01*
X118389049Y-116002381D01*
X118465239Y-116040476D01*
X117741429Y-115811905D02*
X117208096Y-115811905D01*
X117550953Y-116611905D01*
X116560477Y-116078571D02*
X116560477Y-116611905D01*
X116750953Y-115773810D02*
X116941429Y-116345238D01*
X116446191Y-116345238D01*
X116217619Y-115811905D02*
X115684286Y-115811905D01*
X116027143Y-116611905D01*
D11*
X124602619Y-109942381D02*
X124031190Y-109942381D01*
X124316905Y-110942381D02*
X124316905Y-109942381D01*
X123697857Y-110942381D02*
X123697857Y-109942381D01*
X123221667Y-110942381D02*
X123221667Y-109942381D01*
X122888333Y-110656667D01*
X122555000Y-109942381D01*
X122555000Y-110942381D01*
X122078810Y-110418571D02*
X121745476Y-110418571D01*
X121602619Y-110942381D02*
X122078810Y-110942381D01*
X122078810Y-109942381D01*
X121602619Y-109942381D01*
X120602619Y-110942381D02*
X120935953Y-110466190D01*
X121174048Y-110942381D02*
X121174048Y-109942381D01*
X120793095Y-109942381D01*
X120697857Y-109990000D01*
X120650238Y-110037619D01*
X120602619Y-110132857D01*
X120602619Y-110275714D01*
X120650238Y-110370952D01*
X120697857Y-110418571D01*
X120793095Y-110466190D01*
X121174048Y-110466190D01*
X125681905Y-119832381D02*
X125681905Y-118832381D01*
X125205715Y-119832381D02*
X125205715Y-118832381D01*
X124634286Y-119832381D01*
X124634286Y-118832381D01*
X124300953Y-118832381D02*
X123729524Y-118832381D01*
X124015239Y-119832381D02*
X124015239Y-118832381D01*
X123396191Y-119308571D02*
X123062857Y-119308571D01*
X122920000Y-119832381D02*
X123396191Y-119832381D01*
X123396191Y-118832381D01*
X122920000Y-118832381D01*
X121920000Y-119832381D02*
X122253334Y-119356190D01*
X122491429Y-119832381D02*
X122491429Y-118832381D01*
X122110476Y-118832381D01*
X122015238Y-118880000D01*
X121967619Y-118927619D01*
X121920000Y-119022857D01*
X121920000Y-119165714D01*
X121967619Y-119260952D01*
X122015238Y-119308571D01*
X122110476Y-119356190D01*
X122491429Y-119356190D01*
X120920000Y-119832381D02*
X121253334Y-119356190D01*
X121491429Y-119832381D02*
X121491429Y-118832381D01*
X121110476Y-118832381D01*
X121015238Y-118880000D01*
X120967619Y-118927619D01*
X120920000Y-119022857D01*
X120920000Y-119165714D01*
X120967619Y-119260952D01*
X121015238Y-119308571D01*
X121110476Y-119356190D01*
X121491429Y-119356190D01*
X120491429Y-118832381D02*
X120491429Y-119641905D01*
X120443810Y-119737143D01*
X120396191Y-119784762D01*
X120300953Y-119832381D01*
X120110476Y-119832381D01*
X120015238Y-119784762D01*
X119967619Y-119737143D01*
X119920000Y-119641905D01*
X119920000Y-118832381D01*
X119443810Y-119832381D02*
X119443810Y-118832381D01*
X119062857Y-118832381D01*
X118967619Y-118880000D01*
X118920000Y-118927619D01*
X118872381Y-119022857D01*
X118872381Y-119165714D01*
X118920000Y-119260952D01*
X118967619Y-119308571D01*
X119062857Y-119356190D01*
X119443810Y-119356190D01*
X118586667Y-118832381D02*
X118015238Y-118832381D01*
X118300953Y-119832381D02*
X118300953Y-118832381D01*
D10*
X127508095Y-120763810D02*
X128193810Y-121792381D01*
X126822381Y-121601905D02*
X127279524Y-121601905D01*
X127050953Y-121601905D02*
X127050953Y-120801905D01*
X127127143Y-120916190D01*
X127203334Y-120992381D01*
X127279524Y-121030476D01*
X125870000Y-121601905D02*
X125870000Y-121068571D01*
X125870000Y-120801905D02*
X125908095Y-120840000D01*
X125870000Y-120878095D01*
X125831905Y-120840000D01*
X125870000Y-120801905D01*
X125870000Y-120878095D01*
X125489048Y-121068571D02*
X125489048Y-121601905D01*
X125489048Y-121144762D02*
X125450953Y-121106667D01*
X125374762Y-121068571D01*
X125260476Y-121068571D01*
X125184286Y-121106667D01*
X125146191Y-121182857D01*
X125146191Y-121601905D01*
X124879524Y-121068571D02*
X124574762Y-121068571D01*
X124765238Y-120801905D02*
X124765238Y-121487619D01*
X124727143Y-121563810D01*
X124650952Y-121601905D01*
X124574762Y-121601905D01*
X124308095Y-121525714D02*
X124270000Y-121563810D01*
X124308095Y-121601905D01*
X124346190Y-121563810D01*
X124308095Y-121525714D01*
X124308095Y-121601905D01*
X127508095Y-122063810D02*
X128193810Y-123092381D01*
X127127143Y-122444762D02*
X127203334Y-122406667D01*
X127241429Y-122368571D01*
X127279524Y-122292381D01*
X127279524Y-122254286D01*
X127241429Y-122178095D01*
X127203334Y-122140000D01*
X127127143Y-122101905D01*
X126974762Y-122101905D01*
X126898572Y-122140000D01*
X126860476Y-122178095D01*
X126822381Y-122254286D01*
X126822381Y-122292381D01*
X126860476Y-122368571D01*
X126898572Y-122406667D01*
X126974762Y-122444762D01*
X127127143Y-122444762D01*
X127203334Y-122482857D01*
X127241429Y-122520952D01*
X127279524Y-122597143D01*
X127279524Y-122749524D01*
X127241429Y-122825714D01*
X127203334Y-122863810D01*
X127127143Y-122901905D01*
X126974762Y-122901905D01*
X126898572Y-122863810D01*
X126860476Y-122825714D01*
X126822381Y-122749524D01*
X126822381Y-122597143D01*
X126860476Y-122520952D01*
X126898572Y-122482857D01*
X126974762Y-122444762D01*
X125870000Y-122901905D02*
X125870000Y-122368571D01*
X125870000Y-122101905D02*
X125908095Y-122140000D01*
X125870000Y-122178095D01*
X125831905Y-122140000D01*
X125870000Y-122101905D01*
X125870000Y-122178095D01*
X125489048Y-122368571D02*
X125489048Y-122901905D01*
X125489048Y-122444762D02*
X125450953Y-122406667D01*
X125374762Y-122368571D01*
X125260476Y-122368571D01*
X125184286Y-122406667D01*
X125146191Y-122482857D01*
X125146191Y-122901905D01*
X124879524Y-122368571D02*
X124574762Y-122368571D01*
X124765238Y-122101905D02*
X124765238Y-122787619D01*
X124727143Y-122863810D01*
X124650952Y-122901905D01*
X124574762Y-122901905D01*
X124308095Y-122825714D02*
X124270000Y-122863810D01*
X124308095Y-122901905D01*
X124346190Y-122863810D01*
X124308095Y-122825714D01*
X124308095Y-122901905D01*
X127508095Y-123363810D02*
X128193810Y-124392381D01*
X126898572Y-123401905D02*
X127050953Y-123401905D01*
X127127143Y-123440000D01*
X127165238Y-123478095D01*
X127241429Y-123592381D01*
X127279524Y-123744762D01*
X127279524Y-124049524D01*
X127241429Y-124125714D01*
X127203334Y-124163810D01*
X127127143Y-124201905D01*
X126974762Y-124201905D01*
X126898572Y-124163810D01*
X126860476Y-124125714D01*
X126822381Y-124049524D01*
X126822381Y-123859048D01*
X126860476Y-123782857D01*
X126898572Y-123744762D01*
X126974762Y-123706667D01*
X127127143Y-123706667D01*
X127203334Y-123744762D01*
X127241429Y-123782857D01*
X127279524Y-123859048D01*
X126136667Y-123668571D02*
X126136667Y-124201905D01*
X126327143Y-123363810D02*
X126517619Y-123935238D01*
X126022381Y-123935238D01*
X125108095Y-124201905D02*
X125108095Y-123668571D01*
X125108095Y-123401905D02*
X125146190Y-123440000D01*
X125108095Y-123478095D01*
X125070000Y-123440000D01*
X125108095Y-123401905D01*
X125108095Y-123478095D01*
X124727143Y-123668571D02*
X124727143Y-124201905D01*
X124727143Y-123744762D02*
X124689048Y-123706667D01*
X124612857Y-123668571D01*
X124498571Y-123668571D01*
X124422381Y-123706667D01*
X124384286Y-123782857D01*
X124384286Y-124201905D01*
X124117619Y-123668571D02*
X123812857Y-123668571D01*
X124003333Y-123401905D02*
X124003333Y-124087619D01*
X123965238Y-124163810D01*
X123889047Y-124201905D01*
X123812857Y-124201905D01*
X123546190Y-124125714D02*
X123508095Y-124163810D01*
X123546190Y-124201905D01*
X123584285Y-124163810D01*
X123546190Y-124125714D01*
X123546190Y-124201905D01*
X127508095Y-124663810D02*
X128193810Y-125692381D01*
X126822381Y-125501905D02*
X127279524Y-125501905D01*
X127050953Y-125501905D02*
X127050953Y-124701905D01*
X127127143Y-124816190D01*
X127203334Y-124892381D01*
X127279524Y-124930476D01*
X126327143Y-124701905D02*
X126250952Y-124701905D01*
X126174762Y-124740000D01*
X126136667Y-124778095D01*
X126098571Y-124854286D01*
X126060476Y-125006667D01*
X126060476Y-125197143D01*
X126098571Y-125349524D01*
X126136667Y-125425714D01*
X126174762Y-125463810D01*
X126250952Y-125501905D01*
X126327143Y-125501905D01*
X126403333Y-125463810D01*
X126441429Y-125425714D01*
X126479524Y-125349524D01*
X126517619Y-125197143D01*
X126517619Y-125006667D01*
X126479524Y-124854286D01*
X126441429Y-124778095D01*
X126403333Y-124740000D01*
X126327143Y-124701905D01*
X125755714Y-124778095D02*
X125717619Y-124740000D01*
X125641428Y-124701905D01*
X125450952Y-124701905D01*
X125374762Y-124740000D01*
X125336666Y-124778095D01*
X125298571Y-124854286D01*
X125298571Y-124930476D01*
X125336666Y-125044762D01*
X125793809Y-125501905D01*
X125298571Y-125501905D01*
X124612857Y-124968571D02*
X124612857Y-125501905D01*
X124803333Y-124663810D02*
X124993809Y-125235238D01*
X124498571Y-125235238D01*
X123584285Y-125501905D02*
X123584285Y-124968571D01*
X123584285Y-124701905D02*
X123622380Y-124740000D01*
X123584285Y-124778095D01*
X123546190Y-124740000D01*
X123584285Y-124701905D01*
X123584285Y-124778095D01*
X123203333Y-124968571D02*
X123203333Y-125501905D01*
X123203333Y-125044762D02*
X123165238Y-125006667D01*
X123089047Y-124968571D01*
X122974761Y-124968571D01*
X122898571Y-125006667D01*
X122860476Y-125082857D01*
X122860476Y-125501905D01*
X122593809Y-124968571D02*
X122289047Y-124968571D01*
X122479523Y-124701905D02*
X122479523Y-125387619D01*
X122441428Y-125463810D01*
X122365237Y-125501905D01*
X122289047Y-125501905D01*
X122022380Y-125425714D02*
X121984285Y-125463810D01*
X122022380Y-125501905D01*
X122060475Y-125463810D01*
X122022380Y-125425714D01*
X122022380Y-125501905D01*
X127508095Y-111873810D02*
X128193810Y-112902381D01*
X126822381Y-112711905D02*
X127279524Y-112711905D01*
X127050953Y-112711905D02*
X127050953Y-111911905D01*
X127127143Y-112026190D01*
X127203334Y-112102381D01*
X127279524Y-112140476D01*
X127508095Y-113173810D02*
X128193810Y-114202381D01*
X127127143Y-113554762D02*
X127203334Y-113516667D01*
X127241429Y-113478571D01*
X127279524Y-113402381D01*
X127279524Y-113364286D01*
X127241429Y-113288095D01*
X127203334Y-113250000D01*
X127127143Y-113211905D01*
X126974762Y-113211905D01*
X126898572Y-113250000D01*
X126860476Y-113288095D01*
X126822381Y-113364286D01*
X126822381Y-113402381D01*
X126860476Y-113478571D01*
X126898572Y-113516667D01*
X126974762Y-113554762D01*
X127127143Y-113554762D01*
X127203334Y-113592857D01*
X127241429Y-113630952D01*
X127279524Y-113707143D01*
X127279524Y-113859524D01*
X127241429Y-113935714D01*
X127203334Y-113973810D01*
X127127143Y-114011905D01*
X126974762Y-114011905D01*
X126898572Y-113973810D01*
X126860476Y-113935714D01*
X126822381Y-113859524D01*
X126822381Y-113707143D01*
X126860476Y-113630952D01*
X126898572Y-113592857D01*
X126974762Y-113554762D01*
X127508095Y-114473810D02*
X128193810Y-115502381D01*
X126898572Y-114511905D02*
X127050953Y-114511905D01*
X127127143Y-114550000D01*
X127165238Y-114588095D01*
X127241429Y-114702381D01*
X127279524Y-114854762D01*
X127279524Y-115159524D01*
X127241429Y-115235714D01*
X127203334Y-115273810D01*
X127127143Y-115311905D01*
X126974762Y-115311905D01*
X126898572Y-115273810D01*
X126860476Y-115235714D01*
X126822381Y-115159524D01*
X126822381Y-114969048D01*
X126860476Y-114892857D01*
X126898572Y-114854762D01*
X126974762Y-114816667D01*
X127127143Y-114816667D01*
X127203334Y-114854762D01*
X127241429Y-114892857D01*
X127279524Y-114969048D01*
X126136667Y-114778571D02*
X126136667Y-115311905D01*
X126327143Y-114473810D02*
X126517619Y-115045238D01*
X126022381Y-115045238D01*
X127508095Y-115773810D02*
X128193810Y-116802381D01*
X126822381Y-116611905D02*
X127279524Y-116611905D01*
X127050953Y-116611905D02*
X127050953Y-115811905D01*
X127127143Y-115926190D01*
X127203334Y-116002381D01*
X127279524Y-116040476D01*
X126327143Y-115811905D02*
X126250952Y-115811905D01*
X126174762Y-115850000D01*
X126136667Y-115888095D01*
X126098571Y-115964286D01*
X126060476Y-116116667D01*
X126060476Y-116307143D01*
X126098571Y-116459524D01*
X126136667Y-116535714D01*
X126174762Y-116573810D01*
X126250952Y-116611905D01*
X126327143Y-116611905D01*
X126403333Y-116573810D01*
X126441429Y-116535714D01*
X126479524Y-116459524D01*
X126517619Y-116307143D01*
X126517619Y-116116667D01*
X126479524Y-115964286D01*
X126441429Y-115888095D01*
X126403333Y-115850000D01*
X126327143Y-115811905D01*
X125755714Y-115888095D02*
X125717619Y-115850000D01*
X125641428Y-115811905D01*
X125450952Y-115811905D01*
X125374762Y-115850000D01*
X125336666Y-115888095D01*
X125298571Y-115964286D01*
X125298571Y-116040476D01*
X125336666Y-116154762D01*
X125793809Y-116611905D01*
X125298571Y-116611905D01*
X124612857Y-116078571D02*
X124612857Y-116611905D01*
X124803333Y-115773810D02*
X124993809Y-116345238D01*
X124498571Y-116345238D01*
X119227144Y-103783810D02*
X119112858Y-103821905D01*
X118922382Y-103821905D01*
X118846192Y-103783810D01*
X118808096Y-103745714D01*
X118770001Y-103669524D01*
X118770001Y-103593333D01*
X118808096Y-103517143D01*
X118846192Y-103479048D01*
X118922382Y-103440952D01*
X119074763Y-103402857D01*
X119150954Y-103364762D01*
X119189049Y-103326667D01*
X119227144Y-103250476D01*
X119227144Y-103174286D01*
X119189049Y-103098095D01*
X119150954Y-103060000D01*
X119074763Y-103021905D01*
X118884287Y-103021905D01*
X118770001Y-103060000D01*
X118998573Y-102907619D02*
X118998573Y-103936190D01*
X118008096Y-103821905D02*
X118465239Y-103821905D01*
X118236668Y-103821905D02*
X118236668Y-103021905D01*
X118312858Y-103136190D01*
X118389049Y-103212381D01*
X118465239Y-103250476D01*
X117741429Y-103021905D02*
X117208096Y-103021905D01*
X117550953Y-103821905D01*
X116560477Y-103288571D02*
X116560477Y-103821905D01*
X116750953Y-102983810D02*
X116941429Y-103555238D01*
X116446191Y-103555238D01*
X115989048Y-103021905D02*
X115912857Y-103021905D01*
X115836667Y-103060000D01*
X115798572Y-103098095D01*
X115760476Y-103174286D01*
X115722381Y-103326667D01*
X115722381Y-103517143D01*
X115760476Y-103669524D01*
X115798572Y-103745714D01*
X115836667Y-103783810D01*
X115912857Y-103821905D01*
X115989048Y-103821905D01*
X116065238Y-103783810D01*
X116103334Y-103745714D01*
X116141429Y-103669524D01*
X116179524Y-103517143D01*
X116179524Y-103326667D01*
X116141429Y-103174286D01*
X116103334Y-103098095D01*
X116065238Y-103060000D01*
X115989048Y-103021905D01*
X119227144Y-105083810D02*
X119112858Y-105121905D01*
X118922382Y-105121905D01*
X118846192Y-105083810D01*
X118808096Y-105045714D01*
X118770001Y-104969524D01*
X118770001Y-104893333D01*
X118808096Y-104817143D01*
X118846192Y-104779048D01*
X118922382Y-104740952D01*
X119074763Y-104702857D01*
X119150954Y-104664762D01*
X119189049Y-104626667D01*
X119227144Y-104550476D01*
X119227144Y-104474286D01*
X119189049Y-104398095D01*
X119150954Y-104360000D01*
X119074763Y-104321905D01*
X118884287Y-104321905D01*
X118770001Y-104360000D01*
X118998573Y-104207619D02*
X118998573Y-105236190D01*
X118008096Y-105121905D02*
X118465239Y-105121905D01*
X118236668Y-105121905D02*
X118236668Y-104321905D01*
X118312858Y-104436190D01*
X118389049Y-104512381D01*
X118465239Y-104550476D01*
X117741429Y-104321905D02*
X117208096Y-104321905D01*
X117550953Y-105121905D01*
X116560477Y-104588571D02*
X116560477Y-105121905D01*
X116750953Y-104283810D02*
X116941429Y-104855238D01*
X116446191Y-104855238D01*
X115722381Y-105121905D02*
X116179524Y-105121905D01*
X115950953Y-105121905D02*
X115950953Y-104321905D01*
X116027143Y-104436190D01*
X116103334Y-104512381D01*
X116179524Y-104550476D01*
X119227144Y-106383810D02*
X119112858Y-106421905D01*
X118922382Y-106421905D01*
X118846192Y-106383810D01*
X118808096Y-106345714D01*
X118770001Y-106269524D01*
X118770001Y-106193333D01*
X118808096Y-106117143D01*
X118846192Y-106079048D01*
X118922382Y-106040952D01*
X119074763Y-106002857D01*
X119150954Y-105964762D01*
X119189049Y-105926667D01*
X119227144Y-105850476D01*
X119227144Y-105774286D01*
X119189049Y-105698095D01*
X119150954Y-105660000D01*
X119074763Y-105621905D01*
X118884287Y-105621905D01*
X118770001Y-105660000D01*
X118998573Y-105507619D02*
X118998573Y-106536190D01*
X118008096Y-106421905D02*
X118465239Y-106421905D01*
X118236668Y-106421905D02*
X118236668Y-105621905D01*
X118312858Y-105736190D01*
X118389049Y-105812381D01*
X118465239Y-105850476D01*
X117741429Y-105621905D02*
X117208096Y-105621905D01*
X117550953Y-106421905D01*
X116560477Y-105888571D02*
X116560477Y-106421905D01*
X116750953Y-105583810D02*
X116941429Y-106155238D01*
X116446191Y-106155238D01*
X116179524Y-105698095D02*
X116141429Y-105660000D01*
X116065238Y-105621905D01*
X115874762Y-105621905D01*
X115798572Y-105660000D01*
X115760476Y-105698095D01*
X115722381Y-105774286D01*
X115722381Y-105850476D01*
X115760476Y-105964762D01*
X116217619Y-106421905D01*
X115722381Y-106421905D01*
X119227144Y-107683810D02*
X119112858Y-107721905D01*
X118922382Y-107721905D01*
X118846192Y-107683810D01*
X118808096Y-107645714D01*
X118770001Y-107569524D01*
X118770001Y-107493333D01*
X118808096Y-107417143D01*
X118846192Y-107379048D01*
X118922382Y-107340952D01*
X119074763Y-107302857D01*
X119150954Y-107264762D01*
X119189049Y-107226667D01*
X119227144Y-107150476D01*
X119227144Y-107074286D01*
X119189049Y-106998095D01*
X119150954Y-106960000D01*
X119074763Y-106921905D01*
X118884287Y-106921905D01*
X118770001Y-106960000D01*
X118998573Y-106807619D02*
X118998573Y-107836190D01*
X118008096Y-107721905D02*
X118465239Y-107721905D01*
X118236668Y-107721905D02*
X118236668Y-106921905D01*
X118312858Y-107036190D01*
X118389049Y-107112381D01*
X118465239Y-107150476D01*
X117741429Y-106921905D02*
X117208096Y-106921905D01*
X117550953Y-107721905D01*
X116560477Y-107188571D02*
X116560477Y-107721905D01*
X116750953Y-106883810D02*
X116941429Y-107455238D01*
X116446191Y-107455238D01*
X116217619Y-106921905D02*
X115722381Y-106921905D01*
X115989048Y-107226667D01*
X115874762Y-107226667D01*
X115798572Y-107264762D01*
X115760476Y-107302857D01*
X115722381Y-107379048D01*
X115722381Y-107569524D01*
X115760476Y-107645714D01*
X115798572Y-107683810D01*
X115874762Y-107721905D01*
X116103334Y-107721905D01*
X116179524Y-107683810D01*
X116217619Y-107645714D01*
X128079524Y-103821905D02*
X128079524Y-103021905D01*
X127774762Y-103021905D01*
X127698571Y-103060000D01*
X127660476Y-103098095D01*
X127622381Y-103174286D01*
X127622381Y-103288571D01*
X127660476Y-103364762D01*
X127698571Y-103402857D01*
X127774762Y-103440952D01*
X128079524Y-103440952D01*
X127165238Y-103821905D02*
X127241429Y-103783810D01*
X127279524Y-103745714D01*
X127317619Y-103669524D01*
X127317619Y-103440952D01*
X127279524Y-103364762D01*
X127241429Y-103326667D01*
X127165238Y-103288571D01*
X127050952Y-103288571D01*
X126974762Y-103326667D01*
X126936667Y-103364762D01*
X126898571Y-103440952D01*
X126898571Y-103669524D01*
X126936667Y-103745714D01*
X126974762Y-103783810D01*
X127050952Y-103821905D01*
X127165238Y-103821905D01*
X126555714Y-103821905D02*
X126555714Y-103288571D01*
X126555714Y-103440952D02*
X126517619Y-103364762D01*
X126479523Y-103326667D01*
X126403333Y-103288571D01*
X126327142Y-103288571D01*
X126174762Y-103288571D02*
X125870000Y-103288571D01*
X126060476Y-103021905D02*
X126060476Y-103707619D01*
X126022381Y-103783810D01*
X125946190Y-103821905D01*
X125870000Y-103821905D01*
X125031904Y-103593333D02*
X124650952Y-103593333D01*
X125108095Y-103821905D02*
X124841428Y-103021905D01*
X124574761Y-103821905D01*
X128079524Y-105121905D02*
X128079524Y-104321905D01*
X127774762Y-104321905D01*
X127698571Y-104360000D01*
X127660476Y-104398095D01*
X127622381Y-104474286D01*
X127622381Y-104588571D01*
X127660476Y-104664762D01*
X127698571Y-104702857D01*
X127774762Y-104740952D01*
X128079524Y-104740952D01*
X127165238Y-105121905D02*
X127241429Y-105083810D01*
X127279524Y-105045714D01*
X127317619Y-104969524D01*
X127317619Y-104740952D01*
X127279524Y-104664762D01*
X127241429Y-104626667D01*
X127165238Y-104588571D01*
X127050952Y-104588571D01*
X126974762Y-104626667D01*
X126936667Y-104664762D01*
X126898571Y-104740952D01*
X126898571Y-104969524D01*
X126936667Y-105045714D01*
X126974762Y-105083810D01*
X127050952Y-105121905D01*
X127165238Y-105121905D01*
X126555714Y-105121905D02*
X126555714Y-104588571D01*
X126555714Y-104740952D02*
X126517619Y-104664762D01*
X126479523Y-104626667D01*
X126403333Y-104588571D01*
X126327142Y-104588571D01*
X126174762Y-104588571D02*
X125870000Y-104588571D01*
X126060476Y-104321905D02*
X126060476Y-105007619D01*
X126022381Y-105083810D01*
X125946190Y-105121905D01*
X125870000Y-105121905D01*
X125031904Y-104893333D02*
X124650952Y-104893333D01*
X125108095Y-105121905D02*
X124841428Y-104321905D01*
X124574761Y-105121905D01*
X123698571Y-105121905D02*
X123698571Y-104321905D01*
X123508095Y-104321905D01*
X123393809Y-104360000D01*
X123317618Y-104436190D01*
X123279523Y-104512381D01*
X123241428Y-104664762D01*
X123241428Y-104779048D01*
X123279523Y-104931429D01*
X123317618Y-105007619D01*
X123393809Y-105083810D01*
X123508095Y-105121905D01*
X123698571Y-105121905D01*
X122898571Y-105121905D02*
X122898571Y-104321905D01*
X122708095Y-104321905D01*
X122593809Y-104360000D01*
X122517618Y-104436190D01*
X122479523Y-104512381D01*
X122441428Y-104664762D01*
X122441428Y-104779048D01*
X122479523Y-104931429D01*
X122517618Y-105007619D01*
X122593809Y-105083810D01*
X122708095Y-105121905D01*
X122898571Y-105121905D01*
X121641428Y-105121905D02*
X121908095Y-104740952D01*
X122098571Y-105121905D02*
X122098571Y-104321905D01*
X121793809Y-104321905D01*
X121717618Y-104360000D01*
X121679523Y-104398095D01*
X121641428Y-104474286D01*
X121641428Y-104588571D01*
X121679523Y-104664762D01*
X121717618Y-104702857D01*
X121793809Y-104740952D01*
X122098571Y-104740952D01*
X128079524Y-106421905D02*
X128079524Y-105621905D01*
X127774762Y-105621905D01*
X127698571Y-105660000D01*
X127660476Y-105698095D01*
X127622381Y-105774286D01*
X127622381Y-105888571D01*
X127660476Y-105964762D01*
X127698571Y-106002857D01*
X127774762Y-106040952D01*
X128079524Y-106040952D01*
X127165238Y-106421905D02*
X127241429Y-106383810D01*
X127279524Y-106345714D01*
X127317619Y-106269524D01*
X127317619Y-106040952D01*
X127279524Y-105964762D01*
X127241429Y-105926667D01*
X127165238Y-105888571D01*
X127050952Y-105888571D01*
X126974762Y-105926667D01*
X126936667Y-105964762D01*
X126898571Y-106040952D01*
X126898571Y-106269524D01*
X126936667Y-106345714D01*
X126974762Y-106383810D01*
X127050952Y-106421905D01*
X127165238Y-106421905D01*
X126555714Y-106421905D02*
X126555714Y-105888571D01*
X126555714Y-106040952D02*
X126517619Y-105964762D01*
X126479523Y-105926667D01*
X126403333Y-105888571D01*
X126327142Y-105888571D01*
X126174762Y-105888571D02*
X125870000Y-105888571D01*
X126060476Y-105621905D02*
X126060476Y-106307619D01*
X126022381Y-106383810D01*
X125946190Y-106421905D01*
X125870000Y-106421905D01*
X124727142Y-106002857D02*
X124612856Y-106040952D01*
X124574761Y-106079048D01*
X124536666Y-106155238D01*
X124536666Y-106269524D01*
X124574761Y-106345714D01*
X124612856Y-106383810D01*
X124689047Y-106421905D01*
X124993809Y-106421905D01*
X124993809Y-105621905D01*
X124727142Y-105621905D01*
X124650952Y-105660000D01*
X124612856Y-105698095D01*
X124574761Y-105774286D01*
X124574761Y-105850476D01*
X124612856Y-105926667D01*
X124650952Y-105964762D01*
X124727142Y-106002857D01*
X124993809Y-106002857D01*
X128079524Y-107721905D02*
X128079524Y-106921905D01*
X127774762Y-106921905D01*
X127698571Y-106960000D01*
X127660476Y-106998095D01*
X127622381Y-107074286D01*
X127622381Y-107188571D01*
X127660476Y-107264762D01*
X127698571Y-107302857D01*
X127774762Y-107340952D01*
X128079524Y-107340952D01*
X127165238Y-107721905D02*
X127241429Y-107683810D01*
X127279524Y-107645714D01*
X127317619Y-107569524D01*
X127317619Y-107340952D01*
X127279524Y-107264762D01*
X127241429Y-107226667D01*
X127165238Y-107188571D01*
X127050952Y-107188571D01*
X126974762Y-107226667D01*
X126936667Y-107264762D01*
X126898571Y-107340952D01*
X126898571Y-107569524D01*
X126936667Y-107645714D01*
X126974762Y-107683810D01*
X127050952Y-107721905D01*
X127165238Y-107721905D01*
X126555714Y-107721905D02*
X126555714Y-107188571D01*
X126555714Y-107340952D02*
X126517619Y-107264762D01*
X126479523Y-107226667D01*
X126403333Y-107188571D01*
X126327142Y-107188571D01*
X126174762Y-107188571D02*
X125870000Y-107188571D01*
X126060476Y-106921905D02*
X126060476Y-107607619D01*
X126022381Y-107683810D01*
X125946190Y-107721905D01*
X125870000Y-107721905D01*
X124727142Y-107302857D02*
X124612856Y-107340952D01*
X124574761Y-107379048D01*
X124536666Y-107455238D01*
X124536666Y-107569524D01*
X124574761Y-107645714D01*
X124612856Y-107683810D01*
X124689047Y-107721905D01*
X124993809Y-107721905D01*
X124993809Y-106921905D01*
X124727142Y-106921905D01*
X124650952Y-106960000D01*
X124612856Y-106998095D01*
X124574761Y-107074286D01*
X124574761Y-107150476D01*
X124612856Y-107226667D01*
X124650952Y-107264762D01*
X124727142Y-107302857D01*
X124993809Y-107302857D01*
X123584285Y-107721905D02*
X123584285Y-106921905D01*
X123393809Y-106921905D01*
X123279523Y-106960000D01*
X123203332Y-107036190D01*
X123165237Y-107112381D01*
X123127142Y-107264762D01*
X123127142Y-107379048D01*
X123165237Y-107531429D01*
X123203332Y-107607619D01*
X123279523Y-107683810D01*
X123393809Y-107721905D01*
X123584285Y-107721905D01*
X122784285Y-107721905D02*
X122784285Y-106921905D01*
X122593809Y-106921905D01*
X122479523Y-106960000D01*
X122403332Y-107036190D01*
X122365237Y-107112381D01*
X122327142Y-107264762D01*
X122327142Y-107379048D01*
X122365237Y-107531429D01*
X122403332Y-107607619D01*
X122479523Y-107683810D01*
X122593809Y-107721905D01*
X122784285Y-107721905D01*
X121527142Y-107721905D02*
X121793809Y-107340952D01*
X121984285Y-107721905D02*
X121984285Y-106921905D01*
X121679523Y-106921905D01*
X121603332Y-106960000D01*
X121565237Y-106998095D01*
X121527142Y-107074286D01*
X121527142Y-107188571D01*
X121565237Y-107264762D01*
X121603332Y-107302857D01*
X121679523Y-107340952D01*
X121984285Y-107340952D01*
D11*
X125721666Y-102052381D02*
X126055000Y-101576190D01*
X126293095Y-102052381D02*
X126293095Y-101052381D01*
X125912142Y-101052381D01*
X125816904Y-101100000D01*
X125769285Y-101147619D01*
X125721666Y-101242857D01*
X125721666Y-101385714D01*
X125769285Y-101480952D01*
X125816904Y-101528571D01*
X125912142Y-101576190D01*
X126293095Y-101576190D01*
X125293095Y-101528571D02*
X124959761Y-101528571D01*
X124816904Y-102052381D02*
X125293095Y-102052381D01*
X125293095Y-101052381D01*
X124816904Y-101052381D01*
X123864523Y-101100000D02*
X123959761Y-101052381D01*
X124102618Y-101052381D01*
X124245476Y-101100000D01*
X124340714Y-101195238D01*
X124388333Y-101290476D01*
X124435952Y-101480952D01*
X124435952Y-101623810D01*
X124388333Y-101814286D01*
X124340714Y-101909524D01*
X124245476Y-102004762D01*
X124102618Y-102052381D01*
X124007380Y-102052381D01*
X123864523Y-102004762D01*
X123816904Y-101957143D01*
X123816904Y-101623810D01*
X124007380Y-101623810D01*
X123388333Y-102052381D02*
X123388333Y-101052381D01*
X122959762Y-102004762D02*
X122816905Y-102052381D01*
X122578809Y-102052381D01*
X122483571Y-102004762D01*
X122435952Y-101957143D01*
X122388333Y-101861905D01*
X122388333Y-101766667D01*
X122435952Y-101671429D01*
X122483571Y-101623810D01*
X122578809Y-101576190D01*
X122769286Y-101528571D01*
X122864524Y-101480952D01*
X122912143Y-101433333D01*
X122959762Y-101338095D01*
X122959762Y-101242857D01*
X122912143Y-101147619D01*
X122864524Y-101100000D01*
X122769286Y-101052381D01*
X122531190Y-101052381D01*
X122388333Y-101100000D01*
X122102619Y-101052381D02*
X121531190Y-101052381D01*
X121816905Y-102052381D02*
X121816905Y-101052381D01*
X121197857Y-101528571D02*
X120864523Y-101528571D01*
X120721666Y-102052381D02*
X121197857Y-102052381D01*
X121197857Y-101052381D01*
X120721666Y-101052381D01*
X119721666Y-102052381D02*
X120055000Y-101576190D01*
X120293095Y-102052381D02*
X120293095Y-101052381D01*
X119912142Y-101052381D01*
X119816904Y-101100000D01*
X119769285Y-101147619D01*
X119721666Y-101242857D01*
X119721666Y-101385714D01*
X119769285Y-101480952D01*
X119816904Y-101528571D01*
X119912142Y-101576190D01*
X120293095Y-101576190D01*
X119340714Y-102004762D02*
X119197857Y-102052381D01*
X118959761Y-102052381D01*
X118864523Y-102004762D01*
X118816904Y-101957143D01*
X118769285Y-101861905D01*
X118769285Y-101766667D01*
X118816904Y-101671429D01*
X118864523Y-101623810D01*
X118959761Y-101576190D01*
X119150238Y-101528571D01*
X119245476Y-101480952D01*
X119293095Y-101433333D01*
X119340714Y-101338095D01*
X119340714Y-101242857D01*
X119293095Y-101147619D01*
X119245476Y-101100000D01*
X119150238Y-101052381D01*
X118912142Y-101052381D01*
X118769285Y-101100000D01*
D10*
X126605715Y-98748810D02*
X126491429Y-98786905D01*
X126300953Y-98786905D01*
X126224763Y-98748810D01*
X126186667Y-98710714D01*
X126148572Y-98634524D01*
X126148572Y-98558333D01*
X126186667Y-98482143D01*
X126224763Y-98444048D01*
X126300953Y-98405952D01*
X126453334Y-98367857D01*
X126529525Y-98329762D01*
X126567620Y-98291667D01*
X126605715Y-98215476D01*
X126605715Y-98139286D01*
X126567620Y-98063095D01*
X126529525Y-98025000D01*
X126453334Y-97986905D01*
X126262858Y-97986905D01*
X126148572Y-98025000D01*
X126377144Y-97872619D02*
X126377144Y-98901190D01*
X125386667Y-98786905D02*
X125843810Y-98786905D01*
X125615239Y-98786905D02*
X125615239Y-97986905D01*
X125691429Y-98101190D01*
X125767620Y-98177381D01*
X125843810Y-98215476D01*
X125120000Y-97986905D02*
X124586667Y-97986905D01*
X124929524Y-98786905D01*
X124167619Y-98329762D02*
X124243810Y-98291667D01*
X124281905Y-98253571D01*
X124320000Y-98177381D01*
X124320000Y-98139286D01*
X124281905Y-98063095D01*
X124243810Y-98025000D01*
X124167619Y-97986905D01*
X124015238Y-97986905D01*
X123939048Y-98025000D01*
X123900952Y-98063095D01*
X123862857Y-98139286D01*
X123862857Y-98177381D01*
X123900952Y-98253571D01*
X123939048Y-98291667D01*
X124015238Y-98329762D01*
X124167619Y-98329762D01*
X124243810Y-98367857D01*
X124281905Y-98405952D01*
X124320000Y-98482143D01*
X124320000Y-98634524D01*
X124281905Y-98710714D01*
X124243810Y-98748810D01*
X124167619Y-98786905D01*
X124015238Y-98786905D01*
X123939048Y-98748810D01*
X123900952Y-98710714D01*
X123862857Y-98634524D01*
X123862857Y-98482143D01*
X123900952Y-98405952D01*
X123939048Y-98367857D01*
X124015238Y-98329762D01*
X123367619Y-97986905D02*
X123291428Y-97986905D01*
X123215238Y-98025000D01*
X123177143Y-98063095D01*
X123139047Y-98139286D01*
X123100952Y-98291667D01*
X123100952Y-98482143D01*
X123139047Y-98634524D01*
X123177143Y-98710714D01*
X123215238Y-98748810D01*
X123291428Y-98786905D01*
X123367619Y-98786905D01*
X123443809Y-98748810D01*
X123481905Y-98710714D01*
X123520000Y-98634524D01*
X123558095Y-98482143D01*
X123558095Y-98291667D01*
X123520000Y-98139286D01*
X123481905Y-98063095D01*
X123443809Y-98025000D01*
X123367619Y-97986905D01*
X122148571Y-98482143D02*
X121539047Y-98482143D01*
X120586666Y-98748810D02*
X120472380Y-98786905D01*
X120281904Y-98786905D01*
X120205714Y-98748810D01*
X120167618Y-98710714D01*
X120129523Y-98634524D01*
X120129523Y-98558333D01*
X120167618Y-98482143D01*
X120205714Y-98444048D01*
X120281904Y-98405952D01*
X120434285Y-98367857D01*
X120510476Y-98329762D01*
X120548571Y-98291667D01*
X120586666Y-98215476D01*
X120586666Y-98139286D01*
X120548571Y-98063095D01*
X120510476Y-98025000D01*
X120434285Y-97986905D01*
X120243809Y-97986905D01*
X120129523Y-98025000D01*
X120358095Y-97872619D02*
X120358095Y-98901190D01*
X119367618Y-98786905D02*
X119824761Y-98786905D01*
X119596190Y-98786905D02*
X119596190Y-97986905D01*
X119672380Y-98101190D01*
X119748571Y-98177381D01*
X119824761Y-98215476D01*
X119100951Y-97986905D02*
X118567618Y-97986905D01*
X118910475Y-98786905D01*
X117996189Y-98367857D02*
X118262856Y-98367857D01*
X118262856Y-98786905D02*
X118262856Y-97986905D01*
X117881903Y-97986905D01*
X117310475Y-98367857D02*
X117577142Y-98367857D01*
X117577142Y-98786905D02*
X117577142Y-97986905D01*
X117196189Y-97986905D01*
D11*
X126015238Y-96924762D02*
X125872381Y-96972381D01*
X125634285Y-96972381D01*
X125539047Y-96924762D01*
X125491428Y-96877143D01*
X125443809Y-96781905D01*
X125443809Y-96686667D01*
X125491428Y-96591429D01*
X125539047Y-96543810D01*
X125634285Y-96496190D01*
X125824762Y-96448571D01*
X125920000Y-96400952D01*
X125967619Y-96353333D01*
X126015238Y-96258095D01*
X126015238Y-96162857D01*
X125967619Y-96067619D01*
X125920000Y-96020000D01*
X125824762Y-95972381D01*
X125586666Y-95972381D01*
X125443809Y-96020000D01*
X125158095Y-95972381D02*
X124586666Y-95972381D01*
X124872381Y-96972381D02*
X124872381Y-95972381D01*
X124300952Y-96686667D02*
X123824761Y-96686667D01*
X124396190Y-96972381D02*
X124062857Y-95972381D01*
X123729523Y-96972381D01*
X123539047Y-95972381D02*
X122967618Y-95972381D01*
X123253333Y-96972381D02*
X123253333Y-95972381D01*
X122634285Y-96972381D02*
X122634285Y-95972381D01*
X121586666Y-96877143D02*
X121634285Y-96924762D01*
X121777142Y-96972381D01*
X121872380Y-96972381D01*
X122015238Y-96924762D01*
X122110476Y-96829524D01*
X122158095Y-96734286D01*
X122205714Y-96543810D01*
X122205714Y-96400952D01*
X122158095Y-96210476D01*
X122110476Y-96115238D01*
X122015238Y-96020000D01*
X121872380Y-95972381D01*
X121777142Y-95972381D01*
X121634285Y-96020000D01*
X121586666Y-96067619D01*
X119824761Y-96972381D02*
X120158095Y-96496190D01*
X120396190Y-96972381D02*
X120396190Y-95972381D01*
X120015237Y-95972381D01*
X119919999Y-96020000D01*
X119872380Y-96067619D01*
X119824761Y-96162857D01*
X119824761Y-96305714D01*
X119872380Y-96400952D01*
X119919999Y-96448571D01*
X120015237Y-96496190D01*
X120396190Y-96496190D01*
X119443809Y-96686667D02*
X118967618Y-96686667D01*
X119539047Y-96972381D02*
X119205714Y-95972381D01*
X118872380Y-96972381D01*
X118539047Y-96972381D02*
X118539047Y-95972381D01*
X118205713Y-96686667D01*
X117872380Y-95972381D01*
X117872380Y-96972381D01*
X196261905Y-91844762D02*
X196119048Y-91892381D01*
X195880952Y-91892381D01*
X195785714Y-91844762D01*
X195738095Y-91797143D01*
X195690476Y-91701905D01*
X195690476Y-91606667D01*
X195738095Y-91511429D01*
X195785714Y-91463810D01*
X195880952Y-91416190D01*
X196071429Y-91368571D01*
X196166667Y-91320952D01*
X196214286Y-91273333D01*
X196261905Y-91178095D01*
X196261905Y-91082857D01*
X196214286Y-90987619D01*
X196166667Y-90940000D01*
X196071429Y-90892381D01*
X195833333Y-90892381D01*
X195690476Y-90940000D01*
X195976191Y-90749524D02*
X195976191Y-92035238D01*
X194738095Y-91892381D02*
X195309524Y-91892381D01*
X195023810Y-91892381D02*
X195023810Y-90892381D01*
X195119048Y-91035238D01*
X195214286Y-91130476D01*
X195309524Y-91178095D01*
X194166667Y-91320952D02*
X194261905Y-91273333D01*
X194309524Y-91225714D01*
X194357143Y-91130476D01*
X194357143Y-91082857D01*
X194309524Y-90987619D01*
X194261905Y-90940000D01*
X194166667Y-90892381D01*
X193976190Y-90892381D01*
X193880952Y-90940000D01*
X193833333Y-90987619D01*
X193785714Y-91082857D01*
X193785714Y-91130476D01*
X193833333Y-91225714D01*
X193880952Y-91273333D01*
X193976190Y-91320952D01*
X194166667Y-91320952D01*
X194261905Y-91368571D01*
X194309524Y-91416190D01*
X194357143Y-91511429D01*
X194357143Y-91701905D01*
X194309524Y-91797143D01*
X194261905Y-91844762D01*
X194166667Y-91892381D01*
X193976190Y-91892381D01*
X193880952Y-91844762D01*
X193833333Y-91797143D01*
X193785714Y-91701905D01*
X193785714Y-91511429D01*
X193833333Y-91416190D01*
X193880952Y-91368571D01*
X193976190Y-91320952D01*
X193166667Y-90892381D02*
X193071428Y-90892381D01*
X192976190Y-90940000D01*
X192928571Y-90987619D01*
X192880952Y-91082857D01*
X192833333Y-91273333D01*
X192833333Y-91511429D01*
X192880952Y-91701905D01*
X192928571Y-91797143D01*
X192976190Y-91844762D01*
X193071428Y-91892381D01*
X193166667Y-91892381D01*
X193261905Y-91844762D01*
X193309524Y-91797143D01*
X193357143Y-91701905D01*
X193404762Y-91511429D01*
X193404762Y-91273333D01*
X193357143Y-91082857D01*
X193309524Y-90987619D01*
X193261905Y-90940000D01*
X193166667Y-90892381D01*
X192214286Y-90892381D02*
X192119047Y-90892381D01*
X192023809Y-90940000D01*
X191976190Y-90987619D01*
X191928571Y-91082857D01*
X191880952Y-91273333D01*
X191880952Y-91511429D01*
X191928571Y-91701905D01*
X191976190Y-91797143D01*
X192023809Y-91844762D01*
X192119047Y-91892381D01*
X192214286Y-91892381D01*
X192309524Y-91844762D01*
X192357143Y-91797143D01*
X192404762Y-91701905D01*
X192452381Y-91511429D01*
X192452381Y-91273333D01*
X192404762Y-91082857D01*
X192357143Y-90987619D01*
X192309524Y-90940000D01*
X192214286Y-90892381D01*
X190690476Y-91511429D02*
X189928571Y-91511429D01*
X188738095Y-91844762D02*
X188595238Y-91892381D01*
X188357142Y-91892381D01*
X188261904Y-91844762D01*
X188214285Y-91797143D01*
X188166666Y-91701905D01*
X188166666Y-91606667D01*
X188214285Y-91511429D01*
X188261904Y-91463810D01*
X188357142Y-91416190D01*
X188547619Y-91368571D01*
X188642857Y-91320952D01*
X188690476Y-91273333D01*
X188738095Y-91178095D01*
X188738095Y-91082857D01*
X188690476Y-90987619D01*
X188642857Y-90940000D01*
X188547619Y-90892381D01*
X188309523Y-90892381D01*
X188166666Y-90940000D01*
X188452381Y-90749524D02*
X188452381Y-92035238D01*
X187404761Y-91368571D02*
X187738095Y-91368571D01*
X187738095Y-91892381D02*
X187738095Y-90892381D01*
X187261904Y-90892381D01*
X186547618Y-91368571D02*
X186880952Y-91368571D01*
X186880952Y-91892381D02*
X186880952Y-90892381D01*
X186404761Y-90892381D01*
X185690475Y-91368571D02*
X186023809Y-91368571D01*
X186023809Y-91892381D02*
X186023809Y-90892381D01*
X185547618Y-90892381D01*
X184833332Y-91368571D02*
X185166666Y-91368571D01*
X185166666Y-91892381D02*
X185166666Y-90892381D01*
X184690475Y-90892381D01*
X127777143Y-91844762D02*
X127634286Y-91892381D01*
X127396190Y-91892381D01*
X127300952Y-91844762D01*
X127253333Y-91797143D01*
X127205714Y-91701905D01*
X127205714Y-91606667D01*
X127253333Y-91511429D01*
X127300952Y-91463810D01*
X127396190Y-91416190D01*
X127586667Y-91368571D01*
X127681905Y-91320952D01*
X127729524Y-91273333D01*
X127777143Y-91178095D01*
X127777143Y-91082857D01*
X127729524Y-90987619D01*
X127681905Y-90940000D01*
X127586667Y-90892381D01*
X127348571Y-90892381D01*
X127205714Y-90940000D01*
X127491429Y-90749524D02*
X127491429Y-92035238D01*
X126253333Y-91892381D02*
X126824762Y-91892381D01*
X126539048Y-91892381D02*
X126539048Y-90892381D01*
X126634286Y-91035238D01*
X126729524Y-91130476D01*
X126824762Y-91178095D01*
X125920000Y-90892381D02*
X125253333Y-90892381D01*
X125681905Y-91892381D01*
X124443809Y-91225714D02*
X124443809Y-91892381D01*
X124681905Y-90844762D02*
X124920000Y-91559048D01*
X124300952Y-91559048D01*
X123729524Y-90892381D02*
X123634285Y-90892381D01*
X123539047Y-90940000D01*
X123491428Y-90987619D01*
X123443809Y-91082857D01*
X123396190Y-91273333D01*
X123396190Y-91511429D01*
X123443809Y-91701905D01*
X123491428Y-91797143D01*
X123539047Y-91844762D01*
X123634285Y-91892381D01*
X123729524Y-91892381D01*
X123824762Y-91844762D01*
X123872381Y-91797143D01*
X123920000Y-91701905D01*
X123967619Y-91511429D01*
X123967619Y-91273333D01*
X123920000Y-91082857D01*
X123872381Y-90987619D01*
X123824762Y-90940000D01*
X123729524Y-90892381D01*
X122205714Y-91511429D02*
X121443809Y-91511429D01*
X120253333Y-91844762D02*
X120110476Y-91892381D01*
X119872380Y-91892381D01*
X119777142Y-91844762D01*
X119729523Y-91797143D01*
X119681904Y-91701905D01*
X119681904Y-91606667D01*
X119729523Y-91511429D01*
X119777142Y-91463810D01*
X119872380Y-91416190D01*
X120062857Y-91368571D01*
X120158095Y-91320952D01*
X120205714Y-91273333D01*
X120253333Y-91178095D01*
X120253333Y-91082857D01*
X120205714Y-90987619D01*
X120158095Y-90940000D01*
X120062857Y-90892381D01*
X119824761Y-90892381D01*
X119681904Y-90940000D01*
X119967619Y-90749524D02*
X119967619Y-92035238D01*
X118729523Y-91892381D02*
X119300952Y-91892381D01*
X119015238Y-91892381D02*
X119015238Y-90892381D01*
X119110476Y-91035238D01*
X119205714Y-91130476D01*
X119300952Y-91178095D01*
X118396190Y-90892381D02*
X117729523Y-90892381D01*
X118158095Y-91892381D01*
X117015237Y-91368571D02*
X117348571Y-91368571D01*
X117348571Y-91892381D02*
X117348571Y-90892381D01*
X116872380Y-90892381D01*
X116158094Y-91368571D02*
X116491428Y-91368571D01*
X116491428Y-91892381D02*
X116491428Y-90892381D01*
X116015237Y-90892381D01*
X173497143Y-91844762D02*
X173354286Y-91892381D01*
X173116190Y-91892381D01*
X173020952Y-91844762D01*
X172973333Y-91797143D01*
X172925714Y-91701905D01*
X172925714Y-91606667D01*
X172973333Y-91511429D01*
X173020952Y-91463810D01*
X173116190Y-91416190D01*
X173306667Y-91368571D01*
X173401905Y-91320952D01*
X173449524Y-91273333D01*
X173497143Y-91178095D01*
X173497143Y-91082857D01*
X173449524Y-90987619D01*
X173401905Y-90940000D01*
X173306667Y-90892381D01*
X173068571Y-90892381D01*
X172925714Y-90940000D01*
X173211429Y-90749524D02*
X173211429Y-92035238D01*
X172306667Y-90892381D02*
X172211428Y-90892381D01*
X172116190Y-90940000D01*
X172068571Y-90987619D01*
X172020952Y-91082857D01*
X171973333Y-91273333D01*
X171973333Y-91511429D01*
X172020952Y-91701905D01*
X172068571Y-91797143D01*
X172116190Y-91844762D01*
X172211428Y-91892381D01*
X172306667Y-91892381D01*
X172401905Y-91844762D01*
X172449524Y-91797143D01*
X172497143Y-91701905D01*
X172544762Y-91511429D01*
X172544762Y-91273333D01*
X172497143Y-91082857D01*
X172449524Y-90987619D01*
X172401905Y-90940000D01*
X172306667Y-90892381D01*
X171354286Y-90892381D02*
X171259047Y-90892381D01*
X171163809Y-90940000D01*
X171116190Y-90987619D01*
X171068571Y-91082857D01*
X171020952Y-91273333D01*
X171020952Y-91511429D01*
X171068571Y-91701905D01*
X171116190Y-91797143D01*
X171163809Y-91844762D01*
X171259047Y-91892381D01*
X171354286Y-91892381D01*
X171449524Y-91844762D01*
X171497143Y-91797143D01*
X171544762Y-91701905D01*
X171592381Y-91511429D01*
X171592381Y-91273333D01*
X171544762Y-91082857D01*
X171497143Y-90987619D01*
X171449524Y-90940000D01*
X171354286Y-90892381D01*
X170401905Y-90892381D02*
X170306666Y-90892381D01*
X170211428Y-90940000D01*
X170163809Y-90987619D01*
X170116190Y-91082857D01*
X170068571Y-91273333D01*
X170068571Y-91511429D01*
X170116190Y-91701905D01*
X170163809Y-91797143D01*
X170211428Y-91844762D01*
X170306666Y-91892381D01*
X170401905Y-91892381D01*
X170497143Y-91844762D01*
X170544762Y-91797143D01*
X170592381Y-91701905D01*
X170640000Y-91511429D01*
X170640000Y-91273333D01*
X170592381Y-91082857D01*
X170544762Y-90987619D01*
X170497143Y-90940000D01*
X170401905Y-90892381D01*
X169449524Y-90892381D02*
X169354285Y-90892381D01*
X169259047Y-90940000D01*
X169211428Y-90987619D01*
X169163809Y-91082857D01*
X169116190Y-91273333D01*
X169116190Y-91511429D01*
X169163809Y-91701905D01*
X169211428Y-91797143D01*
X169259047Y-91844762D01*
X169354285Y-91892381D01*
X169449524Y-91892381D01*
X169544762Y-91844762D01*
X169592381Y-91797143D01*
X169640000Y-91701905D01*
X169687619Y-91511429D01*
X169687619Y-91273333D01*
X169640000Y-91082857D01*
X169592381Y-90987619D01*
X169544762Y-90940000D01*
X169449524Y-90892381D01*
X167925714Y-91511429D02*
X167163809Y-91511429D01*
X165973333Y-91844762D02*
X165830476Y-91892381D01*
X165592380Y-91892381D01*
X165497142Y-91844762D01*
X165449523Y-91797143D01*
X165401904Y-91701905D01*
X165401904Y-91606667D01*
X165449523Y-91511429D01*
X165497142Y-91463810D01*
X165592380Y-91416190D01*
X165782857Y-91368571D01*
X165878095Y-91320952D01*
X165925714Y-91273333D01*
X165973333Y-91178095D01*
X165973333Y-91082857D01*
X165925714Y-90987619D01*
X165878095Y-90940000D01*
X165782857Y-90892381D01*
X165544761Y-90892381D01*
X165401904Y-90940000D01*
X165687619Y-90749524D02*
X165687619Y-92035238D01*
X164782857Y-90892381D02*
X164687618Y-90892381D01*
X164592380Y-90940000D01*
X164544761Y-90987619D01*
X164497142Y-91082857D01*
X164449523Y-91273333D01*
X164449523Y-91511429D01*
X164497142Y-91701905D01*
X164544761Y-91797143D01*
X164592380Y-91844762D01*
X164687618Y-91892381D01*
X164782857Y-91892381D01*
X164878095Y-91844762D01*
X164925714Y-91797143D01*
X164973333Y-91701905D01*
X165020952Y-91511429D01*
X165020952Y-91273333D01*
X164973333Y-91082857D01*
X164925714Y-90987619D01*
X164878095Y-90940000D01*
X164782857Y-90892381D01*
X164116190Y-90892381D02*
X163497142Y-90892381D01*
X163830476Y-91273333D01*
X163687618Y-91273333D01*
X163592380Y-91320952D01*
X163544761Y-91368571D01*
X163497142Y-91463810D01*
X163497142Y-91701905D01*
X163544761Y-91797143D01*
X163592380Y-91844762D01*
X163687618Y-91892381D01*
X163973333Y-91892381D01*
X164068571Y-91844762D01*
X164116190Y-91797143D01*
X162735237Y-91368571D02*
X163068571Y-91368571D01*
X163068571Y-91892381D02*
X163068571Y-90892381D01*
X162592380Y-90892381D01*
X161878094Y-91368571D02*
X162211428Y-91368571D01*
X162211428Y-91892381D02*
X162211428Y-90892381D01*
X161735237Y-90892381D01*
D12*
X198120000Y-123190000D02*
X177165000Y-123190000D01*
X198120000Y-135890000D02*
X177165000Y-135890000D01*
X198120000Y-123190000D02*
X198120000Y-135890000D01*
X177165000Y-118745000D02*
X182245000Y-118745000D01*
X198120000Y-122555000D02*
X198120000Y-119380000D01*
X196850000Y-122555000D02*
X198120000Y-122555000D01*
X189230000Y-122555000D02*
X193040000Y-122555000D01*
X189230000Y-119380000D02*
X189230000Y-122555000D01*
X180975000Y-122555000D02*
X177165000Y-122555000D01*
X186055000Y-122555000D02*
X184785000Y-122555000D01*
X186055000Y-119380000D02*
X186055000Y-122555000D01*
X177165000Y-122555000D02*
X177165000Y-118745000D01*
X177165000Y-135890000D02*
X177165000Y-123190000D01*
X178435000Y-136525000D02*
X177165000Y-136525000D01*
X186055000Y-136525000D02*
X182245000Y-136525000D01*
X182245000Y-143510000D02*
X186055000Y-143510000D01*
X177165000Y-143510000D02*
X178435000Y-143510000D01*
X177165000Y-143510000D02*
X177165000Y-136525000D01*
X186055000Y-136525000D02*
X186055000Y-143510000D01*
D11*
X193888572Y-128718571D02*
X193602858Y-128718571D01*
X193460000Y-128790000D01*
X193317143Y-128932857D01*
X193245715Y-129218571D01*
X193245715Y-129718571D01*
X193317143Y-130004286D01*
X193460000Y-130147143D01*
X193602858Y-130218571D01*
X193888572Y-130218571D01*
X194031429Y-130147143D01*
X194174286Y-130004286D01*
X194245715Y-129718571D01*
X194245715Y-129218571D01*
X194174286Y-128932857D01*
X194031429Y-128790000D01*
X193888572Y-128718571D01*
X192674286Y-130147143D02*
X192460000Y-130218571D01*
X192102857Y-130218571D01*
X191960000Y-130147143D01*
X191888571Y-130075714D01*
X191817143Y-129932857D01*
X191817143Y-129790000D01*
X191888571Y-129647143D01*
X191960000Y-129575714D01*
X192102857Y-129504286D01*
X192388571Y-129432857D01*
X192531429Y-129361429D01*
X192602857Y-129290000D01*
X192674286Y-129147143D01*
X192674286Y-129004286D01*
X192602857Y-128861429D01*
X192531429Y-128790000D01*
X192388571Y-128718571D01*
X192031429Y-128718571D01*
X191817143Y-128790000D01*
X190317143Y-130075714D02*
X190388572Y-130147143D01*
X190602858Y-130218571D01*
X190745715Y-130218571D01*
X190960000Y-130147143D01*
X191102858Y-130004286D01*
X191174286Y-129861429D01*
X191245715Y-129575714D01*
X191245715Y-129361429D01*
X191174286Y-129075714D01*
X191102858Y-128932857D01*
X190960000Y-128790000D01*
X190745715Y-128718571D01*
X190602858Y-128718571D01*
X190388572Y-128790000D01*
X190317143Y-128861429D01*
X189674286Y-130218571D02*
X189674286Y-128718571D01*
X188245714Y-130218571D02*
X188960000Y-130218571D01*
X188960000Y-128718571D01*
X187031428Y-130218571D02*
X187745714Y-130218571D01*
X187745714Y-128718571D01*
X186602857Y-129790000D02*
X185888571Y-129790000D01*
X186745714Y-130218571D02*
X186245714Y-128718571D01*
X185745714Y-130218571D01*
X185460000Y-128718571D02*
X184602857Y-128718571D01*
X185031428Y-130218571D02*
X185031428Y-128718571D01*
X183817143Y-128718571D02*
X183531429Y-128718571D01*
X183388571Y-128790000D01*
X183245714Y-128932857D01*
X183174286Y-129218571D01*
X183174286Y-129718571D01*
X183245714Y-130004286D01*
X183388571Y-130147143D01*
X183531429Y-130218571D01*
X183817143Y-130218571D01*
X183960000Y-130147143D01*
X184102857Y-130004286D01*
X184174286Y-129718571D01*
X184174286Y-129218571D01*
X184102857Y-128932857D01*
X183960000Y-128790000D01*
X183817143Y-128718571D01*
X181674285Y-130218571D02*
X182174285Y-129504286D01*
X182531428Y-130218571D02*
X182531428Y-128718571D01*
X181960000Y-128718571D01*
X181817142Y-128790000D01*
X181745714Y-128861429D01*
X181674285Y-129004286D01*
X181674285Y-129218571D01*
X181745714Y-129361429D01*
X181817142Y-129432857D01*
X181960000Y-129504286D01*
X182531428Y-129504286D01*
X194642857Y-88792857D02*
X194142857Y-88792857D01*
X193928571Y-89578571D02*
X194642857Y-89578571D01*
X194642857Y-88078571D01*
X193928571Y-88078571D01*
X193285714Y-88792857D02*
X192785714Y-88792857D01*
X192571428Y-89578571D02*
X193285714Y-89578571D01*
X193285714Y-88078571D01*
X192571428Y-88078571D01*
X191928571Y-89578571D02*
X191928571Y-88078571D01*
X191357143Y-88078571D01*
X191214285Y-88150000D01*
X191142857Y-88221429D01*
X191071428Y-88364286D01*
X191071428Y-88578571D01*
X191142857Y-88721429D01*
X191214285Y-88792857D01*
X191357143Y-88864286D01*
X191928571Y-88864286D01*
X189571428Y-89578571D02*
X190071428Y-88864286D01*
X190428571Y-89578571D02*
X190428571Y-88078571D01*
X189857143Y-88078571D01*
X189714285Y-88150000D01*
X189642857Y-88221429D01*
X189571428Y-88364286D01*
X189571428Y-88578571D01*
X189642857Y-88721429D01*
X189714285Y-88792857D01*
X189857143Y-88864286D01*
X190428571Y-88864286D01*
X188642857Y-88078571D02*
X188357143Y-88078571D01*
X188214285Y-88150000D01*
X188071428Y-88292857D01*
X188000000Y-88578571D01*
X188000000Y-89078571D01*
X188071428Y-89364286D01*
X188214285Y-89507143D01*
X188357143Y-89578571D01*
X188642857Y-89578571D01*
X188785714Y-89507143D01*
X188928571Y-89364286D01*
X189000000Y-89078571D01*
X189000000Y-88578571D01*
X188928571Y-88292857D01*
X188785714Y-88150000D01*
X188642857Y-88078571D01*
X187357142Y-89578571D02*
X187357142Y-88078571D01*
X186857142Y-89150000D01*
X186357142Y-88078571D01*
X186357142Y-89578571D01*
X173782857Y-89507143D02*
X173568571Y-89578571D01*
X173211428Y-89578571D01*
X173068571Y-89507143D01*
X172997142Y-89435714D01*
X172925714Y-89292857D01*
X172925714Y-89150000D01*
X172997142Y-89007143D01*
X173068571Y-88935714D01*
X173211428Y-88864286D01*
X173497142Y-88792857D01*
X173640000Y-88721429D01*
X173711428Y-88650000D01*
X173782857Y-88507143D01*
X173782857Y-88364286D01*
X173711428Y-88221429D01*
X173640000Y-88150000D01*
X173497142Y-88078571D01*
X173140000Y-88078571D01*
X172925714Y-88150000D01*
X172497143Y-88078571D02*
X171640000Y-88078571D01*
X172068571Y-89578571D02*
X172068571Y-88078571D01*
X171211429Y-89150000D02*
X170497143Y-89150000D01*
X171354286Y-89578571D02*
X170854286Y-88078571D01*
X170354286Y-89578571D01*
X170068572Y-88078571D02*
X169211429Y-88078571D01*
X169640000Y-89578571D02*
X169640000Y-88078571D01*
X168711429Y-89578571D02*
X168711429Y-88078571D01*
X167140000Y-89435714D02*
X167211429Y-89507143D01*
X167425715Y-89578571D01*
X167568572Y-89578571D01*
X167782857Y-89507143D01*
X167925715Y-89364286D01*
X167997143Y-89221429D01*
X168068572Y-88935714D01*
X168068572Y-88721429D01*
X167997143Y-88435714D01*
X167925715Y-88292857D01*
X167782857Y-88150000D01*
X167568572Y-88078571D01*
X167425715Y-88078571D01*
X167211429Y-88150000D01*
X167140000Y-88221429D01*
X164497143Y-89578571D02*
X164997143Y-88864286D01*
X165354286Y-89578571D02*
X165354286Y-88078571D01*
X164782858Y-88078571D01*
X164640000Y-88150000D01*
X164568572Y-88221429D01*
X164497143Y-88364286D01*
X164497143Y-88578571D01*
X164568572Y-88721429D01*
X164640000Y-88792857D01*
X164782858Y-88864286D01*
X165354286Y-88864286D01*
X163925715Y-89150000D02*
X163211429Y-89150000D01*
X164068572Y-89578571D02*
X163568572Y-88078571D01*
X163068572Y-89578571D01*
X162568572Y-89578571D02*
X162568572Y-88078571D01*
X162068572Y-89150000D01*
X161568572Y-88078571D01*
X161568572Y-89578571D01*
X149494285Y-88078571D02*
X149779999Y-88078571D01*
X149922856Y-88150000D01*
X149994285Y-88221429D01*
X150137142Y-88435714D01*
X150208571Y-88721429D01*
X150208571Y-89292857D01*
X150137142Y-89435714D01*
X150065714Y-89507143D01*
X149922856Y-89578571D01*
X149637142Y-89578571D01*
X149494285Y-89507143D01*
X149422856Y-89435714D01*
X149351428Y-89292857D01*
X149351428Y-88935714D01*
X149422856Y-88792857D01*
X149494285Y-88721429D01*
X149637142Y-88650000D01*
X149922856Y-88650000D01*
X150065714Y-88721429D01*
X150137142Y-88792857D01*
X150208571Y-88935714D01*
X147994285Y-88078571D02*
X148708571Y-88078571D01*
X148780000Y-88792857D01*
X148708571Y-88721429D01*
X148565714Y-88650000D01*
X148208571Y-88650000D01*
X148065714Y-88721429D01*
X147994285Y-88792857D01*
X147922857Y-88935714D01*
X147922857Y-89292857D01*
X147994285Y-89435714D01*
X148065714Y-89507143D01*
X148208571Y-89578571D01*
X148565714Y-89578571D01*
X148708571Y-89507143D01*
X148780000Y-89435714D01*
X146994286Y-88078571D02*
X146851429Y-88078571D01*
X146708572Y-88150000D01*
X146637143Y-88221429D01*
X146565714Y-88364286D01*
X146494286Y-88650000D01*
X146494286Y-89007143D01*
X146565714Y-89292857D01*
X146637143Y-89435714D01*
X146708572Y-89507143D01*
X146851429Y-89578571D01*
X146994286Y-89578571D01*
X147137143Y-89507143D01*
X147208572Y-89435714D01*
X147280000Y-89292857D01*
X147351429Y-89007143D01*
X147351429Y-88650000D01*
X147280000Y-88364286D01*
X147208572Y-88221429D01*
X147137143Y-88150000D01*
X146994286Y-88078571D01*
X145922858Y-88221429D02*
X145851429Y-88150000D01*
X145708572Y-88078571D01*
X145351429Y-88078571D01*
X145208572Y-88150000D01*
X145137143Y-88221429D01*
X145065715Y-88364286D01*
X145065715Y-88507143D01*
X145137143Y-88721429D01*
X145994286Y-89578571D01*
X145065715Y-89578571D01*
X142422858Y-89435714D02*
X142494287Y-89507143D01*
X142708573Y-89578571D01*
X142851430Y-89578571D01*
X143065715Y-89507143D01*
X143208573Y-89364286D01*
X143280001Y-89221429D01*
X143351430Y-88935714D01*
X143351430Y-88721429D01*
X143280001Y-88435714D01*
X143208573Y-88292857D01*
X143065715Y-88150000D01*
X142851430Y-88078571D01*
X142708573Y-88078571D01*
X142494287Y-88150000D01*
X142422858Y-88221429D01*
X141780001Y-89578571D02*
X141780001Y-88078571D01*
X141208573Y-88078571D01*
X141065715Y-88150000D01*
X140994287Y-88221429D01*
X140922858Y-88364286D01*
X140922858Y-88578571D01*
X140994287Y-88721429D01*
X141065715Y-88792857D01*
X141208573Y-88864286D01*
X141780001Y-88864286D01*
X140280001Y-88078571D02*
X140280001Y-89292857D01*
X140208573Y-89435714D01*
X140137144Y-89507143D01*
X139994287Y-89578571D01*
X139708573Y-89578571D01*
X139565715Y-89507143D01*
X139494287Y-89435714D01*
X139422858Y-89292857D01*
X139422858Y-88078571D01*
X126812856Y-88078571D02*
X127098570Y-88078571D01*
X127241427Y-88150000D01*
X127312856Y-88221429D01*
X127455713Y-88435714D01*
X127527142Y-88721429D01*
X127527142Y-89292857D01*
X127455713Y-89435714D01*
X127384285Y-89507143D01*
X127241427Y-89578571D01*
X126955713Y-89578571D01*
X126812856Y-89507143D01*
X126741427Y-89435714D01*
X126669999Y-89292857D01*
X126669999Y-88935714D01*
X126741427Y-88792857D01*
X126812856Y-88721429D01*
X126955713Y-88650000D01*
X127241427Y-88650000D01*
X127384285Y-88721429D01*
X127455713Y-88792857D01*
X127527142Y-88935714D01*
X125312856Y-88078571D02*
X126027142Y-88078571D01*
X126098571Y-88792857D01*
X126027142Y-88721429D01*
X125884285Y-88650000D01*
X125527142Y-88650000D01*
X125384285Y-88721429D01*
X125312856Y-88792857D01*
X125241428Y-88935714D01*
X125241428Y-89292857D01*
X125312856Y-89435714D01*
X125384285Y-89507143D01*
X125527142Y-89578571D01*
X125884285Y-89578571D01*
X126027142Y-89507143D01*
X126098571Y-89435714D01*
X124741428Y-88078571D02*
X123812857Y-88078571D01*
X124312857Y-88650000D01*
X124098571Y-88650000D01*
X123955714Y-88721429D01*
X123884285Y-88792857D01*
X123812857Y-88935714D01*
X123812857Y-89292857D01*
X123884285Y-89435714D01*
X123955714Y-89507143D01*
X124098571Y-89578571D01*
X124527143Y-89578571D01*
X124670000Y-89507143D01*
X124741428Y-89435714D01*
X123241429Y-88221429D02*
X123170000Y-88150000D01*
X123027143Y-88078571D01*
X122670000Y-88078571D01*
X122527143Y-88150000D01*
X122455714Y-88221429D01*
X122384286Y-88364286D01*
X122384286Y-88507143D01*
X122455714Y-88721429D01*
X123312857Y-89578571D01*
X122384286Y-89578571D01*
X119741429Y-89578571D02*
X120241429Y-88864286D01*
X120598572Y-89578571D02*
X120598572Y-88078571D01*
X120027144Y-88078571D01*
X119884286Y-88150000D01*
X119812858Y-88221429D01*
X119741429Y-88364286D01*
X119741429Y-88578571D01*
X119812858Y-88721429D01*
X119884286Y-88792857D01*
X120027144Y-88864286D01*
X120598572Y-88864286D01*
X119098572Y-89578571D02*
X119098572Y-88078571D01*
X118098572Y-88078571D02*
X117812858Y-88078571D01*
X117670000Y-88150000D01*
X117527143Y-88292857D01*
X117455715Y-88578571D01*
X117455715Y-89078571D01*
X117527143Y-89364286D01*
X117670000Y-89507143D01*
X117812858Y-89578571D01*
X118098572Y-89578571D01*
X118241429Y-89507143D01*
X118384286Y-89364286D01*
X118455715Y-89078571D01*
X118455715Y-88578571D01*
X118384286Y-88292857D01*
X118241429Y-88150000D01*
X118098572Y-88078571D01*
X117027143Y-88078571D02*
X116170000Y-88078571D01*
X116598571Y-89578571D02*
X116598571Y-88078571D01*
D10*
X135350000Y-63808810D02*
X135235714Y-63846905D01*
X135045238Y-63846905D01*
X134969048Y-63808810D01*
X134930952Y-63770714D01*
X134892857Y-63694524D01*
X134892857Y-63618333D01*
X134930952Y-63542143D01*
X134969048Y-63504048D01*
X135045238Y-63465952D01*
X135197619Y-63427857D01*
X135273810Y-63389762D01*
X135311905Y-63351667D01*
X135350000Y-63275476D01*
X135350000Y-63199286D01*
X135311905Y-63123095D01*
X135273810Y-63085000D01*
X135197619Y-63046905D01*
X135007143Y-63046905D01*
X134892857Y-63085000D01*
X134626190Y-63046905D02*
X134435714Y-63846905D01*
X134283333Y-63275476D01*
X134130952Y-63846905D01*
X133940476Y-63046905D01*
X133635714Y-63846905D02*
X133635714Y-63046905D01*
X133369048Y-63046905D02*
X132911905Y-63046905D01*
X133140476Y-63846905D02*
X133140476Y-63046905D01*
X132188095Y-63770714D02*
X132226190Y-63808810D01*
X132340476Y-63846905D01*
X132416666Y-63846905D01*
X132530952Y-63808810D01*
X132607143Y-63732619D01*
X132645238Y-63656429D01*
X132683333Y-63504048D01*
X132683333Y-63389762D01*
X132645238Y-63237381D01*
X132607143Y-63161190D01*
X132530952Y-63085000D01*
X132416666Y-63046905D01*
X132340476Y-63046905D01*
X132226190Y-63085000D01*
X132188095Y-63123095D01*
X131845238Y-63846905D02*
X131845238Y-63046905D01*
X131845238Y-63427857D02*
X131388095Y-63427857D01*
X131388095Y-63846905D02*
X131388095Y-63046905D01*
X136340476Y-65146905D02*
X136340476Y-64346905D01*
X136150000Y-64346905D01*
X136035714Y-64385000D01*
X135959523Y-64461190D01*
X135921428Y-64537381D01*
X135883333Y-64689762D01*
X135883333Y-64804048D01*
X135921428Y-64956429D01*
X135959523Y-65032619D01*
X136035714Y-65108810D01*
X136150000Y-65146905D01*
X136340476Y-65146905D01*
X135540476Y-64727857D02*
X135273809Y-64727857D01*
X135159523Y-65146905D02*
X135540476Y-65146905D01*
X135540476Y-64346905D01*
X135159523Y-64346905D01*
X134549999Y-64727857D02*
X134435713Y-64765952D01*
X134397618Y-64804048D01*
X134359523Y-64880238D01*
X134359523Y-64994524D01*
X134397618Y-65070714D01*
X134435713Y-65108810D01*
X134511904Y-65146905D01*
X134816666Y-65146905D01*
X134816666Y-64346905D01*
X134549999Y-64346905D01*
X134473809Y-64385000D01*
X134435713Y-64423095D01*
X134397618Y-64499286D01*
X134397618Y-64575476D01*
X134435713Y-64651667D01*
X134473809Y-64689762D01*
X134549999Y-64727857D01*
X134816666Y-64727857D01*
X133864285Y-64346905D02*
X133711904Y-64346905D01*
X133635713Y-64385000D01*
X133559523Y-64461190D01*
X133521428Y-64613571D01*
X133521428Y-64880238D01*
X133559523Y-65032619D01*
X133635713Y-65108810D01*
X133711904Y-65146905D01*
X133864285Y-65146905D01*
X133940475Y-65108810D01*
X134016666Y-65032619D01*
X134054761Y-64880238D01*
X134054761Y-64613571D01*
X134016666Y-64461190D01*
X133940475Y-64385000D01*
X133864285Y-64346905D01*
X133178571Y-64346905D02*
X133178571Y-64994524D01*
X133140476Y-65070714D01*
X133102380Y-65108810D01*
X133026190Y-65146905D01*
X132873809Y-65146905D01*
X132797618Y-65108810D01*
X132759523Y-65070714D01*
X132721428Y-64994524D01*
X132721428Y-64346905D01*
X132340476Y-65146905D02*
X132340476Y-64346905D01*
X131883333Y-65146905D01*
X131883333Y-64346905D01*
X131045238Y-65070714D02*
X131083333Y-65108810D01*
X131197619Y-65146905D01*
X131273809Y-65146905D01*
X131388095Y-65108810D01*
X131464286Y-65032619D01*
X131502381Y-64956429D01*
X131540476Y-64804048D01*
X131540476Y-64689762D01*
X131502381Y-64537381D01*
X131464286Y-64461190D01*
X131388095Y-64385000D01*
X131273809Y-64346905D01*
X131197619Y-64346905D01*
X131083333Y-64385000D01*
X131045238Y-64423095D01*
X130702381Y-64727857D02*
X130435714Y-64727857D01*
X130321428Y-65146905D02*
X130702381Y-65146905D01*
X130702381Y-64346905D01*
X130321428Y-64346905D01*
X195700476Y-66386905D02*
X195700476Y-65586905D01*
X195243333Y-66386905D01*
X195243333Y-65586905D01*
X194900476Y-66158333D02*
X194519524Y-66158333D01*
X194976667Y-66386905D02*
X194710000Y-65586905D01*
X194443333Y-66386905D01*
X194176667Y-66386905D02*
X194176667Y-65586905D01*
X193719524Y-66386905D01*
X193719524Y-65586905D01*
X193338572Y-66386905D02*
X193338572Y-65586905D01*
X193148096Y-65586905D01*
X193033810Y-65625000D01*
X192957619Y-65701190D01*
X192919524Y-65777381D01*
X192881429Y-65929762D01*
X192881429Y-66044048D01*
X192919524Y-66196429D01*
X192957619Y-66272619D01*
X193033810Y-66348810D01*
X193148096Y-66386905D01*
X193338572Y-66386905D01*
X195490952Y-66925000D02*
X195567143Y-66886905D01*
X195681428Y-66886905D01*
X195795714Y-66925000D01*
X195871905Y-67001190D01*
X195910000Y-67077381D01*
X195948095Y-67229762D01*
X195948095Y-67344048D01*
X195910000Y-67496429D01*
X195871905Y-67572619D01*
X195795714Y-67648810D01*
X195681428Y-67686905D01*
X195605238Y-67686905D01*
X195490952Y-67648810D01*
X195452857Y-67610714D01*
X195452857Y-67344048D01*
X195605238Y-67344048D01*
X195148095Y-67458333D02*
X194767143Y-67458333D01*
X195224286Y-67686905D02*
X194957619Y-66886905D01*
X194690952Y-67686905D01*
X194538572Y-66886905D02*
X194081429Y-66886905D01*
X194310000Y-67686905D02*
X194310000Y-66886905D01*
X193814762Y-67267857D02*
X193548095Y-67267857D01*
X193433809Y-67686905D02*
X193814762Y-67686905D01*
X193814762Y-66886905D01*
X193433809Y-66886905D01*
X193129047Y-67648810D02*
X193014761Y-67686905D01*
X192824285Y-67686905D01*
X192748095Y-67648810D01*
X192709999Y-67610714D01*
X192671904Y-67534524D01*
X192671904Y-67458333D01*
X192709999Y-67382143D01*
X192748095Y-67344048D01*
X192824285Y-67305952D01*
X192976666Y-67267857D01*
X193052857Y-67229762D01*
X193090952Y-67191667D01*
X193129047Y-67115476D01*
X193129047Y-67039286D01*
X193090952Y-66963095D01*
X193052857Y-66925000D01*
X192976666Y-66886905D01*
X192786190Y-66886905D01*
X192671904Y-66925000D01*
X180460476Y-63846905D02*
X180460476Y-63046905D01*
X180003333Y-63846905D01*
X180003333Y-63046905D01*
X179660476Y-63618333D02*
X179279524Y-63618333D01*
X179736667Y-63846905D02*
X179470000Y-63046905D01*
X179203333Y-63846905D01*
X178936667Y-63846905D02*
X178936667Y-63046905D01*
X178479524Y-63846905D01*
X178479524Y-63046905D01*
X178098572Y-63846905D02*
X178098572Y-63046905D01*
X177908096Y-63046905D01*
X177793810Y-63085000D01*
X177717619Y-63161190D01*
X177679524Y-63237381D01*
X177641429Y-63389762D01*
X177641429Y-63504048D01*
X177679524Y-63656429D01*
X177717619Y-63732619D01*
X177793810Y-63808810D01*
X177908096Y-63846905D01*
X178098572Y-63846905D01*
X180250952Y-64385000D02*
X180327143Y-64346905D01*
X180441428Y-64346905D01*
X180555714Y-64385000D01*
X180631905Y-64461190D01*
X180670000Y-64537381D01*
X180708095Y-64689762D01*
X180708095Y-64804048D01*
X180670000Y-64956429D01*
X180631905Y-65032619D01*
X180555714Y-65108810D01*
X180441428Y-65146905D01*
X180365238Y-65146905D01*
X180250952Y-65108810D01*
X180212857Y-65070714D01*
X180212857Y-64804048D01*
X180365238Y-64804048D01*
X179908095Y-64918333D02*
X179527143Y-64918333D01*
X179984286Y-65146905D02*
X179717619Y-64346905D01*
X179450952Y-65146905D01*
X179298572Y-64346905D02*
X178841429Y-64346905D01*
X179070000Y-65146905D02*
X179070000Y-64346905D01*
X178574762Y-64727857D02*
X178308095Y-64727857D01*
X178193809Y-65146905D02*
X178574762Y-65146905D01*
X178574762Y-64346905D01*
X178193809Y-64346905D01*
X177889047Y-65108810D02*
X177774761Y-65146905D01*
X177584285Y-65146905D01*
X177508095Y-65108810D01*
X177469999Y-65070714D01*
X177431904Y-64994524D01*
X177431904Y-64918333D01*
X177469999Y-64842143D01*
X177508095Y-64804048D01*
X177584285Y-64765952D01*
X177736666Y-64727857D01*
X177812857Y-64689762D01*
X177850952Y-64651667D01*
X177889047Y-64575476D01*
X177889047Y-64499286D01*
X177850952Y-64423095D01*
X177812857Y-64385000D01*
X177736666Y-64346905D01*
X177546190Y-64346905D01*
X177431904Y-64385000D01*
X164420476Y-63226905D02*
X164420476Y-62426905D01*
X163963333Y-63226905D02*
X164306190Y-62769762D01*
X163963333Y-62426905D02*
X164420476Y-62884048D01*
X163239523Y-62426905D02*
X163620476Y-62426905D01*
X163658571Y-62807857D01*
X163620476Y-62769762D01*
X163544285Y-62731667D01*
X163353809Y-62731667D01*
X163277619Y-62769762D01*
X163239523Y-62807857D01*
X163201428Y-62884048D01*
X163201428Y-63074524D01*
X163239523Y-63150714D01*
X163277619Y-63188810D01*
X163353809Y-63226905D01*
X163544285Y-63226905D01*
X163620476Y-63188810D01*
X163658571Y-63150714D01*
X149447143Y-62769762D02*
X149523334Y-62731667D01*
X149561429Y-62693571D01*
X149599524Y-62617381D01*
X149599524Y-62579286D01*
X149561429Y-62503095D01*
X149523334Y-62465000D01*
X149447143Y-62426905D01*
X149294762Y-62426905D01*
X149218572Y-62465000D01*
X149180476Y-62503095D01*
X149142381Y-62579286D01*
X149142381Y-62617381D01*
X149180476Y-62693571D01*
X149218572Y-62731667D01*
X149294762Y-62769762D01*
X149447143Y-62769762D01*
X149523334Y-62807857D01*
X149561429Y-62845952D01*
X149599524Y-62922143D01*
X149599524Y-63074524D01*
X149561429Y-63150714D01*
X149523334Y-63188810D01*
X149447143Y-63226905D01*
X149294762Y-63226905D01*
X149218572Y-63188810D01*
X149180476Y-63150714D01*
X149142381Y-63074524D01*
X149142381Y-62922143D01*
X149180476Y-62845952D01*
X149218572Y-62807857D01*
X149294762Y-62769762D01*
X148799524Y-63226905D02*
X148799524Y-62426905D01*
X148342381Y-63226905D02*
X148685238Y-62769762D01*
X148342381Y-62426905D02*
X148799524Y-62884048D01*
X147847143Y-62426905D02*
X147770952Y-62426905D01*
X147694762Y-62465000D01*
X147656667Y-62503095D01*
X147618571Y-62579286D01*
X147580476Y-62731667D01*
X147580476Y-62922143D01*
X147618571Y-63074524D01*
X147656667Y-63150714D01*
X147694762Y-63188810D01*
X147770952Y-63226905D01*
X147847143Y-63226905D01*
X147923333Y-63188810D01*
X147961429Y-63150714D01*
X147999524Y-63074524D01*
X148037619Y-62922143D01*
X148037619Y-62731667D01*
X147999524Y-62579286D01*
X147961429Y-62503095D01*
X147923333Y-62465000D01*
X147847143Y-62426905D01*
X166344286Y-64888333D02*
X165963334Y-64888333D01*
X166420477Y-65116905D02*
X166153810Y-64316905D01*
X165887143Y-65116905D01*
X165620477Y-65116905D02*
X165620477Y-64316905D01*
X165430001Y-64316905D01*
X165315715Y-64355000D01*
X165239524Y-64431190D01*
X165201429Y-64507381D01*
X165163334Y-64659762D01*
X165163334Y-64774048D01*
X165201429Y-64926429D01*
X165239524Y-65002619D01*
X165315715Y-65078810D01*
X165430001Y-65116905D01*
X165620477Y-65116905D01*
X164820477Y-65116905D02*
X164820477Y-64316905D01*
X164630001Y-64316905D01*
X164515715Y-64355000D01*
X164439524Y-64431190D01*
X164401429Y-64507381D01*
X164363334Y-64659762D01*
X164363334Y-64774048D01*
X164401429Y-64926429D01*
X164439524Y-65002619D01*
X164515715Y-65078810D01*
X164630001Y-65116905D01*
X164820477Y-65116905D01*
X163563334Y-65116905D02*
X163830001Y-64735952D01*
X164020477Y-65116905D02*
X164020477Y-64316905D01*
X163715715Y-64316905D01*
X163639524Y-64355000D01*
X163601429Y-64393095D01*
X163563334Y-64469286D01*
X163563334Y-64583571D01*
X163601429Y-64659762D01*
X163639524Y-64697857D01*
X163715715Y-64735952D01*
X164020477Y-64735952D01*
X163220477Y-64697857D02*
X162953810Y-64697857D01*
X162839524Y-65116905D02*
X163220477Y-65116905D01*
X163220477Y-64316905D01*
X162839524Y-64316905D01*
X162534762Y-65078810D02*
X162420476Y-65116905D01*
X162230000Y-65116905D01*
X162153810Y-65078810D01*
X162115714Y-65040714D01*
X162077619Y-64964524D01*
X162077619Y-64888333D01*
X162115714Y-64812143D01*
X162153810Y-64774048D01*
X162230000Y-64735952D01*
X162382381Y-64697857D01*
X162458572Y-64659762D01*
X162496667Y-64621667D01*
X162534762Y-64545476D01*
X162534762Y-64469286D01*
X162496667Y-64393095D01*
X162458572Y-64355000D01*
X162382381Y-64316905D01*
X162191905Y-64316905D01*
X162077619Y-64355000D01*
X161772857Y-65078810D02*
X161658571Y-65116905D01*
X161468095Y-65116905D01*
X161391905Y-65078810D01*
X161353809Y-65040714D01*
X161315714Y-64964524D01*
X161315714Y-64888333D01*
X161353809Y-64812143D01*
X161391905Y-64774048D01*
X161468095Y-64735952D01*
X161620476Y-64697857D01*
X161696667Y-64659762D01*
X161734762Y-64621667D01*
X161772857Y-64545476D01*
X161772857Y-64469286D01*
X161734762Y-64393095D01*
X161696667Y-64355000D01*
X161620476Y-64316905D01*
X161430000Y-64316905D01*
X161315714Y-64355000D01*
X166382381Y-66416905D02*
X166382381Y-65616905D01*
X166191905Y-65616905D01*
X166077619Y-65655000D01*
X166001428Y-65731190D01*
X165963333Y-65807381D01*
X165925238Y-65959762D01*
X165925238Y-66074048D01*
X165963333Y-66226429D01*
X166001428Y-66302619D01*
X166077619Y-66378810D01*
X166191905Y-66416905D01*
X166382381Y-66416905D01*
X165582381Y-65997857D02*
X165315714Y-65997857D01*
X165201428Y-66416905D02*
X165582381Y-66416905D01*
X165582381Y-65616905D01*
X165201428Y-65616905D01*
X164401428Y-66340714D02*
X164439523Y-66378810D01*
X164553809Y-66416905D01*
X164629999Y-66416905D01*
X164744285Y-66378810D01*
X164820476Y-66302619D01*
X164858571Y-66226429D01*
X164896666Y-66074048D01*
X164896666Y-65959762D01*
X164858571Y-65807381D01*
X164820476Y-65731190D01*
X164744285Y-65655000D01*
X164629999Y-65616905D01*
X164553809Y-65616905D01*
X164439523Y-65655000D01*
X164401428Y-65693095D01*
X163906190Y-65616905D02*
X163753809Y-65616905D01*
X163677618Y-65655000D01*
X163601428Y-65731190D01*
X163563333Y-65883571D01*
X163563333Y-66150238D01*
X163601428Y-66302619D01*
X163677618Y-66378810D01*
X163753809Y-66416905D01*
X163906190Y-66416905D01*
X163982380Y-66378810D01*
X164058571Y-66302619D01*
X164096666Y-66150238D01*
X164096666Y-65883571D01*
X164058571Y-65731190D01*
X163982380Y-65655000D01*
X163906190Y-65616905D01*
X163220476Y-66416905D02*
X163220476Y-65616905D01*
X163030000Y-65616905D01*
X162915714Y-65655000D01*
X162839523Y-65731190D01*
X162801428Y-65807381D01*
X162763333Y-65959762D01*
X162763333Y-66074048D01*
X162801428Y-66226429D01*
X162839523Y-66302619D01*
X162915714Y-66378810D01*
X163030000Y-66416905D01*
X163220476Y-66416905D01*
X162420476Y-65997857D02*
X162153809Y-65997857D01*
X162039523Y-66416905D02*
X162420476Y-66416905D01*
X162420476Y-65616905D01*
X162039523Y-65616905D01*
X161239523Y-66416905D02*
X161506190Y-66035952D01*
X161696666Y-66416905D02*
X161696666Y-65616905D01*
X161391904Y-65616905D01*
X161315713Y-65655000D01*
X161277618Y-65693095D01*
X161239523Y-65769286D01*
X161239523Y-65883571D01*
X161277618Y-65959762D01*
X161315713Y-65997857D01*
X161391904Y-66035952D01*
X161696666Y-66035952D01*
X151104286Y-64888333D02*
X150723334Y-64888333D01*
X151180477Y-65116905D02*
X150913810Y-64316905D01*
X150647143Y-65116905D01*
X150380477Y-65116905D02*
X150380477Y-64316905D01*
X150190001Y-64316905D01*
X150075715Y-64355000D01*
X149999524Y-64431190D01*
X149961429Y-64507381D01*
X149923334Y-64659762D01*
X149923334Y-64774048D01*
X149961429Y-64926429D01*
X149999524Y-65002619D01*
X150075715Y-65078810D01*
X150190001Y-65116905D01*
X150380477Y-65116905D01*
X149580477Y-65116905D02*
X149580477Y-64316905D01*
X149390001Y-64316905D01*
X149275715Y-64355000D01*
X149199524Y-64431190D01*
X149161429Y-64507381D01*
X149123334Y-64659762D01*
X149123334Y-64774048D01*
X149161429Y-64926429D01*
X149199524Y-65002619D01*
X149275715Y-65078810D01*
X149390001Y-65116905D01*
X149580477Y-65116905D01*
X148323334Y-65116905D02*
X148590001Y-64735952D01*
X148780477Y-65116905D02*
X148780477Y-64316905D01*
X148475715Y-64316905D01*
X148399524Y-64355000D01*
X148361429Y-64393095D01*
X148323334Y-64469286D01*
X148323334Y-64583571D01*
X148361429Y-64659762D01*
X148399524Y-64697857D01*
X148475715Y-64735952D01*
X148780477Y-64735952D01*
X147980477Y-64697857D02*
X147713810Y-64697857D01*
X147599524Y-65116905D02*
X147980477Y-65116905D01*
X147980477Y-64316905D01*
X147599524Y-64316905D01*
X147294762Y-65078810D02*
X147180476Y-65116905D01*
X146990000Y-65116905D01*
X146913810Y-65078810D01*
X146875714Y-65040714D01*
X146837619Y-64964524D01*
X146837619Y-64888333D01*
X146875714Y-64812143D01*
X146913810Y-64774048D01*
X146990000Y-64735952D01*
X147142381Y-64697857D01*
X147218572Y-64659762D01*
X147256667Y-64621667D01*
X147294762Y-64545476D01*
X147294762Y-64469286D01*
X147256667Y-64393095D01*
X147218572Y-64355000D01*
X147142381Y-64316905D01*
X146951905Y-64316905D01*
X146837619Y-64355000D01*
X146532857Y-65078810D02*
X146418571Y-65116905D01*
X146228095Y-65116905D01*
X146151905Y-65078810D01*
X146113809Y-65040714D01*
X146075714Y-64964524D01*
X146075714Y-64888333D01*
X146113809Y-64812143D01*
X146151905Y-64774048D01*
X146228095Y-64735952D01*
X146380476Y-64697857D01*
X146456667Y-64659762D01*
X146494762Y-64621667D01*
X146532857Y-64545476D01*
X146532857Y-64469286D01*
X146494762Y-64393095D01*
X146456667Y-64355000D01*
X146380476Y-64316905D01*
X146190000Y-64316905D01*
X146075714Y-64355000D01*
X151142381Y-66416905D02*
X151142381Y-65616905D01*
X150951905Y-65616905D01*
X150837619Y-65655000D01*
X150761428Y-65731190D01*
X150723333Y-65807381D01*
X150685238Y-65959762D01*
X150685238Y-66074048D01*
X150723333Y-66226429D01*
X150761428Y-66302619D01*
X150837619Y-66378810D01*
X150951905Y-66416905D01*
X151142381Y-66416905D01*
X150342381Y-65997857D02*
X150075714Y-65997857D01*
X149961428Y-66416905D02*
X150342381Y-66416905D01*
X150342381Y-65616905D01*
X149961428Y-65616905D01*
X149161428Y-66340714D02*
X149199523Y-66378810D01*
X149313809Y-66416905D01*
X149389999Y-66416905D01*
X149504285Y-66378810D01*
X149580476Y-66302619D01*
X149618571Y-66226429D01*
X149656666Y-66074048D01*
X149656666Y-65959762D01*
X149618571Y-65807381D01*
X149580476Y-65731190D01*
X149504285Y-65655000D01*
X149389999Y-65616905D01*
X149313809Y-65616905D01*
X149199523Y-65655000D01*
X149161428Y-65693095D01*
X148666190Y-65616905D02*
X148513809Y-65616905D01*
X148437618Y-65655000D01*
X148361428Y-65731190D01*
X148323333Y-65883571D01*
X148323333Y-66150238D01*
X148361428Y-66302619D01*
X148437618Y-66378810D01*
X148513809Y-66416905D01*
X148666190Y-66416905D01*
X148742380Y-66378810D01*
X148818571Y-66302619D01*
X148856666Y-66150238D01*
X148856666Y-65883571D01*
X148818571Y-65731190D01*
X148742380Y-65655000D01*
X148666190Y-65616905D01*
X147980476Y-66416905D02*
X147980476Y-65616905D01*
X147790000Y-65616905D01*
X147675714Y-65655000D01*
X147599523Y-65731190D01*
X147561428Y-65807381D01*
X147523333Y-65959762D01*
X147523333Y-66074048D01*
X147561428Y-66226429D01*
X147599523Y-66302619D01*
X147675714Y-66378810D01*
X147790000Y-66416905D01*
X147980476Y-66416905D01*
X147180476Y-65997857D02*
X146913809Y-65997857D01*
X146799523Y-66416905D02*
X147180476Y-66416905D01*
X147180476Y-65616905D01*
X146799523Y-65616905D01*
X145999523Y-66416905D02*
X146266190Y-66035952D01*
X146456666Y-66416905D02*
X146456666Y-65616905D01*
X146151904Y-65616905D01*
X146075713Y-65655000D01*
X146037618Y-65693095D01*
X145999523Y-65769286D01*
X145999523Y-65883571D01*
X146037618Y-65959762D01*
X146075713Y-65997857D01*
X146151904Y-66035952D01*
X146456666Y-66035952D01*
D12*
X129540000Y-54610000D02*
X129540000Y-55880000D01*
X137160000Y-54610000D02*
X129540000Y-54610000D01*
X137160000Y-55880000D02*
X137160000Y-54610000D01*
X144780000Y-54610000D02*
X144780000Y-55880000D01*
X152400000Y-54610000D02*
X144780000Y-54610000D01*
X152400000Y-55880000D02*
X152400000Y-54610000D01*
X160020000Y-54610000D02*
X160020000Y-55880000D01*
X167640000Y-54610000D02*
X160020000Y-54610000D01*
X167640000Y-55880000D02*
X167640000Y-54610000D01*
X182880000Y-54610000D02*
X182880000Y-55880000D01*
X175260000Y-54610000D02*
X182880000Y-54610000D01*
X175260000Y-55880000D02*
X175260000Y-54610000D01*
X198120000Y-57150000D02*
X198120000Y-58420000D01*
X190500000Y-57150000D02*
X198120000Y-57150000D01*
X190500000Y-58420000D02*
X190500000Y-57150000D01*
X198120000Y-76200000D02*
X198120000Y-74930000D01*
X190500000Y-76200000D02*
X198120000Y-76200000D01*
X190500000Y-74930000D02*
X190500000Y-76200000D01*
X182880000Y-73660000D02*
X182880000Y-72390000D01*
X175260000Y-73660000D02*
X182880000Y-73660000D01*
X175260000Y-72390000D02*
X175260000Y-73660000D01*
X167640000Y-76200000D02*
X167640000Y-74930000D01*
X160020000Y-76200000D02*
X167640000Y-76200000D01*
X160020000Y-74930000D02*
X160020000Y-76200000D01*
X152400000Y-76200000D02*
X152400000Y-74930000D01*
X144780000Y-76200000D02*
X152400000Y-76200000D01*
X144780000Y-74930000D02*
X144780000Y-76200000D01*
X137160000Y-73660000D02*
X137160000Y-72390000D01*
X129540000Y-73660000D02*
X137160000Y-73660000D01*
X129540000Y-72390000D02*
X129540000Y-73660000D01*
X175260000Y-118745000D02*
X175260000Y-117475000D01*
X160020000Y-118745000D02*
X175260000Y-118745000D01*
X160020000Y-117475000D02*
X160020000Y-118745000D01*
X198120000Y-118745000D02*
X198120000Y-117475000D01*
X182880000Y-118745000D02*
X198120000Y-118745000D01*
X182880000Y-117475000D02*
X182880000Y-118745000D01*
X198120000Y-81915000D02*
X198120000Y-83185000D01*
X182880000Y-81915000D02*
X198120000Y-81915000D01*
X182880000Y-83185000D02*
X182880000Y-81915000D01*
X175260000Y-81915000D02*
X175260000Y-83185000D01*
X160020000Y-81915000D02*
X175260000Y-81915000D01*
X160020000Y-83185000D02*
X160020000Y-81915000D01*
X152400000Y-81915000D02*
X152400000Y-83185000D01*
X137160000Y-81915000D02*
X152400000Y-81915000D01*
X137160000Y-83185000D02*
X137160000Y-81915000D01*
X129540000Y-81915000D02*
X129540000Y-83185000D01*
X114300000Y-81915000D02*
X129540000Y-81915000D01*
X114300000Y-83185000D02*
X114300000Y-81915000D01*
X114300000Y-133985000D02*
X114300000Y-132715000D01*
X129540000Y-133985000D02*
X114300000Y-133985000D01*
X129540000Y-132715000D02*
X129540000Y-133985000D01*
X152400000Y-133985000D02*
X152400000Y-132715000D01*
X137160000Y-133985000D02*
X152400000Y-133985000D01*
X137160000Y-132715000D02*
X137160000Y-133985000D01*
X135255000Y-86360000D02*
X133985000Y-86360000D01*
X135255000Y-83820000D02*
X135255000Y-86360000D01*
X133985000Y-83820000D02*
X135255000Y-83820000D01*
X158115000Y-69215000D02*
X156845000Y-69215000D01*
X158115000Y-66675000D02*
X158115000Y-69215000D01*
X156845000Y-66675000D02*
X158115000Y-66675000D01*
X181610000Y-143510000D02*
X181610000Y-142240000D01*
X179070000Y-143510000D02*
X181610000Y-143510000D01*
X179070000Y-142240000D02*
X179070000Y-143510000D01*
X181610000Y-136525000D02*
X181610000Y-137795000D01*
X179070000Y-136525000D02*
X181610000Y-136525000D01*
X179070000Y-137795000D02*
X179070000Y-136525000D01*
X184150000Y-122555000D02*
X184150000Y-121285000D01*
X181610000Y-122555000D02*
X184150000Y-122555000D01*
X181610000Y-121285000D02*
X181610000Y-122555000D01*
X196215000Y-122555000D02*
X196215000Y-121285000D01*
X193675000Y-122555000D02*
X196215000Y-122555000D01*
X193675000Y-121285000D02*
X193675000Y-122555000D01*
D11*
X122102619Y-52490952D02*
X122055000Y-52538571D01*
X122007381Y-52633809D01*
X122007381Y-52871905D01*
X122055000Y-52967143D01*
X122102619Y-53014762D01*
X122197857Y-53062381D01*
X122293095Y-53062381D01*
X122435952Y-53014762D01*
X123007381Y-52443333D01*
X123007381Y-53062381D01*
X122102619Y-53443333D02*
X122055000Y-53490952D01*
X122007381Y-53586190D01*
X122007381Y-53824286D01*
X122055000Y-53919524D01*
X122102619Y-53967143D01*
X122197857Y-54014762D01*
X122293095Y-54014762D01*
X122435952Y-53967143D01*
X123007381Y-53395714D01*
X123007381Y-54014762D01*
X122007381Y-54633809D02*
X122007381Y-54729048D01*
X122055000Y-54824286D01*
X122102619Y-54871905D01*
X122197857Y-54919524D01*
X122388333Y-54967143D01*
X122626429Y-54967143D01*
X122816905Y-54919524D01*
X122912143Y-54871905D01*
X122959762Y-54824286D01*
X123007381Y-54729048D01*
X123007381Y-54633809D01*
X122959762Y-54538571D01*
X122912143Y-54490952D01*
X122816905Y-54443333D01*
X122626429Y-54395714D01*
X122388333Y-54395714D01*
X122197857Y-54443333D01*
X122102619Y-54490952D01*
X122055000Y-54538571D01*
X122007381Y-54633809D01*
X122340714Y-55395714D02*
X123007381Y-55395714D01*
X122435952Y-55395714D02*
X122388333Y-55443333D01*
X122340714Y-55538571D01*
X122340714Y-55681429D01*
X122388333Y-55776667D01*
X122483571Y-55824286D01*
X123007381Y-55824286D01*
X122483571Y-56633810D02*
X122483571Y-56300476D01*
X123007381Y-56300476D02*
X122007381Y-56300476D01*
X122007381Y-56776667D01*
X115752619Y-52490952D02*
X115705000Y-52538571D01*
X115657381Y-52633809D01*
X115657381Y-52871905D01*
X115705000Y-52967143D01*
X115752619Y-53014762D01*
X115847857Y-53062381D01*
X115943095Y-53062381D01*
X116085952Y-53014762D01*
X116657381Y-52443333D01*
X116657381Y-53062381D01*
X115752619Y-53443333D02*
X115705000Y-53490952D01*
X115657381Y-53586190D01*
X115657381Y-53824286D01*
X115705000Y-53919524D01*
X115752619Y-53967143D01*
X115847857Y-54014762D01*
X115943095Y-54014762D01*
X116085952Y-53967143D01*
X116657381Y-53395714D01*
X116657381Y-54014762D01*
X115657381Y-54633809D02*
X115657381Y-54729048D01*
X115705000Y-54824286D01*
X115752619Y-54871905D01*
X115847857Y-54919524D01*
X116038333Y-54967143D01*
X116276429Y-54967143D01*
X116466905Y-54919524D01*
X116562143Y-54871905D01*
X116609762Y-54824286D01*
X116657381Y-54729048D01*
X116657381Y-54633809D01*
X116609762Y-54538571D01*
X116562143Y-54490952D01*
X116466905Y-54443333D01*
X116276429Y-54395714D01*
X116038333Y-54395714D01*
X115847857Y-54443333D01*
X115752619Y-54490952D01*
X115705000Y-54538571D01*
X115657381Y-54633809D01*
X115990714Y-55395714D02*
X116657381Y-55395714D01*
X116085952Y-55395714D02*
X116038333Y-55443333D01*
X115990714Y-55538571D01*
X115990714Y-55681429D01*
X116038333Y-55776667D01*
X116133571Y-55824286D01*
X116657381Y-55824286D01*
X116133571Y-56633810D02*
X116133571Y-56300476D01*
X116657381Y-56300476D02*
X115657381Y-56300476D01*
X115657381Y-56776667D01*
M02*
