M48
;DRILL file {KiCad 4.0.7} date 09/29/19 20:33:04
;FORMAT={2:4/ absolute / inch / suppress leading zeros}
FMAT,2
INCH,TZ
T1C0.016
T2C0.031
T3C0.039
T4C0.120
%
G90
G05
M72
T1
X39750Y-26750
X39750Y-53000
X41750Y-31750
X42250Y-56500
X42750Y-27750
X42750Y-31750
X43000Y-27250
X43000Y-31500
X43000Y-32250
X44000Y-36750
X44250Y-36500
X44500Y-38500
X45750Y-35250
X45750Y-37750
X46000Y-38250
X46250Y-38500
X46250Y-39000
X46250Y-52000
X46500Y-47250
X46500Y-52250
X46750Y-34750
X46750Y-35250
X46750Y-46750
X46750Y-52000
X47000Y-34500
X47000Y-35500
X47000Y-45750
X47000Y-52250
X47250Y-39000
X47250Y-44250
X47250Y-52500
X47500Y-38500
X47500Y-43250
X47500Y-50750
X47750Y-42250
X47750Y-51000
X48000Y-41250
X48000Y-50750
X48250Y-40250
X48250Y-51000
X48750Y-35500
X49250Y-26000
X49750Y-36000
X49750Y-36750
X50000Y-35500
X51750Y-26000
X52500Y-38250
X53250Y-28500
X53250Y-31000
X53250Y-38500
X53500Y-30750
X54000Y-29500
X54500Y-30250
X54750Y-33000
X54750Y-38500
X54750Y-52000
X54750Y-52500
X55000Y-33250
X55000Y-39500
X55000Y-51750
X55250Y-37750
X55250Y-39250
X55500Y-36250
X55500Y-48750
X55500Y-51750
X55500Y-54750
X55750Y-37250
X56000Y-38750
X56000Y-51750
X56250Y-52000
X56250Y-54750
X56250Y-55250
X56500Y-51750
X56750Y-52000
X58000Y-22250
X58000Y-47250
X58250Y-36250
X58250Y-46250
X58250Y-56000
X58500Y-45250
X58750Y-33500
X58750Y-44250
X59000Y-43250
X59000Y-52000
X59250Y-39250
X59250Y-39750
X59250Y-42250
X59250Y-51750
X59500Y-33500
X59500Y-34500
X59500Y-35500
X59500Y-36500
X59500Y-37500
X59500Y-38500
X59750Y-31000
X59750Y-55250
X59750Y-56250
X60500Y-44500
X60750Y-41750
X60750Y-43750
X61000Y-33500
X61000Y-40500
X61000Y-42000
X61000Y-44500
X61250Y-33750
X61250Y-41750
X61250Y-48000
X61250Y-56500
X61500Y-56250
X62500Y-49500
X63250Y-52000
X63500Y-31000
X63500Y-40500
X63500Y-41500
X63500Y-47250
X63500Y-51750
X63750Y-28000
X63750Y-33750
X63750Y-36500
X63750Y-47500
X63750Y-56500
X64000Y-25000
X64000Y-31250
X64000Y-34000
X64000Y-47250
X64000Y-49500
X64000Y-51750
X64000Y-56250
X64250Y-24000
X64250Y-31000
X64250Y-34500
X64250Y-37750
X64250Y-39000
X64250Y-47500
X64250Y-49250
X64250Y-52000
X64500Y-23000
X64500Y-31250
X64500Y-34250
X64500Y-39750
X64500Y-47250
X64500Y-49500
X64500Y-51750
X64750Y-22750
X64750Y-27500
X64750Y-31000
X64750Y-34500
X64750Y-36750
X64750Y-37500
X64750Y-38500
X64750Y-47500
X64750Y-49250
X64750Y-52000
X65000Y-27250
X65000Y-31250
X65000Y-34250
X65000Y-35750
X65000Y-36500
X65000Y-47250
X65000Y-49500
X65000Y-51750
X65250Y-26750
X65250Y-31000
X65250Y-34500
X65250Y-35500
X65250Y-49250
X65250Y-52000
X65500Y-36000
X65500Y-47250
X65500Y-49500
X65500Y-51750
X65750Y-37000
X65750Y-49250
X66000Y-34000
X66000Y-47250
X66000Y-49500
X66000Y-50000
X66000Y-51750
X66250Y-19250
X66250Y-38000
X66250Y-47500
X66250Y-49250
X66250Y-50500
X66500Y-20000
X66500Y-21500
X66500Y-40000
X66500Y-47250
X66500Y-49500
X66500Y-51500
X66500Y-52250
X66750Y-26000
X66750Y-27500
X66750Y-47500
X66750Y-49250
X66750Y-51000
X67000Y-25500
X67000Y-28250
X67000Y-49000
X67000Y-50750
X67250Y-48750
X67500Y-48500
X67750Y-39250
X68000Y-30750
X68250Y-31250
X68250Y-34250
X68250Y-47250
X68500Y-27750
X68500Y-46500
X68750Y-30500
X69000Y-29750
X69000Y-30250
X69500Y-26750
X69500Y-29750
X69500Y-44000
X69750Y-25000
X69750Y-27000
X69750Y-43000
X70000Y-24250
X70000Y-27250
X70000Y-27750
X70000Y-42000
X70000Y-46000
X70250Y-45750
X70500Y-46000
X70500Y-49000
X71250Y-23500
X71250Y-36500
X71250Y-37500
X71250Y-38500
X72000Y-30000
X72000Y-52500
X72250Y-49500
X72250Y-52250
X72500Y-26750
X72500Y-29750
X72500Y-31250
X72500Y-49750
X72750Y-30000
X72750Y-31500
X72750Y-32500
X72750Y-50500
X73000Y-29750
X73000Y-52250
X73250Y-51000
X73250Y-52500
X73500Y-52250
X73750Y-51500
X73750Y-52500
X76500Y-46000
X76750Y-35250
X77000Y-45750
X77250Y-26500
X77250Y-31250
X77250Y-34250
X77250Y-36250
X77250Y-46000
X77500Y-29750
X77500Y-34750
X77500Y-46500
T2
X43750Y-50031
X43750Y-52000
X45000Y-33000
X45000Y-34000
X45000Y-35000
X45000Y-36000
X45000Y-37000
X45000Y-38000
X45000Y-39000
X45000Y-40000
X45000Y-41000
X45000Y-42000
X45000Y-43000
X45000Y-44000
X45000Y-45000
X45000Y-46000
X45000Y-47000
X45000Y-48000
X45000Y-49000
X45000Y-50000
X45000Y-51000
X45000Y-52000
X45500Y-23750
X45500Y-25250
X45500Y-26750
X45500Y-28250
X46250Y-20500
X46250Y-22469
X48750Y-20500
X48750Y-22469
X48750Y-53750
X48750Y-55250
X49500Y-23750
X49500Y-25250
X49500Y-26750
X49500Y-28250
X51000Y-22250
X51000Y-23250
X51000Y-24250
X51000Y-25250
X51000Y-26250
X51000Y-27250
X51000Y-28250
X51000Y-33000
X51000Y-34000
X51000Y-35000
X51000Y-36000
X51000Y-37000
X51000Y-38000
X51000Y-39000
X51000Y-40000
X51000Y-41000
X51000Y-42000
X51000Y-43000
X51000Y-44000
X51000Y-45000
X51000Y-46000
X51000Y-47000
X51000Y-48000
X51000Y-49000
X51000Y-50000
X51000Y-51000
X51000Y-52000
X51531Y-20750
X52500Y-37031
X52500Y-39000
X52500Y-40000
X52500Y-41000
X52500Y-42000
X52500Y-43000
X52500Y-44000
X52500Y-45000
X52500Y-46000
X52500Y-47000
X52500Y-48000
X52750Y-53750
X52750Y-55250
X53500Y-20750
X53750Y-53750
X53750Y-55250
X54000Y-22250
X54000Y-23250
X54000Y-24250
X54000Y-25250
X54000Y-26250
X54000Y-27250
X54000Y-28250
X54000Y-33000
X54000Y-34000
X54000Y-35000
X54000Y-36000
X54000Y-37000
X54000Y-38000
X54000Y-39000
X54000Y-40000
X54000Y-41000
X54000Y-42000
X54000Y-43000
X54000Y-44000
X54000Y-45000
X54000Y-46000
X54000Y-47000
X54000Y-48000
X54000Y-49000
X54000Y-50000
X54000Y-51000
X54000Y-52000
X57000Y-22250
X57000Y-23250
X57000Y-24250
X57000Y-25250
X57000Y-26250
X57000Y-27250
X57000Y-28250
X57000Y-29250
X57531Y-20750
X57750Y-53750
X57750Y-55250
X58750Y-55250
X59500Y-20750
X60000Y-22250
X60000Y-23250
X60000Y-24250
X60000Y-25250
X60000Y-26250
X60000Y-27250
X60000Y-28250
X60000Y-29250
X60000Y-33000
X60000Y-34000
X60000Y-35000
X60000Y-36000
X60000Y-37000
X60000Y-38000
X60000Y-39000
X60000Y-40000
X60000Y-41000
X60000Y-42000
X60000Y-43000
X60000Y-44000
X60000Y-45000
X60000Y-46000
X60000Y-47000
X60000Y-48000
X60000Y-49000
X60000Y-50000
X60000Y-51000
X60000Y-52000
X62750Y-55250
X63000Y-22250
X63000Y-23250
X63000Y-24250
X63000Y-25250
X63000Y-26250
X63000Y-27250
X63000Y-28250
X63000Y-29250
X63000Y-33000
X63000Y-34000
X63000Y-35000
X63000Y-36000
X63000Y-37000
X63000Y-38000
X63000Y-39000
X63000Y-40000
X63000Y-41000
X63000Y-42000
X63000Y-43000
X63000Y-44000
X63000Y-45000
X63000Y-46000
X63531Y-20750
X65500Y-20750
X66000Y-22250
X66000Y-23250
X66000Y-24250
X66000Y-25250
X66000Y-26250
X66000Y-27250
X66000Y-28250
X66000Y-29250
X69000Y-22250
X69000Y-23250
X69000Y-24250
X69000Y-25250
X69000Y-26250
X69000Y-27250
X69000Y-28250
X69000Y-33000
X69000Y-34000
X69000Y-35000
X69000Y-36000
X69000Y-37000
X69000Y-38000
X69000Y-39000
X69000Y-40000
X69000Y-41000
X69000Y-42000
X69000Y-43000
X69000Y-44000
X69000Y-45000
X69000Y-46000
X69531Y-20750
X70500Y-33000
X70500Y-34969
X71000Y-49500
X71000Y-52500
X71500Y-20750
X72000Y-22250
X72000Y-23250
X72000Y-24250
X72000Y-25250
X72000Y-26250
X72000Y-27250
X72000Y-28250
X72000Y-33000
X72000Y-34000
X72000Y-35000
X72000Y-36000
X72000Y-37000
X72000Y-38000
X72000Y-39000
X72000Y-40000
X72000Y-41000
X72000Y-42000
X72000Y-43000
X72000Y-44000
X72000Y-45000
X72000Y-46000
X73500Y-23250
X73500Y-25219
X75000Y-23250
X75000Y-24250
X75000Y-25250
X75000Y-26250
X75000Y-27250
X75000Y-28250
X75000Y-29250
X76031Y-31500
X77000Y-49500
X77000Y-52500
X78000Y-23250
X78000Y-24250
X78000Y-25250
X78000Y-26250
X78000Y-27250
X78000Y-28250
X78000Y-29250
X78000Y-31500
X78000Y-33000
X78000Y-34000
X78000Y-35000
X78000Y-36000
X78000Y-37000
X78000Y-38000
X78000Y-39000
X78000Y-40000
X78000Y-41000
X78000Y-42000
X78000Y-43000
X78000Y-44000
X78000Y-45000
X78000Y-46000
T3
X40000Y-57250
X41000Y-57250
X41250Y-33000
X41250Y-34000
X41250Y-35000
X41250Y-36000
X41250Y-37000
X41250Y-38000
X41250Y-39000
X41250Y-40000
X41250Y-41000
X41250Y-42000
X41250Y-43000
X41250Y-44000
X41250Y-45000
X41250Y-46000
X41250Y-47000
X41250Y-48000
X41250Y-49000
X41250Y-50000
X41250Y-51000
X41250Y-52000
X42000Y-57250
X42250Y-33000
X42250Y-34000
X42250Y-35000
X42250Y-36000
X42250Y-37000
X42250Y-38000
X42250Y-39000
X42250Y-40000
X42250Y-41000
X42250Y-42000
X42250Y-43000
X42250Y-44000
X42250Y-45000
X42250Y-46000
X42250Y-47000
X42250Y-48000
X42250Y-49000
X42250Y-50000
X42250Y-51000
X42250Y-52000
X43000Y-57250
X44000Y-57250
X45000Y-57250
X46000Y-57250
X47000Y-57250
X48000Y-57250
X49000Y-57250
X50000Y-57250
X51000Y-57250
X52000Y-57250
X52500Y-33000
X52500Y-34000
X53000Y-57250
X54000Y-57250
X55000Y-57250
X55500Y-24250
X55500Y-25250
X55500Y-26250
X55500Y-27250
X56000Y-57250
X57000Y-57250
X58000Y-57250
X59000Y-57250
X60000Y-57250
X61000Y-57250
X61500Y-26250
X61500Y-27250
X62000Y-57250
X63000Y-57250
X64000Y-57250
X65000Y-57250
X66000Y-57250
X67000Y-57250
X68000Y-57250
X69000Y-57250
X70000Y-57250
X70500Y-47500
X70500Y-54500
X70500Y-55750
X71000Y-57250
X71500Y-47500
X71500Y-54500
X71500Y-55750
X72000Y-57250
X72500Y-47500
X72500Y-54500
X72500Y-55750
X73000Y-57250
X74000Y-57250
X75000Y-57250
X75250Y-47500
X76000Y-57250
X76250Y-47500
X77000Y-57250
X77250Y-47500
X78000Y-57250
T4
X41000Y-20500
X41000Y-55250
X77000Y-20500
X77000Y-55250
T3
X41138Y-23356G85X41138Y-24144
G05
X41925Y-25600G85X42713Y-25600
G05
X43500Y-23356G85X43500Y-24144
G05
T0
M30
