M48
;DRILL file {KiCad 4.0.7} date 09/22/19 17:36:11
;FORMAT={2:4/ absolute / inch / suppress leading zeros}
FMAT,2
INCH,TZ
T1C0.016
T2C0.031
T3C0.039
%
G90
G05
M72
T1
X36250Y-38500
X36500Y-38750
X36500Y-53000
X37000Y-41250
X37500Y-47750
X37500Y-48750
X37500Y-52250
X37500Y-53250
X37750Y-48000
X37750Y-48500
X37750Y-52000
X37750Y-53500
X38000Y-47750
X38000Y-48750
X38000Y-52250
X38000Y-53250
X38250Y-40250
X38250Y-45000
X38250Y-45500
X38250Y-46000
X38250Y-49000
X39250Y-40250
X39250Y-47500
X39500Y-46750
X39500Y-50750
X39500Y-52250
X42250Y-47000
X42500Y-39000
X43000Y-40750
X43500Y-40750
X43500Y-52250
X43750Y-52000
X44000Y-52250
X44250Y-53250
X44500Y-51750
X44750Y-53250
X45250Y-53250
X45750Y-39250
X45750Y-51750
X46750Y-52000
X47750Y-52250
X48750Y-52250
X49000Y-40500
X49250Y-41500
X49500Y-40750
X50000Y-40750
X50250Y-42000
X50750Y-41500
X51000Y-41250
X51500Y-42250
X52750Y-42250
X52750Y-43500
X53250Y-50000
X53500Y-46000
X53500Y-47250
X53500Y-50250
X53750Y-50000
X54000Y-45750
X54000Y-47500
X54000Y-50250
X54250Y-38250
X55000Y-47250
X57750Y-42250
X60000Y-50250
X60500Y-50250
X61250Y-52250
X62000Y-50250
X62250Y-52000
X62750Y-42250
X63000Y-50250
X63250Y-51750
X63500Y-42000
X64000Y-50250
X64250Y-51500
X65000Y-42000
X65000Y-50250
X65250Y-51250
X66000Y-41750
X66250Y-51000
X67000Y-41500
X67250Y-50750
X67500Y-41000
X67750Y-41250
X68250Y-50500
X68750Y-40250
X68750Y-41250
X69250Y-53750
X69750Y-40250
X69750Y-41250
X70250Y-53750
X70750Y-40250
X70750Y-42250
X70750Y-48250
X71250Y-53750
X71750Y-42250
X72250Y-48500
X72250Y-53750
X72750Y-42250
X73000Y-37250
X73250Y-48000
X73250Y-53750
X73500Y-42000
X73750Y-42250
X74250Y-53750
X74500Y-44000
X74750Y-42750
X74750Y-53750
T2
X37000Y-43250
X37000Y-44250
X37000Y-45250
X37000Y-46250
X37000Y-47250
X37000Y-48250
X37000Y-49250
X37000Y-50250
X40000Y-43250
X40000Y-44250
X40000Y-45250
X40000Y-46250
X40000Y-47250
X40000Y-48250
X40000Y-49250
X40000Y-50250
X41500Y-43250
X41500Y-45219
X43000Y-43250
X43000Y-44250
X43000Y-45250
X43000Y-46250
X43000Y-47250
X43000Y-48250
X43000Y-49250
X43000Y-50250
X45000Y-38000
X45000Y-39500
X46000Y-43250
X46000Y-44250
X46000Y-45250
X46000Y-46250
X46000Y-47250
X46000Y-48250
X46000Y-49250
X46000Y-50250
X47500Y-43250
X47500Y-45219
X49000Y-38000
X49000Y-39500
X49000Y-43250
X49000Y-44250
X49000Y-45250
X49000Y-46250
X49000Y-47250
X49000Y-48250
X49000Y-49250
X52000Y-43250
X52000Y-44250
X52000Y-45250
X52000Y-46250
X52000Y-47250
X52000Y-48250
X52000Y-49250
X53500Y-43250
X53500Y-45219
X55000Y-43250
X55000Y-49250
X56000Y-43250
X56000Y-49250
X57000Y-43250
X57000Y-49250
X58000Y-43250
X58000Y-49250
X59000Y-43250
X59000Y-49250
X60000Y-43250
X60000Y-49250
X61000Y-43250
X61000Y-49250
X62000Y-43250
X62000Y-49250
X63000Y-43250
X63000Y-49250
X64000Y-43250
X64000Y-49250
X65000Y-43250
X65000Y-49250
X66000Y-43250
X66000Y-49250
X67000Y-43250
X67000Y-49250
X68000Y-43250
X68000Y-49250
X69000Y-43250
X69000Y-49250
X70000Y-43250
X70000Y-49250
X71000Y-43250
X71000Y-49250
X72000Y-43250
X72000Y-49250
X72031Y-50750
X73000Y-43250
X73000Y-49250
X74000Y-43250
X74000Y-49250
X74000Y-50750
T3
X36500Y-54500
X37500Y-54500
X37750Y-37750
X37750Y-38750
X37750Y-39750
X38500Y-54500
X38750Y-37750
X38750Y-38750
X38750Y-39750
X39500Y-54500
X39750Y-37750
X39750Y-38750
X39750Y-39750
X40500Y-54500
X40750Y-37750
X40750Y-38750
X40750Y-39750
X41500Y-48250
X41500Y-49250
X41500Y-50250
X41500Y-54500
X41750Y-37750
X41750Y-38750
X41750Y-39750
X42500Y-54500
X43500Y-54500
X44500Y-54500
X45500Y-54500
X46500Y-54500
X47500Y-54500
X48500Y-54500
X49500Y-54500
X50500Y-54500
X51500Y-54500
X52500Y-54500
X53500Y-54500
X54500Y-54500
X55000Y-37750
X55000Y-38750
X55000Y-39750
X55500Y-54500
X56000Y-37750
X56000Y-38750
X56000Y-39750
X56500Y-54500
X57500Y-54500
X58500Y-54500
X59500Y-54500
X60500Y-54500
X61500Y-54500
X62500Y-54500
X63000Y-37750
X63000Y-38750
X63500Y-54500
X64000Y-37750
X64000Y-38750
X64500Y-54500
X65000Y-37750
X65000Y-38750
X65500Y-54500
X66000Y-37750
X66000Y-38750
X66500Y-54500
X67000Y-37750
X67000Y-38750
X67500Y-54500
X68000Y-37750
X68000Y-38750
X68500Y-54500
X69000Y-37750
X69000Y-38750
X69500Y-54500
X70000Y-37750
X70000Y-38750
X70500Y-54500
X71000Y-37750
X71000Y-38750
X71500Y-54500
X72000Y-37750
X72000Y-38750
X72500Y-54500
X73500Y-54500
X74500Y-54500
T0
M30
