G04 #@! TF.FileFunction,Copper,L2,Bot,Signal*
%FSLAX46Y46*%
G04 Gerber Fmt 4.6, Leading zero omitted, Abs format (unit mm)*
G04 Created by KiCad (PCBNEW 4.0.7) date 01/21/20 16:06:34*
%MOMM*%
%LPD*%
G01*
G04 APERTURE LIST*
%ADD10C,0.100000*%
%ADD11R,1.700000X1.700000*%
%ADD12O,1.700000X1.700000*%
%ADD13C,1.600000*%
%ADD14R,1.600000X1.600000*%
%ADD15O,1.600000X1.600000*%
%ADD16C,0.600000*%
%ADD17C,0.250000*%
%ADD18C,0.254000*%
G04 APERTURE END LIST*
D10*
D11*
X188595000Y-125095000D03*
D12*
X188595000Y-127635000D03*
X188595000Y-130175000D03*
D13*
X188595000Y-112395000D03*
X188595000Y-117395000D03*
X173355000Y-112395000D03*
X173355000Y-117395000D03*
X173355000Y-87630000D03*
X173355000Y-92630000D03*
D11*
X189230000Y-138430000D03*
D12*
X186690000Y-138430000D03*
X184150000Y-138430000D03*
X181610000Y-138430000D03*
X179070000Y-138430000D03*
X176530000Y-138430000D03*
X173990000Y-138430000D03*
X171450000Y-138430000D03*
X168910000Y-138430000D03*
X166370000Y-138430000D03*
X163830000Y-138430000D03*
X161290000Y-138430000D03*
X158750000Y-138430000D03*
X156210000Y-138430000D03*
X153670000Y-138430000D03*
X151130000Y-138430000D03*
X148590000Y-138430000D03*
X146050000Y-138430000D03*
X143510000Y-138430000D03*
X140970000Y-138430000D03*
X138430000Y-138430000D03*
X135890000Y-138430000D03*
X133350000Y-138430000D03*
X130810000Y-138430000D03*
X128270000Y-138430000D03*
X125730000Y-138430000D03*
X123190000Y-138430000D03*
X120650000Y-138430000D03*
X118110000Y-138430000D03*
X115570000Y-138430000D03*
X113030000Y-138430000D03*
X110490000Y-138430000D03*
X107950000Y-138430000D03*
X105410000Y-138430000D03*
X102870000Y-138430000D03*
X100330000Y-138430000D03*
X97790000Y-138430000D03*
X95250000Y-138430000D03*
X92710000Y-138430000D03*
D11*
X146685000Y-97790000D03*
D12*
X146685000Y-100330000D03*
X146685000Y-102870000D03*
D11*
X149225000Y-97790000D03*
D12*
X149225000Y-100330000D03*
X149225000Y-102870000D03*
D11*
X130810000Y-87630000D03*
D12*
X130810000Y-90170000D03*
X130810000Y-92710000D03*
D11*
X151765000Y-97790000D03*
D12*
X151765000Y-100330000D03*
X151765000Y-102870000D03*
D14*
X177165000Y-112395000D03*
D15*
X184785000Y-130175000D03*
X177165000Y-114935000D03*
X184785000Y-127635000D03*
X177165000Y-117475000D03*
X184785000Y-125095000D03*
X177165000Y-120015000D03*
X184785000Y-122555000D03*
X177165000Y-122555000D03*
X184785000Y-120015000D03*
X177165000Y-125095000D03*
X184785000Y-117475000D03*
X177165000Y-127635000D03*
X184785000Y-114935000D03*
X177165000Y-130175000D03*
X184785000Y-112395000D03*
D14*
X161925000Y-112395000D03*
D15*
X169545000Y-130175000D03*
X161925000Y-114935000D03*
X169545000Y-127635000D03*
X161925000Y-117475000D03*
X169545000Y-125095000D03*
X161925000Y-120015000D03*
X169545000Y-122555000D03*
X161925000Y-122555000D03*
X169545000Y-120015000D03*
X161925000Y-125095000D03*
X169545000Y-117475000D03*
X161925000Y-127635000D03*
X169545000Y-114935000D03*
X161925000Y-130175000D03*
X169545000Y-112395000D03*
D14*
X161925000Y-87630000D03*
D15*
X169545000Y-102870000D03*
X161925000Y-90170000D03*
X169545000Y-100330000D03*
X161925000Y-92710000D03*
X169545000Y-97790000D03*
X161925000Y-95250000D03*
X169545000Y-95250000D03*
X161925000Y-97790000D03*
X169545000Y-92710000D03*
X161925000Y-100330000D03*
X169545000Y-90170000D03*
X161925000Y-102870000D03*
X169545000Y-87630000D03*
D14*
X142240000Y-112395000D03*
D15*
X93980000Y-127635000D03*
X139700000Y-112395000D03*
X96520000Y-127635000D03*
X137160000Y-112395000D03*
X99060000Y-127635000D03*
X134620000Y-112395000D03*
X101600000Y-127635000D03*
X132080000Y-112395000D03*
X104140000Y-127635000D03*
X129540000Y-112395000D03*
X106680000Y-127635000D03*
X127000000Y-112395000D03*
X109220000Y-127635000D03*
X124460000Y-112395000D03*
X111760000Y-127635000D03*
X121920000Y-112395000D03*
X114300000Y-127635000D03*
X119380000Y-112395000D03*
X116840000Y-127635000D03*
X116840000Y-112395000D03*
X119380000Y-127635000D03*
X114300000Y-112395000D03*
X121920000Y-127635000D03*
X111760000Y-112395000D03*
X124460000Y-127635000D03*
X109220000Y-112395000D03*
X127000000Y-127635000D03*
X106680000Y-112395000D03*
X129540000Y-127635000D03*
X104140000Y-112395000D03*
X132080000Y-127635000D03*
X101600000Y-112395000D03*
X134620000Y-127635000D03*
X99060000Y-112395000D03*
X137160000Y-127635000D03*
X96520000Y-112395000D03*
X139700000Y-127635000D03*
X93980000Y-112395000D03*
X142240000Y-127635000D03*
D13*
X93980000Y-108585000D03*
X98980000Y-108585000D03*
D11*
X125730000Y-87630000D03*
D12*
X125730000Y-90170000D03*
X125730000Y-92710000D03*
D11*
X95250000Y-90170000D03*
D12*
X95250000Y-87630000D03*
X97790000Y-90170000D03*
X97790000Y-87630000D03*
X100330000Y-90170000D03*
X100330000Y-87630000D03*
X102870000Y-90170000D03*
X102870000Y-87630000D03*
X105410000Y-90170000D03*
X105410000Y-87630000D03*
X107950000Y-90170000D03*
X107950000Y-87630000D03*
X110490000Y-90170000D03*
X110490000Y-87630000D03*
X113030000Y-90170000D03*
X113030000Y-87630000D03*
X115570000Y-90170000D03*
X115570000Y-87630000D03*
X118110000Y-90170000D03*
X118110000Y-87630000D03*
D11*
X128270000Y-87630000D03*
D12*
X128270000Y-90170000D03*
X128270000Y-92710000D03*
D13*
X158115000Y-112395000D03*
X158115000Y-117395000D03*
X188595000Y-87630000D03*
X188595000Y-92630000D03*
D11*
X173355000Y-122555000D03*
D12*
X173355000Y-125095000D03*
X173355000Y-127635000D03*
X173355000Y-130175000D03*
D11*
X145415000Y-90170000D03*
D12*
X145415000Y-87630000D03*
X147955000Y-90170000D03*
X147955000Y-87630000D03*
X150495000Y-90170000D03*
X150495000Y-87630000D03*
X153035000Y-90170000D03*
X153035000Y-87630000D03*
D14*
X146685000Y-112395000D03*
D15*
X154305000Y-127635000D03*
X146685000Y-114935000D03*
X154305000Y-125095000D03*
X146685000Y-117475000D03*
X154305000Y-122555000D03*
X146685000Y-120015000D03*
X154305000Y-120015000D03*
X146685000Y-122555000D03*
X154305000Y-117475000D03*
X146685000Y-125095000D03*
X154305000Y-114935000D03*
X146685000Y-127635000D03*
X154305000Y-112395000D03*
D14*
X177165000Y-87630000D03*
D15*
X184785000Y-102870000D03*
X177165000Y-90170000D03*
X184785000Y-100330000D03*
X177165000Y-92710000D03*
X184785000Y-97790000D03*
X177165000Y-95250000D03*
X184785000Y-95250000D03*
X177165000Y-97790000D03*
X184785000Y-92710000D03*
X177165000Y-100330000D03*
X184785000Y-90170000D03*
X177165000Y-102870000D03*
X184785000Y-87630000D03*
D16*
X119380000Y-92075000D03*
X121920000Y-92710000D03*
X149860000Y-137160000D03*
X142240000Y-133350000D03*
X189865000Y-123190000D03*
X189865000Y-110490000D03*
X145415000Y-137160000D03*
X92075000Y-109220000D03*
X92075000Y-88265000D03*
X179705000Y-118110000D03*
X179705000Y-132080000D03*
X179070000Y-131445000D03*
X179070000Y-115570000D03*
X178435000Y-132080000D03*
X165735000Y-131445000D03*
X165735000Y-118110000D03*
X165100000Y-115570000D03*
X165100000Y-130810000D03*
X164465000Y-113030000D03*
X164465000Y-131445000D03*
X163195000Y-136525000D03*
X163830000Y-123190000D03*
X103505000Y-136525000D03*
X150495000Y-136525000D03*
X146050000Y-136525000D03*
X163830000Y-130810000D03*
X167640000Y-106680000D03*
X104140000Y-130175000D03*
X125730000Y-125730000D03*
X154305000Y-107315000D03*
X143510000Y-106045000D03*
X123190000Y-110490000D03*
X123190000Y-113665000D03*
X143510000Y-104775000D03*
X154940000Y-106680000D03*
X123190000Y-125730000D03*
X104775000Y-129540000D03*
X160020000Y-106680000D03*
X125095000Y-94615000D03*
X128270000Y-105410000D03*
X128270000Y-102235000D03*
X134620000Y-125730000D03*
X182245000Y-116840000D03*
X182245000Y-109220000D03*
X180340000Y-106045000D03*
X177800000Y-106045000D03*
X154305000Y-106045000D03*
X182880000Y-108585000D03*
X182880000Y-119380000D03*
X180975000Y-105410000D03*
X177165000Y-105410000D03*
X154940000Y-105410000D03*
X128905000Y-104775000D03*
X129540000Y-95250000D03*
X128905000Y-102870000D03*
X154305000Y-104775000D03*
X183515000Y-109220000D03*
X180340000Y-104775000D03*
X177800000Y-104775000D03*
X179070000Y-108585000D03*
X179070000Y-100965000D03*
X179070000Y-99695000D03*
X180340000Y-124460000D03*
X167640000Y-102235000D03*
X143510000Y-85725000D03*
X141605000Y-86360000D03*
X163195000Y-131445000D03*
X161290000Y-135890000D03*
X162560000Y-135255000D03*
X163830000Y-109220000D03*
X178435000Y-101600000D03*
X140970000Y-125730000D03*
X140970000Y-128905000D03*
X138430000Y-128905000D03*
X138430000Y-125730000D03*
X135890000Y-128905000D03*
X135890000Y-125730000D03*
X133350000Y-125730000D03*
X133350000Y-128905000D03*
X139700000Y-133350000D03*
X131445000Y-136525000D03*
X140335000Y-136525000D03*
X118110000Y-114935000D03*
X118745000Y-95885000D03*
X115570000Y-113665000D03*
X117475000Y-95250000D03*
X100330000Y-97790000D03*
X102870000Y-99060000D03*
X102870000Y-102870000D03*
X97155000Y-92075000D03*
X105410000Y-113665000D03*
X107950000Y-113665000D03*
X110490000Y-113665000D03*
X113030000Y-113665000D03*
X131445000Y-135255000D03*
X128905000Y-135255000D03*
X120650000Y-113665000D03*
X120650000Y-96520000D03*
X166370000Y-116840000D03*
X166370000Y-121920000D03*
X179705000Y-98425000D03*
X179705000Y-101600000D03*
X180975000Y-125095000D03*
X179705000Y-109220000D03*
X144145000Y-99060000D03*
X144145000Y-103505000D03*
X149225000Y-114300000D03*
X149225000Y-119380000D03*
X140970000Y-87630000D03*
X142875000Y-86360000D03*
X147955000Y-126365000D03*
X148590000Y-115570000D03*
X148590000Y-125730000D03*
X152400000Y-116840000D03*
X152400000Y-111760000D03*
X154940000Y-98425000D03*
X153670000Y-102870000D03*
X144780000Y-104140000D03*
X144780000Y-99695000D03*
X149225000Y-125095000D03*
X149860000Y-113030000D03*
X154305000Y-99695000D03*
X154305000Y-102235000D03*
X153035000Y-111125000D03*
X167005000Y-92075000D03*
X167005000Y-95885000D03*
D17*
X120015000Y-92710000D02*
X119380000Y-92075000D01*
X121920000Y-92710000D02*
X120015000Y-92710000D01*
X159385000Y-137160000D02*
X164465000Y-137160000D01*
X189865000Y-123190000D02*
X189865000Y-136525000D01*
X189230000Y-137160000D02*
X189865000Y-136525000D01*
X164465000Y-137160000D02*
X189230000Y-137160000D01*
X149860000Y-137160000D02*
X159385000Y-137160000D01*
X142240000Y-127635000D02*
X142240000Y-133350000D01*
X189865000Y-113665000D02*
X189865000Y-110490000D01*
X189865000Y-110490000D02*
X189865000Y-88900000D01*
X189865000Y-88900000D02*
X188595000Y-87630000D01*
X189865000Y-113665000D02*
X188595000Y-112395000D01*
X189865000Y-123190000D02*
X189865000Y-113665000D01*
X146050000Y-138430000D02*
X146050000Y-137795000D01*
X146050000Y-137795000D02*
X145415000Y-137160000D01*
X145415000Y-137160000D02*
X92710000Y-137160000D01*
X92075000Y-109220000D02*
X92075000Y-133350000D01*
X92075000Y-136525000D02*
X92075000Y-133350000D01*
X92710000Y-137160000D02*
X92075000Y-136525000D01*
X93980000Y-112395000D02*
X93980000Y-108585000D01*
X92075000Y-88265000D02*
X92075000Y-109220000D01*
X179705000Y-132080000D02*
X179705000Y-118110000D01*
X179070000Y-115570000D02*
X179070000Y-131445000D01*
X178435000Y-113030000D02*
X177800000Y-112395000D01*
X178435000Y-132080000D02*
X178435000Y-113030000D01*
X177800000Y-112395000D02*
X177165000Y-112395000D01*
X165735000Y-123190000D02*
X165735000Y-118110000D01*
X165735000Y-131445000D02*
X165735000Y-123190000D01*
X165100000Y-130810000D02*
X165100000Y-115570000D01*
X164465000Y-131445000D02*
X164465000Y-113030000D01*
X161925000Y-112395000D02*
X162560000Y-112395000D01*
X162560000Y-136525000D02*
X163195000Y-136525000D01*
X146050000Y-136525000D02*
X141605000Y-136525000D01*
X141605000Y-136525000D02*
X140970000Y-135890000D01*
X140970000Y-135890000D02*
X130810000Y-135890000D01*
X130810000Y-135890000D02*
X130175000Y-136525000D01*
X130175000Y-136525000D02*
X103505000Y-136525000D01*
X160655000Y-136525000D02*
X150495000Y-136525000D01*
X160655000Y-136525000D02*
X162560000Y-136525000D01*
X163830000Y-130810000D02*
X163830000Y-123190000D01*
X161925000Y-122555000D02*
X162560000Y-122555000D01*
X104140000Y-130175000D02*
X125095000Y-130175000D01*
X125095000Y-130175000D02*
X125730000Y-129540000D01*
X125730000Y-129540000D02*
X125730000Y-125730000D01*
X144780000Y-107315000D02*
X154305000Y-107315000D01*
X143510000Y-106045000D02*
X144780000Y-107315000D01*
X168275000Y-95885000D02*
X168910000Y-95250000D01*
X168275000Y-106045000D02*
X168275000Y-95885000D01*
X167640000Y-106680000D02*
X168275000Y-106045000D01*
X168910000Y-95250000D02*
X169545000Y-95250000D01*
X123190000Y-110490000D02*
X123190000Y-113665000D01*
X143510000Y-104775000D02*
X145415000Y-106680000D01*
X145415000Y-106680000D02*
X154940000Y-106680000D01*
X123190000Y-128905000D02*
X123190000Y-125730000D01*
X122555000Y-129540000D02*
X123190000Y-128905000D01*
X104775000Y-129540000D02*
X122555000Y-129540000D01*
X160655000Y-100965000D02*
X161290000Y-100330000D01*
X160655000Y-106045000D02*
X160655000Y-100965000D01*
X160020000Y-106680000D02*
X160655000Y-106045000D01*
X161290000Y-100330000D02*
X161925000Y-100330000D01*
X124460000Y-91440000D02*
X125730000Y-90170000D01*
X124460000Y-93980000D02*
X124460000Y-91440000D01*
X125095000Y-94615000D02*
X124460000Y-93980000D01*
X128270000Y-105410000D02*
X128270000Y-102235000D01*
X134620000Y-127635000D02*
X134620000Y-125730000D01*
X146685000Y-97790000D02*
X145415000Y-99060000D01*
X182245000Y-116840000D02*
X182245000Y-109220000D01*
X177800000Y-106045000D02*
X180340000Y-106045000D01*
X146050000Y-106045000D02*
X154305000Y-106045000D01*
X145415000Y-105410000D02*
X146050000Y-106045000D01*
X145415000Y-99060000D02*
X145415000Y-105410000D01*
X149225000Y-97790000D02*
X147955000Y-99060000D01*
X182880000Y-119380000D02*
X182880000Y-109220000D01*
X182880000Y-109220000D02*
X182880000Y-108585000D01*
X177165000Y-105410000D02*
X180975000Y-105410000D01*
X148590000Y-105410000D02*
X154940000Y-105410000D01*
X147955000Y-104775000D02*
X148590000Y-105410000D01*
X147955000Y-99060000D02*
X147955000Y-104775000D01*
X130810000Y-90170000D02*
X129540000Y-91440000D01*
X129540000Y-91440000D02*
X129540000Y-95250000D01*
X128905000Y-104775000D02*
X128905000Y-102870000D01*
X131445000Y-90170000D02*
X130810000Y-90170000D01*
X150495000Y-104140000D02*
X150495000Y-103505000D01*
X151130000Y-104775000D02*
X150495000Y-104140000D01*
X154305000Y-104775000D02*
X151130000Y-104775000D01*
X151765000Y-97790000D02*
X150495000Y-99060000D01*
X183515000Y-109220000D02*
X183515000Y-121920000D01*
X183515000Y-121920000D02*
X184150000Y-122555000D01*
X177800000Y-104775000D02*
X180340000Y-104775000D01*
X150495000Y-99060000D02*
X150495000Y-103505000D01*
X184785000Y-122555000D02*
X184150000Y-122555000D01*
X179070000Y-100965000D02*
X179070000Y-99695000D01*
X179070000Y-114300000D02*
X179070000Y-109220000D01*
X179705000Y-114935000D02*
X179070000Y-114300000D01*
X179705000Y-116840000D02*
X179705000Y-114935000D01*
X180340000Y-117475000D02*
X179705000Y-116840000D01*
X180340000Y-124460000D02*
X180340000Y-117475000D01*
X179070000Y-109220000D02*
X179070000Y-108585000D01*
X169545000Y-90170000D02*
X168275000Y-90170000D01*
X167640000Y-90805000D02*
X167640000Y-102235000D01*
X168275000Y-90170000D02*
X167640000Y-90805000D01*
X168910000Y-90170000D02*
X169545000Y-90170000D01*
X143510000Y-85725000D02*
X142240000Y-85725000D01*
X141605000Y-86360000D02*
X142240000Y-85725000D01*
X163195000Y-131445000D02*
X163195000Y-114300000D01*
X163195000Y-109855000D02*
X163195000Y-114300000D01*
X161925000Y-135255000D02*
X162560000Y-135255000D01*
X161290000Y-135890000D02*
X161925000Y-135255000D01*
X163195000Y-109855000D02*
X163830000Y-109220000D01*
X178435000Y-91440000D02*
X177165000Y-90170000D01*
X178435000Y-101600000D02*
X178435000Y-91440000D01*
X177165000Y-90170000D02*
X177165000Y-87630000D01*
X140970000Y-125730000D02*
X140970000Y-128905000D01*
X138430000Y-128905000D02*
X138430000Y-125730000D01*
X135890000Y-125730000D02*
X135890000Y-128905000D01*
X133350000Y-128905000D02*
X133350000Y-125730000D01*
X139700000Y-127635000D02*
X139700000Y-133350000D01*
X131445000Y-136525000D02*
X140335000Y-136525000D01*
X118110000Y-110490000D02*
X118110000Y-96520000D01*
X118110000Y-110490000D02*
X118110000Y-114935000D01*
X118110000Y-96520000D02*
X118745000Y-95885000D01*
X115570000Y-109855000D02*
X115570000Y-113665000D01*
X115570000Y-95885000D02*
X115570000Y-109855000D01*
X116205000Y-95250000D02*
X115570000Y-95885000D01*
X117475000Y-95250000D02*
X116205000Y-95250000D01*
X101600000Y-112395000D02*
X101600000Y-101600000D01*
X101600000Y-101600000D02*
X100330000Y-100330000D01*
X100330000Y-97790000D02*
X100330000Y-100330000D01*
X102870000Y-99060000D02*
X102870000Y-102870000D01*
X105410000Y-91440000D02*
X105410000Y-90170000D01*
X104775000Y-92075000D02*
X105410000Y-91440000D01*
X97155000Y-92075000D02*
X104775000Y-92075000D01*
X107950000Y-90170000D02*
X107950000Y-92075000D01*
X105410000Y-93345000D02*
X105410000Y-113665000D01*
X106045000Y-92710000D02*
X105410000Y-93345000D01*
X107315000Y-92710000D02*
X106045000Y-92710000D01*
X107950000Y-92075000D02*
X107315000Y-92710000D01*
X110490000Y-92075000D02*
X110490000Y-92710000D01*
X108585000Y-93345000D02*
X107950000Y-93980000D01*
X109855000Y-93345000D02*
X108585000Y-93345000D01*
X110490000Y-92710000D02*
X109855000Y-93345000D01*
X107950000Y-113665000D02*
X107950000Y-93980000D01*
X110490000Y-92075000D02*
X110490000Y-90170000D01*
X113030000Y-92075000D02*
X113030000Y-93345000D01*
X111125000Y-93980000D02*
X110490000Y-94615000D01*
X112395000Y-93980000D02*
X111125000Y-93980000D01*
X113030000Y-93345000D02*
X112395000Y-93980000D01*
X113030000Y-90170000D02*
X113030000Y-92075000D01*
X110490000Y-94615000D02*
X110490000Y-113665000D01*
X113030000Y-95250000D02*
X113665000Y-94615000D01*
X115570000Y-92710000D02*
X115570000Y-93980000D01*
X115570000Y-92710000D02*
X115570000Y-90170000D01*
X115570000Y-93980000D02*
X114935000Y-94615000D01*
X114935000Y-94615000D02*
X113665000Y-94615000D01*
X113030000Y-95250000D02*
X113030000Y-110490000D01*
X113030000Y-113665000D02*
X113030000Y-110490000D01*
X131445000Y-135255000D02*
X128905000Y-135255000D01*
X120650000Y-113665000D02*
X120650000Y-107950000D01*
X120650000Y-96520000D02*
X120650000Y-107950000D01*
X173355000Y-122555000D02*
X170815000Y-120015000D01*
X170815000Y-118745000D02*
X169545000Y-117475000D01*
X170815000Y-120015000D02*
X170815000Y-118745000D01*
X173355000Y-125095000D02*
X170815000Y-122555000D01*
X170815000Y-121285000D02*
X169545000Y-120015000D01*
X170815000Y-122555000D02*
X170815000Y-121285000D01*
X166370000Y-121920000D02*
X166370000Y-116840000D01*
X173355000Y-127635000D02*
X172085000Y-127635000D01*
X171450000Y-124460000D02*
X169545000Y-122555000D01*
X171450000Y-127000000D02*
X171450000Y-124460000D01*
X172085000Y-127635000D02*
X171450000Y-127000000D01*
X179705000Y-101600000D02*
X179705000Y-98425000D01*
X180975000Y-125095000D02*
X180975000Y-116840000D01*
X180975000Y-116840000D02*
X180340000Y-116205000D01*
X180340000Y-116205000D02*
X180340000Y-114300000D01*
X180340000Y-114300000D02*
X179705000Y-113665000D01*
X179705000Y-113665000D02*
X179705000Y-109220000D01*
X173355000Y-130175000D02*
X171450000Y-130175000D01*
X170815000Y-126365000D02*
X169545000Y-125095000D01*
X170815000Y-129540000D02*
X170815000Y-126365000D01*
X171450000Y-130175000D02*
X170815000Y-129540000D01*
X144145000Y-103505000D02*
X144145000Y-99060000D01*
X149225000Y-114300000D02*
X149225000Y-119380000D01*
X141605000Y-86995000D02*
X140970000Y-87630000D01*
X142240000Y-86995000D02*
X141605000Y-86995000D01*
X142875000Y-86360000D02*
X142240000Y-86995000D01*
X147955000Y-113030000D02*
X147320000Y-112395000D01*
X147955000Y-126365000D02*
X147955000Y-113030000D01*
X147320000Y-112395000D02*
X146685000Y-112395000D01*
X148590000Y-125730000D02*
X148590000Y-115570000D01*
X152400000Y-116840000D02*
X152400000Y-111760000D01*
X154305000Y-98425000D02*
X154940000Y-98425000D01*
X153670000Y-99060000D02*
X154305000Y-98425000D01*
X153670000Y-102870000D02*
X153670000Y-99060000D01*
X154305000Y-120015000D02*
X154305000Y-122555000D01*
X184785000Y-100330000D02*
X184785000Y-97790000D01*
X144780000Y-104140000D02*
X144780000Y-99695000D01*
X149860000Y-120015000D02*
X149860000Y-113030000D01*
X149225000Y-120650000D02*
X149860000Y-120015000D01*
X149225000Y-125095000D02*
X149225000Y-120650000D01*
X154305000Y-102235000D02*
X154305000Y-99695000D01*
X153035000Y-127000000D02*
X153035000Y-111125000D01*
X153670000Y-127635000D02*
X153035000Y-127000000D01*
X154305000Y-127635000D02*
X153670000Y-127635000D01*
X167005000Y-92075000D02*
X167005000Y-95885000D01*
D18*
G36*
X141702599Y-85187599D02*
X141465320Y-85424878D01*
X141419833Y-85424838D01*
X141076057Y-85566883D01*
X140812808Y-85829673D01*
X140670162Y-86173201D01*
X140669838Y-86545167D01*
X140739432Y-86713597D01*
X140441057Y-86836883D01*
X140177808Y-87099673D01*
X140035162Y-87443201D01*
X140034838Y-87815167D01*
X140176883Y-88158943D01*
X140439673Y-88422192D01*
X140783201Y-88564838D01*
X141155167Y-88565162D01*
X141498943Y-88423117D01*
X141762192Y-88160327D01*
X141904838Y-87816799D01*
X141904879Y-87769923D01*
X141919802Y-87755000D01*
X142240000Y-87755000D01*
X142530839Y-87697148D01*
X142777401Y-87532401D01*
X143014680Y-87295122D01*
X143060167Y-87295162D01*
X143403943Y-87153117D01*
X143667192Y-86890327D01*
X143776765Y-86626446D01*
X144038943Y-86518117D01*
X144302192Y-86255327D01*
X144444838Y-85911799D01*
X144445162Y-85539833D01*
X144303117Y-85196057D01*
X144272114Y-85165000D01*
X185985069Y-85165000D01*
X187479001Y-85462161D01*
X188575747Y-86194983D01*
X188310813Y-86194752D01*
X187783200Y-86412757D01*
X187379176Y-86816077D01*
X187160250Y-87343309D01*
X187159752Y-87914187D01*
X187377757Y-88441800D01*
X187781077Y-88845824D01*
X188308309Y-89064750D01*
X188879187Y-89065248D01*
X188933149Y-89042951D01*
X189105000Y-89214802D01*
X189105000Y-91288431D01*
X188811777Y-91183035D01*
X188241546Y-91210222D01*
X187840995Y-91376136D01*
X187766861Y-91622255D01*
X188595000Y-92450395D01*
X188609142Y-92436252D01*
X188788748Y-92615858D01*
X188774605Y-92630000D01*
X188788748Y-92644143D01*
X188609142Y-92823748D01*
X188595000Y-92809605D01*
X187766861Y-93637745D01*
X187840995Y-93883864D01*
X188378223Y-94076965D01*
X188948454Y-94049778D01*
X189105000Y-93984934D01*
X189105000Y-109927537D01*
X189072808Y-109959673D01*
X188930162Y-110303201D01*
X188929838Y-110675167D01*
X189071883Y-111018943D01*
X189105000Y-111052118D01*
X189105000Y-111052976D01*
X188881691Y-110960250D01*
X188310813Y-110959752D01*
X187783200Y-111177757D01*
X187379176Y-111581077D01*
X187160250Y-112108309D01*
X187159752Y-112679187D01*
X187377757Y-113206800D01*
X187781077Y-113610824D01*
X188308309Y-113829750D01*
X188879187Y-113830248D01*
X188933149Y-113807951D01*
X189105000Y-113979802D01*
X189105000Y-116053431D01*
X188811777Y-115948035D01*
X188241546Y-115975222D01*
X187840995Y-116141136D01*
X187766861Y-116387255D01*
X188595000Y-117215395D01*
X188609142Y-117201252D01*
X188788748Y-117380858D01*
X188774605Y-117395000D01*
X188788748Y-117409143D01*
X188609142Y-117588748D01*
X188595000Y-117574605D01*
X187766861Y-118402745D01*
X187840995Y-118648864D01*
X188378223Y-118841965D01*
X188948454Y-118814778D01*
X189105000Y-118749934D01*
X189105000Y-122627537D01*
X189072808Y-122659673D01*
X188930162Y-123003201D01*
X188929838Y-123375167D01*
X189021729Y-123597560D01*
X187745000Y-123597560D01*
X187509683Y-123641838D01*
X187293559Y-123780910D01*
X187148569Y-123993110D01*
X187097560Y-124245000D01*
X187097560Y-125945000D01*
X187141838Y-126180317D01*
X187280910Y-126396441D01*
X187493110Y-126541431D01*
X187560541Y-126555086D01*
X187515853Y-126584946D01*
X187193946Y-127066715D01*
X187080907Y-127635000D01*
X187193946Y-128203285D01*
X187515853Y-128685054D01*
X187845026Y-128905000D01*
X187515853Y-129124946D01*
X187193946Y-129606715D01*
X187080907Y-130175000D01*
X187193946Y-130743285D01*
X187515853Y-131225054D01*
X187997622Y-131546961D01*
X188565907Y-131660000D01*
X188624093Y-131660000D01*
X189105000Y-131564342D01*
X189105000Y-136210198D01*
X188915198Y-136400000D01*
X164130110Y-136400000D01*
X164130162Y-136339833D01*
X163988117Y-135996057D01*
X163725327Y-135732808D01*
X163425668Y-135608378D01*
X163494838Y-135441799D01*
X163495162Y-135069833D01*
X163353117Y-134726057D01*
X163090327Y-134462808D01*
X162746799Y-134320162D01*
X162374833Y-134319838D01*
X162031057Y-134461883D01*
X161997882Y-134495000D01*
X161925000Y-134495000D01*
X161634161Y-134552852D01*
X161387599Y-134717599D01*
X161150320Y-134954878D01*
X161104833Y-134954838D01*
X160761057Y-135096883D01*
X160497808Y-135359673D01*
X160355162Y-135703201D01*
X160355108Y-135765000D01*
X151057463Y-135765000D01*
X151025327Y-135732808D01*
X150681799Y-135590162D01*
X150309833Y-135589838D01*
X149966057Y-135731883D01*
X149702808Y-135994673D01*
X149593235Y-136258554D01*
X149331057Y-136366883D01*
X149067808Y-136629673D01*
X148925162Y-136973201D01*
X148925139Y-137000003D01*
X148717000Y-137109845D01*
X148717000Y-138303000D01*
X148737000Y-138303000D01*
X148737000Y-138557000D01*
X148717000Y-138557000D01*
X148717000Y-138577000D01*
X148463000Y-138577000D01*
X148463000Y-138557000D01*
X148443000Y-138557000D01*
X148443000Y-138303000D01*
X148463000Y-138303000D01*
X148463000Y-137109845D01*
X148233110Y-136988524D01*
X147823076Y-137158355D01*
X147394817Y-137548642D01*
X147327702Y-137691553D01*
X147100054Y-137350853D01*
X146768245Y-137129146D01*
X146842192Y-137055327D01*
X146984838Y-136711799D01*
X146985162Y-136339833D01*
X146843117Y-135996057D01*
X146580327Y-135732808D01*
X146236799Y-135590162D01*
X145864833Y-135589838D01*
X145521057Y-135731883D01*
X145487882Y-135765000D01*
X141919802Y-135765000D01*
X141507401Y-135352599D01*
X141260839Y-135187852D01*
X140970000Y-135130000D01*
X132380110Y-135130000D01*
X132380162Y-135069833D01*
X132238117Y-134726057D01*
X131975327Y-134462808D01*
X131631799Y-134320162D01*
X131259833Y-134319838D01*
X130916057Y-134461883D01*
X130882882Y-134495000D01*
X129467463Y-134495000D01*
X129435327Y-134462808D01*
X129091799Y-134320162D01*
X128719833Y-134319838D01*
X128376057Y-134461883D01*
X128112808Y-134724673D01*
X127970162Y-135068201D01*
X127969838Y-135440167D01*
X128104056Y-135765000D01*
X104067463Y-135765000D01*
X104035327Y-135732808D01*
X103691799Y-135590162D01*
X103319833Y-135589838D01*
X102976057Y-135731883D01*
X102712808Y-135994673D01*
X102570162Y-136338201D01*
X102570108Y-136400000D01*
X93024802Y-136400000D01*
X92835000Y-136210198D01*
X92835000Y-128482801D01*
X92965302Y-128677811D01*
X93430849Y-128988880D01*
X93980000Y-129098113D01*
X94529151Y-128988880D01*
X94994698Y-128677811D01*
X95250000Y-128295725D01*
X95505302Y-128677811D01*
X95970849Y-128988880D01*
X96520000Y-129098113D01*
X97069151Y-128988880D01*
X97534698Y-128677811D01*
X97790000Y-128295725D01*
X98045302Y-128677811D01*
X98510849Y-128988880D01*
X99060000Y-129098113D01*
X99609151Y-128988880D01*
X100074698Y-128677811D01*
X100330000Y-128295725D01*
X100585302Y-128677811D01*
X101050849Y-128988880D01*
X101600000Y-129098113D01*
X102149151Y-128988880D01*
X102614698Y-128677811D01*
X102870000Y-128295725D01*
X103125302Y-128677811D01*
X103590849Y-128988880D01*
X103960879Y-129062484D01*
X103873235Y-129273554D01*
X103611057Y-129381883D01*
X103347808Y-129644673D01*
X103205162Y-129988201D01*
X103204838Y-130360167D01*
X103346883Y-130703943D01*
X103609673Y-130967192D01*
X103953201Y-131109838D01*
X104325167Y-131110162D01*
X104668943Y-130968117D01*
X104702118Y-130935000D01*
X125095000Y-130935000D01*
X125385839Y-130877148D01*
X125632401Y-130712401D01*
X126267401Y-130077401D01*
X126432148Y-129830839D01*
X126490000Y-129540000D01*
X126490000Y-128996668D01*
X127000000Y-129098113D01*
X127549151Y-128988880D01*
X128014698Y-128677811D01*
X128270000Y-128295725D01*
X128525302Y-128677811D01*
X128990849Y-128988880D01*
X129540000Y-129098113D01*
X130089151Y-128988880D01*
X130554698Y-128677811D01*
X130810000Y-128295725D01*
X131065302Y-128677811D01*
X131530849Y-128988880D01*
X132080000Y-129098113D01*
X132414889Y-129031499D01*
X132414838Y-129090167D01*
X132556883Y-129433943D01*
X132819673Y-129697192D01*
X133163201Y-129839838D01*
X133535167Y-129840162D01*
X133878943Y-129698117D01*
X134142192Y-129435327D01*
X134284838Y-129091799D01*
X134284891Y-129031456D01*
X134620000Y-129098113D01*
X134954889Y-129031499D01*
X134954838Y-129090167D01*
X135096883Y-129433943D01*
X135359673Y-129697192D01*
X135703201Y-129839838D01*
X136075167Y-129840162D01*
X136418943Y-129698117D01*
X136682192Y-129435327D01*
X136824838Y-129091799D01*
X136824891Y-129031456D01*
X137160000Y-129098113D01*
X137494889Y-129031499D01*
X137494838Y-129090167D01*
X137636883Y-129433943D01*
X137899673Y-129697192D01*
X138243201Y-129839838D01*
X138615167Y-129840162D01*
X138940000Y-129705944D01*
X138940000Y-132787537D01*
X138907808Y-132819673D01*
X138765162Y-133163201D01*
X138764838Y-133535167D01*
X138906883Y-133878943D01*
X139169673Y-134142192D01*
X139513201Y-134284838D01*
X139885167Y-134285162D01*
X140228943Y-134143117D01*
X140492192Y-133880327D01*
X140634838Y-133536799D01*
X140635162Y-133164833D01*
X140493117Y-132821057D01*
X140460000Y-132787882D01*
X140460000Y-129705633D01*
X140783201Y-129839838D01*
X141155167Y-129840162D01*
X141480000Y-129705944D01*
X141480000Y-132787537D01*
X141447808Y-132819673D01*
X141305162Y-133163201D01*
X141304838Y-133535167D01*
X141446883Y-133878943D01*
X141709673Y-134142192D01*
X142053201Y-134284838D01*
X142425167Y-134285162D01*
X142768943Y-134143117D01*
X143032192Y-133880327D01*
X143174838Y-133536799D01*
X143175162Y-133164833D01*
X143033117Y-132821057D01*
X143000000Y-132787882D01*
X143000000Y-130524039D01*
X160533096Y-130524039D01*
X160693959Y-130912423D01*
X161069866Y-131327389D01*
X161575959Y-131566914D01*
X161798000Y-131445629D01*
X161798000Y-130302000D01*
X160655085Y-130302000D01*
X160533096Y-130524039D01*
X143000000Y-130524039D01*
X143000000Y-128847995D01*
X143254698Y-128677811D01*
X143565767Y-128212264D01*
X143611163Y-127984039D01*
X145293096Y-127984039D01*
X145453959Y-128372423D01*
X145829866Y-128787389D01*
X146335959Y-129026914D01*
X146558000Y-128905629D01*
X146558000Y-127762000D01*
X146812000Y-127762000D01*
X146812000Y-128905629D01*
X147034041Y-129026914D01*
X147540134Y-128787389D01*
X147916041Y-128372423D01*
X148076904Y-127984039D01*
X147954915Y-127762000D01*
X146812000Y-127762000D01*
X146558000Y-127762000D01*
X145415085Y-127762000D01*
X145293096Y-127984039D01*
X143611163Y-127984039D01*
X143675000Y-127663113D01*
X143675000Y-127606887D01*
X143565767Y-127057736D01*
X143254698Y-126592189D01*
X142789151Y-126281120D01*
X142240000Y-126171887D01*
X141753933Y-126268572D01*
X141762192Y-126260327D01*
X141904838Y-125916799D01*
X141905162Y-125544833D01*
X141763117Y-125201057D01*
X141500327Y-124937808D01*
X141156799Y-124795162D01*
X140784833Y-124794838D01*
X140441057Y-124936883D01*
X140177808Y-125199673D01*
X140035162Y-125543201D01*
X140034838Y-125915167D01*
X140176883Y-126258943D01*
X140186601Y-126268678D01*
X139700000Y-126171887D01*
X139213933Y-126268572D01*
X139222192Y-126260327D01*
X139364838Y-125916799D01*
X139365162Y-125544833D01*
X139223117Y-125201057D01*
X138960327Y-124937808D01*
X138616799Y-124795162D01*
X138244833Y-124794838D01*
X137901057Y-124936883D01*
X137637808Y-125199673D01*
X137495162Y-125543201D01*
X137494838Y-125915167D01*
X137636883Y-126258943D01*
X137646601Y-126268678D01*
X137160000Y-126171887D01*
X136673933Y-126268572D01*
X136682192Y-126260327D01*
X136824838Y-125916799D01*
X136825162Y-125544833D01*
X136683117Y-125201057D01*
X136420327Y-124937808D01*
X136076799Y-124795162D01*
X135704833Y-124794838D01*
X135361057Y-124936883D01*
X135255046Y-125042710D01*
X135150327Y-124937808D01*
X134806799Y-124795162D01*
X134434833Y-124794838D01*
X134091057Y-124936883D01*
X133985046Y-125042710D01*
X133880327Y-124937808D01*
X133536799Y-124795162D01*
X133164833Y-124794838D01*
X132821057Y-124936883D01*
X132557808Y-125199673D01*
X132415162Y-125543201D01*
X132414838Y-125915167D01*
X132556883Y-126258943D01*
X132566601Y-126268678D01*
X132080000Y-126171887D01*
X131530849Y-126281120D01*
X131065302Y-126592189D01*
X130810000Y-126974275D01*
X130554698Y-126592189D01*
X130089151Y-126281120D01*
X129540000Y-126171887D01*
X128990849Y-126281120D01*
X128525302Y-126592189D01*
X128270000Y-126974275D01*
X128014698Y-126592189D01*
X127549151Y-126281120D01*
X127000000Y-126171887D01*
X126513933Y-126268572D01*
X126522192Y-126260327D01*
X126664838Y-125916799D01*
X126665162Y-125544833D01*
X126523117Y-125201057D01*
X126260327Y-124937808D01*
X125916799Y-124795162D01*
X125544833Y-124794838D01*
X125201057Y-124936883D01*
X124937808Y-125199673D01*
X124795162Y-125543201D01*
X124794838Y-125915167D01*
X124936883Y-126258943D01*
X124946601Y-126268678D01*
X124460000Y-126171887D01*
X123973933Y-126268572D01*
X123982192Y-126260327D01*
X124124838Y-125916799D01*
X124125162Y-125544833D01*
X123983117Y-125201057D01*
X123720327Y-124937808D01*
X123376799Y-124795162D01*
X123004833Y-124794838D01*
X122661057Y-124936883D01*
X122397808Y-125199673D01*
X122255162Y-125543201D01*
X122254838Y-125915167D01*
X122396883Y-126258943D01*
X122406601Y-126268678D01*
X121920000Y-126171887D01*
X121370849Y-126281120D01*
X120905302Y-126592189D01*
X120650000Y-126974275D01*
X120394698Y-126592189D01*
X119929151Y-126281120D01*
X119380000Y-126171887D01*
X118830849Y-126281120D01*
X118365302Y-126592189D01*
X118110000Y-126974275D01*
X117854698Y-126592189D01*
X117389151Y-126281120D01*
X116840000Y-126171887D01*
X116290849Y-126281120D01*
X115825302Y-126592189D01*
X115570000Y-126974275D01*
X115314698Y-126592189D01*
X114849151Y-126281120D01*
X114300000Y-126171887D01*
X113750849Y-126281120D01*
X113285302Y-126592189D01*
X113030000Y-126974275D01*
X112774698Y-126592189D01*
X112309151Y-126281120D01*
X111760000Y-126171887D01*
X111210849Y-126281120D01*
X110745302Y-126592189D01*
X110490000Y-126974275D01*
X110234698Y-126592189D01*
X109769151Y-126281120D01*
X109220000Y-126171887D01*
X108670849Y-126281120D01*
X108205302Y-126592189D01*
X107950000Y-126974275D01*
X107694698Y-126592189D01*
X107229151Y-126281120D01*
X106680000Y-126171887D01*
X106130849Y-126281120D01*
X105665302Y-126592189D01*
X105410000Y-126974275D01*
X105154698Y-126592189D01*
X104689151Y-126281120D01*
X104140000Y-126171887D01*
X103590849Y-126281120D01*
X103125302Y-126592189D01*
X102870000Y-126974275D01*
X102614698Y-126592189D01*
X102149151Y-126281120D01*
X101600000Y-126171887D01*
X101050849Y-126281120D01*
X100585302Y-126592189D01*
X100330000Y-126974275D01*
X100074698Y-126592189D01*
X99609151Y-126281120D01*
X99060000Y-126171887D01*
X98510849Y-126281120D01*
X98045302Y-126592189D01*
X97790000Y-126974275D01*
X97534698Y-126592189D01*
X97069151Y-126281120D01*
X96520000Y-126171887D01*
X95970849Y-126281120D01*
X95505302Y-126592189D01*
X95250000Y-126974275D01*
X94994698Y-126592189D01*
X94529151Y-126281120D01*
X93980000Y-126171887D01*
X93430849Y-126281120D01*
X92965302Y-126592189D01*
X92835000Y-126787199D01*
X92835000Y-113242801D01*
X92965302Y-113437811D01*
X93430849Y-113748880D01*
X93980000Y-113858113D01*
X94529151Y-113748880D01*
X94994698Y-113437811D01*
X95250000Y-113055725D01*
X95505302Y-113437811D01*
X95970849Y-113748880D01*
X96520000Y-113858113D01*
X97069151Y-113748880D01*
X97534698Y-113437811D01*
X97790000Y-113055725D01*
X98045302Y-113437811D01*
X98510849Y-113748880D01*
X99060000Y-113858113D01*
X99609151Y-113748880D01*
X100074698Y-113437811D01*
X100330000Y-113055725D01*
X100585302Y-113437811D01*
X101050849Y-113748880D01*
X101600000Y-113858113D01*
X102149151Y-113748880D01*
X102614698Y-113437811D01*
X102870000Y-113055725D01*
X103125302Y-113437811D01*
X103590849Y-113748880D01*
X104140000Y-113858113D01*
X104474889Y-113791499D01*
X104474838Y-113850167D01*
X104616883Y-114193943D01*
X104879673Y-114457192D01*
X105223201Y-114599838D01*
X105595167Y-114600162D01*
X105938943Y-114458117D01*
X106202192Y-114195327D01*
X106344838Y-113851799D01*
X106344891Y-113791456D01*
X106680000Y-113858113D01*
X107014889Y-113791499D01*
X107014838Y-113850167D01*
X107156883Y-114193943D01*
X107419673Y-114457192D01*
X107763201Y-114599838D01*
X108135167Y-114600162D01*
X108478943Y-114458117D01*
X108742192Y-114195327D01*
X108884838Y-113851799D01*
X108884891Y-113791456D01*
X109220000Y-113858113D01*
X109554889Y-113791499D01*
X109554838Y-113850167D01*
X109696883Y-114193943D01*
X109959673Y-114457192D01*
X110303201Y-114599838D01*
X110675167Y-114600162D01*
X111018943Y-114458117D01*
X111282192Y-114195327D01*
X111424838Y-113851799D01*
X111424891Y-113791456D01*
X111760000Y-113858113D01*
X112094889Y-113791499D01*
X112094838Y-113850167D01*
X112236883Y-114193943D01*
X112499673Y-114457192D01*
X112843201Y-114599838D01*
X113215167Y-114600162D01*
X113558943Y-114458117D01*
X113822192Y-114195327D01*
X113964838Y-113851799D01*
X113964891Y-113791456D01*
X114300000Y-113858113D01*
X114634889Y-113791499D01*
X114634838Y-113850167D01*
X114776883Y-114193943D01*
X115039673Y-114457192D01*
X115383201Y-114599838D01*
X115755167Y-114600162D01*
X116098943Y-114458117D01*
X116362192Y-114195327D01*
X116504838Y-113851799D01*
X116504891Y-113791456D01*
X116840000Y-113858113D01*
X117350000Y-113756668D01*
X117350000Y-114372537D01*
X117317808Y-114404673D01*
X117175162Y-114748201D01*
X117174838Y-115120167D01*
X117316883Y-115463943D01*
X117579673Y-115727192D01*
X117923201Y-115869838D01*
X118295167Y-115870162D01*
X118638943Y-115728117D01*
X118902192Y-115465327D01*
X119044838Y-115121799D01*
X119045000Y-114935000D01*
X145221887Y-114935000D01*
X145331120Y-115484151D01*
X145642189Y-115949698D01*
X146024275Y-116205000D01*
X145642189Y-116460302D01*
X145331120Y-116925849D01*
X145221887Y-117475000D01*
X145331120Y-118024151D01*
X145642189Y-118489698D01*
X146024275Y-118745000D01*
X145642189Y-119000302D01*
X145331120Y-119465849D01*
X145221887Y-120015000D01*
X145331120Y-120564151D01*
X145642189Y-121029698D01*
X146024275Y-121285000D01*
X145642189Y-121540302D01*
X145331120Y-122005849D01*
X145221887Y-122555000D01*
X145331120Y-123104151D01*
X145642189Y-123569698D01*
X146024275Y-123825000D01*
X145642189Y-124080302D01*
X145331120Y-124545849D01*
X145221887Y-125095000D01*
X145331120Y-125644151D01*
X145642189Y-126109698D01*
X146046703Y-126379986D01*
X145829866Y-126482611D01*
X145453959Y-126897577D01*
X145293096Y-127285961D01*
X145415085Y-127508000D01*
X146558000Y-127508000D01*
X146558000Y-127488000D01*
X146812000Y-127488000D01*
X146812000Y-127508000D01*
X147954915Y-127508000D01*
X148069136Y-127300100D01*
X148140167Y-127300162D01*
X148483943Y-127158117D01*
X148747192Y-126895327D01*
X148856765Y-126631446D01*
X149118943Y-126523117D01*
X149382192Y-126260327D01*
X149491765Y-125996446D01*
X149753943Y-125888117D01*
X150017192Y-125625327D01*
X150159838Y-125281799D01*
X150160162Y-124909833D01*
X150018117Y-124566057D01*
X149985000Y-124532882D01*
X149985000Y-120964802D01*
X150397401Y-120552401D01*
X150562148Y-120305839D01*
X150620000Y-120015000D01*
X150620000Y-113592463D01*
X150652192Y-113560327D01*
X150794838Y-113216799D01*
X150795162Y-112844833D01*
X150653117Y-112501057D01*
X150390327Y-112237808D01*
X150046799Y-112095162D01*
X149674833Y-112094838D01*
X149331057Y-112236883D01*
X149067808Y-112499673D01*
X148925162Y-112843201D01*
X148924838Y-113215167D01*
X148994432Y-113383597D01*
X148715000Y-113499056D01*
X148715000Y-113030000D01*
X148657148Y-112739161D01*
X148492401Y-112492599D01*
X148132440Y-112132638D01*
X148132440Y-111945167D01*
X151464838Y-111945167D01*
X151606883Y-112288943D01*
X151640000Y-112322118D01*
X151640000Y-116277537D01*
X151607808Y-116309673D01*
X151465162Y-116653201D01*
X151464838Y-117025167D01*
X151606883Y-117368943D01*
X151869673Y-117632192D01*
X152213201Y-117774838D01*
X152275000Y-117774892D01*
X152275000Y-127000000D01*
X152332852Y-127290839D01*
X152497599Y-127537401D01*
X152903141Y-127942943D01*
X152951120Y-128184151D01*
X153262189Y-128649698D01*
X153727736Y-128960767D01*
X154276887Y-129070000D01*
X154333113Y-129070000D01*
X154882264Y-128960767D01*
X155347811Y-128649698D01*
X155658880Y-128184151D01*
X155768113Y-127635000D01*
X155658880Y-127085849D01*
X155347811Y-126620302D01*
X154965725Y-126365000D01*
X155347811Y-126109698D01*
X155658880Y-125644151D01*
X155768113Y-125095000D01*
X155658880Y-124545849D01*
X155347811Y-124080302D01*
X154965725Y-123825000D01*
X155347811Y-123569698D01*
X155658880Y-123104151D01*
X155768113Y-122555000D01*
X155658880Y-122005849D01*
X155347811Y-121540302D01*
X155065000Y-121351333D01*
X155065000Y-121218667D01*
X155347811Y-121029698D01*
X155658880Y-120564151D01*
X155768113Y-120015000D01*
X155658880Y-119465849D01*
X155347811Y-119000302D01*
X154965725Y-118745000D01*
X155347811Y-118489698D01*
X155405911Y-118402745D01*
X157286861Y-118402745D01*
X157360995Y-118648864D01*
X157898223Y-118841965D01*
X158468454Y-118814778D01*
X158869005Y-118648864D01*
X158943139Y-118402745D01*
X158115000Y-117574605D01*
X157286861Y-118402745D01*
X155405911Y-118402745D01*
X155658880Y-118024151D01*
X155768113Y-117475000D01*
X155709081Y-117178223D01*
X156668035Y-117178223D01*
X156695222Y-117748454D01*
X156861136Y-118149005D01*
X157107255Y-118223139D01*
X157935395Y-117395000D01*
X158294605Y-117395000D01*
X159122745Y-118223139D01*
X159368864Y-118149005D01*
X159561965Y-117611777D01*
X159534778Y-117041546D01*
X159368864Y-116640995D01*
X159122745Y-116566861D01*
X158294605Y-117395000D01*
X157935395Y-117395000D01*
X157107255Y-116566861D01*
X156861136Y-116640995D01*
X156668035Y-117178223D01*
X155709081Y-117178223D01*
X155658880Y-116925849D01*
X155347811Y-116460302D01*
X155238489Y-116387255D01*
X157286861Y-116387255D01*
X158115000Y-117215395D01*
X158943139Y-116387255D01*
X158869005Y-116141136D01*
X158331777Y-115948035D01*
X157761546Y-115975222D01*
X157360995Y-116141136D01*
X157286861Y-116387255D01*
X155238489Y-116387255D01*
X154965725Y-116205000D01*
X155347811Y-115949698D01*
X155658880Y-115484151D01*
X155768113Y-114935000D01*
X160461887Y-114935000D01*
X160571120Y-115484151D01*
X160882189Y-115949698D01*
X161264275Y-116205000D01*
X160882189Y-116460302D01*
X160571120Y-116925849D01*
X160461887Y-117475000D01*
X160571120Y-118024151D01*
X160882189Y-118489698D01*
X161286703Y-118759986D01*
X161069866Y-118862611D01*
X160693959Y-119277577D01*
X160533096Y-119665961D01*
X160655085Y-119888000D01*
X161798000Y-119888000D01*
X161798000Y-119868000D01*
X162052000Y-119868000D01*
X162052000Y-119888000D01*
X162072000Y-119888000D01*
X162072000Y-120142000D01*
X162052000Y-120142000D01*
X162052000Y-120162000D01*
X161798000Y-120162000D01*
X161798000Y-120142000D01*
X160655085Y-120142000D01*
X160533096Y-120364039D01*
X160693959Y-120752423D01*
X161069866Y-121167389D01*
X161286703Y-121270014D01*
X160882189Y-121540302D01*
X160571120Y-122005849D01*
X160461887Y-122555000D01*
X160571120Y-123104151D01*
X160882189Y-123569698D01*
X161264275Y-123825000D01*
X160882189Y-124080302D01*
X160571120Y-124545849D01*
X160461887Y-125095000D01*
X160571120Y-125644151D01*
X160882189Y-126109698D01*
X161264275Y-126365000D01*
X160882189Y-126620302D01*
X160571120Y-127085849D01*
X160461887Y-127635000D01*
X160571120Y-128184151D01*
X160882189Y-128649698D01*
X161286703Y-128919986D01*
X161069866Y-129022611D01*
X160693959Y-129437577D01*
X160533096Y-129825961D01*
X160655085Y-130048000D01*
X161798000Y-130048000D01*
X161798000Y-130028000D01*
X162052000Y-130028000D01*
X162052000Y-130048000D01*
X162072000Y-130048000D01*
X162072000Y-130302000D01*
X162052000Y-130302000D01*
X162052000Y-131445629D01*
X162259900Y-131559190D01*
X162259838Y-131630167D01*
X162401883Y-131973943D01*
X162664673Y-132237192D01*
X163008201Y-132379838D01*
X163380167Y-132380162D01*
X163723943Y-132238117D01*
X163829954Y-132132290D01*
X163934673Y-132237192D01*
X164278201Y-132379838D01*
X164650167Y-132380162D01*
X164993943Y-132238117D01*
X165099954Y-132132290D01*
X165204673Y-132237192D01*
X165548201Y-132379838D01*
X165920167Y-132380162D01*
X166263943Y-132238117D01*
X166527192Y-131975327D01*
X166669838Y-131631799D01*
X166670162Y-131259833D01*
X166528117Y-130916057D01*
X166495000Y-130882882D01*
X166495000Y-122855110D01*
X166555167Y-122855162D01*
X166898943Y-122713117D01*
X167162192Y-122450327D01*
X167304838Y-122106799D01*
X167305162Y-121734833D01*
X167163117Y-121391057D01*
X167130000Y-121357882D01*
X167130000Y-117402463D01*
X167162192Y-117370327D01*
X167304838Y-117026799D01*
X167305162Y-116654833D01*
X167163117Y-116311057D01*
X166900327Y-116047808D01*
X166556799Y-115905162D01*
X166184833Y-115904838D01*
X165929570Y-116010310D01*
X166034838Y-115756799D01*
X166035162Y-115384833D01*
X165893117Y-115041057D01*
X165630327Y-114777808D01*
X165286799Y-114635162D01*
X165225000Y-114635108D01*
X165225000Y-113592463D01*
X165257192Y-113560327D01*
X165399838Y-113216799D01*
X165400162Y-112844833D01*
X165258117Y-112501057D01*
X165152245Y-112395000D01*
X168081887Y-112395000D01*
X168191120Y-112944151D01*
X168502189Y-113409698D01*
X168884275Y-113665000D01*
X168502189Y-113920302D01*
X168191120Y-114385849D01*
X168081887Y-114935000D01*
X168191120Y-115484151D01*
X168502189Y-115949698D01*
X168884275Y-116205000D01*
X168502189Y-116460302D01*
X168191120Y-116925849D01*
X168081887Y-117475000D01*
X168191120Y-118024151D01*
X168502189Y-118489698D01*
X168884275Y-118745000D01*
X168502189Y-119000302D01*
X168191120Y-119465849D01*
X168081887Y-120015000D01*
X168191120Y-120564151D01*
X168502189Y-121029698D01*
X168884275Y-121285000D01*
X168502189Y-121540302D01*
X168191120Y-122005849D01*
X168081887Y-122555000D01*
X168191120Y-123104151D01*
X168502189Y-123569698D01*
X168884275Y-123825000D01*
X168502189Y-124080302D01*
X168191120Y-124545849D01*
X168081887Y-125095000D01*
X168191120Y-125644151D01*
X168502189Y-126109698D01*
X168884275Y-126365000D01*
X168502189Y-126620302D01*
X168191120Y-127085849D01*
X168081887Y-127635000D01*
X168191120Y-128184151D01*
X168502189Y-128649698D01*
X168884275Y-128905000D01*
X168502189Y-129160302D01*
X168191120Y-129625849D01*
X168081887Y-130175000D01*
X168191120Y-130724151D01*
X168502189Y-131189698D01*
X168967736Y-131500767D01*
X169516887Y-131610000D01*
X169573113Y-131610000D01*
X170122264Y-131500767D01*
X170587811Y-131189698D01*
X170898880Y-130724151D01*
X170903106Y-130702908D01*
X170912599Y-130712401D01*
X171159161Y-130877148D01*
X171450000Y-130935000D01*
X172082046Y-130935000D01*
X172275853Y-131225054D01*
X172757622Y-131546961D01*
X173325907Y-131660000D01*
X173384093Y-131660000D01*
X173952378Y-131546961D01*
X174434147Y-131225054D01*
X174756054Y-130743285D01*
X174799664Y-130524039D01*
X175773096Y-130524039D01*
X175933959Y-130912423D01*
X176309866Y-131327389D01*
X176815959Y-131566914D01*
X177038000Y-131445629D01*
X177038000Y-130302000D01*
X175895085Y-130302000D01*
X175773096Y-130524039D01*
X174799664Y-130524039D01*
X174869093Y-130175000D01*
X174756054Y-129606715D01*
X174434147Y-129124946D01*
X174104974Y-128905000D01*
X174434147Y-128685054D01*
X174756054Y-128203285D01*
X174869093Y-127635000D01*
X174756054Y-127066715D01*
X174434147Y-126584946D01*
X174104974Y-126365000D01*
X174434147Y-126145054D01*
X174756054Y-125663285D01*
X174869093Y-125095000D01*
X174756054Y-124526715D01*
X174434147Y-124044946D01*
X174392548Y-124017150D01*
X174440317Y-124008162D01*
X174656441Y-123869090D01*
X174801431Y-123656890D01*
X174852440Y-123405000D01*
X174852440Y-121705000D01*
X174808162Y-121469683D01*
X174669090Y-121253559D01*
X174456890Y-121108569D01*
X174205000Y-121057560D01*
X172932362Y-121057560D01*
X172238841Y-120364039D01*
X175773096Y-120364039D01*
X175933959Y-120752423D01*
X176309866Y-121167389D01*
X176558367Y-121285000D01*
X176309866Y-121402611D01*
X175933959Y-121817577D01*
X175773096Y-122205961D01*
X175895085Y-122428000D01*
X177038000Y-122428000D01*
X177038000Y-120142000D01*
X175895085Y-120142000D01*
X175773096Y-120364039D01*
X172238841Y-120364039D01*
X171575000Y-119700198D01*
X171575000Y-118745000D01*
X171517148Y-118454161D01*
X171517148Y-118454160D01*
X171482794Y-118402745D01*
X172526861Y-118402745D01*
X172600995Y-118648864D01*
X173138223Y-118841965D01*
X173708454Y-118814778D01*
X174109005Y-118648864D01*
X174183139Y-118402745D01*
X173355000Y-117574605D01*
X172526861Y-118402745D01*
X171482794Y-118402745D01*
X171352401Y-118207599D01*
X170943688Y-117798886D01*
X171008113Y-117475000D01*
X170949081Y-117178223D01*
X171908035Y-117178223D01*
X171935222Y-117748454D01*
X172101136Y-118149005D01*
X172347255Y-118223139D01*
X173175395Y-117395000D01*
X173534605Y-117395000D01*
X174362745Y-118223139D01*
X174608864Y-118149005D01*
X174801965Y-117611777D01*
X174774778Y-117041546D01*
X174608864Y-116640995D01*
X174362745Y-116566861D01*
X173534605Y-117395000D01*
X173175395Y-117395000D01*
X172347255Y-116566861D01*
X172101136Y-116640995D01*
X171908035Y-117178223D01*
X170949081Y-117178223D01*
X170898880Y-116925849D01*
X170587811Y-116460302D01*
X170478489Y-116387255D01*
X172526861Y-116387255D01*
X173355000Y-117215395D01*
X174183139Y-116387255D01*
X174109005Y-116141136D01*
X173571777Y-115948035D01*
X173001546Y-115975222D01*
X172600995Y-116141136D01*
X172526861Y-116387255D01*
X170478489Y-116387255D01*
X170205725Y-116205000D01*
X170587811Y-115949698D01*
X170898880Y-115484151D01*
X171008113Y-114935000D01*
X175701887Y-114935000D01*
X175811120Y-115484151D01*
X176122189Y-115949698D01*
X176504275Y-116205000D01*
X176122189Y-116460302D01*
X175811120Y-116925849D01*
X175701887Y-117475000D01*
X175811120Y-118024151D01*
X176122189Y-118489698D01*
X176526703Y-118759986D01*
X176309866Y-118862611D01*
X175933959Y-119277577D01*
X175773096Y-119665961D01*
X175895085Y-119888000D01*
X177038000Y-119888000D01*
X177038000Y-119868000D01*
X177292000Y-119868000D01*
X177292000Y-119888000D01*
X177312000Y-119888000D01*
X177312000Y-120142000D01*
X177292000Y-120142000D01*
X177292000Y-122428000D01*
X177312000Y-122428000D01*
X177312000Y-122682000D01*
X177292000Y-122682000D01*
X177292000Y-122702000D01*
X177038000Y-122702000D01*
X177038000Y-122682000D01*
X175895085Y-122682000D01*
X175773096Y-122904039D01*
X175933959Y-123292423D01*
X176309866Y-123707389D01*
X176526703Y-123810014D01*
X176122189Y-124080302D01*
X175811120Y-124545849D01*
X175701887Y-125095000D01*
X175811120Y-125644151D01*
X176122189Y-126109698D01*
X176504275Y-126365000D01*
X176122189Y-126620302D01*
X175811120Y-127085849D01*
X175701887Y-127635000D01*
X175811120Y-128184151D01*
X176122189Y-128649698D01*
X176526703Y-128919986D01*
X176309866Y-129022611D01*
X175933959Y-129437577D01*
X175773096Y-129825961D01*
X175895085Y-130048000D01*
X177038000Y-130048000D01*
X177038000Y-130028000D01*
X177292000Y-130028000D01*
X177292000Y-130048000D01*
X177312000Y-130048000D01*
X177312000Y-130302000D01*
X177292000Y-130302000D01*
X177292000Y-131445629D01*
X177514041Y-131566914D01*
X177675000Y-131490735D01*
X177675000Y-131517537D01*
X177642808Y-131549673D01*
X177500162Y-131893201D01*
X177499838Y-132265167D01*
X177641883Y-132608943D01*
X177904673Y-132872192D01*
X178248201Y-133014838D01*
X178620167Y-133015162D01*
X178963943Y-132873117D01*
X179069954Y-132767290D01*
X179174673Y-132872192D01*
X179518201Y-133014838D01*
X179890167Y-133015162D01*
X180233943Y-132873117D01*
X180497192Y-132610327D01*
X180639838Y-132266799D01*
X180640162Y-131894833D01*
X180498117Y-131551057D01*
X180465000Y-131517882D01*
X180465000Y-125895633D01*
X180788201Y-126029838D01*
X181160167Y-126030162D01*
X181503943Y-125888117D01*
X181767192Y-125625327D01*
X181909838Y-125281799D01*
X181910162Y-124909833D01*
X181768117Y-124566057D01*
X181735000Y-124532882D01*
X181735000Y-117640633D01*
X182058201Y-117774838D01*
X182120000Y-117774892D01*
X182120000Y-118817537D01*
X182087808Y-118849673D01*
X181945162Y-119193201D01*
X181944838Y-119565167D01*
X182086883Y-119908943D01*
X182349673Y-120172192D01*
X182693201Y-120314838D01*
X182755000Y-120314892D01*
X182755000Y-121920000D01*
X182812852Y-122210839D01*
X182977599Y-122457401D01*
X183383141Y-122862943D01*
X183431120Y-123104151D01*
X183742189Y-123569698D01*
X184124275Y-123825000D01*
X183742189Y-124080302D01*
X183431120Y-124545849D01*
X183321887Y-125095000D01*
X183431120Y-125644151D01*
X183742189Y-126109698D01*
X184124275Y-126365000D01*
X183742189Y-126620302D01*
X183431120Y-127085849D01*
X183321887Y-127635000D01*
X183431120Y-128184151D01*
X183742189Y-128649698D01*
X184124275Y-128905000D01*
X183742189Y-129160302D01*
X183431120Y-129625849D01*
X183321887Y-130175000D01*
X183431120Y-130724151D01*
X183742189Y-131189698D01*
X184207736Y-131500767D01*
X184756887Y-131610000D01*
X184813113Y-131610000D01*
X185362264Y-131500767D01*
X185827811Y-131189698D01*
X186138880Y-130724151D01*
X186248113Y-130175000D01*
X186138880Y-129625849D01*
X185827811Y-129160302D01*
X185445725Y-128905000D01*
X185827811Y-128649698D01*
X186138880Y-128184151D01*
X186248113Y-127635000D01*
X186138880Y-127085849D01*
X185827811Y-126620302D01*
X185445725Y-126365000D01*
X185827811Y-126109698D01*
X186138880Y-125644151D01*
X186248113Y-125095000D01*
X186138880Y-124545849D01*
X185827811Y-124080302D01*
X185445725Y-123825000D01*
X185827811Y-123569698D01*
X186138880Y-123104151D01*
X186248113Y-122555000D01*
X186138880Y-122005849D01*
X185827811Y-121540302D01*
X185445725Y-121285000D01*
X185827811Y-121029698D01*
X186138880Y-120564151D01*
X186248113Y-120015000D01*
X186138880Y-119465849D01*
X185827811Y-119000302D01*
X185445725Y-118745000D01*
X185827811Y-118489698D01*
X186138880Y-118024151D01*
X186248113Y-117475000D01*
X186189081Y-117178223D01*
X187148035Y-117178223D01*
X187175222Y-117748454D01*
X187341136Y-118149005D01*
X187587255Y-118223139D01*
X188415395Y-117395000D01*
X187587255Y-116566861D01*
X187341136Y-116640995D01*
X187148035Y-117178223D01*
X186189081Y-117178223D01*
X186138880Y-116925849D01*
X185827811Y-116460302D01*
X185445725Y-116205000D01*
X185827811Y-115949698D01*
X186138880Y-115484151D01*
X186248113Y-114935000D01*
X186138880Y-114385849D01*
X185827811Y-113920302D01*
X185445725Y-113665000D01*
X185827811Y-113409698D01*
X186138880Y-112944151D01*
X186248113Y-112395000D01*
X186138880Y-111845849D01*
X185827811Y-111380302D01*
X185362264Y-111069233D01*
X184813113Y-110960000D01*
X184756887Y-110960000D01*
X184275000Y-111055853D01*
X184275000Y-109782463D01*
X184307192Y-109750327D01*
X184449838Y-109406799D01*
X184450162Y-109034833D01*
X184308117Y-108691057D01*
X184045327Y-108427808D01*
X183781446Y-108318235D01*
X183673117Y-108056057D01*
X183410327Y-107792808D01*
X183066799Y-107650162D01*
X182694833Y-107649838D01*
X182351057Y-107791883D01*
X182087808Y-108054673D01*
X181978235Y-108318554D01*
X181716057Y-108426883D01*
X181452808Y-108689673D01*
X181310162Y-109033201D01*
X181309838Y-109405167D01*
X181451883Y-109748943D01*
X181485000Y-109782118D01*
X181485000Y-116275198D01*
X181100000Y-115890198D01*
X181100000Y-114300000D01*
X181042148Y-114009161D01*
X180877401Y-113762599D01*
X180465000Y-113350198D01*
X180465000Y-109782463D01*
X180497192Y-109750327D01*
X180639838Y-109406799D01*
X180640162Y-109034833D01*
X180498117Y-108691057D01*
X180235327Y-108427808D01*
X179971446Y-108318235D01*
X179863117Y-108056057D01*
X179600327Y-107792808D01*
X179256799Y-107650162D01*
X178884833Y-107649838D01*
X178541057Y-107791883D01*
X178277808Y-108054673D01*
X178135162Y-108398201D01*
X178134838Y-108770167D01*
X178276883Y-109113943D01*
X178310000Y-109147118D01*
X178310000Y-111062188D01*
X178216890Y-110998569D01*
X177965000Y-110947560D01*
X176365000Y-110947560D01*
X176129683Y-110991838D01*
X175913559Y-111130910D01*
X175768569Y-111343110D01*
X175717560Y-111595000D01*
X175717560Y-113195000D01*
X175761838Y-113430317D01*
X175900910Y-113646441D01*
X176113110Y-113791431D01*
X176268089Y-113822815D01*
X176122189Y-113920302D01*
X175811120Y-114385849D01*
X175701887Y-114935000D01*
X171008113Y-114935000D01*
X170898880Y-114385849D01*
X170587811Y-113920302D01*
X170205725Y-113665000D01*
X170587811Y-113409698D01*
X170898880Y-112944151D01*
X170951584Y-112679187D01*
X171919752Y-112679187D01*
X172137757Y-113206800D01*
X172541077Y-113610824D01*
X173068309Y-113829750D01*
X173639187Y-113830248D01*
X174166800Y-113612243D01*
X174570824Y-113208923D01*
X174789750Y-112681691D01*
X174790248Y-112110813D01*
X174572243Y-111583200D01*
X174168923Y-111179176D01*
X173641691Y-110960250D01*
X173070813Y-110959752D01*
X172543200Y-111177757D01*
X172139176Y-111581077D01*
X171920250Y-112108309D01*
X171919752Y-112679187D01*
X170951584Y-112679187D01*
X171008113Y-112395000D01*
X170898880Y-111845849D01*
X170587811Y-111380302D01*
X170122264Y-111069233D01*
X169573113Y-110960000D01*
X169516887Y-110960000D01*
X168967736Y-111069233D01*
X168502189Y-111380302D01*
X168191120Y-111845849D01*
X168081887Y-112395000D01*
X165152245Y-112395000D01*
X164995327Y-112237808D01*
X164651799Y-112095162D01*
X164279833Y-112094838D01*
X163955000Y-112229056D01*
X163955000Y-110169802D01*
X163969680Y-110155122D01*
X164015167Y-110155162D01*
X164358943Y-110013117D01*
X164622192Y-109750327D01*
X164764838Y-109406799D01*
X164765162Y-109034833D01*
X164623117Y-108691057D01*
X164360327Y-108427808D01*
X164016799Y-108285162D01*
X163644833Y-108284838D01*
X163301057Y-108426883D01*
X163037808Y-108689673D01*
X162895162Y-109033201D01*
X162895121Y-109080077D01*
X162657599Y-109317599D01*
X162492852Y-109564161D01*
X162435000Y-109855000D01*
X162435000Y-110947560D01*
X161125000Y-110947560D01*
X160889683Y-110991838D01*
X160673559Y-111130910D01*
X160528569Y-111343110D01*
X160477560Y-111595000D01*
X160477560Y-113195000D01*
X160521838Y-113430317D01*
X160660910Y-113646441D01*
X160873110Y-113791431D01*
X161028089Y-113822815D01*
X160882189Y-113920302D01*
X160571120Y-114385849D01*
X160461887Y-114935000D01*
X155768113Y-114935000D01*
X155658880Y-114385849D01*
X155347811Y-113920302D01*
X154965725Y-113665000D01*
X155347811Y-113409698D01*
X155658880Y-112944151D01*
X155711584Y-112679187D01*
X156679752Y-112679187D01*
X156897757Y-113206800D01*
X157301077Y-113610824D01*
X157828309Y-113829750D01*
X158399187Y-113830248D01*
X158926800Y-113612243D01*
X159330824Y-113208923D01*
X159549750Y-112681691D01*
X159550248Y-112110813D01*
X159332243Y-111583200D01*
X158928923Y-111179176D01*
X158401691Y-110960250D01*
X157830813Y-110959752D01*
X157303200Y-111177757D01*
X156899176Y-111581077D01*
X156680250Y-112108309D01*
X156679752Y-112679187D01*
X155711584Y-112679187D01*
X155768113Y-112395000D01*
X155658880Y-111845849D01*
X155347811Y-111380302D01*
X154882264Y-111069233D01*
X154333113Y-110960000D01*
X154276887Y-110960000D01*
X153970091Y-111021026D01*
X153970162Y-110939833D01*
X153828117Y-110596057D01*
X153565327Y-110332808D01*
X153221799Y-110190162D01*
X152849833Y-110189838D01*
X152506057Y-110331883D01*
X152242808Y-110594673D01*
X152133235Y-110858554D01*
X151871057Y-110966883D01*
X151607808Y-111229673D01*
X151465162Y-111573201D01*
X151464838Y-111945167D01*
X148132440Y-111945167D01*
X148132440Y-111595000D01*
X148088162Y-111359683D01*
X147949090Y-111143559D01*
X147736890Y-110998569D01*
X147485000Y-110947560D01*
X145885000Y-110947560D01*
X145649683Y-110991838D01*
X145433559Y-111130910D01*
X145288569Y-111343110D01*
X145237560Y-111595000D01*
X145237560Y-113195000D01*
X145281838Y-113430317D01*
X145420910Y-113646441D01*
X145633110Y-113791431D01*
X145788089Y-113822815D01*
X145642189Y-113920302D01*
X145331120Y-114385849D01*
X145221887Y-114935000D01*
X119045000Y-114935000D01*
X119045162Y-114749833D01*
X118903117Y-114406057D01*
X118870000Y-114372882D01*
X118870000Y-113756668D01*
X119380000Y-113858113D01*
X119714889Y-113791499D01*
X119714838Y-113850167D01*
X119856883Y-114193943D01*
X120119673Y-114457192D01*
X120463201Y-114599838D01*
X120835167Y-114600162D01*
X121178943Y-114458117D01*
X121442192Y-114195327D01*
X121584838Y-113851799D01*
X121584891Y-113791456D01*
X121920000Y-113858113D01*
X122254889Y-113791499D01*
X122254838Y-113850167D01*
X122396883Y-114193943D01*
X122659673Y-114457192D01*
X123003201Y-114599838D01*
X123375167Y-114600162D01*
X123718943Y-114458117D01*
X123982192Y-114195327D01*
X124124838Y-113851799D01*
X124124891Y-113791456D01*
X124460000Y-113858113D01*
X125009151Y-113748880D01*
X125474698Y-113437811D01*
X125730000Y-113055725D01*
X125985302Y-113437811D01*
X126450849Y-113748880D01*
X127000000Y-113858113D01*
X127549151Y-113748880D01*
X128014698Y-113437811D01*
X128270000Y-113055725D01*
X128525302Y-113437811D01*
X128990849Y-113748880D01*
X129540000Y-113858113D01*
X130089151Y-113748880D01*
X130554698Y-113437811D01*
X130810000Y-113055725D01*
X131065302Y-113437811D01*
X131530849Y-113748880D01*
X132080000Y-113858113D01*
X132629151Y-113748880D01*
X133094698Y-113437811D01*
X133350000Y-113055725D01*
X133605302Y-113437811D01*
X134070849Y-113748880D01*
X134620000Y-113858113D01*
X135169151Y-113748880D01*
X135634698Y-113437811D01*
X135890000Y-113055725D01*
X136145302Y-113437811D01*
X136610849Y-113748880D01*
X137160000Y-113858113D01*
X137709151Y-113748880D01*
X138174698Y-113437811D01*
X138430000Y-113055725D01*
X138685302Y-113437811D01*
X139150849Y-113748880D01*
X139700000Y-113858113D01*
X140249151Y-113748880D01*
X140714698Y-113437811D01*
X140805000Y-113302665D01*
X140805000Y-113321309D01*
X140901673Y-113554698D01*
X141080301Y-113733327D01*
X141313690Y-113830000D01*
X141954250Y-113830000D01*
X142113000Y-113671250D01*
X142113000Y-112522000D01*
X142367000Y-112522000D01*
X142367000Y-113671250D01*
X142525750Y-113830000D01*
X143166310Y-113830000D01*
X143399699Y-113733327D01*
X143578327Y-113554698D01*
X143675000Y-113321309D01*
X143675000Y-112680750D01*
X143516250Y-112522000D01*
X142367000Y-112522000D01*
X142113000Y-112522000D01*
X142093000Y-112522000D01*
X142093000Y-112268000D01*
X142113000Y-112268000D01*
X142113000Y-111118750D01*
X142367000Y-111118750D01*
X142367000Y-112268000D01*
X143516250Y-112268000D01*
X143675000Y-112109250D01*
X143675000Y-111468691D01*
X143578327Y-111235302D01*
X143399699Y-111056673D01*
X143166310Y-110960000D01*
X142525750Y-110960000D01*
X142367000Y-111118750D01*
X142113000Y-111118750D01*
X141954250Y-110960000D01*
X141313690Y-110960000D01*
X141080301Y-111056673D01*
X140901673Y-111235302D01*
X140805000Y-111468691D01*
X140805000Y-111487335D01*
X140714698Y-111352189D01*
X140249151Y-111041120D01*
X139700000Y-110931887D01*
X139150849Y-111041120D01*
X138685302Y-111352189D01*
X138430000Y-111734275D01*
X138174698Y-111352189D01*
X137709151Y-111041120D01*
X137160000Y-110931887D01*
X136610849Y-111041120D01*
X136145302Y-111352189D01*
X135890000Y-111734275D01*
X135634698Y-111352189D01*
X135169151Y-111041120D01*
X134620000Y-110931887D01*
X134070849Y-111041120D01*
X133605302Y-111352189D01*
X133350000Y-111734275D01*
X133094698Y-111352189D01*
X132629151Y-111041120D01*
X132080000Y-110931887D01*
X131530849Y-111041120D01*
X131065302Y-111352189D01*
X130810000Y-111734275D01*
X130554698Y-111352189D01*
X130089151Y-111041120D01*
X129540000Y-110931887D01*
X128990849Y-111041120D01*
X128525302Y-111352189D01*
X128270000Y-111734275D01*
X128014698Y-111352189D01*
X127549151Y-111041120D01*
X127000000Y-110931887D01*
X126450849Y-111041120D01*
X125985302Y-111352189D01*
X125730000Y-111734275D01*
X125474698Y-111352189D01*
X125009151Y-111041120D01*
X124460000Y-110931887D01*
X123973933Y-111028572D01*
X123982192Y-111020327D01*
X124124838Y-110676799D01*
X124125162Y-110304833D01*
X123983117Y-109961057D01*
X123720327Y-109697808D01*
X123376799Y-109555162D01*
X123004833Y-109554838D01*
X122661057Y-109696883D01*
X122397808Y-109959673D01*
X122255162Y-110303201D01*
X122254838Y-110675167D01*
X122396883Y-111018943D01*
X122406601Y-111028678D01*
X121920000Y-110931887D01*
X121410000Y-111033332D01*
X121410000Y-102420167D01*
X127334838Y-102420167D01*
X127476883Y-102763943D01*
X127510000Y-102797118D01*
X127510000Y-104847537D01*
X127477808Y-104879673D01*
X127335162Y-105223201D01*
X127334838Y-105595167D01*
X127476883Y-105938943D01*
X127739673Y-106202192D01*
X128083201Y-106344838D01*
X128455167Y-106345162D01*
X128798943Y-106203117D01*
X129062192Y-105940327D01*
X129171765Y-105676446D01*
X129433943Y-105568117D01*
X129697192Y-105305327D01*
X129839838Y-104961799D01*
X129839839Y-104960167D01*
X142574838Y-104960167D01*
X142716883Y-105303943D01*
X142822710Y-105409954D01*
X142717808Y-105514673D01*
X142575162Y-105858201D01*
X142574838Y-106230167D01*
X142716883Y-106573943D01*
X142979673Y-106837192D01*
X143323201Y-106979838D01*
X143370077Y-106979879D01*
X144242599Y-107852401D01*
X144489160Y-108017148D01*
X144780000Y-108075000D01*
X153742537Y-108075000D01*
X153774673Y-108107192D01*
X154118201Y-108249838D01*
X154490167Y-108250162D01*
X154833943Y-108108117D01*
X155097192Y-107845327D01*
X155206765Y-107581446D01*
X155468943Y-107473117D01*
X155732192Y-107210327D01*
X155874838Y-106866799D01*
X155874839Y-106865167D01*
X159084838Y-106865167D01*
X159226883Y-107208943D01*
X159489673Y-107472192D01*
X159833201Y-107614838D01*
X160205167Y-107615162D01*
X160548943Y-107473117D01*
X160812192Y-107210327D01*
X160954838Y-106866799D01*
X160954879Y-106819923D01*
X161192401Y-106582401D01*
X161357148Y-106335839D01*
X161415000Y-106045000D01*
X161415000Y-104185735D01*
X161575959Y-104261914D01*
X161798000Y-104140629D01*
X161798000Y-102997000D01*
X162052000Y-102997000D01*
X162052000Y-104140629D01*
X162274041Y-104261914D01*
X162780134Y-104022389D01*
X163156041Y-103607423D01*
X163316904Y-103219039D01*
X163194915Y-102997000D01*
X162052000Y-102997000D01*
X161798000Y-102997000D01*
X161778000Y-102997000D01*
X161778000Y-102743000D01*
X161798000Y-102743000D01*
X161798000Y-102723000D01*
X162052000Y-102723000D01*
X162052000Y-102743000D01*
X163194915Y-102743000D01*
X163316904Y-102520961D01*
X163156041Y-102132577D01*
X162780134Y-101717611D01*
X162563297Y-101614986D01*
X162967811Y-101344698D01*
X163278880Y-100879151D01*
X163388113Y-100330000D01*
X163278880Y-99780849D01*
X162967811Y-99315302D01*
X162585725Y-99060000D01*
X162967811Y-98804698D01*
X163278880Y-98339151D01*
X163388113Y-97790000D01*
X163278880Y-97240849D01*
X162967811Y-96775302D01*
X162585725Y-96520000D01*
X162967811Y-96264698D01*
X163278880Y-95799151D01*
X163388113Y-95250000D01*
X163278880Y-94700849D01*
X162967811Y-94235302D01*
X162585725Y-93980000D01*
X162967811Y-93724698D01*
X163278880Y-93259151D01*
X163388113Y-92710000D01*
X163298636Y-92260167D01*
X166069838Y-92260167D01*
X166211883Y-92603943D01*
X166245000Y-92637118D01*
X166245000Y-95322537D01*
X166212808Y-95354673D01*
X166070162Y-95698201D01*
X166069838Y-96070167D01*
X166211883Y-96413943D01*
X166474673Y-96677192D01*
X166818201Y-96819838D01*
X166880000Y-96819892D01*
X166880000Y-101672537D01*
X166847808Y-101704673D01*
X166705162Y-102048201D01*
X166704838Y-102420167D01*
X166846883Y-102763943D01*
X167109673Y-103027192D01*
X167453201Y-103169838D01*
X167515000Y-103169892D01*
X167515000Y-105730198D01*
X167500320Y-105744878D01*
X167454833Y-105744838D01*
X167111057Y-105886883D01*
X166847808Y-106149673D01*
X166705162Y-106493201D01*
X166704838Y-106865167D01*
X166846883Y-107208943D01*
X167109673Y-107472192D01*
X167453201Y-107614838D01*
X167825167Y-107615162D01*
X168168943Y-107473117D01*
X168432192Y-107210327D01*
X168574838Y-106866799D01*
X168574879Y-106819923D01*
X168812401Y-106582401D01*
X168977148Y-106335839D01*
X169035000Y-106045000D01*
X169035000Y-104209147D01*
X169516887Y-104305000D01*
X169573113Y-104305000D01*
X170122264Y-104195767D01*
X170587811Y-103884698D01*
X170898880Y-103419151D01*
X170938684Y-103219039D01*
X175773096Y-103219039D01*
X175933959Y-103607423D01*
X176309866Y-104022389D01*
X176815959Y-104261914D01*
X177037998Y-104140630D01*
X177037998Y-104214536D01*
X177007808Y-104244673D01*
X176898235Y-104508554D01*
X176636057Y-104616883D01*
X176372808Y-104879673D01*
X176230162Y-105223201D01*
X176229838Y-105595167D01*
X176371883Y-105938943D01*
X176634673Y-106202192D01*
X176898554Y-106311765D01*
X177006883Y-106573943D01*
X177269673Y-106837192D01*
X177613201Y-106979838D01*
X177985167Y-106980162D01*
X178328943Y-106838117D01*
X178362118Y-106805000D01*
X179777537Y-106805000D01*
X179809673Y-106837192D01*
X180153201Y-106979838D01*
X180525167Y-106980162D01*
X180868943Y-106838117D01*
X181132192Y-106575327D01*
X181241765Y-106311446D01*
X181503943Y-106203117D01*
X181767192Y-105940327D01*
X181909838Y-105596799D01*
X181910162Y-105224833D01*
X181768117Y-104881057D01*
X181505327Y-104617808D01*
X181241446Y-104508235D01*
X181133117Y-104246057D01*
X180870327Y-103982808D01*
X180526799Y-103840162D01*
X180154833Y-103839838D01*
X179811057Y-103981883D01*
X179777882Y-104015000D01*
X178362463Y-104015000D01*
X178330327Y-103982808D01*
X178130976Y-103900030D01*
X178396041Y-103607423D01*
X178556904Y-103219039D01*
X178434915Y-102997000D01*
X177292000Y-102997000D01*
X177292000Y-103017000D01*
X177038000Y-103017000D01*
X177038000Y-102997000D01*
X175895085Y-102997000D01*
X175773096Y-103219039D01*
X170938684Y-103219039D01*
X171008113Y-102870000D01*
X170898880Y-102320849D01*
X170587811Y-101855302D01*
X170205725Y-101600000D01*
X170587811Y-101344698D01*
X170898880Y-100879151D01*
X171008113Y-100330000D01*
X170898880Y-99780849D01*
X170587811Y-99315302D01*
X170205725Y-99060000D01*
X170587811Y-98804698D01*
X170898880Y-98339151D01*
X171008113Y-97790000D01*
X170898880Y-97240849D01*
X170587811Y-96775302D01*
X170205725Y-96520000D01*
X170587811Y-96264698D01*
X170898880Y-95799151D01*
X171008113Y-95250000D01*
X170898880Y-94700849D01*
X170587811Y-94235302D01*
X170205725Y-93980000D01*
X170587811Y-93724698D01*
X170645911Y-93637745D01*
X172526861Y-93637745D01*
X172600995Y-93883864D01*
X173138223Y-94076965D01*
X173708454Y-94049778D01*
X174109005Y-93883864D01*
X174183139Y-93637745D01*
X173355000Y-92809605D01*
X172526861Y-93637745D01*
X170645911Y-93637745D01*
X170898880Y-93259151D01*
X171008113Y-92710000D01*
X170949081Y-92413223D01*
X171908035Y-92413223D01*
X171935222Y-92983454D01*
X172101136Y-93384005D01*
X172347255Y-93458139D01*
X173175395Y-92630000D01*
X173534605Y-92630000D01*
X174362745Y-93458139D01*
X174608864Y-93384005D01*
X174801965Y-92846777D01*
X174774778Y-92276546D01*
X174608864Y-91875995D01*
X174362745Y-91801861D01*
X173534605Y-92630000D01*
X173175395Y-92630000D01*
X172347255Y-91801861D01*
X172101136Y-91875995D01*
X171908035Y-92413223D01*
X170949081Y-92413223D01*
X170898880Y-92160849D01*
X170587811Y-91695302D01*
X170478489Y-91622255D01*
X172526861Y-91622255D01*
X173355000Y-92450395D01*
X174183139Y-91622255D01*
X174109005Y-91376136D01*
X173571777Y-91183035D01*
X173001546Y-91210222D01*
X172600995Y-91376136D01*
X172526861Y-91622255D01*
X170478489Y-91622255D01*
X170205725Y-91440000D01*
X170587811Y-91184698D01*
X170898880Y-90719151D01*
X171008113Y-90170000D01*
X175701887Y-90170000D01*
X175811120Y-90719151D01*
X176122189Y-91184698D01*
X176504275Y-91440000D01*
X176122189Y-91695302D01*
X175811120Y-92160849D01*
X175701887Y-92710000D01*
X175811120Y-93259151D01*
X176122189Y-93724698D01*
X176504275Y-93980000D01*
X176122189Y-94235302D01*
X175811120Y-94700849D01*
X175701887Y-95250000D01*
X175811120Y-95799151D01*
X176122189Y-96264698D01*
X176504275Y-96520000D01*
X176122189Y-96775302D01*
X175811120Y-97240849D01*
X175701887Y-97790000D01*
X175811120Y-98339151D01*
X176122189Y-98804698D01*
X176504275Y-99060000D01*
X176122189Y-99315302D01*
X175811120Y-99780849D01*
X175701887Y-100330000D01*
X175811120Y-100879151D01*
X176122189Y-101344698D01*
X176526703Y-101614986D01*
X176309866Y-101717611D01*
X175933959Y-102132577D01*
X175773096Y-102520961D01*
X175895085Y-102743000D01*
X177038000Y-102743000D01*
X177038000Y-102723000D01*
X177292000Y-102723000D01*
X177292000Y-102743000D01*
X178434915Y-102743000D01*
X178549136Y-102535100D01*
X178620167Y-102535162D01*
X178963943Y-102393117D01*
X179069954Y-102287290D01*
X179174673Y-102392192D01*
X179518201Y-102534838D01*
X179890167Y-102535162D01*
X180233943Y-102393117D01*
X180497192Y-102130327D01*
X180639838Y-101786799D01*
X180640162Y-101414833D01*
X180498117Y-101071057D01*
X180465000Y-101037882D01*
X180465000Y-98987463D01*
X180497192Y-98955327D01*
X180639838Y-98611799D01*
X180640162Y-98239833D01*
X180498117Y-97896057D01*
X180235327Y-97632808D01*
X179891799Y-97490162D01*
X179519833Y-97489838D01*
X179195000Y-97624056D01*
X179195000Y-95250000D01*
X183321887Y-95250000D01*
X183431120Y-95799151D01*
X183742189Y-96264698D01*
X184124275Y-96520000D01*
X183742189Y-96775302D01*
X183431120Y-97240849D01*
X183321887Y-97790000D01*
X183431120Y-98339151D01*
X183742189Y-98804698D01*
X184025000Y-98993667D01*
X184025000Y-99126333D01*
X183742189Y-99315302D01*
X183431120Y-99780849D01*
X183321887Y-100330000D01*
X183431120Y-100879151D01*
X183742189Y-101344698D01*
X184124275Y-101600000D01*
X183742189Y-101855302D01*
X183431120Y-102320849D01*
X183321887Y-102870000D01*
X183431120Y-103419151D01*
X183742189Y-103884698D01*
X184207736Y-104195767D01*
X184756887Y-104305000D01*
X184813113Y-104305000D01*
X185362264Y-104195767D01*
X185827811Y-103884698D01*
X186138880Y-103419151D01*
X186248113Y-102870000D01*
X186138880Y-102320849D01*
X185827811Y-101855302D01*
X185445725Y-101600000D01*
X185827811Y-101344698D01*
X186138880Y-100879151D01*
X186248113Y-100330000D01*
X186138880Y-99780849D01*
X185827811Y-99315302D01*
X185545000Y-99126333D01*
X185545000Y-98993667D01*
X185827811Y-98804698D01*
X186138880Y-98339151D01*
X186248113Y-97790000D01*
X186138880Y-97240849D01*
X185827811Y-96775302D01*
X185445725Y-96520000D01*
X185827811Y-96264698D01*
X186138880Y-95799151D01*
X186248113Y-95250000D01*
X186138880Y-94700849D01*
X185827811Y-94235302D01*
X185423297Y-93965014D01*
X185640134Y-93862389D01*
X186016041Y-93447423D01*
X186176904Y-93059039D01*
X186054915Y-92837000D01*
X184912000Y-92837000D01*
X184912000Y-92857000D01*
X184658000Y-92857000D01*
X184658000Y-92837000D01*
X183515085Y-92837000D01*
X183393096Y-93059039D01*
X183553959Y-93447423D01*
X183929866Y-93862389D01*
X184146703Y-93965014D01*
X183742189Y-94235302D01*
X183431120Y-94700849D01*
X183321887Y-95250000D01*
X179195000Y-95250000D01*
X179195000Y-91440000D01*
X179157037Y-91249147D01*
X179137148Y-91149160D01*
X178972401Y-90902599D01*
X178588841Y-90519039D01*
X183393096Y-90519039D01*
X183553959Y-90907423D01*
X183929866Y-91322389D01*
X184178367Y-91440000D01*
X183929866Y-91557611D01*
X183553959Y-91972577D01*
X183393096Y-92360961D01*
X183515085Y-92583000D01*
X184658000Y-92583000D01*
X184658000Y-90297000D01*
X184912000Y-90297000D01*
X184912000Y-92583000D01*
X186054915Y-92583000D01*
X186148191Y-92413223D01*
X187148035Y-92413223D01*
X187175222Y-92983454D01*
X187341136Y-93384005D01*
X187587255Y-93458139D01*
X188415395Y-92630000D01*
X187587255Y-91801861D01*
X187341136Y-91875995D01*
X187148035Y-92413223D01*
X186148191Y-92413223D01*
X186176904Y-92360961D01*
X186016041Y-91972577D01*
X185640134Y-91557611D01*
X185391633Y-91440000D01*
X185640134Y-91322389D01*
X186016041Y-90907423D01*
X186176904Y-90519039D01*
X186054915Y-90297000D01*
X184912000Y-90297000D01*
X184658000Y-90297000D01*
X183515085Y-90297000D01*
X183393096Y-90519039D01*
X178588841Y-90519039D01*
X178563688Y-90493886D01*
X178628113Y-90170000D01*
X178518880Y-89620849D01*
X178207811Y-89155302D01*
X178063535Y-89058899D01*
X178200317Y-89033162D01*
X178416441Y-88894090D01*
X178561431Y-88681890D01*
X178612440Y-88430000D01*
X178612440Y-87630000D01*
X183321887Y-87630000D01*
X183431120Y-88179151D01*
X183742189Y-88644698D01*
X184146703Y-88914986D01*
X183929866Y-89017611D01*
X183553959Y-89432577D01*
X183393096Y-89820961D01*
X183515085Y-90043000D01*
X184658000Y-90043000D01*
X184658000Y-90023000D01*
X184912000Y-90023000D01*
X184912000Y-90043000D01*
X186054915Y-90043000D01*
X186176904Y-89820961D01*
X186016041Y-89432577D01*
X185640134Y-89017611D01*
X185423297Y-88914986D01*
X185827811Y-88644698D01*
X186138880Y-88179151D01*
X186248113Y-87630000D01*
X186138880Y-87080849D01*
X185827811Y-86615302D01*
X185362264Y-86304233D01*
X184813113Y-86195000D01*
X184756887Y-86195000D01*
X184207736Y-86304233D01*
X183742189Y-86615302D01*
X183431120Y-87080849D01*
X183321887Y-87630000D01*
X178612440Y-87630000D01*
X178612440Y-86830000D01*
X178568162Y-86594683D01*
X178429090Y-86378559D01*
X178216890Y-86233569D01*
X177965000Y-86182560D01*
X176365000Y-86182560D01*
X176129683Y-86226838D01*
X175913559Y-86365910D01*
X175768569Y-86578110D01*
X175717560Y-86830000D01*
X175717560Y-88430000D01*
X175761838Y-88665317D01*
X175900910Y-88881441D01*
X176113110Y-89026431D01*
X176268089Y-89057815D01*
X176122189Y-89155302D01*
X175811120Y-89620849D01*
X175701887Y-90170000D01*
X171008113Y-90170000D01*
X170898880Y-89620849D01*
X170587811Y-89155302D01*
X170205725Y-88900000D01*
X170587811Y-88644698D01*
X170898880Y-88179151D01*
X170951584Y-87914187D01*
X171919752Y-87914187D01*
X172137757Y-88441800D01*
X172541077Y-88845824D01*
X173068309Y-89064750D01*
X173639187Y-89065248D01*
X174166800Y-88847243D01*
X174570824Y-88443923D01*
X174789750Y-87916691D01*
X174790248Y-87345813D01*
X174572243Y-86818200D01*
X174168923Y-86414176D01*
X173641691Y-86195250D01*
X173070813Y-86194752D01*
X172543200Y-86412757D01*
X172139176Y-86816077D01*
X171920250Y-87343309D01*
X171919752Y-87914187D01*
X170951584Y-87914187D01*
X171008113Y-87630000D01*
X170898880Y-87080849D01*
X170587811Y-86615302D01*
X170122264Y-86304233D01*
X169573113Y-86195000D01*
X169516887Y-86195000D01*
X168967736Y-86304233D01*
X168502189Y-86615302D01*
X168191120Y-87080849D01*
X168081887Y-87630000D01*
X168191120Y-88179151D01*
X168502189Y-88644698D01*
X168884275Y-88900000D01*
X168502189Y-89155302D01*
X168332005Y-89410000D01*
X168275000Y-89410000D01*
X167984161Y-89467852D01*
X167737599Y-89632599D01*
X167102599Y-90267599D01*
X166937852Y-90514161D01*
X166880000Y-90805000D01*
X166880000Y-91139890D01*
X166819833Y-91139838D01*
X166476057Y-91281883D01*
X166212808Y-91544673D01*
X166070162Y-91888201D01*
X166069838Y-92260167D01*
X163298636Y-92260167D01*
X163278880Y-92160849D01*
X162967811Y-91695302D01*
X162585725Y-91440000D01*
X162967811Y-91184698D01*
X163278880Y-90719151D01*
X163388113Y-90170000D01*
X163278880Y-89620849D01*
X162967811Y-89155302D01*
X162823535Y-89058899D01*
X162960317Y-89033162D01*
X163176441Y-88894090D01*
X163321431Y-88681890D01*
X163372440Y-88430000D01*
X163372440Y-86830000D01*
X163328162Y-86594683D01*
X163189090Y-86378559D01*
X162976890Y-86233569D01*
X162725000Y-86182560D01*
X161125000Y-86182560D01*
X160889683Y-86226838D01*
X160673559Y-86365910D01*
X160528569Y-86578110D01*
X160477560Y-86830000D01*
X160477560Y-88430000D01*
X160521838Y-88665317D01*
X160660910Y-88881441D01*
X160873110Y-89026431D01*
X161028089Y-89057815D01*
X160882189Y-89155302D01*
X160571120Y-89620849D01*
X160461887Y-90170000D01*
X160571120Y-90719151D01*
X160882189Y-91184698D01*
X161264275Y-91440000D01*
X160882189Y-91695302D01*
X160571120Y-92160849D01*
X160461887Y-92710000D01*
X160571120Y-93259151D01*
X160882189Y-93724698D01*
X161264275Y-93980000D01*
X160882189Y-94235302D01*
X160571120Y-94700849D01*
X160461887Y-95250000D01*
X160571120Y-95799151D01*
X160882189Y-96264698D01*
X161264275Y-96520000D01*
X160882189Y-96775302D01*
X160571120Y-97240849D01*
X160461887Y-97790000D01*
X160571120Y-98339151D01*
X160882189Y-98804698D01*
X161264275Y-99060000D01*
X160882189Y-99315302D01*
X160571120Y-99780849D01*
X160523141Y-100022057D01*
X160117599Y-100427599D01*
X159952852Y-100674161D01*
X159895000Y-100965000D01*
X159895000Y-105730198D01*
X159880320Y-105744878D01*
X159834833Y-105744838D01*
X159491057Y-105886883D01*
X159227808Y-106149673D01*
X159085162Y-106493201D01*
X159084838Y-106865167D01*
X155874839Y-106865167D01*
X155875162Y-106494833D01*
X155733117Y-106151057D01*
X155627290Y-106045046D01*
X155732192Y-105940327D01*
X155874838Y-105596799D01*
X155875162Y-105224833D01*
X155733117Y-104881057D01*
X155470327Y-104617808D01*
X155206446Y-104508235D01*
X155098117Y-104246057D01*
X154835327Y-103982808D01*
X154491799Y-103840162D01*
X154119833Y-103839838D01*
X153776057Y-103981883D01*
X153742882Y-104015000D01*
X152702050Y-104015000D01*
X152844147Y-103920054D01*
X153065854Y-103588245D01*
X153139673Y-103662192D01*
X153483201Y-103804838D01*
X153855167Y-103805162D01*
X154198943Y-103663117D01*
X154462192Y-103400327D01*
X154571765Y-103136446D01*
X154833943Y-103028117D01*
X155097192Y-102765327D01*
X155239838Y-102421799D01*
X155240162Y-102049833D01*
X155098117Y-101706057D01*
X155065000Y-101672882D01*
X155065000Y-100257463D01*
X155097192Y-100225327D01*
X155239838Y-99881799D01*
X155240162Y-99509833D01*
X155170568Y-99341403D01*
X155468943Y-99218117D01*
X155732192Y-98955327D01*
X155874838Y-98611799D01*
X155875162Y-98239833D01*
X155733117Y-97896057D01*
X155470327Y-97632808D01*
X155126799Y-97490162D01*
X154754833Y-97489838D01*
X154411057Y-97631883D01*
X154377882Y-97665000D01*
X154305000Y-97665000D01*
X154014161Y-97722852D01*
X153767599Y-97887599D01*
X153262440Y-98392758D01*
X153262440Y-96940000D01*
X153218162Y-96704683D01*
X153079090Y-96488559D01*
X152866890Y-96343569D01*
X152615000Y-96292560D01*
X150915000Y-96292560D01*
X150679683Y-96336838D01*
X150492923Y-96457015D01*
X150326890Y-96343569D01*
X150075000Y-96292560D01*
X148375000Y-96292560D01*
X148139683Y-96336838D01*
X147952923Y-96457015D01*
X147786890Y-96343569D01*
X147535000Y-96292560D01*
X145835000Y-96292560D01*
X145599683Y-96336838D01*
X145383559Y-96475910D01*
X145238569Y-96688110D01*
X145187560Y-96940000D01*
X145187560Y-98212638D01*
X144903659Y-98496539D01*
X144675327Y-98267808D01*
X144331799Y-98125162D01*
X143959833Y-98124838D01*
X143616057Y-98266883D01*
X143352808Y-98529673D01*
X143210162Y-98873201D01*
X143209838Y-99245167D01*
X143351883Y-99588943D01*
X143385000Y-99622118D01*
X143385000Y-102942537D01*
X143352808Y-102974673D01*
X143210162Y-103318201D01*
X143209838Y-103690167D01*
X143279432Y-103858597D01*
X142981057Y-103981883D01*
X142717808Y-104244673D01*
X142575162Y-104588201D01*
X142574838Y-104960167D01*
X129839839Y-104960167D01*
X129840162Y-104589833D01*
X129698117Y-104246057D01*
X129665000Y-104212882D01*
X129665000Y-103432463D01*
X129697192Y-103400327D01*
X129839838Y-103056799D01*
X129840162Y-102684833D01*
X129698117Y-102341057D01*
X129435327Y-102077808D01*
X129171446Y-101968235D01*
X129063117Y-101706057D01*
X128800327Y-101442808D01*
X128456799Y-101300162D01*
X128084833Y-101299838D01*
X127741057Y-101441883D01*
X127477808Y-101704673D01*
X127335162Y-102048201D01*
X127334838Y-102420167D01*
X121410000Y-102420167D01*
X121410000Y-97082463D01*
X121442192Y-97050327D01*
X121584838Y-96706799D01*
X121585162Y-96334833D01*
X121443117Y-95991057D01*
X121180327Y-95727808D01*
X120836799Y-95585162D01*
X120464833Y-95584838D01*
X120121057Y-95726883D01*
X119857808Y-95989673D01*
X119715162Y-96333201D01*
X119714838Y-96705167D01*
X119856883Y-97048943D01*
X119890000Y-97082118D01*
X119890000Y-111033332D01*
X119380000Y-110931887D01*
X118870000Y-111033332D01*
X118870000Y-96834802D01*
X118884680Y-96820122D01*
X118930167Y-96820162D01*
X119273943Y-96678117D01*
X119537192Y-96415327D01*
X119679838Y-96071799D01*
X119680162Y-95699833D01*
X119538117Y-95356057D01*
X119275327Y-95092808D01*
X118931799Y-94950162D01*
X118559833Y-94949838D01*
X118391403Y-95019432D01*
X118268117Y-94721057D01*
X118005327Y-94457808D01*
X117661799Y-94315162D01*
X117289833Y-94314838D01*
X116946057Y-94456883D01*
X116912882Y-94490000D01*
X116205000Y-94490000D01*
X116113556Y-94508190D01*
X116272148Y-94270839D01*
X116330000Y-93980000D01*
X116330000Y-91442954D01*
X116620054Y-91249147D01*
X116847702Y-90908447D01*
X116914817Y-91051358D01*
X117343076Y-91441645D01*
X117753110Y-91611476D01*
X117983000Y-91490155D01*
X117983000Y-90297000D01*
X118237000Y-90297000D01*
X118237000Y-91490155D01*
X118466890Y-91611476D01*
X118579423Y-91564866D01*
X118445162Y-91888201D01*
X118444838Y-92260167D01*
X118586883Y-92603943D01*
X118849673Y-92867192D01*
X119193201Y-93009838D01*
X119240077Y-93009879D01*
X119477599Y-93247401D01*
X119724161Y-93412148D01*
X120015000Y-93470000D01*
X121357537Y-93470000D01*
X121389673Y-93502192D01*
X121733201Y-93644838D01*
X122105167Y-93645162D01*
X122448943Y-93503117D01*
X122712192Y-93240327D01*
X122854838Y-92896799D01*
X122855162Y-92524833D01*
X122713117Y-92181057D01*
X122450327Y-91917808D01*
X122106799Y-91775162D01*
X121734833Y-91774838D01*
X121391057Y-91916883D01*
X121357882Y-91950000D01*
X120329802Y-91950000D01*
X120315122Y-91935320D01*
X120315162Y-91889833D01*
X120173117Y-91546057D01*
X120067245Y-91440000D01*
X123700000Y-91440000D01*
X123700000Y-93980000D01*
X123757852Y-94270839D01*
X123922599Y-94517401D01*
X124159878Y-94754680D01*
X124159838Y-94800167D01*
X124301883Y-95143943D01*
X124564673Y-95407192D01*
X124908201Y-95549838D01*
X125280167Y-95550162D01*
X125623943Y-95408117D01*
X125887192Y-95145327D01*
X126029838Y-94801799D01*
X126030162Y-94429833D01*
X125919914Y-94163011D01*
X126327378Y-94081961D01*
X126809147Y-93760054D01*
X127000000Y-93474422D01*
X127190853Y-93760054D01*
X127672622Y-94081961D01*
X128240907Y-94195000D01*
X128299093Y-94195000D01*
X128780000Y-94099342D01*
X128780000Y-94687537D01*
X128747808Y-94719673D01*
X128605162Y-95063201D01*
X128604838Y-95435167D01*
X128746883Y-95778943D01*
X129009673Y-96042192D01*
X129353201Y-96184838D01*
X129725167Y-96185162D01*
X130068943Y-96043117D01*
X130332192Y-95780327D01*
X130474838Y-95436799D01*
X130475162Y-95064833D01*
X130333117Y-94721057D01*
X130300000Y-94687882D01*
X130300000Y-94099342D01*
X130780907Y-94195000D01*
X130839093Y-94195000D01*
X131407378Y-94081961D01*
X131889147Y-93760054D01*
X132211054Y-93278285D01*
X132324093Y-92710000D01*
X132211054Y-92141715D01*
X131889147Y-91659946D01*
X131559974Y-91440000D01*
X131889147Y-91220054D01*
X132211054Y-90738285D01*
X132324093Y-90170000D01*
X132211054Y-89601715D01*
X132022819Y-89320000D01*
X143917560Y-89320000D01*
X143917560Y-91020000D01*
X143961838Y-91255317D01*
X144100910Y-91471441D01*
X144313110Y-91616431D01*
X144565000Y-91667440D01*
X146265000Y-91667440D01*
X146500317Y-91623162D01*
X146716441Y-91484090D01*
X146861431Y-91271890D01*
X146875086Y-91204459D01*
X146904946Y-91249147D01*
X147386715Y-91571054D01*
X147955000Y-91684093D01*
X148523285Y-91571054D01*
X149005054Y-91249147D01*
X149225000Y-90919974D01*
X149444946Y-91249147D01*
X149926715Y-91571054D01*
X150495000Y-91684093D01*
X151063285Y-91571054D01*
X151545054Y-91249147D01*
X151765000Y-90919974D01*
X151984946Y-91249147D01*
X152466715Y-91571054D01*
X153035000Y-91684093D01*
X153603285Y-91571054D01*
X154085054Y-91249147D01*
X154406961Y-90767378D01*
X154520000Y-90199093D01*
X154520000Y-90140907D01*
X154406961Y-89572622D01*
X154085054Y-89090853D01*
X153799422Y-88900000D01*
X154085054Y-88709147D01*
X154406961Y-88227378D01*
X154520000Y-87659093D01*
X154520000Y-87600907D01*
X154406961Y-87032622D01*
X154085054Y-86550853D01*
X153603285Y-86228946D01*
X153035000Y-86115907D01*
X152466715Y-86228946D01*
X151984946Y-86550853D01*
X151765000Y-86880026D01*
X151545054Y-86550853D01*
X151063285Y-86228946D01*
X150495000Y-86115907D01*
X149926715Y-86228946D01*
X149444946Y-86550853D01*
X149225000Y-86880026D01*
X149005054Y-86550853D01*
X148523285Y-86228946D01*
X147955000Y-86115907D01*
X147386715Y-86228946D01*
X146904946Y-86550853D01*
X146685000Y-86880026D01*
X146465054Y-86550853D01*
X145983285Y-86228946D01*
X145415000Y-86115907D01*
X144846715Y-86228946D01*
X144364946Y-86550853D01*
X144043039Y-87032622D01*
X143930000Y-87600907D01*
X143930000Y-87659093D01*
X144043039Y-88227378D01*
X144364946Y-88709147D01*
X144366179Y-88709971D01*
X144329683Y-88716838D01*
X144113559Y-88855910D01*
X143968569Y-89068110D01*
X143917560Y-89320000D01*
X132022819Y-89320000D01*
X131889147Y-89119946D01*
X131847548Y-89092150D01*
X131895317Y-89083162D01*
X132111441Y-88944090D01*
X132256431Y-88731890D01*
X132307440Y-88480000D01*
X132307440Y-86780000D01*
X132263162Y-86544683D01*
X132124090Y-86328559D01*
X131911890Y-86183569D01*
X131660000Y-86132560D01*
X129960000Y-86132560D01*
X129724683Y-86176838D01*
X129537923Y-86297015D01*
X129371890Y-86183569D01*
X129120000Y-86132560D01*
X127420000Y-86132560D01*
X127184683Y-86176838D01*
X126997923Y-86297015D01*
X126831890Y-86183569D01*
X126580000Y-86132560D01*
X124880000Y-86132560D01*
X124644683Y-86176838D01*
X124428559Y-86315910D01*
X124283569Y-86528110D01*
X124232560Y-86780000D01*
X124232560Y-88480000D01*
X124276838Y-88715317D01*
X124415910Y-88931441D01*
X124628110Y-89076431D01*
X124695541Y-89090086D01*
X124650853Y-89119946D01*
X124328946Y-89601715D01*
X124215907Y-90170000D01*
X124288790Y-90536408D01*
X123922599Y-90902599D01*
X123757852Y-91149161D01*
X123700000Y-91440000D01*
X120067245Y-91440000D01*
X119910327Y-91282808D01*
X119566799Y-91140162D01*
X119208082Y-91139850D01*
X119305183Y-91051358D01*
X119551486Y-90526892D01*
X119430819Y-90297000D01*
X118237000Y-90297000D01*
X117983000Y-90297000D01*
X117963000Y-90297000D01*
X117963000Y-90043000D01*
X117983000Y-90043000D01*
X117983000Y-90023000D01*
X118237000Y-90023000D01*
X118237000Y-90043000D01*
X119430819Y-90043000D01*
X119551486Y-89813108D01*
X119305183Y-89288642D01*
X118876924Y-88898355D01*
X118876899Y-88898345D01*
X119160054Y-88709147D01*
X119481961Y-88227378D01*
X119595000Y-87659093D01*
X119595000Y-87600907D01*
X119481961Y-87032622D01*
X119160054Y-86550853D01*
X118678285Y-86228946D01*
X118110000Y-86115907D01*
X117541715Y-86228946D01*
X117059946Y-86550853D01*
X116840000Y-86880026D01*
X116620054Y-86550853D01*
X116138285Y-86228946D01*
X115570000Y-86115907D01*
X115001715Y-86228946D01*
X114519946Y-86550853D01*
X114300000Y-86880026D01*
X114080054Y-86550853D01*
X113598285Y-86228946D01*
X113030000Y-86115907D01*
X112461715Y-86228946D01*
X111979946Y-86550853D01*
X111760000Y-86880026D01*
X111540054Y-86550853D01*
X111058285Y-86228946D01*
X110490000Y-86115907D01*
X109921715Y-86228946D01*
X109439946Y-86550853D01*
X109220000Y-86880026D01*
X109000054Y-86550853D01*
X108518285Y-86228946D01*
X107950000Y-86115907D01*
X107381715Y-86228946D01*
X106899946Y-86550853D01*
X106680000Y-86880026D01*
X106460054Y-86550853D01*
X105978285Y-86228946D01*
X105410000Y-86115907D01*
X104841715Y-86228946D01*
X104359946Y-86550853D01*
X104140000Y-86880026D01*
X103920054Y-86550853D01*
X103438285Y-86228946D01*
X102870000Y-86115907D01*
X102301715Y-86228946D01*
X101819946Y-86550853D01*
X101600000Y-86880026D01*
X101380054Y-86550853D01*
X100898285Y-86228946D01*
X100330000Y-86115907D01*
X99761715Y-86228946D01*
X99279946Y-86550853D01*
X99060000Y-86880026D01*
X98840054Y-86550853D01*
X98358285Y-86228946D01*
X97790000Y-86115907D01*
X97221715Y-86228946D01*
X96739946Y-86550853D01*
X96512298Y-86891553D01*
X96445183Y-86748642D01*
X96016924Y-86358355D01*
X95606890Y-86188524D01*
X95377000Y-86309845D01*
X95377000Y-87503000D01*
X95397000Y-87503000D01*
X95397000Y-87757000D01*
X95377000Y-87757000D01*
X95377000Y-90043000D01*
X95397000Y-90043000D01*
X95397000Y-90297000D01*
X95377000Y-90297000D01*
X95377000Y-91496250D01*
X95535750Y-91655000D01*
X96226310Y-91655000D01*
X96335834Y-91609634D01*
X96220162Y-91888201D01*
X96219838Y-92260167D01*
X96361883Y-92603943D01*
X96624673Y-92867192D01*
X96968201Y-93009838D01*
X97340167Y-93010162D01*
X97683943Y-92868117D01*
X97717118Y-92835000D01*
X104775000Y-92835000D01*
X104866444Y-92816810D01*
X104707852Y-93054161D01*
X104650000Y-93345000D01*
X104650000Y-111033332D01*
X104140000Y-110931887D01*
X103590849Y-111041120D01*
X103125302Y-111352189D01*
X102870000Y-111734275D01*
X102614698Y-111352189D01*
X102360000Y-111182005D01*
X102360000Y-103670633D01*
X102683201Y-103804838D01*
X103055167Y-103805162D01*
X103398943Y-103663117D01*
X103662192Y-103400327D01*
X103804838Y-103056799D01*
X103805162Y-102684833D01*
X103663117Y-102341057D01*
X103630000Y-102307882D01*
X103630000Y-99622463D01*
X103662192Y-99590327D01*
X103804838Y-99246799D01*
X103805162Y-98874833D01*
X103663117Y-98531057D01*
X103400327Y-98267808D01*
X103056799Y-98125162D01*
X102684833Y-98124838D01*
X102341057Y-98266883D01*
X102077808Y-98529673D01*
X101935162Y-98873201D01*
X101934838Y-99245167D01*
X102076883Y-99588943D01*
X102110000Y-99622118D01*
X102110000Y-101035198D01*
X101090000Y-100015198D01*
X101090000Y-98352463D01*
X101122192Y-98320327D01*
X101264838Y-97976799D01*
X101265162Y-97604833D01*
X101123117Y-97261057D01*
X100860327Y-96997808D01*
X100516799Y-96855162D01*
X100144833Y-96854838D01*
X99801057Y-96996883D01*
X99537808Y-97259673D01*
X99395162Y-97603201D01*
X99394838Y-97975167D01*
X99536883Y-98318943D01*
X99570000Y-98352118D01*
X99570000Y-100330000D01*
X99627852Y-100620839D01*
X99792599Y-100867401D01*
X100840000Y-101914802D01*
X100840000Y-111182005D01*
X100585302Y-111352189D01*
X100330000Y-111734275D01*
X100074698Y-111352189D01*
X99609151Y-111041120D01*
X99060000Y-110931887D01*
X98510849Y-111041120D01*
X98045302Y-111352189D01*
X97790000Y-111734275D01*
X97534698Y-111352189D01*
X97069151Y-111041120D01*
X96520000Y-110931887D01*
X95970849Y-111041120D01*
X95505302Y-111352189D01*
X95250000Y-111734275D01*
X94994698Y-111352189D01*
X94740000Y-111182005D01*
X94740000Y-109823646D01*
X94791800Y-109802243D01*
X95001663Y-109592745D01*
X98151861Y-109592745D01*
X98225995Y-109838864D01*
X98763223Y-110031965D01*
X99333454Y-110004778D01*
X99734005Y-109838864D01*
X99808139Y-109592745D01*
X98980000Y-108764605D01*
X98151861Y-109592745D01*
X95001663Y-109592745D01*
X95195824Y-109398923D01*
X95414750Y-108871691D01*
X95415189Y-108368223D01*
X97533035Y-108368223D01*
X97560222Y-108938454D01*
X97726136Y-109339005D01*
X97972255Y-109413139D01*
X98800395Y-108585000D01*
X99159605Y-108585000D01*
X99987745Y-109413139D01*
X100233864Y-109339005D01*
X100426965Y-108801777D01*
X100399778Y-108231546D01*
X100233864Y-107830995D01*
X99987745Y-107756861D01*
X99159605Y-108585000D01*
X98800395Y-108585000D01*
X97972255Y-107756861D01*
X97726136Y-107830995D01*
X97533035Y-108368223D01*
X95415189Y-108368223D01*
X95415248Y-108300813D01*
X95197243Y-107773200D01*
X95001640Y-107577255D01*
X98151861Y-107577255D01*
X98980000Y-108405395D01*
X99808139Y-107577255D01*
X99734005Y-107331136D01*
X99196777Y-107138035D01*
X98626546Y-107165222D01*
X98225995Y-107331136D01*
X98151861Y-107577255D01*
X95001640Y-107577255D01*
X94793923Y-107369176D01*
X94266691Y-107150250D01*
X93695813Y-107149752D01*
X93168200Y-107367757D01*
X92835000Y-107700376D01*
X92835000Y-90455750D01*
X93765000Y-90455750D01*
X93765000Y-91146309D01*
X93861673Y-91379698D01*
X94040301Y-91558327D01*
X94273690Y-91655000D01*
X94964250Y-91655000D01*
X95123000Y-91496250D01*
X95123000Y-90297000D01*
X93923750Y-90297000D01*
X93765000Y-90455750D01*
X92835000Y-90455750D01*
X92835000Y-89193691D01*
X93765000Y-89193691D01*
X93765000Y-89884250D01*
X93923750Y-90043000D01*
X95123000Y-90043000D01*
X95123000Y-87757000D01*
X93929181Y-87757000D01*
X93808514Y-87986892D01*
X94054817Y-88511358D01*
X94254208Y-88693070D01*
X94040301Y-88781673D01*
X93861673Y-88960302D01*
X93765000Y-89193691D01*
X92835000Y-89193691D01*
X92835000Y-88827463D01*
X92867192Y-88795327D01*
X93009838Y-88451799D01*
X93010162Y-88079833D01*
X92868117Y-87736057D01*
X92605327Y-87472808D01*
X92483182Y-87422089D01*
X92582727Y-87273108D01*
X93808514Y-87273108D01*
X93929181Y-87503000D01*
X95123000Y-87503000D01*
X95123000Y-86309845D01*
X94893110Y-86188524D01*
X94483076Y-86358355D01*
X94054817Y-86748642D01*
X93808514Y-87273108D01*
X92582727Y-87273108D01*
X93253791Y-86268791D01*
X94461001Y-85462161D01*
X95954931Y-85165000D01*
X141736421Y-85165000D01*
X141702599Y-85187599D01*
X141702599Y-85187599D01*
G37*
X141702599Y-85187599D02*
X141465320Y-85424878D01*
X141419833Y-85424838D01*
X141076057Y-85566883D01*
X140812808Y-85829673D01*
X140670162Y-86173201D01*
X140669838Y-86545167D01*
X140739432Y-86713597D01*
X140441057Y-86836883D01*
X140177808Y-87099673D01*
X140035162Y-87443201D01*
X140034838Y-87815167D01*
X140176883Y-88158943D01*
X140439673Y-88422192D01*
X140783201Y-88564838D01*
X141155167Y-88565162D01*
X141498943Y-88423117D01*
X141762192Y-88160327D01*
X141904838Y-87816799D01*
X141904879Y-87769923D01*
X141919802Y-87755000D01*
X142240000Y-87755000D01*
X142530839Y-87697148D01*
X142777401Y-87532401D01*
X143014680Y-87295122D01*
X143060167Y-87295162D01*
X143403943Y-87153117D01*
X143667192Y-86890327D01*
X143776765Y-86626446D01*
X144038943Y-86518117D01*
X144302192Y-86255327D01*
X144444838Y-85911799D01*
X144445162Y-85539833D01*
X144303117Y-85196057D01*
X144272114Y-85165000D01*
X185985069Y-85165000D01*
X187479001Y-85462161D01*
X188575747Y-86194983D01*
X188310813Y-86194752D01*
X187783200Y-86412757D01*
X187379176Y-86816077D01*
X187160250Y-87343309D01*
X187159752Y-87914187D01*
X187377757Y-88441800D01*
X187781077Y-88845824D01*
X188308309Y-89064750D01*
X188879187Y-89065248D01*
X188933149Y-89042951D01*
X189105000Y-89214802D01*
X189105000Y-91288431D01*
X188811777Y-91183035D01*
X188241546Y-91210222D01*
X187840995Y-91376136D01*
X187766861Y-91622255D01*
X188595000Y-92450395D01*
X188609142Y-92436252D01*
X188788748Y-92615858D01*
X188774605Y-92630000D01*
X188788748Y-92644143D01*
X188609142Y-92823748D01*
X188595000Y-92809605D01*
X187766861Y-93637745D01*
X187840995Y-93883864D01*
X188378223Y-94076965D01*
X188948454Y-94049778D01*
X189105000Y-93984934D01*
X189105000Y-109927537D01*
X189072808Y-109959673D01*
X188930162Y-110303201D01*
X188929838Y-110675167D01*
X189071883Y-111018943D01*
X189105000Y-111052118D01*
X189105000Y-111052976D01*
X188881691Y-110960250D01*
X188310813Y-110959752D01*
X187783200Y-111177757D01*
X187379176Y-111581077D01*
X187160250Y-112108309D01*
X187159752Y-112679187D01*
X187377757Y-113206800D01*
X187781077Y-113610824D01*
X188308309Y-113829750D01*
X188879187Y-113830248D01*
X188933149Y-113807951D01*
X189105000Y-113979802D01*
X189105000Y-116053431D01*
X188811777Y-115948035D01*
X188241546Y-115975222D01*
X187840995Y-116141136D01*
X187766861Y-116387255D01*
X188595000Y-117215395D01*
X188609142Y-117201252D01*
X188788748Y-117380858D01*
X188774605Y-117395000D01*
X188788748Y-117409143D01*
X188609142Y-117588748D01*
X188595000Y-117574605D01*
X187766861Y-118402745D01*
X187840995Y-118648864D01*
X188378223Y-118841965D01*
X188948454Y-118814778D01*
X189105000Y-118749934D01*
X189105000Y-122627537D01*
X189072808Y-122659673D01*
X188930162Y-123003201D01*
X188929838Y-123375167D01*
X189021729Y-123597560D01*
X187745000Y-123597560D01*
X187509683Y-123641838D01*
X187293559Y-123780910D01*
X187148569Y-123993110D01*
X187097560Y-124245000D01*
X187097560Y-125945000D01*
X187141838Y-126180317D01*
X187280910Y-126396441D01*
X187493110Y-126541431D01*
X187560541Y-126555086D01*
X187515853Y-126584946D01*
X187193946Y-127066715D01*
X187080907Y-127635000D01*
X187193946Y-128203285D01*
X187515853Y-128685054D01*
X187845026Y-128905000D01*
X187515853Y-129124946D01*
X187193946Y-129606715D01*
X187080907Y-130175000D01*
X187193946Y-130743285D01*
X187515853Y-131225054D01*
X187997622Y-131546961D01*
X188565907Y-131660000D01*
X188624093Y-131660000D01*
X189105000Y-131564342D01*
X189105000Y-136210198D01*
X188915198Y-136400000D01*
X164130110Y-136400000D01*
X164130162Y-136339833D01*
X163988117Y-135996057D01*
X163725327Y-135732808D01*
X163425668Y-135608378D01*
X163494838Y-135441799D01*
X163495162Y-135069833D01*
X163353117Y-134726057D01*
X163090327Y-134462808D01*
X162746799Y-134320162D01*
X162374833Y-134319838D01*
X162031057Y-134461883D01*
X161997882Y-134495000D01*
X161925000Y-134495000D01*
X161634161Y-134552852D01*
X161387599Y-134717599D01*
X161150320Y-134954878D01*
X161104833Y-134954838D01*
X160761057Y-135096883D01*
X160497808Y-135359673D01*
X160355162Y-135703201D01*
X160355108Y-135765000D01*
X151057463Y-135765000D01*
X151025327Y-135732808D01*
X150681799Y-135590162D01*
X150309833Y-135589838D01*
X149966057Y-135731883D01*
X149702808Y-135994673D01*
X149593235Y-136258554D01*
X149331057Y-136366883D01*
X149067808Y-136629673D01*
X148925162Y-136973201D01*
X148925139Y-137000003D01*
X148717000Y-137109845D01*
X148717000Y-138303000D01*
X148737000Y-138303000D01*
X148737000Y-138557000D01*
X148717000Y-138557000D01*
X148717000Y-138577000D01*
X148463000Y-138577000D01*
X148463000Y-138557000D01*
X148443000Y-138557000D01*
X148443000Y-138303000D01*
X148463000Y-138303000D01*
X148463000Y-137109845D01*
X148233110Y-136988524D01*
X147823076Y-137158355D01*
X147394817Y-137548642D01*
X147327702Y-137691553D01*
X147100054Y-137350853D01*
X146768245Y-137129146D01*
X146842192Y-137055327D01*
X146984838Y-136711799D01*
X146985162Y-136339833D01*
X146843117Y-135996057D01*
X146580327Y-135732808D01*
X146236799Y-135590162D01*
X145864833Y-135589838D01*
X145521057Y-135731883D01*
X145487882Y-135765000D01*
X141919802Y-135765000D01*
X141507401Y-135352599D01*
X141260839Y-135187852D01*
X140970000Y-135130000D01*
X132380110Y-135130000D01*
X132380162Y-135069833D01*
X132238117Y-134726057D01*
X131975327Y-134462808D01*
X131631799Y-134320162D01*
X131259833Y-134319838D01*
X130916057Y-134461883D01*
X130882882Y-134495000D01*
X129467463Y-134495000D01*
X129435327Y-134462808D01*
X129091799Y-134320162D01*
X128719833Y-134319838D01*
X128376057Y-134461883D01*
X128112808Y-134724673D01*
X127970162Y-135068201D01*
X127969838Y-135440167D01*
X128104056Y-135765000D01*
X104067463Y-135765000D01*
X104035327Y-135732808D01*
X103691799Y-135590162D01*
X103319833Y-135589838D01*
X102976057Y-135731883D01*
X102712808Y-135994673D01*
X102570162Y-136338201D01*
X102570108Y-136400000D01*
X93024802Y-136400000D01*
X92835000Y-136210198D01*
X92835000Y-128482801D01*
X92965302Y-128677811D01*
X93430849Y-128988880D01*
X93980000Y-129098113D01*
X94529151Y-128988880D01*
X94994698Y-128677811D01*
X95250000Y-128295725D01*
X95505302Y-128677811D01*
X95970849Y-128988880D01*
X96520000Y-129098113D01*
X97069151Y-128988880D01*
X97534698Y-128677811D01*
X97790000Y-128295725D01*
X98045302Y-128677811D01*
X98510849Y-128988880D01*
X99060000Y-129098113D01*
X99609151Y-128988880D01*
X100074698Y-128677811D01*
X100330000Y-128295725D01*
X100585302Y-128677811D01*
X101050849Y-128988880D01*
X101600000Y-129098113D01*
X102149151Y-128988880D01*
X102614698Y-128677811D01*
X102870000Y-128295725D01*
X103125302Y-128677811D01*
X103590849Y-128988880D01*
X103960879Y-129062484D01*
X103873235Y-129273554D01*
X103611057Y-129381883D01*
X103347808Y-129644673D01*
X103205162Y-129988201D01*
X103204838Y-130360167D01*
X103346883Y-130703943D01*
X103609673Y-130967192D01*
X103953201Y-131109838D01*
X104325167Y-131110162D01*
X104668943Y-130968117D01*
X104702118Y-130935000D01*
X125095000Y-130935000D01*
X125385839Y-130877148D01*
X125632401Y-130712401D01*
X126267401Y-130077401D01*
X126432148Y-129830839D01*
X126490000Y-129540000D01*
X126490000Y-128996668D01*
X127000000Y-129098113D01*
X127549151Y-128988880D01*
X128014698Y-128677811D01*
X128270000Y-128295725D01*
X128525302Y-128677811D01*
X128990849Y-128988880D01*
X129540000Y-129098113D01*
X130089151Y-128988880D01*
X130554698Y-128677811D01*
X130810000Y-128295725D01*
X131065302Y-128677811D01*
X131530849Y-128988880D01*
X132080000Y-129098113D01*
X132414889Y-129031499D01*
X132414838Y-129090167D01*
X132556883Y-129433943D01*
X132819673Y-129697192D01*
X133163201Y-129839838D01*
X133535167Y-129840162D01*
X133878943Y-129698117D01*
X134142192Y-129435327D01*
X134284838Y-129091799D01*
X134284891Y-129031456D01*
X134620000Y-129098113D01*
X134954889Y-129031499D01*
X134954838Y-129090167D01*
X135096883Y-129433943D01*
X135359673Y-129697192D01*
X135703201Y-129839838D01*
X136075167Y-129840162D01*
X136418943Y-129698117D01*
X136682192Y-129435327D01*
X136824838Y-129091799D01*
X136824891Y-129031456D01*
X137160000Y-129098113D01*
X137494889Y-129031499D01*
X137494838Y-129090167D01*
X137636883Y-129433943D01*
X137899673Y-129697192D01*
X138243201Y-129839838D01*
X138615167Y-129840162D01*
X138940000Y-129705944D01*
X138940000Y-132787537D01*
X138907808Y-132819673D01*
X138765162Y-133163201D01*
X138764838Y-133535167D01*
X138906883Y-133878943D01*
X139169673Y-134142192D01*
X139513201Y-134284838D01*
X139885167Y-134285162D01*
X140228943Y-134143117D01*
X140492192Y-133880327D01*
X140634838Y-133536799D01*
X140635162Y-133164833D01*
X140493117Y-132821057D01*
X140460000Y-132787882D01*
X140460000Y-129705633D01*
X140783201Y-129839838D01*
X141155167Y-129840162D01*
X141480000Y-129705944D01*
X141480000Y-132787537D01*
X141447808Y-132819673D01*
X141305162Y-133163201D01*
X141304838Y-133535167D01*
X141446883Y-133878943D01*
X141709673Y-134142192D01*
X142053201Y-134284838D01*
X142425167Y-134285162D01*
X142768943Y-134143117D01*
X143032192Y-133880327D01*
X143174838Y-133536799D01*
X143175162Y-133164833D01*
X143033117Y-132821057D01*
X143000000Y-132787882D01*
X143000000Y-130524039D01*
X160533096Y-130524039D01*
X160693959Y-130912423D01*
X161069866Y-131327389D01*
X161575959Y-131566914D01*
X161798000Y-131445629D01*
X161798000Y-130302000D01*
X160655085Y-130302000D01*
X160533096Y-130524039D01*
X143000000Y-130524039D01*
X143000000Y-128847995D01*
X143254698Y-128677811D01*
X143565767Y-128212264D01*
X143611163Y-127984039D01*
X145293096Y-127984039D01*
X145453959Y-128372423D01*
X145829866Y-128787389D01*
X146335959Y-129026914D01*
X146558000Y-128905629D01*
X146558000Y-127762000D01*
X146812000Y-127762000D01*
X146812000Y-128905629D01*
X147034041Y-129026914D01*
X147540134Y-128787389D01*
X147916041Y-128372423D01*
X148076904Y-127984039D01*
X147954915Y-127762000D01*
X146812000Y-127762000D01*
X146558000Y-127762000D01*
X145415085Y-127762000D01*
X145293096Y-127984039D01*
X143611163Y-127984039D01*
X143675000Y-127663113D01*
X143675000Y-127606887D01*
X143565767Y-127057736D01*
X143254698Y-126592189D01*
X142789151Y-126281120D01*
X142240000Y-126171887D01*
X141753933Y-126268572D01*
X141762192Y-126260327D01*
X141904838Y-125916799D01*
X141905162Y-125544833D01*
X141763117Y-125201057D01*
X141500327Y-124937808D01*
X141156799Y-124795162D01*
X140784833Y-124794838D01*
X140441057Y-124936883D01*
X140177808Y-125199673D01*
X140035162Y-125543201D01*
X140034838Y-125915167D01*
X140176883Y-126258943D01*
X140186601Y-126268678D01*
X139700000Y-126171887D01*
X139213933Y-126268572D01*
X139222192Y-126260327D01*
X139364838Y-125916799D01*
X139365162Y-125544833D01*
X139223117Y-125201057D01*
X138960327Y-124937808D01*
X138616799Y-124795162D01*
X138244833Y-124794838D01*
X137901057Y-124936883D01*
X137637808Y-125199673D01*
X137495162Y-125543201D01*
X137494838Y-125915167D01*
X137636883Y-126258943D01*
X137646601Y-126268678D01*
X137160000Y-126171887D01*
X136673933Y-126268572D01*
X136682192Y-126260327D01*
X136824838Y-125916799D01*
X136825162Y-125544833D01*
X136683117Y-125201057D01*
X136420327Y-124937808D01*
X136076799Y-124795162D01*
X135704833Y-124794838D01*
X135361057Y-124936883D01*
X135255046Y-125042710D01*
X135150327Y-124937808D01*
X134806799Y-124795162D01*
X134434833Y-124794838D01*
X134091057Y-124936883D01*
X133985046Y-125042710D01*
X133880327Y-124937808D01*
X133536799Y-124795162D01*
X133164833Y-124794838D01*
X132821057Y-124936883D01*
X132557808Y-125199673D01*
X132415162Y-125543201D01*
X132414838Y-125915167D01*
X132556883Y-126258943D01*
X132566601Y-126268678D01*
X132080000Y-126171887D01*
X131530849Y-126281120D01*
X131065302Y-126592189D01*
X130810000Y-126974275D01*
X130554698Y-126592189D01*
X130089151Y-126281120D01*
X129540000Y-126171887D01*
X128990849Y-126281120D01*
X128525302Y-126592189D01*
X128270000Y-126974275D01*
X128014698Y-126592189D01*
X127549151Y-126281120D01*
X127000000Y-126171887D01*
X126513933Y-126268572D01*
X126522192Y-126260327D01*
X126664838Y-125916799D01*
X126665162Y-125544833D01*
X126523117Y-125201057D01*
X126260327Y-124937808D01*
X125916799Y-124795162D01*
X125544833Y-124794838D01*
X125201057Y-124936883D01*
X124937808Y-125199673D01*
X124795162Y-125543201D01*
X124794838Y-125915167D01*
X124936883Y-126258943D01*
X124946601Y-126268678D01*
X124460000Y-126171887D01*
X123973933Y-126268572D01*
X123982192Y-126260327D01*
X124124838Y-125916799D01*
X124125162Y-125544833D01*
X123983117Y-125201057D01*
X123720327Y-124937808D01*
X123376799Y-124795162D01*
X123004833Y-124794838D01*
X122661057Y-124936883D01*
X122397808Y-125199673D01*
X122255162Y-125543201D01*
X122254838Y-125915167D01*
X122396883Y-126258943D01*
X122406601Y-126268678D01*
X121920000Y-126171887D01*
X121370849Y-126281120D01*
X120905302Y-126592189D01*
X120650000Y-126974275D01*
X120394698Y-126592189D01*
X119929151Y-126281120D01*
X119380000Y-126171887D01*
X118830849Y-126281120D01*
X118365302Y-126592189D01*
X118110000Y-126974275D01*
X117854698Y-126592189D01*
X117389151Y-126281120D01*
X116840000Y-126171887D01*
X116290849Y-126281120D01*
X115825302Y-126592189D01*
X115570000Y-126974275D01*
X115314698Y-126592189D01*
X114849151Y-126281120D01*
X114300000Y-126171887D01*
X113750849Y-126281120D01*
X113285302Y-126592189D01*
X113030000Y-126974275D01*
X112774698Y-126592189D01*
X112309151Y-126281120D01*
X111760000Y-126171887D01*
X111210849Y-126281120D01*
X110745302Y-126592189D01*
X110490000Y-126974275D01*
X110234698Y-126592189D01*
X109769151Y-126281120D01*
X109220000Y-126171887D01*
X108670849Y-126281120D01*
X108205302Y-126592189D01*
X107950000Y-126974275D01*
X107694698Y-126592189D01*
X107229151Y-126281120D01*
X106680000Y-126171887D01*
X106130849Y-126281120D01*
X105665302Y-126592189D01*
X105410000Y-126974275D01*
X105154698Y-126592189D01*
X104689151Y-126281120D01*
X104140000Y-126171887D01*
X103590849Y-126281120D01*
X103125302Y-126592189D01*
X102870000Y-126974275D01*
X102614698Y-126592189D01*
X102149151Y-126281120D01*
X101600000Y-126171887D01*
X101050849Y-126281120D01*
X100585302Y-126592189D01*
X100330000Y-126974275D01*
X100074698Y-126592189D01*
X99609151Y-126281120D01*
X99060000Y-126171887D01*
X98510849Y-126281120D01*
X98045302Y-126592189D01*
X97790000Y-126974275D01*
X97534698Y-126592189D01*
X97069151Y-126281120D01*
X96520000Y-126171887D01*
X95970849Y-126281120D01*
X95505302Y-126592189D01*
X95250000Y-126974275D01*
X94994698Y-126592189D01*
X94529151Y-126281120D01*
X93980000Y-126171887D01*
X93430849Y-126281120D01*
X92965302Y-126592189D01*
X92835000Y-126787199D01*
X92835000Y-113242801D01*
X92965302Y-113437811D01*
X93430849Y-113748880D01*
X93980000Y-113858113D01*
X94529151Y-113748880D01*
X94994698Y-113437811D01*
X95250000Y-113055725D01*
X95505302Y-113437811D01*
X95970849Y-113748880D01*
X96520000Y-113858113D01*
X97069151Y-113748880D01*
X97534698Y-113437811D01*
X97790000Y-113055725D01*
X98045302Y-113437811D01*
X98510849Y-113748880D01*
X99060000Y-113858113D01*
X99609151Y-113748880D01*
X100074698Y-113437811D01*
X100330000Y-113055725D01*
X100585302Y-113437811D01*
X101050849Y-113748880D01*
X101600000Y-113858113D01*
X102149151Y-113748880D01*
X102614698Y-113437811D01*
X102870000Y-113055725D01*
X103125302Y-113437811D01*
X103590849Y-113748880D01*
X104140000Y-113858113D01*
X104474889Y-113791499D01*
X104474838Y-113850167D01*
X104616883Y-114193943D01*
X104879673Y-114457192D01*
X105223201Y-114599838D01*
X105595167Y-114600162D01*
X105938943Y-114458117D01*
X106202192Y-114195327D01*
X106344838Y-113851799D01*
X106344891Y-113791456D01*
X106680000Y-113858113D01*
X107014889Y-113791499D01*
X107014838Y-113850167D01*
X107156883Y-114193943D01*
X107419673Y-114457192D01*
X107763201Y-114599838D01*
X108135167Y-114600162D01*
X108478943Y-114458117D01*
X108742192Y-114195327D01*
X108884838Y-113851799D01*
X108884891Y-113791456D01*
X109220000Y-113858113D01*
X109554889Y-113791499D01*
X109554838Y-113850167D01*
X109696883Y-114193943D01*
X109959673Y-114457192D01*
X110303201Y-114599838D01*
X110675167Y-114600162D01*
X111018943Y-114458117D01*
X111282192Y-114195327D01*
X111424838Y-113851799D01*
X111424891Y-113791456D01*
X111760000Y-113858113D01*
X112094889Y-113791499D01*
X112094838Y-113850167D01*
X112236883Y-114193943D01*
X112499673Y-114457192D01*
X112843201Y-114599838D01*
X113215167Y-114600162D01*
X113558943Y-114458117D01*
X113822192Y-114195327D01*
X113964838Y-113851799D01*
X113964891Y-113791456D01*
X114300000Y-113858113D01*
X114634889Y-113791499D01*
X114634838Y-113850167D01*
X114776883Y-114193943D01*
X115039673Y-114457192D01*
X115383201Y-114599838D01*
X115755167Y-114600162D01*
X116098943Y-114458117D01*
X116362192Y-114195327D01*
X116504838Y-113851799D01*
X116504891Y-113791456D01*
X116840000Y-113858113D01*
X117350000Y-113756668D01*
X117350000Y-114372537D01*
X117317808Y-114404673D01*
X117175162Y-114748201D01*
X117174838Y-115120167D01*
X117316883Y-115463943D01*
X117579673Y-115727192D01*
X117923201Y-115869838D01*
X118295167Y-115870162D01*
X118638943Y-115728117D01*
X118902192Y-115465327D01*
X119044838Y-115121799D01*
X119045000Y-114935000D01*
X145221887Y-114935000D01*
X145331120Y-115484151D01*
X145642189Y-115949698D01*
X146024275Y-116205000D01*
X145642189Y-116460302D01*
X145331120Y-116925849D01*
X145221887Y-117475000D01*
X145331120Y-118024151D01*
X145642189Y-118489698D01*
X146024275Y-118745000D01*
X145642189Y-119000302D01*
X145331120Y-119465849D01*
X145221887Y-120015000D01*
X145331120Y-120564151D01*
X145642189Y-121029698D01*
X146024275Y-121285000D01*
X145642189Y-121540302D01*
X145331120Y-122005849D01*
X145221887Y-122555000D01*
X145331120Y-123104151D01*
X145642189Y-123569698D01*
X146024275Y-123825000D01*
X145642189Y-124080302D01*
X145331120Y-124545849D01*
X145221887Y-125095000D01*
X145331120Y-125644151D01*
X145642189Y-126109698D01*
X146046703Y-126379986D01*
X145829866Y-126482611D01*
X145453959Y-126897577D01*
X145293096Y-127285961D01*
X145415085Y-127508000D01*
X146558000Y-127508000D01*
X146558000Y-127488000D01*
X146812000Y-127488000D01*
X146812000Y-127508000D01*
X147954915Y-127508000D01*
X148069136Y-127300100D01*
X148140167Y-127300162D01*
X148483943Y-127158117D01*
X148747192Y-126895327D01*
X148856765Y-126631446D01*
X149118943Y-126523117D01*
X149382192Y-126260327D01*
X149491765Y-125996446D01*
X149753943Y-125888117D01*
X150017192Y-125625327D01*
X150159838Y-125281799D01*
X150160162Y-124909833D01*
X150018117Y-124566057D01*
X149985000Y-124532882D01*
X149985000Y-120964802D01*
X150397401Y-120552401D01*
X150562148Y-120305839D01*
X150620000Y-120015000D01*
X150620000Y-113592463D01*
X150652192Y-113560327D01*
X150794838Y-113216799D01*
X150795162Y-112844833D01*
X150653117Y-112501057D01*
X150390327Y-112237808D01*
X150046799Y-112095162D01*
X149674833Y-112094838D01*
X149331057Y-112236883D01*
X149067808Y-112499673D01*
X148925162Y-112843201D01*
X148924838Y-113215167D01*
X148994432Y-113383597D01*
X148715000Y-113499056D01*
X148715000Y-113030000D01*
X148657148Y-112739161D01*
X148492401Y-112492599D01*
X148132440Y-112132638D01*
X148132440Y-111945167D01*
X151464838Y-111945167D01*
X151606883Y-112288943D01*
X151640000Y-112322118D01*
X151640000Y-116277537D01*
X151607808Y-116309673D01*
X151465162Y-116653201D01*
X151464838Y-117025167D01*
X151606883Y-117368943D01*
X151869673Y-117632192D01*
X152213201Y-117774838D01*
X152275000Y-117774892D01*
X152275000Y-127000000D01*
X152332852Y-127290839D01*
X152497599Y-127537401D01*
X152903141Y-127942943D01*
X152951120Y-128184151D01*
X153262189Y-128649698D01*
X153727736Y-128960767D01*
X154276887Y-129070000D01*
X154333113Y-129070000D01*
X154882264Y-128960767D01*
X155347811Y-128649698D01*
X155658880Y-128184151D01*
X155768113Y-127635000D01*
X155658880Y-127085849D01*
X155347811Y-126620302D01*
X154965725Y-126365000D01*
X155347811Y-126109698D01*
X155658880Y-125644151D01*
X155768113Y-125095000D01*
X155658880Y-124545849D01*
X155347811Y-124080302D01*
X154965725Y-123825000D01*
X155347811Y-123569698D01*
X155658880Y-123104151D01*
X155768113Y-122555000D01*
X155658880Y-122005849D01*
X155347811Y-121540302D01*
X155065000Y-121351333D01*
X155065000Y-121218667D01*
X155347811Y-121029698D01*
X155658880Y-120564151D01*
X155768113Y-120015000D01*
X155658880Y-119465849D01*
X155347811Y-119000302D01*
X154965725Y-118745000D01*
X155347811Y-118489698D01*
X155405911Y-118402745D01*
X157286861Y-118402745D01*
X157360995Y-118648864D01*
X157898223Y-118841965D01*
X158468454Y-118814778D01*
X158869005Y-118648864D01*
X158943139Y-118402745D01*
X158115000Y-117574605D01*
X157286861Y-118402745D01*
X155405911Y-118402745D01*
X155658880Y-118024151D01*
X155768113Y-117475000D01*
X155709081Y-117178223D01*
X156668035Y-117178223D01*
X156695222Y-117748454D01*
X156861136Y-118149005D01*
X157107255Y-118223139D01*
X157935395Y-117395000D01*
X158294605Y-117395000D01*
X159122745Y-118223139D01*
X159368864Y-118149005D01*
X159561965Y-117611777D01*
X159534778Y-117041546D01*
X159368864Y-116640995D01*
X159122745Y-116566861D01*
X158294605Y-117395000D01*
X157935395Y-117395000D01*
X157107255Y-116566861D01*
X156861136Y-116640995D01*
X156668035Y-117178223D01*
X155709081Y-117178223D01*
X155658880Y-116925849D01*
X155347811Y-116460302D01*
X155238489Y-116387255D01*
X157286861Y-116387255D01*
X158115000Y-117215395D01*
X158943139Y-116387255D01*
X158869005Y-116141136D01*
X158331777Y-115948035D01*
X157761546Y-115975222D01*
X157360995Y-116141136D01*
X157286861Y-116387255D01*
X155238489Y-116387255D01*
X154965725Y-116205000D01*
X155347811Y-115949698D01*
X155658880Y-115484151D01*
X155768113Y-114935000D01*
X160461887Y-114935000D01*
X160571120Y-115484151D01*
X160882189Y-115949698D01*
X161264275Y-116205000D01*
X160882189Y-116460302D01*
X160571120Y-116925849D01*
X160461887Y-117475000D01*
X160571120Y-118024151D01*
X160882189Y-118489698D01*
X161286703Y-118759986D01*
X161069866Y-118862611D01*
X160693959Y-119277577D01*
X160533096Y-119665961D01*
X160655085Y-119888000D01*
X161798000Y-119888000D01*
X161798000Y-119868000D01*
X162052000Y-119868000D01*
X162052000Y-119888000D01*
X162072000Y-119888000D01*
X162072000Y-120142000D01*
X162052000Y-120142000D01*
X162052000Y-120162000D01*
X161798000Y-120162000D01*
X161798000Y-120142000D01*
X160655085Y-120142000D01*
X160533096Y-120364039D01*
X160693959Y-120752423D01*
X161069866Y-121167389D01*
X161286703Y-121270014D01*
X160882189Y-121540302D01*
X160571120Y-122005849D01*
X160461887Y-122555000D01*
X160571120Y-123104151D01*
X160882189Y-123569698D01*
X161264275Y-123825000D01*
X160882189Y-124080302D01*
X160571120Y-124545849D01*
X160461887Y-125095000D01*
X160571120Y-125644151D01*
X160882189Y-126109698D01*
X161264275Y-126365000D01*
X160882189Y-126620302D01*
X160571120Y-127085849D01*
X160461887Y-127635000D01*
X160571120Y-128184151D01*
X160882189Y-128649698D01*
X161286703Y-128919986D01*
X161069866Y-129022611D01*
X160693959Y-129437577D01*
X160533096Y-129825961D01*
X160655085Y-130048000D01*
X161798000Y-130048000D01*
X161798000Y-130028000D01*
X162052000Y-130028000D01*
X162052000Y-130048000D01*
X162072000Y-130048000D01*
X162072000Y-130302000D01*
X162052000Y-130302000D01*
X162052000Y-131445629D01*
X162259900Y-131559190D01*
X162259838Y-131630167D01*
X162401883Y-131973943D01*
X162664673Y-132237192D01*
X163008201Y-132379838D01*
X163380167Y-132380162D01*
X163723943Y-132238117D01*
X163829954Y-132132290D01*
X163934673Y-132237192D01*
X164278201Y-132379838D01*
X164650167Y-132380162D01*
X164993943Y-132238117D01*
X165099954Y-132132290D01*
X165204673Y-132237192D01*
X165548201Y-132379838D01*
X165920167Y-132380162D01*
X166263943Y-132238117D01*
X166527192Y-131975327D01*
X166669838Y-131631799D01*
X166670162Y-131259833D01*
X166528117Y-130916057D01*
X166495000Y-130882882D01*
X166495000Y-122855110D01*
X166555167Y-122855162D01*
X166898943Y-122713117D01*
X167162192Y-122450327D01*
X167304838Y-122106799D01*
X167305162Y-121734833D01*
X167163117Y-121391057D01*
X167130000Y-121357882D01*
X167130000Y-117402463D01*
X167162192Y-117370327D01*
X167304838Y-117026799D01*
X167305162Y-116654833D01*
X167163117Y-116311057D01*
X166900327Y-116047808D01*
X166556799Y-115905162D01*
X166184833Y-115904838D01*
X165929570Y-116010310D01*
X166034838Y-115756799D01*
X166035162Y-115384833D01*
X165893117Y-115041057D01*
X165630327Y-114777808D01*
X165286799Y-114635162D01*
X165225000Y-114635108D01*
X165225000Y-113592463D01*
X165257192Y-113560327D01*
X165399838Y-113216799D01*
X165400162Y-112844833D01*
X165258117Y-112501057D01*
X165152245Y-112395000D01*
X168081887Y-112395000D01*
X168191120Y-112944151D01*
X168502189Y-113409698D01*
X168884275Y-113665000D01*
X168502189Y-113920302D01*
X168191120Y-114385849D01*
X168081887Y-114935000D01*
X168191120Y-115484151D01*
X168502189Y-115949698D01*
X168884275Y-116205000D01*
X168502189Y-116460302D01*
X168191120Y-116925849D01*
X168081887Y-117475000D01*
X168191120Y-118024151D01*
X168502189Y-118489698D01*
X168884275Y-118745000D01*
X168502189Y-119000302D01*
X168191120Y-119465849D01*
X168081887Y-120015000D01*
X168191120Y-120564151D01*
X168502189Y-121029698D01*
X168884275Y-121285000D01*
X168502189Y-121540302D01*
X168191120Y-122005849D01*
X168081887Y-122555000D01*
X168191120Y-123104151D01*
X168502189Y-123569698D01*
X168884275Y-123825000D01*
X168502189Y-124080302D01*
X168191120Y-124545849D01*
X168081887Y-125095000D01*
X168191120Y-125644151D01*
X168502189Y-126109698D01*
X168884275Y-126365000D01*
X168502189Y-126620302D01*
X168191120Y-127085849D01*
X168081887Y-127635000D01*
X168191120Y-128184151D01*
X168502189Y-128649698D01*
X168884275Y-128905000D01*
X168502189Y-129160302D01*
X168191120Y-129625849D01*
X168081887Y-130175000D01*
X168191120Y-130724151D01*
X168502189Y-131189698D01*
X168967736Y-131500767D01*
X169516887Y-131610000D01*
X169573113Y-131610000D01*
X170122264Y-131500767D01*
X170587811Y-131189698D01*
X170898880Y-130724151D01*
X170903106Y-130702908D01*
X170912599Y-130712401D01*
X171159161Y-130877148D01*
X171450000Y-130935000D01*
X172082046Y-130935000D01*
X172275853Y-131225054D01*
X172757622Y-131546961D01*
X173325907Y-131660000D01*
X173384093Y-131660000D01*
X173952378Y-131546961D01*
X174434147Y-131225054D01*
X174756054Y-130743285D01*
X174799664Y-130524039D01*
X175773096Y-130524039D01*
X175933959Y-130912423D01*
X176309866Y-131327389D01*
X176815959Y-131566914D01*
X177038000Y-131445629D01*
X177038000Y-130302000D01*
X175895085Y-130302000D01*
X175773096Y-130524039D01*
X174799664Y-130524039D01*
X174869093Y-130175000D01*
X174756054Y-129606715D01*
X174434147Y-129124946D01*
X174104974Y-128905000D01*
X174434147Y-128685054D01*
X174756054Y-128203285D01*
X174869093Y-127635000D01*
X174756054Y-127066715D01*
X174434147Y-126584946D01*
X174104974Y-126365000D01*
X174434147Y-126145054D01*
X174756054Y-125663285D01*
X174869093Y-125095000D01*
X174756054Y-124526715D01*
X174434147Y-124044946D01*
X174392548Y-124017150D01*
X174440317Y-124008162D01*
X174656441Y-123869090D01*
X174801431Y-123656890D01*
X174852440Y-123405000D01*
X174852440Y-121705000D01*
X174808162Y-121469683D01*
X174669090Y-121253559D01*
X174456890Y-121108569D01*
X174205000Y-121057560D01*
X172932362Y-121057560D01*
X172238841Y-120364039D01*
X175773096Y-120364039D01*
X175933959Y-120752423D01*
X176309866Y-121167389D01*
X176558367Y-121285000D01*
X176309866Y-121402611D01*
X175933959Y-121817577D01*
X175773096Y-122205961D01*
X175895085Y-122428000D01*
X177038000Y-122428000D01*
X177038000Y-120142000D01*
X175895085Y-120142000D01*
X175773096Y-120364039D01*
X172238841Y-120364039D01*
X171575000Y-119700198D01*
X171575000Y-118745000D01*
X171517148Y-118454161D01*
X171517148Y-118454160D01*
X171482794Y-118402745D01*
X172526861Y-118402745D01*
X172600995Y-118648864D01*
X173138223Y-118841965D01*
X173708454Y-118814778D01*
X174109005Y-118648864D01*
X174183139Y-118402745D01*
X173355000Y-117574605D01*
X172526861Y-118402745D01*
X171482794Y-118402745D01*
X171352401Y-118207599D01*
X170943688Y-117798886D01*
X171008113Y-117475000D01*
X170949081Y-117178223D01*
X171908035Y-117178223D01*
X171935222Y-117748454D01*
X172101136Y-118149005D01*
X172347255Y-118223139D01*
X173175395Y-117395000D01*
X173534605Y-117395000D01*
X174362745Y-118223139D01*
X174608864Y-118149005D01*
X174801965Y-117611777D01*
X174774778Y-117041546D01*
X174608864Y-116640995D01*
X174362745Y-116566861D01*
X173534605Y-117395000D01*
X173175395Y-117395000D01*
X172347255Y-116566861D01*
X172101136Y-116640995D01*
X171908035Y-117178223D01*
X170949081Y-117178223D01*
X170898880Y-116925849D01*
X170587811Y-116460302D01*
X170478489Y-116387255D01*
X172526861Y-116387255D01*
X173355000Y-117215395D01*
X174183139Y-116387255D01*
X174109005Y-116141136D01*
X173571777Y-115948035D01*
X173001546Y-115975222D01*
X172600995Y-116141136D01*
X172526861Y-116387255D01*
X170478489Y-116387255D01*
X170205725Y-116205000D01*
X170587811Y-115949698D01*
X170898880Y-115484151D01*
X171008113Y-114935000D01*
X175701887Y-114935000D01*
X175811120Y-115484151D01*
X176122189Y-115949698D01*
X176504275Y-116205000D01*
X176122189Y-116460302D01*
X175811120Y-116925849D01*
X175701887Y-117475000D01*
X175811120Y-118024151D01*
X176122189Y-118489698D01*
X176526703Y-118759986D01*
X176309866Y-118862611D01*
X175933959Y-119277577D01*
X175773096Y-119665961D01*
X175895085Y-119888000D01*
X177038000Y-119888000D01*
X177038000Y-119868000D01*
X177292000Y-119868000D01*
X177292000Y-119888000D01*
X177312000Y-119888000D01*
X177312000Y-120142000D01*
X177292000Y-120142000D01*
X177292000Y-122428000D01*
X177312000Y-122428000D01*
X177312000Y-122682000D01*
X177292000Y-122682000D01*
X177292000Y-122702000D01*
X177038000Y-122702000D01*
X177038000Y-122682000D01*
X175895085Y-122682000D01*
X175773096Y-122904039D01*
X175933959Y-123292423D01*
X176309866Y-123707389D01*
X176526703Y-123810014D01*
X176122189Y-124080302D01*
X175811120Y-124545849D01*
X175701887Y-125095000D01*
X175811120Y-125644151D01*
X176122189Y-126109698D01*
X176504275Y-126365000D01*
X176122189Y-126620302D01*
X175811120Y-127085849D01*
X175701887Y-127635000D01*
X175811120Y-128184151D01*
X176122189Y-128649698D01*
X176526703Y-128919986D01*
X176309866Y-129022611D01*
X175933959Y-129437577D01*
X175773096Y-129825961D01*
X175895085Y-130048000D01*
X177038000Y-130048000D01*
X177038000Y-130028000D01*
X177292000Y-130028000D01*
X177292000Y-130048000D01*
X177312000Y-130048000D01*
X177312000Y-130302000D01*
X177292000Y-130302000D01*
X177292000Y-131445629D01*
X177514041Y-131566914D01*
X177675000Y-131490735D01*
X177675000Y-131517537D01*
X177642808Y-131549673D01*
X177500162Y-131893201D01*
X177499838Y-132265167D01*
X177641883Y-132608943D01*
X177904673Y-132872192D01*
X178248201Y-133014838D01*
X178620167Y-133015162D01*
X178963943Y-132873117D01*
X179069954Y-132767290D01*
X179174673Y-132872192D01*
X179518201Y-133014838D01*
X179890167Y-133015162D01*
X180233943Y-132873117D01*
X180497192Y-132610327D01*
X180639838Y-132266799D01*
X180640162Y-131894833D01*
X180498117Y-131551057D01*
X180465000Y-131517882D01*
X180465000Y-125895633D01*
X180788201Y-126029838D01*
X181160167Y-126030162D01*
X181503943Y-125888117D01*
X181767192Y-125625327D01*
X181909838Y-125281799D01*
X181910162Y-124909833D01*
X181768117Y-124566057D01*
X181735000Y-124532882D01*
X181735000Y-117640633D01*
X182058201Y-117774838D01*
X182120000Y-117774892D01*
X182120000Y-118817537D01*
X182087808Y-118849673D01*
X181945162Y-119193201D01*
X181944838Y-119565167D01*
X182086883Y-119908943D01*
X182349673Y-120172192D01*
X182693201Y-120314838D01*
X182755000Y-120314892D01*
X182755000Y-121920000D01*
X182812852Y-122210839D01*
X182977599Y-122457401D01*
X183383141Y-122862943D01*
X183431120Y-123104151D01*
X183742189Y-123569698D01*
X184124275Y-123825000D01*
X183742189Y-124080302D01*
X183431120Y-124545849D01*
X183321887Y-125095000D01*
X183431120Y-125644151D01*
X183742189Y-126109698D01*
X184124275Y-126365000D01*
X183742189Y-126620302D01*
X183431120Y-127085849D01*
X183321887Y-127635000D01*
X183431120Y-128184151D01*
X183742189Y-128649698D01*
X184124275Y-128905000D01*
X183742189Y-129160302D01*
X183431120Y-129625849D01*
X183321887Y-130175000D01*
X183431120Y-130724151D01*
X183742189Y-131189698D01*
X184207736Y-131500767D01*
X184756887Y-131610000D01*
X184813113Y-131610000D01*
X185362264Y-131500767D01*
X185827811Y-131189698D01*
X186138880Y-130724151D01*
X186248113Y-130175000D01*
X186138880Y-129625849D01*
X185827811Y-129160302D01*
X185445725Y-128905000D01*
X185827811Y-128649698D01*
X186138880Y-128184151D01*
X186248113Y-127635000D01*
X186138880Y-127085849D01*
X185827811Y-126620302D01*
X185445725Y-126365000D01*
X185827811Y-126109698D01*
X186138880Y-125644151D01*
X186248113Y-125095000D01*
X186138880Y-124545849D01*
X185827811Y-124080302D01*
X185445725Y-123825000D01*
X185827811Y-123569698D01*
X186138880Y-123104151D01*
X186248113Y-122555000D01*
X186138880Y-122005849D01*
X185827811Y-121540302D01*
X185445725Y-121285000D01*
X185827811Y-121029698D01*
X186138880Y-120564151D01*
X186248113Y-120015000D01*
X186138880Y-119465849D01*
X185827811Y-119000302D01*
X185445725Y-118745000D01*
X185827811Y-118489698D01*
X186138880Y-118024151D01*
X186248113Y-117475000D01*
X186189081Y-117178223D01*
X187148035Y-117178223D01*
X187175222Y-117748454D01*
X187341136Y-118149005D01*
X187587255Y-118223139D01*
X188415395Y-117395000D01*
X187587255Y-116566861D01*
X187341136Y-116640995D01*
X187148035Y-117178223D01*
X186189081Y-117178223D01*
X186138880Y-116925849D01*
X185827811Y-116460302D01*
X185445725Y-116205000D01*
X185827811Y-115949698D01*
X186138880Y-115484151D01*
X186248113Y-114935000D01*
X186138880Y-114385849D01*
X185827811Y-113920302D01*
X185445725Y-113665000D01*
X185827811Y-113409698D01*
X186138880Y-112944151D01*
X186248113Y-112395000D01*
X186138880Y-111845849D01*
X185827811Y-111380302D01*
X185362264Y-111069233D01*
X184813113Y-110960000D01*
X184756887Y-110960000D01*
X184275000Y-111055853D01*
X184275000Y-109782463D01*
X184307192Y-109750327D01*
X184449838Y-109406799D01*
X184450162Y-109034833D01*
X184308117Y-108691057D01*
X184045327Y-108427808D01*
X183781446Y-108318235D01*
X183673117Y-108056057D01*
X183410327Y-107792808D01*
X183066799Y-107650162D01*
X182694833Y-107649838D01*
X182351057Y-107791883D01*
X182087808Y-108054673D01*
X181978235Y-108318554D01*
X181716057Y-108426883D01*
X181452808Y-108689673D01*
X181310162Y-109033201D01*
X181309838Y-109405167D01*
X181451883Y-109748943D01*
X181485000Y-109782118D01*
X181485000Y-116275198D01*
X181100000Y-115890198D01*
X181100000Y-114300000D01*
X181042148Y-114009161D01*
X180877401Y-113762599D01*
X180465000Y-113350198D01*
X180465000Y-109782463D01*
X180497192Y-109750327D01*
X180639838Y-109406799D01*
X180640162Y-109034833D01*
X180498117Y-108691057D01*
X180235327Y-108427808D01*
X179971446Y-108318235D01*
X179863117Y-108056057D01*
X179600327Y-107792808D01*
X179256799Y-107650162D01*
X178884833Y-107649838D01*
X178541057Y-107791883D01*
X178277808Y-108054673D01*
X178135162Y-108398201D01*
X178134838Y-108770167D01*
X178276883Y-109113943D01*
X178310000Y-109147118D01*
X178310000Y-111062188D01*
X178216890Y-110998569D01*
X177965000Y-110947560D01*
X176365000Y-110947560D01*
X176129683Y-110991838D01*
X175913559Y-111130910D01*
X175768569Y-111343110D01*
X175717560Y-111595000D01*
X175717560Y-113195000D01*
X175761838Y-113430317D01*
X175900910Y-113646441D01*
X176113110Y-113791431D01*
X176268089Y-113822815D01*
X176122189Y-113920302D01*
X175811120Y-114385849D01*
X175701887Y-114935000D01*
X171008113Y-114935000D01*
X170898880Y-114385849D01*
X170587811Y-113920302D01*
X170205725Y-113665000D01*
X170587811Y-113409698D01*
X170898880Y-112944151D01*
X170951584Y-112679187D01*
X171919752Y-112679187D01*
X172137757Y-113206800D01*
X172541077Y-113610824D01*
X173068309Y-113829750D01*
X173639187Y-113830248D01*
X174166800Y-113612243D01*
X174570824Y-113208923D01*
X174789750Y-112681691D01*
X174790248Y-112110813D01*
X174572243Y-111583200D01*
X174168923Y-111179176D01*
X173641691Y-110960250D01*
X173070813Y-110959752D01*
X172543200Y-111177757D01*
X172139176Y-111581077D01*
X171920250Y-112108309D01*
X171919752Y-112679187D01*
X170951584Y-112679187D01*
X171008113Y-112395000D01*
X170898880Y-111845849D01*
X170587811Y-111380302D01*
X170122264Y-111069233D01*
X169573113Y-110960000D01*
X169516887Y-110960000D01*
X168967736Y-111069233D01*
X168502189Y-111380302D01*
X168191120Y-111845849D01*
X168081887Y-112395000D01*
X165152245Y-112395000D01*
X164995327Y-112237808D01*
X164651799Y-112095162D01*
X164279833Y-112094838D01*
X163955000Y-112229056D01*
X163955000Y-110169802D01*
X163969680Y-110155122D01*
X164015167Y-110155162D01*
X164358943Y-110013117D01*
X164622192Y-109750327D01*
X164764838Y-109406799D01*
X164765162Y-109034833D01*
X164623117Y-108691057D01*
X164360327Y-108427808D01*
X164016799Y-108285162D01*
X163644833Y-108284838D01*
X163301057Y-108426883D01*
X163037808Y-108689673D01*
X162895162Y-109033201D01*
X162895121Y-109080077D01*
X162657599Y-109317599D01*
X162492852Y-109564161D01*
X162435000Y-109855000D01*
X162435000Y-110947560D01*
X161125000Y-110947560D01*
X160889683Y-110991838D01*
X160673559Y-111130910D01*
X160528569Y-111343110D01*
X160477560Y-111595000D01*
X160477560Y-113195000D01*
X160521838Y-113430317D01*
X160660910Y-113646441D01*
X160873110Y-113791431D01*
X161028089Y-113822815D01*
X160882189Y-113920302D01*
X160571120Y-114385849D01*
X160461887Y-114935000D01*
X155768113Y-114935000D01*
X155658880Y-114385849D01*
X155347811Y-113920302D01*
X154965725Y-113665000D01*
X155347811Y-113409698D01*
X155658880Y-112944151D01*
X155711584Y-112679187D01*
X156679752Y-112679187D01*
X156897757Y-113206800D01*
X157301077Y-113610824D01*
X157828309Y-113829750D01*
X158399187Y-113830248D01*
X158926800Y-113612243D01*
X159330824Y-113208923D01*
X159549750Y-112681691D01*
X159550248Y-112110813D01*
X159332243Y-111583200D01*
X158928923Y-111179176D01*
X158401691Y-110960250D01*
X157830813Y-110959752D01*
X157303200Y-111177757D01*
X156899176Y-111581077D01*
X156680250Y-112108309D01*
X156679752Y-112679187D01*
X155711584Y-112679187D01*
X155768113Y-112395000D01*
X155658880Y-111845849D01*
X155347811Y-111380302D01*
X154882264Y-111069233D01*
X154333113Y-110960000D01*
X154276887Y-110960000D01*
X153970091Y-111021026D01*
X153970162Y-110939833D01*
X153828117Y-110596057D01*
X153565327Y-110332808D01*
X153221799Y-110190162D01*
X152849833Y-110189838D01*
X152506057Y-110331883D01*
X152242808Y-110594673D01*
X152133235Y-110858554D01*
X151871057Y-110966883D01*
X151607808Y-111229673D01*
X151465162Y-111573201D01*
X151464838Y-111945167D01*
X148132440Y-111945167D01*
X148132440Y-111595000D01*
X148088162Y-111359683D01*
X147949090Y-111143559D01*
X147736890Y-110998569D01*
X147485000Y-110947560D01*
X145885000Y-110947560D01*
X145649683Y-110991838D01*
X145433559Y-111130910D01*
X145288569Y-111343110D01*
X145237560Y-111595000D01*
X145237560Y-113195000D01*
X145281838Y-113430317D01*
X145420910Y-113646441D01*
X145633110Y-113791431D01*
X145788089Y-113822815D01*
X145642189Y-113920302D01*
X145331120Y-114385849D01*
X145221887Y-114935000D01*
X119045000Y-114935000D01*
X119045162Y-114749833D01*
X118903117Y-114406057D01*
X118870000Y-114372882D01*
X118870000Y-113756668D01*
X119380000Y-113858113D01*
X119714889Y-113791499D01*
X119714838Y-113850167D01*
X119856883Y-114193943D01*
X120119673Y-114457192D01*
X120463201Y-114599838D01*
X120835167Y-114600162D01*
X121178943Y-114458117D01*
X121442192Y-114195327D01*
X121584838Y-113851799D01*
X121584891Y-113791456D01*
X121920000Y-113858113D01*
X122254889Y-113791499D01*
X122254838Y-113850167D01*
X122396883Y-114193943D01*
X122659673Y-114457192D01*
X123003201Y-114599838D01*
X123375167Y-114600162D01*
X123718943Y-114458117D01*
X123982192Y-114195327D01*
X124124838Y-113851799D01*
X124124891Y-113791456D01*
X124460000Y-113858113D01*
X125009151Y-113748880D01*
X125474698Y-113437811D01*
X125730000Y-113055725D01*
X125985302Y-113437811D01*
X126450849Y-113748880D01*
X127000000Y-113858113D01*
X127549151Y-113748880D01*
X128014698Y-113437811D01*
X128270000Y-113055725D01*
X128525302Y-113437811D01*
X128990849Y-113748880D01*
X129540000Y-113858113D01*
X130089151Y-113748880D01*
X130554698Y-113437811D01*
X130810000Y-113055725D01*
X131065302Y-113437811D01*
X131530849Y-113748880D01*
X132080000Y-113858113D01*
X132629151Y-113748880D01*
X133094698Y-113437811D01*
X133350000Y-113055725D01*
X133605302Y-113437811D01*
X134070849Y-113748880D01*
X134620000Y-113858113D01*
X135169151Y-113748880D01*
X135634698Y-113437811D01*
X135890000Y-113055725D01*
X136145302Y-113437811D01*
X136610849Y-113748880D01*
X137160000Y-113858113D01*
X137709151Y-113748880D01*
X138174698Y-113437811D01*
X138430000Y-113055725D01*
X138685302Y-113437811D01*
X139150849Y-113748880D01*
X139700000Y-113858113D01*
X140249151Y-113748880D01*
X140714698Y-113437811D01*
X140805000Y-113302665D01*
X140805000Y-113321309D01*
X140901673Y-113554698D01*
X141080301Y-113733327D01*
X141313690Y-113830000D01*
X141954250Y-113830000D01*
X142113000Y-113671250D01*
X142113000Y-112522000D01*
X142367000Y-112522000D01*
X142367000Y-113671250D01*
X142525750Y-113830000D01*
X143166310Y-113830000D01*
X143399699Y-113733327D01*
X143578327Y-113554698D01*
X143675000Y-113321309D01*
X143675000Y-112680750D01*
X143516250Y-112522000D01*
X142367000Y-112522000D01*
X142113000Y-112522000D01*
X142093000Y-112522000D01*
X142093000Y-112268000D01*
X142113000Y-112268000D01*
X142113000Y-111118750D01*
X142367000Y-111118750D01*
X142367000Y-112268000D01*
X143516250Y-112268000D01*
X143675000Y-112109250D01*
X143675000Y-111468691D01*
X143578327Y-111235302D01*
X143399699Y-111056673D01*
X143166310Y-110960000D01*
X142525750Y-110960000D01*
X142367000Y-111118750D01*
X142113000Y-111118750D01*
X141954250Y-110960000D01*
X141313690Y-110960000D01*
X141080301Y-111056673D01*
X140901673Y-111235302D01*
X140805000Y-111468691D01*
X140805000Y-111487335D01*
X140714698Y-111352189D01*
X140249151Y-111041120D01*
X139700000Y-110931887D01*
X139150849Y-111041120D01*
X138685302Y-111352189D01*
X138430000Y-111734275D01*
X138174698Y-111352189D01*
X137709151Y-111041120D01*
X137160000Y-110931887D01*
X136610849Y-111041120D01*
X136145302Y-111352189D01*
X135890000Y-111734275D01*
X135634698Y-111352189D01*
X135169151Y-111041120D01*
X134620000Y-110931887D01*
X134070849Y-111041120D01*
X133605302Y-111352189D01*
X133350000Y-111734275D01*
X133094698Y-111352189D01*
X132629151Y-111041120D01*
X132080000Y-110931887D01*
X131530849Y-111041120D01*
X131065302Y-111352189D01*
X130810000Y-111734275D01*
X130554698Y-111352189D01*
X130089151Y-111041120D01*
X129540000Y-110931887D01*
X128990849Y-111041120D01*
X128525302Y-111352189D01*
X128270000Y-111734275D01*
X128014698Y-111352189D01*
X127549151Y-111041120D01*
X127000000Y-110931887D01*
X126450849Y-111041120D01*
X125985302Y-111352189D01*
X125730000Y-111734275D01*
X125474698Y-111352189D01*
X125009151Y-111041120D01*
X124460000Y-110931887D01*
X123973933Y-111028572D01*
X123982192Y-111020327D01*
X124124838Y-110676799D01*
X124125162Y-110304833D01*
X123983117Y-109961057D01*
X123720327Y-109697808D01*
X123376799Y-109555162D01*
X123004833Y-109554838D01*
X122661057Y-109696883D01*
X122397808Y-109959673D01*
X122255162Y-110303201D01*
X122254838Y-110675167D01*
X122396883Y-111018943D01*
X122406601Y-111028678D01*
X121920000Y-110931887D01*
X121410000Y-111033332D01*
X121410000Y-102420167D01*
X127334838Y-102420167D01*
X127476883Y-102763943D01*
X127510000Y-102797118D01*
X127510000Y-104847537D01*
X127477808Y-104879673D01*
X127335162Y-105223201D01*
X127334838Y-105595167D01*
X127476883Y-105938943D01*
X127739673Y-106202192D01*
X128083201Y-106344838D01*
X128455167Y-106345162D01*
X128798943Y-106203117D01*
X129062192Y-105940327D01*
X129171765Y-105676446D01*
X129433943Y-105568117D01*
X129697192Y-105305327D01*
X129839838Y-104961799D01*
X129839839Y-104960167D01*
X142574838Y-104960167D01*
X142716883Y-105303943D01*
X142822710Y-105409954D01*
X142717808Y-105514673D01*
X142575162Y-105858201D01*
X142574838Y-106230167D01*
X142716883Y-106573943D01*
X142979673Y-106837192D01*
X143323201Y-106979838D01*
X143370077Y-106979879D01*
X144242599Y-107852401D01*
X144489160Y-108017148D01*
X144780000Y-108075000D01*
X153742537Y-108075000D01*
X153774673Y-108107192D01*
X154118201Y-108249838D01*
X154490167Y-108250162D01*
X154833943Y-108108117D01*
X155097192Y-107845327D01*
X155206765Y-107581446D01*
X155468943Y-107473117D01*
X155732192Y-107210327D01*
X155874838Y-106866799D01*
X155874839Y-106865167D01*
X159084838Y-106865167D01*
X159226883Y-107208943D01*
X159489673Y-107472192D01*
X159833201Y-107614838D01*
X160205167Y-107615162D01*
X160548943Y-107473117D01*
X160812192Y-107210327D01*
X160954838Y-106866799D01*
X160954879Y-106819923D01*
X161192401Y-106582401D01*
X161357148Y-106335839D01*
X161415000Y-106045000D01*
X161415000Y-104185735D01*
X161575959Y-104261914D01*
X161798000Y-104140629D01*
X161798000Y-102997000D01*
X162052000Y-102997000D01*
X162052000Y-104140629D01*
X162274041Y-104261914D01*
X162780134Y-104022389D01*
X163156041Y-103607423D01*
X163316904Y-103219039D01*
X163194915Y-102997000D01*
X162052000Y-102997000D01*
X161798000Y-102997000D01*
X161778000Y-102997000D01*
X161778000Y-102743000D01*
X161798000Y-102743000D01*
X161798000Y-102723000D01*
X162052000Y-102723000D01*
X162052000Y-102743000D01*
X163194915Y-102743000D01*
X163316904Y-102520961D01*
X163156041Y-102132577D01*
X162780134Y-101717611D01*
X162563297Y-101614986D01*
X162967811Y-101344698D01*
X163278880Y-100879151D01*
X163388113Y-100330000D01*
X163278880Y-99780849D01*
X162967811Y-99315302D01*
X162585725Y-99060000D01*
X162967811Y-98804698D01*
X163278880Y-98339151D01*
X163388113Y-97790000D01*
X163278880Y-97240849D01*
X162967811Y-96775302D01*
X162585725Y-96520000D01*
X162967811Y-96264698D01*
X163278880Y-95799151D01*
X163388113Y-95250000D01*
X163278880Y-94700849D01*
X162967811Y-94235302D01*
X162585725Y-93980000D01*
X162967811Y-93724698D01*
X163278880Y-93259151D01*
X163388113Y-92710000D01*
X163298636Y-92260167D01*
X166069838Y-92260167D01*
X166211883Y-92603943D01*
X166245000Y-92637118D01*
X166245000Y-95322537D01*
X166212808Y-95354673D01*
X166070162Y-95698201D01*
X166069838Y-96070167D01*
X166211883Y-96413943D01*
X166474673Y-96677192D01*
X166818201Y-96819838D01*
X166880000Y-96819892D01*
X166880000Y-101672537D01*
X166847808Y-101704673D01*
X166705162Y-102048201D01*
X166704838Y-102420167D01*
X166846883Y-102763943D01*
X167109673Y-103027192D01*
X167453201Y-103169838D01*
X167515000Y-103169892D01*
X167515000Y-105730198D01*
X167500320Y-105744878D01*
X167454833Y-105744838D01*
X167111057Y-105886883D01*
X166847808Y-106149673D01*
X166705162Y-106493201D01*
X166704838Y-106865167D01*
X166846883Y-107208943D01*
X167109673Y-107472192D01*
X167453201Y-107614838D01*
X167825167Y-107615162D01*
X168168943Y-107473117D01*
X168432192Y-107210327D01*
X168574838Y-106866799D01*
X168574879Y-106819923D01*
X168812401Y-106582401D01*
X168977148Y-106335839D01*
X169035000Y-106045000D01*
X169035000Y-104209147D01*
X169516887Y-104305000D01*
X169573113Y-104305000D01*
X170122264Y-104195767D01*
X170587811Y-103884698D01*
X170898880Y-103419151D01*
X170938684Y-103219039D01*
X175773096Y-103219039D01*
X175933959Y-103607423D01*
X176309866Y-104022389D01*
X176815959Y-104261914D01*
X177037998Y-104140630D01*
X177037998Y-104214536D01*
X177007808Y-104244673D01*
X176898235Y-104508554D01*
X176636057Y-104616883D01*
X176372808Y-104879673D01*
X176230162Y-105223201D01*
X176229838Y-105595167D01*
X176371883Y-105938943D01*
X176634673Y-106202192D01*
X176898554Y-106311765D01*
X177006883Y-106573943D01*
X177269673Y-106837192D01*
X177613201Y-106979838D01*
X177985167Y-106980162D01*
X178328943Y-106838117D01*
X178362118Y-106805000D01*
X179777537Y-106805000D01*
X179809673Y-106837192D01*
X180153201Y-106979838D01*
X180525167Y-106980162D01*
X180868943Y-106838117D01*
X181132192Y-106575327D01*
X181241765Y-106311446D01*
X181503943Y-106203117D01*
X181767192Y-105940327D01*
X181909838Y-105596799D01*
X181910162Y-105224833D01*
X181768117Y-104881057D01*
X181505327Y-104617808D01*
X181241446Y-104508235D01*
X181133117Y-104246057D01*
X180870327Y-103982808D01*
X180526799Y-103840162D01*
X180154833Y-103839838D01*
X179811057Y-103981883D01*
X179777882Y-104015000D01*
X178362463Y-104015000D01*
X178330327Y-103982808D01*
X178130976Y-103900030D01*
X178396041Y-103607423D01*
X178556904Y-103219039D01*
X178434915Y-102997000D01*
X177292000Y-102997000D01*
X177292000Y-103017000D01*
X177038000Y-103017000D01*
X177038000Y-102997000D01*
X175895085Y-102997000D01*
X175773096Y-103219039D01*
X170938684Y-103219039D01*
X171008113Y-102870000D01*
X170898880Y-102320849D01*
X170587811Y-101855302D01*
X170205725Y-101600000D01*
X170587811Y-101344698D01*
X170898880Y-100879151D01*
X171008113Y-100330000D01*
X170898880Y-99780849D01*
X170587811Y-99315302D01*
X170205725Y-99060000D01*
X170587811Y-98804698D01*
X170898880Y-98339151D01*
X171008113Y-97790000D01*
X170898880Y-97240849D01*
X170587811Y-96775302D01*
X170205725Y-96520000D01*
X170587811Y-96264698D01*
X170898880Y-95799151D01*
X171008113Y-95250000D01*
X170898880Y-94700849D01*
X170587811Y-94235302D01*
X170205725Y-93980000D01*
X170587811Y-93724698D01*
X170645911Y-93637745D01*
X172526861Y-93637745D01*
X172600995Y-93883864D01*
X173138223Y-94076965D01*
X173708454Y-94049778D01*
X174109005Y-93883864D01*
X174183139Y-93637745D01*
X173355000Y-92809605D01*
X172526861Y-93637745D01*
X170645911Y-93637745D01*
X170898880Y-93259151D01*
X171008113Y-92710000D01*
X170949081Y-92413223D01*
X171908035Y-92413223D01*
X171935222Y-92983454D01*
X172101136Y-93384005D01*
X172347255Y-93458139D01*
X173175395Y-92630000D01*
X173534605Y-92630000D01*
X174362745Y-93458139D01*
X174608864Y-93384005D01*
X174801965Y-92846777D01*
X174774778Y-92276546D01*
X174608864Y-91875995D01*
X174362745Y-91801861D01*
X173534605Y-92630000D01*
X173175395Y-92630000D01*
X172347255Y-91801861D01*
X172101136Y-91875995D01*
X171908035Y-92413223D01*
X170949081Y-92413223D01*
X170898880Y-92160849D01*
X170587811Y-91695302D01*
X170478489Y-91622255D01*
X172526861Y-91622255D01*
X173355000Y-92450395D01*
X174183139Y-91622255D01*
X174109005Y-91376136D01*
X173571777Y-91183035D01*
X173001546Y-91210222D01*
X172600995Y-91376136D01*
X172526861Y-91622255D01*
X170478489Y-91622255D01*
X170205725Y-91440000D01*
X170587811Y-91184698D01*
X170898880Y-90719151D01*
X171008113Y-90170000D01*
X175701887Y-90170000D01*
X175811120Y-90719151D01*
X176122189Y-91184698D01*
X176504275Y-91440000D01*
X176122189Y-91695302D01*
X175811120Y-92160849D01*
X175701887Y-92710000D01*
X175811120Y-93259151D01*
X176122189Y-93724698D01*
X176504275Y-93980000D01*
X176122189Y-94235302D01*
X175811120Y-94700849D01*
X175701887Y-95250000D01*
X175811120Y-95799151D01*
X176122189Y-96264698D01*
X176504275Y-96520000D01*
X176122189Y-96775302D01*
X175811120Y-97240849D01*
X175701887Y-97790000D01*
X175811120Y-98339151D01*
X176122189Y-98804698D01*
X176504275Y-99060000D01*
X176122189Y-99315302D01*
X175811120Y-99780849D01*
X175701887Y-100330000D01*
X175811120Y-100879151D01*
X176122189Y-101344698D01*
X176526703Y-101614986D01*
X176309866Y-101717611D01*
X175933959Y-102132577D01*
X175773096Y-102520961D01*
X175895085Y-102743000D01*
X177038000Y-102743000D01*
X177038000Y-102723000D01*
X177292000Y-102723000D01*
X177292000Y-102743000D01*
X178434915Y-102743000D01*
X178549136Y-102535100D01*
X178620167Y-102535162D01*
X178963943Y-102393117D01*
X179069954Y-102287290D01*
X179174673Y-102392192D01*
X179518201Y-102534838D01*
X179890167Y-102535162D01*
X180233943Y-102393117D01*
X180497192Y-102130327D01*
X180639838Y-101786799D01*
X180640162Y-101414833D01*
X180498117Y-101071057D01*
X180465000Y-101037882D01*
X180465000Y-98987463D01*
X180497192Y-98955327D01*
X180639838Y-98611799D01*
X180640162Y-98239833D01*
X180498117Y-97896057D01*
X180235327Y-97632808D01*
X179891799Y-97490162D01*
X179519833Y-97489838D01*
X179195000Y-97624056D01*
X179195000Y-95250000D01*
X183321887Y-95250000D01*
X183431120Y-95799151D01*
X183742189Y-96264698D01*
X184124275Y-96520000D01*
X183742189Y-96775302D01*
X183431120Y-97240849D01*
X183321887Y-97790000D01*
X183431120Y-98339151D01*
X183742189Y-98804698D01*
X184025000Y-98993667D01*
X184025000Y-99126333D01*
X183742189Y-99315302D01*
X183431120Y-99780849D01*
X183321887Y-100330000D01*
X183431120Y-100879151D01*
X183742189Y-101344698D01*
X184124275Y-101600000D01*
X183742189Y-101855302D01*
X183431120Y-102320849D01*
X183321887Y-102870000D01*
X183431120Y-103419151D01*
X183742189Y-103884698D01*
X184207736Y-104195767D01*
X184756887Y-104305000D01*
X184813113Y-104305000D01*
X185362264Y-104195767D01*
X185827811Y-103884698D01*
X186138880Y-103419151D01*
X186248113Y-102870000D01*
X186138880Y-102320849D01*
X185827811Y-101855302D01*
X185445725Y-101600000D01*
X185827811Y-101344698D01*
X186138880Y-100879151D01*
X186248113Y-100330000D01*
X186138880Y-99780849D01*
X185827811Y-99315302D01*
X185545000Y-99126333D01*
X185545000Y-98993667D01*
X185827811Y-98804698D01*
X186138880Y-98339151D01*
X186248113Y-97790000D01*
X186138880Y-97240849D01*
X185827811Y-96775302D01*
X185445725Y-96520000D01*
X185827811Y-96264698D01*
X186138880Y-95799151D01*
X186248113Y-95250000D01*
X186138880Y-94700849D01*
X185827811Y-94235302D01*
X185423297Y-93965014D01*
X185640134Y-93862389D01*
X186016041Y-93447423D01*
X186176904Y-93059039D01*
X186054915Y-92837000D01*
X184912000Y-92837000D01*
X184912000Y-92857000D01*
X184658000Y-92857000D01*
X184658000Y-92837000D01*
X183515085Y-92837000D01*
X183393096Y-93059039D01*
X183553959Y-93447423D01*
X183929866Y-93862389D01*
X184146703Y-93965014D01*
X183742189Y-94235302D01*
X183431120Y-94700849D01*
X183321887Y-95250000D01*
X179195000Y-95250000D01*
X179195000Y-91440000D01*
X179157037Y-91249147D01*
X179137148Y-91149160D01*
X178972401Y-90902599D01*
X178588841Y-90519039D01*
X183393096Y-90519039D01*
X183553959Y-90907423D01*
X183929866Y-91322389D01*
X184178367Y-91440000D01*
X183929866Y-91557611D01*
X183553959Y-91972577D01*
X183393096Y-92360961D01*
X183515085Y-92583000D01*
X184658000Y-92583000D01*
X184658000Y-90297000D01*
X184912000Y-90297000D01*
X184912000Y-92583000D01*
X186054915Y-92583000D01*
X186148191Y-92413223D01*
X187148035Y-92413223D01*
X187175222Y-92983454D01*
X187341136Y-93384005D01*
X187587255Y-93458139D01*
X188415395Y-92630000D01*
X187587255Y-91801861D01*
X187341136Y-91875995D01*
X187148035Y-92413223D01*
X186148191Y-92413223D01*
X186176904Y-92360961D01*
X186016041Y-91972577D01*
X185640134Y-91557611D01*
X185391633Y-91440000D01*
X185640134Y-91322389D01*
X186016041Y-90907423D01*
X186176904Y-90519039D01*
X186054915Y-90297000D01*
X184912000Y-90297000D01*
X184658000Y-90297000D01*
X183515085Y-90297000D01*
X183393096Y-90519039D01*
X178588841Y-90519039D01*
X178563688Y-90493886D01*
X178628113Y-90170000D01*
X178518880Y-89620849D01*
X178207811Y-89155302D01*
X178063535Y-89058899D01*
X178200317Y-89033162D01*
X178416441Y-88894090D01*
X178561431Y-88681890D01*
X178612440Y-88430000D01*
X178612440Y-87630000D01*
X183321887Y-87630000D01*
X183431120Y-88179151D01*
X183742189Y-88644698D01*
X184146703Y-88914986D01*
X183929866Y-89017611D01*
X183553959Y-89432577D01*
X183393096Y-89820961D01*
X183515085Y-90043000D01*
X184658000Y-90043000D01*
X184658000Y-90023000D01*
X184912000Y-90023000D01*
X184912000Y-90043000D01*
X186054915Y-90043000D01*
X186176904Y-89820961D01*
X186016041Y-89432577D01*
X185640134Y-89017611D01*
X185423297Y-88914986D01*
X185827811Y-88644698D01*
X186138880Y-88179151D01*
X186248113Y-87630000D01*
X186138880Y-87080849D01*
X185827811Y-86615302D01*
X185362264Y-86304233D01*
X184813113Y-86195000D01*
X184756887Y-86195000D01*
X184207736Y-86304233D01*
X183742189Y-86615302D01*
X183431120Y-87080849D01*
X183321887Y-87630000D01*
X178612440Y-87630000D01*
X178612440Y-86830000D01*
X178568162Y-86594683D01*
X178429090Y-86378559D01*
X178216890Y-86233569D01*
X177965000Y-86182560D01*
X176365000Y-86182560D01*
X176129683Y-86226838D01*
X175913559Y-86365910D01*
X175768569Y-86578110D01*
X175717560Y-86830000D01*
X175717560Y-88430000D01*
X175761838Y-88665317D01*
X175900910Y-88881441D01*
X176113110Y-89026431D01*
X176268089Y-89057815D01*
X176122189Y-89155302D01*
X175811120Y-89620849D01*
X175701887Y-90170000D01*
X171008113Y-90170000D01*
X170898880Y-89620849D01*
X170587811Y-89155302D01*
X170205725Y-88900000D01*
X170587811Y-88644698D01*
X170898880Y-88179151D01*
X170951584Y-87914187D01*
X171919752Y-87914187D01*
X172137757Y-88441800D01*
X172541077Y-88845824D01*
X173068309Y-89064750D01*
X173639187Y-89065248D01*
X174166800Y-88847243D01*
X174570824Y-88443923D01*
X174789750Y-87916691D01*
X174790248Y-87345813D01*
X174572243Y-86818200D01*
X174168923Y-86414176D01*
X173641691Y-86195250D01*
X173070813Y-86194752D01*
X172543200Y-86412757D01*
X172139176Y-86816077D01*
X171920250Y-87343309D01*
X171919752Y-87914187D01*
X170951584Y-87914187D01*
X171008113Y-87630000D01*
X170898880Y-87080849D01*
X170587811Y-86615302D01*
X170122264Y-86304233D01*
X169573113Y-86195000D01*
X169516887Y-86195000D01*
X168967736Y-86304233D01*
X168502189Y-86615302D01*
X168191120Y-87080849D01*
X168081887Y-87630000D01*
X168191120Y-88179151D01*
X168502189Y-88644698D01*
X168884275Y-88900000D01*
X168502189Y-89155302D01*
X168332005Y-89410000D01*
X168275000Y-89410000D01*
X167984161Y-89467852D01*
X167737599Y-89632599D01*
X167102599Y-90267599D01*
X166937852Y-90514161D01*
X166880000Y-90805000D01*
X166880000Y-91139890D01*
X166819833Y-91139838D01*
X166476057Y-91281883D01*
X166212808Y-91544673D01*
X166070162Y-91888201D01*
X166069838Y-92260167D01*
X163298636Y-92260167D01*
X163278880Y-92160849D01*
X162967811Y-91695302D01*
X162585725Y-91440000D01*
X162967811Y-91184698D01*
X163278880Y-90719151D01*
X163388113Y-90170000D01*
X163278880Y-89620849D01*
X162967811Y-89155302D01*
X162823535Y-89058899D01*
X162960317Y-89033162D01*
X163176441Y-88894090D01*
X163321431Y-88681890D01*
X163372440Y-88430000D01*
X163372440Y-86830000D01*
X163328162Y-86594683D01*
X163189090Y-86378559D01*
X162976890Y-86233569D01*
X162725000Y-86182560D01*
X161125000Y-86182560D01*
X160889683Y-86226838D01*
X160673559Y-86365910D01*
X160528569Y-86578110D01*
X160477560Y-86830000D01*
X160477560Y-88430000D01*
X160521838Y-88665317D01*
X160660910Y-88881441D01*
X160873110Y-89026431D01*
X161028089Y-89057815D01*
X160882189Y-89155302D01*
X160571120Y-89620849D01*
X160461887Y-90170000D01*
X160571120Y-90719151D01*
X160882189Y-91184698D01*
X161264275Y-91440000D01*
X160882189Y-91695302D01*
X160571120Y-92160849D01*
X160461887Y-92710000D01*
X160571120Y-93259151D01*
X160882189Y-93724698D01*
X161264275Y-93980000D01*
X160882189Y-94235302D01*
X160571120Y-94700849D01*
X160461887Y-95250000D01*
X160571120Y-95799151D01*
X160882189Y-96264698D01*
X161264275Y-96520000D01*
X160882189Y-96775302D01*
X160571120Y-97240849D01*
X160461887Y-97790000D01*
X160571120Y-98339151D01*
X160882189Y-98804698D01*
X161264275Y-99060000D01*
X160882189Y-99315302D01*
X160571120Y-99780849D01*
X160523141Y-100022057D01*
X160117599Y-100427599D01*
X159952852Y-100674161D01*
X159895000Y-100965000D01*
X159895000Y-105730198D01*
X159880320Y-105744878D01*
X159834833Y-105744838D01*
X159491057Y-105886883D01*
X159227808Y-106149673D01*
X159085162Y-106493201D01*
X159084838Y-106865167D01*
X155874839Y-106865167D01*
X155875162Y-106494833D01*
X155733117Y-106151057D01*
X155627290Y-106045046D01*
X155732192Y-105940327D01*
X155874838Y-105596799D01*
X155875162Y-105224833D01*
X155733117Y-104881057D01*
X155470327Y-104617808D01*
X155206446Y-104508235D01*
X155098117Y-104246057D01*
X154835327Y-103982808D01*
X154491799Y-103840162D01*
X154119833Y-103839838D01*
X153776057Y-103981883D01*
X153742882Y-104015000D01*
X152702050Y-104015000D01*
X152844147Y-103920054D01*
X153065854Y-103588245D01*
X153139673Y-103662192D01*
X153483201Y-103804838D01*
X153855167Y-103805162D01*
X154198943Y-103663117D01*
X154462192Y-103400327D01*
X154571765Y-103136446D01*
X154833943Y-103028117D01*
X155097192Y-102765327D01*
X155239838Y-102421799D01*
X155240162Y-102049833D01*
X155098117Y-101706057D01*
X155065000Y-101672882D01*
X155065000Y-100257463D01*
X155097192Y-100225327D01*
X155239838Y-99881799D01*
X155240162Y-99509833D01*
X155170568Y-99341403D01*
X155468943Y-99218117D01*
X155732192Y-98955327D01*
X155874838Y-98611799D01*
X155875162Y-98239833D01*
X155733117Y-97896057D01*
X155470327Y-97632808D01*
X155126799Y-97490162D01*
X154754833Y-97489838D01*
X154411057Y-97631883D01*
X154377882Y-97665000D01*
X154305000Y-97665000D01*
X154014161Y-97722852D01*
X153767599Y-97887599D01*
X153262440Y-98392758D01*
X153262440Y-96940000D01*
X153218162Y-96704683D01*
X153079090Y-96488559D01*
X152866890Y-96343569D01*
X152615000Y-96292560D01*
X150915000Y-96292560D01*
X150679683Y-96336838D01*
X150492923Y-96457015D01*
X150326890Y-96343569D01*
X150075000Y-96292560D01*
X148375000Y-96292560D01*
X148139683Y-96336838D01*
X147952923Y-96457015D01*
X147786890Y-96343569D01*
X147535000Y-96292560D01*
X145835000Y-96292560D01*
X145599683Y-96336838D01*
X145383559Y-96475910D01*
X145238569Y-96688110D01*
X145187560Y-96940000D01*
X145187560Y-98212638D01*
X144903659Y-98496539D01*
X144675327Y-98267808D01*
X144331799Y-98125162D01*
X143959833Y-98124838D01*
X143616057Y-98266883D01*
X143352808Y-98529673D01*
X143210162Y-98873201D01*
X143209838Y-99245167D01*
X143351883Y-99588943D01*
X143385000Y-99622118D01*
X143385000Y-102942537D01*
X143352808Y-102974673D01*
X143210162Y-103318201D01*
X143209838Y-103690167D01*
X143279432Y-103858597D01*
X142981057Y-103981883D01*
X142717808Y-104244673D01*
X142575162Y-104588201D01*
X142574838Y-104960167D01*
X129839839Y-104960167D01*
X129840162Y-104589833D01*
X129698117Y-104246057D01*
X129665000Y-104212882D01*
X129665000Y-103432463D01*
X129697192Y-103400327D01*
X129839838Y-103056799D01*
X129840162Y-102684833D01*
X129698117Y-102341057D01*
X129435327Y-102077808D01*
X129171446Y-101968235D01*
X129063117Y-101706057D01*
X128800327Y-101442808D01*
X128456799Y-101300162D01*
X128084833Y-101299838D01*
X127741057Y-101441883D01*
X127477808Y-101704673D01*
X127335162Y-102048201D01*
X127334838Y-102420167D01*
X121410000Y-102420167D01*
X121410000Y-97082463D01*
X121442192Y-97050327D01*
X121584838Y-96706799D01*
X121585162Y-96334833D01*
X121443117Y-95991057D01*
X121180327Y-95727808D01*
X120836799Y-95585162D01*
X120464833Y-95584838D01*
X120121057Y-95726883D01*
X119857808Y-95989673D01*
X119715162Y-96333201D01*
X119714838Y-96705167D01*
X119856883Y-97048943D01*
X119890000Y-97082118D01*
X119890000Y-111033332D01*
X119380000Y-110931887D01*
X118870000Y-111033332D01*
X118870000Y-96834802D01*
X118884680Y-96820122D01*
X118930167Y-96820162D01*
X119273943Y-96678117D01*
X119537192Y-96415327D01*
X119679838Y-96071799D01*
X119680162Y-95699833D01*
X119538117Y-95356057D01*
X119275327Y-95092808D01*
X118931799Y-94950162D01*
X118559833Y-94949838D01*
X118391403Y-95019432D01*
X118268117Y-94721057D01*
X118005327Y-94457808D01*
X117661799Y-94315162D01*
X117289833Y-94314838D01*
X116946057Y-94456883D01*
X116912882Y-94490000D01*
X116205000Y-94490000D01*
X116113556Y-94508190D01*
X116272148Y-94270839D01*
X116330000Y-93980000D01*
X116330000Y-91442954D01*
X116620054Y-91249147D01*
X116847702Y-90908447D01*
X116914817Y-91051358D01*
X117343076Y-91441645D01*
X117753110Y-91611476D01*
X117983000Y-91490155D01*
X117983000Y-90297000D01*
X118237000Y-90297000D01*
X118237000Y-91490155D01*
X118466890Y-91611476D01*
X118579423Y-91564866D01*
X118445162Y-91888201D01*
X118444838Y-92260167D01*
X118586883Y-92603943D01*
X118849673Y-92867192D01*
X119193201Y-93009838D01*
X119240077Y-93009879D01*
X119477599Y-93247401D01*
X119724161Y-93412148D01*
X120015000Y-93470000D01*
X121357537Y-93470000D01*
X121389673Y-93502192D01*
X121733201Y-93644838D01*
X122105167Y-93645162D01*
X122448943Y-93503117D01*
X122712192Y-93240327D01*
X122854838Y-92896799D01*
X122855162Y-92524833D01*
X122713117Y-92181057D01*
X122450327Y-91917808D01*
X122106799Y-91775162D01*
X121734833Y-91774838D01*
X121391057Y-91916883D01*
X121357882Y-91950000D01*
X120329802Y-91950000D01*
X120315122Y-91935320D01*
X120315162Y-91889833D01*
X120173117Y-91546057D01*
X120067245Y-91440000D01*
X123700000Y-91440000D01*
X123700000Y-93980000D01*
X123757852Y-94270839D01*
X123922599Y-94517401D01*
X124159878Y-94754680D01*
X124159838Y-94800167D01*
X124301883Y-95143943D01*
X124564673Y-95407192D01*
X124908201Y-95549838D01*
X125280167Y-95550162D01*
X125623943Y-95408117D01*
X125887192Y-95145327D01*
X126029838Y-94801799D01*
X126030162Y-94429833D01*
X125919914Y-94163011D01*
X126327378Y-94081961D01*
X126809147Y-93760054D01*
X127000000Y-93474422D01*
X127190853Y-93760054D01*
X127672622Y-94081961D01*
X128240907Y-94195000D01*
X128299093Y-94195000D01*
X128780000Y-94099342D01*
X128780000Y-94687537D01*
X128747808Y-94719673D01*
X128605162Y-95063201D01*
X128604838Y-95435167D01*
X128746883Y-95778943D01*
X129009673Y-96042192D01*
X129353201Y-96184838D01*
X129725167Y-96185162D01*
X130068943Y-96043117D01*
X130332192Y-95780327D01*
X130474838Y-95436799D01*
X130475162Y-95064833D01*
X130333117Y-94721057D01*
X130300000Y-94687882D01*
X130300000Y-94099342D01*
X130780907Y-94195000D01*
X130839093Y-94195000D01*
X131407378Y-94081961D01*
X131889147Y-93760054D01*
X132211054Y-93278285D01*
X132324093Y-92710000D01*
X132211054Y-92141715D01*
X131889147Y-91659946D01*
X131559974Y-91440000D01*
X131889147Y-91220054D01*
X132211054Y-90738285D01*
X132324093Y-90170000D01*
X132211054Y-89601715D01*
X132022819Y-89320000D01*
X143917560Y-89320000D01*
X143917560Y-91020000D01*
X143961838Y-91255317D01*
X144100910Y-91471441D01*
X144313110Y-91616431D01*
X144565000Y-91667440D01*
X146265000Y-91667440D01*
X146500317Y-91623162D01*
X146716441Y-91484090D01*
X146861431Y-91271890D01*
X146875086Y-91204459D01*
X146904946Y-91249147D01*
X147386715Y-91571054D01*
X147955000Y-91684093D01*
X148523285Y-91571054D01*
X149005054Y-91249147D01*
X149225000Y-90919974D01*
X149444946Y-91249147D01*
X149926715Y-91571054D01*
X150495000Y-91684093D01*
X151063285Y-91571054D01*
X151545054Y-91249147D01*
X151765000Y-90919974D01*
X151984946Y-91249147D01*
X152466715Y-91571054D01*
X153035000Y-91684093D01*
X153603285Y-91571054D01*
X154085054Y-91249147D01*
X154406961Y-90767378D01*
X154520000Y-90199093D01*
X154520000Y-90140907D01*
X154406961Y-89572622D01*
X154085054Y-89090853D01*
X153799422Y-88900000D01*
X154085054Y-88709147D01*
X154406961Y-88227378D01*
X154520000Y-87659093D01*
X154520000Y-87600907D01*
X154406961Y-87032622D01*
X154085054Y-86550853D01*
X153603285Y-86228946D01*
X153035000Y-86115907D01*
X152466715Y-86228946D01*
X151984946Y-86550853D01*
X151765000Y-86880026D01*
X151545054Y-86550853D01*
X151063285Y-86228946D01*
X150495000Y-86115907D01*
X149926715Y-86228946D01*
X149444946Y-86550853D01*
X149225000Y-86880026D01*
X149005054Y-86550853D01*
X148523285Y-86228946D01*
X147955000Y-86115907D01*
X147386715Y-86228946D01*
X146904946Y-86550853D01*
X146685000Y-86880026D01*
X146465054Y-86550853D01*
X145983285Y-86228946D01*
X145415000Y-86115907D01*
X144846715Y-86228946D01*
X144364946Y-86550853D01*
X144043039Y-87032622D01*
X143930000Y-87600907D01*
X143930000Y-87659093D01*
X144043039Y-88227378D01*
X144364946Y-88709147D01*
X144366179Y-88709971D01*
X144329683Y-88716838D01*
X144113559Y-88855910D01*
X143968569Y-89068110D01*
X143917560Y-89320000D01*
X132022819Y-89320000D01*
X131889147Y-89119946D01*
X131847548Y-89092150D01*
X131895317Y-89083162D01*
X132111441Y-88944090D01*
X132256431Y-88731890D01*
X132307440Y-88480000D01*
X132307440Y-86780000D01*
X132263162Y-86544683D01*
X132124090Y-86328559D01*
X131911890Y-86183569D01*
X131660000Y-86132560D01*
X129960000Y-86132560D01*
X129724683Y-86176838D01*
X129537923Y-86297015D01*
X129371890Y-86183569D01*
X129120000Y-86132560D01*
X127420000Y-86132560D01*
X127184683Y-86176838D01*
X126997923Y-86297015D01*
X126831890Y-86183569D01*
X126580000Y-86132560D01*
X124880000Y-86132560D01*
X124644683Y-86176838D01*
X124428559Y-86315910D01*
X124283569Y-86528110D01*
X124232560Y-86780000D01*
X124232560Y-88480000D01*
X124276838Y-88715317D01*
X124415910Y-88931441D01*
X124628110Y-89076431D01*
X124695541Y-89090086D01*
X124650853Y-89119946D01*
X124328946Y-89601715D01*
X124215907Y-90170000D01*
X124288790Y-90536408D01*
X123922599Y-90902599D01*
X123757852Y-91149161D01*
X123700000Y-91440000D01*
X120067245Y-91440000D01*
X119910327Y-91282808D01*
X119566799Y-91140162D01*
X119208082Y-91139850D01*
X119305183Y-91051358D01*
X119551486Y-90526892D01*
X119430819Y-90297000D01*
X118237000Y-90297000D01*
X117983000Y-90297000D01*
X117963000Y-90297000D01*
X117963000Y-90043000D01*
X117983000Y-90043000D01*
X117983000Y-90023000D01*
X118237000Y-90023000D01*
X118237000Y-90043000D01*
X119430819Y-90043000D01*
X119551486Y-89813108D01*
X119305183Y-89288642D01*
X118876924Y-88898355D01*
X118876899Y-88898345D01*
X119160054Y-88709147D01*
X119481961Y-88227378D01*
X119595000Y-87659093D01*
X119595000Y-87600907D01*
X119481961Y-87032622D01*
X119160054Y-86550853D01*
X118678285Y-86228946D01*
X118110000Y-86115907D01*
X117541715Y-86228946D01*
X117059946Y-86550853D01*
X116840000Y-86880026D01*
X116620054Y-86550853D01*
X116138285Y-86228946D01*
X115570000Y-86115907D01*
X115001715Y-86228946D01*
X114519946Y-86550853D01*
X114300000Y-86880026D01*
X114080054Y-86550853D01*
X113598285Y-86228946D01*
X113030000Y-86115907D01*
X112461715Y-86228946D01*
X111979946Y-86550853D01*
X111760000Y-86880026D01*
X111540054Y-86550853D01*
X111058285Y-86228946D01*
X110490000Y-86115907D01*
X109921715Y-86228946D01*
X109439946Y-86550853D01*
X109220000Y-86880026D01*
X109000054Y-86550853D01*
X108518285Y-86228946D01*
X107950000Y-86115907D01*
X107381715Y-86228946D01*
X106899946Y-86550853D01*
X106680000Y-86880026D01*
X106460054Y-86550853D01*
X105978285Y-86228946D01*
X105410000Y-86115907D01*
X104841715Y-86228946D01*
X104359946Y-86550853D01*
X104140000Y-86880026D01*
X103920054Y-86550853D01*
X103438285Y-86228946D01*
X102870000Y-86115907D01*
X102301715Y-86228946D01*
X101819946Y-86550853D01*
X101600000Y-86880026D01*
X101380054Y-86550853D01*
X100898285Y-86228946D01*
X100330000Y-86115907D01*
X99761715Y-86228946D01*
X99279946Y-86550853D01*
X99060000Y-86880026D01*
X98840054Y-86550853D01*
X98358285Y-86228946D01*
X97790000Y-86115907D01*
X97221715Y-86228946D01*
X96739946Y-86550853D01*
X96512298Y-86891553D01*
X96445183Y-86748642D01*
X96016924Y-86358355D01*
X95606890Y-86188524D01*
X95377000Y-86309845D01*
X95377000Y-87503000D01*
X95397000Y-87503000D01*
X95397000Y-87757000D01*
X95377000Y-87757000D01*
X95377000Y-90043000D01*
X95397000Y-90043000D01*
X95397000Y-90297000D01*
X95377000Y-90297000D01*
X95377000Y-91496250D01*
X95535750Y-91655000D01*
X96226310Y-91655000D01*
X96335834Y-91609634D01*
X96220162Y-91888201D01*
X96219838Y-92260167D01*
X96361883Y-92603943D01*
X96624673Y-92867192D01*
X96968201Y-93009838D01*
X97340167Y-93010162D01*
X97683943Y-92868117D01*
X97717118Y-92835000D01*
X104775000Y-92835000D01*
X104866444Y-92816810D01*
X104707852Y-93054161D01*
X104650000Y-93345000D01*
X104650000Y-111033332D01*
X104140000Y-110931887D01*
X103590849Y-111041120D01*
X103125302Y-111352189D01*
X102870000Y-111734275D01*
X102614698Y-111352189D01*
X102360000Y-111182005D01*
X102360000Y-103670633D01*
X102683201Y-103804838D01*
X103055167Y-103805162D01*
X103398943Y-103663117D01*
X103662192Y-103400327D01*
X103804838Y-103056799D01*
X103805162Y-102684833D01*
X103663117Y-102341057D01*
X103630000Y-102307882D01*
X103630000Y-99622463D01*
X103662192Y-99590327D01*
X103804838Y-99246799D01*
X103805162Y-98874833D01*
X103663117Y-98531057D01*
X103400327Y-98267808D01*
X103056799Y-98125162D01*
X102684833Y-98124838D01*
X102341057Y-98266883D01*
X102077808Y-98529673D01*
X101935162Y-98873201D01*
X101934838Y-99245167D01*
X102076883Y-99588943D01*
X102110000Y-99622118D01*
X102110000Y-101035198D01*
X101090000Y-100015198D01*
X101090000Y-98352463D01*
X101122192Y-98320327D01*
X101264838Y-97976799D01*
X101265162Y-97604833D01*
X101123117Y-97261057D01*
X100860327Y-96997808D01*
X100516799Y-96855162D01*
X100144833Y-96854838D01*
X99801057Y-96996883D01*
X99537808Y-97259673D01*
X99395162Y-97603201D01*
X99394838Y-97975167D01*
X99536883Y-98318943D01*
X99570000Y-98352118D01*
X99570000Y-100330000D01*
X99627852Y-100620839D01*
X99792599Y-100867401D01*
X100840000Y-101914802D01*
X100840000Y-111182005D01*
X100585302Y-111352189D01*
X100330000Y-111734275D01*
X100074698Y-111352189D01*
X99609151Y-111041120D01*
X99060000Y-110931887D01*
X98510849Y-111041120D01*
X98045302Y-111352189D01*
X97790000Y-111734275D01*
X97534698Y-111352189D01*
X97069151Y-111041120D01*
X96520000Y-110931887D01*
X95970849Y-111041120D01*
X95505302Y-111352189D01*
X95250000Y-111734275D01*
X94994698Y-111352189D01*
X94740000Y-111182005D01*
X94740000Y-109823646D01*
X94791800Y-109802243D01*
X95001663Y-109592745D01*
X98151861Y-109592745D01*
X98225995Y-109838864D01*
X98763223Y-110031965D01*
X99333454Y-110004778D01*
X99734005Y-109838864D01*
X99808139Y-109592745D01*
X98980000Y-108764605D01*
X98151861Y-109592745D01*
X95001663Y-109592745D01*
X95195824Y-109398923D01*
X95414750Y-108871691D01*
X95415189Y-108368223D01*
X97533035Y-108368223D01*
X97560222Y-108938454D01*
X97726136Y-109339005D01*
X97972255Y-109413139D01*
X98800395Y-108585000D01*
X99159605Y-108585000D01*
X99987745Y-109413139D01*
X100233864Y-109339005D01*
X100426965Y-108801777D01*
X100399778Y-108231546D01*
X100233864Y-107830995D01*
X99987745Y-107756861D01*
X99159605Y-108585000D01*
X98800395Y-108585000D01*
X97972255Y-107756861D01*
X97726136Y-107830995D01*
X97533035Y-108368223D01*
X95415189Y-108368223D01*
X95415248Y-108300813D01*
X95197243Y-107773200D01*
X95001640Y-107577255D01*
X98151861Y-107577255D01*
X98980000Y-108405395D01*
X99808139Y-107577255D01*
X99734005Y-107331136D01*
X99196777Y-107138035D01*
X98626546Y-107165222D01*
X98225995Y-107331136D01*
X98151861Y-107577255D01*
X95001640Y-107577255D01*
X94793923Y-107369176D01*
X94266691Y-107150250D01*
X93695813Y-107149752D01*
X93168200Y-107367757D01*
X92835000Y-107700376D01*
X92835000Y-90455750D01*
X93765000Y-90455750D01*
X93765000Y-91146309D01*
X93861673Y-91379698D01*
X94040301Y-91558327D01*
X94273690Y-91655000D01*
X94964250Y-91655000D01*
X95123000Y-91496250D01*
X95123000Y-90297000D01*
X93923750Y-90297000D01*
X93765000Y-90455750D01*
X92835000Y-90455750D01*
X92835000Y-89193691D01*
X93765000Y-89193691D01*
X93765000Y-89884250D01*
X93923750Y-90043000D01*
X95123000Y-90043000D01*
X95123000Y-87757000D01*
X93929181Y-87757000D01*
X93808514Y-87986892D01*
X94054817Y-88511358D01*
X94254208Y-88693070D01*
X94040301Y-88781673D01*
X93861673Y-88960302D01*
X93765000Y-89193691D01*
X92835000Y-89193691D01*
X92835000Y-88827463D01*
X92867192Y-88795327D01*
X93009838Y-88451799D01*
X93010162Y-88079833D01*
X92868117Y-87736057D01*
X92605327Y-87472808D01*
X92483182Y-87422089D01*
X92582727Y-87273108D01*
X93808514Y-87273108D01*
X93929181Y-87503000D01*
X95123000Y-87503000D01*
X95123000Y-86309845D01*
X94893110Y-86188524D01*
X94483076Y-86358355D01*
X94054817Y-86748642D01*
X93808514Y-87273108D01*
X92582727Y-87273108D01*
X93253791Y-86268791D01*
X94461001Y-85462161D01*
X95954931Y-85165000D01*
X141736421Y-85165000D01*
X141702599Y-85187599D01*
M02*
