G04 #@! TF.FileFunction,Copper,L1,Top,Signal*
%FSLAX46Y46*%
G04 Gerber Fmt 4.6, Leading zero omitted, Abs format (unit mm)*
G04 Created by KiCad (PCBNEW 4.0.7) date 10/24/19 12:41:51*
%MOMM*%
%LPD*%
G01*
G04 APERTURE LIST*
%ADD10C,0.100000*%
%ADD11R,1.700000X1.700000*%
%ADD12O,1.700000X1.700000*%
%ADD13C,1.600000*%
%ADD14R,1.600000X1.600000*%
%ADD15O,1.600000X1.600000*%
%ADD16C,0.600000*%
%ADD17C,0.250000*%
G04 APERTURE END LIST*
D10*
D11*
X188595000Y-125095000D03*
D12*
X188595000Y-127635000D03*
X188595000Y-130175000D03*
D13*
X188595000Y-112395000D03*
X188595000Y-117395000D03*
X173355000Y-112395000D03*
X173355000Y-117395000D03*
X173355000Y-87630000D03*
X173355000Y-92630000D03*
D11*
X189230000Y-138430000D03*
D12*
X186690000Y-138430000D03*
X184150000Y-138430000D03*
X181610000Y-138430000D03*
X179070000Y-138430000D03*
X176530000Y-138430000D03*
X173990000Y-138430000D03*
X171450000Y-138430000D03*
X168910000Y-138430000D03*
X166370000Y-138430000D03*
X163830000Y-138430000D03*
X161290000Y-138430000D03*
X158750000Y-138430000D03*
X156210000Y-138430000D03*
X153670000Y-138430000D03*
X151130000Y-138430000D03*
X148590000Y-138430000D03*
X146050000Y-138430000D03*
X143510000Y-138430000D03*
X140970000Y-138430000D03*
X138430000Y-138430000D03*
X135890000Y-138430000D03*
X133350000Y-138430000D03*
X130810000Y-138430000D03*
X128270000Y-138430000D03*
X125730000Y-138430000D03*
X123190000Y-138430000D03*
X120650000Y-138430000D03*
X118110000Y-138430000D03*
X115570000Y-138430000D03*
X113030000Y-138430000D03*
X110490000Y-138430000D03*
X107950000Y-138430000D03*
X105410000Y-138430000D03*
X102870000Y-138430000D03*
X100330000Y-138430000D03*
X97790000Y-138430000D03*
X95250000Y-138430000D03*
X92710000Y-138430000D03*
D11*
X146685000Y-97790000D03*
D12*
X146685000Y-100330000D03*
X146685000Y-102870000D03*
D11*
X149225000Y-97790000D03*
D12*
X149225000Y-100330000D03*
X149225000Y-102870000D03*
D11*
X130810000Y-87630000D03*
D12*
X130810000Y-90170000D03*
X130810000Y-92710000D03*
D11*
X151765000Y-97790000D03*
D12*
X151765000Y-100330000D03*
X151765000Y-102870000D03*
D14*
X177165000Y-112395000D03*
D15*
X184785000Y-130175000D03*
X177165000Y-114935000D03*
X184785000Y-127635000D03*
X177165000Y-117475000D03*
X184785000Y-125095000D03*
X177165000Y-120015000D03*
X184785000Y-122555000D03*
X177165000Y-122555000D03*
X184785000Y-120015000D03*
X177165000Y-125095000D03*
X184785000Y-117475000D03*
X177165000Y-127635000D03*
X184785000Y-114935000D03*
X177165000Y-130175000D03*
X184785000Y-112395000D03*
D14*
X161925000Y-112395000D03*
D15*
X169545000Y-130175000D03*
X161925000Y-114935000D03*
X169545000Y-127635000D03*
X161925000Y-117475000D03*
X169545000Y-125095000D03*
X161925000Y-120015000D03*
X169545000Y-122555000D03*
X161925000Y-122555000D03*
X169545000Y-120015000D03*
X161925000Y-125095000D03*
X169545000Y-117475000D03*
X161925000Y-127635000D03*
X169545000Y-114935000D03*
X161925000Y-130175000D03*
X169545000Y-112395000D03*
D14*
X161925000Y-87630000D03*
D15*
X169545000Y-102870000D03*
X161925000Y-90170000D03*
X169545000Y-100330000D03*
X161925000Y-92710000D03*
X169545000Y-97790000D03*
X161925000Y-95250000D03*
X169545000Y-95250000D03*
X161925000Y-97790000D03*
X169545000Y-92710000D03*
X161925000Y-100330000D03*
X169545000Y-90170000D03*
X161925000Y-102870000D03*
X169545000Y-87630000D03*
D14*
X142240000Y-112395000D03*
D15*
X93980000Y-127635000D03*
X139700000Y-112395000D03*
X96520000Y-127635000D03*
X137160000Y-112395000D03*
X99060000Y-127635000D03*
X134620000Y-112395000D03*
X101600000Y-127635000D03*
X132080000Y-112395000D03*
X104140000Y-127635000D03*
X129540000Y-112395000D03*
X106680000Y-127635000D03*
X127000000Y-112395000D03*
X109220000Y-127635000D03*
X124460000Y-112395000D03*
X111760000Y-127635000D03*
X121920000Y-112395000D03*
X114300000Y-127635000D03*
X119380000Y-112395000D03*
X116840000Y-127635000D03*
X116840000Y-112395000D03*
X119380000Y-127635000D03*
X114300000Y-112395000D03*
X121920000Y-127635000D03*
X111760000Y-112395000D03*
X124460000Y-127635000D03*
X109220000Y-112395000D03*
X127000000Y-127635000D03*
X106680000Y-112395000D03*
X129540000Y-127635000D03*
X104140000Y-112395000D03*
X132080000Y-127635000D03*
X101600000Y-112395000D03*
X134620000Y-127635000D03*
X99060000Y-112395000D03*
X137160000Y-127635000D03*
X96520000Y-112395000D03*
X139700000Y-127635000D03*
X93980000Y-112395000D03*
X142240000Y-127635000D03*
D13*
X93980000Y-108585000D03*
X98980000Y-108585000D03*
D11*
X125730000Y-87630000D03*
D12*
X125730000Y-90170000D03*
X125730000Y-92710000D03*
D11*
X95250000Y-90170000D03*
D12*
X95250000Y-87630000D03*
X97790000Y-90170000D03*
X97790000Y-87630000D03*
X100330000Y-90170000D03*
X100330000Y-87630000D03*
X102870000Y-90170000D03*
X102870000Y-87630000D03*
X105410000Y-90170000D03*
X105410000Y-87630000D03*
X107950000Y-90170000D03*
X107950000Y-87630000D03*
X110490000Y-90170000D03*
X110490000Y-87630000D03*
X113030000Y-90170000D03*
X113030000Y-87630000D03*
X115570000Y-90170000D03*
X115570000Y-87630000D03*
X118110000Y-90170000D03*
X118110000Y-87630000D03*
D11*
X128270000Y-87630000D03*
D12*
X128270000Y-90170000D03*
X128270000Y-92710000D03*
D13*
X158115000Y-112395000D03*
X158115000Y-117395000D03*
X188595000Y-87630000D03*
X188595000Y-92630000D03*
D11*
X173355000Y-122555000D03*
D12*
X173355000Y-125095000D03*
X173355000Y-127635000D03*
X173355000Y-130175000D03*
D11*
X145415000Y-90170000D03*
D12*
X145415000Y-87630000D03*
X147955000Y-90170000D03*
X147955000Y-87630000D03*
X150495000Y-90170000D03*
X150495000Y-87630000D03*
X153035000Y-90170000D03*
X153035000Y-87630000D03*
D14*
X146685000Y-112395000D03*
D15*
X154305000Y-127635000D03*
X146685000Y-114935000D03*
X154305000Y-125095000D03*
X146685000Y-117475000D03*
X154305000Y-122555000D03*
X146685000Y-120015000D03*
X154305000Y-120015000D03*
X146685000Y-122555000D03*
X154305000Y-117475000D03*
X146685000Y-125095000D03*
X154305000Y-114935000D03*
X146685000Y-127635000D03*
X154305000Y-112395000D03*
D14*
X177165000Y-87630000D03*
D15*
X184785000Y-102870000D03*
X177165000Y-90170000D03*
X184785000Y-100330000D03*
X177165000Y-92710000D03*
X184785000Y-97790000D03*
X177165000Y-95250000D03*
X184785000Y-95250000D03*
X177165000Y-97790000D03*
X184785000Y-92710000D03*
X177165000Y-100330000D03*
X184785000Y-90170000D03*
X177165000Y-102870000D03*
X184785000Y-87630000D03*
D16*
X119380000Y-92075000D03*
X121920000Y-92710000D03*
X149860000Y-137160000D03*
X142240000Y-133350000D03*
X189865000Y-123190000D03*
X189865000Y-110490000D03*
X145415000Y-137160000D03*
X92075000Y-109220000D03*
X92075000Y-88265000D03*
X179705000Y-118110000D03*
X179705000Y-132080000D03*
X179070000Y-131445000D03*
X179070000Y-115570000D03*
X178435000Y-132080000D03*
X165735000Y-131445000D03*
X165735000Y-118110000D03*
X165100000Y-115570000D03*
X165100000Y-130810000D03*
X164465000Y-113030000D03*
X164465000Y-131445000D03*
X163195000Y-136525000D03*
X163830000Y-123190000D03*
X103505000Y-136525000D03*
X150495000Y-136525000D03*
X146050000Y-136525000D03*
X163830000Y-130810000D03*
X167640000Y-106680000D03*
X104140000Y-130175000D03*
X125730000Y-125730000D03*
X154305000Y-107315000D03*
X143510000Y-106045000D03*
X123190000Y-110490000D03*
X123190000Y-113665000D03*
X143510000Y-104775000D03*
X154940000Y-106680000D03*
X123190000Y-125730000D03*
X104775000Y-129540000D03*
X160020000Y-106680000D03*
X125095000Y-94615000D03*
X128270000Y-105410000D03*
X128270000Y-102235000D03*
X134620000Y-125730000D03*
X182245000Y-116840000D03*
X182245000Y-109220000D03*
X180340000Y-106045000D03*
X177800000Y-106045000D03*
X154305000Y-106045000D03*
X182880000Y-108585000D03*
X182880000Y-119380000D03*
X180975000Y-105410000D03*
X177165000Y-105410000D03*
X154940000Y-105410000D03*
X128905000Y-104775000D03*
X129540000Y-95250000D03*
X128905000Y-102870000D03*
X154305000Y-104775000D03*
X183515000Y-109220000D03*
X180340000Y-104775000D03*
X177800000Y-104775000D03*
X179070000Y-108585000D03*
X179070000Y-100965000D03*
X179070000Y-99695000D03*
X180340000Y-124460000D03*
X167640000Y-102235000D03*
X143510000Y-85725000D03*
X141605000Y-86360000D03*
X163195000Y-131445000D03*
X161290000Y-135890000D03*
X162560000Y-135255000D03*
X163830000Y-109220000D03*
X178435000Y-101600000D03*
X140970000Y-125730000D03*
X140970000Y-128905000D03*
X138430000Y-128905000D03*
X138430000Y-125730000D03*
X135890000Y-128905000D03*
X135890000Y-125730000D03*
X133350000Y-125730000D03*
X133350000Y-128905000D03*
X139700000Y-133350000D03*
X131445000Y-136525000D03*
X140335000Y-136525000D03*
X118110000Y-114935000D03*
X118745000Y-95885000D03*
X115570000Y-113665000D03*
X117475000Y-95250000D03*
X100330000Y-97790000D03*
X102870000Y-99060000D03*
X102870000Y-102870000D03*
X97155000Y-92075000D03*
X105410000Y-113665000D03*
X107950000Y-113665000D03*
X110490000Y-113665000D03*
X113030000Y-113665000D03*
X131445000Y-135255000D03*
X128905000Y-135255000D03*
X120650000Y-113665000D03*
X120650000Y-96520000D03*
X166370000Y-116840000D03*
X166370000Y-121920000D03*
X179705000Y-98425000D03*
X179705000Y-101600000D03*
X180975000Y-125095000D03*
X179705000Y-109220000D03*
X144145000Y-99060000D03*
X144145000Y-103505000D03*
X149225000Y-114300000D03*
X149225000Y-119380000D03*
X140970000Y-87630000D03*
X142875000Y-86360000D03*
X147955000Y-126365000D03*
X148590000Y-115570000D03*
X148590000Y-125730000D03*
X152400000Y-116840000D03*
X152400000Y-111760000D03*
X154940000Y-98425000D03*
X153670000Y-102870000D03*
X144780000Y-104140000D03*
X144780000Y-99695000D03*
X149225000Y-125095000D03*
X149860000Y-113030000D03*
X154305000Y-99695000D03*
X154305000Y-102235000D03*
X153035000Y-111125000D03*
X167005000Y-92075000D03*
X167005000Y-95885000D03*
D17*
X125730000Y-92710000D02*
X121920000Y-92710000D01*
X119380000Y-88900000D02*
X118110000Y-87630000D01*
X119380000Y-92075000D02*
X119380000Y-88900000D01*
X125730000Y-92710000D02*
X128270000Y-92710000D01*
X147320000Y-137160000D02*
X149860000Y-137160000D01*
X147320000Y-137160000D02*
X146050000Y-138430000D01*
X146685000Y-102870000D02*
X142875000Y-102870000D01*
X142240000Y-85725000D02*
X142875000Y-85090000D01*
X142240000Y-102235000D02*
X142240000Y-85725000D01*
X142875000Y-102870000D02*
X142240000Y-102235000D01*
X149225000Y-102870000D02*
X151765000Y-102870000D01*
X146685000Y-102870000D02*
X149225000Y-102870000D01*
X118110000Y-87630000D02*
X118110000Y-85725000D01*
X118110000Y-85725000D02*
X117475000Y-85090000D01*
X177165000Y-125095000D02*
X178435000Y-123825000D01*
X186055000Y-123825000D02*
X178435000Y-123825000D01*
X186690000Y-123190000D02*
X186055000Y-123825000D01*
X186690000Y-123190000D02*
X189865000Y-123190000D01*
X161925000Y-125095000D02*
X163195000Y-126365000D01*
X175895000Y-126365000D02*
X177165000Y-125095000D01*
X163195000Y-126365000D02*
X175895000Y-126365000D01*
X173355000Y-112395000D02*
X173355000Y-110490000D01*
X173355000Y-110490000D02*
X173990000Y-109855000D01*
X158115000Y-112395000D02*
X158115000Y-110490000D01*
X158750000Y-109855000D02*
X173990000Y-109855000D01*
X158115000Y-110490000D02*
X158750000Y-109855000D01*
X189230000Y-109855000D02*
X189865000Y-110490000D01*
X173990000Y-109855000D02*
X189230000Y-109855000D01*
X184785000Y-112395000D02*
X188595000Y-112395000D01*
X169545000Y-112395000D02*
X173355000Y-112395000D01*
X154305000Y-112395000D02*
X158115000Y-112395000D01*
X142240000Y-133350000D02*
X142240000Y-133985000D01*
X142240000Y-133985000D02*
X145415000Y-137160000D01*
X137160000Y-127635000D02*
X137160000Y-127000000D01*
X137160000Y-127000000D02*
X137795000Y-126365000D01*
X132080000Y-127635000D02*
X132080000Y-127000000D01*
X132080000Y-127000000D02*
X132715000Y-126365000D01*
X132715000Y-126365000D02*
X137795000Y-126365000D01*
X137795000Y-126365000D02*
X141605000Y-126365000D01*
X141605000Y-126365000D02*
X142240000Y-127000000D01*
X142240000Y-127000000D02*
X142240000Y-127635000D01*
X173355000Y-87630000D02*
X173355000Y-85725000D01*
X173355000Y-85725000D02*
X173990000Y-85090000D01*
X93980000Y-108585000D02*
X92710000Y-108585000D01*
X92710000Y-108585000D02*
X92075000Y-109220000D01*
X170815000Y-85090000D02*
X142875000Y-85090000D01*
X173990000Y-85090000D02*
X171450000Y-85090000D01*
X171450000Y-85090000D02*
X170815000Y-85090000D01*
X142875000Y-85090000D02*
X120650000Y-85090000D01*
X120650000Y-85090000D02*
X117475000Y-85090000D01*
X117475000Y-85090000D02*
X95250000Y-85090000D01*
X95250000Y-85090000D02*
X92075000Y-88265000D01*
X173355000Y-87630000D02*
X173355000Y-86995000D01*
X188595000Y-87630000D02*
X186055000Y-85090000D01*
X186055000Y-85090000D02*
X173990000Y-85090000D01*
X184785000Y-87630000D02*
X188595000Y-87630000D01*
X169545000Y-87630000D02*
X173355000Y-87630000D01*
X179705000Y-132080000D02*
X180340000Y-132715000D01*
X189230000Y-133350000D02*
X189230000Y-135255000D01*
X188595000Y-132715000D02*
X189230000Y-133350000D01*
X180340000Y-132715000D02*
X188595000Y-132715000D01*
X189230000Y-138430000D02*
X189230000Y-135255000D01*
X179070000Y-117475000D02*
X177165000Y-117475000D01*
X179705000Y-118110000D02*
X179070000Y-117475000D01*
X186690000Y-135890000D02*
X186690000Y-133985000D01*
X179705000Y-133350000D02*
X179070000Y-132715000D01*
X186055000Y-133350000D02*
X179705000Y-133350000D01*
X186690000Y-133985000D02*
X186055000Y-133350000D01*
X177165000Y-114935000D02*
X178435000Y-114935000D01*
X179070000Y-131445000D02*
X179070000Y-132715000D01*
X178435000Y-114935000D02*
X179070000Y-115570000D01*
X186690000Y-135890000D02*
X186690000Y-138430000D01*
X178435000Y-133350000D02*
X179070000Y-133985000D01*
X184150000Y-134620000D02*
X184150000Y-136525000D01*
X183515000Y-133985000D02*
X184150000Y-134620000D01*
X179070000Y-133985000D02*
X183515000Y-133985000D01*
X184150000Y-138430000D02*
X184150000Y-136525000D01*
X178435000Y-133350000D02*
X178435000Y-132080000D01*
X165735000Y-132080000D02*
X165735000Y-131445000D01*
X166370000Y-132715000D02*
X165735000Y-132080000D01*
X165100000Y-117475000D02*
X164465000Y-117475000D01*
X165735000Y-118110000D02*
X165100000Y-117475000D01*
X164465000Y-117475000D02*
X163830000Y-117475000D01*
X163830000Y-117475000D02*
X161925000Y-117475000D01*
X181610000Y-138430000D02*
X181610000Y-137795000D01*
X181610000Y-137795000D02*
X176530000Y-132715000D01*
X176530000Y-132715000D02*
X166370000Y-132715000D01*
X165735000Y-133350000D02*
X165100000Y-132715000D01*
X164465000Y-114935000D02*
X163830000Y-114935000D01*
X165100000Y-115570000D02*
X164465000Y-114935000D01*
X165100000Y-132715000D02*
X165100000Y-130810000D01*
X163830000Y-114935000D02*
X163195000Y-114935000D01*
X161925000Y-114935000D02*
X163195000Y-114935000D01*
X175895000Y-133350000D02*
X179070000Y-136525000D01*
X179070000Y-136525000D02*
X179070000Y-138430000D01*
X165735000Y-133350000D02*
X175895000Y-133350000D01*
X176530000Y-135255000D02*
X176530000Y-138430000D01*
X165100000Y-133985000D02*
X175260000Y-133985000D01*
X176530000Y-135255000D02*
X175260000Y-133985000D01*
X164465000Y-133350000D02*
X164465000Y-131445000D01*
X165100000Y-133985000D02*
X164465000Y-133350000D01*
X163830000Y-112395000D02*
X164465000Y-113030000D01*
X161925000Y-112395000D02*
X163830000Y-112395000D01*
X163195000Y-136525000D02*
X163830000Y-135890000D01*
X163830000Y-123190000D02*
X163195000Y-122555000D01*
X163195000Y-122555000D02*
X161925000Y-122555000D01*
X164465000Y-121285000D02*
X163830000Y-121920000D01*
X163830000Y-121920000D02*
X163830000Y-123190000D01*
X102870000Y-138430000D02*
X102870000Y-137160000D01*
X103505000Y-136525000D02*
X102870000Y-137160000D01*
X150495000Y-136525000D02*
X146050000Y-136525000D01*
X163830000Y-135890000D02*
X163830000Y-130810000D01*
X186055000Y-121285000D02*
X186690000Y-120650000D01*
X186690000Y-115570000D02*
X186055000Y-114935000D01*
X186690000Y-120650000D02*
X186690000Y-115570000D01*
X164465000Y-121285000D02*
X186055000Y-121285000D01*
X186055000Y-114935000D02*
X184785000Y-114935000D01*
X160655000Y-107315000D02*
X161290000Y-106680000D01*
X161290000Y-106680000D02*
X167640000Y-106680000D01*
X135255000Y-104140000D02*
X141605000Y-104140000D01*
X125730000Y-104775000D02*
X126365000Y-104140000D01*
X126365000Y-104140000D02*
X135255000Y-104140000D01*
X125730000Y-107950000D02*
X125730000Y-125730000D01*
X103505000Y-130810000D02*
X104140000Y-130175000D01*
X100330000Y-138430000D02*
X100330000Y-131445000D01*
X100330000Y-131445000D02*
X100965000Y-130810000D01*
X100965000Y-130810000D02*
X103505000Y-130810000D01*
X125730000Y-107950000D02*
X125730000Y-104775000D01*
X141605000Y-104140000D02*
X143510000Y-106045000D01*
X154305000Y-107315000D02*
X160655000Y-107315000D01*
X123190000Y-110490000D02*
X123190000Y-104140000D01*
X154940000Y-106680000D02*
X159385000Y-106680000D01*
X142240000Y-103505000D02*
X143510000Y-104775000D01*
X98425000Y-130175000D02*
X102870000Y-130175000D01*
X97790000Y-130810000D02*
X98425000Y-130175000D01*
X97790000Y-138430000D02*
X97790000Y-130810000D01*
X103505000Y-129540000D02*
X104775000Y-129540000D01*
X102870000Y-130175000D02*
X103505000Y-129540000D01*
X123190000Y-113665000D02*
X123190000Y-125730000D01*
X123825000Y-103505000D02*
X132715000Y-103505000D01*
X123190000Y-104140000D02*
X123825000Y-103505000D01*
X132715000Y-103505000D02*
X142240000Y-103505000D01*
X159385000Y-106680000D02*
X160020000Y-106680000D01*
X127635000Y-95250000D02*
X127000000Y-94615000D01*
X127000000Y-94615000D02*
X125095000Y-94615000D01*
X128270000Y-111125000D02*
X128270000Y-105410000D01*
X128270000Y-96520000D02*
X128270000Y-95885000D01*
X128270000Y-95885000D02*
X127635000Y-95250000D01*
X128270000Y-102235000D02*
X128270000Y-96520000D01*
X134620000Y-125730000D02*
X134620000Y-116205000D01*
X134620000Y-116205000D02*
X133985000Y-115570000D01*
X133985000Y-115570000D02*
X128905000Y-115570000D01*
X128905000Y-115570000D02*
X128270000Y-114935000D01*
X128270000Y-114935000D02*
X128270000Y-111125000D01*
X146685000Y-100330000D02*
X143510000Y-100330000D01*
X160655000Y-88900000D02*
X161925000Y-90170000D01*
X143510000Y-88900000D02*
X160655000Y-88900000D01*
X142690002Y-89719998D02*
X143510000Y-88900000D01*
X142690002Y-99510002D02*
X142690002Y-89719998D01*
X143510000Y-100330000D02*
X142690002Y-99510002D01*
X182880000Y-117475000D02*
X182245000Y-116840000D01*
X182880000Y-117475000D02*
X184785000Y-117475000D01*
X182245000Y-106680000D02*
X182245000Y-109220000D01*
X181610000Y-106045000D02*
X182245000Y-106680000D01*
X180340000Y-106045000D02*
X181610000Y-106045000D01*
X154305000Y-106045000D02*
X177800000Y-106045000D01*
X149225000Y-100330000D02*
X150495000Y-101600000D01*
X168275000Y-101600000D02*
X169545000Y-100330000D01*
X150495000Y-101600000D02*
X168275000Y-101600000D01*
X183515000Y-120015000D02*
X184785000Y-120015000D01*
X183515000Y-120015000D02*
X182880000Y-119380000D01*
X182880000Y-106045000D02*
X182880000Y-108585000D01*
X182245000Y-105410000D02*
X182880000Y-106045000D01*
X180975000Y-105410000D02*
X182245000Y-105410000D01*
X154940000Y-105410000D02*
X177165000Y-105410000D01*
X128905000Y-110490000D02*
X128905000Y-104775000D01*
X128905000Y-102870000D02*
X128905000Y-95885000D01*
X128905000Y-95885000D02*
X129540000Y-95250000D01*
X136525000Y-111125000D02*
X129540000Y-111125000D01*
X129540000Y-111125000D02*
X128905000Y-110490000D01*
X137160000Y-111760000D02*
X136525000Y-111125000D01*
X137160000Y-112395000D02*
X137160000Y-111760000D01*
X169545000Y-97790000D02*
X164465000Y-97790000D01*
X160020000Y-97155000D02*
X160020000Y-99695000D01*
X160655000Y-96520000D02*
X160020000Y-97155000D01*
X163195000Y-96520000D02*
X160655000Y-96520000D01*
X164465000Y-97790000D02*
X163195000Y-96520000D01*
X159385000Y-100330000D02*
X160020000Y-99695000D01*
X151765000Y-100330000D02*
X159385000Y-100330000D01*
X154940000Y-104775000D02*
X154305000Y-104775000D01*
X183515000Y-105410000D02*
X183515000Y-109220000D01*
X182880000Y-104775000D02*
X183515000Y-105410000D01*
X180340000Y-104775000D02*
X182880000Y-104775000D01*
X154940000Y-104775000D02*
X177800000Y-104775000D01*
X170815000Y-99060000D02*
X163195000Y-99060000D01*
X179070000Y-108585000D02*
X179070000Y-100965000D01*
X179070000Y-99695000D02*
X178435000Y-99060000D01*
X178435000Y-99060000D02*
X170815000Y-99060000D01*
X177165000Y-127635000D02*
X179705000Y-127635000D01*
X180340000Y-127000000D02*
X180340000Y-124460000D01*
X179705000Y-127635000D02*
X180340000Y-127000000D01*
X163195000Y-99060000D02*
X161925000Y-97790000D01*
X169545000Y-102870000D02*
X168275000Y-102870000D01*
X168275000Y-102870000D02*
X167640000Y-102235000D01*
X169545000Y-92710000D02*
X161925000Y-92710000D01*
X163830000Y-138430000D02*
X162560000Y-137160000D01*
X161925000Y-136525000D02*
X161925000Y-135890000D01*
X162560000Y-137160000D02*
X161925000Y-136525000D01*
X160020000Y-130175000D02*
X158750000Y-130175000D01*
X161925000Y-132080000D02*
X160020000Y-130175000D01*
X161925000Y-135890000D02*
X161925000Y-132080000D01*
X139700000Y-112395000D02*
X141605000Y-114300000D01*
X141605000Y-114300000D02*
X143510000Y-116205000D01*
X143510000Y-116205000D02*
X143510000Y-129540000D01*
X143510000Y-129540000D02*
X144145000Y-130175000D01*
X144145000Y-130175000D02*
X158750000Y-130175000D01*
X163830000Y-138430000D02*
X163830000Y-137795000D01*
X130810000Y-92710000D02*
X140970000Y-92710000D01*
X140970000Y-92710000D02*
X141605000Y-92075000D01*
X175260000Y-88900000D02*
X168275000Y-88900000D01*
X168275000Y-88900000D02*
X167640000Y-88265000D01*
X167640000Y-88265000D02*
X167640000Y-86360000D01*
X167640000Y-86360000D02*
X167005000Y-85725000D01*
X167005000Y-85725000D02*
X143510000Y-85725000D01*
X176530000Y-87630000D02*
X175260000Y-88900000D01*
X141605000Y-92075000D02*
X141605000Y-86360000D01*
X165735000Y-109220000D02*
X177800000Y-109220000D01*
X161290000Y-138430000D02*
X161290000Y-135890000D01*
X163195000Y-134620000D02*
X163195000Y-131445000D01*
X162560000Y-135255000D02*
X163195000Y-134620000D01*
X163830000Y-109220000D02*
X165735000Y-109220000D01*
X178435000Y-108585000D02*
X178435000Y-101600000D01*
X177800000Y-109220000D02*
X178435000Y-108585000D01*
X177165000Y-87630000D02*
X176530000Y-87630000D01*
X134620000Y-112395000D02*
X134620000Y-113030000D01*
X134620000Y-113030000D02*
X135255000Y-113665000D01*
X135255000Y-113665000D02*
X139700000Y-113665000D01*
X139700000Y-113665000D02*
X140970000Y-114935000D01*
X140970000Y-114935000D02*
X140970000Y-125730000D01*
X140970000Y-128905000D02*
X140970000Y-130175000D01*
X140970000Y-130175000D02*
X141605000Y-130810000D01*
X141605000Y-130810000D02*
X158115000Y-130810000D01*
X158115000Y-130810000D02*
X158750000Y-131445000D01*
X158750000Y-131445000D02*
X158750000Y-138430000D01*
X138430000Y-125730000D02*
X138430000Y-114935000D01*
X156210000Y-132080000D02*
X155575000Y-131445000D01*
X155575000Y-131445000D02*
X139065000Y-131445000D01*
X139065000Y-131445000D02*
X138430000Y-130810000D01*
X138430000Y-130810000D02*
X138430000Y-128905000D01*
X156210000Y-138430000D02*
X156210000Y-132080000D01*
X132080000Y-113665000D02*
X132080000Y-112395000D01*
X132715000Y-114300000D02*
X132080000Y-113665000D01*
X137795000Y-114300000D02*
X132715000Y-114300000D01*
X138430000Y-114935000D02*
X137795000Y-114300000D01*
X135890000Y-129540000D02*
X135890000Y-131445000D01*
X153035000Y-132080000D02*
X153670000Y-132715000D01*
X136525000Y-132080000D02*
X153035000Y-132080000D01*
X135890000Y-131445000D02*
X136525000Y-132080000D01*
X129540000Y-112395000D02*
X129540000Y-114300000D01*
X153670000Y-132715000D02*
X153670000Y-138430000D01*
X135890000Y-128905000D02*
X135890000Y-129540000D01*
X135890000Y-115570000D02*
X135890000Y-125730000D01*
X135255000Y-114935000D02*
X135890000Y-115570000D01*
X130175000Y-114935000D02*
X135255000Y-114935000D01*
X129540000Y-114300000D02*
X130175000Y-114935000D01*
X127000000Y-114935000D02*
X127000000Y-115570000D01*
X132715000Y-116205000D02*
X133350000Y-116840000D01*
X127635000Y-116205000D02*
X132715000Y-116205000D01*
X127000000Y-115570000D02*
X127635000Y-116205000D01*
X133350000Y-125730000D02*
X133350000Y-116840000D01*
X133350000Y-130175000D02*
X133350000Y-132080000D01*
X150495000Y-132715000D02*
X151130000Y-133350000D01*
X133985000Y-132715000D02*
X150495000Y-132715000D01*
X133350000Y-132080000D02*
X133985000Y-132715000D01*
X151130000Y-138430000D02*
X151130000Y-133350000D01*
X133350000Y-130175000D02*
X133350000Y-128905000D01*
X127000000Y-114935000D02*
X127000000Y-112395000D01*
X143510000Y-136525000D02*
X142875000Y-135890000D01*
X142875000Y-135890000D02*
X140335000Y-135890000D01*
X140335000Y-135890000D02*
X139700000Y-135255000D01*
X139700000Y-135255000D02*
X139700000Y-133350000D01*
X143510000Y-136525000D02*
X143510000Y-138430000D01*
X127000000Y-127635000D02*
X127000000Y-127000000D01*
X127000000Y-127000000D02*
X127635000Y-126365000D01*
X127635000Y-126365000D02*
X130175000Y-126365000D01*
X130175000Y-126365000D02*
X130810000Y-127000000D01*
X130810000Y-127000000D02*
X130810000Y-135890000D01*
X130810000Y-135890000D02*
X131445000Y-136525000D01*
X140335000Y-136525000D02*
X140970000Y-137160000D01*
X140970000Y-137160000D02*
X140970000Y-138430000D01*
X120650000Y-95250000D02*
X121285000Y-94615000D01*
X121285000Y-89535000D02*
X121920000Y-88900000D01*
X121285000Y-94615000D02*
X121285000Y-89535000D01*
X118110000Y-114935000D02*
X118110000Y-118110000D01*
X118110000Y-118110000D02*
X117475000Y-118745000D01*
X117475000Y-118745000D02*
X104775000Y-118745000D01*
X104775000Y-118745000D02*
X104140000Y-119380000D01*
X104140000Y-127635000D02*
X104140000Y-119380000D01*
X127000000Y-88900000D02*
X128270000Y-90170000D01*
X121920000Y-88900000D02*
X127000000Y-88900000D01*
X120015000Y-95885000D02*
X120650000Y-95250000D01*
X118745000Y-95885000D02*
X120015000Y-95885000D01*
X129540000Y-127635000D02*
X129540000Y-137160000D01*
X129540000Y-137160000D02*
X130810000Y-138430000D01*
X123190000Y-138430000D02*
X123190000Y-128905000D01*
X123190000Y-128905000D02*
X124460000Y-127635000D01*
X120650000Y-138430000D02*
X120650000Y-128905000D01*
X120650000Y-128905000D02*
X121920000Y-127635000D01*
X118110000Y-138430000D02*
X118110000Y-128905000D01*
X118110000Y-128905000D02*
X119380000Y-127635000D01*
X115570000Y-138430000D02*
X115570000Y-128905000D01*
X115570000Y-128905000D02*
X116840000Y-127635000D01*
X113030000Y-138430000D02*
X113030000Y-128905000D01*
X113030000Y-128905000D02*
X114300000Y-127635000D01*
X110490000Y-138430000D02*
X110490000Y-128905000D01*
X110490000Y-128905000D02*
X111760000Y-127635000D01*
X107950000Y-138430000D02*
X107950000Y-128905000D01*
X107950000Y-128905000D02*
X109220000Y-127635000D01*
X106680000Y-127635000D02*
X105410000Y-128905000D01*
X105410000Y-128905000D02*
X105410000Y-130810000D01*
X105410000Y-132080000D02*
X105410000Y-130810000D01*
X105410000Y-138430000D02*
X105410000Y-132080000D01*
X125730000Y-87630000D02*
X120650000Y-87630000D01*
X95250000Y-137160000D02*
X95250000Y-138430000D01*
X115570000Y-113665000D02*
X115570000Y-117475000D01*
X115570000Y-117475000D02*
X114935000Y-118110000D01*
X114935000Y-118110000D02*
X103505000Y-118110000D01*
X103505000Y-118110000D02*
X102870000Y-118745000D01*
X102870000Y-118745000D02*
X102870000Y-128905000D01*
X95250000Y-130175000D02*
X95885000Y-129540000D01*
X95885000Y-129540000D02*
X102235000Y-129540000D01*
X102235000Y-129540000D02*
X102870000Y-128905000D01*
X95250000Y-137160000D02*
X95250000Y-130175000D01*
X119380000Y-95250000D02*
X117475000Y-95250000D01*
X120015000Y-94615000D02*
X119380000Y-95250000D01*
X120015000Y-88265000D02*
X120015000Y-94615000D01*
X120650000Y-87630000D02*
X120015000Y-88265000D01*
X97790000Y-113665000D02*
X97790000Y-114300000D01*
X104140000Y-114300000D02*
X104140000Y-113665000D01*
X103505000Y-114935000D02*
X104140000Y-114300000D01*
X98425000Y-114935000D02*
X103505000Y-114935000D01*
X97790000Y-114300000D02*
X98425000Y-114935000D01*
X97790000Y-90170000D02*
X97790000Y-113665000D01*
X104140000Y-113665000D02*
X104140000Y-112395000D01*
X106680000Y-106680000D02*
X106680000Y-105410000D01*
X106680000Y-105410000D02*
X99060000Y-97790000D01*
X106680000Y-108585000D02*
X106680000Y-106680000D01*
X99060000Y-88900000D02*
X97790000Y-87630000D01*
X99060000Y-97790000D02*
X99060000Y-88900000D01*
X106680000Y-112395000D02*
X106680000Y-108585000D01*
X100330000Y-90170000D02*
X100330000Y-97790000D01*
X108585000Y-106045000D02*
X109220000Y-106680000D01*
X109220000Y-106680000D02*
X109220000Y-107315000D01*
X108585000Y-106045000D02*
X101600000Y-99060000D01*
X109220000Y-107950000D02*
X109220000Y-107315000D01*
X109220000Y-107950000D02*
X109220000Y-112395000D01*
X100330000Y-87630000D02*
X101600000Y-88900000D01*
X101600000Y-88900000D02*
X101600000Y-99060000D01*
X102870000Y-112395000D02*
X102870000Y-113665000D01*
X102870000Y-102870000D02*
X102870000Y-112395000D01*
X102870000Y-90170000D02*
X102870000Y-99060000D01*
X99060000Y-113665000D02*
X99060000Y-112395000D01*
X99695000Y-114300000D02*
X99060000Y-113665000D01*
X102235000Y-114300000D02*
X99695000Y-114300000D01*
X102870000Y-113665000D02*
X102235000Y-114300000D01*
X109855000Y-106045000D02*
X111760000Y-107950000D01*
X109855000Y-106045000D02*
X104140000Y-100330000D01*
X111760000Y-112395000D02*
X111760000Y-107950000D01*
X104140000Y-88900000D02*
X102870000Y-87630000D01*
X104140000Y-100330000D02*
X104140000Y-88900000D01*
X96520000Y-112395000D02*
X96520000Y-92710000D01*
X96520000Y-92710000D02*
X97155000Y-92075000D01*
X110490000Y-105410000D02*
X106680000Y-101600000D01*
X106680000Y-101600000D02*
X106680000Y-88900000D01*
X106680000Y-88900000D02*
X105410000Y-87630000D01*
X110490000Y-105410000D02*
X114300000Y-109220000D01*
X114300000Y-112395000D02*
X114300000Y-109220000D01*
X93980000Y-116205000D02*
X93980000Y-127635000D01*
X94615000Y-115570000D02*
X93980000Y-116205000D01*
X104775000Y-115570000D02*
X94615000Y-115570000D01*
X105410000Y-114935000D02*
X104775000Y-115570000D01*
X105410000Y-113665000D02*
X105410000Y-114935000D01*
X109220000Y-102870000D02*
X109220000Y-88900000D01*
X111125000Y-104775000D02*
X109220000Y-102870000D01*
X109220000Y-88900000D02*
X107950000Y-87630000D01*
X111125000Y-104775000D02*
X116840000Y-110490000D01*
X116840000Y-112395000D02*
X116840000Y-110490000D01*
X96520000Y-127635000D02*
X96520000Y-116655002D01*
X107950000Y-115570000D02*
X107950000Y-113665000D01*
X107315000Y-116205000D02*
X107950000Y-115570000D01*
X96970002Y-116205000D02*
X107315000Y-116205000D01*
X96520000Y-116655002D02*
X96970002Y-116205000D01*
X119380000Y-112395000D02*
X119380000Y-111125000D01*
X119380000Y-111125000D02*
X111760000Y-103505000D01*
X111760000Y-93345000D02*
X111760000Y-103505000D01*
X110490000Y-87630000D02*
X111760000Y-88900000D01*
X111760000Y-92710000D02*
X111760000Y-93345000D01*
X111760000Y-88900000D02*
X111760000Y-92710000D01*
X119380000Y-111760000D02*
X119380000Y-112395000D01*
X99060000Y-117475000D02*
X99060000Y-127635000D01*
X99695000Y-116840000D02*
X99060000Y-117475000D01*
X109855000Y-116840000D02*
X99695000Y-116840000D01*
X110490000Y-116205000D02*
X109855000Y-116840000D01*
X110490000Y-115570000D02*
X110490000Y-116205000D01*
X110490000Y-113665000D02*
X110490000Y-115570000D01*
X114300000Y-92710000D02*
X114300000Y-104775000D01*
X114300000Y-104775000D02*
X121920000Y-112395000D01*
X114300000Y-88900000D02*
X113030000Y-87630000D01*
X114300000Y-92710000D02*
X114300000Y-88900000D01*
X101600000Y-127635000D02*
X101600000Y-118110000D01*
X113030000Y-116840000D02*
X113030000Y-113665000D01*
X112395000Y-117475000D02*
X113030000Y-116840000D01*
X102235000Y-117475000D02*
X112395000Y-117475000D01*
X101600000Y-118110000D02*
X102235000Y-117475000D01*
X124460000Y-112395000D02*
X123825000Y-112395000D01*
X123825000Y-112395000D02*
X116840000Y-105410000D01*
X116840000Y-92075000D02*
X116840000Y-104775000D01*
X116840000Y-105410000D02*
X116840000Y-104775000D01*
X115570000Y-87630000D02*
X116840000Y-88900000D01*
X116840000Y-88900000D02*
X116840000Y-92075000D01*
X122555000Y-94615000D02*
X123190000Y-93980000D01*
X128905000Y-93980000D02*
X129540000Y-93345000D01*
X123190000Y-93980000D02*
X128905000Y-93980000D01*
X128270000Y-87630000D02*
X129540000Y-88900000D01*
X129540000Y-88900000D02*
X129540000Y-93345000D01*
X135890000Y-135890000D02*
X135255000Y-135255000D01*
X135255000Y-135255000D02*
X132080000Y-135255000D01*
X132080000Y-135255000D02*
X131445000Y-135255000D01*
X128905000Y-135255000D02*
X126365000Y-135255000D01*
X126365000Y-135255000D02*
X125730000Y-134620000D01*
X125730000Y-134620000D02*
X125730000Y-127000000D01*
X135890000Y-135890000D02*
X135890000Y-138430000D01*
X125095000Y-126365000D02*
X121285000Y-126365000D01*
X125730000Y-127000000D02*
X125095000Y-126365000D01*
X120650000Y-125730000D02*
X120650000Y-113665000D01*
X121285000Y-126365000D02*
X120650000Y-125730000D01*
X122555000Y-94615000D02*
X120650000Y-96520000D01*
X184785000Y-125095000D02*
X188595000Y-125095000D01*
X184785000Y-127635000D02*
X188595000Y-127635000D01*
X184785000Y-130175000D02*
X188595000Y-130175000D01*
X173355000Y-122555000D02*
X172720000Y-122555000D01*
X172720000Y-122555000D02*
X171450000Y-123825000D01*
X147955000Y-123825000D02*
X146685000Y-122555000D01*
X171450000Y-123825000D02*
X147955000Y-123825000D01*
X154305000Y-117475000D02*
X156210000Y-117475000D01*
X156210000Y-117475000D02*
X157480000Y-118745000D01*
X169545000Y-120015000D02*
X164465000Y-120015000D01*
X164465000Y-120015000D02*
X163195000Y-118745000D01*
X163195000Y-118745000D02*
X157480000Y-118745000D01*
X167005000Y-122555000D02*
X166370000Y-121920000D01*
X165735000Y-116205000D02*
X164465000Y-116205000D01*
X166370000Y-116840000D02*
X165735000Y-116205000D01*
X169545000Y-122555000D02*
X167005000Y-122555000D01*
X155575000Y-116205000D02*
X154305000Y-114935000D01*
X164465000Y-116205000D02*
X155575000Y-116205000D01*
X179705000Y-108585000D02*
X179705000Y-101600000D01*
X179070000Y-97790000D02*
X178435000Y-97790000D01*
X179705000Y-98425000D02*
X179070000Y-97790000D01*
X173355000Y-130175000D02*
X173990000Y-130175000D01*
X173990000Y-130175000D02*
X175260000Y-128905000D01*
X175260000Y-128905000D02*
X180340000Y-128905000D01*
X180340000Y-128905000D02*
X180975000Y-128270000D01*
X180975000Y-128270000D02*
X180975000Y-125095000D01*
X179705000Y-109220000D02*
X179705000Y-108585000D01*
X178435000Y-97790000D02*
X177165000Y-97790000D01*
X145415000Y-92710000D02*
X145415000Y-94615000D01*
X145415000Y-94615000D02*
X144145000Y-95885000D01*
X145415000Y-90170000D02*
X145415000Y-92710000D01*
X145415000Y-110490000D02*
X144780000Y-110490000D01*
X144145000Y-99060000D02*
X144145000Y-95885000D01*
X144145000Y-109855000D02*
X144145000Y-103505000D01*
X144780000Y-110490000D02*
X144145000Y-109855000D01*
X149225000Y-114300000D02*
X149225000Y-111125000D01*
X148590000Y-110490000D02*
X145415000Y-110490000D01*
X149225000Y-111125000D02*
X148590000Y-110490000D01*
X146685000Y-120015000D02*
X146050000Y-120015000D01*
X169545000Y-114935000D02*
X168275000Y-113665000D01*
X168275000Y-113665000D02*
X149860000Y-113665000D01*
X149860000Y-113665000D02*
X149225000Y-114300000D01*
X148590000Y-120015000D02*
X146685000Y-120015000D01*
X149225000Y-119380000D02*
X148590000Y-120015000D01*
X153035000Y-87630000D02*
X154305000Y-87630000D01*
X154305000Y-87630000D02*
X161925000Y-87630000D01*
X150495000Y-87630000D02*
X153035000Y-87630000D01*
X147955000Y-87630000D02*
X150495000Y-87630000D01*
X145415000Y-87630000D02*
X147955000Y-87630000D01*
X130810000Y-87630000D02*
X140970000Y-87630000D01*
X166370000Y-86360000D02*
X142875000Y-86360000D01*
X167005000Y-86995000D02*
X166370000Y-86360000D01*
X167005000Y-90805000D02*
X167005000Y-86995000D01*
X167640000Y-91440000D02*
X167005000Y-90805000D01*
X175260000Y-91440000D02*
X167640000Y-91440000D01*
X175260000Y-91440000D02*
X176530000Y-92710000D01*
X177165000Y-92710000D02*
X176530000Y-92710000D01*
X169545000Y-130175000D02*
X168275000Y-128905000D01*
X147955000Y-128270000D02*
X147955000Y-126365000D01*
X148590000Y-128905000D02*
X147955000Y-128270000D01*
X168275000Y-128905000D02*
X148590000Y-128905000D01*
X161925000Y-127635000D02*
X160655000Y-126365000D01*
X147955000Y-114935000D02*
X146685000Y-114935000D01*
X148590000Y-115570000D02*
X147955000Y-114935000D01*
X149225000Y-126365000D02*
X148590000Y-125730000D01*
X160655000Y-126365000D02*
X149225000Y-126365000D01*
X153035000Y-104140000D02*
X153035000Y-103505000D01*
X151765000Y-117475000D02*
X152400000Y-116840000D01*
X152400000Y-111760000D02*
X152400000Y-109855000D01*
X152400000Y-109855000D02*
X153035000Y-109220000D01*
X153035000Y-109220000D02*
X153035000Y-104140000D01*
X146685000Y-117475000D02*
X151765000Y-117475000D01*
X160020000Y-95250000D02*
X161925000Y-95250000D01*
X159385000Y-95885000D02*
X160020000Y-95250000D01*
X159385000Y-97790000D02*
X159385000Y-95885000D01*
X158750000Y-98425000D02*
X159385000Y-97790000D01*
X154940000Y-98425000D02*
X158750000Y-98425000D01*
X153035000Y-103505000D02*
X153670000Y-102870000D01*
X184785000Y-100330000D02*
X177165000Y-100330000D01*
X147955000Y-93345000D02*
X147955000Y-95250000D01*
X145415000Y-95885000D02*
X144780000Y-96520000D01*
X147320000Y-95885000D02*
X145415000Y-95885000D01*
X147955000Y-95250000D02*
X147320000Y-95885000D01*
X147955000Y-90170000D02*
X147955000Y-93345000D01*
X146050000Y-109855000D02*
X145415000Y-109855000D01*
X145415000Y-109855000D02*
X144780000Y-109220000D01*
X144780000Y-109220000D02*
X144780000Y-104140000D01*
X144780000Y-99695000D02*
X144780000Y-96520000D01*
X146050000Y-109855000D02*
X149225000Y-109855000D01*
X149860000Y-110490000D02*
X149225000Y-109855000D01*
X149860000Y-113030000D02*
X149860000Y-110490000D01*
X146685000Y-125095000D02*
X149225000Y-125095000D01*
X149225000Y-125095000D02*
X154305000Y-125095000D01*
X150495000Y-90170000D02*
X150495000Y-93345000D01*
X151130000Y-93980000D02*
X152400000Y-93980000D01*
X150495000Y-93345000D02*
X151130000Y-93980000D01*
X153670000Y-104140000D02*
X154305000Y-103505000D01*
X154305000Y-94615000D02*
X154940000Y-93980000D01*
X154305000Y-99695000D02*
X154305000Y-94615000D01*
X154305000Y-103505000D02*
X154305000Y-102235000D01*
X153035000Y-111125000D02*
X153035000Y-110490000D01*
X153670000Y-109855000D02*
X153670000Y-104140000D01*
X153035000Y-110490000D02*
X153670000Y-109855000D01*
X177165000Y-95250000D02*
X176530000Y-95250000D01*
X176530000Y-95250000D02*
X175260000Y-93980000D01*
X175260000Y-93980000D02*
X154940000Y-93980000D01*
X154940000Y-93980000D02*
X153035000Y-93980000D01*
X153035000Y-93980000D02*
X152400000Y-93980000D01*
X154940000Y-91440000D02*
X154305000Y-91440000D01*
X185420000Y-102870000D02*
X186055000Y-102235000D01*
X186055000Y-97155000D02*
X186055000Y-102235000D01*
X185420000Y-96520000D02*
X186055000Y-97155000D01*
X168275000Y-96520000D02*
X185420000Y-96520000D01*
X166370000Y-91440000D02*
X167005000Y-92075000D01*
X154940000Y-91440000D02*
X166370000Y-91440000D01*
X167005000Y-95885000D02*
X167640000Y-96520000D01*
X167640000Y-96520000D02*
X168275000Y-96520000D01*
X154305000Y-91440000D02*
X153035000Y-90170000D01*
X185420000Y-102870000D02*
X184785000Y-102870000D01*
M02*
