G04 #@! TF.FileFunction,Legend,Top*
%FSLAX46Y46*%
G04 Gerber Fmt 4.6, Leading zero omitted, Abs format (unit mm)*
G04 Created by KiCad (PCBNEW 4.0.7) date 09/22/19 17:36:09*
%MOMM*%
%LPD*%
G01*
G04 APERTURE LIST*
%ADD10C,0.100000*%
%ADD11C,0.200000*%
%ADD12C,0.150000*%
%ADD13C,0.300000*%
%ADD14C,0.120000*%
G04 APERTURE END LIST*
D10*
D11*
X140970000Y-105410000D02*
X140970000Y-102870000D01*
X138430000Y-106680000D02*
X138430000Y-102870000D01*
X143510000Y-102870000D02*
X143510000Y-106680000D01*
D10*
X140386668Y-106996667D02*
X140153334Y-106663333D01*
X139986668Y-106996667D02*
X139986668Y-106296667D01*
X140253334Y-106296667D01*
X140320001Y-106330000D01*
X140353334Y-106363333D01*
X140386668Y-106430000D01*
X140386668Y-106530000D01*
X140353334Y-106596667D01*
X140320001Y-106630000D01*
X140253334Y-106663333D01*
X139986668Y-106663333D01*
X140686668Y-106996667D02*
X140686668Y-106296667D01*
X141153334Y-106296667D02*
X141286667Y-106296667D01*
X141353334Y-106330000D01*
X141420001Y-106396667D01*
X141453334Y-106530000D01*
X141453334Y-106763333D01*
X141420001Y-106896667D01*
X141353334Y-106963333D01*
X141286667Y-106996667D01*
X141153334Y-106996667D01*
X141086667Y-106963333D01*
X141020001Y-106896667D01*
X140986667Y-106763333D01*
X140986667Y-106530000D01*
X141020001Y-106396667D01*
X141086667Y-106330000D01*
X141153334Y-106296667D01*
X141653334Y-106296667D02*
X142053334Y-106296667D01*
X141853334Y-106996667D02*
X141853334Y-106296667D01*
D11*
X94615000Y-102870000D02*
X94615000Y-106680000D01*
X97155000Y-106680000D02*
X97155000Y-102870000D01*
X99695000Y-102870000D02*
X99695000Y-106680000D01*
X102235000Y-106680000D02*
X102235000Y-102870000D01*
X104775000Y-102870000D02*
X104775000Y-106680000D01*
X107315000Y-106680000D02*
X107315000Y-102870000D01*
D10*
X105495001Y-106996667D02*
X105261667Y-106663333D01*
X105095001Y-106996667D02*
X105095001Y-106296667D01*
X105361667Y-106296667D01*
X105428334Y-106330000D01*
X105461667Y-106363333D01*
X105495001Y-106430000D01*
X105495001Y-106530000D01*
X105461667Y-106596667D01*
X105428334Y-106630000D01*
X105361667Y-106663333D01*
X105095001Y-106663333D01*
X105928334Y-106296667D02*
X106061667Y-106296667D01*
X106128334Y-106330000D01*
X106195001Y-106396667D01*
X106228334Y-106530000D01*
X106228334Y-106763333D01*
X106195001Y-106896667D01*
X106128334Y-106963333D01*
X106061667Y-106996667D01*
X105928334Y-106996667D01*
X105861667Y-106963333D01*
X105795001Y-106896667D01*
X105761667Y-106763333D01*
X105761667Y-106530000D01*
X105795001Y-106396667D01*
X105861667Y-106330000D01*
X105928334Y-106296667D01*
X106528334Y-106996667D02*
X106528334Y-106296667D01*
X106761667Y-106796667D01*
X106995000Y-106296667D01*
X106995000Y-106996667D01*
X102955001Y-106996667D02*
X102721667Y-106663333D01*
X102555001Y-106996667D02*
X102555001Y-106296667D01*
X102821667Y-106296667D01*
X102888334Y-106330000D01*
X102921667Y-106363333D01*
X102955001Y-106430000D01*
X102955001Y-106530000D01*
X102921667Y-106596667D01*
X102888334Y-106630000D01*
X102821667Y-106663333D01*
X102555001Y-106663333D01*
X103388334Y-106296667D02*
X103521667Y-106296667D01*
X103588334Y-106330000D01*
X103655001Y-106396667D01*
X103688334Y-106530000D01*
X103688334Y-106763333D01*
X103655001Y-106896667D01*
X103588334Y-106963333D01*
X103521667Y-106996667D01*
X103388334Y-106996667D01*
X103321667Y-106963333D01*
X103255001Y-106896667D01*
X103221667Y-106763333D01*
X103221667Y-106530000D01*
X103255001Y-106396667D01*
X103321667Y-106330000D01*
X103388334Y-106296667D01*
X103988334Y-106996667D02*
X103988334Y-106296667D01*
X104221667Y-106796667D01*
X104455000Y-106296667D01*
X104455000Y-106996667D01*
X100481667Y-106996667D02*
X100248333Y-106663333D01*
X100081667Y-106996667D02*
X100081667Y-106296667D01*
X100348333Y-106296667D01*
X100415000Y-106330000D01*
X100448333Y-106363333D01*
X100481667Y-106430000D01*
X100481667Y-106530000D01*
X100448333Y-106596667D01*
X100415000Y-106630000D01*
X100348333Y-106663333D01*
X100081667Y-106663333D01*
X100748333Y-106796667D02*
X101081667Y-106796667D01*
X100681667Y-106996667D02*
X100915000Y-106296667D01*
X101148333Y-106996667D01*
X101381667Y-106996667D02*
X101381667Y-106296667D01*
X101615000Y-106796667D01*
X101848333Y-106296667D01*
X101848333Y-106996667D01*
X97941667Y-106996667D02*
X97708333Y-106663333D01*
X97541667Y-106996667D02*
X97541667Y-106296667D01*
X97808333Y-106296667D01*
X97875000Y-106330000D01*
X97908333Y-106363333D01*
X97941667Y-106430000D01*
X97941667Y-106530000D01*
X97908333Y-106596667D01*
X97875000Y-106630000D01*
X97808333Y-106663333D01*
X97541667Y-106663333D01*
X98208333Y-106796667D02*
X98541667Y-106796667D01*
X98141667Y-106996667D02*
X98375000Y-106296667D01*
X98608333Y-106996667D01*
X98841667Y-106996667D02*
X98841667Y-106296667D01*
X99075000Y-106796667D01*
X99308333Y-106296667D01*
X99308333Y-106996667D01*
X95401667Y-106996667D02*
X95168333Y-106663333D01*
X95001667Y-106996667D02*
X95001667Y-106296667D01*
X95268333Y-106296667D01*
X95335000Y-106330000D01*
X95368333Y-106363333D01*
X95401667Y-106430000D01*
X95401667Y-106530000D01*
X95368333Y-106596667D01*
X95335000Y-106630000D01*
X95268333Y-106663333D01*
X95001667Y-106663333D01*
X95668333Y-106796667D02*
X96001667Y-106796667D01*
X95601667Y-106996667D02*
X95835000Y-106296667D01*
X96068333Y-106996667D01*
X96301667Y-106996667D02*
X96301667Y-106296667D01*
X96535000Y-106796667D01*
X96768333Y-106296667D01*
X96768333Y-106996667D01*
X105949762Y-104889048D02*
X105911667Y-104965239D01*
X105873571Y-105003334D01*
X105797381Y-105041429D01*
X105759286Y-105041429D01*
X105683095Y-105003334D01*
X105645000Y-104965239D01*
X105606905Y-104889048D01*
X105606905Y-104736667D01*
X105645000Y-104660477D01*
X105683095Y-104622381D01*
X105759286Y-104584286D01*
X105797381Y-104584286D01*
X105873571Y-104622381D01*
X105911667Y-104660477D01*
X105949762Y-104736667D01*
X105949762Y-104889048D01*
X105987857Y-104965239D01*
X106025952Y-105003334D01*
X106102143Y-105041429D01*
X106254524Y-105041429D01*
X106330714Y-105003334D01*
X106368810Y-104965239D01*
X106406905Y-104889048D01*
X106406905Y-104736667D01*
X106368810Y-104660477D01*
X106330714Y-104622381D01*
X106254524Y-104584286D01*
X106102143Y-104584286D01*
X106025952Y-104622381D01*
X105987857Y-104660477D01*
X105949762Y-104736667D01*
X106406905Y-104241429D02*
X105606905Y-104241429D01*
X106406905Y-103784286D02*
X105949762Y-104127143D01*
X105606905Y-103784286D02*
X106064048Y-104241429D01*
X105606905Y-103517619D02*
X105606905Y-102984286D01*
X106406905Y-103327143D01*
D12*
X145725238Y-100115714D02*
X145725238Y-100925238D01*
X145677619Y-101020476D01*
X145630000Y-101068095D01*
X145534761Y-101115714D01*
X145391904Y-101115714D01*
X145296666Y-101068095D01*
X145725238Y-100734762D02*
X145630000Y-100782381D01*
X145439523Y-100782381D01*
X145344285Y-100734762D01*
X145296666Y-100687143D01*
X145249047Y-100591905D01*
X145249047Y-100306190D01*
X145296666Y-100210952D01*
X145344285Y-100163333D01*
X145439523Y-100115714D01*
X145630000Y-100115714D01*
X145725238Y-100163333D01*
X146201428Y-100782381D02*
X146201428Y-100115714D01*
X146201428Y-99782381D02*
X146153809Y-99830000D01*
X146201428Y-99877619D01*
X146249047Y-99830000D01*
X146201428Y-99782381D01*
X146201428Y-99877619D01*
X146534761Y-100115714D02*
X146915713Y-100115714D01*
X146677618Y-99782381D02*
X146677618Y-100639524D01*
X146725237Y-100734762D01*
X146820475Y-100782381D01*
X146915713Y-100782381D01*
X147249047Y-100782381D02*
X147249047Y-99782381D01*
X147677619Y-100782381D02*
X147677619Y-100258571D01*
X147630000Y-100163333D01*
X147534762Y-100115714D01*
X147391904Y-100115714D01*
X147296666Y-100163333D01*
X147249047Y-100210952D01*
X148582381Y-100115714D02*
X148582381Y-100782381D01*
X148153809Y-100115714D02*
X148153809Y-100639524D01*
X148201428Y-100734762D01*
X148296666Y-100782381D01*
X148439524Y-100782381D01*
X148534762Y-100734762D01*
X148582381Y-100687143D01*
X149058571Y-100782381D02*
X149058571Y-99782381D01*
X149058571Y-100163333D02*
X149153809Y-100115714D01*
X149344286Y-100115714D01*
X149439524Y-100163333D01*
X149487143Y-100210952D01*
X149534762Y-100306190D01*
X149534762Y-100591905D01*
X149487143Y-100687143D01*
X149439524Y-100734762D01*
X149344286Y-100782381D01*
X149153809Y-100782381D01*
X149058571Y-100734762D01*
X149963333Y-100687143D02*
X150010952Y-100734762D01*
X149963333Y-100782381D01*
X149915714Y-100734762D01*
X149963333Y-100687143D01*
X149963333Y-100782381D01*
X150868095Y-100734762D02*
X150772857Y-100782381D01*
X150582380Y-100782381D01*
X150487142Y-100734762D01*
X150439523Y-100687143D01*
X150391904Y-100591905D01*
X150391904Y-100306190D01*
X150439523Y-100210952D01*
X150487142Y-100163333D01*
X150582380Y-100115714D01*
X150772857Y-100115714D01*
X150868095Y-100163333D01*
X151439523Y-100782381D02*
X151344285Y-100734762D01*
X151296666Y-100687143D01*
X151249047Y-100591905D01*
X151249047Y-100306190D01*
X151296666Y-100210952D01*
X151344285Y-100163333D01*
X151439523Y-100115714D01*
X151582381Y-100115714D01*
X151677619Y-100163333D01*
X151725238Y-100210952D01*
X151772857Y-100306190D01*
X151772857Y-100591905D01*
X151725238Y-100687143D01*
X151677619Y-100734762D01*
X151582381Y-100782381D01*
X151439523Y-100782381D01*
X152201428Y-100782381D02*
X152201428Y-100115714D01*
X152201428Y-100210952D02*
X152249047Y-100163333D01*
X152344285Y-100115714D01*
X152487143Y-100115714D01*
X152582381Y-100163333D01*
X152630000Y-100258571D01*
X152630000Y-100782381D01*
X152630000Y-100258571D02*
X152677619Y-100163333D01*
X152772857Y-100115714D01*
X152915714Y-100115714D01*
X153010952Y-100163333D01*
X153058571Y-100258571D01*
X153058571Y-100782381D01*
X154249047Y-99734762D02*
X153391904Y-101020476D01*
X154439523Y-100115714D02*
X154820475Y-100115714D01*
X154582380Y-99782381D02*
X154582380Y-100639524D01*
X154629999Y-100734762D01*
X154725237Y-100782381D01*
X154820475Y-100782381D01*
X155534762Y-100734762D02*
X155439524Y-100782381D01*
X155249047Y-100782381D01*
X155153809Y-100734762D01*
X155106190Y-100639524D01*
X155106190Y-100258571D01*
X155153809Y-100163333D01*
X155249047Y-100115714D01*
X155439524Y-100115714D01*
X155534762Y-100163333D01*
X155582381Y-100258571D01*
X155582381Y-100353810D01*
X155106190Y-100449048D01*
X156010952Y-100782381D02*
X156010952Y-99782381D01*
X156010952Y-100163333D02*
X156106190Y-100115714D01*
X156296667Y-100115714D01*
X156391905Y-100163333D01*
X156439524Y-100210952D01*
X156487143Y-100306190D01*
X156487143Y-100591905D01*
X156439524Y-100687143D01*
X156391905Y-100734762D01*
X156296667Y-100782381D01*
X156106190Y-100782381D01*
X156010952Y-100734762D01*
X157058571Y-100782381D02*
X156963333Y-100734762D01*
X156915714Y-100639524D01*
X156915714Y-99782381D01*
X146201429Y-97877381D02*
X146010952Y-97877381D01*
X145915714Y-97925000D01*
X145868095Y-97972619D01*
X145772857Y-98115476D01*
X145725238Y-98305952D01*
X145725238Y-98686905D01*
X145772857Y-98782143D01*
X145820476Y-98829762D01*
X145915714Y-98877381D01*
X146106191Y-98877381D01*
X146201429Y-98829762D01*
X146249048Y-98782143D01*
X146296667Y-98686905D01*
X146296667Y-98448810D01*
X146249048Y-98353571D01*
X146201429Y-98305952D01*
X146106191Y-98258333D01*
X145915714Y-98258333D01*
X145820476Y-98305952D01*
X145772857Y-98353571D01*
X145725238Y-98448810D01*
X147201429Y-97877381D02*
X146725238Y-97877381D01*
X146677619Y-98353571D01*
X146725238Y-98305952D01*
X146820476Y-98258333D01*
X147058572Y-98258333D01*
X147153810Y-98305952D01*
X147201429Y-98353571D01*
X147249048Y-98448810D01*
X147249048Y-98686905D01*
X147201429Y-98782143D01*
X147153810Y-98829762D01*
X147058572Y-98877381D01*
X146820476Y-98877381D01*
X146725238Y-98829762D01*
X146677619Y-98782143D01*
X147677619Y-98877381D02*
X147677619Y-97877381D01*
X148249048Y-98877381D02*
X147820476Y-98305952D01*
X148249048Y-97877381D02*
X147677619Y-98448810D01*
X149439524Y-98353571D02*
X149772858Y-98353571D01*
X149915715Y-98877381D02*
X149439524Y-98877381D01*
X149439524Y-97877381D01*
X149915715Y-97877381D01*
X150249048Y-98877381D02*
X150772858Y-98210714D01*
X150249048Y-98210714D02*
X150772858Y-98877381D01*
X151153810Y-98210714D02*
X151153810Y-99210714D01*
X151153810Y-98258333D02*
X151249048Y-98210714D01*
X151439525Y-98210714D01*
X151534763Y-98258333D01*
X151582382Y-98305952D01*
X151630001Y-98401190D01*
X151630001Y-98686905D01*
X151582382Y-98782143D01*
X151534763Y-98829762D01*
X151439525Y-98877381D01*
X151249048Y-98877381D01*
X151153810Y-98829762D01*
X152487144Y-98877381D02*
X152487144Y-98353571D01*
X152439525Y-98258333D01*
X152344287Y-98210714D01*
X152153810Y-98210714D01*
X152058572Y-98258333D01*
X152487144Y-98829762D02*
X152391906Y-98877381D01*
X152153810Y-98877381D01*
X152058572Y-98829762D01*
X152010953Y-98734524D01*
X152010953Y-98639286D01*
X152058572Y-98544048D01*
X152153810Y-98496429D01*
X152391906Y-98496429D01*
X152487144Y-98448810D01*
X152963334Y-98210714D02*
X152963334Y-98877381D01*
X152963334Y-98305952D02*
X153010953Y-98258333D01*
X153106191Y-98210714D01*
X153249049Y-98210714D01*
X153344287Y-98258333D01*
X153391906Y-98353571D01*
X153391906Y-98877381D01*
X153820477Y-98829762D02*
X153915715Y-98877381D01*
X154106191Y-98877381D01*
X154201430Y-98829762D01*
X154249049Y-98734524D01*
X154249049Y-98686905D01*
X154201430Y-98591667D01*
X154106191Y-98544048D01*
X153963334Y-98544048D01*
X153868096Y-98496429D01*
X153820477Y-98401190D01*
X153820477Y-98353571D01*
X153868096Y-98258333D01*
X153963334Y-98210714D01*
X154106191Y-98210714D01*
X154201430Y-98258333D01*
X154677620Y-98877381D02*
X154677620Y-98210714D01*
X154677620Y-97877381D02*
X154630001Y-97925000D01*
X154677620Y-97972619D01*
X154725239Y-97925000D01*
X154677620Y-97877381D01*
X154677620Y-97972619D01*
X155296667Y-98877381D02*
X155201429Y-98829762D01*
X155153810Y-98782143D01*
X155106191Y-98686905D01*
X155106191Y-98401190D01*
X155153810Y-98305952D01*
X155201429Y-98258333D01*
X155296667Y-98210714D01*
X155439525Y-98210714D01*
X155534763Y-98258333D01*
X155582382Y-98305952D01*
X155630001Y-98401190D01*
X155630001Y-98686905D01*
X155582382Y-98782143D01*
X155534763Y-98829762D01*
X155439525Y-98877381D01*
X155296667Y-98877381D01*
X156058572Y-98210714D02*
X156058572Y-98877381D01*
X156058572Y-98305952D02*
X156106191Y-98258333D01*
X156201429Y-98210714D01*
X156344287Y-98210714D01*
X156439525Y-98258333D01*
X156487144Y-98353571D01*
X156487144Y-98877381D01*
D13*
X148300714Y-97198571D02*
X147800714Y-96484286D01*
X147443571Y-97198571D02*
X147443571Y-95698571D01*
X148014999Y-95698571D01*
X148157857Y-95770000D01*
X148229285Y-95841429D01*
X148300714Y-95984286D01*
X148300714Y-96198571D01*
X148229285Y-96341429D01*
X148157857Y-96412857D01*
X148014999Y-96484286D01*
X147443571Y-96484286D01*
X149800714Y-97055714D02*
X149729285Y-97127143D01*
X149514999Y-97198571D01*
X149372142Y-97198571D01*
X149157857Y-97127143D01*
X149014999Y-96984286D01*
X148943571Y-96841429D01*
X148872142Y-96555714D01*
X148872142Y-96341429D01*
X148943571Y-96055714D01*
X149014999Y-95912857D01*
X149157857Y-95770000D01*
X149372142Y-95698571D01*
X149514999Y-95698571D01*
X149729285Y-95770000D01*
X149800714Y-95841429D01*
X150443571Y-96627143D02*
X151586428Y-96627143D01*
X152586428Y-95698571D02*
X152872142Y-95698571D01*
X153015000Y-95770000D01*
X153157857Y-95912857D01*
X153229285Y-96198571D01*
X153229285Y-96698571D01*
X153157857Y-96984286D01*
X153015000Y-97127143D01*
X152872142Y-97198571D01*
X152586428Y-97198571D01*
X152443571Y-97127143D01*
X152300714Y-96984286D01*
X152229285Y-96698571D01*
X152229285Y-96198571D01*
X152300714Y-95912857D01*
X152443571Y-95770000D01*
X152586428Y-95698571D01*
X153872143Y-97198571D02*
X153872143Y-95698571D01*
X154729286Y-97198571D01*
X154729286Y-95698571D01*
X155443572Y-96412857D02*
X155943572Y-96412857D01*
X156157858Y-97198571D02*
X155443572Y-97198571D01*
X155443572Y-95698571D01*
X156157858Y-95698571D01*
D10*
X103066905Y-104965238D02*
X103066905Y-104812857D01*
X103105000Y-104736666D01*
X103181190Y-104660476D01*
X103333571Y-104622381D01*
X103600238Y-104622381D01*
X103752619Y-104660476D01*
X103828810Y-104736666D01*
X103866905Y-104812857D01*
X103866905Y-104965238D01*
X103828810Y-105041428D01*
X103752619Y-105117619D01*
X103600238Y-105155714D01*
X103333571Y-105155714D01*
X103181190Y-105117619D01*
X103105000Y-105041428D01*
X103066905Y-104965238D01*
X103866905Y-103822381D02*
X103485952Y-104089048D01*
X103866905Y-104279524D02*
X103066905Y-104279524D01*
X103066905Y-103974762D01*
X103105000Y-103898571D01*
X103143095Y-103860476D01*
X103219286Y-103822381D01*
X103333571Y-103822381D01*
X103409762Y-103860476D01*
X103447857Y-103898571D01*
X103485952Y-103974762D01*
X103485952Y-104279524D01*
X103105000Y-103060476D02*
X103066905Y-103136667D01*
X103066905Y-103250952D01*
X103105000Y-103365238D01*
X103181190Y-103441429D01*
X103257381Y-103479524D01*
X103409762Y-103517619D01*
X103524048Y-103517619D01*
X103676429Y-103479524D01*
X103752619Y-103441429D01*
X103828810Y-103365238D01*
X103866905Y-103250952D01*
X103866905Y-103174762D01*
X103828810Y-103060476D01*
X103790714Y-103022381D01*
X103524048Y-103022381D01*
X103524048Y-103174762D01*
X100869762Y-104889048D02*
X100831667Y-104965239D01*
X100793571Y-105003334D01*
X100717381Y-105041429D01*
X100679286Y-105041429D01*
X100603095Y-105003334D01*
X100565000Y-104965239D01*
X100526905Y-104889048D01*
X100526905Y-104736667D01*
X100565000Y-104660477D01*
X100603095Y-104622381D01*
X100679286Y-104584286D01*
X100717381Y-104584286D01*
X100793571Y-104622381D01*
X100831667Y-104660477D01*
X100869762Y-104736667D01*
X100869762Y-104889048D01*
X100907857Y-104965239D01*
X100945952Y-105003334D01*
X101022143Y-105041429D01*
X101174524Y-105041429D01*
X101250714Y-105003334D01*
X101288810Y-104965239D01*
X101326905Y-104889048D01*
X101326905Y-104736667D01*
X101288810Y-104660477D01*
X101250714Y-104622381D01*
X101174524Y-104584286D01*
X101022143Y-104584286D01*
X100945952Y-104622381D01*
X100907857Y-104660477D01*
X100869762Y-104736667D01*
X101326905Y-104241429D02*
X100526905Y-104241429D01*
X101326905Y-103784286D02*
X100869762Y-104127143D01*
X100526905Y-103784286D02*
X100984048Y-104241429D01*
X100526905Y-103517619D02*
X100526905Y-103022381D01*
X100831667Y-103289048D01*
X100831667Y-103174762D01*
X100869762Y-103098572D01*
X100907857Y-103060476D01*
X100984048Y-103022381D01*
X101174524Y-103022381D01*
X101250714Y-103060476D01*
X101288810Y-103098572D01*
X101326905Y-103174762D01*
X101326905Y-103403334D01*
X101288810Y-103479524D01*
X101250714Y-103517619D01*
X98329762Y-104889048D02*
X98291667Y-104965239D01*
X98253571Y-105003334D01*
X98177381Y-105041429D01*
X98139286Y-105041429D01*
X98063095Y-105003334D01*
X98025000Y-104965239D01*
X97986905Y-104889048D01*
X97986905Y-104736667D01*
X98025000Y-104660477D01*
X98063095Y-104622381D01*
X98139286Y-104584286D01*
X98177381Y-104584286D01*
X98253571Y-104622381D01*
X98291667Y-104660477D01*
X98329762Y-104736667D01*
X98329762Y-104889048D01*
X98367857Y-104965239D01*
X98405952Y-105003334D01*
X98482143Y-105041429D01*
X98634524Y-105041429D01*
X98710714Y-105003334D01*
X98748810Y-104965239D01*
X98786905Y-104889048D01*
X98786905Y-104736667D01*
X98748810Y-104660477D01*
X98710714Y-104622381D01*
X98634524Y-104584286D01*
X98482143Y-104584286D01*
X98405952Y-104622381D01*
X98367857Y-104660477D01*
X98329762Y-104736667D01*
X98786905Y-104241429D02*
X97986905Y-104241429D01*
X98786905Y-103784286D02*
X98329762Y-104127143D01*
X97986905Y-103784286D02*
X98444048Y-104241429D01*
X98063095Y-103479524D02*
X98025000Y-103441429D01*
X97986905Y-103365238D01*
X97986905Y-103174762D01*
X98025000Y-103098572D01*
X98063095Y-103060476D01*
X98139286Y-103022381D01*
X98215476Y-103022381D01*
X98329762Y-103060476D01*
X98786905Y-103517619D01*
X98786905Y-103022381D01*
X95789762Y-104889048D02*
X95751667Y-104965239D01*
X95713571Y-105003334D01*
X95637381Y-105041429D01*
X95599286Y-105041429D01*
X95523095Y-105003334D01*
X95485000Y-104965239D01*
X95446905Y-104889048D01*
X95446905Y-104736667D01*
X95485000Y-104660477D01*
X95523095Y-104622381D01*
X95599286Y-104584286D01*
X95637381Y-104584286D01*
X95713571Y-104622381D01*
X95751667Y-104660477D01*
X95789762Y-104736667D01*
X95789762Y-104889048D01*
X95827857Y-104965239D01*
X95865952Y-105003334D01*
X95942143Y-105041429D01*
X96094524Y-105041429D01*
X96170714Y-105003334D01*
X96208810Y-104965239D01*
X96246905Y-104889048D01*
X96246905Y-104736667D01*
X96208810Y-104660477D01*
X96170714Y-104622381D01*
X96094524Y-104584286D01*
X95942143Y-104584286D01*
X95865952Y-104622381D01*
X95827857Y-104660477D01*
X95789762Y-104736667D01*
X96246905Y-104241429D02*
X95446905Y-104241429D01*
X96246905Y-103784286D02*
X95789762Y-104127143D01*
X95446905Y-103784286D02*
X95904048Y-104241429D01*
X96246905Y-103022381D02*
X96246905Y-103479524D01*
X96246905Y-103250953D02*
X95446905Y-103250953D01*
X95561190Y-103327143D01*
X95637381Y-103403334D01*
X95675476Y-103479524D01*
X140061905Y-104660476D02*
X139261905Y-104660476D01*
X139261905Y-104127143D02*
X139261905Y-103974762D01*
X139300000Y-103898571D01*
X139376190Y-103822381D01*
X139528571Y-103784286D01*
X139795238Y-103784286D01*
X139947619Y-103822381D01*
X140023810Y-103898571D01*
X140061905Y-103974762D01*
X140061905Y-104127143D01*
X140023810Y-104203333D01*
X139947619Y-104279524D01*
X139795238Y-104317619D01*
X139528571Y-104317619D01*
X139376190Y-104279524D01*
X139300000Y-104203333D01*
X139261905Y-104127143D01*
X139261905Y-103517619D02*
X139261905Y-103022381D01*
X139566667Y-103289048D01*
X139566667Y-103174762D01*
X139604762Y-103098572D01*
X139642857Y-103060476D01*
X139719048Y-103022381D01*
X139909524Y-103022381D01*
X139985714Y-103060476D01*
X140023810Y-103098572D01*
X140061905Y-103174762D01*
X140061905Y-103403334D01*
X140023810Y-103479524D01*
X139985714Y-103517619D01*
X142601905Y-104698571D02*
X141801905Y-104698571D01*
X142601905Y-103860476D02*
X142220952Y-104127143D01*
X142601905Y-104317619D02*
X141801905Y-104317619D01*
X141801905Y-104012857D01*
X141840000Y-103936666D01*
X141878095Y-103898571D01*
X141954286Y-103860476D01*
X142068571Y-103860476D01*
X142144762Y-103898571D01*
X142182857Y-103936666D01*
X142220952Y-104012857D01*
X142220952Y-104317619D01*
X142678095Y-102984285D02*
X142640000Y-103060476D01*
X142563810Y-103136666D01*
X142449524Y-103250952D01*
X142411429Y-103327143D01*
X142411429Y-103403333D01*
X142601905Y-103365238D02*
X142563810Y-103441428D01*
X142487619Y-103517619D01*
X142335238Y-103555714D01*
X142068571Y-103555714D01*
X141916190Y-103517619D01*
X141840000Y-103441428D01*
X141801905Y-103365238D01*
X141801905Y-103212857D01*
X141840000Y-103136666D01*
X141916190Y-103060476D01*
X142068571Y-103022381D01*
X142335238Y-103022381D01*
X142487619Y-103060476D01*
X142563810Y-103136666D01*
X142601905Y-103212857D01*
X142601905Y-103365238D01*
X141664000Y-104889047D02*
X141664000Y-102870000D01*
D14*
X106720000Y-109945000D02*
X106720000Y-114765000D01*
X104100000Y-109945000D02*
X104100000Y-114765000D01*
X106720000Y-109945000D02*
X106406000Y-109945000D01*
X104414000Y-109945000D02*
X104100000Y-109945000D01*
X106720000Y-114765000D02*
X106406000Y-114765000D01*
X104414000Y-114765000D02*
X104100000Y-114765000D01*
X121960000Y-109945000D02*
X121960000Y-114765000D01*
X119340000Y-109945000D02*
X119340000Y-114765000D01*
X121960000Y-109945000D02*
X121646000Y-109945000D01*
X119654000Y-109945000D02*
X119340000Y-109945000D01*
X121960000Y-114765000D02*
X121646000Y-114765000D01*
X119654000Y-114765000D02*
X119340000Y-114765000D01*
X137200000Y-109945000D02*
X137200000Y-114765000D01*
X134580000Y-109945000D02*
X134580000Y-114765000D01*
X137200000Y-109945000D02*
X136886000Y-109945000D01*
X134894000Y-109945000D02*
X134580000Y-109945000D01*
X137200000Y-114765000D02*
X136886000Y-114765000D01*
X134894000Y-114765000D02*
X134580000Y-114765000D01*
X190560000Y-139870000D02*
X91380000Y-139870000D01*
X91380000Y-139870000D02*
X91380000Y-142530000D01*
X91380000Y-142530000D02*
X190560000Y-142530000D01*
X190560000Y-142530000D02*
X190560000Y-139870000D01*
X189610000Y-142530000D02*
X189610000Y-148530000D01*
X189610000Y-148530000D02*
X188850000Y-148530000D01*
X188850000Y-148530000D02*
X188850000Y-142530000D01*
X189550000Y-142530000D02*
X189550000Y-148530000D01*
X189430000Y-142530000D02*
X189430000Y-148530000D01*
X189310000Y-142530000D02*
X189310000Y-148530000D01*
X189190000Y-142530000D02*
X189190000Y-148530000D01*
X189070000Y-142530000D02*
X189070000Y-148530000D01*
X188950000Y-142530000D02*
X188950000Y-148530000D01*
X189610000Y-139540000D02*
X189610000Y-139870000D01*
X188850000Y-139540000D02*
X188850000Y-139870000D01*
X187960000Y-139870000D02*
X187960000Y-142530000D01*
X187070000Y-142530000D02*
X187070000Y-148530000D01*
X187070000Y-148530000D02*
X186310000Y-148530000D01*
X186310000Y-148530000D02*
X186310000Y-142530000D01*
X187070000Y-139472929D02*
X187070000Y-139870000D01*
X186310000Y-139472929D02*
X186310000Y-139870000D01*
X185420000Y-139870000D02*
X185420000Y-142530000D01*
X184530000Y-142530000D02*
X184530000Y-148530000D01*
X184530000Y-148530000D02*
X183770000Y-148530000D01*
X183770000Y-148530000D02*
X183770000Y-142530000D01*
X184530000Y-139472929D02*
X184530000Y-139870000D01*
X183770000Y-139472929D02*
X183770000Y-139870000D01*
X182880000Y-139870000D02*
X182880000Y-142530000D01*
X181990000Y-142530000D02*
X181990000Y-148530000D01*
X181990000Y-148530000D02*
X181230000Y-148530000D01*
X181230000Y-148530000D02*
X181230000Y-142530000D01*
X181990000Y-139472929D02*
X181990000Y-139870000D01*
X181230000Y-139472929D02*
X181230000Y-139870000D01*
X180340000Y-139870000D02*
X180340000Y-142530000D01*
X179450000Y-142530000D02*
X179450000Y-148530000D01*
X179450000Y-148530000D02*
X178690000Y-148530000D01*
X178690000Y-148530000D02*
X178690000Y-142530000D01*
X179450000Y-139472929D02*
X179450000Y-139870000D01*
X178690000Y-139472929D02*
X178690000Y-139870000D01*
X177800000Y-139870000D02*
X177800000Y-142530000D01*
X176910000Y-142530000D02*
X176910000Y-148530000D01*
X176910000Y-148530000D02*
X176150000Y-148530000D01*
X176150000Y-148530000D02*
X176150000Y-142530000D01*
X176910000Y-139472929D02*
X176910000Y-139870000D01*
X176150000Y-139472929D02*
X176150000Y-139870000D01*
X175260000Y-139870000D02*
X175260000Y-142530000D01*
X174370000Y-142530000D02*
X174370000Y-148530000D01*
X174370000Y-148530000D02*
X173610000Y-148530000D01*
X173610000Y-148530000D02*
X173610000Y-142530000D01*
X174370000Y-139472929D02*
X174370000Y-139870000D01*
X173610000Y-139472929D02*
X173610000Y-139870000D01*
X172720000Y-139870000D02*
X172720000Y-142530000D01*
X171830000Y-142530000D02*
X171830000Y-148530000D01*
X171830000Y-148530000D02*
X171070000Y-148530000D01*
X171070000Y-148530000D02*
X171070000Y-142530000D01*
X171830000Y-139472929D02*
X171830000Y-139870000D01*
X171070000Y-139472929D02*
X171070000Y-139870000D01*
X170180000Y-139870000D02*
X170180000Y-142530000D01*
X169290000Y-142530000D02*
X169290000Y-148530000D01*
X169290000Y-148530000D02*
X168530000Y-148530000D01*
X168530000Y-148530000D02*
X168530000Y-142530000D01*
X169290000Y-139472929D02*
X169290000Y-139870000D01*
X168530000Y-139472929D02*
X168530000Y-139870000D01*
X167640000Y-139870000D02*
X167640000Y-142530000D01*
X166750000Y-142530000D02*
X166750000Y-148530000D01*
X166750000Y-148530000D02*
X165990000Y-148530000D01*
X165990000Y-148530000D02*
X165990000Y-142530000D01*
X166750000Y-139472929D02*
X166750000Y-139870000D01*
X165990000Y-139472929D02*
X165990000Y-139870000D01*
X165100000Y-139870000D02*
X165100000Y-142530000D01*
X164210000Y-142530000D02*
X164210000Y-148530000D01*
X164210000Y-148530000D02*
X163450000Y-148530000D01*
X163450000Y-148530000D02*
X163450000Y-142530000D01*
X164210000Y-139472929D02*
X164210000Y-139870000D01*
X163450000Y-139472929D02*
X163450000Y-139870000D01*
X162560000Y-139870000D02*
X162560000Y-142530000D01*
X161670000Y-142530000D02*
X161670000Y-148530000D01*
X161670000Y-148530000D02*
X160910000Y-148530000D01*
X160910000Y-148530000D02*
X160910000Y-142530000D01*
X161670000Y-139472929D02*
X161670000Y-139870000D01*
X160910000Y-139472929D02*
X160910000Y-139870000D01*
X160020000Y-139870000D02*
X160020000Y-142530000D01*
X159130000Y-142530000D02*
X159130000Y-148530000D01*
X159130000Y-148530000D02*
X158370000Y-148530000D01*
X158370000Y-148530000D02*
X158370000Y-142530000D01*
X159130000Y-139472929D02*
X159130000Y-139870000D01*
X158370000Y-139472929D02*
X158370000Y-139870000D01*
X157480000Y-139870000D02*
X157480000Y-142530000D01*
X156590000Y-142530000D02*
X156590000Y-148530000D01*
X156590000Y-148530000D02*
X155830000Y-148530000D01*
X155830000Y-148530000D02*
X155830000Y-142530000D01*
X156590000Y-139472929D02*
X156590000Y-139870000D01*
X155830000Y-139472929D02*
X155830000Y-139870000D01*
X154940000Y-139870000D02*
X154940000Y-142530000D01*
X154050000Y-142530000D02*
X154050000Y-148530000D01*
X154050000Y-148530000D02*
X153290000Y-148530000D01*
X153290000Y-148530000D02*
X153290000Y-142530000D01*
X154050000Y-139472929D02*
X154050000Y-139870000D01*
X153290000Y-139472929D02*
X153290000Y-139870000D01*
X152400000Y-139870000D02*
X152400000Y-142530000D01*
X151510000Y-142530000D02*
X151510000Y-148530000D01*
X151510000Y-148530000D02*
X150750000Y-148530000D01*
X150750000Y-148530000D02*
X150750000Y-142530000D01*
X151510000Y-139472929D02*
X151510000Y-139870000D01*
X150750000Y-139472929D02*
X150750000Y-139870000D01*
X149860000Y-139870000D02*
X149860000Y-142530000D01*
X148970000Y-142530000D02*
X148970000Y-148530000D01*
X148970000Y-148530000D02*
X148210000Y-148530000D01*
X148210000Y-148530000D02*
X148210000Y-142530000D01*
X148970000Y-139472929D02*
X148970000Y-139870000D01*
X148210000Y-139472929D02*
X148210000Y-139870000D01*
X147320000Y-139870000D02*
X147320000Y-142530000D01*
X146430000Y-142530000D02*
X146430000Y-148530000D01*
X146430000Y-148530000D02*
X145670000Y-148530000D01*
X145670000Y-148530000D02*
X145670000Y-142530000D01*
X146430000Y-139472929D02*
X146430000Y-139870000D01*
X145670000Y-139472929D02*
X145670000Y-139870000D01*
X144780000Y-139870000D02*
X144780000Y-142530000D01*
X143890000Y-142530000D02*
X143890000Y-148530000D01*
X143890000Y-148530000D02*
X143130000Y-148530000D01*
X143130000Y-148530000D02*
X143130000Y-142530000D01*
X143890000Y-139472929D02*
X143890000Y-139870000D01*
X143130000Y-139472929D02*
X143130000Y-139870000D01*
X142240000Y-139870000D02*
X142240000Y-142530000D01*
X141350000Y-142530000D02*
X141350000Y-148530000D01*
X141350000Y-148530000D02*
X140590000Y-148530000D01*
X140590000Y-148530000D02*
X140590000Y-142530000D01*
X141350000Y-139472929D02*
X141350000Y-139870000D01*
X140590000Y-139472929D02*
X140590000Y-139870000D01*
X139700000Y-139870000D02*
X139700000Y-142530000D01*
X138810000Y-142530000D02*
X138810000Y-148530000D01*
X138810000Y-148530000D02*
X138050000Y-148530000D01*
X138050000Y-148530000D02*
X138050000Y-142530000D01*
X138810000Y-139472929D02*
X138810000Y-139870000D01*
X138050000Y-139472929D02*
X138050000Y-139870000D01*
X137160000Y-139870000D02*
X137160000Y-142530000D01*
X136270000Y-142530000D02*
X136270000Y-148530000D01*
X136270000Y-148530000D02*
X135510000Y-148530000D01*
X135510000Y-148530000D02*
X135510000Y-142530000D01*
X136270000Y-139472929D02*
X136270000Y-139870000D01*
X135510000Y-139472929D02*
X135510000Y-139870000D01*
X134620000Y-139870000D02*
X134620000Y-142530000D01*
X133730000Y-142530000D02*
X133730000Y-148530000D01*
X133730000Y-148530000D02*
X132970000Y-148530000D01*
X132970000Y-148530000D02*
X132970000Y-142530000D01*
X133730000Y-139472929D02*
X133730000Y-139870000D01*
X132970000Y-139472929D02*
X132970000Y-139870000D01*
X132080000Y-139870000D02*
X132080000Y-142530000D01*
X131190000Y-142530000D02*
X131190000Y-148530000D01*
X131190000Y-148530000D02*
X130430000Y-148530000D01*
X130430000Y-148530000D02*
X130430000Y-142530000D01*
X131190000Y-139472929D02*
X131190000Y-139870000D01*
X130430000Y-139472929D02*
X130430000Y-139870000D01*
X129540000Y-139870000D02*
X129540000Y-142530000D01*
X128650000Y-142530000D02*
X128650000Y-148530000D01*
X128650000Y-148530000D02*
X127890000Y-148530000D01*
X127890000Y-148530000D02*
X127890000Y-142530000D01*
X128650000Y-139472929D02*
X128650000Y-139870000D01*
X127890000Y-139472929D02*
X127890000Y-139870000D01*
X127000000Y-139870000D02*
X127000000Y-142530000D01*
X126110000Y-142530000D02*
X126110000Y-148530000D01*
X126110000Y-148530000D02*
X125350000Y-148530000D01*
X125350000Y-148530000D02*
X125350000Y-142530000D01*
X126110000Y-139472929D02*
X126110000Y-139870000D01*
X125350000Y-139472929D02*
X125350000Y-139870000D01*
X124460000Y-139870000D02*
X124460000Y-142530000D01*
X123570000Y-142530000D02*
X123570000Y-148530000D01*
X123570000Y-148530000D02*
X122810000Y-148530000D01*
X122810000Y-148530000D02*
X122810000Y-142530000D01*
X123570000Y-139472929D02*
X123570000Y-139870000D01*
X122810000Y-139472929D02*
X122810000Y-139870000D01*
X121920000Y-139870000D02*
X121920000Y-142530000D01*
X121030000Y-142530000D02*
X121030000Y-148530000D01*
X121030000Y-148530000D02*
X120270000Y-148530000D01*
X120270000Y-148530000D02*
X120270000Y-142530000D01*
X121030000Y-139472929D02*
X121030000Y-139870000D01*
X120270000Y-139472929D02*
X120270000Y-139870000D01*
X119380000Y-139870000D02*
X119380000Y-142530000D01*
X118490000Y-142530000D02*
X118490000Y-148530000D01*
X118490000Y-148530000D02*
X117730000Y-148530000D01*
X117730000Y-148530000D02*
X117730000Y-142530000D01*
X118490000Y-139472929D02*
X118490000Y-139870000D01*
X117730000Y-139472929D02*
X117730000Y-139870000D01*
X116840000Y-139870000D02*
X116840000Y-142530000D01*
X115950000Y-142530000D02*
X115950000Y-148530000D01*
X115950000Y-148530000D02*
X115190000Y-148530000D01*
X115190000Y-148530000D02*
X115190000Y-142530000D01*
X115950000Y-139472929D02*
X115950000Y-139870000D01*
X115190000Y-139472929D02*
X115190000Y-139870000D01*
X114300000Y-139870000D02*
X114300000Y-142530000D01*
X113410000Y-142530000D02*
X113410000Y-148530000D01*
X113410000Y-148530000D02*
X112650000Y-148530000D01*
X112650000Y-148530000D02*
X112650000Y-142530000D01*
X113410000Y-139472929D02*
X113410000Y-139870000D01*
X112650000Y-139472929D02*
X112650000Y-139870000D01*
X111760000Y-139870000D02*
X111760000Y-142530000D01*
X110870000Y-142530000D02*
X110870000Y-148530000D01*
X110870000Y-148530000D02*
X110110000Y-148530000D01*
X110110000Y-148530000D02*
X110110000Y-142530000D01*
X110870000Y-139472929D02*
X110870000Y-139870000D01*
X110110000Y-139472929D02*
X110110000Y-139870000D01*
X109220000Y-139870000D02*
X109220000Y-142530000D01*
X108330000Y-142530000D02*
X108330000Y-148530000D01*
X108330000Y-148530000D02*
X107570000Y-148530000D01*
X107570000Y-148530000D02*
X107570000Y-142530000D01*
X108330000Y-139472929D02*
X108330000Y-139870000D01*
X107570000Y-139472929D02*
X107570000Y-139870000D01*
X106680000Y-139870000D02*
X106680000Y-142530000D01*
X105790000Y-142530000D02*
X105790000Y-148530000D01*
X105790000Y-148530000D02*
X105030000Y-148530000D01*
X105030000Y-148530000D02*
X105030000Y-142530000D01*
X105790000Y-139472929D02*
X105790000Y-139870000D01*
X105030000Y-139472929D02*
X105030000Y-139870000D01*
X104140000Y-139870000D02*
X104140000Y-142530000D01*
X103250000Y-142530000D02*
X103250000Y-148530000D01*
X103250000Y-148530000D02*
X102490000Y-148530000D01*
X102490000Y-148530000D02*
X102490000Y-142530000D01*
X103250000Y-139472929D02*
X103250000Y-139870000D01*
X102490000Y-139472929D02*
X102490000Y-139870000D01*
X101600000Y-139870000D02*
X101600000Y-142530000D01*
X100710000Y-142530000D02*
X100710000Y-148530000D01*
X100710000Y-148530000D02*
X99950000Y-148530000D01*
X99950000Y-148530000D02*
X99950000Y-142530000D01*
X100710000Y-139472929D02*
X100710000Y-139870000D01*
X99950000Y-139472929D02*
X99950000Y-139870000D01*
X99060000Y-139870000D02*
X99060000Y-142530000D01*
X98170000Y-142530000D02*
X98170000Y-148530000D01*
X98170000Y-148530000D02*
X97410000Y-148530000D01*
X97410000Y-148530000D02*
X97410000Y-142530000D01*
X98170000Y-139472929D02*
X98170000Y-139870000D01*
X97410000Y-139472929D02*
X97410000Y-139870000D01*
X96520000Y-139870000D02*
X96520000Y-142530000D01*
X95630000Y-142530000D02*
X95630000Y-148530000D01*
X95630000Y-148530000D02*
X94870000Y-148530000D01*
X94870000Y-148530000D02*
X94870000Y-142530000D01*
X95630000Y-139472929D02*
X95630000Y-139870000D01*
X94870000Y-139472929D02*
X94870000Y-139870000D01*
X93980000Y-139870000D02*
X93980000Y-142530000D01*
X93090000Y-142530000D02*
X93090000Y-148530000D01*
X93090000Y-148530000D02*
X92330000Y-148530000D01*
X92330000Y-148530000D02*
X92330000Y-142530000D01*
X93090000Y-139472929D02*
X93090000Y-139870000D01*
X92330000Y-139472929D02*
X92330000Y-139870000D01*
X189230000Y-137160000D02*
X190500000Y-137160000D01*
X190500000Y-137160000D02*
X190500000Y-138430000D01*
X94555000Y-102295000D02*
X97215000Y-102295000D01*
X94555000Y-97155000D02*
X94555000Y-102295000D01*
X97215000Y-97155000D02*
X97215000Y-102295000D01*
X94555000Y-97155000D02*
X97215000Y-97155000D01*
X94555000Y-95885000D02*
X94555000Y-94555000D01*
X94555000Y-94555000D02*
X95885000Y-94555000D01*
X97095000Y-102295000D02*
X99755000Y-102295000D01*
X97095000Y-97155000D02*
X97095000Y-102295000D01*
X99755000Y-97155000D02*
X99755000Y-102295000D01*
X97095000Y-97155000D02*
X99755000Y-97155000D01*
X97095000Y-95885000D02*
X97095000Y-94555000D01*
X97095000Y-94555000D02*
X98425000Y-94555000D01*
X102175000Y-102295000D02*
X104835000Y-102295000D01*
X102175000Y-97155000D02*
X102175000Y-102295000D01*
X104835000Y-97155000D02*
X104835000Y-102295000D01*
X102175000Y-97155000D02*
X104835000Y-97155000D01*
X102175000Y-95885000D02*
X102175000Y-94555000D01*
X102175000Y-94555000D02*
X103505000Y-94555000D01*
X99635000Y-102295000D02*
X102295000Y-102295000D01*
X99635000Y-97155000D02*
X99635000Y-102295000D01*
X102295000Y-97155000D02*
X102295000Y-102295000D01*
X99635000Y-97155000D02*
X102295000Y-97155000D01*
X99635000Y-95885000D02*
X99635000Y-94555000D01*
X99635000Y-94555000D02*
X100965000Y-94555000D01*
X122590000Y-101640000D02*
X122590000Y-99020000D01*
X122590000Y-99020000D02*
X116170000Y-99020000D01*
X116170000Y-99020000D02*
X116170000Y-101640000D01*
X116170000Y-101640000D02*
X122590000Y-101640000D01*
X123480000Y-100330000D02*
X122590000Y-100330000D01*
X115280000Y-100330000D02*
X116170000Y-100330000D01*
X122590000Y-97830000D02*
X122590000Y-95210000D01*
X122590000Y-95210000D02*
X116170000Y-95210000D01*
X116170000Y-95210000D02*
X116170000Y-97830000D01*
X116170000Y-97830000D02*
X122590000Y-97830000D01*
X123480000Y-96520000D02*
X122590000Y-96520000D01*
X115280000Y-96520000D02*
X116170000Y-96520000D01*
X98790000Y-108525000D02*
G75*
G02X96790000Y-108525000I-1000000J0D01*
G01*
X96790000Y-108525000D02*
X95140000Y-108525000D01*
X95140000Y-108525000D02*
X95140000Y-128965000D01*
X95140000Y-128965000D02*
X100440000Y-128965000D01*
X100440000Y-128965000D02*
X100440000Y-108525000D01*
X100440000Y-108525000D02*
X98790000Y-108525000D01*
X92650000Y-108465000D02*
X92650000Y-129025000D01*
X92650000Y-129025000D02*
X102930000Y-129025000D01*
X102930000Y-129025000D02*
X102930000Y-108465000D01*
X102930000Y-108465000D02*
X92650000Y-108465000D01*
X114030000Y-108525000D02*
G75*
G02X112030000Y-108525000I-1000000J0D01*
G01*
X112030000Y-108525000D02*
X110380000Y-108525000D01*
X110380000Y-108525000D02*
X110380000Y-128965000D01*
X110380000Y-128965000D02*
X115680000Y-128965000D01*
X115680000Y-128965000D02*
X115680000Y-108525000D01*
X115680000Y-108525000D02*
X114030000Y-108525000D01*
X107890000Y-108465000D02*
X107890000Y-129025000D01*
X107890000Y-129025000D02*
X118170000Y-129025000D01*
X118170000Y-129025000D02*
X118170000Y-108465000D01*
X118170000Y-108465000D02*
X107890000Y-108465000D01*
X129270000Y-108525000D02*
G75*
G02X127270000Y-108525000I-1000000J0D01*
G01*
X127270000Y-108525000D02*
X125620000Y-108525000D01*
X125620000Y-108525000D02*
X125620000Y-126425000D01*
X125620000Y-126425000D02*
X130920000Y-126425000D01*
X130920000Y-126425000D02*
X130920000Y-108525000D01*
X130920000Y-108525000D02*
X129270000Y-108525000D01*
X123130000Y-108465000D02*
X123130000Y-126485000D01*
X123130000Y-126485000D02*
X133410000Y-126485000D01*
X133410000Y-126485000D02*
X133410000Y-108465000D01*
X133410000Y-108465000D02*
X123130000Y-108465000D01*
X138370000Y-116475000D02*
G75*
G02X138370000Y-118475000I0J-1000000D01*
G01*
X138370000Y-118475000D02*
X138370000Y-123935000D01*
X138370000Y-123935000D02*
X189290000Y-123935000D01*
X189290000Y-123935000D02*
X189290000Y-111015000D01*
X189290000Y-111015000D02*
X138370000Y-111015000D01*
X138370000Y-111015000D02*
X138370000Y-116475000D01*
X138310000Y-126425000D02*
X189350000Y-126425000D01*
X189350000Y-126425000D02*
X189350000Y-108525000D01*
X189350000Y-108525000D02*
X138310000Y-108525000D01*
X138310000Y-108525000D02*
X138310000Y-126425000D01*
X187870000Y-130215000D02*
X183050000Y-130215000D01*
X187870000Y-127595000D02*
X183050000Y-127595000D01*
X187870000Y-130215000D02*
X187870000Y-129901000D01*
X187870000Y-127909000D02*
X187870000Y-127595000D01*
X183050000Y-130215000D02*
X183050000Y-129901000D01*
X183050000Y-127909000D02*
X183050000Y-127595000D01*
X138370000Y-102295000D02*
X141030000Y-102295000D01*
X138370000Y-97155000D02*
X138370000Y-102295000D01*
X141030000Y-97155000D02*
X141030000Y-102295000D01*
X138370000Y-97155000D02*
X141030000Y-97155000D01*
X138370000Y-95885000D02*
X138370000Y-94555000D01*
X138370000Y-94555000D02*
X139700000Y-94555000D01*
X158690000Y-94555000D02*
X158690000Y-99755000D01*
X181610000Y-94555000D02*
X158690000Y-94555000D01*
X184210000Y-99755000D02*
X158690000Y-99755000D01*
X181610000Y-94555000D02*
X181610000Y-97155000D01*
X181610000Y-97155000D02*
X184210000Y-97155000D01*
X184210000Y-97155000D02*
X184210000Y-99755000D01*
X182880000Y-94555000D02*
X184210000Y-94555000D01*
X184210000Y-94555000D02*
X184210000Y-95885000D01*
X140910000Y-102295000D02*
X143570000Y-102295000D01*
X140910000Y-97155000D02*
X140910000Y-102295000D01*
X143570000Y-97155000D02*
X143570000Y-102295000D01*
X140910000Y-97155000D02*
X143570000Y-97155000D01*
X140910000Y-95885000D02*
X140910000Y-94555000D01*
X140910000Y-94555000D02*
X142240000Y-94555000D01*
X104715000Y-102295000D02*
X107375000Y-102295000D01*
X104715000Y-97155000D02*
X104715000Y-102295000D01*
X107375000Y-97155000D02*
X107375000Y-102295000D01*
X104715000Y-97155000D02*
X107375000Y-97155000D01*
X104715000Y-95885000D02*
X104715000Y-94555000D01*
X104715000Y-94555000D02*
X106045000Y-94555000D01*
X104080000Y-128965000D02*
X106740000Y-128965000D01*
X104080000Y-123825000D02*
X104080000Y-128965000D01*
X106740000Y-123825000D02*
X106740000Y-128965000D01*
X104080000Y-123825000D02*
X106740000Y-123825000D01*
X104080000Y-122555000D02*
X104080000Y-121225000D01*
X104080000Y-121225000D02*
X105410000Y-121225000D01*
D12*
X105767143Y-112561666D02*
X105814762Y-112609285D01*
X105862381Y-112752142D01*
X105862381Y-112847380D01*
X105814762Y-112990238D01*
X105719524Y-113085476D01*
X105624286Y-113133095D01*
X105433810Y-113180714D01*
X105290952Y-113180714D01*
X105100476Y-113133095D01*
X105005238Y-113085476D01*
X104910000Y-112990238D01*
X104862381Y-112847380D01*
X104862381Y-112752142D01*
X104910000Y-112609285D01*
X104957619Y-112561666D01*
X105862381Y-111609285D02*
X105862381Y-112180714D01*
X105862381Y-111895000D02*
X104862381Y-111895000D01*
X105005238Y-111990238D01*
X105100476Y-112085476D01*
X105148095Y-112180714D01*
X121007143Y-112561666D02*
X121054762Y-112609285D01*
X121102381Y-112752142D01*
X121102381Y-112847380D01*
X121054762Y-112990238D01*
X120959524Y-113085476D01*
X120864286Y-113133095D01*
X120673810Y-113180714D01*
X120530952Y-113180714D01*
X120340476Y-113133095D01*
X120245238Y-113085476D01*
X120150000Y-112990238D01*
X120102381Y-112847380D01*
X120102381Y-112752142D01*
X120150000Y-112609285D01*
X120197619Y-112561666D01*
X120197619Y-112180714D02*
X120150000Y-112133095D01*
X120102381Y-112037857D01*
X120102381Y-111799761D01*
X120150000Y-111704523D01*
X120197619Y-111656904D01*
X120292857Y-111609285D01*
X120388095Y-111609285D01*
X120530952Y-111656904D01*
X121102381Y-112228333D01*
X121102381Y-111609285D01*
X136247143Y-112561666D02*
X136294762Y-112609285D01*
X136342381Y-112752142D01*
X136342381Y-112847380D01*
X136294762Y-112990238D01*
X136199524Y-113085476D01*
X136104286Y-113133095D01*
X135913810Y-113180714D01*
X135770952Y-113180714D01*
X135580476Y-113133095D01*
X135485238Y-113085476D01*
X135390000Y-112990238D01*
X135342381Y-112847380D01*
X135342381Y-112752142D01*
X135390000Y-112609285D01*
X135437619Y-112561666D01*
X135342381Y-112228333D02*
X135342381Y-111609285D01*
X135723333Y-111942619D01*
X135723333Y-111799761D01*
X135770952Y-111704523D01*
X135818571Y-111656904D01*
X135913810Y-111609285D01*
X136151905Y-111609285D01*
X136247143Y-111656904D01*
X136294762Y-111704523D01*
X136342381Y-111799761D01*
X136342381Y-112085476D01*
X136294762Y-112180714D01*
X136247143Y-112228333D01*
X190952381Y-143148333D02*
X191666667Y-143148333D01*
X191809524Y-143195953D01*
X191904762Y-143291191D01*
X191952381Y-143434048D01*
X191952381Y-143529286D01*
X191952381Y-142148333D02*
X191952381Y-142719762D01*
X191952381Y-142434048D02*
X190952381Y-142434048D01*
X191095238Y-142529286D01*
X191190476Y-142624524D01*
X191238095Y-142719762D01*
X117943334Y-100782381D02*
X117610000Y-100306190D01*
X117371905Y-100782381D02*
X117371905Y-99782381D01*
X117752858Y-99782381D01*
X117848096Y-99830000D01*
X117895715Y-99877619D01*
X117943334Y-99972857D01*
X117943334Y-100115714D01*
X117895715Y-100210952D01*
X117848096Y-100258571D01*
X117752858Y-100306190D01*
X117371905Y-100306190D01*
X118895715Y-100782381D02*
X118324286Y-100782381D01*
X118610000Y-100782381D02*
X118610000Y-99782381D01*
X118514762Y-99925238D01*
X118419524Y-100020476D01*
X118324286Y-100068095D01*
X120530953Y-100782381D02*
X119959524Y-100782381D01*
X120245238Y-100782381D02*
X120245238Y-99782381D01*
X120150000Y-99925238D01*
X120054762Y-100020476D01*
X119959524Y-100068095D01*
X120959524Y-100782381D02*
X120959524Y-99782381D01*
X121054762Y-100401429D02*
X121340477Y-100782381D01*
X121340477Y-100115714D02*
X120959524Y-100496667D01*
X117943334Y-96972381D02*
X117610000Y-96496190D01*
X117371905Y-96972381D02*
X117371905Y-95972381D01*
X117752858Y-95972381D01*
X117848096Y-96020000D01*
X117895715Y-96067619D01*
X117943334Y-96162857D01*
X117943334Y-96305714D01*
X117895715Y-96400952D01*
X117848096Y-96448571D01*
X117752858Y-96496190D01*
X117371905Y-96496190D01*
X118324286Y-96067619D02*
X118371905Y-96020000D01*
X118467143Y-95972381D01*
X118705239Y-95972381D01*
X118800477Y-96020000D01*
X118848096Y-96067619D01*
X118895715Y-96162857D01*
X118895715Y-96258095D01*
X118848096Y-96400952D01*
X118276667Y-96972381D01*
X118895715Y-96972381D01*
X120530953Y-96972381D02*
X119959524Y-96972381D01*
X120245238Y-96972381D02*
X120245238Y-95972381D01*
X120150000Y-96115238D01*
X120054762Y-96210476D01*
X119959524Y-96258095D01*
X120959524Y-96972381D02*
X120959524Y-95972381D01*
X121054762Y-96591429D02*
X121340477Y-96972381D01*
X121340477Y-96305714D02*
X120959524Y-96686667D01*
X97028095Y-111847381D02*
X97028095Y-112656905D01*
X97075714Y-112752143D01*
X97123333Y-112799762D01*
X97218571Y-112847381D01*
X97409048Y-112847381D01*
X97504286Y-112799762D01*
X97551905Y-112752143D01*
X97599524Y-112656905D01*
X97599524Y-111847381D01*
X98599524Y-112847381D02*
X98028095Y-112847381D01*
X98313809Y-112847381D02*
X98313809Y-111847381D01*
X98218571Y-111990238D01*
X98123333Y-112085476D01*
X98028095Y-112133095D01*
X97242381Y-121864048D02*
X97242381Y-121197381D01*
X98242381Y-121625953D01*
X97575714Y-120387857D02*
X98242381Y-120387857D01*
X97194762Y-120625953D02*
X97909048Y-120864048D01*
X97909048Y-120245000D01*
X98242381Y-119387857D02*
X98242381Y-119864048D01*
X97242381Y-119864048D01*
X98194762Y-119102143D02*
X98242381Y-118959286D01*
X98242381Y-118721190D01*
X98194762Y-118625952D01*
X98147143Y-118578333D01*
X98051905Y-118530714D01*
X97956667Y-118530714D01*
X97861429Y-118578333D01*
X97813810Y-118625952D01*
X97766190Y-118721190D01*
X97718571Y-118911667D01*
X97670952Y-119006905D01*
X97623333Y-119054524D01*
X97528095Y-119102143D01*
X97432857Y-119102143D01*
X97337619Y-119054524D01*
X97290000Y-119006905D01*
X97242381Y-118911667D01*
X97242381Y-118673571D01*
X97290000Y-118530714D01*
X98242381Y-117578333D02*
X98242381Y-118149762D01*
X98242381Y-117864048D02*
X97242381Y-117864048D01*
X97385238Y-117959286D01*
X97480476Y-118054524D01*
X97528095Y-118149762D01*
X97242381Y-117245000D02*
X97242381Y-116625952D01*
X97623333Y-116959286D01*
X97623333Y-116816428D01*
X97670952Y-116721190D01*
X97718571Y-116673571D01*
X97813810Y-116625952D01*
X98051905Y-116625952D01*
X98147143Y-116673571D01*
X98194762Y-116721190D01*
X98242381Y-116816428D01*
X98242381Y-117102143D01*
X98194762Y-117197381D01*
X98147143Y-117245000D01*
X97670952Y-116054524D02*
X97623333Y-116149762D01*
X97575714Y-116197381D01*
X97480476Y-116245000D01*
X97432857Y-116245000D01*
X97337619Y-116197381D01*
X97290000Y-116149762D01*
X97242381Y-116054524D01*
X97242381Y-115864047D01*
X97290000Y-115768809D01*
X97337619Y-115721190D01*
X97432857Y-115673571D01*
X97480476Y-115673571D01*
X97575714Y-115721190D01*
X97623333Y-115768809D01*
X97670952Y-115864047D01*
X97670952Y-116054524D01*
X97718571Y-116149762D01*
X97766190Y-116197381D01*
X97861429Y-116245000D01*
X98051905Y-116245000D01*
X98147143Y-116197381D01*
X98194762Y-116149762D01*
X98242381Y-116054524D01*
X98242381Y-115864047D01*
X98194762Y-115768809D01*
X98147143Y-115721190D01*
X98051905Y-115673571D01*
X97861429Y-115673571D01*
X97766190Y-115721190D01*
X97718571Y-115768809D01*
X97670952Y-115864047D01*
X112268095Y-111847381D02*
X112268095Y-112656905D01*
X112315714Y-112752143D01*
X112363333Y-112799762D01*
X112458571Y-112847381D01*
X112649048Y-112847381D01*
X112744286Y-112799762D01*
X112791905Y-112752143D01*
X112839524Y-112656905D01*
X112839524Y-111847381D01*
X113268095Y-111942619D02*
X113315714Y-111895000D01*
X113410952Y-111847381D01*
X113649048Y-111847381D01*
X113744286Y-111895000D01*
X113791905Y-111942619D01*
X113839524Y-112037857D01*
X113839524Y-112133095D01*
X113791905Y-112275952D01*
X113220476Y-112847381D01*
X113839524Y-112847381D01*
X112482381Y-121864048D02*
X112482381Y-121197381D01*
X113482381Y-121625953D01*
X112815714Y-120387857D02*
X113482381Y-120387857D01*
X112434762Y-120625953D02*
X113149048Y-120864048D01*
X113149048Y-120245000D01*
X113482381Y-119387857D02*
X113482381Y-119864048D01*
X112482381Y-119864048D01*
X113434762Y-119102143D02*
X113482381Y-118959286D01*
X113482381Y-118721190D01*
X113434762Y-118625952D01*
X113387143Y-118578333D01*
X113291905Y-118530714D01*
X113196667Y-118530714D01*
X113101429Y-118578333D01*
X113053810Y-118625952D01*
X113006190Y-118721190D01*
X112958571Y-118911667D01*
X112910952Y-119006905D01*
X112863333Y-119054524D01*
X112768095Y-119102143D01*
X112672857Y-119102143D01*
X112577619Y-119054524D01*
X112530000Y-119006905D01*
X112482381Y-118911667D01*
X112482381Y-118673571D01*
X112530000Y-118530714D01*
X113482381Y-117578333D02*
X113482381Y-118149762D01*
X113482381Y-117864048D02*
X112482381Y-117864048D01*
X112625238Y-117959286D01*
X112720476Y-118054524D01*
X112768095Y-118149762D01*
X112815714Y-116721190D02*
X113482381Y-116721190D01*
X112434762Y-116959286D02*
X113149048Y-117197381D01*
X113149048Y-116578333D01*
X112482381Y-115721190D02*
X112482381Y-116197381D01*
X112958571Y-116245000D01*
X112910952Y-116197381D01*
X112863333Y-116102143D01*
X112863333Y-115864047D01*
X112910952Y-115768809D01*
X112958571Y-115721190D01*
X113053810Y-115673571D01*
X113291905Y-115673571D01*
X113387143Y-115721190D01*
X113434762Y-115768809D01*
X113482381Y-115864047D01*
X113482381Y-116102143D01*
X113434762Y-116197381D01*
X113387143Y-116245000D01*
X127508095Y-111847381D02*
X127508095Y-112656905D01*
X127555714Y-112752143D01*
X127603333Y-112799762D01*
X127698571Y-112847381D01*
X127889048Y-112847381D01*
X127984286Y-112799762D01*
X128031905Y-112752143D01*
X128079524Y-112656905D01*
X128079524Y-111847381D01*
X128460476Y-111847381D02*
X129079524Y-111847381D01*
X128746190Y-112228333D01*
X128889048Y-112228333D01*
X128984286Y-112275952D01*
X129031905Y-112323571D01*
X129079524Y-112418810D01*
X129079524Y-112656905D01*
X129031905Y-112752143D01*
X128984286Y-112799762D01*
X128889048Y-112847381D01*
X128603333Y-112847381D01*
X128508095Y-112799762D01*
X128460476Y-112752143D01*
X127722381Y-120117857D02*
X127722381Y-119451190D01*
X128722381Y-119879762D01*
X128055714Y-118641666D02*
X128722381Y-118641666D01*
X127674762Y-118879762D02*
X128389048Y-119117857D01*
X128389048Y-118498809D01*
X128722381Y-117641666D02*
X128722381Y-118117857D01*
X127722381Y-118117857D01*
X128674762Y-117355952D02*
X128722381Y-117213095D01*
X128722381Y-116974999D01*
X128674762Y-116879761D01*
X128627143Y-116832142D01*
X128531905Y-116784523D01*
X128436667Y-116784523D01*
X128341429Y-116832142D01*
X128293810Y-116879761D01*
X128246190Y-116974999D01*
X128198571Y-117165476D01*
X128150952Y-117260714D01*
X128103333Y-117308333D01*
X128008095Y-117355952D01*
X127912857Y-117355952D01*
X127817619Y-117308333D01*
X127770000Y-117260714D01*
X127722381Y-117165476D01*
X127722381Y-116927380D01*
X127770000Y-116784523D01*
X127722381Y-116165476D02*
X127722381Y-116070237D01*
X127770000Y-115974999D01*
X127817619Y-115927380D01*
X127912857Y-115879761D01*
X128103333Y-115832142D01*
X128341429Y-115832142D01*
X128531905Y-115879761D01*
X128627143Y-115927380D01*
X128674762Y-115974999D01*
X128722381Y-116070237D01*
X128722381Y-116165476D01*
X128674762Y-116260714D01*
X128627143Y-116308333D01*
X128531905Y-116355952D01*
X128341429Y-116403571D01*
X128103333Y-116403571D01*
X127912857Y-116355952D01*
X127817619Y-116308333D01*
X127770000Y-116260714D01*
X127722381Y-116165476D01*
X128150952Y-115260714D02*
X128103333Y-115355952D01*
X128055714Y-115403571D01*
X127960476Y-115451190D01*
X127912857Y-115451190D01*
X127817619Y-115403571D01*
X127770000Y-115355952D01*
X127722381Y-115260714D01*
X127722381Y-115070237D01*
X127770000Y-114974999D01*
X127817619Y-114927380D01*
X127912857Y-114879761D01*
X127960476Y-114879761D01*
X128055714Y-114927380D01*
X128103333Y-114974999D01*
X128150952Y-115070237D01*
X128150952Y-115260714D01*
X128198571Y-115355952D01*
X128246190Y-115403571D01*
X128341429Y-115451190D01*
X128531905Y-115451190D01*
X128627143Y-115403571D01*
X128674762Y-115355952D01*
X128722381Y-115260714D01*
X128722381Y-115070237D01*
X128674762Y-114974999D01*
X128627143Y-114927380D01*
X128531905Y-114879761D01*
X128341429Y-114879761D01*
X128246190Y-114927380D01*
X128198571Y-114974999D01*
X128150952Y-115070237D01*
X157988095Y-116927381D02*
X157988095Y-117736905D01*
X158035714Y-117832143D01*
X158083333Y-117879762D01*
X158178571Y-117927381D01*
X158369048Y-117927381D01*
X158464286Y-117879762D01*
X158511905Y-117832143D01*
X158559524Y-117736905D01*
X158559524Y-116927381D01*
X159464286Y-117260714D02*
X159464286Y-117927381D01*
X159226190Y-116879762D02*
X158988095Y-117594048D01*
X159607143Y-117594048D01*
X162234762Y-117927381D02*
X161901428Y-117451190D01*
X161663333Y-117927381D02*
X161663333Y-116927381D01*
X162044286Y-116927381D01*
X162139524Y-116975000D01*
X162187143Y-117022619D01*
X162234762Y-117117857D01*
X162234762Y-117260714D01*
X162187143Y-117355952D01*
X162139524Y-117403571D01*
X162044286Y-117451190D01*
X161663333Y-117451190D01*
X163091905Y-116927381D02*
X162901428Y-116927381D01*
X162806190Y-116975000D01*
X162758571Y-117022619D01*
X162663333Y-117165476D01*
X162615714Y-117355952D01*
X162615714Y-117736905D01*
X162663333Y-117832143D01*
X162710952Y-117879762D01*
X162806190Y-117927381D01*
X162996667Y-117927381D01*
X163091905Y-117879762D01*
X163139524Y-117832143D01*
X163187143Y-117736905D01*
X163187143Y-117498810D01*
X163139524Y-117403571D01*
X163091905Y-117355952D01*
X162996667Y-117308333D01*
X162806190Y-117308333D01*
X162710952Y-117355952D01*
X162663333Y-117403571D01*
X162615714Y-117498810D01*
X164091905Y-116927381D02*
X163615714Y-116927381D01*
X163568095Y-117403571D01*
X163615714Y-117355952D01*
X163710952Y-117308333D01*
X163949048Y-117308333D01*
X164044286Y-117355952D01*
X164091905Y-117403571D01*
X164139524Y-117498810D01*
X164139524Y-117736905D01*
X164091905Y-117832143D01*
X164044286Y-117879762D01*
X163949048Y-117927381D01*
X163710952Y-117927381D01*
X163615714Y-117879762D01*
X163568095Y-117832143D01*
X164472857Y-116927381D02*
X165091905Y-116927381D01*
X164758571Y-117308333D01*
X164901429Y-117308333D01*
X164996667Y-117355952D01*
X165044286Y-117403571D01*
X165091905Y-117498810D01*
X165091905Y-117736905D01*
X165044286Y-117832143D01*
X164996667Y-117879762D01*
X164901429Y-117927381D01*
X164615714Y-117927381D01*
X164520476Y-117879762D01*
X164472857Y-117832143D01*
X165472857Y-117022619D02*
X165520476Y-116975000D01*
X165615714Y-116927381D01*
X165853810Y-116927381D01*
X165949048Y-116975000D01*
X165996667Y-117022619D01*
X166044286Y-117117857D01*
X166044286Y-117213095D01*
X165996667Y-117355952D01*
X165425238Y-117927381D01*
X166044286Y-117927381D01*
X185253334Y-129262143D02*
X185205715Y-129309762D01*
X185062858Y-129357381D01*
X184967620Y-129357381D01*
X184824762Y-129309762D01*
X184729524Y-129214524D01*
X184681905Y-129119286D01*
X184634286Y-128928810D01*
X184634286Y-128785952D01*
X184681905Y-128595476D01*
X184729524Y-128500238D01*
X184824762Y-128405000D01*
X184967620Y-128357381D01*
X185062858Y-128357381D01*
X185205715Y-128405000D01*
X185253334Y-128452619D01*
X186110477Y-128690714D02*
X186110477Y-129357381D01*
X185872381Y-128309762D02*
X185634286Y-129024048D01*
X186253334Y-129024048D01*
X167497618Y-100893571D02*
X167830952Y-100893571D01*
X167973809Y-101417381D02*
X167497618Y-101417381D01*
X167497618Y-100417381D01*
X167973809Y-100417381D01*
X168307142Y-101417381D02*
X168830952Y-100750714D01*
X168307142Y-100750714D02*
X168830952Y-101417381D01*
X169069047Y-100750714D02*
X169449999Y-100750714D01*
X169211904Y-100417381D02*
X169211904Y-101274524D01*
X169259523Y-101369762D01*
X169354761Y-101417381D01*
X169449999Y-101417381D01*
X170164286Y-101369762D02*
X170069048Y-101417381D01*
X169878571Y-101417381D01*
X169783333Y-101369762D01*
X169735714Y-101274524D01*
X169735714Y-100893571D01*
X169783333Y-100798333D01*
X169878571Y-100750714D01*
X170069048Y-100750714D01*
X170164286Y-100798333D01*
X170211905Y-100893571D01*
X170211905Y-100988810D01*
X169735714Y-101084048D01*
X170640476Y-101417381D02*
X170640476Y-100750714D01*
X170640476Y-100941190D02*
X170688095Y-100845952D01*
X170735714Y-100798333D01*
X170830952Y-100750714D01*
X170926191Y-100750714D01*
X171259524Y-100750714D02*
X171259524Y-101417381D01*
X171259524Y-100845952D02*
X171307143Y-100798333D01*
X171402381Y-100750714D01*
X171545239Y-100750714D01*
X171640477Y-100798333D01*
X171688096Y-100893571D01*
X171688096Y-101417381D01*
X172592858Y-101417381D02*
X172592858Y-100893571D01*
X172545239Y-100798333D01*
X172450001Y-100750714D01*
X172259524Y-100750714D01*
X172164286Y-100798333D01*
X172592858Y-101369762D02*
X172497620Y-101417381D01*
X172259524Y-101417381D01*
X172164286Y-101369762D01*
X172116667Y-101274524D01*
X172116667Y-101179286D01*
X172164286Y-101084048D01*
X172259524Y-101036429D01*
X172497620Y-101036429D01*
X172592858Y-100988810D01*
X173211905Y-101417381D02*
X173116667Y-101369762D01*
X173069048Y-101274524D01*
X173069048Y-100417381D01*
X174354763Y-101417381D02*
X174354763Y-100417381D01*
X175021429Y-100417381D02*
X175211906Y-100417381D01*
X175307144Y-100465000D01*
X175402382Y-100560238D01*
X175450001Y-100750714D01*
X175450001Y-101084048D01*
X175402382Y-101274524D01*
X175307144Y-101369762D01*
X175211906Y-101417381D01*
X175021429Y-101417381D01*
X174926191Y-101369762D01*
X174830953Y-101274524D01*
X174783334Y-101084048D01*
X174783334Y-100750714D01*
X174830953Y-100560238D01*
X174926191Y-100465000D01*
X175021429Y-100417381D01*
D10*
X104076666Y-130117857D02*
X104343333Y-130117857D01*
X104457619Y-130536905D02*
X104076666Y-130536905D01*
X104076666Y-129736905D01*
X104457619Y-129736905D01*
X104724286Y-130536905D02*
X105143333Y-130003571D01*
X104724286Y-130003571D02*
X105143333Y-130536905D01*
X105333809Y-130003571D02*
X105638571Y-130003571D01*
X105448095Y-129736905D02*
X105448095Y-130422619D01*
X105486190Y-130498810D01*
X105562381Y-130536905D01*
X105638571Y-130536905D01*
X105905238Y-130536905D02*
X105905238Y-130003571D01*
X105905238Y-130155952D02*
X105943333Y-130079762D01*
X105981429Y-130041667D01*
X106057619Y-130003571D01*
X106133810Y-130003571D01*
X106743333Y-130536905D02*
X106743333Y-130117857D01*
X106705238Y-130041667D01*
X106629048Y-130003571D01*
X106476667Y-130003571D01*
X106400476Y-130041667D01*
X106743333Y-130498810D02*
X106667143Y-130536905D01*
X106476667Y-130536905D01*
X106400476Y-130498810D01*
X106362381Y-130422619D01*
X106362381Y-130346429D01*
X106400476Y-130270238D01*
X106476667Y-130232143D01*
X106667143Y-130232143D01*
X106743333Y-130194048D01*
M02*
