G04 #@! TF.FileFunction,Copper,L2,Bot,Signal*
%FSLAX46Y46*%
G04 Gerber Fmt 4.6, Leading zero omitted, Abs format (unit mm)*
G04 Created by KiCad (PCBNEW 4.0.7) date 09/16/19 13:34:44*
%MOMM*%
%LPD*%
G01*
G04 APERTURE LIST*
%ADD10C,0.100000*%
%ADD11C,1.600000*%
%ADD12R,1.700000X1.700000*%
%ADD13O,1.700000X1.700000*%
%ADD14O,1.600000X1.600000*%
%ADD15R,1.600000X1.600000*%
%ADD16C,0.600000*%
%ADD17C,0.250000*%
%ADD18C,0.254000*%
G04 APERTURE END LIST*
D10*
D11*
X105410000Y-109855000D03*
X105410000Y-114855000D03*
X120650000Y-109855000D03*
X120650000Y-114855000D03*
X135890000Y-109855000D03*
X135890000Y-114855000D03*
D12*
X189230000Y-138430000D03*
D13*
X186690000Y-138430000D03*
X184150000Y-138430000D03*
X181610000Y-138430000D03*
X179070000Y-138430000D03*
X176530000Y-138430000D03*
X173990000Y-138430000D03*
X171450000Y-138430000D03*
X168910000Y-138430000D03*
X166370000Y-138430000D03*
X163830000Y-138430000D03*
X161290000Y-138430000D03*
X158750000Y-138430000D03*
X156210000Y-138430000D03*
X153670000Y-138430000D03*
X151130000Y-138430000D03*
X148590000Y-138430000D03*
X146050000Y-138430000D03*
X143510000Y-138430000D03*
X140970000Y-138430000D03*
X138430000Y-138430000D03*
X135890000Y-138430000D03*
X133350000Y-138430000D03*
X130810000Y-138430000D03*
X128270000Y-138430000D03*
X125730000Y-138430000D03*
X123190000Y-138430000D03*
X120650000Y-138430000D03*
X118110000Y-138430000D03*
X115570000Y-138430000D03*
X113030000Y-138430000D03*
X110490000Y-138430000D03*
X107950000Y-138430000D03*
X105410000Y-138430000D03*
X102870000Y-138430000D03*
X100330000Y-138430000D03*
X97790000Y-138430000D03*
X95250000Y-138430000D03*
X92710000Y-138430000D03*
D12*
X95885000Y-95885000D03*
D13*
X95885000Y-98425000D03*
X95885000Y-100965000D03*
D12*
X98425000Y-95885000D03*
D13*
X98425000Y-98425000D03*
X98425000Y-100965000D03*
D12*
X103505000Y-95885000D03*
D13*
X103505000Y-98425000D03*
X103505000Y-100965000D03*
D12*
X100965000Y-95885000D03*
D13*
X100965000Y-98425000D03*
X100965000Y-100965000D03*
D11*
X124460000Y-100330000D03*
D14*
X114300000Y-100330000D03*
D11*
X124460000Y-96520000D03*
D14*
X114300000Y-96520000D03*
D15*
X93980000Y-109855000D03*
D14*
X101600000Y-127635000D03*
X93980000Y-112395000D03*
X101600000Y-125095000D03*
X93980000Y-114935000D03*
X101600000Y-122555000D03*
X93980000Y-117475000D03*
X101600000Y-120015000D03*
X93980000Y-120015000D03*
X101600000Y-117475000D03*
X93980000Y-122555000D03*
X101600000Y-114935000D03*
X93980000Y-125095000D03*
X101600000Y-112395000D03*
X93980000Y-127635000D03*
X101600000Y-109855000D03*
D15*
X109220000Y-109855000D03*
D14*
X116840000Y-127635000D03*
X109220000Y-112395000D03*
X116840000Y-125095000D03*
X109220000Y-114935000D03*
X116840000Y-122555000D03*
X109220000Y-117475000D03*
X116840000Y-120015000D03*
X109220000Y-120015000D03*
X116840000Y-117475000D03*
X109220000Y-122555000D03*
X116840000Y-114935000D03*
X109220000Y-125095000D03*
X116840000Y-112395000D03*
X109220000Y-127635000D03*
X116840000Y-109855000D03*
D15*
X124460000Y-109855000D03*
D14*
X132080000Y-125095000D03*
X124460000Y-112395000D03*
X132080000Y-122555000D03*
X124460000Y-114935000D03*
X132080000Y-120015000D03*
X124460000Y-117475000D03*
X132080000Y-117475000D03*
X124460000Y-120015000D03*
X132080000Y-114935000D03*
X124460000Y-122555000D03*
X132080000Y-112395000D03*
X124460000Y-125095000D03*
X132080000Y-109855000D03*
D15*
X139700000Y-125095000D03*
D14*
X187960000Y-109855000D03*
X142240000Y-125095000D03*
X185420000Y-109855000D03*
X144780000Y-125095000D03*
X182880000Y-109855000D03*
X147320000Y-125095000D03*
X180340000Y-109855000D03*
X149860000Y-125095000D03*
X177800000Y-109855000D03*
X152400000Y-125095000D03*
X175260000Y-109855000D03*
X154940000Y-125095000D03*
X172720000Y-109855000D03*
X157480000Y-125095000D03*
X170180000Y-109855000D03*
X160020000Y-125095000D03*
X167640000Y-109855000D03*
X162560000Y-125095000D03*
X165100000Y-109855000D03*
X165100000Y-125095000D03*
X162560000Y-109855000D03*
X167640000Y-125095000D03*
X160020000Y-109855000D03*
X170180000Y-125095000D03*
X157480000Y-109855000D03*
X172720000Y-125095000D03*
X154940000Y-109855000D03*
X175260000Y-125095000D03*
X152400000Y-109855000D03*
X177800000Y-125095000D03*
X149860000Y-109855000D03*
X180340000Y-125095000D03*
X147320000Y-109855000D03*
X182880000Y-125095000D03*
X144780000Y-109855000D03*
X185420000Y-125095000D03*
X142240000Y-109855000D03*
X187960000Y-125095000D03*
X139700000Y-109855000D03*
D11*
X187960000Y-128905000D03*
X182960000Y-128905000D03*
D12*
X139700000Y-95885000D03*
D13*
X139700000Y-98425000D03*
X139700000Y-100965000D03*
D12*
X182880000Y-95885000D03*
D13*
X182880000Y-98425000D03*
X180340000Y-95885000D03*
X180340000Y-98425000D03*
X177800000Y-95885000D03*
X177800000Y-98425000D03*
X175260000Y-95885000D03*
X175260000Y-98425000D03*
X172720000Y-95885000D03*
X172720000Y-98425000D03*
X170180000Y-95885000D03*
X170180000Y-98425000D03*
X167640000Y-95885000D03*
X167640000Y-98425000D03*
X165100000Y-95885000D03*
X165100000Y-98425000D03*
X162560000Y-95885000D03*
X162560000Y-98425000D03*
X160020000Y-95885000D03*
X160020000Y-98425000D03*
D12*
X142240000Y-95885000D03*
D13*
X142240000Y-98425000D03*
X142240000Y-100965000D03*
D12*
X106045000Y-95885000D03*
D13*
X106045000Y-98425000D03*
X106045000Y-100965000D03*
D12*
X105410000Y-122555000D03*
D13*
X105410000Y-125095000D03*
X105410000Y-127635000D03*
D16*
X99695000Y-120650000D03*
X189865000Y-108585000D03*
X185420000Y-94615000D03*
X189865000Y-136525000D03*
X189230000Y-111760000D03*
X188595000Y-136525000D03*
X186055000Y-136525000D03*
X92710000Y-134620000D03*
X183515000Y-136525000D03*
X114935000Y-135255000D03*
X180975000Y-136525000D03*
X178435000Y-136525000D03*
X113665000Y-135255000D03*
X175895000Y-136525000D03*
X112395000Y-135255000D03*
X100330000Y-118745000D03*
X100330000Y-128905000D03*
X100330000Y-132715000D03*
X130810000Y-107315000D03*
X96520000Y-135255000D03*
X96520000Y-132715000D03*
X96520000Y-123825000D03*
X96520000Y-121285000D03*
X127635000Y-106680000D03*
X95885000Y-135890000D03*
X95885000Y-132080000D03*
X95885000Y-123190000D03*
X95885000Y-121920000D03*
X146685000Y-107315000D03*
X93980000Y-104775000D03*
X125095000Y-105410000D03*
X97155000Y-114300000D03*
X97155000Y-102235000D03*
X128905000Y-105410000D03*
X92710000Y-98425000D03*
X97155000Y-115570000D03*
X127000000Y-103505000D03*
X116205000Y-99695000D03*
X110490000Y-103505000D03*
X99695000Y-102235000D03*
X129540000Y-104775000D03*
X92075000Y-97790000D03*
X97155000Y-116840000D03*
X124460000Y-102870000D03*
X97155000Y-124460000D03*
X107315000Y-119380000D03*
X109220000Y-103505000D03*
X107950000Y-99060000D03*
X139700000Y-120015000D03*
X165100000Y-127635000D03*
X162560000Y-127635000D03*
X160020000Y-127635000D03*
X157480000Y-127635000D03*
X153670000Y-127635000D03*
X152400000Y-127635000D03*
X137160000Y-116205000D03*
X137160000Y-120650000D03*
X137160000Y-127635000D03*
X136525000Y-127000000D03*
X161290000Y-106680000D03*
X135255000Y-127000000D03*
X123825000Y-132715000D03*
X155575000Y-132715000D03*
X121285000Y-132715000D03*
X158115000Y-132080000D03*
X118745000Y-132080000D03*
X160655000Y-131445000D03*
X116205000Y-131445000D03*
X163195000Y-130810000D03*
X113030000Y-131445000D03*
X165735000Y-130175000D03*
X111760000Y-132715000D03*
X168275000Y-129540000D03*
X111125000Y-132080000D03*
X170815000Y-128905000D03*
X110490000Y-132715000D03*
X173355000Y-128270000D03*
X95250000Y-121285000D03*
X95250000Y-123825000D03*
X95250000Y-132715000D03*
X95250000Y-135255000D03*
X186055000Y-121920000D03*
X186690000Y-106680000D03*
X177165000Y-104775000D03*
X179705000Y-102235000D03*
X183515000Y-123190000D03*
X174625000Y-104775000D03*
X177165000Y-102235000D03*
X172085000Y-104775000D03*
X174625000Y-102235000D03*
X179705000Y-122555000D03*
X171450000Y-104140000D03*
X187325000Y-107315000D03*
X170180000Y-105410000D03*
X184785000Y-107315000D03*
X167640000Y-106045000D03*
X182245000Y-107315000D03*
X165100000Y-106680000D03*
X179705000Y-107315000D03*
X159385000Y-107315000D03*
X133985000Y-110490000D03*
X133985000Y-107315000D03*
X135890000Y-127635000D03*
X135890000Y-116840000D03*
X135890000Y-120015000D03*
X137795000Y-97155000D03*
X125730000Y-103505000D03*
D17*
X106045000Y-100965000D02*
X107315000Y-99695000D01*
X113665000Y-99695000D02*
X114300000Y-100330000D01*
X107315000Y-99695000D02*
X113665000Y-99695000D01*
X101600000Y-109855000D02*
X100330000Y-109855000D01*
X99695000Y-110490000D02*
X99695000Y-120650000D01*
X100330000Y-109855000D02*
X99695000Y-110490000D01*
X185420000Y-94615000D02*
X189865000Y-99060000D01*
X189865000Y-99060000D02*
X189865000Y-108585000D01*
X189865000Y-108585000D02*
X189865000Y-109220000D01*
X189865000Y-109220000D02*
X189865000Y-124460000D01*
X189865000Y-129540000D02*
X189865000Y-124460000D01*
X187960000Y-128905000D02*
X189230000Y-128905000D01*
X189230000Y-128905000D02*
X189865000Y-129540000D01*
X187960000Y-128905000D02*
X187960000Y-125095000D01*
X189865000Y-136525000D02*
X189865000Y-129540000D01*
X189230000Y-111760000D02*
X189230000Y-99695000D01*
X189230000Y-99695000D02*
X185420000Y-95885000D01*
X185420000Y-95885000D02*
X182880000Y-95885000D01*
X189230000Y-137160000D02*
X188595000Y-136525000D01*
X189230000Y-138430000D02*
X189230000Y-137160000D01*
X186690000Y-137160000D02*
X186055000Y-136525000D01*
X186690000Y-137160000D02*
X186690000Y-138430000D01*
X184150000Y-138430000D02*
X184150000Y-137160000D01*
X184150000Y-137160000D02*
X183515000Y-136525000D01*
X92710000Y-109855000D02*
X93980000Y-109855000D01*
X92075000Y-110490000D02*
X92710000Y-109855000D01*
X92075000Y-133985000D02*
X92075000Y-110490000D01*
X92710000Y-134620000D02*
X92075000Y-133985000D01*
X181610000Y-137160000D02*
X180975000Y-136525000D01*
X181610000Y-138430000D02*
X181610000Y-137160000D01*
X115570000Y-118745000D02*
X116840000Y-117475000D01*
X115570000Y-130810000D02*
X115570000Y-118745000D01*
X114300000Y-132080000D02*
X115570000Y-130810000D01*
X114300000Y-134620000D02*
X114300000Y-132080000D01*
X114935000Y-135255000D02*
X114300000Y-134620000D01*
X114300000Y-130810000D02*
X114935000Y-130175000D01*
X113665000Y-131445000D02*
X114300000Y-130810000D01*
X179070000Y-137160000D02*
X178435000Y-136525000D01*
X179070000Y-138430000D02*
X179070000Y-137160000D01*
X113665000Y-135255000D02*
X113665000Y-132080000D01*
X113665000Y-132080000D02*
X113665000Y-131445000D01*
X115570000Y-114935000D02*
X116840000Y-114935000D01*
X114935000Y-115570000D02*
X115570000Y-114935000D01*
X114935000Y-130175000D02*
X114935000Y-115570000D01*
X176530000Y-137160000D02*
X175895000Y-136525000D01*
X176530000Y-138430000D02*
X176530000Y-137160000D01*
X114935000Y-112395000D02*
X116840000Y-112395000D01*
X114300000Y-113030000D02*
X114935000Y-112395000D01*
X114300000Y-129540000D02*
X114300000Y-113030000D01*
X113665000Y-130175000D02*
X114300000Y-129540000D01*
X113030000Y-130175000D02*
X113665000Y-130175000D01*
X112395000Y-130810000D02*
X113030000Y-130175000D01*
X112395000Y-135255000D02*
X112395000Y-130810000D01*
X101600000Y-112395000D02*
X100965000Y-112395000D01*
X100965000Y-112395000D02*
X100330000Y-113030000D01*
X100330000Y-113030000D02*
X100330000Y-118745000D01*
X100330000Y-118745000D02*
X100330000Y-121285000D01*
X100330000Y-121285000D02*
X100330000Y-128905000D01*
X100330000Y-132715000D02*
X100330000Y-135890000D01*
X100330000Y-135890000D02*
X100965000Y-136525000D01*
X100965000Y-136525000D02*
X102235000Y-136525000D01*
X102235000Y-136525000D02*
X102870000Y-137160000D01*
X102870000Y-137160000D02*
X102870000Y-138430000D01*
X132080000Y-117475000D02*
X131445000Y-117475000D01*
X131445000Y-117475000D02*
X130810000Y-116840000D01*
X130810000Y-116840000D02*
X130810000Y-107315000D01*
X96520000Y-135255000D02*
X96520000Y-132715000D01*
X96520000Y-123825000D02*
X96520000Y-121285000D01*
X128270000Y-107315000D02*
X127635000Y-106680000D01*
X127000000Y-122555000D02*
X127635000Y-122555000D01*
X128270000Y-121920000D02*
X128270000Y-107315000D01*
X127635000Y-122555000D02*
X128270000Y-121920000D01*
X126365000Y-122555000D02*
X127000000Y-122555000D01*
X125730000Y-122555000D02*
X126365000Y-122555000D01*
X95885000Y-135890000D02*
X95885000Y-132080000D01*
X95885000Y-123190000D02*
X95885000Y-121920000D01*
X124460000Y-122555000D02*
X125730000Y-122555000D01*
X146685000Y-107315000D02*
X147320000Y-107950000D01*
X147320000Y-107950000D02*
X147320000Y-109855000D01*
X95885000Y-98425000D02*
X94615000Y-98425000D01*
X93980000Y-99060000D02*
X93980000Y-104775000D01*
X94615000Y-98425000D02*
X93980000Y-99060000D01*
X125095000Y-105410000D02*
X125730000Y-106045000D01*
X124460000Y-112395000D02*
X125095000Y-112395000D01*
X125095000Y-112395000D02*
X125730000Y-111760000D01*
X125730000Y-111760000D02*
X125730000Y-106045000D01*
X93345000Y-97155000D02*
X93345000Y-96520000D01*
X93980000Y-95885000D02*
X94615000Y-95885000D01*
X93345000Y-96520000D02*
X93980000Y-95885000D01*
X96520000Y-107315000D02*
X95885000Y-106680000D01*
X93345000Y-99060000D02*
X93345000Y-97155000D01*
X93345000Y-106045000D02*
X93345000Y-99060000D01*
X93980000Y-106680000D02*
X93345000Y-106045000D01*
X95885000Y-106680000D02*
X93980000Y-106680000D01*
X95885000Y-95885000D02*
X94615000Y-95885000D01*
X96520000Y-113665000D02*
X97155000Y-114300000D01*
X96520000Y-107315000D02*
X96520000Y-113665000D01*
X97155000Y-99695000D02*
X97155000Y-102235000D01*
X98425000Y-98425000D02*
X97155000Y-99695000D01*
X128905000Y-105410000D02*
X129540000Y-106045000D01*
X130810000Y-122555000D02*
X132080000Y-122555000D01*
X130810000Y-122555000D02*
X130175000Y-122555000D01*
X129540000Y-121920000D02*
X129540000Y-106045000D01*
X130175000Y-122555000D02*
X129540000Y-121920000D01*
X95885000Y-107950000D02*
X95250000Y-107315000D01*
X92710000Y-106680000D02*
X92710000Y-98425000D01*
X93345000Y-107315000D02*
X92710000Y-106680000D01*
X95250000Y-107315000D02*
X93345000Y-107315000D01*
X97155000Y-115570000D02*
X96520000Y-115570000D01*
X96520000Y-115570000D02*
X95885000Y-114935000D01*
X95885000Y-114935000D02*
X95885000Y-107950000D01*
X127000000Y-107950000D02*
X127000000Y-103505000D01*
X125730000Y-120015000D02*
X126365000Y-120015000D01*
X127000000Y-119380000D02*
X127000000Y-107950000D01*
X126365000Y-120015000D02*
X127000000Y-119380000D01*
X125730000Y-120015000D02*
X124460000Y-120015000D01*
X124460000Y-120015000D02*
X125095000Y-120015000D01*
X114300000Y-96520000D02*
X115570000Y-96520000D01*
X116205000Y-97155000D02*
X115570000Y-96520000D01*
X116205000Y-97155000D02*
X116205000Y-99695000D01*
X107950000Y-107315000D02*
X107950000Y-106045000D01*
X107950000Y-123825000D02*
X107950000Y-107315000D01*
X109220000Y-125095000D02*
X107950000Y-123825000D01*
X107950000Y-106045000D02*
X110490000Y-103505000D01*
X103505000Y-95885000D02*
X104775000Y-94615000D01*
X112395000Y-94615000D02*
X114300000Y-96520000D01*
X104775000Y-94615000D02*
X112395000Y-94615000D01*
X100965000Y-98425000D02*
X99695000Y-99695000D01*
X99695000Y-99695000D02*
X99695000Y-102235000D01*
X129540000Y-104775000D02*
X130175000Y-105410000D01*
X130810000Y-120015000D02*
X130175000Y-119380000D01*
X130810000Y-120015000D02*
X132080000Y-120015000D01*
X130175000Y-119380000D02*
X130175000Y-105410000D01*
X132080000Y-120015000D02*
X131445000Y-120015000D01*
X95250000Y-108585000D02*
X94615000Y-107950000D01*
X92075000Y-107315000D02*
X92075000Y-97790000D01*
X92710000Y-107950000D02*
X92075000Y-107315000D01*
X94615000Y-107950000D02*
X92710000Y-107950000D01*
X95250000Y-115570000D02*
X95250000Y-108585000D01*
X95885000Y-116205000D02*
X95250000Y-115570000D01*
X96520000Y-116205000D02*
X95885000Y-116205000D01*
X97155000Y-116840000D02*
X96520000Y-116205000D01*
X124460000Y-109855000D02*
X124460000Y-102870000D01*
X109220000Y-112395000D02*
X109220000Y-109855000D01*
X109220000Y-114935000D02*
X109220000Y-112395000D01*
X109220000Y-117475000D02*
X109220000Y-114935000D01*
X109220000Y-120015000D02*
X109220000Y-117475000D01*
X106045000Y-95885000D02*
X107315000Y-95885000D01*
X95250000Y-124460000D02*
X94615000Y-125095000D01*
X97155000Y-124460000D02*
X95250000Y-124460000D01*
X107315000Y-105410000D02*
X107315000Y-119380000D01*
X107315000Y-105410000D02*
X109220000Y-103505000D01*
X107950000Y-96520000D02*
X107950000Y-99060000D01*
X107315000Y-95885000D02*
X107950000Y-96520000D01*
X106045000Y-95885000D02*
X106680000Y-95885000D01*
X94615000Y-125095000D02*
X93980000Y-125095000D01*
X132080000Y-112395000D02*
X132715000Y-112395000D01*
X132715000Y-112395000D02*
X133350000Y-113030000D01*
X133350000Y-113030000D02*
X133350000Y-124460000D01*
X133350000Y-124460000D02*
X132715000Y-125095000D01*
X132715000Y-125095000D02*
X132080000Y-125095000D01*
X166370000Y-138430000D02*
X166370000Y-133985000D01*
X139700000Y-120015000D02*
X139700000Y-109855000D01*
X165100000Y-132715000D02*
X165100000Y-127635000D01*
X166370000Y-133985000D02*
X165100000Y-132715000D01*
X163830000Y-138430000D02*
X163830000Y-133985000D01*
X162560000Y-132715000D02*
X162560000Y-127635000D01*
X163830000Y-133985000D02*
X162560000Y-132715000D01*
X161290000Y-138430000D02*
X161290000Y-133985000D01*
X160020000Y-132715000D02*
X160020000Y-127635000D01*
X161290000Y-133985000D02*
X160020000Y-132715000D01*
X158750000Y-138430000D02*
X158750000Y-133985000D01*
X157480000Y-132715000D02*
X157480000Y-127635000D01*
X158750000Y-133985000D02*
X157480000Y-132715000D01*
X156210000Y-138430000D02*
X156210000Y-134620000D01*
X153670000Y-132080000D02*
X153670000Y-127635000D01*
X156210000Y-134620000D02*
X153670000Y-132080000D01*
X153670000Y-138430000D02*
X153670000Y-133985000D01*
X152400000Y-132715000D02*
X152400000Y-127635000D01*
X153670000Y-133985000D02*
X152400000Y-132715000D01*
X151130000Y-138430000D02*
X151130000Y-127635000D01*
X154940000Y-126365000D02*
X154940000Y-125095000D01*
X154305000Y-127000000D02*
X154940000Y-126365000D01*
X151765000Y-127000000D02*
X154305000Y-127000000D01*
X151130000Y-127635000D02*
X151765000Y-127000000D01*
X137160000Y-116205000D02*
X137160000Y-120650000D01*
X143510000Y-135890000D02*
X142875000Y-135255000D01*
X142875000Y-135255000D02*
X138430000Y-135255000D01*
X137160000Y-133985000D02*
X137160000Y-127635000D01*
X143510000Y-138430000D02*
X143510000Y-135890000D01*
X137160000Y-134620000D02*
X137795000Y-135255000D01*
X137795000Y-135255000D02*
X138430000Y-135255000D01*
X137160000Y-133985000D02*
X137160000Y-134620000D01*
X140970000Y-136525000D02*
X140335000Y-135890000D01*
X140335000Y-135890000D02*
X137160000Y-135890000D01*
X137160000Y-135890000D02*
X136525000Y-135255000D01*
X136525000Y-135255000D02*
X136525000Y-127000000D01*
X140970000Y-138430000D02*
X140970000Y-136525000D01*
X177800000Y-104140000D02*
X177165000Y-103505000D01*
X177165000Y-103505000D02*
X170815000Y-103505000D01*
X170815000Y-103505000D02*
X168910000Y-105410000D01*
X168910000Y-105410000D02*
X165100000Y-105410000D01*
X165100000Y-105410000D02*
X163830000Y-106680000D01*
X163830000Y-106680000D02*
X161290000Y-106680000D01*
X177800000Y-109855000D02*
X177800000Y-105410000D01*
X177800000Y-105410000D02*
X177800000Y-104140000D01*
X135255000Y-135890000D02*
X135255000Y-127000000D01*
X134620000Y-136525000D02*
X135255000Y-135890000D01*
X132080000Y-136525000D02*
X134620000Y-136525000D01*
X131445000Y-136525000D02*
X130810000Y-137160000D01*
X130810000Y-138430000D02*
X130810000Y-137160000D01*
X132080000Y-136525000D02*
X131445000Y-136525000D01*
X130810000Y-138430000D02*
X130810000Y-137795000D01*
X157480000Y-120015000D02*
X157480000Y-122555000D01*
X157480000Y-122555000D02*
X156210000Y-123825000D01*
X123190000Y-133350000D02*
X123825000Y-132715000D01*
X123190000Y-138430000D02*
X123190000Y-133350000D01*
X157480000Y-120015000D02*
X157480000Y-109855000D01*
X156210000Y-132080000D02*
X156210000Y-123825000D01*
X155575000Y-132715000D02*
X156210000Y-132080000D01*
X160020000Y-120015000D02*
X160020000Y-122555000D01*
X160020000Y-122555000D02*
X158750000Y-123825000D01*
X158750000Y-126365000D02*
X158750000Y-123825000D01*
X120650000Y-133350000D02*
X121285000Y-132715000D01*
X120650000Y-138430000D02*
X120650000Y-133350000D01*
X158750000Y-131445000D02*
X158750000Y-126365000D01*
X158115000Y-132080000D02*
X158750000Y-131445000D01*
X160020000Y-120015000D02*
X160020000Y-109855000D01*
X162560000Y-120015000D02*
X162560000Y-122555000D01*
X162560000Y-122555000D02*
X161290000Y-123825000D01*
X161290000Y-126365000D02*
X161290000Y-123825000D01*
X118110000Y-132715000D02*
X118745000Y-132080000D01*
X118110000Y-138430000D02*
X118110000Y-132715000D01*
X161290000Y-130810000D02*
X161290000Y-126365000D01*
X160655000Y-131445000D02*
X161290000Y-130810000D01*
X162560000Y-120015000D02*
X162560000Y-109855000D01*
X165100000Y-120015000D02*
X165100000Y-122555000D01*
X165100000Y-122555000D02*
X163830000Y-123825000D01*
X115570000Y-138430000D02*
X115570000Y-132080000D01*
X115570000Y-132080000D02*
X116205000Y-131445000D01*
X165100000Y-120015000D02*
X165100000Y-109855000D01*
X163830000Y-130175000D02*
X163195000Y-130810000D01*
X163830000Y-123825000D02*
X163830000Y-130175000D01*
X167640000Y-120015000D02*
X167640000Y-122555000D01*
X167640000Y-122555000D02*
X166370000Y-123825000D01*
X167640000Y-109855000D02*
X167640000Y-120015000D01*
X113030000Y-131445000D02*
X113030000Y-138430000D01*
X166370000Y-129540000D02*
X165735000Y-130175000D01*
X166370000Y-123825000D02*
X166370000Y-129540000D01*
X110490000Y-138430000D02*
X110490000Y-137795000D01*
X110490000Y-137795000D02*
X111760000Y-136525000D01*
X111760000Y-136525000D02*
X111760000Y-132715000D01*
X170180000Y-120015000D02*
X170180000Y-122555000D01*
X170180000Y-122555000D02*
X168910000Y-123825000D01*
X170180000Y-109855000D02*
X170180000Y-120015000D01*
X168910000Y-128905000D02*
X168275000Y-129540000D01*
X168910000Y-123825000D02*
X168910000Y-128905000D01*
X108585000Y-136525000D02*
X107950000Y-137160000D01*
X110490000Y-136525000D02*
X108585000Y-136525000D01*
X111125000Y-135890000D02*
X110490000Y-136525000D01*
X111125000Y-132080000D02*
X111125000Y-135890000D01*
X172720000Y-120015000D02*
X172720000Y-122555000D01*
X172720000Y-122555000D02*
X171450000Y-123825000D01*
X172720000Y-109855000D02*
X172720000Y-120015000D01*
X107950000Y-137160000D02*
X107950000Y-138430000D01*
X171450000Y-128270000D02*
X170815000Y-128905000D01*
X171450000Y-123825000D02*
X171450000Y-128270000D01*
X106045000Y-135890000D02*
X105410000Y-136525000D01*
X109855000Y-135890000D02*
X106045000Y-135890000D01*
X110490000Y-135255000D02*
X109855000Y-135890000D01*
X110490000Y-132715000D02*
X110490000Y-135255000D01*
X175260000Y-120015000D02*
X175260000Y-122555000D01*
X175260000Y-122555000D02*
X173990000Y-123825000D01*
X105410000Y-138430000D02*
X105410000Y-136525000D01*
X175260000Y-120015000D02*
X175260000Y-109855000D01*
X173990000Y-127635000D02*
X173355000Y-128270000D01*
X173990000Y-123825000D02*
X173990000Y-127635000D01*
X95250000Y-123825000D02*
X95250000Y-121285000D01*
X95250000Y-135255000D02*
X95250000Y-132715000D01*
X186690000Y-120015000D02*
X186690000Y-121285000D01*
X186690000Y-121285000D02*
X186055000Y-121920000D01*
X186690000Y-111760000D02*
X186690000Y-120015000D01*
X186690000Y-106680000D02*
X186690000Y-111760000D01*
X176530000Y-122555000D02*
X175260000Y-123825000D01*
X175260000Y-123825000D02*
X175260000Y-125095000D01*
X176530000Y-105410000D02*
X177165000Y-104775000D01*
X176530000Y-122555000D02*
X176530000Y-105410000D01*
X180975000Y-104775000D02*
X180975000Y-103505000D01*
X180975000Y-103505000D02*
X179705000Y-102235000D01*
X183515000Y-123190000D02*
X184150000Y-122555000D01*
X180975000Y-104775000D02*
X180975000Y-106045000D01*
X181610000Y-106680000D02*
X182880000Y-106680000D01*
X180975000Y-106045000D02*
X181610000Y-106680000D01*
X184150000Y-107950000D02*
X184150000Y-111760000D01*
X182880000Y-106680000D02*
X184150000Y-107950000D01*
X184150000Y-111760000D02*
X184150000Y-122555000D01*
X173990000Y-120015000D02*
X173990000Y-122555000D01*
X173990000Y-122555000D02*
X172720000Y-123825000D01*
X172720000Y-123825000D02*
X172720000Y-125095000D01*
X174625000Y-104775000D02*
X173990000Y-105410000D01*
X173990000Y-120015000D02*
X173990000Y-105410000D01*
X180340000Y-105410000D02*
X180340000Y-104140000D01*
X178435000Y-102235000D02*
X177165000Y-102235000D01*
X180340000Y-104140000D02*
X178435000Y-102235000D01*
X181610000Y-111760000D02*
X181610000Y-123190000D01*
X180340000Y-105410000D02*
X180340000Y-106680000D01*
X180340000Y-106680000D02*
X181610000Y-107950000D01*
X181610000Y-107950000D02*
X181610000Y-111760000D01*
X181610000Y-123190000D02*
X182880000Y-124460000D01*
X182880000Y-124460000D02*
X182880000Y-125095000D01*
X171450000Y-120015000D02*
X171450000Y-122555000D01*
X171450000Y-122555000D02*
X170180000Y-123825000D01*
X170180000Y-123825000D02*
X170180000Y-125095000D01*
X172085000Y-104775000D02*
X171450000Y-105410000D01*
X171450000Y-120015000D02*
X171450000Y-105410000D01*
X179070000Y-105410000D02*
X179070000Y-104140000D01*
X175260000Y-102870000D02*
X174625000Y-102235000D01*
X177800000Y-102870000D02*
X175260000Y-102870000D01*
X179070000Y-104140000D02*
X177800000Y-102870000D01*
X179705000Y-122555000D02*
X179070000Y-121920000D01*
X179070000Y-121920000D02*
X179070000Y-121285000D01*
X179070000Y-111760000D02*
X179070000Y-121285000D01*
X179070000Y-105410000D02*
X179070000Y-111760000D01*
X168910000Y-120015000D02*
X168910000Y-122555000D01*
X168910000Y-122555000D02*
X167640000Y-123825000D01*
X167640000Y-123825000D02*
X167640000Y-125095000D01*
X169545000Y-107950000D02*
X168910000Y-108585000D01*
X170180000Y-107950000D02*
X169545000Y-107950000D01*
X170815000Y-107315000D02*
X170180000Y-107950000D01*
X170815000Y-104775000D02*
X170815000Y-107315000D01*
X171450000Y-104140000D02*
X170815000Y-104775000D01*
X168910000Y-120015000D02*
X168910000Y-108585000D01*
X187960000Y-109855000D02*
X187960000Y-107950000D01*
X187960000Y-107950000D02*
X187325000Y-107315000D01*
X166370000Y-120015000D02*
X166370000Y-122555000D01*
X166370000Y-122555000D02*
X165100000Y-123825000D01*
X165100000Y-123825000D02*
X165100000Y-125095000D01*
X167005000Y-107950000D02*
X166370000Y-108585000D01*
X168275000Y-107950000D02*
X167005000Y-107950000D01*
X168910000Y-107315000D02*
X168275000Y-107950000D01*
X169545000Y-107315000D02*
X168910000Y-107315000D01*
X170180000Y-106680000D02*
X169545000Y-107315000D01*
X170180000Y-106045000D02*
X170180000Y-106680000D01*
X170180000Y-105410000D02*
X170180000Y-106045000D01*
X166370000Y-120015000D02*
X166370000Y-108585000D01*
X185420000Y-107950000D02*
X185420000Y-109855000D01*
X184785000Y-107315000D02*
X185420000Y-107950000D01*
X163830000Y-120015000D02*
X163830000Y-122555000D01*
X163830000Y-122555000D02*
X162560000Y-123825000D01*
X162560000Y-123825000D02*
X162560000Y-125095000D01*
X164465000Y-107950000D02*
X163830000Y-108585000D01*
X165735000Y-107950000D02*
X164465000Y-107950000D01*
X166370000Y-107315000D02*
X165735000Y-107950000D01*
X167005000Y-107315000D02*
X166370000Y-107315000D01*
X167640000Y-106680000D02*
X167005000Y-107315000D01*
X167640000Y-106045000D02*
X167640000Y-106680000D01*
X163830000Y-120015000D02*
X163830000Y-108585000D01*
X182880000Y-107950000D02*
X182880000Y-109855000D01*
X182245000Y-107315000D02*
X182880000Y-107950000D01*
X161290000Y-120015000D02*
X161290000Y-122555000D01*
X161290000Y-122555000D02*
X160020000Y-123825000D01*
X160020000Y-125095000D02*
X160020000Y-123825000D01*
X161925000Y-107950000D02*
X161290000Y-108585000D01*
X163195000Y-107950000D02*
X161925000Y-107950000D01*
X163830000Y-107315000D02*
X163195000Y-107950000D01*
X164465000Y-107315000D02*
X163830000Y-107315000D01*
X165100000Y-106680000D02*
X164465000Y-107315000D01*
X161290000Y-120015000D02*
X161290000Y-108585000D01*
X180340000Y-107950000D02*
X180340000Y-109855000D01*
X179705000Y-107315000D02*
X180340000Y-107950000D01*
X158750000Y-120015000D02*
X158750000Y-122555000D01*
X158750000Y-122555000D02*
X157480000Y-123825000D01*
X157480000Y-125095000D02*
X157480000Y-123825000D01*
X159385000Y-107315000D02*
X158750000Y-107950000D01*
X158750000Y-120015000D02*
X158750000Y-107950000D01*
X133985000Y-110490000D02*
X133985000Y-107315000D01*
X135890000Y-138430000D02*
X135890000Y-127635000D01*
X135890000Y-116840000D02*
X135890000Y-120015000D01*
X140970000Y-97155000D02*
X142240000Y-95885000D01*
X137795000Y-97155000D02*
X140970000Y-97155000D01*
X126365000Y-108585000D02*
X126365000Y-104140000D01*
X125730000Y-117475000D02*
X126365000Y-116840000D01*
X126365000Y-116840000D02*
X126365000Y-108585000D01*
X125730000Y-117475000D02*
X124460000Y-117475000D01*
X126365000Y-104140000D02*
X125730000Y-103505000D01*
D18*
G36*
X138253569Y-94783110D02*
X138202560Y-95035000D01*
X138202560Y-96311830D01*
X137981799Y-96220162D01*
X137609833Y-96219838D01*
X137266057Y-96361883D01*
X137002808Y-96624673D01*
X136860162Y-96968201D01*
X136859838Y-97340167D01*
X137001883Y-97683943D01*
X137264673Y-97947192D01*
X137608201Y-98089838D01*
X137980167Y-98090162D01*
X138276898Y-97967555D01*
X138185907Y-98425000D01*
X138298946Y-98993285D01*
X138620853Y-99475054D01*
X138950026Y-99695000D01*
X138620853Y-99914946D01*
X138298946Y-100396715D01*
X138185907Y-100965000D01*
X138298946Y-101533285D01*
X138620853Y-102015054D01*
X139102622Y-102336961D01*
X139670907Y-102450000D01*
X139729093Y-102450000D01*
X140297378Y-102336961D01*
X140779147Y-102015054D01*
X140970000Y-101729422D01*
X141160853Y-102015054D01*
X141642622Y-102336961D01*
X142210907Y-102450000D01*
X142269093Y-102450000D01*
X142837378Y-102336961D01*
X143319147Y-102015054D01*
X143641054Y-101533285D01*
X143754093Y-100965000D01*
X143641054Y-100396715D01*
X143319147Y-99914946D01*
X142989974Y-99695000D01*
X143319147Y-99475054D01*
X143641054Y-98993285D01*
X143754093Y-98425000D01*
X143641054Y-97856715D01*
X143319147Y-97374946D01*
X143277548Y-97347150D01*
X143325317Y-97338162D01*
X143541441Y-97199090D01*
X143686431Y-96986890D01*
X143737440Y-96735000D01*
X143737440Y-95035000D01*
X143693162Y-94799683D01*
X143622583Y-94690000D01*
X159168974Y-94690000D01*
X158824817Y-95003642D01*
X158578514Y-95528108D01*
X158699181Y-95758000D01*
X159893000Y-95758000D01*
X159893000Y-95738000D01*
X160147000Y-95738000D01*
X160147000Y-95758000D01*
X160167000Y-95758000D01*
X160167000Y-96012000D01*
X160147000Y-96012000D01*
X160147000Y-96032000D01*
X159893000Y-96032000D01*
X159893000Y-96012000D01*
X158699181Y-96012000D01*
X158578514Y-96241892D01*
X158824817Y-96766358D01*
X159253076Y-97156645D01*
X159253101Y-97156655D01*
X158969946Y-97345853D01*
X158648039Y-97827622D01*
X158535000Y-98395907D01*
X158535000Y-98454093D01*
X158648039Y-99022378D01*
X158969946Y-99504147D01*
X159451715Y-99826054D01*
X160020000Y-99939093D01*
X160588285Y-99826054D01*
X161070054Y-99504147D01*
X161290000Y-99174974D01*
X161509946Y-99504147D01*
X161991715Y-99826054D01*
X162560000Y-99939093D01*
X163128285Y-99826054D01*
X163610054Y-99504147D01*
X163830000Y-99174974D01*
X164049946Y-99504147D01*
X164531715Y-99826054D01*
X165100000Y-99939093D01*
X165668285Y-99826054D01*
X166150054Y-99504147D01*
X166370000Y-99174974D01*
X166589946Y-99504147D01*
X167071715Y-99826054D01*
X167640000Y-99939093D01*
X168208285Y-99826054D01*
X168690054Y-99504147D01*
X168910000Y-99174974D01*
X169129946Y-99504147D01*
X169611715Y-99826054D01*
X170180000Y-99939093D01*
X170748285Y-99826054D01*
X171230054Y-99504147D01*
X171450000Y-99174974D01*
X171669946Y-99504147D01*
X172151715Y-99826054D01*
X172720000Y-99939093D01*
X173288285Y-99826054D01*
X173770054Y-99504147D01*
X173990000Y-99174974D01*
X174209946Y-99504147D01*
X174691715Y-99826054D01*
X175260000Y-99939093D01*
X175828285Y-99826054D01*
X176310054Y-99504147D01*
X176530000Y-99174974D01*
X176749946Y-99504147D01*
X177231715Y-99826054D01*
X177800000Y-99939093D01*
X178368285Y-99826054D01*
X178850054Y-99504147D01*
X179070000Y-99174974D01*
X179289946Y-99504147D01*
X179771715Y-99826054D01*
X180340000Y-99939093D01*
X180908285Y-99826054D01*
X181390054Y-99504147D01*
X181617702Y-99163447D01*
X181684817Y-99306358D01*
X182113076Y-99696645D01*
X182523110Y-99866476D01*
X182753000Y-99745155D01*
X182753000Y-98552000D01*
X183007000Y-98552000D01*
X183007000Y-99745155D01*
X183236890Y-99866476D01*
X183646924Y-99696645D01*
X184075183Y-99306358D01*
X184321486Y-98781892D01*
X184200819Y-98552000D01*
X183007000Y-98552000D01*
X182753000Y-98552000D01*
X182733000Y-98552000D01*
X182733000Y-98298000D01*
X182753000Y-98298000D01*
X182753000Y-96012000D01*
X183007000Y-96012000D01*
X183007000Y-98298000D01*
X184200819Y-98298000D01*
X184321486Y-98068108D01*
X184075183Y-97543642D01*
X183875792Y-97361930D01*
X184089699Y-97273327D01*
X184268327Y-97094698D01*
X184365000Y-96861309D01*
X184365000Y-96170750D01*
X184206250Y-96012000D01*
X183007000Y-96012000D01*
X182753000Y-96012000D01*
X182733000Y-96012000D01*
X182733000Y-95758000D01*
X182753000Y-95758000D01*
X182753000Y-95738000D01*
X183007000Y-95738000D01*
X183007000Y-95758000D01*
X184206250Y-95758000D01*
X184365000Y-95599250D01*
X184365000Y-94908691D01*
X184274415Y-94690000D01*
X184484934Y-94690000D01*
X184484838Y-94800167D01*
X184626883Y-95143943D01*
X184889673Y-95407192D01*
X185233201Y-95549838D01*
X185280077Y-95549879D01*
X189105000Y-99374802D01*
X189105000Y-108022537D01*
X189072808Y-108054673D01*
X188930162Y-108398201D01*
X188929838Y-108770167D01*
X188936714Y-108786809D01*
X188720000Y-108642005D01*
X188720000Y-107950000D01*
X188662148Y-107659161D01*
X188497401Y-107412599D01*
X188260122Y-107175320D01*
X188260162Y-107129833D01*
X188118117Y-106786057D01*
X187855327Y-106522808D01*
X187591446Y-106413235D01*
X187483117Y-106151057D01*
X187220327Y-105887808D01*
X186876799Y-105745162D01*
X186504833Y-105744838D01*
X186161057Y-105886883D01*
X185897808Y-106149673D01*
X185755162Y-106493201D01*
X185754838Y-106865167D01*
X185896883Y-107208943D01*
X185930000Y-107242118D01*
X185930000Y-107385198D01*
X185720122Y-107175320D01*
X185720162Y-107129833D01*
X185578117Y-106786057D01*
X185315327Y-106522808D01*
X184971799Y-106380162D01*
X184599833Y-106379838D01*
X184256057Y-106521883D01*
X184026171Y-106751369D01*
X183417401Y-106142599D01*
X183170839Y-105977852D01*
X182880000Y-105920000D01*
X181924802Y-105920000D01*
X181735000Y-105730198D01*
X181735000Y-103505000D01*
X181677148Y-103214161D01*
X181677148Y-103214160D01*
X181512401Y-102967599D01*
X180640122Y-102095320D01*
X180640162Y-102049833D01*
X180498117Y-101706057D01*
X180235327Y-101442808D01*
X179891799Y-101300162D01*
X179519833Y-101299838D01*
X179176057Y-101441883D01*
X178940948Y-101676583D01*
X178725839Y-101532852D01*
X178435000Y-101475000D01*
X177727463Y-101475000D01*
X177695327Y-101442808D01*
X177351799Y-101300162D01*
X176979833Y-101299838D01*
X176636057Y-101441883D01*
X176372808Y-101704673D01*
X176230162Y-102048201D01*
X176230108Y-102110000D01*
X175574802Y-102110000D01*
X175560122Y-102095320D01*
X175560162Y-102049833D01*
X175418117Y-101706057D01*
X175155327Y-101442808D01*
X174811799Y-101300162D01*
X174439833Y-101299838D01*
X174096057Y-101441883D01*
X173832808Y-101704673D01*
X173690162Y-102048201D01*
X173689838Y-102420167D01*
X173824056Y-102745000D01*
X170815000Y-102745000D01*
X170524161Y-102802852D01*
X170277599Y-102967599D01*
X168595198Y-104650000D01*
X165100000Y-104650000D01*
X164809160Y-104707852D01*
X164562599Y-104872599D01*
X163515198Y-105920000D01*
X161852463Y-105920000D01*
X161820327Y-105887808D01*
X161476799Y-105745162D01*
X161104833Y-105744838D01*
X160761057Y-105886883D01*
X160497808Y-106149673D01*
X160355162Y-106493201D01*
X160354838Y-106865167D01*
X160496883Y-107208943D01*
X160759673Y-107472192D01*
X161103201Y-107614838D01*
X161185288Y-107614910D01*
X160752599Y-108047599D01*
X160587852Y-108294161D01*
X160547540Y-108496821D01*
X160020000Y-108391887D01*
X159510000Y-108493332D01*
X159510000Y-108264802D01*
X159524680Y-108250122D01*
X159570167Y-108250162D01*
X159913943Y-108108117D01*
X160177192Y-107845327D01*
X160319838Y-107501799D01*
X160320162Y-107129833D01*
X160178117Y-106786057D01*
X159915327Y-106522808D01*
X159571799Y-106380162D01*
X159199833Y-106379838D01*
X158856057Y-106521883D01*
X158592808Y-106784673D01*
X158450162Y-107128201D01*
X158450121Y-107175077D01*
X158212599Y-107412599D01*
X158047852Y-107659161D01*
X157990000Y-107950000D01*
X157990000Y-108493332D01*
X157480000Y-108391887D01*
X156930849Y-108501120D01*
X156465302Y-108812189D01*
X156210000Y-109194275D01*
X155954698Y-108812189D01*
X155489151Y-108501120D01*
X154940000Y-108391887D01*
X154390849Y-108501120D01*
X153925302Y-108812189D01*
X153670000Y-109194275D01*
X153414698Y-108812189D01*
X152949151Y-108501120D01*
X152400000Y-108391887D01*
X151850849Y-108501120D01*
X151385302Y-108812189D01*
X151130000Y-109194275D01*
X150874698Y-108812189D01*
X150409151Y-108501120D01*
X149860000Y-108391887D01*
X149310849Y-108501120D01*
X148845302Y-108812189D01*
X148590000Y-109194275D01*
X148334698Y-108812189D01*
X148080000Y-108642005D01*
X148080000Y-107950000D01*
X148022148Y-107659161D01*
X147857401Y-107412599D01*
X147620122Y-107175320D01*
X147620162Y-107129833D01*
X147478117Y-106786057D01*
X147215327Y-106522808D01*
X146871799Y-106380162D01*
X146499833Y-106379838D01*
X146156057Y-106521883D01*
X145892808Y-106784673D01*
X145750162Y-107128201D01*
X145749838Y-107500167D01*
X145891883Y-107843943D01*
X146154673Y-108107192D01*
X146498201Y-108249838D01*
X146545077Y-108249879D01*
X146560000Y-108264802D01*
X146560000Y-108642005D01*
X146305302Y-108812189D01*
X146050000Y-109194275D01*
X145794698Y-108812189D01*
X145329151Y-108501120D01*
X144780000Y-108391887D01*
X144230849Y-108501120D01*
X143765302Y-108812189D01*
X143510000Y-109194275D01*
X143254698Y-108812189D01*
X142789151Y-108501120D01*
X142240000Y-108391887D01*
X141690849Y-108501120D01*
X141225302Y-108812189D01*
X140970000Y-109194275D01*
X140714698Y-108812189D01*
X140249151Y-108501120D01*
X139700000Y-108391887D01*
X139150849Y-108501120D01*
X138685302Y-108812189D01*
X138374233Y-109277736D01*
X138265000Y-109826887D01*
X138265000Y-109883113D01*
X138374233Y-110432264D01*
X138685302Y-110897811D01*
X138940000Y-111067995D01*
X138940000Y-119452537D01*
X138907808Y-119484673D01*
X138765162Y-119828201D01*
X138764838Y-120200167D01*
X138906883Y-120543943D01*
X139169673Y-120807192D01*
X139513201Y-120949838D01*
X139885167Y-120950162D01*
X140228943Y-120808117D01*
X140492192Y-120545327D01*
X140634838Y-120201799D01*
X140635162Y-119829833D01*
X140493117Y-119486057D01*
X140460000Y-119452882D01*
X140460000Y-111067995D01*
X140714698Y-110897811D01*
X140970000Y-110515725D01*
X141225302Y-110897811D01*
X141690849Y-111208880D01*
X142240000Y-111318113D01*
X142789151Y-111208880D01*
X143254698Y-110897811D01*
X143510000Y-110515725D01*
X143765302Y-110897811D01*
X144230849Y-111208880D01*
X144780000Y-111318113D01*
X145329151Y-111208880D01*
X145794698Y-110897811D01*
X146050000Y-110515725D01*
X146305302Y-110897811D01*
X146770849Y-111208880D01*
X147320000Y-111318113D01*
X147869151Y-111208880D01*
X148334698Y-110897811D01*
X148590000Y-110515725D01*
X148845302Y-110897811D01*
X149310849Y-111208880D01*
X149860000Y-111318113D01*
X150409151Y-111208880D01*
X150874698Y-110897811D01*
X151130000Y-110515725D01*
X151385302Y-110897811D01*
X151850849Y-111208880D01*
X152400000Y-111318113D01*
X152949151Y-111208880D01*
X153414698Y-110897811D01*
X153670000Y-110515725D01*
X153925302Y-110897811D01*
X154390849Y-111208880D01*
X154940000Y-111318113D01*
X155489151Y-111208880D01*
X155954698Y-110897811D01*
X156210000Y-110515725D01*
X156465302Y-110897811D01*
X156720000Y-111067995D01*
X156720000Y-122240198D01*
X155672599Y-123287599D01*
X155507852Y-123534161D01*
X155467540Y-123736821D01*
X154940000Y-123631887D01*
X154390849Y-123741120D01*
X153925302Y-124052189D01*
X153670000Y-124434275D01*
X153414698Y-124052189D01*
X152949151Y-123741120D01*
X152400000Y-123631887D01*
X151850849Y-123741120D01*
X151385302Y-124052189D01*
X151130000Y-124434275D01*
X150874698Y-124052189D01*
X150409151Y-123741120D01*
X149860000Y-123631887D01*
X149310849Y-123741120D01*
X148845302Y-124052189D01*
X148590000Y-124434275D01*
X148334698Y-124052189D01*
X147869151Y-123741120D01*
X147320000Y-123631887D01*
X146770849Y-123741120D01*
X146305302Y-124052189D01*
X146050000Y-124434275D01*
X145794698Y-124052189D01*
X145329151Y-123741120D01*
X144780000Y-123631887D01*
X144230849Y-123741120D01*
X143765302Y-124052189D01*
X143510000Y-124434275D01*
X143254698Y-124052189D01*
X142789151Y-123741120D01*
X142240000Y-123631887D01*
X141690849Y-123741120D01*
X141225302Y-124052189D01*
X141135000Y-124187335D01*
X141135000Y-124168691D01*
X141038327Y-123935302D01*
X140859699Y-123756673D01*
X140626310Y-123660000D01*
X139985750Y-123660000D01*
X139827000Y-123818750D01*
X139827000Y-124968000D01*
X139847000Y-124968000D01*
X139847000Y-125222000D01*
X139827000Y-125222000D01*
X139827000Y-126371250D01*
X139985750Y-126530000D01*
X140626310Y-126530000D01*
X140859699Y-126433327D01*
X141038327Y-126254698D01*
X141135000Y-126021309D01*
X141135000Y-126002665D01*
X141225302Y-126137811D01*
X141690849Y-126448880D01*
X142240000Y-126558113D01*
X142789151Y-126448880D01*
X143254698Y-126137811D01*
X143510000Y-125755725D01*
X143765302Y-126137811D01*
X144230849Y-126448880D01*
X144780000Y-126558113D01*
X145329151Y-126448880D01*
X145794698Y-126137811D01*
X146050000Y-125755725D01*
X146305302Y-126137811D01*
X146770849Y-126448880D01*
X147320000Y-126558113D01*
X147869151Y-126448880D01*
X148334698Y-126137811D01*
X148590000Y-125755725D01*
X148845302Y-126137811D01*
X149310849Y-126448880D01*
X149860000Y-126558113D01*
X150409151Y-126448880D01*
X150874698Y-126137811D01*
X151130000Y-125755725D01*
X151385302Y-126137811D01*
X151590258Y-126274759D01*
X151474161Y-126297852D01*
X151227599Y-126462599D01*
X150592599Y-127097599D01*
X150427852Y-127344161D01*
X150370000Y-127635000D01*
X150370000Y-137157046D01*
X150079946Y-137350853D01*
X149852298Y-137691553D01*
X149785183Y-137548642D01*
X149356924Y-137158355D01*
X148946890Y-136988524D01*
X148717000Y-137109845D01*
X148717000Y-138303000D01*
X148737000Y-138303000D01*
X148737000Y-138557000D01*
X148717000Y-138557000D01*
X148717000Y-138577000D01*
X148463000Y-138577000D01*
X148463000Y-138557000D01*
X148443000Y-138557000D01*
X148443000Y-138303000D01*
X148463000Y-138303000D01*
X148463000Y-137109845D01*
X148233110Y-136988524D01*
X147823076Y-137158355D01*
X147394817Y-137548642D01*
X147327702Y-137691553D01*
X147100054Y-137350853D01*
X146618285Y-137028946D01*
X146050000Y-136915907D01*
X145481715Y-137028946D01*
X144999946Y-137350853D01*
X144780000Y-137680026D01*
X144560054Y-137350853D01*
X144270000Y-137157046D01*
X144270000Y-135890000D01*
X144212148Y-135599161D01*
X144047401Y-135352599D01*
X143412401Y-134717599D01*
X143165839Y-134552852D01*
X142875000Y-134495000D01*
X138109802Y-134495000D01*
X137920000Y-134305198D01*
X137920000Y-128197463D01*
X137952192Y-128165327D01*
X138094838Y-127821799D01*
X138095162Y-127449833D01*
X137953117Y-127106057D01*
X137690327Y-126842808D01*
X137426446Y-126733235D01*
X137318117Y-126471057D01*
X137055327Y-126207808D01*
X136711799Y-126065162D01*
X136339833Y-126064838D01*
X135996057Y-126206883D01*
X135890046Y-126312710D01*
X135785327Y-126207808D01*
X135441799Y-126065162D01*
X135069833Y-126064838D01*
X134726057Y-126206883D01*
X134462808Y-126469673D01*
X134320162Y-126813201D01*
X134319838Y-127185167D01*
X134461883Y-127528943D01*
X134495000Y-127562118D01*
X134495000Y-135575198D01*
X134305198Y-135765000D01*
X131445000Y-135765000D01*
X131154161Y-135822852D01*
X130907599Y-135987599D01*
X130272599Y-136622599D01*
X130107852Y-136869161D01*
X130050678Y-137156593D01*
X129759946Y-137350853D01*
X129540000Y-137680026D01*
X129320054Y-137350853D01*
X128838285Y-137028946D01*
X128270000Y-136915907D01*
X127701715Y-137028946D01*
X127219946Y-137350853D01*
X127000000Y-137680026D01*
X126780054Y-137350853D01*
X126298285Y-137028946D01*
X125730000Y-136915907D01*
X125161715Y-137028946D01*
X124679946Y-137350853D01*
X124460000Y-137680026D01*
X124240054Y-137350853D01*
X123950000Y-137157046D01*
X123950000Y-133664802D01*
X123964680Y-133650122D01*
X124010167Y-133650162D01*
X124353943Y-133508117D01*
X124617192Y-133245327D01*
X124759838Y-132901799D01*
X124760162Y-132529833D01*
X124618117Y-132186057D01*
X124355327Y-131922808D01*
X124011799Y-131780162D01*
X123639833Y-131779838D01*
X123296057Y-131921883D01*
X123032808Y-132184673D01*
X122890162Y-132528201D01*
X122890121Y-132575077D01*
X122652599Y-132812599D01*
X122487852Y-133059161D01*
X122430000Y-133350000D01*
X122430000Y-137157046D01*
X122139946Y-137350853D01*
X121920000Y-137680026D01*
X121700054Y-137350853D01*
X121410000Y-137157046D01*
X121410000Y-133664802D01*
X121424680Y-133650122D01*
X121470167Y-133650162D01*
X121813943Y-133508117D01*
X122077192Y-133245327D01*
X122219838Y-132901799D01*
X122220162Y-132529833D01*
X122078117Y-132186057D01*
X121815327Y-131922808D01*
X121471799Y-131780162D01*
X121099833Y-131779838D01*
X120756057Y-131921883D01*
X120492808Y-132184673D01*
X120350162Y-132528201D01*
X120350121Y-132575077D01*
X120112599Y-132812599D01*
X119947852Y-133059161D01*
X119890000Y-133350000D01*
X119890000Y-137157046D01*
X119599946Y-137350853D01*
X119380000Y-137680026D01*
X119160054Y-137350853D01*
X118870000Y-137157046D01*
X118870000Y-133029802D01*
X118884680Y-133015122D01*
X118930167Y-133015162D01*
X119273943Y-132873117D01*
X119537192Y-132610327D01*
X119679838Y-132266799D01*
X119680162Y-131894833D01*
X119538117Y-131551057D01*
X119275327Y-131287808D01*
X118931799Y-131145162D01*
X118559833Y-131144838D01*
X118216057Y-131286883D01*
X117952808Y-131549673D01*
X117810162Y-131893201D01*
X117810121Y-131940077D01*
X117572599Y-132177599D01*
X117407852Y-132424161D01*
X117350000Y-132715000D01*
X117350000Y-137157046D01*
X117059946Y-137350853D01*
X116840000Y-137680026D01*
X116620054Y-137350853D01*
X116330000Y-137157046D01*
X116330000Y-132394802D01*
X116344680Y-132380122D01*
X116390167Y-132380162D01*
X116733943Y-132238117D01*
X116997192Y-131975327D01*
X117139838Y-131631799D01*
X117140162Y-131259833D01*
X116998117Y-130916057D01*
X116735327Y-130652808D01*
X116391799Y-130510162D01*
X116330000Y-130510108D01*
X116330000Y-128974147D01*
X116811887Y-129070000D01*
X116868113Y-129070000D01*
X117417264Y-128960767D01*
X117882811Y-128649698D01*
X118193880Y-128184151D01*
X118303113Y-127635000D01*
X118193880Y-127085849D01*
X117882811Y-126620302D01*
X117500725Y-126365000D01*
X117882811Y-126109698D01*
X118193880Y-125644151D01*
X118233684Y-125444039D01*
X123068096Y-125444039D01*
X123228959Y-125832423D01*
X123604866Y-126247389D01*
X124110959Y-126486914D01*
X124333000Y-126365629D01*
X124333000Y-125222000D01*
X124587000Y-125222000D01*
X124587000Y-126365629D01*
X124809041Y-126486914D01*
X125315134Y-126247389D01*
X125691041Y-125832423D01*
X125851904Y-125444039D01*
X125729915Y-125222000D01*
X124587000Y-125222000D01*
X124333000Y-125222000D01*
X123190085Y-125222000D01*
X123068096Y-125444039D01*
X118233684Y-125444039D01*
X118303113Y-125095000D01*
X118193880Y-124545849D01*
X117882811Y-124080302D01*
X117500725Y-123825000D01*
X117882811Y-123569698D01*
X118193880Y-123104151D01*
X118303113Y-122555000D01*
X118193880Y-122005849D01*
X117882811Y-121540302D01*
X117500725Y-121285000D01*
X117882811Y-121029698D01*
X118193880Y-120564151D01*
X118303113Y-120015000D01*
X118193880Y-119465849D01*
X117882811Y-119000302D01*
X117500725Y-118745000D01*
X117882811Y-118489698D01*
X118193880Y-118024151D01*
X118303113Y-117475000D01*
X118193880Y-116925849D01*
X117882811Y-116460302D01*
X117500725Y-116205000D01*
X117882811Y-115949698D01*
X117940911Y-115862745D01*
X119821861Y-115862745D01*
X119895995Y-116108864D01*
X120433223Y-116301965D01*
X121003454Y-116274778D01*
X121404005Y-116108864D01*
X121478139Y-115862745D01*
X120650000Y-115034605D01*
X119821861Y-115862745D01*
X117940911Y-115862745D01*
X118193880Y-115484151D01*
X118303113Y-114935000D01*
X118244081Y-114638223D01*
X119203035Y-114638223D01*
X119230222Y-115208454D01*
X119396136Y-115609005D01*
X119642255Y-115683139D01*
X120470395Y-114855000D01*
X120829605Y-114855000D01*
X121657745Y-115683139D01*
X121903864Y-115609005D01*
X122096965Y-115071777D01*
X122069778Y-114501546D01*
X121903864Y-114100995D01*
X121657745Y-114026861D01*
X120829605Y-114855000D01*
X120470395Y-114855000D01*
X119642255Y-114026861D01*
X119396136Y-114100995D01*
X119203035Y-114638223D01*
X118244081Y-114638223D01*
X118193880Y-114385849D01*
X117882811Y-113920302D01*
X117773489Y-113847255D01*
X119821861Y-113847255D01*
X120650000Y-114675395D01*
X121478139Y-113847255D01*
X121404005Y-113601136D01*
X120866777Y-113408035D01*
X120296546Y-113435222D01*
X119895995Y-113601136D01*
X119821861Y-113847255D01*
X117773489Y-113847255D01*
X117500725Y-113665000D01*
X117882811Y-113409698D01*
X118193880Y-112944151D01*
X118303113Y-112395000D01*
X122996887Y-112395000D01*
X123106120Y-112944151D01*
X123417189Y-113409698D01*
X123799275Y-113665000D01*
X123417189Y-113920302D01*
X123106120Y-114385849D01*
X122996887Y-114935000D01*
X123106120Y-115484151D01*
X123417189Y-115949698D01*
X123799275Y-116205000D01*
X123417189Y-116460302D01*
X123106120Y-116925849D01*
X122996887Y-117475000D01*
X123106120Y-118024151D01*
X123417189Y-118489698D01*
X123799275Y-118745000D01*
X123417189Y-119000302D01*
X123106120Y-119465849D01*
X122996887Y-120015000D01*
X123106120Y-120564151D01*
X123417189Y-121029698D01*
X123799275Y-121285000D01*
X123417189Y-121540302D01*
X123106120Y-122005849D01*
X122996887Y-122555000D01*
X123106120Y-123104151D01*
X123417189Y-123569698D01*
X123821703Y-123839986D01*
X123604866Y-123942611D01*
X123228959Y-124357577D01*
X123068096Y-124745961D01*
X123190085Y-124968000D01*
X124333000Y-124968000D01*
X124333000Y-124948000D01*
X124587000Y-124948000D01*
X124587000Y-124968000D01*
X125729915Y-124968000D01*
X125851904Y-124745961D01*
X125691041Y-124357577D01*
X125315134Y-123942611D01*
X125098297Y-123839986D01*
X125502811Y-123569698D01*
X125672995Y-123315000D01*
X127635000Y-123315000D01*
X127925839Y-123257148D01*
X128172401Y-123092401D01*
X128807401Y-122457401D01*
X128905000Y-122311333D01*
X129002599Y-122457401D01*
X129637599Y-123092401D01*
X129884161Y-123257148D01*
X130175000Y-123315000D01*
X130867005Y-123315000D01*
X131037189Y-123569698D01*
X131419275Y-123825000D01*
X131037189Y-124080302D01*
X130726120Y-124545849D01*
X130616887Y-125095000D01*
X130726120Y-125644151D01*
X131037189Y-126109698D01*
X131502736Y-126420767D01*
X132051887Y-126530000D01*
X132108113Y-126530000D01*
X132657264Y-126420767D01*
X133122811Y-126109698D01*
X133433880Y-125644151D01*
X133481859Y-125402943D01*
X133504052Y-125380750D01*
X138265000Y-125380750D01*
X138265000Y-126021309D01*
X138361673Y-126254698D01*
X138540301Y-126433327D01*
X138773690Y-126530000D01*
X139414250Y-126530000D01*
X139573000Y-126371250D01*
X139573000Y-125222000D01*
X138423750Y-125222000D01*
X138265000Y-125380750D01*
X133504052Y-125380750D01*
X133887401Y-124997401D01*
X134052148Y-124750839D01*
X134110000Y-124460000D01*
X134110000Y-124168691D01*
X138265000Y-124168691D01*
X138265000Y-124809250D01*
X138423750Y-124968000D01*
X139573000Y-124968000D01*
X139573000Y-123818750D01*
X139414250Y-123660000D01*
X138773690Y-123660000D01*
X138540301Y-123756673D01*
X138361673Y-123935302D01*
X138265000Y-124168691D01*
X134110000Y-124168691D01*
X134110000Y-117025167D01*
X134954838Y-117025167D01*
X135096883Y-117368943D01*
X135130000Y-117402118D01*
X135130000Y-119452537D01*
X135097808Y-119484673D01*
X134955162Y-119828201D01*
X134954838Y-120200167D01*
X135096883Y-120543943D01*
X135359673Y-120807192D01*
X135703201Y-120949838D01*
X136075167Y-120950162D01*
X136243597Y-120880568D01*
X136366883Y-121178943D01*
X136629673Y-121442192D01*
X136973201Y-121584838D01*
X137345167Y-121585162D01*
X137688943Y-121443117D01*
X137952192Y-121180327D01*
X138094838Y-120836799D01*
X138095162Y-120464833D01*
X137953117Y-120121057D01*
X137920000Y-120087882D01*
X137920000Y-116767463D01*
X137952192Y-116735327D01*
X138094838Y-116391799D01*
X138095162Y-116019833D01*
X137953117Y-115676057D01*
X137690327Y-115412808D01*
X137346799Y-115270162D01*
X137265683Y-115270091D01*
X137336965Y-115071777D01*
X137309778Y-114501546D01*
X137143864Y-114100995D01*
X136897745Y-114026861D01*
X136069605Y-114855000D01*
X136083748Y-114869142D01*
X135904142Y-115048748D01*
X135890000Y-115034605D01*
X135061861Y-115862745D01*
X135135995Y-116108864D01*
X135255822Y-116151935D01*
X135097808Y-116309673D01*
X134955162Y-116653201D01*
X134954838Y-117025167D01*
X134110000Y-117025167D01*
X134110000Y-114638223D01*
X134443035Y-114638223D01*
X134470222Y-115208454D01*
X134636136Y-115609005D01*
X134882255Y-115683139D01*
X135710395Y-114855000D01*
X134882255Y-114026861D01*
X134636136Y-114100995D01*
X134443035Y-114638223D01*
X134110000Y-114638223D01*
X134110000Y-113847255D01*
X135061861Y-113847255D01*
X135890000Y-114675395D01*
X136718139Y-113847255D01*
X136644005Y-113601136D01*
X136106777Y-113408035D01*
X135536546Y-113435222D01*
X135135995Y-113601136D01*
X135061861Y-113847255D01*
X134110000Y-113847255D01*
X134110000Y-113030000D01*
X134052148Y-112739161D01*
X133887401Y-112492599D01*
X133481859Y-112087057D01*
X133433880Y-111845849D01*
X133122811Y-111380302D01*
X132740725Y-111125000D01*
X133122811Y-110869698D01*
X133127387Y-110862850D01*
X133191883Y-111018943D01*
X133454673Y-111282192D01*
X133798201Y-111424838D01*
X134170167Y-111425162D01*
X134513943Y-111283117D01*
X134777192Y-111020327D01*
X134850186Y-110844539D01*
X135076077Y-111070824D01*
X135603309Y-111289750D01*
X136174187Y-111290248D01*
X136701800Y-111072243D01*
X137105824Y-110668923D01*
X137324750Y-110141691D01*
X137325248Y-109570813D01*
X137107243Y-109043200D01*
X136703923Y-108639176D01*
X136176691Y-108420250D01*
X135605813Y-108419752D01*
X135078200Y-108637757D01*
X134745000Y-108970376D01*
X134745000Y-107877463D01*
X134777192Y-107845327D01*
X134919838Y-107501799D01*
X134920162Y-107129833D01*
X134778117Y-106786057D01*
X134515327Y-106522808D01*
X134171799Y-106380162D01*
X133799833Y-106379838D01*
X133456057Y-106521883D01*
X133192808Y-106784673D01*
X133050162Y-107128201D01*
X133049838Y-107500167D01*
X133191883Y-107843943D01*
X133225000Y-107877118D01*
X133225000Y-108993238D01*
X133122811Y-108840302D01*
X132657264Y-108529233D01*
X132108113Y-108420000D01*
X132051887Y-108420000D01*
X131570000Y-108515853D01*
X131570000Y-107877463D01*
X131602192Y-107845327D01*
X131744838Y-107501799D01*
X131745162Y-107129833D01*
X131603117Y-106786057D01*
X131340327Y-106522808D01*
X130996799Y-106380162D01*
X130935000Y-106380108D01*
X130935000Y-105410000D01*
X130877148Y-105119161D01*
X130712401Y-104872599D01*
X130475122Y-104635320D01*
X130475162Y-104589833D01*
X130333117Y-104246057D01*
X130070327Y-103982808D01*
X129726799Y-103840162D01*
X129354833Y-103839838D01*
X129011057Y-103981883D01*
X128747808Y-104244673D01*
X128638235Y-104508554D01*
X128376057Y-104616883D01*
X128112808Y-104879673D01*
X127970162Y-105223201D01*
X127969838Y-105595167D01*
X128075310Y-105850430D01*
X127821799Y-105745162D01*
X127760000Y-105745108D01*
X127760000Y-104067463D01*
X127792192Y-104035327D01*
X127934838Y-103691799D01*
X127935162Y-103319833D01*
X127793117Y-102976057D01*
X127530327Y-102712808D01*
X127186799Y-102570162D01*
X126814833Y-102569838D01*
X126471057Y-102711883D01*
X126365046Y-102817710D01*
X126260327Y-102712808D01*
X125916799Y-102570162D01*
X125544833Y-102569838D01*
X125376403Y-102639432D01*
X125253117Y-102341057D01*
X124990327Y-102077808D01*
X124646799Y-101935162D01*
X124274833Y-101934838D01*
X123931057Y-102076883D01*
X123667808Y-102339673D01*
X123525162Y-102683201D01*
X123524838Y-103055167D01*
X123666883Y-103398943D01*
X123700000Y-103432118D01*
X123700000Y-108407560D01*
X123660000Y-108407560D01*
X123424683Y-108451838D01*
X123208559Y-108590910D01*
X123063569Y-108803110D01*
X123012560Y-109055000D01*
X123012560Y-110655000D01*
X123056838Y-110890317D01*
X123195910Y-111106441D01*
X123408110Y-111251431D01*
X123563089Y-111282815D01*
X123417189Y-111380302D01*
X123106120Y-111845849D01*
X122996887Y-112395000D01*
X118303113Y-112395000D01*
X118193880Y-111845849D01*
X117882811Y-111380302D01*
X117500725Y-111125000D01*
X117882811Y-110869698D01*
X118193880Y-110404151D01*
X118246584Y-110139187D01*
X119214752Y-110139187D01*
X119432757Y-110666800D01*
X119836077Y-111070824D01*
X120363309Y-111289750D01*
X120934187Y-111290248D01*
X121461800Y-111072243D01*
X121865824Y-110668923D01*
X122084750Y-110141691D01*
X122085248Y-109570813D01*
X121867243Y-109043200D01*
X121463923Y-108639176D01*
X120936691Y-108420250D01*
X120365813Y-108419752D01*
X119838200Y-108637757D01*
X119434176Y-109041077D01*
X119215250Y-109568309D01*
X119214752Y-110139187D01*
X118246584Y-110139187D01*
X118303113Y-109855000D01*
X118193880Y-109305849D01*
X117882811Y-108840302D01*
X117417264Y-108529233D01*
X116868113Y-108420000D01*
X116811887Y-108420000D01*
X116262736Y-108529233D01*
X115797189Y-108840302D01*
X115486120Y-109305849D01*
X115376887Y-109855000D01*
X115486120Y-110404151D01*
X115797189Y-110869698D01*
X116179275Y-111125000D01*
X115797189Y-111380302D01*
X115627005Y-111635000D01*
X114935000Y-111635000D01*
X114644161Y-111692852D01*
X114397599Y-111857599D01*
X113762599Y-112492599D01*
X113597852Y-112739161D01*
X113540000Y-113030000D01*
X113540000Y-129225198D01*
X113350198Y-129415000D01*
X113030000Y-129415000D01*
X112739161Y-129472852D01*
X112492599Y-129637599D01*
X111857599Y-130272599D01*
X111692852Y-130519161D01*
X111635000Y-130810000D01*
X111635000Y-131279367D01*
X111311799Y-131145162D01*
X110939833Y-131144838D01*
X110596057Y-131286883D01*
X110332808Y-131549673D01*
X110223235Y-131813554D01*
X109961057Y-131921883D01*
X109697808Y-132184673D01*
X109555162Y-132528201D01*
X109554838Y-132900167D01*
X109696883Y-133243943D01*
X109730000Y-133277118D01*
X109730000Y-134940198D01*
X109540198Y-135130000D01*
X106045000Y-135130000D01*
X105754161Y-135187852D01*
X105507599Y-135352599D01*
X104872599Y-135987599D01*
X104707852Y-136234161D01*
X104650000Y-136525000D01*
X104650000Y-137157046D01*
X104359946Y-137350853D01*
X104140000Y-137680026D01*
X103920054Y-137350853D01*
X103629322Y-137156593D01*
X103572148Y-136869161D01*
X103407401Y-136622599D01*
X102772401Y-135987599D01*
X102525839Y-135822852D01*
X102235000Y-135765000D01*
X101279802Y-135765000D01*
X101090000Y-135575198D01*
X101090000Y-133277463D01*
X101122192Y-133245327D01*
X101264838Y-132901799D01*
X101265162Y-132529833D01*
X101123117Y-132186057D01*
X100860327Y-131922808D01*
X100516799Y-131780162D01*
X100144833Y-131779838D01*
X99801057Y-131921883D01*
X99537808Y-132184673D01*
X99395162Y-132528201D01*
X99394838Y-132900167D01*
X99536883Y-133243943D01*
X99570000Y-133277118D01*
X99570000Y-135890000D01*
X99627852Y-136180839D01*
X99792599Y-136427401D01*
X100289217Y-136924019D01*
X99761715Y-137028946D01*
X99279946Y-137350853D01*
X99060000Y-137680026D01*
X98840054Y-137350853D01*
X98358285Y-137028946D01*
X97790000Y-136915907D01*
X97221715Y-137028946D01*
X96739946Y-137350853D01*
X96520000Y-137680026D01*
X96300054Y-137350853D01*
X95818285Y-137028946D01*
X95250000Y-136915907D01*
X94681715Y-137028946D01*
X94199946Y-137350853D01*
X93980000Y-137680026D01*
X93760054Y-137350853D01*
X93278285Y-137028946D01*
X92710000Y-136915907D01*
X92150000Y-137027298D01*
X92150000Y-135382467D01*
X92179673Y-135412192D01*
X92523201Y-135554838D01*
X92895167Y-135555162D01*
X93238943Y-135413117D01*
X93502192Y-135150327D01*
X93644838Y-134806799D01*
X93645162Y-134434833D01*
X93503117Y-134091057D01*
X93240327Y-133827808D01*
X92896799Y-133685162D01*
X92849923Y-133685121D01*
X92835000Y-133670198D01*
X92835000Y-132900167D01*
X94314838Y-132900167D01*
X94456883Y-133243943D01*
X94490000Y-133277118D01*
X94490000Y-134692537D01*
X94457808Y-134724673D01*
X94315162Y-135068201D01*
X94314838Y-135440167D01*
X94456883Y-135783943D01*
X94719673Y-136047192D01*
X94983554Y-136156765D01*
X95091883Y-136418943D01*
X95354673Y-136682192D01*
X95698201Y-136824838D01*
X96070167Y-136825162D01*
X96413943Y-136683117D01*
X96677192Y-136420327D01*
X96786765Y-136156446D01*
X97048943Y-136048117D01*
X97312192Y-135785327D01*
X97454838Y-135441799D01*
X97455162Y-135069833D01*
X97313117Y-134726057D01*
X97280000Y-134692882D01*
X97280000Y-133277463D01*
X97312192Y-133245327D01*
X97454838Y-132901799D01*
X97455162Y-132529833D01*
X97313117Y-132186057D01*
X97050327Y-131922808D01*
X96786446Y-131813235D01*
X96678117Y-131551057D01*
X96415327Y-131287808D01*
X96071799Y-131145162D01*
X95699833Y-131144838D01*
X95356057Y-131286883D01*
X95092808Y-131549673D01*
X94983235Y-131813554D01*
X94721057Y-131921883D01*
X94457808Y-132184673D01*
X94315162Y-132528201D01*
X94314838Y-132900167D01*
X92835000Y-132900167D01*
X92835000Y-128467404D01*
X93124866Y-128787389D01*
X93630959Y-129026914D01*
X93853000Y-128905629D01*
X93853000Y-127762000D01*
X94107000Y-127762000D01*
X94107000Y-128905629D01*
X94329041Y-129026914D01*
X94835134Y-128787389D01*
X95211041Y-128372423D01*
X95371904Y-127984039D01*
X95249915Y-127762000D01*
X94107000Y-127762000D01*
X93853000Y-127762000D01*
X93833000Y-127762000D01*
X93833000Y-127508000D01*
X93853000Y-127508000D01*
X93853000Y-127488000D01*
X94107000Y-127488000D01*
X94107000Y-127508000D01*
X95249915Y-127508000D01*
X95371904Y-127285961D01*
X95211041Y-126897577D01*
X94835134Y-126482611D01*
X94618297Y-126379986D01*
X95022811Y-126109698D01*
X95333880Y-125644151D01*
X95381859Y-125402943D01*
X95564802Y-125220000D01*
X96592537Y-125220000D01*
X96624673Y-125252192D01*
X96968201Y-125394838D01*
X97340167Y-125395162D01*
X97683943Y-125253117D01*
X97947192Y-124990327D01*
X98089838Y-124646799D01*
X98090162Y-124274833D01*
X97948117Y-123931057D01*
X97685327Y-123667808D01*
X97421446Y-123558235D01*
X97313117Y-123296057D01*
X97280000Y-123262882D01*
X97280000Y-121847463D01*
X97312192Y-121815327D01*
X97454838Y-121471799D01*
X97455162Y-121099833D01*
X97345805Y-120835167D01*
X98759838Y-120835167D01*
X98901883Y-121178943D01*
X99164673Y-121442192D01*
X99508201Y-121584838D01*
X99570000Y-121584892D01*
X99570000Y-128342537D01*
X99537808Y-128374673D01*
X99395162Y-128718201D01*
X99394838Y-129090167D01*
X99536883Y-129433943D01*
X99799673Y-129697192D01*
X100143201Y-129839838D01*
X100515167Y-129840162D01*
X100858943Y-129698117D01*
X101122192Y-129435327D01*
X101264838Y-129091799D01*
X101264910Y-129008938D01*
X101571887Y-129070000D01*
X101628113Y-129070000D01*
X102177264Y-128960767D01*
X102642811Y-128649698D01*
X102953880Y-128184151D01*
X103063113Y-127635000D01*
X102953880Y-127085849D01*
X102642811Y-126620302D01*
X102260725Y-126365000D01*
X102642811Y-126109698D01*
X102953880Y-125644151D01*
X103063113Y-125095000D01*
X103895907Y-125095000D01*
X104008946Y-125663285D01*
X104330853Y-126145054D01*
X104660026Y-126365000D01*
X104330853Y-126584946D01*
X104008946Y-127066715D01*
X103895907Y-127635000D01*
X104008946Y-128203285D01*
X104330853Y-128685054D01*
X104812622Y-129006961D01*
X105380907Y-129120000D01*
X105439093Y-129120000D01*
X106007378Y-129006961D01*
X106489147Y-128685054D01*
X106811054Y-128203285D01*
X106854664Y-127984039D01*
X107828096Y-127984039D01*
X107988959Y-128372423D01*
X108364866Y-128787389D01*
X108870959Y-129026914D01*
X109093000Y-128905629D01*
X109093000Y-127762000D01*
X109347000Y-127762000D01*
X109347000Y-128905629D01*
X109569041Y-129026914D01*
X110075134Y-128787389D01*
X110451041Y-128372423D01*
X110611904Y-127984039D01*
X110489915Y-127762000D01*
X109347000Y-127762000D01*
X109093000Y-127762000D01*
X107950085Y-127762000D01*
X107828096Y-127984039D01*
X106854664Y-127984039D01*
X106924093Y-127635000D01*
X106811054Y-127066715D01*
X106489147Y-126584946D01*
X106159974Y-126365000D01*
X106489147Y-126145054D01*
X106811054Y-125663285D01*
X106924093Y-125095000D01*
X106811054Y-124526715D01*
X106489147Y-124044946D01*
X106447548Y-124017150D01*
X106495317Y-124008162D01*
X106711441Y-123869090D01*
X106856431Y-123656890D01*
X106907440Y-123405000D01*
X106907440Y-121705000D01*
X106863162Y-121469683D01*
X106724090Y-121253559D01*
X106511890Y-121108569D01*
X106260000Y-121057560D01*
X104560000Y-121057560D01*
X104324683Y-121101838D01*
X104108559Y-121240910D01*
X103963569Y-121453110D01*
X103912560Y-121705000D01*
X103912560Y-123405000D01*
X103956838Y-123640317D01*
X104095910Y-123856441D01*
X104308110Y-124001431D01*
X104375541Y-124015086D01*
X104330853Y-124044946D01*
X104008946Y-124526715D01*
X103895907Y-125095000D01*
X103063113Y-125095000D01*
X102953880Y-124545849D01*
X102642811Y-124080302D01*
X102260725Y-123825000D01*
X102642811Y-123569698D01*
X102953880Y-123104151D01*
X103063113Y-122555000D01*
X102953880Y-122005849D01*
X102642811Y-121540302D01*
X102260725Y-121285000D01*
X102642811Y-121029698D01*
X102953880Y-120564151D01*
X103063113Y-120015000D01*
X102953880Y-119465849D01*
X102642811Y-119000302D01*
X102260725Y-118745000D01*
X102642811Y-118489698D01*
X102953880Y-118024151D01*
X103063113Y-117475000D01*
X102953880Y-116925849D01*
X102642811Y-116460302D01*
X102260725Y-116205000D01*
X102642811Y-115949698D01*
X102700911Y-115862745D01*
X104581861Y-115862745D01*
X104655995Y-116108864D01*
X105193223Y-116301965D01*
X105763454Y-116274778D01*
X106164005Y-116108864D01*
X106238139Y-115862745D01*
X105410000Y-115034605D01*
X104581861Y-115862745D01*
X102700911Y-115862745D01*
X102953880Y-115484151D01*
X103063113Y-114935000D01*
X103004081Y-114638223D01*
X103963035Y-114638223D01*
X103990222Y-115208454D01*
X104156136Y-115609005D01*
X104402255Y-115683139D01*
X105230395Y-114855000D01*
X104402255Y-114026861D01*
X104156136Y-114100995D01*
X103963035Y-114638223D01*
X103004081Y-114638223D01*
X102953880Y-114385849D01*
X102642811Y-113920302D01*
X102533489Y-113847255D01*
X104581861Y-113847255D01*
X105410000Y-114675395D01*
X106238139Y-113847255D01*
X106164005Y-113601136D01*
X105626777Y-113408035D01*
X105056546Y-113435222D01*
X104655995Y-113601136D01*
X104581861Y-113847255D01*
X102533489Y-113847255D01*
X102260725Y-113665000D01*
X102642811Y-113409698D01*
X102953880Y-112944151D01*
X103063113Y-112395000D01*
X102953880Y-111845849D01*
X102642811Y-111380302D01*
X102260725Y-111125000D01*
X102642811Y-110869698D01*
X102953880Y-110404151D01*
X103006584Y-110139187D01*
X103974752Y-110139187D01*
X104192757Y-110666800D01*
X104596077Y-111070824D01*
X105123309Y-111289750D01*
X105694187Y-111290248D01*
X106221800Y-111072243D01*
X106555000Y-110739624D01*
X106555000Y-114068204D01*
X106417745Y-114026861D01*
X105589605Y-114855000D01*
X106417745Y-115683139D01*
X106555000Y-115641796D01*
X106555000Y-118817537D01*
X106522808Y-118849673D01*
X106380162Y-119193201D01*
X106379838Y-119565167D01*
X106521883Y-119908943D01*
X106784673Y-120172192D01*
X107128201Y-120314838D01*
X107190000Y-120314892D01*
X107190000Y-123825000D01*
X107247852Y-124115839D01*
X107412599Y-124362401D01*
X107821312Y-124771114D01*
X107756887Y-125095000D01*
X107866120Y-125644151D01*
X108177189Y-126109698D01*
X108581703Y-126379986D01*
X108364866Y-126482611D01*
X107988959Y-126897577D01*
X107828096Y-127285961D01*
X107950085Y-127508000D01*
X109093000Y-127508000D01*
X109093000Y-127488000D01*
X109347000Y-127488000D01*
X109347000Y-127508000D01*
X110489915Y-127508000D01*
X110611904Y-127285961D01*
X110451041Y-126897577D01*
X110075134Y-126482611D01*
X109858297Y-126379986D01*
X110262811Y-126109698D01*
X110573880Y-125644151D01*
X110683113Y-125095000D01*
X110573880Y-124545849D01*
X110262811Y-124080302D01*
X109880725Y-123825000D01*
X110262811Y-123569698D01*
X110573880Y-123104151D01*
X110683113Y-122555000D01*
X110573880Y-122005849D01*
X110262811Y-121540302D01*
X109880725Y-121285000D01*
X110262811Y-121029698D01*
X110573880Y-120564151D01*
X110683113Y-120015000D01*
X110573880Y-119465849D01*
X110262811Y-119000302D01*
X109980000Y-118811333D01*
X109980000Y-118678667D01*
X110262811Y-118489698D01*
X110573880Y-118024151D01*
X110683113Y-117475000D01*
X110573880Y-116925849D01*
X110262811Y-116460302D01*
X109980000Y-116271333D01*
X109980000Y-116138667D01*
X110262811Y-115949698D01*
X110573880Y-115484151D01*
X110683113Y-114935000D01*
X110573880Y-114385849D01*
X110262811Y-113920302D01*
X109980000Y-113731333D01*
X109980000Y-113598667D01*
X110262811Y-113409698D01*
X110573880Y-112944151D01*
X110683113Y-112395000D01*
X110573880Y-111845849D01*
X110262811Y-111380302D01*
X110118535Y-111283899D01*
X110255317Y-111258162D01*
X110471441Y-111119090D01*
X110616431Y-110906890D01*
X110667440Y-110655000D01*
X110667440Y-109055000D01*
X110623162Y-108819683D01*
X110484090Y-108603559D01*
X110271890Y-108458569D01*
X110020000Y-108407560D01*
X108710000Y-108407560D01*
X108710000Y-106359802D01*
X110629680Y-104440122D01*
X110675167Y-104440162D01*
X111018943Y-104298117D01*
X111282192Y-104035327D01*
X111424838Y-103691799D01*
X111425162Y-103319833D01*
X111283117Y-102976057D01*
X111020327Y-102712808D01*
X110676799Y-102570162D01*
X110304833Y-102569838D01*
X109961057Y-102711883D01*
X109855046Y-102817710D01*
X109750327Y-102712808D01*
X109406799Y-102570162D01*
X109034833Y-102569838D01*
X108691057Y-102711883D01*
X108427808Y-102974673D01*
X108285162Y-103318201D01*
X108285121Y-103365077D01*
X106777599Y-104872599D01*
X106612852Y-105119161D01*
X106555000Y-105410000D01*
X106555000Y-108970831D01*
X106223923Y-108639176D01*
X105696691Y-108420250D01*
X105125813Y-108419752D01*
X104598200Y-108637757D01*
X104194176Y-109041077D01*
X103975250Y-109568309D01*
X103974752Y-110139187D01*
X103006584Y-110139187D01*
X103063113Y-109855000D01*
X102953880Y-109305849D01*
X102642811Y-108840302D01*
X102177264Y-108529233D01*
X101628113Y-108420000D01*
X101571887Y-108420000D01*
X101022736Y-108529233D01*
X100557189Y-108840302D01*
X100387005Y-109095000D01*
X100330000Y-109095000D01*
X100039161Y-109152852D01*
X99792599Y-109317599D01*
X99157599Y-109952599D01*
X98992852Y-110199161D01*
X98935000Y-110490000D01*
X98935000Y-120087537D01*
X98902808Y-120119673D01*
X98760162Y-120463201D01*
X98759838Y-120835167D01*
X97345805Y-120835167D01*
X97313117Y-120756057D01*
X97050327Y-120492808D01*
X96706799Y-120350162D01*
X96334833Y-120349838D01*
X95991057Y-120491883D01*
X95885046Y-120597710D01*
X95780327Y-120492808D01*
X95436799Y-120350162D01*
X95364245Y-120350099D01*
X95249915Y-120142000D01*
X94107000Y-120142000D01*
X94107000Y-120162000D01*
X93853000Y-120162000D01*
X93853000Y-120142000D01*
X93833000Y-120142000D01*
X93833000Y-119888000D01*
X93853000Y-119888000D01*
X93853000Y-117602000D01*
X94107000Y-117602000D01*
X94107000Y-119888000D01*
X95249915Y-119888000D01*
X95371904Y-119665961D01*
X95211041Y-119277577D01*
X94835134Y-118862611D01*
X94586633Y-118745000D01*
X94835134Y-118627389D01*
X95211041Y-118212423D01*
X95371904Y-117824039D01*
X95249915Y-117602000D01*
X94107000Y-117602000D01*
X93853000Y-117602000D01*
X93833000Y-117602000D01*
X93833000Y-117348000D01*
X93853000Y-117348000D01*
X93853000Y-117328000D01*
X94107000Y-117328000D01*
X94107000Y-117348000D01*
X95249915Y-117348000D01*
X95371904Y-117125961D01*
X95211041Y-116737577D01*
X94835134Y-116322611D01*
X94618297Y-116219986D01*
X94742317Y-116137119D01*
X95347599Y-116742401D01*
X95594161Y-116907148D01*
X95885000Y-116965000D01*
X96205198Y-116965000D01*
X96219878Y-116979680D01*
X96219838Y-117025167D01*
X96361883Y-117368943D01*
X96624673Y-117632192D01*
X96968201Y-117774838D01*
X97340167Y-117775162D01*
X97683943Y-117633117D01*
X97947192Y-117370327D01*
X98089838Y-117026799D01*
X98090162Y-116654833D01*
X97948117Y-116311057D01*
X97842290Y-116205046D01*
X97947192Y-116100327D01*
X98089838Y-115756799D01*
X98090162Y-115384833D01*
X97948117Y-115041057D01*
X97842290Y-114935046D01*
X97947192Y-114830327D01*
X98089838Y-114486799D01*
X98090162Y-114114833D01*
X97948117Y-113771057D01*
X97685327Y-113507808D01*
X97341799Y-113365162D01*
X97294923Y-113365121D01*
X97280000Y-113350198D01*
X97280000Y-107315000D01*
X97222148Y-107024161D01*
X97057401Y-106777599D01*
X96422401Y-106142599D01*
X96175839Y-105977852D01*
X95885000Y-105920000D01*
X94294802Y-105920000D01*
X94105000Y-105730198D01*
X94105000Y-105710110D01*
X94165167Y-105710162D01*
X94508943Y-105568117D01*
X94772192Y-105305327D01*
X94914838Y-104961799D01*
X94915162Y-104589833D01*
X94773117Y-104246057D01*
X94740000Y-104212882D01*
X94740000Y-101916498D01*
X94805853Y-102015054D01*
X95287622Y-102336961D01*
X95855907Y-102450000D01*
X95914093Y-102450000D01*
X96219865Y-102389178D01*
X96219838Y-102420167D01*
X96361883Y-102763943D01*
X96624673Y-103027192D01*
X96968201Y-103169838D01*
X97340167Y-103170162D01*
X97683943Y-103028117D01*
X97947192Y-102765327D01*
X98089838Y-102421799D01*
X98089866Y-102389125D01*
X98395907Y-102450000D01*
X98454093Y-102450000D01*
X98759865Y-102389178D01*
X98759838Y-102420167D01*
X98901883Y-102763943D01*
X99164673Y-103027192D01*
X99508201Y-103169838D01*
X99880167Y-103170162D01*
X100223943Y-103028117D01*
X100487192Y-102765327D01*
X100629838Y-102421799D01*
X100629866Y-102389125D01*
X100935907Y-102450000D01*
X100994093Y-102450000D01*
X101562378Y-102336961D01*
X102044147Y-102015054D01*
X102235000Y-101729422D01*
X102425853Y-102015054D01*
X102907622Y-102336961D01*
X103475907Y-102450000D01*
X103534093Y-102450000D01*
X104102378Y-102336961D01*
X104584147Y-102015054D01*
X104775000Y-101729422D01*
X104965853Y-102015054D01*
X105447622Y-102336961D01*
X106015907Y-102450000D01*
X106074093Y-102450000D01*
X106642378Y-102336961D01*
X107124147Y-102015054D01*
X107446054Y-101533285D01*
X107559093Y-100965000D01*
X107486210Y-100598592D01*
X107629802Y-100455000D01*
X112861751Y-100455000D01*
X112946120Y-100879151D01*
X113257189Y-101344698D01*
X113722736Y-101655767D01*
X114271887Y-101765000D01*
X114328113Y-101765000D01*
X114877264Y-101655767D01*
X115342811Y-101344698D01*
X115653880Y-100879151D01*
X115727484Y-100509121D01*
X116018201Y-100629838D01*
X116390167Y-100630162D01*
X116428829Y-100614187D01*
X123024752Y-100614187D01*
X123242757Y-101141800D01*
X123646077Y-101545824D01*
X124173309Y-101764750D01*
X124744187Y-101765248D01*
X125271800Y-101547243D01*
X125675824Y-101143923D01*
X125894750Y-100616691D01*
X125895248Y-100045813D01*
X125677243Y-99518200D01*
X125273923Y-99114176D01*
X124746691Y-98895250D01*
X124175813Y-98894752D01*
X123648200Y-99112757D01*
X123244176Y-99516077D01*
X123025250Y-100043309D01*
X123024752Y-100614187D01*
X116428829Y-100614187D01*
X116733943Y-100488117D01*
X116997192Y-100225327D01*
X117139838Y-99881799D01*
X117140162Y-99509833D01*
X116998117Y-99166057D01*
X116965000Y-99132882D01*
X116965000Y-97155000D01*
X116907148Y-96864161D01*
X116867075Y-96804187D01*
X123024752Y-96804187D01*
X123242757Y-97331800D01*
X123646077Y-97735824D01*
X124173309Y-97954750D01*
X124744187Y-97955248D01*
X125271800Y-97737243D01*
X125675824Y-97333923D01*
X125894750Y-96806691D01*
X125895248Y-96235813D01*
X125677243Y-95708200D01*
X125273923Y-95304176D01*
X124746691Y-95085250D01*
X124175813Y-95084752D01*
X123648200Y-95302757D01*
X123244176Y-95706077D01*
X123025250Y-96233309D01*
X123024752Y-96804187D01*
X116867075Y-96804187D01*
X116742401Y-96617599D01*
X116107401Y-95982599D01*
X115860839Y-95817852D01*
X115570000Y-95760000D01*
X115512995Y-95760000D01*
X115342811Y-95505302D01*
X114877264Y-95194233D01*
X114328113Y-95085000D01*
X114271887Y-95085000D01*
X113994898Y-95140096D01*
X113544802Y-94690000D01*
X138317188Y-94690000D01*
X138253569Y-94783110D01*
X138253569Y-94783110D01*
G37*
X138253569Y-94783110D02*
X138202560Y-95035000D01*
X138202560Y-96311830D01*
X137981799Y-96220162D01*
X137609833Y-96219838D01*
X137266057Y-96361883D01*
X137002808Y-96624673D01*
X136860162Y-96968201D01*
X136859838Y-97340167D01*
X137001883Y-97683943D01*
X137264673Y-97947192D01*
X137608201Y-98089838D01*
X137980167Y-98090162D01*
X138276898Y-97967555D01*
X138185907Y-98425000D01*
X138298946Y-98993285D01*
X138620853Y-99475054D01*
X138950026Y-99695000D01*
X138620853Y-99914946D01*
X138298946Y-100396715D01*
X138185907Y-100965000D01*
X138298946Y-101533285D01*
X138620853Y-102015054D01*
X139102622Y-102336961D01*
X139670907Y-102450000D01*
X139729093Y-102450000D01*
X140297378Y-102336961D01*
X140779147Y-102015054D01*
X140970000Y-101729422D01*
X141160853Y-102015054D01*
X141642622Y-102336961D01*
X142210907Y-102450000D01*
X142269093Y-102450000D01*
X142837378Y-102336961D01*
X143319147Y-102015054D01*
X143641054Y-101533285D01*
X143754093Y-100965000D01*
X143641054Y-100396715D01*
X143319147Y-99914946D01*
X142989974Y-99695000D01*
X143319147Y-99475054D01*
X143641054Y-98993285D01*
X143754093Y-98425000D01*
X143641054Y-97856715D01*
X143319147Y-97374946D01*
X143277548Y-97347150D01*
X143325317Y-97338162D01*
X143541441Y-97199090D01*
X143686431Y-96986890D01*
X143737440Y-96735000D01*
X143737440Y-95035000D01*
X143693162Y-94799683D01*
X143622583Y-94690000D01*
X159168974Y-94690000D01*
X158824817Y-95003642D01*
X158578514Y-95528108D01*
X158699181Y-95758000D01*
X159893000Y-95758000D01*
X159893000Y-95738000D01*
X160147000Y-95738000D01*
X160147000Y-95758000D01*
X160167000Y-95758000D01*
X160167000Y-96012000D01*
X160147000Y-96012000D01*
X160147000Y-96032000D01*
X159893000Y-96032000D01*
X159893000Y-96012000D01*
X158699181Y-96012000D01*
X158578514Y-96241892D01*
X158824817Y-96766358D01*
X159253076Y-97156645D01*
X159253101Y-97156655D01*
X158969946Y-97345853D01*
X158648039Y-97827622D01*
X158535000Y-98395907D01*
X158535000Y-98454093D01*
X158648039Y-99022378D01*
X158969946Y-99504147D01*
X159451715Y-99826054D01*
X160020000Y-99939093D01*
X160588285Y-99826054D01*
X161070054Y-99504147D01*
X161290000Y-99174974D01*
X161509946Y-99504147D01*
X161991715Y-99826054D01*
X162560000Y-99939093D01*
X163128285Y-99826054D01*
X163610054Y-99504147D01*
X163830000Y-99174974D01*
X164049946Y-99504147D01*
X164531715Y-99826054D01*
X165100000Y-99939093D01*
X165668285Y-99826054D01*
X166150054Y-99504147D01*
X166370000Y-99174974D01*
X166589946Y-99504147D01*
X167071715Y-99826054D01*
X167640000Y-99939093D01*
X168208285Y-99826054D01*
X168690054Y-99504147D01*
X168910000Y-99174974D01*
X169129946Y-99504147D01*
X169611715Y-99826054D01*
X170180000Y-99939093D01*
X170748285Y-99826054D01*
X171230054Y-99504147D01*
X171450000Y-99174974D01*
X171669946Y-99504147D01*
X172151715Y-99826054D01*
X172720000Y-99939093D01*
X173288285Y-99826054D01*
X173770054Y-99504147D01*
X173990000Y-99174974D01*
X174209946Y-99504147D01*
X174691715Y-99826054D01*
X175260000Y-99939093D01*
X175828285Y-99826054D01*
X176310054Y-99504147D01*
X176530000Y-99174974D01*
X176749946Y-99504147D01*
X177231715Y-99826054D01*
X177800000Y-99939093D01*
X178368285Y-99826054D01*
X178850054Y-99504147D01*
X179070000Y-99174974D01*
X179289946Y-99504147D01*
X179771715Y-99826054D01*
X180340000Y-99939093D01*
X180908285Y-99826054D01*
X181390054Y-99504147D01*
X181617702Y-99163447D01*
X181684817Y-99306358D01*
X182113076Y-99696645D01*
X182523110Y-99866476D01*
X182753000Y-99745155D01*
X182753000Y-98552000D01*
X183007000Y-98552000D01*
X183007000Y-99745155D01*
X183236890Y-99866476D01*
X183646924Y-99696645D01*
X184075183Y-99306358D01*
X184321486Y-98781892D01*
X184200819Y-98552000D01*
X183007000Y-98552000D01*
X182753000Y-98552000D01*
X182733000Y-98552000D01*
X182733000Y-98298000D01*
X182753000Y-98298000D01*
X182753000Y-96012000D01*
X183007000Y-96012000D01*
X183007000Y-98298000D01*
X184200819Y-98298000D01*
X184321486Y-98068108D01*
X184075183Y-97543642D01*
X183875792Y-97361930D01*
X184089699Y-97273327D01*
X184268327Y-97094698D01*
X184365000Y-96861309D01*
X184365000Y-96170750D01*
X184206250Y-96012000D01*
X183007000Y-96012000D01*
X182753000Y-96012000D01*
X182733000Y-96012000D01*
X182733000Y-95758000D01*
X182753000Y-95758000D01*
X182753000Y-95738000D01*
X183007000Y-95738000D01*
X183007000Y-95758000D01*
X184206250Y-95758000D01*
X184365000Y-95599250D01*
X184365000Y-94908691D01*
X184274415Y-94690000D01*
X184484934Y-94690000D01*
X184484838Y-94800167D01*
X184626883Y-95143943D01*
X184889673Y-95407192D01*
X185233201Y-95549838D01*
X185280077Y-95549879D01*
X189105000Y-99374802D01*
X189105000Y-108022537D01*
X189072808Y-108054673D01*
X188930162Y-108398201D01*
X188929838Y-108770167D01*
X188936714Y-108786809D01*
X188720000Y-108642005D01*
X188720000Y-107950000D01*
X188662148Y-107659161D01*
X188497401Y-107412599D01*
X188260122Y-107175320D01*
X188260162Y-107129833D01*
X188118117Y-106786057D01*
X187855327Y-106522808D01*
X187591446Y-106413235D01*
X187483117Y-106151057D01*
X187220327Y-105887808D01*
X186876799Y-105745162D01*
X186504833Y-105744838D01*
X186161057Y-105886883D01*
X185897808Y-106149673D01*
X185755162Y-106493201D01*
X185754838Y-106865167D01*
X185896883Y-107208943D01*
X185930000Y-107242118D01*
X185930000Y-107385198D01*
X185720122Y-107175320D01*
X185720162Y-107129833D01*
X185578117Y-106786057D01*
X185315327Y-106522808D01*
X184971799Y-106380162D01*
X184599833Y-106379838D01*
X184256057Y-106521883D01*
X184026171Y-106751369D01*
X183417401Y-106142599D01*
X183170839Y-105977852D01*
X182880000Y-105920000D01*
X181924802Y-105920000D01*
X181735000Y-105730198D01*
X181735000Y-103505000D01*
X181677148Y-103214161D01*
X181677148Y-103214160D01*
X181512401Y-102967599D01*
X180640122Y-102095320D01*
X180640162Y-102049833D01*
X180498117Y-101706057D01*
X180235327Y-101442808D01*
X179891799Y-101300162D01*
X179519833Y-101299838D01*
X179176057Y-101441883D01*
X178940948Y-101676583D01*
X178725839Y-101532852D01*
X178435000Y-101475000D01*
X177727463Y-101475000D01*
X177695327Y-101442808D01*
X177351799Y-101300162D01*
X176979833Y-101299838D01*
X176636057Y-101441883D01*
X176372808Y-101704673D01*
X176230162Y-102048201D01*
X176230108Y-102110000D01*
X175574802Y-102110000D01*
X175560122Y-102095320D01*
X175560162Y-102049833D01*
X175418117Y-101706057D01*
X175155327Y-101442808D01*
X174811799Y-101300162D01*
X174439833Y-101299838D01*
X174096057Y-101441883D01*
X173832808Y-101704673D01*
X173690162Y-102048201D01*
X173689838Y-102420167D01*
X173824056Y-102745000D01*
X170815000Y-102745000D01*
X170524161Y-102802852D01*
X170277599Y-102967599D01*
X168595198Y-104650000D01*
X165100000Y-104650000D01*
X164809160Y-104707852D01*
X164562599Y-104872599D01*
X163515198Y-105920000D01*
X161852463Y-105920000D01*
X161820327Y-105887808D01*
X161476799Y-105745162D01*
X161104833Y-105744838D01*
X160761057Y-105886883D01*
X160497808Y-106149673D01*
X160355162Y-106493201D01*
X160354838Y-106865167D01*
X160496883Y-107208943D01*
X160759673Y-107472192D01*
X161103201Y-107614838D01*
X161185288Y-107614910D01*
X160752599Y-108047599D01*
X160587852Y-108294161D01*
X160547540Y-108496821D01*
X160020000Y-108391887D01*
X159510000Y-108493332D01*
X159510000Y-108264802D01*
X159524680Y-108250122D01*
X159570167Y-108250162D01*
X159913943Y-108108117D01*
X160177192Y-107845327D01*
X160319838Y-107501799D01*
X160320162Y-107129833D01*
X160178117Y-106786057D01*
X159915327Y-106522808D01*
X159571799Y-106380162D01*
X159199833Y-106379838D01*
X158856057Y-106521883D01*
X158592808Y-106784673D01*
X158450162Y-107128201D01*
X158450121Y-107175077D01*
X158212599Y-107412599D01*
X158047852Y-107659161D01*
X157990000Y-107950000D01*
X157990000Y-108493332D01*
X157480000Y-108391887D01*
X156930849Y-108501120D01*
X156465302Y-108812189D01*
X156210000Y-109194275D01*
X155954698Y-108812189D01*
X155489151Y-108501120D01*
X154940000Y-108391887D01*
X154390849Y-108501120D01*
X153925302Y-108812189D01*
X153670000Y-109194275D01*
X153414698Y-108812189D01*
X152949151Y-108501120D01*
X152400000Y-108391887D01*
X151850849Y-108501120D01*
X151385302Y-108812189D01*
X151130000Y-109194275D01*
X150874698Y-108812189D01*
X150409151Y-108501120D01*
X149860000Y-108391887D01*
X149310849Y-108501120D01*
X148845302Y-108812189D01*
X148590000Y-109194275D01*
X148334698Y-108812189D01*
X148080000Y-108642005D01*
X148080000Y-107950000D01*
X148022148Y-107659161D01*
X147857401Y-107412599D01*
X147620122Y-107175320D01*
X147620162Y-107129833D01*
X147478117Y-106786057D01*
X147215327Y-106522808D01*
X146871799Y-106380162D01*
X146499833Y-106379838D01*
X146156057Y-106521883D01*
X145892808Y-106784673D01*
X145750162Y-107128201D01*
X145749838Y-107500167D01*
X145891883Y-107843943D01*
X146154673Y-108107192D01*
X146498201Y-108249838D01*
X146545077Y-108249879D01*
X146560000Y-108264802D01*
X146560000Y-108642005D01*
X146305302Y-108812189D01*
X146050000Y-109194275D01*
X145794698Y-108812189D01*
X145329151Y-108501120D01*
X144780000Y-108391887D01*
X144230849Y-108501120D01*
X143765302Y-108812189D01*
X143510000Y-109194275D01*
X143254698Y-108812189D01*
X142789151Y-108501120D01*
X142240000Y-108391887D01*
X141690849Y-108501120D01*
X141225302Y-108812189D01*
X140970000Y-109194275D01*
X140714698Y-108812189D01*
X140249151Y-108501120D01*
X139700000Y-108391887D01*
X139150849Y-108501120D01*
X138685302Y-108812189D01*
X138374233Y-109277736D01*
X138265000Y-109826887D01*
X138265000Y-109883113D01*
X138374233Y-110432264D01*
X138685302Y-110897811D01*
X138940000Y-111067995D01*
X138940000Y-119452537D01*
X138907808Y-119484673D01*
X138765162Y-119828201D01*
X138764838Y-120200167D01*
X138906883Y-120543943D01*
X139169673Y-120807192D01*
X139513201Y-120949838D01*
X139885167Y-120950162D01*
X140228943Y-120808117D01*
X140492192Y-120545327D01*
X140634838Y-120201799D01*
X140635162Y-119829833D01*
X140493117Y-119486057D01*
X140460000Y-119452882D01*
X140460000Y-111067995D01*
X140714698Y-110897811D01*
X140970000Y-110515725D01*
X141225302Y-110897811D01*
X141690849Y-111208880D01*
X142240000Y-111318113D01*
X142789151Y-111208880D01*
X143254698Y-110897811D01*
X143510000Y-110515725D01*
X143765302Y-110897811D01*
X144230849Y-111208880D01*
X144780000Y-111318113D01*
X145329151Y-111208880D01*
X145794698Y-110897811D01*
X146050000Y-110515725D01*
X146305302Y-110897811D01*
X146770849Y-111208880D01*
X147320000Y-111318113D01*
X147869151Y-111208880D01*
X148334698Y-110897811D01*
X148590000Y-110515725D01*
X148845302Y-110897811D01*
X149310849Y-111208880D01*
X149860000Y-111318113D01*
X150409151Y-111208880D01*
X150874698Y-110897811D01*
X151130000Y-110515725D01*
X151385302Y-110897811D01*
X151850849Y-111208880D01*
X152400000Y-111318113D01*
X152949151Y-111208880D01*
X153414698Y-110897811D01*
X153670000Y-110515725D01*
X153925302Y-110897811D01*
X154390849Y-111208880D01*
X154940000Y-111318113D01*
X155489151Y-111208880D01*
X155954698Y-110897811D01*
X156210000Y-110515725D01*
X156465302Y-110897811D01*
X156720000Y-111067995D01*
X156720000Y-122240198D01*
X155672599Y-123287599D01*
X155507852Y-123534161D01*
X155467540Y-123736821D01*
X154940000Y-123631887D01*
X154390849Y-123741120D01*
X153925302Y-124052189D01*
X153670000Y-124434275D01*
X153414698Y-124052189D01*
X152949151Y-123741120D01*
X152400000Y-123631887D01*
X151850849Y-123741120D01*
X151385302Y-124052189D01*
X151130000Y-124434275D01*
X150874698Y-124052189D01*
X150409151Y-123741120D01*
X149860000Y-123631887D01*
X149310849Y-123741120D01*
X148845302Y-124052189D01*
X148590000Y-124434275D01*
X148334698Y-124052189D01*
X147869151Y-123741120D01*
X147320000Y-123631887D01*
X146770849Y-123741120D01*
X146305302Y-124052189D01*
X146050000Y-124434275D01*
X145794698Y-124052189D01*
X145329151Y-123741120D01*
X144780000Y-123631887D01*
X144230849Y-123741120D01*
X143765302Y-124052189D01*
X143510000Y-124434275D01*
X143254698Y-124052189D01*
X142789151Y-123741120D01*
X142240000Y-123631887D01*
X141690849Y-123741120D01*
X141225302Y-124052189D01*
X141135000Y-124187335D01*
X141135000Y-124168691D01*
X141038327Y-123935302D01*
X140859699Y-123756673D01*
X140626310Y-123660000D01*
X139985750Y-123660000D01*
X139827000Y-123818750D01*
X139827000Y-124968000D01*
X139847000Y-124968000D01*
X139847000Y-125222000D01*
X139827000Y-125222000D01*
X139827000Y-126371250D01*
X139985750Y-126530000D01*
X140626310Y-126530000D01*
X140859699Y-126433327D01*
X141038327Y-126254698D01*
X141135000Y-126021309D01*
X141135000Y-126002665D01*
X141225302Y-126137811D01*
X141690849Y-126448880D01*
X142240000Y-126558113D01*
X142789151Y-126448880D01*
X143254698Y-126137811D01*
X143510000Y-125755725D01*
X143765302Y-126137811D01*
X144230849Y-126448880D01*
X144780000Y-126558113D01*
X145329151Y-126448880D01*
X145794698Y-126137811D01*
X146050000Y-125755725D01*
X146305302Y-126137811D01*
X146770849Y-126448880D01*
X147320000Y-126558113D01*
X147869151Y-126448880D01*
X148334698Y-126137811D01*
X148590000Y-125755725D01*
X148845302Y-126137811D01*
X149310849Y-126448880D01*
X149860000Y-126558113D01*
X150409151Y-126448880D01*
X150874698Y-126137811D01*
X151130000Y-125755725D01*
X151385302Y-126137811D01*
X151590258Y-126274759D01*
X151474161Y-126297852D01*
X151227599Y-126462599D01*
X150592599Y-127097599D01*
X150427852Y-127344161D01*
X150370000Y-127635000D01*
X150370000Y-137157046D01*
X150079946Y-137350853D01*
X149852298Y-137691553D01*
X149785183Y-137548642D01*
X149356924Y-137158355D01*
X148946890Y-136988524D01*
X148717000Y-137109845D01*
X148717000Y-138303000D01*
X148737000Y-138303000D01*
X148737000Y-138557000D01*
X148717000Y-138557000D01*
X148717000Y-138577000D01*
X148463000Y-138577000D01*
X148463000Y-138557000D01*
X148443000Y-138557000D01*
X148443000Y-138303000D01*
X148463000Y-138303000D01*
X148463000Y-137109845D01*
X148233110Y-136988524D01*
X147823076Y-137158355D01*
X147394817Y-137548642D01*
X147327702Y-137691553D01*
X147100054Y-137350853D01*
X146618285Y-137028946D01*
X146050000Y-136915907D01*
X145481715Y-137028946D01*
X144999946Y-137350853D01*
X144780000Y-137680026D01*
X144560054Y-137350853D01*
X144270000Y-137157046D01*
X144270000Y-135890000D01*
X144212148Y-135599161D01*
X144047401Y-135352599D01*
X143412401Y-134717599D01*
X143165839Y-134552852D01*
X142875000Y-134495000D01*
X138109802Y-134495000D01*
X137920000Y-134305198D01*
X137920000Y-128197463D01*
X137952192Y-128165327D01*
X138094838Y-127821799D01*
X138095162Y-127449833D01*
X137953117Y-127106057D01*
X137690327Y-126842808D01*
X137426446Y-126733235D01*
X137318117Y-126471057D01*
X137055327Y-126207808D01*
X136711799Y-126065162D01*
X136339833Y-126064838D01*
X135996057Y-126206883D01*
X135890046Y-126312710D01*
X135785327Y-126207808D01*
X135441799Y-126065162D01*
X135069833Y-126064838D01*
X134726057Y-126206883D01*
X134462808Y-126469673D01*
X134320162Y-126813201D01*
X134319838Y-127185167D01*
X134461883Y-127528943D01*
X134495000Y-127562118D01*
X134495000Y-135575198D01*
X134305198Y-135765000D01*
X131445000Y-135765000D01*
X131154161Y-135822852D01*
X130907599Y-135987599D01*
X130272599Y-136622599D01*
X130107852Y-136869161D01*
X130050678Y-137156593D01*
X129759946Y-137350853D01*
X129540000Y-137680026D01*
X129320054Y-137350853D01*
X128838285Y-137028946D01*
X128270000Y-136915907D01*
X127701715Y-137028946D01*
X127219946Y-137350853D01*
X127000000Y-137680026D01*
X126780054Y-137350853D01*
X126298285Y-137028946D01*
X125730000Y-136915907D01*
X125161715Y-137028946D01*
X124679946Y-137350853D01*
X124460000Y-137680026D01*
X124240054Y-137350853D01*
X123950000Y-137157046D01*
X123950000Y-133664802D01*
X123964680Y-133650122D01*
X124010167Y-133650162D01*
X124353943Y-133508117D01*
X124617192Y-133245327D01*
X124759838Y-132901799D01*
X124760162Y-132529833D01*
X124618117Y-132186057D01*
X124355327Y-131922808D01*
X124011799Y-131780162D01*
X123639833Y-131779838D01*
X123296057Y-131921883D01*
X123032808Y-132184673D01*
X122890162Y-132528201D01*
X122890121Y-132575077D01*
X122652599Y-132812599D01*
X122487852Y-133059161D01*
X122430000Y-133350000D01*
X122430000Y-137157046D01*
X122139946Y-137350853D01*
X121920000Y-137680026D01*
X121700054Y-137350853D01*
X121410000Y-137157046D01*
X121410000Y-133664802D01*
X121424680Y-133650122D01*
X121470167Y-133650162D01*
X121813943Y-133508117D01*
X122077192Y-133245327D01*
X122219838Y-132901799D01*
X122220162Y-132529833D01*
X122078117Y-132186057D01*
X121815327Y-131922808D01*
X121471799Y-131780162D01*
X121099833Y-131779838D01*
X120756057Y-131921883D01*
X120492808Y-132184673D01*
X120350162Y-132528201D01*
X120350121Y-132575077D01*
X120112599Y-132812599D01*
X119947852Y-133059161D01*
X119890000Y-133350000D01*
X119890000Y-137157046D01*
X119599946Y-137350853D01*
X119380000Y-137680026D01*
X119160054Y-137350853D01*
X118870000Y-137157046D01*
X118870000Y-133029802D01*
X118884680Y-133015122D01*
X118930167Y-133015162D01*
X119273943Y-132873117D01*
X119537192Y-132610327D01*
X119679838Y-132266799D01*
X119680162Y-131894833D01*
X119538117Y-131551057D01*
X119275327Y-131287808D01*
X118931799Y-131145162D01*
X118559833Y-131144838D01*
X118216057Y-131286883D01*
X117952808Y-131549673D01*
X117810162Y-131893201D01*
X117810121Y-131940077D01*
X117572599Y-132177599D01*
X117407852Y-132424161D01*
X117350000Y-132715000D01*
X117350000Y-137157046D01*
X117059946Y-137350853D01*
X116840000Y-137680026D01*
X116620054Y-137350853D01*
X116330000Y-137157046D01*
X116330000Y-132394802D01*
X116344680Y-132380122D01*
X116390167Y-132380162D01*
X116733943Y-132238117D01*
X116997192Y-131975327D01*
X117139838Y-131631799D01*
X117140162Y-131259833D01*
X116998117Y-130916057D01*
X116735327Y-130652808D01*
X116391799Y-130510162D01*
X116330000Y-130510108D01*
X116330000Y-128974147D01*
X116811887Y-129070000D01*
X116868113Y-129070000D01*
X117417264Y-128960767D01*
X117882811Y-128649698D01*
X118193880Y-128184151D01*
X118303113Y-127635000D01*
X118193880Y-127085849D01*
X117882811Y-126620302D01*
X117500725Y-126365000D01*
X117882811Y-126109698D01*
X118193880Y-125644151D01*
X118233684Y-125444039D01*
X123068096Y-125444039D01*
X123228959Y-125832423D01*
X123604866Y-126247389D01*
X124110959Y-126486914D01*
X124333000Y-126365629D01*
X124333000Y-125222000D01*
X124587000Y-125222000D01*
X124587000Y-126365629D01*
X124809041Y-126486914D01*
X125315134Y-126247389D01*
X125691041Y-125832423D01*
X125851904Y-125444039D01*
X125729915Y-125222000D01*
X124587000Y-125222000D01*
X124333000Y-125222000D01*
X123190085Y-125222000D01*
X123068096Y-125444039D01*
X118233684Y-125444039D01*
X118303113Y-125095000D01*
X118193880Y-124545849D01*
X117882811Y-124080302D01*
X117500725Y-123825000D01*
X117882811Y-123569698D01*
X118193880Y-123104151D01*
X118303113Y-122555000D01*
X118193880Y-122005849D01*
X117882811Y-121540302D01*
X117500725Y-121285000D01*
X117882811Y-121029698D01*
X118193880Y-120564151D01*
X118303113Y-120015000D01*
X118193880Y-119465849D01*
X117882811Y-119000302D01*
X117500725Y-118745000D01*
X117882811Y-118489698D01*
X118193880Y-118024151D01*
X118303113Y-117475000D01*
X118193880Y-116925849D01*
X117882811Y-116460302D01*
X117500725Y-116205000D01*
X117882811Y-115949698D01*
X117940911Y-115862745D01*
X119821861Y-115862745D01*
X119895995Y-116108864D01*
X120433223Y-116301965D01*
X121003454Y-116274778D01*
X121404005Y-116108864D01*
X121478139Y-115862745D01*
X120650000Y-115034605D01*
X119821861Y-115862745D01*
X117940911Y-115862745D01*
X118193880Y-115484151D01*
X118303113Y-114935000D01*
X118244081Y-114638223D01*
X119203035Y-114638223D01*
X119230222Y-115208454D01*
X119396136Y-115609005D01*
X119642255Y-115683139D01*
X120470395Y-114855000D01*
X120829605Y-114855000D01*
X121657745Y-115683139D01*
X121903864Y-115609005D01*
X122096965Y-115071777D01*
X122069778Y-114501546D01*
X121903864Y-114100995D01*
X121657745Y-114026861D01*
X120829605Y-114855000D01*
X120470395Y-114855000D01*
X119642255Y-114026861D01*
X119396136Y-114100995D01*
X119203035Y-114638223D01*
X118244081Y-114638223D01*
X118193880Y-114385849D01*
X117882811Y-113920302D01*
X117773489Y-113847255D01*
X119821861Y-113847255D01*
X120650000Y-114675395D01*
X121478139Y-113847255D01*
X121404005Y-113601136D01*
X120866777Y-113408035D01*
X120296546Y-113435222D01*
X119895995Y-113601136D01*
X119821861Y-113847255D01*
X117773489Y-113847255D01*
X117500725Y-113665000D01*
X117882811Y-113409698D01*
X118193880Y-112944151D01*
X118303113Y-112395000D01*
X122996887Y-112395000D01*
X123106120Y-112944151D01*
X123417189Y-113409698D01*
X123799275Y-113665000D01*
X123417189Y-113920302D01*
X123106120Y-114385849D01*
X122996887Y-114935000D01*
X123106120Y-115484151D01*
X123417189Y-115949698D01*
X123799275Y-116205000D01*
X123417189Y-116460302D01*
X123106120Y-116925849D01*
X122996887Y-117475000D01*
X123106120Y-118024151D01*
X123417189Y-118489698D01*
X123799275Y-118745000D01*
X123417189Y-119000302D01*
X123106120Y-119465849D01*
X122996887Y-120015000D01*
X123106120Y-120564151D01*
X123417189Y-121029698D01*
X123799275Y-121285000D01*
X123417189Y-121540302D01*
X123106120Y-122005849D01*
X122996887Y-122555000D01*
X123106120Y-123104151D01*
X123417189Y-123569698D01*
X123821703Y-123839986D01*
X123604866Y-123942611D01*
X123228959Y-124357577D01*
X123068096Y-124745961D01*
X123190085Y-124968000D01*
X124333000Y-124968000D01*
X124333000Y-124948000D01*
X124587000Y-124948000D01*
X124587000Y-124968000D01*
X125729915Y-124968000D01*
X125851904Y-124745961D01*
X125691041Y-124357577D01*
X125315134Y-123942611D01*
X125098297Y-123839986D01*
X125502811Y-123569698D01*
X125672995Y-123315000D01*
X127635000Y-123315000D01*
X127925839Y-123257148D01*
X128172401Y-123092401D01*
X128807401Y-122457401D01*
X128905000Y-122311333D01*
X129002599Y-122457401D01*
X129637599Y-123092401D01*
X129884161Y-123257148D01*
X130175000Y-123315000D01*
X130867005Y-123315000D01*
X131037189Y-123569698D01*
X131419275Y-123825000D01*
X131037189Y-124080302D01*
X130726120Y-124545849D01*
X130616887Y-125095000D01*
X130726120Y-125644151D01*
X131037189Y-126109698D01*
X131502736Y-126420767D01*
X132051887Y-126530000D01*
X132108113Y-126530000D01*
X132657264Y-126420767D01*
X133122811Y-126109698D01*
X133433880Y-125644151D01*
X133481859Y-125402943D01*
X133504052Y-125380750D01*
X138265000Y-125380750D01*
X138265000Y-126021309D01*
X138361673Y-126254698D01*
X138540301Y-126433327D01*
X138773690Y-126530000D01*
X139414250Y-126530000D01*
X139573000Y-126371250D01*
X139573000Y-125222000D01*
X138423750Y-125222000D01*
X138265000Y-125380750D01*
X133504052Y-125380750D01*
X133887401Y-124997401D01*
X134052148Y-124750839D01*
X134110000Y-124460000D01*
X134110000Y-124168691D01*
X138265000Y-124168691D01*
X138265000Y-124809250D01*
X138423750Y-124968000D01*
X139573000Y-124968000D01*
X139573000Y-123818750D01*
X139414250Y-123660000D01*
X138773690Y-123660000D01*
X138540301Y-123756673D01*
X138361673Y-123935302D01*
X138265000Y-124168691D01*
X134110000Y-124168691D01*
X134110000Y-117025167D01*
X134954838Y-117025167D01*
X135096883Y-117368943D01*
X135130000Y-117402118D01*
X135130000Y-119452537D01*
X135097808Y-119484673D01*
X134955162Y-119828201D01*
X134954838Y-120200167D01*
X135096883Y-120543943D01*
X135359673Y-120807192D01*
X135703201Y-120949838D01*
X136075167Y-120950162D01*
X136243597Y-120880568D01*
X136366883Y-121178943D01*
X136629673Y-121442192D01*
X136973201Y-121584838D01*
X137345167Y-121585162D01*
X137688943Y-121443117D01*
X137952192Y-121180327D01*
X138094838Y-120836799D01*
X138095162Y-120464833D01*
X137953117Y-120121057D01*
X137920000Y-120087882D01*
X137920000Y-116767463D01*
X137952192Y-116735327D01*
X138094838Y-116391799D01*
X138095162Y-116019833D01*
X137953117Y-115676057D01*
X137690327Y-115412808D01*
X137346799Y-115270162D01*
X137265683Y-115270091D01*
X137336965Y-115071777D01*
X137309778Y-114501546D01*
X137143864Y-114100995D01*
X136897745Y-114026861D01*
X136069605Y-114855000D01*
X136083748Y-114869142D01*
X135904142Y-115048748D01*
X135890000Y-115034605D01*
X135061861Y-115862745D01*
X135135995Y-116108864D01*
X135255822Y-116151935D01*
X135097808Y-116309673D01*
X134955162Y-116653201D01*
X134954838Y-117025167D01*
X134110000Y-117025167D01*
X134110000Y-114638223D01*
X134443035Y-114638223D01*
X134470222Y-115208454D01*
X134636136Y-115609005D01*
X134882255Y-115683139D01*
X135710395Y-114855000D01*
X134882255Y-114026861D01*
X134636136Y-114100995D01*
X134443035Y-114638223D01*
X134110000Y-114638223D01*
X134110000Y-113847255D01*
X135061861Y-113847255D01*
X135890000Y-114675395D01*
X136718139Y-113847255D01*
X136644005Y-113601136D01*
X136106777Y-113408035D01*
X135536546Y-113435222D01*
X135135995Y-113601136D01*
X135061861Y-113847255D01*
X134110000Y-113847255D01*
X134110000Y-113030000D01*
X134052148Y-112739161D01*
X133887401Y-112492599D01*
X133481859Y-112087057D01*
X133433880Y-111845849D01*
X133122811Y-111380302D01*
X132740725Y-111125000D01*
X133122811Y-110869698D01*
X133127387Y-110862850D01*
X133191883Y-111018943D01*
X133454673Y-111282192D01*
X133798201Y-111424838D01*
X134170167Y-111425162D01*
X134513943Y-111283117D01*
X134777192Y-111020327D01*
X134850186Y-110844539D01*
X135076077Y-111070824D01*
X135603309Y-111289750D01*
X136174187Y-111290248D01*
X136701800Y-111072243D01*
X137105824Y-110668923D01*
X137324750Y-110141691D01*
X137325248Y-109570813D01*
X137107243Y-109043200D01*
X136703923Y-108639176D01*
X136176691Y-108420250D01*
X135605813Y-108419752D01*
X135078200Y-108637757D01*
X134745000Y-108970376D01*
X134745000Y-107877463D01*
X134777192Y-107845327D01*
X134919838Y-107501799D01*
X134920162Y-107129833D01*
X134778117Y-106786057D01*
X134515327Y-106522808D01*
X134171799Y-106380162D01*
X133799833Y-106379838D01*
X133456057Y-106521883D01*
X133192808Y-106784673D01*
X133050162Y-107128201D01*
X133049838Y-107500167D01*
X133191883Y-107843943D01*
X133225000Y-107877118D01*
X133225000Y-108993238D01*
X133122811Y-108840302D01*
X132657264Y-108529233D01*
X132108113Y-108420000D01*
X132051887Y-108420000D01*
X131570000Y-108515853D01*
X131570000Y-107877463D01*
X131602192Y-107845327D01*
X131744838Y-107501799D01*
X131745162Y-107129833D01*
X131603117Y-106786057D01*
X131340327Y-106522808D01*
X130996799Y-106380162D01*
X130935000Y-106380108D01*
X130935000Y-105410000D01*
X130877148Y-105119161D01*
X130712401Y-104872599D01*
X130475122Y-104635320D01*
X130475162Y-104589833D01*
X130333117Y-104246057D01*
X130070327Y-103982808D01*
X129726799Y-103840162D01*
X129354833Y-103839838D01*
X129011057Y-103981883D01*
X128747808Y-104244673D01*
X128638235Y-104508554D01*
X128376057Y-104616883D01*
X128112808Y-104879673D01*
X127970162Y-105223201D01*
X127969838Y-105595167D01*
X128075310Y-105850430D01*
X127821799Y-105745162D01*
X127760000Y-105745108D01*
X127760000Y-104067463D01*
X127792192Y-104035327D01*
X127934838Y-103691799D01*
X127935162Y-103319833D01*
X127793117Y-102976057D01*
X127530327Y-102712808D01*
X127186799Y-102570162D01*
X126814833Y-102569838D01*
X126471057Y-102711883D01*
X126365046Y-102817710D01*
X126260327Y-102712808D01*
X125916799Y-102570162D01*
X125544833Y-102569838D01*
X125376403Y-102639432D01*
X125253117Y-102341057D01*
X124990327Y-102077808D01*
X124646799Y-101935162D01*
X124274833Y-101934838D01*
X123931057Y-102076883D01*
X123667808Y-102339673D01*
X123525162Y-102683201D01*
X123524838Y-103055167D01*
X123666883Y-103398943D01*
X123700000Y-103432118D01*
X123700000Y-108407560D01*
X123660000Y-108407560D01*
X123424683Y-108451838D01*
X123208559Y-108590910D01*
X123063569Y-108803110D01*
X123012560Y-109055000D01*
X123012560Y-110655000D01*
X123056838Y-110890317D01*
X123195910Y-111106441D01*
X123408110Y-111251431D01*
X123563089Y-111282815D01*
X123417189Y-111380302D01*
X123106120Y-111845849D01*
X122996887Y-112395000D01*
X118303113Y-112395000D01*
X118193880Y-111845849D01*
X117882811Y-111380302D01*
X117500725Y-111125000D01*
X117882811Y-110869698D01*
X118193880Y-110404151D01*
X118246584Y-110139187D01*
X119214752Y-110139187D01*
X119432757Y-110666800D01*
X119836077Y-111070824D01*
X120363309Y-111289750D01*
X120934187Y-111290248D01*
X121461800Y-111072243D01*
X121865824Y-110668923D01*
X122084750Y-110141691D01*
X122085248Y-109570813D01*
X121867243Y-109043200D01*
X121463923Y-108639176D01*
X120936691Y-108420250D01*
X120365813Y-108419752D01*
X119838200Y-108637757D01*
X119434176Y-109041077D01*
X119215250Y-109568309D01*
X119214752Y-110139187D01*
X118246584Y-110139187D01*
X118303113Y-109855000D01*
X118193880Y-109305849D01*
X117882811Y-108840302D01*
X117417264Y-108529233D01*
X116868113Y-108420000D01*
X116811887Y-108420000D01*
X116262736Y-108529233D01*
X115797189Y-108840302D01*
X115486120Y-109305849D01*
X115376887Y-109855000D01*
X115486120Y-110404151D01*
X115797189Y-110869698D01*
X116179275Y-111125000D01*
X115797189Y-111380302D01*
X115627005Y-111635000D01*
X114935000Y-111635000D01*
X114644161Y-111692852D01*
X114397599Y-111857599D01*
X113762599Y-112492599D01*
X113597852Y-112739161D01*
X113540000Y-113030000D01*
X113540000Y-129225198D01*
X113350198Y-129415000D01*
X113030000Y-129415000D01*
X112739161Y-129472852D01*
X112492599Y-129637599D01*
X111857599Y-130272599D01*
X111692852Y-130519161D01*
X111635000Y-130810000D01*
X111635000Y-131279367D01*
X111311799Y-131145162D01*
X110939833Y-131144838D01*
X110596057Y-131286883D01*
X110332808Y-131549673D01*
X110223235Y-131813554D01*
X109961057Y-131921883D01*
X109697808Y-132184673D01*
X109555162Y-132528201D01*
X109554838Y-132900167D01*
X109696883Y-133243943D01*
X109730000Y-133277118D01*
X109730000Y-134940198D01*
X109540198Y-135130000D01*
X106045000Y-135130000D01*
X105754161Y-135187852D01*
X105507599Y-135352599D01*
X104872599Y-135987599D01*
X104707852Y-136234161D01*
X104650000Y-136525000D01*
X104650000Y-137157046D01*
X104359946Y-137350853D01*
X104140000Y-137680026D01*
X103920054Y-137350853D01*
X103629322Y-137156593D01*
X103572148Y-136869161D01*
X103407401Y-136622599D01*
X102772401Y-135987599D01*
X102525839Y-135822852D01*
X102235000Y-135765000D01*
X101279802Y-135765000D01*
X101090000Y-135575198D01*
X101090000Y-133277463D01*
X101122192Y-133245327D01*
X101264838Y-132901799D01*
X101265162Y-132529833D01*
X101123117Y-132186057D01*
X100860327Y-131922808D01*
X100516799Y-131780162D01*
X100144833Y-131779838D01*
X99801057Y-131921883D01*
X99537808Y-132184673D01*
X99395162Y-132528201D01*
X99394838Y-132900167D01*
X99536883Y-133243943D01*
X99570000Y-133277118D01*
X99570000Y-135890000D01*
X99627852Y-136180839D01*
X99792599Y-136427401D01*
X100289217Y-136924019D01*
X99761715Y-137028946D01*
X99279946Y-137350853D01*
X99060000Y-137680026D01*
X98840054Y-137350853D01*
X98358285Y-137028946D01*
X97790000Y-136915907D01*
X97221715Y-137028946D01*
X96739946Y-137350853D01*
X96520000Y-137680026D01*
X96300054Y-137350853D01*
X95818285Y-137028946D01*
X95250000Y-136915907D01*
X94681715Y-137028946D01*
X94199946Y-137350853D01*
X93980000Y-137680026D01*
X93760054Y-137350853D01*
X93278285Y-137028946D01*
X92710000Y-136915907D01*
X92150000Y-137027298D01*
X92150000Y-135382467D01*
X92179673Y-135412192D01*
X92523201Y-135554838D01*
X92895167Y-135555162D01*
X93238943Y-135413117D01*
X93502192Y-135150327D01*
X93644838Y-134806799D01*
X93645162Y-134434833D01*
X93503117Y-134091057D01*
X93240327Y-133827808D01*
X92896799Y-133685162D01*
X92849923Y-133685121D01*
X92835000Y-133670198D01*
X92835000Y-132900167D01*
X94314838Y-132900167D01*
X94456883Y-133243943D01*
X94490000Y-133277118D01*
X94490000Y-134692537D01*
X94457808Y-134724673D01*
X94315162Y-135068201D01*
X94314838Y-135440167D01*
X94456883Y-135783943D01*
X94719673Y-136047192D01*
X94983554Y-136156765D01*
X95091883Y-136418943D01*
X95354673Y-136682192D01*
X95698201Y-136824838D01*
X96070167Y-136825162D01*
X96413943Y-136683117D01*
X96677192Y-136420327D01*
X96786765Y-136156446D01*
X97048943Y-136048117D01*
X97312192Y-135785327D01*
X97454838Y-135441799D01*
X97455162Y-135069833D01*
X97313117Y-134726057D01*
X97280000Y-134692882D01*
X97280000Y-133277463D01*
X97312192Y-133245327D01*
X97454838Y-132901799D01*
X97455162Y-132529833D01*
X97313117Y-132186057D01*
X97050327Y-131922808D01*
X96786446Y-131813235D01*
X96678117Y-131551057D01*
X96415327Y-131287808D01*
X96071799Y-131145162D01*
X95699833Y-131144838D01*
X95356057Y-131286883D01*
X95092808Y-131549673D01*
X94983235Y-131813554D01*
X94721057Y-131921883D01*
X94457808Y-132184673D01*
X94315162Y-132528201D01*
X94314838Y-132900167D01*
X92835000Y-132900167D01*
X92835000Y-128467404D01*
X93124866Y-128787389D01*
X93630959Y-129026914D01*
X93853000Y-128905629D01*
X93853000Y-127762000D01*
X94107000Y-127762000D01*
X94107000Y-128905629D01*
X94329041Y-129026914D01*
X94835134Y-128787389D01*
X95211041Y-128372423D01*
X95371904Y-127984039D01*
X95249915Y-127762000D01*
X94107000Y-127762000D01*
X93853000Y-127762000D01*
X93833000Y-127762000D01*
X93833000Y-127508000D01*
X93853000Y-127508000D01*
X93853000Y-127488000D01*
X94107000Y-127488000D01*
X94107000Y-127508000D01*
X95249915Y-127508000D01*
X95371904Y-127285961D01*
X95211041Y-126897577D01*
X94835134Y-126482611D01*
X94618297Y-126379986D01*
X95022811Y-126109698D01*
X95333880Y-125644151D01*
X95381859Y-125402943D01*
X95564802Y-125220000D01*
X96592537Y-125220000D01*
X96624673Y-125252192D01*
X96968201Y-125394838D01*
X97340167Y-125395162D01*
X97683943Y-125253117D01*
X97947192Y-124990327D01*
X98089838Y-124646799D01*
X98090162Y-124274833D01*
X97948117Y-123931057D01*
X97685327Y-123667808D01*
X97421446Y-123558235D01*
X97313117Y-123296057D01*
X97280000Y-123262882D01*
X97280000Y-121847463D01*
X97312192Y-121815327D01*
X97454838Y-121471799D01*
X97455162Y-121099833D01*
X97345805Y-120835167D01*
X98759838Y-120835167D01*
X98901883Y-121178943D01*
X99164673Y-121442192D01*
X99508201Y-121584838D01*
X99570000Y-121584892D01*
X99570000Y-128342537D01*
X99537808Y-128374673D01*
X99395162Y-128718201D01*
X99394838Y-129090167D01*
X99536883Y-129433943D01*
X99799673Y-129697192D01*
X100143201Y-129839838D01*
X100515167Y-129840162D01*
X100858943Y-129698117D01*
X101122192Y-129435327D01*
X101264838Y-129091799D01*
X101264910Y-129008938D01*
X101571887Y-129070000D01*
X101628113Y-129070000D01*
X102177264Y-128960767D01*
X102642811Y-128649698D01*
X102953880Y-128184151D01*
X103063113Y-127635000D01*
X102953880Y-127085849D01*
X102642811Y-126620302D01*
X102260725Y-126365000D01*
X102642811Y-126109698D01*
X102953880Y-125644151D01*
X103063113Y-125095000D01*
X103895907Y-125095000D01*
X104008946Y-125663285D01*
X104330853Y-126145054D01*
X104660026Y-126365000D01*
X104330853Y-126584946D01*
X104008946Y-127066715D01*
X103895907Y-127635000D01*
X104008946Y-128203285D01*
X104330853Y-128685054D01*
X104812622Y-129006961D01*
X105380907Y-129120000D01*
X105439093Y-129120000D01*
X106007378Y-129006961D01*
X106489147Y-128685054D01*
X106811054Y-128203285D01*
X106854664Y-127984039D01*
X107828096Y-127984039D01*
X107988959Y-128372423D01*
X108364866Y-128787389D01*
X108870959Y-129026914D01*
X109093000Y-128905629D01*
X109093000Y-127762000D01*
X109347000Y-127762000D01*
X109347000Y-128905629D01*
X109569041Y-129026914D01*
X110075134Y-128787389D01*
X110451041Y-128372423D01*
X110611904Y-127984039D01*
X110489915Y-127762000D01*
X109347000Y-127762000D01*
X109093000Y-127762000D01*
X107950085Y-127762000D01*
X107828096Y-127984039D01*
X106854664Y-127984039D01*
X106924093Y-127635000D01*
X106811054Y-127066715D01*
X106489147Y-126584946D01*
X106159974Y-126365000D01*
X106489147Y-126145054D01*
X106811054Y-125663285D01*
X106924093Y-125095000D01*
X106811054Y-124526715D01*
X106489147Y-124044946D01*
X106447548Y-124017150D01*
X106495317Y-124008162D01*
X106711441Y-123869090D01*
X106856431Y-123656890D01*
X106907440Y-123405000D01*
X106907440Y-121705000D01*
X106863162Y-121469683D01*
X106724090Y-121253559D01*
X106511890Y-121108569D01*
X106260000Y-121057560D01*
X104560000Y-121057560D01*
X104324683Y-121101838D01*
X104108559Y-121240910D01*
X103963569Y-121453110D01*
X103912560Y-121705000D01*
X103912560Y-123405000D01*
X103956838Y-123640317D01*
X104095910Y-123856441D01*
X104308110Y-124001431D01*
X104375541Y-124015086D01*
X104330853Y-124044946D01*
X104008946Y-124526715D01*
X103895907Y-125095000D01*
X103063113Y-125095000D01*
X102953880Y-124545849D01*
X102642811Y-124080302D01*
X102260725Y-123825000D01*
X102642811Y-123569698D01*
X102953880Y-123104151D01*
X103063113Y-122555000D01*
X102953880Y-122005849D01*
X102642811Y-121540302D01*
X102260725Y-121285000D01*
X102642811Y-121029698D01*
X102953880Y-120564151D01*
X103063113Y-120015000D01*
X102953880Y-119465849D01*
X102642811Y-119000302D01*
X102260725Y-118745000D01*
X102642811Y-118489698D01*
X102953880Y-118024151D01*
X103063113Y-117475000D01*
X102953880Y-116925849D01*
X102642811Y-116460302D01*
X102260725Y-116205000D01*
X102642811Y-115949698D01*
X102700911Y-115862745D01*
X104581861Y-115862745D01*
X104655995Y-116108864D01*
X105193223Y-116301965D01*
X105763454Y-116274778D01*
X106164005Y-116108864D01*
X106238139Y-115862745D01*
X105410000Y-115034605D01*
X104581861Y-115862745D01*
X102700911Y-115862745D01*
X102953880Y-115484151D01*
X103063113Y-114935000D01*
X103004081Y-114638223D01*
X103963035Y-114638223D01*
X103990222Y-115208454D01*
X104156136Y-115609005D01*
X104402255Y-115683139D01*
X105230395Y-114855000D01*
X104402255Y-114026861D01*
X104156136Y-114100995D01*
X103963035Y-114638223D01*
X103004081Y-114638223D01*
X102953880Y-114385849D01*
X102642811Y-113920302D01*
X102533489Y-113847255D01*
X104581861Y-113847255D01*
X105410000Y-114675395D01*
X106238139Y-113847255D01*
X106164005Y-113601136D01*
X105626777Y-113408035D01*
X105056546Y-113435222D01*
X104655995Y-113601136D01*
X104581861Y-113847255D01*
X102533489Y-113847255D01*
X102260725Y-113665000D01*
X102642811Y-113409698D01*
X102953880Y-112944151D01*
X103063113Y-112395000D01*
X102953880Y-111845849D01*
X102642811Y-111380302D01*
X102260725Y-111125000D01*
X102642811Y-110869698D01*
X102953880Y-110404151D01*
X103006584Y-110139187D01*
X103974752Y-110139187D01*
X104192757Y-110666800D01*
X104596077Y-111070824D01*
X105123309Y-111289750D01*
X105694187Y-111290248D01*
X106221800Y-111072243D01*
X106555000Y-110739624D01*
X106555000Y-114068204D01*
X106417745Y-114026861D01*
X105589605Y-114855000D01*
X106417745Y-115683139D01*
X106555000Y-115641796D01*
X106555000Y-118817537D01*
X106522808Y-118849673D01*
X106380162Y-119193201D01*
X106379838Y-119565167D01*
X106521883Y-119908943D01*
X106784673Y-120172192D01*
X107128201Y-120314838D01*
X107190000Y-120314892D01*
X107190000Y-123825000D01*
X107247852Y-124115839D01*
X107412599Y-124362401D01*
X107821312Y-124771114D01*
X107756887Y-125095000D01*
X107866120Y-125644151D01*
X108177189Y-126109698D01*
X108581703Y-126379986D01*
X108364866Y-126482611D01*
X107988959Y-126897577D01*
X107828096Y-127285961D01*
X107950085Y-127508000D01*
X109093000Y-127508000D01*
X109093000Y-127488000D01*
X109347000Y-127488000D01*
X109347000Y-127508000D01*
X110489915Y-127508000D01*
X110611904Y-127285961D01*
X110451041Y-126897577D01*
X110075134Y-126482611D01*
X109858297Y-126379986D01*
X110262811Y-126109698D01*
X110573880Y-125644151D01*
X110683113Y-125095000D01*
X110573880Y-124545849D01*
X110262811Y-124080302D01*
X109880725Y-123825000D01*
X110262811Y-123569698D01*
X110573880Y-123104151D01*
X110683113Y-122555000D01*
X110573880Y-122005849D01*
X110262811Y-121540302D01*
X109880725Y-121285000D01*
X110262811Y-121029698D01*
X110573880Y-120564151D01*
X110683113Y-120015000D01*
X110573880Y-119465849D01*
X110262811Y-119000302D01*
X109980000Y-118811333D01*
X109980000Y-118678667D01*
X110262811Y-118489698D01*
X110573880Y-118024151D01*
X110683113Y-117475000D01*
X110573880Y-116925849D01*
X110262811Y-116460302D01*
X109980000Y-116271333D01*
X109980000Y-116138667D01*
X110262811Y-115949698D01*
X110573880Y-115484151D01*
X110683113Y-114935000D01*
X110573880Y-114385849D01*
X110262811Y-113920302D01*
X109980000Y-113731333D01*
X109980000Y-113598667D01*
X110262811Y-113409698D01*
X110573880Y-112944151D01*
X110683113Y-112395000D01*
X110573880Y-111845849D01*
X110262811Y-111380302D01*
X110118535Y-111283899D01*
X110255317Y-111258162D01*
X110471441Y-111119090D01*
X110616431Y-110906890D01*
X110667440Y-110655000D01*
X110667440Y-109055000D01*
X110623162Y-108819683D01*
X110484090Y-108603559D01*
X110271890Y-108458569D01*
X110020000Y-108407560D01*
X108710000Y-108407560D01*
X108710000Y-106359802D01*
X110629680Y-104440122D01*
X110675167Y-104440162D01*
X111018943Y-104298117D01*
X111282192Y-104035327D01*
X111424838Y-103691799D01*
X111425162Y-103319833D01*
X111283117Y-102976057D01*
X111020327Y-102712808D01*
X110676799Y-102570162D01*
X110304833Y-102569838D01*
X109961057Y-102711883D01*
X109855046Y-102817710D01*
X109750327Y-102712808D01*
X109406799Y-102570162D01*
X109034833Y-102569838D01*
X108691057Y-102711883D01*
X108427808Y-102974673D01*
X108285162Y-103318201D01*
X108285121Y-103365077D01*
X106777599Y-104872599D01*
X106612852Y-105119161D01*
X106555000Y-105410000D01*
X106555000Y-108970831D01*
X106223923Y-108639176D01*
X105696691Y-108420250D01*
X105125813Y-108419752D01*
X104598200Y-108637757D01*
X104194176Y-109041077D01*
X103975250Y-109568309D01*
X103974752Y-110139187D01*
X103006584Y-110139187D01*
X103063113Y-109855000D01*
X102953880Y-109305849D01*
X102642811Y-108840302D01*
X102177264Y-108529233D01*
X101628113Y-108420000D01*
X101571887Y-108420000D01*
X101022736Y-108529233D01*
X100557189Y-108840302D01*
X100387005Y-109095000D01*
X100330000Y-109095000D01*
X100039161Y-109152852D01*
X99792599Y-109317599D01*
X99157599Y-109952599D01*
X98992852Y-110199161D01*
X98935000Y-110490000D01*
X98935000Y-120087537D01*
X98902808Y-120119673D01*
X98760162Y-120463201D01*
X98759838Y-120835167D01*
X97345805Y-120835167D01*
X97313117Y-120756057D01*
X97050327Y-120492808D01*
X96706799Y-120350162D01*
X96334833Y-120349838D01*
X95991057Y-120491883D01*
X95885046Y-120597710D01*
X95780327Y-120492808D01*
X95436799Y-120350162D01*
X95364245Y-120350099D01*
X95249915Y-120142000D01*
X94107000Y-120142000D01*
X94107000Y-120162000D01*
X93853000Y-120162000D01*
X93853000Y-120142000D01*
X93833000Y-120142000D01*
X93833000Y-119888000D01*
X93853000Y-119888000D01*
X93853000Y-117602000D01*
X94107000Y-117602000D01*
X94107000Y-119888000D01*
X95249915Y-119888000D01*
X95371904Y-119665961D01*
X95211041Y-119277577D01*
X94835134Y-118862611D01*
X94586633Y-118745000D01*
X94835134Y-118627389D01*
X95211041Y-118212423D01*
X95371904Y-117824039D01*
X95249915Y-117602000D01*
X94107000Y-117602000D01*
X93853000Y-117602000D01*
X93833000Y-117602000D01*
X93833000Y-117348000D01*
X93853000Y-117348000D01*
X93853000Y-117328000D01*
X94107000Y-117328000D01*
X94107000Y-117348000D01*
X95249915Y-117348000D01*
X95371904Y-117125961D01*
X95211041Y-116737577D01*
X94835134Y-116322611D01*
X94618297Y-116219986D01*
X94742317Y-116137119D01*
X95347599Y-116742401D01*
X95594161Y-116907148D01*
X95885000Y-116965000D01*
X96205198Y-116965000D01*
X96219878Y-116979680D01*
X96219838Y-117025167D01*
X96361883Y-117368943D01*
X96624673Y-117632192D01*
X96968201Y-117774838D01*
X97340167Y-117775162D01*
X97683943Y-117633117D01*
X97947192Y-117370327D01*
X98089838Y-117026799D01*
X98090162Y-116654833D01*
X97948117Y-116311057D01*
X97842290Y-116205046D01*
X97947192Y-116100327D01*
X98089838Y-115756799D01*
X98090162Y-115384833D01*
X97948117Y-115041057D01*
X97842290Y-114935046D01*
X97947192Y-114830327D01*
X98089838Y-114486799D01*
X98090162Y-114114833D01*
X97948117Y-113771057D01*
X97685327Y-113507808D01*
X97341799Y-113365162D01*
X97294923Y-113365121D01*
X97280000Y-113350198D01*
X97280000Y-107315000D01*
X97222148Y-107024161D01*
X97057401Y-106777599D01*
X96422401Y-106142599D01*
X96175839Y-105977852D01*
X95885000Y-105920000D01*
X94294802Y-105920000D01*
X94105000Y-105730198D01*
X94105000Y-105710110D01*
X94165167Y-105710162D01*
X94508943Y-105568117D01*
X94772192Y-105305327D01*
X94914838Y-104961799D01*
X94915162Y-104589833D01*
X94773117Y-104246057D01*
X94740000Y-104212882D01*
X94740000Y-101916498D01*
X94805853Y-102015054D01*
X95287622Y-102336961D01*
X95855907Y-102450000D01*
X95914093Y-102450000D01*
X96219865Y-102389178D01*
X96219838Y-102420167D01*
X96361883Y-102763943D01*
X96624673Y-103027192D01*
X96968201Y-103169838D01*
X97340167Y-103170162D01*
X97683943Y-103028117D01*
X97947192Y-102765327D01*
X98089838Y-102421799D01*
X98089866Y-102389125D01*
X98395907Y-102450000D01*
X98454093Y-102450000D01*
X98759865Y-102389178D01*
X98759838Y-102420167D01*
X98901883Y-102763943D01*
X99164673Y-103027192D01*
X99508201Y-103169838D01*
X99880167Y-103170162D01*
X100223943Y-103028117D01*
X100487192Y-102765327D01*
X100629838Y-102421799D01*
X100629866Y-102389125D01*
X100935907Y-102450000D01*
X100994093Y-102450000D01*
X101562378Y-102336961D01*
X102044147Y-102015054D01*
X102235000Y-101729422D01*
X102425853Y-102015054D01*
X102907622Y-102336961D01*
X103475907Y-102450000D01*
X103534093Y-102450000D01*
X104102378Y-102336961D01*
X104584147Y-102015054D01*
X104775000Y-101729422D01*
X104965853Y-102015054D01*
X105447622Y-102336961D01*
X106015907Y-102450000D01*
X106074093Y-102450000D01*
X106642378Y-102336961D01*
X107124147Y-102015054D01*
X107446054Y-101533285D01*
X107559093Y-100965000D01*
X107486210Y-100598592D01*
X107629802Y-100455000D01*
X112861751Y-100455000D01*
X112946120Y-100879151D01*
X113257189Y-101344698D01*
X113722736Y-101655767D01*
X114271887Y-101765000D01*
X114328113Y-101765000D01*
X114877264Y-101655767D01*
X115342811Y-101344698D01*
X115653880Y-100879151D01*
X115727484Y-100509121D01*
X116018201Y-100629838D01*
X116390167Y-100630162D01*
X116428829Y-100614187D01*
X123024752Y-100614187D01*
X123242757Y-101141800D01*
X123646077Y-101545824D01*
X124173309Y-101764750D01*
X124744187Y-101765248D01*
X125271800Y-101547243D01*
X125675824Y-101143923D01*
X125894750Y-100616691D01*
X125895248Y-100045813D01*
X125677243Y-99518200D01*
X125273923Y-99114176D01*
X124746691Y-98895250D01*
X124175813Y-98894752D01*
X123648200Y-99112757D01*
X123244176Y-99516077D01*
X123025250Y-100043309D01*
X123024752Y-100614187D01*
X116428829Y-100614187D01*
X116733943Y-100488117D01*
X116997192Y-100225327D01*
X117139838Y-99881799D01*
X117140162Y-99509833D01*
X116998117Y-99166057D01*
X116965000Y-99132882D01*
X116965000Y-97155000D01*
X116907148Y-96864161D01*
X116867075Y-96804187D01*
X123024752Y-96804187D01*
X123242757Y-97331800D01*
X123646077Y-97735824D01*
X124173309Y-97954750D01*
X124744187Y-97955248D01*
X125271800Y-97737243D01*
X125675824Y-97333923D01*
X125894750Y-96806691D01*
X125895248Y-96235813D01*
X125677243Y-95708200D01*
X125273923Y-95304176D01*
X124746691Y-95085250D01*
X124175813Y-95084752D01*
X123648200Y-95302757D01*
X123244176Y-95706077D01*
X123025250Y-96233309D01*
X123024752Y-96804187D01*
X116867075Y-96804187D01*
X116742401Y-96617599D01*
X116107401Y-95982599D01*
X115860839Y-95817852D01*
X115570000Y-95760000D01*
X115512995Y-95760000D01*
X115342811Y-95505302D01*
X114877264Y-95194233D01*
X114328113Y-95085000D01*
X114271887Y-95085000D01*
X113994898Y-95140096D01*
X113544802Y-94690000D01*
X138317188Y-94690000D01*
X138253569Y-94783110D01*
G36*
X186945302Y-126137811D02*
X187200000Y-126307995D01*
X187200000Y-127666354D01*
X187148200Y-127687757D01*
X186744176Y-128091077D01*
X186525250Y-128618309D01*
X186524752Y-129189187D01*
X186742757Y-129716800D01*
X187146077Y-130120824D01*
X187673309Y-130339750D01*
X188244187Y-130340248D01*
X188771800Y-130122243D01*
X189072382Y-129822184D01*
X189105000Y-129854802D01*
X189105000Y-135724367D01*
X188781799Y-135590162D01*
X188409833Y-135589838D01*
X188066057Y-135731883D01*
X187802808Y-135994673D01*
X187660162Y-136338201D01*
X187659838Y-136710167D01*
X187801883Y-137053943D01*
X187902221Y-137154457D01*
X187783569Y-137328110D01*
X187769914Y-137395541D01*
X187740054Y-137350853D01*
X187449322Y-137156593D01*
X187392148Y-136869161D01*
X187227401Y-136622599D01*
X186990122Y-136385320D01*
X186990162Y-136339833D01*
X186848117Y-135996057D01*
X186585327Y-135732808D01*
X186241799Y-135590162D01*
X185869833Y-135589838D01*
X185526057Y-135731883D01*
X185262808Y-135994673D01*
X185120162Y-136338201D01*
X185119838Y-136710167D01*
X185261883Y-137053943D01*
X185524673Y-137317192D01*
X185632516Y-137361973D01*
X185420000Y-137680026D01*
X185200054Y-137350853D01*
X184909322Y-137156593D01*
X184852148Y-136869161D01*
X184687401Y-136622599D01*
X184450122Y-136385320D01*
X184450162Y-136339833D01*
X184308117Y-135996057D01*
X184045327Y-135732808D01*
X183701799Y-135590162D01*
X183329833Y-135589838D01*
X182986057Y-135731883D01*
X182722808Y-135994673D01*
X182580162Y-136338201D01*
X182579838Y-136710167D01*
X182721883Y-137053943D01*
X182984673Y-137317192D01*
X183092516Y-137361973D01*
X182880000Y-137680026D01*
X182660054Y-137350853D01*
X182369322Y-137156593D01*
X182312148Y-136869161D01*
X182147401Y-136622599D01*
X181910122Y-136385320D01*
X181910162Y-136339833D01*
X181768117Y-135996057D01*
X181505327Y-135732808D01*
X181161799Y-135590162D01*
X180789833Y-135589838D01*
X180446057Y-135731883D01*
X180182808Y-135994673D01*
X180040162Y-136338201D01*
X180039838Y-136710167D01*
X180181883Y-137053943D01*
X180444673Y-137317192D01*
X180552516Y-137361973D01*
X180340000Y-137680026D01*
X180120054Y-137350853D01*
X179829322Y-137156593D01*
X179772148Y-136869161D01*
X179607401Y-136622599D01*
X179370122Y-136385320D01*
X179370162Y-136339833D01*
X179228117Y-135996057D01*
X178965327Y-135732808D01*
X178621799Y-135590162D01*
X178249833Y-135589838D01*
X177906057Y-135731883D01*
X177642808Y-135994673D01*
X177500162Y-136338201D01*
X177499838Y-136710167D01*
X177641883Y-137053943D01*
X177904673Y-137317192D01*
X178012516Y-137361973D01*
X177800000Y-137680026D01*
X177580054Y-137350853D01*
X177289322Y-137156593D01*
X177232148Y-136869161D01*
X177067401Y-136622599D01*
X176830122Y-136385320D01*
X176830162Y-136339833D01*
X176688117Y-135996057D01*
X176425327Y-135732808D01*
X176081799Y-135590162D01*
X175709833Y-135589838D01*
X175366057Y-135731883D01*
X175102808Y-135994673D01*
X174960162Y-136338201D01*
X174959838Y-136710167D01*
X175101883Y-137053943D01*
X175364673Y-137317192D01*
X175472516Y-137361973D01*
X175260000Y-137680026D01*
X175040054Y-137350853D01*
X174558285Y-137028946D01*
X173990000Y-136915907D01*
X173421715Y-137028946D01*
X172939946Y-137350853D01*
X172720000Y-137680026D01*
X172500054Y-137350853D01*
X172018285Y-137028946D01*
X171450000Y-136915907D01*
X170881715Y-137028946D01*
X170399946Y-137350853D01*
X170180000Y-137680026D01*
X169960054Y-137350853D01*
X169478285Y-137028946D01*
X168910000Y-136915907D01*
X168341715Y-137028946D01*
X167859946Y-137350853D01*
X167640000Y-137680026D01*
X167420054Y-137350853D01*
X167130000Y-137157046D01*
X167130000Y-133985000D01*
X167072148Y-133694161D01*
X167072148Y-133694160D01*
X166907401Y-133447599D01*
X165860000Y-132400198D01*
X165860000Y-131110110D01*
X165920167Y-131110162D01*
X166263943Y-130968117D01*
X166527192Y-130705327D01*
X166669838Y-130361799D01*
X166669879Y-130314923D01*
X166907401Y-130077401D01*
X167072148Y-129830839D01*
X167130000Y-129540000D01*
X167130000Y-126456668D01*
X167640000Y-126558113D01*
X168150000Y-126456668D01*
X168150000Y-128590198D01*
X168135320Y-128604878D01*
X168089833Y-128604838D01*
X167746057Y-128746883D01*
X167482808Y-129009673D01*
X167340162Y-129353201D01*
X167339838Y-129725167D01*
X167481883Y-130068943D01*
X167744673Y-130332192D01*
X168088201Y-130474838D01*
X168460167Y-130475162D01*
X168803943Y-130333117D01*
X169067192Y-130070327D01*
X169132626Y-129912745D01*
X182131861Y-129912745D01*
X182205995Y-130158864D01*
X182743223Y-130351965D01*
X183313454Y-130324778D01*
X183714005Y-130158864D01*
X183788139Y-129912745D01*
X182960000Y-129084605D01*
X182131861Y-129912745D01*
X169132626Y-129912745D01*
X169209838Y-129726799D01*
X169209879Y-129679923D01*
X169447401Y-129442401D01*
X169612148Y-129195839D01*
X169670000Y-128905000D01*
X169670000Y-126456668D01*
X170180000Y-126558113D01*
X170690000Y-126456668D01*
X170690000Y-127955198D01*
X170675320Y-127969878D01*
X170629833Y-127969838D01*
X170286057Y-128111883D01*
X170022808Y-128374673D01*
X169880162Y-128718201D01*
X169879838Y-129090167D01*
X170021883Y-129433943D01*
X170284673Y-129697192D01*
X170628201Y-129839838D01*
X171000167Y-129840162D01*
X171343943Y-129698117D01*
X171607192Y-129435327D01*
X171749838Y-129091799D01*
X171749879Y-129044923D01*
X171987401Y-128807401D01*
X172152148Y-128560839D01*
X172210000Y-128270000D01*
X172210000Y-126456668D01*
X172720000Y-126558113D01*
X173230000Y-126456668D01*
X173230000Y-127320198D01*
X173215320Y-127334878D01*
X173169833Y-127334838D01*
X172826057Y-127476883D01*
X172562808Y-127739673D01*
X172420162Y-128083201D01*
X172419838Y-128455167D01*
X172561883Y-128798943D01*
X172824673Y-129062192D01*
X173168201Y-129204838D01*
X173540167Y-129205162D01*
X173883943Y-129063117D01*
X174147192Y-128800327D01*
X174193741Y-128688223D01*
X181513035Y-128688223D01*
X181540222Y-129258454D01*
X181706136Y-129659005D01*
X181952255Y-129733139D01*
X182780395Y-128905000D01*
X183139605Y-128905000D01*
X183967745Y-129733139D01*
X184213864Y-129659005D01*
X184406965Y-129121777D01*
X184379778Y-128551546D01*
X184213864Y-128150995D01*
X183967745Y-128076861D01*
X183139605Y-128905000D01*
X182780395Y-128905000D01*
X181952255Y-128076861D01*
X181706136Y-128150995D01*
X181513035Y-128688223D01*
X174193741Y-128688223D01*
X174289838Y-128456799D01*
X174289879Y-128409923D01*
X174527401Y-128172401D01*
X174692148Y-127925839D01*
X174697833Y-127897255D01*
X182131861Y-127897255D01*
X182960000Y-128725395D01*
X183788139Y-127897255D01*
X183714005Y-127651136D01*
X183176777Y-127458035D01*
X182606546Y-127485222D01*
X182205995Y-127651136D01*
X182131861Y-127897255D01*
X174697833Y-127897255D01*
X174750000Y-127635000D01*
X174750000Y-126456668D01*
X175260000Y-126558113D01*
X175809151Y-126448880D01*
X176274698Y-126137811D01*
X176530000Y-125755725D01*
X176785302Y-126137811D01*
X177250849Y-126448880D01*
X177800000Y-126558113D01*
X178349151Y-126448880D01*
X178814698Y-126137811D01*
X179070000Y-125755725D01*
X179325302Y-126137811D01*
X179790849Y-126448880D01*
X180340000Y-126558113D01*
X180889151Y-126448880D01*
X181354698Y-126137811D01*
X181610000Y-125755725D01*
X181865302Y-126137811D01*
X182330849Y-126448880D01*
X182880000Y-126558113D01*
X183429151Y-126448880D01*
X183894698Y-126137811D01*
X184150000Y-125755725D01*
X184405302Y-126137811D01*
X184870849Y-126448880D01*
X185420000Y-126558113D01*
X185969151Y-126448880D01*
X186434698Y-126137811D01*
X186690000Y-125755725D01*
X186945302Y-126137811D01*
X186945302Y-126137811D01*
G37*
X186945302Y-126137811D02*
X187200000Y-126307995D01*
X187200000Y-127666354D01*
X187148200Y-127687757D01*
X186744176Y-128091077D01*
X186525250Y-128618309D01*
X186524752Y-129189187D01*
X186742757Y-129716800D01*
X187146077Y-130120824D01*
X187673309Y-130339750D01*
X188244187Y-130340248D01*
X188771800Y-130122243D01*
X189072382Y-129822184D01*
X189105000Y-129854802D01*
X189105000Y-135724367D01*
X188781799Y-135590162D01*
X188409833Y-135589838D01*
X188066057Y-135731883D01*
X187802808Y-135994673D01*
X187660162Y-136338201D01*
X187659838Y-136710167D01*
X187801883Y-137053943D01*
X187902221Y-137154457D01*
X187783569Y-137328110D01*
X187769914Y-137395541D01*
X187740054Y-137350853D01*
X187449322Y-137156593D01*
X187392148Y-136869161D01*
X187227401Y-136622599D01*
X186990122Y-136385320D01*
X186990162Y-136339833D01*
X186848117Y-135996057D01*
X186585327Y-135732808D01*
X186241799Y-135590162D01*
X185869833Y-135589838D01*
X185526057Y-135731883D01*
X185262808Y-135994673D01*
X185120162Y-136338201D01*
X185119838Y-136710167D01*
X185261883Y-137053943D01*
X185524673Y-137317192D01*
X185632516Y-137361973D01*
X185420000Y-137680026D01*
X185200054Y-137350853D01*
X184909322Y-137156593D01*
X184852148Y-136869161D01*
X184687401Y-136622599D01*
X184450122Y-136385320D01*
X184450162Y-136339833D01*
X184308117Y-135996057D01*
X184045327Y-135732808D01*
X183701799Y-135590162D01*
X183329833Y-135589838D01*
X182986057Y-135731883D01*
X182722808Y-135994673D01*
X182580162Y-136338201D01*
X182579838Y-136710167D01*
X182721883Y-137053943D01*
X182984673Y-137317192D01*
X183092516Y-137361973D01*
X182880000Y-137680026D01*
X182660054Y-137350853D01*
X182369322Y-137156593D01*
X182312148Y-136869161D01*
X182147401Y-136622599D01*
X181910122Y-136385320D01*
X181910162Y-136339833D01*
X181768117Y-135996057D01*
X181505327Y-135732808D01*
X181161799Y-135590162D01*
X180789833Y-135589838D01*
X180446057Y-135731883D01*
X180182808Y-135994673D01*
X180040162Y-136338201D01*
X180039838Y-136710167D01*
X180181883Y-137053943D01*
X180444673Y-137317192D01*
X180552516Y-137361973D01*
X180340000Y-137680026D01*
X180120054Y-137350853D01*
X179829322Y-137156593D01*
X179772148Y-136869161D01*
X179607401Y-136622599D01*
X179370122Y-136385320D01*
X179370162Y-136339833D01*
X179228117Y-135996057D01*
X178965327Y-135732808D01*
X178621799Y-135590162D01*
X178249833Y-135589838D01*
X177906057Y-135731883D01*
X177642808Y-135994673D01*
X177500162Y-136338201D01*
X177499838Y-136710167D01*
X177641883Y-137053943D01*
X177904673Y-137317192D01*
X178012516Y-137361973D01*
X177800000Y-137680026D01*
X177580054Y-137350853D01*
X177289322Y-137156593D01*
X177232148Y-136869161D01*
X177067401Y-136622599D01*
X176830122Y-136385320D01*
X176830162Y-136339833D01*
X176688117Y-135996057D01*
X176425327Y-135732808D01*
X176081799Y-135590162D01*
X175709833Y-135589838D01*
X175366057Y-135731883D01*
X175102808Y-135994673D01*
X174960162Y-136338201D01*
X174959838Y-136710167D01*
X175101883Y-137053943D01*
X175364673Y-137317192D01*
X175472516Y-137361973D01*
X175260000Y-137680026D01*
X175040054Y-137350853D01*
X174558285Y-137028946D01*
X173990000Y-136915907D01*
X173421715Y-137028946D01*
X172939946Y-137350853D01*
X172720000Y-137680026D01*
X172500054Y-137350853D01*
X172018285Y-137028946D01*
X171450000Y-136915907D01*
X170881715Y-137028946D01*
X170399946Y-137350853D01*
X170180000Y-137680026D01*
X169960054Y-137350853D01*
X169478285Y-137028946D01*
X168910000Y-136915907D01*
X168341715Y-137028946D01*
X167859946Y-137350853D01*
X167640000Y-137680026D01*
X167420054Y-137350853D01*
X167130000Y-137157046D01*
X167130000Y-133985000D01*
X167072148Y-133694161D01*
X167072148Y-133694160D01*
X166907401Y-133447599D01*
X165860000Y-132400198D01*
X165860000Y-131110110D01*
X165920167Y-131110162D01*
X166263943Y-130968117D01*
X166527192Y-130705327D01*
X166669838Y-130361799D01*
X166669879Y-130314923D01*
X166907401Y-130077401D01*
X167072148Y-129830839D01*
X167130000Y-129540000D01*
X167130000Y-126456668D01*
X167640000Y-126558113D01*
X168150000Y-126456668D01*
X168150000Y-128590198D01*
X168135320Y-128604878D01*
X168089833Y-128604838D01*
X167746057Y-128746883D01*
X167482808Y-129009673D01*
X167340162Y-129353201D01*
X167339838Y-129725167D01*
X167481883Y-130068943D01*
X167744673Y-130332192D01*
X168088201Y-130474838D01*
X168460167Y-130475162D01*
X168803943Y-130333117D01*
X169067192Y-130070327D01*
X169132626Y-129912745D01*
X182131861Y-129912745D01*
X182205995Y-130158864D01*
X182743223Y-130351965D01*
X183313454Y-130324778D01*
X183714005Y-130158864D01*
X183788139Y-129912745D01*
X182960000Y-129084605D01*
X182131861Y-129912745D01*
X169132626Y-129912745D01*
X169209838Y-129726799D01*
X169209879Y-129679923D01*
X169447401Y-129442401D01*
X169612148Y-129195839D01*
X169670000Y-128905000D01*
X169670000Y-126456668D01*
X170180000Y-126558113D01*
X170690000Y-126456668D01*
X170690000Y-127955198D01*
X170675320Y-127969878D01*
X170629833Y-127969838D01*
X170286057Y-128111883D01*
X170022808Y-128374673D01*
X169880162Y-128718201D01*
X169879838Y-129090167D01*
X170021883Y-129433943D01*
X170284673Y-129697192D01*
X170628201Y-129839838D01*
X171000167Y-129840162D01*
X171343943Y-129698117D01*
X171607192Y-129435327D01*
X171749838Y-129091799D01*
X171749879Y-129044923D01*
X171987401Y-128807401D01*
X172152148Y-128560839D01*
X172210000Y-128270000D01*
X172210000Y-126456668D01*
X172720000Y-126558113D01*
X173230000Y-126456668D01*
X173230000Y-127320198D01*
X173215320Y-127334878D01*
X173169833Y-127334838D01*
X172826057Y-127476883D01*
X172562808Y-127739673D01*
X172420162Y-128083201D01*
X172419838Y-128455167D01*
X172561883Y-128798943D01*
X172824673Y-129062192D01*
X173168201Y-129204838D01*
X173540167Y-129205162D01*
X173883943Y-129063117D01*
X174147192Y-128800327D01*
X174193741Y-128688223D01*
X181513035Y-128688223D01*
X181540222Y-129258454D01*
X181706136Y-129659005D01*
X181952255Y-129733139D01*
X182780395Y-128905000D01*
X183139605Y-128905000D01*
X183967745Y-129733139D01*
X184213864Y-129659005D01*
X184406965Y-129121777D01*
X184379778Y-128551546D01*
X184213864Y-128150995D01*
X183967745Y-128076861D01*
X183139605Y-128905000D01*
X182780395Y-128905000D01*
X181952255Y-128076861D01*
X181706136Y-128150995D01*
X181513035Y-128688223D01*
X174193741Y-128688223D01*
X174289838Y-128456799D01*
X174289879Y-128409923D01*
X174527401Y-128172401D01*
X174692148Y-127925839D01*
X174697833Y-127897255D01*
X182131861Y-127897255D01*
X182960000Y-128725395D01*
X183788139Y-127897255D01*
X183714005Y-127651136D01*
X183176777Y-127458035D01*
X182606546Y-127485222D01*
X182205995Y-127651136D01*
X182131861Y-127897255D01*
X174697833Y-127897255D01*
X174750000Y-127635000D01*
X174750000Y-126456668D01*
X175260000Y-126558113D01*
X175809151Y-126448880D01*
X176274698Y-126137811D01*
X176530000Y-125755725D01*
X176785302Y-126137811D01*
X177250849Y-126448880D01*
X177800000Y-126558113D01*
X178349151Y-126448880D01*
X178814698Y-126137811D01*
X179070000Y-125755725D01*
X179325302Y-126137811D01*
X179790849Y-126448880D01*
X180340000Y-126558113D01*
X180889151Y-126448880D01*
X181354698Y-126137811D01*
X181610000Y-125755725D01*
X181865302Y-126137811D01*
X182330849Y-126448880D01*
X182880000Y-126558113D01*
X183429151Y-126448880D01*
X183894698Y-126137811D01*
X184150000Y-125755725D01*
X184405302Y-126137811D01*
X184870849Y-126448880D01*
X185420000Y-126558113D01*
X185969151Y-126448880D01*
X186434698Y-126137811D01*
X186690000Y-125755725D01*
X186945302Y-126137811D01*
M02*
