M48
;DRILL file {KiCad 4.0.7} date 01/21/20 16:06:36
;FORMAT={2:4/ absolute / inch / suppress leading zeros}
FMAT,2
INCH,TZ
T1C0.016
T2C0.031
T3C0.039
%
G90
G05
M72
T1
X36250Y-34750
X36250Y-43000
X38250Y-36250
X39500Y-38500
X40500Y-39000
X40500Y-40500
X40750Y-53750
X41000Y-51250
X41250Y-51000
X41500Y-44750
X42500Y-44750
X43500Y-44750
X44500Y-44750
X45500Y-44750
X46250Y-37500
X46500Y-45250
X46750Y-37750
X47000Y-36250
X47500Y-38000
X47500Y-44750
X48000Y-36500
X48500Y-43500
X48500Y-44750
X48500Y-49500
X49250Y-37250
X49500Y-49500
X50500Y-40250
X50500Y-41500
X50750Y-40500
X50750Y-41250
X50750Y-53250
X51000Y-37500
X51750Y-53250
X51750Y-53750
X52500Y-49500
X52500Y-50750
X53000Y-49500
X53500Y-49500
X53500Y-50750
X54500Y-49500
X54500Y-50750
X55000Y-52500
X55250Y-53750
X55500Y-34500
X55500Y-49500
X55500Y-50750
X55750Y-34000
X56000Y-52500
X56250Y-34000
X56500Y-33750
X56500Y-41250
X56500Y-41750
X56750Y-39000
X56750Y-40750
X57000Y-39250
X57000Y-41000
X57250Y-54000
X57500Y-53750
X58250Y-49750
X58500Y-45500
X58500Y-49500
X58750Y-45000
X58750Y-47000
X58750Y-49250
X59000Y-44500
X59000Y-54000
X59250Y-53750
X60000Y-44000
X60000Y-46000
X60250Y-43750
X60500Y-40500
X60750Y-39250
X60750Y-40250
X60750Y-41250
X60750Y-41750
X60750Y-42250
X61000Y-38750
X61000Y-41500
X61000Y-42000
X63000Y-42000
X63500Y-53500
X64000Y-53250
X64250Y-51750
X64250Y-53750
X64500Y-43000
X64500Y-48500
X64500Y-51500
X64750Y-44500
X64750Y-51750
X65000Y-45500
X65000Y-51500
X65250Y-46500
X65250Y-51750
X65500Y-46000
X65500Y-48000
X65750Y-36250
X65750Y-37750
X66000Y-40250
X66000Y-42000
X69750Y-41500
X70000Y-41250
X70000Y-41750
X70250Y-40000
X70250Y-52000
X70500Y-39250
X70500Y-39750
X70500Y-42750
X70500Y-45500
X70500Y-51750
X70750Y-38750
X70750Y-40000
X70750Y-43000
X70750Y-46500
X70750Y-52000
X71000Y-41250
X71000Y-41750
X71000Y-49000
X71250Y-41500
X71250Y-49250
X71750Y-43000
X71750Y-46000
X72000Y-42750
X72000Y-47000
X72250Y-43000
X74750Y-43500
X74750Y-48500
T2
X37000Y-42750
X37000Y-44250
X37000Y-50250
X38000Y-44250
X38000Y-50250
X38969Y-42750
X39000Y-44250
X39000Y-50250
X40000Y-44250
X40000Y-50250
X41000Y-44250
X41000Y-50250
X42000Y-44250
X42000Y-50250
X43000Y-44250
X43000Y-50250
X44000Y-44250
X44000Y-50250
X45000Y-44250
X45000Y-50250
X46000Y-44250
X46000Y-50250
X47000Y-44250
X47000Y-50250
X48000Y-44250
X48000Y-50250
X49000Y-44250
X49000Y-50250
X50000Y-44250
X50000Y-50250
X51000Y-44250
X51000Y-50250
X52000Y-44250
X52000Y-50250
X53000Y-44250
X53000Y-50250
X54000Y-44250
X54000Y-50250
X55000Y-44250
X55000Y-50250
X56000Y-44250
X56000Y-50250
X57750Y-44250
X57750Y-45250
X57750Y-46250
X57750Y-47250
X57750Y-48250
X57750Y-49250
X57750Y-50250
X60750Y-44250
X60750Y-45250
X60750Y-46250
X60750Y-47250
X60750Y-48250
X60750Y-49250
X60750Y-50250
X62250Y-44250
X62250Y-46219
X63750Y-34500
X63750Y-35500
X63750Y-36500
X63750Y-37500
X63750Y-38500
X63750Y-39500
X63750Y-40500
X63750Y-44250
X63750Y-45250
X63750Y-46250
X63750Y-47250
X63750Y-48250
X63750Y-49250
X63750Y-50250
X63750Y-51250
X66750Y-34500
X66750Y-35500
X66750Y-36500
X66750Y-37500
X66750Y-38500
X66750Y-39500
X66750Y-40500
X66750Y-44250
X66750Y-45250
X66750Y-46250
X66750Y-47250
X66750Y-48250
X66750Y-49250
X66750Y-50250
X66750Y-51250
X68250Y-34500
X68250Y-36469
X68250Y-44250
X68250Y-46219
X69750Y-34500
X69750Y-35500
X69750Y-36500
X69750Y-37500
X69750Y-38500
X69750Y-39500
X69750Y-40500
X69750Y-44250
X69750Y-45250
X69750Y-46250
X69750Y-47250
X69750Y-48250
X69750Y-49250
X69750Y-50250
X69750Y-51250
X72750Y-34500
X72750Y-35500
X72750Y-36500
X72750Y-37500
X72750Y-38500
X72750Y-39500
X72750Y-40500
X72750Y-44250
X72750Y-45250
X72750Y-46250
X72750Y-47250
X72750Y-48250
X72750Y-49250
X72750Y-50250
X72750Y-51250
X74250Y-34500
X74250Y-36469
X74250Y-44250
X74250Y-46219
T3
X36500Y-54500
X37500Y-34500
X37500Y-35500
X37500Y-54500
X38500Y-34500
X38500Y-35500
X38500Y-54500
X39500Y-34500
X39500Y-35500
X39500Y-54500
X40500Y-34500
X40500Y-35500
X40500Y-54500
X41500Y-34500
X41500Y-35500
X41500Y-54500
X42500Y-34500
X42500Y-35500
X42500Y-54500
X43500Y-34500
X43500Y-35500
X43500Y-54500
X44500Y-34500
X44500Y-35500
X44500Y-54500
X45500Y-34500
X45500Y-35500
X45500Y-54500
X46500Y-34500
X46500Y-35500
X46500Y-54500
X47500Y-54500
X48500Y-54500
X49500Y-34500
X49500Y-35500
X49500Y-36500
X49500Y-54500
X50500Y-34500
X50500Y-35500
X50500Y-36500
X50500Y-54500
X51500Y-34500
X51500Y-35500
X51500Y-36500
X51500Y-54500
X52500Y-54500
X53500Y-54500
X54500Y-54500
X55500Y-54500
X56500Y-54500
X57250Y-34500
X57250Y-35500
X57500Y-54500
X57750Y-38500
X57750Y-39500
X57750Y-40500
X58250Y-34500
X58250Y-35500
X58500Y-54500
X58750Y-38500
X58750Y-39500
X58750Y-40500
X59250Y-34500
X59250Y-35500
X59500Y-54500
X59750Y-38500
X59750Y-39500
X59750Y-40500
X60250Y-34500
X60250Y-35500
X60500Y-54500
X61500Y-54500
X62500Y-54500
X63500Y-54500
X64500Y-54500
X65500Y-54500
X66500Y-54500
X67500Y-54500
X68250Y-48250
X68250Y-49250
X68250Y-50250
X68250Y-51250
X68500Y-54500
X69500Y-54500
X70500Y-54500
X71500Y-54500
X72500Y-54500
X73500Y-54500
X74250Y-49250
X74250Y-50250
X74250Y-51250
X74500Y-54500
T0
M30
