G04 #@! TF.FileFunction,Legend,Bot*
%FSLAX46Y46*%
G04 Gerber Fmt 4.6, Leading zero omitted, Abs format (unit mm)*
G04 Created by KiCad (PCBNEW 4.0.7) date 11/08/19 19:34:30*
%MOMM*%
%LPD*%
G01*
G04 APERTURE LIST*
%ADD10C,0.100000*%
%ADD11C,0.150000*%
%ADD12C,0.200000*%
%ADD13C,0.120000*%
G04 APERTURE END LIST*
D10*
D11*
X159622381Y-99782381D02*
X159050952Y-99782381D01*
X159336667Y-100782381D02*
X159336667Y-99782381D01*
X158765238Y-100496667D02*
X158289047Y-100496667D01*
X158860476Y-100782381D02*
X158527143Y-99782381D01*
X158193809Y-100782381D01*
X157860476Y-100782381D02*
X157860476Y-99782381D01*
X157479523Y-99782381D01*
X157384285Y-99830000D01*
X157336666Y-99877619D01*
X157289047Y-99972857D01*
X157289047Y-100115714D01*
X157336666Y-100210952D01*
X157384285Y-100258571D01*
X157479523Y-100306190D01*
X157860476Y-100306190D01*
X156860476Y-100258571D02*
X156527142Y-100258571D01*
X156384285Y-100782381D02*
X156860476Y-100782381D01*
X156860476Y-99782381D01*
X156384285Y-99782381D01*
X155193809Y-100782381D02*
X155193809Y-99782381D01*
X154717619Y-100782381D02*
X154717619Y-99782381D01*
X154146190Y-100782381D01*
X154146190Y-99782381D01*
X153812857Y-99782381D02*
X153241428Y-99782381D01*
X153527143Y-100782381D02*
X153527143Y-99782381D01*
X152908095Y-100258571D02*
X152574761Y-100258571D01*
X152431904Y-100782381D02*
X152908095Y-100782381D01*
X152908095Y-99782381D01*
X152431904Y-99782381D01*
X151431904Y-100782381D02*
X151765238Y-100306190D01*
X152003333Y-100782381D02*
X152003333Y-99782381D01*
X151622380Y-99782381D01*
X151527142Y-99830000D01*
X151479523Y-99877619D01*
X151431904Y-99972857D01*
X151431904Y-100115714D01*
X151479523Y-100210952D01*
X151527142Y-100258571D01*
X151622380Y-100306190D01*
X152003333Y-100306190D01*
X150669999Y-100258571D02*
X151003333Y-100258571D01*
X151003333Y-100782381D02*
X151003333Y-99782381D01*
X150527142Y-99782381D01*
X150193809Y-100496667D02*
X149717618Y-100496667D01*
X150289047Y-100782381D02*
X149955714Y-99782381D01*
X149622380Y-100782381D01*
X148717618Y-100687143D02*
X148765237Y-100734762D01*
X148908094Y-100782381D01*
X149003332Y-100782381D01*
X149146190Y-100734762D01*
X149241428Y-100639524D01*
X149289047Y-100544286D01*
X149336666Y-100353810D01*
X149336666Y-100210952D01*
X149289047Y-100020476D01*
X149241428Y-99925238D01*
X149146190Y-99830000D01*
X149003332Y-99782381D01*
X148908094Y-99782381D01*
X148765237Y-99830000D01*
X148717618Y-99877619D01*
X148289047Y-100258571D02*
X147955713Y-100258571D01*
X147812856Y-100782381D02*
X148289047Y-100782381D01*
X148289047Y-99782381D01*
X147812856Y-99782381D01*
D12*
X198120000Y-122555000D02*
X198755000Y-123190000D01*
X198120000Y-122555000D02*
X198755000Y-121920000D01*
X193040000Y-112395000D02*
X193040000Y-99060000D01*
X206375000Y-125095000D02*
X206375000Y-112395000D01*
X183515000Y-125095000D02*
X206375000Y-125095000D01*
X183515000Y-132715000D02*
X183515000Y-125095000D01*
X195580000Y-132080000D02*
X184150000Y-132080000D01*
X184150000Y-125730000D02*
X195580000Y-125730000D01*
X184150000Y-125730000D02*
X184150000Y-132080000D01*
X193040000Y-112395000D02*
X206375000Y-112395000D01*
X183515000Y-133350000D02*
X183515000Y-132715000D01*
X147320000Y-133350000D02*
X183515000Y-133350000D01*
X147320000Y-99060000D02*
X147320000Y-133350000D01*
X193040000Y-99060000D02*
X147320000Y-99060000D01*
X198120000Y-122555000D02*
X205740000Y-122555000D01*
X205740000Y-114935000D02*
X205105000Y-115570000D01*
X205740000Y-114935000D02*
X205105000Y-114300000D01*
X198120000Y-114935000D02*
X205740000Y-114935000D01*
D10*
X205441190Y-121862857D02*
X205707857Y-121862857D01*
X205707857Y-122281905D02*
X205707857Y-121481905D01*
X205326904Y-121481905D01*
X204565000Y-122281905D02*
X204831667Y-121900952D01*
X205022143Y-122281905D02*
X205022143Y-121481905D01*
X204717381Y-121481905D01*
X204641190Y-121520000D01*
X204603095Y-121558095D01*
X204565000Y-121634286D01*
X204565000Y-121748571D01*
X204603095Y-121824762D01*
X204641190Y-121862857D01*
X204717381Y-121900952D01*
X205022143Y-121900952D01*
X204069762Y-121481905D02*
X203917381Y-121481905D01*
X203841190Y-121520000D01*
X203765000Y-121596190D01*
X203726905Y-121748571D01*
X203726905Y-122015238D01*
X203765000Y-122167619D01*
X203841190Y-122243810D01*
X203917381Y-122281905D01*
X204069762Y-122281905D01*
X204145952Y-122243810D01*
X204222143Y-122167619D01*
X204260238Y-122015238D01*
X204260238Y-121748571D01*
X204222143Y-121596190D01*
X204145952Y-121520000D01*
X204069762Y-121481905D01*
X203384048Y-122281905D02*
X203384048Y-121481905D01*
X203117381Y-122053333D01*
X202850714Y-121481905D01*
X202850714Y-122281905D01*
X201974524Y-121481905D02*
X201517381Y-121481905D01*
X201745952Y-122281905D02*
X201745952Y-121481905D01*
X201288809Y-122053333D02*
X200907857Y-122053333D01*
X201365000Y-122281905D02*
X201098333Y-121481905D01*
X200831666Y-122281905D01*
X200565000Y-122281905D02*
X200565000Y-121481905D01*
X200260238Y-121481905D01*
X200184047Y-121520000D01*
X200145952Y-121558095D01*
X200107857Y-121634286D01*
X200107857Y-121748571D01*
X200145952Y-121824762D01*
X200184047Y-121862857D01*
X200260238Y-121900952D01*
X200565000Y-121900952D01*
X199765000Y-121862857D02*
X199498333Y-121862857D01*
X199384047Y-122281905D02*
X199765000Y-122281905D01*
X199765000Y-121481905D01*
X199384047Y-121481905D01*
X204926905Y-113861905D02*
X204469762Y-113861905D01*
X204698333Y-114661905D02*
X204698333Y-113861905D01*
X204050714Y-113861905D02*
X203898333Y-113861905D01*
X203822142Y-113900000D01*
X203745952Y-113976190D01*
X203707857Y-114128571D01*
X203707857Y-114395238D01*
X203745952Y-114547619D01*
X203822142Y-114623810D01*
X203898333Y-114661905D01*
X204050714Y-114661905D01*
X204126904Y-114623810D01*
X204203095Y-114547619D01*
X204241190Y-114395238D01*
X204241190Y-114128571D01*
X204203095Y-113976190D01*
X204126904Y-113900000D01*
X204050714Y-113861905D01*
X202869762Y-113861905D02*
X202412619Y-113861905D01*
X202641190Y-114661905D02*
X202641190Y-113861905D01*
X202184047Y-114433333D02*
X201803095Y-114433333D01*
X202260238Y-114661905D02*
X201993571Y-113861905D01*
X201726904Y-114661905D01*
X201460238Y-114661905D02*
X201460238Y-113861905D01*
X201155476Y-113861905D01*
X201079285Y-113900000D01*
X201041190Y-113938095D01*
X201003095Y-114014286D01*
X201003095Y-114128571D01*
X201041190Y-114204762D01*
X201079285Y-114242857D01*
X201155476Y-114280952D01*
X201460238Y-114280952D01*
X200660238Y-114242857D02*
X200393571Y-114242857D01*
X200279285Y-114661905D02*
X200660238Y-114661905D01*
X200660238Y-113861905D01*
X200279285Y-113861905D01*
X203473095Y-102044524D02*
X204273095Y-102044524D01*
X204273095Y-101854048D01*
X204235000Y-101739762D01*
X204158810Y-101663571D01*
X204082619Y-101625476D01*
X203930238Y-101587381D01*
X203815952Y-101587381D01*
X203663571Y-101625476D01*
X203587381Y-101663571D01*
X203511190Y-101739762D01*
X203473095Y-101854048D01*
X203473095Y-102044524D01*
X203473095Y-101244524D02*
X204273095Y-101244524D01*
X204273095Y-100939762D01*
X204235000Y-100863571D01*
X204196905Y-100825476D01*
X204120714Y-100787381D01*
X204006429Y-100787381D01*
X203930238Y-100825476D01*
X203892143Y-100863571D01*
X203854048Y-100939762D01*
X203854048Y-101244524D01*
X204006429Y-100101667D02*
X203473095Y-100101667D01*
X204311190Y-100292143D02*
X203739762Y-100482619D01*
X203739762Y-99987381D01*
X203396905Y-99873095D02*
X203396905Y-99263571D01*
X203892143Y-99073095D02*
X203892143Y-98806428D01*
X203473095Y-98692142D02*
X203473095Y-99073095D01*
X204273095Y-99073095D01*
X204273095Y-98692142D01*
X203473095Y-98349285D02*
X204273095Y-98349285D01*
X203473095Y-97892142D01*
X204273095Y-97892142D01*
X199663095Y-102044524D02*
X200463095Y-102044524D01*
X200463095Y-101854048D01*
X200425000Y-101739762D01*
X200348810Y-101663571D01*
X200272619Y-101625476D01*
X200120238Y-101587381D01*
X200005952Y-101587381D01*
X199853571Y-101625476D01*
X199777381Y-101663571D01*
X199701190Y-101739762D01*
X199663095Y-101854048D01*
X199663095Y-102044524D01*
X199663095Y-101244524D02*
X200463095Y-101244524D01*
X200463095Y-100939762D01*
X200425000Y-100863571D01*
X200386905Y-100825476D01*
X200310714Y-100787381D01*
X200196429Y-100787381D01*
X200120238Y-100825476D01*
X200082143Y-100863571D01*
X200044048Y-100939762D01*
X200044048Y-101244524D01*
X199586905Y-100635000D02*
X199586905Y-100025476D01*
X200082143Y-99835000D02*
X200082143Y-99568333D01*
X199663095Y-99454047D02*
X199663095Y-99835000D01*
X200463095Y-99835000D01*
X200463095Y-99454047D01*
X199663095Y-99111190D02*
X200463095Y-99111190D01*
X199663095Y-98654047D01*
X200463095Y-98654047D01*
X196526190Y-102082619D02*
X196488095Y-101968333D01*
X196488095Y-101777857D01*
X196526190Y-101701667D01*
X196564286Y-101663571D01*
X196640476Y-101625476D01*
X196716667Y-101625476D01*
X196792857Y-101663571D01*
X196830952Y-101701667D01*
X196869048Y-101777857D01*
X196907143Y-101930238D01*
X196945238Y-102006429D01*
X196983333Y-102044524D01*
X197059524Y-102082619D01*
X197135714Y-102082619D01*
X197211905Y-102044524D01*
X197250000Y-102006429D01*
X197288095Y-101930238D01*
X197288095Y-101739762D01*
X197250000Y-101625476D01*
X196526190Y-101320714D02*
X196488095Y-101206428D01*
X196488095Y-101015952D01*
X196526190Y-100939762D01*
X196564286Y-100901666D01*
X196640476Y-100863571D01*
X196716667Y-100863571D01*
X196792857Y-100901666D01*
X196830952Y-100939762D01*
X196869048Y-101015952D01*
X196907143Y-101168333D01*
X196945238Y-101244524D01*
X196983333Y-101282619D01*
X197059524Y-101320714D01*
X197135714Y-101320714D01*
X197211905Y-101282619D01*
X197250000Y-101244524D01*
X197288095Y-101168333D01*
X197288095Y-100977857D01*
X197250000Y-100863571D01*
X196488095Y-100520714D02*
X197288095Y-100520714D01*
X197288095Y-100330238D01*
X197250000Y-100215952D01*
X197173810Y-100139761D01*
X197097619Y-100101666D01*
X196945238Y-100063571D01*
X196830952Y-100063571D01*
X196678571Y-100101666D01*
X196602381Y-100139761D01*
X196526190Y-100215952D01*
X196488095Y-100330238D01*
X196488095Y-100520714D01*
X196411905Y-99911190D02*
X196411905Y-99301666D01*
X196907143Y-99111190D02*
X196907143Y-98844523D01*
X196488095Y-98730237D02*
X196488095Y-99111190D01*
X197288095Y-99111190D01*
X197288095Y-98730237D01*
X196488095Y-98387380D02*
X197288095Y-98387380D01*
X196488095Y-97930237D01*
X197288095Y-97930237D01*
D12*
X118745000Y-125730000D02*
X118745000Y-132080000D01*
X123825000Y-125730000D02*
X118745000Y-125730000D01*
X140335000Y-125730000D02*
X135255000Y-125730000D01*
X140335000Y-132080000D02*
X140335000Y-125730000D01*
D10*
X195389524Y-127966905D02*
X195389524Y-127166905D01*
X195084762Y-127166905D01*
X195008571Y-127205000D01*
X194970476Y-127243095D01*
X194932381Y-127319286D01*
X194932381Y-127433571D01*
X194970476Y-127509762D01*
X195008571Y-127547857D01*
X195084762Y-127585952D01*
X195389524Y-127585952D01*
X194437143Y-127166905D02*
X194284762Y-127166905D01*
X194208571Y-127205000D01*
X194132381Y-127281190D01*
X194094286Y-127433571D01*
X194094286Y-127700238D01*
X194132381Y-127852619D01*
X194208571Y-127928810D01*
X194284762Y-127966905D01*
X194437143Y-127966905D01*
X194513333Y-127928810D01*
X194589524Y-127852619D01*
X194627619Y-127700238D01*
X194627619Y-127433571D01*
X194589524Y-127281190D01*
X194513333Y-127205000D01*
X194437143Y-127166905D01*
X193827619Y-127166905D02*
X193637143Y-127966905D01*
X193484762Y-127395476D01*
X193332381Y-127966905D01*
X193141905Y-127166905D01*
X192837143Y-127547857D02*
X192570476Y-127547857D01*
X192456190Y-127966905D02*
X192837143Y-127966905D01*
X192837143Y-127166905D01*
X192456190Y-127166905D01*
X191656190Y-127966905D02*
X191922857Y-127585952D01*
X192113333Y-127966905D02*
X192113333Y-127166905D01*
X191808571Y-127166905D01*
X191732380Y-127205000D01*
X191694285Y-127243095D01*
X191656190Y-127319286D01*
X191656190Y-127433571D01*
X191694285Y-127509762D01*
X191732380Y-127547857D01*
X191808571Y-127585952D01*
X192113333Y-127585952D01*
X190246666Y-127966905D02*
X190513333Y-127585952D01*
X190703809Y-127966905D02*
X190703809Y-127166905D01*
X190399047Y-127166905D01*
X190322856Y-127205000D01*
X190284761Y-127243095D01*
X190246666Y-127319286D01*
X190246666Y-127433571D01*
X190284761Y-127509762D01*
X190322856Y-127547857D01*
X190399047Y-127585952D01*
X190703809Y-127585952D01*
X189446666Y-127890714D02*
X189484761Y-127928810D01*
X189599047Y-127966905D01*
X189675237Y-127966905D01*
X189789523Y-127928810D01*
X189865714Y-127852619D01*
X189903809Y-127776429D01*
X189941904Y-127624048D01*
X189941904Y-127509762D01*
X189903809Y-127357381D01*
X189865714Y-127281190D01*
X189789523Y-127205000D01*
X189675237Y-127166905D01*
X189599047Y-127166905D01*
X189484761Y-127205000D01*
X189446666Y-127243095D01*
X189103809Y-127662143D02*
X188494285Y-127662143D01*
X187960952Y-127166905D02*
X187808571Y-127166905D01*
X187732380Y-127205000D01*
X187656190Y-127281190D01*
X187618095Y-127433571D01*
X187618095Y-127700238D01*
X187656190Y-127852619D01*
X187732380Y-127928810D01*
X187808571Y-127966905D01*
X187960952Y-127966905D01*
X188037142Y-127928810D01*
X188113333Y-127852619D01*
X188151428Y-127700238D01*
X188151428Y-127433571D01*
X188113333Y-127281190D01*
X188037142Y-127205000D01*
X187960952Y-127166905D01*
X187275238Y-127966905D02*
X187275238Y-127166905D01*
X186818095Y-127966905D01*
X186818095Y-127166905D01*
X186437143Y-127547857D02*
X186170476Y-127547857D01*
X186056190Y-127966905D02*
X186437143Y-127966905D01*
X186437143Y-127166905D01*
X186056190Y-127166905D01*
X195237143Y-128466905D02*
X195084762Y-128466905D01*
X195008571Y-128505000D01*
X194932381Y-128581190D01*
X194894286Y-128733571D01*
X194894286Y-129000238D01*
X194932381Y-129152619D01*
X195008571Y-129228810D01*
X195084762Y-129266905D01*
X195237143Y-129266905D01*
X195313333Y-129228810D01*
X195389524Y-129152619D01*
X195427619Y-129000238D01*
X195427619Y-128733571D01*
X195389524Y-128581190D01*
X195313333Y-128505000D01*
X195237143Y-128466905D01*
X194665715Y-128466905D02*
X194399048Y-129266905D01*
X194132381Y-128466905D01*
X193865715Y-128847857D02*
X193599048Y-128847857D01*
X193484762Y-129266905D02*
X193865715Y-129266905D01*
X193865715Y-128466905D01*
X193484762Y-128466905D01*
X192684762Y-129266905D02*
X192951429Y-128885952D01*
X193141905Y-129266905D02*
X193141905Y-128466905D01*
X192837143Y-128466905D01*
X192760952Y-128505000D01*
X192722857Y-128543095D01*
X192684762Y-128619286D01*
X192684762Y-128733571D01*
X192722857Y-128809762D01*
X192760952Y-128847857D01*
X192837143Y-128885952D01*
X193141905Y-128885952D01*
X191732381Y-128466905D02*
X191732381Y-129114524D01*
X191694286Y-129190714D01*
X191656190Y-129228810D01*
X191580000Y-129266905D01*
X191427619Y-129266905D01*
X191351428Y-129228810D01*
X191313333Y-129190714D01*
X191275238Y-129114524D01*
X191275238Y-128466905D01*
X190932381Y-129228810D02*
X190818095Y-129266905D01*
X190627619Y-129266905D01*
X190551429Y-129228810D01*
X190513333Y-129190714D01*
X190475238Y-129114524D01*
X190475238Y-129038333D01*
X190513333Y-128962143D01*
X190551429Y-128924048D01*
X190627619Y-128885952D01*
X190780000Y-128847857D01*
X190856191Y-128809762D01*
X190894286Y-128771667D01*
X190932381Y-128695476D01*
X190932381Y-128619286D01*
X190894286Y-128543095D01*
X190856191Y-128505000D01*
X190780000Y-128466905D01*
X190589524Y-128466905D01*
X190475238Y-128505000D01*
X189865714Y-128847857D02*
X189751428Y-128885952D01*
X189713333Y-128924048D01*
X189675238Y-129000238D01*
X189675238Y-129114524D01*
X189713333Y-129190714D01*
X189751428Y-129228810D01*
X189827619Y-129266905D01*
X190132381Y-129266905D01*
X190132381Y-128466905D01*
X189865714Y-128466905D01*
X189789524Y-128505000D01*
X189751428Y-128543095D01*
X189713333Y-128619286D01*
X189713333Y-128695476D01*
X189751428Y-128771667D01*
X189789524Y-128809762D01*
X189865714Y-128847857D01*
X190132381Y-128847857D01*
X188494285Y-129571667D02*
X188532381Y-129533571D01*
X188608571Y-129419286D01*
X188646666Y-129343095D01*
X188684762Y-129228810D01*
X188722857Y-129038333D01*
X188722857Y-128885952D01*
X188684762Y-128695476D01*
X188646666Y-128581190D01*
X188608571Y-128505000D01*
X188532381Y-128390714D01*
X188494285Y-128352619D01*
X188189524Y-129266905D02*
X188189524Y-128466905D01*
X187732381Y-129266905D01*
X187732381Y-128466905D01*
X187199048Y-128466905D02*
X187046667Y-128466905D01*
X186970476Y-128505000D01*
X186894286Y-128581190D01*
X186856191Y-128733571D01*
X186856191Y-129000238D01*
X186894286Y-129152619D01*
X186970476Y-129228810D01*
X187046667Y-129266905D01*
X187199048Y-129266905D01*
X187275238Y-129228810D01*
X187351429Y-129152619D01*
X187389524Y-129000238D01*
X187389524Y-128733571D01*
X187351429Y-128581190D01*
X187275238Y-128505000D01*
X187199048Y-128466905D01*
X195389524Y-130147857D02*
X195122857Y-130147857D01*
X195008571Y-130566905D02*
X195389524Y-130566905D01*
X195389524Y-129766905D01*
X195008571Y-129766905D01*
X194741904Y-129766905D02*
X194208571Y-130566905D01*
X194208571Y-129766905D02*
X194741904Y-130566905D01*
X194018095Y-129766905D02*
X193560952Y-129766905D01*
X193789523Y-130566905D02*
X193789523Y-129766905D01*
X193294285Y-130147857D02*
X193027618Y-130147857D01*
X192913332Y-130566905D02*
X193294285Y-130566905D01*
X193294285Y-129766905D01*
X192913332Y-129766905D01*
X192113332Y-130566905D02*
X192379999Y-130185952D01*
X192570475Y-130566905D02*
X192570475Y-129766905D01*
X192265713Y-129766905D01*
X192189522Y-129805000D01*
X192151427Y-129843095D01*
X192113332Y-129919286D01*
X192113332Y-130033571D01*
X192151427Y-130109762D01*
X192189522Y-130147857D01*
X192265713Y-130185952D01*
X192570475Y-130185952D01*
X191770475Y-130566905D02*
X191770475Y-129766905D01*
X191313332Y-130566905D01*
X191313332Y-129766905D01*
X190970475Y-130338333D02*
X190589523Y-130338333D01*
X191046666Y-130566905D02*
X190779999Y-129766905D01*
X190513332Y-130566905D01*
X189865713Y-130566905D02*
X190246666Y-130566905D01*
X190246666Y-129766905D01*
X188989523Y-130566905D02*
X188989523Y-129766905D01*
X188684761Y-129766905D01*
X188608570Y-129805000D01*
X188570475Y-129843095D01*
X188532380Y-129919286D01*
X188532380Y-130033571D01*
X188570475Y-130109762D01*
X188608570Y-130147857D01*
X188684761Y-130185952D01*
X188989523Y-130185952D01*
X188037142Y-129766905D02*
X187884761Y-129766905D01*
X187808570Y-129805000D01*
X187732380Y-129881190D01*
X187694285Y-130033571D01*
X187694285Y-130300238D01*
X187732380Y-130452619D01*
X187808570Y-130528810D01*
X187884761Y-130566905D01*
X188037142Y-130566905D01*
X188113332Y-130528810D01*
X188189523Y-130452619D01*
X188227618Y-130300238D01*
X188227618Y-130033571D01*
X188189523Y-129881190D01*
X188113332Y-129805000D01*
X188037142Y-129766905D01*
X187427618Y-129766905D02*
X187237142Y-130566905D01*
X187084761Y-129995476D01*
X186932380Y-130566905D01*
X186741904Y-129766905D01*
X186437142Y-130147857D02*
X186170475Y-130147857D01*
X186056189Y-130566905D02*
X186437142Y-130566905D01*
X186437142Y-129766905D01*
X186056189Y-129766905D01*
X185256189Y-130566905D02*
X185522856Y-130185952D01*
X185713332Y-130566905D02*
X185713332Y-129766905D01*
X185408570Y-129766905D01*
X185332379Y-129805000D01*
X185294284Y-129843095D01*
X185256189Y-129919286D01*
X185256189Y-130033571D01*
X185294284Y-130109762D01*
X185332379Y-130147857D01*
X185408570Y-130185952D01*
X185713332Y-130185952D01*
X184989522Y-130871667D02*
X184951427Y-130833571D01*
X184875237Y-130719286D01*
X184837141Y-130643095D01*
X184799046Y-130528810D01*
X184760951Y-130338333D01*
X184760951Y-130185952D01*
X184799046Y-129995476D01*
X184837141Y-129881190D01*
X184875237Y-129805000D01*
X184951427Y-129690714D01*
X184989522Y-129652619D01*
D12*
X199390000Y-132080000D02*
X195580000Y-132080000D01*
X199390000Y-125730000D02*
X199390000Y-132080000D01*
X195580000Y-125730000D02*
X199390000Y-125730000D01*
X140335000Y-132080000D02*
X118745000Y-132080000D01*
D10*
X133940000Y-126091905D02*
X134206667Y-125710952D01*
X134397143Y-126091905D02*
X134397143Y-125291905D01*
X134092381Y-125291905D01*
X134016190Y-125330000D01*
X133978095Y-125368095D01*
X133940000Y-125444286D01*
X133940000Y-125558571D01*
X133978095Y-125634762D01*
X134016190Y-125672857D01*
X134092381Y-125710952D01*
X134397143Y-125710952D01*
X133140000Y-126015714D02*
X133178095Y-126053810D01*
X133292381Y-126091905D01*
X133368571Y-126091905D01*
X133482857Y-126053810D01*
X133559048Y-125977619D01*
X133597143Y-125901429D01*
X133635238Y-125749048D01*
X133635238Y-125634762D01*
X133597143Y-125482381D01*
X133559048Y-125406190D01*
X133482857Y-125330000D01*
X133368571Y-125291905D01*
X133292381Y-125291905D01*
X133178095Y-125330000D01*
X133140000Y-125368095D01*
X132797143Y-125787143D02*
X132187619Y-125787143D01*
X131654286Y-125291905D02*
X131501905Y-125291905D01*
X131425714Y-125330000D01*
X131349524Y-125406190D01*
X131311429Y-125558571D01*
X131311429Y-125825238D01*
X131349524Y-125977619D01*
X131425714Y-126053810D01*
X131501905Y-126091905D01*
X131654286Y-126091905D01*
X131730476Y-126053810D01*
X131806667Y-125977619D01*
X131844762Y-125825238D01*
X131844762Y-125558571D01*
X131806667Y-125406190D01*
X131730476Y-125330000D01*
X131654286Y-125291905D01*
X130968572Y-126091905D02*
X130968572Y-125291905D01*
X130511429Y-126091905D01*
X130511429Y-125291905D01*
X130130477Y-125672857D02*
X129863810Y-125672857D01*
X129749524Y-126091905D02*
X130130477Y-126091905D01*
X130130477Y-125291905D01*
X129749524Y-125291905D01*
X128797143Y-126091905D02*
X128797143Y-125291905D01*
X128340000Y-126091905D02*
X128682857Y-125634762D01*
X128340000Y-125291905D02*
X128797143Y-125749048D01*
X127997143Y-125672857D02*
X127730476Y-125672857D01*
X127616190Y-126091905D02*
X127997143Y-126091905D01*
X127997143Y-125291905D01*
X127616190Y-125291905D01*
X127120952Y-125710952D02*
X127120952Y-126091905D01*
X127387619Y-125291905D02*
X127120952Y-125710952D01*
X126854285Y-125291905D01*
X126587619Y-126091905D02*
X126587619Y-125291905D01*
X126282857Y-125291905D01*
X126206666Y-125330000D01*
X126168571Y-125368095D01*
X126130476Y-125444286D01*
X126130476Y-125558571D01*
X126168571Y-125634762D01*
X126206666Y-125672857D01*
X126282857Y-125710952D01*
X126587619Y-125710952D01*
X125825714Y-125863333D02*
X125444762Y-125863333D01*
X125901905Y-126091905D02*
X125635238Y-125291905D01*
X125368571Y-126091905D01*
X125101905Y-126091905D02*
X125101905Y-125291905D01*
X124911429Y-125291905D01*
X124797143Y-125330000D01*
X124720952Y-125406190D01*
X124682857Y-125482381D01*
X124644762Y-125634762D01*
X124644762Y-125749048D01*
X124682857Y-125901429D01*
X124720952Y-125977619D01*
X124797143Y-126053810D01*
X124911429Y-126091905D01*
X125101905Y-126091905D01*
X179946191Y-80191905D02*
X179489048Y-80191905D01*
X179717619Y-80991905D02*
X179717619Y-80191905D01*
X179336667Y-80191905D02*
X178879524Y-80191905D01*
X179108095Y-80991905D02*
X179108095Y-80191905D01*
X178460476Y-80610952D02*
X178460476Y-80991905D01*
X178727143Y-80191905D02*
X178460476Y-80610952D01*
X178193809Y-80191905D01*
X180517619Y-82291905D02*
X180517619Y-81491905D01*
X180250952Y-82063333D01*
X179984285Y-81491905D01*
X179984285Y-82291905D01*
X179450952Y-81491905D02*
X179298571Y-81491905D01*
X179222380Y-81530000D01*
X179146190Y-81606190D01*
X179108095Y-81758571D01*
X179108095Y-82025238D01*
X179146190Y-82177619D01*
X179222380Y-82253810D01*
X179298571Y-82291905D01*
X179450952Y-82291905D01*
X179527142Y-82253810D01*
X179603333Y-82177619D01*
X179641428Y-82025238D01*
X179641428Y-81758571D01*
X179603333Y-81606190D01*
X179527142Y-81530000D01*
X179450952Y-81491905D01*
X178765238Y-82291905D02*
X178765238Y-81491905D01*
X178574762Y-81491905D01*
X178460476Y-81530000D01*
X178384285Y-81606190D01*
X178346190Y-81682381D01*
X178308095Y-81834762D01*
X178308095Y-81949048D01*
X178346190Y-82101429D01*
X178384285Y-82177619D01*
X178460476Y-82253810D01*
X178574762Y-82291905D01*
X178765238Y-82291905D01*
X177965238Y-81872857D02*
X177698571Y-81872857D01*
X177584285Y-82291905D02*
X177965238Y-82291905D01*
X177965238Y-81491905D01*
X177584285Y-81491905D01*
D12*
X177165000Y-79375000D02*
X177165000Y-73025000D01*
X180975000Y-79375000D02*
X177165000Y-79375000D01*
X180975000Y-73025000D02*
X180975000Y-79375000D01*
X177165000Y-73025000D02*
X180975000Y-73025000D01*
X206375000Y-102870000D02*
X206375000Y-104140000D01*
X202565000Y-102870000D02*
X206375000Y-102870000D01*
X202565000Y-111760000D02*
X202565000Y-102870000D01*
X206375000Y-111760000D02*
X202565000Y-111760000D01*
X206375000Y-107950000D02*
X206375000Y-111760000D01*
X201930000Y-111760000D02*
X201930000Y-107950000D01*
X198120000Y-111760000D02*
X201930000Y-111760000D01*
X198120000Y-102870000D02*
X198120000Y-111760000D01*
X201930000Y-102870000D02*
X198120000Y-102870000D01*
X201930000Y-104140000D02*
X201930000Y-102870000D01*
X197485000Y-111760000D02*
X197485000Y-107950000D01*
X193675000Y-111760000D02*
X197485000Y-111760000D01*
X193675000Y-102870000D02*
X193675000Y-111760000D01*
X197485000Y-102870000D02*
X193675000Y-102870000D01*
X197485000Y-104140000D02*
X197485000Y-102870000D01*
X206375000Y-107315000D02*
X205105000Y-107315000D01*
X206375000Y-104775000D02*
X206375000Y-107315000D01*
X205105000Y-104775000D02*
X206375000Y-104775000D01*
X201930000Y-107315000D02*
X200660000Y-107315000D01*
X201930000Y-104775000D02*
X201930000Y-107315000D01*
X200660000Y-104775000D02*
X201930000Y-104775000D01*
X197485000Y-107315000D02*
X196215000Y-107315000D01*
X197485000Y-104775000D02*
X197485000Y-107315000D01*
X196215000Y-104775000D02*
X197485000Y-104775000D01*
D10*
X201644286Y-53333571D02*
X201606190Y-53371666D01*
X201568095Y-53485952D01*
X201568095Y-53562142D01*
X201606190Y-53676428D01*
X201682381Y-53752619D01*
X201758571Y-53790714D01*
X201910952Y-53828809D01*
X202025238Y-53828809D01*
X202177619Y-53790714D01*
X202253810Y-53752619D01*
X202330000Y-53676428D01*
X202368095Y-53562142D01*
X202368095Y-53485952D01*
X202330000Y-53371666D01*
X202291905Y-53333571D01*
X202368095Y-52838333D02*
X202368095Y-52685952D01*
X202330000Y-52609761D01*
X202253810Y-52533571D01*
X202101429Y-52495476D01*
X201834762Y-52495476D01*
X201682381Y-52533571D01*
X201606190Y-52609761D01*
X201568095Y-52685952D01*
X201568095Y-52838333D01*
X201606190Y-52914523D01*
X201682381Y-52990714D01*
X201834762Y-53028809D01*
X202101429Y-53028809D01*
X202253810Y-52990714D01*
X202330000Y-52914523D01*
X202368095Y-52838333D01*
X201568095Y-52152619D02*
X202368095Y-52152619D01*
X201796667Y-51885952D01*
X202368095Y-51619285D01*
X201568095Y-51619285D01*
X157505237Y-48291667D02*
X157543333Y-48253571D01*
X157619523Y-48139286D01*
X157657618Y-48063095D01*
X157695714Y-47948810D01*
X157733809Y-47758333D01*
X157733809Y-47605952D01*
X157695714Y-47415476D01*
X157657618Y-47301190D01*
X157619523Y-47225000D01*
X157543333Y-47110714D01*
X157505237Y-47072619D01*
X156743333Y-47910714D02*
X156781428Y-47948810D01*
X156895714Y-47986905D01*
X156971904Y-47986905D01*
X157086190Y-47948810D01*
X157162381Y-47872619D01*
X157200476Y-47796429D01*
X157238571Y-47644048D01*
X157238571Y-47529762D01*
X157200476Y-47377381D01*
X157162381Y-47301190D01*
X157086190Y-47225000D01*
X156971904Y-47186905D01*
X156895714Y-47186905D01*
X156781428Y-47225000D01*
X156743333Y-47263095D01*
X156400476Y-47910714D02*
X156362381Y-47948810D01*
X156400476Y-47986905D01*
X156438571Y-47948810D01*
X156400476Y-47910714D01*
X156400476Y-47986905D01*
X156019524Y-47986905D02*
X156019524Y-47186905D01*
X155562381Y-47986905D02*
X155905238Y-47529762D01*
X155562381Y-47186905D02*
X156019524Y-47644048D01*
X155219524Y-47910714D02*
X155181429Y-47948810D01*
X155219524Y-47986905D01*
X155257619Y-47948810D01*
X155219524Y-47910714D01*
X155219524Y-47986905D01*
X154914762Y-48291667D02*
X154876667Y-48253571D01*
X154800477Y-48139286D01*
X154762381Y-48063095D01*
X154724286Y-47948810D01*
X154686191Y-47758333D01*
X154686191Y-47605952D01*
X154724286Y-47415476D01*
X154762381Y-47301190D01*
X154800477Y-47225000D01*
X154876667Y-47110714D01*
X154914762Y-47072619D01*
D11*
X169337142Y-44898571D02*
X168337142Y-44898571D01*
X168979999Y-46398571D01*
X166694286Y-46327143D02*
X166480000Y-46398571D01*
X166122857Y-46398571D01*
X165980000Y-46327143D01*
X165908571Y-46255714D01*
X165837143Y-46112857D01*
X165837143Y-45970000D01*
X165908571Y-45827143D01*
X165980000Y-45755714D01*
X166122857Y-45684286D01*
X166408571Y-45612857D01*
X166551429Y-45541429D01*
X166622857Y-45470000D01*
X166694286Y-45327143D01*
X166694286Y-45184286D01*
X166622857Y-45041429D01*
X166551429Y-44970000D01*
X166408571Y-44898571D01*
X166051429Y-44898571D01*
X165837143Y-44970000D01*
X165194286Y-45612857D02*
X164694286Y-45612857D01*
X164480000Y-46398571D02*
X165194286Y-46398571D01*
X165194286Y-44898571D01*
X164480000Y-44898571D01*
X163051429Y-44970000D02*
X163194286Y-44898571D01*
X163408572Y-44898571D01*
X163622857Y-44970000D01*
X163765715Y-45112857D01*
X163837143Y-45255714D01*
X163908572Y-45541429D01*
X163908572Y-45755714D01*
X163837143Y-46041429D01*
X163765715Y-46184286D01*
X163622857Y-46327143D01*
X163408572Y-46398571D01*
X163265715Y-46398571D01*
X163051429Y-46327143D01*
X162980000Y-46255714D01*
X162980000Y-45755714D01*
X163265715Y-45755714D01*
X162337143Y-46398571D02*
X162337143Y-44898571D01*
X161837143Y-45970000D01*
X161337143Y-44898571D01*
X161337143Y-46398571D01*
X160622857Y-45612857D02*
X160122857Y-45612857D01*
X159908571Y-46398571D02*
X160622857Y-46398571D01*
X160622857Y-44898571D01*
X159908571Y-44898571D01*
X159265714Y-46398571D02*
X159265714Y-44898571D01*
X158408571Y-46398571D01*
X158408571Y-44898571D01*
X157908571Y-44898571D02*
X157051428Y-44898571D01*
X157479999Y-46398571D02*
X157479999Y-44898571D01*
X155408571Y-46398571D02*
X155408571Y-44898571D01*
X155051428Y-44898571D01*
X154837143Y-44970000D01*
X154694285Y-45112857D01*
X154622857Y-45255714D01*
X154551428Y-45541429D01*
X154551428Y-45755714D01*
X154622857Y-46041429D01*
X154694285Y-46184286D01*
X154837143Y-46327143D01*
X155051428Y-46398571D01*
X155408571Y-46398571D01*
X153908571Y-46398571D02*
X153908571Y-44898571D01*
X153265714Y-46327143D02*
X153051428Y-46398571D01*
X152694285Y-46398571D01*
X152551428Y-46327143D01*
X152479999Y-46255714D01*
X152408571Y-46112857D01*
X152408571Y-45970000D01*
X152479999Y-45827143D01*
X152551428Y-45755714D01*
X152694285Y-45684286D01*
X152979999Y-45612857D01*
X153122857Y-45541429D01*
X153194285Y-45470000D01*
X153265714Y-45327143D01*
X153265714Y-45184286D01*
X153194285Y-45041429D01*
X153122857Y-44970000D01*
X152979999Y-44898571D01*
X152622857Y-44898571D01*
X152408571Y-44970000D01*
X151765714Y-46398571D02*
X151765714Y-44898571D01*
X151194286Y-44898571D01*
X151051428Y-44970000D01*
X150980000Y-45041429D01*
X150908571Y-45184286D01*
X150908571Y-45398571D01*
X150980000Y-45541429D01*
X151051428Y-45612857D01*
X151194286Y-45684286D01*
X151765714Y-45684286D01*
X149551428Y-46398571D02*
X150265714Y-46398571D01*
X150265714Y-44898571D01*
X149122857Y-45970000D02*
X148408571Y-45970000D01*
X149265714Y-46398571D02*
X148765714Y-44898571D01*
X148265714Y-46398571D01*
X147480000Y-45684286D02*
X147480000Y-46398571D01*
X147980000Y-44898571D02*
X147480000Y-45684286D01*
X146980000Y-44898571D01*
X146551429Y-46327143D02*
X146337143Y-46398571D01*
X145980000Y-46398571D01*
X145837143Y-46327143D01*
X145765714Y-46255714D01*
X145694286Y-46112857D01*
X145694286Y-45970000D01*
X145765714Y-45827143D01*
X145837143Y-45755714D01*
X145980000Y-45684286D01*
X146265714Y-45612857D01*
X146408572Y-45541429D01*
X146480000Y-45470000D01*
X146551429Y-45327143D01*
X146551429Y-45184286D01*
X146480000Y-45041429D01*
X146408572Y-44970000D01*
X146265714Y-44898571D01*
X145908572Y-44898571D01*
X145694286Y-44970000D01*
D12*
X197485000Y-51435000D02*
X197485000Y-52705000D01*
X187960000Y-52070000D02*
X197485000Y-52070000D01*
X173355000Y-52070000D02*
X182880000Y-52070000D01*
X173355000Y-51435000D02*
X173355000Y-52705000D01*
X169545000Y-51435000D02*
X169545000Y-52705000D01*
X160020000Y-52070000D02*
X169545000Y-52070000D01*
X145415000Y-52070000D02*
X154940000Y-52070000D01*
X145415000Y-51435000D02*
X145415000Y-52705000D01*
D10*
X187134286Y-52393810D02*
X187020000Y-52431905D01*
X186829524Y-52431905D01*
X186753334Y-52393810D01*
X186715238Y-52355714D01*
X186677143Y-52279524D01*
X186677143Y-52203333D01*
X186715238Y-52127143D01*
X186753334Y-52089048D01*
X186829524Y-52050952D01*
X186981905Y-52012857D01*
X187058096Y-51974762D01*
X187096191Y-51936667D01*
X187134286Y-51860476D01*
X187134286Y-51784286D01*
X187096191Y-51708095D01*
X187058096Y-51670000D01*
X186981905Y-51631905D01*
X186791429Y-51631905D01*
X186677143Y-51670000D01*
X186905715Y-51517619D02*
X186905715Y-52546190D01*
X186181905Y-51631905D02*
X186105714Y-51631905D01*
X186029524Y-51670000D01*
X185991429Y-51708095D01*
X185953333Y-51784286D01*
X185915238Y-51936667D01*
X185915238Y-52127143D01*
X185953333Y-52279524D01*
X185991429Y-52355714D01*
X186029524Y-52393810D01*
X186105714Y-52431905D01*
X186181905Y-52431905D01*
X186258095Y-52393810D01*
X186296191Y-52355714D01*
X186334286Y-52279524D01*
X186372381Y-52127143D01*
X186372381Y-51936667D01*
X186334286Y-51784286D01*
X186296191Y-51708095D01*
X186258095Y-51670000D01*
X186181905Y-51631905D01*
X185420000Y-51631905D02*
X185343809Y-51631905D01*
X185267619Y-51670000D01*
X185229524Y-51708095D01*
X185191428Y-51784286D01*
X185153333Y-51936667D01*
X185153333Y-52127143D01*
X185191428Y-52279524D01*
X185229524Y-52355714D01*
X185267619Y-52393810D01*
X185343809Y-52431905D01*
X185420000Y-52431905D01*
X185496190Y-52393810D01*
X185534286Y-52355714D01*
X185572381Y-52279524D01*
X185610476Y-52127143D01*
X185610476Y-51936667D01*
X185572381Y-51784286D01*
X185534286Y-51708095D01*
X185496190Y-51670000D01*
X185420000Y-51631905D01*
X184543809Y-52012857D02*
X184810476Y-52012857D01*
X184810476Y-52431905D02*
X184810476Y-51631905D01*
X184429523Y-51631905D01*
X184086667Y-52431905D02*
X183934286Y-52431905D01*
X183858095Y-52393810D01*
X183820000Y-52355714D01*
X183743809Y-52241429D01*
X183705714Y-52089048D01*
X183705714Y-51784286D01*
X183743809Y-51708095D01*
X183781905Y-51670000D01*
X183858095Y-51631905D01*
X184010476Y-51631905D01*
X184086667Y-51670000D01*
X184124762Y-51708095D01*
X184162857Y-51784286D01*
X184162857Y-51974762D01*
X184124762Y-52050952D01*
X184086667Y-52089048D01*
X184010476Y-52127143D01*
X183858095Y-52127143D01*
X183781905Y-52089048D01*
X183743809Y-52050952D01*
X183705714Y-51974762D01*
X159156190Y-52393810D02*
X159041904Y-52431905D01*
X158851428Y-52431905D01*
X158775238Y-52393810D01*
X158737142Y-52355714D01*
X158699047Y-52279524D01*
X158699047Y-52203333D01*
X158737142Y-52127143D01*
X158775238Y-52089048D01*
X158851428Y-52050952D01*
X159003809Y-52012857D01*
X159080000Y-51974762D01*
X159118095Y-51936667D01*
X159156190Y-51860476D01*
X159156190Y-51784286D01*
X159118095Y-51708095D01*
X159080000Y-51670000D01*
X159003809Y-51631905D01*
X158813333Y-51631905D01*
X158699047Y-51670000D01*
X158927619Y-51517619D02*
X158927619Y-52546190D01*
X158203809Y-51631905D02*
X158127618Y-51631905D01*
X158051428Y-51670000D01*
X158013333Y-51708095D01*
X157975237Y-51784286D01*
X157937142Y-51936667D01*
X157937142Y-52127143D01*
X157975237Y-52279524D01*
X158013333Y-52355714D01*
X158051428Y-52393810D01*
X158127618Y-52431905D01*
X158203809Y-52431905D01*
X158279999Y-52393810D01*
X158318095Y-52355714D01*
X158356190Y-52279524D01*
X158394285Y-52127143D01*
X158394285Y-51936667D01*
X158356190Y-51784286D01*
X158318095Y-51708095D01*
X158279999Y-51670000D01*
X158203809Y-51631905D01*
X157441904Y-51631905D02*
X157365713Y-51631905D01*
X157289523Y-51670000D01*
X157251428Y-51708095D01*
X157213332Y-51784286D01*
X157175237Y-51936667D01*
X157175237Y-52127143D01*
X157213332Y-52279524D01*
X157251428Y-52355714D01*
X157289523Y-52393810D01*
X157365713Y-52431905D01*
X157441904Y-52431905D01*
X157518094Y-52393810D01*
X157556190Y-52355714D01*
X157594285Y-52279524D01*
X157632380Y-52127143D01*
X157632380Y-51936667D01*
X157594285Y-51784286D01*
X157556190Y-51708095D01*
X157518094Y-51670000D01*
X157441904Y-51631905D01*
X156565713Y-52012857D02*
X156832380Y-52012857D01*
X156832380Y-52431905D02*
X156832380Y-51631905D01*
X156451427Y-51631905D01*
X156184761Y-52203333D02*
X155803809Y-52203333D01*
X156260952Y-52431905D02*
X155994285Y-51631905D01*
X155727618Y-52431905D01*
D12*
X141605000Y-51435000D02*
X141605000Y-52705000D01*
X117475000Y-51435000D02*
X117475000Y-52705000D01*
X141605000Y-52070000D02*
X132080000Y-52070000D01*
X127000000Y-52070000D02*
X117475000Y-52070000D01*
D10*
X131273333Y-52393810D02*
X131159047Y-52431905D01*
X130968571Y-52431905D01*
X130892381Y-52393810D01*
X130854285Y-52355714D01*
X130816190Y-52279524D01*
X130816190Y-52203333D01*
X130854285Y-52127143D01*
X130892381Y-52089048D01*
X130968571Y-52050952D01*
X131120952Y-52012857D01*
X131197143Y-51974762D01*
X131235238Y-51936667D01*
X131273333Y-51860476D01*
X131273333Y-51784286D01*
X131235238Y-51708095D01*
X131197143Y-51670000D01*
X131120952Y-51631905D01*
X130930476Y-51631905D01*
X130816190Y-51670000D01*
X131044762Y-51517619D02*
X131044762Y-52546190D01*
X130320952Y-51631905D02*
X130244761Y-51631905D01*
X130168571Y-51670000D01*
X130130476Y-51708095D01*
X130092380Y-51784286D01*
X130054285Y-51936667D01*
X130054285Y-52127143D01*
X130092380Y-52279524D01*
X130130476Y-52355714D01*
X130168571Y-52393810D01*
X130244761Y-52431905D01*
X130320952Y-52431905D01*
X130397142Y-52393810D01*
X130435238Y-52355714D01*
X130473333Y-52279524D01*
X130511428Y-52127143D01*
X130511428Y-51936667D01*
X130473333Y-51784286D01*
X130435238Y-51708095D01*
X130397142Y-51670000D01*
X130320952Y-51631905D01*
X129559047Y-51631905D02*
X129482856Y-51631905D01*
X129406666Y-51670000D01*
X129368571Y-51708095D01*
X129330475Y-51784286D01*
X129292380Y-51936667D01*
X129292380Y-52127143D01*
X129330475Y-52279524D01*
X129368571Y-52355714D01*
X129406666Y-52393810D01*
X129482856Y-52431905D01*
X129559047Y-52431905D01*
X129635237Y-52393810D01*
X129673333Y-52355714D01*
X129711428Y-52279524D01*
X129749523Y-52127143D01*
X129749523Y-51936667D01*
X129711428Y-51784286D01*
X129673333Y-51708095D01*
X129635237Y-51670000D01*
X129559047Y-51631905D01*
X128682856Y-52012857D02*
X128949523Y-52012857D01*
X128949523Y-52431905D02*
X128949523Y-51631905D01*
X128568570Y-51631905D01*
X127997142Y-52012857D02*
X127882856Y-52050952D01*
X127844761Y-52089048D01*
X127806666Y-52165238D01*
X127806666Y-52279524D01*
X127844761Y-52355714D01*
X127882856Y-52393810D01*
X127959047Y-52431905D01*
X128263809Y-52431905D01*
X128263809Y-51631905D01*
X127997142Y-51631905D01*
X127920952Y-51670000D01*
X127882856Y-51708095D01*
X127844761Y-51784286D01*
X127844761Y-51860476D01*
X127882856Y-51936667D01*
X127920952Y-51974762D01*
X127997142Y-52012857D01*
X128263809Y-52012857D01*
X188880476Y-83531905D02*
X188880476Y-82731905D01*
X188690000Y-82731905D01*
X188575714Y-82770000D01*
X188499523Y-82846190D01*
X188461428Y-82922381D01*
X188423333Y-83074762D01*
X188423333Y-83189048D01*
X188461428Y-83341429D01*
X188499523Y-83417619D01*
X188575714Y-83493810D01*
X188690000Y-83531905D01*
X188880476Y-83531905D01*
X188080476Y-83531905D02*
X188080476Y-82731905D01*
X187737619Y-83493810D02*
X187623333Y-83531905D01*
X187432857Y-83531905D01*
X187356667Y-83493810D01*
X187318571Y-83455714D01*
X187280476Y-83379524D01*
X187280476Y-83303333D01*
X187318571Y-83227143D01*
X187356667Y-83189048D01*
X187432857Y-83150952D01*
X187585238Y-83112857D01*
X187661429Y-83074762D01*
X187699524Y-83036667D01*
X187737619Y-82960476D01*
X187737619Y-82884286D01*
X187699524Y-82808095D01*
X187661429Y-82770000D01*
X187585238Y-82731905D01*
X187394762Y-82731905D01*
X187280476Y-82770000D01*
X186937619Y-83531905D02*
X186937619Y-82731905D01*
X186632857Y-82731905D01*
X186556666Y-82770000D01*
X186518571Y-82808095D01*
X186480476Y-82884286D01*
X186480476Y-82998571D01*
X186518571Y-83074762D01*
X186556666Y-83112857D01*
X186632857Y-83150952D01*
X186937619Y-83150952D01*
X185756666Y-83531905D02*
X186137619Y-83531905D01*
X186137619Y-82731905D01*
X185528095Y-83303333D02*
X185147143Y-83303333D01*
X185604286Y-83531905D02*
X185337619Y-82731905D01*
X185070952Y-83531905D01*
X184651905Y-83150952D02*
X184651905Y-83531905D01*
X184918572Y-82731905D02*
X184651905Y-83150952D01*
X184385238Y-82731905D01*
X188499523Y-84412857D02*
X188385237Y-84450952D01*
X188347142Y-84489048D01*
X188309047Y-84565238D01*
X188309047Y-84679524D01*
X188347142Y-84755714D01*
X188385237Y-84793810D01*
X188461428Y-84831905D01*
X188766190Y-84831905D01*
X188766190Y-84031905D01*
X188499523Y-84031905D01*
X188423333Y-84070000D01*
X188385237Y-84108095D01*
X188347142Y-84184286D01*
X188347142Y-84260476D01*
X188385237Y-84336667D01*
X188423333Y-84374762D01*
X188499523Y-84412857D01*
X188766190Y-84412857D01*
X187966190Y-84031905D02*
X187966190Y-84679524D01*
X187928095Y-84755714D01*
X187889999Y-84793810D01*
X187813809Y-84831905D01*
X187661428Y-84831905D01*
X187585237Y-84793810D01*
X187547142Y-84755714D01*
X187509047Y-84679524D01*
X187509047Y-84031905D01*
X186861428Y-84412857D02*
X187128095Y-84412857D01*
X187128095Y-84831905D02*
X187128095Y-84031905D01*
X186747142Y-84031905D01*
X186175714Y-84412857D02*
X186442381Y-84412857D01*
X186442381Y-84831905D02*
X186442381Y-84031905D01*
X186061428Y-84031905D01*
X185756667Y-84412857D02*
X185490000Y-84412857D01*
X185375714Y-84831905D02*
X185756667Y-84831905D01*
X185756667Y-84031905D01*
X185375714Y-84031905D01*
X184575714Y-84831905D02*
X184842381Y-84450952D01*
X185032857Y-84831905D02*
X185032857Y-84031905D01*
X184728095Y-84031905D01*
X184651904Y-84070000D01*
X184613809Y-84108095D01*
X184575714Y-84184286D01*
X184575714Y-84298571D01*
X184613809Y-84374762D01*
X184651904Y-84412857D01*
X184728095Y-84450952D01*
X185032857Y-84450952D01*
X126701429Y-79721905D02*
X126701429Y-78921905D01*
X126701429Y-79302857D02*
X126244286Y-79302857D01*
X126244286Y-79721905D02*
X126244286Y-78921905D01*
X125863334Y-79302857D02*
X125596667Y-79302857D01*
X125482381Y-79721905D02*
X125863334Y-79721905D01*
X125863334Y-78921905D01*
X125482381Y-78921905D01*
X125215714Y-78921905D02*
X124682381Y-79721905D01*
X124682381Y-78921905D02*
X125215714Y-79721905D01*
X128320476Y-81021905D02*
X128320476Y-80221905D01*
X127939524Y-81021905D02*
X127939524Y-80221905D01*
X127482381Y-81021905D01*
X127482381Y-80221905D01*
X127215715Y-80221905D02*
X126949048Y-81021905D01*
X126682381Y-80221905D01*
X126415715Y-80602857D02*
X126149048Y-80602857D01*
X126034762Y-81021905D02*
X126415715Y-81021905D01*
X126415715Y-80221905D01*
X126034762Y-80221905D01*
X125234762Y-81021905D02*
X125501429Y-80640952D01*
X125691905Y-81021905D02*
X125691905Y-80221905D01*
X125387143Y-80221905D01*
X125310952Y-80260000D01*
X125272857Y-80298095D01*
X125234762Y-80374286D01*
X125234762Y-80488571D01*
X125272857Y-80564762D01*
X125310952Y-80602857D01*
X125387143Y-80640952D01*
X125691905Y-80640952D01*
X125006191Y-80221905D02*
X124549048Y-80221905D01*
X124777619Y-81021905D02*
X124777619Y-80221905D01*
X124282381Y-80602857D02*
X124015714Y-80602857D01*
X123901428Y-81021905D02*
X124282381Y-81021905D01*
X124282381Y-80221905D01*
X123901428Y-80221905D01*
X123101428Y-81021905D02*
X123368095Y-80640952D01*
X123558571Y-81021905D02*
X123558571Y-80221905D01*
X123253809Y-80221905D01*
X123177618Y-80260000D01*
X123139523Y-80298095D01*
X123101428Y-80374286D01*
X123101428Y-80488571D01*
X123139523Y-80564762D01*
X123177618Y-80602857D01*
X123253809Y-80640952D01*
X123558571Y-80640952D01*
X127120476Y-112091905D02*
X127120476Y-111291905D01*
X126663333Y-112091905D01*
X126663333Y-111291905D01*
X126320476Y-111863333D02*
X125939524Y-111863333D01*
X126396667Y-112091905D02*
X126130000Y-111291905D01*
X125863333Y-112091905D01*
X125596667Y-112091905D02*
X125596667Y-111291905D01*
X125139524Y-112091905D01*
X125139524Y-111291905D01*
X124758572Y-112091905D02*
X124758572Y-111291905D01*
X124568096Y-111291905D01*
X124453810Y-111330000D01*
X124377619Y-111406190D01*
X124339524Y-111482381D01*
X124301429Y-111634762D01*
X124301429Y-111749048D01*
X124339524Y-111901429D01*
X124377619Y-111977619D01*
X124453810Y-112053810D01*
X124568096Y-112091905D01*
X124758572Y-112091905D01*
X126910952Y-112630000D02*
X126987143Y-112591905D01*
X127101428Y-112591905D01*
X127215714Y-112630000D01*
X127291905Y-112706190D01*
X127330000Y-112782381D01*
X127368095Y-112934762D01*
X127368095Y-113049048D01*
X127330000Y-113201429D01*
X127291905Y-113277619D01*
X127215714Y-113353810D01*
X127101428Y-113391905D01*
X127025238Y-113391905D01*
X126910952Y-113353810D01*
X126872857Y-113315714D01*
X126872857Y-113049048D01*
X127025238Y-113049048D01*
X126568095Y-113163333D02*
X126187143Y-113163333D01*
X126644286Y-113391905D02*
X126377619Y-112591905D01*
X126110952Y-113391905D01*
X125958572Y-112591905D02*
X125501429Y-112591905D01*
X125730000Y-113391905D02*
X125730000Y-112591905D01*
X125234762Y-112972857D02*
X124968095Y-112972857D01*
X124853809Y-113391905D02*
X125234762Y-113391905D01*
X125234762Y-112591905D01*
X124853809Y-112591905D01*
X124549047Y-113353810D02*
X124434761Y-113391905D01*
X124244285Y-113391905D01*
X124168095Y-113353810D01*
X124129999Y-113315714D01*
X124091904Y-113239524D01*
X124091904Y-113163333D01*
X124129999Y-113087143D01*
X124168095Y-113049048D01*
X124244285Y-113010952D01*
X124396666Y-112972857D01*
X124472857Y-112934762D01*
X124510952Y-112896667D01*
X124549047Y-112820476D01*
X124549047Y-112744286D01*
X124510952Y-112668095D01*
X124472857Y-112630000D01*
X124396666Y-112591905D01*
X124206190Y-112591905D01*
X124091904Y-112630000D01*
X126663332Y-114996667D02*
X126701428Y-114958571D01*
X126777618Y-114844286D01*
X126815713Y-114768095D01*
X126853809Y-114653810D01*
X126891904Y-114463333D01*
X126891904Y-114310952D01*
X126853809Y-114120476D01*
X126815713Y-114006190D01*
X126777618Y-113930000D01*
X126701428Y-113815714D01*
X126663332Y-113777619D01*
X126206190Y-113891905D02*
X126053809Y-113891905D01*
X125977618Y-113930000D01*
X125901428Y-114006190D01*
X125863333Y-114158571D01*
X125863333Y-114425238D01*
X125901428Y-114577619D01*
X125977618Y-114653810D01*
X126053809Y-114691905D01*
X126206190Y-114691905D01*
X126282380Y-114653810D01*
X126358571Y-114577619D01*
X126396666Y-114425238D01*
X126396666Y-114158571D01*
X126358571Y-114006190D01*
X126282380Y-113930000D01*
X126206190Y-113891905D01*
X125063333Y-114615714D02*
X125101428Y-114653810D01*
X125215714Y-114691905D01*
X125291904Y-114691905D01*
X125406190Y-114653810D01*
X125482381Y-114577619D01*
X125520476Y-114501429D01*
X125558571Y-114349048D01*
X125558571Y-114234762D01*
X125520476Y-114082381D01*
X125482381Y-114006190D01*
X125406190Y-113930000D01*
X125291904Y-113891905D01*
X125215714Y-113891905D01*
X125101428Y-113930000D01*
X125063333Y-113968095D01*
X124796666Y-114996667D02*
X124758571Y-114958571D01*
X124682381Y-114844286D01*
X124644285Y-114768095D01*
X124606190Y-114653810D01*
X124568095Y-114463333D01*
X124568095Y-114310952D01*
X124606190Y-114120476D01*
X124644285Y-114006190D01*
X124682381Y-113930000D01*
X124758571Y-113815714D01*
X124796666Y-113777619D01*
X142836667Y-80991905D02*
X142836667Y-80191905D01*
X142646191Y-80191905D01*
X142531905Y-80230000D01*
X142455714Y-80306190D01*
X142417619Y-80382381D01*
X142379524Y-80534762D01*
X142379524Y-80649048D01*
X142417619Y-80801429D01*
X142455714Y-80877619D01*
X142531905Y-80953810D01*
X142646191Y-80991905D01*
X142836667Y-80991905D01*
X142036667Y-80572857D02*
X141770000Y-80572857D01*
X141655714Y-80991905D02*
X142036667Y-80991905D01*
X142036667Y-80191905D01*
X141655714Y-80191905D01*
X141427143Y-80191905D02*
X141160476Y-80991905D01*
X140893809Y-80191905D01*
X140627143Y-80991905D02*
X140627143Y-80191905D01*
X139789048Y-80915714D02*
X139827143Y-80953810D01*
X139941429Y-80991905D01*
X140017619Y-80991905D01*
X140131905Y-80953810D01*
X140208096Y-80877619D01*
X140246191Y-80801429D01*
X140284286Y-80649048D01*
X140284286Y-80534762D01*
X140246191Y-80382381D01*
X140208096Y-80306190D01*
X140131905Y-80230000D01*
X140017619Y-80191905D01*
X139941429Y-80191905D01*
X139827143Y-80230000D01*
X139789048Y-80268095D01*
X139446191Y-80572857D02*
X139179524Y-80572857D01*
X139065238Y-80991905D02*
X139446191Y-80991905D01*
X139446191Y-80191905D01*
X139065238Y-80191905D01*
X142950953Y-82253810D02*
X142836667Y-82291905D01*
X142646191Y-82291905D01*
X142570001Y-82253810D01*
X142531905Y-82215714D01*
X142493810Y-82139524D01*
X142493810Y-82063333D01*
X142531905Y-81987143D01*
X142570001Y-81949048D01*
X142646191Y-81910952D01*
X142798572Y-81872857D01*
X142874763Y-81834762D01*
X142912858Y-81796667D01*
X142950953Y-81720476D01*
X142950953Y-81644286D01*
X142912858Y-81568095D01*
X142874763Y-81530000D01*
X142798572Y-81491905D01*
X142608096Y-81491905D01*
X142493810Y-81530000D01*
X142150953Y-81872857D02*
X141884286Y-81872857D01*
X141770000Y-82291905D02*
X142150953Y-82291905D01*
X142150953Y-81491905D01*
X141770000Y-81491905D01*
X141046190Y-82291905D02*
X141427143Y-82291905D01*
X141427143Y-81491905D01*
X140779524Y-81872857D02*
X140512857Y-81872857D01*
X140398571Y-82291905D02*
X140779524Y-82291905D01*
X140779524Y-81491905D01*
X140398571Y-81491905D01*
X139598571Y-82215714D02*
X139636666Y-82253810D01*
X139750952Y-82291905D01*
X139827142Y-82291905D01*
X139941428Y-82253810D01*
X140017619Y-82177619D01*
X140055714Y-82101429D01*
X140093809Y-81949048D01*
X140093809Y-81834762D01*
X140055714Y-81682381D01*
X140017619Y-81606190D01*
X139941428Y-81530000D01*
X139827142Y-81491905D01*
X139750952Y-81491905D01*
X139636666Y-81530000D01*
X139598571Y-81568095D01*
X139370000Y-81491905D02*
X138912857Y-81491905D01*
X139141428Y-82291905D02*
X139141428Y-81491905D01*
X158076667Y-80991905D02*
X158076667Y-80191905D01*
X157886191Y-80191905D01*
X157771905Y-80230000D01*
X157695714Y-80306190D01*
X157657619Y-80382381D01*
X157619524Y-80534762D01*
X157619524Y-80649048D01*
X157657619Y-80801429D01*
X157695714Y-80877619D01*
X157771905Y-80953810D01*
X157886191Y-80991905D01*
X158076667Y-80991905D01*
X157276667Y-80572857D02*
X157010000Y-80572857D01*
X156895714Y-80991905D02*
X157276667Y-80991905D01*
X157276667Y-80191905D01*
X156895714Y-80191905D01*
X156667143Y-80191905D02*
X156400476Y-80991905D01*
X156133809Y-80191905D01*
X155867143Y-80991905D02*
X155867143Y-80191905D01*
X155029048Y-80915714D02*
X155067143Y-80953810D01*
X155181429Y-80991905D01*
X155257619Y-80991905D01*
X155371905Y-80953810D01*
X155448096Y-80877619D01*
X155486191Y-80801429D01*
X155524286Y-80649048D01*
X155524286Y-80534762D01*
X155486191Y-80382381D01*
X155448096Y-80306190D01*
X155371905Y-80230000D01*
X155257619Y-80191905D01*
X155181429Y-80191905D01*
X155067143Y-80230000D01*
X155029048Y-80268095D01*
X154686191Y-80572857D02*
X154419524Y-80572857D01*
X154305238Y-80991905D02*
X154686191Y-80991905D01*
X154686191Y-80191905D01*
X154305238Y-80191905D01*
X158190953Y-82253810D02*
X158076667Y-82291905D01*
X157886191Y-82291905D01*
X157810001Y-82253810D01*
X157771905Y-82215714D01*
X157733810Y-82139524D01*
X157733810Y-82063333D01*
X157771905Y-81987143D01*
X157810001Y-81949048D01*
X157886191Y-81910952D01*
X158038572Y-81872857D01*
X158114763Y-81834762D01*
X158152858Y-81796667D01*
X158190953Y-81720476D01*
X158190953Y-81644286D01*
X158152858Y-81568095D01*
X158114763Y-81530000D01*
X158038572Y-81491905D01*
X157848096Y-81491905D01*
X157733810Y-81530000D01*
X157390953Y-81872857D02*
X157124286Y-81872857D01*
X157010000Y-82291905D02*
X157390953Y-82291905D01*
X157390953Y-81491905D01*
X157010000Y-81491905D01*
X156286190Y-82291905D02*
X156667143Y-82291905D01*
X156667143Y-81491905D01*
X156019524Y-81872857D02*
X155752857Y-81872857D01*
X155638571Y-82291905D02*
X156019524Y-82291905D01*
X156019524Y-81491905D01*
X155638571Y-81491905D01*
X154838571Y-82215714D02*
X154876666Y-82253810D01*
X154990952Y-82291905D01*
X155067142Y-82291905D01*
X155181428Y-82253810D01*
X155257619Y-82177619D01*
X155295714Y-82101429D01*
X155333809Y-81949048D01*
X155333809Y-81834762D01*
X155295714Y-81682381D01*
X155257619Y-81606190D01*
X155181428Y-81530000D01*
X155067142Y-81491905D01*
X154990952Y-81491905D01*
X154876666Y-81530000D01*
X154838571Y-81568095D01*
X154610000Y-81491905D02*
X154152857Y-81491905D01*
X154381428Y-82291905D02*
X154381428Y-81491905D01*
X172840476Y-79721905D02*
X172840476Y-78921905D01*
X172383333Y-79721905D01*
X172383333Y-78921905D01*
X172040476Y-79493333D02*
X171659524Y-79493333D01*
X172116667Y-79721905D02*
X171850000Y-78921905D01*
X171583333Y-79721905D01*
X171316667Y-79721905D02*
X171316667Y-78921905D01*
X170859524Y-79721905D01*
X170859524Y-78921905D01*
X170478572Y-79721905D02*
X170478572Y-78921905D01*
X170288096Y-78921905D01*
X170173810Y-78960000D01*
X170097619Y-79036190D01*
X170059524Y-79112381D01*
X170021429Y-79264762D01*
X170021429Y-79379048D01*
X170059524Y-79531429D01*
X170097619Y-79607619D01*
X170173810Y-79683810D01*
X170288096Y-79721905D01*
X170478572Y-79721905D01*
X172630952Y-80260000D02*
X172707143Y-80221905D01*
X172821428Y-80221905D01*
X172935714Y-80260000D01*
X173011905Y-80336190D01*
X173050000Y-80412381D01*
X173088095Y-80564762D01*
X173088095Y-80679048D01*
X173050000Y-80831429D01*
X173011905Y-80907619D01*
X172935714Y-80983810D01*
X172821428Y-81021905D01*
X172745238Y-81021905D01*
X172630952Y-80983810D01*
X172592857Y-80945714D01*
X172592857Y-80679048D01*
X172745238Y-80679048D01*
X172288095Y-80793333D02*
X171907143Y-80793333D01*
X172364286Y-81021905D02*
X172097619Y-80221905D01*
X171830952Y-81021905D01*
X171678572Y-80221905D02*
X171221429Y-80221905D01*
X171450000Y-81021905D02*
X171450000Y-80221905D01*
X170954762Y-80602857D02*
X170688095Y-80602857D01*
X170573809Y-81021905D02*
X170954762Y-81021905D01*
X170954762Y-80221905D01*
X170573809Y-80221905D01*
X170269047Y-80983810D02*
X170154761Y-81021905D01*
X169964285Y-81021905D01*
X169888095Y-80983810D01*
X169849999Y-80945714D01*
X169811904Y-80869524D01*
X169811904Y-80793333D01*
X169849999Y-80717143D01*
X169888095Y-80679048D01*
X169964285Y-80640952D01*
X170116666Y-80602857D01*
X170192857Y-80564762D01*
X170230952Y-80526667D01*
X170269047Y-80450476D01*
X170269047Y-80374286D01*
X170230952Y-80298095D01*
X170192857Y-80260000D01*
X170116666Y-80221905D01*
X169926190Y-80221905D01*
X169811904Y-80260000D01*
D12*
X198755000Y-56515000D02*
X116205000Y-56515000D01*
X198755000Y-37465000D02*
X198755000Y-56515000D01*
X116205000Y-37465000D02*
X198755000Y-37465000D01*
X116205000Y-56515000D02*
X116205000Y-37465000D01*
X129540000Y-89535000D02*
X129540000Y-88265000D01*
X121920000Y-89535000D02*
X129540000Y-89535000D01*
X121920000Y-88265000D02*
X121920000Y-89535000D01*
X144780000Y-92075000D02*
X144780000Y-90805000D01*
X137160000Y-92075000D02*
X144780000Y-92075000D01*
X137160000Y-90805000D02*
X137160000Y-92075000D01*
X160020000Y-92075000D02*
X160020000Y-90805000D01*
X152400000Y-92075000D02*
X160020000Y-92075000D01*
X152400000Y-90805000D02*
X152400000Y-92075000D01*
X175260000Y-89535000D02*
X175260000Y-88265000D01*
X167640000Y-89535000D02*
X175260000Y-89535000D01*
X167640000Y-88265000D02*
X167640000Y-89535000D01*
X190500000Y-97155000D02*
X190500000Y-95885000D01*
X182880000Y-97155000D02*
X190500000Y-97155000D01*
X182880000Y-95885000D02*
X182880000Y-97155000D01*
X190500000Y-70485000D02*
X190500000Y-71755000D01*
X182880000Y-70485000D02*
X190500000Y-70485000D01*
X182880000Y-71755000D02*
X182880000Y-70485000D01*
X175260000Y-70485000D02*
X175260000Y-71755000D01*
X167640000Y-70485000D02*
X175260000Y-70485000D01*
X167640000Y-71755000D02*
X167640000Y-70485000D01*
X160020000Y-70485000D02*
X160020000Y-71755000D01*
X152400000Y-70485000D02*
X160020000Y-70485000D01*
X152400000Y-71755000D02*
X152400000Y-70485000D01*
X144780000Y-70485000D02*
X144780000Y-71755000D01*
X137160000Y-70485000D02*
X144780000Y-70485000D01*
X137160000Y-71755000D02*
X137160000Y-70485000D01*
X129540000Y-70485000D02*
X129540000Y-71755000D01*
X121920000Y-70485000D02*
X129540000Y-70485000D01*
X121920000Y-71755000D02*
X121920000Y-70485000D01*
X129540000Y-122555000D02*
X129540000Y-121285000D01*
X121920000Y-122555000D02*
X129540000Y-122555000D01*
X121920000Y-121285000D02*
X121920000Y-122555000D01*
X129540000Y-103505000D02*
X129540000Y-104775000D01*
X121920000Y-103505000D02*
X129540000Y-103505000D01*
X121920000Y-104775000D02*
X121920000Y-103505000D01*
D11*
X142565000Y-61682381D02*
X142755477Y-61682381D01*
X142850715Y-61730000D01*
X142898334Y-61777619D01*
X142993572Y-61920476D01*
X143041191Y-62110952D01*
X143041191Y-62491905D01*
X142993572Y-62587143D01*
X142945953Y-62634762D01*
X142850715Y-62682381D01*
X142660238Y-62682381D01*
X142565000Y-62634762D01*
X142517381Y-62587143D01*
X142469762Y-62491905D01*
X142469762Y-62253810D01*
X142517381Y-62158571D01*
X142565000Y-62110952D01*
X142660238Y-62063333D01*
X142850715Y-62063333D01*
X142945953Y-62110952D01*
X142993572Y-62158571D01*
X143041191Y-62253810D01*
X142136429Y-62682381D02*
X141612619Y-62015714D01*
X142136429Y-62015714D02*
X141612619Y-62682381D01*
X140517381Y-61777619D02*
X140469762Y-61730000D01*
X140374524Y-61682381D01*
X140136428Y-61682381D01*
X140041190Y-61730000D01*
X139993571Y-61777619D01*
X139945952Y-61872857D01*
X139945952Y-61968095D01*
X139993571Y-62110952D01*
X140565000Y-62682381D01*
X139945952Y-62682381D01*
X139517381Y-62682381D02*
X139517381Y-61682381D01*
X138945952Y-62682381D01*
X138945952Y-61682381D01*
X138565000Y-61682381D02*
X137945952Y-61682381D01*
X138279286Y-62063333D01*
X138136428Y-62063333D01*
X138041190Y-62110952D01*
X137993571Y-62158571D01*
X137945952Y-62253810D01*
X137945952Y-62491905D01*
X137993571Y-62587143D01*
X138041190Y-62634762D01*
X138136428Y-62682381D01*
X138422143Y-62682381D01*
X138517381Y-62634762D01*
X138565000Y-62587143D01*
X137469762Y-62682381D02*
X137279286Y-62682381D01*
X137184047Y-62634762D01*
X137136428Y-62587143D01*
X137041190Y-62444286D01*
X136993571Y-62253810D01*
X136993571Y-61872857D01*
X137041190Y-61777619D01*
X137088809Y-61730000D01*
X137184047Y-61682381D01*
X137374524Y-61682381D01*
X137469762Y-61730000D01*
X137517381Y-61777619D01*
X137565000Y-61872857D01*
X137565000Y-62110952D01*
X137517381Y-62206190D01*
X137469762Y-62253810D01*
X137374524Y-62301429D01*
X137184047Y-62301429D01*
X137088809Y-62253810D01*
X137041190Y-62206190D01*
X136993571Y-62110952D01*
X136374524Y-61682381D02*
X136279285Y-61682381D01*
X136184047Y-61730000D01*
X136136428Y-61777619D01*
X136088809Y-61872857D01*
X136041190Y-62063333D01*
X136041190Y-62301429D01*
X136088809Y-62491905D01*
X136136428Y-62587143D01*
X136184047Y-62634762D01*
X136279285Y-62682381D01*
X136374524Y-62682381D01*
X136469762Y-62634762D01*
X136517381Y-62587143D01*
X136565000Y-62491905D01*
X136612619Y-62301429D01*
X136612619Y-62063333D01*
X136565000Y-61872857D01*
X136517381Y-61777619D01*
X136469762Y-61730000D01*
X136374524Y-61682381D01*
X135184047Y-62015714D02*
X135184047Y-62682381D01*
X135422143Y-61634762D02*
X135660238Y-62349048D01*
X135041190Y-62349048D01*
D13*
X206545000Y-59750000D02*
X206545000Y-44390000D01*
X206545000Y-44390000D02*
X209205000Y-44390000D01*
X209205000Y-44390000D02*
X209205000Y-59750000D01*
X209205000Y-59750000D02*
X206545000Y-59750000D01*
X209205000Y-58800000D02*
X215205000Y-58800000D01*
X215205000Y-58800000D02*
X215205000Y-58040000D01*
X215205000Y-58040000D02*
X209205000Y-58040000D01*
X209205000Y-58740000D02*
X215205000Y-58740000D01*
X209205000Y-58620000D02*
X215205000Y-58620000D01*
X209205000Y-58500000D02*
X215205000Y-58500000D01*
X209205000Y-58380000D02*
X215205000Y-58380000D01*
X209205000Y-58260000D02*
X215205000Y-58260000D01*
X209205000Y-58140000D02*
X215205000Y-58140000D01*
X206215000Y-58800000D02*
X206545000Y-58800000D01*
X206215000Y-58040000D02*
X206545000Y-58040000D01*
X206545000Y-57150000D02*
X209205000Y-57150000D01*
X209205000Y-56260000D02*
X215205000Y-56260000D01*
X215205000Y-56260000D02*
X215205000Y-55500000D01*
X215205000Y-55500000D02*
X209205000Y-55500000D01*
X206147929Y-56260000D02*
X206545000Y-56260000D01*
X206147929Y-55500000D02*
X206545000Y-55500000D01*
X206545000Y-54610000D02*
X209205000Y-54610000D01*
X209205000Y-53720000D02*
X215205000Y-53720000D01*
X215205000Y-53720000D02*
X215205000Y-52960000D01*
X215205000Y-52960000D02*
X209205000Y-52960000D01*
X206147929Y-53720000D02*
X206545000Y-53720000D01*
X206147929Y-52960000D02*
X206545000Y-52960000D01*
X206545000Y-52070000D02*
X209205000Y-52070000D01*
X209205000Y-51180000D02*
X215205000Y-51180000D01*
X215205000Y-51180000D02*
X215205000Y-50420000D01*
X215205000Y-50420000D02*
X209205000Y-50420000D01*
X206147929Y-51180000D02*
X206545000Y-51180000D01*
X206147929Y-50420000D02*
X206545000Y-50420000D01*
X206545000Y-49530000D02*
X209205000Y-49530000D01*
X209205000Y-48640000D02*
X215205000Y-48640000D01*
X215205000Y-48640000D02*
X215205000Y-47880000D01*
X215205000Y-47880000D02*
X209205000Y-47880000D01*
X206147929Y-48640000D02*
X206545000Y-48640000D01*
X206147929Y-47880000D02*
X206545000Y-47880000D01*
X206545000Y-46990000D02*
X209205000Y-46990000D01*
X209205000Y-46100000D02*
X215205000Y-46100000D01*
X215205000Y-46100000D02*
X215205000Y-45340000D01*
X215205000Y-45340000D02*
X209205000Y-45340000D01*
X206147929Y-46100000D02*
X206545000Y-46100000D01*
X206147929Y-45340000D02*
X206545000Y-45340000D01*
X203835000Y-58420000D02*
X203835000Y-59690000D01*
X203835000Y-59690000D02*
X205105000Y-59690000D01*
X206545000Y-66100000D02*
X206545000Y-60900000D01*
X206545000Y-60900000D02*
X209205000Y-60900000D01*
X209205000Y-60900000D02*
X209205000Y-66100000D01*
X209205000Y-66100000D02*
X206545000Y-66100000D01*
X209205000Y-65150000D02*
X215205000Y-65150000D01*
X215205000Y-65150000D02*
X215205000Y-64390000D01*
X215205000Y-64390000D02*
X209205000Y-64390000D01*
X209205000Y-65090000D02*
X215205000Y-65090000D01*
X209205000Y-64970000D02*
X215205000Y-64970000D01*
X209205000Y-64850000D02*
X215205000Y-64850000D01*
X209205000Y-64730000D02*
X215205000Y-64730000D01*
X209205000Y-64610000D02*
X215205000Y-64610000D01*
X209205000Y-64490000D02*
X215205000Y-64490000D01*
X206215000Y-65150000D02*
X206545000Y-65150000D01*
X206215000Y-64390000D02*
X206545000Y-64390000D01*
X206545000Y-63500000D02*
X209205000Y-63500000D01*
X209205000Y-62610000D02*
X215205000Y-62610000D01*
X215205000Y-62610000D02*
X215205000Y-61850000D01*
X215205000Y-61850000D02*
X209205000Y-61850000D01*
X206147929Y-62610000D02*
X206545000Y-62610000D01*
X206147929Y-61850000D02*
X206545000Y-61850000D01*
X203835000Y-64770000D02*
X203835000Y-66040000D01*
X203835000Y-66040000D02*
X205105000Y-66040000D01*
D11*
X209823333Y-60142381D02*
X209823333Y-60856667D01*
X209870953Y-60999524D01*
X209966191Y-61094762D01*
X210109048Y-61142381D01*
X210204286Y-61142381D01*
X209442381Y-60142381D02*
X208823333Y-60142381D01*
X209156667Y-60523333D01*
X209013809Y-60523333D01*
X208918571Y-60570952D01*
X208870952Y-60618571D01*
X208823333Y-60713810D01*
X208823333Y-60951905D01*
X208870952Y-61047143D01*
X208918571Y-61094762D01*
X209013809Y-61142381D01*
X209299524Y-61142381D01*
X209394762Y-61094762D01*
X209442381Y-61047143D01*
X210323333Y-66492381D02*
X210323333Y-67206667D01*
X210370953Y-67349524D01*
X210466191Y-67444762D01*
X210609048Y-67492381D01*
X210704286Y-67492381D01*
X209847143Y-67492381D02*
X209847143Y-66492381D01*
X209466190Y-66492381D01*
X209370952Y-66540000D01*
X209323333Y-66587619D01*
X209275714Y-66682857D01*
X209275714Y-66825714D01*
X209323333Y-66920952D01*
X209370952Y-66968571D01*
X209466190Y-67016190D01*
X209847143Y-67016190D01*
X208894762Y-66587619D02*
X208847143Y-66540000D01*
X208751905Y-66492381D01*
X208513809Y-66492381D01*
X208418571Y-66540000D01*
X208370952Y-66587619D01*
X208323333Y-66682857D01*
X208323333Y-66778095D01*
X208370952Y-66920952D01*
X208942381Y-67492381D01*
X208323333Y-67492381D01*
D10*
X156470238Y-111321905D02*
X156851191Y-111321905D01*
X156889286Y-111702857D01*
X156851191Y-111664762D01*
X156775000Y-111626667D01*
X156584524Y-111626667D01*
X156508334Y-111664762D01*
X156470238Y-111702857D01*
X156432143Y-111779048D01*
X156432143Y-111969524D01*
X156470238Y-112045714D01*
X156508334Y-112083810D01*
X156584524Y-112121905D01*
X156775000Y-112121905D01*
X156851191Y-112083810D01*
X156889286Y-112045714D01*
X155936905Y-111321905D02*
X155860714Y-111321905D01*
X155784524Y-111360000D01*
X155746429Y-111398095D01*
X155708333Y-111474286D01*
X155670238Y-111626667D01*
X155670238Y-111817143D01*
X155708333Y-111969524D01*
X155746429Y-112045714D01*
X155784524Y-112083810D01*
X155860714Y-112121905D01*
X155936905Y-112121905D01*
X156013095Y-112083810D01*
X156051191Y-112045714D01*
X156089286Y-111969524D01*
X156127381Y-111817143D01*
X156127381Y-111626667D01*
X156089286Y-111474286D01*
X156051191Y-111398095D01*
X156013095Y-111360000D01*
X155936905Y-111321905D01*
X155327381Y-111588571D02*
X155327381Y-112121905D01*
X155327381Y-111664762D02*
X155289286Y-111626667D01*
X155213095Y-111588571D01*
X155098809Y-111588571D01*
X155022619Y-111626667D01*
X154984524Y-111702857D01*
X154984524Y-112121905D01*
X154336904Y-111702857D02*
X154603571Y-111702857D01*
X154603571Y-112121905D02*
X154603571Y-111321905D01*
X154222618Y-111321905D01*
X156508334Y-115131905D02*
X156660715Y-115131905D01*
X156736905Y-115170000D01*
X156775000Y-115208095D01*
X156851191Y-115322381D01*
X156889286Y-115474762D01*
X156889286Y-115779524D01*
X156851191Y-115855714D01*
X156813096Y-115893810D01*
X156736905Y-115931905D01*
X156584524Y-115931905D01*
X156508334Y-115893810D01*
X156470238Y-115855714D01*
X156432143Y-115779524D01*
X156432143Y-115589048D01*
X156470238Y-115512857D01*
X156508334Y-115474762D01*
X156584524Y-115436667D01*
X156736905Y-115436667D01*
X156813096Y-115474762D01*
X156851191Y-115512857D01*
X156889286Y-115589048D01*
X155975000Y-115474762D02*
X156051191Y-115436667D01*
X156089286Y-115398571D01*
X156127381Y-115322381D01*
X156127381Y-115284286D01*
X156089286Y-115208095D01*
X156051191Y-115170000D01*
X155975000Y-115131905D01*
X155822619Y-115131905D01*
X155746429Y-115170000D01*
X155708333Y-115208095D01*
X155670238Y-115284286D01*
X155670238Y-115322381D01*
X155708333Y-115398571D01*
X155746429Y-115436667D01*
X155822619Y-115474762D01*
X155975000Y-115474762D01*
X156051191Y-115512857D01*
X156089286Y-115550952D01*
X156127381Y-115627143D01*
X156127381Y-115779524D01*
X156089286Y-115855714D01*
X156051191Y-115893810D01*
X155975000Y-115931905D01*
X155822619Y-115931905D01*
X155746429Y-115893810D01*
X155708333Y-115855714D01*
X155670238Y-115779524D01*
X155670238Y-115627143D01*
X155708333Y-115550952D01*
X155746429Y-115512857D01*
X155822619Y-115474762D01*
X155327381Y-115398571D02*
X155327381Y-115931905D01*
X155327381Y-115474762D02*
X155289286Y-115436667D01*
X155213095Y-115398571D01*
X155098809Y-115398571D01*
X155022619Y-115436667D01*
X154984524Y-115512857D01*
X154984524Y-115931905D01*
X154336904Y-115512857D02*
X154603571Y-115512857D01*
X154603571Y-115931905D02*
X154603571Y-115131905D01*
X154222618Y-115131905D01*
X156470238Y-127196905D02*
X156851191Y-127196905D01*
X156889286Y-127577857D01*
X156851191Y-127539762D01*
X156775000Y-127501667D01*
X156584524Y-127501667D01*
X156508334Y-127539762D01*
X156470238Y-127577857D01*
X156432143Y-127654048D01*
X156432143Y-127844524D01*
X156470238Y-127920714D01*
X156508334Y-127958810D01*
X156584524Y-127996905D01*
X156775000Y-127996905D01*
X156851191Y-127958810D01*
X156889286Y-127920714D01*
X155936905Y-127196905D02*
X155860714Y-127196905D01*
X155784524Y-127235000D01*
X155746429Y-127273095D01*
X155708333Y-127349286D01*
X155670238Y-127501667D01*
X155670238Y-127692143D01*
X155708333Y-127844524D01*
X155746429Y-127920714D01*
X155784524Y-127958810D01*
X155860714Y-127996905D01*
X155936905Y-127996905D01*
X156013095Y-127958810D01*
X156051191Y-127920714D01*
X156089286Y-127844524D01*
X156127381Y-127692143D01*
X156127381Y-127501667D01*
X156089286Y-127349286D01*
X156051191Y-127273095D01*
X156013095Y-127235000D01*
X155936905Y-127196905D01*
X155327381Y-127463571D02*
X155327381Y-127996905D01*
X155327381Y-127539762D02*
X155289286Y-127501667D01*
X155213095Y-127463571D01*
X155098809Y-127463571D01*
X155022619Y-127501667D01*
X154984524Y-127577857D01*
X154984524Y-127996905D01*
X154336904Y-127577857D02*
X154603571Y-127577857D01*
X154603571Y-127996905D02*
X154603571Y-127196905D01*
X154222618Y-127196905D01*
X156851190Y-107511905D02*
X157232143Y-107511905D01*
X157270238Y-107892857D01*
X157232143Y-107854762D01*
X157155952Y-107816667D01*
X156965476Y-107816667D01*
X156889286Y-107854762D01*
X156851190Y-107892857D01*
X156813095Y-107969048D01*
X156813095Y-108159524D01*
X156851190Y-108235714D01*
X156889286Y-108273810D01*
X156965476Y-108311905D01*
X157155952Y-108311905D01*
X157232143Y-108273810D01*
X157270238Y-108235714D01*
X156317857Y-107511905D02*
X156241666Y-107511905D01*
X156165476Y-107550000D01*
X156127381Y-107588095D01*
X156089285Y-107664286D01*
X156051190Y-107816667D01*
X156051190Y-108007143D01*
X156089285Y-108159524D01*
X156127381Y-108235714D01*
X156165476Y-108273810D01*
X156241666Y-108311905D01*
X156317857Y-108311905D01*
X156394047Y-108273810D01*
X156432143Y-108235714D01*
X156470238Y-108159524D01*
X156508333Y-108007143D01*
X156508333Y-107816667D01*
X156470238Y-107664286D01*
X156432143Y-107588095D01*
X156394047Y-107550000D01*
X156317857Y-107511905D01*
X155555952Y-107511905D02*
X155479761Y-107511905D01*
X155403571Y-107550000D01*
X155365476Y-107588095D01*
X155327380Y-107664286D01*
X155289285Y-107816667D01*
X155289285Y-108007143D01*
X155327380Y-108159524D01*
X155365476Y-108235714D01*
X155403571Y-108273810D01*
X155479761Y-108311905D01*
X155555952Y-108311905D01*
X155632142Y-108273810D01*
X155670238Y-108235714D01*
X155708333Y-108159524D01*
X155746428Y-108007143D01*
X155746428Y-107816667D01*
X155708333Y-107664286D01*
X155670238Y-107588095D01*
X155632142Y-107550000D01*
X155555952Y-107511905D01*
X154946428Y-107778571D02*
X154946428Y-108311905D01*
X154946428Y-107854762D02*
X154908333Y-107816667D01*
X154832142Y-107778571D01*
X154717856Y-107778571D01*
X154641666Y-107816667D01*
X154603571Y-107892857D01*
X154603571Y-108311905D01*
X153955951Y-107892857D02*
X154222618Y-107892857D01*
X154222618Y-108311905D02*
X154222618Y-107511905D01*
X153841665Y-107511905D01*
X191103095Y-123551905D02*
X191560238Y-123551905D01*
X191331667Y-123551905D02*
X191331667Y-122751905D01*
X191407857Y-122866190D01*
X191484048Y-122942381D01*
X191560238Y-122980476D01*
X190607857Y-122751905D02*
X190531666Y-122751905D01*
X190455476Y-122790000D01*
X190417381Y-122828095D01*
X190379285Y-122904286D01*
X190341190Y-123056667D01*
X190341190Y-123247143D01*
X190379285Y-123399524D01*
X190417381Y-123475714D01*
X190455476Y-123513810D01*
X190531666Y-123551905D01*
X190607857Y-123551905D01*
X190684047Y-123513810D01*
X190722143Y-123475714D01*
X190760238Y-123399524D01*
X190798333Y-123247143D01*
X190798333Y-123056667D01*
X190760238Y-122904286D01*
X190722143Y-122828095D01*
X190684047Y-122790000D01*
X190607857Y-122751905D01*
X189845952Y-122751905D02*
X189769761Y-122751905D01*
X189693571Y-122790000D01*
X189655476Y-122828095D01*
X189617380Y-122904286D01*
X189579285Y-123056667D01*
X189579285Y-123247143D01*
X189617380Y-123399524D01*
X189655476Y-123475714D01*
X189693571Y-123513810D01*
X189769761Y-123551905D01*
X189845952Y-123551905D01*
X189922142Y-123513810D01*
X189960238Y-123475714D01*
X189998333Y-123399524D01*
X190036428Y-123247143D01*
X190036428Y-123056667D01*
X189998333Y-122904286D01*
X189960238Y-122828095D01*
X189922142Y-122790000D01*
X189845952Y-122751905D01*
X189236428Y-123018571D02*
X189236428Y-123551905D01*
X189236428Y-123094762D02*
X189198333Y-123056667D01*
X189122142Y-123018571D01*
X189007856Y-123018571D01*
X188931666Y-123056667D01*
X188893571Y-123132857D01*
X188893571Y-123551905D01*
X188245951Y-123132857D02*
X188512618Y-123132857D01*
X188512618Y-123551905D02*
X188512618Y-122751905D01*
X188131665Y-122751905D01*
X168281191Y-131806905D02*
X168738334Y-131806905D01*
X168509763Y-131806905D02*
X168509763Y-131006905D01*
X168585953Y-131121190D01*
X168662144Y-131197381D01*
X168738334Y-131235476D01*
X167938334Y-131273571D02*
X167938334Y-131806905D01*
X167938334Y-131349762D02*
X167900239Y-131311667D01*
X167824048Y-131273571D01*
X167709762Y-131273571D01*
X167633572Y-131311667D01*
X167595477Y-131387857D01*
X167595477Y-131806905D01*
X167176429Y-131806905D02*
X167024048Y-131806905D01*
X166947857Y-131768810D01*
X166909762Y-131730714D01*
X166833571Y-131616429D01*
X166795476Y-131464048D01*
X166795476Y-131159286D01*
X166833571Y-131083095D01*
X166871667Y-131045000D01*
X166947857Y-131006905D01*
X167100238Y-131006905D01*
X167176429Y-131045000D01*
X167214524Y-131083095D01*
X167252619Y-131159286D01*
X167252619Y-131349762D01*
X167214524Y-131425952D01*
X167176429Y-131464048D01*
X167100238Y-131502143D01*
X166947857Y-131502143D01*
X166871667Y-131464048D01*
X166833571Y-131425952D01*
X166795476Y-131349762D01*
X166033571Y-131806905D02*
X166490714Y-131806905D01*
X166262143Y-131806905D02*
X166262143Y-131006905D01*
X166338333Y-131121190D01*
X166414524Y-131197381D01*
X166490714Y-131235476D01*
X165347857Y-131273571D02*
X165347857Y-131806905D01*
X165538333Y-130968810D02*
X165728809Y-131540238D01*
X165233571Y-131540238D01*
X179711191Y-131806905D02*
X180168334Y-131806905D01*
X179939763Y-131806905D02*
X179939763Y-131006905D01*
X180015953Y-131121190D01*
X180092144Y-131197381D01*
X180168334Y-131235476D01*
X179368334Y-131273571D02*
X179368334Y-131806905D01*
X179368334Y-131349762D02*
X179330239Y-131311667D01*
X179254048Y-131273571D01*
X179139762Y-131273571D01*
X179063572Y-131311667D01*
X179025477Y-131387857D01*
X179025477Y-131806905D01*
X178606429Y-131806905D02*
X178454048Y-131806905D01*
X178377857Y-131768810D01*
X178339762Y-131730714D01*
X178263571Y-131616429D01*
X178225476Y-131464048D01*
X178225476Y-131159286D01*
X178263571Y-131083095D01*
X178301667Y-131045000D01*
X178377857Y-131006905D01*
X178530238Y-131006905D01*
X178606429Y-131045000D01*
X178644524Y-131083095D01*
X178682619Y-131159286D01*
X178682619Y-131349762D01*
X178644524Y-131425952D01*
X178606429Y-131464048D01*
X178530238Y-131502143D01*
X178377857Y-131502143D01*
X178301667Y-131464048D01*
X178263571Y-131425952D01*
X178225476Y-131349762D01*
X177463571Y-131806905D02*
X177920714Y-131806905D01*
X177692143Y-131806905D02*
X177692143Y-131006905D01*
X177768333Y-131121190D01*
X177844524Y-131197381D01*
X177920714Y-131235476D01*
X176777857Y-131273571D02*
X176777857Y-131806905D01*
X176968333Y-130968810D02*
X177158809Y-131540238D01*
X176663571Y-131540238D01*
X179711191Y-127996905D02*
X180168334Y-127996905D01*
X179939763Y-127996905D02*
X179939763Y-127196905D01*
X180015953Y-127311190D01*
X180092144Y-127387381D01*
X180168334Y-127425476D01*
X179368334Y-127463571D02*
X179368334Y-127996905D01*
X179368334Y-127539762D02*
X179330239Y-127501667D01*
X179254048Y-127463571D01*
X179139762Y-127463571D01*
X179063572Y-127501667D01*
X179025477Y-127577857D01*
X179025477Y-127996905D01*
X178606429Y-127996905D02*
X178454048Y-127996905D01*
X178377857Y-127958810D01*
X178339762Y-127920714D01*
X178263571Y-127806429D01*
X178225476Y-127654048D01*
X178225476Y-127349286D01*
X178263571Y-127273095D01*
X178301667Y-127235000D01*
X178377857Y-127196905D01*
X178530238Y-127196905D01*
X178606429Y-127235000D01*
X178644524Y-127273095D01*
X178682619Y-127349286D01*
X178682619Y-127539762D01*
X178644524Y-127615952D01*
X178606429Y-127654048D01*
X178530238Y-127692143D01*
X178377857Y-127692143D01*
X178301667Y-127654048D01*
X178263571Y-127615952D01*
X178225476Y-127539762D01*
X177463571Y-127996905D02*
X177920714Y-127996905D01*
X177692143Y-127996905D02*
X177692143Y-127196905D01*
X177768333Y-127311190D01*
X177844524Y-127387381D01*
X177920714Y-127425476D01*
X176777857Y-127463571D02*
X176777857Y-127996905D01*
X176968333Y-127158810D02*
X177158809Y-127730238D01*
X176663571Y-127730238D01*
M02*
