G04 #@! TF.FileFunction,Soldermask,Bot*
%FSLAX46Y46*%
G04 Gerber Fmt 4.6, Leading zero omitted, Abs format (unit mm)*
G04 Created by KiCad (PCBNEW 4.0.7) date 10/14/19 14:53:04*
%MOMM*%
%LPD*%
G01*
G04 APERTURE LIST*
%ADD10C,0.100000*%
%ADD11R,2.100000X2.100000*%
%ADD12O,2.100000X2.100000*%
%ADD13C,2.000000*%
%ADD14O,2.000000X2.000000*%
%ADD15C,1.400000*%
%ADD16R,1.400000X1.400000*%
%ADD17O,1.924000X2.924000*%
%ADD18C,5.400000*%
%ADD19R,2.000000X2.000000*%
G04 APERTURE END LIST*
D10*
D11*
X138430000Y-127635000D03*
D12*
X138430000Y-130175000D03*
X135890000Y-127635000D03*
X135890000Y-130175000D03*
X133350000Y-127635000D03*
X133350000Y-130175000D03*
X130810000Y-127635000D03*
X130810000Y-130175000D03*
X128270000Y-127635000D03*
X128270000Y-130175000D03*
X125730000Y-127635000D03*
X125730000Y-130175000D03*
X123190000Y-127635000D03*
X123190000Y-130175000D03*
X120650000Y-127635000D03*
X120650000Y-130175000D03*
D13*
X194945000Y-74930000D03*
D14*
X205105000Y-74930000D03*
D15*
X139700000Y-60325000D03*
X140970000Y-59055000D03*
D16*
X140970000Y-61595000D03*
D13*
X194945000Y-78105000D03*
D14*
X205105000Y-78105000D03*
D15*
X125730000Y-60325000D03*
X127000000Y-59055000D03*
D16*
X127000000Y-61595000D03*
D15*
X153670000Y-60325000D03*
X154940000Y-59055000D03*
D16*
X154940000Y-61595000D03*
D15*
X167640000Y-60325000D03*
X168910000Y-59055000D03*
D16*
X168910000Y-61595000D03*
D15*
X181610000Y-60325000D03*
X182880000Y-59055000D03*
D16*
X182880000Y-61595000D03*
D15*
X195580000Y-60325000D03*
X196850000Y-59055000D03*
D16*
X196850000Y-61595000D03*
D17*
X117475000Y-54610000D03*
X120015000Y-54610000D03*
X122555000Y-54610000D03*
X125095000Y-54610000D03*
X127635000Y-54610000D03*
X127635000Y-39370000D03*
X125095000Y-39370000D03*
X122555000Y-39370000D03*
X120015000Y-39370000D03*
X117475000Y-39370000D03*
X131445000Y-54610000D03*
X133985000Y-54610000D03*
X136525000Y-54610000D03*
X139065000Y-54610000D03*
X141605000Y-54610000D03*
X141605000Y-39370000D03*
X139065000Y-39370000D03*
X136525000Y-39370000D03*
X133985000Y-39370000D03*
X131445000Y-39370000D03*
X145415000Y-54610000D03*
X147955000Y-54610000D03*
X150495000Y-54610000D03*
X153035000Y-54610000D03*
X155575000Y-54610000D03*
X155575000Y-39370000D03*
X153035000Y-39370000D03*
X150495000Y-39370000D03*
X147955000Y-39370000D03*
X145415000Y-39370000D03*
X159385000Y-54610000D03*
X161925000Y-54610000D03*
X164465000Y-54610000D03*
X167005000Y-54610000D03*
X169545000Y-54610000D03*
X169545000Y-39370000D03*
X167005000Y-39370000D03*
X164465000Y-39370000D03*
X161925000Y-39370000D03*
X159385000Y-39370000D03*
X173355000Y-54610000D03*
X175895000Y-54610000D03*
X178435000Y-54610000D03*
X180975000Y-54610000D03*
X183515000Y-54610000D03*
X183515000Y-39370000D03*
X180975000Y-39370000D03*
X178435000Y-39370000D03*
X175895000Y-39370000D03*
X173355000Y-39370000D03*
X187325000Y-54610000D03*
X189865000Y-54610000D03*
X192405000Y-54610000D03*
X194945000Y-54610000D03*
X197485000Y-54610000D03*
X197485000Y-39370000D03*
X194945000Y-39370000D03*
X192405000Y-39370000D03*
X189865000Y-39370000D03*
X187325000Y-39370000D03*
D11*
X114935000Y-120650000D03*
D12*
X112395000Y-120650000D03*
X114935000Y-118110000D03*
X112395000Y-118110000D03*
X114935000Y-115570000D03*
X112395000Y-115570000D03*
X114935000Y-113030000D03*
X112395000Y-113030000D03*
X114935000Y-110490000D03*
X112395000Y-110490000D03*
X114935000Y-107950000D03*
X112395000Y-107950000D03*
X114935000Y-105410000D03*
X112395000Y-105410000D03*
X114935000Y-102870000D03*
X112395000Y-102870000D03*
X114935000Y-100330000D03*
X112395000Y-100330000D03*
X114935000Y-97790000D03*
X112395000Y-97790000D03*
X114935000Y-95250000D03*
X112395000Y-95250000D03*
X114935000Y-92710000D03*
X112395000Y-92710000D03*
X114935000Y-90170000D03*
X112395000Y-90170000D03*
X114935000Y-87630000D03*
X112395000Y-87630000D03*
X114935000Y-85090000D03*
X112395000Y-85090000D03*
X114935000Y-82550000D03*
X112395000Y-82550000D03*
X114935000Y-80010000D03*
X112395000Y-80010000D03*
X114935000Y-77470000D03*
X112395000Y-77470000D03*
X114935000Y-74930000D03*
X112395000Y-74930000D03*
X114935000Y-72390000D03*
X112395000Y-72390000D03*
D18*
X111760000Y-128905000D03*
X203200000Y-128905000D03*
X203200000Y-40640000D03*
X111760000Y-40640000D03*
D19*
X137160000Y-72390000D03*
D14*
X144780000Y-90170000D03*
X137160000Y-74930000D03*
X144780000Y-87630000D03*
X137160000Y-77470000D03*
X144780000Y-85090000D03*
X137160000Y-80010000D03*
X144780000Y-82550000D03*
X137160000Y-82550000D03*
X144780000Y-80010000D03*
X137160000Y-85090000D03*
X144780000Y-77470000D03*
X137160000Y-87630000D03*
X144780000Y-74930000D03*
X137160000Y-90170000D03*
X144780000Y-72390000D03*
D19*
X121920000Y-105410000D03*
D14*
X129540000Y-120650000D03*
X121920000Y-107950000D03*
X129540000Y-118110000D03*
X121920000Y-110490000D03*
X129540000Y-115570000D03*
X121920000Y-113030000D03*
X129540000Y-113030000D03*
X121920000Y-115570000D03*
X129540000Y-110490000D03*
X121920000Y-118110000D03*
X129540000Y-107950000D03*
X121920000Y-120650000D03*
X129540000Y-105410000D03*
D13*
X121920000Y-59055000D03*
D14*
X116840000Y-59055000D03*
D13*
X135890000Y-59055000D03*
D14*
X130810000Y-59055000D03*
D13*
X149860000Y-59055000D03*
D14*
X144780000Y-59055000D03*
D13*
X163830000Y-59055000D03*
D14*
X158750000Y-59055000D03*
D13*
X177800000Y-59055000D03*
D14*
X172720000Y-59055000D03*
D13*
X191770000Y-59055000D03*
D14*
X186690000Y-59055000D03*
D13*
X143510000Y-68580000D03*
X138510000Y-68580000D03*
X158750000Y-68580000D03*
X153750000Y-68580000D03*
X128270000Y-101600000D03*
X123270000Y-101600000D03*
X173990000Y-68580000D03*
X168990000Y-68580000D03*
D11*
X205105000Y-58420000D03*
D12*
X205105000Y-55880000D03*
X205105000Y-53340000D03*
X205105000Y-50800000D03*
X205105000Y-48260000D03*
X205105000Y-45720000D03*
D11*
X197485000Y-127635000D03*
D12*
X197485000Y-130175000D03*
D11*
X179070000Y-74930000D03*
D12*
X179070000Y-77470000D03*
D19*
X167640000Y-72390000D03*
D14*
X175260000Y-87630000D03*
X167640000Y-74930000D03*
X175260000Y-85090000D03*
X167640000Y-77470000D03*
X175260000Y-82550000D03*
X167640000Y-80010000D03*
X175260000Y-80010000D03*
X167640000Y-82550000D03*
X175260000Y-77470000D03*
X167640000Y-85090000D03*
X175260000Y-74930000D03*
X167640000Y-87630000D03*
X175260000Y-72390000D03*
D13*
X134620000Y-113030000D03*
D14*
X144780000Y-113030000D03*
D13*
X194945000Y-71755000D03*
D14*
X205105000Y-71755000D03*
D13*
X194945000Y-68580000D03*
D14*
X205105000Y-68580000D03*
D13*
X144780000Y-116840000D03*
D14*
X134620000Y-116840000D03*
D13*
X194945000Y-84455000D03*
D14*
X205105000Y-84455000D03*
D13*
X194945000Y-90805000D03*
D14*
X205105000Y-90805000D03*
D13*
X194945000Y-97155000D03*
D14*
X205105000Y-97155000D03*
D13*
X194945000Y-93980000D03*
D14*
X205105000Y-93980000D03*
D13*
X194945000Y-87630000D03*
D14*
X205105000Y-87630000D03*
D13*
X194945000Y-81280000D03*
D14*
X205105000Y-81280000D03*
D13*
X134620000Y-109220000D03*
D14*
X144780000Y-109220000D03*
D13*
X144780000Y-120650000D03*
D14*
X134620000Y-120650000D03*
D13*
X128270000Y-68580000D03*
X123270000Y-68580000D03*
X189230000Y-68580000D03*
X184230000Y-68580000D03*
D11*
X156210000Y-130175000D03*
D12*
X153670000Y-130175000D03*
X151130000Y-130175000D03*
X148590000Y-130175000D03*
D11*
X200025000Y-104775000D03*
D12*
X200025000Y-107315000D03*
X200025000Y-109855000D03*
D11*
X195580000Y-104775000D03*
D12*
X195580000Y-107315000D03*
X195580000Y-109855000D03*
D11*
X204470000Y-104775000D03*
D12*
X204470000Y-107315000D03*
X204470000Y-109855000D03*
D19*
X152400000Y-72390000D03*
D14*
X160020000Y-90170000D03*
X152400000Y-74930000D03*
X160020000Y-87630000D03*
X152400000Y-77470000D03*
X160020000Y-85090000D03*
X152400000Y-80010000D03*
X160020000Y-82550000D03*
X152400000Y-82550000D03*
X160020000Y-80010000D03*
X152400000Y-85090000D03*
X160020000Y-77470000D03*
X152400000Y-87630000D03*
X160020000Y-74930000D03*
X152400000Y-90170000D03*
X160020000Y-72390000D03*
D19*
X121920000Y-72390000D03*
D14*
X129540000Y-87630000D03*
X121920000Y-74930000D03*
X129540000Y-85090000D03*
X121920000Y-77470000D03*
X129540000Y-82550000D03*
X121920000Y-80010000D03*
X129540000Y-80010000D03*
X121920000Y-82550000D03*
X129540000Y-77470000D03*
X121920000Y-85090000D03*
X129540000Y-74930000D03*
X121920000Y-87630000D03*
X129540000Y-72390000D03*
D19*
X182880000Y-72390000D03*
D14*
X190500000Y-95250000D03*
X182880000Y-74930000D03*
X190500000Y-92710000D03*
X182880000Y-77470000D03*
X190500000Y-90170000D03*
X182880000Y-80010000D03*
X190500000Y-87630000D03*
X182880000Y-82550000D03*
X190500000Y-85090000D03*
X182880000Y-85090000D03*
X190500000Y-82550000D03*
X182880000Y-87630000D03*
X190500000Y-80010000D03*
X182880000Y-90170000D03*
X190500000Y-77470000D03*
X182880000Y-92710000D03*
X190500000Y-74930000D03*
X182880000Y-95250000D03*
X190500000Y-72390000D03*
D13*
X194945000Y-100330000D03*
D14*
X205105000Y-100330000D03*
D11*
X205105000Y-64770000D03*
D12*
X205105000Y-62230000D03*
M02*
