M48
;DRILL file {KiCad 4.0.7} date 09/06/19 19:31:47
;FORMAT={2:4/ absolute / inch / suppress leading zeros}
FMAT,2
INCH,TZ
T1C0.016
T2C0.024
T3C0.031
T4C0.039
T5C0.120
%
G90
G05
M72
T1
X46250Y-25500
X46250Y-31750
X46500Y-32000
X46500Y-37250
X46500Y-49500
X46750Y-32250
X46750Y-37750
X46750Y-39000
X46750Y-40250
X46750Y-41250
X46750Y-42250
X47000Y-32750
X47000Y-40000
X47000Y-49500
X47750Y-40750
X48000Y-41750
X48250Y-41500
X48250Y-49000
X48500Y-40000
X48500Y-42750
X48500Y-48750
X48500Y-49250
X48750Y-40250
X48750Y-42500
X48750Y-48500
X48750Y-49500
X49000Y-40500
X49000Y-41000
X49000Y-41500
X49000Y-48250
X49250Y-40250
X49250Y-48000
X50250Y-25250
X51250Y-37500
X51250Y-38000
X51250Y-38500
X51250Y-39000
X51250Y-39500
X51500Y-17250
X51500Y-20000
X51500Y-37250
X51500Y-37750
X51500Y-38250
X51500Y-38750
X51500Y-39250
X51750Y-25500
X51750Y-32000
X51750Y-32750
X51750Y-34000
X52000Y-32250
X52000Y-33750
X52000Y-34750
X52250Y-28750
X52250Y-32000
X52250Y-35000
X52250Y-45500
X52500Y-17000
X52500Y-20250
X52500Y-30000
X52500Y-32250
X52500Y-34750
X52750Y-35000
X53000Y-32000
X53250Y-33000
X53750Y-45250
X54000Y-37500
X54000Y-38000
X54000Y-38500
X54000Y-39000
X54000Y-39500
X54250Y-34000
X54250Y-37750
X54250Y-38250
X54250Y-38750
X54250Y-39250
X54250Y-52250
X54500Y-16750
X54500Y-33750
X54500Y-37500
X54500Y-51500
X54750Y-33500
X54750Y-51000
X54750Y-52000
X56000Y-25250
X57000Y-17250
X57000Y-20000
X57000Y-25500
X57250Y-25750
X57250Y-30000
X57250Y-31000
X57750Y-34250
X58000Y-17000
X58000Y-20250
X58000Y-33250
X58000Y-35500
X58500Y-26250
X58500Y-30000
X58500Y-31250
X59000Y-36000
X59750Y-36500
X60000Y-16750
X60000Y-35250
X60250Y-35000
X60250Y-36500
X61750Y-25250
X62500Y-17250
X62500Y-20000
X62500Y-25500
X63000Y-36250
X63250Y-35250
X63500Y-17000
X63500Y-20250
X65500Y-16750
X65500Y-28000
X65500Y-35750
X65750Y-32500
X68000Y-17250
X68000Y-20000
X68000Y-25500
X69000Y-17000
X69000Y-20250
X69250Y-25250
X69750Y-36000
X70000Y-34750
X70250Y-35000
X70250Y-36000
X71000Y-16750
X73250Y-36000
X73500Y-25500
X73750Y-32500
X73750Y-35500
X73750Y-36000
X74000Y-17250
X74000Y-20000
X74000Y-25250
X74000Y-32750
X74250Y-36000
X75000Y-17000
X75000Y-20250
X75250Y-35500
X77000Y-16750
X77500Y-25750
X77750Y-25500
X78250Y-25000
X78500Y-25250
X78750Y-29250
X79000Y-30500
X79250Y-31750
X79500Y-34250
X79750Y-33000
X80000Y-26750
T2
X49750Y-23500
X49750Y-24500
X50250Y-24000
X55250Y-23500
X55250Y-24500
X55750Y-24000
X60750Y-23500
X60750Y-24500
X61250Y-24000
X66250Y-23500
X66250Y-24500
X66750Y-24000
X71750Y-23500
X71750Y-24500
X72250Y-24000
X77250Y-23500
X77250Y-24500
X77750Y-24000
T3
X46250Y-15500
X46250Y-21500
X46250Y-23250
X46250Y-24500
X47250Y-15500
X47250Y-21500
X47750Y-47500
X48000Y-28500
X48000Y-29500
X48000Y-30500
X48000Y-31500
X48000Y-32500
X48000Y-33500
X48000Y-34500
X48250Y-15500
X48250Y-21500
X48250Y-23250
X48250Y-24500
X48531Y-27000
X49250Y-15500
X49250Y-21500
X50250Y-15500
X50250Y-21500
X50500Y-27000
X51000Y-28500
X51000Y-29500
X51000Y-30500
X51000Y-31500
X51000Y-32500
X51000Y-33500
X51000Y-34500
X51750Y-15500
X51750Y-21500
X51750Y-23250
X51750Y-24500
X51750Y-47500
X52750Y-15500
X52750Y-21500
X53750Y-15500
X53750Y-21500
X53750Y-23250
X53750Y-24500
X53750Y-28500
X53750Y-29500
X53750Y-30500
X53750Y-31500
X53750Y-32500
X53750Y-33500
X53750Y-34500
X53750Y-35500
X54281Y-27000
X54750Y-15500
X54750Y-21500
X55750Y-15500
X55750Y-21500
X56250Y-27000
X56750Y-28500
X56750Y-29500
X56750Y-30500
X56750Y-31500
X56750Y-32500
X56750Y-33500
X56750Y-34500
X56750Y-35500
X57250Y-15500
X57250Y-21500
X57250Y-23250
X57250Y-24500
X58250Y-15500
X58250Y-21500
X59250Y-15500
X59250Y-21500
X59250Y-23250
X59250Y-24500
X59500Y-28500
X59500Y-29500
X59500Y-30500
X59500Y-31500
X59500Y-32500
X59500Y-33500
X59500Y-34500
X60031Y-27000
X60250Y-15500
X60250Y-21500
X61250Y-15500
X61250Y-21500
X62000Y-27000
X62500Y-28500
X62500Y-29500
X62500Y-30500
X62500Y-31500
X62500Y-32500
X62500Y-33500
X62500Y-34500
X62750Y-15500
X62750Y-21500
X62750Y-23250
X62750Y-24500
X63750Y-15500
X63750Y-21500
X64750Y-15500
X64750Y-21500
X64750Y-23250
X64750Y-24500
X65000Y-28500
X65000Y-29750
X65000Y-31000
X65000Y-32250
X65000Y-33500
X65000Y-34750
X65750Y-15500
X65750Y-21500
X66750Y-15500
X66750Y-21500
X68250Y-15500
X68250Y-21500
X68250Y-23250
X68250Y-24500
X69000Y-28500
X69000Y-29750
X69000Y-31000
X69000Y-32250
X69000Y-33500
X69000Y-34750
X69250Y-15500
X69250Y-21500
X70250Y-15500
X70250Y-21500
X70250Y-23250
X70250Y-24500
X71250Y-15500
X71250Y-21500
X71750Y-28500
X71750Y-29500
X71750Y-30500
X71750Y-31500
X71750Y-32500
X71750Y-33500
X71750Y-34500
X72250Y-15500
X72250Y-21500
X72281Y-27000
X73750Y-15500
X73750Y-21500
X73750Y-23250
X73750Y-24500
X74250Y-27000
X74750Y-15500
X74750Y-21500
X74750Y-28500
X74750Y-29500
X74750Y-30500
X74750Y-31500
X74750Y-32500
X74750Y-33500
X74750Y-34500
X75750Y-15500
X75750Y-21500
X75750Y-23250
X75750Y-24500
X76750Y-15500
X76750Y-21500
X76750Y-27000
X76750Y-28250
X76750Y-29500
X76750Y-30750
X76750Y-32000
X76750Y-33250
X76750Y-34500
X77750Y-15500
X77750Y-21500
X80750Y-27000
X80750Y-28250
X80750Y-29500
X80750Y-30750
X80750Y-32000
X80750Y-33250
X80750Y-34500
T4
X44250Y-28500
X44250Y-29500
X44250Y-30500
X44250Y-31500
X44250Y-32500
X44250Y-33500
X44250Y-34500
X44250Y-35500
X44250Y-36500
X44250Y-37500
X44250Y-38500
X44250Y-39500
X44250Y-40500
X44250Y-41500
X44250Y-42500
X44250Y-43500
X44250Y-44500
X44250Y-45500
X44250Y-46500
X44250Y-47500
X45250Y-28500
X45250Y-29500
X45250Y-30500
X45250Y-31500
X45250Y-32500
X45250Y-33500
X45250Y-34500
X45250Y-35500
X45250Y-36500
X45250Y-37500
X45250Y-38500
X45250Y-39500
X45250Y-40500
X45250Y-41500
X45250Y-42500
X45250Y-43500
X45250Y-44500
X45250Y-45500
X45250Y-46500
X45250Y-47500
X46750Y-50250
X46750Y-51250
X47750Y-50250
X47750Y-51250
X48750Y-50250
X48750Y-51250
X49750Y-50250
X49750Y-51250
X50750Y-50250
X50750Y-51250
X51750Y-50250
X51750Y-51250
X52750Y-50250
X52750Y-51250
X53750Y-50250
X53750Y-51250
X76000Y-36500
X76000Y-37500
X78000Y-36500
X78000Y-37500
X80000Y-36500
X80000Y-37500
X80750Y-19000
X80750Y-20000
X80750Y-21000
X80750Y-22000
X80750Y-23000
X80750Y-24000
T5
X44000Y-16000
X44000Y-50750
X80000Y-16000
X80000Y-50750
T0
M30
