M48
;DRILL file {KiCad 4.0.7} date 10/14/19 14:53:06
;FORMAT={2:4/ absolute / inch / suppress leading zeros}
FMAT,2
INCH,TZ
T1C0.016
T2C0.024
T3C0.031
T4C0.039
T5C0.120
%
G90
G05
M72
T1
X42750Y-28750
X44250Y-52500
X45750Y-29000
X45750Y-30000
X46000Y-31250
X46250Y-43250
X46500Y-32000
X47500Y-48000
X47750Y-26250
X47750Y-38250
X47750Y-38750
X48000Y-38000
X48000Y-38500
X48750Y-28000
X49000Y-27750
X49250Y-28000
X49500Y-27750
X49750Y-28000
X50000Y-27750
X50250Y-26250
X50250Y-52250
X51500Y-17250
X51500Y-32000
X51750Y-28750
X52000Y-19750
X52000Y-34250
X52250Y-29500
X52250Y-32750
X52250Y-33750
X52250Y-36000
X52250Y-36500
X52250Y-37000
X52250Y-37500
X52500Y-17000
X53000Y-20000
X53000Y-36250
X53500Y-45000
X53750Y-39000
X54000Y-39250
X54250Y-39000
X54500Y-16750
X54500Y-36750
X54500Y-37250
X54500Y-39250
X54750Y-28750
X54750Y-39000
X55000Y-20250
X55000Y-39250
X55250Y-39000
X55750Y-33250
X56000Y-29000
X56000Y-31250
X56750Y-27750
X57000Y-17250
X57500Y-19750
X57750Y-30750
X58000Y-17000
X58000Y-31750
X58000Y-44250
X58250Y-50000
X58250Y-50500
X58500Y-20000
X58500Y-50250
X58750Y-39000
X59000Y-39250
X59250Y-39000
X60000Y-16750
X60500Y-20250
X62250Y-32000
X62500Y-17250
X63000Y-19750
X63500Y-17000
X63500Y-38500
X63750Y-38750
X64000Y-20000
X64500Y-38000
X65000Y-35750
X65250Y-35500
X65250Y-37750
X65500Y-16750
X65500Y-35750
X65750Y-38250
X66000Y-20250
X66000Y-37500
X66500Y-27750
X66500Y-37000
X66750Y-32750
X67000Y-32500
X67250Y-33250
X67500Y-30250
X68000Y-17250
X68500Y-19750
X68500Y-28000
X69000Y-17000
X69500Y-20000
X69750Y-37250
X70250Y-35750
X70250Y-36750
X70500Y-35500
X71000Y-16750
X71000Y-36500
X71500Y-20250
X72500Y-20500
X74000Y-17250
X74000Y-19750
X74500Y-38000
X75000Y-17000
X75000Y-20000
X77000Y-16750
X77000Y-20250
X78000Y-20500
X78500Y-29250
X78750Y-35500
X79500Y-31750
X80000Y-30500
X81000Y-44000
X81250Y-29000
X81250Y-49750
T2
X49500Y-23750
X50000Y-23250
X50000Y-24250
X55000Y-23750
X55500Y-23250
X55500Y-24250
X60500Y-23750
X61000Y-23250
X61000Y-24250
X66000Y-23750
X66500Y-23250
X66500Y-24250
X71500Y-23750
X72000Y-23250
X72000Y-24250
X77000Y-23750
X77500Y-23250
X77500Y-24250
T3
X46000Y-23250
X46250Y-15500
X46250Y-21500
X47250Y-15500
X47250Y-21500
X48000Y-23250
X48000Y-28500
X48000Y-29500
X48000Y-30500
X48000Y-31500
X48000Y-32500
X48000Y-33500
X48000Y-34500
X48000Y-41500
X48000Y-42500
X48000Y-43500
X48000Y-44500
X48000Y-45500
X48000Y-46500
X48000Y-47500
X48250Y-15500
X48250Y-21500
X48531Y-27000
X48531Y-40000
X49250Y-15500
X49250Y-21500
X50250Y-15500
X50250Y-21500
X50500Y-27000
X50500Y-40000
X51000Y-28500
X51000Y-29500
X51000Y-30500
X51000Y-31500
X51000Y-32500
X51000Y-33500
X51000Y-34500
X51000Y-41500
X51000Y-42500
X51000Y-43500
X51000Y-44500
X51000Y-45500
X51000Y-46500
X51000Y-47500
X51500Y-23250
X51750Y-15500
X51750Y-21500
X52750Y-15500
X52750Y-21500
X53000Y-43000
X53000Y-44500
X53000Y-46000
X53000Y-47500
X53500Y-23250
X53750Y-15500
X53750Y-21500
X54000Y-28500
X54000Y-29500
X54000Y-30500
X54000Y-31500
X54000Y-32500
X54000Y-33500
X54000Y-34500
X54000Y-35500
X54531Y-27000
X54750Y-15500
X54750Y-21500
X55750Y-15500
X55750Y-21500
X56500Y-27000
X57000Y-23250
X57000Y-28500
X57000Y-29500
X57000Y-30500
X57000Y-31500
X57000Y-32500
X57000Y-33500
X57000Y-34500
X57000Y-35500
X57000Y-43000
X57000Y-44500
X57000Y-46000
X57000Y-47500
X57250Y-15500
X57250Y-21500
X58250Y-15500
X58250Y-21500
X59000Y-23250
X59250Y-15500
X59250Y-21500
X60000Y-28500
X60000Y-29500
X60000Y-30500
X60000Y-31500
X60000Y-32500
X60000Y-33500
X60000Y-34500
X60000Y-35500
X60250Y-15500
X60250Y-21500
X60531Y-27000
X61250Y-15500
X61250Y-21500
X62500Y-23250
X62500Y-27000
X62750Y-15500
X62750Y-21500
X63000Y-28500
X63000Y-29500
X63000Y-30500
X63000Y-31500
X63000Y-32500
X63000Y-33500
X63000Y-34500
X63000Y-35500
X63750Y-15500
X63750Y-21500
X64500Y-23250
X64750Y-15500
X64750Y-21500
X65750Y-15500
X65750Y-21500
X66000Y-28500
X66000Y-29500
X66000Y-30500
X66000Y-31500
X66000Y-32500
X66000Y-33500
X66000Y-34500
X66531Y-27000
X66750Y-15500
X66750Y-21500
X68000Y-23250
X68250Y-15500
X68250Y-21500
X68500Y-27000
X69000Y-28500
X69000Y-29500
X69000Y-30500
X69000Y-31500
X69000Y-32500
X69000Y-33500
X69000Y-34500
X69250Y-15500
X69250Y-21500
X70000Y-23250
X70250Y-15500
X70250Y-21500
X71250Y-15500
X71250Y-21500
X72000Y-28500
X72000Y-29500
X72000Y-30500
X72000Y-31500
X72000Y-32500
X72000Y-33500
X72000Y-34500
X72000Y-35500
X72000Y-36500
X72000Y-37500
X72250Y-15500
X72250Y-21500
X72531Y-27000
X73500Y-23250
X73750Y-15500
X73750Y-21500
X74500Y-27000
X74750Y-15500
X74750Y-21500
X75000Y-28500
X75000Y-29500
X75000Y-30500
X75000Y-31500
X75000Y-32500
X75000Y-33500
X75000Y-34500
X75000Y-35500
X75000Y-36500
X75000Y-37500
X75500Y-23250
X75750Y-15500
X75750Y-21500
X76750Y-15500
X76750Y-21500
X76750Y-27000
X76750Y-28250
X76750Y-29500
X76750Y-30750
X76750Y-32000
X76750Y-33250
X76750Y-34500
X76750Y-35750
X76750Y-37000
X76750Y-38250
X76750Y-39500
X77750Y-15500
X77750Y-21500
X80750Y-27000
X80750Y-28250
X80750Y-29500
X80750Y-30750
X80750Y-32000
X80750Y-33250
X80750Y-34500
X80750Y-35750
X80750Y-37000
X80750Y-38250
X80750Y-39500
T4
X44250Y-28500
X44250Y-29500
X44250Y-30500
X44250Y-31500
X44250Y-32500
X44250Y-33500
X44250Y-34500
X44250Y-35500
X44250Y-36500
X44250Y-37500
X44250Y-38500
X44250Y-39500
X44250Y-40500
X44250Y-41500
X44250Y-42500
X44250Y-43500
X44250Y-44500
X44250Y-45500
X44250Y-46500
X44250Y-47500
X45250Y-28500
X45250Y-29500
X45250Y-30500
X45250Y-31500
X45250Y-32500
X45250Y-33500
X45250Y-34500
X45250Y-35500
X45250Y-36500
X45250Y-37500
X45250Y-38500
X45250Y-39500
X45250Y-40500
X45250Y-41500
X45250Y-42500
X45250Y-43500
X45250Y-44500
X45250Y-45500
X45250Y-46500
X45250Y-47500
X47500Y-50250
X47500Y-51250
X48500Y-50250
X48500Y-51250
X49500Y-50250
X49500Y-51250
X50500Y-50250
X50500Y-51250
X51500Y-50250
X51500Y-51250
X52500Y-50250
X52500Y-51250
X53500Y-50250
X53500Y-51250
X54500Y-50250
X54500Y-51250
X58500Y-51250
X59500Y-51250
X60500Y-51250
X61500Y-51250
X70500Y-29500
X70500Y-30500
X77000Y-41250
X77000Y-42250
X77000Y-43250
X77750Y-50250
X77750Y-51250
X78750Y-41250
X78750Y-42250
X78750Y-43250
X80500Y-41250
X80500Y-42250
X80500Y-43250
X80750Y-18000
X80750Y-19000
X80750Y-20000
X80750Y-21000
X80750Y-22000
X80750Y-23000
X80750Y-24500
X80750Y-25500
T5
X44000Y-16000
X44000Y-50750
X80000Y-16000
X80000Y-50750
T0
M30
