G04 #@! TF.FileFunction,Legend,Top*
%FSLAX46Y46*%
G04 Gerber Fmt 4.6, Leading zero omitted, Abs format (unit mm)*
G04 Created by KiCad (PCBNEW 4.0.7) date 09/06/19 13:44:52*
%MOMM*%
%LPD*%
G01*
G04 APERTURE LIST*
%ADD10C,0.100000*%
%ADD11C,0.150000*%
%ADD12C,0.300000*%
%ADD13C,0.120000*%
G04 APERTURE END LIST*
D10*
D11*
X111847381Y-59419524D02*
X112656905Y-59419524D01*
X112752143Y-59371905D01*
X112799762Y-59324286D01*
X112847381Y-59229048D01*
X112847381Y-59038571D01*
X112799762Y-58943333D01*
X112752143Y-58895714D01*
X112656905Y-58848095D01*
X111847381Y-58848095D01*
X112847381Y-58371905D02*
X111847381Y-58371905D01*
X112847381Y-56562381D02*
X112371190Y-56895715D01*
X112847381Y-57133810D02*
X111847381Y-57133810D01*
X111847381Y-56752857D01*
X111895000Y-56657619D01*
X111942619Y-56610000D01*
X112037857Y-56562381D01*
X112180714Y-56562381D01*
X112275952Y-56610000D01*
X112323571Y-56657619D01*
X112371190Y-56752857D01*
X112371190Y-57133810D01*
X112799762Y-55752857D02*
X112847381Y-55848095D01*
X112847381Y-56038572D01*
X112799762Y-56133810D01*
X112704524Y-56181429D01*
X112323571Y-56181429D01*
X112228333Y-56133810D01*
X112180714Y-56038572D01*
X112180714Y-55848095D01*
X112228333Y-55752857D01*
X112323571Y-55705238D01*
X112418810Y-55705238D01*
X112514048Y-56181429D01*
X112180714Y-55371905D02*
X112847381Y-55133810D01*
X112180714Y-54895714D01*
X112847381Y-54514762D02*
X112180714Y-54514762D01*
X111847381Y-54514762D02*
X111895000Y-54562381D01*
X111942619Y-54514762D01*
X111895000Y-54467143D01*
X111847381Y-54514762D01*
X111942619Y-54514762D01*
X112799762Y-54086191D02*
X112847381Y-53990953D01*
X112847381Y-53800477D01*
X112799762Y-53705238D01*
X112704524Y-53657619D01*
X112656905Y-53657619D01*
X112561667Y-53705238D01*
X112514048Y-53800477D01*
X112514048Y-53943334D01*
X112466429Y-54038572D01*
X112371190Y-54086191D01*
X112323571Y-54086191D01*
X112228333Y-54038572D01*
X112180714Y-53943334D01*
X112180714Y-53800477D01*
X112228333Y-53705238D01*
X112847381Y-53229048D02*
X112180714Y-53229048D01*
X111847381Y-53229048D02*
X111895000Y-53276667D01*
X111942619Y-53229048D01*
X111895000Y-53181429D01*
X111847381Y-53229048D01*
X111942619Y-53229048D01*
X112847381Y-52610001D02*
X112799762Y-52705239D01*
X112752143Y-52752858D01*
X112656905Y-52800477D01*
X112371190Y-52800477D01*
X112275952Y-52752858D01*
X112228333Y-52705239D01*
X112180714Y-52610001D01*
X112180714Y-52467143D01*
X112228333Y-52371905D01*
X112275952Y-52324286D01*
X112371190Y-52276667D01*
X112656905Y-52276667D01*
X112752143Y-52324286D01*
X112799762Y-52371905D01*
X112847381Y-52467143D01*
X112847381Y-52610001D01*
X112180714Y-51848096D02*
X112847381Y-51848096D01*
X112275952Y-51848096D02*
X112228333Y-51800477D01*
X112180714Y-51705239D01*
X112180714Y-51562381D01*
X112228333Y-51467143D01*
X112323571Y-51419524D01*
X112847381Y-51419524D01*
X112561667Y-50229048D02*
X112561667Y-49752857D01*
X112847381Y-50324286D02*
X111847381Y-49990953D01*
X112847381Y-49657619D01*
X114085714Y-60014762D02*
X114895238Y-60014762D01*
X114990476Y-60062381D01*
X115038095Y-60110000D01*
X115085714Y-60205239D01*
X115085714Y-60348096D01*
X115038095Y-60443334D01*
X114704762Y-60014762D02*
X114752381Y-60110000D01*
X114752381Y-60300477D01*
X114704762Y-60395715D01*
X114657143Y-60443334D01*
X114561905Y-60490953D01*
X114276190Y-60490953D01*
X114180952Y-60443334D01*
X114133333Y-60395715D01*
X114085714Y-60300477D01*
X114085714Y-60110000D01*
X114133333Y-60014762D01*
X114752381Y-59538572D02*
X114085714Y-59538572D01*
X113752381Y-59538572D02*
X113800000Y-59586191D01*
X113847619Y-59538572D01*
X113800000Y-59490953D01*
X113752381Y-59538572D01*
X113847619Y-59538572D01*
X114085714Y-59205239D02*
X114085714Y-58824287D01*
X113752381Y-59062382D02*
X114609524Y-59062382D01*
X114704762Y-59014763D01*
X114752381Y-58919525D01*
X114752381Y-58824287D01*
X114752381Y-58490953D02*
X113752381Y-58490953D01*
X114752381Y-58062381D02*
X114228571Y-58062381D01*
X114133333Y-58110000D01*
X114085714Y-58205238D01*
X114085714Y-58348096D01*
X114133333Y-58443334D01*
X114180952Y-58490953D01*
X114085714Y-57157619D02*
X114752381Y-57157619D01*
X114085714Y-57586191D02*
X114609524Y-57586191D01*
X114704762Y-57538572D01*
X114752381Y-57443334D01*
X114752381Y-57300476D01*
X114704762Y-57205238D01*
X114657143Y-57157619D01*
X114752381Y-56681429D02*
X113752381Y-56681429D01*
X114133333Y-56681429D02*
X114085714Y-56586191D01*
X114085714Y-56395714D01*
X114133333Y-56300476D01*
X114180952Y-56252857D01*
X114276190Y-56205238D01*
X114561905Y-56205238D01*
X114657143Y-56252857D01*
X114704762Y-56300476D01*
X114752381Y-56395714D01*
X114752381Y-56586191D01*
X114704762Y-56681429D01*
X114657143Y-55776667D02*
X114704762Y-55729048D01*
X114752381Y-55776667D01*
X114704762Y-55824286D01*
X114657143Y-55776667D01*
X114752381Y-55776667D01*
X114704762Y-54871905D02*
X114752381Y-54967143D01*
X114752381Y-55157620D01*
X114704762Y-55252858D01*
X114657143Y-55300477D01*
X114561905Y-55348096D01*
X114276190Y-55348096D01*
X114180952Y-55300477D01*
X114133333Y-55252858D01*
X114085714Y-55157620D01*
X114085714Y-54967143D01*
X114133333Y-54871905D01*
X114752381Y-54300477D02*
X114704762Y-54395715D01*
X114657143Y-54443334D01*
X114561905Y-54490953D01*
X114276190Y-54490953D01*
X114180952Y-54443334D01*
X114133333Y-54395715D01*
X114085714Y-54300477D01*
X114085714Y-54157619D01*
X114133333Y-54062381D01*
X114180952Y-54014762D01*
X114276190Y-53967143D01*
X114561905Y-53967143D01*
X114657143Y-54014762D01*
X114704762Y-54062381D01*
X114752381Y-54157619D01*
X114752381Y-54300477D01*
X114752381Y-53538572D02*
X114085714Y-53538572D01*
X114180952Y-53538572D02*
X114133333Y-53490953D01*
X114085714Y-53395715D01*
X114085714Y-53252857D01*
X114133333Y-53157619D01*
X114228571Y-53110000D01*
X114752381Y-53110000D01*
X114228571Y-53110000D02*
X114133333Y-53062381D01*
X114085714Y-52967143D01*
X114085714Y-52824286D01*
X114133333Y-52729048D01*
X114228571Y-52681429D01*
X114752381Y-52681429D01*
X113704762Y-51490953D02*
X114990476Y-52348096D01*
X114085714Y-51300477D02*
X114085714Y-50919525D01*
X113752381Y-51157620D02*
X114609524Y-51157620D01*
X114704762Y-51110001D01*
X114752381Y-51014763D01*
X114752381Y-50919525D01*
X114704762Y-50205238D02*
X114752381Y-50300476D01*
X114752381Y-50490953D01*
X114704762Y-50586191D01*
X114609524Y-50633810D01*
X114228571Y-50633810D01*
X114133333Y-50586191D01*
X114085714Y-50490953D01*
X114085714Y-50300476D01*
X114133333Y-50205238D01*
X114228571Y-50157619D01*
X114323810Y-50157619D01*
X114419048Y-50633810D01*
X114752381Y-49729048D02*
X113752381Y-49729048D01*
X114133333Y-49729048D02*
X114085714Y-49633810D01*
X114085714Y-49443333D01*
X114133333Y-49348095D01*
X114180952Y-49300476D01*
X114276190Y-49252857D01*
X114561905Y-49252857D01*
X114657143Y-49300476D01*
X114704762Y-49348095D01*
X114752381Y-49443333D01*
X114752381Y-49633810D01*
X114704762Y-49729048D01*
X114752381Y-48681429D02*
X114704762Y-48776667D01*
X114609524Y-48824286D01*
X113752381Y-48824286D01*
D12*
X111168571Y-58074286D02*
X110454286Y-58574286D01*
X111168571Y-58931429D02*
X109668571Y-58931429D01*
X109668571Y-58360001D01*
X109740000Y-58217143D01*
X109811429Y-58145715D01*
X109954286Y-58074286D01*
X110168571Y-58074286D01*
X110311429Y-58145715D01*
X110382857Y-58217143D01*
X110454286Y-58360001D01*
X110454286Y-58931429D01*
X111025714Y-56574286D02*
X111097143Y-56645715D01*
X111168571Y-56860001D01*
X111168571Y-57002858D01*
X111097143Y-57217143D01*
X110954286Y-57360001D01*
X110811429Y-57431429D01*
X110525714Y-57502858D01*
X110311429Y-57502858D01*
X110025714Y-57431429D01*
X109882857Y-57360001D01*
X109740000Y-57217143D01*
X109668571Y-57002858D01*
X109668571Y-56860001D01*
X109740000Y-56645715D01*
X109811429Y-56574286D01*
X110597143Y-55931429D02*
X110597143Y-54788572D01*
X109668571Y-53788572D02*
X109668571Y-53502858D01*
X109740000Y-53360000D01*
X109882857Y-53217143D01*
X110168571Y-53145715D01*
X110668571Y-53145715D01*
X110954286Y-53217143D01*
X111097143Y-53360000D01*
X111168571Y-53502858D01*
X111168571Y-53788572D01*
X111097143Y-53931429D01*
X110954286Y-54074286D01*
X110668571Y-54145715D01*
X110168571Y-54145715D01*
X109882857Y-54074286D01*
X109740000Y-53931429D01*
X109668571Y-53788572D01*
X111168571Y-52502857D02*
X109668571Y-52502857D01*
X111168571Y-51645714D01*
X109668571Y-51645714D01*
X110382857Y-50931428D02*
X110382857Y-50431428D01*
X111168571Y-50217142D02*
X111168571Y-50931428D01*
X109668571Y-50931428D01*
X109668571Y-50217142D01*
D13*
X196815000Y-67270000D02*
X196815000Y-69890000D01*
X196815000Y-69890000D02*
X203235000Y-69890000D01*
X203235000Y-69890000D02*
X203235000Y-67270000D01*
X203235000Y-67270000D02*
X196815000Y-67270000D01*
X195925000Y-68580000D02*
X196815000Y-68580000D01*
X204125000Y-68580000D02*
X203235000Y-68580000D01*
X117415000Y-126305000D02*
X117415000Y-131505000D01*
X135255000Y-126305000D02*
X117415000Y-126305000D01*
X137855000Y-131505000D02*
X117415000Y-131505000D01*
X135255000Y-126305000D02*
X135255000Y-128905000D01*
X135255000Y-128905000D02*
X137855000Y-128905000D01*
X137855000Y-128905000D02*
X137855000Y-131505000D01*
X136525000Y-126305000D02*
X137855000Y-126305000D01*
X137855000Y-126305000D02*
X137855000Y-127635000D01*
X124515000Y-59160000D02*
X124515000Y-62760000D01*
X124526522Y-59121522D02*
G75*
G02X128965000Y-60960000I1838478J-1838478D01*
G01*
X124526522Y-62798478D02*
G75*
G03X128965000Y-60960000I1838478J1838478D01*
G01*
X138485000Y-59160000D02*
X138485000Y-62760000D01*
X138496522Y-59121522D02*
G75*
G02X142935000Y-60960000I1838478J-1838478D01*
G01*
X138496522Y-62798478D02*
G75*
G03X142935000Y-60960000I1838478J1838478D01*
G01*
X152455000Y-59160000D02*
X152455000Y-62760000D01*
X152466522Y-59121522D02*
G75*
G02X156905000Y-60960000I1838478J-1838478D01*
G01*
X152466522Y-62798478D02*
G75*
G03X156905000Y-60960000I1838478J1838478D01*
G01*
X166425000Y-59160000D02*
X166425000Y-62760000D01*
X166436522Y-59121522D02*
G75*
G02X170875000Y-60960000I1838478J-1838478D01*
G01*
X166436522Y-62798478D02*
G75*
G03X170875000Y-60960000I1838478J1838478D01*
G01*
X180395000Y-59160000D02*
X180395000Y-62760000D01*
X180406522Y-59121522D02*
G75*
G02X184845000Y-60960000I1838478J-1838478D01*
G01*
X180406522Y-62798478D02*
G75*
G03X184845000Y-60960000I1838478J1838478D01*
G01*
X194365000Y-59160000D02*
X194365000Y-62760000D01*
X194376522Y-59121522D02*
G75*
G02X198815000Y-60960000I1838478J-1838478D01*
G01*
X194376522Y-62798478D02*
G75*
G03X198815000Y-60960000I1838478J1838478D01*
G01*
D11*
X127002214Y-51990000D02*
G75*
G03X127002214Y-51990000I-447214J0D01*
G01*
X119555000Y-41990000D02*
X118555000Y-46990000D01*
X118555000Y-46990000D02*
X117555000Y-51990000D01*
X117555000Y-51990000D02*
X124555000Y-51990000D01*
X124555000Y-51990000D02*
X125555000Y-46990000D01*
X126555000Y-41990000D02*
X125555000Y-46990000D01*
X125555000Y-46990000D02*
X118555000Y-46990000D01*
X119555000Y-41990000D02*
X126555000Y-41990000D01*
X128855000Y-56590000D02*
X116255000Y-56590000D01*
X116255000Y-41290000D02*
X116255000Y-52690000D01*
X128855000Y-41290000D02*
X128855000Y-52690000D01*
X116255000Y-37390000D02*
X128855000Y-37390000D01*
X140972214Y-51990000D02*
G75*
G03X140972214Y-51990000I-447214J0D01*
G01*
X133525000Y-41990000D02*
X132525000Y-46990000D01*
X132525000Y-46990000D02*
X131525000Y-51990000D01*
X131525000Y-51990000D02*
X138525000Y-51990000D01*
X138525000Y-51990000D02*
X139525000Y-46990000D01*
X140525000Y-41990000D02*
X139525000Y-46990000D01*
X139525000Y-46990000D02*
X132525000Y-46990000D01*
X133525000Y-41990000D02*
X140525000Y-41990000D01*
X142825000Y-56590000D02*
X130225000Y-56590000D01*
X130225000Y-41290000D02*
X130225000Y-52690000D01*
X142825000Y-41290000D02*
X142825000Y-52690000D01*
X130225000Y-37390000D02*
X142825000Y-37390000D01*
X154942214Y-51990000D02*
G75*
G03X154942214Y-51990000I-447214J0D01*
G01*
X147495000Y-41990000D02*
X146495000Y-46990000D01*
X146495000Y-46990000D02*
X145495000Y-51990000D01*
X145495000Y-51990000D02*
X152495000Y-51990000D01*
X152495000Y-51990000D02*
X153495000Y-46990000D01*
X154495000Y-41990000D02*
X153495000Y-46990000D01*
X153495000Y-46990000D02*
X146495000Y-46990000D01*
X147495000Y-41990000D02*
X154495000Y-41990000D01*
X156795000Y-56590000D02*
X144195000Y-56590000D01*
X144195000Y-41290000D02*
X144195000Y-52690000D01*
X156795000Y-41290000D02*
X156795000Y-52690000D01*
X144195000Y-37390000D02*
X156795000Y-37390000D01*
X168912214Y-51990000D02*
G75*
G03X168912214Y-51990000I-447214J0D01*
G01*
X161465000Y-41990000D02*
X160465000Y-46990000D01*
X160465000Y-46990000D02*
X159465000Y-51990000D01*
X159465000Y-51990000D02*
X166465000Y-51990000D01*
X166465000Y-51990000D02*
X167465000Y-46990000D01*
X168465000Y-41990000D02*
X167465000Y-46990000D01*
X167465000Y-46990000D02*
X160465000Y-46990000D01*
X161465000Y-41990000D02*
X168465000Y-41990000D01*
X170765000Y-56590000D02*
X158165000Y-56590000D01*
X158165000Y-41290000D02*
X158165000Y-52690000D01*
X170765000Y-41290000D02*
X170765000Y-52690000D01*
X158165000Y-37390000D02*
X170765000Y-37390000D01*
X182882214Y-51990000D02*
G75*
G03X182882214Y-51990000I-447214J0D01*
G01*
X175435000Y-41990000D02*
X174435000Y-46990000D01*
X174435000Y-46990000D02*
X173435000Y-51990000D01*
X173435000Y-51990000D02*
X180435000Y-51990000D01*
X180435000Y-51990000D02*
X181435000Y-46990000D01*
X182435000Y-41990000D02*
X181435000Y-46990000D01*
X181435000Y-46990000D02*
X174435000Y-46990000D01*
X175435000Y-41990000D02*
X182435000Y-41990000D01*
X184735000Y-56590000D02*
X172135000Y-56590000D01*
X172135000Y-41290000D02*
X172135000Y-52690000D01*
X184735000Y-41290000D02*
X184735000Y-52690000D01*
X172135000Y-37390000D02*
X184735000Y-37390000D01*
X196852214Y-51990000D02*
G75*
G03X196852214Y-51990000I-447214J0D01*
G01*
X189405000Y-41990000D02*
X188405000Y-46990000D01*
X188405000Y-46990000D02*
X187405000Y-51990000D01*
X187405000Y-51990000D02*
X194405000Y-51990000D01*
X194405000Y-51990000D02*
X195405000Y-46990000D01*
X196405000Y-41990000D02*
X195405000Y-46990000D01*
X195405000Y-46990000D02*
X188405000Y-46990000D01*
X189405000Y-41990000D02*
X196405000Y-41990000D01*
X198705000Y-56590000D02*
X186105000Y-56590000D01*
X186105000Y-41290000D02*
X186105000Y-52690000D01*
X198705000Y-41290000D02*
X198705000Y-52690000D01*
X186105000Y-37390000D02*
X198705000Y-37390000D01*
D13*
X116265000Y-71060000D02*
X111065000Y-71060000D01*
X116265000Y-119380000D02*
X116265000Y-71060000D01*
X111065000Y-121980000D02*
X111065000Y-71060000D01*
X116265000Y-119380000D02*
X113665000Y-119380000D01*
X113665000Y-119380000D02*
X113665000Y-121980000D01*
X113665000Y-121980000D02*
X111065000Y-121980000D01*
X116265000Y-120650000D02*
X116265000Y-121980000D01*
X116265000Y-121980000D02*
X114935000Y-121980000D01*
X114046000Y-128905000D02*
G75*
G03X114046000Y-128905000I-2286000J0D01*
G01*
X205486000Y-128905000D02*
G75*
G03X205486000Y-128905000I-2286000J0D01*
G01*
X205486000Y-40640000D02*
G75*
G03X205486000Y-40640000I-2286000J0D01*
G01*
X114046000Y-40640000D02*
G75*
G03X114046000Y-40640000I-2286000J0D01*
G01*
X141335000Y-71060000D02*
G75*
G02X139335000Y-71060000I-1000000J0D01*
G01*
X139335000Y-71060000D02*
X137685000Y-71060000D01*
X137685000Y-71060000D02*
X137685000Y-91500000D01*
X137685000Y-91500000D02*
X142985000Y-91500000D01*
X142985000Y-91500000D02*
X142985000Y-71060000D01*
X142985000Y-71060000D02*
X141335000Y-71060000D01*
X135195000Y-71000000D02*
X135195000Y-91560000D01*
X135195000Y-91560000D02*
X145475000Y-91560000D01*
X145475000Y-91560000D02*
X145475000Y-71000000D01*
X145475000Y-71000000D02*
X135195000Y-71000000D01*
X187055000Y-71060000D02*
G75*
G02X185055000Y-71060000I-1000000J0D01*
G01*
X185055000Y-71060000D02*
X183405000Y-71060000D01*
X183405000Y-71060000D02*
X183405000Y-88960000D01*
X183405000Y-88960000D02*
X188705000Y-88960000D01*
X188705000Y-88960000D02*
X188705000Y-71060000D01*
X188705000Y-71060000D02*
X187055000Y-71060000D01*
X180915000Y-71000000D02*
X180915000Y-89020000D01*
X180915000Y-89020000D02*
X191195000Y-89020000D01*
X191195000Y-89020000D02*
X191195000Y-71000000D01*
X191195000Y-71000000D02*
X180915000Y-71000000D01*
X126730000Y-71060000D02*
G75*
G02X124730000Y-71060000I-1000000J0D01*
G01*
X124730000Y-71060000D02*
X123080000Y-71060000D01*
X123080000Y-71060000D02*
X123080000Y-88960000D01*
X123080000Y-88960000D02*
X128380000Y-88960000D01*
X128380000Y-88960000D02*
X128380000Y-71060000D01*
X128380000Y-71060000D02*
X126730000Y-71060000D01*
X120590000Y-71000000D02*
X120590000Y-89020000D01*
X120590000Y-89020000D02*
X130870000Y-89020000D01*
X130870000Y-89020000D02*
X130870000Y-71000000D01*
X130870000Y-71000000D02*
X120590000Y-71000000D01*
X118785000Y-62230000D02*
G75*
G03X118785000Y-62230000I-1310000J0D01*
G01*
X118785000Y-62230000D02*
X121455000Y-62230000D01*
X118785000Y-59055000D02*
G75*
G03X118785000Y-59055000I-1310000J0D01*
G01*
X118785000Y-59055000D02*
X121455000Y-59055000D01*
X132755000Y-62230000D02*
G75*
G03X132755000Y-62230000I-1310000J0D01*
G01*
X132755000Y-62230000D02*
X135425000Y-62230000D01*
X132755000Y-59055000D02*
G75*
G03X132755000Y-59055000I-1310000J0D01*
G01*
X132755000Y-59055000D02*
X135425000Y-59055000D01*
X146725000Y-62230000D02*
G75*
G03X146725000Y-62230000I-1310000J0D01*
G01*
X146725000Y-62230000D02*
X149395000Y-62230000D01*
X146725000Y-59055000D02*
G75*
G03X146725000Y-59055000I-1310000J0D01*
G01*
X146725000Y-59055000D02*
X149395000Y-59055000D01*
X160695000Y-62230000D02*
G75*
G03X160695000Y-62230000I-1310000J0D01*
G01*
X160695000Y-62230000D02*
X163365000Y-62230000D01*
X160695000Y-59055000D02*
G75*
G03X160695000Y-59055000I-1310000J0D01*
G01*
X160695000Y-59055000D02*
X163365000Y-59055000D01*
X174665000Y-62230000D02*
G75*
G03X174665000Y-62230000I-1310000J0D01*
G01*
X174665000Y-62230000D02*
X177335000Y-62230000D01*
X174665000Y-59055000D02*
G75*
G03X174665000Y-59055000I-1310000J0D01*
G01*
X174665000Y-59055000D02*
X177335000Y-59055000D01*
X188635000Y-62230000D02*
G75*
G03X188635000Y-62230000I-1310000J0D01*
G01*
X188635000Y-62230000D02*
X191305000Y-62230000D01*
X188635000Y-59055000D02*
G75*
G03X188635000Y-59055000I-1310000J0D01*
G01*
X188635000Y-59055000D02*
X191305000Y-59055000D01*
X142785000Y-69890000D02*
X137965000Y-69890000D01*
X142785000Y-67270000D02*
X137965000Y-67270000D01*
X142785000Y-69890000D02*
X142785000Y-69576000D01*
X142785000Y-67584000D02*
X142785000Y-67270000D01*
X137965000Y-69890000D02*
X137965000Y-69576000D01*
X137965000Y-67584000D02*
X137965000Y-67270000D01*
X188505000Y-69890000D02*
X183685000Y-69890000D01*
X188505000Y-67270000D02*
X183685000Y-67270000D01*
X188505000Y-69890000D02*
X188505000Y-69576000D01*
X188505000Y-67584000D02*
X188505000Y-67270000D01*
X183685000Y-69890000D02*
X183685000Y-69576000D01*
X183685000Y-67584000D02*
X183685000Y-67270000D01*
X128180000Y-69890000D02*
X123360000Y-69890000D01*
X128180000Y-67270000D02*
X123360000Y-67270000D01*
X128180000Y-69890000D02*
X128180000Y-69576000D01*
X128180000Y-67584000D02*
X128180000Y-67270000D01*
X123360000Y-69890000D02*
X123360000Y-69576000D01*
X123360000Y-67584000D02*
X123360000Y-67270000D01*
X157390000Y-69890000D02*
X152570000Y-69890000D01*
X157390000Y-67270000D02*
X152570000Y-67270000D01*
X157390000Y-69890000D02*
X157390000Y-69576000D01*
X157390000Y-67584000D02*
X157390000Y-67270000D01*
X152570000Y-69890000D02*
X152570000Y-69576000D01*
X152570000Y-67584000D02*
X152570000Y-67270000D01*
X206545000Y-46930000D02*
X206545000Y-62290000D01*
X206545000Y-62290000D02*
X209205000Y-62290000D01*
X209205000Y-62290000D02*
X209205000Y-46930000D01*
X209205000Y-46930000D02*
X206545000Y-46930000D01*
X209205000Y-47880000D02*
X215205000Y-47880000D01*
X215205000Y-47880000D02*
X215205000Y-48640000D01*
X215205000Y-48640000D02*
X209205000Y-48640000D01*
X209205000Y-47940000D02*
X215205000Y-47940000D01*
X209205000Y-48060000D02*
X215205000Y-48060000D01*
X209205000Y-48180000D02*
X215205000Y-48180000D01*
X209205000Y-48300000D02*
X215205000Y-48300000D01*
X209205000Y-48420000D02*
X215205000Y-48420000D01*
X209205000Y-48540000D02*
X215205000Y-48540000D01*
X206215000Y-47880000D02*
X206545000Y-47880000D01*
X206215000Y-48640000D02*
X206545000Y-48640000D01*
X206545000Y-49530000D02*
X209205000Y-49530000D01*
X209205000Y-50420000D02*
X215205000Y-50420000D01*
X215205000Y-50420000D02*
X215205000Y-51180000D01*
X215205000Y-51180000D02*
X209205000Y-51180000D01*
X206147929Y-50420000D02*
X206545000Y-50420000D01*
X206147929Y-51180000D02*
X206545000Y-51180000D01*
X206545000Y-52070000D02*
X209205000Y-52070000D01*
X209205000Y-52960000D02*
X215205000Y-52960000D01*
X215205000Y-52960000D02*
X215205000Y-53720000D01*
X215205000Y-53720000D02*
X209205000Y-53720000D01*
X206147929Y-52960000D02*
X206545000Y-52960000D01*
X206147929Y-53720000D02*
X206545000Y-53720000D01*
X206545000Y-54610000D02*
X209205000Y-54610000D01*
X209205000Y-55500000D02*
X215205000Y-55500000D01*
X215205000Y-55500000D02*
X215205000Y-56260000D01*
X215205000Y-56260000D02*
X209205000Y-56260000D01*
X206147929Y-55500000D02*
X206545000Y-55500000D01*
X206147929Y-56260000D02*
X206545000Y-56260000D01*
X206545000Y-57150000D02*
X209205000Y-57150000D01*
X209205000Y-58040000D02*
X215205000Y-58040000D01*
X215205000Y-58040000D02*
X215205000Y-58800000D01*
X215205000Y-58800000D02*
X209205000Y-58800000D01*
X206147929Y-58040000D02*
X206545000Y-58040000D01*
X206147929Y-58800000D02*
X206545000Y-58800000D01*
X206545000Y-59690000D02*
X209205000Y-59690000D01*
X209205000Y-60580000D02*
X215205000Y-60580000D01*
X215205000Y-60580000D02*
X215205000Y-61340000D01*
X215205000Y-61340000D02*
X209205000Y-61340000D01*
X206147929Y-60580000D02*
X206545000Y-60580000D01*
X206147929Y-61340000D02*
X206545000Y-61340000D01*
X203835000Y-48260000D02*
X203835000Y-46990000D01*
X203835000Y-46990000D02*
X205105000Y-46990000D01*
X201870000Y-96580000D02*
X204530000Y-96580000D01*
X201870000Y-93980000D02*
X201870000Y-96580000D01*
X204530000Y-93980000D02*
X204530000Y-96580000D01*
X201870000Y-93980000D02*
X204530000Y-93980000D01*
X201870000Y-92710000D02*
X201870000Y-91380000D01*
X201870000Y-91380000D02*
X203200000Y-91380000D01*
X196790000Y-96580000D02*
X199450000Y-96580000D01*
X196790000Y-93980000D02*
X196790000Y-96580000D01*
X199450000Y-93980000D02*
X199450000Y-96580000D01*
X196790000Y-93980000D02*
X199450000Y-93980000D01*
X196790000Y-92710000D02*
X196790000Y-91380000D01*
X196790000Y-91380000D02*
X198120000Y-91380000D01*
X191710000Y-96580000D02*
X194370000Y-96580000D01*
X191710000Y-93980000D02*
X191710000Y-96580000D01*
X194370000Y-93980000D02*
X194370000Y-96580000D01*
X191710000Y-93980000D02*
X194370000Y-93980000D01*
X191710000Y-92710000D02*
X191710000Y-91380000D01*
X191710000Y-91380000D02*
X193040000Y-91380000D01*
X155940000Y-71060000D02*
G75*
G02X153940000Y-71060000I-1000000J0D01*
G01*
X153940000Y-71060000D02*
X152290000Y-71060000D01*
X152290000Y-71060000D02*
X152290000Y-88960000D01*
X152290000Y-88960000D02*
X157590000Y-88960000D01*
X157590000Y-88960000D02*
X157590000Y-71060000D01*
X157590000Y-71060000D02*
X155940000Y-71060000D01*
X149800000Y-71000000D02*
X149800000Y-89020000D01*
X149800000Y-89020000D02*
X160080000Y-89020000D01*
X160080000Y-89020000D02*
X160080000Y-71000000D01*
X160080000Y-71000000D02*
X149800000Y-71000000D01*
X173390000Y-89575000D02*
X173390000Y-86955000D01*
X173390000Y-86955000D02*
X166970000Y-86955000D01*
X166970000Y-86955000D02*
X166970000Y-89575000D01*
X166970000Y-89575000D02*
X173390000Y-89575000D01*
X174280000Y-88265000D02*
X173390000Y-88265000D01*
X166080000Y-88265000D02*
X166970000Y-88265000D01*
X173390000Y-80050000D02*
X173390000Y-77430000D01*
X173390000Y-77430000D02*
X166970000Y-77430000D01*
X166970000Y-77430000D02*
X166970000Y-80050000D01*
X166970000Y-80050000D02*
X173390000Y-80050000D01*
X174280000Y-78740000D02*
X173390000Y-78740000D01*
X166080000Y-78740000D02*
X166970000Y-78740000D01*
X173390000Y-73700000D02*
X173390000Y-71080000D01*
X173390000Y-71080000D02*
X166970000Y-71080000D01*
X166970000Y-71080000D02*
X166970000Y-73700000D01*
X166970000Y-73700000D02*
X173390000Y-73700000D01*
X174280000Y-72390000D02*
X173390000Y-72390000D01*
X166080000Y-72390000D02*
X166970000Y-72390000D01*
X173390000Y-76875000D02*
X173390000Y-74255000D01*
X173390000Y-74255000D02*
X166970000Y-74255000D01*
X166970000Y-74255000D02*
X166970000Y-76875000D01*
X166970000Y-76875000D02*
X173390000Y-76875000D01*
X174280000Y-75565000D02*
X173390000Y-75565000D01*
X166080000Y-75565000D02*
X166970000Y-75565000D01*
X173390000Y-83225000D02*
X173390000Y-80605000D01*
X173390000Y-80605000D02*
X166970000Y-80605000D01*
X166970000Y-80605000D02*
X166970000Y-83225000D01*
X166970000Y-83225000D02*
X173390000Y-83225000D01*
X174280000Y-81915000D02*
X173390000Y-81915000D01*
X166080000Y-81915000D02*
X166970000Y-81915000D01*
X196815000Y-70445000D02*
X196815000Y-73065000D01*
X196815000Y-73065000D02*
X203235000Y-73065000D01*
X203235000Y-73065000D02*
X203235000Y-70445000D01*
X203235000Y-70445000D02*
X196815000Y-70445000D01*
X195925000Y-71755000D02*
X196815000Y-71755000D01*
X204125000Y-71755000D02*
X203235000Y-71755000D01*
X196815000Y-73620000D02*
X196815000Y-76240000D01*
X196815000Y-76240000D02*
X203235000Y-76240000D01*
X203235000Y-76240000D02*
X203235000Y-73620000D01*
X203235000Y-73620000D02*
X196815000Y-73620000D01*
X195925000Y-74930000D02*
X196815000Y-74930000D01*
X204125000Y-74930000D02*
X203235000Y-74930000D01*
X196815000Y-76795000D02*
X196815000Y-79415000D01*
X196815000Y-79415000D02*
X203235000Y-79415000D01*
X203235000Y-79415000D02*
X203235000Y-76795000D01*
X203235000Y-76795000D02*
X196815000Y-76795000D01*
X195925000Y-78105000D02*
X196815000Y-78105000D01*
X204125000Y-78105000D02*
X203235000Y-78105000D01*
X196815000Y-79970000D02*
X196815000Y-82590000D01*
X196815000Y-82590000D02*
X203235000Y-82590000D01*
X203235000Y-82590000D02*
X203235000Y-79970000D01*
X203235000Y-79970000D02*
X196815000Y-79970000D01*
X195925000Y-81280000D02*
X196815000Y-81280000D01*
X204125000Y-81280000D02*
X203235000Y-81280000D01*
X196815000Y-83145000D02*
X196815000Y-85765000D01*
X196815000Y-85765000D02*
X203235000Y-85765000D01*
X203235000Y-85765000D02*
X203235000Y-83145000D01*
X203235000Y-83145000D02*
X196815000Y-83145000D01*
X195925000Y-84455000D02*
X196815000Y-84455000D01*
X204125000Y-84455000D02*
X203235000Y-84455000D01*
X196815000Y-86320000D02*
X196815000Y-88940000D01*
X196815000Y-88940000D02*
X203235000Y-88940000D01*
X203235000Y-88940000D02*
X203235000Y-86320000D01*
X203235000Y-86320000D02*
X196815000Y-86320000D01*
X195925000Y-87630000D02*
X196815000Y-87630000D01*
X204125000Y-87630000D02*
X203235000Y-87630000D01*
X166970000Y-83780000D02*
X166970000Y-86400000D01*
X166970000Y-86400000D02*
X173390000Y-86400000D01*
X173390000Y-86400000D02*
X173390000Y-83780000D01*
X173390000Y-83780000D02*
X166970000Y-83780000D01*
X166080000Y-85090000D02*
X166970000Y-85090000D01*
X174280000Y-85090000D02*
X173390000Y-85090000D01*
X129575000Y-121960000D02*
X129575000Y-119340000D01*
X129575000Y-119340000D02*
X123155000Y-119340000D01*
X123155000Y-119340000D02*
X123155000Y-121960000D01*
X123155000Y-121960000D02*
X129575000Y-121960000D01*
X130465000Y-120650000D02*
X129575000Y-120650000D01*
X122265000Y-120650000D02*
X123155000Y-120650000D01*
D11*
X198112143Y-69032381D02*
X197778809Y-68556190D01*
X197540714Y-69032381D02*
X197540714Y-68032381D01*
X197921667Y-68032381D01*
X198016905Y-68080000D01*
X198064524Y-68127619D01*
X198112143Y-68222857D01*
X198112143Y-68365714D01*
X198064524Y-68460952D01*
X198016905Y-68508571D01*
X197921667Y-68556190D01*
X197540714Y-68556190D01*
X199064524Y-69032381D02*
X198493095Y-69032381D01*
X198778809Y-69032381D02*
X198778809Y-68032381D01*
X198683571Y-68175238D01*
X198588333Y-68270476D01*
X198493095Y-68318095D01*
X199921667Y-68365714D02*
X199921667Y-69032381D01*
X199683571Y-67984762D02*
X199445476Y-68699048D01*
X200064524Y-68699048D01*
X201358571Y-68460952D02*
X201263333Y-68413333D01*
X201215714Y-68365714D01*
X201168095Y-68270476D01*
X201168095Y-68222857D01*
X201215714Y-68127619D01*
X201263333Y-68080000D01*
X201358571Y-68032381D01*
X201549048Y-68032381D01*
X201644286Y-68080000D01*
X201691905Y-68127619D01*
X201739524Y-68222857D01*
X201739524Y-68270476D01*
X201691905Y-68365714D01*
X201644286Y-68413333D01*
X201549048Y-68460952D01*
X201358571Y-68460952D01*
X201263333Y-68508571D01*
X201215714Y-68556190D01*
X201168095Y-68651429D01*
X201168095Y-68841905D01*
X201215714Y-68937143D01*
X201263333Y-68984762D01*
X201358571Y-69032381D01*
X201549048Y-69032381D01*
X201644286Y-68984762D01*
X201691905Y-68937143D01*
X201739524Y-68841905D01*
X201739524Y-68651429D01*
X201691905Y-68556190D01*
X201644286Y-68508571D01*
X201549048Y-68460952D01*
X202120476Y-68127619D02*
X202168095Y-68080000D01*
X202263333Y-68032381D01*
X202501429Y-68032381D01*
X202596667Y-68080000D01*
X202644286Y-68127619D01*
X202691905Y-68222857D01*
X202691905Y-68318095D01*
X202644286Y-68460952D01*
X202072857Y-69032381D01*
X202691905Y-69032381D01*
X138307381Y-129238333D02*
X139021667Y-129238333D01*
X139164524Y-129285953D01*
X139259762Y-129381191D01*
X139307381Y-129524048D01*
X139307381Y-129619286D01*
X139307381Y-128238333D02*
X139307381Y-128809762D01*
X139307381Y-128524048D02*
X138307381Y-128524048D01*
X138450238Y-128619286D01*
X138545476Y-128714524D01*
X138593095Y-128809762D01*
X130472619Y-61055238D02*
X130425000Y-61150476D01*
X130329762Y-61245714D01*
X130186905Y-61388571D01*
X130139286Y-61483810D01*
X130139286Y-61579048D01*
X130377381Y-61531429D02*
X130329762Y-61626667D01*
X130234524Y-61721905D01*
X130044048Y-61769524D01*
X129710714Y-61769524D01*
X129520238Y-61721905D01*
X129425000Y-61626667D01*
X129377381Y-61531429D01*
X129377381Y-61340952D01*
X129425000Y-61245714D01*
X129520238Y-61150476D01*
X129710714Y-61102857D01*
X130044048Y-61102857D01*
X130234524Y-61150476D01*
X130329762Y-61245714D01*
X130377381Y-61340952D01*
X130377381Y-61531429D01*
X130377381Y-60150476D02*
X130377381Y-60721905D01*
X130377381Y-60436191D02*
X129377381Y-60436191D01*
X129520238Y-60531429D01*
X129615476Y-60626667D01*
X129663095Y-60721905D01*
X144442619Y-61055238D02*
X144395000Y-61150476D01*
X144299762Y-61245714D01*
X144156905Y-61388571D01*
X144109286Y-61483810D01*
X144109286Y-61579048D01*
X144347381Y-61531429D02*
X144299762Y-61626667D01*
X144204524Y-61721905D01*
X144014048Y-61769524D01*
X143680714Y-61769524D01*
X143490238Y-61721905D01*
X143395000Y-61626667D01*
X143347381Y-61531429D01*
X143347381Y-61340952D01*
X143395000Y-61245714D01*
X143490238Y-61150476D01*
X143680714Y-61102857D01*
X144014048Y-61102857D01*
X144204524Y-61150476D01*
X144299762Y-61245714D01*
X144347381Y-61340952D01*
X144347381Y-61531429D01*
X143442619Y-60721905D02*
X143395000Y-60674286D01*
X143347381Y-60579048D01*
X143347381Y-60340952D01*
X143395000Y-60245714D01*
X143442619Y-60198095D01*
X143537857Y-60150476D01*
X143633095Y-60150476D01*
X143775952Y-60198095D01*
X144347381Y-60769524D01*
X144347381Y-60150476D01*
X158412619Y-61055238D02*
X158365000Y-61150476D01*
X158269762Y-61245714D01*
X158126905Y-61388571D01*
X158079286Y-61483810D01*
X158079286Y-61579048D01*
X158317381Y-61531429D02*
X158269762Y-61626667D01*
X158174524Y-61721905D01*
X157984048Y-61769524D01*
X157650714Y-61769524D01*
X157460238Y-61721905D01*
X157365000Y-61626667D01*
X157317381Y-61531429D01*
X157317381Y-61340952D01*
X157365000Y-61245714D01*
X157460238Y-61150476D01*
X157650714Y-61102857D01*
X157984048Y-61102857D01*
X158174524Y-61150476D01*
X158269762Y-61245714D01*
X158317381Y-61340952D01*
X158317381Y-61531429D01*
X157317381Y-60769524D02*
X157317381Y-60150476D01*
X157698333Y-60483810D01*
X157698333Y-60340952D01*
X157745952Y-60245714D01*
X157793571Y-60198095D01*
X157888810Y-60150476D01*
X158126905Y-60150476D01*
X158222143Y-60198095D01*
X158269762Y-60245714D01*
X158317381Y-60340952D01*
X158317381Y-60626667D01*
X158269762Y-60721905D01*
X158222143Y-60769524D01*
X172382619Y-61055238D02*
X172335000Y-61150476D01*
X172239762Y-61245714D01*
X172096905Y-61388571D01*
X172049286Y-61483810D01*
X172049286Y-61579048D01*
X172287381Y-61531429D02*
X172239762Y-61626667D01*
X172144524Y-61721905D01*
X171954048Y-61769524D01*
X171620714Y-61769524D01*
X171430238Y-61721905D01*
X171335000Y-61626667D01*
X171287381Y-61531429D01*
X171287381Y-61340952D01*
X171335000Y-61245714D01*
X171430238Y-61150476D01*
X171620714Y-61102857D01*
X171954048Y-61102857D01*
X172144524Y-61150476D01*
X172239762Y-61245714D01*
X172287381Y-61340952D01*
X172287381Y-61531429D01*
X171620714Y-60245714D02*
X172287381Y-60245714D01*
X171239762Y-60483810D02*
X171954048Y-60721905D01*
X171954048Y-60102857D01*
X186352619Y-61055238D02*
X186305000Y-61150476D01*
X186209762Y-61245714D01*
X186066905Y-61388571D01*
X186019286Y-61483810D01*
X186019286Y-61579048D01*
X186257381Y-61531429D02*
X186209762Y-61626667D01*
X186114524Y-61721905D01*
X185924048Y-61769524D01*
X185590714Y-61769524D01*
X185400238Y-61721905D01*
X185305000Y-61626667D01*
X185257381Y-61531429D01*
X185257381Y-61340952D01*
X185305000Y-61245714D01*
X185400238Y-61150476D01*
X185590714Y-61102857D01*
X185924048Y-61102857D01*
X186114524Y-61150476D01*
X186209762Y-61245714D01*
X186257381Y-61340952D01*
X186257381Y-61531429D01*
X185257381Y-60198095D02*
X185257381Y-60674286D01*
X185733571Y-60721905D01*
X185685952Y-60674286D01*
X185638333Y-60579048D01*
X185638333Y-60340952D01*
X185685952Y-60245714D01*
X185733571Y-60198095D01*
X185828810Y-60150476D01*
X186066905Y-60150476D01*
X186162143Y-60198095D01*
X186209762Y-60245714D01*
X186257381Y-60340952D01*
X186257381Y-60579048D01*
X186209762Y-60674286D01*
X186162143Y-60721905D01*
X200322619Y-61055238D02*
X200275000Y-61150476D01*
X200179762Y-61245714D01*
X200036905Y-61388571D01*
X199989286Y-61483810D01*
X199989286Y-61579048D01*
X200227381Y-61531429D02*
X200179762Y-61626667D01*
X200084524Y-61721905D01*
X199894048Y-61769524D01*
X199560714Y-61769524D01*
X199370238Y-61721905D01*
X199275000Y-61626667D01*
X199227381Y-61531429D01*
X199227381Y-61340952D01*
X199275000Y-61245714D01*
X199370238Y-61150476D01*
X199560714Y-61102857D01*
X199894048Y-61102857D01*
X200084524Y-61150476D01*
X200179762Y-61245714D01*
X200227381Y-61340952D01*
X200227381Y-61531429D01*
X199227381Y-60245714D02*
X199227381Y-60436191D01*
X199275000Y-60531429D01*
X199322619Y-60579048D01*
X199465476Y-60674286D01*
X199655952Y-60721905D01*
X200036905Y-60721905D01*
X200132143Y-60674286D01*
X200179762Y-60626667D01*
X200227381Y-60531429D01*
X200227381Y-60340952D01*
X200179762Y-60245714D01*
X200132143Y-60198095D01*
X200036905Y-60150476D01*
X199798810Y-60150476D01*
X199703571Y-60198095D01*
X199655952Y-60245714D01*
X199608333Y-60340952D01*
X199608333Y-60531429D01*
X199655952Y-60626667D01*
X199703571Y-60674286D01*
X199798810Y-60721905D01*
X119713571Y-45886667D02*
X120189762Y-45886667D01*
X119618333Y-46172381D02*
X119951666Y-45172381D01*
X120285000Y-46172381D01*
X120951667Y-45648571D02*
X120618333Y-45648571D01*
X120618333Y-46172381D02*
X120618333Y-45172381D01*
X121094524Y-45172381D01*
X121808810Y-45648571D02*
X121475476Y-45648571D01*
X121475476Y-46172381D02*
X121475476Y-45172381D01*
X121951667Y-45172381D01*
X122856429Y-46172381D02*
X122285000Y-46172381D01*
X122570714Y-46172381D02*
X122570714Y-45172381D01*
X122475476Y-45315238D01*
X122380238Y-45410476D01*
X122285000Y-45458095D01*
X121102619Y-51252381D02*
X121102619Y-50252381D01*
X121340714Y-50252381D01*
X121483572Y-50300000D01*
X121578810Y-50395238D01*
X121626429Y-50490476D01*
X121674048Y-50680952D01*
X121674048Y-50823810D01*
X121626429Y-51014286D01*
X121578810Y-51109524D01*
X121483572Y-51204762D01*
X121340714Y-51252381D01*
X121102619Y-51252381D01*
X122102619Y-51252381D02*
X122102619Y-50252381D01*
X122531190Y-51204762D02*
X122674047Y-51252381D01*
X122912143Y-51252381D01*
X123007381Y-51204762D01*
X123055000Y-51157143D01*
X123102619Y-51061905D01*
X123102619Y-50966667D01*
X123055000Y-50871429D01*
X123007381Y-50823810D01*
X122912143Y-50776190D01*
X122721666Y-50728571D01*
X122626428Y-50680952D01*
X122578809Y-50633333D01*
X122531190Y-50538095D01*
X122531190Y-50442857D01*
X122578809Y-50347619D01*
X122626428Y-50300000D01*
X122721666Y-50252381D01*
X122959762Y-50252381D01*
X123102619Y-50300000D01*
X124055000Y-51252381D02*
X123483571Y-51252381D01*
X123769285Y-51252381D02*
X123769285Y-50252381D01*
X123674047Y-50395238D01*
X123578809Y-50490476D01*
X123483571Y-50538095D01*
X133683571Y-45886667D02*
X134159762Y-45886667D01*
X133588333Y-46172381D02*
X133921666Y-45172381D01*
X134255000Y-46172381D01*
X134921667Y-45648571D02*
X134588333Y-45648571D01*
X134588333Y-46172381D02*
X134588333Y-45172381D01*
X135064524Y-45172381D01*
X135778810Y-45648571D02*
X135445476Y-45648571D01*
X135445476Y-46172381D02*
X135445476Y-45172381D01*
X135921667Y-45172381D01*
X136255000Y-45267619D02*
X136302619Y-45220000D01*
X136397857Y-45172381D01*
X136635953Y-45172381D01*
X136731191Y-45220000D01*
X136778810Y-45267619D01*
X136826429Y-45362857D01*
X136826429Y-45458095D01*
X136778810Y-45600952D01*
X136207381Y-46172381D01*
X136826429Y-46172381D01*
X135072619Y-51252381D02*
X135072619Y-50252381D01*
X135310714Y-50252381D01*
X135453572Y-50300000D01*
X135548810Y-50395238D01*
X135596429Y-50490476D01*
X135644048Y-50680952D01*
X135644048Y-50823810D01*
X135596429Y-51014286D01*
X135548810Y-51109524D01*
X135453572Y-51204762D01*
X135310714Y-51252381D01*
X135072619Y-51252381D01*
X136072619Y-51252381D02*
X136072619Y-50252381D01*
X136501190Y-51204762D02*
X136644047Y-51252381D01*
X136882143Y-51252381D01*
X136977381Y-51204762D01*
X137025000Y-51157143D01*
X137072619Y-51061905D01*
X137072619Y-50966667D01*
X137025000Y-50871429D01*
X136977381Y-50823810D01*
X136882143Y-50776190D01*
X136691666Y-50728571D01*
X136596428Y-50680952D01*
X136548809Y-50633333D01*
X136501190Y-50538095D01*
X136501190Y-50442857D01*
X136548809Y-50347619D01*
X136596428Y-50300000D01*
X136691666Y-50252381D01*
X136929762Y-50252381D01*
X137072619Y-50300000D01*
X137453571Y-50347619D02*
X137501190Y-50300000D01*
X137596428Y-50252381D01*
X137834524Y-50252381D01*
X137929762Y-50300000D01*
X137977381Y-50347619D01*
X138025000Y-50442857D01*
X138025000Y-50538095D01*
X137977381Y-50680952D01*
X137405952Y-51252381D01*
X138025000Y-51252381D01*
X147653571Y-45886667D02*
X148129762Y-45886667D01*
X147558333Y-46172381D02*
X147891666Y-45172381D01*
X148225000Y-46172381D01*
X148891667Y-45648571D02*
X148558333Y-45648571D01*
X148558333Y-46172381D02*
X148558333Y-45172381D01*
X149034524Y-45172381D01*
X149748810Y-45648571D02*
X149415476Y-45648571D01*
X149415476Y-46172381D02*
X149415476Y-45172381D01*
X149891667Y-45172381D01*
X150177381Y-45172381D02*
X150796429Y-45172381D01*
X150463095Y-45553333D01*
X150605953Y-45553333D01*
X150701191Y-45600952D01*
X150748810Y-45648571D01*
X150796429Y-45743810D01*
X150796429Y-45981905D01*
X150748810Y-46077143D01*
X150701191Y-46124762D01*
X150605953Y-46172381D01*
X150320238Y-46172381D01*
X150225000Y-46124762D01*
X150177381Y-46077143D01*
X149042619Y-51252381D02*
X149042619Y-50252381D01*
X149280714Y-50252381D01*
X149423572Y-50300000D01*
X149518810Y-50395238D01*
X149566429Y-50490476D01*
X149614048Y-50680952D01*
X149614048Y-50823810D01*
X149566429Y-51014286D01*
X149518810Y-51109524D01*
X149423572Y-51204762D01*
X149280714Y-51252381D01*
X149042619Y-51252381D01*
X150042619Y-51252381D02*
X150042619Y-50252381D01*
X150471190Y-51204762D02*
X150614047Y-51252381D01*
X150852143Y-51252381D01*
X150947381Y-51204762D01*
X150995000Y-51157143D01*
X151042619Y-51061905D01*
X151042619Y-50966667D01*
X150995000Y-50871429D01*
X150947381Y-50823810D01*
X150852143Y-50776190D01*
X150661666Y-50728571D01*
X150566428Y-50680952D01*
X150518809Y-50633333D01*
X150471190Y-50538095D01*
X150471190Y-50442857D01*
X150518809Y-50347619D01*
X150566428Y-50300000D01*
X150661666Y-50252381D01*
X150899762Y-50252381D01*
X151042619Y-50300000D01*
X151375952Y-50252381D02*
X151995000Y-50252381D01*
X151661666Y-50633333D01*
X151804524Y-50633333D01*
X151899762Y-50680952D01*
X151947381Y-50728571D01*
X151995000Y-50823810D01*
X151995000Y-51061905D01*
X151947381Y-51157143D01*
X151899762Y-51204762D01*
X151804524Y-51252381D01*
X151518809Y-51252381D01*
X151423571Y-51204762D01*
X151375952Y-51157143D01*
X161623571Y-45886667D02*
X162099762Y-45886667D01*
X161528333Y-46172381D02*
X161861666Y-45172381D01*
X162195000Y-46172381D01*
X162861667Y-45648571D02*
X162528333Y-45648571D01*
X162528333Y-46172381D02*
X162528333Y-45172381D01*
X163004524Y-45172381D01*
X163718810Y-45648571D02*
X163385476Y-45648571D01*
X163385476Y-46172381D02*
X163385476Y-45172381D01*
X163861667Y-45172381D01*
X164671191Y-45505714D02*
X164671191Y-46172381D01*
X164433095Y-45124762D02*
X164195000Y-45839048D01*
X164814048Y-45839048D01*
X163012619Y-51252381D02*
X163012619Y-50252381D01*
X163250714Y-50252381D01*
X163393572Y-50300000D01*
X163488810Y-50395238D01*
X163536429Y-50490476D01*
X163584048Y-50680952D01*
X163584048Y-50823810D01*
X163536429Y-51014286D01*
X163488810Y-51109524D01*
X163393572Y-51204762D01*
X163250714Y-51252381D01*
X163012619Y-51252381D01*
X164012619Y-51252381D02*
X164012619Y-50252381D01*
X164441190Y-51204762D02*
X164584047Y-51252381D01*
X164822143Y-51252381D01*
X164917381Y-51204762D01*
X164965000Y-51157143D01*
X165012619Y-51061905D01*
X165012619Y-50966667D01*
X164965000Y-50871429D01*
X164917381Y-50823810D01*
X164822143Y-50776190D01*
X164631666Y-50728571D01*
X164536428Y-50680952D01*
X164488809Y-50633333D01*
X164441190Y-50538095D01*
X164441190Y-50442857D01*
X164488809Y-50347619D01*
X164536428Y-50300000D01*
X164631666Y-50252381D01*
X164869762Y-50252381D01*
X165012619Y-50300000D01*
X165869762Y-50585714D02*
X165869762Y-51252381D01*
X165631666Y-50204762D02*
X165393571Y-50919048D01*
X166012619Y-50919048D01*
X175593571Y-45886667D02*
X176069762Y-45886667D01*
X175498333Y-46172381D02*
X175831666Y-45172381D01*
X176165000Y-46172381D01*
X176831667Y-45648571D02*
X176498333Y-45648571D01*
X176498333Y-46172381D02*
X176498333Y-45172381D01*
X176974524Y-45172381D01*
X177688810Y-45648571D02*
X177355476Y-45648571D01*
X177355476Y-46172381D02*
X177355476Y-45172381D01*
X177831667Y-45172381D01*
X178688810Y-45172381D02*
X178212619Y-45172381D01*
X178165000Y-45648571D01*
X178212619Y-45600952D01*
X178307857Y-45553333D01*
X178545953Y-45553333D01*
X178641191Y-45600952D01*
X178688810Y-45648571D01*
X178736429Y-45743810D01*
X178736429Y-45981905D01*
X178688810Y-46077143D01*
X178641191Y-46124762D01*
X178545953Y-46172381D01*
X178307857Y-46172381D01*
X178212619Y-46124762D01*
X178165000Y-46077143D01*
X176982619Y-51252381D02*
X176982619Y-50252381D01*
X177220714Y-50252381D01*
X177363572Y-50300000D01*
X177458810Y-50395238D01*
X177506429Y-50490476D01*
X177554048Y-50680952D01*
X177554048Y-50823810D01*
X177506429Y-51014286D01*
X177458810Y-51109524D01*
X177363572Y-51204762D01*
X177220714Y-51252381D01*
X176982619Y-51252381D01*
X177982619Y-51252381D02*
X177982619Y-50252381D01*
X178411190Y-51204762D02*
X178554047Y-51252381D01*
X178792143Y-51252381D01*
X178887381Y-51204762D01*
X178935000Y-51157143D01*
X178982619Y-51061905D01*
X178982619Y-50966667D01*
X178935000Y-50871429D01*
X178887381Y-50823810D01*
X178792143Y-50776190D01*
X178601666Y-50728571D01*
X178506428Y-50680952D01*
X178458809Y-50633333D01*
X178411190Y-50538095D01*
X178411190Y-50442857D01*
X178458809Y-50347619D01*
X178506428Y-50300000D01*
X178601666Y-50252381D01*
X178839762Y-50252381D01*
X178982619Y-50300000D01*
X179887381Y-50252381D02*
X179411190Y-50252381D01*
X179363571Y-50728571D01*
X179411190Y-50680952D01*
X179506428Y-50633333D01*
X179744524Y-50633333D01*
X179839762Y-50680952D01*
X179887381Y-50728571D01*
X179935000Y-50823810D01*
X179935000Y-51061905D01*
X179887381Y-51157143D01*
X179839762Y-51204762D01*
X179744524Y-51252381D01*
X179506428Y-51252381D01*
X179411190Y-51204762D01*
X179363571Y-51157143D01*
X189563571Y-45886667D02*
X190039762Y-45886667D01*
X189468333Y-46172381D02*
X189801666Y-45172381D01*
X190135000Y-46172381D01*
X190801667Y-45648571D02*
X190468333Y-45648571D01*
X190468333Y-46172381D02*
X190468333Y-45172381D01*
X190944524Y-45172381D01*
X191658810Y-45648571D02*
X191325476Y-45648571D01*
X191325476Y-46172381D02*
X191325476Y-45172381D01*
X191801667Y-45172381D01*
X192611191Y-45172381D02*
X192420714Y-45172381D01*
X192325476Y-45220000D01*
X192277857Y-45267619D01*
X192182619Y-45410476D01*
X192135000Y-45600952D01*
X192135000Y-45981905D01*
X192182619Y-46077143D01*
X192230238Y-46124762D01*
X192325476Y-46172381D01*
X192515953Y-46172381D01*
X192611191Y-46124762D01*
X192658810Y-46077143D01*
X192706429Y-45981905D01*
X192706429Y-45743810D01*
X192658810Y-45648571D01*
X192611191Y-45600952D01*
X192515953Y-45553333D01*
X192325476Y-45553333D01*
X192230238Y-45600952D01*
X192182619Y-45648571D01*
X192135000Y-45743810D01*
X190317619Y-51252381D02*
X190317619Y-50252381D01*
X190555714Y-50252381D01*
X190698572Y-50300000D01*
X190793810Y-50395238D01*
X190841429Y-50490476D01*
X190889048Y-50680952D01*
X190889048Y-50823810D01*
X190841429Y-51014286D01*
X190793810Y-51109524D01*
X190698572Y-51204762D01*
X190555714Y-51252381D01*
X190317619Y-51252381D01*
X191317619Y-51252381D02*
X191317619Y-50252381D01*
X191746190Y-51204762D02*
X191889047Y-51252381D01*
X192127143Y-51252381D01*
X192222381Y-51204762D01*
X192270000Y-51157143D01*
X192317619Y-51061905D01*
X192317619Y-50966667D01*
X192270000Y-50871429D01*
X192222381Y-50823810D01*
X192127143Y-50776190D01*
X191936666Y-50728571D01*
X191841428Y-50680952D01*
X191793809Y-50633333D01*
X191746190Y-50538095D01*
X191746190Y-50442857D01*
X191793809Y-50347619D01*
X191841428Y-50300000D01*
X191936666Y-50252381D01*
X192174762Y-50252381D01*
X192317619Y-50300000D01*
X193174762Y-50252381D02*
X192984285Y-50252381D01*
X192889047Y-50300000D01*
X192841428Y-50347619D01*
X192746190Y-50490476D01*
X192698571Y-50680952D01*
X192698571Y-51061905D01*
X192746190Y-51157143D01*
X192793809Y-51204762D01*
X192889047Y-51252381D01*
X193079524Y-51252381D01*
X193174762Y-51204762D01*
X193222381Y-51157143D01*
X193270000Y-51061905D01*
X193270000Y-50823810D01*
X193222381Y-50728571D01*
X193174762Y-50680952D01*
X193079524Y-50633333D01*
X192889047Y-50633333D01*
X192793809Y-50680952D01*
X192746190Y-50728571D01*
X192698571Y-50823810D01*
X113331667Y-122432381D02*
X113331667Y-123146667D01*
X113284047Y-123289524D01*
X113188809Y-123384762D01*
X113045952Y-123432381D01*
X112950714Y-123432381D01*
X113760238Y-122527619D02*
X113807857Y-122480000D01*
X113903095Y-122432381D01*
X114141191Y-122432381D01*
X114236429Y-122480000D01*
X114284048Y-122527619D01*
X114331667Y-122622857D01*
X114331667Y-122718095D01*
X114284048Y-122860952D01*
X113712619Y-123432381D01*
X114331667Y-123432381D01*
X139573095Y-74382381D02*
X139573095Y-75191905D01*
X139620714Y-75287143D01*
X139668333Y-75334762D01*
X139763571Y-75382381D01*
X139954048Y-75382381D01*
X140049286Y-75334762D01*
X140096905Y-75287143D01*
X140144524Y-75191905D01*
X140144524Y-74382381D01*
X141144524Y-75382381D02*
X140573095Y-75382381D01*
X140858809Y-75382381D02*
X140858809Y-74382381D01*
X140763571Y-74525238D01*
X140668333Y-74620476D01*
X140573095Y-74668095D01*
X139787381Y-84399048D02*
X139787381Y-83732381D01*
X140787381Y-84160953D01*
X140120714Y-82922857D02*
X140787381Y-82922857D01*
X139739762Y-83160953D02*
X140454048Y-83399048D01*
X140454048Y-82780000D01*
X140787381Y-81922857D02*
X140787381Y-82399048D01*
X139787381Y-82399048D01*
X140739762Y-81637143D02*
X140787381Y-81494286D01*
X140787381Y-81256190D01*
X140739762Y-81160952D01*
X140692143Y-81113333D01*
X140596905Y-81065714D01*
X140501667Y-81065714D01*
X140406429Y-81113333D01*
X140358810Y-81160952D01*
X140311190Y-81256190D01*
X140263571Y-81446667D01*
X140215952Y-81541905D01*
X140168333Y-81589524D01*
X140073095Y-81637143D01*
X139977857Y-81637143D01*
X139882619Y-81589524D01*
X139835000Y-81541905D01*
X139787381Y-81446667D01*
X139787381Y-81208571D01*
X139835000Y-81065714D01*
X140787381Y-80113333D02*
X140787381Y-80684762D01*
X140787381Y-80399048D02*
X139787381Y-80399048D01*
X139930238Y-80494286D01*
X140025476Y-80589524D01*
X140073095Y-80684762D01*
X140120714Y-79256190D02*
X140787381Y-79256190D01*
X139739762Y-79494286D02*
X140454048Y-79732381D01*
X140454048Y-79113333D01*
X139787381Y-78256190D02*
X139787381Y-78732381D01*
X140263571Y-78780000D01*
X140215952Y-78732381D01*
X140168333Y-78637143D01*
X140168333Y-78399047D01*
X140215952Y-78303809D01*
X140263571Y-78256190D01*
X140358810Y-78208571D01*
X140596905Y-78208571D01*
X140692143Y-78256190D01*
X140739762Y-78303809D01*
X140787381Y-78399047D01*
X140787381Y-78637143D01*
X140739762Y-78732381D01*
X140692143Y-78780000D01*
X185293095Y-74382381D02*
X185293095Y-75191905D01*
X185340714Y-75287143D01*
X185388333Y-75334762D01*
X185483571Y-75382381D01*
X185674048Y-75382381D01*
X185769286Y-75334762D01*
X185816905Y-75287143D01*
X185864524Y-75191905D01*
X185864524Y-74382381D01*
X186293095Y-74477619D02*
X186340714Y-74430000D01*
X186435952Y-74382381D01*
X186674048Y-74382381D01*
X186769286Y-74430000D01*
X186816905Y-74477619D01*
X186864524Y-74572857D01*
X186864524Y-74668095D01*
X186816905Y-74810952D01*
X186245476Y-75382381D01*
X186864524Y-75382381D01*
X185507381Y-82652857D02*
X185507381Y-81986190D01*
X186507381Y-82414762D01*
X185840714Y-81176666D02*
X186507381Y-81176666D01*
X185459762Y-81414762D02*
X186174048Y-81652857D01*
X186174048Y-81033809D01*
X186507381Y-80176666D02*
X186507381Y-80652857D01*
X185507381Y-80652857D01*
X186459762Y-79890952D02*
X186507381Y-79748095D01*
X186507381Y-79509999D01*
X186459762Y-79414761D01*
X186412143Y-79367142D01*
X186316905Y-79319523D01*
X186221667Y-79319523D01*
X186126429Y-79367142D01*
X186078810Y-79414761D01*
X186031190Y-79509999D01*
X185983571Y-79700476D01*
X185935952Y-79795714D01*
X185888333Y-79843333D01*
X185793095Y-79890952D01*
X185697857Y-79890952D01*
X185602619Y-79843333D01*
X185555000Y-79795714D01*
X185507381Y-79700476D01*
X185507381Y-79462380D01*
X185555000Y-79319523D01*
X185507381Y-78700476D02*
X185507381Y-78605237D01*
X185555000Y-78509999D01*
X185602619Y-78462380D01*
X185697857Y-78414761D01*
X185888333Y-78367142D01*
X186126429Y-78367142D01*
X186316905Y-78414761D01*
X186412143Y-78462380D01*
X186459762Y-78509999D01*
X186507381Y-78605237D01*
X186507381Y-78700476D01*
X186459762Y-78795714D01*
X186412143Y-78843333D01*
X186316905Y-78890952D01*
X186126429Y-78938571D01*
X185888333Y-78938571D01*
X185697857Y-78890952D01*
X185602619Y-78843333D01*
X185555000Y-78795714D01*
X185507381Y-78700476D01*
X185507381Y-77509999D02*
X185507381Y-77700476D01*
X185555000Y-77795714D01*
X185602619Y-77843333D01*
X185745476Y-77938571D01*
X185935952Y-77986190D01*
X186316905Y-77986190D01*
X186412143Y-77938571D01*
X186459762Y-77890952D01*
X186507381Y-77795714D01*
X186507381Y-77605237D01*
X186459762Y-77509999D01*
X186412143Y-77462380D01*
X186316905Y-77414761D01*
X186078810Y-77414761D01*
X185983571Y-77462380D01*
X185935952Y-77509999D01*
X185888333Y-77605237D01*
X185888333Y-77795714D01*
X185935952Y-77890952D01*
X185983571Y-77938571D01*
X186078810Y-77986190D01*
X124968095Y-74382381D02*
X124968095Y-75191905D01*
X125015714Y-75287143D01*
X125063333Y-75334762D01*
X125158571Y-75382381D01*
X125349048Y-75382381D01*
X125444286Y-75334762D01*
X125491905Y-75287143D01*
X125539524Y-75191905D01*
X125539524Y-74382381D01*
X125920476Y-74382381D02*
X126539524Y-74382381D01*
X126206190Y-74763333D01*
X126349048Y-74763333D01*
X126444286Y-74810952D01*
X126491905Y-74858571D01*
X126539524Y-74953810D01*
X126539524Y-75191905D01*
X126491905Y-75287143D01*
X126444286Y-75334762D01*
X126349048Y-75382381D01*
X126063333Y-75382381D01*
X125968095Y-75334762D01*
X125920476Y-75287143D01*
X125182381Y-82652857D02*
X125182381Y-81986190D01*
X126182381Y-82414762D01*
X125515714Y-81176666D02*
X126182381Y-81176666D01*
X125134762Y-81414762D02*
X125849048Y-81652857D01*
X125849048Y-81033809D01*
X126182381Y-80176666D02*
X126182381Y-80652857D01*
X125182381Y-80652857D01*
X126134762Y-79890952D02*
X126182381Y-79748095D01*
X126182381Y-79509999D01*
X126134762Y-79414761D01*
X126087143Y-79367142D01*
X125991905Y-79319523D01*
X125896667Y-79319523D01*
X125801429Y-79367142D01*
X125753810Y-79414761D01*
X125706190Y-79509999D01*
X125658571Y-79700476D01*
X125610952Y-79795714D01*
X125563333Y-79843333D01*
X125468095Y-79890952D01*
X125372857Y-79890952D01*
X125277619Y-79843333D01*
X125230000Y-79795714D01*
X125182381Y-79700476D01*
X125182381Y-79462380D01*
X125230000Y-79319523D01*
X125182381Y-78986190D02*
X125182381Y-78367142D01*
X125563333Y-78700476D01*
X125563333Y-78557618D01*
X125610952Y-78462380D01*
X125658571Y-78414761D01*
X125753810Y-78367142D01*
X125991905Y-78367142D01*
X126087143Y-78414761D01*
X126134762Y-78462380D01*
X126182381Y-78557618D01*
X126182381Y-78843333D01*
X126134762Y-78938571D01*
X126087143Y-78986190D01*
X125610952Y-77795714D02*
X125563333Y-77890952D01*
X125515714Y-77938571D01*
X125420476Y-77986190D01*
X125372857Y-77986190D01*
X125277619Y-77938571D01*
X125230000Y-77890952D01*
X125182381Y-77795714D01*
X125182381Y-77605237D01*
X125230000Y-77509999D01*
X125277619Y-77462380D01*
X125372857Y-77414761D01*
X125420476Y-77414761D01*
X125515714Y-77462380D01*
X125563333Y-77509999D01*
X125610952Y-77605237D01*
X125610952Y-77795714D01*
X125658571Y-77890952D01*
X125706190Y-77938571D01*
X125801429Y-77986190D01*
X125991905Y-77986190D01*
X126087143Y-77938571D01*
X126134762Y-77890952D01*
X126182381Y-77795714D01*
X126182381Y-77605237D01*
X126134762Y-77509999D01*
X126087143Y-77462380D01*
X125991905Y-77414761D01*
X125801429Y-77414761D01*
X125706190Y-77462380D01*
X125658571Y-77509999D01*
X125610952Y-77605237D01*
X119848334Y-62047381D02*
X119515000Y-61571190D01*
X119276905Y-62047381D02*
X119276905Y-61047381D01*
X119657858Y-61047381D01*
X119753096Y-61095000D01*
X119800715Y-61142619D01*
X119848334Y-61237857D01*
X119848334Y-61380714D01*
X119800715Y-61475952D01*
X119753096Y-61523571D01*
X119657858Y-61571190D01*
X119276905Y-61571190D01*
X120800715Y-62047381D02*
X120229286Y-62047381D01*
X120515000Y-62047381D02*
X120515000Y-61047381D01*
X120419762Y-61190238D01*
X120324524Y-61285476D01*
X120229286Y-61333095D01*
X119848334Y-58872381D02*
X119515000Y-58396190D01*
X119276905Y-58872381D02*
X119276905Y-57872381D01*
X119657858Y-57872381D01*
X119753096Y-57920000D01*
X119800715Y-57967619D01*
X119848334Y-58062857D01*
X119848334Y-58205714D01*
X119800715Y-58300952D01*
X119753096Y-58348571D01*
X119657858Y-58396190D01*
X119276905Y-58396190D01*
X120229286Y-57967619D02*
X120276905Y-57920000D01*
X120372143Y-57872381D01*
X120610239Y-57872381D01*
X120705477Y-57920000D01*
X120753096Y-57967619D01*
X120800715Y-58062857D01*
X120800715Y-58158095D01*
X120753096Y-58300952D01*
X120181667Y-58872381D01*
X120800715Y-58872381D01*
X133818334Y-62047381D02*
X133485000Y-61571190D01*
X133246905Y-62047381D02*
X133246905Y-61047381D01*
X133627858Y-61047381D01*
X133723096Y-61095000D01*
X133770715Y-61142619D01*
X133818334Y-61237857D01*
X133818334Y-61380714D01*
X133770715Y-61475952D01*
X133723096Y-61523571D01*
X133627858Y-61571190D01*
X133246905Y-61571190D01*
X134151667Y-61047381D02*
X134770715Y-61047381D01*
X134437381Y-61428333D01*
X134580239Y-61428333D01*
X134675477Y-61475952D01*
X134723096Y-61523571D01*
X134770715Y-61618810D01*
X134770715Y-61856905D01*
X134723096Y-61952143D01*
X134675477Y-61999762D01*
X134580239Y-62047381D01*
X134294524Y-62047381D01*
X134199286Y-61999762D01*
X134151667Y-61952143D01*
X133818334Y-58872381D02*
X133485000Y-58396190D01*
X133246905Y-58872381D02*
X133246905Y-57872381D01*
X133627858Y-57872381D01*
X133723096Y-57920000D01*
X133770715Y-57967619D01*
X133818334Y-58062857D01*
X133818334Y-58205714D01*
X133770715Y-58300952D01*
X133723096Y-58348571D01*
X133627858Y-58396190D01*
X133246905Y-58396190D01*
X134675477Y-58205714D02*
X134675477Y-58872381D01*
X134437381Y-57824762D02*
X134199286Y-58539048D01*
X134818334Y-58539048D01*
X147788334Y-62047381D02*
X147455000Y-61571190D01*
X147216905Y-62047381D02*
X147216905Y-61047381D01*
X147597858Y-61047381D01*
X147693096Y-61095000D01*
X147740715Y-61142619D01*
X147788334Y-61237857D01*
X147788334Y-61380714D01*
X147740715Y-61475952D01*
X147693096Y-61523571D01*
X147597858Y-61571190D01*
X147216905Y-61571190D01*
X148693096Y-61047381D02*
X148216905Y-61047381D01*
X148169286Y-61523571D01*
X148216905Y-61475952D01*
X148312143Y-61428333D01*
X148550239Y-61428333D01*
X148645477Y-61475952D01*
X148693096Y-61523571D01*
X148740715Y-61618810D01*
X148740715Y-61856905D01*
X148693096Y-61952143D01*
X148645477Y-61999762D01*
X148550239Y-62047381D01*
X148312143Y-62047381D01*
X148216905Y-61999762D01*
X148169286Y-61952143D01*
X147788334Y-58872381D02*
X147455000Y-58396190D01*
X147216905Y-58872381D02*
X147216905Y-57872381D01*
X147597858Y-57872381D01*
X147693096Y-57920000D01*
X147740715Y-57967619D01*
X147788334Y-58062857D01*
X147788334Y-58205714D01*
X147740715Y-58300952D01*
X147693096Y-58348571D01*
X147597858Y-58396190D01*
X147216905Y-58396190D01*
X148645477Y-57872381D02*
X148455000Y-57872381D01*
X148359762Y-57920000D01*
X148312143Y-57967619D01*
X148216905Y-58110476D01*
X148169286Y-58300952D01*
X148169286Y-58681905D01*
X148216905Y-58777143D01*
X148264524Y-58824762D01*
X148359762Y-58872381D01*
X148550239Y-58872381D01*
X148645477Y-58824762D01*
X148693096Y-58777143D01*
X148740715Y-58681905D01*
X148740715Y-58443810D01*
X148693096Y-58348571D01*
X148645477Y-58300952D01*
X148550239Y-58253333D01*
X148359762Y-58253333D01*
X148264524Y-58300952D01*
X148216905Y-58348571D01*
X148169286Y-58443810D01*
X161758334Y-62047381D02*
X161425000Y-61571190D01*
X161186905Y-62047381D02*
X161186905Y-61047381D01*
X161567858Y-61047381D01*
X161663096Y-61095000D01*
X161710715Y-61142619D01*
X161758334Y-61237857D01*
X161758334Y-61380714D01*
X161710715Y-61475952D01*
X161663096Y-61523571D01*
X161567858Y-61571190D01*
X161186905Y-61571190D01*
X162091667Y-61047381D02*
X162758334Y-61047381D01*
X162329762Y-62047381D01*
X161758334Y-58872381D02*
X161425000Y-58396190D01*
X161186905Y-58872381D02*
X161186905Y-57872381D01*
X161567858Y-57872381D01*
X161663096Y-57920000D01*
X161710715Y-57967619D01*
X161758334Y-58062857D01*
X161758334Y-58205714D01*
X161710715Y-58300952D01*
X161663096Y-58348571D01*
X161567858Y-58396190D01*
X161186905Y-58396190D01*
X162329762Y-58300952D02*
X162234524Y-58253333D01*
X162186905Y-58205714D01*
X162139286Y-58110476D01*
X162139286Y-58062857D01*
X162186905Y-57967619D01*
X162234524Y-57920000D01*
X162329762Y-57872381D01*
X162520239Y-57872381D01*
X162615477Y-57920000D01*
X162663096Y-57967619D01*
X162710715Y-58062857D01*
X162710715Y-58110476D01*
X162663096Y-58205714D01*
X162615477Y-58253333D01*
X162520239Y-58300952D01*
X162329762Y-58300952D01*
X162234524Y-58348571D01*
X162186905Y-58396190D01*
X162139286Y-58491429D01*
X162139286Y-58681905D01*
X162186905Y-58777143D01*
X162234524Y-58824762D01*
X162329762Y-58872381D01*
X162520239Y-58872381D01*
X162615477Y-58824762D01*
X162663096Y-58777143D01*
X162710715Y-58681905D01*
X162710715Y-58491429D01*
X162663096Y-58396190D01*
X162615477Y-58348571D01*
X162520239Y-58300952D01*
X175728334Y-62047381D02*
X175395000Y-61571190D01*
X175156905Y-62047381D02*
X175156905Y-61047381D01*
X175537858Y-61047381D01*
X175633096Y-61095000D01*
X175680715Y-61142619D01*
X175728334Y-61237857D01*
X175728334Y-61380714D01*
X175680715Y-61475952D01*
X175633096Y-61523571D01*
X175537858Y-61571190D01*
X175156905Y-61571190D01*
X176204524Y-62047381D02*
X176395000Y-62047381D01*
X176490239Y-61999762D01*
X176537858Y-61952143D01*
X176633096Y-61809286D01*
X176680715Y-61618810D01*
X176680715Y-61237857D01*
X176633096Y-61142619D01*
X176585477Y-61095000D01*
X176490239Y-61047381D01*
X176299762Y-61047381D01*
X176204524Y-61095000D01*
X176156905Y-61142619D01*
X176109286Y-61237857D01*
X176109286Y-61475952D01*
X176156905Y-61571190D01*
X176204524Y-61618810D01*
X176299762Y-61666429D01*
X176490239Y-61666429D01*
X176585477Y-61618810D01*
X176633096Y-61571190D01*
X176680715Y-61475952D01*
X175252143Y-58872381D02*
X174918809Y-58396190D01*
X174680714Y-58872381D02*
X174680714Y-57872381D01*
X175061667Y-57872381D01*
X175156905Y-57920000D01*
X175204524Y-57967619D01*
X175252143Y-58062857D01*
X175252143Y-58205714D01*
X175204524Y-58300952D01*
X175156905Y-58348571D01*
X175061667Y-58396190D01*
X174680714Y-58396190D01*
X176204524Y-58872381D02*
X175633095Y-58872381D01*
X175918809Y-58872381D02*
X175918809Y-57872381D01*
X175823571Y-58015238D01*
X175728333Y-58110476D01*
X175633095Y-58158095D01*
X176823571Y-57872381D02*
X176918810Y-57872381D01*
X177014048Y-57920000D01*
X177061667Y-57967619D01*
X177109286Y-58062857D01*
X177156905Y-58253333D01*
X177156905Y-58491429D01*
X177109286Y-58681905D01*
X177061667Y-58777143D01*
X177014048Y-58824762D01*
X176918810Y-58872381D01*
X176823571Y-58872381D01*
X176728333Y-58824762D01*
X176680714Y-58777143D01*
X176633095Y-58681905D01*
X176585476Y-58491429D01*
X176585476Y-58253333D01*
X176633095Y-58062857D01*
X176680714Y-57967619D01*
X176728333Y-57920000D01*
X176823571Y-57872381D01*
X189222143Y-62047381D02*
X188888809Y-61571190D01*
X188650714Y-62047381D02*
X188650714Y-61047381D01*
X189031667Y-61047381D01*
X189126905Y-61095000D01*
X189174524Y-61142619D01*
X189222143Y-61237857D01*
X189222143Y-61380714D01*
X189174524Y-61475952D01*
X189126905Y-61523571D01*
X189031667Y-61571190D01*
X188650714Y-61571190D01*
X190174524Y-62047381D02*
X189603095Y-62047381D01*
X189888809Y-62047381D02*
X189888809Y-61047381D01*
X189793571Y-61190238D01*
X189698333Y-61285476D01*
X189603095Y-61333095D01*
X191126905Y-62047381D02*
X190555476Y-62047381D01*
X190841190Y-62047381D02*
X190841190Y-61047381D01*
X190745952Y-61190238D01*
X190650714Y-61285476D01*
X190555476Y-61333095D01*
X189222143Y-58872381D02*
X188888809Y-58396190D01*
X188650714Y-58872381D02*
X188650714Y-57872381D01*
X189031667Y-57872381D01*
X189126905Y-57920000D01*
X189174524Y-57967619D01*
X189222143Y-58062857D01*
X189222143Y-58205714D01*
X189174524Y-58300952D01*
X189126905Y-58348571D01*
X189031667Y-58396190D01*
X188650714Y-58396190D01*
X190174524Y-58872381D02*
X189603095Y-58872381D01*
X189888809Y-58872381D02*
X189888809Y-57872381D01*
X189793571Y-58015238D01*
X189698333Y-58110476D01*
X189603095Y-58158095D01*
X190555476Y-57967619D02*
X190603095Y-57920000D01*
X190698333Y-57872381D01*
X190936429Y-57872381D01*
X191031667Y-57920000D01*
X191079286Y-57967619D01*
X191126905Y-58062857D01*
X191126905Y-58158095D01*
X191079286Y-58300952D01*
X190507857Y-58872381D01*
X191126905Y-58872381D01*
X140168334Y-68937143D02*
X140120715Y-68984762D01*
X139977858Y-69032381D01*
X139882620Y-69032381D01*
X139739762Y-68984762D01*
X139644524Y-68889524D01*
X139596905Y-68794286D01*
X139549286Y-68603810D01*
X139549286Y-68460952D01*
X139596905Y-68270476D01*
X139644524Y-68175238D01*
X139739762Y-68080000D01*
X139882620Y-68032381D01*
X139977858Y-68032381D01*
X140120715Y-68080000D01*
X140168334Y-68127619D01*
X141120715Y-69032381D02*
X140549286Y-69032381D01*
X140835000Y-69032381D02*
X140835000Y-68032381D01*
X140739762Y-68175238D01*
X140644524Y-68270476D01*
X140549286Y-68318095D01*
X185888334Y-68937143D02*
X185840715Y-68984762D01*
X185697858Y-69032381D01*
X185602620Y-69032381D01*
X185459762Y-68984762D01*
X185364524Y-68889524D01*
X185316905Y-68794286D01*
X185269286Y-68603810D01*
X185269286Y-68460952D01*
X185316905Y-68270476D01*
X185364524Y-68175238D01*
X185459762Y-68080000D01*
X185602620Y-68032381D01*
X185697858Y-68032381D01*
X185840715Y-68080000D01*
X185888334Y-68127619D01*
X186269286Y-68127619D02*
X186316905Y-68080000D01*
X186412143Y-68032381D01*
X186650239Y-68032381D01*
X186745477Y-68080000D01*
X186793096Y-68127619D01*
X186840715Y-68222857D01*
X186840715Y-68318095D01*
X186793096Y-68460952D01*
X186221667Y-69032381D01*
X186840715Y-69032381D01*
X125563334Y-68937143D02*
X125515715Y-68984762D01*
X125372858Y-69032381D01*
X125277620Y-69032381D01*
X125134762Y-68984762D01*
X125039524Y-68889524D01*
X124991905Y-68794286D01*
X124944286Y-68603810D01*
X124944286Y-68460952D01*
X124991905Y-68270476D01*
X125039524Y-68175238D01*
X125134762Y-68080000D01*
X125277620Y-68032381D01*
X125372858Y-68032381D01*
X125515715Y-68080000D01*
X125563334Y-68127619D01*
X125896667Y-68032381D02*
X126515715Y-68032381D01*
X126182381Y-68413333D01*
X126325239Y-68413333D01*
X126420477Y-68460952D01*
X126468096Y-68508571D01*
X126515715Y-68603810D01*
X126515715Y-68841905D01*
X126468096Y-68937143D01*
X126420477Y-68984762D01*
X126325239Y-69032381D01*
X126039524Y-69032381D01*
X125944286Y-68984762D01*
X125896667Y-68937143D01*
X154773334Y-68937143D02*
X154725715Y-68984762D01*
X154582858Y-69032381D01*
X154487620Y-69032381D01*
X154344762Y-68984762D01*
X154249524Y-68889524D01*
X154201905Y-68794286D01*
X154154286Y-68603810D01*
X154154286Y-68460952D01*
X154201905Y-68270476D01*
X154249524Y-68175238D01*
X154344762Y-68080000D01*
X154487620Y-68032381D01*
X154582858Y-68032381D01*
X154725715Y-68080000D01*
X154773334Y-68127619D01*
X155630477Y-68365714D02*
X155630477Y-69032381D01*
X155392381Y-67984762D02*
X155154286Y-68699048D01*
X155773334Y-68699048D01*
X209156667Y-45442381D02*
X209156667Y-46156667D01*
X209109047Y-46299524D01*
X209013809Y-46394762D01*
X208870952Y-46442381D01*
X208775714Y-46442381D01*
X209537619Y-45442381D02*
X210156667Y-45442381D01*
X209823333Y-45823333D01*
X209966191Y-45823333D01*
X210061429Y-45870952D01*
X210109048Y-45918571D01*
X210156667Y-46013810D01*
X210156667Y-46251905D01*
X210109048Y-46347143D01*
X210061429Y-46394762D01*
X209966191Y-46442381D01*
X209680476Y-46442381D01*
X209585238Y-46394762D01*
X209537619Y-46347143D01*
X203557143Y-55395714D02*
X203604762Y-55443333D01*
X203652381Y-55586190D01*
X203652381Y-55681428D01*
X203604762Y-55824286D01*
X203509524Y-55919524D01*
X203414286Y-55967143D01*
X203223810Y-56014762D01*
X203080952Y-56014762D01*
X202890476Y-55967143D01*
X202795238Y-55919524D01*
X202700000Y-55824286D01*
X202652381Y-55681428D01*
X202652381Y-55586190D01*
X202700000Y-55443333D01*
X202747619Y-55395714D01*
X202652381Y-54776667D02*
X202652381Y-54586190D01*
X202700000Y-54490952D01*
X202795238Y-54395714D01*
X202985714Y-54348095D01*
X203319048Y-54348095D01*
X203509524Y-54395714D01*
X203604762Y-54490952D01*
X203652381Y-54586190D01*
X203652381Y-54776667D01*
X203604762Y-54871905D01*
X203509524Y-54967143D01*
X203319048Y-55014762D01*
X202985714Y-55014762D01*
X202795238Y-54967143D01*
X202700000Y-54871905D01*
X202652381Y-54776667D01*
X203652381Y-53919524D02*
X202652381Y-53919524D01*
X203366667Y-53586190D01*
X202652381Y-53252857D01*
X203652381Y-53252857D01*
D10*
X206025714Y-96170476D02*
X206063810Y-96208571D01*
X206101905Y-96322857D01*
X206101905Y-96399047D01*
X206063810Y-96513333D01*
X205987619Y-96589524D01*
X205911429Y-96627619D01*
X205759048Y-96665714D01*
X205644762Y-96665714D01*
X205492381Y-96627619D01*
X205416190Y-96589524D01*
X205340000Y-96513333D01*
X205301905Y-96399047D01*
X205301905Y-96322857D01*
X205340000Y-96208571D01*
X205378095Y-96170476D01*
X205301905Y-95675238D02*
X205301905Y-95522857D01*
X205340000Y-95446666D01*
X205416190Y-95370476D01*
X205568571Y-95332381D01*
X205835238Y-95332381D01*
X205987619Y-95370476D01*
X206063810Y-95446666D01*
X206101905Y-95522857D01*
X206101905Y-95675238D01*
X206063810Y-95751428D01*
X205987619Y-95827619D01*
X205835238Y-95865714D01*
X205568571Y-95865714D01*
X205416190Y-95827619D01*
X205340000Y-95751428D01*
X205301905Y-95675238D01*
X206101905Y-94989524D02*
X205301905Y-94989524D01*
X205873333Y-94722857D01*
X205301905Y-94456190D01*
X206101905Y-94456190D01*
X206178095Y-94265714D02*
X206178095Y-93656190D01*
X206101905Y-93465714D02*
X205301905Y-93465714D01*
X205301905Y-93160952D01*
X205340000Y-93084761D01*
X205378095Y-93046666D01*
X205454286Y-93008571D01*
X205568571Y-93008571D01*
X205644762Y-93046666D01*
X205682857Y-93084761D01*
X205720952Y-93160952D01*
X205720952Y-93465714D01*
X205301905Y-92741904D02*
X206101905Y-92551428D01*
X205530476Y-92399047D01*
X206101905Y-92246666D01*
X205301905Y-92056190D01*
X206101905Y-91294285D02*
X205720952Y-91560952D01*
X206101905Y-91751428D02*
X205301905Y-91751428D01*
X205301905Y-91446666D01*
X205340000Y-91370475D01*
X205378095Y-91332380D01*
X205454286Y-91294285D01*
X205568571Y-91294285D01*
X205644762Y-91332380D01*
X205682857Y-91370475D01*
X205720952Y-91446666D01*
X205720952Y-91751428D01*
X200945714Y-95941905D02*
X200983810Y-95980000D01*
X201021905Y-96094286D01*
X201021905Y-96170476D01*
X200983810Y-96284762D01*
X200907619Y-96360953D01*
X200831429Y-96399048D01*
X200679048Y-96437143D01*
X200564762Y-96437143D01*
X200412381Y-96399048D01*
X200336190Y-96360953D01*
X200260000Y-96284762D01*
X200221905Y-96170476D01*
X200221905Y-96094286D01*
X200260000Y-95980000D01*
X200298095Y-95941905D01*
X200221905Y-95713334D02*
X200221905Y-95256191D01*
X201021905Y-95484762D02*
X200221905Y-95484762D01*
X200983810Y-95027619D02*
X201021905Y-94913333D01*
X201021905Y-94722857D01*
X200983810Y-94646667D01*
X200945714Y-94608571D01*
X200869524Y-94570476D01*
X200793333Y-94570476D01*
X200717143Y-94608571D01*
X200679048Y-94646667D01*
X200640952Y-94722857D01*
X200602857Y-94875238D01*
X200564762Y-94951429D01*
X200526667Y-94989524D01*
X200450476Y-95027619D01*
X200374286Y-95027619D01*
X200298095Y-94989524D01*
X200260000Y-94951429D01*
X200221905Y-94875238D01*
X200221905Y-94684762D01*
X200260000Y-94570476D01*
X201098095Y-94418095D02*
X201098095Y-93808571D01*
X200260000Y-93199047D02*
X200221905Y-93275238D01*
X200221905Y-93389523D01*
X200260000Y-93503809D01*
X200336190Y-93580000D01*
X200412381Y-93618095D01*
X200564762Y-93656190D01*
X200679048Y-93656190D01*
X200831429Y-93618095D01*
X200907619Y-93580000D01*
X200983810Y-93503809D01*
X201021905Y-93389523D01*
X201021905Y-93313333D01*
X200983810Y-93199047D01*
X200945714Y-93160952D01*
X200679048Y-93160952D01*
X200679048Y-93313333D01*
X201021905Y-92818095D02*
X200221905Y-92818095D01*
X201021905Y-92360952D01*
X200221905Y-92360952D01*
X201021905Y-91980000D02*
X200221905Y-91980000D01*
X200221905Y-91789524D01*
X200260000Y-91675238D01*
X200336190Y-91599047D01*
X200412381Y-91560952D01*
X200564762Y-91522857D01*
X200679048Y-91522857D01*
X200831429Y-91560952D01*
X200907619Y-91599047D01*
X200983810Y-91675238D01*
X201021905Y-91789524D01*
X201021905Y-91980000D01*
X195141905Y-96532381D02*
X195789524Y-96532381D01*
X195865714Y-96494286D01*
X195903810Y-96456190D01*
X195941905Y-96380000D01*
X195941905Y-96227619D01*
X195903810Y-96151428D01*
X195865714Y-96113333D01*
X195789524Y-96075238D01*
X195141905Y-96075238D01*
X195903810Y-95732381D02*
X195941905Y-95618095D01*
X195941905Y-95427619D01*
X195903810Y-95351429D01*
X195865714Y-95313333D01*
X195789524Y-95275238D01*
X195713333Y-95275238D01*
X195637143Y-95313333D01*
X195599048Y-95351429D01*
X195560952Y-95427619D01*
X195522857Y-95580000D01*
X195484762Y-95656191D01*
X195446667Y-95694286D01*
X195370476Y-95732381D01*
X195294286Y-95732381D01*
X195218095Y-95694286D01*
X195180000Y-95656191D01*
X195141905Y-95580000D01*
X195141905Y-95389524D01*
X195180000Y-95275238D01*
X195522857Y-94932381D02*
X195522857Y-94665714D01*
X195941905Y-94551428D02*
X195941905Y-94932381D01*
X195141905Y-94932381D01*
X195141905Y-94551428D01*
X196018095Y-94399047D02*
X196018095Y-93789523D01*
X195865714Y-93141904D02*
X195903810Y-93179999D01*
X195941905Y-93294285D01*
X195941905Y-93370475D01*
X195903810Y-93484761D01*
X195827619Y-93560952D01*
X195751429Y-93599047D01*
X195599048Y-93637142D01*
X195484762Y-93637142D01*
X195332381Y-93599047D01*
X195256190Y-93560952D01*
X195180000Y-93484761D01*
X195141905Y-93370475D01*
X195141905Y-93294285D01*
X195180000Y-93179999D01*
X195218095Y-93141904D01*
X195141905Y-92646666D02*
X195141905Y-92494285D01*
X195180000Y-92418094D01*
X195256190Y-92341904D01*
X195408571Y-92303809D01*
X195675238Y-92303809D01*
X195827619Y-92341904D01*
X195903810Y-92418094D01*
X195941905Y-92494285D01*
X195941905Y-92646666D01*
X195903810Y-92722856D01*
X195827619Y-92799047D01*
X195675238Y-92837142D01*
X195408571Y-92837142D01*
X195256190Y-92799047D01*
X195180000Y-92722856D01*
X195141905Y-92646666D01*
X195941905Y-91960952D02*
X195141905Y-91960952D01*
X195713333Y-91694285D01*
X195141905Y-91427618D01*
X195941905Y-91427618D01*
D11*
X154178095Y-74382381D02*
X154178095Y-75191905D01*
X154225714Y-75287143D01*
X154273333Y-75334762D01*
X154368571Y-75382381D01*
X154559048Y-75382381D01*
X154654286Y-75334762D01*
X154701905Y-75287143D01*
X154749524Y-75191905D01*
X154749524Y-74382381D01*
X155654286Y-74715714D02*
X155654286Y-75382381D01*
X155416190Y-74334762D02*
X155178095Y-75049048D01*
X155797143Y-75049048D01*
X154392381Y-82652857D02*
X154392381Y-81986190D01*
X155392381Y-82414762D01*
X154725714Y-81176666D02*
X155392381Y-81176666D01*
X154344762Y-81414762D02*
X155059048Y-81652857D01*
X155059048Y-81033809D01*
X155392381Y-80176666D02*
X155392381Y-80652857D01*
X154392381Y-80652857D01*
X155344762Y-79890952D02*
X155392381Y-79748095D01*
X155392381Y-79509999D01*
X155344762Y-79414761D01*
X155297143Y-79367142D01*
X155201905Y-79319523D01*
X155106667Y-79319523D01*
X155011429Y-79367142D01*
X154963810Y-79414761D01*
X154916190Y-79509999D01*
X154868571Y-79700476D01*
X154820952Y-79795714D01*
X154773333Y-79843333D01*
X154678095Y-79890952D01*
X154582857Y-79890952D01*
X154487619Y-79843333D01*
X154440000Y-79795714D01*
X154392381Y-79700476D01*
X154392381Y-79462380D01*
X154440000Y-79319523D01*
X154392381Y-78700476D02*
X154392381Y-78605237D01*
X154440000Y-78509999D01*
X154487619Y-78462380D01*
X154582857Y-78414761D01*
X154773333Y-78367142D01*
X155011429Y-78367142D01*
X155201905Y-78414761D01*
X155297143Y-78462380D01*
X155344762Y-78509999D01*
X155392381Y-78605237D01*
X155392381Y-78700476D01*
X155344762Y-78795714D01*
X155297143Y-78843333D01*
X155201905Y-78890952D01*
X155011429Y-78938571D01*
X154773333Y-78938571D01*
X154582857Y-78890952D01*
X154487619Y-78843333D01*
X154440000Y-78795714D01*
X154392381Y-78700476D01*
X154392381Y-77748095D02*
X154392381Y-77652856D01*
X154440000Y-77557618D01*
X154487619Y-77509999D01*
X154582857Y-77462380D01*
X154773333Y-77414761D01*
X155011429Y-77414761D01*
X155201905Y-77462380D01*
X155297143Y-77509999D01*
X155344762Y-77557618D01*
X155392381Y-77652856D01*
X155392381Y-77748095D01*
X155344762Y-77843333D01*
X155297143Y-77890952D01*
X155201905Y-77938571D01*
X155011429Y-77986190D01*
X154773333Y-77986190D01*
X154582857Y-77938571D01*
X154487619Y-77890952D01*
X154440000Y-77843333D01*
X154392381Y-77748095D01*
X167632143Y-88717381D02*
X167298809Y-88241190D01*
X167060714Y-88717381D02*
X167060714Y-87717381D01*
X167441667Y-87717381D01*
X167536905Y-87765000D01*
X167584524Y-87812619D01*
X167632143Y-87907857D01*
X167632143Y-88050714D01*
X167584524Y-88145952D01*
X167536905Y-88193571D01*
X167441667Y-88241190D01*
X167060714Y-88241190D01*
X168013095Y-87812619D02*
X168060714Y-87765000D01*
X168155952Y-87717381D01*
X168394048Y-87717381D01*
X168489286Y-87765000D01*
X168536905Y-87812619D01*
X168584524Y-87907857D01*
X168584524Y-88003095D01*
X168536905Y-88145952D01*
X167965476Y-88717381D01*
X168584524Y-88717381D01*
X168965476Y-87812619D02*
X169013095Y-87765000D01*
X169108333Y-87717381D01*
X169346429Y-87717381D01*
X169441667Y-87765000D01*
X169489286Y-87812619D01*
X169536905Y-87907857D01*
X169536905Y-88003095D01*
X169489286Y-88145952D01*
X168917857Y-88717381D01*
X169536905Y-88717381D01*
X171330953Y-88717381D02*
X170759524Y-88717381D01*
X171045238Y-88717381D02*
X171045238Y-87717381D01*
X170950000Y-87860238D01*
X170854762Y-87955476D01*
X170759524Y-88003095D01*
X171759524Y-88717381D02*
X171759524Y-87717381D01*
X171854762Y-88336429D02*
X172140477Y-88717381D01*
X172140477Y-88050714D02*
X171759524Y-88431667D01*
X167632143Y-79192381D02*
X167298809Y-78716190D01*
X167060714Y-79192381D02*
X167060714Y-78192381D01*
X167441667Y-78192381D01*
X167536905Y-78240000D01*
X167584524Y-78287619D01*
X167632143Y-78382857D01*
X167632143Y-78525714D01*
X167584524Y-78620952D01*
X167536905Y-78668571D01*
X167441667Y-78716190D01*
X167060714Y-78716190D01*
X168013095Y-78287619D02*
X168060714Y-78240000D01*
X168155952Y-78192381D01*
X168394048Y-78192381D01*
X168489286Y-78240000D01*
X168536905Y-78287619D01*
X168584524Y-78382857D01*
X168584524Y-78478095D01*
X168536905Y-78620952D01*
X167965476Y-79192381D01*
X168584524Y-79192381D01*
X168917857Y-78192381D02*
X169536905Y-78192381D01*
X169203571Y-78573333D01*
X169346429Y-78573333D01*
X169441667Y-78620952D01*
X169489286Y-78668571D01*
X169536905Y-78763810D01*
X169536905Y-79001905D01*
X169489286Y-79097143D01*
X169441667Y-79144762D01*
X169346429Y-79192381D01*
X169060714Y-79192381D01*
X168965476Y-79144762D01*
X168917857Y-79097143D01*
X171965953Y-79192381D02*
X171394524Y-79192381D01*
X171680238Y-79192381D02*
X171680238Y-78192381D01*
X171585000Y-78335238D01*
X171489762Y-78430476D01*
X171394524Y-78478095D01*
X172394524Y-79192381D02*
X172394524Y-78192381D01*
X172489762Y-78811429D02*
X172775477Y-79192381D01*
X172775477Y-78525714D02*
X172394524Y-78906667D01*
X167632143Y-72842381D02*
X167298809Y-72366190D01*
X167060714Y-72842381D02*
X167060714Y-71842381D01*
X167441667Y-71842381D01*
X167536905Y-71890000D01*
X167584524Y-71937619D01*
X167632143Y-72032857D01*
X167632143Y-72175714D01*
X167584524Y-72270952D01*
X167536905Y-72318571D01*
X167441667Y-72366190D01*
X167060714Y-72366190D01*
X168013095Y-71937619D02*
X168060714Y-71890000D01*
X168155952Y-71842381D01*
X168394048Y-71842381D01*
X168489286Y-71890000D01*
X168536905Y-71937619D01*
X168584524Y-72032857D01*
X168584524Y-72128095D01*
X168536905Y-72270952D01*
X167965476Y-72842381D01*
X168584524Y-72842381D01*
X169441667Y-72175714D02*
X169441667Y-72842381D01*
X169203571Y-71794762D02*
X168965476Y-72509048D01*
X169584524Y-72509048D01*
X171965953Y-72842381D02*
X171394524Y-72842381D01*
X171680238Y-72842381D02*
X171680238Y-71842381D01*
X171585000Y-71985238D01*
X171489762Y-72080476D01*
X171394524Y-72128095D01*
X172394524Y-72842381D02*
X172394524Y-71842381D01*
X172489762Y-72461429D02*
X172775477Y-72842381D01*
X172775477Y-72175714D02*
X172394524Y-72556667D01*
X167632143Y-76017381D02*
X167298809Y-75541190D01*
X167060714Y-76017381D02*
X167060714Y-75017381D01*
X167441667Y-75017381D01*
X167536905Y-75065000D01*
X167584524Y-75112619D01*
X167632143Y-75207857D01*
X167632143Y-75350714D01*
X167584524Y-75445952D01*
X167536905Y-75493571D01*
X167441667Y-75541190D01*
X167060714Y-75541190D01*
X168013095Y-75112619D02*
X168060714Y-75065000D01*
X168155952Y-75017381D01*
X168394048Y-75017381D01*
X168489286Y-75065000D01*
X168536905Y-75112619D01*
X168584524Y-75207857D01*
X168584524Y-75303095D01*
X168536905Y-75445952D01*
X167965476Y-76017381D01*
X168584524Y-76017381D01*
X169489286Y-75017381D02*
X169013095Y-75017381D01*
X168965476Y-75493571D01*
X169013095Y-75445952D01*
X169108333Y-75398333D01*
X169346429Y-75398333D01*
X169441667Y-75445952D01*
X169489286Y-75493571D01*
X169536905Y-75588810D01*
X169536905Y-75826905D01*
X169489286Y-75922143D01*
X169441667Y-75969762D01*
X169346429Y-76017381D01*
X169108333Y-76017381D01*
X169013095Y-75969762D01*
X168965476Y-75922143D01*
X171965953Y-76017381D02*
X171394524Y-76017381D01*
X171680238Y-76017381D02*
X171680238Y-75017381D01*
X171585000Y-75160238D01*
X171489762Y-75255476D01*
X171394524Y-75303095D01*
X172394524Y-76017381D02*
X172394524Y-75017381D01*
X172489762Y-75636429D02*
X172775477Y-76017381D01*
X172775477Y-75350714D02*
X172394524Y-75731667D01*
X167632143Y-82367381D02*
X167298809Y-81891190D01*
X167060714Y-82367381D02*
X167060714Y-81367381D01*
X167441667Y-81367381D01*
X167536905Y-81415000D01*
X167584524Y-81462619D01*
X167632143Y-81557857D01*
X167632143Y-81700714D01*
X167584524Y-81795952D01*
X167536905Y-81843571D01*
X167441667Y-81891190D01*
X167060714Y-81891190D01*
X168013095Y-81462619D02*
X168060714Y-81415000D01*
X168155952Y-81367381D01*
X168394048Y-81367381D01*
X168489286Y-81415000D01*
X168536905Y-81462619D01*
X168584524Y-81557857D01*
X168584524Y-81653095D01*
X168536905Y-81795952D01*
X167965476Y-82367381D01*
X168584524Y-82367381D01*
X169441667Y-81367381D02*
X169251190Y-81367381D01*
X169155952Y-81415000D01*
X169108333Y-81462619D01*
X169013095Y-81605476D01*
X168965476Y-81795952D01*
X168965476Y-82176905D01*
X169013095Y-82272143D01*
X169060714Y-82319762D01*
X169155952Y-82367381D01*
X169346429Y-82367381D01*
X169441667Y-82319762D01*
X169489286Y-82272143D01*
X169536905Y-82176905D01*
X169536905Y-81938810D01*
X169489286Y-81843571D01*
X169441667Y-81795952D01*
X169346429Y-81748333D01*
X169155952Y-81748333D01*
X169060714Y-81795952D01*
X169013095Y-81843571D01*
X168965476Y-81938810D01*
X171965953Y-82367381D02*
X171394524Y-82367381D01*
X171680238Y-82367381D02*
X171680238Y-81367381D01*
X171585000Y-81510238D01*
X171489762Y-81605476D01*
X171394524Y-81653095D01*
X172394524Y-82367381D02*
X172394524Y-81367381D01*
X172489762Y-81986429D02*
X172775477Y-82367381D01*
X172775477Y-81700714D02*
X172394524Y-82081667D01*
X198112143Y-72207381D02*
X197778809Y-71731190D01*
X197540714Y-72207381D02*
X197540714Y-71207381D01*
X197921667Y-71207381D01*
X198016905Y-71255000D01*
X198064524Y-71302619D01*
X198112143Y-71397857D01*
X198112143Y-71540714D01*
X198064524Y-71635952D01*
X198016905Y-71683571D01*
X197921667Y-71731190D01*
X197540714Y-71731190D01*
X199064524Y-72207381D02*
X198493095Y-72207381D01*
X198778809Y-72207381D02*
X198778809Y-71207381D01*
X198683571Y-71350238D01*
X198588333Y-71445476D01*
X198493095Y-71493095D01*
X199969286Y-71207381D02*
X199493095Y-71207381D01*
X199445476Y-71683571D01*
X199493095Y-71635952D01*
X199588333Y-71588333D01*
X199826429Y-71588333D01*
X199921667Y-71635952D01*
X199969286Y-71683571D01*
X200016905Y-71778810D01*
X200016905Y-72016905D01*
X199969286Y-72112143D01*
X199921667Y-72159762D01*
X199826429Y-72207381D01*
X199588333Y-72207381D01*
X199493095Y-72159762D01*
X199445476Y-72112143D01*
X201358571Y-71635952D02*
X201263333Y-71588333D01*
X201215714Y-71540714D01*
X201168095Y-71445476D01*
X201168095Y-71397857D01*
X201215714Y-71302619D01*
X201263333Y-71255000D01*
X201358571Y-71207381D01*
X201549048Y-71207381D01*
X201644286Y-71255000D01*
X201691905Y-71302619D01*
X201739524Y-71397857D01*
X201739524Y-71445476D01*
X201691905Y-71540714D01*
X201644286Y-71588333D01*
X201549048Y-71635952D01*
X201358571Y-71635952D01*
X201263333Y-71683571D01*
X201215714Y-71731190D01*
X201168095Y-71826429D01*
X201168095Y-72016905D01*
X201215714Y-72112143D01*
X201263333Y-72159762D01*
X201358571Y-72207381D01*
X201549048Y-72207381D01*
X201644286Y-72159762D01*
X201691905Y-72112143D01*
X201739524Y-72016905D01*
X201739524Y-71826429D01*
X201691905Y-71731190D01*
X201644286Y-71683571D01*
X201549048Y-71635952D01*
X202120476Y-71302619D02*
X202168095Y-71255000D01*
X202263333Y-71207381D01*
X202501429Y-71207381D01*
X202596667Y-71255000D01*
X202644286Y-71302619D01*
X202691905Y-71397857D01*
X202691905Y-71493095D01*
X202644286Y-71635952D01*
X202072857Y-72207381D01*
X202691905Y-72207381D01*
X198112143Y-75382381D02*
X197778809Y-74906190D01*
X197540714Y-75382381D02*
X197540714Y-74382381D01*
X197921667Y-74382381D01*
X198016905Y-74430000D01*
X198064524Y-74477619D01*
X198112143Y-74572857D01*
X198112143Y-74715714D01*
X198064524Y-74810952D01*
X198016905Y-74858571D01*
X197921667Y-74906190D01*
X197540714Y-74906190D01*
X199064524Y-75382381D02*
X198493095Y-75382381D01*
X198778809Y-75382381D02*
X198778809Y-74382381D01*
X198683571Y-74525238D01*
X198588333Y-74620476D01*
X198493095Y-74668095D01*
X199921667Y-74382381D02*
X199731190Y-74382381D01*
X199635952Y-74430000D01*
X199588333Y-74477619D01*
X199493095Y-74620476D01*
X199445476Y-74810952D01*
X199445476Y-75191905D01*
X199493095Y-75287143D01*
X199540714Y-75334762D01*
X199635952Y-75382381D01*
X199826429Y-75382381D01*
X199921667Y-75334762D01*
X199969286Y-75287143D01*
X200016905Y-75191905D01*
X200016905Y-74953810D01*
X199969286Y-74858571D01*
X199921667Y-74810952D01*
X199826429Y-74763333D01*
X199635952Y-74763333D01*
X199540714Y-74810952D01*
X199493095Y-74858571D01*
X199445476Y-74953810D01*
X201358571Y-74810952D02*
X201263333Y-74763333D01*
X201215714Y-74715714D01*
X201168095Y-74620476D01*
X201168095Y-74572857D01*
X201215714Y-74477619D01*
X201263333Y-74430000D01*
X201358571Y-74382381D01*
X201549048Y-74382381D01*
X201644286Y-74430000D01*
X201691905Y-74477619D01*
X201739524Y-74572857D01*
X201739524Y-74620476D01*
X201691905Y-74715714D01*
X201644286Y-74763333D01*
X201549048Y-74810952D01*
X201358571Y-74810952D01*
X201263333Y-74858571D01*
X201215714Y-74906190D01*
X201168095Y-75001429D01*
X201168095Y-75191905D01*
X201215714Y-75287143D01*
X201263333Y-75334762D01*
X201358571Y-75382381D01*
X201549048Y-75382381D01*
X201644286Y-75334762D01*
X201691905Y-75287143D01*
X201739524Y-75191905D01*
X201739524Y-75001429D01*
X201691905Y-74906190D01*
X201644286Y-74858571D01*
X201549048Y-74810952D01*
X202120476Y-74477619D02*
X202168095Y-74430000D01*
X202263333Y-74382381D01*
X202501429Y-74382381D01*
X202596667Y-74430000D01*
X202644286Y-74477619D01*
X202691905Y-74572857D01*
X202691905Y-74668095D01*
X202644286Y-74810952D01*
X202072857Y-75382381D01*
X202691905Y-75382381D01*
X198112143Y-78557381D02*
X197778809Y-78081190D01*
X197540714Y-78557381D02*
X197540714Y-77557381D01*
X197921667Y-77557381D01*
X198016905Y-77605000D01*
X198064524Y-77652619D01*
X198112143Y-77747857D01*
X198112143Y-77890714D01*
X198064524Y-77985952D01*
X198016905Y-78033571D01*
X197921667Y-78081190D01*
X197540714Y-78081190D01*
X199064524Y-78557381D02*
X198493095Y-78557381D01*
X198778809Y-78557381D02*
X198778809Y-77557381D01*
X198683571Y-77700238D01*
X198588333Y-77795476D01*
X198493095Y-77843095D01*
X199397857Y-77557381D02*
X200064524Y-77557381D01*
X199635952Y-78557381D01*
X201358571Y-77985952D02*
X201263333Y-77938333D01*
X201215714Y-77890714D01*
X201168095Y-77795476D01*
X201168095Y-77747857D01*
X201215714Y-77652619D01*
X201263333Y-77605000D01*
X201358571Y-77557381D01*
X201549048Y-77557381D01*
X201644286Y-77605000D01*
X201691905Y-77652619D01*
X201739524Y-77747857D01*
X201739524Y-77795476D01*
X201691905Y-77890714D01*
X201644286Y-77938333D01*
X201549048Y-77985952D01*
X201358571Y-77985952D01*
X201263333Y-78033571D01*
X201215714Y-78081190D01*
X201168095Y-78176429D01*
X201168095Y-78366905D01*
X201215714Y-78462143D01*
X201263333Y-78509762D01*
X201358571Y-78557381D01*
X201549048Y-78557381D01*
X201644286Y-78509762D01*
X201691905Y-78462143D01*
X201739524Y-78366905D01*
X201739524Y-78176429D01*
X201691905Y-78081190D01*
X201644286Y-78033571D01*
X201549048Y-77985952D01*
X202120476Y-77652619D02*
X202168095Y-77605000D01*
X202263333Y-77557381D01*
X202501429Y-77557381D01*
X202596667Y-77605000D01*
X202644286Y-77652619D01*
X202691905Y-77747857D01*
X202691905Y-77843095D01*
X202644286Y-77985952D01*
X202072857Y-78557381D01*
X202691905Y-78557381D01*
X198112143Y-81732381D02*
X197778809Y-81256190D01*
X197540714Y-81732381D02*
X197540714Y-80732381D01*
X197921667Y-80732381D01*
X198016905Y-80780000D01*
X198064524Y-80827619D01*
X198112143Y-80922857D01*
X198112143Y-81065714D01*
X198064524Y-81160952D01*
X198016905Y-81208571D01*
X197921667Y-81256190D01*
X197540714Y-81256190D01*
X199064524Y-81732381D02*
X198493095Y-81732381D01*
X198778809Y-81732381D02*
X198778809Y-80732381D01*
X198683571Y-80875238D01*
X198588333Y-80970476D01*
X198493095Y-81018095D01*
X199635952Y-81160952D02*
X199540714Y-81113333D01*
X199493095Y-81065714D01*
X199445476Y-80970476D01*
X199445476Y-80922857D01*
X199493095Y-80827619D01*
X199540714Y-80780000D01*
X199635952Y-80732381D01*
X199826429Y-80732381D01*
X199921667Y-80780000D01*
X199969286Y-80827619D01*
X200016905Y-80922857D01*
X200016905Y-80970476D01*
X199969286Y-81065714D01*
X199921667Y-81113333D01*
X199826429Y-81160952D01*
X199635952Y-81160952D01*
X199540714Y-81208571D01*
X199493095Y-81256190D01*
X199445476Y-81351429D01*
X199445476Y-81541905D01*
X199493095Y-81637143D01*
X199540714Y-81684762D01*
X199635952Y-81732381D01*
X199826429Y-81732381D01*
X199921667Y-81684762D01*
X199969286Y-81637143D01*
X200016905Y-81541905D01*
X200016905Y-81351429D01*
X199969286Y-81256190D01*
X199921667Y-81208571D01*
X199826429Y-81160952D01*
X201358571Y-81160952D02*
X201263333Y-81113333D01*
X201215714Y-81065714D01*
X201168095Y-80970476D01*
X201168095Y-80922857D01*
X201215714Y-80827619D01*
X201263333Y-80780000D01*
X201358571Y-80732381D01*
X201549048Y-80732381D01*
X201644286Y-80780000D01*
X201691905Y-80827619D01*
X201739524Y-80922857D01*
X201739524Y-80970476D01*
X201691905Y-81065714D01*
X201644286Y-81113333D01*
X201549048Y-81160952D01*
X201358571Y-81160952D01*
X201263333Y-81208571D01*
X201215714Y-81256190D01*
X201168095Y-81351429D01*
X201168095Y-81541905D01*
X201215714Y-81637143D01*
X201263333Y-81684762D01*
X201358571Y-81732381D01*
X201549048Y-81732381D01*
X201644286Y-81684762D01*
X201691905Y-81637143D01*
X201739524Y-81541905D01*
X201739524Y-81351429D01*
X201691905Y-81256190D01*
X201644286Y-81208571D01*
X201549048Y-81160952D01*
X202120476Y-80827619D02*
X202168095Y-80780000D01*
X202263333Y-80732381D01*
X202501429Y-80732381D01*
X202596667Y-80780000D01*
X202644286Y-80827619D01*
X202691905Y-80922857D01*
X202691905Y-81018095D01*
X202644286Y-81160952D01*
X202072857Y-81732381D01*
X202691905Y-81732381D01*
X198112143Y-84907381D02*
X197778809Y-84431190D01*
X197540714Y-84907381D02*
X197540714Y-83907381D01*
X197921667Y-83907381D01*
X198016905Y-83955000D01*
X198064524Y-84002619D01*
X198112143Y-84097857D01*
X198112143Y-84240714D01*
X198064524Y-84335952D01*
X198016905Y-84383571D01*
X197921667Y-84431190D01*
X197540714Y-84431190D01*
X199064524Y-84907381D02*
X198493095Y-84907381D01*
X198778809Y-84907381D02*
X198778809Y-83907381D01*
X198683571Y-84050238D01*
X198588333Y-84145476D01*
X198493095Y-84193095D01*
X199540714Y-84907381D02*
X199731190Y-84907381D01*
X199826429Y-84859762D01*
X199874048Y-84812143D01*
X199969286Y-84669286D01*
X200016905Y-84478810D01*
X200016905Y-84097857D01*
X199969286Y-84002619D01*
X199921667Y-83955000D01*
X199826429Y-83907381D01*
X199635952Y-83907381D01*
X199540714Y-83955000D01*
X199493095Y-84002619D01*
X199445476Y-84097857D01*
X199445476Y-84335952D01*
X199493095Y-84431190D01*
X199540714Y-84478810D01*
X199635952Y-84526429D01*
X199826429Y-84526429D01*
X199921667Y-84478810D01*
X199969286Y-84431190D01*
X200016905Y-84335952D01*
X201358571Y-84335952D02*
X201263333Y-84288333D01*
X201215714Y-84240714D01*
X201168095Y-84145476D01*
X201168095Y-84097857D01*
X201215714Y-84002619D01*
X201263333Y-83955000D01*
X201358571Y-83907381D01*
X201549048Y-83907381D01*
X201644286Y-83955000D01*
X201691905Y-84002619D01*
X201739524Y-84097857D01*
X201739524Y-84145476D01*
X201691905Y-84240714D01*
X201644286Y-84288333D01*
X201549048Y-84335952D01*
X201358571Y-84335952D01*
X201263333Y-84383571D01*
X201215714Y-84431190D01*
X201168095Y-84526429D01*
X201168095Y-84716905D01*
X201215714Y-84812143D01*
X201263333Y-84859762D01*
X201358571Y-84907381D01*
X201549048Y-84907381D01*
X201644286Y-84859762D01*
X201691905Y-84812143D01*
X201739524Y-84716905D01*
X201739524Y-84526429D01*
X201691905Y-84431190D01*
X201644286Y-84383571D01*
X201549048Y-84335952D01*
X202120476Y-84002619D02*
X202168095Y-83955000D01*
X202263333Y-83907381D01*
X202501429Y-83907381D01*
X202596667Y-83955000D01*
X202644286Y-84002619D01*
X202691905Y-84097857D01*
X202691905Y-84193095D01*
X202644286Y-84335952D01*
X202072857Y-84907381D01*
X202691905Y-84907381D01*
X198112143Y-88082381D02*
X197778809Y-87606190D01*
X197540714Y-88082381D02*
X197540714Y-87082381D01*
X197921667Y-87082381D01*
X198016905Y-87130000D01*
X198064524Y-87177619D01*
X198112143Y-87272857D01*
X198112143Y-87415714D01*
X198064524Y-87510952D01*
X198016905Y-87558571D01*
X197921667Y-87606190D01*
X197540714Y-87606190D01*
X198493095Y-87177619D02*
X198540714Y-87130000D01*
X198635952Y-87082381D01*
X198874048Y-87082381D01*
X198969286Y-87130000D01*
X199016905Y-87177619D01*
X199064524Y-87272857D01*
X199064524Y-87368095D01*
X199016905Y-87510952D01*
X198445476Y-88082381D01*
X199064524Y-88082381D01*
X199683571Y-87082381D02*
X199778810Y-87082381D01*
X199874048Y-87130000D01*
X199921667Y-87177619D01*
X199969286Y-87272857D01*
X200016905Y-87463333D01*
X200016905Y-87701429D01*
X199969286Y-87891905D01*
X199921667Y-87987143D01*
X199874048Y-88034762D01*
X199778810Y-88082381D01*
X199683571Y-88082381D01*
X199588333Y-88034762D01*
X199540714Y-87987143D01*
X199493095Y-87891905D01*
X199445476Y-87701429D01*
X199445476Y-87463333D01*
X199493095Y-87272857D01*
X199540714Y-87177619D01*
X199588333Y-87130000D01*
X199683571Y-87082381D01*
X201358571Y-87510952D02*
X201263333Y-87463333D01*
X201215714Y-87415714D01*
X201168095Y-87320476D01*
X201168095Y-87272857D01*
X201215714Y-87177619D01*
X201263333Y-87130000D01*
X201358571Y-87082381D01*
X201549048Y-87082381D01*
X201644286Y-87130000D01*
X201691905Y-87177619D01*
X201739524Y-87272857D01*
X201739524Y-87320476D01*
X201691905Y-87415714D01*
X201644286Y-87463333D01*
X201549048Y-87510952D01*
X201358571Y-87510952D01*
X201263333Y-87558571D01*
X201215714Y-87606190D01*
X201168095Y-87701429D01*
X201168095Y-87891905D01*
X201215714Y-87987143D01*
X201263333Y-88034762D01*
X201358571Y-88082381D01*
X201549048Y-88082381D01*
X201644286Y-88034762D01*
X201691905Y-87987143D01*
X201739524Y-87891905D01*
X201739524Y-87701429D01*
X201691905Y-87606190D01*
X201644286Y-87558571D01*
X201549048Y-87510952D01*
X202120476Y-87177619D02*
X202168095Y-87130000D01*
X202263333Y-87082381D01*
X202501429Y-87082381D01*
X202596667Y-87130000D01*
X202644286Y-87177619D01*
X202691905Y-87272857D01*
X202691905Y-87368095D01*
X202644286Y-87510952D01*
X202072857Y-88082381D01*
X202691905Y-88082381D01*
X167632143Y-85542381D02*
X167298809Y-85066190D01*
X167060714Y-85542381D02*
X167060714Y-84542381D01*
X167441667Y-84542381D01*
X167536905Y-84590000D01*
X167584524Y-84637619D01*
X167632143Y-84732857D01*
X167632143Y-84875714D01*
X167584524Y-84970952D01*
X167536905Y-85018571D01*
X167441667Y-85066190D01*
X167060714Y-85066190D01*
X168013095Y-84637619D02*
X168060714Y-84590000D01*
X168155952Y-84542381D01*
X168394048Y-84542381D01*
X168489286Y-84590000D01*
X168536905Y-84637619D01*
X168584524Y-84732857D01*
X168584524Y-84828095D01*
X168536905Y-84970952D01*
X167965476Y-85542381D01*
X168584524Y-85542381D01*
X169536905Y-85542381D02*
X168965476Y-85542381D01*
X169251190Y-85542381D02*
X169251190Y-84542381D01*
X169155952Y-84685238D01*
X169060714Y-84780476D01*
X168965476Y-84828095D01*
X170235714Y-84542381D02*
X170854762Y-84542381D01*
X170521428Y-84923333D01*
X170664286Y-84923333D01*
X170759524Y-84970952D01*
X170807143Y-85018571D01*
X170854762Y-85113810D01*
X170854762Y-85351905D01*
X170807143Y-85447143D01*
X170759524Y-85494762D01*
X170664286Y-85542381D01*
X170378571Y-85542381D01*
X170283333Y-85494762D01*
X170235714Y-85447143D01*
X171283333Y-85542381D02*
X171283333Y-84542381D01*
X171378571Y-85161429D02*
X171664286Y-85542381D01*
X171664286Y-84875714D02*
X171283333Y-85256667D01*
X171997619Y-84542381D02*
X172616667Y-84542381D01*
X172283333Y-84923333D01*
X172426191Y-84923333D01*
X172521429Y-84970952D01*
X172569048Y-85018571D01*
X172616667Y-85113810D01*
X172616667Y-85351905D01*
X172569048Y-85447143D01*
X172521429Y-85494762D01*
X172426191Y-85542381D01*
X172140476Y-85542381D01*
X172045238Y-85494762D01*
X171997619Y-85447143D01*
X123817143Y-121102381D02*
X123483809Y-120626190D01*
X123245714Y-121102381D02*
X123245714Y-120102381D01*
X123626667Y-120102381D01*
X123721905Y-120150000D01*
X123769524Y-120197619D01*
X123817143Y-120292857D01*
X123817143Y-120435714D01*
X123769524Y-120530952D01*
X123721905Y-120578571D01*
X123626667Y-120626190D01*
X123245714Y-120626190D01*
X124769524Y-121102381D02*
X124198095Y-121102381D01*
X124483809Y-121102381D02*
X124483809Y-120102381D01*
X124388571Y-120245238D01*
X124293333Y-120340476D01*
X124198095Y-120388095D01*
X125102857Y-120102381D02*
X125721905Y-120102381D01*
X125388571Y-120483333D01*
X125531429Y-120483333D01*
X125626667Y-120530952D01*
X125674286Y-120578571D01*
X125721905Y-120673810D01*
X125721905Y-120911905D01*
X125674286Y-121007143D01*
X125626667Y-121054762D01*
X125531429Y-121102381D01*
X125245714Y-121102381D01*
X125150476Y-121054762D01*
X125102857Y-121007143D01*
X126396905Y-120197619D02*
X126444524Y-120150000D01*
X126539762Y-120102381D01*
X126777858Y-120102381D01*
X126873096Y-120150000D01*
X126920715Y-120197619D01*
X126968334Y-120292857D01*
X126968334Y-120388095D01*
X126920715Y-120530952D01*
X126349286Y-121102381D01*
X126968334Y-121102381D01*
X127349286Y-120197619D02*
X127396905Y-120150000D01*
X127492143Y-120102381D01*
X127730239Y-120102381D01*
X127825477Y-120150000D01*
X127873096Y-120197619D01*
X127920715Y-120292857D01*
X127920715Y-120388095D01*
X127873096Y-120530952D01*
X127301667Y-121102381D01*
X127920715Y-121102381D01*
X128539762Y-120102381D02*
X128635001Y-120102381D01*
X128730239Y-120150000D01*
X128777858Y-120197619D01*
X128825477Y-120292857D01*
X128873096Y-120483333D01*
X128873096Y-120721429D01*
X128825477Y-120911905D01*
X128777858Y-121007143D01*
X128730239Y-121054762D01*
X128635001Y-121102381D01*
X128539762Y-121102381D01*
X128444524Y-121054762D01*
X128396905Y-121007143D01*
X128349286Y-120911905D01*
X128301667Y-120721429D01*
X128301667Y-120483333D01*
X128349286Y-120292857D01*
X128396905Y-120197619D01*
X128444524Y-120150000D01*
X128539762Y-120102381D01*
M02*
