G04 #@! TF.FileFunction,Legend,Bot*
%FSLAX46Y46*%
G04 Gerber Fmt 4.6, Leading zero omitted, Abs format (unit mm)*
G04 Created by KiCad (PCBNEW 4.0.7) date 09/21/19 14:15:43*
%MOMM*%
%LPD*%
G01*
G04 APERTURE LIST*
%ADD10C,0.100000*%
%ADD11C,0.150000*%
G04 APERTURE END LIST*
D10*
D11*
X130500000Y-56602381D02*
X130690477Y-56602381D01*
X130785715Y-56650000D01*
X130833334Y-56697619D01*
X130928572Y-56840476D01*
X130976191Y-57030952D01*
X130976191Y-57411905D01*
X130928572Y-57507143D01*
X130880953Y-57554762D01*
X130785715Y-57602381D01*
X130595238Y-57602381D01*
X130500000Y-57554762D01*
X130452381Y-57507143D01*
X130404762Y-57411905D01*
X130404762Y-57173810D01*
X130452381Y-57078571D01*
X130500000Y-57030952D01*
X130595238Y-56983333D01*
X130785715Y-56983333D01*
X130880953Y-57030952D01*
X130928572Y-57078571D01*
X130976191Y-57173810D01*
X130071429Y-57602381D02*
X129547619Y-56935714D01*
X130071429Y-56935714D02*
X129547619Y-57602381D01*
X128452381Y-56697619D02*
X128404762Y-56650000D01*
X128309524Y-56602381D01*
X128071428Y-56602381D01*
X127976190Y-56650000D01*
X127928571Y-56697619D01*
X127880952Y-56792857D01*
X127880952Y-56888095D01*
X127928571Y-57030952D01*
X128500000Y-57602381D01*
X127880952Y-57602381D01*
X127452381Y-57602381D02*
X127452381Y-56602381D01*
X126880952Y-57602381D01*
X126880952Y-56602381D01*
X126500000Y-56602381D02*
X125880952Y-56602381D01*
X126214286Y-56983333D01*
X126071428Y-56983333D01*
X125976190Y-57030952D01*
X125928571Y-57078571D01*
X125880952Y-57173810D01*
X125880952Y-57411905D01*
X125928571Y-57507143D01*
X125976190Y-57554762D01*
X126071428Y-57602381D01*
X126357143Y-57602381D01*
X126452381Y-57554762D01*
X126500000Y-57507143D01*
X125404762Y-57602381D02*
X125214286Y-57602381D01*
X125119047Y-57554762D01*
X125071428Y-57507143D01*
X124976190Y-57364286D01*
X124928571Y-57173810D01*
X124928571Y-56792857D01*
X124976190Y-56697619D01*
X125023809Y-56650000D01*
X125119047Y-56602381D01*
X125309524Y-56602381D01*
X125404762Y-56650000D01*
X125452381Y-56697619D01*
X125500000Y-56792857D01*
X125500000Y-57030952D01*
X125452381Y-57126190D01*
X125404762Y-57173810D01*
X125309524Y-57221429D01*
X125119047Y-57221429D01*
X125023809Y-57173810D01*
X124976190Y-57126190D01*
X124928571Y-57030952D01*
X124309524Y-56602381D02*
X124214285Y-56602381D01*
X124119047Y-56650000D01*
X124071428Y-56697619D01*
X124023809Y-56792857D01*
X123976190Y-56983333D01*
X123976190Y-57221429D01*
X124023809Y-57411905D01*
X124071428Y-57507143D01*
X124119047Y-57554762D01*
X124214285Y-57602381D01*
X124309524Y-57602381D01*
X124404762Y-57554762D01*
X124452381Y-57507143D01*
X124500000Y-57411905D01*
X124547619Y-57221429D01*
X124547619Y-56983333D01*
X124500000Y-56792857D01*
X124452381Y-56697619D01*
X124404762Y-56650000D01*
X124309524Y-56602381D01*
X123119047Y-56602381D02*
X123309524Y-56602381D01*
X123404762Y-56650000D01*
X123452381Y-56697619D01*
X123547619Y-56840476D01*
X123595238Y-57030952D01*
X123595238Y-57411905D01*
X123547619Y-57507143D01*
X123500000Y-57554762D01*
X123404762Y-57602381D01*
X123214285Y-57602381D01*
X123119047Y-57554762D01*
X123071428Y-57507143D01*
X123023809Y-57411905D01*
X123023809Y-57173810D01*
X123071428Y-57078571D01*
X123119047Y-57030952D01*
X123214285Y-56983333D01*
X123404762Y-56983333D01*
X123500000Y-57030952D01*
X123547619Y-57078571D01*
X123595238Y-57173810D01*
M02*
