G04 #@! TF.FileFunction,Copper,L1,Top,Signal*
%FSLAX46Y46*%
G04 Gerber Fmt 4.6, Leading zero omitted, Abs format (unit mm)*
G04 Created by KiCad (PCBNEW 4.0.7) date 09/06/19 19:31:44*
%MOMM*%
%LPD*%
G01*
G04 APERTURE LIST*
%ADD10C,0.100000*%
%ADD11C,1.600000*%
%ADD12O,1.600000X1.600000*%
%ADD13R,1.700000X1.700000*%
%ADD14O,1.700000X1.700000*%
%ADD15C,1.000000*%
%ADD16R,1.000000X1.000000*%
%ADD17O,1.524000X2.524000*%
%ADD18C,5.000000*%
%ADD19R,1.600000X1.600000*%
%ADD20C,0.600000*%
%ADD21C,0.250000*%
G04 APERTURE END LIST*
D10*
D11*
X194945000Y-68580000D03*
D12*
X205105000Y-68580000D03*
D13*
X136525000Y-127635000D03*
D14*
X136525000Y-130175000D03*
X133985000Y-127635000D03*
X133985000Y-130175000D03*
X131445000Y-127635000D03*
X131445000Y-130175000D03*
X128905000Y-127635000D03*
X128905000Y-130175000D03*
X126365000Y-127635000D03*
X126365000Y-130175000D03*
X123825000Y-127635000D03*
X123825000Y-130175000D03*
X121285000Y-127635000D03*
X121285000Y-130175000D03*
X118745000Y-127635000D03*
X118745000Y-130175000D03*
D15*
X127635000Y-60960000D03*
X126365000Y-62230000D03*
D16*
X126365000Y-59690000D03*
D15*
X141605000Y-60960000D03*
X140335000Y-62230000D03*
D16*
X140335000Y-59690000D03*
D15*
X155575000Y-60960000D03*
X154305000Y-62230000D03*
D16*
X154305000Y-59690000D03*
D15*
X169545000Y-60960000D03*
X168275000Y-62230000D03*
D16*
X168275000Y-59690000D03*
D15*
X183515000Y-60960000D03*
X182245000Y-62230000D03*
D16*
X182245000Y-59690000D03*
D15*
X197485000Y-60960000D03*
X196215000Y-62230000D03*
D16*
X196215000Y-59690000D03*
D17*
X117475000Y-54610000D03*
X120015000Y-54610000D03*
X122555000Y-54610000D03*
X125095000Y-54610000D03*
X127635000Y-54610000D03*
X127635000Y-39370000D03*
X125095000Y-39370000D03*
X122555000Y-39370000D03*
X120015000Y-39370000D03*
X117475000Y-39370000D03*
X131445000Y-54610000D03*
X133985000Y-54610000D03*
X136525000Y-54610000D03*
X139065000Y-54610000D03*
X141605000Y-54610000D03*
X141605000Y-39370000D03*
X139065000Y-39370000D03*
X136525000Y-39370000D03*
X133985000Y-39370000D03*
X131445000Y-39370000D03*
X145415000Y-54610000D03*
X147955000Y-54610000D03*
X150495000Y-54610000D03*
X153035000Y-54610000D03*
X155575000Y-54610000D03*
X155575000Y-39370000D03*
X153035000Y-39370000D03*
X150495000Y-39370000D03*
X147955000Y-39370000D03*
X145415000Y-39370000D03*
X159385000Y-54610000D03*
X161925000Y-54610000D03*
X164465000Y-54610000D03*
X167005000Y-54610000D03*
X169545000Y-54610000D03*
X169545000Y-39370000D03*
X167005000Y-39370000D03*
X164465000Y-39370000D03*
X161925000Y-39370000D03*
X159385000Y-39370000D03*
X173355000Y-54610000D03*
X175895000Y-54610000D03*
X178435000Y-54610000D03*
X180975000Y-54610000D03*
X183515000Y-54610000D03*
X183515000Y-39370000D03*
X180975000Y-39370000D03*
X178435000Y-39370000D03*
X175895000Y-39370000D03*
X173355000Y-39370000D03*
X187325000Y-54610000D03*
X189865000Y-54610000D03*
X192405000Y-54610000D03*
X194945000Y-54610000D03*
X197485000Y-54610000D03*
X197485000Y-39370000D03*
X194945000Y-39370000D03*
X192405000Y-39370000D03*
X189865000Y-39370000D03*
X187325000Y-39370000D03*
D13*
X114935000Y-120650000D03*
D14*
X112395000Y-120650000D03*
X114935000Y-118110000D03*
X112395000Y-118110000D03*
X114935000Y-115570000D03*
X112395000Y-115570000D03*
X114935000Y-113030000D03*
X112395000Y-113030000D03*
X114935000Y-110490000D03*
X112395000Y-110490000D03*
X114935000Y-107950000D03*
X112395000Y-107950000D03*
X114935000Y-105410000D03*
X112395000Y-105410000D03*
X114935000Y-102870000D03*
X112395000Y-102870000D03*
X114935000Y-100330000D03*
X112395000Y-100330000D03*
X114935000Y-97790000D03*
X112395000Y-97790000D03*
X114935000Y-95250000D03*
X112395000Y-95250000D03*
X114935000Y-92710000D03*
X112395000Y-92710000D03*
X114935000Y-90170000D03*
X112395000Y-90170000D03*
X114935000Y-87630000D03*
X112395000Y-87630000D03*
X114935000Y-85090000D03*
X112395000Y-85090000D03*
X114935000Y-82550000D03*
X112395000Y-82550000D03*
X114935000Y-80010000D03*
X112395000Y-80010000D03*
X114935000Y-77470000D03*
X112395000Y-77470000D03*
X114935000Y-74930000D03*
X112395000Y-74930000D03*
X114935000Y-72390000D03*
X112395000Y-72390000D03*
D18*
X111760000Y-128905000D03*
X203200000Y-128905000D03*
X203200000Y-40640000D03*
X111760000Y-40640000D03*
D19*
X136525000Y-72390000D03*
D12*
X144145000Y-90170000D03*
X136525000Y-74930000D03*
X144145000Y-87630000D03*
X136525000Y-77470000D03*
X144145000Y-85090000D03*
X136525000Y-80010000D03*
X144145000Y-82550000D03*
X136525000Y-82550000D03*
X144145000Y-80010000D03*
X136525000Y-85090000D03*
X144145000Y-77470000D03*
X136525000Y-87630000D03*
X144145000Y-74930000D03*
X136525000Y-90170000D03*
X144145000Y-72390000D03*
D19*
X182245000Y-72390000D03*
D12*
X189865000Y-87630000D03*
X182245000Y-74930000D03*
X189865000Y-85090000D03*
X182245000Y-77470000D03*
X189865000Y-82550000D03*
X182245000Y-80010000D03*
X189865000Y-80010000D03*
X182245000Y-82550000D03*
X189865000Y-77470000D03*
X182245000Y-85090000D03*
X189865000Y-74930000D03*
X182245000Y-87630000D03*
X189865000Y-72390000D03*
D19*
X121920000Y-72390000D03*
D12*
X129540000Y-87630000D03*
X121920000Y-74930000D03*
X129540000Y-85090000D03*
X121920000Y-77470000D03*
X129540000Y-82550000D03*
X121920000Y-80010000D03*
X129540000Y-80010000D03*
X121920000Y-82550000D03*
X129540000Y-77470000D03*
X121920000Y-85090000D03*
X129540000Y-74930000D03*
X121920000Y-87630000D03*
X129540000Y-72390000D03*
D11*
X117475000Y-62230000D03*
D12*
X122555000Y-62230000D03*
D11*
X117475000Y-59055000D03*
D12*
X122555000Y-59055000D03*
D11*
X131445000Y-62230000D03*
D12*
X136525000Y-62230000D03*
D11*
X131445000Y-59055000D03*
D12*
X136525000Y-59055000D03*
D11*
X145415000Y-62230000D03*
D12*
X150495000Y-62230000D03*
D11*
X145415000Y-59055000D03*
D12*
X150495000Y-59055000D03*
D11*
X159385000Y-62230000D03*
D12*
X164465000Y-62230000D03*
D11*
X159385000Y-59055000D03*
D12*
X164465000Y-59055000D03*
D11*
X173355000Y-62230000D03*
D12*
X178435000Y-62230000D03*
D11*
X173355000Y-59055000D03*
D12*
X178435000Y-59055000D03*
D11*
X187325000Y-62230000D03*
D12*
X192405000Y-62230000D03*
D11*
X187325000Y-59055000D03*
D12*
X192405000Y-59055000D03*
D11*
X142875000Y-68580000D03*
X137875000Y-68580000D03*
X188595000Y-68580000D03*
X183595000Y-68580000D03*
X128270000Y-68580000D03*
X123270000Y-68580000D03*
X157480000Y-68580000D03*
X152480000Y-68580000D03*
D13*
X205105000Y-48260000D03*
D14*
X205105000Y-50800000D03*
X205105000Y-53340000D03*
X205105000Y-55880000D03*
X205105000Y-58420000D03*
X205105000Y-60960000D03*
D13*
X203200000Y-92710000D03*
D14*
X203200000Y-95250000D03*
D13*
X198120000Y-92710000D03*
D14*
X198120000Y-95250000D03*
D13*
X193040000Y-92710000D03*
D14*
X193040000Y-95250000D03*
D19*
X151130000Y-72390000D03*
D12*
X158750000Y-87630000D03*
X151130000Y-74930000D03*
X158750000Y-85090000D03*
X151130000Y-77470000D03*
X158750000Y-82550000D03*
X151130000Y-80010000D03*
X158750000Y-80010000D03*
X151130000Y-82550000D03*
X158750000Y-77470000D03*
X151130000Y-85090000D03*
X158750000Y-74930000D03*
X151130000Y-87630000D03*
X158750000Y-72390000D03*
D11*
X175260000Y-88265000D03*
D12*
X165100000Y-88265000D03*
D11*
X175260000Y-78740000D03*
D12*
X165100000Y-78740000D03*
D11*
X175260000Y-72390000D03*
D12*
X165100000Y-72390000D03*
D11*
X175260000Y-75565000D03*
D12*
X165100000Y-75565000D03*
D11*
X175260000Y-81915000D03*
D12*
X165100000Y-81915000D03*
D11*
X194945000Y-71755000D03*
D12*
X205105000Y-71755000D03*
D11*
X194945000Y-74930000D03*
D12*
X205105000Y-74930000D03*
D11*
X194945000Y-78105000D03*
D12*
X205105000Y-78105000D03*
D11*
X194945000Y-81280000D03*
D12*
X205105000Y-81280000D03*
D11*
X194945000Y-84455000D03*
D12*
X205105000Y-84455000D03*
D11*
X194945000Y-87630000D03*
D12*
X205105000Y-87630000D03*
D11*
X165100000Y-85090000D03*
D12*
X175260000Y-85090000D03*
D11*
X131445000Y-120650000D03*
D12*
X121285000Y-120650000D03*
D20*
X175895000Y-64135000D03*
X187960000Y-64135000D03*
X156845000Y-64135000D03*
X142240000Y-64135000D03*
X127635000Y-64135000D03*
X118110000Y-94615000D03*
X130810000Y-95885000D03*
X137795000Y-95885000D03*
X160020000Y-92075000D03*
X160655000Y-89535000D03*
X118110000Y-81280000D03*
X119380000Y-125730000D03*
X201295000Y-80645000D03*
X187960000Y-50800000D03*
X172720000Y-50800000D03*
X158750000Y-50800000D03*
X144780000Y-50800000D03*
X130810000Y-50800000D03*
X133350000Y-51435000D03*
X200660000Y-77470000D03*
X190500000Y-51435000D03*
X175260000Y-51435000D03*
X161290000Y-51435000D03*
X147320000Y-51435000D03*
X200025000Y-74295000D03*
X203200000Y-67945000D03*
X195580000Y-42545000D03*
X180340000Y-42545000D03*
X166370000Y-42545000D03*
X152400000Y-42545000D03*
X138430000Y-42545000D03*
X202565000Y-83820000D03*
X190500000Y-43180000D03*
X175260000Y-43180000D03*
X161290000Y-43180000D03*
X147320000Y-43180000D03*
X133350000Y-43180000D03*
X201930000Y-86995000D03*
X187960000Y-43815000D03*
X172720000Y-43815000D03*
X158750000Y-43815000D03*
X144780000Y-43815000D03*
X130810000Y-43815000D03*
X158750000Y-64770000D03*
X146685000Y-86995000D03*
X172720000Y-64770000D03*
X147320000Y-84455000D03*
X186690000Y-64770000D03*
X117475000Y-64770000D03*
X131445000Y-64770000D03*
X131445000Y-81280000D03*
X131445000Y-83185000D03*
X132080000Y-85725000D03*
X132080000Y-81915000D03*
X144780000Y-64770000D03*
X137160000Y-95250000D03*
X130175000Y-95250000D03*
X187325000Y-90170000D03*
X187960000Y-83185000D03*
X137795000Y-99695000D03*
X130810000Y-99695000D03*
X187325000Y-91440000D03*
X121920000Y-106045000D03*
X124460000Y-122555000D03*
X124460000Y-105410000D03*
X178435000Y-88900000D03*
X178435000Y-91440000D03*
X125095000Y-102235000D03*
X130810000Y-98425000D03*
X137795000Y-98425000D03*
X122555000Y-105410000D03*
X125095000Y-121920000D03*
X121285000Y-103505000D03*
X130175000Y-99060000D03*
X137160000Y-99060000D03*
X186055000Y-91440000D03*
X187325000Y-82550000D03*
X119380000Y-101600000D03*
X123190000Y-123825000D03*
X119380000Y-83185000D03*
X118745000Y-99060000D03*
X123825000Y-123190000D03*
X124460000Y-104140000D03*
X137160000Y-97790000D03*
X130175000Y-97790000D03*
X124460000Y-102870000D03*
X177165000Y-91440000D03*
X177800000Y-88265000D03*
X122555000Y-124460000D03*
X118745000Y-102235000D03*
X123190000Y-125095000D03*
X118745000Y-104775000D03*
X188595000Y-91440000D03*
X137160000Y-100330000D03*
X130175000Y-100330000D03*
X118745000Y-107315000D03*
X123825000Y-125730000D03*
X191135000Y-90170000D03*
X139065000Y-85090000D03*
X139065000Y-129540000D03*
X138430000Y-85725000D03*
X139065000Y-132080000D03*
X137795000Y-86360000D03*
X138430000Y-130810000D03*
X137795000Y-132715000D03*
X117475000Y-80645000D03*
X118110000Y-125730000D03*
X133985000Y-88900000D03*
X135255000Y-83820000D03*
X133350000Y-88265000D03*
X134620000Y-81280000D03*
X133350000Y-81915000D03*
X132715000Y-88900000D03*
X132080000Y-88265000D03*
X132715000Y-81280000D03*
X136525000Y-114935000D03*
X132715000Y-115570000D03*
X131445000Y-86360000D03*
X123190000Y-108585000D03*
X123190000Y-101600000D03*
X130175000Y-96520000D03*
X137160000Y-96520000D03*
X151765000Y-92710000D03*
X152400000Y-89535000D03*
X123825000Y-107950000D03*
X123825000Y-102235000D03*
X130810000Y-97155000D03*
X137795000Y-97155000D03*
X153035000Y-92710000D03*
X153035000Y-88900000D03*
X118745000Y-95885000D03*
X118745000Y-81915000D03*
X166370000Y-71120000D03*
X145415000Y-65405000D03*
X132715000Y-73025000D03*
X148590000Y-66675000D03*
X198755000Y-63500000D03*
X199390000Y-64135000D03*
X197485000Y-64770000D03*
X196850000Y-65405000D03*
X130810000Y-94615000D03*
X138430000Y-95250000D03*
X167005000Y-82550000D03*
X166370000Y-90805000D03*
X148590000Y-76200000D03*
X145415000Y-76200000D03*
X133350000Y-76200000D03*
X145415000Y-78740000D03*
X148590000Y-79375000D03*
X147320000Y-90170000D03*
X149860000Y-91440000D03*
D21*
X111125000Y-125095000D02*
X109855000Y-123825000D01*
X115570000Y-131445000D02*
X116840000Y-132715000D01*
X112395000Y-72390000D02*
X111125000Y-72390000D01*
X111125000Y-72390000D02*
X109855000Y-73660000D01*
X109855000Y-73660000D02*
X109855000Y-123825000D01*
X125095000Y-128905000D02*
X123825000Y-127635000D01*
X125095000Y-132080000D02*
X125095000Y-128905000D01*
X124460000Y-132715000D02*
X125095000Y-132080000D01*
X116840000Y-132715000D02*
X124460000Y-132715000D01*
X115570000Y-126365000D02*
X115570000Y-131445000D01*
X114300000Y-125095000D02*
X115570000Y-126365000D01*
X111125000Y-125095000D02*
X114300000Y-125095000D01*
X175260000Y-88265000D02*
X176530000Y-89535000D01*
X201930000Y-93980000D02*
X203200000Y-95250000D01*
X196215000Y-93980000D02*
X201930000Y-93980000D01*
X195580000Y-93345000D02*
X196215000Y-93980000D01*
X195580000Y-90170000D02*
X195580000Y-93345000D01*
X194945000Y-89535000D02*
X195580000Y-90170000D01*
X176530000Y-89535000D02*
X194945000Y-89535000D01*
X175895000Y-64135000D02*
X175895000Y-59690000D01*
X175895000Y-59690000D02*
X175260000Y-59055000D01*
X158750000Y-72390000D02*
X158750000Y-69850000D01*
X158750000Y-69850000D02*
X157480000Y-68580000D01*
X121920000Y-80010000D02*
X122555000Y-80010000D01*
X122555000Y-80010000D02*
X123190000Y-79375000D01*
X123190000Y-79375000D02*
X123190000Y-73025000D01*
X123190000Y-73025000D02*
X123825000Y-72390000D01*
X123825000Y-72390000D02*
X129540000Y-72390000D01*
X144145000Y-72390000D02*
X144145000Y-69850000D01*
X144145000Y-69850000D02*
X142875000Y-68580000D01*
X129540000Y-72390000D02*
X129540000Y-69850000D01*
X129540000Y-69850000D02*
X128270000Y-68580000D01*
X188595000Y-68580000D02*
X189865000Y-69850000D01*
X189865000Y-69850000D02*
X189865000Y-72390000D01*
X120015000Y-63500000D02*
X119380000Y-64135000D01*
X112395000Y-72390000D02*
X112395000Y-64770000D01*
X112395000Y-64770000D02*
X113030000Y-64135000D01*
X113030000Y-64135000D02*
X119380000Y-64135000D01*
X119380000Y-64135000D02*
X120650000Y-64135000D01*
X189230000Y-64135000D02*
X195580000Y-64135000D01*
X196215000Y-63500000D02*
X196215000Y-62230000D01*
X195580000Y-64135000D02*
X196215000Y-63500000D01*
X187325000Y-59055000D02*
X189230000Y-59055000D01*
X189230000Y-64135000D02*
X187960000Y-64135000D01*
X187960000Y-64135000D02*
X185420000Y-64135000D01*
X185420000Y-64135000D02*
X181610000Y-64135000D01*
X189865000Y-63500000D02*
X189230000Y-64135000D01*
X189865000Y-59690000D02*
X189865000Y-63500000D01*
X189230000Y-59055000D02*
X189865000Y-59690000D01*
X175260000Y-64135000D02*
X175895000Y-64135000D01*
X175895000Y-64135000D02*
X181610000Y-64135000D01*
X182245000Y-63500000D02*
X182245000Y-62230000D01*
X181610000Y-64135000D02*
X182245000Y-63500000D01*
X173355000Y-59055000D02*
X175260000Y-59055000D01*
X175260000Y-64135000D02*
X167640000Y-64135000D01*
X161290000Y-64135000D02*
X167640000Y-64135000D01*
X168275000Y-63500000D02*
X168275000Y-62230000D01*
X167640000Y-64135000D02*
X168275000Y-63500000D01*
X159385000Y-59055000D02*
X161290000Y-59055000D01*
X161290000Y-64135000D02*
X156845000Y-64135000D01*
X156845000Y-64135000D02*
X153670000Y-64135000D01*
X161925000Y-63500000D02*
X161290000Y-64135000D01*
X161925000Y-59690000D02*
X161925000Y-63500000D01*
X161290000Y-59055000D02*
X161925000Y-59690000D01*
X147320000Y-64135000D02*
X153670000Y-64135000D01*
X154305000Y-63500000D02*
X154305000Y-62230000D01*
X153670000Y-64135000D02*
X154305000Y-63500000D01*
X145415000Y-59055000D02*
X147320000Y-59055000D01*
X147320000Y-64135000D02*
X142240000Y-64135000D01*
X142240000Y-64135000D02*
X139700000Y-64135000D01*
X147955000Y-63500000D02*
X147320000Y-64135000D01*
X147955000Y-59690000D02*
X147955000Y-63500000D01*
X147320000Y-59055000D02*
X147955000Y-59690000D01*
X134620000Y-64135000D02*
X139700000Y-64135000D01*
X133350000Y-64135000D02*
X134620000Y-64135000D01*
X140335000Y-63500000D02*
X140335000Y-62230000D01*
X139700000Y-64135000D02*
X140335000Y-63500000D01*
X131445000Y-59055000D02*
X133350000Y-59055000D01*
X133985000Y-63500000D02*
X133350000Y-64135000D01*
X133985000Y-59690000D02*
X133985000Y-63500000D01*
X133350000Y-59055000D02*
X133985000Y-59690000D01*
X126365000Y-62230000D02*
X126365000Y-63500000D01*
X126365000Y-63500000D02*
X125730000Y-64135000D01*
X120650000Y-64135000D02*
X125730000Y-64135000D01*
X125730000Y-64135000D02*
X127635000Y-64135000D01*
X127635000Y-64135000D02*
X133350000Y-64135000D01*
X117475000Y-59055000D02*
X119380000Y-59055000D01*
X120015000Y-59690000D02*
X120015000Y-63500000D01*
X119380000Y-59055000D02*
X120015000Y-59690000D01*
X121285000Y-120650000D02*
X121285000Y-124460000D01*
X121285000Y-124460000D02*
X122555000Y-125730000D01*
X122555000Y-126365000D02*
X122555000Y-125730000D01*
X122555000Y-128905000D02*
X122555000Y-126365000D01*
X121285000Y-130175000D02*
X122555000Y-128905000D01*
X165100000Y-85090000D02*
X161290000Y-85090000D01*
X118745000Y-95250000D02*
X118110000Y-94615000D01*
X120015000Y-95250000D02*
X118745000Y-95250000D01*
X127635000Y-95250000D02*
X120015000Y-95250000D01*
X128270000Y-95885000D02*
X127635000Y-95250000D01*
X130810000Y-95885000D02*
X128270000Y-95885000D01*
X140970000Y-95885000D02*
X137795000Y-95885000D01*
X142875000Y-93980000D02*
X140970000Y-95885000D01*
X147320000Y-93980000D02*
X142875000Y-93980000D01*
X149225000Y-92075000D02*
X147320000Y-93980000D01*
X149860000Y-92075000D02*
X149225000Y-92075000D01*
X160020000Y-92075000D02*
X149860000Y-92075000D01*
X160655000Y-85725000D02*
X160655000Y-89535000D01*
X161290000Y-85090000D02*
X160655000Y-85725000D01*
X118110000Y-80645000D02*
X118110000Y-78105000D01*
X118745000Y-77470000D02*
X121920000Y-77470000D01*
X118110000Y-78105000D02*
X118745000Y-77470000D01*
X120015000Y-128905000D02*
X120015000Y-126365000D01*
X118745000Y-130175000D02*
X120015000Y-128905000D01*
X120015000Y-126365000D02*
X119380000Y-125730000D01*
X118110000Y-80645000D02*
X118110000Y-81280000D01*
X112395000Y-82550000D02*
X113665000Y-81280000D01*
X113665000Y-81280000D02*
X118110000Y-81280000D01*
X121285000Y-77470000D02*
X121920000Y-77470000D01*
X127635000Y-60960000D02*
X123825000Y-60960000D01*
X123825000Y-60960000D02*
X122555000Y-62230000D01*
X122555000Y-60960000D02*
X122555000Y-62230000D01*
X122555000Y-60960000D02*
X122555000Y-59055000D01*
X122555000Y-54610000D02*
X122555000Y-55880000D01*
X123825000Y-57150000D02*
X127635000Y-57150000D01*
X122555000Y-55880000D02*
X123825000Y-57150000D01*
X126365000Y-59690000D02*
X127635000Y-58420000D01*
X127635000Y-58420000D02*
X127635000Y-57150000D01*
X127635000Y-57150000D02*
X127635000Y-54610000D01*
X141605000Y-60960000D02*
X137795000Y-60960000D01*
X137795000Y-60960000D02*
X136525000Y-62230000D01*
X136525000Y-59055000D02*
X136525000Y-62230000D01*
X141605000Y-57150000D02*
X137795000Y-57150000D01*
X136525000Y-55880000D02*
X136525000Y-54610000D01*
X137795000Y-57150000D02*
X136525000Y-55880000D01*
X140335000Y-59690000D02*
X141605000Y-58420000D01*
X141605000Y-58420000D02*
X141605000Y-57150000D01*
X141605000Y-57150000D02*
X141605000Y-54610000D01*
X155575000Y-60960000D02*
X151765000Y-60960000D01*
X151765000Y-60960000D02*
X150495000Y-62230000D01*
X150495000Y-59055000D02*
X150495000Y-62230000D01*
X150495000Y-54610000D02*
X150495000Y-55880000D01*
X151765000Y-57150000D02*
X155575000Y-57150000D01*
X150495000Y-55880000D02*
X151765000Y-57150000D01*
X154305000Y-59690000D02*
X155575000Y-58420000D01*
X155575000Y-58420000D02*
X155575000Y-57150000D01*
X155575000Y-57150000D02*
X155575000Y-54610000D01*
X169545000Y-60960000D02*
X165735000Y-60960000D01*
X165735000Y-60960000D02*
X164465000Y-62230000D01*
X164465000Y-59055000D02*
X164465000Y-62230000D01*
X164465000Y-54610000D02*
X164465000Y-55880000D01*
X165735000Y-57150000D02*
X169545000Y-57150000D01*
X164465000Y-55880000D02*
X165735000Y-57150000D01*
X168275000Y-59690000D02*
X169545000Y-58420000D01*
X169545000Y-58420000D02*
X169545000Y-57150000D01*
X169545000Y-57150000D02*
X169545000Y-54610000D01*
X183515000Y-60960000D02*
X179705000Y-60960000D01*
X179705000Y-60960000D02*
X178435000Y-62230000D01*
X178435000Y-59055000D02*
X178435000Y-62230000D01*
X178435000Y-54610000D02*
X178435000Y-55880000D01*
X179705000Y-57150000D02*
X183515000Y-57150000D01*
X178435000Y-55880000D02*
X179705000Y-57150000D01*
X182245000Y-59690000D02*
X183515000Y-58420000D01*
X183515000Y-58420000D02*
X183515000Y-57150000D01*
X183515000Y-57150000D02*
X183515000Y-54610000D01*
X197485000Y-60960000D02*
X193675000Y-60960000D01*
X193675000Y-60960000D02*
X192405000Y-62230000D01*
X192405000Y-59055000D02*
X192405000Y-62230000D01*
X192405000Y-54610000D02*
X192405000Y-55880000D01*
X193675000Y-57150000D02*
X197485000Y-57150000D01*
X192405000Y-55880000D02*
X193675000Y-57150000D01*
X196215000Y-59690000D02*
X197485000Y-58420000D01*
X197485000Y-58420000D02*
X197485000Y-57150000D01*
X197485000Y-57150000D02*
X197485000Y-54610000D01*
X201295000Y-78740000D02*
X201295000Y-80645000D01*
X199390000Y-50800000D02*
X200660000Y-50800000D01*
X187960000Y-50800000D02*
X199390000Y-50800000D01*
X201295000Y-51435000D02*
X201295000Y-55880000D01*
X200660000Y-50800000D02*
X201295000Y-51435000D01*
X201295000Y-55880000D02*
X201295000Y-78740000D01*
X187960000Y-50800000D02*
X186690000Y-50800000D01*
X172720000Y-50800000D02*
X186690000Y-50800000D01*
X158750000Y-50800000D02*
X172720000Y-50800000D01*
X144780000Y-50800000D02*
X158750000Y-50800000D01*
X130810000Y-50800000D02*
X144780000Y-50800000D01*
X117475000Y-54610000D02*
X117475000Y-51435000D01*
X118110000Y-50800000D02*
X130810000Y-50800000D01*
X117475000Y-51435000D02*
X118110000Y-50800000D01*
X200660000Y-75565000D02*
X200660000Y-77470000D01*
X199390000Y-51435000D02*
X200025000Y-51435000D01*
X190500000Y-51435000D02*
X199390000Y-51435000D01*
X200660000Y-52070000D02*
X200660000Y-55880000D01*
X200025000Y-51435000D02*
X200660000Y-52070000D01*
X200660000Y-55880000D02*
X200660000Y-75565000D01*
X189230000Y-51435000D02*
X190500000Y-51435000D01*
X175260000Y-51435000D02*
X189230000Y-51435000D01*
X161290000Y-51435000D02*
X175260000Y-51435000D01*
X147320000Y-51435000D02*
X161290000Y-51435000D01*
X120015000Y-52070000D02*
X120650000Y-51435000D01*
X120650000Y-51435000D02*
X133350000Y-51435000D01*
X133350000Y-51435000D02*
X147320000Y-51435000D01*
X120015000Y-54610000D02*
X120015000Y-52070000D01*
X200025000Y-72390000D02*
X200025000Y-74295000D01*
X199390000Y-52070000D02*
X200025000Y-52705000D01*
X200025000Y-52705000D02*
X200025000Y-57785000D01*
X195580000Y-52070000D02*
X199390000Y-52070000D01*
X200025000Y-57785000D02*
X200025000Y-72390000D01*
X194310000Y-52070000D02*
X195580000Y-52070000D01*
X195580000Y-52070000D02*
X194945000Y-52705000D01*
X180340000Y-52070000D02*
X194310000Y-52070000D01*
X194945000Y-52705000D02*
X194945000Y-54610000D01*
X166370000Y-52070000D02*
X180340000Y-52070000D01*
X180975000Y-52705000D02*
X180975000Y-54610000D01*
X180340000Y-52070000D02*
X180975000Y-52705000D01*
X152400000Y-52070000D02*
X166370000Y-52070000D01*
X167005000Y-52705000D02*
X167005000Y-54610000D01*
X166370000Y-52070000D02*
X167005000Y-52705000D01*
X138430000Y-52070000D02*
X152400000Y-52070000D01*
X153035000Y-52705000D02*
X153035000Y-54610000D01*
X152400000Y-52070000D02*
X153035000Y-52705000D01*
X125095000Y-54610000D02*
X125095000Y-52705000D01*
X139065000Y-52705000D02*
X139065000Y-54610000D01*
X138430000Y-52070000D02*
X139065000Y-52705000D01*
X125730000Y-52070000D02*
X138430000Y-52070000D01*
X125095000Y-52705000D02*
X125730000Y-52070000D01*
X203835000Y-70485000D02*
X203835000Y-71120000D01*
X203835000Y-71120000D02*
X204470000Y-71755000D01*
X204470000Y-71755000D02*
X205105000Y-71755000D01*
X203835000Y-69215000D02*
X203835000Y-70485000D01*
X201930000Y-44450000D02*
X203200000Y-44450000D01*
X203835000Y-45085000D02*
X203835000Y-48895000D01*
X203200000Y-44450000D02*
X203835000Y-45085000D01*
X198120000Y-41910000D02*
X199390000Y-41910000D01*
X199390000Y-41910000D02*
X201930000Y-44450000D01*
X203835000Y-48895000D02*
X203835000Y-69215000D01*
X197485000Y-41275000D02*
X198120000Y-41910000D01*
X196850000Y-41910000D02*
X198120000Y-41910000D01*
X182880000Y-41910000D02*
X196850000Y-41910000D01*
X197485000Y-41275000D02*
X197485000Y-39370000D01*
X168910000Y-41910000D02*
X182880000Y-41910000D01*
X183515000Y-41275000D02*
X183515000Y-39370000D01*
X182880000Y-41910000D02*
X183515000Y-41275000D01*
X154940000Y-41910000D02*
X168910000Y-41910000D01*
X169545000Y-41275000D02*
X169545000Y-39370000D01*
X168910000Y-41910000D02*
X169545000Y-41275000D01*
X140970000Y-41910000D02*
X154940000Y-41910000D01*
X155575000Y-41275000D02*
X155575000Y-39370000D01*
X154940000Y-41910000D02*
X155575000Y-41275000D01*
X127635000Y-39370000D02*
X127635000Y-41275000D01*
X141605000Y-41275000D02*
X141605000Y-39370000D01*
X140970000Y-41910000D02*
X141605000Y-41275000D01*
X128270000Y-41910000D02*
X140970000Y-41910000D01*
X127635000Y-41275000D02*
X128270000Y-41910000D01*
X203200000Y-66040000D02*
X203200000Y-67945000D01*
X198120000Y-42545000D02*
X198755000Y-42545000D01*
X195580000Y-42545000D02*
X198120000Y-42545000D01*
X203200000Y-45720000D02*
X203200000Y-49530000D01*
X202565000Y-45085000D02*
X203200000Y-45720000D01*
X201295000Y-45085000D02*
X202565000Y-45085000D01*
X198755000Y-42545000D02*
X201295000Y-45085000D01*
X203200000Y-49530000D02*
X203200000Y-66040000D01*
X195580000Y-42545000D02*
X194310000Y-42545000D01*
X180340000Y-42545000D02*
X194310000Y-42545000D01*
X166370000Y-42545000D02*
X180340000Y-42545000D01*
X152400000Y-42545000D02*
X166370000Y-42545000D01*
X138430000Y-42545000D02*
X152400000Y-42545000D01*
X125095000Y-39370000D02*
X125095000Y-41910000D01*
X125730000Y-42545000D02*
X138430000Y-42545000D01*
X125095000Y-41910000D02*
X125730000Y-42545000D01*
X202565000Y-81915000D02*
X202565000Y-83820000D01*
X190500000Y-43180000D02*
X198120000Y-43180000D01*
X202565000Y-46355000D02*
X202565000Y-50800000D01*
X201930000Y-45720000D02*
X202565000Y-46355000D01*
X200660000Y-45720000D02*
X201930000Y-45720000D01*
X198120000Y-43180000D02*
X200660000Y-45720000D01*
X202565000Y-50800000D02*
X202565000Y-81915000D01*
X189230000Y-43180000D02*
X190500000Y-43180000D01*
X189230000Y-43180000D02*
X175260000Y-43180000D01*
X161290000Y-43180000D02*
X175260000Y-43180000D01*
X147320000Y-43180000D02*
X161290000Y-43180000D01*
X133350000Y-43180000D02*
X147320000Y-43180000D01*
X120015000Y-39370000D02*
X120015000Y-42545000D01*
X120650000Y-43180000D02*
X133350000Y-43180000D01*
X120015000Y-42545000D02*
X120650000Y-43180000D01*
X201930000Y-85090000D02*
X201930000Y-86995000D01*
X196850000Y-43815000D02*
X197485000Y-43815000D01*
X187960000Y-43815000D02*
X196850000Y-43815000D01*
X201930000Y-46990000D02*
X201930000Y-54610000D01*
X201295000Y-46355000D02*
X201930000Y-46990000D01*
X200025000Y-46355000D02*
X201295000Y-46355000D01*
X197485000Y-43815000D02*
X200025000Y-46355000D01*
X201930000Y-54610000D02*
X201930000Y-85090000D01*
X186690000Y-43815000D02*
X187960000Y-43815000D01*
X172720000Y-43815000D02*
X186690000Y-43815000D01*
X158750000Y-43815000D02*
X172720000Y-43815000D01*
X144780000Y-43815000D02*
X158750000Y-43815000D01*
X130810000Y-43815000D02*
X144780000Y-43815000D01*
X117475000Y-39370000D02*
X117475000Y-43180000D01*
X118110000Y-43815000D02*
X130810000Y-43815000D01*
X117475000Y-43180000D02*
X118110000Y-43815000D01*
X145415000Y-90170000D02*
X144145000Y-90170000D01*
X146050000Y-89535000D02*
X145415000Y-90170000D01*
X146050000Y-65405000D02*
X146050000Y-89535000D01*
X146685000Y-64770000D02*
X146050000Y-65405000D01*
X158750000Y-64770000D02*
X146685000Y-64770000D01*
X146685000Y-66040000D02*
X146685000Y-86995000D01*
X147320000Y-65405000D02*
X146685000Y-66040000D01*
X159385000Y-65405000D02*
X147320000Y-65405000D01*
X160020000Y-64770000D02*
X159385000Y-65405000D01*
X172720000Y-64770000D02*
X160020000Y-64770000D01*
X147320000Y-66675000D02*
X147320000Y-84455000D01*
X147955000Y-66040000D02*
X147320000Y-66675000D01*
X160020000Y-66040000D02*
X147955000Y-66040000D01*
X160655000Y-65405000D02*
X160020000Y-66040000D01*
X173355000Y-65405000D02*
X160655000Y-65405000D01*
X173990000Y-64770000D02*
X173355000Y-65405000D01*
X186690000Y-64770000D02*
X173990000Y-64770000D01*
X132080000Y-82550000D02*
X131445000Y-82550000D01*
X130810000Y-67945000D02*
X130175000Y-67310000D01*
X130810000Y-81915000D02*
X130810000Y-67945000D01*
X131445000Y-82550000D02*
X130810000Y-81915000D01*
X118110000Y-67310000D02*
X130175000Y-67310000D01*
X117475000Y-66675000D02*
X118110000Y-67310000D01*
X117475000Y-64770000D02*
X117475000Y-66675000D01*
X132080000Y-82550000D02*
X136525000Y-82550000D01*
X136525000Y-85090000D02*
X132080000Y-85090000D01*
X131445000Y-81280000D02*
X131445000Y-64770000D01*
X131445000Y-84455000D02*
X131445000Y-83185000D01*
X132080000Y-85090000D02*
X131445000Y-84455000D01*
X132715000Y-87630000D02*
X136525000Y-87630000D01*
X132080000Y-86995000D02*
X132715000Y-87630000D01*
X132080000Y-85725000D02*
X132080000Y-86995000D01*
X132080000Y-65405000D02*
X132080000Y-81915000D01*
X132715000Y-64770000D02*
X132080000Y-65405000D01*
X144780000Y-64770000D02*
X132715000Y-64770000D01*
X189865000Y-87630000D02*
X194945000Y-87630000D01*
X194945000Y-68580000D02*
X193040000Y-68580000D01*
X192405000Y-68580000D02*
X191770000Y-69215000D01*
X191770000Y-69215000D02*
X191770000Y-73025000D01*
X191770000Y-73025000D02*
X191770000Y-75565000D01*
X191770000Y-75565000D02*
X191135000Y-76200000D01*
X191135000Y-76200000D02*
X184150000Y-76200000D01*
X184150000Y-76200000D02*
X182880000Y-74930000D01*
X193040000Y-68580000D02*
X192405000Y-68580000D01*
X182880000Y-74930000D02*
X182245000Y-74930000D01*
X189865000Y-82550000D02*
X193675000Y-82550000D01*
X193675000Y-82550000D02*
X194945000Y-81280000D01*
X194945000Y-74930000D02*
X193675000Y-74930000D01*
X193040000Y-75565000D02*
X193675000Y-74930000D01*
X193040000Y-78105000D02*
X193040000Y-75565000D01*
X192405000Y-78740000D02*
X193040000Y-78105000D01*
X184150000Y-78740000D02*
X192405000Y-78740000D01*
X184150000Y-78740000D02*
X182880000Y-80010000D01*
X182245000Y-80010000D02*
X182880000Y-80010000D01*
X194945000Y-71755000D02*
X193040000Y-71755000D01*
X191770000Y-77470000D02*
X192405000Y-76835000D01*
X192405000Y-76835000D02*
X192405000Y-72390000D01*
X192405000Y-72390000D02*
X193040000Y-71755000D01*
X191770000Y-77470000D02*
X189865000Y-77470000D01*
X184150000Y-83820000D02*
X194310000Y-83820000D01*
X182880000Y-85090000D02*
X184150000Y-83820000D01*
X194310000Y-83820000D02*
X194945000Y-84455000D01*
X182245000Y-85090000D02*
X182880000Y-85090000D01*
X139700000Y-94615000D02*
X137795000Y-94615000D01*
X137795000Y-94615000D02*
X137160000Y-95250000D01*
X154940000Y-90170000D02*
X148590000Y-90170000D01*
X127635000Y-85090000D02*
X128270000Y-85725000D01*
X121920000Y-85090000D02*
X127635000Y-85090000D01*
X128905000Y-95250000D02*
X130175000Y-95250000D01*
X128270000Y-94615000D02*
X128905000Y-95250000D01*
X128270000Y-85725000D02*
X128270000Y-94615000D01*
X187325000Y-90170000D02*
X154940000Y-90170000D01*
X191770000Y-81280000D02*
X194945000Y-78105000D01*
X187960000Y-81915000D02*
X187960000Y-83185000D01*
X188595000Y-81280000D02*
X187960000Y-81915000D01*
X191770000Y-81280000D02*
X188595000Y-81280000D01*
X141605000Y-92710000D02*
X139700000Y-94615000D01*
X146050000Y-92710000D02*
X141605000Y-92710000D01*
X148590000Y-90170000D02*
X146050000Y-92710000D01*
X126365000Y-103505000D02*
X126365000Y-104775000D01*
X130810000Y-99695000D02*
X127000000Y-99695000D01*
X127000000Y-99695000D02*
X126365000Y-100330000D01*
X126365000Y-100330000D02*
X126365000Y-103505000D01*
X144780000Y-99695000D02*
X143510000Y-99695000D01*
X146685000Y-97790000D02*
X144780000Y-99695000D01*
X151130000Y-97790000D02*
X146685000Y-97790000D01*
X153035000Y-95885000D02*
X151130000Y-97790000D01*
X154940000Y-95885000D02*
X153035000Y-95885000D01*
X156210000Y-94615000D02*
X154940000Y-95885000D01*
X162560000Y-94615000D02*
X156210000Y-94615000D01*
X163195000Y-93980000D02*
X162560000Y-94615000D01*
X169545000Y-93980000D02*
X163195000Y-93980000D01*
X170180000Y-93345000D02*
X169545000Y-93980000D01*
X179070000Y-93345000D02*
X170180000Y-93345000D01*
X180340000Y-92075000D02*
X179070000Y-93345000D01*
X186690000Y-92075000D02*
X180340000Y-92075000D01*
X187325000Y-91440000D02*
X186690000Y-92075000D01*
X143510000Y-99695000D02*
X137795000Y-99695000D01*
X126365000Y-104775000D02*
X125095000Y-106045000D01*
X123825000Y-106045000D02*
X125095000Y-106045000D01*
X121920000Y-106045000D02*
X123825000Y-106045000D01*
X136525000Y-127635000D02*
X136525000Y-123190000D01*
X121285000Y-105410000D02*
X114935000Y-105410000D01*
X121920000Y-106045000D02*
X121285000Y-105410000D01*
X135890000Y-122555000D02*
X124460000Y-122555000D01*
X136525000Y-123190000D02*
X135890000Y-122555000D01*
X175260000Y-92075000D02*
X168910000Y-92075000D01*
X179070000Y-82550000D02*
X178435000Y-83185000D01*
X178435000Y-83185000D02*
X178435000Y-88900000D01*
X178435000Y-91440000D02*
X177800000Y-92075000D01*
X177800000Y-92075000D02*
X175260000Y-92075000D01*
X182245000Y-82550000D02*
X179070000Y-82550000D01*
X125095000Y-99060000D02*
X125095000Y-102235000D01*
X125730000Y-98425000D02*
X125095000Y-99060000D01*
X130810000Y-98425000D02*
X125730000Y-98425000D01*
X143510000Y-98425000D02*
X137795000Y-98425000D01*
X145415000Y-96520000D02*
X143510000Y-98425000D01*
X149860000Y-96520000D02*
X145415000Y-96520000D01*
X151765000Y-94615000D02*
X149860000Y-96520000D01*
X153670000Y-94615000D02*
X151765000Y-94615000D01*
X154940000Y-93345000D02*
X153670000Y-94615000D01*
X161290000Y-93345000D02*
X154940000Y-93345000D01*
X161925000Y-92710000D02*
X161290000Y-93345000D01*
X168275000Y-92710000D02*
X161925000Y-92710000D01*
X168910000Y-92075000D02*
X168275000Y-92710000D01*
X122555000Y-105410000D02*
X124460000Y-105410000D01*
X136525000Y-130175000D02*
X137160000Y-130175000D01*
X137160000Y-130175000D02*
X137795000Y-129540000D01*
X137795000Y-129540000D02*
X137795000Y-122555000D01*
X137795000Y-122555000D02*
X137160000Y-121920000D01*
X137160000Y-121920000D02*
X125095000Y-121920000D01*
X121285000Y-103505000D02*
X120650000Y-102870000D01*
X120650000Y-102870000D02*
X114935000Y-102870000D01*
X189865000Y-80010000D02*
X187960000Y-80010000D01*
X125730000Y-102870000D02*
X125095000Y-103505000D01*
X125730000Y-99695000D02*
X125730000Y-102870000D01*
X126365000Y-99060000D02*
X125730000Y-99695000D01*
X130175000Y-99060000D02*
X126365000Y-99060000D01*
X144145000Y-99060000D02*
X137160000Y-99060000D01*
X146050000Y-97155000D02*
X144145000Y-99060000D01*
X150495000Y-97155000D02*
X146050000Y-97155000D01*
X152400000Y-95250000D02*
X150495000Y-97155000D01*
X154305000Y-95250000D02*
X152400000Y-95250000D01*
X155575000Y-93980000D02*
X154305000Y-95250000D01*
X161925000Y-93980000D02*
X155575000Y-93980000D01*
X162560000Y-93345000D02*
X161925000Y-93980000D01*
X168910000Y-93345000D02*
X162560000Y-93345000D01*
X169545000Y-92710000D02*
X168910000Y-93345000D01*
X178435000Y-92710000D02*
X169545000Y-92710000D01*
X179705000Y-91440000D02*
X178435000Y-92710000D01*
X186055000Y-91440000D02*
X179705000Y-91440000D01*
X187325000Y-80645000D02*
X187325000Y-82550000D01*
X187960000Y-80010000D02*
X187325000Y-80645000D01*
X123190000Y-102870000D02*
X123825000Y-103505000D01*
X123825000Y-103505000D02*
X125095000Y-103505000D01*
X120650000Y-101600000D02*
X121920000Y-101600000D01*
X119380000Y-101600000D02*
X120650000Y-101600000D01*
X121920000Y-101600000D02*
X123190000Y-102870000D01*
X119380000Y-101600000D02*
X118745000Y-100965000D01*
X118745000Y-100965000D02*
X118110000Y-100330000D01*
X118110000Y-100330000D02*
X114935000Y-100330000D01*
X133985000Y-127635000D02*
X133985000Y-124460000D01*
X133350000Y-123825000D02*
X123190000Y-123825000D01*
X133985000Y-124460000D02*
X133350000Y-123825000D01*
X121920000Y-82550000D02*
X120015000Y-82550000D01*
X119380000Y-83185000D02*
X120015000Y-82550000D01*
X133985000Y-130175000D02*
X135255000Y-128905000D01*
X134620000Y-123190000D02*
X123825000Y-123190000D01*
X135255000Y-123825000D02*
X134620000Y-123190000D01*
X135255000Y-128905000D02*
X135255000Y-123825000D01*
X118745000Y-99060000D02*
X116840000Y-99060000D01*
X116840000Y-99060000D02*
X116205000Y-99060000D01*
X113665000Y-99060000D02*
X116205000Y-99060000D01*
X113665000Y-99060000D02*
X112395000Y-100330000D01*
X122555000Y-103505000D02*
X123190000Y-104140000D01*
X123190000Y-104140000D02*
X124460000Y-104140000D01*
X176530000Y-91440000D02*
X177165000Y-91440000D01*
X179070000Y-77470000D02*
X178435000Y-78105000D01*
X178435000Y-78105000D02*
X178435000Y-78740000D01*
X178435000Y-78740000D02*
X177800000Y-79375000D01*
X177800000Y-79375000D02*
X177800000Y-88265000D01*
X176530000Y-91440000D02*
X168275000Y-91440000D01*
X168275000Y-91440000D02*
X167640000Y-92075000D01*
X167640000Y-92075000D02*
X161925000Y-92075000D01*
X161925000Y-92075000D02*
X161290000Y-92075000D01*
X161290000Y-92075000D02*
X160655000Y-92710000D01*
X160655000Y-92710000D02*
X154305000Y-92710000D01*
X154305000Y-92710000D02*
X153670000Y-93345000D01*
X153670000Y-93345000D02*
X153035000Y-93980000D01*
X153035000Y-93980000D02*
X151130000Y-93980000D01*
X151130000Y-93980000D02*
X149225000Y-95885000D01*
X149225000Y-95885000D02*
X144780000Y-95885000D01*
X144780000Y-95885000D02*
X142875000Y-97790000D01*
X142875000Y-97790000D02*
X137160000Y-97790000D01*
X130175000Y-97790000D02*
X125095000Y-97790000D01*
X125095000Y-97790000D02*
X124460000Y-98425000D01*
X124460000Y-98425000D02*
X124460000Y-102870000D01*
X182245000Y-77470000D02*
X179070000Y-77470000D01*
X121285000Y-102235000D02*
X122555000Y-103505000D01*
X121285000Y-102235000D02*
X118745000Y-102235000D01*
X131445000Y-125095000D02*
X130810000Y-124460000D01*
X130810000Y-124460000D02*
X122555000Y-124460000D01*
X131445000Y-127635000D02*
X131445000Y-125095000D01*
X113665000Y-101600000D02*
X112395000Y-102870000D01*
X118110000Y-101600000D02*
X113665000Y-101600000D01*
X118745000Y-102235000D02*
X118110000Y-101600000D01*
X131445000Y-130175000D02*
X130175000Y-128905000D01*
X129540000Y-125095000D02*
X123190000Y-125095000D01*
X130175000Y-125730000D02*
X129540000Y-125095000D01*
X130175000Y-128905000D02*
X130175000Y-125730000D01*
X113665000Y-104140000D02*
X112395000Y-105410000D01*
X118110000Y-104140000D02*
X113665000Y-104140000D01*
X118745000Y-104775000D02*
X118110000Y-104140000D01*
X123825000Y-107315000D02*
X125095000Y-107315000D01*
X118745000Y-107315000D02*
X123825000Y-107315000D01*
X187325000Y-92710000D02*
X188595000Y-91440000D01*
X180975000Y-92710000D02*
X187325000Y-92710000D01*
X179705000Y-93980000D02*
X180975000Y-92710000D01*
X170815000Y-93980000D02*
X179705000Y-93980000D01*
X170180000Y-94615000D02*
X170815000Y-93980000D01*
X163830000Y-94615000D02*
X170180000Y-94615000D01*
X163195000Y-95250000D02*
X163830000Y-94615000D01*
X156845000Y-95250000D02*
X163195000Y-95250000D01*
X155575000Y-96520000D02*
X156845000Y-95250000D01*
X153670000Y-96520000D02*
X155575000Y-96520000D01*
X151765000Y-98425000D02*
X153670000Y-96520000D01*
X147320000Y-98425000D02*
X151765000Y-98425000D01*
X145415000Y-100330000D02*
X147320000Y-98425000D01*
X137160000Y-100330000D02*
X145415000Y-100330000D01*
X127635000Y-100330000D02*
X130175000Y-100330000D01*
X127000000Y-100965000D02*
X127635000Y-100330000D01*
X127000000Y-105410000D02*
X127000000Y-100965000D01*
X125095000Y-107315000D02*
X127000000Y-105410000D01*
X123825000Y-125730000D02*
X128270000Y-125730000D01*
X118745000Y-107315000D02*
X118110000Y-106680000D01*
X118110000Y-106680000D02*
X113665000Y-106680000D01*
X112395000Y-107950000D02*
X113665000Y-106680000D01*
X128905000Y-126365000D02*
X128905000Y-127635000D01*
X128905000Y-126365000D02*
X128270000Y-125730000D01*
X191770000Y-92710000D02*
X193040000Y-92710000D01*
X191135000Y-90170000D02*
X191135000Y-92075000D01*
X191135000Y-92075000D02*
X191770000Y-92710000D01*
X182245000Y-72390000D02*
X184785000Y-74930000D01*
X184785000Y-74930000D02*
X189865000Y-74930000D01*
X182245000Y-73025000D02*
X182880000Y-73025000D01*
X139065000Y-131445000D02*
X139700000Y-130810000D01*
X129540000Y-131445000D02*
X137160000Y-131445000D01*
X128905000Y-130810000D02*
X129540000Y-131445000D01*
X139065000Y-131445000D02*
X137160000Y-131445000D01*
X139065000Y-92710000D02*
X139065000Y-85090000D01*
X138430000Y-93345000D02*
X139065000Y-92710000D01*
X136525000Y-93345000D02*
X138430000Y-93345000D01*
X135890000Y-93980000D02*
X136525000Y-93345000D01*
X135890000Y-119380000D02*
X135890000Y-93980000D01*
X136525000Y-120015000D02*
X135890000Y-119380000D01*
X139065000Y-120015000D02*
X136525000Y-120015000D01*
X139700000Y-120650000D02*
X139065000Y-120015000D01*
X139700000Y-130810000D02*
X139700000Y-120650000D01*
X128905000Y-130175000D02*
X128905000Y-130810000D01*
X137795000Y-92710000D02*
X135890000Y-92710000D01*
X135890000Y-92710000D02*
X135255000Y-93345000D01*
X135255000Y-93345000D02*
X135255000Y-120015000D01*
X135255000Y-120015000D02*
X135890000Y-120650000D01*
X135890000Y-120650000D02*
X138430000Y-120650000D01*
X138430000Y-120650000D02*
X139065000Y-121285000D01*
X139065000Y-121285000D02*
X139065000Y-129540000D01*
X138430000Y-85725000D02*
X138430000Y-92075000D01*
X138430000Y-92075000D02*
X137795000Y-92710000D01*
X139065000Y-132080000D02*
X137160000Y-132080000D01*
X127635000Y-128905000D02*
X127635000Y-131445000D01*
X127635000Y-131445000D02*
X128270000Y-132080000D01*
X128270000Y-132080000D02*
X137160000Y-132080000D01*
X127635000Y-128905000D02*
X126365000Y-127635000D01*
X137160000Y-92075000D02*
X135255000Y-92075000D01*
X134620000Y-92710000D02*
X134620000Y-93345000D01*
X135255000Y-92075000D02*
X134620000Y-92710000D01*
X137795000Y-91440000D02*
X137795000Y-86360000D01*
X137160000Y-92075000D02*
X137795000Y-91440000D01*
X138430000Y-121920000D02*
X138430000Y-130810000D01*
X137795000Y-121285000D02*
X138430000Y-121920000D01*
X135255000Y-121285000D02*
X137795000Y-121285000D01*
X134620000Y-120650000D02*
X135255000Y-121285000D01*
X134620000Y-93345000D02*
X134620000Y-120650000D01*
X126365000Y-132080000D02*
X127000000Y-132715000D01*
X127000000Y-132715000D02*
X137795000Y-132715000D01*
X126365000Y-130175000D02*
X126365000Y-132080000D01*
X116840000Y-80010000D02*
X117475000Y-80645000D01*
X118110000Y-125730000D02*
X118745000Y-126365000D01*
X118745000Y-127635000D02*
X118745000Y-126365000D01*
X116840000Y-80010000D02*
X114935000Y-80010000D01*
X144145000Y-82550000D02*
X142875000Y-83820000D01*
X125095000Y-118110000D02*
X114935000Y-118110000D01*
X133350000Y-118110000D02*
X125095000Y-118110000D01*
X133985000Y-117475000D02*
X133350000Y-118110000D01*
X133985000Y-88900000D02*
X133985000Y-117475000D01*
X142875000Y-83820000D02*
X135255000Y-83820000D01*
X144145000Y-80010000D02*
X142875000Y-81280000D01*
X113665000Y-116840000D02*
X124460000Y-116840000D01*
X113665000Y-116840000D02*
X112395000Y-118110000D01*
X132715000Y-116840000D02*
X124460000Y-116840000D01*
X133350000Y-116205000D02*
X132715000Y-116840000D01*
X133350000Y-111125000D02*
X133350000Y-116205000D01*
X133350000Y-88265000D02*
X133350000Y-111125000D01*
X142875000Y-81280000D02*
X134620000Y-81280000D01*
X132715000Y-101600000D02*
X132080000Y-102235000D01*
X128905000Y-107315000D02*
X121920000Y-114300000D01*
X128905000Y-102870000D02*
X128905000Y-107315000D01*
X129540000Y-102235000D02*
X128905000Y-102870000D01*
X132080000Y-102235000D02*
X129540000Y-102235000D01*
X144145000Y-77470000D02*
X138430000Y-77470000D01*
X138430000Y-77470000D02*
X137160000Y-78740000D01*
X113665000Y-114300000D02*
X121920000Y-114300000D01*
X112395000Y-115570000D02*
X113665000Y-114300000D01*
X137160000Y-78740000D02*
X133985000Y-78740000D01*
X133985000Y-78740000D02*
X133350000Y-79375000D01*
X133350000Y-79375000D02*
X133350000Y-81915000D01*
X132715000Y-88900000D02*
X132715000Y-101600000D01*
X126365000Y-108585000D02*
X123190000Y-111760000D01*
X123190000Y-111760000D02*
X122555000Y-111760000D01*
X132080000Y-100965000D02*
X131445000Y-101600000D01*
X128270000Y-106680000D02*
X126365000Y-108585000D01*
X128270000Y-102235000D02*
X128270000Y-106680000D01*
X128905000Y-101600000D02*
X128270000Y-102235000D01*
X131445000Y-101600000D02*
X128905000Y-101600000D01*
X132715000Y-76835000D02*
X132715000Y-74295000D01*
X142875000Y-73660000D02*
X144145000Y-74930000D01*
X133350000Y-73660000D02*
X142875000Y-73660000D01*
X132715000Y-74295000D02*
X133350000Y-73660000D01*
X132080000Y-88265000D02*
X132080000Y-100965000D01*
X113665000Y-111760000D02*
X122555000Y-111760000D01*
X113665000Y-111760000D02*
X112395000Y-113030000D01*
X132715000Y-76835000D02*
X132715000Y-81280000D01*
X116840000Y-78740000D02*
X117475000Y-78105000D01*
X118110000Y-74930000D02*
X120650000Y-74930000D01*
X117475000Y-75565000D02*
X118110000Y-74930000D01*
X117475000Y-78105000D02*
X117475000Y-75565000D01*
X112395000Y-80010000D02*
X113665000Y-78740000D01*
X113665000Y-78740000D02*
X116840000Y-78740000D01*
X120650000Y-74930000D02*
X121920000Y-74930000D01*
X120015000Y-72390000D02*
X117475000Y-72390000D01*
X116840000Y-76835000D02*
X116205000Y-77470000D01*
X116840000Y-73025000D02*
X116840000Y-76835000D01*
X117475000Y-72390000D02*
X116840000Y-73025000D01*
X114935000Y-77470000D02*
X116205000Y-77470000D01*
X120015000Y-72390000D02*
X121920000Y-72390000D01*
X136525000Y-106045000D02*
X136525000Y-114935000D01*
X140970000Y-92075000D02*
X139065000Y-93980000D01*
X139065000Y-93980000D02*
X137160000Y-93980000D01*
X137160000Y-93980000D02*
X136525000Y-94615000D01*
X136525000Y-94615000D02*
X136525000Y-106045000D01*
X144145000Y-92075000D02*
X140970000Y-92075000D01*
X151130000Y-74930000D02*
X148590000Y-74930000D01*
X123190000Y-115570000D02*
X114935000Y-115570000D01*
X132715000Y-115570000D02*
X123190000Y-115570000D01*
X145415000Y-92075000D02*
X144145000Y-92075000D01*
X146685000Y-90805000D02*
X145415000Y-92075000D01*
X146685000Y-88265000D02*
X146685000Y-90805000D01*
X147320000Y-87630000D02*
X146685000Y-88265000D01*
X147320000Y-85725000D02*
X147320000Y-87630000D01*
X147955000Y-85090000D02*
X147320000Y-85725000D01*
X147955000Y-75565000D02*
X147955000Y-85090000D01*
X148590000Y-74930000D02*
X147955000Y-75565000D01*
X125730000Y-107950000D02*
X123190000Y-110490000D01*
X123190000Y-110490000D02*
X122555000Y-110490000D01*
X131445000Y-100330000D02*
X130810000Y-100965000D01*
X127635000Y-106045000D02*
X125730000Y-107950000D01*
X127635000Y-101600000D02*
X127635000Y-106045000D01*
X128270000Y-100965000D02*
X127635000Y-101600000D01*
X130810000Y-100965000D02*
X128270000Y-100965000D01*
X131445000Y-86360000D02*
X131445000Y-100330000D01*
X114935000Y-110490000D02*
X122555000Y-110490000D01*
X123190000Y-108585000D02*
X122555000Y-109220000D01*
X158750000Y-82550000D02*
X153035000Y-82550000D01*
X123190000Y-97155000D02*
X123190000Y-101600000D01*
X123825000Y-96520000D02*
X123190000Y-97155000D01*
X130175000Y-96520000D02*
X123825000Y-96520000D01*
X141605000Y-96520000D02*
X137160000Y-96520000D01*
X143510000Y-94615000D02*
X141605000Y-96520000D01*
X147955000Y-94615000D02*
X143510000Y-94615000D01*
X149860000Y-92710000D02*
X147955000Y-94615000D01*
X151765000Y-92710000D02*
X149860000Y-92710000D01*
X152400000Y-83185000D02*
X152400000Y-89535000D01*
X153035000Y-82550000D02*
X152400000Y-83185000D01*
X113665000Y-109220000D02*
X122555000Y-109220000D01*
X112395000Y-110490000D02*
X113665000Y-109220000D01*
X158750000Y-85090000D02*
X153670000Y-85090000D01*
X123825000Y-97790000D02*
X123825000Y-102235000D01*
X124460000Y-97155000D02*
X123825000Y-97790000D01*
X130810000Y-97155000D02*
X124460000Y-97155000D01*
X142240000Y-97155000D02*
X137795000Y-97155000D01*
X144145000Y-95250000D02*
X142240000Y-97155000D01*
X148590000Y-95250000D02*
X144145000Y-95250000D01*
X150495000Y-93345000D02*
X148590000Y-95250000D01*
X152400000Y-93345000D02*
X150495000Y-93345000D01*
X153035000Y-92710000D02*
X152400000Y-93345000D01*
X153035000Y-85725000D02*
X153035000Y-88900000D01*
X153670000Y-85090000D02*
X153035000Y-85725000D01*
X123190000Y-107950000D02*
X123825000Y-107950000D01*
X114935000Y-107950000D02*
X123190000Y-107950000D01*
X118745000Y-81915000D02*
X119380000Y-81280000D01*
X119380000Y-81280000D02*
X123190000Y-81280000D01*
X123190000Y-81280000D02*
X123825000Y-80645000D01*
X123825000Y-80645000D02*
X123825000Y-75565000D01*
X123825000Y-75565000D02*
X124460000Y-74930000D01*
X129540000Y-74930000D02*
X124460000Y-74930000D01*
X113665000Y-96520000D02*
X112395000Y-97790000D01*
X118110000Y-96520000D02*
X118745000Y-95885000D01*
X113665000Y-96520000D02*
X118110000Y-96520000D01*
X166370000Y-66675000D02*
X165735000Y-66040000D01*
X166370000Y-67310000D02*
X166370000Y-66675000D01*
X166370000Y-71120000D02*
X166370000Y-67310000D01*
X132715000Y-67310000D02*
X132715000Y-66040000D01*
X133350000Y-65405000D02*
X145415000Y-65405000D01*
X132715000Y-66040000D02*
X133350000Y-65405000D01*
X132715000Y-67310000D02*
X132715000Y-73025000D01*
X160655000Y-66675000D02*
X148590000Y-66675000D01*
X161290000Y-66040000D02*
X160655000Y-66675000D01*
X165735000Y-66040000D02*
X161290000Y-66040000D01*
X198120000Y-92710000D02*
X198120000Y-90170000D01*
X198755000Y-63500000D02*
X198120000Y-64135000D01*
X198120000Y-64135000D02*
X198120000Y-90170000D01*
X201930000Y-92710000D02*
X200660000Y-92710000D01*
X200025000Y-92075000D02*
X200025000Y-90805000D01*
X200660000Y-92710000D02*
X200025000Y-92075000D01*
X198755000Y-89535000D02*
X200025000Y-90805000D01*
X198755000Y-64770000D02*
X198755000Y-89535000D01*
X199390000Y-64135000D02*
X198755000Y-64770000D01*
X201930000Y-92710000D02*
X203200000Y-92710000D01*
X197485000Y-64770000D02*
X187960000Y-64770000D01*
X176530000Y-75565000D02*
X175260000Y-75565000D01*
X177165000Y-74930000D02*
X176530000Y-75565000D01*
X177165000Y-66040000D02*
X177165000Y-74930000D01*
X177800000Y-65405000D02*
X177165000Y-66040000D01*
X187325000Y-65405000D02*
X177800000Y-65405000D01*
X187960000Y-64770000D02*
X187325000Y-65405000D01*
X175260000Y-78740000D02*
X177165000Y-78740000D01*
X188595000Y-65405000D02*
X196850000Y-65405000D01*
X187960000Y-66040000D02*
X188595000Y-65405000D01*
X178435000Y-66040000D02*
X187960000Y-66040000D01*
X177800000Y-66675000D02*
X178435000Y-66040000D01*
X177800000Y-78105000D02*
X177800000Y-66675000D01*
X177165000Y-78740000D02*
X177800000Y-78105000D01*
X165100000Y-78740000D02*
X150495000Y-78740000D01*
X149860000Y-84455000D02*
X150495000Y-85090000D01*
X149860000Y-79375000D02*
X149860000Y-84455000D01*
X150495000Y-78740000D02*
X149860000Y-79375000D01*
X150495000Y-85090000D02*
X151130000Y-85090000D01*
X165100000Y-75565000D02*
X160655000Y-75565000D01*
X160655000Y-75565000D02*
X158750000Y-77470000D01*
X165100000Y-72390000D02*
X165100000Y-75565000D01*
X140335000Y-95250000D02*
X142240000Y-93345000D01*
X129540000Y-93980000D02*
X130175000Y-94615000D01*
X130175000Y-94615000D02*
X130810000Y-94615000D01*
X129540000Y-87630000D02*
X129540000Y-93980000D01*
X138430000Y-95250000D02*
X140335000Y-95250000D01*
X166370000Y-81915000D02*
X165100000Y-81915000D01*
X167005000Y-82550000D02*
X166370000Y-81915000D01*
X149225000Y-90805000D02*
X166370000Y-90805000D01*
X146685000Y-93345000D02*
X149225000Y-90805000D01*
X142240000Y-93345000D02*
X146685000Y-93345000D01*
X149860000Y-77470000D02*
X151130000Y-77470000D01*
X148590000Y-76200000D02*
X149860000Y-77470000D01*
X133350000Y-76200000D02*
X145415000Y-76200000D01*
X151130000Y-77470000D02*
X156210000Y-77470000D01*
X156210000Y-77470000D02*
X158750000Y-74930000D01*
X152400000Y-81280000D02*
X151130000Y-81280000D01*
X151130000Y-80010000D02*
X151130000Y-81280000D01*
X151130000Y-81280000D02*
X151130000Y-82550000D01*
X158750000Y-87630000D02*
X159385000Y-87630000D01*
X159385000Y-87630000D02*
X160020000Y-86995000D01*
X160020000Y-86995000D02*
X160020000Y-81915000D01*
X160020000Y-81915000D02*
X159385000Y-81280000D01*
X159385000Y-81280000D02*
X152400000Y-81280000D01*
X190500000Y-92710000D02*
X190500000Y-94615000D01*
X191135000Y-95250000D02*
X193040000Y-95250000D01*
X190500000Y-94615000D02*
X191135000Y-95250000D01*
X186690000Y-90805000D02*
X189865000Y-90805000D01*
X141605000Y-80010000D02*
X142875000Y-78740000D01*
X142875000Y-78740000D02*
X145415000Y-78740000D01*
X148590000Y-79375000D02*
X148590000Y-85725000D01*
X148590000Y-85725000D02*
X147955000Y-86360000D01*
X147955000Y-86360000D02*
X147955000Y-88265000D01*
X147955000Y-88265000D02*
X147320000Y-88900000D01*
X147320000Y-88900000D02*
X147320000Y-90170000D01*
X149860000Y-91440000D02*
X167005000Y-91440000D01*
X167005000Y-91440000D02*
X167640000Y-90805000D01*
X167640000Y-90805000D02*
X186690000Y-90805000D01*
X136525000Y-80010000D02*
X141605000Y-80010000D01*
X190500000Y-91440000D02*
X190500000Y-92710000D01*
X189865000Y-90805000D02*
X190500000Y-91440000D01*
M02*
