G04 #@! TF.FileFunction,Copper,L2,Bot,Signal*
%FSLAX46Y46*%
G04 Gerber Fmt 4.6, Leading zero omitted, Abs format (unit mm)*
G04 Created by KiCad (PCBNEW 4.0.7) date 01/23/20 16:05:59*
%MOMM*%
%LPD*%
G01*
G04 APERTURE LIST*
%ADD10C,0.100000*%
%ADD11R,1.600000X1.600000*%
%ADD12O,1.600000X1.600000*%
%ADD13C,1.600000*%
%ADD14R,1.700000X1.700000*%
%ADD15O,1.700000X1.700000*%
%ADD16R,2.500000X3.500000*%
%ADD17O,3.500000X1.750000*%
%ADD18C,1.440000*%
%ADD19C,1.524000*%
%ADD20C,0.600000*%
%ADD21C,0.250000*%
%ADD22C,0.254000*%
G04 APERTURE END LIST*
D10*
D11*
X124460000Y-98425000D03*
D12*
X139700000Y-131445000D03*
X124460000Y-100965000D03*
X139700000Y-128905000D03*
X124460000Y-103505000D03*
X139700000Y-126365000D03*
X124460000Y-106045000D03*
X139700000Y-123825000D03*
X124460000Y-108585000D03*
X139700000Y-121285000D03*
X124460000Y-111125000D03*
X139700000Y-118745000D03*
X124460000Y-113665000D03*
X139700000Y-116205000D03*
X124460000Y-116205000D03*
X139700000Y-113665000D03*
X124460000Y-118745000D03*
X139700000Y-111125000D03*
X124460000Y-121285000D03*
X139700000Y-108585000D03*
X124460000Y-123825000D03*
X139700000Y-106045000D03*
X124460000Y-126365000D03*
X139700000Y-103505000D03*
X124460000Y-128905000D03*
X139700000Y-100965000D03*
X124460000Y-131445000D03*
X139700000Y-98425000D03*
D13*
X120650000Y-106045000D03*
X120650000Y-111045000D03*
X163830000Y-103505000D03*
X163830000Y-98505000D03*
X143510000Y-106045000D03*
X143510000Y-111045000D03*
X179070000Y-103505000D03*
X179070000Y-98505000D03*
X179070000Y-113665000D03*
X179070000Y-118665000D03*
X163830000Y-113665000D03*
X163830000Y-118665000D03*
X97790000Y-98425000D03*
X97790000Y-103425000D03*
X120650000Y-98425000D03*
X120650000Y-103425000D03*
D14*
X193040000Y-147320000D03*
D15*
X190500000Y-147320000D03*
X187960000Y-147320000D03*
X185420000Y-147320000D03*
X182880000Y-147320000D03*
X180340000Y-147320000D03*
X177800000Y-147320000D03*
X175260000Y-147320000D03*
X172720000Y-147320000D03*
X170180000Y-147320000D03*
X167640000Y-147320000D03*
X165100000Y-147320000D03*
X162560000Y-147320000D03*
X160020000Y-147320000D03*
X157480000Y-147320000D03*
X154940000Y-147320000D03*
X152400000Y-147320000D03*
X149860000Y-147320000D03*
X147320000Y-147320000D03*
X144780000Y-147320000D03*
X142240000Y-147320000D03*
X139700000Y-147320000D03*
X137160000Y-147320000D03*
X134620000Y-147320000D03*
X132080000Y-147320000D03*
X129540000Y-147320000D03*
X127000000Y-147320000D03*
X124460000Y-147320000D03*
X121920000Y-147320000D03*
X119380000Y-147320000D03*
X116840000Y-147320000D03*
X114300000Y-147320000D03*
X111760000Y-147320000D03*
X109220000Y-147320000D03*
X106680000Y-147320000D03*
X104140000Y-147320000D03*
X101600000Y-147320000D03*
X99060000Y-147320000D03*
X96520000Y-147320000D03*
D13*
X149225000Y-88265000D03*
D12*
X159385000Y-88265000D03*
D13*
X168275000Y-88265000D03*
D12*
X178435000Y-88265000D03*
D13*
X178435000Y-84455000D03*
D12*
X168275000Y-84455000D03*
D13*
X149225000Y-84455000D03*
D12*
X159385000Y-84455000D03*
D13*
X97790000Y-106045000D03*
X97790000Y-111045000D03*
X120650000Y-113665000D03*
X120650000Y-118665000D03*
D11*
X149860000Y-93345000D03*
D13*
X152360000Y-93345000D03*
D11*
X168910000Y-93345000D03*
D13*
X171410000Y-93345000D03*
D11*
X158750000Y-93345000D03*
D13*
X156250000Y-93345000D03*
D11*
X177800000Y-93345000D03*
D13*
X175300000Y-93345000D03*
X146050000Y-90170000D03*
X146050000Y-95170000D03*
X165100000Y-90170000D03*
X165100000Y-95170000D03*
D11*
X143510000Y-85725000D03*
D13*
X146010000Y-85725000D03*
D11*
X162560000Y-85725000D03*
D13*
X165060000Y-85725000D03*
D11*
X99060000Y-140335000D03*
D13*
X101560000Y-140335000D03*
D14*
X182880000Y-98425000D03*
D15*
X185420000Y-98425000D03*
X182880000Y-100965000D03*
X185420000Y-100965000D03*
X182880000Y-103505000D03*
X185420000Y-103505000D03*
X182880000Y-106045000D03*
X185420000Y-106045000D03*
X182880000Y-108585000D03*
X185420000Y-108585000D03*
D16*
X190191000Y-88900000D03*
D17*
X185185000Y-93900000D03*
X185185000Y-83900000D03*
X185185000Y-91400000D03*
X185185000Y-86400000D03*
D11*
X101600000Y-98425000D03*
D12*
X116840000Y-131445000D03*
X101600000Y-100965000D03*
X116840000Y-128905000D03*
X101600000Y-103505000D03*
X116840000Y-126365000D03*
X101600000Y-106045000D03*
X116840000Y-123825000D03*
X101600000Y-108585000D03*
X116840000Y-121285000D03*
X101600000Y-111125000D03*
X116840000Y-118745000D03*
X101600000Y-113665000D03*
X116840000Y-116205000D03*
X101600000Y-116205000D03*
X116840000Y-113665000D03*
X101600000Y-118745000D03*
X116840000Y-111125000D03*
X101600000Y-121285000D03*
X116840000Y-108585000D03*
X101600000Y-123825000D03*
X116840000Y-106045000D03*
X101600000Y-126365000D03*
X116840000Y-103505000D03*
X101600000Y-128905000D03*
X116840000Y-100965000D03*
X101600000Y-131445000D03*
X116840000Y-98425000D03*
D11*
X152400000Y-98425000D03*
D12*
X160020000Y-106045000D03*
X152400000Y-100965000D03*
X160020000Y-103505000D03*
X152400000Y-103505000D03*
X160020000Y-100965000D03*
X152400000Y-106045000D03*
X160020000Y-98425000D03*
D11*
X167640000Y-98425000D03*
D12*
X175260000Y-106045000D03*
X167640000Y-100965000D03*
X175260000Y-103505000D03*
X167640000Y-103505000D03*
X175260000Y-100965000D03*
X167640000Y-106045000D03*
X175260000Y-98425000D03*
D11*
X167640000Y-113665000D03*
D12*
X175260000Y-131445000D03*
X167640000Y-116205000D03*
X175260000Y-128905000D03*
X167640000Y-118745000D03*
X175260000Y-126365000D03*
X167640000Y-121285000D03*
X175260000Y-123825000D03*
X167640000Y-123825000D03*
X175260000Y-121285000D03*
X167640000Y-126365000D03*
X175260000Y-118745000D03*
X167640000Y-128905000D03*
X175260000Y-116205000D03*
X167640000Y-131445000D03*
X175260000Y-113665000D03*
D11*
X152400000Y-113665000D03*
D12*
X160020000Y-131445000D03*
X152400000Y-116205000D03*
X160020000Y-128905000D03*
X152400000Y-118745000D03*
X160020000Y-126365000D03*
X152400000Y-121285000D03*
X160020000Y-123825000D03*
X152400000Y-123825000D03*
X160020000Y-121285000D03*
X152400000Y-126365000D03*
X160020000Y-118745000D03*
X152400000Y-128905000D03*
X160020000Y-116205000D03*
X152400000Y-131445000D03*
X160020000Y-113665000D03*
D14*
X182880000Y-118745000D03*
D15*
X185420000Y-118745000D03*
X182880000Y-121285000D03*
X185420000Y-121285000D03*
X182880000Y-123825000D03*
X185420000Y-123825000D03*
X182880000Y-126365000D03*
X185420000Y-126365000D03*
X182880000Y-128905000D03*
X185420000Y-128905000D03*
X182880000Y-131445000D03*
X185420000Y-131445000D03*
D18*
X107950000Y-89535000D03*
X105410000Y-89535000D03*
X102870000Y-89535000D03*
D19*
X111125000Y-82550000D03*
X99695000Y-82550000D03*
D18*
X121920000Y-89535000D03*
X119380000Y-89535000D03*
X116840000Y-89535000D03*
D19*
X125095000Y-82550000D03*
X113665000Y-82550000D03*
D20*
X158750000Y-125095000D03*
X163195000Y-109220000D03*
X95885000Y-107950000D03*
X163830000Y-107950000D03*
X173990000Y-120015000D03*
X173990000Y-127635000D03*
X173355000Y-118110000D03*
X173355000Y-127000000D03*
X172720000Y-126365000D03*
X172720000Y-115570000D03*
X158115000Y-120650000D03*
X158115000Y-127000000D03*
X157480000Y-118110000D03*
X157480000Y-127635000D03*
X156845000Y-115570000D03*
X156845000Y-127000000D03*
X128270000Y-129540000D03*
X128270000Y-133985000D03*
X161925000Y-144145000D03*
X128905000Y-127000000D03*
X128905000Y-133350000D03*
X159385000Y-143510000D03*
X129540000Y-124460000D03*
X129540000Y-133985000D03*
X156845000Y-142875000D03*
X130175000Y-133350000D03*
X130175000Y-121920000D03*
X154305000Y-142240000D03*
X130810000Y-119380000D03*
X130810000Y-133985000D03*
X128270000Y-114300000D03*
X127635000Y-133350000D03*
X127000000Y-114300000D03*
X126365000Y-133350000D03*
X112395000Y-127000000D03*
X112395000Y-128905000D03*
X111760000Y-124460000D03*
X111760000Y-128270000D03*
X111125000Y-121920000D03*
X111125000Y-128905000D03*
X110490000Y-119380000D03*
X110490000Y-128270000D03*
X109855000Y-116840000D03*
X109855000Y-128905000D03*
X109220000Y-114300000D03*
X109220000Y-128270000D03*
X127635000Y-110490000D03*
X127000000Y-133985000D03*
X188595000Y-92710000D03*
X188595000Y-102870000D03*
X188595000Y-97790000D03*
X188595000Y-107950000D03*
X122555000Y-115570000D03*
X126365000Y-114935000D03*
D21*
X158750000Y-114300000D02*
X159385000Y-113665000D01*
X158750000Y-125095000D02*
X158750000Y-114300000D01*
X159385000Y-113665000D02*
X160020000Y-113665000D01*
X149860000Y-147320000D02*
X149860000Y-146050000D01*
X95885000Y-144780000D02*
X95885000Y-139700000D01*
X96520000Y-145415000D02*
X95885000Y-144780000D01*
X149225000Y-145415000D02*
X96520000Y-145415000D01*
X149860000Y-146050000D02*
X149225000Y-145415000D01*
X163830000Y-107950000D02*
X163830000Y-108585000D01*
X163830000Y-108585000D02*
X163195000Y-109220000D01*
X96520000Y-140335000D02*
X95885000Y-139700000D01*
X96520000Y-140335000D02*
X99060000Y-140335000D01*
X95885000Y-139700000D02*
X95885000Y-107950000D01*
X173990000Y-120015000D02*
X173990000Y-127635000D01*
X173355000Y-118110000D02*
X173355000Y-127000000D01*
X172720000Y-126365000D02*
X172720000Y-115570000D01*
X158115000Y-127000000D02*
X158115000Y-120650000D01*
X157480000Y-127635000D02*
X157480000Y-118110000D01*
X156845000Y-127000000D02*
X156845000Y-115570000D01*
X128270000Y-133985000D02*
X128270000Y-129540000D01*
X162560000Y-144780000D02*
X161925000Y-144145000D01*
X162560000Y-147320000D02*
X162560000Y-144780000D01*
X128905000Y-133350000D02*
X128905000Y-127000000D01*
X160020000Y-144145000D02*
X159385000Y-143510000D01*
X160020000Y-147320000D02*
X160020000Y-144145000D01*
X129540000Y-133985000D02*
X129540000Y-124460000D01*
X157480000Y-143510000D02*
X156845000Y-142875000D01*
X157480000Y-143510000D02*
X157480000Y-147320000D01*
X130175000Y-121920000D02*
X130175000Y-133350000D01*
X154940000Y-142875000D02*
X154305000Y-142240000D01*
X154940000Y-147320000D02*
X154940000Y-142875000D01*
X130810000Y-133985000D02*
X130810000Y-119380000D01*
X127635000Y-128270000D02*
X128270000Y-127635000D01*
X128270000Y-127635000D02*
X128270000Y-114300000D01*
X127635000Y-128270000D02*
X127635000Y-133350000D01*
X126365000Y-133350000D02*
X126365000Y-127000000D01*
X127000000Y-126365000D02*
X127000000Y-114300000D01*
X126365000Y-127000000D02*
X127000000Y-126365000D01*
X112395000Y-128905000D02*
X112395000Y-127000000D01*
X111760000Y-128270000D02*
X111760000Y-124460000D01*
X111125000Y-128905000D02*
X111125000Y-121920000D01*
X110490000Y-128270000D02*
X110490000Y-119380000D01*
X109855000Y-128905000D02*
X109855000Y-116840000D01*
X109220000Y-128270000D02*
X109220000Y-114300000D01*
X127000000Y-127635000D02*
X127635000Y-127000000D01*
X127635000Y-127000000D02*
X127635000Y-110490000D01*
X127000000Y-133985000D02*
X127000000Y-127635000D01*
X152400000Y-98425000D02*
X150495000Y-98425000D01*
X149860000Y-97790000D02*
X149860000Y-93345000D01*
X150495000Y-98425000D02*
X149860000Y-97790000D01*
X167640000Y-98425000D02*
X167640000Y-94615000D01*
X167640000Y-94615000D02*
X168910000Y-93345000D01*
X188595000Y-97790000D02*
X188595000Y-92710000D01*
X188595000Y-97790000D02*
X188595000Y-102870000D01*
X188595000Y-102870000D02*
X188595000Y-107950000D01*
X125095000Y-114935000D02*
X126365000Y-114935000D01*
X123190000Y-114935000D02*
X125095000Y-114935000D01*
X122555000Y-115570000D02*
X123190000Y-114935000D01*
X99695000Y-104140000D02*
X97790000Y-106045000D01*
X100330000Y-103505000D02*
X101600000Y-103505000D01*
X99695000Y-104140000D02*
X100330000Y-103505000D01*
X99060000Y-106680000D02*
X99060000Y-109855000D01*
X99060000Y-106680000D02*
X99695000Y-106045000D01*
X101600000Y-106045000D02*
X99695000Y-106045000D01*
X99060000Y-110490000D02*
X98505000Y-111045000D01*
X99060000Y-109855000D02*
X99060000Y-110490000D01*
X98505000Y-111045000D02*
X97790000Y-111045000D01*
X120650000Y-113665000D02*
X121920000Y-113665000D01*
X123190000Y-103505000D02*
X124460000Y-103505000D01*
X122555000Y-104140000D02*
X123190000Y-103505000D01*
X122555000Y-113030000D02*
X122555000Y-104140000D01*
X121920000Y-113665000D02*
X122555000Y-113030000D01*
X120650000Y-118665000D02*
X120650000Y-116205000D01*
X120650000Y-116205000D02*
X123190000Y-113665000D01*
X123190000Y-113665000D02*
X123190000Y-106680000D01*
X123190000Y-106680000D02*
X123825000Y-106045000D01*
X123825000Y-106045000D02*
X124460000Y-106045000D01*
D22*
G36*
X110334697Y-81364990D02*
X109941371Y-81757630D01*
X109728243Y-82270900D01*
X109727758Y-82826661D01*
X109939990Y-83340303D01*
X110332630Y-83733629D01*
X110845900Y-83946757D01*
X111401661Y-83947242D01*
X111915303Y-83735010D01*
X112308629Y-83342370D01*
X112394949Y-83134488D01*
X112479990Y-83340303D01*
X112872630Y-83733629D01*
X113385900Y-83946757D01*
X113941661Y-83947242D01*
X114455303Y-83735010D01*
X114848629Y-83342370D01*
X115061757Y-82829100D01*
X115062242Y-82273339D01*
X114850010Y-81759697D01*
X114457370Y-81366371D01*
X114429986Y-81355000D01*
X124328875Y-81355000D01*
X124304697Y-81364990D01*
X123911371Y-81757630D01*
X123698243Y-82270900D01*
X123697758Y-82826661D01*
X123909990Y-83340303D01*
X124302630Y-83733629D01*
X124815900Y-83946757D01*
X125371661Y-83947242D01*
X125885303Y-83735010D01*
X126278629Y-83342370D01*
X126491757Y-82829100D01*
X126492242Y-82273339D01*
X126280010Y-81759697D01*
X125887370Y-81366371D01*
X125859986Y-81355000D01*
X189795069Y-81355000D01*
X191289001Y-81652161D01*
X192496209Y-82458791D01*
X193302839Y-83666001D01*
X193600000Y-85159931D01*
X193600000Y-145822560D01*
X192190000Y-145822560D01*
X191954683Y-145866838D01*
X191738559Y-146005910D01*
X191593569Y-146218110D01*
X191579914Y-146285541D01*
X191550054Y-146240853D01*
X191068285Y-145918946D01*
X190500000Y-145805907D01*
X189931715Y-145918946D01*
X189449946Y-146240853D01*
X189230000Y-146570026D01*
X189010054Y-146240853D01*
X188528285Y-145918946D01*
X187960000Y-145805907D01*
X187391715Y-145918946D01*
X186909946Y-146240853D01*
X186690000Y-146570026D01*
X186470054Y-146240853D01*
X185988285Y-145918946D01*
X185420000Y-145805907D01*
X184851715Y-145918946D01*
X184369946Y-146240853D01*
X184150000Y-146570026D01*
X183930054Y-146240853D01*
X183448285Y-145918946D01*
X182880000Y-145805907D01*
X182311715Y-145918946D01*
X181829946Y-146240853D01*
X181610000Y-146570026D01*
X181390054Y-146240853D01*
X180908285Y-145918946D01*
X180340000Y-145805907D01*
X179771715Y-145918946D01*
X179289946Y-146240853D01*
X179070000Y-146570026D01*
X178850054Y-146240853D01*
X178368285Y-145918946D01*
X177800000Y-145805907D01*
X177231715Y-145918946D01*
X176749946Y-146240853D01*
X176530000Y-146570026D01*
X176310054Y-146240853D01*
X175828285Y-145918946D01*
X175260000Y-145805907D01*
X174691715Y-145918946D01*
X174209946Y-146240853D01*
X173990000Y-146570026D01*
X173770054Y-146240853D01*
X173288285Y-145918946D01*
X172720000Y-145805907D01*
X172151715Y-145918946D01*
X171669946Y-146240853D01*
X171450000Y-146570026D01*
X171230054Y-146240853D01*
X170748285Y-145918946D01*
X170180000Y-145805907D01*
X169611715Y-145918946D01*
X169129946Y-146240853D01*
X168910000Y-146570026D01*
X168690054Y-146240853D01*
X168208285Y-145918946D01*
X167640000Y-145805907D01*
X167071715Y-145918946D01*
X166589946Y-146240853D01*
X166370000Y-146570026D01*
X166150054Y-146240853D01*
X165668285Y-145918946D01*
X165100000Y-145805907D01*
X164531715Y-145918946D01*
X164049946Y-146240853D01*
X163830000Y-146570026D01*
X163610054Y-146240853D01*
X163320000Y-146047046D01*
X163320000Y-144780000D01*
X163262148Y-144489161D01*
X163097401Y-144242599D01*
X162860122Y-144005320D01*
X162860162Y-143959833D01*
X162718117Y-143616057D01*
X162455327Y-143352808D01*
X162111799Y-143210162D01*
X161739833Y-143209838D01*
X161396057Y-143351883D01*
X161132808Y-143614673D01*
X160990162Y-143958201D01*
X160989838Y-144330167D01*
X161131883Y-144673943D01*
X161394673Y-144937192D01*
X161738201Y-145079838D01*
X161785077Y-145079879D01*
X161800000Y-145094802D01*
X161800000Y-146047046D01*
X161509946Y-146240853D01*
X161290000Y-146570026D01*
X161070054Y-146240853D01*
X160780000Y-146047046D01*
X160780000Y-144145000D01*
X160722148Y-143854161D01*
X160557401Y-143607599D01*
X160320122Y-143370320D01*
X160320162Y-143324833D01*
X160178117Y-142981057D01*
X159915327Y-142717808D01*
X159571799Y-142575162D01*
X159199833Y-142574838D01*
X158856057Y-142716883D01*
X158592808Y-142979673D01*
X158450162Y-143323201D01*
X158449838Y-143695167D01*
X158591883Y-144038943D01*
X158854673Y-144302192D01*
X159198201Y-144444838D01*
X159245077Y-144444879D01*
X159260000Y-144459802D01*
X159260000Y-146047046D01*
X158969946Y-146240853D01*
X158750000Y-146570026D01*
X158530054Y-146240853D01*
X158240000Y-146047046D01*
X158240000Y-143510000D01*
X158182148Y-143219161D01*
X158017401Y-142972599D01*
X157780122Y-142735320D01*
X157780162Y-142689833D01*
X157638117Y-142346057D01*
X157375327Y-142082808D01*
X157031799Y-141940162D01*
X156659833Y-141939838D01*
X156316057Y-142081883D01*
X156052808Y-142344673D01*
X155910162Y-142688201D01*
X155909838Y-143060167D01*
X156051883Y-143403943D01*
X156314673Y-143667192D01*
X156658201Y-143809838D01*
X156705077Y-143809879D01*
X156720000Y-143824802D01*
X156720000Y-146047046D01*
X156429946Y-146240853D01*
X156210000Y-146570026D01*
X155990054Y-146240853D01*
X155700000Y-146047046D01*
X155700000Y-142875000D01*
X155642148Y-142584161D01*
X155477401Y-142337599D01*
X155240122Y-142100320D01*
X155240162Y-142054833D01*
X155098117Y-141711057D01*
X154835327Y-141447808D01*
X154491799Y-141305162D01*
X154119833Y-141304838D01*
X153776057Y-141446883D01*
X153512808Y-141709673D01*
X153370162Y-142053201D01*
X153369838Y-142425167D01*
X153511883Y-142768943D01*
X153774673Y-143032192D01*
X154118201Y-143174838D01*
X154165077Y-143174879D01*
X154180000Y-143189802D01*
X154180000Y-146047046D01*
X153889946Y-146240853D01*
X153662298Y-146581553D01*
X153595183Y-146438642D01*
X153166924Y-146048355D01*
X152756890Y-145878524D01*
X152527000Y-145999845D01*
X152527000Y-147193000D01*
X152547000Y-147193000D01*
X152547000Y-147447000D01*
X152527000Y-147447000D01*
X152527000Y-147467000D01*
X152273000Y-147467000D01*
X152273000Y-147447000D01*
X152253000Y-147447000D01*
X152253000Y-147193000D01*
X152273000Y-147193000D01*
X152273000Y-145999845D01*
X152043110Y-145878524D01*
X151633076Y-146048355D01*
X151204817Y-146438642D01*
X151137702Y-146581553D01*
X150910054Y-146240853D01*
X150619322Y-146046593D01*
X150562148Y-145759161D01*
X150397401Y-145512599D01*
X149762401Y-144877599D01*
X149515839Y-144712852D01*
X149225000Y-144655000D01*
X96834802Y-144655000D01*
X96645000Y-144465198D01*
X96645000Y-141095000D01*
X97612560Y-141095000D01*
X97612560Y-141135000D01*
X97656838Y-141370317D01*
X97795910Y-141586441D01*
X98008110Y-141731431D01*
X98260000Y-141782440D01*
X99860000Y-141782440D01*
X100095317Y-141738162D01*
X100311441Y-141599090D01*
X100456431Y-141386890D01*
X100465370Y-141342745D01*
X100731861Y-141342745D01*
X100805995Y-141588864D01*
X101343223Y-141781965D01*
X101913454Y-141754778D01*
X102314005Y-141588864D01*
X102388139Y-141342745D01*
X101560000Y-140514605D01*
X100731861Y-141342745D01*
X100465370Y-141342745D01*
X100504646Y-141148799D01*
X100552255Y-141163139D01*
X101380395Y-140335000D01*
X101739605Y-140335000D01*
X102567745Y-141163139D01*
X102813864Y-141089005D01*
X103006965Y-140551777D01*
X102979778Y-139981546D01*
X102813864Y-139580995D01*
X102567745Y-139506861D01*
X101739605Y-140335000D01*
X101380395Y-140335000D01*
X100552255Y-139506861D01*
X100504833Y-139521145D01*
X100468351Y-139327255D01*
X100731861Y-139327255D01*
X101560000Y-140155395D01*
X102388139Y-139327255D01*
X102314005Y-139081136D01*
X101776777Y-138888035D01*
X101206546Y-138915222D01*
X100805995Y-139081136D01*
X100731861Y-139327255D01*
X100468351Y-139327255D01*
X100463162Y-139299683D01*
X100324090Y-139083559D01*
X100111890Y-138938569D01*
X99860000Y-138887560D01*
X98260000Y-138887560D01*
X98024683Y-138931838D01*
X97808559Y-139070910D01*
X97663569Y-139283110D01*
X97612560Y-139535000D01*
X97612560Y-139575000D01*
X96834802Y-139575000D01*
X96645000Y-139385198D01*
X96645000Y-131794039D01*
X100208096Y-131794039D01*
X100368959Y-132182423D01*
X100744866Y-132597389D01*
X101250959Y-132836914D01*
X101473000Y-132715629D01*
X101473000Y-131572000D01*
X101727000Y-131572000D01*
X101727000Y-132715629D01*
X101949041Y-132836914D01*
X102455134Y-132597389D01*
X102831041Y-132182423D01*
X102991904Y-131794039D01*
X102869915Y-131572000D01*
X101727000Y-131572000D01*
X101473000Y-131572000D01*
X100330085Y-131572000D01*
X100208096Y-131794039D01*
X96645000Y-131794039D01*
X96645000Y-111929169D01*
X96976077Y-112260824D01*
X97503309Y-112479750D01*
X98074187Y-112480248D01*
X98601800Y-112262243D01*
X99005824Y-111858923D01*
X99176207Y-111448595D01*
X99597401Y-111027401D01*
X99762148Y-110780839D01*
X99820000Y-110490000D01*
X99820000Y-106994802D01*
X100009802Y-106805000D01*
X100387005Y-106805000D01*
X100557189Y-107059698D01*
X100939275Y-107315000D01*
X100557189Y-107570302D01*
X100246120Y-108035849D01*
X100136887Y-108585000D01*
X100246120Y-109134151D01*
X100557189Y-109599698D01*
X100939275Y-109855000D01*
X100557189Y-110110302D01*
X100246120Y-110575849D01*
X100136887Y-111125000D01*
X100246120Y-111674151D01*
X100557189Y-112139698D01*
X100939275Y-112395000D01*
X100557189Y-112650302D01*
X100246120Y-113115849D01*
X100136887Y-113665000D01*
X100246120Y-114214151D01*
X100557189Y-114679698D01*
X100939275Y-114935000D01*
X100557189Y-115190302D01*
X100246120Y-115655849D01*
X100136887Y-116205000D01*
X100246120Y-116754151D01*
X100557189Y-117219698D01*
X100939275Y-117475000D01*
X100557189Y-117730302D01*
X100246120Y-118195849D01*
X100136887Y-118745000D01*
X100246120Y-119294151D01*
X100557189Y-119759698D01*
X100939275Y-120015000D01*
X100557189Y-120270302D01*
X100246120Y-120735849D01*
X100136887Y-121285000D01*
X100246120Y-121834151D01*
X100557189Y-122299698D01*
X100939275Y-122555000D01*
X100557189Y-122810302D01*
X100246120Y-123275849D01*
X100136887Y-123825000D01*
X100246120Y-124374151D01*
X100557189Y-124839698D01*
X100939275Y-125095000D01*
X100557189Y-125350302D01*
X100246120Y-125815849D01*
X100136887Y-126365000D01*
X100246120Y-126914151D01*
X100557189Y-127379698D01*
X100939275Y-127635000D01*
X100557189Y-127890302D01*
X100246120Y-128355849D01*
X100136887Y-128905000D01*
X100246120Y-129454151D01*
X100557189Y-129919698D01*
X100961703Y-130189986D01*
X100744866Y-130292611D01*
X100368959Y-130707577D01*
X100208096Y-131095961D01*
X100330085Y-131318000D01*
X101473000Y-131318000D01*
X101473000Y-131298000D01*
X101727000Y-131298000D01*
X101727000Y-131318000D01*
X102869915Y-131318000D01*
X102991904Y-131095961D01*
X102831041Y-130707577D01*
X102455134Y-130292611D01*
X102238297Y-130189986D01*
X102642811Y-129919698D01*
X102953880Y-129454151D01*
X103063113Y-128905000D01*
X102953880Y-128355849D01*
X102642811Y-127890302D01*
X102260725Y-127635000D01*
X102642811Y-127379698D01*
X102953880Y-126914151D01*
X103063113Y-126365000D01*
X102953880Y-125815849D01*
X102642811Y-125350302D01*
X102260725Y-125095000D01*
X102642811Y-124839698D01*
X102953880Y-124374151D01*
X103063113Y-123825000D01*
X102953880Y-123275849D01*
X102642811Y-122810302D01*
X102260725Y-122555000D01*
X102642811Y-122299698D01*
X102953880Y-121834151D01*
X103063113Y-121285000D01*
X102953880Y-120735849D01*
X102642811Y-120270302D01*
X102260725Y-120015000D01*
X102642811Y-119759698D01*
X102953880Y-119294151D01*
X103063113Y-118745000D01*
X102953880Y-118195849D01*
X102642811Y-117730302D01*
X102260725Y-117475000D01*
X102642811Y-117219698D01*
X102953880Y-116754151D01*
X103063113Y-116205000D01*
X102953880Y-115655849D01*
X102642811Y-115190302D01*
X102260725Y-114935000D01*
X102642811Y-114679698D01*
X102772792Y-114485167D01*
X108284838Y-114485167D01*
X108426883Y-114828943D01*
X108460000Y-114862118D01*
X108460000Y-127707537D01*
X108427808Y-127739673D01*
X108285162Y-128083201D01*
X108284838Y-128455167D01*
X108426883Y-128798943D01*
X108689673Y-129062192D01*
X108953554Y-129171765D01*
X109061883Y-129433943D01*
X109324673Y-129697192D01*
X109668201Y-129839838D01*
X110040167Y-129840162D01*
X110383943Y-129698117D01*
X110489954Y-129592290D01*
X110594673Y-129697192D01*
X110938201Y-129839838D01*
X111310167Y-129840162D01*
X111653943Y-129698117D01*
X111759954Y-129592290D01*
X111864673Y-129697192D01*
X112208201Y-129839838D01*
X112580167Y-129840162D01*
X112923943Y-129698117D01*
X113187192Y-129435327D01*
X113329838Y-129091799D01*
X113330162Y-128719833D01*
X113188117Y-128376057D01*
X113155000Y-128342882D01*
X113155000Y-127562463D01*
X113187192Y-127530327D01*
X113329838Y-127186799D01*
X113330162Y-126814833D01*
X113188117Y-126471057D01*
X112925327Y-126207808D01*
X112581799Y-126065162D01*
X112520000Y-126065108D01*
X112520000Y-125022463D01*
X112552192Y-124990327D01*
X112694838Y-124646799D01*
X112695162Y-124274833D01*
X112553117Y-123931057D01*
X112290327Y-123667808D01*
X111946799Y-123525162D01*
X111885000Y-123525108D01*
X111885000Y-122482463D01*
X111917192Y-122450327D01*
X112059838Y-122106799D01*
X112060162Y-121734833D01*
X111918117Y-121391057D01*
X111655327Y-121127808D01*
X111311799Y-120985162D01*
X111250000Y-120985108D01*
X111250000Y-119942463D01*
X111282192Y-119910327D01*
X111424838Y-119566799D01*
X111425162Y-119194833D01*
X111283117Y-118851057D01*
X111020327Y-118587808D01*
X110676799Y-118445162D01*
X110615000Y-118445108D01*
X110615000Y-117402463D01*
X110647192Y-117370327D01*
X110789838Y-117026799D01*
X110790162Y-116654833D01*
X110648117Y-116311057D01*
X110385327Y-116047808D01*
X110041799Y-115905162D01*
X109980000Y-115905108D01*
X109980000Y-114862463D01*
X110012192Y-114830327D01*
X110154838Y-114486799D01*
X110155162Y-114114833D01*
X110013117Y-113771057D01*
X109750327Y-113507808D01*
X109406799Y-113365162D01*
X109034833Y-113364838D01*
X108691057Y-113506883D01*
X108427808Y-113769673D01*
X108285162Y-114113201D01*
X108284838Y-114485167D01*
X102772792Y-114485167D01*
X102953880Y-114214151D01*
X103063113Y-113665000D01*
X102953880Y-113115849D01*
X102642811Y-112650302D01*
X102260725Y-112395000D01*
X102642811Y-112139698D01*
X102953880Y-111674151D01*
X103063113Y-111125000D01*
X102953880Y-110575849D01*
X102642811Y-110110302D01*
X102260725Y-109855000D01*
X102642811Y-109599698D01*
X102953880Y-109134151D01*
X103063113Y-108585000D01*
X102953880Y-108035849D01*
X102642811Y-107570302D01*
X102260725Y-107315000D01*
X102642811Y-107059698D01*
X102953880Y-106594151D01*
X103063113Y-106045000D01*
X102953880Y-105495849D01*
X102642811Y-105030302D01*
X102260725Y-104775000D01*
X102642811Y-104519698D01*
X102953880Y-104054151D01*
X103063113Y-103505000D01*
X102953880Y-102955849D01*
X102642811Y-102490302D01*
X102260725Y-102235000D01*
X102642811Y-101979698D01*
X102953880Y-101514151D01*
X103063113Y-100965000D01*
X102953880Y-100415849D01*
X102642811Y-99950302D01*
X102498535Y-99853899D01*
X102635317Y-99828162D01*
X102851441Y-99689090D01*
X102996431Y-99476890D01*
X103047440Y-99225000D01*
X103047440Y-98425000D01*
X115376887Y-98425000D01*
X115486120Y-98974151D01*
X115797189Y-99439698D01*
X116179275Y-99695000D01*
X115797189Y-99950302D01*
X115486120Y-100415849D01*
X115376887Y-100965000D01*
X115486120Y-101514151D01*
X115797189Y-101979698D01*
X116179275Y-102235000D01*
X115797189Y-102490302D01*
X115486120Y-102955849D01*
X115376887Y-103505000D01*
X115486120Y-104054151D01*
X115797189Y-104519698D01*
X116179275Y-104775000D01*
X115797189Y-105030302D01*
X115486120Y-105495849D01*
X115376887Y-106045000D01*
X115486120Y-106594151D01*
X115797189Y-107059698D01*
X116179275Y-107315000D01*
X115797189Y-107570302D01*
X115486120Y-108035849D01*
X115376887Y-108585000D01*
X115486120Y-109134151D01*
X115797189Y-109599698D01*
X116179275Y-109855000D01*
X115797189Y-110110302D01*
X115486120Y-110575849D01*
X115376887Y-111125000D01*
X115486120Y-111674151D01*
X115797189Y-112139698D01*
X116179275Y-112395000D01*
X115797189Y-112650302D01*
X115486120Y-113115849D01*
X115376887Y-113665000D01*
X115486120Y-114214151D01*
X115797189Y-114679698D01*
X116179275Y-114935000D01*
X115797189Y-115190302D01*
X115486120Y-115655849D01*
X115376887Y-116205000D01*
X115486120Y-116754151D01*
X115797189Y-117219698D01*
X116179275Y-117475000D01*
X115797189Y-117730302D01*
X115486120Y-118195849D01*
X115376887Y-118745000D01*
X115486120Y-119294151D01*
X115797189Y-119759698D01*
X116179275Y-120015000D01*
X115797189Y-120270302D01*
X115486120Y-120735849D01*
X115376887Y-121285000D01*
X115486120Y-121834151D01*
X115797189Y-122299698D01*
X116179275Y-122555000D01*
X115797189Y-122810302D01*
X115486120Y-123275849D01*
X115376887Y-123825000D01*
X115486120Y-124374151D01*
X115797189Y-124839698D01*
X116179275Y-125095000D01*
X115797189Y-125350302D01*
X115486120Y-125815849D01*
X115376887Y-126365000D01*
X115486120Y-126914151D01*
X115797189Y-127379698D01*
X116179275Y-127635000D01*
X115797189Y-127890302D01*
X115486120Y-128355849D01*
X115376887Y-128905000D01*
X115486120Y-129454151D01*
X115797189Y-129919698D01*
X116179275Y-130175000D01*
X115797189Y-130430302D01*
X115486120Y-130895849D01*
X115376887Y-131445000D01*
X115486120Y-131994151D01*
X115797189Y-132459698D01*
X116262736Y-132770767D01*
X116811887Y-132880000D01*
X116868113Y-132880000D01*
X117417264Y-132770767D01*
X117882811Y-132459698D01*
X118193880Y-131994151D01*
X118233684Y-131794039D01*
X123068096Y-131794039D01*
X123228959Y-132182423D01*
X123604866Y-132597389D01*
X124110959Y-132836914D01*
X124333000Y-132715629D01*
X124333000Y-131572000D01*
X123190085Y-131572000D01*
X123068096Y-131794039D01*
X118233684Y-131794039D01*
X118303113Y-131445000D01*
X118193880Y-130895849D01*
X117882811Y-130430302D01*
X117500725Y-130175000D01*
X117882811Y-129919698D01*
X118193880Y-129454151D01*
X118303113Y-128905000D01*
X118193880Y-128355849D01*
X117882811Y-127890302D01*
X117500725Y-127635000D01*
X117882811Y-127379698D01*
X118193880Y-126914151D01*
X118303113Y-126365000D01*
X118193880Y-125815849D01*
X117882811Y-125350302D01*
X117500725Y-125095000D01*
X117882811Y-124839698D01*
X118193880Y-124374151D01*
X118303113Y-123825000D01*
X118193880Y-123275849D01*
X117882811Y-122810302D01*
X117500725Y-122555000D01*
X117882811Y-122299698D01*
X118193880Y-121834151D01*
X118303113Y-121285000D01*
X118193880Y-120735849D01*
X117882811Y-120270302D01*
X117500725Y-120015000D01*
X117882811Y-119759698D01*
X118193880Y-119294151D01*
X118303113Y-118745000D01*
X118193880Y-118195849D01*
X117882811Y-117730302D01*
X117500725Y-117475000D01*
X117882811Y-117219698D01*
X118193880Y-116754151D01*
X118303113Y-116205000D01*
X118193880Y-115655849D01*
X117882811Y-115190302D01*
X117500725Y-114935000D01*
X117882811Y-114679698D01*
X118193880Y-114214151D01*
X118303113Y-113665000D01*
X118193880Y-113115849D01*
X117882811Y-112650302D01*
X117500725Y-112395000D01*
X117882811Y-112139698D01*
X118193880Y-111674151D01*
X118303113Y-111125000D01*
X118244081Y-110828223D01*
X119203035Y-110828223D01*
X119230222Y-111398454D01*
X119396136Y-111799005D01*
X119642255Y-111873139D01*
X120470395Y-111045000D01*
X119642255Y-110216861D01*
X119396136Y-110290995D01*
X119203035Y-110828223D01*
X118244081Y-110828223D01*
X118193880Y-110575849D01*
X117882811Y-110110302D01*
X117773489Y-110037255D01*
X119821861Y-110037255D01*
X120650000Y-110865395D01*
X121478139Y-110037255D01*
X121404005Y-109791136D01*
X120866777Y-109598035D01*
X120296546Y-109625222D01*
X119895995Y-109791136D01*
X119821861Y-110037255D01*
X117773489Y-110037255D01*
X117500725Y-109855000D01*
X117882811Y-109599698D01*
X118193880Y-109134151D01*
X118303113Y-108585000D01*
X118193880Y-108035849D01*
X117882811Y-107570302D01*
X117500725Y-107315000D01*
X117882811Y-107059698D01*
X118193880Y-106594151D01*
X118303113Y-106045000D01*
X118193880Y-105495849D01*
X117882811Y-105030302D01*
X117500725Y-104775000D01*
X117882811Y-104519698D01*
X118193880Y-104054151D01*
X118262497Y-103709187D01*
X119214752Y-103709187D01*
X119432757Y-104236800D01*
X119836077Y-104640824D01*
X120062784Y-104734961D01*
X119838200Y-104827757D01*
X119434176Y-105231077D01*
X119215250Y-105758309D01*
X119214752Y-106329187D01*
X119432757Y-106856800D01*
X119836077Y-107260824D01*
X120363309Y-107479750D01*
X120934187Y-107480248D01*
X121461800Y-107262243D01*
X121795000Y-106929624D01*
X121795000Y-110258204D01*
X121657745Y-110216861D01*
X120829605Y-111045000D01*
X121657745Y-111873139D01*
X121795000Y-111831796D01*
X121795000Y-112715198D01*
X121762212Y-112747986D01*
X121463923Y-112449176D01*
X121252782Y-112361503D01*
X121404005Y-112298864D01*
X121478139Y-112052745D01*
X120650000Y-111224605D01*
X119821861Y-112052745D01*
X119895995Y-112298864D01*
X120057796Y-112357022D01*
X119838200Y-112447757D01*
X119434176Y-112851077D01*
X119215250Y-113378309D01*
X119214752Y-113949187D01*
X119432757Y-114476800D01*
X119836077Y-114880824D01*
X120363309Y-115099750D01*
X120680172Y-115100026D01*
X120112599Y-115667599D01*
X119947852Y-115914161D01*
X119890000Y-116205000D01*
X119890000Y-117426354D01*
X119838200Y-117447757D01*
X119434176Y-117851077D01*
X119215250Y-118378309D01*
X119214752Y-118949187D01*
X119432757Y-119476800D01*
X119836077Y-119880824D01*
X120363309Y-120099750D01*
X120934187Y-120100248D01*
X121461800Y-119882243D01*
X121865824Y-119478923D01*
X122084750Y-118951691D01*
X122085248Y-118380813D01*
X121867243Y-117853200D01*
X121463923Y-117449176D01*
X121410000Y-117426785D01*
X121410000Y-116519802D01*
X121796341Y-116133461D01*
X122024673Y-116362192D01*
X122368201Y-116504838D01*
X122740167Y-116505162D01*
X123032561Y-116384347D01*
X123106120Y-116754151D01*
X123417189Y-117219698D01*
X123799275Y-117475000D01*
X123417189Y-117730302D01*
X123106120Y-118195849D01*
X122996887Y-118745000D01*
X123106120Y-119294151D01*
X123417189Y-119759698D01*
X123799275Y-120015000D01*
X123417189Y-120270302D01*
X123106120Y-120735849D01*
X122996887Y-121285000D01*
X123106120Y-121834151D01*
X123417189Y-122299698D01*
X123799275Y-122555000D01*
X123417189Y-122810302D01*
X123106120Y-123275849D01*
X122996887Y-123825000D01*
X123106120Y-124374151D01*
X123417189Y-124839698D01*
X123799275Y-125095000D01*
X123417189Y-125350302D01*
X123106120Y-125815849D01*
X122996887Y-126365000D01*
X123106120Y-126914151D01*
X123417189Y-127379698D01*
X123799275Y-127635000D01*
X123417189Y-127890302D01*
X123106120Y-128355849D01*
X122996887Y-128905000D01*
X123106120Y-129454151D01*
X123417189Y-129919698D01*
X123821703Y-130189986D01*
X123604866Y-130292611D01*
X123228959Y-130707577D01*
X123068096Y-131095961D01*
X123190085Y-131318000D01*
X124333000Y-131318000D01*
X124333000Y-131298000D01*
X124587000Y-131298000D01*
X124587000Y-131318000D01*
X124607000Y-131318000D01*
X124607000Y-131572000D01*
X124587000Y-131572000D01*
X124587000Y-132715629D01*
X124809041Y-132836914D01*
X125315134Y-132597389D01*
X125605000Y-132277404D01*
X125605000Y-132787537D01*
X125572808Y-132819673D01*
X125430162Y-133163201D01*
X125429838Y-133535167D01*
X125571883Y-133878943D01*
X125834673Y-134142192D01*
X126098554Y-134251765D01*
X126206883Y-134513943D01*
X126469673Y-134777192D01*
X126813201Y-134919838D01*
X127185167Y-134920162D01*
X127528943Y-134778117D01*
X127634954Y-134672290D01*
X127739673Y-134777192D01*
X128083201Y-134919838D01*
X128455167Y-134920162D01*
X128798943Y-134778117D01*
X128904954Y-134672290D01*
X129009673Y-134777192D01*
X129353201Y-134919838D01*
X129725167Y-134920162D01*
X130068943Y-134778117D01*
X130174954Y-134672290D01*
X130279673Y-134777192D01*
X130623201Y-134919838D01*
X130995167Y-134920162D01*
X131338943Y-134778117D01*
X131602192Y-134515327D01*
X131744838Y-134171799D01*
X131745162Y-133799833D01*
X131603117Y-133456057D01*
X131570000Y-133422882D01*
X131570000Y-119942463D01*
X131602192Y-119910327D01*
X131744838Y-119566799D01*
X131745162Y-119194833D01*
X131603117Y-118851057D01*
X131340327Y-118587808D01*
X130996799Y-118445162D01*
X130624833Y-118444838D01*
X130281057Y-118586883D01*
X130017808Y-118849673D01*
X129875162Y-119193201D01*
X129874838Y-119565167D01*
X130016883Y-119908943D01*
X130050000Y-119942118D01*
X130050000Y-120984890D01*
X129989833Y-120984838D01*
X129646057Y-121126883D01*
X129382808Y-121389673D01*
X129240162Y-121733201D01*
X129239838Y-122105167D01*
X129381883Y-122448943D01*
X129415000Y-122482118D01*
X129415000Y-123524890D01*
X129354833Y-123524838D01*
X129030000Y-123659056D01*
X129030000Y-114862463D01*
X129062192Y-114830327D01*
X129204838Y-114486799D01*
X129205162Y-114114833D01*
X129063117Y-113771057D01*
X128800327Y-113507808D01*
X128456799Y-113365162D01*
X128395000Y-113365108D01*
X128395000Y-111052463D01*
X128427192Y-111020327D01*
X128569838Y-110676799D01*
X128570162Y-110304833D01*
X128428117Y-109961057D01*
X128165327Y-109697808D01*
X127821799Y-109555162D01*
X127449833Y-109554838D01*
X127106057Y-109696883D01*
X126842808Y-109959673D01*
X126700162Y-110303201D01*
X126699838Y-110675167D01*
X126841883Y-111018943D01*
X126875000Y-111052118D01*
X126875000Y-113364890D01*
X126814833Y-113364838D01*
X126471057Y-113506883D01*
X126207808Y-113769673D01*
X126098235Y-114033554D01*
X125836057Y-114141883D01*
X125826322Y-114151601D01*
X125923113Y-113665000D01*
X125813880Y-113115849D01*
X125502811Y-112650302D01*
X125120725Y-112395000D01*
X125502811Y-112139698D01*
X125813880Y-111674151D01*
X125923113Y-111125000D01*
X125813880Y-110575849D01*
X125502811Y-110110302D01*
X125120725Y-109855000D01*
X125502811Y-109599698D01*
X125813880Y-109134151D01*
X125923113Y-108585000D01*
X125813880Y-108035849D01*
X125502811Y-107570302D01*
X125120725Y-107315000D01*
X125502811Y-107059698D01*
X125813880Y-106594151D01*
X125923113Y-106045000D01*
X125813880Y-105495849D01*
X125502811Y-105030302D01*
X125120725Y-104775000D01*
X125502811Y-104519698D01*
X125813880Y-104054151D01*
X125923113Y-103505000D01*
X125813880Y-102955849D01*
X125502811Y-102490302D01*
X125120725Y-102235000D01*
X125502811Y-101979698D01*
X125813880Y-101514151D01*
X125923113Y-100965000D01*
X125813880Y-100415849D01*
X125502811Y-99950302D01*
X125358535Y-99853899D01*
X125495317Y-99828162D01*
X125711441Y-99689090D01*
X125856431Y-99476890D01*
X125907440Y-99225000D01*
X125907440Y-98425000D01*
X138236887Y-98425000D01*
X138346120Y-98974151D01*
X138657189Y-99439698D01*
X139039275Y-99695000D01*
X138657189Y-99950302D01*
X138346120Y-100415849D01*
X138236887Y-100965000D01*
X138346120Y-101514151D01*
X138657189Y-101979698D01*
X139039275Y-102235000D01*
X138657189Y-102490302D01*
X138346120Y-102955849D01*
X138236887Y-103505000D01*
X138346120Y-104054151D01*
X138657189Y-104519698D01*
X139039275Y-104775000D01*
X138657189Y-105030302D01*
X138346120Y-105495849D01*
X138236887Y-106045000D01*
X138346120Y-106594151D01*
X138657189Y-107059698D01*
X139039275Y-107315000D01*
X138657189Y-107570302D01*
X138346120Y-108035849D01*
X138236887Y-108585000D01*
X138346120Y-109134151D01*
X138657189Y-109599698D01*
X139039275Y-109855000D01*
X138657189Y-110110302D01*
X138346120Y-110575849D01*
X138236887Y-111125000D01*
X138346120Y-111674151D01*
X138657189Y-112139698D01*
X139039275Y-112395000D01*
X138657189Y-112650302D01*
X138346120Y-113115849D01*
X138236887Y-113665000D01*
X138346120Y-114214151D01*
X138657189Y-114679698D01*
X139039275Y-114935000D01*
X138657189Y-115190302D01*
X138346120Y-115655849D01*
X138236887Y-116205000D01*
X138346120Y-116754151D01*
X138657189Y-117219698D01*
X139039275Y-117475000D01*
X138657189Y-117730302D01*
X138346120Y-118195849D01*
X138236887Y-118745000D01*
X138346120Y-119294151D01*
X138657189Y-119759698D01*
X139039275Y-120015000D01*
X138657189Y-120270302D01*
X138346120Y-120735849D01*
X138236887Y-121285000D01*
X138346120Y-121834151D01*
X138657189Y-122299698D01*
X139039275Y-122555000D01*
X138657189Y-122810302D01*
X138346120Y-123275849D01*
X138236887Y-123825000D01*
X138346120Y-124374151D01*
X138657189Y-124839698D01*
X139039275Y-125095000D01*
X138657189Y-125350302D01*
X138346120Y-125815849D01*
X138236887Y-126365000D01*
X138346120Y-126914151D01*
X138657189Y-127379698D01*
X139039275Y-127635000D01*
X138657189Y-127890302D01*
X138346120Y-128355849D01*
X138236887Y-128905000D01*
X138346120Y-129454151D01*
X138657189Y-129919698D01*
X139039275Y-130175000D01*
X138657189Y-130430302D01*
X138346120Y-130895849D01*
X138236887Y-131445000D01*
X138346120Y-131994151D01*
X138657189Y-132459698D01*
X139122736Y-132770767D01*
X139671887Y-132880000D01*
X139728113Y-132880000D01*
X140277264Y-132770767D01*
X140742811Y-132459698D01*
X141053880Y-131994151D01*
X141093684Y-131794039D01*
X151008096Y-131794039D01*
X151168959Y-132182423D01*
X151544866Y-132597389D01*
X152050959Y-132836914D01*
X152273000Y-132715629D01*
X152273000Y-131572000D01*
X152527000Y-131572000D01*
X152527000Y-132715629D01*
X152749041Y-132836914D01*
X153255134Y-132597389D01*
X153631041Y-132182423D01*
X153791904Y-131794039D01*
X153669915Y-131572000D01*
X152527000Y-131572000D01*
X152273000Y-131572000D01*
X151130085Y-131572000D01*
X151008096Y-131794039D01*
X141093684Y-131794039D01*
X141163113Y-131445000D01*
X141053880Y-130895849D01*
X140742811Y-130430302D01*
X140360725Y-130175000D01*
X140742811Y-129919698D01*
X141053880Y-129454151D01*
X141163113Y-128905000D01*
X141053880Y-128355849D01*
X140742811Y-127890302D01*
X140360725Y-127635000D01*
X140742811Y-127379698D01*
X141053880Y-126914151D01*
X141163113Y-126365000D01*
X141053880Y-125815849D01*
X140742811Y-125350302D01*
X140360725Y-125095000D01*
X140742811Y-124839698D01*
X141053880Y-124374151D01*
X141163113Y-123825000D01*
X150936887Y-123825000D01*
X151046120Y-124374151D01*
X151357189Y-124839698D01*
X151739275Y-125095000D01*
X151357189Y-125350302D01*
X151046120Y-125815849D01*
X150936887Y-126365000D01*
X151046120Y-126914151D01*
X151357189Y-127379698D01*
X151739275Y-127635000D01*
X151357189Y-127890302D01*
X151046120Y-128355849D01*
X150936887Y-128905000D01*
X151046120Y-129454151D01*
X151357189Y-129919698D01*
X151761703Y-130189986D01*
X151544866Y-130292611D01*
X151168959Y-130707577D01*
X151008096Y-131095961D01*
X151130085Y-131318000D01*
X152273000Y-131318000D01*
X152273000Y-131298000D01*
X152527000Y-131298000D01*
X152527000Y-131318000D01*
X153669915Y-131318000D01*
X153791904Y-131095961D01*
X153631041Y-130707577D01*
X153255134Y-130292611D01*
X153038297Y-130189986D01*
X153442811Y-129919698D01*
X153753880Y-129454151D01*
X153863113Y-128905000D01*
X153753880Y-128355849D01*
X153442811Y-127890302D01*
X153060725Y-127635000D01*
X153442811Y-127379698D01*
X153753880Y-126914151D01*
X153863113Y-126365000D01*
X153753880Y-125815849D01*
X153442811Y-125350302D01*
X153060725Y-125095000D01*
X153442811Y-124839698D01*
X153753880Y-124374151D01*
X153863113Y-123825000D01*
X153753880Y-123275849D01*
X153442811Y-122810302D01*
X153038297Y-122540014D01*
X153255134Y-122437389D01*
X153631041Y-122022423D01*
X153791904Y-121634039D01*
X153669915Y-121412000D01*
X152527000Y-121412000D01*
X152527000Y-121432000D01*
X152273000Y-121432000D01*
X152273000Y-121412000D01*
X151130085Y-121412000D01*
X151008096Y-121634039D01*
X151168959Y-122022423D01*
X151544866Y-122437389D01*
X151761703Y-122540014D01*
X151357189Y-122810302D01*
X151046120Y-123275849D01*
X150936887Y-123825000D01*
X141163113Y-123825000D01*
X141053880Y-123275849D01*
X140742811Y-122810302D01*
X140360725Y-122555000D01*
X140742811Y-122299698D01*
X141053880Y-121834151D01*
X141163113Y-121285000D01*
X141053880Y-120735849D01*
X140742811Y-120270302D01*
X140360725Y-120015000D01*
X140742811Y-119759698D01*
X141053880Y-119294151D01*
X141163113Y-118745000D01*
X141053880Y-118195849D01*
X140742811Y-117730302D01*
X140360725Y-117475000D01*
X140742811Y-117219698D01*
X141053880Y-116754151D01*
X141163113Y-116205000D01*
X150936887Y-116205000D01*
X151046120Y-116754151D01*
X151357189Y-117219698D01*
X151739275Y-117475000D01*
X151357189Y-117730302D01*
X151046120Y-118195849D01*
X150936887Y-118745000D01*
X151046120Y-119294151D01*
X151357189Y-119759698D01*
X151761703Y-120029986D01*
X151544866Y-120132611D01*
X151168959Y-120547577D01*
X151008096Y-120935961D01*
X151130085Y-121158000D01*
X152273000Y-121158000D01*
X152273000Y-121138000D01*
X152527000Y-121138000D01*
X152527000Y-121158000D01*
X153669915Y-121158000D01*
X153791904Y-120935961D01*
X153631041Y-120547577D01*
X153255134Y-120132611D01*
X153038297Y-120029986D01*
X153442811Y-119759698D01*
X153753880Y-119294151D01*
X153863113Y-118745000D01*
X153753880Y-118195849D01*
X153442811Y-117730302D01*
X153060725Y-117475000D01*
X153442811Y-117219698D01*
X153753880Y-116754151D01*
X153863113Y-116205000D01*
X153773636Y-115755167D01*
X155909838Y-115755167D01*
X156051883Y-116098943D01*
X156085000Y-116132118D01*
X156085000Y-126437537D01*
X156052808Y-126469673D01*
X155910162Y-126813201D01*
X155909838Y-127185167D01*
X156051883Y-127528943D01*
X156314673Y-127792192D01*
X156578554Y-127901765D01*
X156686883Y-128163943D01*
X156949673Y-128427192D01*
X157293201Y-128569838D01*
X157665167Y-128570162D01*
X158008943Y-128428117D01*
X158272192Y-128165327D01*
X158381765Y-127901446D01*
X158643943Y-127793117D01*
X158907192Y-127530327D01*
X158972594Y-127372822D01*
X158977189Y-127379698D01*
X159359275Y-127635000D01*
X158977189Y-127890302D01*
X158666120Y-128355849D01*
X158556887Y-128905000D01*
X158666120Y-129454151D01*
X158977189Y-129919698D01*
X159359275Y-130175000D01*
X158977189Y-130430302D01*
X158666120Y-130895849D01*
X158556887Y-131445000D01*
X158666120Y-131994151D01*
X158977189Y-132459698D01*
X159442736Y-132770767D01*
X159991887Y-132880000D01*
X160048113Y-132880000D01*
X160597264Y-132770767D01*
X161062811Y-132459698D01*
X161373880Y-131994151D01*
X161413684Y-131794039D01*
X166248096Y-131794039D01*
X166408959Y-132182423D01*
X166784866Y-132597389D01*
X167290959Y-132836914D01*
X167513000Y-132715629D01*
X167513000Y-131572000D01*
X167767000Y-131572000D01*
X167767000Y-132715629D01*
X167989041Y-132836914D01*
X168495134Y-132597389D01*
X168871041Y-132182423D01*
X169031904Y-131794039D01*
X168909915Y-131572000D01*
X167767000Y-131572000D01*
X167513000Y-131572000D01*
X166370085Y-131572000D01*
X166248096Y-131794039D01*
X161413684Y-131794039D01*
X161483113Y-131445000D01*
X161373880Y-130895849D01*
X161062811Y-130430302D01*
X160680725Y-130175000D01*
X161062811Y-129919698D01*
X161373880Y-129454151D01*
X161483113Y-128905000D01*
X161373880Y-128355849D01*
X161062811Y-127890302D01*
X160680725Y-127635000D01*
X161062811Y-127379698D01*
X161373880Y-126914151D01*
X161483113Y-126365000D01*
X166176887Y-126365000D01*
X166286120Y-126914151D01*
X166597189Y-127379698D01*
X166979275Y-127635000D01*
X166597189Y-127890302D01*
X166286120Y-128355849D01*
X166176887Y-128905000D01*
X166286120Y-129454151D01*
X166597189Y-129919698D01*
X167001703Y-130189986D01*
X166784866Y-130292611D01*
X166408959Y-130707577D01*
X166248096Y-131095961D01*
X166370085Y-131318000D01*
X167513000Y-131318000D01*
X167513000Y-131298000D01*
X167767000Y-131298000D01*
X167767000Y-131318000D01*
X168909915Y-131318000D01*
X169031904Y-131095961D01*
X168871041Y-130707577D01*
X168495134Y-130292611D01*
X168278297Y-130189986D01*
X168682811Y-129919698D01*
X168993880Y-129454151D01*
X169103113Y-128905000D01*
X168993880Y-128355849D01*
X168682811Y-127890302D01*
X168300725Y-127635000D01*
X168682811Y-127379698D01*
X168993880Y-126914151D01*
X169103113Y-126365000D01*
X168993880Y-125815849D01*
X168682811Y-125350302D01*
X168278297Y-125080014D01*
X168495134Y-124977389D01*
X168871041Y-124562423D01*
X169031904Y-124174039D01*
X168909915Y-123952000D01*
X167767000Y-123952000D01*
X167767000Y-123972000D01*
X167513000Y-123972000D01*
X167513000Y-123952000D01*
X166370085Y-123952000D01*
X166248096Y-124174039D01*
X166408959Y-124562423D01*
X166784866Y-124977389D01*
X167001703Y-125080014D01*
X166597189Y-125350302D01*
X166286120Y-125815849D01*
X166176887Y-126365000D01*
X161483113Y-126365000D01*
X161373880Y-125815849D01*
X161062811Y-125350302D01*
X160680725Y-125095000D01*
X161062811Y-124839698D01*
X161373880Y-124374151D01*
X161483113Y-123825000D01*
X161373880Y-123275849D01*
X161062811Y-122810302D01*
X160680725Y-122555000D01*
X161062811Y-122299698D01*
X161373880Y-121834151D01*
X161413684Y-121634039D01*
X166248096Y-121634039D01*
X166408959Y-122022423D01*
X166784866Y-122437389D01*
X167033367Y-122555000D01*
X166784866Y-122672611D01*
X166408959Y-123087577D01*
X166248096Y-123475961D01*
X166370085Y-123698000D01*
X167513000Y-123698000D01*
X167513000Y-121412000D01*
X167767000Y-121412000D01*
X167767000Y-123698000D01*
X168909915Y-123698000D01*
X169031904Y-123475961D01*
X168871041Y-123087577D01*
X168495134Y-122672611D01*
X168246633Y-122555000D01*
X168495134Y-122437389D01*
X168871041Y-122022423D01*
X169031904Y-121634039D01*
X168909915Y-121412000D01*
X167767000Y-121412000D01*
X167513000Y-121412000D01*
X166370085Y-121412000D01*
X166248096Y-121634039D01*
X161413684Y-121634039D01*
X161483113Y-121285000D01*
X161373880Y-120735849D01*
X161062811Y-120270302D01*
X160680725Y-120015000D01*
X161062811Y-119759698D01*
X161120911Y-119672745D01*
X163001861Y-119672745D01*
X163075995Y-119918864D01*
X163613223Y-120111965D01*
X164183454Y-120084778D01*
X164584005Y-119918864D01*
X164658139Y-119672745D01*
X163830000Y-118844605D01*
X163001861Y-119672745D01*
X161120911Y-119672745D01*
X161373880Y-119294151D01*
X161483113Y-118745000D01*
X161424081Y-118448223D01*
X162383035Y-118448223D01*
X162410222Y-119018454D01*
X162576136Y-119419005D01*
X162822255Y-119493139D01*
X163650395Y-118665000D01*
X164009605Y-118665000D01*
X164837745Y-119493139D01*
X165083864Y-119419005D01*
X165276965Y-118881777D01*
X165249778Y-118311546D01*
X165083864Y-117910995D01*
X164837745Y-117836861D01*
X164009605Y-118665000D01*
X163650395Y-118665000D01*
X162822255Y-117836861D01*
X162576136Y-117910995D01*
X162383035Y-118448223D01*
X161424081Y-118448223D01*
X161373880Y-118195849D01*
X161062811Y-117730302D01*
X160953489Y-117657255D01*
X163001861Y-117657255D01*
X163830000Y-118485395D01*
X164658139Y-117657255D01*
X164584005Y-117411136D01*
X164046777Y-117218035D01*
X163476546Y-117245222D01*
X163075995Y-117411136D01*
X163001861Y-117657255D01*
X160953489Y-117657255D01*
X160680725Y-117475000D01*
X161062811Y-117219698D01*
X161373880Y-116754151D01*
X161483113Y-116205000D01*
X166176887Y-116205000D01*
X166286120Y-116754151D01*
X166597189Y-117219698D01*
X166979275Y-117475000D01*
X166597189Y-117730302D01*
X166286120Y-118195849D01*
X166176887Y-118745000D01*
X166286120Y-119294151D01*
X166597189Y-119759698D01*
X167001703Y-120029986D01*
X166784866Y-120132611D01*
X166408959Y-120547577D01*
X166248096Y-120935961D01*
X166370085Y-121158000D01*
X167513000Y-121158000D01*
X167513000Y-121138000D01*
X167767000Y-121138000D01*
X167767000Y-121158000D01*
X168909915Y-121158000D01*
X169031904Y-120935961D01*
X168871041Y-120547577D01*
X168495134Y-120132611D01*
X168278297Y-120029986D01*
X168682811Y-119759698D01*
X168993880Y-119294151D01*
X169103113Y-118745000D01*
X168993880Y-118195849D01*
X168682811Y-117730302D01*
X168300725Y-117475000D01*
X168682811Y-117219698D01*
X168993880Y-116754151D01*
X169103113Y-116205000D01*
X169013636Y-115755167D01*
X171784838Y-115755167D01*
X171926883Y-116098943D01*
X171960000Y-116132118D01*
X171960000Y-125802537D01*
X171927808Y-125834673D01*
X171785162Y-126178201D01*
X171784838Y-126550167D01*
X171926883Y-126893943D01*
X172189673Y-127157192D01*
X172453554Y-127266765D01*
X172561883Y-127528943D01*
X172824673Y-127792192D01*
X173088554Y-127901765D01*
X173196883Y-128163943D01*
X173459673Y-128427192D01*
X173803201Y-128569838D01*
X173863544Y-128569891D01*
X173796887Y-128905000D01*
X173906120Y-129454151D01*
X174217189Y-129919698D01*
X174599275Y-130175000D01*
X174217189Y-130430302D01*
X173906120Y-130895849D01*
X173796887Y-131445000D01*
X173906120Y-131994151D01*
X174217189Y-132459698D01*
X174682736Y-132770767D01*
X175231887Y-132880000D01*
X175288113Y-132880000D01*
X175837264Y-132770767D01*
X176302811Y-132459698D01*
X176613880Y-131994151D01*
X176723113Y-131445000D01*
X176613880Y-130895849D01*
X176302811Y-130430302D01*
X175920725Y-130175000D01*
X176302811Y-129919698D01*
X176613880Y-129454151D01*
X176723113Y-128905000D01*
X176613880Y-128355849D01*
X176302811Y-127890302D01*
X175920725Y-127635000D01*
X176302811Y-127379698D01*
X176613880Y-126914151D01*
X176723113Y-126365000D01*
X176613880Y-125815849D01*
X176302811Y-125350302D01*
X175920725Y-125095000D01*
X176302811Y-124839698D01*
X176613880Y-124374151D01*
X176723113Y-123825000D01*
X176613880Y-123275849D01*
X176302811Y-122810302D01*
X175920725Y-122555000D01*
X176302811Y-122299698D01*
X176613880Y-121834151D01*
X176723113Y-121285000D01*
X181365907Y-121285000D01*
X181478946Y-121853285D01*
X181800853Y-122335054D01*
X182130026Y-122555000D01*
X181800853Y-122774946D01*
X181478946Y-123256715D01*
X181365907Y-123825000D01*
X181478946Y-124393285D01*
X181800853Y-124875054D01*
X182130026Y-125095000D01*
X181800853Y-125314946D01*
X181478946Y-125796715D01*
X181365907Y-126365000D01*
X181478946Y-126933285D01*
X181800853Y-127415054D01*
X182130026Y-127635000D01*
X181800853Y-127854946D01*
X181478946Y-128336715D01*
X181365907Y-128905000D01*
X181478946Y-129473285D01*
X181800853Y-129955054D01*
X182130026Y-130175000D01*
X181800853Y-130394946D01*
X181478946Y-130876715D01*
X181365907Y-131445000D01*
X181478946Y-132013285D01*
X181800853Y-132495054D01*
X182282622Y-132816961D01*
X182850907Y-132930000D01*
X182909093Y-132930000D01*
X183477378Y-132816961D01*
X183959147Y-132495054D01*
X184150000Y-132209422D01*
X184340853Y-132495054D01*
X184822622Y-132816961D01*
X185390907Y-132930000D01*
X185449093Y-132930000D01*
X186017378Y-132816961D01*
X186499147Y-132495054D01*
X186821054Y-132013285D01*
X186934093Y-131445000D01*
X186821054Y-130876715D01*
X186499147Y-130394946D01*
X186169974Y-130175000D01*
X186499147Y-129955054D01*
X186821054Y-129473285D01*
X186934093Y-128905000D01*
X186821054Y-128336715D01*
X186499147Y-127854946D01*
X186169974Y-127635000D01*
X186499147Y-127415054D01*
X186821054Y-126933285D01*
X186934093Y-126365000D01*
X186821054Y-125796715D01*
X186499147Y-125314946D01*
X186169974Y-125095000D01*
X186499147Y-124875054D01*
X186821054Y-124393285D01*
X186934093Y-123825000D01*
X186821054Y-123256715D01*
X186499147Y-122774946D01*
X186169974Y-122555000D01*
X186499147Y-122335054D01*
X186821054Y-121853285D01*
X186934093Y-121285000D01*
X186821054Y-120716715D01*
X186499147Y-120234946D01*
X186169974Y-120015000D01*
X186499147Y-119795054D01*
X186821054Y-119313285D01*
X186934093Y-118745000D01*
X186821054Y-118176715D01*
X186499147Y-117694946D01*
X186017378Y-117373039D01*
X185449093Y-117260000D01*
X185390907Y-117260000D01*
X184822622Y-117373039D01*
X184340853Y-117694946D01*
X184340029Y-117696179D01*
X184333162Y-117659683D01*
X184194090Y-117443559D01*
X183981890Y-117298569D01*
X183730000Y-117247560D01*
X182030000Y-117247560D01*
X181794683Y-117291838D01*
X181578559Y-117430910D01*
X181433569Y-117643110D01*
X181382560Y-117895000D01*
X181382560Y-119595000D01*
X181426838Y-119830317D01*
X181565910Y-120046441D01*
X181778110Y-120191431D01*
X181845541Y-120205086D01*
X181800853Y-120234946D01*
X181478946Y-120716715D01*
X181365907Y-121285000D01*
X176723113Y-121285000D01*
X176613880Y-120735849D01*
X176302811Y-120270302D01*
X175920725Y-120015000D01*
X176302811Y-119759698D01*
X176360911Y-119672745D01*
X178241861Y-119672745D01*
X178315995Y-119918864D01*
X178853223Y-120111965D01*
X179423454Y-120084778D01*
X179824005Y-119918864D01*
X179898139Y-119672745D01*
X179070000Y-118844605D01*
X178241861Y-119672745D01*
X176360911Y-119672745D01*
X176613880Y-119294151D01*
X176723113Y-118745000D01*
X176664081Y-118448223D01*
X177623035Y-118448223D01*
X177650222Y-119018454D01*
X177816136Y-119419005D01*
X178062255Y-119493139D01*
X178890395Y-118665000D01*
X179249605Y-118665000D01*
X180077745Y-119493139D01*
X180323864Y-119419005D01*
X180516965Y-118881777D01*
X180489778Y-118311546D01*
X180323864Y-117910995D01*
X180077745Y-117836861D01*
X179249605Y-118665000D01*
X178890395Y-118665000D01*
X178062255Y-117836861D01*
X177816136Y-117910995D01*
X177623035Y-118448223D01*
X176664081Y-118448223D01*
X176613880Y-118195849D01*
X176302811Y-117730302D01*
X176193489Y-117657255D01*
X178241861Y-117657255D01*
X179070000Y-118485395D01*
X179898139Y-117657255D01*
X179824005Y-117411136D01*
X179286777Y-117218035D01*
X178716546Y-117245222D01*
X178315995Y-117411136D01*
X178241861Y-117657255D01*
X176193489Y-117657255D01*
X175920725Y-117475000D01*
X176302811Y-117219698D01*
X176613880Y-116754151D01*
X176723113Y-116205000D01*
X176613880Y-115655849D01*
X176302811Y-115190302D01*
X175920725Y-114935000D01*
X176302811Y-114679698D01*
X176613880Y-114214151D01*
X176666584Y-113949187D01*
X177634752Y-113949187D01*
X177852757Y-114476800D01*
X178256077Y-114880824D01*
X178783309Y-115099750D01*
X179354187Y-115100248D01*
X179881800Y-114882243D01*
X180285824Y-114478923D01*
X180504750Y-113951691D01*
X180505248Y-113380813D01*
X180287243Y-112853200D01*
X179883923Y-112449176D01*
X179356691Y-112230250D01*
X178785813Y-112229752D01*
X178258200Y-112447757D01*
X177854176Y-112851077D01*
X177635250Y-113378309D01*
X177634752Y-113949187D01*
X176666584Y-113949187D01*
X176723113Y-113665000D01*
X176613880Y-113115849D01*
X176302811Y-112650302D01*
X175837264Y-112339233D01*
X175288113Y-112230000D01*
X175231887Y-112230000D01*
X174682736Y-112339233D01*
X174217189Y-112650302D01*
X173906120Y-113115849D01*
X173796887Y-113665000D01*
X173906120Y-114214151D01*
X174217189Y-114679698D01*
X174599275Y-114935000D01*
X174217189Y-115190302D01*
X173906120Y-115655849D01*
X173796887Y-116205000D01*
X173906120Y-116754151D01*
X174217189Y-117219698D01*
X174599275Y-117475000D01*
X174217189Y-117730302D01*
X174212613Y-117737150D01*
X174148117Y-117581057D01*
X173885327Y-117317808D01*
X173541799Y-117175162D01*
X173480000Y-117175108D01*
X173480000Y-116132463D01*
X173512192Y-116100327D01*
X173654838Y-115756799D01*
X173655162Y-115384833D01*
X173513117Y-115041057D01*
X173250327Y-114777808D01*
X172906799Y-114635162D01*
X172534833Y-114634838D01*
X172191057Y-114776883D01*
X171927808Y-115039673D01*
X171785162Y-115383201D01*
X171784838Y-115755167D01*
X169013636Y-115755167D01*
X168993880Y-115655849D01*
X168682811Y-115190302D01*
X168538535Y-115093899D01*
X168675317Y-115068162D01*
X168891441Y-114929090D01*
X169036431Y-114716890D01*
X169087440Y-114465000D01*
X169087440Y-112865000D01*
X169043162Y-112629683D01*
X168904090Y-112413559D01*
X168691890Y-112268569D01*
X168440000Y-112217560D01*
X166840000Y-112217560D01*
X166604683Y-112261838D01*
X166388559Y-112400910D01*
X166243569Y-112613110D01*
X166192560Y-112865000D01*
X166192560Y-114465000D01*
X166236838Y-114700317D01*
X166375910Y-114916441D01*
X166588110Y-115061431D01*
X166743089Y-115092815D01*
X166597189Y-115190302D01*
X166286120Y-115655849D01*
X166176887Y-116205000D01*
X161483113Y-116205000D01*
X161373880Y-115655849D01*
X161062811Y-115190302D01*
X160680725Y-114935000D01*
X161062811Y-114679698D01*
X161373880Y-114214151D01*
X161426584Y-113949187D01*
X162394752Y-113949187D01*
X162612757Y-114476800D01*
X163016077Y-114880824D01*
X163543309Y-115099750D01*
X164114187Y-115100248D01*
X164641800Y-114882243D01*
X165045824Y-114478923D01*
X165264750Y-113951691D01*
X165265248Y-113380813D01*
X165047243Y-112853200D01*
X164643923Y-112449176D01*
X164116691Y-112230250D01*
X163545813Y-112229752D01*
X163018200Y-112447757D01*
X162614176Y-112851077D01*
X162395250Y-113378309D01*
X162394752Y-113949187D01*
X161426584Y-113949187D01*
X161483113Y-113665000D01*
X161373880Y-113115849D01*
X161062811Y-112650302D01*
X160597264Y-112339233D01*
X160048113Y-112230000D01*
X159991887Y-112230000D01*
X159442736Y-112339233D01*
X158977189Y-112650302D01*
X158666120Y-113115849D01*
X158618141Y-113357057D01*
X158212599Y-113762599D01*
X158047852Y-114009161D01*
X157990000Y-114300000D01*
X157990000Y-117309367D01*
X157666799Y-117175162D01*
X157605000Y-117175108D01*
X157605000Y-116132463D01*
X157637192Y-116100327D01*
X157779838Y-115756799D01*
X157780162Y-115384833D01*
X157638117Y-115041057D01*
X157375327Y-114777808D01*
X157031799Y-114635162D01*
X156659833Y-114634838D01*
X156316057Y-114776883D01*
X156052808Y-115039673D01*
X155910162Y-115383201D01*
X155909838Y-115755167D01*
X153773636Y-115755167D01*
X153753880Y-115655849D01*
X153442811Y-115190302D01*
X153298535Y-115093899D01*
X153435317Y-115068162D01*
X153651441Y-114929090D01*
X153796431Y-114716890D01*
X153847440Y-114465000D01*
X153847440Y-112865000D01*
X153803162Y-112629683D01*
X153664090Y-112413559D01*
X153451890Y-112268569D01*
X153200000Y-112217560D01*
X151600000Y-112217560D01*
X151364683Y-112261838D01*
X151148559Y-112400910D01*
X151003569Y-112613110D01*
X150952560Y-112865000D01*
X150952560Y-114465000D01*
X150996838Y-114700317D01*
X151135910Y-114916441D01*
X151348110Y-115061431D01*
X151503089Y-115092815D01*
X151357189Y-115190302D01*
X151046120Y-115655849D01*
X150936887Y-116205000D01*
X141163113Y-116205000D01*
X141053880Y-115655849D01*
X140742811Y-115190302D01*
X140360725Y-114935000D01*
X140742811Y-114679698D01*
X141053880Y-114214151D01*
X141163113Y-113665000D01*
X141053880Y-113115849D01*
X140742811Y-112650302D01*
X140360725Y-112395000D01*
X140742811Y-112139698D01*
X140800911Y-112052745D01*
X142681861Y-112052745D01*
X142755995Y-112298864D01*
X143293223Y-112491965D01*
X143863454Y-112464778D01*
X144264005Y-112298864D01*
X144338139Y-112052745D01*
X143510000Y-111224605D01*
X142681861Y-112052745D01*
X140800911Y-112052745D01*
X141053880Y-111674151D01*
X141163113Y-111125000D01*
X141104081Y-110828223D01*
X142063035Y-110828223D01*
X142090222Y-111398454D01*
X142256136Y-111799005D01*
X142502255Y-111873139D01*
X143330395Y-111045000D01*
X143689605Y-111045000D01*
X144517745Y-111873139D01*
X144763864Y-111799005D01*
X144956965Y-111261777D01*
X144929778Y-110691546D01*
X144763864Y-110290995D01*
X144517745Y-110216861D01*
X143689605Y-111045000D01*
X143330395Y-111045000D01*
X142502255Y-110216861D01*
X142256136Y-110290995D01*
X142063035Y-110828223D01*
X141104081Y-110828223D01*
X141053880Y-110575849D01*
X140742811Y-110110302D01*
X140633489Y-110037255D01*
X142681861Y-110037255D01*
X143510000Y-110865395D01*
X144338139Y-110037255D01*
X144264005Y-109791136D01*
X143726777Y-109598035D01*
X143156546Y-109625222D01*
X142755995Y-109791136D01*
X142681861Y-110037255D01*
X140633489Y-110037255D01*
X140360725Y-109855000D01*
X140742811Y-109599698D01*
X140872792Y-109405167D01*
X162259838Y-109405167D01*
X162401883Y-109748943D01*
X162664673Y-110012192D01*
X163008201Y-110154838D01*
X163380167Y-110155162D01*
X163723943Y-110013117D01*
X163987192Y-109750327D01*
X164129838Y-109406799D01*
X164129879Y-109359923D01*
X164367401Y-109122401D01*
X164532148Y-108875839D01*
X164590000Y-108585000D01*
X164590000Y-108512463D01*
X164622192Y-108480327D01*
X164764838Y-108136799D01*
X164765162Y-107764833D01*
X164623117Y-107421057D01*
X164360327Y-107157808D01*
X164016799Y-107015162D01*
X163644833Y-107014838D01*
X163301057Y-107156883D01*
X163037808Y-107419673D01*
X162895162Y-107763201D01*
X162894838Y-108135167D01*
X162964432Y-108303597D01*
X162666057Y-108426883D01*
X162402808Y-108689673D01*
X162260162Y-109033201D01*
X162259838Y-109405167D01*
X140872792Y-109405167D01*
X141053880Y-109134151D01*
X141163113Y-108585000D01*
X141053880Y-108035849D01*
X140742811Y-107570302D01*
X140360725Y-107315000D01*
X140742811Y-107059698D01*
X141053880Y-106594151D01*
X141106584Y-106329187D01*
X142074752Y-106329187D01*
X142292757Y-106856800D01*
X142696077Y-107260824D01*
X143223309Y-107479750D01*
X143794187Y-107480248D01*
X144321800Y-107262243D01*
X144725824Y-106858923D01*
X144918860Y-106394039D01*
X151008096Y-106394039D01*
X151168959Y-106782423D01*
X151544866Y-107197389D01*
X152050959Y-107436914D01*
X152273000Y-107315629D01*
X152273000Y-106172000D01*
X152527000Y-106172000D01*
X152527000Y-107315629D01*
X152749041Y-107436914D01*
X153255134Y-107197389D01*
X153631041Y-106782423D01*
X153791904Y-106394039D01*
X153669915Y-106172000D01*
X152527000Y-106172000D01*
X152273000Y-106172000D01*
X151130085Y-106172000D01*
X151008096Y-106394039D01*
X144918860Y-106394039D01*
X144944750Y-106331691D01*
X144945248Y-105760813D01*
X144727243Y-105233200D01*
X144323923Y-104829176D01*
X143796691Y-104610250D01*
X143225813Y-104609752D01*
X142698200Y-104827757D01*
X142294176Y-105231077D01*
X142075250Y-105758309D01*
X142074752Y-106329187D01*
X141106584Y-106329187D01*
X141163113Y-106045000D01*
X141053880Y-105495849D01*
X140742811Y-105030302D01*
X140360725Y-104775000D01*
X140742811Y-104519698D01*
X141053880Y-104054151D01*
X141163113Y-103505000D01*
X150936887Y-103505000D01*
X151046120Y-104054151D01*
X151357189Y-104519698D01*
X151761703Y-104789986D01*
X151544866Y-104892611D01*
X151168959Y-105307577D01*
X151008096Y-105695961D01*
X151130085Y-105918000D01*
X152273000Y-105918000D01*
X152273000Y-105898000D01*
X152527000Y-105898000D01*
X152527000Y-105918000D01*
X153669915Y-105918000D01*
X153791904Y-105695961D01*
X153631041Y-105307577D01*
X153255134Y-104892611D01*
X153038297Y-104789986D01*
X153442811Y-104519698D01*
X153753880Y-104054151D01*
X153863113Y-103505000D01*
X153753880Y-102955849D01*
X153442811Y-102490302D01*
X153038297Y-102220014D01*
X153255134Y-102117389D01*
X153631041Y-101702423D01*
X153791904Y-101314039D01*
X153669915Y-101092000D01*
X152527000Y-101092000D01*
X152527000Y-101112000D01*
X152273000Y-101112000D01*
X152273000Y-101092000D01*
X151130085Y-101092000D01*
X151008096Y-101314039D01*
X151168959Y-101702423D01*
X151544866Y-102117389D01*
X151761703Y-102220014D01*
X151357189Y-102490302D01*
X151046120Y-102955849D01*
X150936887Y-103505000D01*
X141163113Y-103505000D01*
X141053880Y-102955849D01*
X140742811Y-102490302D01*
X140360725Y-102235000D01*
X140742811Y-101979698D01*
X141053880Y-101514151D01*
X141163113Y-100965000D01*
X141053880Y-100415849D01*
X140742811Y-99950302D01*
X140360725Y-99695000D01*
X140742811Y-99439698D01*
X141053880Y-98974151D01*
X141163113Y-98425000D01*
X141053880Y-97875849D01*
X140742811Y-97410302D01*
X140277264Y-97099233D01*
X139728113Y-96990000D01*
X139671887Y-96990000D01*
X139122736Y-97099233D01*
X138657189Y-97410302D01*
X138346120Y-97875849D01*
X138236887Y-98425000D01*
X125907440Y-98425000D01*
X125907440Y-97625000D01*
X125863162Y-97389683D01*
X125724090Y-97173559D01*
X125511890Y-97028569D01*
X125260000Y-96977560D01*
X123660000Y-96977560D01*
X123424683Y-97021838D01*
X123208559Y-97160910D01*
X123063569Y-97373110D01*
X123012560Y-97625000D01*
X123012560Y-99225000D01*
X123056838Y-99460317D01*
X123195910Y-99676441D01*
X123408110Y-99821431D01*
X123563089Y-99852815D01*
X123417189Y-99950302D01*
X123106120Y-100415849D01*
X122996887Y-100965000D01*
X123106120Y-101514151D01*
X123417189Y-101979698D01*
X123799275Y-102235000D01*
X123417189Y-102490302D01*
X123247005Y-102745000D01*
X123190000Y-102745000D01*
X122899161Y-102802852D01*
X122652599Y-102967599D01*
X122084904Y-103535294D01*
X122085248Y-103140813D01*
X121867243Y-102613200D01*
X121463923Y-102209176D01*
X120936691Y-101990250D01*
X120365813Y-101989752D01*
X119838200Y-102207757D01*
X119434176Y-102611077D01*
X119215250Y-103138309D01*
X119214752Y-103709187D01*
X118262497Y-103709187D01*
X118303113Y-103505000D01*
X118193880Y-102955849D01*
X117882811Y-102490302D01*
X117500725Y-102235000D01*
X117882811Y-101979698D01*
X118193880Y-101514151D01*
X118303113Y-100965000D01*
X118193880Y-100415849D01*
X117882811Y-99950302D01*
X117500725Y-99695000D01*
X117882811Y-99439698D01*
X118193880Y-98974151D01*
X118246584Y-98709187D01*
X119214752Y-98709187D01*
X119432757Y-99236800D01*
X119836077Y-99640824D01*
X120363309Y-99859750D01*
X120934187Y-99860248D01*
X121461800Y-99642243D01*
X121865824Y-99238923D01*
X122084750Y-98711691D01*
X122085248Y-98140813D01*
X121867243Y-97613200D01*
X121463923Y-97209176D01*
X120936691Y-96990250D01*
X120365813Y-96989752D01*
X119838200Y-97207757D01*
X119434176Y-97611077D01*
X119215250Y-98138309D01*
X119214752Y-98709187D01*
X118246584Y-98709187D01*
X118303113Y-98425000D01*
X118193880Y-97875849D01*
X117882811Y-97410302D01*
X117417264Y-97099233D01*
X116868113Y-96990000D01*
X116811887Y-96990000D01*
X116262736Y-97099233D01*
X115797189Y-97410302D01*
X115486120Y-97875849D01*
X115376887Y-98425000D01*
X103047440Y-98425000D01*
X103047440Y-97625000D01*
X103003162Y-97389683D01*
X102864090Y-97173559D01*
X102651890Y-97028569D01*
X102400000Y-96977560D01*
X100800000Y-96977560D01*
X100564683Y-97021838D01*
X100348559Y-97160910D01*
X100203569Y-97373110D01*
X100152560Y-97625000D01*
X100152560Y-99225000D01*
X100196838Y-99460317D01*
X100335910Y-99676441D01*
X100548110Y-99821431D01*
X100703089Y-99852815D01*
X100557189Y-99950302D01*
X100246120Y-100415849D01*
X100136887Y-100965000D01*
X100246120Y-101514151D01*
X100557189Y-101979698D01*
X100939275Y-102235000D01*
X100557189Y-102490302D01*
X100387005Y-102745000D01*
X100330000Y-102745000D01*
X100039161Y-102802852D01*
X99792599Y-102967599D01*
X99224904Y-103535294D01*
X99225248Y-103140813D01*
X99007243Y-102613200D01*
X98603923Y-102209176D01*
X98076691Y-101990250D01*
X97505813Y-101989752D01*
X96978200Y-102207757D01*
X96574176Y-102611077D01*
X96355250Y-103138309D01*
X96354752Y-103709187D01*
X96572757Y-104236800D01*
X96976077Y-104640824D01*
X97202784Y-104734961D01*
X96978200Y-104827757D01*
X96574176Y-105231077D01*
X96355250Y-105758309D01*
X96354752Y-106329187D01*
X96572757Y-106856800D01*
X96976077Y-107260824D01*
X97503309Y-107479750D01*
X98074187Y-107480248D01*
X98300000Y-107386944D01*
X98300000Y-109702976D01*
X98076691Y-109610250D01*
X97505813Y-109609752D01*
X96978200Y-109827757D01*
X96645000Y-110160376D01*
X96645000Y-108512463D01*
X96677192Y-108480327D01*
X96819838Y-108136799D01*
X96820162Y-107764833D01*
X96678117Y-107421057D01*
X96415327Y-107157808D01*
X96071799Y-107015162D01*
X95960000Y-107015065D01*
X95960000Y-98709187D01*
X96354752Y-98709187D01*
X96572757Y-99236800D01*
X96976077Y-99640824D01*
X97503309Y-99859750D01*
X98074187Y-99860248D01*
X98601800Y-99642243D01*
X99005824Y-99238923D01*
X99224750Y-98711691D01*
X99225248Y-98140813D01*
X99007243Y-97613200D01*
X98603923Y-97209176D01*
X98076691Y-96990250D01*
X97505813Y-96989752D01*
X96978200Y-97207757D01*
X96574176Y-97611077D01*
X96355250Y-98138309D01*
X96354752Y-98709187D01*
X95960000Y-98709187D01*
X95960000Y-95454187D01*
X144614752Y-95454187D01*
X144832757Y-95981800D01*
X145236077Y-96385824D01*
X145763309Y-96604750D01*
X146334187Y-96605248D01*
X146861800Y-96387243D01*
X147265824Y-95983923D01*
X147484750Y-95456691D01*
X147485248Y-94885813D01*
X147267243Y-94358200D01*
X146863923Y-93954176D01*
X146336691Y-93735250D01*
X145765813Y-93734752D01*
X145238200Y-93952757D01*
X144834176Y-94356077D01*
X144615250Y-94883309D01*
X144614752Y-95454187D01*
X95960000Y-95454187D01*
X95960000Y-92545000D01*
X148412560Y-92545000D01*
X148412560Y-94145000D01*
X148456838Y-94380317D01*
X148595910Y-94596441D01*
X148808110Y-94741431D01*
X149060000Y-94792440D01*
X149100000Y-94792440D01*
X149100000Y-97790000D01*
X149157852Y-98080839D01*
X149322599Y-98327401D01*
X149957599Y-98962401D01*
X150204161Y-99127148D01*
X150495000Y-99185000D01*
X150952560Y-99185000D01*
X150952560Y-99225000D01*
X150996838Y-99460317D01*
X151135910Y-99676441D01*
X151348110Y-99821431D01*
X151507616Y-99853732D01*
X151168959Y-100227577D01*
X151008096Y-100615961D01*
X151130085Y-100838000D01*
X152273000Y-100838000D01*
X152273000Y-100818000D01*
X152527000Y-100818000D01*
X152527000Y-100838000D01*
X153669915Y-100838000D01*
X153791904Y-100615961D01*
X153631041Y-100227577D01*
X153293410Y-99854864D01*
X153435317Y-99828162D01*
X153651441Y-99689090D01*
X153796431Y-99476890D01*
X153847440Y-99225000D01*
X153847440Y-98425000D01*
X158556887Y-98425000D01*
X158666120Y-98974151D01*
X158977189Y-99439698D01*
X159359275Y-99695000D01*
X158977189Y-99950302D01*
X158666120Y-100415849D01*
X158556887Y-100965000D01*
X158666120Y-101514151D01*
X158977189Y-101979698D01*
X159359275Y-102235000D01*
X158977189Y-102490302D01*
X158666120Y-102955849D01*
X158556887Y-103505000D01*
X158666120Y-104054151D01*
X158977189Y-104519698D01*
X159359275Y-104775000D01*
X158977189Y-105030302D01*
X158666120Y-105495849D01*
X158556887Y-106045000D01*
X158666120Y-106594151D01*
X158977189Y-107059698D01*
X159442736Y-107370767D01*
X159991887Y-107480000D01*
X160048113Y-107480000D01*
X160597264Y-107370767D01*
X161062811Y-107059698D01*
X161373880Y-106594151D01*
X161413684Y-106394039D01*
X166248096Y-106394039D01*
X166408959Y-106782423D01*
X166784866Y-107197389D01*
X167290959Y-107436914D01*
X167513000Y-107315629D01*
X167513000Y-106172000D01*
X167767000Y-106172000D01*
X167767000Y-107315629D01*
X167989041Y-107436914D01*
X168495134Y-107197389D01*
X168871041Y-106782423D01*
X169031904Y-106394039D01*
X168909915Y-106172000D01*
X167767000Y-106172000D01*
X167513000Y-106172000D01*
X166370085Y-106172000D01*
X166248096Y-106394039D01*
X161413684Y-106394039D01*
X161483113Y-106045000D01*
X161373880Y-105495849D01*
X161062811Y-105030302D01*
X160680725Y-104775000D01*
X161062811Y-104519698D01*
X161373880Y-104054151D01*
X161426584Y-103789187D01*
X162394752Y-103789187D01*
X162612757Y-104316800D01*
X163016077Y-104720824D01*
X163543309Y-104939750D01*
X164114187Y-104940248D01*
X164641800Y-104722243D01*
X165045824Y-104318923D01*
X165264750Y-103791691D01*
X165265000Y-103505000D01*
X166176887Y-103505000D01*
X166286120Y-104054151D01*
X166597189Y-104519698D01*
X167001703Y-104789986D01*
X166784866Y-104892611D01*
X166408959Y-105307577D01*
X166248096Y-105695961D01*
X166370085Y-105918000D01*
X167513000Y-105918000D01*
X167513000Y-105898000D01*
X167767000Y-105898000D01*
X167767000Y-105918000D01*
X168909915Y-105918000D01*
X169031904Y-105695961D01*
X168871041Y-105307577D01*
X168495134Y-104892611D01*
X168278297Y-104789986D01*
X168682811Y-104519698D01*
X168993880Y-104054151D01*
X169103113Y-103505000D01*
X168993880Y-102955849D01*
X168682811Y-102490302D01*
X168278297Y-102220014D01*
X168495134Y-102117389D01*
X168871041Y-101702423D01*
X169031904Y-101314039D01*
X168909915Y-101092000D01*
X167767000Y-101092000D01*
X167767000Y-101112000D01*
X167513000Y-101112000D01*
X167513000Y-101092000D01*
X166370085Y-101092000D01*
X166248096Y-101314039D01*
X166408959Y-101702423D01*
X166784866Y-102117389D01*
X167001703Y-102220014D01*
X166597189Y-102490302D01*
X166286120Y-102955849D01*
X166176887Y-103505000D01*
X165265000Y-103505000D01*
X165265248Y-103220813D01*
X165047243Y-102693200D01*
X164643923Y-102289176D01*
X164116691Y-102070250D01*
X163545813Y-102069752D01*
X163018200Y-102287757D01*
X162614176Y-102691077D01*
X162395250Y-103218309D01*
X162394752Y-103789187D01*
X161426584Y-103789187D01*
X161483113Y-103505000D01*
X161373880Y-102955849D01*
X161062811Y-102490302D01*
X160680725Y-102235000D01*
X161062811Y-101979698D01*
X161373880Y-101514151D01*
X161483113Y-100965000D01*
X161373880Y-100415849D01*
X161062811Y-99950302D01*
X160680725Y-99695000D01*
X160953488Y-99512745D01*
X163001861Y-99512745D01*
X163075995Y-99758864D01*
X163613223Y-99951965D01*
X164183454Y-99924778D01*
X164584005Y-99758864D01*
X164658139Y-99512745D01*
X163830000Y-98684605D01*
X163001861Y-99512745D01*
X160953488Y-99512745D01*
X161062811Y-99439698D01*
X161373880Y-98974151D01*
X161483113Y-98425000D01*
X161455907Y-98288223D01*
X162383035Y-98288223D01*
X162410222Y-98858454D01*
X162576136Y-99259005D01*
X162822255Y-99333139D01*
X163650395Y-98505000D01*
X164009605Y-98505000D01*
X164837745Y-99333139D01*
X165083864Y-99259005D01*
X165276965Y-98721777D01*
X165249778Y-98151546D01*
X165083864Y-97750995D01*
X164837745Y-97676861D01*
X164009605Y-98505000D01*
X163650395Y-98505000D01*
X162822255Y-97676861D01*
X162576136Y-97750995D01*
X162383035Y-98288223D01*
X161455907Y-98288223D01*
X161373880Y-97875849D01*
X161120912Y-97497255D01*
X163001861Y-97497255D01*
X163830000Y-98325395D01*
X164530394Y-97625000D01*
X166192560Y-97625000D01*
X166192560Y-99225000D01*
X166236838Y-99460317D01*
X166375910Y-99676441D01*
X166588110Y-99821431D01*
X166747616Y-99853732D01*
X166408959Y-100227577D01*
X166248096Y-100615961D01*
X166370085Y-100838000D01*
X167513000Y-100838000D01*
X167513000Y-100818000D01*
X167767000Y-100818000D01*
X167767000Y-100838000D01*
X168909915Y-100838000D01*
X169031904Y-100615961D01*
X168871041Y-100227577D01*
X168533410Y-99854864D01*
X168675317Y-99828162D01*
X168891441Y-99689090D01*
X169036431Y-99476890D01*
X169087440Y-99225000D01*
X169087440Y-98425000D01*
X173796887Y-98425000D01*
X173906120Y-98974151D01*
X174217189Y-99439698D01*
X174599275Y-99695000D01*
X174217189Y-99950302D01*
X173906120Y-100415849D01*
X173796887Y-100965000D01*
X173906120Y-101514151D01*
X174217189Y-101979698D01*
X174599275Y-102235000D01*
X174217189Y-102490302D01*
X173906120Y-102955849D01*
X173796887Y-103505000D01*
X173906120Y-104054151D01*
X174217189Y-104519698D01*
X174599275Y-104775000D01*
X174217189Y-105030302D01*
X173906120Y-105495849D01*
X173796887Y-106045000D01*
X173906120Y-106594151D01*
X174217189Y-107059698D01*
X174682736Y-107370767D01*
X175231887Y-107480000D01*
X175288113Y-107480000D01*
X175837264Y-107370767D01*
X176302811Y-107059698D01*
X176613880Y-106594151D01*
X176723113Y-106045000D01*
X176613880Y-105495849D01*
X176302811Y-105030302D01*
X175920725Y-104775000D01*
X176302811Y-104519698D01*
X176613880Y-104054151D01*
X176666584Y-103789187D01*
X177634752Y-103789187D01*
X177852757Y-104316800D01*
X178256077Y-104720824D01*
X178783309Y-104939750D01*
X179354187Y-104940248D01*
X179881800Y-104722243D01*
X180285824Y-104318923D01*
X180504750Y-103791691D01*
X180505248Y-103220813D01*
X180287243Y-102693200D01*
X179883923Y-102289176D01*
X179356691Y-102070250D01*
X178785813Y-102069752D01*
X178258200Y-102287757D01*
X177854176Y-102691077D01*
X177635250Y-103218309D01*
X177634752Y-103789187D01*
X176666584Y-103789187D01*
X176723113Y-103505000D01*
X176613880Y-102955849D01*
X176302811Y-102490302D01*
X175920725Y-102235000D01*
X176302811Y-101979698D01*
X176613880Y-101514151D01*
X176723113Y-100965000D01*
X181365907Y-100965000D01*
X181478946Y-101533285D01*
X181800853Y-102015054D01*
X182130026Y-102235000D01*
X181800853Y-102454946D01*
X181478946Y-102936715D01*
X181365907Y-103505000D01*
X181478946Y-104073285D01*
X181800853Y-104555054D01*
X182130026Y-104775000D01*
X181800853Y-104994946D01*
X181478946Y-105476715D01*
X181365907Y-106045000D01*
X181478946Y-106613285D01*
X181800853Y-107095054D01*
X182130026Y-107315000D01*
X181800853Y-107534946D01*
X181478946Y-108016715D01*
X181365907Y-108585000D01*
X181478946Y-109153285D01*
X181800853Y-109635054D01*
X182282622Y-109956961D01*
X182850907Y-110070000D01*
X182909093Y-110070000D01*
X183477378Y-109956961D01*
X183959147Y-109635054D01*
X184150000Y-109349422D01*
X184340853Y-109635054D01*
X184822622Y-109956961D01*
X185390907Y-110070000D01*
X185449093Y-110070000D01*
X186017378Y-109956961D01*
X186499147Y-109635054D01*
X186821054Y-109153285D01*
X186934093Y-108585000D01*
X186821054Y-108016715D01*
X186499147Y-107534946D01*
X186169974Y-107315000D01*
X186499147Y-107095054D01*
X186821054Y-106613285D01*
X186934093Y-106045000D01*
X186821054Y-105476715D01*
X186499147Y-104994946D01*
X186169974Y-104775000D01*
X186499147Y-104555054D01*
X186821054Y-104073285D01*
X186934093Y-103505000D01*
X186821054Y-102936715D01*
X186499147Y-102454946D01*
X186169974Y-102235000D01*
X186499147Y-102015054D01*
X186821054Y-101533285D01*
X186934093Y-100965000D01*
X186821054Y-100396715D01*
X186499147Y-99914946D01*
X186169974Y-99695000D01*
X186499147Y-99475054D01*
X186821054Y-98993285D01*
X186934093Y-98425000D01*
X186821054Y-97856715D01*
X186499147Y-97374946D01*
X186017378Y-97053039D01*
X185449093Y-96940000D01*
X185390907Y-96940000D01*
X184822622Y-97053039D01*
X184340853Y-97374946D01*
X184340029Y-97376179D01*
X184333162Y-97339683D01*
X184194090Y-97123559D01*
X183981890Y-96978569D01*
X183730000Y-96927560D01*
X182030000Y-96927560D01*
X181794683Y-96971838D01*
X181578559Y-97110910D01*
X181433569Y-97323110D01*
X181382560Y-97575000D01*
X181382560Y-99275000D01*
X181426838Y-99510317D01*
X181565910Y-99726441D01*
X181778110Y-99871431D01*
X181845541Y-99885086D01*
X181800853Y-99914946D01*
X181478946Y-100396715D01*
X181365907Y-100965000D01*
X176723113Y-100965000D01*
X176613880Y-100415849D01*
X176302811Y-99950302D01*
X175920725Y-99695000D01*
X176193488Y-99512745D01*
X178241861Y-99512745D01*
X178315995Y-99758864D01*
X178853223Y-99951965D01*
X179423454Y-99924778D01*
X179824005Y-99758864D01*
X179898139Y-99512745D01*
X179070000Y-98684605D01*
X178241861Y-99512745D01*
X176193488Y-99512745D01*
X176302811Y-99439698D01*
X176613880Y-98974151D01*
X176723113Y-98425000D01*
X176695907Y-98288223D01*
X177623035Y-98288223D01*
X177650222Y-98858454D01*
X177816136Y-99259005D01*
X178062255Y-99333139D01*
X178890395Y-98505000D01*
X179249605Y-98505000D01*
X180077745Y-99333139D01*
X180323864Y-99259005D01*
X180516965Y-98721777D01*
X180489778Y-98151546D01*
X180323864Y-97750995D01*
X180077745Y-97676861D01*
X179249605Y-98505000D01*
X178890395Y-98505000D01*
X178062255Y-97676861D01*
X177816136Y-97750995D01*
X177623035Y-98288223D01*
X176695907Y-98288223D01*
X176613880Y-97875849D01*
X176360912Y-97497255D01*
X178241861Y-97497255D01*
X179070000Y-98325395D01*
X179898139Y-97497255D01*
X179824005Y-97251136D01*
X179286777Y-97058035D01*
X178716546Y-97085222D01*
X178315995Y-97251136D01*
X178241861Y-97497255D01*
X176360912Y-97497255D01*
X176302811Y-97410302D01*
X175837264Y-97099233D01*
X175288113Y-96990000D01*
X175231887Y-96990000D01*
X174682736Y-97099233D01*
X174217189Y-97410302D01*
X173906120Y-97875849D01*
X173796887Y-98425000D01*
X169087440Y-98425000D01*
X169087440Y-97625000D01*
X169043162Y-97389683D01*
X168904090Y-97173559D01*
X168691890Y-97028569D01*
X168440000Y-96977560D01*
X168400000Y-96977560D01*
X168400000Y-94929802D01*
X168537362Y-94792440D01*
X169710000Y-94792440D01*
X169945317Y-94748162D01*
X170161441Y-94609090D01*
X170306431Y-94396890D01*
X170327680Y-94291959D01*
X170596077Y-94560824D01*
X171123309Y-94779750D01*
X171694187Y-94780248D01*
X172221800Y-94562243D01*
X172431663Y-94352745D01*
X174471861Y-94352745D01*
X174545995Y-94598864D01*
X175083223Y-94791965D01*
X175653454Y-94764778D01*
X176054005Y-94598864D01*
X176128139Y-94352745D01*
X175300000Y-93524605D01*
X174471861Y-94352745D01*
X172431663Y-94352745D01*
X172625824Y-94158923D01*
X172844750Y-93631691D01*
X172845189Y-93128223D01*
X173853035Y-93128223D01*
X173880222Y-93698454D01*
X174046136Y-94099005D01*
X174292255Y-94173139D01*
X175120395Y-93345000D01*
X175479605Y-93345000D01*
X176307745Y-94173139D01*
X176355167Y-94158855D01*
X176396838Y-94380317D01*
X176535910Y-94596441D01*
X176748110Y-94741431D01*
X177000000Y-94792440D01*
X178600000Y-94792440D01*
X178835317Y-94748162D01*
X179051441Y-94609090D01*
X179196431Y-94396890D01*
X179247440Y-94145000D01*
X179247440Y-92545000D01*
X179203162Y-92309683D01*
X179064090Y-92093559D01*
X178851890Y-91948569D01*
X178600000Y-91897560D01*
X177000000Y-91897560D01*
X176764683Y-91941838D01*
X176548559Y-92080910D01*
X176403569Y-92293110D01*
X176355354Y-92531201D01*
X176307745Y-92516861D01*
X175479605Y-93345000D01*
X175120395Y-93345000D01*
X174292255Y-92516861D01*
X174046136Y-92590995D01*
X173853035Y-93128223D01*
X172845189Y-93128223D01*
X172845248Y-93060813D01*
X172627243Y-92533200D01*
X172431640Y-92337255D01*
X174471861Y-92337255D01*
X175300000Y-93165395D01*
X176128139Y-92337255D01*
X176054005Y-92091136D01*
X175516777Y-91898035D01*
X174946546Y-91925222D01*
X174545995Y-92091136D01*
X174471861Y-92337255D01*
X172431640Y-92337255D01*
X172223923Y-92129176D01*
X171696691Y-91910250D01*
X171125813Y-91909752D01*
X170598200Y-92127757D01*
X170329417Y-92396072D01*
X170313162Y-92309683D01*
X170174090Y-92093559D01*
X169961890Y-91948569D01*
X169710000Y-91897560D01*
X168110000Y-91897560D01*
X167874683Y-91941838D01*
X167658559Y-92080910D01*
X167513569Y-92293110D01*
X167462560Y-92545000D01*
X167462560Y-93717638D01*
X167102599Y-94077599D01*
X166937852Y-94324161D01*
X166880000Y-94615000D01*
X166880000Y-96977560D01*
X166840000Y-96977560D01*
X166604683Y-97021838D01*
X166388559Y-97160910D01*
X166243569Y-97373110D01*
X166192560Y-97625000D01*
X164530394Y-97625000D01*
X164658139Y-97497255D01*
X164584005Y-97251136D01*
X164046777Y-97058035D01*
X163476546Y-97085222D01*
X163075995Y-97251136D01*
X163001861Y-97497255D01*
X161120912Y-97497255D01*
X161062811Y-97410302D01*
X160597264Y-97099233D01*
X160048113Y-96990000D01*
X159991887Y-96990000D01*
X159442736Y-97099233D01*
X158977189Y-97410302D01*
X158666120Y-97875849D01*
X158556887Y-98425000D01*
X153847440Y-98425000D01*
X153847440Y-97625000D01*
X153803162Y-97389683D01*
X153664090Y-97173559D01*
X153451890Y-97028569D01*
X153200000Y-96977560D01*
X151600000Y-96977560D01*
X151364683Y-97021838D01*
X151148559Y-97160910D01*
X151003569Y-97373110D01*
X150952560Y-97625000D01*
X150952560Y-97665000D01*
X150809802Y-97665000D01*
X150620000Y-97475198D01*
X150620000Y-95454187D01*
X163664752Y-95454187D01*
X163882757Y-95981800D01*
X164286077Y-96385824D01*
X164813309Y-96604750D01*
X165384187Y-96605248D01*
X165911800Y-96387243D01*
X166315824Y-95983923D01*
X166534750Y-95456691D01*
X166535248Y-94885813D01*
X166317243Y-94358200D01*
X165913923Y-93954176D01*
X165386691Y-93735250D01*
X164815813Y-93734752D01*
X164288200Y-93952757D01*
X163884176Y-94356077D01*
X163665250Y-94883309D01*
X163664752Y-95454187D01*
X150620000Y-95454187D01*
X150620000Y-94792440D01*
X150660000Y-94792440D01*
X150895317Y-94748162D01*
X151111441Y-94609090D01*
X151256431Y-94396890D01*
X151277680Y-94291959D01*
X151546077Y-94560824D01*
X152073309Y-94779750D01*
X152644187Y-94780248D01*
X153171800Y-94562243D01*
X153381663Y-94352745D01*
X155421861Y-94352745D01*
X155495995Y-94598864D01*
X156033223Y-94791965D01*
X156603454Y-94764778D01*
X157004005Y-94598864D01*
X157078139Y-94352745D01*
X156250000Y-93524605D01*
X155421861Y-94352745D01*
X153381663Y-94352745D01*
X153575824Y-94158923D01*
X153794750Y-93631691D01*
X153795189Y-93128223D01*
X154803035Y-93128223D01*
X154830222Y-93698454D01*
X154996136Y-94099005D01*
X155242255Y-94173139D01*
X156070395Y-93345000D01*
X156429605Y-93345000D01*
X157257745Y-94173139D01*
X157305167Y-94158855D01*
X157346838Y-94380317D01*
X157485910Y-94596441D01*
X157698110Y-94741431D01*
X157950000Y-94792440D01*
X159550000Y-94792440D01*
X159785317Y-94748162D01*
X160001441Y-94609090D01*
X160146431Y-94396890D01*
X160197440Y-94145000D01*
X160197440Y-92545000D01*
X160153162Y-92309683D01*
X160014090Y-92093559D01*
X159801890Y-91948569D01*
X159550000Y-91897560D01*
X157950000Y-91897560D01*
X157714683Y-91941838D01*
X157498559Y-92080910D01*
X157353569Y-92293110D01*
X157305354Y-92531201D01*
X157257745Y-92516861D01*
X156429605Y-93345000D01*
X156070395Y-93345000D01*
X155242255Y-92516861D01*
X154996136Y-92590995D01*
X154803035Y-93128223D01*
X153795189Y-93128223D01*
X153795248Y-93060813D01*
X153577243Y-92533200D01*
X153381640Y-92337255D01*
X155421861Y-92337255D01*
X156250000Y-93165395D01*
X157078139Y-92337255D01*
X157004005Y-92091136D01*
X156466777Y-91898035D01*
X155896546Y-91925222D01*
X155495995Y-92091136D01*
X155421861Y-92337255D01*
X153381640Y-92337255D01*
X153173923Y-92129176D01*
X152646691Y-91910250D01*
X152075813Y-91909752D01*
X151548200Y-92127757D01*
X151279417Y-92396072D01*
X151263162Y-92309683D01*
X151124090Y-92093559D01*
X150911890Y-91948569D01*
X150660000Y-91897560D01*
X149060000Y-91897560D01*
X148824683Y-91941838D01*
X148608559Y-92080910D01*
X148463569Y-92293110D01*
X148412560Y-92545000D01*
X95960000Y-92545000D01*
X95960000Y-90484774D01*
X102099831Y-90484774D01*
X102164131Y-90722611D01*
X102672342Y-90902333D01*
X103210644Y-90873892D01*
X103575869Y-90722611D01*
X103640169Y-90484774D01*
X102870000Y-89714605D01*
X102099831Y-90484774D01*
X95960000Y-90484774D01*
X95960000Y-89337342D01*
X101502667Y-89337342D01*
X101531108Y-89875644D01*
X101682389Y-90240869D01*
X101920226Y-90305169D01*
X102690395Y-89535000D01*
X103049605Y-89535000D01*
X103819774Y-90305169D01*
X104057611Y-90240869D01*
X104139669Y-90008828D01*
X104260617Y-90301543D01*
X104641452Y-90683043D01*
X105139291Y-90889764D01*
X105678344Y-90890235D01*
X106176543Y-90684383D01*
X106558043Y-90303548D01*
X106680045Y-90009736D01*
X106800617Y-90301543D01*
X107181452Y-90683043D01*
X107679291Y-90889764D01*
X108218344Y-90890235D01*
X108716543Y-90684383D01*
X108916500Y-90484774D01*
X116069831Y-90484774D01*
X116134131Y-90722611D01*
X116642342Y-90902333D01*
X117180644Y-90873892D01*
X117545869Y-90722611D01*
X117610169Y-90484774D01*
X116840000Y-89714605D01*
X116069831Y-90484774D01*
X108916500Y-90484774D01*
X109098043Y-90303548D01*
X109304764Y-89805709D01*
X109305173Y-89337342D01*
X115472667Y-89337342D01*
X115501108Y-89875644D01*
X115652389Y-90240869D01*
X115890226Y-90305169D01*
X116660395Y-89535000D01*
X117019605Y-89535000D01*
X117789774Y-90305169D01*
X118027611Y-90240869D01*
X118109669Y-90008828D01*
X118230617Y-90301543D01*
X118611452Y-90683043D01*
X119109291Y-90889764D01*
X119648344Y-90890235D01*
X120146543Y-90684383D01*
X120528043Y-90303548D01*
X120650045Y-90009736D01*
X120770617Y-90301543D01*
X121151452Y-90683043D01*
X121649291Y-90889764D01*
X122188344Y-90890235D01*
X122686543Y-90684383D01*
X122917140Y-90454187D01*
X144614752Y-90454187D01*
X144832757Y-90981800D01*
X145236077Y-91385824D01*
X145763309Y-91604750D01*
X146334187Y-91605248D01*
X146861800Y-91387243D01*
X147265824Y-90983923D01*
X147484750Y-90456691D01*
X147484752Y-90454187D01*
X163664752Y-90454187D01*
X163882757Y-90981800D01*
X164286077Y-91385824D01*
X164813309Y-91604750D01*
X165384187Y-91605248D01*
X165880925Y-91400000D01*
X182753275Y-91400000D01*
X182868217Y-91977852D01*
X183195544Y-92467731D01*
X183468329Y-92650000D01*
X183195544Y-92832269D01*
X182868217Y-93322148D01*
X182753275Y-93900000D01*
X182868217Y-94477852D01*
X183195544Y-94967731D01*
X183685423Y-95295058D01*
X184263275Y-95410000D01*
X186106725Y-95410000D01*
X186684577Y-95295058D01*
X187174456Y-94967731D01*
X187501783Y-94477852D01*
X187616725Y-93900000D01*
X187501783Y-93322148D01*
X187216484Y-92895167D01*
X187659838Y-92895167D01*
X187801883Y-93238943D01*
X187835000Y-93272118D01*
X187835000Y-97227537D01*
X187802808Y-97259673D01*
X187660162Y-97603201D01*
X187659838Y-97975167D01*
X187801883Y-98318943D01*
X187835000Y-98352118D01*
X187835000Y-102307537D01*
X187802808Y-102339673D01*
X187660162Y-102683201D01*
X187659838Y-103055167D01*
X187801883Y-103398943D01*
X187835000Y-103432118D01*
X187835000Y-107387537D01*
X187802808Y-107419673D01*
X187660162Y-107763201D01*
X187659838Y-108135167D01*
X187801883Y-108478943D01*
X188064673Y-108742192D01*
X188408201Y-108884838D01*
X188780167Y-108885162D01*
X189123943Y-108743117D01*
X189387192Y-108480327D01*
X189529838Y-108136799D01*
X189530162Y-107764833D01*
X189388117Y-107421057D01*
X189355000Y-107387882D01*
X189355000Y-103432463D01*
X189387192Y-103400327D01*
X189529838Y-103056799D01*
X189530162Y-102684833D01*
X189388117Y-102341057D01*
X189355000Y-102307882D01*
X189355000Y-98352463D01*
X189387192Y-98320327D01*
X189529838Y-97976799D01*
X189530162Y-97604833D01*
X189388117Y-97261057D01*
X189355000Y-97227882D01*
X189355000Y-93272463D01*
X189387192Y-93240327D01*
X189529838Y-92896799D01*
X189530162Y-92524833D01*
X189388117Y-92181057D01*
X189125327Y-91917808D01*
X188781799Y-91775162D01*
X188409833Y-91774838D01*
X188066057Y-91916883D01*
X187802808Y-92179673D01*
X187660162Y-92523201D01*
X187659838Y-92895167D01*
X187216484Y-92895167D01*
X187174456Y-92832269D01*
X186901671Y-92650000D01*
X187174456Y-92467731D01*
X187501783Y-91977852D01*
X187616725Y-91400000D01*
X187501783Y-90822148D01*
X187174456Y-90332269D01*
X186684577Y-90004942D01*
X186106725Y-89890000D01*
X184263275Y-89890000D01*
X183685423Y-90004942D01*
X183195544Y-90332269D01*
X182868217Y-90822148D01*
X182753275Y-91400000D01*
X165880925Y-91400000D01*
X165911800Y-91387243D01*
X166315824Y-90983923D01*
X166534750Y-90456691D01*
X166535248Y-89885813D01*
X166317243Y-89358200D01*
X165913923Y-88954176D01*
X165386691Y-88735250D01*
X164815813Y-88734752D01*
X164288200Y-88952757D01*
X163884176Y-89356077D01*
X163665250Y-89883309D01*
X163664752Y-90454187D01*
X147484752Y-90454187D01*
X147485248Y-89885813D01*
X147267243Y-89358200D01*
X146863923Y-88954176D01*
X146336691Y-88735250D01*
X145765813Y-88734752D01*
X145238200Y-88952757D01*
X144834176Y-89356077D01*
X144615250Y-89883309D01*
X144614752Y-90454187D01*
X122917140Y-90454187D01*
X123068043Y-90303548D01*
X123274764Y-89805709D01*
X123275235Y-89266656D01*
X123069383Y-88768457D01*
X122850496Y-88549187D01*
X147789752Y-88549187D01*
X148007757Y-89076800D01*
X148411077Y-89480824D01*
X148938309Y-89699750D01*
X149509187Y-89700248D01*
X150036800Y-89482243D01*
X150440824Y-89078923D01*
X150633860Y-88614039D01*
X157993096Y-88614039D01*
X158153959Y-89002423D01*
X158529866Y-89417389D01*
X159035959Y-89656914D01*
X159258000Y-89535629D01*
X159258000Y-88392000D01*
X159512000Y-88392000D01*
X159512000Y-89535629D01*
X159734041Y-89656914D01*
X160240134Y-89417389D01*
X160616041Y-89002423D01*
X160776904Y-88614039D01*
X160741275Y-88549187D01*
X166839752Y-88549187D01*
X167057757Y-89076800D01*
X167461077Y-89480824D01*
X167988309Y-89699750D01*
X168559187Y-89700248D01*
X169086800Y-89482243D01*
X169490824Y-89078923D01*
X169683860Y-88614039D01*
X177043096Y-88614039D01*
X177203959Y-89002423D01*
X177579866Y-89417389D01*
X178085959Y-89656914D01*
X178308000Y-89535629D01*
X178308000Y-88392000D01*
X178562000Y-88392000D01*
X178562000Y-89535629D01*
X178784041Y-89656914D01*
X179290134Y-89417389D01*
X179499969Y-89185750D01*
X188306000Y-89185750D01*
X188306000Y-90776309D01*
X188402673Y-91009698D01*
X188581301Y-91188327D01*
X188814690Y-91285000D01*
X189905250Y-91285000D01*
X190064000Y-91126250D01*
X190064000Y-89027000D01*
X190318000Y-89027000D01*
X190318000Y-91126250D01*
X190476750Y-91285000D01*
X191567310Y-91285000D01*
X191800699Y-91188327D01*
X191979327Y-91009698D01*
X192076000Y-90776309D01*
X192076000Y-89185750D01*
X191917250Y-89027000D01*
X190318000Y-89027000D01*
X190064000Y-89027000D01*
X188464750Y-89027000D01*
X188306000Y-89185750D01*
X179499969Y-89185750D01*
X179666041Y-89002423D01*
X179826904Y-88614039D01*
X179704915Y-88392000D01*
X178562000Y-88392000D01*
X178308000Y-88392000D01*
X177165085Y-88392000D01*
X177043096Y-88614039D01*
X169683860Y-88614039D01*
X169709750Y-88551691D01*
X169710248Y-87980813D01*
X169683452Y-87915961D01*
X177043096Y-87915961D01*
X177165085Y-88138000D01*
X178308000Y-88138000D01*
X178308000Y-86994371D01*
X178562000Y-86994371D01*
X178562000Y-88138000D01*
X179704915Y-88138000D01*
X179826904Y-87915961D01*
X179666041Y-87527577D01*
X179290134Y-87112611D01*
X178784041Y-86873086D01*
X178562000Y-86994371D01*
X178308000Y-86994371D01*
X178085959Y-86873086D01*
X177579866Y-87112611D01*
X177203959Y-87527577D01*
X177043096Y-87915961D01*
X169683452Y-87915961D01*
X169492243Y-87453200D01*
X169088923Y-87049176D01*
X168561691Y-86830250D01*
X167990813Y-86829752D01*
X167463200Y-87047757D01*
X167059176Y-87451077D01*
X166840250Y-87978309D01*
X166839752Y-88549187D01*
X160741275Y-88549187D01*
X160654915Y-88392000D01*
X159512000Y-88392000D01*
X159258000Y-88392000D01*
X158115085Y-88392000D01*
X157993096Y-88614039D01*
X150633860Y-88614039D01*
X150659750Y-88551691D01*
X150660248Y-87980813D01*
X150633452Y-87915961D01*
X157993096Y-87915961D01*
X158115085Y-88138000D01*
X159258000Y-88138000D01*
X159258000Y-86994371D01*
X159512000Y-86994371D01*
X159512000Y-88138000D01*
X160654915Y-88138000D01*
X160776904Y-87915961D01*
X160616041Y-87527577D01*
X160240134Y-87112611D01*
X159734041Y-86873086D01*
X159512000Y-86994371D01*
X159258000Y-86994371D01*
X159035959Y-86873086D01*
X158529866Y-87112611D01*
X158153959Y-87527577D01*
X157993096Y-87915961D01*
X150633452Y-87915961D01*
X150442243Y-87453200D01*
X150038923Y-87049176D01*
X149511691Y-86830250D01*
X148940813Y-86829752D01*
X148413200Y-87047757D01*
X148009176Y-87451077D01*
X147790250Y-87978309D01*
X147789752Y-88549187D01*
X122850496Y-88549187D01*
X122688548Y-88386957D01*
X122190709Y-88180236D01*
X121651656Y-88179765D01*
X121153457Y-88385617D01*
X120771957Y-88766452D01*
X120649955Y-89060264D01*
X120529383Y-88768457D01*
X120148548Y-88386957D01*
X119650709Y-88180236D01*
X119111656Y-88179765D01*
X118613457Y-88385617D01*
X118231957Y-88766452D01*
X118116661Y-89044116D01*
X118027611Y-88829131D01*
X117789774Y-88764831D01*
X117019605Y-89535000D01*
X116660395Y-89535000D01*
X115890226Y-88764831D01*
X115652389Y-88829131D01*
X115472667Y-89337342D01*
X109305173Y-89337342D01*
X109305235Y-89266656D01*
X109099383Y-88768457D01*
X108916472Y-88585226D01*
X116069831Y-88585226D01*
X116840000Y-89355395D01*
X117610169Y-88585226D01*
X117545869Y-88347389D01*
X117037658Y-88167667D01*
X116499356Y-88196108D01*
X116134131Y-88347389D01*
X116069831Y-88585226D01*
X108916472Y-88585226D01*
X108718548Y-88386957D01*
X108220709Y-88180236D01*
X107681656Y-88179765D01*
X107183457Y-88385617D01*
X106801957Y-88766452D01*
X106679955Y-89060264D01*
X106559383Y-88768457D01*
X106178548Y-88386957D01*
X105680709Y-88180236D01*
X105141656Y-88179765D01*
X104643457Y-88385617D01*
X104261957Y-88766452D01*
X104146661Y-89044116D01*
X104057611Y-88829131D01*
X103819774Y-88764831D01*
X103049605Y-89535000D01*
X102690395Y-89535000D01*
X101920226Y-88764831D01*
X101682389Y-88829131D01*
X101502667Y-89337342D01*
X95960000Y-89337342D01*
X95960000Y-88585226D01*
X102099831Y-88585226D01*
X102870000Y-89355395D01*
X103640169Y-88585226D01*
X103575869Y-88347389D01*
X103067658Y-88167667D01*
X102529356Y-88196108D01*
X102164131Y-88347389D01*
X102099831Y-88585226D01*
X95960000Y-88585226D01*
X95960000Y-85159931D01*
X96006730Y-84925000D01*
X142062560Y-84925000D01*
X142062560Y-86525000D01*
X142106838Y-86760317D01*
X142245910Y-86976441D01*
X142458110Y-87121431D01*
X142710000Y-87172440D01*
X144310000Y-87172440D01*
X144545317Y-87128162D01*
X144761441Y-86989090D01*
X144906431Y-86776890D01*
X144927680Y-86671959D01*
X145196077Y-86940824D01*
X145723309Y-87159750D01*
X146294187Y-87160248D01*
X146821800Y-86942243D01*
X147225824Y-86538923D01*
X147444750Y-86011691D01*
X147445248Y-85440813D01*
X147227243Y-84913200D01*
X147053534Y-84739187D01*
X147789752Y-84739187D01*
X148007757Y-85266800D01*
X148411077Y-85670824D01*
X148938309Y-85889750D01*
X149509187Y-85890248D01*
X150036800Y-85672243D01*
X150440824Y-85268923D01*
X150659750Y-84741691D01*
X150660000Y-84455000D01*
X157921887Y-84455000D01*
X158031120Y-85004151D01*
X158342189Y-85469698D01*
X158807736Y-85780767D01*
X159356887Y-85890000D01*
X159413113Y-85890000D01*
X159962264Y-85780767D01*
X160427811Y-85469698D01*
X160738880Y-85004151D01*
X160754624Y-84925000D01*
X161112560Y-84925000D01*
X161112560Y-86525000D01*
X161156838Y-86760317D01*
X161295910Y-86976441D01*
X161508110Y-87121431D01*
X161760000Y-87172440D01*
X163360000Y-87172440D01*
X163595317Y-87128162D01*
X163811441Y-86989090D01*
X163956431Y-86776890D01*
X163977680Y-86671959D01*
X164246077Y-86940824D01*
X164773309Y-87159750D01*
X165344187Y-87160248D01*
X165871800Y-86942243D01*
X166275824Y-86538923D01*
X166494750Y-86011691D01*
X166495248Y-85440813D01*
X166277243Y-84913200D01*
X165873923Y-84509176D01*
X165743453Y-84455000D01*
X166811887Y-84455000D01*
X166921120Y-85004151D01*
X167232189Y-85469698D01*
X167697736Y-85780767D01*
X168246887Y-85890000D01*
X168303113Y-85890000D01*
X168852264Y-85780767D01*
X169317811Y-85469698D01*
X169628880Y-85004151D01*
X169681584Y-84739187D01*
X176999752Y-84739187D01*
X177217757Y-85266800D01*
X177621077Y-85670824D01*
X178148309Y-85889750D01*
X178719187Y-85890248D01*
X179246800Y-85672243D01*
X179650824Y-85268923D01*
X179869750Y-84741691D01*
X179870248Y-84170813D01*
X179758351Y-83900000D01*
X182753275Y-83900000D01*
X182868217Y-84477852D01*
X183195544Y-84967731D01*
X183468329Y-85150000D01*
X183195544Y-85332269D01*
X182868217Y-85822148D01*
X182753275Y-86400000D01*
X182868217Y-86977852D01*
X183195544Y-87467731D01*
X183685423Y-87795058D01*
X184263275Y-87910000D01*
X186106725Y-87910000D01*
X186684577Y-87795058D01*
X187174456Y-87467731D01*
X187471154Y-87023691D01*
X188306000Y-87023691D01*
X188306000Y-88614250D01*
X188464750Y-88773000D01*
X190064000Y-88773000D01*
X190064000Y-86673750D01*
X190318000Y-86673750D01*
X190318000Y-88773000D01*
X191917250Y-88773000D01*
X192076000Y-88614250D01*
X192076000Y-87023691D01*
X191979327Y-86790302D01*
X191800699Y-86611673D01*
X191567310Y-86515000D01*
X190476750Y-86515000D01*
X190318000Y-86673750D01*
X190064000Y-86673750D01*
X189905250Y-86515000D01*
X188814690Y-86515000D01*
X188581301Y-86611673D01*
X188402673Y-86790302D01*
X188306000Y-87023691D01*
X187471154Y-87023691D01*
X187501783Y-86977852D01*
X187616725Y-86400000D01*
X187501783Y-85822148D01*
X187174456Y-85332269D01*
X186901671Y-85150000D01*
X187174456Y-84967731D01*
X187501783Y-84477852D01*
X187616725Y-83900000D01*
X187501783Y-83322148D01*
X187174456Y-82832269D01*
X186684577Y-82504942D01*
X186106725Y-82390000D01*
X184263275Y-82390000D01*
X183685423Y-82504942D01*
X183195544Y-82832269D01*
X182868217Y-83322148D01*
X182753275Y-83900000D01*
X179758351Y-83900000D01*
X179652243Y-83643200D01*
X179248923Y-83239176D01*
X178721691Y-83020250D01*
X178150813Y-83019752D01*
X177623200Y-83237757D01*
X177219176Y-83641077D01*
X177000250Y-84168309D01*
X176999752Y-84739187D01*
X169681584Y-84739187D01*
X169738113Y-84455000D01*
X169628880Y-83905849D01*
X169317811Y-83440302D01*
X168852264Y-83129233D01*
X168303113Y-83020000D01*
X168246887Y-83020000D01*
X167697736Y-83129233D01*
X167232189Y-83440302D01*
X166921120Y-83905849D01*
X166811887Y-84455000D01*
X165743453Y-84455000D01*
X165346691Y-84290250D01*
X164775813Y-84289752D01*
X164248200Y-84507757D01*
X163979417Y-84776072D01*
X163963162Y-84689683D01*
X163824090Y-84473559D01*
X163611890Y-84328569D01*
X163360000Y-84277560D01*
X161760000Y-84277560D01*
X161524683Y-84321838D01*
X161308559Y-84460910D01*
X161163569Y-84673110D01*
X161112560Y-84925000D01*
X160754624Y-84925000D01*
X160848113Y-84455000D01*
X160738880Y-83905849D01*
X160427811Y-83440302D01*
X159962264Y-83129233D01*
X159413113Y-83020000D01*
X159356887Y-83020000D01*
X158807736Y-83129233D01*
X158342189Y-83440302D01*
X158031120Y-83905849D01*
X157921887Y-84455000D01*
X150660000Y-84455000D01*
X150660248Y-84170813D01*
X150442243Y-83643200D01*
X150038923Y-83239176D01*
X149511691Y-83020250D01*
X148940813Y-83019752D01*
X148413200Y-83237757D01*
X148009176Y-83641077D01*
X147790250Y-84168309D01*
X147789752Y-84739187D01*
X147053534Y-84739187D01*
X146823923Y-84509176D01*
X146296691Y-84290250D01*
X145725813Y-84289752D01*
X145198200Y-84507757D01*
X144929417Y-84776072D01*
X144913162Y-84689683D01*
X144774090Y-84473559D01*
X144561890Y-84328569D01*
X144310000Y-84277560D01*
X142710000Y-84277560D01*
X142474683Y-84321838D01*
X142258559Y-84460910D01*
X142113569Y-84673110D01*
X142062560Y-84925000D01*
X96006730Y-84925000D01*
X96257161Y-83665999D01*
X97063791Y-82458791D01*
X98271001Y-81652161D01*
X98703131Y-81566205D01*
X98511371Y-81757630D01*
X98298243Y-82270900D01*
X98297758Y-82826661D01*
X98509990Y-83340303D01*
X98902630Y-83733629D01*
X99415900Y-83946757D01*
X99971661Y-83947242D01*
X100485303Y-83735010D01*
X100878629Y-83342370D01*
X101091757Y-82829100D01*
X101092242Y-82273339D01*
X100880010Y-81759697D01*
X100487370Y-81366371D01*
X100459986Y-81355000D01*
X110358875Y-81355000D01*
X110334697Y-81364990D01*
X110334697Y-81364990D01*
G37*
X110334697Y-81364990D02*
X109941371Y-81757630D01*
X109728243Y-82270900D01*
X109727758Y-82826661D01*
X109939990Y-83340303D01*
X110332630Y-83733629D01*
X110845900Y-83946757D01*
X111401661Y-83947242D01*
X111915303Y-83735010D01*
X112308629Y-83342370D01*
X112394949Y-83134488D01*
X112479990Y-83340303D01*
X112872630Y-83733629D01*
X113385900Y-83946757D01*
X113941661Y-83947242D01*
X114455303Y-83735010D01*
X114848629Y-83342370D01*
X115061757Y-82829100D01*
X115062242Y-82273339D01*
X114850010Y-81759697D01*
X114457370Y-81366371D01*
X114429986Y-81355000D01*
X124328875Y-81355000D01*
X124304697Y-81364990D01*
X123911371Y-81757630D01*
X123698243Y-82270900D01*
X123697758Y-82826661D01*
X123909990Y-83340303D01*
X124302630Y-83733629D01*
X124815900Y-83946757D01*
X125371661Y-83947242D01*
X125885303Y-83735010D01*
X126278629Y-83342370D01*
X126491757Y-82829100D01*
X126492242Y-82273339D01*
X126280010Y-81759697D01*
X125887370Y-81366371D01*
X125859986Y-81355000D01*
X189795069Y-81355000D01*
X191289001Y-81652161D01*
X192496209Y-82458791D01*
X193302839Y-83666001D01*
X193600000Y-85159931D01*
X193600000Y-145822560D01*
X192190000Y-145822560D01*
X191954683Y-145866838D01*
X191738559Y-146005910D01*
X191593569Y-146218110D01*
X191579914Y-146285541D01*
X191550054Y-146240853D01*
X191068285Y-145918946D01*
X190500000Y-145805907D01*
X189931715Y-145918946D01*
X189449946Y-146240853D01*
X189230000Y-146570026D01*
X189010054Y-146240853D01*
X188528285Y-145918946D01*
X187960000Y-145805907D01*
X187391715Y-145918946D01*
X186909946Y-146240853D01*
X186690000Y-146570026D01*
X186470054Y-146240853D01*
X185988285Y-145918946D01*
X185420000Y-145805907D01*
X184851715Y-145918946D01*
X184369946Y-146240853D01*
X184150000Y-146570026D01*
X183930054Y-146240853D01*
X183448285Y-145918946D01*
X182880000Y-145805907D01*
X182311715Y-145918946D01*
X181829946Y-146240853D01*
X181610000Y-146570026D01*
X181390054Y-146240853D01*
X180908285Y-145918946D01*
X180340000Y-145805907D01*
X179771715Y-145918946D01*
X179289946Y-146240853D01*
X179070000Y-146570026D01*
X178850054Y-146240853D01*
X178368285Y-145918946D01*
X177800000Y-145805907D01*
X177231715Y-145918946D01*
X176749946Y-146240853D01*
X176530000Y-146570026D01*
X176310054Y-146240853D01*
X175828285Y-145918946D01*
X175260000Y-145805907D01*
X174691715Y-145918946D01*
X174209946Y-146240853D01*
X173990000Y-146570026D01*
X173770054Y-146240853D01*
X173288285Y-145918946D01*
X172720000Y-145805907D01*
X172151715Y-145918946D01*
X171669946Y-146240853D01*
X171450000Y-146570026D01*
X171230054Y-146240853D01*
X170748285Y-145918946D01*
X170180000Y-145805907D01*
X169611715Y-145918946D01*
X169129946Y-146240853D01*
X168910000Y-146570026D01*
X168690054Y-146240853D01*
X168208285Y-145918946D01*
X167640000Y-145805907D01*
X167071715Y-145918946D01*
X166589946Y-146240853D01*
X166370000Y-146570026D01*
X166150054Y-146240853D01*
X165668285Y-145918946D01*
X165100000Y-145805907D01*
X164531715Y-145918946D01*
X164049946Y-146240853D01*
X163830000Y-146570026D01*
X163610054Y-146240853D01*
X163320000Y-146047046D01*
X163320000Y-144780000D01*
X163262148Y-144489161D01*
X163097401Y-144242599D01*
X162860122Y-144005320D01*
X162860162Y-143959833D01*
X162718117Y-143616057D01*
X162455327Y-143352808D01*
X162111799Y-143210162D01*
X161739833Y-143209838D01*
X161396057Y-143351883D01*
X161132808Y-143614673D01*
X160990162Y-143958201D01*
X160989838Y-144330167D01*
X161131883Y-144673943D01*
X161394673Y-144937192D01*
X161738201Y-145079838D01*
X161785077Y-145079879D01*
X161800000Y-145094802D01*
X161800000Y-146047046D01*
X161509946Y-146240853D01*
X161290000Y-146570026D01*
X161070054Y-146240853D01*
X160780000Y-146047046D01*
X160780000Y-144145000D01*
X160722148Y-143854161D01*
X160557401Y-143607599D01*
X160320122Y-143370320D01*
X160320162Y-143324833D01*
X160178117Y-142981057D01*
X159915327Y-142717808D01*
X159571799Y-142575162D01*
X159199833Y-142574838D01*
X158856057Y-142716883D01*
X158592808Y-142979673D01*
X158450162Y-143323201D01*
X158449838Y-143695167D01*
X158591883Y-144038943D01*
X158854673Y-144302192D01*
X159198201Y-144444838D01*
X159245077Y-144444879D01*
X159260000Y-144459802D01*
X159260000Y-146047046D01*
X158969946Y-146240853D01*
X158750000Y-146570026D01*
X158530054Y-146240853D01*
X158240000Y-146047046D01*
X158240000Y-143510000D01*
X158182148Y-143219161D01*
X158017401Y-142972599D01*
X157780122Y-142735320D01*
X157780162Y-142689833D01*
X157638117Y-142346057D01*
X157375327Y-142082808D01*
X157031799Y-141940162D01*
X156659833Y-141939838D01*
X156316057Y-142081883D01*
X156052808Y-142344673D01*
X155910162Y-142688201D01*
X155909838Y-143060167D01*
X156051883Y-143403943D01*
X156314673Y-143667192D01*
X156658201Y-143809838D01*
X156705077Y-143809879D01*
X156720000Y-143824802D01*
X156720000Y-146047046D01*
X156429946Y-146240853D01*
X156210000Y-146570026D01*
X155990054Y-146240853D01*
X155700000Y-146047046D01*
X155700000Y-142875000D01*
X155642148Y-142584161D01*
X155477401Y-142337599D01*
X155240122Y-142100320D01*
X155240162Y-142054833D01*
X155098117Y-141711057D01*
X154835327Y-141447808D01*
X154491799Y-141305162D01*
X154119833Y-141304838D01*
X153776057Y-141446883D01*
X153512808Y-141709673D01*
X153370162Y-142053201D01*
X153369838Y-142425167D01*
X153511883Y-142768943D01*
X153774673Y-143032192D01*
X154118201Y-143174838D01*
X154165077Y-143174879D01*
X154180000Y-143189802D01*
X154180000Y-146047046D01*
X153889946Y-146240853D01*
X153662298Y-146581553D01*
X153595183Y-146438642D01*
X153166924Y-146048355D01*
X152756890Y-145878524D01*
X152527000Y-145999845D01*
X152527000Y-147193000D01*
X152547000Y-147193000D01*
X152547000Y-147447000D01*
X152527000Y-147447000D01*
X152527000Y-147467000D01*
X152273000Y-147467000D01*
X152273000Y-147447000D01*
X152253000Y-147447000D01*
X152253000Y-147193000D01*
X152273000Y-147193000D01*
X152273000Y-145999845D01*
X152043110Y-145878524D01*
X151633076Y-146048355D01*
X151204817Y-146438642D01*
X151137702Y-146581553D01*
X150910054Y-146240853D01*
X150619322Y-146046593D01*
X150562148Y-145759161D01*
X150397401Y-145512599D01*
X149762401Y-144877599D01*
X149515839Y-144712852D01*
X149225000Y-144655000D01*
X96834802Y-144655000D01*
X96645000Y-144465198D01*
X96645000Y-141095000D01*
X97612560Y-141095000D01*
X97612560Y-141135000D01*
X97656838Y-141370317D01*
X97795910Y-141586441D01*
X98008110Y-141731431D01*
X98260000Y-141782440D01*
X99860000Y-141782440D01*
X100095317Y-141738162D01*
X100311441Y-141599090D01*
X100456431Y-141386890D01*
X100465370Y-141342745D01*
X100731861Y-141342745D01*
X100805995Y-141588864D01*
X101343223Y-141781965D01*
X101913454Y-141754778D01*
X102314005Y-141588864D01*
X102388139Y-141342745D01*
X101560000Y-140514605D01*
X100731861Y-141342745D01*
X100465370Y-141342745D01*
X100504646Y-141148799D01*
X100552255Y-141163139D01*
X101380395Y-140335000D01*
X101739605Y-140335000D01*
X102567745Y-141163139D01*
X102813864Y-141089005D01*
X103006965Y-140551777D01*
X102979778Y-139981546D01*
X102813864Y-139580995D01*
X102567745Y-139506861D01*
X101739605Y-140335000D01*
X101380395Y-140335000D01*
X100552255Y-139506861D01*
X100504833Y-139521145D01*
X100468351Y-139327255D01*
X100731861Y-139327255D01*
X101560000Y-140155395D01*
X102388139Y-139327255D01*
X102314005Y-139081136D01*
X101776777Y-138888035D01*
X101206546Y-138915222D01*
X100805995Y-139081136D01*
X100731861Y-139327255D01*
X100468351Y-139327255D01*
X100463162Y-139299683D01*
X100324090Y-139083559D01*
X100111890Y-138938569D01*
X99860000Y-138887560D01*
X98260000Y-138887560D01*
X98024683Y-138931838D01*
X97808559Y-139070910D01*
X97663569Y-139283110D01*
X97612560Y-139535000D01*
X97612560Y-139575000D01*
X96834802Y-139575000D01*
X96645000Y-139385198D01*
X96645000Y-131794039D01*
X100208096Y-131794039D01*
X100368959Y-132182423D01*
X100744866Y-132597389D01*
X101250959Y-132836914D01*
X101473000Y-132715629D01*
X101473000Y-131572000D01*
X101727000Y-131572000D01*
X101727000Y-132715629D01*
X101949041Y-132836914D01*
X102455134Y-132597389D01*
X102831041Y-132182423D01*
X102991904Y-131794039D01*
X102869915Y-131572000D01*
X101727000Y-131572000D01*
X101473000Y-131572000D01*
X100330085Y-131572000D01*
X100208096Y-131794039D01*
X96645000Y-131794039D01*
X96645000Y-111929169D01*
X96976077Y-112260824D01*
X97503309Y-112479750D01*
X98074187Y-112480248D01*
X98601800Y-112262243D01*
X99005824Y-111858923D01*
X99176207Y-111448595D01*
X99597401Y-111027401D01*
X99762148Y-110780839D01*
X99820000Y-110490000D01*
X99820000Y-106994802D01*
X100009802Y-106805000D01*
X100387005Y-106805000D01*
X100557189Y-107059698D01*
X100939275Y-107315000D01*
X100557189Y-107570302D01*
X100246120Y-108035849D01*
X100136887Y-108585000D01*
X100246120Y-109134151D01*
X100557189Y-109599698D01*
X100939275Y-109855000D01*
X100557189Y-110110302D01*
X100246120Y-110575849D01*
X100136887Y-111125000D01*
X100246120Y-111674151D01*
X100557189Y-112139698D01*
X100939275Y-112395000D01*
X100557189Y-112650302D01*
X100246120Y-113115849D01*
X100136887Y-113665000D01*
X100246120Y-114214151D01*
X100557189Y-114679698D01*
X100939275Y-114935000D01*
X100557189Y-115190302D01*
X100246120Y-115655849D01*
X100136887Y-116205000D01*
X100246120Y-116754151D01*
X100557189Y-117219698D01*
X100939275Y-117475000D01*
X100557189Y-117730302D01*
X100246120Y-118195849D01*
X100136887Y-118745000D01*
X100246120Y-119294151D01*
X100557189Y-119759698D01*
X100939275Y-120015000D01*
X100557189Y-120270302D01*
X100246120Y-120735849D01*
X100136887Y-121285000D01*
X100246120Y-121834151D01*
X100557189Y-122299698D01*
X100939275Y-122555000D01*
X100557189Y-122810302D01*
X100246120Y-123275849D01*
X100136887Y-123825000D01*
X100246120Y-124374151D01*
X100557189Y-124839698D01*
X100939275Y-125095000D01*
X100557189Y-125350302D01*
X100246120Y-125815849D01*
X100136887Y-126365000D01*
X100246120Y-126914151D01*
X100557189Y-127379698D01*
X100939275Y-127635000D01*
X100557189Y-127890302D01*
X100246120Y-128355849D01*
X100136887Y-128905000D01*
X100246120Y-129454151D01*
X100557189Y-129919698D01*
X100961703Y-130189986D01*
X100744866Y-130292611D01*
X100368959Y-130707577D01*
X100208096Y-131095961D01*
X100330085Y-131318000D01*
X101473000Y-131318000D01*
X101473000Y-131298000D01*
X101727000Y-131298000D01*
X101727000Y-131318000D01*
X102869915Y-131318000D01*
X102991904Y-131095961D01*
X102831041Y-130707577D01*
X102455134Y-130292611D01*
X102238297Y-130189986D01*
X102642811Y-129919698D01*
X102953880Y-129454151D01*
X103063113Y-128905000D01*
X102953880Y-128355849D01*
X102642811Y-127890302D01*
X102260725Y-127635000D01*
X102642811Y-127379698D01*
X102953880Y-126914151D01*
X103063113Y-126365000D01*
X102953880Y-125815849D01*
X102642811Y-125350302D01*
X102260725Y-125095000D01*
X102642811Y-124839698D01*
X102953880Y-124374151D01*
X103063113Y-123825000D01*
X102953880Y-123275849D01*
X102642811Y-122810302D01*
X102260725Y-122555000D01*
X102642811Y-122299698D01*
X102953880Y-121834151D01*
X103063113Y-121285000D01*
X102953880Y-120735849D01*
X102642811Y-120270302D01*
X102260725Y-120015000D01*
X102642811Y-119759698D01*
X102953880Y-119294151D01*
X103063113Y-118745000D01*
X102953880Y-118195849D01*
X102642811Y-117730302D01*
X102260725Y-117475000D01*
X102642811Y-117219698D01*
X102953880Y-116754151D01*
X103063113Y-116205000D01*
X102953880Y-115655849D01*
X102642811Y-115190302D01*
X102260725Y-114935000D01*
X102642811Y-114679698D01*
X102772792Y-114485167D01*
X108284838Y-114485167D01*
X108426883Y-114828943D01*
X108460000Y-114862118D01*
X108460000Y-127707537D01*
X108427808Y-127739673D01*
X108285162Y-128083201D01*
X108284838Y-128455167D01*
X108426883Y-128798943D01*
X108689673Y-129062192D01*
X108953554Y-129171765D01*
X109061883Y-129433943D01*
X109324673Y-129697192D01*
X109668201Y-129839838D01*
X110040167Y-129840162D01*
X110383943Y-129698117D01*
X110489954Y-129592290D01*
X110594673Y-129697192D01*
X110938201Y-129839838D01*
X111310167Y-129840162D01*
X111653943Y-129698117D01*
X111759954Y-129592290D01*
X111864673Y-129697192D01*
X112208201Y-129839838D01*
X112580167Y-129840162D01*
X112923943Y-129698117D01*
X113187192Y-129435327D01*
X113329838Y-129091799D01*
X113330162Y-128719833D01*
X113188117Y-128376057D01*
X113155000Y-128342882D01*
X113155000Y-127562463D01*
X113187192Y-127530327D01*
X113329838Y-127186799D01*
X113330162Y-126814833D01*
X113188117Y-126471057D01*
X112925327Y-126207808D01*
X112581799Y-126065162D01*
X112520000Y-126065108D01*
X112520000Y-125022463D01*
X112552192Y-124990327D01*
X112694838Y-124646799D01*
X112695162Y-124274833D01*
X112553117Y-123931057D01*
X112290327Y-123667808D01*
X111946799Y-123525162D01*
X111885000Y-123525108D01*
X111885000Y-122482463D01*
X111917192Y-122450327D01*
X112059838Y-122106799D01*
X112060162Y-121734833D01*
X111918117Y-121391057D01*
X111655327Y-121127808D01*
X111311799Y-120985162D01*
X111250000Y-120985108D01*
X111250000Y-119942463D01*
X111282192Y-119910327D01*
X111424838Y-119566799D01*
X111425162Y-119194833D01*
X111283117Y-118851057D01*
X111020327Y-118587808D01*
X110676799Y-118445162D01*
X110615000Y-118445108D01*
X110615000Y-117402463D01*
X110647192Y-117370327D01*
X110789838Y-117026799D01*
X110790162Y-116654833D01*
X110648117Y-116311057D01*
X110385327Y-116047808D01*
X110041799Y-115905162D01*
X109980000Y-115905108D01*
X109980000Y-114862463D01*
X110012192Y-114830327D01*
X110154838Y-114486799D01*
X110155162Y-114114833D01*
X110013117Y-113771057D01*
X109750327Y-113507808D01*
X109406799Y-113365162D01*
X109034833Y-113364838D01*
X108691057Y-113506883D01*
X108427808Y-113769673D01*
X108285162Y-114113201D01*
X108284838Y-114485167D01*
X102772792Y-114485167D01*
X102953880Y-114214151D01*
X103063113Y-113665000D01*
X102953880Y-113115849D01*
X102642811Y-112650302D01*
X102260725Y-112395000D01*
X102642811Y-112139698D01*
X102953880Y-111674151D01*
X103063113Y-111125000D01*
X102953880Y-110575849D01*
X102642811Y-110110302D01*
X102260725Y-109855000D01*
X102642811Y-109599698D01*
X102953880Y-109134151D01*
X103063113Y-108585000D01*
X102953880Y-108035849D01*
X102642811Y-107570302D01*
X102260725Y-107315000D01*
X102642811Y-107059698D01*
X102953880Y-106594151D01*
X103063113Y-106045000D01*
X102953880Y-105495849D01*
X102642811Y-105030302D01*
X102260725Y-104775000D01*
X102642811Y-104519698D01*
X102953880Y-104054151D01*
X103063113Y-103505000D01*
X102953880Y-102955849D01*
X102642811Y-102490302D01*
X102260725Y-102235000D01*
X102642811Y-101979698D01*
X102953880Y-101514151D01*
X103063113Y-100965000D01*
X102953880Y-100415849D01*
X102642811Y-99950302D01*
X102498535Y-99853899D01*
X102635317Y-99828162D01*
X102851441Y-99689090D01*
X102996431Y-99476890D01*
X103047440Y-99225000D01*
X103047440Y-98425000D01*
X115376887Y-98425000D01*
X115486120Y-98974151D01*
X115797189Y-99439698D01*
X116179275Y-99695000D01*
X115797189Y-99950302D01*
X115486120Y-100415849D01*
X115376887Y-100965000D01*
X115486120Y-101514151D01*
X115797189Y-101979698D01*
X116179275Y-102235000D01*
X115797189Y-102490302D01*
X115486120Y-102955849D01*
X115376887Y-103505000D01*
X115486120Y-104054151D01*
X115797189Y-104519698D01*
X116179275Y-104775000D01*
X115797189Y-105030302D01*
X115486120Y-105495849D01*
X115376887Y-106045000D01*
X115486120Y-106594151D01*
X115797189Y-107059698D01*
X116179275Y-107315000D01*
X115797189Y-107570302D01*
X115486120Y-108035849D01*
X115376887Y-108585000D01*
X115486120Y-109134151D01*
X115797189Y-109599698D01*
X116179275Y-109855000D01*
X115797189Y-110110302D01*
X115486120Y-110575849D01*
X115376887Y-111125000D01*
X115486120Y-111674151D01*
X115797189Y-112139698D01*
X116179275Y-112395000D01*
X115797189Y-112650302D01*
X115486120Y-113115849D01*
X115376887Y-113665000D01*
X115486120Y-114214151D01*
X115797189Y-114679698D01*
X116179275Y-114935000D01*
X115797189Y-115190302D01*
X115486120Y-115655849D01*
X115376887Y-116205000D01*
X115486120Y-116754151D01*
X115797189Y-117219698D01*
X116179275Y-117475000D01*
X115797189Y-117730302D01*
X115486120Y-118195849D01*
X115376887Y-118745000D01*
X115486120Y-119294151D01*
X115797189Y-119759698D01*
X116179275Y-120015000D01*
X115797189Y-120270302D01*
X115486120Y-120735849D01*
X115376887Y-121285000D01*
X115486120Y-121834151D01*
X115797189Y-122299698D01*
X116179275Y-122555000D01*
X115797189Y-122810302D01*
X115486120Y-123275849D01*
X115376887Y-123825000D01*
X115486120Y-124374151D01*
X115797189Y-124839698D01*
X116179275Y-125095000D01*
X115797189Y-125350302D01*
X115486120Y-125815849D01*
X115376887Y-126365000D01*
X115486120Y-126914151D01*
X115797189Y-127379698D01*
X116179275Y-127635000D01*
X115797189Y-127890302D01*
X115486120Y-128355849D01*
X115376887Y-128905000D01*
X115486120Y-129454151D01*
X115797189Y-129919698D01*
X116179275Y-130175000D01*
X115797189Y-130430302D01*
X115486120Y-130895849D01*
X115376887Y-131445000D01*
X115486120Y-131994151D01*
X115797189Y-132459698D01*
X116262736Y-132770767D01*
X116811887Y-132880000D01*
X116868113Y-132880000D01*
X117417264Y-132770767D01*
X117882811Y-132459698D01*
X118193880Y-131994151D01*
X118233684Y-131794039D01*
X123068096Y-131794039D01*
X123228959Y-132182423D01*
X123604866Y-132597389D01*
X124110959Y-132836914D01*
X124333000Y-132715629D01*
X124333000Y-131572000D01*
X123190085Y-131572000D01*
X123068096Y-131794039D01*
X118233684Y-131794039D01*
X118303113Y-131445000D01*
X118193880Y-130895849D01*
X117882811Y-130430302D01*
X117500725Y-130175000D01*
X117882811Y-129919698D01*
X118193880Y-129454151D01*
X118303113Y-128905000D01*
X118193880Y-128355849D01*
X117882811Y-127890302D01*
X117500725Y-127635000D01*
X117882811Y-127379698D01*
X118193880Y-126914151D01*
X118303113Y-126365000D01*
X118193880Y-125815849D01*
X117882811Y-125350302D01*
X117500725Y-125095000D01*
X117882811Y-124839698D01*
X118193880Y-124374151D01*
X118303113Y-123825000D01*
X118193880Y-123275849D01*
X117882811Y-122810302D01*
X117500725Y-122555000D01*
X117882811Y-122299698D01*
X118193880Y-121834151D01*
X118303113Y-121285000D01*
X118193880Y-120735849D01*
X117882811Y-120270302D01*
X117500725Y-120015000D01*
X117882811Y-119759698D01*
X118193880Y-119294151D01*
X118303113Y-118745000D01*
X118193880Y-118195849D01*
X117882811Y-117730302D01*
X117500725Y-117475000D01*
X117882811Y-117219698D01*
X118193880Y-116754151D01*
X118303113Y-116205000D01*
X118193880Y-115655849D01*
X117882811Y-115190302D01*
X117500725Y-114935000D01*
X117882811Y-114679698D01*
X118193880Y-114214151D01*
X118303113Y-113665000D01*
X118193880Y-113115849D01*
X117882811Y-112650302D01*
X117500725Y-112395000D01*
X117882811Y-112139698D01*
X118193880Y-111674151D01*
X118303113Y-111125000D01*
X118244081Y-110828223D01*
X119203035Y-110828223D01*
X119230222Y-111398454D01*
X119396136Y-111799005D01*
X119642255Y-111873139D01*
X120470395Y-111045000D01*
X119642255Y-110216861D01*
X119396136Y-110290995D01*
X119203035Y-110828223D01*
X118244081Y-110828223D01*
X118193880Y-110575849D01*
X117882811Y-110110302D01*
X117773489Y-110037255D01*
X119821861Y-110037255D01*
X120650000Y-110865395D01*
X121478139Y-110037255D01*
X121404005Y-109791136D01*
X120866777Y-109598035D01*
X120296546Y-109625222D01*
X119895995Y-109791136D01*
X119821861Y-110037255D01*
X117773489Y-110037255D01*
X117500725Y-109855000D01*
X117882811Y-109599698D01*
X118193880Y-109134151D01*
X118303113Y-108585000D01*
X118193880Y-108035849D01*
X117882811Y-107570302D01*
X117500725Y-107315000D01*
X117882811Y-107059698D01*
X118193880Y-106594151D01*
X118303113Y-106045000D01*
X118193880Y-105495849D01*
X117882811Y-105030302D01*
X117500725Y-104775000D01*
X117882811Y-104519698D01*
X118193880Y-104054151D01*
X118262497Y-103709187D01*
X119214752Y-103709187D01*
X119432757Y-104236800D01*
X119836077Y-104640824D01*
X120062784Y-104734961D01*
X119838200Y-104827757D01*
X119434176Y-105231077D01*
X119215250Y-105758309D01*
X119214752Y-106329187D01*
X119432757Y-106856800D01*
X119836077Y-107260824D01*
X120363309Y-107479750D01*
X120934187Y-107480248D01*
X121461800Y-107262243D01*
X121795000Y-106929624D01*
X121795000Y-110258204D01*
X121657745Y-110216861D01*
X120829605Y-111045000D01*
X121657745Y-111873139D01*
X121795000Y-111831796D01*
X121795000Y-112715198D01*
X121762212Y-112747986D01*
X121463923Y-112449176D01*
X121252782Y-112361503D01*
X121404005Y-112298864D01*
X121478139Y-112052745D01*
X120650000Y-111224605D01*
X119821861Y-112052745D01*
X119895995Y-112298864D01*
X120057796Y-112357022D01*
X119838200Y-112447757D01*
X119434176Y-112851077D01*
X119215250Y-113378309D01*
X119214752Y-113949187D01*
X119432757Y-114476800D01*
X119836077Y-114880824D01*
X120363309Y-115099750D01*
X120680172Y-115100026D01*
X120112599Y-115667599D01*
X119947852Y-115914161D01*
X119890000Y-116205000D01*
X119890000Y-117426354D01*
X119838200Y-117447757D01*
X119434176Y-117851077D01*
X119215250Y-118378309D01*
X119214752Y-118949187D01*
X119432757Y-119476800D01*
X119836077Y-119880824D01*
X120363309Y-120099750D01*
X120934187Y-120100248D01*
X121461800Y-119882243D01*
X121865824Y-119478923D01*
X122084750Y-118951691D01*
X122085248Y-118380813D01*
X121867243Y-117853200D01*
X121463923Y-117449176D01*
X121410000Y-117426785D01*
X121410000Y-116519802D01*
X121796341Y-116133461D01*
X122024673Y-116362192D01*
X122368201Y-116504838D01*
X122740167Y-116505162D01*
X123032561Y-116384347D01*
X123106120Y-116754151D01*
X123417189Y-117219698D01*
X123799275Y-117475000D01*
X123417189Y-117730302D01*
X123106120Y-118195849D01*
X122996887Y-118745000D01*
X123106120Y-119294151D01*
X123417189Y-119759698D01*
X123799275Y-120015000D01*
X123417189Y-120270302D01*
X123106120Y-120735849D01*
X122996887Y-121285000D01*
X123106120Y-121834151D01*
X123417189Y-122299698D01*
X123799275Y-122555000D01*
X123417189Y-122810302D01*
X123106120Y-123275849D01*
X122996887Y-123825000D01*
X123106120Y-124374151D01*
X123417189Y-124839698D01*
X123799275Y-125095000D01*
X123417189Y-125350302D01*
X123106120Y-125815849D01*
X122996887Y-126365000D01*
X123106120Y-126914151D01*
X123417189Y-127379698D01*
X123799275Y-127635000D01*
X123417189Y-127890302D01*
X123106120Y-128355849D01*
X122996887Y-128905000D01*
X123106120Y-129454151D01*
X123417189Y-129919698D01*
X123821703Y-130189986D01*
X123604866Y-130292611D01*
X123228959Y-130707577D01*
X123068096Y-131095961D01*
X123190085Y-131318000D01*
X124333000Y-131318000D01*
X124333000Y-131298000D01*
X124587000Y-131298000D01*
X124587000Y-131318000D01*
X124607000Y-131318000D01*
X124607000Y-131572000D01*
X124587000Y-131572000D01*
X124587000Y-132715629D01*
X124809041Y-132836914D01*
X125315134Y-132597389D01*
X125605000Y-132277404D01*
X125605000Y-132787537D01*
X125572808Y-132819673D01*
X125430162Y-133163201D01*
X125429838Y-133535167D01*
X125571883Y-133878943D01*
X125834673Y-134142192D01*
X126098554Y-134251765D01*
X126206883Y-134513943D01*
X126469673Y-134777192D01*
X126813201Y-134919838D01*
X127185167Y-134920162D01*
X127528943Y-134778117D01*
X127634954Y-134672290D01*
X127739673Y-134777192D01*
X128083201Y-134919838D01*
X128455167Y-134920162D01*
X128798943Y-134778117D01*
X128904954Y-134672290D01*
X129009673Y-134777192D01*
X129353201Y-134919838D01*
X129725167Y-134920162D01*
X130068943Y-134778117D01*
X130174954Y-134672290D01*
X130279673Y-134777192D01*
X130623201Y-134919838D01*
X130995167Y-134920162D01*
X131338943Y-134778117D01*
X131602192Y-134515327D01*
X131744838Y-134171799D01*
X131745162Y-133799833D01*
X131603117Y-133456057D01*
X131570000Y-133422882D01*
X131570000Y-119942463D01*
X131602192Y-119910327D01*
X131744838Y-119566799D01*
X131745162Y-119194833D01*
X131603117Y-118851057D01*
X131340327Y-118587808D01*
X130996799Y-118445162D01*
X130624833Y-118444838D01*
X130281057Y-118586883D01*
X130017808Y-118849673D01*
X129875162Y-119193201D01*
X129874838Y-119565167D01*
X130016883Y-119908943D01*
X130050000Y-119942118D01*
X130050000Y-120984890D01*
X129989833Y-120984838D01*
X129646057Y-121126883D01*
X129382808Y-121389673D01*
X129240162Y-121733201D01*
X129239838Y-122105167D01*
X129381883Y-122448943D01*
X129415000Y-122482118D01*
X129415000Y-123524890D01*
X129354833Y-123524838D01*
X129030000Y-123659056D01*
X129030000Y-114862463D01*
X129062192Y-114830327D01*
X129204838Y-114486799D01*
X129205162Y-114114833D01*
X129063117Y-113771057D01*
X128800327Y-113507808D01*
X128456799Y-113365162D01*
X128395000Y-113365108D01*
X128395000Y-111052463D01*
X128427192Y-111020327D01*
X128569838Y-110676799D01*
X128570162Y-110304833D01*
X128428117Y-109961057D01*
X128165327Y-109697808D01*
X127821799Y-109555162D01*
X127449833Y-109554838D01*
X127106057Y-109696883D01*
X126842808Y-109959673D01*
X126700162Y-110303201D01*
X126699838Y-110675167D01*
X126841883Y-111018943D01*
X126875000Y-111052118D01*
X126875000Y-113364890D01*
X126814833Y-113364838D01*
X126471057Y-113506883D01*
X126207808Y-113769673D01*
X126098235Y-114033554D01*
X125836057Y-114141883D01*
X125826322Y-114151601D01*
X125923113Y-113665000D01*
X125813880Y-113115849D01*
X125502811Y-112650302D01*
X125120725Y-112395000D01*
X125502811Y-112139698D01*
X125813880Y-111674151D01*
X125923113Y-111125000D01*
X125813880Y-110575849D01*
X125502811Y-110110302D01*
X125120725Y-109855000D01*
X125502811Y-109599698D01*
X125813880Y-109134151D01*
X125923113Y-108585000D01*
X125813880Y-108035849D01*
X125502811Y-107570302D01*
X125120725Y-107315000D01*
X125502811Y-107059698D01*
X125813880Y-106594151D01*
X125923113Y-106045000D01*
X125813880Y-105495849D01*
X125502811Y-105030302D01*
X125120725Y-104775000D01*
X125502811Y-104519698D01*
X125813880Y-104054151D01*
X125923113Y-103505000D01*
X125813880Y-102955849D01*
X125502811Y-102490302D01*
X125120725Y-102235000D01*
X125502811Y-101979698D01*
X125813880Y-101514151D01*
X125923113Y-100965000D01*
X125813880Y-100415849D01*
X125502811Y-99950302D01*
X125358535Y-99853899D01*
X125495317Y-99828162D01*
X125711441Y-99689090D01*
X125856431Y-99476890D01*
X125907440Y-99225000D01*
X125907440Y-98425000D01*
X138236887Y-98425000D01*
X138346120Y-98974151D01*
X138657189Y-99439698D01*
X139039275Y-99695000D01*
X138657189Y-99950302D01*
X138346120Y-100415849D01*
X138236887Y-100965000D01*
X138346120Y-101514151D01*
X138657189Y-101979698D01*
X139039275Y-102235000D01*
X138657189Y-102490302D01*
X138346120Y-102955849D01*
X138236887Y-103505000D01*
X138346120Y-104054151D01*
X138657189Y-104519698D01*
X139039275Y-104775000D01*
X138657189Y-105030302D01*
X138346120Y-105495849D01*
X138236887Y-106045000D01*
X138346120Y-106594151D01*
X138657189Y-107059698D01*
X139039275Y-107315000D01*
X138657189Y-107570302D01*
X138346120Y-108035849D01*
X138236887Y-108585000D01*
X138346120Y-109134151D01*
X138657189Y-109599698D01*
X139039275Y-109855000D01*
X138657189Y-110110302D01*
X138346120Y-110575849D01*
X138236887Y-111125000D01*
X138346120Y-111674151D01*
X138657189Y-112139698D01*
X139039275Y-112395000D01*
X138657189Y-112650302D01*
X138346120Y-113115849D01*
X138236887Y-113665000D01*
X138346120Y-114214151D01*
X138657189Y-114679698D01*
X139039275Y-114935000D01*
X138657189Y-115190302D01*
X138346120Y-115655849D01*
X138236887Y-116205000D01*
X138346120Y-116754151D01*
X138657189Y-117219698D01*
X139039275Y-117475000D01*
X138657189Y-117730302D01*
X138346120Y-118195849D01*
X138236887Y-118745000D01*
X138346120Y-119294151D01*
X138657189Y-119759698D01*
X139039275Y-120015000D01*
X138657189Y-120270302D01*
X138346120Y-120735849D01*
X138236887Y-121285000D01*
X138346120Y-121834151D01*
X138657189Y-122299698D01*
X139039275Y-122555000D01*
X138657189Y-122810302D01*
X138346120Y-123275849D01*
X138236887Y-123825000D01*
X138346120Y-124374151D01*
X138657189Y-124839698D01*
X139039275Y-125095000D01*
X138657189Y-125350302D01*
X138346120Y-125815849D01*
X138236887Y-126365000D01*
X138346120Y-126914151D01*
X138657189Y-127379698D01*
X139039275Y-127635000D01*
X138657189Y-127890302D01*
X138346120Y-128355849D01*
X138236887Y-128905000D01*
X138346120Y-129454151D01*
X138657189Y-129919698D01*
X139039275Y-130175000D01*
X138657189Y-130430302D01*
X138346120Y-130895849D01*
X138236887Y-131445000D01*
X138346120Y-131994151D01*
X138657189Y-132459698D01*
X139122736Y-132770767D01*
X139671887Y-132880000D01*
X139728113Y-132880000D01*
X140277264Y-132770767D01*
X140742811Y-132459698D01*
X141053880Y-131994151D01*
X141093684Y-131794039D01*
X151008096Y-131794039D01*
X151168959Y-132182423D01*
X151544866Y-132597389D01*
X152050959Y-132836914D01*
X152273000Y-132715629D01*
X152273000Y-131572000D01*
X152527000Y-131572000D01*
X152527000Y-132715629D01*
X152749041Y-132836914D01*
X153255134Y-132597389D01*
X153631041Y-132182423D01*
X153791904Y-131794039D01*
X153669915Y-131572000D01*
X152527000Y-131572000D01*
X152273000Y-131572000D01*
X151130085Y-131572000D01*
X151008096Y-131794039D01*
X141093684Y-131794039D01*
X141163113Y-131445000D01*
X141053880Y-130895849D01*
X140742811Y-130430302D01*
X140360725Y-130175000D01*
X140742811Y-129919698D01*
X141053880Y-129454151D01*
X141163113Y-128905000D01*
X141053880Y-128355849D01*
X140742811Y-127890302D01*
X140360725Y-127635000D01*
X140742811Y-127379698D01*
X141053880Y-126914151D01*
X141163113Y-126365000D01*
X141053880Y-125815849D01*
X140742811Y-125350302D01*
X140360725Y-125095000D01*
X140742811Y-124839698D01*
X141053880Y-124374151D01*
X141163113Y-123825000D01*
X150936887Y-123825000D01*
X151046120Y-124374151D01*
X151357189Y-124839698D01*
X151739275Y-125095000D01*
X151357189Y-125350302D01*
X151046120Y-125815849D01*
X150936887Y-126365000D01*
X151046120Y-126914151D01*
X151357189Y-127379698D01*
X151739275Y-127635000D01*
X151357189Y-127890302D01*
X151046120Y-128355849D01*
X150936887Y-128905000D01*
X151046120Y-129454151D01*
X151357189Y-129919698D01*
X151761703Y-130189986D01*
X151544866Y-130292611D01*
X151168959Y-130707577D01*
X151008096Y-131095961D01*
X151130085Y-131318000D01*
X152273000Y-131318000D01*
X152273000Y-131298000D01*
X152527000Y-131298000D01*
X152527000Y-131318000D01*
X153669915Y-131318000D01*
X153791904Y-131095961D01*
X153631041Y-130707577D01*
X153255134Y-130292611D01*
X153038297Y-130189986D01*
X153442811Y-129919698D01*
X153753880Y-129454151D01*
X153863113Y-128905000D01*
X153753880Y-128355849D01*
X153442811Y-127890302D01*
X153060725Y-127635000D01*
X153442811Y-127379698D01*
X153753880Y-126914151D01*
X153863113Y-126365000D01*
X153753880Y-125815849D01*
X153442811Y-125350302D01*
X153060725Y-125095000D01*
X153442811Y-124839698D01*
X153753880Y-124374151D01*
X153863113Y-123825000D01*
X153753880Y-123275849D01*
X153442811Y-122810302D01*
X153038297Y-122540014D01*
X153255134Y-122437389D01*
X153631041Y-122022423D01*
X153791904Y-121634039D01*
X153669915Y-121412000D01*
X152527000Y-121412000D01*
X152527000Y-121432000D01*
X152273000Y-121432000D01*
X152273000Y-121412000D01*
X151130085Y-121412000D01*
X151008096Y-121634039D01*
X151168959Y-122022423D01*
X151544866Y-122437389D01*
X151761703Y-122540014D01*
X151357189Y-122810302D01*
X151046120Y-123275849D01*
X150936887Y-123825000D01*
X141163113Y-123825000D01*
X141053880Y-123275849D01*
X140742811Y-122810302D01*
X140360725Y-122555000D01*
X140742811Y-122299698D01*
X141053880Y-121834151D01*
X141163113Y-121285000D01*
X141053880Y-120735849D01*
X140742811Y-120270302D01*
X140360725Y-120015000D01*
X140742811Y-119759698D01*
X141053880Y-119294151D01*
X141163113Y-118745000D01*
X141053880Y-118195849D01*
X140742811Y-117730302D01*
X140360725Y-117475000D01*
X140742811Y-117219698D01*
X141053880Y-116754151D01*
X141163113Y-116205000D01*
X150936887Y-116205000D01*
X151046120Y-116754151D01*
X151357189Y-117219698D01*
X151739275Y-117475000D01*
X151357189Y-117730302D01*
X151046120Y-118195849D01*
X150936887Y-118745000D01*
X151046120Y-119294151D01*
X151357189Y-119759698D01*
X151761703Y-120029986D01*
X151544866Y-120132611D01*
X151168959Y-120547577D01*
X151008096Y-120935961D01*
X151130085Y-121158000D01*
X152273000Y-121158000D01*
X152273000Y-121138000D01*
X152527000Y-121138000D01*
X152527000Y-121158000D01*
X153669915Y-121158000D01*
X153791904Y-120935961D01*
X153631041Y-120547577D01*
X153255134Y-120132611D01*
X153038297Y-120029986D01*
X153442811Y-119759698D01*
X153753880Y-119294151D01*
X153863113Y-118745000D01*
X153753880Y-118195849D01*
X153442811Y-117730302D01*
X153060725Y-117475000D01*
X153442811Y-117219698D01*
X153753880Y-116754151D01*
X153863113Y-116205000D01*
X153773636Y-115755167D01*
X155909838Y-115755167D01*
X156051883Y-116098943D01*
X156085000Y-116132118D01*
X156085000Y-126437537D01*
X156052808Y-126469673D01*
X155910162Y-126813201D01*
X155909838Y-127185167D01*
X156051883Y-127528943D01*
X156314673Y-127792192D01*
X156578554Y-127901765D01*
X156686883Y-128163943D01*
X156949673Y-128427192D01*
X157293201Y-128569838D01*
X157665167Y-128570162D01*
X158008943Y-128428117D01*
X158272192Y-128165327D01*
X158381765Y-127901446D01*
X158643943Y-127793117D01*
X158907192Y-127530327D01*
X158972594Y-127372822D01*
X158977189Y-127379698D01*
X159359275Y-127635000D01*
X158977189Y-127890302D01*
X158666120Y-128355849D01*
X158556887Y-128905000D01*
X158666120Y-129454151D01*
X158977189Y-129919698D01*
X159359275Y-130175000D01*
X158977189Y-130430302D01*
X158666120Y-130895849D01*
X158556887Y-131445000D01*
X158666120Y-131994151D01*
X158977189Y-132459698D01*
X159442736Y-132770767D01*
X159991887Y-132880000D01*
X160048113Y-132880000D01*
X160597264Y-132770767D01*
X161062811Y-132459698D01*
X161373880Y-131994151D01*
X161413684Y-131794039D01*
X166248096Y-131794039D01*
X166408959Y-132182423D01*
X166784866Y-132597389D01*
X167290959Y-132836914D01*
X167513000Y-132715629D01*
X167513000Y-131572000D01*
X167767000Y-131572000D01*
X167767000Y-132715629D01*
X167989041Y-132836914D01*
X168495134Y-132597389D01*
X168871041Y-132182423D01*
X169031904Y-131794039D01*
X168909915Y-131572000D01*
X167767000Y-131572000D01*
X167513000Y-131572000D01*
X166370085Y-131572000D01*
X166248096Y-131794039D01*
X161413684Y-131794039D01*
X161483113Y-131445000D01*
X161373880Y-130895849D01*
X161062811Y-130430302D01*
X160680725Y-130175000D01*
X161062811Y-129919698D01*
X161373880Y-129454151D01*
X161483113Y-128905000D01*
X161373880Y-128355849D01*
X161062811Y-127890302D01*
X160680725Y-127635000D01*
X161062811Y-127379698D01*
X161373880Y-126914151D01*
X161483113Y-126365000D01*
X166176887Y-126365000D01*
X166286120Y-126914151D01*
X166597189Y-127379698D01*
X166979275Y-127635000D01*
X166597189Y-127890302D01*
X166286120Y-128355849D01*
X166176887Y-128905000D01*
X166286120Y-129454151D01*
X166597189Y-129919698D01*
X167001703Y-130189986D01*
X166784866Y-130292611D01*
X166408959Y-130707577D01*
X166248096Y-131095961D01*
X166370085Y-131318000D01*
X167513000Y-131318000D01*
X167513000Y-131298000D01*
X167767000Y-131298000D01*
X167767000Y-131318000D01*
X168909915Y-131318000D01*
X169031904Y-131095961D01*
X168871041Y-130707577D01*
X168495134Y-130292611D01*
X168278297Y-130189986D01*
X168682811Y-129919698D01*
X168993880Y-129454151D01*
X169103113Y-128905000D01*
X168993880Y-128355849D01*
X168682811Y-127890302D01*
X168300725Y-127635000D01*
X168682811Y-127379698D01*
X168993880Y-126914151D01*
X169103113Y-126365000D01*
X168993880Y-125815849D01*
X168682811Y-125350302D01*
X168278297Y-125080014D01*
X168495134Y-124977389D01*
X168871041Y-124562423D01*
X169031904Y-124174039D01*
X168909915Y-123952000D01*
X167767000Y-123952000D01*
X167767000Y-123972000D01*
X167513000Y-123972000D01*
X167513000Y-123952000D01*
X166370085Y-123952000D01*
X166248096Y-124174039D01*
X166408959Y-124562423D01*
X166784866Y-124977389D01*
X167001703Y-125080014D01*
X166597189Y-125350302D01*
X166286120Y-125815849D01*
X166176887Y-126365000D01*
X161483113Y-126365000D01*
X161373880Y-125815849D01*
X161062811Y-125350302D01*
X160680725Y-125095000D01*
X161062811Y-124839698D01*
X161373880Y-124374151D01*
X161483113Y-123825000D01*
X161373880Y-123275849D01*
X161062811Y-122810302D01*
X160680725Y-122555000D01*
X161062811Y-122299698D01*
X161373880Y-121834151D01*
X161413684Y-121634039D01*
X166248096Y-121634039D01*
X166408959Y-122022423D01*
X166784866Y-122437389D01*
X167033367Y-122555000D01*
X166784866Y-122672611D01*
X166408959Y-123087577D01*
X166248096Y-123475961D01*
X166370085Y-123698000D01*
X167513000Y-123698000D01*
X167513000Y-121412000D01*
X167767000Y-121412000D01*
X167767000Y-123698000D01*
X168909915Y-123698000D01*
X169031904Y-123475961D01*
X168871041Y-123087577D01*
X168495134Y-122672611D01*
X168246633Y-122555000D01*
X168495134Y-122437389D01*
X168871041Y-122022423D01*
X169031904Y-121634039D01*
X168909915Y-121412000D01*
X167767000Y-121412000D01*
X167513000Y-121412000D01*
X166370085Y-121412000D01*
X166248096Y-121634039D01*
X161413684Y-121634039D01*
X161483113Y-121285000D01*
X161373880Y-120735849D01*
X161062811Y-120270302D01*
X160680725Y-120015000D01*
X161062811Y-119759698D01*
X161120911Y-119672745D01*
X163001861Y-119672745D01*
X163075995Y-119918864D01*
X163613223Y-120111965D01*
X164183454Y-120084778D01*
X164584005Y-119918864D01*
X164658139Y-119672745D01*
X163830000Y-118844605D01*
X163001861Y-119672745D01*
X161120911Y-119672745D01*
X161373880Y-119294151D01*
X161483113Y-118745000D01*
X161424081Y-118448223D01*
X162383035Y-118448223D01*
X162410222Y-119018454D01*
X162576136Y-119419005D01*
X162822255Y-119493139D01*
X163650395Y-118665000D01*
X164009605Y-118665000D01*
X164837745Y-119493139D01*
X165083864Y-119419005D01*
X165276965Y-118881777D01*
X165249778Y-118311546D01*
X165083864Y-117910995D01*
X164837745Y-117836861D01*
X164009605Y-118665000D01*
X163650395Y-118665000D01*
X162822255Y-117836861D01*
X162576136Y-117910995D01*
X162383035Y-118448223D01*
X161424081Y-118448223D01*
X161373880Y-118195849D01*
X161062811Y-117730302D01*
X160953489Y-117657255D01*
X163001861Y-117657255D01*
X163830000Y-118485395D01*
X164658139Y-117657255D01*
X164584005Y-117411136D01*
X164046777Y-117218035D01*
X163476546Y-117245222D01*
X163075995Y-117411136D01*
X163001861Y-117657255D01*
X160953489Y-117657255D01*
X160680725Y-117475000D01*
X161062811Y-117219698D01*
X161373880Y-116754151D01*
X161483113Y-116205000D01*
X166176887Y-116205000D01*
X166286120Y-116754151D01*
X166597189Y-117219698D01*
X166979275Y-117475000D01*
X166597189Y-117730302D01*
X166286120Y-118195849D01*
X166176887Y-118745000D01*
X166286120Y-119294151D01*
X166597189Y-119759698D01*
X167001703Y-120029986D01*
X166784866Y-120132611D01*
X166408959Y-120547577D01*
X166248096Y-120935961D01*
X166370085Y-121158000D01*
X167513000Y-121158000D01*
X167513000Y-121138000D01*
X167767000Y-121138000D01*
X167767000Y-121158000D01*
X168909915Y-121158000D01*
X169031904Y-120935961D01*
X168871041Y-120547577D01*
X168495134Y-120132611D01*
X168278297Y-120029986D01*
X168682811Y-119759698D01*
X168993880Y-119294151D01*
X169103113Y-118745000D01*
X168993880Y-118195849D01*
X168682811Y-117730302D01*
X168300725Y-117475000D01*
X168682811Y-117219698D01*
X168993880Y-116754151D01*
X169103113Y-116205000D01*
X169013636Y-115755167D01*
X171784838Y-115755167D01*
X171926883Y-116098943D01*
X171960000Y-116132118D01*
X171960000Y-125802537D01*
X171927808Y-125834673D01*
X171785162Y-126178201D01*
X171784838Y-126550167D01*
X171926883Y-126893943D01*
X172189673Y-127157192D01*
X172453554Y-127266765D01*
X172561883Y-127528943D01*
X172824673Y-127792192D01*
X173088554Y-127901765D01*
X173196883Y-128163943D01*
X173459673Y-128427192D01*
X173803201Y-128569838D01*
X173863544Y-128569891D01*
X173796887Y-128905000D01*
X173906120Y-129454151D01*
X174217189Y-129919698D01*
X174599275Y-130175000D01*
X174217189Y-130430302D01*
X173906120Y-130895849D01*
X173796887Y-131445000D01*
X173906120Y-131994151D01*
X174217189Y-132459698D01*
X174682736Y-132770767D01*
X175231887Y-132880000D01*
X175288113Y-132880000D01*
X175837264Y-132770767D01*
X176302811Y-132459698D01*
X176613880Y-131994151D01*
X176723113Y-131445000D01*
X176613880Y-130895849D01*
X176302811Y-130430302D01*
X175920725Y-130175000D01*
X176302811Y-129919698D01*
X176613880Y-129454151D01*
X176723113Y-128905000D01*
X176613880Y-128355849D01*
X176302811Y-127890302D01*
X175920725Y-127635000D01*
X176302811Y-127379698D01*
X176613880Y-126914151D01*
X176723113Y-126365000D01*
X176613880Y-125815849D01*
X176302811Y-125350302D01*
X175920725Y-125095000D01*
X176302811Y-124839698D01*
X176613880Y-124374151D01*
X176723113Y-123825000D01*
X176613880Y-123275849D01*
X176302811Y-122810302D01*
X175920725Y-122555000D01*
X176302811Y-122299698D01*
X176613880Y-121834151D01*
X176723113Y-121285000D01*
X181365907Y-121285000D01*
X181478946Y-121853285D01*
X181800853Y-122335054D01*
X182130026Y-122555000D01*
X181800853Y-122774946D01*
X181478946Y-123256715D01*
X181365907Y-123825000D01*
X181478946Y-124393285D01*
X181800853Y-124875054D01*
X182130026Y-125095000D01*
X181800853Y-125314946D01*
X181478946Y-125796715D01*
X181365907Y-126365000D01*
X181478946Y-126933285D01*
X181800853Y-127415054D01*
X182130026Y-127635000D01*
X181800853Y-127854946D01*
X181478946Y-128336715D01*
X181365907Y-128905000D01*
X181478946Y-129473285D01*
X181800853Y-129955054D01*
X182130026Y-130175000D01*
X181800853Y-130394946D01*
X181478946Y-130876715D01*
X181365907Y-131445000D01*
X181478946Y-132013285D01*
X181800853Y-132495054D01*
X182282622Y-132816961D01*
X182850907Y-132930000D01*
X182909093Y-132930000D01*
X183477378Y-132816961D01*
X183959147Y-132495054D01*
X184150000Y-132209422D01*
X184340853Y-132495054D01*
X184822622Y-132816961D01*
X185390907Y-132930000D01*
X185449093Y-132930000D01*
X186017378Y-132816961D01*
X186499147Y-132495054D01*
X186821054Y-132013285D01*
X186934093Y-131445000D01*
X186821054Y-130876715D01*
X186499147Y-130394946D01*
X186169974Y-130175000D01*
X186499147Y-129955054D01*
X186821054Y-129473285D01*
X186934093Y-128905000D01*
X186821054Y-128336715D01*
X186499147Y-127854946D01*
X186169974Y-127635000D01*
X186499147Y-127415054D01*
X186821054Y-126933285D01*
X186934093Y-126365000D01*
X186821054Y-125796715D01*
X186499147Y-125314946D01*
X186169974Y-125095000D01*
X186499147Y-124875054D01*
X186821054Y-124393285D01*
X186934093Y-123825000D01*
X186821054Y-123256715D01*
X186499147Y-122774946D01*
X186169974Y-122555000D01*
X186499147Y-122335054D01*
X186821054Y-121853285D01*
X186934093Y-121285000D01*
X186821054Y-120716715D01*
X186499147Y-120234946D01*
X186169974Y-120015000D01*
X186499147Y-119795054D01*
X186821054Y-119313285D01*
X186934093Y-118745000D01*
X186821054Y-118176715D01*
X186499147Y-117694946D01*
X186017378Y-117373039D01*
X185449093Y-117260000D01*
X185390907Y-117260000D01*
X184822622Y-117373039D01*
X184340853Y-117694946D01*
X184340029Y-117696179D01*
X184333162Y-117659683D01*
X184194090Y-117443559D01*
X183981890Y-117298569D01*
X183730000Y-117247560D01*
X182030000Y-117247560D01*
X181794683Y-117291838D01*
X181578559Y-117430910D01*
X181433569Y-117643110D01*
X181382560Y-117895000D01*
X181382560Y-119595000D01*
X181426838Y-119830317D01*
X181565910Y-120046441D01*
X181778110Y-120191431D01*
X181845541Y-120205086D01*
X181800853Y-120234946D01*
X181478946Y-120716715D01*
X181365907Y-121285000D01*
X176723113Y-121285000D01*
X176613880Y-120735849D01*
X176302811Y-120270302D01*
X175920725Y-120015000D01*
X176302811Y-119759698D01*
X176360911Y-119672745D01*
X178241861Y-119672745D01*
X178315995Y-119918864D01*
X178853223Y-120111965D01*
X179423454Y-120084778D01*
X179824005Y-119918864D01*
X179898139Y-119672745D01*
X179070000Y-118844605D01*
X178241861Y-119672745D01*
X176360911Y-119672745D01*
X176613880Y-119294151D01*
X176723113Y-118745000D01*
X176664081Y-118448223D01*
X177623035Y-118448223D01*
X177650222Y-119018454D01*
X177816136Y-119419005D01*
X178062255Y-119493139D01*
X178890395Y-118665000D01*
X179249605Y-118665000D01*
X180077745Y-119493139D01*
X180323864Y-119419005D01*
X180516965Y-118881777D01*
X180489778Y-118311546D01*
X180323864Y-117910995D01*
X180077745Y-117836861D01*
X179249605Y-118665000D01*
X178890395Y-118665000D01*
X178062255Y-117836861D01*
X177816136Y-117910995D01*
X177623035Y-118448223D01*
X176664081Y-118448223D01*
X176613880Y-118195849D01*
X176302811Y-117730302D01*
X176193489Y-117657255D01*
X178241861Y-117657255D01*
X179070000Y-118485395D01*
X179898139Y-117657255D01*
X179824005Y-117411136D01*
X179286777Y-117218035D01*
X178716546Y-117245222D01*
X178315995Y-117411136D01*
X178241861Y-117657255D01*
X176193489Y-117657255D01*
X175920725Y-117475000D01*
X176302811Y-117219698D01*
X176613880Y-116754151D01*
X176723113Y-116205000D01*
X176613880Y-115655849D01*
X176302811Y-115190302D01*
X175920725Y-114935000D01*
X176302811Y-114679698D01*
X176613880Y-114214151D01*
X176666584Y-113949187D01*
X177634752Y-113949187D01*
X177852757Y-114476800D01*
X178256077Y-114880824D01*
X178783309Y-115099750D01*
X179354187Y-115100248D01*
X179881800Y-114882243D01*
X180285824Y-114478923D01*
X180504750Y-113951691D01*
X180505248Y-113380813D01*
X180287243Y-112853200D01*
X179883923Y-112449176D01*
X179356691Y-112230250D01*
X178785813Y-112229752D01*
X178258200Y-112447757D01*
X177854176Y-112851077D01*
X177635250Y-113378309D01*
X177634752Y-113949187D01*
X176666584Y-113949187D01*
X176723113Y-113665000D01*
X176613880Y-113115849D01*
X176302811Y-112650302D01*
X175837264Y-112339233D01*
X175288113Y-112230000D01*
X175231887Y-112230000D01*
X174682736Y-112339233D01*
X174217189Y-112650302D01*
X173906120Y-113115849D01*
X173796887Y-113665000D01*
X173906120Y-114214151D01*
X174217189Y-114679698D01*
X174599275Y-114935000D01*
X174217189Y-115190302D01*
X173906120Y-115655849D01*
X173796887Y-116205000D01*
X173906120Y-116754151D01*
X174217189Y-117219698D01*
X174599275Y-117475000D01*
X174217189Y-117730302D01*
X174212613Y-117737150D01*
X174148117Y-117581057D01*
X173885327Y-117317808D01*
X173541799Y-117175162D01*
X173480000Y-117175108D01*
X173480000Y-116132463D01*
X173512192Y-116100327D01*
X173654838Y-115756799D01*
X173655162Y-115384833D01*
X173513117Y-115041057D01*
X173250327Y-114777808D01*
X172906799Y-114635162D01*
X172534833Y-114634838D01*
X172191057Y-114776883D01*
X171927808Y-115039673D01*
X171785162Y-115383201D01*
X171784838Y-115755167D01*
X169013636Y-115755167D01*
X168993880Y-115655849D01*
X168682811Y-115190302D01*
X168538535Y-115093899D01*
X168675317Y-115068162D01*
X168891441Y-114929090D01*
X169036431Y-114716890D01*
X169087440Y-114465000D01*
X169087440Y-112865000D01*
X169043162Y-112629683D01*
X168904090Y-112413559D01*
X168691890Y-112268569D01*
X168440000Y-112217560D01*
X166840000Y-112217560D01*
X166604683Y-112261838D01*
X166388559Y-112400910D01*
X166243569Y-112613110D01*
X166192560Y-112865000D01*
X166192560Y-114465000D01*
X166236838Y-114700317D01*
X166375910Y-114916441D01*
X166588110Y-115061431D01*
X166743089Y-115092815D01*
X166597189Y-115190302D01*
X166286120Y-115655849D01*
X166176887Y-116205000D01*
X161483113Y-116205000D01*
X161373880Y-115655849D01*
X161062811Y-115190302D01*
X160680725Y-114935000D01*
X161062811Y-114679698D01*
X161373880Y-114214151D01*
X161426584Y-113949187D01*
X162394752Y-113949187D01*
X162612757Y-114476800D01*
X163016077Y-114880824D01*
X163543309Y-115099750D01*
X164114187Y-115100248D01*
X164641800Y-114882243D01*
X165045824Y-114478923D01*
X165264750Y-113951691D01*
X165265248Y-113380813D01*
X165047243Y-112853200D01*
X164643923Y-112449176D01*
X164116691Y-112230250D01*
X163545813Y-112229752D01*
X163018200Y-112447757D01*
X162614176Y-112851077D01*
X162395250Y-113378309D01*
X162394752Y-113949187D01*
X161426584Y-113949187D01*
X161483113Y-113665000D01*
X161373880Y-113115849D01*
X161062811Y-112650302D01*
X160597264Y-112339233D01*
X160048113Y-112230000D01*
X159991887Y-112230000D01*
X159442736Y-112339233D01*
X158977189Y-112650302D01*
X158666120Y-113115849D01*
X158618141Y-113357057D01*
X158212599Y-113762599D01*
X158047852Y-114009161D01*
X157990000Y-114300000D01*
X157990000Y-117309367D01*
X157666799Y-117175162D01*
X157605000Y-117175108D01*
X157605000Y-116132463D01*
X157637192Y-116100327D01*
X157779838Y-115756799D01*
X157780162Y-115384833D01*
X157638117Y-115041057D01*
X157375327Y-114777808D01*
X157031799Y-114635162D01*
X156659833Y-114634838D01*
X156316057Y-114776883D01*
X156052808Y-115039673D01*
X155910162Y-115383201D01*
X155909838Y-115755167D01*
X153773636Y-115755167D01*
X153753880Y-115655849D01*
X153442811Y-115190302D01*
X153298535Y-115093899D01*
X153435317Y-115068162D01*
X153651441Y-114929090D01*
X153796431Y-114716890D01*
X153847440Y-114465000D01*
X153847440Y-112865000D01*
X153803162Y-112629683D01*
X153664090Y-112413559D01*
X153451890Y-112268569D01*
X153200000Y-112217560D01*
X151600000Y-112217560D01*
X151364683Y-112261838D01*
X151148559Y-112400910D01*
X151003569Y-112613110D01*
X150952560Y-112865000D01*
X150952560Y-114465000D01*
X150996838Y-114700317D01*
X151135910Y-114916441D01*
X151348110Y-115061431D01*
X151503089Y-115092815D01*
X151357189Y-115190302D01*
X151046120Y-115655849D01*
X150936887Y-116205000D01*
X141163113Y-116205000D01*
X141053880Y-115655849D01*
X140742811Y-115190302D01*
X140360725Y-114935000D01*
X140742811Y-114679698D01*
X141053880Y-114214151D01*
X141163113Y-113665000D01*
X141053880Y-113115849D01*
X140742811Y-112650302D01*
X140360725Y-112395000D01*
X140742811Y-112139698D01*
X140800911Y-112052745D01*
X142681861Y-112052745D01*
X142755995Y-112298864D01*
X143293223Y-112491965D01*
X143863454Y-112464778D01*
X144264005Y-112298864D01*
X144338139Y-112052745D01*
X143510000Y-111224605D01*
X142681861Y-112052745D01*
X140800911Y-112052745D01*
X141053880Y-111674151D01*
X141163113Y-111125000D01*
X141104081Y-110828223D01*
X142063035Y-110828223D01*
X142090222Y-111398454D01*
X142256136Y-111799005D01*
X142502255Y-111873139D01*
X143330395Y-111045000D01*
X143689605Y-111045000D01*
X144517745Y-111873139D01*
X144763864Y-111799005D01*
X144956965Y-111261777D01*
X144929778Y-110691546D01*
X144763864Y-110290995D01*
X144517745Y-110216861D01*
X143689605Y-111045000D01*
X143330395Y-111045000D01*
X142502255Y-110216861D01*
X142256136Y-110290995D01*
X142063035Y-110828223D01*
X141104081Y-110828223D01*
X141053880Y-110575849D01*
X140742811Y-110110302D01*
X140633489Y-110037255D01*
X142681861Y-110037255D01*
X143510000Y-110865395D01*
X144338139Y-110037255D01*
X144264005Y-109791136D01*
X143726777Y-109598035D01*
X143156546Y-109625222D01*
X142755995Y-109791136D01*
X142681861Y-110037255D01*
X140633489Y-110037255D01*
X140360725Y-109855000D01*
X140742811Y-109599698D01*
X140872792Y-109405167D01*
X162259838Y-109405167D01*
X162401883Y-109748943D01*
X162664673Y-110012192D01*
X163008201Y-110154838D01*
X163380167Y-110155162D01*
X163723943Y-110013117D01*
X163987192Y-109750327D01*
X164129838Y-109406799D01*
X164129879Y-109359923D01*
X164367401Y-109122401D01*
X164532148Y-108875839D01*
X164590000Y-108585000D01*
X164590000Y-108512463D01*
X164622192Y-108480327D01*
X164764838Y-108136799D01*
X164765162Y-107764833D01*
X164623117Y-107421057D01*
X164360327Y-107157808D01*
X164016799Y-107015162D01*
X163644833Y-107014838D01*
X163301057Y-107156883D01*
X163037808Y-107419673D01*
X162895162Y-107763201D01*
X162894838Y-108135167D01*
X162964432Y-108303597D01*
X162666057Y-108426883D01*
X162402808Y-108689673D01*
X162260162Y-109033201D01*
X162259838Y-109405167D01*
X140872792Y-109405167D01*
X141053880Y-109134151D01*
X141163113Y-108585000D01*
X141053880Y-108035849D01*
X140742811Y-107570302D01*
X140360725Y-107315000D01*
X140742811Y-107059698D01*
X141053880Y-106594151D01*
X141106584Y-106329187D01*
X142074752Y-106329187D01*
X142292757Y-106856800D01*
X142696077Y-107260824D01*
X143223309Y-107479750D01*
X143794187Y-107480248D01*
X144321800Y-107262243D01*
X144725824Y-106858923D01*
X144918860Y-106394039D01*
X151008096Y-106394039D01*
X151168959Y-106782423D01*
X151544866Y-107197389D01*
X152050959Y-107436914D01*
X152273000Y-107315629D01*
X152273000Y-106172000D01*
X152527000Y-106172000D01*
X152527000Y-107315629D01*
X152749041Y-107436914D01*
X153255134Y-107197389D01*
X153631041Y-106782423D01*
X153791904Y-106394039D01*
X153669915Y-106172000D01*
X152527000Y-106172000D01*
X152273000Y-106172000D01*
X151130085Y-106172000D01*
X151008096Y-106394039D01*
X144918860Y-106394039D01*
X144944750Y-106331691D01*
X144945248Y-105760813D01*
X144727243Y-105233200D01*
X144323923Y-104829176D01*
X143796691Y-104610250D01*
X143225813Y-104609752D01*
X142698200Y-104827757D01*
X142294176Y-105231077D01*
X142075250Y-105758309D01*
X142074752Y-106329187D01*
X141106584Y-106329187D01*
X141163113Y-106045000D01*
X141053880Y-105495849D01*
X140742811Y-105030302D01*
X140360725Y-104775000D01*
X140742811Y-104519698D01*
X141053880Y-104054151D01*
X141163113Y-103505000D01*
X150936887Y-103505000D01*
X151046120Y-104054151D01*
X151357189Y-104519698D01*
X151761703Y-104789986D01*
X151544866Y-104892611D01*
X151168959Y-105307577D01*
X151008096Y-105695961D01*
X151130085Y-105918000D01*
X152273000Y-105918000D01*
X152273000Y-105898000D01*
X152527000Y-105898000D01*
X152527000Y-105918000D01*
X153669915Y-105918000D01*
X153791904Y-105695961D01*
X153631041Y-105307577D01*
X153255134Y-104892611D01*
X153038297Y-104789986D01*
X153442811Y-104519698D01*
X153753880Y-104054151D01*
X153863113Y-103505000D01*
X153753880Y-102955849D01*
X153442811Y-102490302D01*
X153038297Y-102220014D01*
X153255134Y-102117389D01*
X153631041Y-101702423D01*
X153791904Y-101314039D01*
X153669915Y-101092000D01*
X152527000Y-101092000D01*
X152527000Y-101112000D01*
X152273000Y-101112000D01*
X152273000Y-101092000D01*
X151130085Y-101092000D01*
X151008096Y-101314039D01*
X151168959Y-101702423D01*
X151544866Y-102117389D01*
X151761703Y-102220014D01*
X151357189Y-102490302D01*
X151046120Y-102955849D01*
X150936887Y-103505000D01*
X141163113Y-103505000D01*
X141053880Y-102955849D01*
X140742811Y-102490302D01*
X140360725Y-102235000D01*
X140742811Y-101979698D01*
X141053880Y-101514151D01*
X141163113Y-100965000D01*
X141053880Y-100415849D01*
X140742811Y-99950302D01*
X140360725Y-99695000D01*
X140742811Y-99439698D01*
X141053880Y-98974151D01*
X141163113Y-98425000D01*
X141053880Y-97875849D01*
X140742811Y-97410302D01*
X140277264Y-97099233D01*
X139728113Y-96990000D01*
X139671887Y-96990000D01*
X139122736Y-97099233D01*
X138657189Y-97410302D01*
X138346120Y-97875849D01*
X138236887Y-98425000D01*
X125907440Y-98425000D01*
X125907440Y-97625000D01*
X125863162Y-97389683D01*
X125724090Y-97173559D01*
X125511890Y-97028569D01*
X125260000Y-96977560D01*
X123660000Y-96977560D01*
X123424683Y-97021838D01*
X123208559Y-97160910D01*
X123063569Y-97373110D01*
X123012560Y-97625000D01*
X123012560Y-99225000D01*
X123056838Y-99460317D01*
X123195910Y-99676441D01*
X123408110Y-99821431D01*
X123563089Y-99852815D01*
X123417189Y-99950302D01*
X123106120Y-100415849D01*
X122996887Y-100965000D01*
X123106120Y-101514151D01*
X123417189Y-101979698D01*
X123799275Y-102235000D01*
X123417189Y-102490302D01*
X123247005Y-102745000D01*
X123190000Y-102745000D01*
X122899161Y-102802852D01*
X122652599Y-102967599D01*
X122084904Y-103535294D01*
X122085248Y-103140813D01*
X121867243Y-102613200D01*
X121463923Y-102209176D01*
X120936691Y-101990250D01*
X120365813Y-101989752D01*
X119838200Y-102207757D01*
X119434176Y-102611077D01*
X119215250Y-103138309D01*
X119214752Y-103709187D01*
X118262497Y-103709187D01*
X118303113Y-103505000D01*
X118193880Y-102955849D01*
X117882811Y-102490302D01*
X117500725Y-102235000D01*
X117882811Y-101979698D01*
X118193880Y-101514151D01*
X118303113Y-100965000D01*
X118193880Y-100415849D01*
X117882811Y-99950302D01*
X117500725Y-99695000D01*
X117882811Y-99439698D01*
X118193880Y-98974151D01*
X118246584Y-98709187D01*
X119214752Y-98709187D01*
X119432757Y-99236800D01*
X119836077Y-99640824D01*
X120363309Y-99859750D01*
X120934187Y-99860248D01*
X121461800Y-99642243D01*
X121865824Y-99238923D01*
X122084750Y-98711691D01*
X122085248Y-98140813D01*
X121867243Y-97613200D01*
X121463923Y-97209176D01*
X120936691Y-96990250D01*
X120365813Y-96989752D01*
X119838200Y-97207757D01*
X119434176Y-97611077D01*
X119215250Y-98138309D01*
X119214752Y-98709187D01*
X118246584Y-98709187D01*
X118303113Y-98425000D01*
X118193880Y-97875849D01*
X117882811Y-97410302D01*
X117417264Y-97099233D01*
X116868113Y-96990000D01*
X116811887Y-96990000D01*
X116262736Y-97099233D01*
X115797189Y-97410302D01*
X115486120Y-97875849D01*
X115376887Y-98425000D01*
X103047440Y-98425000D01*
X103047440Y-97625000D01*
X103003162Y-97389683D01*
X102864090Y-97173559D01*
X102651890Y-97028569D01*
X102400000Y-96977560D01*
X100800000Y-96977560D01*
X100564683Y-97021838D01*
X100348559Y-97160910D01*
X100203569Y-97373110D01*
X100152560Y-97625000D01*
X100152560Y-99225000D01*
X100196838Y-99460317D01*
X100335910Y-99676441D01*
X100548110Y-99821431D01*
X100703089Y-99852815D01*
X100557189Y-99950302D01*
X100246120Y-100415849D01*
X100136887Y-100965000D01*
X100246120Y-101514151D01*
X100557189Y-101979698D01*
X100939275Y-102235000D01*
X100557189Y-102490302D01*
X100387005Y-102745000D01*
X100330000Y-102745000D01*
X100039161Y-102802852D01*
X99792599Y-102967599D01*
X99224904Y-103535294D01*
X99225248Y-103140813D01*
X99007243Y-102613200D01*
X98603923Y-102209176D01*
X98076691Y-101990250D01*
X97505813Y-101989752D01*
X96978200Y-102207757D01*
X96574176Y-102611077D01*
X96355250Y-103138309D01*
X96354752Y-103709187D01*
X96572757Y-104236800D01*
X96976077Y-104640824D01*
X97202784Y-104734961D01*
X96978200Y-104827757D01*
X96574176Y-105231077D01*
X96355250Y-105758309D01*
X96354752Y-106329187D01*
X96572757Y-106856800D01*
X96976077Y-107260824D01*
X97503309Y-107479750D01*
X98074187Y-107480248D01*
X98300000Y-107386944D01*
X98300000Y-109702976D01*
X98076691Y-109610250D01*
X97505813Y-109609752D01*
X96978200Y-109827757D01*
X96645000Y-110160376D01*
X96645000Y-108512463D01*
X96677192Y-108480327D01*
X96819838Y-108136799D01*
X96820162Y-107764833D01*
X96678117Y-107421057D01*
X96415327Y-107157808D01*
X96071799Y-107015162D01*
X95960000Y-107015065D01*
X95960000Y-98709187D01*
X96354752Y-98709187D01*
X96572757Y-99236800D01*
X96976077Y-99640824D01*
X97503309Y-99859750D01*
X98074187Y-99860248D01*
X98601800Y-99642243D01*
X99005824Y-99238923D01*
X99224750Y-98711691D01*
X99225248Y-98140813D01*
X99007243Y-97613200D01*
X98603923Y-97209176D01*
X98076691Y-96990250D01*
X97505813Y-96989752D01*
X96978200Y-97207757D01*
X96574176Y-97611077D01*
X96355250Y-98138309D01*
X96354752Y-98709187D01*
X95960000Y-98709187D01*
X95960000Y-95454187D01*
X144614752Y-95454187D01*
X144832757Y-95981800D01*
X145236077Y-96385824D01*
X145763309Y-96604750D01*
X146334187Y-96605248D01*
X146861800Y-96387243D01*
X147265824Y-95983923D01*
X147484750Y-95456691D01*
X147485248Y-94885813D01*
X147267243Y-94358200D01*
X146863923Y-93954176D01*
X146336691Y-93735250D01*
X145765813Y-93734752D01*
X145238200Y-93952757D01*
X144834176Y-94356077D01*
X144615250Y-94883309D01*
X144614752Y-95454187D01*
X95960000Y-95454187D01*
X95960000Y-92545000D01*
X148412560Y-92545000D01*
X148412560Y-94145000D01*
X148456838Y-94380317D01*
X148595910Y-94596441D01*
X148808110Y-94741431D01*
X149060000Y-94792440D01*
X149100000Y-94792440D01*
X149100000Y-97790000D01*
X149157852Y-98080839D01*
X149322599Y-98327401D01*
X149957599Y-98962401D01*
X150204161Y-99127148D01*
X150495000Y-99185000D01*
X150952560Y-99185000D01*
X150952560Y-99225000D01*
X150996838Y-99460317D01*
X151135910Y-99676441D01*
X151348110Y-99821431D01*
X151507616Y-99853732D01*
X151168959Y-100227577D01*
X151008096Y-100615961D01*
X151130085Y-100838000D01*
X152273000Y-100838000D01*
X152273000Y-100818000D01*
X152527000Y-100818000D01*
X152527000Y-100838000D01*
X153669915Y-100838000D01*
X153791904Y-100615961D01*
X153631041Y-100227577D01*
X153293410Y-99854864D01*
X153435317Y-99828162D01*
X153651441Y-99689090D01*
X153796431Y-99476890D01*
X153847440Y-99225000D01*
X153847440Y-98425000D01*
X158556887Y-98425000D01*
X158666120Y-98974151D01*
X158977189Y-99439698D01*
X159359275Y-99695000D01*
X158977189Y-99950302D01*
X158666120Y-100415849D01*
X158556887Y-100965000D01*
X158666120Y-101514151D01*
X158977189Y-101979698D01*
X159359275Y-102235000D01*
X158977189Y-102490302D01*
X158666120Y-102955849D01*
X158556887Y-103505000D01*
X158666120Y-104054151D01*
X158977189Y-104519698D01*
X159359275Y-104775000D01*
X158977189Y-105030302D01*
X158666120Y-105495849D01*
X158556887Y-106045000D01*
X158666120Y-106594151D01*
X158977189Y-107059698D01*
X159442736Y-107370767D01*
X159991887Y-107480000D01*
X160048113Y-107480000D01*
X160597264Y-107370767D01*
X161062811Y-107059698D01*
X161373880Y-106594151D01*
X161413684Y-106394039D01*
X166248096Y-106394039D01*
X166408959Y-106782423D01*
X166784866Y-107197389D01*
X167290959Y-107436914D01*
X167513000Y-107315629D01*
X167513000Y-106172000D01*
X167767000Y-106172000D01*
X167767000Y-107315629D01*
X167989041Y-107436914D01*
X168495134Y-107197389D01*
X168871041Y-106782423D01*
X169031904Y-106394039D01*
X168909915Y-106172000D01*
X167767000Y-106172000D01*
X167513000Y-106172000D01*
X166370085Y-106172000D01*
X166248096Y-106394039D01*
X161413684Y-106394039D01*
X161483113Y-106045000D01*
X161373880Y-105495849D01*
X161062811Y-105030302D01*
X160680725Y-104775000D01*
X161062811Y-104519698D01*
X161373880Y-104054151D01*
X161426584Y-103789187D01*
X162394752Y-103789187D01*
X162612757Y-104316800D01*
X163016077Y-104720824D01*
X163543309Y-104939750D01*
X164114187Y-104940248D01*
X164641800Y-104722243D01*
X165045824Y-104318923D01*
X165264750Y-103791691D01*
X165265000Y-103505000D01*
X166176887Y-103505000D01*
X166286120Y-104054151D01*
X166597189Y-104519698D01*
X167001703Y-104789986D01*
X166784866Y-104892611D01*
X166408959Y-105307577D01*
X166248096Y-105695961D01*
X166370085Y-105918000D01*
X167513000Y-105918000D01*
X167513000Y-105898000D01*
X167767000Y-105898000D01*
X167767000Y-105918000D01*
X168909915Y-105918000D01*
X169031904Y-105695961D01*
X168871041Y-105307577D01*
X168495134Y-104892611D01*
X168278297Y-104789986D01*
X168682811Y-104519698D01*
X168993880Y-104054151D01*
X169103113Y-103505000D01*
X168993880Y-102955849D01*
X168682811Y-102490302D01*
X168278297Y-102220014D01*
X168495134Y-102117389D01*
X168871041Y-101702423D01*
X169031904Y-101314039D01*
X168909915Y-101092000D01*
X167767000Y-101092000D01*
X167767000Y-101112000D01*
X167513000Y-101112000D01*
X167513000Y-101092000D01*
X166370085Y-101092000D01*
X166248096Y-101314039D01*
X166408959Y-101702423D01*
X166784866Y-102117389D01*
X167001703Y-102220014D01*
X166597189Y-102490302D01*
X166286120Y-102955849D01*
X166176887Y-103505000D01*
X165265000Y-103505000D01*
X165265248Y-103220813D01*
X165047243Y-102693200D01*
X164643923Y-102289176D01*
X164116691Y-102070250D01*
X163545813Y-102069752D01*
X163018200Y-102287757D01*
X162614176Y-102691077D01*
X162395250Y-103218309D01*
X162394752Y-103789187D01*
X161426584Y-103789187D01*
X161483113Y-103505000D01*
X161373880Y-102955849D01*
X161062811Y-102490302D01*
X160680725Y-102235000D01*
X161062811Y-101979698D01*
X161373880Y-101514151D01*
X161483113Y-100965000D01*
X161373880Y-100415849D01*
X161062811Y-99950302D01*
X160680725Y-99695000D01*
X160953488Y-99512745D01*
X163001861Y-99512745D01*
X163075995Y-99758864D01*
X163613223Y-99951965D01*
X164183454Y-99924778D01*
X164584005Y-99758864D01*
X164658139Y-99512745D01*
X163830000Y-98684605D01*
X163001861Y-99512745D01*
X160953488Y-99512745D01*
X161062811Y-99439698D01*
X161373880Y-98974151D01*
X161483113Y-98425000D01*
X161455907Y-98288223D01*
X162383035Y-98288223D01*
X162410222Y-98858454D01*
X162576136Y-99259005D01*
X162822255Y-99333139D01*
X163650395Y-98505000D01*
X164009605Y-98505000D01*
X164837745Y-99333139D01*
X165083864Y-99259005D01*
X165276965Y-98721777D01*
X165249778Y-98151546D01*
X165083864Y-97750995D01*
X164837745Y-97676861D01*
X164009605Y-98505000D01*
X163650395Y-98505000D01*
X162822255Y-97676861D01*
X162576136Y-97750995D01*
X162383035Y-98288223D01*
X161455907Y-98288223D01*
X161373880Y-97875849D01*
X161120912Y-97497255D01*
X163001861Y-97497255D01*
X163830000Y-98325395D01*
X164530394Y-97625000D01*
X166192560Y-97625000D01*
X166192560Y-99225000D01*
X166236838Y-99460317D01*
X166375910Y-99676441D01*
X166588110Y-99821431D01*
X166747616Y-99853732D01*
X166408959Y-100227577D01*
X166248096Y-100615961D01*
X166370085Y-100838000D01*
X167513000Y-100838000D01*
X167513000Y-100818000D01*
X167767000Y-100818000D01*
X167767000Y-100838000D01*
X168909915Y-100838000D01*
X169031904Y-100615961D01*
X168871041Y-100227577D01*
X168533410Y-99854864D01*
X168675317Y-99828162D01*
X168891441Y-99689090D01*
X169036431Y-99476890D01*
X169087440Y-99225000D01*
X169087440Y-98425000D01*
X173796887Y-98425000D01*
X173906120Y-98974151D01*
X174217189Y-99439698D01*
X174599275Y-99695000D01*
X174217189Y-99950302D01*
X173906120Y-100415849D01*
X173796887Y-100965000D01*
X173906120Y-101514151D01*
X174217189Y-101979698D01*
X174599275Y-102235000D01*
X174217189Y-102490302D01*
X173906120Y-102955849D01*
X173796887Y-103505000D01*
X173906120Y-104054151D01*
X174217189Y-104519698D01*
X174599275Y-104775000D01*
X174217189Y-105030302D01*
X173906120Y-105495849D01*
X173796887Y-106045000D01*
X173906120Y-106594151D01*
X174217189Y-107059698D01*
X174682736Y-107370767D01*
X175231887Y-107480000D01*
X175288113Y-107480000D01*
X175837264Y-107370767D01*
X176302811Y-107059698D01*
X176613880Y-106594151D01*
X176723113Y-106045000D01*
X176613880Y-105495849D01*
X176302811Y-105030302D01*
X175920725Y-104775000D01*
X176302811Y-104519698D01*
X176613880Y-104054151D01*
X176666584Y-103789187D01*
X177634752Y-103789187D01*
X177852757Y-104316800D01*
X178256077Y-104720824D01*
X178783309Y-104939750D01*
X179354187Y-104940248D01*
X179881800Y-104722243D01*
X180285824Y-104318923D01*
X180504750Y-103791691D01*
X180505248Y-103220813D01*
X180287243Y-102693200D01*
X179883923Y-102289176D01*
X179356691Y-102070250D01*
X178785813Y-102069752D01*
X178258200Y-102287757D01*
X177854176Y-102691077D01*
X177635250Y-103218309D01*
X177634752Y-103789187D01*
X176666584Y-103789187D01*
X176723113Y-103505000D01*
X176613880Y-102955849D01*
X176302811Y-102490302D01*
X175920725Y-102235000D01*
X176302811Y-101979698D01*
X176613880Y-101514151D01*
X176723113Y-100965000D01*
X181365907Y-100965000D01*
X181478946Y-101533285D01*
X181800853Y-102015054D01*
X182130026Y-102235000D01*
X181800853Y-102454946D01*
X181478946Y-102936715D01*
X181365907Y-103505000D01*
X181478946Y-104073285D01*
X181800853Y-104555054D01*
X182130026Y-104775000D01*
X181800853Y-104994946D01*
X181478946Y-105476715D01*
X181365907Y-106045000D01*
X181478946Y-106613285D01*
X181800853Y-107095054D01*
X182130026Y-107315000D01*
X181800853Y-107534946D01*
X181478946Y-108016715D01*
X181365907Y-108585000D01*
X181478946Y-109153285D01*
X181800853Y-109635054D01*
X182282622Y-109956961D01*
X182850907Y-110070000D01*
X182909093Y-110070000D01*
X183477378Y-109956961D01*
X183959147Y-109635054D01*
X184150000Y-109349422D01*
X184340853Y-109635054D01*
X184822622Y-109956961D01*
X185390907Y-110070000D01*
X185449093Y-110070000D01*
X186017378Y-109956961D01*
X186499147Y-109635054D01*
X186821054Y-109153285D01*
X186934093Y-108585000D01*
X186821054Y-108016715D01*
X186499147Y-107534946D01*
X186169974Y-107315000D01*
X186499147Y-107095054D01*
X186821054Y-106613285D01*
X186934093Y-106045000D01*
X186821054Y-105476715D01*
X186499147Y-104994946D01*
X186169974Y-104775000D01*
X186499147Y-104555054D01*
X186821054Y-104073285D01*
X186934093Y-103505000D01*
X186821054Y-102936715D01*
X186499147Y-102454946D01*
X186169974Y-102235000D01*
X186499147Y-102015054D01*
X186821054Y-101533285D01*
X186934093Y-100965000D01*
X186821054Y-100396715D01*
X186499147Y-99914946D01*
X186169974Y-99695000D01*
X186499147Y-99475054D01*
X186821054Y-98993285D01*
X186934093Y-98425000D01*
X186821054Y-97856715D01*
X186499147Y-97374946D01*
X186017378Y-97053039D01*
X185449093Y-96940000D01*
X185390907Y-96940000D01*
X184822622Y-97053039D01*
X184340853Y-97374946D01*
X184340029Y-97376179D01*
X184333162Y-97339683D01*
X184194090Y-97123559D01*
X183981890Y-96978569D01*
X183730000Y-96927560D01*
X182030000Y-96927560D01*
X181794683Y-96971838D01*
X181578559Y-97110910D01*
X181433569Y-97323110D01*
X181382560Y-97575000D01*
X181382560Y-99275000D01*
X181426838Y-99510317D01*
X181565910Y-99726441D01*
X181778110Y-99871431D01*
X181845541Y-99885086D01*
X181800853Y-99914946D01*
X181478946Y-100396715D01*
X181365907Y-100965000D01*
X176723113Y-100965000D01*
X176613880Y-100415849D01*
X176302811Y-99950302D01*
X175920725Y-99695000D01*
X176193488Y-99512745D01*
X178241861Y-99512745D01*
X178315995Y-99758864D01*
X178853223Y-99951965D01*
X179423454Y-99924778D01*
X179824005Y-99758864D01*
X179898139Y-99512745D01*
X179070000Y-98684605D01*
X178241861Y-99512745D01*
X176193488Y-99512745D01*
X176302811Y-99439698D01*
X176613880Y-98974151D01*
X176723113Y-98425000D01*
X176695907Y-98288223D01*
X177623035Y-98288223D01*
X177650222Y-98858454D01*
X177816136Y-99259005D01*
X178062255Y-99333139D01*
X178890395Y-98505000D01*
X179249605Y-98505000D01*
X180077745Y-99333139D01*
X180323864Y-99259005D01*
X180516965Y-98721777D01*
X180489778Y-98151546D01*
X180323864Y-97750995D01*
X180077745Y-97676861D01*
X179249605Y-98505000D01*
X178890395Y-98505000D01*
X178062255Y-97676861D01*
X177816136Y-97750995D01*
X177623035Y-98288223D01*
X176695907Y-98288223D01*
X176613880Y-97875849D01*
X176360912Y-97497255D01*
X178241861Y-97497255D01*
X179070000Y-98325395D01*
X179898139Y-97497255D01*
X179824005Y-97251136D01*
X179286777Y-97058035D01*
X178716546Y-97085222D01*
X178315995Y-97251136D01*
X178241861Y-97497255D01*
X176360912Y-97497255D01*
X176302811Y-97410302D01*
X175837264Y-97099233D01*
X175288113Y-96990000D01*
X175231887Y-96990000D01*
X174682736Y-97099233D01*
X174217189Y-97410302D01*
X173906120Y-97875849D01*
X173796887Y-98425000D01*
X169087440Y-98425000D01*
X169087440Y-97625000D01*
X169043162Y-97389683D01*
X168904090Y-97173559D01*
X168691890Y-97028569D01*
X168440000Y-96977560D01*
X168400000Y-96977560D01*
X168400000Y-94929802D01*
X168537362Y-94792440D01*
X169710000Y-94792440D01*
X169945317Y-94748162D01*
X170161441Y-94609090D01*
X170306431Y-94396890D01*
X170327680Y-94291959D01*
X170596077Y-94560824D01*
X171123309Y-94779750D01*
X171694187Y-94780248D01*
X172221800Y-94562243D01*
X172431663Y-94352745D01*
X174471861Y-94352745D01*
X174545995Y-94598864D01*
X175083223Y-94791965D01*
X175653454Y-94764778D01*
X176054005Y-94598864D01*
X176128139Y-94352745D01*
X175300000Y-93524605D01*
X174471861Y-94352745D01*
X172431663Y-94352745D01*
X172625824Y-94158923D01*
X172844750Y-93631691D01*
X172845189Y-93128223D01*
X173853035Y-93128223D01*
X173880222Y-93698454D01*
X174046136Y-94099005D01*
X174292255Y-94173139D01*
X175120395Y-93345000D01*
X175479605Y-93345000D01*
X176307745Y-94173139D01*
X176355167Y-94158855D01*
X176396838Y-94380317D01*
X176535910Y-94596441D01*
X176748110Y-94741431D01*
X177000000Y-94792440D01*
X178600000Y-94792440D01*
X178835317Y-94748162D01*
X179051441Y-94609090D01*
X179196431Y-94396890D01*
X179247440Y-94145000D01*
X179247440Y-92545000D01*
X179203162Y-92309683D01*
X179064090Y-92093559D01*
X178851890Y-91948569D01*
X178600000Y-91897560D01*
X177000000Y-91897560D01*
X176764683Y-91941838D01*
X176548559Y-92080910D01*
X176403569Y-92293110D01*
X176355354Y-92531201D01*
X176307745Y-92516861D01*
X175479605Y-93345000D01*
X175120395Y-93345000D01*
X174292255Y-92516861D01*
X174046136Y-92590995D01*
X173853035Y-93128223D01*
X172845189Y-93128223D01*
X172845248Y-93060813D01*
X172627243Y-92533200D01*
X172431640Y-92337255D01*
X174471861Y-92337255D01*
X175300000Y-93165395D01*
X176128139Y-92337255D01*
X176054005Y-92091136D01*
X175516777Y-91898035D01*
X174946546Y-91925222D01*
X174545995Y-92091136D01*
X174471861Y-92337255D01*
X172431640Y-92337255D01*
X172223923Y-92129176D01*
X171696691Y-91910250D01*
X171125813Y-91909752D01*
X170598200Y-92127757D01*
X170329417Y-92396072D01*
X170313162Y-92309683D01*
X170174090Y-92093559D01*
X169961890Y-91948569D01*
X169710000Y-91897560D01*
X168110000Y-91897560D01*
X167874683Y-91941838D01*
X167658559Y-92080910D01*
X167513569Y-92293110D01*
X167462560Y-92545000D01*
X167462560Y-93717638D01*
X167102599Y-94077599D01*
X166937852Y-94324161D01*
X166880000Y-94615000D01*
X166880000Y-96977560D01*
X166840000Y-96977560D01*
X166604683Y-97021838D01*
X166388559Y-97160910D01*
X166243569Y-97373110D01*
X166192560Y-97625000D01*
X164530394Y-97625000D01*
X164658139Y-97497255D01*
X164584005Y-97251136D01*
X164046777Y-97058035D01*
X163476546Y-97085222D01*
X163075995Y-97251136D01*
X163001861Y-97497255D01*
X161120912Y-97497255D01*
X161062811Y-97410302D01*
X160597264Y-97099233D01*
X160048113Y-96990000D01*
X159991887Y-96990000D01*
X159442736Y-97099233D01*
X158977189Y-97410302D01*
X158666120Y-97875849D01*
X158556887Y-98425000D01*
X153847440Y-98425000D01*
X153847440Y-97625000D01*
X153803162Y-97389683D01*
X153664090Y-97173559D01*
X153451890Y-97028569D01*
X153200000Y-96977560D01*
X151600000Y-96977560D01*
X151364683Y-97021838D01*
X151148559Y-97160910D01*
X151003569Y-97373110D01*
X150952560Y-97625000D01*
X150952560Y-97665000D01*
X150809802Y-97665000D01*
X150620000Y-97475198D01*
X150620000Y-95454187D01*
X163664752Y-95454187D01*
X163882757Y-95981800D01*
X164286077Y-96385824D01*
X164813309Y-96604750D01*
X165384187Y-96605248D01*
X165911800Y-96387243D01*
X166315824Y-95983923D01*
X166534750Y-95456691D01*
X166535248Y-94885813D01*
X166317243Y-94358200D01*
X165913923Y-93954176D01*
X165386691Y-93735250D01*
X164815813Y-93734752D01*
X164288200Y-93952757D01*
X163884176Y-94356077D01*
X163665250Y-94883309D01*
X163664752Y-95454187D01*
X150620000Y-95454187D01*
X150620000Y-94792440D01*
X150660000Y-94792440D01*
X150895317Y-94748162D01*
X151111441Y-94609090D01*
X151256431Y-94396890D01*
X151277680Y-94291959D01*
X151546077Y-94560824D01*
X152073309Y-94779750D01*
X152644187Y-94780248D01*
X153171800Y-94562243D01*
X153381663Y-94352745D01*
X155421861Y-94352745D01*
X155495995Y-94598864D01*
X156033223Y-94791965D01*
X156603454Y-94764778D01*
X157004005Y-94598864D01*
X157078139Y-94352745D01*
X156250000Y-93524605D01*
X155421861Y-94352745D01*
X153381663Y-94352745D01*
X153575824Y-94158923D01*
X153794750Y-93631691D01*
X153795189Y-93128223D01*
X154803035Y-93128223D01*
X154830222Y-93698454D01*
X154996136Y-94099005D01*
X155242255Y-94173139D01*
X156070395Y-93345000D01*
X156429605Y-93345000D01*
X157257745Y-94173139D01*
X157305167Y-94158855D01*
X157346838Y-94380317D01*
X157485910Y-94596441D01*
X157698110Y-94741431D01*
X157950000Y-94792440D01*
X159550000Y-94792440D01*
X159785317Y-94748162D01*
X160001441Y-94609090D01*
X160146431Y-94396890D01*
X160197440Y-94145000D01*
X160197440Y-92545000D01*
X160153162Y-92309683D01*
X160014090Y-92093559D01*
X159801890Y-91948569D01*
X159550000Y-91897560D01*
X157950000Y-91897560D01*
X157714683Y-91941838D01*
X157498559Y-92080910D01*
X157353569Y-92293110D01*
X157305354Y-92531201D01*
X157257745Y-92516861D01*
X156429605Y-93345000D01*
X156070395Y-93345000D01*
X155242255Y-92516861D01*
X154996136Y-92590995D01*
X154803035Y-93128223D01*
X153795189Y-93128223D01*
X153795248Y-93060813D01*
X153577243Y-92533200D01*
X153381640Y-92337255D01*
X155421861Y-92337255D01*
X156250000Y-93165395D01*
X157078139Y-92337255D01*
X157004005Y-92091136D01*
X156466777Y-91898035D01*
X155896546Y-91925222D01*
X155495995Y-92091136D01*
X155421861Y-92337255D01*
X153381640Y-92337255D01*
X153173923Y-92129176D01*
X152646691Y-91910250D01*
X152075813Y-91909752D01*
X151548200Y-92127757D01*
X151279417Y-92396072D01*
X151263162Y-92309683D01*
X151124090Y-92093559D01*
X150911890Y-91948569D01*
X150660000Y-91897560D01*
X149060000Y-91897560D01*
X148824683Y-91941838D01*
X148608559Y-92080910D01*
X148463569Y-92293110D01*
X148412560Y-92545000D01*
X95960000Y-92545000D01*
X95960000Y-90484774D01*
X102099831Y-90484774D01*
X102164131Y-90722611D01*
X102672342Y-90902333D01*
X103210644Y-90873892D01*
X103575869Y-90722611D01*
X103640169Y-90484774D01*
X102870000Y-89714605D01*
X102099831Y-90484774D01*
X95960000Y-90484774D01*
X95960000Y-89337342D01*
X101502667Y-89337342D01*
X101531108Y-89875644D01*
X101682389Y-90240869D01*
X101920226Y-90305169D01*
X102690395Y-89535000D01*
X103049605Y-89535000D01*
X103819774Y-90305169D01*
X104057611Y-90240869D01*
X104139669Y-90008828D01*
X104260617Y-90301543D01*
X104641452Y-90683043D01*
X105139291Y-90889764D01*
X105678344Y-90890235D01*
X106176543Y-90684383D01*
X106558043Y-90303548D01*
X106680045Y-90009736D01*
X106800617Y-90301543D01*
X107181452Y-90683043D01*
X107679291Y-90889764D01*
X108218344Y-90890235D01*
X108716543Y-90684383D01*
X108916500Y-90484774D01*
X116069831Y-90484774D01*
X116134131Y-90722611D01*
X116642342Y-90902333D01*
X117180644Y-90873892D01*
X117545869Y-90722611D01*
X117610169Y-90484774D01*
X116840000Y-89714605D01*
X116069831Y-90484774D01*
X108916500Y-90484774D01*
X109098043Y-90303548D01*
X109304764Y-89805709D01*
X109305173Y-89337342D01*
X115472667Y-89337342D01*
X115501108Y-89875644D01*
X115652389Y-90240869D01*
X115890226Y-90305169D01*
X116660395Y-89535000D01*
X117019605Y-89535000D01*
X117789774Y-90305169D01*
X118027611Y-90240869D01*
X118109669Y-90008828D01*
X118230617Y-90301543D01*
X118611452Y-90683043D01*
X119109291Y-90889764D01*
X119648344Y-90890235D01*
X120146543Y-90684383D01*
X120528043Y-90303548D01*
X120650045Y-90009736D01*
X120770617Y-90301543D01*
X121151452Y-90683043D01*
X121649291Y-90889764D01*
X122188344Y-90890235D01*
X122686543Y-90684383D01*
X122917140Y-90454187D01*
X144614752Y-90454187D01*
X144832757Y-90981800D01*
X145236077Y-91385824D01*
X145763309Y-91604750D01*
X146334187Y-91605248D01*
X146861800Y-91387243D01*
X147265824Y-90983923D01*
X147484750Y-90456691D01*
X147484752Y-90454187D01*
X163664752Y-90454187D01*
X163882757Y-90981800D01*
X164286077Y-91385824D01*
X164813309Y-91604750D01*
X165384187Y-91605248D01*
X165880925Y-91400000D01*
X182753275Y-91400000D01*
X182868217Y-91977852D01*
X183195544Y-92467731D01*
X183468329Y-92650000D01*
X183195544Y-92832269D01*
X182868217Y-93322148D01*
X182753275Y-93900000D01*
X182868217Y-94477852D01*
X183195544Y-94967731D01*
X183685423Y-95295058D01*
X184263275Y-95410000D01*
X186106725Y-95410000D01*
X186684577Y-95295058D01*
X187174456Y-94967731D01*
X187501783Y-94477852D01*
X187616725Y-93900000D01*
X187501783Y-93322148D01*
X187216484Y-92895167D01*
X187659838Y-92895167D01*
X187801883Y-93238943D01*
X187835000Y-93272118D01*
X187835000Y-97227537D01*
X187802808Y-97259673D01*
X187660162Y-97603201D01*
X187659838Y-97975167D01*
X187801883Y-98318943D01*
X187835000Y-98352118D01*
X187835000Y-102307537D01*
X187802808Y-102339673D01*
X187660162Y-102683201D01*
X187659838Y-103055167D01*
X187801883Y-103398943D01*
X187835000Y-103432118D01*
X187835000Y-107387537D01*
X187802808Y-107419673D01*
X187660162Y-107763201D01*
X187659838Y-108135167D01*
X187801883Y-108478943D01*
X188064673Y-108742192D01*
X188408201Y-108884838D01*
X188780167Y-108885162D01*
X189123943Y-108743117D01*
X189387192Y-108480327D01*
X189529838Y-108136799D01*
X189530162Y-107764833D01*
X189388117Y-107421057D01*
X189355000Y-107387882D01*
X189355000Y-103432463D01*
X189387192Y-103400327D01*
X189529838Y-103056799D01*
X189530162Y-102684833D01*
X189388117Y-102341057D01*
X189355000Y-102307882D01*
X189355000Y-98352463D01*
X189387192Y-98320327D01*
X189529838Y-97976799D01*
X189530162Y-97604833D01*
X189388117Y-97261057D01*
X189355000Y-97227882D01*
X189355000Y-93272463D01*
X189387192Y-93240327D01*
X189529838Y-92896799D01*
X189530162Y-92524833D01*
X189388117Y-92181057D01*
X189125327Y-91917808D01*
X188781799Y-91775162D01*
X188409833Y-91774838D01*
X188066057Y-91916883D01*
X187802808Y-92179673D01*
X187660162Y-92523201D01*
X187659838Y-92895167D01*
X187216484Y-92895167D01*
X187174456Y-92832269D01*
X186901671Y-92650000D01*
X187174456Y-92467731D01*
X187501783Y-91977852D01*
X187616725Y-91400000D01*
X187501783Y-90822148D01*
X187174456Y-90332269D01*
X186684577Y-90004942D01*
X186106725Y-89890000D01*
X184263275Y-89890000D01*
X183685423Y-90004942D01*
X183195544Y-90332269D01*
X182868217Y-90822148D01*
X182753275Y-91400000D01*
X165880925Y-91400000D01*
X165911800Y-91387243D01*
X166315824Y-90983923D01*
X166534750Y-90456691D01*
X166535248Y-89885813D01*
X166317243Y-89358200D01*
X165913923Y-88954176D01*
X165386691Y-88735250D01*
X164815813Y-88734752D01*
X164288200Y-88952757D01*
X163884176Y-89356077D01*
X163665250Y-89883309D01*
X163664752Y-90454187D01*
X147484752Y-90454187D01*
X147485248Y-89885813D01*
X147267243Y-89358200D01*
X146863923Y-88954176D01*
X146336691Y-88735250D01*
X145765813Y-88734752D01*
X145238200Y-88952757D01*
X144834176Y-89356077D01*
X144615250Y-89883309D01*
X144614752Y-90454187D01*
X122917140Y-90454187D01*
X123068043Y-90303548D01*
X123274764Y-89805709D01*
X123275235Y-89266656D01*
X123069383Y-88768457D01*
X122850496Y-88549187D01*
X147789752Y-88549187D01*
X148007757Y-89076800D01*
X148411077Y-89480824D01*
X148938309Y-89699750D01*
X149509187Y-89700248D01*
X150036800Y-89482243D01*
X150440824Y-89078923D01*
X150633860Y-88614039D01*
X157993096Y-88614039D01*
X158153959Y-89002423D01*
X158529866Y-89417389D01*
X159035959Y-89656914D01*
X159258000Y-89535629D01*
X159258000Y-88392000D01*
X159512000Y-88392000D01*
X159512000Y-89535629D01*
X159734041Y-89656914D01*
X160240134Y-89417389D01*
X160616041Y-89002423D01*
X160776904Y-88614039D01*
X160741275Y-88549187D01*
X166839752Y-88549187D01*
X167057757Y-89076800D01*
X167461077Y-89480824D01*
X167988309Y-89699750D01*
X168559187Y-89700248D01*
X169086800Y-89482243D01*
X169490824Y-89078923D01*
X169683860Y-88614039D01*
X177043096Y-88614039D01*
X177203959Y-89002423D01*
X177579866Y-89417389D01*
X178085959Y-89656914D01*
X178308000Y-89535629D01*
X178308000Y-88392000D01*
X178562000Y-88392000D01*
X178562000Y-89535629D01*
X178784041Y-89656914D01*
X179290134Y-89417389D01*
X179499969Y-89185750D01*
X188306000Y-89185750D01*
X188306000Y-90776309D01*
X188402673Y-91009698D01*
X188581301Y-91188327D01*
X188814690Y-91285000D01*
X189905250Y-91285000D01*
X190064000Y-91126250D01*
X190064000Y-89027000D01*
X190318000Y-89027000D01*
X190318000Y-91126250D01*
X190476750Y-91285000D01*
X191567310Y-91285000D01*
X191800699Y-91188327D01*
X191979327Y-91009698D01*
X192076000Y-90776309D01*
X192076000Y-89185750D01*
X191917250Y-89027000D01*
X190318000Y-89027000D01*
X190064000Y-89027000D01*
X188464750Y-89027000D01*
X188306000Y-89185750D01*
X179499969Y-89185750D01*
X179666041Y-89002423D01*
X179826904Y-88614039D01*
X179704915Y-88392000D01*
X178562000Y-88392000D01*
X178308000Y-88392000D01*
X177165085Y-88392000D01*
X177043096Y-88614039D01*
X169683860Y-88614039D01*
X169709750Y-88551691D01*
X169710248Y-87980813D01*
X169683452Y-87915961D01*
X177043096Y-87915961D01*
X177165085Y-88138000D01*
X178308000Y-88138000D01*
X178308000Y-86994371D01*
X178562000Y-86994371D01*
X178562000Y-88138000D01*
X179704915Y-88138000D01*
X179826904Y-87915961D01*
X179666041Y-87527577D01*
X179290134Y-87112611D01*
X178784041Y-86873086D01*
X178562000Y-86994371D01*
X178308000Y-86994371D01*
X178085959Y-86873086D01*
X177579866Y-87112611D01*
X177203959Y-87527577D01*
X177043096Y-87915961D01*
X169683452Y-87915961D01*
X169492243Y-87453200D01*
X169088923Y-87049176D01*
X168561691Y-86830250D01*
X167990813Y-86829752D01*
X167463200Y-87047757D01*
X167059176Y-87451077D01*
X166840250Y-87978309D01*
X166839752Y-88549187D01*
X160741275Y-88549187D01*
X160654915Y-88392000D01*
X159512000Y-88392000D01*
X159258000Y-88392000D01*
X158115085Y-88392000D01*
X157993096Y-88614039D01*
X150633860Y-88614039D01*
X150659750Y-88551691D01*
X150660248Y-87980813D01*
X150633452Y-87915961D01*
X157993096Y-87915961D01*
X158115085Y-88138000D01*
X159258000Y-88138000D01*
X159258000Y-86994371D01*
X159512000Y-86994371D01*
X159512000Y-88138000D01*
X160654915Y-88138000D01*
X160776904Y-87915961D01*
X160616041Y-87527577D01*
X160240134Y-87112611D01*
X159734041Y-86873086D01*
X159512000Y-86994371D01*
X159258000Y-86994371D01*
X159035959Y-86873086D01*
X158529866Y-87112611D01*
X158153959Y-87527577D01*
X157993096Y-87915961D01*
X150633452Y-87915961D01*
X150442243Y-87453200D01*
X150038923Y-87049176D01*
X149511691Y-86830250D01*
X148940813Y-86829752D01*
X148413200Y-87047757D01*
X148009176Y-87451077D01*
X147790250Y-87978309D01*
X147789752Y-88549187D01*
X122850496Y-88549187D01*
X122688548Y-88386957D01*
X122190709Y-88180236D01*
X121651656Y-88179765D01*
X121153457Y-88385617D01*
X120771957Y-88766452D01*
X120649955Y-89060264D01*
X120529383Y-88768457D01*
X120148548Y-88386957D01*
X119650709Y-88180236D01*
X119111656Y-88179765D01*
X118613457Y-88385617D01*
X118231957Y-88766452D01*
X118116661Y-89044116D01*
X118027611Y-88829131D01*
X117789774Y-88764831D01*
X117019605Y-89535000D01*
X116660395Y-89535000D01*
X115890226Y-88764831D01*
X115652389Y-88829131D01*
X115472667Y-89337342D01*
X109305173Y-89337342D01*
X109305235Y-89266656D01*
X109099383Y-88768457D01*
X108916472Y-88585226D01*
X116069831Y-88585226D01*
X116840000Y-89355395D01*
X117610169Y-88585226D01*
X117545869Y-88347389D01*
X117037658Y-88167667D01*
X116499356Y-88196108D01*
X116134131Y-88347389D01*
X116069831Y-88585226D01*
X108916472Y-88585226D01*
X108718548Y-88386957D01*
X108220709Y-88180236D01*
X107681656Y-88179765D01*
X107183457Y-88385617D01*
X106801957Y-88766452D01*
X106679955Y-89060264D01*
X106559383Y-88768457D01*
X106178548Y-88386957D01*
X105680709Y-88180236D01*
X105141656Y-88179765D01*
X104643457Y-88385617D01*
X104261957Y-88766452D01*
X104146661Y-89044116D01*
X104057611Y-88829131D01*
X103819774Y-88764831D01*
X103049605Y-89535000D01*
X102690395Y-89535000D01*
X101920226Y-88764831D01*
X101682389Y-88829131D01*
X101502667Y-89337342D01*
X95960000Y-89337342D01*
X95960000Y-88585226D01*
X102099831Y-88585226D01*
X102870000Y-89355395D01*
X103640169Y-88585226D01*
X103575869Y-88347389D01*
X103067658Y-88167667D01*
X102529356Y-88196108D01*
X102164131Y-88347389D01*
X102099831Y-88585226D01*
X95960000Y-88585226D01*
X95960000Y-85159931D01*
X96006730Y-84925000D01*
X142062560Y-84925000D01*
X142062560Y-86525000D01*
X142106838Y-86760317D01*
X142245910Y-86976441D01*
X142458110Y-87121431D01*
X142710000Y-87172440D01*
X144310000Y-87172440D01*
X144545317Y-87128162D01*
X144761441Y-86989090D01*
X144906431Y-86776890D01*
X144927680Y-86671959D01*
X145196077Y-86940824D01*
X145723309Y-87159750D01*
X146294187Y-87160248D01*
X146821800Y-86942243D01*
X147225824Y-86538923D01*
X147444750Y-86011691D01*
X147445248Y-85440813D01*
X147227243Y-84913200D01*
X147053534Y-84739187D01*
X147789752Y-84739187D01*
X148007757Y-85266800D01*
X148411077Y-85670824D01*
X148938309Y-85889750D01*
X149509187Y-85890248D01*
X150036800Y-85672243D01*
X150440824Y-85268923D01*
X150659750Y-84741691D01*
X150660000Y-84455000D01*
X157921887Y-84455000D01*
X158031120Y-85004151D01*
X158342189Y-85469698D01*
X158807736Y-85780767D01*
X159356887Y-85890000D01*
X159413113Y-85890000D01*
X159962264Y-85780767D01*
X160427811Y-85469698D01*
X160738880Y-85004151D01*
X160754624Y-84925000D01*
X161112560Y-84925000D01*
X161112560Y-86525000D01*
X161156838Y-86760317D01*
X161295910Y-86976441D01*
X161508110Y-87121431D01*
X161760000Y-87172440D01*
X163360000Y-87172440D01*
X163595317Y-87128162D01*
X163811441Y-86989090D01*
X163956431Y-86776890D01*
X163977680Y-86671959D01*
X164246077Y-86940824D01*
X164773309Y-87159750D01*
X165344187Y-87160248D01*
X165871800Y-86942243D01*
X166275824Y-86538923D01*
X166494750Y-86011691D01*
X166495248Y-85440813D01*
X166277243Y-84913200D01*
X165873923Y-84509176D01*
X165743453Y-84455000D01*
X166811887Y-84455000D01*
X166921120Y-85004151D01*
X167232189Y-85469698D01*
X167697736Y-85780767D01*
X168246887Y-85890000D01*
X168303113Y-85890000D01*
X168852264Y-85780767D01*
X169317811Y-85469698D01*
X169628880Y-85004151D01*
X169681584Y-84739187D01*
X176999752Y-84739187D01*
X177217757Y-85266800D01*
X177621077Y-85670824D01*
X178148309Y-85889750D01*
X178719187Y-85890248D01*
X179246800Y-85672243D01*
X179650824Y-85268923D01*
X179869750Y-84741691D01*
X179870248Y-84170813D01*
X179758351Y-83900000D01*
X182753275Y-83900000D01*
X182868217Y-84477852D01*
X183195544Y-84967731D01*
X183468329Y-85150000D01*
X183195544Y-85332269D01*
X182868217Y-85822148D01*
X182753275Y-86400000D01*
X182868217Y-86977852D01*
X183195544Y-87467731D01*
X183685423Y-87795058D01*
X184263275Y-87910000D01*
X186106725Y-87910000D01*
X186684577Y-87795058D01*
X187174456Y-87467731D01*
X187471154Y-87023691D01*
X188306000Y-87023691D01*
X188306000Y-88614250D01*
X188464750Y-88773000D01*
X190064000Y-88773000D01*
X190064000Y-86673750D01*
X190318000Y-86673750D01*
X190318000Y-88773000D01*
X191917250Y-88773000D01*
X192076000Y-88614250D01*
X192076000Y-87023691D01*
X191979327Y-86790302D01*
X191800699Y-86611673D01*
X191567310Y-86515000D01*
X190476750Y-86515000D01*
X190318000Y-86673750D01*
X190064000Y-86673750D01*
X189905250Y-86515000D01*
X188814690Y-86515000D01*
X188581301Y-86611673D01*
X188402673Y-86790302D01*
X188306000Y-87023691D01*
X187471154Y-87023691D01*
X187501783Y-86977852D01*
X187616725Y-86400000D01*
X187501783Y-85822148D01*
X187174456Y-85332269D01*
X186901671Y-85150000D01*
X187174456Y-84967731D01*
X187501783Y-84477852D01*
X187616725Y-83900000D01*
X187501783Y-83322148D01*
X187174456Y-82832269D01*
X186684577Y-82504942D01*
X186106725Y-82390000D01*
X184263275Y-82390000D01*
X183685423Y-82504942D01*
X183195544Y-82832269D01*
X182868217Y-83322148D01*
X182753275Y-83900000D01*
X179758351Y-83900000D01*
X179652243Y-83643200D01*
X179248923Y-83239176D01*
X178721691Y-83020250D01*
X178150813Y-83019752D01*
X177623200Y-83237757D01*
X177219176Y-83641077D01*
X177000250Y-84168309D01*
X176999752Y-84739187D01*
X169681584Y-84739187D01*
X169738113Y-84455000D01*
X169628880Y-83905849D01*
X169317811Y-83440302D01*
X168852264Y-83129233D01*
X168303113Y-83020000D01*
X168246887Y-83020000D01*
X167697736Y-83129233D01*
X167232189Y-83440302D01*
X166921120Y-83905849D01*
X166811887Y-84455000D01*
X165743453Y-84455000D01*
X165346691Y-84290250D01*
X164775813Y-84289752D01*
X164248200Y-84507757D01*
X163979417Y-84776072D01*
X163963162Y-84689683D01*
X163824090Y-84473559D01*
X163611890Y-84328569D01*
X163360000Y-84277560D01*
X161760000Y-84277560D01*
X161524683Y-84321838D01*
X161308559Y-84460910D01*
X161163569Y-84673110D01*
X161112560Y-84925000D01*
X160754624Y-84925000D01*
X160848113Y-84455000D01*
X160738880Y-83905849D01*
X160427811Y-83440302D01*
X159962264Y-83129233D01*
X159413113Y-83020000D01*
X159356887Y-83020000D01*
X158807736Y-83129233D01*
X158342189Y-83440302D01*
X158031120Y-83905849D01*
X157921887Y-84455000D01*
X150660000Y-84455000D01*
X150660248Y-84170813D01*
X150442243Y-83643200D01*
X150038923Y-83239176D01*
X149511691Y-83020250D01*
X148940813Y-83019752D01*
X148413200Y-83237757D01*
X148009176Y-83641077D01*
X147790250Y-84168309D01*
X147789752Y-84739187D01*
X147053534Y-84739187D01*
X146823923Y-84509176D01*
X146296691Y-84290250D01*
X145725813Y-84289752D01*
X145198200Y-84507757D01*
X144929417Y-84776072D01*
X144913162Y-84689683D01*
X144774090Y-84473559D01*
X144561890Y-84328569D01*
X144310000Y-84277560D01*
X142710000Y-84277560D01*
X142474683Y-84321838D01*
X142258559Y-84460910D01*
X142113569Y-84673110D01*
X142062560Y-84925000D01*
X96006730Y-84925000D01*
X96257161Y-83665999D01*
X97063791Y-82458791D01*
X98271001Y-81652161D01*
X98703131Y-81566205D01*
X98511371Y-81757630D01*
X98298243Y-82270900D01*
X98297758Y-82826661D01*
X98509990Y-83340303D01*
X98902630Y-83733629D01*
X99415900Y-83946757D01*
X99971661Y-83947242D01*
X100485303Y-83735010D01*
X100878629Y-83342370D01*
X101091757Y-82829100D01*
X101092242Y-82273339D01*
X100880010Y-81759697D01*
X100487370Y-81366371D01*
X100459986Y-81355000D01*
X110358875Y-81355000D01*
X110334697Y-81364990D01*
M02*
