M48
;DRILL file {KiCad 4.0.7} date 01/23/20 16:06:01
;FORMAT={2:4/ absolute / inch / suppress leading zeros}
FMAT,2
INCH,TZ
T1C0.016
T2C0.031
T3C0.039
T4C0.047
T5C0.030
%
G90
G05
M72
T1
X37750Y-42500
X43000Y-45000
X43000Y-50500
X43250Y-46000
X43250Y-50750
X43500Y-47000
X43500Y-50500
X43750Y-48000
X43750Y-50750
X44000Y-49000
X44000Y-50500
X44250Y-50000
X44250Y-50750
X48250Y-45500
X49750Y-45250
X49750Y-52500
X50000Y-45000
X50000Y-52750
X50250Y-43500
X50250Y-52500
X50500Y-45000
X50500Y-51000
X50500Y-52750
X50750Y-50000
X50750Y-52500
X51000Y-49000
X51000Y-52750
X51250Y-48000
X51250Y-52500
X51500Y-47000
X51500Y-52750
X60750Y-56000
X61750Y-45500
X61750Y-50000
X61750Y-56250
X62000Y-46500
X62000Y-50250
X62250Y-47500
X62250Y-50000
X62500Y-49250
X62750Y-56500
X63750Y-56750
X64250Y-43000
X64500Y-42500
X68000Y-45500
X68000Y-49750
X68250Y-46500
X68250Y-50000
X68500Y-47250
X68500Y-50250
X74250Y-36500
X74250Y-38500
X74250Y-40500
X74250Y-42500
T2
X38500Y-38750
X38500Y-40719
X38500Y-41750
X38500Y-43719
X39000Y-55250
X39984Y-55250
X40000Y-38750
X40000Y-39750
X40000Y-40750
X40000Y-41750
X40000Y-42750
X40000Y-43750
X40000Y-44750
X40000Y-45750
X40000Y-46750
X40000Y-47750
X40000Y-48750
X40000Y-49750
X40000Y-50750
X40000Y-51750
X40500Y-35250
X41500Y-35250
X42500Y-35250
X46000Y-35250
X46000Y-38750
X46000Y-39750
X46000Y-40750
X46000Y-41750
X46000Y-42750
X46000Y-43750
X46000Y-44750
X46000Y-45750
X46000Y-46750
X46000Y-47750
X46000Y-48750
X46000Y-49750
X46000Y-50750
X46000Y-51750
X47000Y-35250
X47500Y-38750
X47500Y-40719
X47500Y-41750
X47500Y-43719
X47500Y-44750
X47500Y-46719
X48000Y-35250
X49000Y-38750
X49000Y-39750
X49000Y-40750
X49000Y-41750
X49000Y-42750
X49000Y-43750
X49000Y-44750
X49000Y-45750
X49000Y-46750
X49000Y-47750
X49000Y-48750
X49000Y-49750
X49000Y-50750
X49000Y-51750
X55000Y-38750
X55000Y-39750
X55000Y-40750
X55000Y-41750
X55000Y-42750
X55000Y-43750
X55000Y-44750
X55000Y-45750
X55000Y-46750
X55000Y-47750
X55000Y-48750
X55000Y-49750
X55000Y-50750
X55000Y-51750
X56500Y-33750
X56500Y-41750
X56500Y-43719
X57484Y-33750
X57500Y-35500
X57500Y-37469
X58750Y-33250
X58750Y-34750
X59000Y-36750
X59984Y-36750
X60000Y-38750
X60000Y-39750
X60000Y-40750
X60000Y-41750
X60000Y-44750
X60000Y-45750
X60000Y-46750
X60000Y-47750
X60000Y-48750
X60000Y-49750
X60000Y-50750
X60000Y-51750
X61516Y-36750
X62500Y-36750
X62750Y-33250
X62750Y-34750
X63000Y-38750
X63000Y-39750
X63000Y-40750
X63000Y-41750
X63000Y-44750
X63000Y-45750
X63000Y-46750
X63000Y-47750
X63000Y-48750
X63000Y-49750
X63000Y-50750
X63000Y-51750
X64000Y-33750
X64500Y-38781
X64500Y-40750
X64500Y-44750
X64500Y-46719
X64984Y-33750
X65000Y-35500
X65000Y-37469
X66000Y-38750
X66000Y-39750
X66000Y-40750
X66000Y-41750
X66000Y-44750
X66000Y-45750
X66000Y-46750
X66000Y-47750
X66000Y-48750
X66000Y-49750
X66000Y-50750
X66000Y-51750
X66250Y-33250
X66250Y-34750
X66500Y-36750
X67484Y-36750
X69000Y-38750
X69000Y-39750
X69000Y-40750
X69000Y-41750
X69000Y-44750
X69000Y-45750
X69000Y-46750
X69000Y-47750
X69000Y-48750
X69000Y-49750
X69000Y-50750
X69000Y-51750
X69016Y-36750
X70000Y-36750
X70250Y-33250
X70250Y-34750
X70500Y-38781
X70500Y-40750
X70500Y-44750
X70500Y-46719
T3
X38000Y-58000
X39000Y-58000
X40000Y-58000
X41000Y-58000
X42000Y-58000
X43000Y-58000
X44000Y-58000
X45000Y-58000
X46000Y-58000
X47000Y-58000
X48000Y-58000
X49000Y-58000
X50000Y-58000
X51000Y-58000
X52000Y-58000
X53000Y-58000
X54000Y-58000
X55000Y-58000
X56000Y-58000
X57000Y-58000
X58000Y-58000
X59000Y-58000
X60000Y-58000
X61000Y-58000
X62000Y-58000
X63000Y-58000
X64000Y-58000
X65000Y-58000
X66000Y-58000
X67000Y-58000
X68000Y-58000
X69000Y-58000
X70000Y-58000
X71000Y-58000
X72000Y-38750
X72000Y-39750
X72000Y-40750
X72000Y-41750
X72000Y-42750
X72000Y-46750
X72000Y-47750
X72000Y-48750
X72000Y-49750
X72000Y-50750
X72000Y-51750
X72000Y-58000
X73000Y-38750
X73000Y-39750
X73000Y-40750
X73000Y-41750
X73000Y-42750
X73000Y-46750
X73000Y-47750
X73000Y-48750
X73000Y-49750
X73000Y-50750
X73000Y-51750
X73000Y-58000
X74000Y-58000
X75000Y-58000
X76000Y-58000
T4
X72907Y-33031
X72907Y-34016
X72907Y-35984
X72907Y-36969
X74878Y-35000
T5
X39250Y-32500
X43750Y-32500
X44750Y-32500
X49250Y-32500
T0
M30
