G04 #@! TF.FileFunction,Copper,L2,Bot,Signal*
%FSLAX46Y46*%
G04 Gerber Fmt 4.6, Leading zero omitted, Abs format (unit mm)*
G04 Created by KiCad (PCBNEW 4.0.7) date 11/07/19 19:47:27*
%MOMM*%
%LPD*%
G01*
G04 APERTURE LIST*
%ADD10C,0.100000*%
%ADD11R,1.800000X1.800000*%
%ADD12C,1.800000*%
%ADD13R,1.700000X1.700000*%
%ADD14O,1.700000X1.700000*%
%ADD15C,1.600000*%
%ADD16O,1.600000X1.600000*%
%ADD17C,2.000000*%
%ADD18C,1.524000*%
%ADD19C,0.600000*%
%ADD20C,0.250000*%
%ADD21C,0.254000*%
G04 APERTURE END LIST*
D10*
D11*
X126365000Y-105410000D03*
D12*
X126365000Y-102870000D03*
D11*
X134620000Y-105410000D03*
D12*
X134620000Y-102870000D03*
D13*
X162560000Y-138430000D03*
D14*
X162560000Y-140970000D03*
X160020000Y-138430000D03*
X160020000Y-140970000D03*
X157480000Y-138430000D03*
X157480000Y-140970000D03*
X154940000Y-138430000D03*
X154940000Y-140970000D03*
X152400000Y-138430000D03*
X152400000Y-140970000D03*
X149860000Y-138430000D03*
X149860000Y-140970000D03*
X147320000Y-138430000D03*
X147320000Y-140970000D03*
X144780000Y-138430000D03*
X144780000Y-140970000D03*
D15*
X125730000Y-116840000D03*
D16*
X135890000Y-116840000D03*
D15*
X125730000Y-120650000D03*
D16*
X135890000Y-120650000D03*
D17*
X180340000Y-106735000D03*
X180340000Y-102235000D03*
X186840000Y-106735000D03*
X186840000Y-102235000D03*
D13*
X125730000Y-138430000D03*
D14*
X125730000Y-140970000D03*
D18*
X147320000Y-132080000D03*
X147320000Y-129540000D03*
X147320000Y-127000000D03*
X147320000Y-124460000D03*
X147320000Y-121920000D03*
X147320000Y-119380000D03*
X147320000Y-116840000D03*
X147320000Y-114300000D03*
X147320000Y-111760000D03*
X147320000Y-109220000D03*
X147320000Y-106680000D03*
X147320000Y-104140000D03*
X144780000Y-106680000D03*
X144780000Y-109220000D03*
X144780000Y-111760000D03*
X144780000Y-114300000D03*
X144780000Y-116840000D03*
X144780000Y-119380000D03*
X144780000Y-121920000D03*
X144780000Y-124460000D03*
X144780000Y-127000000D03*
X144780000Y-129540000D03*
X144780000Y-132080000D03*
X162560000Y-132080000D03*
X162560000Y-129540000D03*
X162560000Y-127000000D03*
X162560000Y-124460000D03*
X162560000Y-121920000D03*
X162560000Y-119380000D03*
X162560000Y-116840000D03*
X162560000Y-114300000D03*
X162560000Y-111760000D03*
X162560000Y-109220000D03*
X162560000Y-106680000D03*
X162560000Y-104140000D03*
X144780000Y-104140000D03*
D19*
X156210000Y-130810000D03*
X158115000Y-130175000D03*
X153670000Y-127000000D03*
X154305000Y-125730000D03*
X153670000Y-125095000D03*
D20*
X152400000Y-138430000D02*
X152400000Y-132715000D01*
X153035000Y-130810000D02*
X156210000Y-130810000D01*
X152400000Y-131445000D02*
X153035000Y-130810000D01*
X152400000Y-132715000D02*
X152400000Y-131445000D01*
X152400000Y-140970000D02*
X153670000Y-139700000D01*
X157480000Y-130810000D02*
X158115000Y-130175000D01*
X156845000Y-131445000D02*
X157480000Y-130810000D01*
X154305000Y-131445000D02*
X156845000Y-131445000D01*
X153670000Y-132080000D02*
X154305000Y-131445000D01*
X153670000Y-139700000D02*
X153670000Y-132080000D01*
X153670000Y-127000000D02*
X150495000Y-127000000D01*
X148590000Y-139700000D02*
X149860000Y-140970000D01*
X148590000Y-135890000D02*
X148590000Y-139700000D01*
X149860000Y-134620000D02*
X148590000Y-135890000D01*
X149860000Y-127635000D02*
X149860000Y-134620000D01*
X150495000Y-127000000D02*
X149860000Y-127635000D01*
X149225000Y-127000000D02*
X149860000Y-126365000D01*
X153670000Y-126365000D02*
X154305000Y-125730000D01*
X149860000Y-126365000D02*
X153670000Y-126365000D01*
X148590000Y-134620000D02*
X147320000Y-135890000D01*
X147320000Y-138430000D02*
X147320000Y-135890000D01*
X149225000Y-133985000D02*
X149225000Y-127000000D01*
X148590000Y-134620000D02*
X149225000Y-133985000D01*
X148590000Y-126365000D02*
X149225000Y-125730000D01*
X153035000Y-125730000D02*
X153670000Y-125095000D01*
X149225000Y-125730000D02*
X153035000Y-125730000D01*
X147955000Y-133985000D02*
X144780000Y-137160000D01*
X144780000Y-137160000D02*
X144780000Y-138430000D01*
X148590000Y-133350000D02*
X147955000Y-133985000D01*
X148590000Y-126365000D02*
X148590000Y-133350000D01*
D21*
G36*
X188803979Y-99825478D02*
X188981145Y-99943856D01*
X189099521Y-100121019D01*
X189155000Y-100399931D01*
X189155000Y-143435000D01*
X118185000Y-143435000D01*
X118185000Y-140970000D01*
X124215907Y-140970000D01*
X124328946Y-141538285D01*
X124650853Y-142020054D01*
X125132622Y-142341961D01*
X125700907Y-142455000D01*
X125759093Y-142455000D01*
X126327378Y-142341961D01*
X126809147Y-142020054D01*
X127131054Y-141538285D01*
X127173102Y-141326892D01*
X143338514Y-141326892D01*
X143584817Y-141851358D01*
X144013076Y-142241645D01*
X144423110Y-142411476D01*
X144653000Y-142290155D01*
X144653000Y-141097000D01*
X143459181Y-141097000D01*
X143338514Y-141326892D01*
X127173102Y-141326892D01*
X127244093Y-140970000D01*
X127131054Y-140401715D01*
X126809147Y-139919946D01*
X126767548Y-139892150D01*
X126815317Y-139883162D01*
X127031441Y-139744090D01*
X127176431Y-139531890D01*
X127227440Y-139280000D01*
X127227440Y-138400907D01*
X143295000Y-138400907D01*
X143295000Y-138459093D01*
X143408039Y-139027378D01*
X143729946Y-139509147D01*
X144013101Y-139698345D01*
X144013076Y-139698355D01*
X143584817Y-140088642D01*
X143338514Y-140613108D01*
X143459181Y-140843000D01*
X144653000Y-140843000D01*
X144653000Y-140823000D01*
X144907000Y-140823000D01*
X144907000Y-140843000D01*
X144927000Y-140843000D01*
X144927000Y-141097000D01*
X144907000Y-141097000D01*
X144907000Y-142290155D01*
X145136890Y-142411476D01*
X145546924Y-142241645D01*
X145975183Y-141851358D01*
X146042298Y-141708447D01*
X146269946Y-142049147D01*
X146751715Y-142371054D01*
X147320000Y-142484093D01*
X147888285Y-142371054D01*
X148370054Y-142049147D01*
X148590000Y-141719974D01*
X148809946Y-142049147D01*
X149291715Y-142371054D01*
X149860000Y-142484093D01*
X150428285Y-142371054D01*
X150910054Y-142049147D01*
X151130000Y-141719974D01*
X151349946Y-142049147D01*
X151831715Y-142371054D01*
X152400000Y-142484093D01*
X152968285Y-142371054D01*
X153450054Y-142049147D01*
X153670000Y-141719974D01*
X153889946Y-142049147D01*
X154371715Y-142371054D01*
X154940000Y-142484093D01*
X155508285Y-142371054D01*
X155990054Y-142049147D01*
X156210000Y-141719974D01*
X156429946Y-142049147D01*
X156911715Y-142371054D01*
X157480000Y-142484093D01*
X158048285Y-142371054D01*
X158530054Y-142049147D01*
X158750000Y-141719974D01*
X158969946Y-142049147D01*
X159451715Y-142371054D01*
X160020000Y-142484093D01*
X160588285Y-142371054D01*
X161070054Y-142049147D01*
X161290000Y-141719974D01*
X161509946Y-142049147D01*
X161991715Y-142371054D01*
X162560000Y-142484093D01*
X163128285Y-142371054D01*
X163610054Y-142049147D01*
X163931961Y-141567378D01*
X164045000Y-140999093D01*
X164045000Y-140940907D01*
X163931961Y-140372622D01*
X163610054Y-139890853D01*
X163608821Y-139890029D01*
X163645317Y-139883162D01*
X163861441Y-139744090D01*
X164006431Y-139531890D01*
X164057440Y-139280000D01*
X164057440Y-137580000D01*
X164013162Y-137344683D01*
X163874090Y-137128559D01*
X163661890Y-136983569D01*
X163410000Y-136932560D01*
X161710000Y-136932560D01*
X161474683Y-136976838D01*
X161258559Y-137115910D01*
X161113569Y-137328110D01*
X161099914Y-137395541D01*
X161070054Y-137350853D01*
X160588285Y-137028946D01*
X160020000Y-136915907D01*
X159451715Y-137028946D01*
X158969946Y-137350853D01*
X158750000Y-137680026D01*
X158530054Y-137350853D01*
X158048285Y-137028946D01*
X157480000Y-136915907D01*
X156911715Y-137028946D01*
X156429946Y-137350853D01*
X156210000Y-137680026D01*
X155990054Y-137350853D01*
X155508285Y-137028946D01*
X154940000Y-136915907D01*
X154430000Y-137017352D01*
X154430000Y-132394802D01*
X154619802Y-132205000D01*
X156845000Y-132205000D01*
X157135839Y-132147148D01*
X157382401Y-131982401D01*
X158254680Y-131110122D01*
X158300167Y-131110162D01*
X158643943Y-130968117D01*
X158907192Y-130705327D01*
X159049838Y-130361799D01*
X159050162Y-129989833D01*
X158908117Y-129646057D01*
X158645327Y-129382808D01*
X158301799Y-129240162D01*
X157929833Y-129239838D01*
X157586057Y-129381883D01*
X157322808Y-129644673D01*
X157180162Y-129988201D01*
X157180121Y-130035077D01*
X156968659Y-130246539D01*
X156740327Y-130017808D01*
X156396799Y-129875162D01*
X156024833Y-129874838D01*
X155681057Y-130016883D01*
X155647882Y-130050000D01*
X153035000Y-130050000D01*
X152744161Y-130107852D01*
X152497599Y-130272599D01*
X151862599Y-130907599D01*
X151697852Y-131154161D01*
X151640000Y-131445000D01*
X151640000Y-137157046D01*
X151349946Y-137350853D01*
X151122298Y-137691553D01*
X151055183Y-137548642D01*
X150626924Y-137158355D01*
X150216890Y-136988524D01*
X149987000Y-137109845D01*
X149987000Y-138303000D01*
X150007000Y-138303000D01*
X150007000Y-138557000D01*
X149987000Y-138557000D01*
X149987000Y-138577000D01*
X149733000Y-138577000D01*
X149733000Y-138557000D01*
X149713000Y-138557000D01*
X149713000Y-138303000D01*
X149733000Y-138303000D01*
X149733000Y-137109845D01*
X149503110Y-136988524D01*
X149350000Y-137051940D01*
X149350000Y-136204802D01*
X150397401Y-135157401D01*
X150562148Y-134910840D01*
X150620000Y-134620000D01*
X150620000Y-127949802D01*
X150809802Y-127760000D01*
X153107537Y-127760000D01*
X153139673Y-127792192D01*
X153483201Y-127934838D01*
X153855167Y-127935162D01*
X154198943Y-127793117D01*
X154462192Y-127530327D01*
X154604838Y-127186799D01*
X154605162Y-126814833D01*
X154535568Y-126646403D01*
X154833943Y-126523117D01*
X155097192Y-126260327D01*
X155239838Y-125916799D01*
X155240162Y-125544833D01*
X155098117Y-125201057D01*
X154835327Y-124937808D01*
X154571446Y-124828235D01*
X154463117Y-124566057D01*
X154200327Y-124302808D01*
X153856799Y-124160162D01*
X153484833Y-124159838D01*
X153141057Y-124301883D01*
X152877808Y-124564673D01*
X152735162Y-124908201D01*
X152735121Y-124955077D01*
X152720198Y-124970000D01*
X149225000Y-124970000D01*
X148934161Y-125027852D01*
X148687599Y-125192599D01*
X148078070Y-125802128D01*
X147904488Y-125730051D01*
X148110303Y-125645010D01*
X148503629Y-125252370D01*
X148716757Y-124739100D01*
X148717242Y-124183339D01*
X148505010Y-123669697D01*
X148112370Y-123276371D01*
X147904488Y-123190051D01*
X148110303Y-123105010D01*
X148503629Y-122712370D01*
X148716757Y-122199100D01*
X148717242Y-121643339D01*
X148505010Y-121129697D01*
X148112370Y-120736371D01*
X147904488Y-120650051D01*
X148110303Y-120565010D01*
X148503629Y-120172370D01*
X148716757Y-119659100D01*
X148717242Y-119103339D01*
X148505010Y-118589697D01*
X148112370Y-118196371D01*
X147904488Y-118110051D01*
X148110303Y-118025010D01*
X148503629Y-117632370D01*
X148716757Y-117119100D01*
X148717242Y-116563339D01*
X148505010Y-116049697D01*
X148112370Y-115656371D01*
X147904488Y-115570051D01*
X148110303Y-115485010D01*
X148503629Y-115092370D01*
X148716757Y-114579100D01*
X148717242Y-114023339D01*
X148505010Y-113509697D01*
X148112370Y-113116371D01*
X147920273Y-113036605D01*
X148051143Y-112982397D01*
X148120608Y-112740213D01*
X147320000Y-111939605D01*
X146519392Y-112740213D01*
X146588857Y-112982397D01*
X146729318Y-113032509D01*
X146529697Y-113114990D01*
X146136371Y-113507630D01*
X146050051Y-113715512D01*
X145965010Y-113509697D01*
X145572370Y-113116371D01*
X145380273Y-113036605D01*
X145511143Y-112982397D01*
X145580608Y-112740213D01*
X144780000Y-111939605D01*
X143979392Y-112740213D01*
X144048857Y-112982397D01*
X144189318Y-113032509D01*
X143989697Y-113114990D01*
X143596371Y-113507630D01*
X143383243Y-114020900D01*
X143382758Y-114576661D01*
X143594990Y-115090303D01*
X143987630Y-115483629D01*
X144195512Y-115569949D01*
X143989697Y-115654990D01*
X143596371Y-116047630D01*
X143383243Y-116560900D01*
X143382758Y-117116661D01*
X143594990Y-117630303D01*
X143987630Y-118023629D01*
X144195512Y-118109949D01*
X143989697Y-118194990D01*
X143596371Y-118587630D01*
X143383243Y-119100900D01*
X143382758Y-119656661D01*
X143594990Y-120170303D01*
X143987630Y-120563629D01*
X144195512Y-120649949D01*
X143989697Y-120734990D01*
X143596371Y-121127630D01*
X143383243Y-121640900D01*
X143382758Y-122196661D01*
X143594990Y-122710303D01*
X143987630Y-123103629D01*
X144195512Y-123189949D01*
X143989697Y-123274990D01*
X143596371Y-123667630D01*
X143383243Y-124180900D01*
X143382758Y-124736661D01*
X143594990Y-125250303D01*
X143987630Y-125643629D01*
X144195512Y-125729949D01*
X143989697Y-125814990D01*
X143596371Y-126207630D01*
X143383243Y-126720900D01*
X143382758Y-127276661D01*
X143594990Y-127790303D01*
X143987630Y-128183629D01*
X144195512Y-128269949D01*
X143989697Y-128354990D01*
X143596371Y-128747630D01*
X143383243Y-129260900D01*
X143382758Y-129816661D01*
X143594990Y-130330303D01*
X143987630Y-130723629D01*
X144195512Y-130809949D01*
X143989697Y-130894990D01*
X143596371Y-131287630D01*
X143383243Y-131800900D01*
X143382758Y-132356661D01*
X143594990Y-132870303D01*
X143987630Y-133263629D01*
X144500900Y-133476757D01*
X145056661Y-133477242D01*
X145570303Y-133265010D01*
X145963629Y-132872370D01*
X146049949Y-132664488D01*
X146134990Y-132870303D01*
X146527630Y-133263629D01*
X147040900Y-133476757D01*
X147388138Y-133477060D01*
X144242599Y-136622599D01*
X144077852Y-136869161D01*
X144020678Y-137156593D01*
X143729946Y-137350853D01*
X143408039Y-137832622D01*
X143295000Y-138400907D01*
X127227440Y-138400907D01*
X127227440Y-137580000D01*
X127183162Y-137344683D01*
X127044090Y-137128559D01*
X126831890Y-136983569D01*
X126580000Y-136932560D01*
X124880000Y-136932560D01*
X124644683Y-136976838D01*
X124428559Y-137115910D01*
X124283569Y-137328110D01*
X124232560Y-137580000D01*
X124232560Y-139280000D01*
X124276838Y-139515317D01*
X124415910Y-139731441D01*
X124628110Y-139876431D01*
X124695541Y-139890086D01*
X124650853Y-139919946D01*
X124328946Y-140401715D01*
X124215907Y-140970000D01*
X118185000Y-140970000D01*
X118185000Y-120934187D01*
X124294752Y-120934187D01*
X124512757Y-121461800D01*
X124916077Y-121865824D01*
X125443309Y-122084750D01*
X126014187Y-122085248D01*
X126541800Y-121867243D01*
X126945824Y-121463923D01*
X127138860Y-120999039D01*
X134498096Y-120999039D01*
X134658959Y-121387423D01*
X135034866Y-121802389D01*
X135540959Y-122041914D01*
X135763000Y-121920629D01*
X135763000Y-120777000D01*
X136017000Y-120777000D01*
X136017000Y-121920629D01*
X136239041Y-122041914D01*
X136745134Y-121802389D01*
X137121041Y-121387423D01*
X137281904Y-120999039D01*
X137159915Y-120777000D01*
X136017000Y-120777000D01*
X135763000Y-120777000D01*
X134620085Y-120777000D01*
X134498096Y-120999039D01*
X127138860Y-120999039D01*
X127164750Y-120936691D01*
X127165248Y-120365813D01*
X127138452Y-120300961D01*
X134498096Y-120300961D01*
X134620085Y-120523000D01*
X135763000Y-120523000D01*
X135763000Y-119379371D01*
X136017000Y-119379371D01*
X136017000Y-120523000D01*
X137159915Y-120523000D01*
X137281904Y-120300961D01*
X137121041Y-119912577D01*
X136745134Y-119497611D01*
X136239041Y-119258086D01*
X136017000Y-119379371D01*
X135763000Y-119379371D01*
X135540959Y-119258086D01*
X135034866Y-119497611D01*
X134658959Y-119912577D01*
X134498096Y-120300961D01*
X127138452Y-120300961D01*
X126947243Y-119838200D01*
X126543923Y-119434176D01*
X126016691Y-119215250D01*
X125445813Y-119214752D01*
X124918200Y-119432757D01*
X124514176Y-119836077D01*
X124295250Y-120363309D01*
X124294752Y-120934187D01*
X118185000Y-120934187D01*
X118185000Y-117124187D01*
X124294752Y-117124187D01*
X124512757Y-117651800D01*
X124916077Y-118055824D01*
X125443309Y-118274750D01*
X126014187Y-118275248D01*
X126541800Y-118057243D01*
X126945824Y-117653923D01*
X127164750Y-117126691D01*
X127165000Y-116840000D01*
X134426887Y-116840000D01*
X134536120Y-117389151D01*
X134847189Y-117854698D01*
X135312736Y-118165767D01*
X135861887Y-118275000D01*
X135918113Y-118275000D01*
X136467264Y-118165767D01*
X136932811Y-117854698D01*
X137243880Y-117389151D01*
X137353113Y-116840000D01*
X137243880Y-116290849D01*
X136932811Y-115825302D01*
X136467264Y-115514233D01*
X135918113Y-115405000D01*
X135861887Y-115405000D01*
X135312736Y-115514233D01*
X134847189Y-115825302D01*
X134536120Y-116290849D01*
X134426887Y-116840000D01*
X127165000Y-116840000D01*
X127165248Y-116555813D01*
X126947243Y-116028200D01*
X126543923Y-115624176D01*
X126016691Y-115405250D01*
X125445813Y-115404752D01*
X124918200Y-115622757D01*
X124514176Y-116026077D01*
X124295250Y-116553309D01*
X124294752Y-117124187D01*
X118185000Y-117124187D01*
X118185000Y-111552302D01*
X143370856Y-111552302D01*
X143398638Y-112107368D01*
X143557603Y-112491143D01*
X143799787Y-112560608D01*
X144600395Y-111760000D01*
X144959605Y-111760000D01*
X145760213Y-112560608D01*
X146002397Y-112491143D01*
X146046453Y-112367656D01*
X146097603Y-112491143D01*
X146339787Y-112560608D01*
X147140395Y-111760000D01*
X147499605Y-111760000D01*
X148300213Y-112560608D01*
X148542397Y-112491143D01*
X148729144Y-111967698D01*
X148701362Y-111412632D01*
X148542397Y-111028857D01*
X148300213Y-110959392D01*
X147499605Y-111760000D01*
X147140395Y-111760000D01*
X146339787Y-110959392D01*
X146097603Y-111028857D01*
X146053547Y-111152344D01*
X146002397Y-111028857D01*
X145760213Y-110959392D01*
X144959605Y-111760000D01*
X144600395Y-111760000D01*
X143799787Y-110959392D01*
X143557603Y-111028857D01*
X143370856Y-111552302D01*
X118185000Y-111552302D01*
X118185000Y-110200213D01*
X143979392Y-110200213D01*
X144048857Y-110442397D01*
X144172344Y-110486453D01*
X144048857Y-110537603D01*
X143979392Y-110779787D01*
X144780000Y-111580395D01*
X145580608Y-110779787D01*
X145511143Y-110537603D01*
X145387656Y-110493547D01*
X145511143Y-110442397D01*
X145580608Y-110200213D01*
X146519392Y-110200213D01*
X146588857Y-110442397D01*
X146712344Y-110486453D01*
X146588857Y-110537603D01*
X146519392Y-110779787D01*
X147320000Y-111580395D01*
X148120608Y-110779787D01*
X148051143Y-110537603D01*
X147927656Y-110493547D01*
X148051143Y-110442397D01*
X148120608Y-110200213D01*
X147320000Y-109399605D01*
X146519392Y-110200213D01*
X145580608Y-110200213D01*
X144780000Y-109399605D01*
X143979392Y-110200213D01*
X118185000Y-110200213D01*
X118185000Y-109012302D01*
X143370856Y-109012302D01*
X143398638Y-109567368D01*
X143557603Y-109951143D01*
X143799787Y-110020608D01*
X144600395Y-109220000D01*
X144959605Y-109220000D01*
X145760213Y-110020608D01*
X146002397Y-109951143D01*
X146046453Y-109827656D01*
X146097603Y-109951143D01*
X146339787Y-110020608D01*
X147140395Y-109220000D01*
X147499605Y-109220000D01*
X148300213Y-110020608D01*
X148542397Y-109951143D01*
X148704540Y-109496661D01*
X161162758Y-109496661D01*
X161374990Y-110010303D01*
X161767630Y-110403629D01*
X161975512Y-110489949D01*
X161769697Y-110574990D01*
X161376371Y-110967630D01*
X161163243Y-111480900D01*
X161162758Y-112036661D01*
X161374990Y-112550303D01*
X161767630Y-112943629D01*
X161975512Y-113029949D01*
X161769697Y-113114990D01*
X161376371Y-113507630D01*
X161163243Y-114020900D01*
X161162758Y-114576661D01*
X161374990Y-115090303D01*
X161767630Y-115483629D01*
X161975512Y-115569949D01*
X161769697Y-115654990D01*
X161376371Y-116047630D01*
X161163243Y-116560900D01*
X161162758Y-117116661D01*
X161374990Y-117630303D01*
X161767630Y-118023629D01*
X161975512Y-118109949D01*
X161769697Y-118194990D01*
X161376371Y-118587630D01*
X161163243Y-119100900D01*
X161162758Y-119656661D01*
X161374990Y-120170303D01*
X161767630Y-120563629D01*
X161975512Y-120649949D01*
X161769697Y-120734990D01*
X161376371Y-121127630D01*
X161163243Y-121640900D01*
X161162758Y-122196661D01*
X161374990Y-122710303D01*
X161767630Y-123103629D01*
X161975512Y-123189949D01*
X161769697Y-123274990D01*
X161376371Y-123667630D01*
X161163243Y-124180900D01*
X161162758Y-124736661D01*
X161374990Y-125250303D01*
X161767630Y-125643629D01*
X161975512Y-125729949D01*
X161769697Y-125814990D01*
X161376371Y-126207630D01*
X161163243Y-126720900D01*
X161162758Y-127276661D01*
X161374990Y-127790303D01*
X161767630Y-128183629D01*
X161975512Y-128269949D01*
X161769697Y-128354990D01*
X161376371Y-128747630D01*
X161163243Y-129260900D01*
X161162758Y-129816661D01*
X161374990Y-130330303D01*
X161767630Y-130723629D01*
X161975512Y-130809949D01*
X161769697Y-130894990D01*
X161376371Y-131287630D01*
X161163243Y-131800900D01*
X161162758Y-132356661D01*
X161374990Y-132870303D01*
X161767630Y-133263629D01*
X162280900Y-133476757D01*
X162836661Y-133477242D01*
X163350303Y-133265010D01*
X163743629Y-132872370D01*
X163956757Y-132359100D01*
X163957242Y-131803339D01*
X163745010Y-131289697D01*
X163352370Y-130896371D01*
X163144488Y-130810051D01*
X163350303Y-130725010D01*
X163743629Y-130332370D01*
X163956757Y-129819100D01*
X163957242Y-129263339D01*
X163745010Y-128749697D01*
X163352370Y-128356371D01*
X163144488Y-128270051D01*
X163350303Y-128185010D01*
X163743629Y-127792370D01*
X163956757Y-127279100D01*
X163957242Y-126723339D01*
X163745010Y-126209697D01*
X163352370Y-125816371D01*
X163144488Y-125730051D01*
X163350303Y-125645010D01*
X163743629Y-125252370D01*
X163956757Y-124739100D01*
X163957242Y-124183339D01*
X163745010Y-123669697D01*
X163352370Y-123276371D01*
X163144488Y-123190051D01*
X163350303Y-123105010D01*
X163743629Y-122712370D01*
X163956757Y-122199100D01*
X163957242Y-121643339D01*
X163745010Y-121129697D01*
X163352370Y-120736371D01*
X163144488Y-120650051D01*
X163350303Y-120565010D01*
X163743629Y-120172370D01*
X163956757Y-119659100D01*
X163957242Y-119103339D01*
X163745010Y-118589697D01*
X163352370Y-118196371D01*
X163144488Y-118110051D01*
X163350303Y-118025010D01*
X163743629Y-117632370D01*
X163956757Y-117119100D01*
X163957242Y-116563339D01*
X163745010Y-116049697D01*
X163352370Y-115656371D01*
X163144488Y-115570051D01*
X163350303Y-115485010D01*
X163743629Y-115092370D01*
X163956757Y-114579100D01*
X163957242Y-114023339D01*
X163745010Y-113509697D01*
X163352370Y-113116371D01*
X163144488Y-113030051D01*
X163350303Y-112945010D01*
X163743629Y-112552370D01*
X163956757Y-112039100D01*
X163957242Y-111483339D01*
X163745010Y-110969697D01*
X163352370Y-110576371D01*
X163144488Y-110490051D01*
X163350303Y-110405010D01*
X163743629Y-110012370D01*
X163956757Y-109499100D01*
X163957242Y-108943339D01*
X163745010Y-108429697D01*
X163352370Y-108036371D01*
X163160273Y-107956605D01*
X163291143Y-107902397D01*
X163295406Y-107887532D01*
X179367073Y-107887532D01*
X179465736Y-108154387D01*
X180075461Y-108380908D01*
X180725460Y-108356856D01*
X181214264Y-108154387D01*
X181312927Y-107887532D01*
X185867073Y-107887532D01*
X185965736Y-108154387D01*
X186575461Y-108380908D01*
X187225460Y-108356856D01*
X187714264Y-108154387D01*
X187812927Y-107887532D01*
X186840000Y-106914605D01*
X185867073Y-107887532D01*
X181312927Y-107887532D01*
X180340000Y-106914605D01*
X179367073Y-107887532D01*
X163295406Y-107887532D01*
X163360608Y-107660213D01*
X162560000Y-106859605D01*
X161759392Y-107660213D01*
X161828857Y-107902397D01*
X161969318Y-107952509D01*
X161769697Y-108034990D01*
X161376371Y-108427630D01*
X161163243Y-108940900D01*
X161162758Y-109496661D01*
X148704540Y-109496661D01*
X148729144Y-109427698D01*
X148701362Y-108872632D01*
X148542397Y-108488857D01*
X148300213Y-108419392D01*
X147499605Y-109220000D01*
X147140395Y-109220000D01*
X146339787Y-108419392D01*
X146097603Y-108488857D01*
X146053547Y-108612344D01*
X146002397Y-108488857D01*
X145760213Y-108419392D01*
X144959605Y-109220000D01*
X144600395Y-109220000D01*
X143799787Y-108419392D01*
X143557603Y-108488857D01*
X143370856Y-109012302D01*
X118185000Y-109012302D01*
X118185000Y-105695750D01*
X124830000Y-105695750D01*
X124830000Y-106436309D01*
X124926673Y-106669698D01*
X125105301Y-106848327D01*
X125338690Y-106945000D01*
X126079250Y-106945000D01*
X126238000Y-106786250D01*
X126238000Y-105537000D01*
X126492000Y-105537000D01*
X126492000Y-106786250D01*
X126650750Y-106945000D01*
X127391310Y-106945000D01*
X127624699Y-106848327D01*
X127803327Y-106669698D01*
X127900000Y-106436309D01*
X127900000Y-105695750D01*
X127741250Y-105537000D01*
X126492000Y-105537000D01*
X126238000Y-105537000D01*
X124988750Y-105537000D01*
X124830000Y-105695750D01*
X118185000Y-105695750D01*
X118185000Y-103173991D01*
X124829735Y-103173991D01*
X125062932Y-103738371D01*
X125240092Y-103915841D01*
X125105301Y-103971673D01*
X124926673Y-104150302D01*
X124830000Y-104383691D01*
X124830000Y-105124250D01*
X124988750Y-105283000D01*
X126238000Y-105283000D01*
X126238000Y-105263000D01*
X126492000Y-105263000D01*
X126492000Y-105283000D01*
X127741250Y-105283000D01*
X127900000Y-105124250D01*
X127900000Y-104510000D01*
X133072560Y-104510000D01*
X133072560Y-106310000D01*
X133116838Y-106545317D01*
X133255910Y-106761441D01*
X133468110Y-106906431D01*
X133720000Y-106957440D01*
X135520000Y-106957440D01*
X135755317Y-106913162D01*
X135971441Y-106774090D01*
X136116431Y-106561890D01*
X136167440Y-106310000D01*
X136167440Y-104510000D01*
X136149878Y-104416661D01*
X143382758Y-104416661D01*
X143594990Y-104930303D01*
X143987630Y-105323629D01*
X144195512Y-105409949D01*
X143989697Y-105494990D01*
X143596371Y-105887630D01*
X143383243Y-106400900D01*
X143382758Y-106956661D01*
X143594990Y-107470303D01*
X143987630Y-107863629D01*
X144179727Y-107943395D01*
X144048857Y-107997603D01*
X143979392Y-108239787D01*
X144780000Y-109040395D01*
X145580608Y-108239787D01*
X145511143Y-107997603D01*
X145370682Y-107947491D01*
X145570303Y-107865010D01*
X145963629Y-107472370D01*
X146049949Y-107264488D01*
X146134990Y-107470303D01*
X146527630Y-107863629D01*
X146719727Y-107943395D01*
X146588857Y-107997603D01*
X146519392Y-108239787D01*
X147320000Y-109040395D01*
X148120608Y-108239787D01*
X148051143Y-107997603D01*
X147910682Y-107947491D01*
X148110303Y-107865010D01*
X148503629Y-107472370D01*
X148716757Y-106959100D01*
X148717181Y-106472302D01*
X161150856Y-106472302D01*
X161178638Y-107027368D01*
X161337603Y-107411143D01*
X161579787Y-107480608D01*
X162380395Y-106680000D01*
X162739605Y-106680000D01*
X163540213Y-107480608D01*
X163782397Y-107411143D01*
X163969144Y-106887698D01*
X163948261Y-106470461D01*
X178694092Y-106470461D01*
X178718144Y-107120460D01*
X178920613Y-107609264D01*
X179187468Y-107707927D01*
X180160395Y-106735000D01*
X180519605Y-106735000D01*
X181492532Y-107707927D01*
X181759387Y-107609264D01*
X181985908Y-106999539D01*
X181966331Y-106470461D01*
X185194092Y-106470461D01*
X185218144Y-107120460D01*
X185420613Y-107609264D01*
X185687468Y-107707927D01*
X186660395Y-106735000D01*
X187019605Y-106735000D01*
X187992532Y-107707927D01*
X188259387Y-107609264D01*
X188485908Y-106999539D01*
X188461856Y-106349540D01*
X188259387Y-105860736D01*
X187992532Y-105762073D01*
X187019605Y-106735000D01*
X186660395Y-106735000D01*
X185687468Y-105762073D01*
X185420613Y-105860736D01*
X185194092Y-106470461D01*
X181966331Y-106470461D01*
X181961856Y-106349540D01*
X181759387Y-105860736D01*
X181492532Y-105762073D01*
X180519605Y-106735000D01*
X180160395Y-106735000D01*
X179187468Y-105762073D01*
X178920613Y-105860736D01*
X178694092Y-106470461D01*
X163948261Y-106470461D01*
X163941362Y-106332632D01*
X163782397Y-105948857D01*
X163540213Y-105879392D01*
X162739605Y-106680000D01*
X162380395Y-106680000D01*
X161579787Y-105879392D01*
X161337603Y-105948857D01*
X161150856Y-106472302D01*
X148717181Y-106472302D01*
X148717242Y-106403339D01*
X148505010Y-105889697D01*
X148112370Y-105496371D01*
X147904488Y-105410051D01*
X148110303Y-105325010D01*
X148503629Y-104932370D01*
X148716757Y-104419100D01*
X148716759Y-104416661D01*
X161162758Y-104416661D01*
X161374990Y-104930303D01*
X161767630Y-105323629D01*
X161959727Y-105403395D01*
X161828857Y-105457603D01*
X161759392Y-105699787D01*
X162560000Y-106500395D01*
X163360608Y-105699787D01*
X163326958Y-105582468D01*
X179367073Y-105582468D01*
X180340000Y-106555395D01*
X181312927Y-105582468D01*
X185867073Y-105582468D01*
X186840000Y-106555395D01*
X187812927Y-105582468D01*
X187714264Y-105315613D01*
X187104539Y-105089092D01*
X186454540Y-105113144D01*
X185965736Y-105315613D01*
X185867073Y-105582468D01*
X181312927Y-105582468D01*
X181214264Y-105315613D01*
X180604539Y-105089092D01*
X179954540Y-105113144D01*
X179465736Y-105315613D01*
X179367073Y-105582468D01*
X163326958Y-105582468D01*
X163291143Y-105457603D01*
X163150682Y-105407491D01*
X163350303Y-105325010D01*
X163743629Y-104932370D01*
X163956757Y-104419100D01*
X163957242Y-103863339D01*
X163745010Y-103349697D01*
X163352370Y-102956371D01*
X162839100Y-102743243D01*
X162283339Y-102742758D01*
X161769697Y-102954990D01*
X161376371Y-103347630D01*
X161163243Y-103860900D01*
X161162758Y-104416661D01*
X148716759Y-104416661D01*
X148717242Y-103863339D01*
X148505010Y-103349697D01*
X148112370Y-102956371D01*
X147599100Y-102743243D01*
X147043339Y-102742758D01*
X146529697Y-102954990D01*
X146136371Y-103347630D01*
X146050051Y-103555512D01*
X145965010Y-103349697D01*
X145572370Y-102956371D01*
X145059100Y-102743243D01*
X144503339Y-102742758D01*
X143989697Y-102954990D01*
X143596371Y-103347630D01*
X143383243Y-103860900D01*
X143382758Y-104416661D01*
X136149878Y-104416661D01*
X136123162Y-104274683D01*
X135984090Y-104058559D01*
X135771890Y-103913569D01*
X135751466Y-103909433D01*
X135920551Y-103740643D01*
X136154733Y-103176670D01*
X136155265Y-102566009D01*
X136152285Y-102558795D01*
X178704716Y-102558795D01*
X178953106Y-103159943D01*
X179412637Y-103620278D01*
X180013352Y-103869716D01*
X180663795Y-103870284D01*
X181264943Y-103621894D01*
X181725278Y-103162363D01*
X181974716Y-102561648D01*
X181974718Y-102558795D01*
X185204716Y-102558795D01*
X185453106Y-103159943D01*
X185912637Y-103620278D01*
X186513352Y-103869716D01*
X187163795Y-103870284D01*
X187764943Y-103621894D01*
X188225278Y-103162363D01*
X188474716Y-102561648D01*
X188475284Y-101911205D01*
X188226894Y-101310057D01*
X187767363Y-100849722D01*
X187166648Y-100600284D01*
X186516205Y-100599716D01*
X185915057Y-100848106D01*
X185454722Y-101307637D01*
X185205284Y-101908352D01*
X185204716Y-102558795D01*
X181974718Y-102558795D01*
X181975284Y-101911205D01*
X181726894Y-101310057D01*
X181267363Y-100849722D01*
X180666648Y-100600284D01*
X180016205Y-100599716D01*
X179415057Y-100848106D01*
X178954722Y-101307637D01*
X178705284Y-101908352D01*
X178704716Y-102558795D01*
X136152285Y-102558795D01*
X135922068Y-102001629D01*
X135490643Y-101569449D01*
X134926670Y-101335267D01*
X134316009Y-101334735D01*
X133751629Y-101567932D01*
X133319449Y-101999357D01*
X133085267Y-102563330D01*
X133084735Y-103173991D01*
X133317932Y-103738371D01*
X133485880Y-103906613D01*
X133484683Y-103906838D01*
X133268559Y-104045910D01*
X133123569Y-104258110D01*
X133072560Y-104510000D01*
X127900000Y-104510000D01*
X127900000Y-104383691D01*
X127803327Y-104150302D01*
X127624699Y-103971673D01*
X127490006Y-103915881D01*
X127665551Y-103740643D01*
X127899733Y-103176670D01*
X127900265Y-102566009D01*
X127667068Y-102001629D01*
X127235643Y-101569449D01*
X126671670Y-101335267D01*
X126061009Y-101334735D01*
X125496629Y-101567932D01*
X125064449Y-101999357D01*
X124830267Y-102563330D01*
X124829735Y-103173991D01*
X118185000Y-103173991D01*
X118185000Y-100399930D01*
X118240478Y-100121021D01*
X118358856Y-99943855D01*
X118536019Y-99825479D01*
X118814931Y-99770000D01*
X188525070Y-99770000D01*
X188803979Y-99825478D01*
X188803979Y-99825478D01*
G37*
X188803979Y-99825478D02*
X188981145Y-99943856D01*
X189099521Y-100121019D01*
X189155000Y-100399931D01*
X189155000Y-143435000D01*
X118185000Y-143435000D01*
X118185000Y-140970000D01*
X124215907Y-140970000D01*
X124328946Y-141538285D01*
X124650853Y-142020054D01*
X125132622Y-142341961D01*
X125700907Y-142455000D01*
X125759093Y-142455000D01*
X126327378Y-142341961D01*
X126809147Y-142020054D01*
X127131054Y-141538285D01*
X127173102Y-141326892D01*
X143338514Y-141326892D01*
X143584817Y-141851358D01*
X144013076Y-142241645D01*
X144423110Y-142411476D01*
X144653000Y-142290155D01*
X144653000Y-141097000D01*
X143459181Y-141097000D01*
X143338514Y-141326892D01*
X127173102Y-141326892D01*
X127244093Y-140970000D01*
X127131054Y-140401715D01*
X126809147Y-139919946D01*
X126767548Y-139892150D01*
X126815317Y-139883162D01*
X127031441Y-139744090D01*
X127176431Y-139531890D01*
X127227440Y-139280000D01*
X127227440Y-138400907D01*
X143295000Y-138400907D01*
X143295000Y-138459093D01*
X143408039Y-139027378D01*
X143729946Y-139509147D01*
X144013101Y-139698345D01*
X144013076Y-139698355D01*
X143584817Y-140088642D01*
X143338514Y-140613108D01*
X143459181Y-140843000D01*
X144653000Y-140843000D01*
X144653000Y-140823000D01*
X144907000Y-140823000D01*
X144907000Y-140843000D01*
X144927000Y-140843000D01*
X144927000Y-141097000D01*
X144907000Y-141097000D01*
X144907000Y-142290155D01*
X145136890Y-142411476D01*
X145546924Y-142241645D01*
X145975183Y-141851358D01*
X146042298Y-141708447D01*
X146269946Y-142049147D01*
X146751715Y-142371054D01*
X147320000Y-142484093D01*
X147888285Y-142371054D01*
X148370054Y-142049147D01*
X148590000Y-141719974D01*
X148809946Y-142049147D01*
X149291715Y-142371054D01*
X149860000Y-142484093D01*
X150428285Y-142371054D01*
X150910054Y-142049147D01*
X151130000Y-141719974D01*
X151349946Y-142049147D01*
X151831715Y-142371054D01*
X152400000Y-142484093D01*
X152968285Y-142371054D01*
X153450054Y-142049147D01*
X153670000Y-141719974D01*
X153889946Y-142049147D01*
X154371715Y-142371054D01*
X154940000Y-142484093D01*
X155508285Y-142371054D01*
X155990054Y-142049147D01*
X156210000Y-141719974D01*
X156429946Y-142049147D01*
X156911715Y-142371054D01*
X157480000Y-142484093D01*
X158048285Y-142371054D01*
X158530054Y-142049147D01*
X158750000Y-141719974D01*
X158969946Y-142049147D01*
X159451715Y-142371054D01*
X160020000Y-142484093D01*
X160588285Y-142371054D01*
X161070054Y-142049147D01*
X161290000Y-141719974D01*
X161509946Y-142049147D01*
X161991715Y-142371054D01*
X162560000Y-142484093D01*
X163128285Y-142371054D01*
X163610054Y-142049147D01*
X163931961Y-141567378D01*
X164045000Y-140999093D01*
X164045000Y-140940907D01*
X163931961Y-140372622D01*
X163610054Y-139890853D01*
X163608821Y-139890029D01*
X163645317Y-139883162D01*
X163861441Y-139744090D01*
X164006431Y-139531890D01*
X164057440Y-139280000D01*
X164057440Y-137580000D01*
X164013162Y-137344683D01*
X163874090Y-137128559D01*
X163661890Y-136983569D01*
X163410000Y-136932560D01*
X161710000Y-136932560D01*
X161474683Y-136976838D01*
X161258559Y-137115910D01*
X161113569Y-137328110D01*
X161099914Y-137395541D01*
X161070054Y-137350853D01*
X160588285Y-137028946D01*
X160020000Y-136915907D01*
X159451715Y-137028946D01*
X158969946Y-137350853D01*
X158750000Y-137680026D01*
X158530054Y-137350853D01*
X158048285Y-137028946D01*
X157480000Y-136915907D01*
X156911715Y-137028946D01*
X156429946Y-137350853D01*
X156210000Y-137680026D01*
X155990054Y-137350853D01*
X155508285Y-137028946D01*
X154940000Y-136915907D01*
X154430000Y-137017352D01*
X154430000Y-132394802D01*
X154619802Y-132205000D01*
X156845000Y-132205000D01*
X157135839Y-132147148D01*
X157382401Y-131982401D01*
X158254680Y-131110122D01*
X158300167Y-131110162D01*
X158643943Y-130968117D01*
X158907192Y-130705327D01*
X159049838Y-130361799D01*
X159050162Y-129989833D01*
X158908117Y-129646057D01*
X158645327Y-129382808D01*
X158301799Y-129240162D01*
X157929833Y-129239838D01*
X157586057Y-129381883D01*
X157322808Y-129644673D01*
X157180162Y-129988201D01*
X157180121Y-130035077D01*
X156968659Y-130246539D01*
X156740327Y-130017808D01*
X156396799Y-129875162D01*
X156024833Y-129874838D01*
X155681057Y-130016883D01*
X155647882Y-130050000D01*
X153035000Y-130050000D01*
X152744161Y-130107852D01*
X152497599Y-130272599D01*
X151862599Y-130907599D01*
X151697852Y-131154161D01*
X151640000Y-131445000D01*
X151640000Y-137157046D01*
X151349946Y-137350853D01*
X151122298Y-137691553D01*
X151055183Y-137548642D01*
X150626924Y-137158355D01*
X150216890Y-136988524D01*
X149987000Y-137109845D01*
X149987000Y-138303000D01*
X150007000Y-138303000D01*
X150007000Y-138557000D01*
X149987000Y-138557000D01*
X149987000Y-138577000D01*
X149733000Y-138577000D01*
X149733000Y-138557000D01*
X149713000Y-138557000D01*
X149713000Y-138303000D01*
X149733000Y-138303000D01*
X149733000Y-137109845D01*
X149503110Y-136988524D01*
X149350000Y-137051940D01*
X149350000Y-136204802D01*
X150397401Y-135157401D01*
X150562148Y-134910840D01*
X150620000Y-134620000D01*
X150620000Y-127949802D01*
X150809802Y-127760000D01*
X153107537Y-127760000D01*
X153139673Y-127792192D01*
X153483201Y-127934838D01*
X153855167Y-127935162D01*
X154198943Y-127793117D01*
X154462192Y-127530327D01*
X154604838Y-127186799D01*
X154605162Y-126814833D01*
X154535568Y-126646403D01*
X154833943Y-126523117D01*
X155097192Y-126260327D01*
X155239838Y-125916799D01*
X155240162Y-125544833D01*
X155098117Y-125201057D01*
X154835327Y-124937808D01*
X154571446Y-124828235D01*
X154463117Y-124566057D01*
X154200327Y-124302808D01*
X153856799Y-124160162D01*
X153484833Y-124159838D01*
X153141057Y-124301883D01*
X152877808Y-124564673D01*
X152735162Y-124908201D01*
X152735121Y-124955077D01*
X152720198Y-124970000D01*
X149225000Y-124970000D01*
X148934161Y-125027852D01*
X148687599Y-125192599D01*
X148078070Y-125802128D01*
X147904488Y-125730051D01*
X148110303Y-125645010D01*
X148503629Y-125252370D01*
X148716757Y-124739100D01*
X148717242Y-124183339D01*
X148505010Y-123669697D01*
X148112370Y-123276371D01*
X147904488Y-123190051D01*
X148110303Y-123105010D01*
X148503629Y-122712370D01*
X148716757Y-122199100D01*
X148717242Y-121643339D01*
X148505010Y-121129697D01*
X148112370Y-120736371D01*
X147904488Y-120650051D01*
X148110303Y-120565010D01*
X148503629Y-120172370D01*
X148716757Y-119659100D01*
X148717242Y-119103339D01*
X148505010Y-118589697D01*
X148112370Y-118196371D01*
X147904488Y-118110051D01*
X148110303Y-118025010D01*
X148503629Y-117632370D01*
X148716757Y-117119100D01*
X148717242Y-116563339D01*
X148505010Y-116049697D01*
X148112370Y-115656371D01*
X147904488Y-115570051D01*
X148110303Y-115485010D01*
X148503629Y-115092370D01*
X148716757Y-114579100D01*
X148717242Y-114023339D01*
X148505010Y-113509697D01*
X148112370Y-113116371D01*
X147920273Y-113036605D01*
X148051143Y-112982397D01*
X148120608Y-112740213D01*
X147320000Y-111939605D01*
X146519392Y-112740213D01*
X146588857Y-112982397D01*
X146729318Y-113032509D01*
X146529697Y-113114990D01*
X146136371Y-113507630D01*
X146050051Y-113715512D01*
X145965010Y-113509697D01*
X145572370Y-113116371D01*
X145380273Y-113036605D01*
X145511143Y-112982397D01*
X145580608Y-112740213D01*
X144780000Y-111939605D01*
X143979392Y-112740213D01*
X144048857Y-112982397D01*
X144189318Y-113032509D01*
X143989697Y-113114990D01*
X143596371Y-113507630D01*
X143383243Y-114020900D01*
X143382758Y-114576661D01*
X143594990Y-115090303D01*
X143987630Y-115483629D01*
X144195512Y-115569949D01*
X143989697Y-115654990D01*
X143596371Y-116047630D01*
X143383243Y-116560900D01*
X143382758Y-117116661D01*
X143594990Y-117630303D01*
X143987630Y-118023629D01*
X144195512Y-118109949D01*
X143989697Y-118194990D01*
X143596371Y-118587630D01*
X143383243Y-119100900D01*
X143382758Y-119656661D01*
X143594990Y-120170303D01*
X143987630Y-120563629D01*
X144195512Y-120649949D01*
X143989697Y-120734990D01*
X143596371Y-121127630D01*
X143383243Y-121640900D01*
X143382758Y-122196661D01*
X143594990Y-122710303D01*
X143987630Y-123103629D01*
X144195512Y-123189949D01*
X143989697Y-123274990D01*
X143596371Y-123667630D01*
X143383243Y-124180900D01*
X143382758Y-124736661D01*
X143594990Y-125250303D01*
X143987630Y-125643629D01*
X144195512Y-125729949D01*
X143989697Y-125814990D01*
X143596371Y-126207630D01*
X143383243Y-126720900D01*
X143382758Y-127276661D01*
X143594990Y-127790303D01*
X143987630Y-128183629D01*
X144195512Y-128269949D01*
X143989697Y-128354990D01*
X143596371Y-128747630D01*
X143383243Y-129260900D01*
X143382758Y-129816661D01*
X143594990Y-130330303D01*
X143987630Y-130723629D01*
X144195512Y-130809949D01*
X143989697Y-130894990D01*
X143596371Y-131287630D01*
X143383243Y-131800900D01*
X143382758Y-132356661D01*
X143594990Y-132870303D01*
X143987630Y-133263629D01*
X144500900Y-133476757D01*
X145056661Y-133477242D01*
X145570303Y-133265010D01*
X145963629Y-132872370D01*
X146049949Y-132664488D01*
X146134990Y-132870303D01*
X146527630Y-133263629D01*
X147040900Y-133476757D01*
X147388138Y-133477060D01*
X144242599Y-136622599D01*
X144077852Y-136869161D01*
X144020678Y-137156593D01*
X143729946Y-137350853D01*
X143408039Y-137832622D01*
X143295000Y-138400907D01*
X127227440Y-138400907D01*
X127227440Y-137580000D01*
X127183162Y-137344683D01*
X127044090Y-137128559D01*
X126831890Y-136983569D01*
X126580000Y-136932560D01*
X124880000Y-136932560D01*
X124644683Y-136976838D01*
X124428559Y-137115910D01*
X124283569Y-137328110D01*
X124232560Y-137580000D01*
X124232560Y-139280000D01*
X124276838Y-139515317D01*
X124415910Y-139731441D01*
X124628110Y-139876431D01*
X124695541Y-139890086D01*
X124650853Y-139919946D01*
X124328946Y-140401715D01*
X124215907Y-140970000D01*
X118185000Y-140970000D01*
X118185000Y-120934187D01*
X124294752Y-120934187D01*
X124512757Y-121461800D01*
X124916077Y-121865824D01*
X125443309Y-122084750D01*
X126014187Y-122085248D01*
X126541800Y-121867243D01*
X126945824Y-121463923D01*
X127138860Y-120999039D01*
X134498096Y-120999039D01*
X134658959Y-121387423D01*
X135034866Y-121802389D01*
X135540959Y-122041914D01*
X135763000Y-121920629D01*
X135763000Y-120777000D01*
X136017000Y-120777000D01*
X136017000Y-121920629D01*
X136239041Y-122041914D01*
X136745134Y-121802389D01*
X137121041Y-121387423D01*
X137281904Y-120999039D01*
X137159915Y-120777000D01*
X136017000Y-120777000D01*
X135763000Y-120777000D01*
X134620085Y-120777000D01*
X134498096Y-120999039D01*
X127138860Y-120999039D01*
X127164750Y-120936691D01*
X127165248Y-120365813D01*
X127138452Y-120300961D01*
X134498096Y-120300961D01*
X134620085Y-120523000D01*
X135763000Y-120523000D01*
X135763000Y-119379371D01*
X136017000Y-119379371D01*
X136017000Y-120523000D01*
X137159915Y-120523000D01*
X137281904Y-120300961D01*
X137121041Y-119912577D01*
X136745134Y-119497611D01*
X136239041Y-119258086D01*
X136017000Y-119379371D01*
X135763000Y-119379371D01*
X135540959Y-119258086D01*
X135034866Y-119497611D01*
X134658959Y-119912577D01*
X134498096Y-120300961D01*
X127138452Y-120300961D01*
X126947243Y-119838200D01*
X126543923Y-119434176D01*
X126016691Y-119215250D01*
X125445813Y-119214752D01*
X124918200Y-119432757D01*
X124514176Y-119836077D01*
X124295250Y-120363309D01*
X124294752Y-120934187D01*
X118185000Y-120934187D01*
X118185000Y-117124187D01*
X124294752Y-117124187D01*
X124512757Y-117651800D01*
X124916077Y-118055824D01*
X125443309Y-118274750D01*
X126014187Y-118275248D01*
X126541800Y-118057243D01*
X126945824Y-117653923D01*
X127164750Y-117126691D01*
X127165000Y-116840000D01*
X134426887Y-116840000D01*
X134536120Y-117389151D01*
X134847189Y-117854698D01*
X135312736Y-118165767D01*
X135861887Y-118275000D01*
X135918113Y-118275000D01*
X136467264Y-118165767D01*
X136932811Y-117854698D01*
X137243880Y-117389151D01*
X137353113Y-116840000D01*
X137243880Y-116290849D01*
X136932811Y-115825302D01*
X136467264Y-115514233D01*
X135918113Y-115405000D01*
X135861887Y-115405000D01*
X135312736Y-115514233D01*
X134847189Y-115825302D01*
X134536120Y-116290849D01*
X134426887Y-116840000D01*
X127165000Y-116840000D01*
X127165248Y-116555813D01*
X126947243Y-116028200D01*
X126543923Y-115624176D01*
X126016691Y-115405250D01*
X125445813Y-115404752D01*
X124918200Y-115622757D01*
X124514176Y-116026077D01*
X124295250Y-116553309D01*
X124294752Y-117124187D01*
X118185000Y-117124187D01*
X118185000Y-111552302D01*
X143370856Y-111552302D01*
X143398638Y-112107368D01*
X143557603Y-112491143D01*
X143799787Y-112560608D01*
X144600395Y-111760000D01*
X144959605Y-111760000D01*
X145760213Y-112560608D01*
X146002397Y-112491143D01*
X146046453Y-112367656D01*
X146097603Y-112491143D01*
X146339787Y-112560608D01*
X147140395Y-111760000D01*
X147499605Y-111760000D01*
X148300213Y-112560608D01*
X148542397Y-112491143D01*
X148729144Y-111967698D01*
X148701362Y-111412632D01*
X148542397Y-111028857D01*
X148300213Y-110959392D01*
X147499605Y-111760000D01*
X147140395Y-111760000D01*
X146339787Y-110959392D01*
X146097603Y-111028857D01*
X146053547Y-111152344D01*
X146002397Y-111028857D01*
X145760213Y-110959392D01*
X144959605Y-111760000D01*
X144600395Y-111760000D01*
X143799787Y-110959392D01*
X143557603Y-111028857D01*
X143370856Y-111552302D01*
X118185000Y-111552302D01*
X118185000Y-110200213D01*
X143979392Y-110200213D01*
X144048857Y-110442397D01*
X144172344Y-110486453D01*
X144048857Y-110537603D01*
X143979392Y-110779787D01*
X144780000Y-111580395D01*
X145580608Y-110779787D01*
X145511143Y-110537603D01*
X145387656Y-110493547D01*
X145511143Y-110442397D01*
X145580608Y-110200213D01*
X146519392Y-110200213D01*
X146588857Y-110442397D01*
X146712344Y-110486453D01*
X146588857Y-110537603D01*
X146519392Y-110779787D01*
X147320000Y-111580395D01*
X148120608Y-110779787D01*
X148051143Y-110537603D01*
X147927656Y-110493547D01*
X148051143Y-110442397D01*
X148120608Y-110200213D01*
X147320000Y-109399605D01*
X146519392Y-110200213D01*
X145580608Y-110200213D01*
X144780000Y-109399605D01*
X143979392Y-110200213D01*
X118185000Y-110200213D01*
X118185000Y-109012302D01*
X143370856Y-109012302D01*
X143398638Y-109567368D01*
X143557603Y-109951143D01*
X143799787Y-110020608D01*
X144600395Y-109220000D01*
X144959605Y-109220000D01*
X145760213Y-110020608D01*
X146002397Y-109951143D01*
X146046453Y-109827656D01*
X146097603Y-109951143D01*
X146339787Y-110020608D01*
X147140395Y-109220000D01*
X147499605Y-109220000D01*
X148300213Y-110020608D01*
X148542397Y-109951143D01*
X148704540Y-109496661D01*
X161162758Y-109496661D01*
X161374990Y-110010303D01*
X161767630Y-110403629D01*
X161975512Y-110489949D01*
X161769697Y-110574990D01*
X161376371Y-110967630D01*
X161163243Y-111480900D01*
X161162758Y-112036661D01*
X161374990Y-112550303D01*
X161767630Y-112943629D01*
X161975512Y-113029949D01*
X161769697Y-113114990D01*
X161376371Y-113507630D01*
X161163243Y-114020900D01*
X161162758Y-114576661D01*
X161374990Y-115090303D01*
X161767630Y-115483629D01*
X161975512Y-115569949D01*
X161769697Y-115654990D01*
X161376371Y-116047630D01*
X161163243Y-116560900D01*
X161162758Y-117116661D01*
X161374990Y-117630303D01*
X161767630Y-118023629D01*
X161975512Y-118109949D01*
X161769697Y-118194990D01*
X161376371Y-118587630D01*
X161163243Y-119100900D01*
X161162758Y-119656661D01*
X161374990Y-120170303D01*
X161767630Y-120563629D01*
X161975512Y-120649949D01*
X161769697Y-120734990D01*
X161376371Y-121127630D01*
X161163243Y-121640900D01*
X161162758Y-122196661D01*
X161374990Y-122710303D01*
X161767630Y-123103629D01*
X161975512Y-123189949D01*
X161769697Y-123274990D01*
X161376371Y-123667630D01*
X161163243Y-124180900D01*
X161162758Y-124736661D01*
X161374990Y-125250303D01*
X161767630Y-125643629D01*
X161975512Y-125729949D01*
X161769697Y-125814990D01*
X161376371Y-126207630D01*
X161163243Y-126720900D01*
X161162758Y-127276661D01*
X161374990Y-127790303D01*
X161767630Y-128183629D01*
X161975512Y-128269949D01*
X161769697Y-128354990D01*
X161376371Y-128747630D01*
X161163243Y-129260900D01*
X161162758Y-129816661D01*
X161374990Y-130330303D01*
X161767630Y-130723629D01*
X161975512Y-130809949D01*
X161769697Y-130894990D01*
X161376371Y-131287630D01*
X161163243Y-131800900D01*
X161162758Y-132356661D01*
X161374990Y-132870303D01*
X161767630Y-133263629D01*
X162280900Y-133476757D01*
X162836661Y-133477242D01*
X163350303Y-133265010D01*
X163743629Y-132872370D01*
X163956757Y-132359100D01*
X163957242Y-131803339D01*
X163745010Y-131289697D01*
X163352370Y-130896371D01*
X163144488Y-130810051D01*
X163350303Y-130725010D01*
X163743629Y-130332370D01*
X163956757Y-129819100D01*
X163957242Y-129263339D01*
X163745010Y-128749697D01*
X163352370Y-128356371D01*
X163144488Y-128270051D01*
X163350303Y-128185010D01*
X163743629Y-127792370D01*
X163956757Y-127279100D01*
X163957242Y-126723339D01*
X163745010Y-126209697D01*
X163352370Y-125816371D01*
X163144488Y-125730051D01*
X163350303Y-125645010D01*
X163743629Y-125252370D01*
X163956757Y-124739100D01*
X163957242Y-124183339D01*
X163745010Y-123669697D01*
X163352370Y-123276371D01*
X163144488Y-123190051D01*
X163350303Y-123105010D01*
X163743629Y-122712370D01*
X163956757Y-122199100D01*
X163957242Y-121643339D01*
X163745010Y-121129697D01*
X163352370Y-120736371D01*
X163144488Y-120650051D01*
X163350303Y-120565010D01*
X163743629Y-120172370D01*
X163956757Y-119659100D01*
X163957242Y-119103339D01*
X163745010Y-118589697D01*
X163352370Y-118196371D01*
X163144488Y-118110051D01*
X163350303Y-118025010D01*
X163743629Y-117632370D01*
X163956757Y-117119100D01*
X163957242Y-116563339D01*
X163745010Y-116049697D01*
X163352370Y-115656371D01*
X163144488Y-115570051D01*
X163350303Y-115485010D01*
X163743629Y-115092370D01*
X163956757Y-114579100D01*
X163957242Y-114023339D01*
X163745010Y-113509697D01*
X163352370Y-113116371D01*
X163144488Y-113030051D01*
X163350303Y-112945010D01*
X163743629Y-112552370D01*
X163956757Y-112039100D01*
X163957242Y-111483339D01*
X163745010Y-110969697D01*
X163352370Y-110576371D01*
X163144488Y-110490051D01*
X163350303Y-110405010D01*
X163743629Y-110012370D01*
X163956757Y-109499100D01*
X163957242Y-108943339D01*
X163745010Y-108429697D01*
X163352370Y-108036371D01*
X163160273Y-107956605D01*
X163291143Y-107902397D01*
X163295406Y-107887532D01*
X179367073Y-107887532D01*
X179465736Y-108154387D01*
X180075461Y-108380908D01*
X180725460Y-108356856D01*
X181214264Y-108154387D01*
X181312927Y-107887532D01*
X185867073Y-107887532D01*
X185965736Y-108154387D01*
X186575461Y-108380908D01*
X187225460Y-108356856D01*
X187714264Y-108154387D01*
X187812927Y-107887532D01*
X186840000Y-106914605D01*
X185867073Y-107887532D01*
X181312927Y-107887532D01*
X180340000Y-106914605D01*
X179367073Y-107887532D01*
X163295406Y-107887532D01*
X163360608Y-107660213D01*
X162560000Y-106859605D01*
X161759392Y-107660213D01*
X161828857Y-107902397D01*
X161969318Y-107952509D01*
X161769697Y-108034990D01*
X161376371Y-108427630D01*
X161163243Y-108940900D01*
X161162758Y-109496661D01*
X148704540Y-109496661D01*
X148729144Y-109427698D01*
X148701362Y-108872632D01*
X148542397Y-108488857D01*
X148300213Y-108419392D01*
X147499605Y-109220000D01*
X147140395Y-109220000D01*
X146339787Y-108419392D01*
X146097603Y-108488857D01*
X146053547Y-108612344D01*
X146002397Y-108488857D01*
X145760213Y-108419392D01*
X144959605Y-109220000D01*
X144600395Y-109220000D01*
X143799787Y-108419392D01*
X143557603Y-108488857D01*
X143370856Y-109012302D01*
X118185000Y-109012302D01*
X118185000Y-105695750D01*
X124830000Y-105695750D01*
X124830000Y-106436309D01*
X124926673Y-106669698D01*
X125105301Y-106848327D01*
X125338690Y-106945000D01*
X126079250Y-106945000D01*
X126238000Y-106786250D01*
X126238000Y-105537000D01*
X126492000Y-105537000D01*
X126492000Y-106786250D01*
X126650750Y-106945000D01*
X127391310Y-106945000D01*
X127624699Y-106848327D01*
X127803327Y-106669698D01*
X127900000Y-106436309D01*
X127900000Y-105695750D01*
X127741250Y-105537000D01*
X126492000Y-105537000D01*
X126238000Y-105537000D01*
X124988750Y-105537000D01*
X124830000Y-105695750D01*
X118185000Y-105695750D01*
X118185000Y-103173991D01*
X124829735Y-103173991D01*
X125062932Y-103738371D01*
X125240092Y-103915841D01*
X125105301Y-103971673D01*
X124926673Y-104150302D01*
X124830000Y-104383691D01*
X124830000Y-105124250D01*
X124988750Y-105283000D01*
X126238000Y-105283000D01*
X126238000Y-105263000D01*
X126492000Y-105263000D01*
X126492000Y-105283000D01*
X127741250Y-105283000D01*
X127900000Y-105124250D01*
X127900000Y-104510000D01*
X133072560Y-104510000D01*
X133072560Y-106310000D01*
X133116838Y-106545317D01*
X133255910Y-106761441D01*
X133468110Y-106906431D01*
X133720000Y-106957440D01*
X135520000Y-106957440D01*
X135755317Y-106913162D01*
X135971441Y-106774090D01*
X136116431Y-106561890D01*
X136167440Y-106310000D01*
X136167440Y-104510000D01*
X136149878Y-104416661D01*
X143382758Y-104416661D01*
X143594990Y-104930303D01*
X143987630Y-105323629D01*
X144195512Y-105409949D01*
X143989697Y-105494990D01*
X143596371Y-105887630D01*
X143383243Y-106400900D01*
X143382758Y-106956661D01*
X143594990Y-107470303D01*
X143987630Y-107863629D01*
X144179727Y-107943395D01*
X144048857Y-107997603D01*
X143979392Y-108239787D01*
X144780000Y-109040395D01*
X145580608Y-108239787D01*
X145511143Y-107997603D01*
X145370682Y-107947491D01*
X145570303Y-107865010D01*
X145963629Y-107472370D01*
X146049949Y-107264488D01*
X146134990Y-107470303D01*
X146527630Y-107863629D01*
X146719727Y-107943395D01*
X146588857Y-107997603D01*
X146519392Y-108239787D01*
X147320000Y-109040395D01*
X148120608Y-108239787D01*
X148051143Y-107997603D01*
X147910682Y-107947491D01*
X148110303Y-107865010D01*
X148503629Y-107472370D01*
X148716757Y-106959100D01*
X148717181Y-106472302D01*
X161150856Y-106472302D01*
X161178638Y-107027368D01*
X161337603Y-107411143D01*
X161579787Y-107480608D01*
X162380395Y-106680000D01*
X162739605Y-106680000D01*
X163540213Y-107480608D01*
X163782397Y-107411143D01*
X163969144Y-106887698D01*
X163948261Y-106470461D01*
X178694092Y-106470461D01*
X178718144Y-107120460D01*
X178920613Y-107609264D01*
X179187468Y-107707927D01*
X180160395Y-106735000D01*
X180519605Y-106735000D01*
X181492532Y-107707927D01*
X181759387Y-107609264D01*
X181985908Y-106999539D01*
X181966331Y-106470461D01*
X185194092Y-106470461D01*
X185218144Y-107120460D01*
X185420613Y-107609264D01*
X185687468Y-107707927D01*
X186660395Y-106735000D01*
X187019605Y-106735000D01*
X187992532Y-107707927D01*
X188259387Y-107609264D01*
X188485908Y-106999539D01*
X188461856Y-106349540D01*
X188259387Y-105860736D01*
X187992532Y-105762073D01*
X187019605Y-106735000D01*
X186660395Y-106735000D01*
X185687468Y-105762073D01*
X185420613Y-105860736D01*
X185194092Y-106470461D01*
X181966331Y-106470461D01*
X181961856Y-106349540D01*
X181759387Y-105860736D01*
X181492532Y-105762073D01*
X180519605Y-106735000D01*
X180160395Y-106735000D01*
X179187468Y-105762073D01*
X178920613Y-105860736D01*
X178694092Y-106470461D01*
X163948261Y-106470461D01*
X163941362Y-106332632D01*
X163782397Y-105948857D01*
X163540213Y-105879392D01*
X162739605Y-106680000D01*
X162380395Y-106680000D01*
X161579787Y-105879392D01*
X161337603Y-105948857D01*
X161150856Y-106472302D01*
X148717181Y-106472302D01*
X148717242Y-106403339D01*
X148505010Y-105889697D01*
X148112370Y-105496371D01*
X147904488Y-105410051D01*
X148110303Y-105325010D01*
X148503629Y-104932370D01*
X148716757Y-104419100D01*
X148716759Y-104416661D01*
X161162758Y-104416661D01*
X161374990Y-104930303D01*
X161767630Y-105323629D01*
X161959727Y-105403395D01*
X161828857Y-105457603D01*
X161759392Y-105699787D01*
X162560000Y-106500395D01*
X163360608Y-105699787D01*
X163326958Y-105582468D01*
X179367073Y-105582468D01*
X180340000Y-106555395D01*
X181312927Y-105582468D01*
X185867073Y-105582468D01*
X186840000Y-106555395D01*
X187812927Y-105582468D01*
X187714264Y-105315613D01*
X187104539Y-105089092D01*
X186454540Y-105113144D01*
X185965736Y-105315613D01*
X185867073Y-105582468D01*
X181312927Y-105582468D01*
X181214264Y-105315613D01*
X180604539Y-105089092D01*
X179954540Y-105113144D01*
X179465736Y-105315613D01*
X179367073Y-105582468D01*
X163326958Y-105582468D01*
X163291143Y-105457603D01*
X163150682Y-105407491D01*
X163350303Y-105325010D01*
X163743629Y-104932370D01*
X163956757Y-104419100D01*
X163957242Y-103863339D01*
X163745010Y-103349697D01*
X163352370Y-102956371D01*
X162839100Y-102743243D01*
X162283339Y-102742758D01*
X161769697Y-102954990D01*
X161376371Y-103347630D01*
X161163243Y-103860900D01*
X161162758Y-104416661D01*
X148716759Y-104416661D01*
X148717242Y-103863339D01*
X148505010Y-103349697D01*
X148112370Y-102956371D01*
X147599100Y-102743243D01*
X147043339Y-102742758D01*
X146529697Y-102954990D01*
X146136371Y-103347630D01*
X146050051Y-103555512D01*
X145965010Y-103349697D01*
X145572370Y-102956371D01*
X145059100Y-102743243D01*
X144503339Y-102742758D01*
X143989697Y-102954990D01*
X143596371Y-103347630D01*
X143383243Y-103860900D01*
X143382758Y-104416661D01*
X136149878Y-104416661D01*
X136123162Y-104274683D01*
X135984090Y-104058559D01*
X135771890Y-103913569D01*
X135751466Y-103909433D01*
X135920551Y-103740643D01*
X136154733Y-103176670D01*
X136155265Y-102566009D01*
X136152285Y-102558795D01*
X178704716Y-102558795D01*
X178953106Y-103159943D01*
X179412637Y-103620278D01*
X180013352Y-103869716D01*
X180663795Y-103870284D01*
X181264943Y-103621894D01*
X181725278Y-103162363D01*
X181974716Y-102561648D01*
X181974718Y-102558795D01*
X185204716Y-102558795D01*
X185453106Y-103159943D01*
X185912637Y-103620278D01*
X186513352Y-103869716D01*
X187163795Y-103870284D01*
X187764943Y-103621894D01*
X188225278Y-103162363D01*
X188474716Y-102561648D01*
X188475284Y-101911205D01*
X188226894Y-101310057D01*
X187767363Y-100849722D01*
X187166648Y-100600284D01*
X186516205Y-100599716D01*
X185915057Y-100848106D01*
X185454722Y-101307637D01*
X185205284Y-101908352D01*
X185204716Y-102558795D01*
X181974718Y-102558795D01*
X181975284Y-101911205D01*
X181726894Y-101310057D01*
X181267363Y-100849722D01*
X180666648Y-100600284D01*
X180016205Y-100599716D01*
X179415057Y-100848106D01*
X178954722Y-101307637D01*
X178705284Y-101908352D01*
X178704716Y-102558795D01*
X136152285Y-102558795D01*
X135922068Y-102001629D01*
X135490643Y-101569449D01*
X134926670Y-101335267D01*
X134316009Y-101334735D01*
X133751629Y-101567932D01*
X133319449Y-101999357D01*
X133085267Y-102563330D01*
X133084735Y-103173991D01*
X133317932Y-103738371D01*
X133485880Y-103906613D01*
X133484683Y-103906838D01*
X133268559Y-104045910D01*
X133123569Y-104258110D01*
X133072560Y-104510000D01*
X127900000Y-104510000D01*
X127900000Y-104383691D01*
X127803327Y-104150302D01*
X127624699Y-103971673D01*
X127490006Y-103915881D01*
X127665551Y-103740643D01*
X127899733Y-103176670D01*
X127900265Y-102566009D01*
X127667068Y-102001629D01*
X127235643Y-101569449D01*
X126671670Y-101335267D01*
X126061009Y-101334735D01*
X125496629Y-101567932D01*
X125064449Y-101999357D01*
X124830267Y-102563330D01*
X124829735Y-103173991D01*
X118185000Y-103173991D01*
X118185000Y-100399930D01*
X118240478Y-100121021D01*
X118358856Y-99943855D01*
X118536019Y-99825479D01*
X118814931Y-99770000D01*
X188525070Y-99770000D01*
X188803979Y-99825478D01*
M02*
