M48
;DRILL file {KiCad 4.0.7} date 01/27/20 22:56:53
;FORMAT={2:4/ absolute / inch / suppress leading zeros}
FMAT,2
INCH,TZ
T1C0.016
T2C0.031
T3C0.035
T4C0.039
T5C0.043
%
G90
G05
M72
T1
X60500Y-49250
X60500Y-50000
X60750Y-49500
X61500Y-51500
X62250Y-51250
T2
X49500Y-46000
X49500Y-47500
X53500Y-46000
X53500Y-47500
T3
X49750Y-40500
X49750Y-41500
X53000Y-40500
X53000Y-41500
T4
X49500Y-54500
X49500Y-55500
X57000Y-41000
X57000Y-42000
X57000Y-43000
X57000Y-44000
X57000Y-45000
X57000Y-46000
X57000Y-47000
X57000Y-48000
X57000Y-49000
X57000Y-50000
X57000Y-51000
X57000Y-52000
X57000Y-54500
X57000Y-55500
X58000Y-41000
X58000Y-42000
X58000Y-43000
X58000Y-44000
X58000Y-45000
X58000Y-46000
X58000Y-47000
X58000Y-48000
X58000Y-49000
X58000Y-50000
X58000Y-51000
X58000Y-52000
X58000Y-54500
X58000Y-55500
X59000Y-54500
X59000Y-55500
X60000Y-54500
X60000Y-55500
X61000Y-54500
X61000Y-55500
X62000Y-54500
X62000Y-55500
X63000Y-54500
X63000Y-55500
X64000Y-41000
X64000Y-42000
X64000Y-43000
X64000Y-44000
X64000Y-45000
X64000Y-46000
X64000Y-47000
X64000Y-48000
X64000Y-49000
X64000Y-50000
X64000Y-51000
X64000Y-52000
X64000Y-54500
X64000Y-55500
T5
X71000Y-40250
X71000Y-42022
X73559Y-40250
X73559Y-42022
T0
M30
