G04 #@! TF.FileFunction,Legend,Bot*
%FSLAX46Y46*%
G04 Gerber Fmt 4.6, Leading zero omitted, Abs format (unit mm)*
G04 Created by KiCad (PCBNEW 4.0.7) date 11/07/19 19:47:27*
%MOMM*%
%LPD*%
G01*
G04 APERTURE LIST*
%ADD10C,0.100000*%
%ADD11C,0.200000*%
%ADD12C,0.120000*%
%ADD13C,0.150000*%
G04 APERTURE END LIST*
D10*
D11*
X154305000Y-130175000D02*
X155575000Y-131445000D01*
X154305000Y-131445000D02*
X155575000Y-130175000D01*
D12*
X127600000Y-118150000D02*
X127600000Y-115530000D01*
X127600000Y-115530000D02*
X134020000Y-115530000D01*
X134020000Y-115530000D02*
X134020000Y-118150000D01*
X134020000Y-118150000D02*
X127600000Y-118150000D01*
X126710000Y-116840000D02*
X127600000Y-116840000D01*
X134910000Y-116840000D02*
X134020000Y-116840000D01*
X127600000Y-121960000D02*
X127600000Y-119340000D01*
X127600000Y-119340000D02*
X134020000Y-119340000D01*
X134020000Y-119340000D02*
X134020000Y-121960000D01*
X134020000Y-121960000D02*
X127600000Y-121960000D01*
X126710000Y-120650000D02*
X127600000Y-120650000D01*
X134910000Y-120650000D02*
X134020000Y-120650000D01*
D13*
X146050000Y-133350000D02*
X146050000Y-134620000D01*
X146050000Y-130810000D02*
X146050000Y-132080000D01*
X146050000Y-128270000D02*
X146050000Y-129540000D01*
X146050000Y-125730000D02*
X146050000Y-127000000D01*
X146050000Y-123190000D02*
X146050000Y-124460000D01*
X146050000Y-120650000D02*
X146050000Y-121920000D01*
X146050000Y-118110000D02*
X146050000Y-119380000D01*
X146050000Y-115570000D02*
X146050000Y-116840000D01*
X146050000Y-113030000D02*
X146050000Y-114300000D01*
X146050000Y-110490000D02*
X146050000Y-111760000D01*
X146050000Y-107950000D02*
X146050000Y-109220000D01*
X146050000Y-105410000D02*
X146050000Y-106680000D01*
X146050000Y-102870000D02*
X146050000Y-104140000D01*
X146050000Y-100330000D02*
X146050000Y-101600000D01*
X154305000Y-131445000D02*
X155575000Y-131445000D01*
X155575000Y-131445000D02*
X155575000Y-130175000D01*
X155575000Y-130175000D02*
X154305000Y-130175000D01*
X154305000Y-130175000D02*
X154305000Y-131445000D01*
X155575000Y-132080000D02*
X154305000Y-132080000D01*
X154305000Y-132080000D02*
X154305000Y-133350000D01*
X154305000Y-133350000D02*
X155575000Y-133350000D01*
X155575000Y-133350000D02*
X155575000Y-132080000D01*
X157480000Y-99060000D02*
X157480000Y-100330000D01*
X157480000Y-100330000D02*
X163830000Y-100330000D01*
X143510000Y-100330000D02*
X149860000Y-100330000D01*
X149860000Y-100330000D02*
X149860000Y-99060000D01*
X149860000Y-99060000D02*
X157480000Y-99060000D01*
X163830000Y-134620000D02*
X163830000Y-100330000D01*
X143510000Y-100330000D02*
X143510000Y-134620000D01*
X143510000Y-134620000D02*
X163830000Y-134620000D01*
X129357381Y-116673334D02*
X128881190Y-116340000D01*
X129357381Y-116101905D02*
X128357381Y-116101905D01*
X128357381Y-116482858D01*
X128405000Y-116578096D01*
X128452619Y-116625715D01*
X128547857Y-116673334D01*
X128690714Y-116673334D01*
X128785952Y-116625715D01*
X128833571Y-116578096D01*
X128881190Y-116482858D01*
X128881190Y-116101905D01*
X129357381Y-117625715D02*
X129357381Y-117054286D01*
X129357381Y-117340000D02*
X128357381Y-117340000D01*
X128500238Y-117244762D01*
X128595476Y-117149524D01*
X128643095Y-117054286D01*
X133318095Y-116387619D02*
X133270476Y-116340000D01*
X133175238Y-116292381D01*
X132937142Y-116292381D01*
X132841904Y-116340000D01*
X132794285Y-116387619D01*
X132746666Y-116482857D01*
X132746666Y-116578095D01*
X132794285Y-116720952D01*
X133365714Y-117292381D01*
X132746666Y-117292381D01*
X132365714Y-116387619D02*
X132318095Y-116340000D01*
X132222857Y-116292381D01*
X131984761Y-116292381D01*
X131889523Y-116340000D01*
X131841904Y-116387619D01*
X131794285Y-116482857D01*
X131794285Y-116578095D01*
X131841904Y-116720952D01*
X132413333Y-117292381D01*
X131794285Y-117292381D01*
X131175238Y-116292381D02*
X131079999Y-116292381D01*
X130984761Y-116340000D01*
X130937142Y-116387619D01*
X130889523Y-116482857D01*
X130841904Y-116673333D01*
X130841904Y-116911429D01*
X130889523Y-117101905D01*
X130937142Y-117197143D01*
X130984761Y-117244762D01*
X131079999Y-117292381D01*
X131175238Y-117292381D01*
X131270476Y-117244762D01*
X131318095Y-117197143D01*
X131365714Y-117101905D01*
X131413333Y-116911429D01*
X131413333Y-116673333D01*
X131365714Y-116482857D01*
X131318095Y-116387619D01*
X131270476Y-116340000D01*
X131175238Y-116292381D01*
X129357381Y-120483334D02*
X128881190Y-120150000D01*
X129357381Y-119911905D02*
X128357381Y-119911905D01*
X128357381Y-120292858D01*
X128405000Y-120388096D01*
X128452619Y-120435715D01*
X128547857Y-120483334D01*
X128690714Y-120483334D01*
X128785952Y-120435715D01*
X128833571Y-120388096D01*
X128881190Y-120292858D01*
X128881190Y-119911905D01*
X128452619Y-120864286D02*
X128405000Y-120911905D01*
X128357381Y-121007143D01*
X128357381Y-121245239D01*
X128405000Y-121340477D01*
X128452619Y-121388096D01*
X128547857Y-121435715D01*
X128643095Y-121435715D01*
X128785952Y-121388096D01*
X129357381Y-120816667D01*
X129357381Y-121435715D01*
X133318095Y-120197619D02*
X133270476Y-120150000D01*
X133175238Y-120102381D01*
X132937142Y-120102381D01*
X132841904Y-120150000D01*
X132794285Y-120197619D01*
X132746666Y-120292857D01*
X132746666Y-120388095D01*
X132794285Y-120530952D01*
X133365714Y-121102381D01*
X132746666Y-121102381D01*
X132365714Y-120197619D02*
X132318095Y-120150000D01*
X132222857Y-120102381D01*
X131984761Y-120102381D01*
X131889523Y-120150000D01*
X131841904Y-120197619D01*
X131794285Y-120292857D01*
X131794285Y-120388095D01*
X131841904Y-120530952D01*
X132413333Y-121102381D01*
X131794285Y-121102381D01*
X131175238Y-120102381D02*
X131079999Y-120102381D01*
X130984761Y-120150000D01*
X130937142Y-120197619D01*
X130889523Y-120292857D01*
X130841904Y-120483333D01*
X130841904Y-120721429D01*
X130889523Y-120911905D01*
X130937142Y-121007143D01*
X130984761Y-121054762D01*
X131079999Y-121102381D01*
X131175238Y-121102381D01*
X131270476Y-121054762D01*
X131318095Y-121007143D01*
X131365714Y-120911905D01*
X131413333Y-120721429D01*
X131413333Y-120483333D01*
X131365714Y-120292857D01*
X131318095Y-120197619D01*
X131270476Y-120150000D01*
X131175238Y-120102381D01*
X155106667Y-117395714D02*
X155106667Y-117871905D01*
X155392381Y-117300476D02*
X154392381Y-117633809D01*
X155392381Y-117967143D01*
X155392381Y-118824286D02*
X155392381Y-118252857D01*
X155392381Y-118538571D02*
X154392381Y-118538571D01*
X154535238Y-118443333D01*
X154630476Y-118348095D01*
X154678095Y-118252857D01*
X152566667Y-111490952D02*
X152566667Y-111967143D01*
X152852381Y-111395714D02*
X151852381Y-111729047D01*
X152852381Y-112062381D01*
X152852381Y-112395714D02*
X152185714Y-112395714D01*
X152376190Y-112395714D02*
X152280952Y-112443333D01*
X152233333Y-112490952D01*
X152185714Y-112586190D01*
X152185714Y-112681429D01*
X152852381Y-113443334D02*
X151852381Y-113443334D01*
X152804762Y-113443334D02*
X152852381Y-113348096D01*
X152852381Y-113157619D01*
X152804762Y-113062381D01*
X152757143Y-113014762D01*
X152661905Y-112967143D01*
X152376190Y-112967143D01*
X152280952Y-113014762D01*
X152233333Y-113062381D01*
X152185714Y-113157619D01*
X152185714Y-113348096D01*
X152233333Y-113443334D01*
X152185714Y-114348096D02*
X152852381Y-114348096D01*
X152185714Y-113919524D02*
X152709524Y-113919524D01*
X152804762Y-113967143D01*
X152852381Y-114062381D01*
X152852381Y-114205239D01*
X152804762Y-114300477D01*
X152757143Y-114348096D01*
X152852381Y-114824286D02*
X152185714Y-114824286D01*
X151852381Y-114824286D02*
X151900000Y-114776667D01*
X151947619Y-114824286D01*
X151900000Y-114871905D01*
X151852381Y-114824286D01*
X151947619Y-114824286D01*
X152185714Y-115300476D02*
X152852381Y-115300476D01*
X152280952Y-115300476D02*
X152233333Y-115348095D01*
X152185714Y-115443333D01*
X152185714Y-115586191D01*
X152233333Y-115681429D01*
X152328571Y-115729048D01*
X152852381Y-115729048D01*
X152852381Y-116348095D02*
X152804762Y-116252857D01*
X152757143Y-116205238D01*
X152661905Y-116157619D01*
X152376190Y-116157619D01*
X152280952Y-116205238D01*
X152233333Y-116252857D01*
X152185714Y-116348095D01*
X152185714Y-116490953D01*
X152233333Y-116586191D01*
X152280952Y-116633810D01*
X152376190Y-116681429D01*
X152661905Y-116681429D01*
X152757143Y-116633810D01*
X152804762Y-116586191D01*
X152852381Y-116490953D01*
X152852381Y-116348095D01*
X152852381Y-117871905D02*
X151852381Y-117871905D01*
X151852381Y-118252858D01*
X151900000Y-118348096D01*
X151947619Y-118395715D01*
X152042857Y-118443334D01*
X152185714Y-118443334D01*
X152280952Y-118395715D01*
X152328571Y-118348096D01*
X152376190Y-118252858D01*
X152376190Y-117871905D01*
X152852381Y-118871905D02*
X152185714Y-118871905D01*
X152376190Y-118871905D02*
X152280952Y-118919524D01*
X152233333Y-118967143D01*
X152185714Y-119062381D01*
X152185714Y-119157620D01*
X152852381Y-119633810D02*
X152804762Y-119538572D01*
X152757143Y-119490953D01*
X152661905Y-119443334D01*
X152376190Y-119443334D01*
X152280952Y-119490953D01*
X152233333Y-119538572D01*
X152185714Y-119633810D01*
X152185714Y-119776668D01*
X152233333Y-119871906D01*
X152280952Y-119919525D01*
X152376190Y-119967144D01*
X152661905Y-119967144D01*
X152757143Y-119919525D01*
X152804762Y-119871906D01*
X152852381Y-119776668D01*
X152852381Y-119633810D01*
X152852381Y-121157620D02*
X151852381Y-121157620D01*
X152566667Y-121490954D01*
X151852381Y-121824287D01*
X152852381Y-121824287D01*
X152852381Y-122300477D02*
X152185714Y-122300477D01*
X151852381Y-122300477D02*
X151900000Y-122252858D01*
X151947619Y-122300477D01*
X151900000Y-122348096D01*
X151852381Y-122300477D01*
X151947619Y-122300477D01*
X152804762Y-123205239D02*
X152852381Y-123110001D01*
X152852381Y-122919524D01*
X152804762Y-122824286D01*
X152757143Y-122776667D01*
X152661905Y-122729048D01*
X152376190Y-122729048D01*
X152280952Y-122776667D01*
X152233333Y-122824286D01*
X152185714Y-122919524D01*
X152185714Y-123110001D01*
X152233333Y-123205239D01*
X152852381Y-123633810D02*
X152185714Y-123633810D01*
X152376190Y-123633810D02*
X152280952Y-123681429D01*
X152233333Y-123729048D01*
X152185714Y-123824286D01*
X152185714Y-123919525D01*
X152852381Y-124395715D02*
X152804762Y-124300477D01*
X152757143Y-124252858D01*
X152661905Y-124205239D01*
X152376190Y-124205239D01*
X152280952Y-124252858D01*
X152233333Y-124300477D01*
X152185714Y-124395715D01*
X152185714Y-124538573D01*
X152233333Y-124633811D01*
X152280952Y-124681430D01*
X152376190Y-124729049D01*
X152661905Y-124729049D01*
X152757143Y-124681430D01*
X152804762Y-124633811D01*
X152852381Y-124538573D01*
X152852381Y-124395715D01*
X153193571Y-132167381D02*
X152574523Y-132167381D01*
X152907857Y-132548333D01*
X152764999Y-132548333D01*
X152669761Y-132595952D01*
X152622142Y-132643571D01*
X152574523Y-132738810D01*
X152574523Y-132976905D01*
X152622142Y-133072143D01*
X152669761Y-133119762D01*
X152764999Y-133167381D01*
X153050714Y-133167381D01*
X153145952Y-133119762D01*
X153193571Y-133072143D01*
X152145952Y-133072143D02*
X152098333Y-133119762D01*
X152145952Y-133167381D01*
X152193571Y-133119762D01*
X152145952Y-133072143D01*
X152145952Y-133167381D01*
X151765000Y-132167381D02*
X151145952Y-132167381D01*
X151479286Y-132548333D01*
X151336428Y-132548333D01*
X151241190Y-132595952D01*
X151193571Y-132643571D01*
X151145952Y-132738810D01*
X151145952Y-132976905D01*
X151193571Y-133072143D01*
X151241190Y-133119762D01*
X151336428Y-133167381D01*
X151622143Y-133167381D01*
X151717381Y-133119762D01*
X151765000Y-133072143D01*
X150812619Y-132500714D02*
X150574524Y-133167381D01*
X150336428Y-132500714D01*
X152542857Y-130262381D02*
X153019048Y-130262381D01*
X153066667Y-130738571D01*
X153019048Y-130690952D01*
X152923810Y-130643333D01*
X152685714Y-130643333D01*
X152590476Y-130690952D01*
X152542857Y-130738571D01*
X152495238Y-130833810D01*
X152495238Y-131071905D01*
X152542857Y-131167143D01*
X152590476Y-131214762D01*
X152685714Y-131262381D01*
X152923810Y-131262381D01*
X153019048Y-131214762D01*
X153066667Y-131167143D01*
X152161905Y-130595714D02*
X151923810Y-131262381D01*
X151685714Y-130595714D01*
M02*
