G04 #@! TF.FileFunction,Copper,L1,Top,Signal*
%FSLAX46Y46*%
G04 Gerber Fmt 4.6, Leading zero omitted, Abs format (unit mm)*
G04 Created by KiCad (PCBNEW 4.0.7) date 09/13/19 13:38:05*
%MOMM*%
%LPD*%
G01*
G04 APERTURE LIST*
%ADD10C,0.100000*%
%ADD11R,1.800000X1.800000*%
%ADD12C,1.800000*%
%ADD13R,1.700000X1.700000*%
%ADD14O,1.700000X1.700000*%
%ADD15C,2.000000*%
%ADD16C,5.000000*%
%ADD17C,0.600000*%
%ADD18C,0.250000*%
G04 APERTURE END LIST*
D10*
D11*
X140970000Y-60325000D03*
D12*
X140970000Y-57785000D03*
D13*
X129540000Y-57785000D03*
D14*
X129540000Y-60325000D03*
X127000000Y-57785000D03*
X127000000Y-60325000D03*
X124460000Y-57785000D03*
X124460000Y-60325000D03*
X121920000Y-57785000D03*
X121920000Y-60325000D03*
X119380000Y-57785000D03*
X119380000Y-60325000D03*
X116840000Y-57785000D03*
X116840000Y-60325000D03*
X114300000Y-57785000D03*
X114300000Y-60325000D03*
X111760000Y-57785000D03*
X111760000Y-60325000D03*
D15*
X98425000Y-127055000D03*
X98425000Y-122555000D03*
X104925000Y-127055000D03*
X104925000Y-122555000D03*
X136525000Y-116260000D03*
X136525000Y-111760000D03*
X143025000Y-116260000D03*
X143025000Y-111760000D03*
X123825000Y-94670000D03*
X123825000Y-90170000D03*
X130325000Y-94670000D03*
X130325000Y-90170000D03*
X111125000Y-127055000D03*
X111125000Y-122555000D03*
X117625000Y-127055000D03*
X117625000Y-122555000D03*
X98425000Y-105465000D03*
X98425000Y-100965000D03*
X104925000Y-105465000D03*
X104925000Y-100965000D03*
X136525000Y-94670000D03*
X136525000Y-90170000D03*
X143025000Y-94670000D03*
X143025000Y-90170000D03*
X123825000Y-127055000D03*
X123825000Y-122555000D03*
X130325000Y-127055000D03*
X130325000Y-122555000D03*
X111125000Y-105465000D03*
X111125000Y-100965000D03*
X117625000Y-105465000D03*
X117625000Y-100965000D03*
X98425000Y-82605000D03*
X98425000Y-78105000D03*
X104925000Y-82605000D03*
X104925000Y-78105000D03*
X136525000Y-127055000D03*
X136525000Y-122555000D03*
X143025000Y-127055000D03*
X143025000Y-122555000D03*
X123825000Y-105465000D03*
X123825000Y-100965000D03*
X130325000Y-105465000D03*
X130325000Y-100965000D03*
X111125000Y-82605000D03*
X111125000Y-78105000D03*
X117625000Y-82605000D03*
X117625000Y-78105000D03*
X98425000Y-116260000D03*
X98425000Y-111760000D03*
X104925000Y-116260000D03*
X104925000Y-111760000D03*
X136525000Y-105465000D03*
X136525000Y-100965000D03*
X143025000Y-105465000D03*
X143025000Y-100965000D03*
X136525000Y-82605000D03*
X136525000Y-78105000D03*
X143025000Y-82605000D03*
X143025000Y-78105000D03*
X111125000Y-116260000D03*
X111125000Y-111760000D03*
X117625000Y-116260000D03*
X117625000Y-111760000D03*
X98425000Y-94670000D03*
X98425000Y-90170000D03*
X104925000Y-94670000D03*
X104925000Y-90170000D03*
X98425000Y-71810000D03*
X98425000Y-67310000D03*
X104925000Y-71810000D03*
X104925000Y-67310000D03*
X123825000Y-116260000D03*
X123825000Y-111760000D03*
X130325000Y-116260000D03*
X130325000Y-111760000D03*
X111125000Y-94670000D03*
X111125000Y-90170000D03*
X117625000Y-94670000D03*
X117625000Y-90170000D03*
X123825000Y-82605000D03*
X123825000Y-78105000D03*
X130325000Y-82605000D03*
X130325000Y-78105000D03*
X123825000Y-71810000D03*
X123825000Y-67310000D03*
X130325000Y-71810000D03*
X130325000Y-67310000D03*
X111125000Y-71810000D03*
X111125000Y-67310000D03*
X117625000Y-71810000D03*
X117625000Y-67310000D03*
D16*
X91440000Y-58420000D03*
X151130000Y-58420000D03*
X91440000Y-128270000D03*
X151130000Y-128270000D03*
D13*
X137160000Y-69215000D03*
D14*
X139700000Y-69215000D03*
X142240000Y-69215000D03*
D17*
X114935000Y-64135000D03*
X135255000Y-58420000D03*
X135255000Y-66675000D03*
X132080000Y-59690000D03*
X134620000Y-71120000D03*
X113665000Y-64770000D03*
X112395000Y-65405000D03*
X133350000Y-60960000D03*
X133350000Y-98425000D03*
X125095000Y-62230000D03*
X107950000Y-62230000D03*
X121285000Y-63500000D03*
X121285000Y-78740000D03*
X123190000Y-62865000D03*
X121920000Y-86360000D03*
X120650000Y-110490000D03*
X120015000Y-89535000D03*
X119380000Y-82605000D03*
D18*
X140970000Y-63500000D02*
X140970000Y-60325000D01*
X140335000Y-64135000D02*
X140970000Y-63500000D01*
X114935000Y-64135000D02*
X140335000Y-64135000D01*
X130325000Y-67310000D02*
X134620000Y-67310000D01*
X135890000Y-57785000D02*
X140970000Y-57785000D01*
X135255000Y-58420000D02*
X135890000Y-57785000D01*
X134620000Y-67310000D02*
X135255000Y-66675000D01*
X117625000Y-67310000D02*
X111125000Y-67310000D01*
X123825000Y-67310000D02*
X117625000Y-67310000D01*
X130325000Y-67310000D02*
X123825000Y-67310000D01*
X111125000Y-71810000D02*
X117625000Y-71810000D01*
X116840000Y-60325000D02*
X116840000Y-59690000D01*
X116840000Y-59690000D02*
X117475000Y-59055000D01*
X117475000Y-59055000D02*
X131445000Y-59055000D01*
X131445000Y-59055000D02*
X132080000Y-59690000D01*
X130325000Y-71810000D02*
X133930000Y-71810000D01*
X133930000Y-71810000D02*
X134620000Y-71120000D01*
X123825000Y-71810000D02*
X130325000Y-71810000D01*
X142240000Y-65405000D02*
X142240000Y-69215000D01*
X141605000Y-64770000D02*
X142240000Y-65405000D01*
X113665000Y-64770000D02*
X141605000Y-64770000D01*
X139700000Y-69215000D02*
X139700000Y-66040000D01*
X139065000Y-65405000D02*
X112395000Y-65405000D01*
X139700000Y-66040000D02*
X139065000Y-65405000D01*
X107315000Y-120015000D02*
X105410000Y-120015000D01*
X104925000Y-120500000D02*
X104925000Y-122555000D01*
X105410000Y-120015000D02*
X104925000Y-120500000D01*
X104925000Y-122555000D02*
X104925000Y-122405000D01*
X145415000Y-111760000D02*
X143025000Y-111760000D01*
X146050000Y-112395000D02*
X145415000Y-111760000D01*
X146050000Y-119380000D02*
X146050000Y-112395000D01*
X145415000Y-120015000D02*
X146050000Y-119380000D01*
X107315000Y-120015000D02*
X145415000Y-120015000D01*
X130325000Y-90170000D02*
X123825000Y-90170000D01*
X136525000Y-111760000D02*
X143025000Y-111760000D01*
X104925000Y-122555000D02*
X98425000Y-122555000D01*
X132715000Y-60325000D02*
X129540000Y-60325000D01*
X133350000Y-60960000D02*
X132715000Y-60325000D01*
X104925000Y-100965000D02*
X104925000Y-98910000D01*
X105410000Y-98425000D02*
X133350000Y-98425000D01*
X104925000Y-98910000D02*
X105410000Y-98425000D01*
X136525000Y-90170000D02*
X143025000Y-90170000D01*
X98425000Y-100965000D02*
X104925000Y-100965000D01*
X111125000Y-122555000D02*
X117625000Y-122555000D01*
X107950000Y-62230000D02*
X125095000Y-62230000D01*
X104925000Y-78105000D02*
X98425000Y-78105000D01*
X111125000Y-100965000D02*
X117625000Y-100965000D01*
X130325000Y-122555000D02*
X123825000Y-122555000D01*
X121920000Y-63500000D02*
X121285000Y-63500000D01*
X121920000Y-63500000D02*
X123825000Y-63500000D01*
X123825000Y-63500000D02*
X124460000Y-62865000D01*
X124460000Y-62865000D02*
X126365000Y-62865000D01*
X126365000Y-62865000D02*
X127000000Y-62230000D01*
X127000000Y-60325000D02*
X127000000Y-62230000D01*
X120650000Y-78105000D02*
X117625000Y-78105000D01*
X121285000Y-78740000D02*
X120650000Y-78105000D01*
X117625000Y-78105000D02*
X111125000Y-78105000D01*
X123825000Y-100965000D02*
X130325000Y-100965000D01*
X143025000Y-122555000D02*
X136525000Y-122555000D01*
X104925000Y-111760000D02*
X104925000Y-109705000D01*
X146685000Y-108585000D02*
X146685000Y-100330000D01*
X146050000Y-109220000D02*
X146685000Y-108585000D01*
X105410000Y-109220000D02*
X146050000Y-109220000D01*
X104925000Y-109705000D02*
X105410000Y-109220000D01*
X143025000Y-100965000D02*
X146050000Y-100965000D01*
X146050000Y-100965000D02*
X146685000Y-100330000D01*
X146050000Y-78105000D02*
X143025000Y-78105000D01*
X146685000Y-100330000D02*
X146685000Y-78740000D01*
X146685000Y-78740000D02*
X146050000Y-78105000D01*
X136525000Y-78105000D02*
X143025000Y-78105000D01*
X136525000Y-100965000D02*
X143025000Y-100965000D01*
X104925000Y-111760000D02*
X98425000Y-111760000D01*
X106680000Y-62865000D02*
X105410000Y-62865000D01*
X104925000Y-63350000D02*
X104925000Y-67310000D01*
X105410000Y-62865000D02*
X104925000Y-63350000D01*
X107315000Y-62865000D02*
X106680000Y-62865000D01*
X107315000Y-62865000D02*
X118745000Y-62865000D01*
X98425000Y-67310000D02*
X104925000Y-67310000D01*
X98425000Y-67310000D02*
X95250000Y-67310000D01*
X95250000Y-90170000D02*
X94615000Y-89535000D01*
X94615000Y-89535000D02*
X94615000Y-67945000D01*
X94615000Y-67945000D02*
X95250000Y-67310000D01*
X95250000Y-90170000D02*
X98425000Y-90170000D01*
X123190000Y-62865000D02*
X118745000Y-62865000D01*
X104925000Y-90170000D02*
X98425000Y-90170000D01*
X117625000Y-111760000D02*
X111125000Y-111760000D01*
X117625000Y-90170000D02*
X117625000Y-87480000D01*
X121285000Y-86995000D02*
X121920000Y-86360000D01*
X118110000Y-86995000D02*
X121285000Y-86995000D01*
X117625000Y-87480000D02*
X118110000Y-86995000D01*
X130325000Y-78105000D02*
X123825000Y-78105000D01*
X117625000Y-90170000D02*
X111125000Y-90170000D01*
X130325000Y-111760000D02*
X123825000Y-111760000D01*
X120650000Y-116260000D02*
X120650000Y-110490000D01*
X95885000Y-116260000D02*
X95830000Y-116260000D01*
X95250000Y-126365000D02*
X95940000Y-127055000D01*
X95250000Y-116840000D02*
X95250000Y-126365000D01*
X95830000Y-116260000D02*
X95250000Y-116840000D01*
X95885000Y-116260000D02*
X98425000Y-116260000D01*
X98425000Y-127055000D02*
X95940000Y-127055000D01*
X123825000Y-116260000D02*
X130325000Y-116260000D01*
X117625000Y-116260000D02*
X120650000Y-116260000D01*
X120650000Y-116260000D02*
X123825000Y-116260000D01*
X111125000Y-116260000D02*
X117625000Y-116260000D01*
X104925000Y-116260000D02*
X111125000Y-116260000D01*
X98425000Y-116260000D02*
X104925000Y-116260000D01*
X136525000Y-127055000D02*
X143025000Y-127055000D01*
X130325000Y-127055000D02*
X136525000Y-127055000D01*
X123825000Y-127055000D02*
X130325000Y-127055000D01*
X117625000Y-127055000D02*
X123825000Y-127055000D01*
X111125000Y-127055000D02*
X117625000Y-127055000D01*
X104925000Y-127055000D02*
X111125000Y-127055000D01*
X98425000Y-127055000D02*
X104925000Y-127055000D01*
X119325000Y-94670000D02*
X117625000Y-94670000D01*
X120015000Y-93980000D02*
X120015000Y-89535000D01*
X119325000Y-94670000D02*
X120015000Y-93980000D01*
X95885000Y-94670000D02*
X95830000Y-94670000D01*
X95250000Y-104775000D02*
X95940000Y-105465000D01*
X95250000Y-95250000D02*
X95250000Y-104775000D01*
X95830000Y-94670000D02*
X95250000Y-95250000D01*
X95885000Y-94670000D02*
X98425000Y-94670000D01*
X117625000Y-105465000D02*
X123825000Y-105465000D01*
X98425000Y-105465000D02*
X95940000Y-105465000D01*
X111125000Y-94670000D02*
X117625000Y-94670000D01*
X104925000Y-94670000D02*
X111125000Y-94670000D01*
X98425000Y-94670000D02*
X104925000Y-94670000D01*
X136525000Y-105465000D02*
X143025000Y-105465000D01*
X130325000Y-105465000D02*
X136525000Y-105465000D01*
X123825000Y-105465000D02*
X130325000Y-105465000D01*
X111125000Y-105465000D02*
X117625000Y-105465000D01*
X104925000Y-105465000D02*
X111125000Y-105465000D01*
X98425000Y-105465000D02*
X104925000Y-105465000D01*
X136525000Y-116260000D02*
X143025000Y-116260000D01*
X98425000Y-71810000D02*
X104925000Y-71810000D01*
X98425000Y-71810000D02*
X96520000Y-71810000D01*
X95250000Y-72390000D02*
X95830000Y-71810000D01*
X95830000Y-71810000D02*
X96520000Y-71810000D01*
X95885000Y-82605000D02*
X95885000Y-82550000D01*
X95250000Y-81915000D02*
X95250000Y-73025000D01*
X95885000Y-82550000D02*
X95250000Y-81915000D01*
X95885000Y-82605000D02*
X98425000Y-82605000D01*
X95250000Y-73025000D02*
X95250000Y-72390000D01*
X143025000Y-94670000D02*
X145360000Y-94670000D01*
X145415000Y-82550000D02*
X143080000Y-82550000D01*
X146050000Y-83185000D02*
X145415000Y-82550000D01*
X146050000Y-93980000D02*
X146050000Y-83185000D01*
X145360000Y-94670000D02*
X146050000Y-93980000D01*
X143080000Y-82550000D02*
X143025000Y-82605000D01*
X136525000Y-82605000D02*
X143025000Y-82605000D01*
X130325000Y-82605000D02*
X136525000Y-82605000D01*
X123825000Y-82605000D02*
X130325000Y-82605000D01*
X117625000Y-82605000D02*
X119380000Y-82605000D01*
X119380000Y-82605000D02*
X123825000Y-82605000D01*
X111125000Y-82605000D02*
X117625000Y-82605000D01*
X104925000Y-82605000D02*
X111125000Y-82605000D01*
X98425000Y-82605000D02*
X104925000Y-82605000D01*
X136525000Y-94670000D02*
X143025000Y-94670000D01*
X130325000Y-94670000D02*
X136525000Y-94670000D01*
X123825000Y-94670000D02*
X130325000Y-94670000D01*
M02*
