G04 #@! TF.FileFunction,Soldermask,Top*
%FSLAX46Y46*%
G04 Gerber Fmt 4.6, Leading zero omitted, Abs format (unit mm)*
G04 Created by KiCad (PCBNEW 4.0.7) date 09/06/19 15:29:48*
%MOMM*%
%LPD*%
G01*
G04 APERTURE LIST*
%ADD10C,0.100000*%
%ADD11R,2.200000X2.200000*%
%ADD12C,2.200000*%
%ADD13R,2.100000X2.100000*%
%ADD14O,2.100000X2.100000*%
%ADD15C,2.400000*%
%ADD16C,5.400000*%
G04 APERTURE END LIST*
D10*
D11*
X101600000Y-60325000D03*
D12*
X101600000Y-57785000D03*
D13*
X129540000Y-57785000D03*
D14*
X129540000Y-60325000D03*
X127000000Y-57785000D03*
X127000000Y-60325000D03*
X124460000Y-57785000D03*
X124460000Y-60325000D03*
X121920000Y-57785000D03*
X121920000Y-60325000D03*
X119380000Y-57785000D03*
X119380000Y-60325000D03*
X116840000Y-57785000D03*
X116840000Y-60325000D03*
X114300000Y-57785000D03*
X114300000Y-60325000D03*
X111760000Y-57785000D03*
X111760000Y-60325000D03*
D15*
X98425000Y-127055000D03*
X98425000Y-122555000D03*
X104925000Y-127055000D03*
X104925000Y-122555000D03*
X136525000Y-116260000D03*
X136525000Y-111760000D03*
X143025000Y-116260000D03*
X143025000Y-111760000D03*
X123825000Y-94670000D03*
X123825000Y-90170000D03*
X130325000Y-94670000D03*
X130325000Y-90170000D03*
X111125000Y-127055000D03*
X111125000Y-122555000D03*
X117625000Y-127055000D03*
X117625000Y-122555000D03*
X98425000Y-105465000D03*
X98425000Y-100965000D03*
X104925000Y-105465000D03*
X104925000Y-100965000D03*
X136525000Y-94670000D03*
X136525000Y-90170000D03*
X143025000Y-94670000D03*
X143025000Y-90170000D03*
X123825000Y-127055000D03*
X123825000Y-122555000D03*
X130325000Y-127055000D03*
X130325000Y-122555000D03*
X111125000Y-105465000D03*
X111125000Y-100965000D03*
X117625000Y-105465000D03*
X117625000Y-100965000D03*
X98425000Y-82605000D03*
X98425000Y-78105000D03*
X104925000Y-82605000D03*
X104925000Y-78105000D03*
X136525000Y-127055000D03*
X136525000Y-122555000D03*
X143025000Y-127055000D03*
X143025000Y-122555000D03*
X123825000Y-105465000D03*
X123825000Y-100965000D03*
X130325000Y-105465000D03*
X130325000Y-100965000D03*
X111125000Y-82605000D03*
X111125000Y-78105000D03*
X117625000Y-82605000D03*
X117625000Y-78105000D03*
X98425000Y-116260000D03*
X98425000Y-111760000D03*
X104925000Y-116260000D03*
X104925000Y-111760000D03*
X136525000Y-105465000D03*
X136525000Y-100965000D03*
X143025000Y-105465000D03*
X143025000Y-100965000D03*
X136525000Y-82605000D03*
X136525000Y-78105000D03*
X143025000Y-82605000D03*
X143025000Y-78105000D03*
X111125000Y-116260000D03*
X111125000Y-111760000D03*
X117625000Y-116260000D03*
X117625000Y-111760000D03*
X98425000Y-94670000D03*
X98425000Y-90170000D03*
X104925000Y-94670000D03*
X104925000Y-90170000D03*
X111125000Y-71810000D03*
X111125000Y-67310000D03*
X117625000Y-71810000D03*
X117625000Y-67310000D03*
X123825000Y-116260000D03*
X123825000Y-111760000D03*
X130325000Y-116260000D03*
X130325000Y-111760000D03*
X111125000Y-94670000D03*
X111125000Y-90170000D03*
X117625000Y-94670000D03*
X117625000Y-90170000D03*
X123825000Y-82605000D03*
X123825000Y-78105000D03*
X130325000Y-82605000D03*
X130325000Y-78105000D03*
X136525000Y-71810000D03*
X136525000Y-67310000D03*
X143025000Y-71810000D03*
X143025000Y-67310000D03*
X123825000Y-71810000D03*
X123825000Y-67310000D03*
X130325000Y-71810000D03*
X130325000Y-67310000D03*
D16*
X91440000Y-58420000D03*
X151130000Y-58420000D03*
X91440000Y-128270000D03*
X151130000Y-128270000D03*
D13*
X99060000Y-69215000D03*
D14*
X101600000Y-69215000D03*
X104140000Y-69215000D03*
M02*
