M48
;DRILL file {KiCad 4.0.7} date 09/06/19 15:29:50
;FORMAT={2:4/ absolute / inch / suppress leading zeros}
FMAT,2
INCH,TZ
T1C0.016
T2C0.035
T3C0.039
T4C0.043
T5C0.120
%
G90
G05
M72
T1
X40250Y-26250
X41000Y-26250
X42500Y-24500
X46750Y-24750
X47250Y-35250
X47500Y-43500
X47750Y-25250
X47750Y-31000
X48000Y-34000
X48500Y-24750
X49250Y-24500
X52000Y-23500
X52500Y-24000
X52500Y-38750
T2
X40000Y-22750
X40000Y-23750
T3
X39000Y-27250
X40000Y-27250
X41000Y-27250
X44000Y-22750
X44000Y-23750
X45000Y-22750
X45000Y-23750
X46000Y-22750
X46000Y-23750
X47000Y-22750
X47000Y-23750
X48000Y-22750
X48000Y-23750
X49000Y-22750
X49000Y-23750
X50000Y-22750
X50000Y-23750
X51000Y-22750
X51000Y-23750
T4
X38750Y-30750
X38750Y-32522
X38750Y-35500
X38750Y-37272
X38750Y-39750
X38750Y-41522
X38750Y-44000
X38750Y-45772
X38750Y-48250
X38750Y-50022
X41309Y-30750
X41309Y-32522
X41309Y-35500
X41309Y-37272
X41309Y-39750
X41309Y-41522
X41309Y-44000
X41309Y-45772
X41309Y-48250
X41309Y-50022
X43750Y-26500
X43750Y-28272
X43750Y-30750
X43750Y-32522
X43750Y-35500
X43750Y-37272
X43750Y-39750
X43750Y-41522
X43750Y-44000
X43750Y-45772
X43750Y-48250
X43750Y-50022
X46309Y-26500
X46309Y-28272
X46309Y-30750
X46309Y-32522
X46309Y-35500
X46309Y-37272
X46309Y-39750
X46309Y-41522
X46309Y-44000
X46309Y-45772
X46309Y-48250
X46309Y-50022
X48750Y-26500
X48750Y-28272
X48750Y-30750
X48750Y-32522
X48750Y-35500
X48750Y-37272
X48750Y-39750
X48750Y-41522
X48750Y-44000
X48750Y-45772
X48750Y-48250
X48750Y-50022
X51309Y-26500
X51309Y-28272
X51309Y-30750
X51309Y-32522
X51309Y-35500
X51309Y-37272
X51309Y-39750
X51309Y-41522
X51309Y-44000
X51309Y-45772
X51309Y-48250
X51309Y-50022
X53750Y-26500
X53750Y-28272
X53750Y-30750
X53750Y-32522
X53750Y-35500
X53750Y-37272
X53750Y-39750
X53750Y-41522
X53750Y-44000
X53750Y-45772
X53750Y-48250
X53750Y-50022
X56309Y-26500
X56309Y-28272
X56309Y-30750
X56309Y-32522
X56309Y-35500
X56309Y-37272
X56309Y-39750
X56309Y-41522
X56309Y-44000
X56309Y-45772
X56309Y-48250
X56309Y-50022
T5
X36000Y-23000
X36000Y-50500
X59500Y-23000
X59500Y-50500
T0
M30
