G04 #@! TF.FileFunction,Copper,L2,Bot,Signal*
%FSLAX46Y46*%
G04 Gerber Fmt 4.6, Leading zero omitted, Abs format (unit mm)*
G04 Created by KiCad (PCBNEW 4.0.7) date 09/06/19 15:29:48*
%MOMM*%
%LPD*%
G01*
G04 APERTURE LIST*
%ADD10C,0.100000*%
%ADD11R,1.800000X1.800000*%
%ADD12C,1.800000*%
%ADD13R,1.700000X1.700000*%
%ADD14O,1.700000X1.700000*%
%ADD15C,2.000000*%
%ADD16C,5.000000*%
%ADD17C,0.600000*%
%ADD18C,0.250000*%
G04 APERTURE END LIST*
D10*
D11*
X101600000Y-60325000D03*
D12*
X101600000Y-57785000D03*
D13*
X129540000Y-57785000D03*
D14*
X129540000Y-60325000D03*
X127000000Y-57785000D03*
X127000000Y-60325000D03*
X124460000Y-57785000D03*
X124460000Y-60325000D03*
X121920000Y-57785000D03*
X121920000Y-60325000D03*
X119380000Y-57785000D03*
X119380000Y-60325000D03*
X116840000Y-57785000D03*
X116840000Y-60325000D03*
X114300000Y-57785000D03*
X114300000Y-60325000D03*
X111760000Y-57785000D03*
X111760000Y-60325000D03*
D15*
X98425000Y-127055000D03*
X98425000Y-122555000D03*
X104925000Y-127055000D03*
X104925000Y-122555000D03*
X136525000Y-116260000D03*
X136525000Y-111760000D03*
X143025000Y-116260000D03*
X143025000Y-111760000D03*
X123825000Y-94670000D03*
X123825000Y-90170000D03*
X130325000Y-94670000D03*
X130325000Y-90170000D03*
X111125000Y-127055000D03*
X111125000Y-122555000D03*
X117625000Y-127055000D03*
X117625000Y-122555000D03*
X98425000Y-105465000D03*
X98425000Y-100965000D03*
X104925000Y-105465000D03*
X104925000Y-100965000D03*
X136525000Y-94670000D03*
X136525000Y-90170000D03*
X143025000Y-94670000D03*
X143025000Y-90170000D03*
X123825000Y-127055000D03*
X123825000Y-122555000D03*
X130325000Y-127055000D03*
X130325000Y-122555000D03*
X111125000Y-105465000D03*
X111125000Y-100965000D03*
X117625000Y-105465000D03*
X117625000Y-100965000D03*
X98425000Y-82605000D03*
X98425000Y-78105000D03*
X104925000Y-82605000D03*
X104925000Y-78105000D03*
X136525000Y-127055000D03*
X136525000Y-122555000D03*
X143025000Y-127055000D03*
X143025000Y-122555000D03*
X123825000Y-105465000D03*
X123825000Y-100965000D03*
X130325000Y-105465000D03*
X130325000Y-100965000D03*
X111125000Y-82605000D03*
X111125000Y-78105000D03*
X117625000Y-82605000D03*
X117625000Y-78105000D03*
X98425000Y-116260000D03*
X98425000Y-111760000D03*
X104925000Y-116260000D03*
X104925000Y-111760000D03*
X136525000Y-105465000D03*
X136525000Y-100965000D03*
X143025000Y-105465000D03*
X143025000Y-100965000D03*
X136525000Y-82605000D03*
X136525000Y-78105000D03*
X143025000Y-82605000D03*
X143025000Y-78105000D03*
X111125000Y-116260000D03*
X111125000Y-111760000D03*
X117625000Y-116260000D03*
X117625000Y-111760000D03*
X98425000Y-94670000D03*
X98425000Y-90170000D03*
X104925000Y-94670000D03*
X104925000Y-90170000D03*
X111125000Y-71810000D03*
X111125000Y-67310000D03*
X117625000Y-71810000D03*
X117625000Y-67310000D03*
X123825000Y-116260000D03*
X123825000Y-111760000D03*
X130325000Y-116260000D03*
X130325000Y-111760000D03*
X111125000Y-94670000D03*
X111125000Y-90170000D03*
X117625000Y-94670000D03*
X117625000Y-90170000D03*
X123825000Y-82605000D03*
X123825000Y-78105000D03*
X130325000Y-82605000D03*
X130325000Y-78105000D03*
X136525000Y-71810000D03*
X136525000Y-67310000D03*
X143025000Y-71810000D03*
X143025000Y-67310000D03*
X123825000Y-71810000D03*
X123825000Y-67310000D03*
X130325000Y-71810000D03*
X130325000Y-67310000D03*
D16*
X91440000Y-58420000D03*
X151130000Y-58420000D03*
X91440000Y-128270000D03*
X151130000Y-128270000D03*
D13*
X99060000Y-69215000D03*
D14*
X101600000Y-69215000D03*
X104140000Y-69215000D03*
D17*
X132080000Y-59690000D03*
X104140000Y-66675000D03*
X102235000Y-66675000D03*
X133350000Y-60960000D03*
X133350000Y-98425000D03*
X125095000Y-62230000D03*
X107950000Y-62230000D03*
X121285000Y-64135000D03*
X121285000Y-78740000D03*
X118745000Y-62865000D03*
X123190000Y-62865000D03*
X121920000Y-86360000D03*
X120650000Y-110490000D03*
X120015000Y-89535000D03*
D18*
X132080000Y-59690000D02*
X132080000Y-71120000D01*
X132080000Y-71120000D02*
X131445000Y-71755000D01*
X131445000Y-71755000D02*
X130380000Y-71755000D01*
X130380000Y-71755000D02*
X130325000Y-71810000D01*
X134620000Y-66675000D02*
X134620000Y-56515000D01*
X135310000Y-71810000D02*
X134620000Y-71120000D01*
X134620000Y-71120000D02*
X134620000Y-66675000D01*
X136525000Y-71810000D02*
X135310000Y-71810000D01*
X114300000Y-56515000D02*
X114300000Y-57785000D01*
X114935000Y-55880000D02*
X114300000Y-56515000D01*
X133985000Y-55880000D02*
X114935000Y-55880000D01*
X134620000Y-56515000D02*
X133985000Y-55880000D01*
X104140000Y-66675000D02*
X104140000Y-69215000D01*
X102235000Y-66675000D02*
X101600000Y-67310000D01*
X101600000Y-67310000D02*
X101600000Y-69215000D01*
X129540000Y-57785000D02*
X132080000Y-57785000D01*
X132715000Y-74930000D02*
X132715000Y-90805000D01*
X132715000Y-65405000D02*
X132715000Y-74930000D01*
X132715000Y-58420000D02*
X132715000Y-65405000D01*
X132080000Y-57785000D02*
X132715000Y-58420000D01*
X130325000Y-90170000D02*
X132080000Y-90170000D01*
X133350000Y-111760000D02*
X136525000Y-111760000D01*
X132715000Y-111125000D02*
X133350000Y-111760000D01*
X132715000Y-90805000D02*
X132715000Y-111125000D01*
X132080000Y-90170000D02*
X132715000Y-90805000D01*
X133350000Y-66675000D02*
X133350000Y-60960000D01*
X133985000Y-90805000D02*
X133985000Y-81915000D01*
X133350000Y-78105000D02*
X133350000Y-66675000D01*
X133985000Y-78740000D02*
X133350000Y-78105000D01*
X133985000Y-81915000D02*
X133985000Y-78740000D01*
X134620000Y-90170000D02*
X136525000Y-90170000D01*
X133985000Y-90805000D02*
X134620000Y-90170000D01*
X133985000Y-97790000D02*
X133985000Y-90805000D01*
X133350000Y-98425000D02*
X133985000Y-97790000D01*
X98425000Y-100965000D02*
X96520000Y-100965000D01*
X111125000Y-121285000D02*
X111125000Y-122555000D01*
X110490000Y-120650000D02*
X111125000Y-121285000D01*
X96520000Y-120650000D02*
X110490000Y-120650000D01*
X95885000Y-120015000D02*
X96520000Y-120650000D01*
X95885000Y-101600000D02*
X95885000Y-120015000D01*
X96520000Y-100965000D02*
X95885000Y-101600000D01*
X107315000Y-78740000D02*
X107315000Y-62865000D01*
X125730000Y-59055000D02*
X127000000Y-57785000D01*
X125730000Y-61595000D02*
X125730000Y-59055000D01*
X125095000Y-62230000D02*
X125730000Y-61595000D01*
X107315000Y-62865000D02*
X107950000Y-62230000D01*
X104925000Y-78105000D02*
X106680000Y-78105000D01*
X107950000Y-100965000D02*
X111125000Y-100965000D01*
X107315000Y-100330000D02*
X107950000Y-100965000D01*
X107315000Y-78740000D02*
X107315000Y-100330000D01*
X106680000Y-78105000D02*
X107315000Y-78740000D01*
X117625000Y-100965000D02*
X118110000Y-100965000D01*
X118110000Y-100965000D02*
X118745000Y-100965000D01*
X120015000Y-122555000D02*
X123825000Y-122555000D01*
X119380000Y-121920000D02*
X120015000Y-122555000D01*
X119380000Y-101600000D02*
X119380000Y-121920000D01*
X118745000Y-100965000D02*
X119380000Y-101600000D01*
X121285000Y-66675000D02*
X121285000Y-64135000D01*
X121285000Y-78740000D02*
X121285000Y-66675000D01*
X123825000Y-100965000D02*
X121920000Y-100965000D01*
X121285000Y-100330000D02*
X121285000Y-78740000D01*
X121920000Y-100965000D02*
X121285000Y-100330000D01*
X130325000Y-100965000D02*
X131445000Y-100965000D01*
X132715000Y-122555000D02*
X136525000Y-122555000D01*
X132080000Y-121920000D02*
X132715000Y-122555000D01*
X132080000Y-101600000D02*
X132080000Y-121920000D01*
X131445000Y-100965000D02*
X132080000Y-101600000D01*
X133985000Y-66675000D02*
X133985000Y-57150000D01*
X134620000Y-78105000D02*
X133985000Y-77470000D01*
X133985000Y-77470000D02*
X133985000Y-66675000D01*
X136525000Y-78105000D02*
X134620000Y-78105000D01*
X125095000Y-56515000D02*
X124460000Y-57150000D01*
X133350000Y-56515000D02*
X125095000Y-56515000D01*
X133985000Y-57150000D02*
X133350000Y-56515000D01*
X124460000Y-57150000D02*
X124460000Y-57785000D01*
X124460000Y-60325000D02*
X124460000Y-61595000D01*
X117625000Y-63350000D02*
X117625000Y-67310000D01*
X118110000Y-62865000D02*
X117625000Y-63350000D01*
X118745000Y-62865000D02*
X118110000Y-62865000D01*
X124460000Y-61595000D02*
X123190000Y-62865000D01*
X104925000Y-90170000D02*
X106045000Y-90170000D01*
X107315000Y-111760000D02*
X111125000Y-111760000D01*
X106680000Y-111125000D02*
X107315000Y-111760000D01*
X106680000Y-90805000D02*
X106680000Y-111125000D01*
X106045000Y-90170000D02*
X106680000Y-90805000D01*
X121920000Y-66675000D02*
X121920000Y-62865000D01*
X121920000Y-78740000D02*
X121920000Y-78105000D01*
X121920000Y-78105000D02*
X121920000Y-66675000D01*
X123190000Y-59055000D02*
X121920000Y-57785000D01*
X123190000Y-61595000D02*
X123190000Y-59055000D01*
X121920000Y-62865000D02*
X123190000Y-61595000D01*
X122555000Y-78105000D02*
X123825000Y-78105000D01*
X121920000Y-78740000D02*
X122555000Y-78105000D01*
X121920000Y-86360000D02*
X121920000Y-78740000D01*
X117625000Y-90170000D02*
X119380000Y-90170000D01*
X120650000Y-111760000D02*
X123825000Y-111760000D01*
X120015000Y-111125000D02*
X120650000Y-111760000D01*
X120015000Y-90805000D02*
X120015000Y-111125000D01*
X119380000Y-90170000D02*
X120015000Y-90805000D01*
X120650000Y-66675000D02*
X120650000Y-62865000D01*
X120650000Y-76835000D02*
X120650000Y-88265000D01*
X120650000Y-110490000D02*
X120650000Y-88265000D01*
X120650000Y-66675000D02*
X120650000Y-76835000D01*
X121920000Y-61595000D02*
X121920000Y-60325000D01*
X120650000Y-62865000D02*
X121920000Y-61595000D01*
X123825000Y-116260000D02*
X123825000Y-116205000D01*
X119380000Y-57785000D02*
X120650000Y-59055000D01*
X120015000Y-89535000D02*
X120015000Y-76835000D01*
X120015000Y-66675000D02*
X120015000Y-76835000D01*
X120015000Y-62230000D02*
X120015000Y-66675000D01*
X120650000Y-61595000D02*
X120015000Y-62230000D01*
X120650000Y-59055000D02*
X120650000Y-61595000D01*
X143025000Y-116260000D02*
X144725000Y-116260000D01*
X144835000Y-105465000D02*
X143025000Y-105465000D01*
X145415000Y-106045000D02*
X144835000Y-105465000D01*
X145415000Y-115570000D02*
X145415000Y-106045000D01*
X144725000Y-116260000D02*
X145415000Y-115570000D01*
X119380000Y-60325000D02*
X119380000Y-66040000D01*
X118690000Y-71810000D02*
X119380000Y-71120000D01*
X119380000Y-71120000D02*
X119380000Y-66040000D01*
X118690000Y-71810000D02*
X117625000Y-71810000D01*
M02*
