G04 #@! TF.FileFunction,Copper,L2,Bot,Signal*
%FSLAX46Y46*%
G04 Gerber Fmt 4.6, Leading zero omitted, Abs format (unit mm)*
G04 Created by KiCad (PCBNEW 4.0.7) date 09/13/19 13:16:43*
%MOMM*%
%LPD*%
G01*
G04 APERTURE LIST*
%ADD10C,0.100000*%
%ADD11C,2.200000*%
%ADD12R,1.800000X1.800000*%
%ADD13C,1.800000*%
%ADD14R,1.700000X1.700000*%
%ADD15O,1.700000X1.700000*%
%ADD16R,1.600000X1.600000*%
%ADD17O,1.600000X1.600000*%
%ADD18C,0.600000*%
%ADD19C,0.250000*%
G04 APERTURE END LIST*
D10*
D11*
X93980000Y-67310000D03*
X87630000Y-69850000D03*
D12*
X149225000Y-69215000D03*
D13*
X149225000Y-66675000D03*
D14*
X129540000Y-57785000D03*
D15*
X129540000Y-60325000D03*
X127000000Y-57785000D03*
X127000000Y-60325000D03*
X124460000Y-57785000D03*
X124460000Y-60325000D03*
X121920000Y-57785000D03*
X121920000Y-60325000D03*
X119380000Y-57785000D03*
X119380000Y-60325000D03*
X116840000Y-57785000D03*
X116840000Y-60325000D03*
X114300000Y-57785000D03*
X114300000Y-60325000D03*
X111760000Y-57785000D03*
X111760000Y-60325000D03*
D11*
X93980000Y-165735000D03*
X87630000Y-168275000D03*
X153035000Y-146050000D03*
X146685000Y-148590000D03*
X133350000Y-106680000D03*
X127000000Y-109220000D03*
X113665000Y-165735000D03*
X107315000Y-168275000D03*
X93980000Y-126365000D03*
X87630000Y-128905000D03*
X153035000Y-106680000D03*
X146685000Y-109220000D03*
X133350000Y-165735000D03*
X127000000Y-168275000D03*
X113665000Y-126365000D03*
X107315000Y-128905000D03*
X93980000Y-86995000D03*
X87630000Y-89535000D03*
X153035000Y-165735000D03*
X146685000Y-168275000D03*
X133350000Y-126365000D03*
X127000000Y-128905000D03*
X113665000Y-86995000D03*
X107315000Y-89535000D03*
X93980000Y-146050000D03*
X87630000Y-148590000D03*
X153035000Y-126365000D03*
X146685000Y-128905000D03*
X153035000Y-86995000D03*
X146685000Y-89535000D03*
X113665000Y-146050000D03*
X107315000Y-148590000D03*
X93980000Y-106680000D03*
X87630000Y-109220000D03*
X133350000Y-146050000D03*
X127000000Y-148590000D03*
X113665000Y-106680000D03*
X107315000Y-109220000D03*
X133350000Y-86995000D03*
X127000000Y-89535000D03*
D16*
X145415000Y-76835000D03*
D17*
X153035000Y-76835000D03*
D11*
X133350000Y-67310000D03*
X127000000Y-69850000D03*
X113665000Y-67310000D03*
X107315000Y-69850000D03*
D18*
X118110000Y-67310000D03*
X124460000Y-87630000D03*
X124460000Y-84455000D03*
X142875000Y-108585000D03*
X139065000Y-80645000D03*
X120015000Y-66675000D03*
X120015000Y-84455000D03*
X101600000Y-87630000D03*
X123825000Y-83820000D03*
X104775000Y-64770000D03*
X133350000Y-102235000D03*
X121920000Y-86360000D03*
X118110000Y-88265000D03*
X120650000Y-107950000D03*
X115570000Y-68580000D03*
D19*
X116840000Y-57785000D02*
X118110000Y-59055000D01*
X118110000Y-59055000D02*
X118110000Y-67310000D01*
X124460000Y-73660000D02*
X124460000Y-82550000D01*
X128270000Y-59055000D02*
X128270000Y-62230000D01*
X128270000Y-62230000D02*
X127000000Y-63500000D01*
X127000000Y-63500000D02*
X125095000Y-63500000D01*
X125095000Y-63500000D02*
X124460000Y-64135000D01*
X124460000Y-64135000D02*
X124460000Y-73660000D01*
X129540000Y-57785000D02*
X128270000Y-59055000D01*
X125095000Y-106680000D02*
X133350000Y-106680000D01*
X124460000Y-106045000D02*
X125095000Y-106680000D01*
X124460000Y-87630000D02*
X124460000Y-106045000D01*
X124460000Y-82550000D02*
X124460000Y-84455000D01*
X147955000Y-130175000D02*
X147320000Y-130810000D01*
X148590000Y-146050000D02*
X153035000Y-146050000D01*
X147320000Y-144780000D02*
X148590000Y-146050000D01*
X147320000Y-130810000D02*
X147320000Y-144780000D01*
X148590000Y-129540000D02*
X147955000Y-130175000D01*
X142875000Y-120650000D02*
X148590000Y-126365000D01*
X142875000Y-108585000D02*
X142875000Y-120650000D01*
X142875000Y-108585000D02*
X142875000Y-108585000D01*
X148590000Y-126365000D02*
X148590000Y-129540000D01*
X129540000Y-63500000D02*
X129540000Y-60325000D01*
X130175000Y-64135000D02*
X129540000Y-63500000D01*
X138430000Y-64135000D02*
X130175000Y-64135000D01*
X139065000Y-64770000D02*
X138430000Y-64135000D01*
X139065000Y-80645000D02*
X139065000Y-64770000D01*
X100330000Y-128270000D02*
X100330000Y-127000000D01*
X99695000Y-126365000D02*
X98425000Y-126365000D01*
X100330000Y-127000000D02*
X99695000Y-126365000D01*
X93980000Y-126365000D02*
X98425000Y-126365000D01*
X101600000Y-165735000D02*
X113665000Y-165735000D01*
X100330000Y-164465000D02*
X101600000Y-165735000D01*
X100330000Y-128270000D02*
X100330000Y-164465000D01*
X120015000Y-84455000D02*
X120015000Y-66675000D01*
X101600000Y-110490000D02*
X101600000Y-87630000D01*
X113665000Y-142875000D02*
X102235000Y-142875000D01*
X102235000Y-142875000D02*
X101600000Y-142240000D01*
X101600000Y-142240000D02*
X101600000Y-110490000D01*
X113665000Y-126365000D02*
X113665000Y-142875000D01*
X133350000Y-160655000D02*
X132080000Y-159385000D01*
X132080000Y-159385000D02*
X120015000Y-159385000D01*
X120015000Y-159385000D02*
X119380000Y-158750000D01*
X119380000Y-158750000D02*
X119380000Y-143510000D01*
X119380000Y-143510000D02*
X118745000Y-142875000D01*
X118745000Y-142875000D02*
X113665000Y-142875000D01*
X133350000Y-165735000D02*
X133350000Y-160655000D01*
X127000000Y-60325000D02*
X127000000Y-62230000D01*
X123825000Y-63500000D02*
X123825000Y-83820000D01*
X124460000Y-62865000D02*
X123825000Y-63500000D01*
X126365000Y-62865000D02*
X124460000Y-62865000D01*
X127000000Y-62230000D02*
X126365000Y-62865000D01*
X133350000Y-126365000D02*
X120015000Y-126365000D01*
X118745000Y-86995000D02*
X113665000Y-86995000D01*
X119380000Y-87630000D02*
X118745000Y-86995000D01*
X119380000Y-125730000D02*
X119380000Y-87630000D01*
X120015000Y-126365000D02*
X119380000Y-125730000D01*
X153035000Y-86995000D02*
X154305000Y-88265000D01*
X154305000Y-88265000D02*
X154305000Y-93980000D01*
X124460000Y-85090000D02*
X123825000Y-85090000D01*
X125095000Y-62230000D02*
X125730000Y-61595000D01*
X123825000Y-62230000D02*
X125095000Y-62230000D01*
X123190000Y-62865000D02*
X123825000Y-62230000D01*
X123190000Y-84455000D02*
X123190000Y-62865000D01*
X123825000Y-85090000D02*
X123190000Y-84455000D01*
X124460000Y-57785000D02*
X125730000Y-59055000D01*
X125730000Y-59055000D02*
X125730000Y-61595000D01*
X151130000Y-85090000D02*
X153035000Y-86995000D01*
X124460000Y-85090000D02*
X151130000Y-85090000D01*
X154305000Y-109855000D02*
X154305000Y-125095000D01*
X154305000Y-125095000D02*
X153035000Y-126365000D01*
X155575000Y-95250000D02*
X154305000Y-93980000D01*
X155575000Y-108585000D02*
X155575000Y-95250000D01*
X154305000Y-109855000D02*
X155575000Y-108585000D01*
X99060000Y-65405000D02*
X99060000Y-67945000D01*
X99695000Y-64770000D02*
X99060000Y-65405000D01*
X104775000Y-64770000D02*
X99695000Y-64770000D01*
X93980000Y-106680000D02*
X98425000Y-106680000D01*
X98425000Y-67310000D02*
X93980000Y-67310000D01*
X99060000Y-67945000D02*
X98425000Y-67310000D01*
X99060000Y-106045000D02*
X99060000Y-67945000D01*
X98425000Y-106680000D02*
X99060000Y-106045000D01*
X100965000Y-122555000D02*
X100965000Y-118745000D01*
X93980000Y-117475000D02*
X93980000Y-115570000D01*
X94615000Y-118110000D02*
X93980000Y-117475000D01*
X100330000Y-118110000D02*
X94615000Y-118110000D01*
X100965000Y-118745000D02*
X100330000Y-118110000D01*
X93980000Y-106680000D02*
X93980000Y-115570000D01*
X101600000Y-146050000D02*
X113665000Y-146050000D01*
X100965000Y-145415000D02*
X101600000Y-146050000D01*
X100965000Y-122555000D02*
X100965000Y-145415000D01*
X123190000Y-61595000D02*
X122555000Y-62230000D01*
X123190000Y-86995000D02*
X123825000Y-86995000D01*
X122555000Y-86360000D02*
X123190000Y-86995000D01*
X122555000Y-62230000D02*
X122555000Y-86360000D01*
X121920000Y-57785000D02*
X123190000Y-59055000D01*
X123825000Y-86995000D02*
X133350000Y-86995000D01*
X123190000Y-59055000D02*
X123190000Y-61595000D01*
X133350000Y-102235000D02*
X133985000Y-102870000D01*
X138430000Y-102870000D02*
X139065000Y-103505000D01*
X133985000Y-102870000D02*
X138430000Y-102870000D01*
X139065000Y-107950000D02*
X139065000Y-103505000D01*
X133350000Y-146050000D02*
X133350000Y-130810000D01*
X139065000Y-125095000D02*
X139065000Y-107950000D01*
X133350000Y-130810000D02*
X139065000Y-125095000D01*
X133350000Y-86995000D02*
X133350000Y-102235000D01*
X121920000Y-60325000D02*
X121920000Y-66675000D01*
X121920000Y-66675000D02*
X121920000Y-86360000D01*
X118110000Y-104775000D02*
X118110000Y-88265000D01*
X127000000Y-135890000D02*
X118110000Y-127000000D01*
X118110000Y-127000000D02*
X118110000Y-104775000D01*
X127000000Y-135890000D02*
X127000000Y-148590000D01*
X120650000Y-62865000D02*
X120650000Y-107950000D01*
X120650000Y-62865000D02*
X120650000Y-59055000D01*
X120650000Y-59055000D02*
X119380000Y-57785000D01*
X107315000Y-128905000D02*
X107315000Y-109220000D01*
X146685000Y-148590000D02*
X146685000Y-128905000D01*
X107315000Y-89535000D02*
X107315000Y-85090000D01*
X119380000Y-83820000D02*
X119380000Y-60325000D01*
X118745000Y-84455000D02*
X119380000Y-83820000D01*
X107950000Y-84455000D02*
X118745000Y-84455000D01*
X107315000Y-85090000D02*
X107950000Y-84455000D01*
X87630000Y-69850000D02*
X87630000Y-89535000D01*
X146685000Y-109220000D02*
X146685000Y-89535000D01*
X116840000Y-60325000D02*
X116840000Y-69215000D01*
X116205000Y-69850000D02*
X107315000Y-69850000D01*
X116840000Y-69215000D02*
X116205000Y-69850000D01*
X114300000Y-57785000D02*
X115570000Y-59055000D01*
X115570000Y-59055000D02*
X115570000Y-68580000D01*
M02*
