G04 #@! TF.FileFunction,Copper,L1,Top,Signal*
%FSLAX46Y46*%
G04 Gerber Fmt 4.6, Leading zero omitted, Abs format (unit mm)*
G04 Created by KiCad (PCBNEW 4.0.7) date 09/06/19 13:56:44*
%MOMM*%
%LPD*%
G01*
G04 APERTURE LIST*
%ADD10C,0.100000*%
%ADD11R,1.800000X1.800000*%
%ADD12C,1.800000*%
%ADD13R,1.700000X1.700000*%
%ADD14O,1.700000X1.700000*%
%ADD15C,2.200000*%
%ADD16R,1.600000X1.600000*%
%ADD17O,1.600000X1.600000*%
%ADD18C,0.600000*%
%ADD19C,0.250000*%
G04 APERTURE END LIST*
D10*
D11*
X92710000Y-69215000D03*
D12*
X92710000Y-66675000D03*
D13*
X129540000Y-57785000D03*
D14*
X129540000Y-60325000D03*
X127000000Y-57785000D03*
X127000000Y-60325000D03*
X124460000Y-57785000D03*
X124460000Y-60325000D03*
X121920000Y-57785000D03*
X121920000Y-60325000D03*
X119380000Y-57785000D03*
X119380000Y-60325000D03*
X116840000Y-57785000D03*
X116840000Y-60325000D03*
X114300000Y-57785000D03*
X114300000Y-60325000D03*
X111760000Y-57785000D03*
X111760000Y-60325000D03*
D15*
X93980000Y-165735000D03*
X87630000Y-168275000D03*
X153035000Y-146050000D03*
X146685000Y-148590000D03*
X133350000Y-106680000D03*
X127000000Y-109220000D03*
X113665000Y-165735000D03*
X107315000Y-168275000D03*
X93980000Y-126365000D03*
X87630000Y-128905000D03*
X153035000Y-106680000D03*
X146685000Y-109220000D03*
X133350000Y-165735000D03*
X127000000Y-168275000D03*
X113665000Y-126365000D03*
X107315000Y-128905000D03*
X93980000Y-86995000D03*
X87630000Y-89535000D03*
X153035000Y-165735000D03*
X146685000Y-168275000D03*
X133350000Y-126365000D03*
X127000000Y-128905000D03*
X113665000Y-86995000D03*
X107315000Y-89535000D03*
X93980000Y-146050000D03*
X87630000Y-148590000D03*
X153035000Y-126365000D03*
X146685000Y-128905000D03*
X153035000Y-86995000D03*
X146685000Y-89535000D03*
X113665000Y-146050000D03*
X107315000Y-148590000D03*
X93980000Y-106680000D03*
X87630000Y-109220000D03*
X113665000Y-67310000D03*
X107315000Y-69850000D03*
X133350000Y-146050000D03*
X127000000Y-148590000D03*
X113665000Y-106680000D03*
X107315000Y-109220000D03*
X133350000Y-86995000D03*
X127000000Y-89535000D03*
D16*
X88900000Y-76835000D03*
D17*
X96520000Y-76835000D03*
D15*
X153035000Y-67310000D03*
X146685000Y-69850000D03*
X133350000Y-67310000D03*
X127000000Y-69850000D03*
D18*
X97790000Y-65405000D03*
X124460000Y-87630000D03*
X124460000Y-84455000D03*
X142875000Y-108585000D03*
X139065000Y-75565000D03*
X120015000Y-66675000D03*
X120015000Y-84455000D03*
X123825000Y-83820000D03*
X118745000Y-64770000D03*
X107315000Y-106680000D03*
X133350000Y-102235000D03*
X121920000Y-86360000D03*
X118110000Y-88265000D03*
X120650000Y-107950000D03*
D19*
X100965000Y-65405000D02*
X97790000Y-65405000D01*
X114300000Y-64135000D02*
X114300000Y-60960000D01*
X114300000Y-64770000D02*
X113665000Y-65405000D01*
X113665000Y-65405000D02*
X100965000Y-65405000D01*
X114300000Y-64135000D02*
X114300000Y-64770000D01*
X114554000Y-60325000D02*
X114554000Y-60706000D01*
X114554000Y-60706000D02*
X114300000Y-60960000D01*
X95250000Y-63500000D02*
X93345000Y-63500000D01*
X109855000Y-62230000D02*
X109855000Y-57150000D01*
X109855000Y-57150000D02*
X110490000Y-56515000D01*
X110490000Y-56515000D02*
X115570000Y-56515000D01*
X116840000Y-57785000D02*
X115570000Y-56515000D01*
X109855000Y-62865000D02*
X109220000Y-63500000D01*
X109220000Y-63500000D02*
X95250000Y-63500000D01*
X109855000Y-62230000D02*
X109855000Y-62865000D01*
X92710000Y-64135000D02*
X92710000Y-66675000D01*
X93345000Y-63500000D02*
X92710000Y-64135000D01*
X118110000Y-62230000D02*
X118110000Y-66675000D01*
X118110000Y-59055000D02*
X118110000Y-62230000D01*
X116840000Y-57785000D02*
X118110000Y-59055000D01*
X118745000Y-67310000D02*
X133350000Y-67310000D01*
X118110000Y-66675000D02*
X118745000Y-67310000D01*
X133350000Y-67310000D02*
X153035000Y-67310000D01*
X124460000Y-84455000D02*
X124460000Y-87630000D01*
X133350000Y-106680000D02*
X140970000Y-106680000D01*
X140970000Y-106680000D02*
X142875000Y-108585000D01*
X93980000Y-165735000D02*
X93980000Y-156845000D01*
X153035000Y-154305000D02*
X153035000Y-146050000D01*
X152400000Y-154940000D02*
X153035000Y-154305000D01*
X95885000Y-154940000D02*
X152400000Y-154940000D01*
X93980000Y-156845000D02*
X95885000Y-154940000D01*
X151130000Y-88265000D02*
X151130000Y-81915000D01*
X153035000Y-90170000D02*
X151130000Y-88265000D01*
X153035000Y-106680000D02*
X153035000Y-90170000D01*
X139065000Y-80645000D02*
X139065000Y-75565000D01*
X139700000Y-81280000D02*
X139065000Y-80645000D01*
X150495000Y-81280000D02*
X139700000Y-81280000D01*
X151130000Y-81915000D02*
X150495000Y-81280000D01*
X93980000Y-126365000D02*
X93980000Y-118745000D01*
X153035000Y-114300000D02*
X153035000Y-106680000D01*
X152400000Y-114935000D02*
X153035000Y-114300000D01*
X97790000Y-114935000D02*
X152400000Y-114935000D01*
X93980000Y-118745000D02*
X97790000Y-114935000D01*
X113665000Y-85090000D02*
X119380000Y-85090000D01*
X120015000Y-66040000D02*
X120650000Y-65405000D01*
X120015000Y-66675000D02*
X120015000Y-66040000D01*
X119380000Y-85090000D02*
X120015000Y-84455000D01*
X128270000Y-62230000D02*
X125095000Y-65405000D01*
X125095000Y-65405000D02*
X120650000Y-65405000D01*
X127000000Y-57785000D02*
X128270000Y-59055000D01*
X128270000Y-59055000D02*
X128270000Y-62230000D01*
X93980000Y-85725000D02*
X93980000Y-86995000D01*
X94615000Y-85090000D02*
X93980000Y-85725000D01*
X113665000Y-85090000D02*
X94615000Y-85090000D01*
X114935000Y-85725000D02*
X113665000Y-86995000D01*
X121920000Y-85725000D02*
X114935000Y-85725000D01*
X123825000Y-83820000D02*
X121920000Y-85725000D01*
X154305000Y-129540000D02*
X154305000Y-128270000D01*
X154305000Y-148590000D02*
X154940000Y-147955000D01*
X154940000Y-147955000D02*
X154940000Y-133985000D01*
X154940000Y-133985000D02*
X154305000Y-133350000D01*
X154305000Y-133350000D02*
X154305000Y-129540000D01*
X153035000Y-165735000D02*
X153035000Y-156210000D01*
X154305000Y-154940000D02*
X154305000Y-149860000D01*
X153035000Y-156210000D02*
X154305000Y-154940000D01*
X154305000Y-149860000D02*
X154305000Y-148590000D01*
X135890000Y-123825000D02*
X133350000Y-126365000D01*
X154305000Y-123825000D02*
X135890000Y-123825000D01*
X155575000Y-125095000D02*
X154305000Y-123825000D01*
X155575000Y-127000000D02*
X155575000Y-125095000D01*
X154305000Y-128270000D02*
X155575000Y-127000000D01*
X93980000Y-146050000D02*
X93980000Y-139065000D01*
X93980000Y-139065000D02*
X97155000Y-135890000D01*
X97155000Y-135890000D02*
X152400000Y-135890000D01*
X152400000Y-135890000D02*
X153035000Y-135255000D01*
X153035000Y-135255000D02*
X153035000Y-126365000D01*
X124460000Y-62230000D02*
X124460000Y-64135000D01*
X124460000Y-60325000D02*
X124460000Y-62230000D01*
X123825000Y-64770000D02*
X118745000Y-64770000D01*
X124460000Y-64135000D02*
X123825000Y-64770000D01*
X107315000Y-106680000D02*
X93980000Y-106680000D01*
X113665000Y-106680000D02*
X113665000Y-104775000D01*
X113665000Y-104775000D02*
X115570000Y-102870000D01*
X115570000Y-102870000D02*
X132715000Y-102870000D01*
X132715000Y-102870000D02*
X133350000Y-102235000D01*
X119380000Y-86995000D02*
X118745000Y-87630000D01*
X121285000Y-86995000D02*
X119380000Y-86995000D01*
X121920000Y-86360000D02*
X121285000Y-86995000D01*
X118110000Y-88265000D02*
X118745000Y-87630000D01*
X107315000Y-148590000D02*
X127000000Y-148590000D01*
X87630000Y-148590000D02*
X107315000Y-148590000D01*
X127000000Y-168275000D02*
X146685000Y-168275000D01*
X107315000Y-168275000D02*
X127000000Y-168275000D01*
X87630000Y-168275000D02*
X107315000Y-168275000D01*
X87630000Y-148590000D02*
X87630000Y-168275000D01*
X120650000Y-107950000D02*
X120015000Y-108585000D01*
X120015000Y-108585000D02*
X119380000Y-109220000D01*
X107315000Y-109220000D02*
X119380000Y-109220000D01*
X87630000Y-109220000D02*
X107315000Y-109220000D01*
X127000000Y-128905000D02*
X146685000Y-128905000D01*
X107315000Y-128905000D02*
X127000000Y-128905000D01*
X87630000Y-128905000D02*
X107315000Y-128905000D01*
X127000000Y-89535000D02*
X146685000Y-89535000D01*
X107315000Y-89535000D02*
X127000000Y-89535000D01*
X87630000Y-89535000D02*
X107315000Y-89535000D01*
X127000000Y-109220000D02*
X146685000Y-109220000D01*
X116840000Y-66040000D02*
X116840000Y-68580000D01*
X118110000Y-69850000D02*
X120650000Y-69850000D01*
X116840000Y-68580000D02*
X118110000Y-69850000D01*
X116840000Y-62230000D02*
X116840000Y-66040000D01*
X116840000Y-60325000D02*
X116840000Y-62230000D01*
X120650000Y-69850000D02*
X127000000Y-69850000D01*
X115570000Y-66040000D02*
X115570000Y-69215000D01*
X118745000Y-74930000D02*
X124460000Y-74930000D01*
X118110000Y-74295000D02*
X118745000Y-74930000D01*
X118110000Y-71755000D02*
X118110000Y-74295000D01*
X115570000Y-69215000D02*
X118110000Y-71755000D01*
X114300000Y-57785000D02*
X115570000Y-59055000D01*
X115570000Y-59055000D02*
X115570000Y-62230000D01*
X115570000Y-62230000D02*
X115570000Y-66040000D01*
X147320000Y-74295000D02*
X147320000Y-70485000D01*
X146685000Y-74930000D02*
X147320000Y-74295000D01*
X124460000Y-74930000D02*
X146685000Y-74930000D01*
X147320000Y-70485000D02*
X146685000Y-69850000D01*
X96520000Y-76835000D02*
X96520000Y-74930000D01*
X95885000Y-74295000D02*
X96520000Y-74930000D01*
X99695000Y-64135000D02*
X96520000Y-64135000D01*
X110490000Y-58420000D02*
X111125000Y-57785000D01*
X110490000Y-62865000D02*
X110490000Y-58420000D01*
X110490000Y-63500000D02*
X109855000Y-64135000D01*
X109855000Y-64135000D02*
X99695000Y-64135000D01*
X110490000Y-62865000D02*
X110490000Y-63500000D01*
X95885000Y-64770000D02*
X95885000Y-73025000D01*
X96520000Y-64135000D02*
X95885000Y-64770000D01*
X95885000Y-73025000D02*
X95885000Y-74295000D01*
X111125000Y-57785000D02*
X111760000Y-57785000D01*
X88900000Y-76835000D02*
X88900000Y-78105000D01*
X89535000Y-78740000D02*
X90805000Y-78740000D01*
X88900000Y-78105000D02*
X89535000Y-78740000D01*
X96520000Y-73660000D02*
X98425000Y-75565000D01*
X97790000Y-78740000D02*
X90805000Y-78740000D01*
X98425000Y-78105000D02*
X97790000Y-78740000D01*
X98425000Y-75565000D02*
X98425000Y-78105000D01*
X100330000Y-64770000D02*
X97155000Y-64770000D01*
X111760000Y-60325000D02*
X111760000Y-63500000D01*
X111760000Y-64135000D02*
X111125000Y-64770000D01*
X111125000Y-64770000D02*
X100330000Y-64770000D01*
X111760000Y-63500000D02*
X111760000Y-64135000D01*
X96520000Y-65405000D02*
X96520000Y-73660000D01*
X97155000Y-64770000D02*
X96520000Y-65405000D01*
M02*
