G04 #@! TF.FileFunction,Soldermask,Top*
%FSLAX46Y46*%
G04 Gerber Fmt 4.6, Leading zero omitted, Abs format (unit mm)*
G04 Created by KiCad (PCBNEW 4.0.7) date 10/08/19 20:01:45*
%MOMM*%
%LPD*%
G01*
G04 APERTURE LIST*
%ADD10C,0.100000*%
%ADD11C,2.600000*%
%ADD12C,4.400000*%
%ADD13C,2.100000*%
%ADD14R,2.200000X2.200000*%
%ADD15C,2.200000*%
%ADD16R,2.100000X2.100000*%
%ADD17O,2.100000X2.100000*%
%ADD18R,2.000000X2.000000*%
%ADD19O,2.000000X2.000000*%
G04 APERTURE END LIST*
D10*
D11*
X113665000Y-67310000D03*
X107315000Y-69850000D03*
D12*
X111125000Y-72390000D03*
D13*
X106045000Y-72390000D03*
X116205000Y-72390000D03*
D14*
X92710000Y-57785000D03*
D15*
X92710000Y-55245000D03*
D16*
X129540000Y-55245000D03*
D17*
X129540000Y-57785000D03*
X127000000Y-55245000D03*
X127000000Y-57785000D03*
X124460000Y-55245000D03*
X124460000Y-57785000D03*
X121920000Y-55245000D03*
X121920000Y-57785000D03*
X119380000Y-55245000D03*
X119380000Y-57785000D03*
X116840000Y-55245000D03*
X116840000Y-57785000D03*
X114300000Y-55245000D03*
X114300000Y-57785000D03*
X111760000Y-55245000D03*
X111760000Y-57785000D03*
D11*
X94615000Y-162560000D03*
X88265000Y-165100000D03*
D12*
X92075000Y-167640000D03*
D13*
X86995000Y-167640000D03*
X97155000Y-167640000D03*
D11*
X151765000Y-143510000D03*
X145415000Y-146050000D03*
D12*
X149225000Y-148590000D03*
D13*
X144145000Y-148590000D03*
X154305000Y-148590000D03*
D11*
X132715000Y-105410000D03*
X126365000Y-107950000D03*
D12*
X130175000Y-110490000D03*
D13*
X125095000Y-110490000D03*
X135255000Y-110490000D03*
D11*
X113665000Y-162560000D03*
X107315000Y-165100000D03*
D12*
X111125000Y-167640000D03*
D13*
X106045000Y-167640000D03*
X116205000Y-167640000D03*
D11*
X94615000Y-124460000D03*
X88265000Y-127000000D03*
D12*
X92075000Y-129540000D03*
D13*
X86995000Y-129540000D03*
X97155000Y-129540000D03*
D11*
X151765000Y-105410000D03*
X145415000Y-107950000D03*
D12*
X149225000Y-110490000D03*
D13*
X144145000Y-110490000D03*
X154305000Y-110490000D03*
D11*
X132715000Y-162560000D03*
X126365000Y-165100000D03*
D12*
X130175000Y-167640000D03*
D13*
X125095000Y-167640000D03*
X135255000Y-167640000D03*
D11*
X113665000Y-124460000D03*
X107315000Y-127000000D03*
D12*
X111125000Y-129540000D03*
D13*
X106045000Y-129540000D03*
X116205000Y-129540000D03*
D11*
X94615000Y-86360000D03*
X88265000Y-88900000D03*
D12*
X92075000Y-91440000D03*
D13*
X86995000Y-91440000D03*
X97155000Y-91440000D03*
D11*
X151765000Y-162560000D03*
X145415000Y-165100000D03*
D12*
X149225000Y-167640000D03*
D13*
X144145000Y-167640000D03*
X154305000Y-167640000D03*
D11*
X132715000Y-124460000D03*
X126365000Y-127000000D03*
D12*
X130175000Y-129540000D03*
D13*
X125095000Y-129540000D03*
X135255000Y-129540000D03*
D11*
X113665000Y-86360000D03*
X107315000Y-88900000D03*
D12*
X111125000Y-91440000D03*
D13*
X106045000Y-91440000D03*
X116205000Y-91440000D03*
D11*
X94615000Y-143510000D03*
X88265000Y-146050000D03*
D12*
X92075000Y-148590000D03*
D13*
X86995000Y-148590000D03*
X97155000Y-148590000D03*
D11*
X151765000Y-124460000D03*
X145415000Y-127000000D03*
D12*
X149225000Y-129540000D03*
D13*
X144145000Y-129540000D03*
X154305000Y-129540000D03*
D11*
X151765000Y-86360000D03*
X145415000Y-88900000D03*
D12*
X149225000Y-91440000D03*
D13*
X144145000Y-91440000D03*
X154305000Y-91440000D03*
D11*
X113665000Y-143510000D03*
X107315000Y-146050000D03*
D12*
X111125000Y-148590000D03*
D13*
X106045000Y-148590000D03*
X116205000Y-148590000D03*
D11*
X94615000Y-105410000D03*
X88265000Y-107950000D03*
D12*
X92075000Y-110490000D03*
D13*
X86995000Y-110490000D03*
X97155000Y-110490000D03*
D11*
X132715000Y-143510000D03*
X126365000Y-146050000D03*
D12*
X130175000Y-148590000D03*
D13*
X125095000Y-148590000D03*
X135255000Y-148590000D03*
D11*
X113665000Y-105410000D03*
X107315000Y-107950000D03*
D12*
X111125000Y-110490000D03*
D13*
X106045000Y-110490000D03*
X116205000Y-110490000D03*
D11*
X132715000Y-86360000D03*
X126365000Y-88900000D03*
D12*
X130175000Y-91440000D03*
D13*
X125095000Y-91440000D03*
X135255000Y-91440000D03*
D11*
X151765000Y-67310000D03*
X145415000Y-69850000D03*
D12*
X149225000Y-72390000D03*
D13*
X144145000Y-72390000D03*
X154305000Y-72390000D03*
D11*
X132715000Y-67310000D03*
X126365000Y-69850000D03*
D12*
X130175000Y-72390000D03*
D13*
X125095000Y-72390000D03*
X135255000Y-72390000D03*
D18*
X88900000Y-72390000D03*
D19*
X96520000Y-72390000D03*
M02*
