G04 #@! TF.FileFunction,Soldermask,Top*
%FSLAX46Y46*%
G04 Gerber Fmt 4.6, Leading zero omitted, Abs format (unit mm)*
G04 Created by KiCad (PCBNEW 4.0.7) date 09/13/19 13:16:44*
%MOMM*%
%LPD*%
G01*
G04 APERTURE LIST*
%ADD10C,0.100000*%
%ADD11C,2.600000*%
%ADD12C,4.400000*%
%ADD13C,2.100000*%
%ADD14R,2.200000X2.200000*%
%ADD15C,2.200000*%
%ADD16R,2.100000X2.100000*%
%ADD17O,2.100000X2.100000*%
%ADD18R,2.000000X2.000000*%
%ADD19O,2.000000X2.000000*%
G04 APERTURE END LIST*
D10*
D11*
X93980000Y-67310000D03*
X87630000Y-69850000D03*
D12*
X91440000Y-72390000D03*
D13*
X86360000Y-72390000D03*
X96520000Y-72390000D03*
D14*
X149225000Y-69215000D03*
D15*
X149225000Y-66675000D03*
D16*
X129540000Y-57785000D03*
D17*
X129540000Y-60325000D03*
X127000000Y-57785000D03*
X127000000Y-60325000D03*
X124460000Y-57785000D03*
X124460000Y-60325000D03*
X121920000Y-57785000D03*
X121920000Y-60325000D03*
X119380000Y-57785000D03*
X119380000Y-60325000D03*
X116840000Y-57785000D03*
X116840000Y-60325000D03*
X114300000Y-57785000D03*
X114300000Y-60325000D03*
X111760000Y-57785000D03*
X111760000Y-60325000D03*
D11*
X93980000Y-165735000D03*
X87630000Y-168275000D03*
D12*
X91440000Y-170815000D03*
D13*
X86360000Y-170815000D03*
X96520000Y-170815000D03*
D11*
X153035000Y-146050000D03*
X146685000Y-148590000D03*
D12*
X150495000Y-151130000D03*
D13*
X145415000Y-151130000D03*
X155575000Y-151130000D03*
D11*
X133350000Y-106680000D03*
X127000000Y-109220000D03*
D12*
X130810000Y-111760000D03*
D13*
X125730000Y-111760000D03*
X135890000Y-111760000D03*
D11*
X113665000Y-165735000D03*
X107315000Y-168275000D03*
D12*
X111125000Y-170815000D03*
D13*
X106045000Y-170815000D03*
X116205000Y-170815000D03*
D11*
X93980000Y-126365000D03*
X87630000Y-128905000D03*
D12*
X91440000Y-131445000D03*
D13*
X86360000Y-131445000D03*
X96520000Y-131445000D03*
D11*
X153035000Y-106680000D03*
X146685000Y-109220000D03*
D12*
X150495000Y-111760000D03*
D13*
X145415000Y-111760000D03*
X155575000Y-111760000D03*
D11*
X133350000Y-165735000D03*
X127000000Y-168275000D03*
D12*
X130810000Y-170815000D03*
D13*
X125730000Y-170815000D03*
X135890000Y-170815000D03*
D11*
X113665000Y-126365000D03*
X107315000Y-128905000D03*
D12*
X111125000Y-131445000D03*
D13*
X106045000Y-131445000D03*
X116205000Y-131445000D03*
D11*
X93980000Y-86995000D03*
X87630000Y-89535000D03*
D12*
X91440000Y-92075000D03*
D13*
X86360000Y-92075000D03*
X96520000Y-92075000D03*
D11*
X153035000Y-165735000D03*
X146685000Y-168275000D03*
D12*
X150495000Y-170815000D03*
D13*
X145415000Y-170815000D03*
X155575000Y-170815000D03*
D11*
X133350000Y-126365000D03*
X127000000Y-128905000D03*
D12*
X130810000Y-131445000D03*
D13*
X125730000Y-131445000D03*
X135890000Y-131445000D03*
D11*
X113665000Y-86995000D03*
X107315000Y-89535000D03*
D12*
X111125000Y-92075000D03*
D13*
X106045000Y-92075000D03*
X116205000Y-92075000D03*
D11*
X93980000Y-146050000D03*
X87630000Y-148590000D03*
D12*
X91440000Y-151130000D03*
D13*
X86360000Y-151130000D03*
X96520000Y-151130000D03*
D11*
X153035000Y-126365000D03*
X146685000Y-128905000D03*
D12*
X150495000Y-131445000D03*
D13*
X145415000Y-131445000D03*
X155575000Y-131445000D03*
D11*
X153035000Y-86995000D03*
X146685000Y-89535000D03*
D12*
X150495000Y-92075000D03*
D13*
X145415000Y-92075000D03*
X155575000Y-92075000D03*
D11*
X113665000Y-146050000D03*
X107315000Y-148590000D03*
D12*
X111125000Y-151130000D03*
D13*
X106045000Y-151130000D03*
X116205000Y-151130000D03*
D11*
X93980000Y-106680000D03*
X87630000Y-109220000D03*
D12*
X91440000Y-111760000D03*
D13*
X86360000Y-111760000D03*
X96520000Y-111760000D03*
D11*
X133350000Y-146050000D03*
X127000000Y-148590000D03*
D12*
X130810000Y-151130000D03*
D13*
X125730000Y-151130000D03*
X135890000Y-151130000D03*
D11*
X113665000Y-106680000D03*
X107315000Y-109220000D03*
D12*
X111125000Y-111760000D03*
D13*
X106045000Y-111760000D03*
X116205000Y-111760000D03*
D11*
X133350000Y-86995000D03*
X127000000Y-89535000D03*
D12*
X130810000Y-92075000D03*
D13*
X125730000Y-92075000D03*
X135890000Y-92075000D03*
D18*
X145415000Y-76835000D03*
D19*
X153035000Y-76835000D03*
D11*
X133350000Y-67310000D03*
X127000000Y-69850000D03*
D12*
X130810000Y-72390000D03*
D13*
X125730000Y-72390000D03*
X135890000Y-72390000D03*
D11*
X113665000Y-67310000D03*
X107315000Y-69850000D03*
D12*
X111125000Y-72390000D03*
D13*
X106045000Y-72390000D03*
X116205000Y-72390000D03*
M02*
