G04 #@! TF.FileFunction,Drawing*
%FSLAX46Y46*%
G04 Gerber Fmt 4.6, Leading zero omitted, Abs format (unit mm)*
G04 Created by KiCad (PCBNEW 4.0.7) date 10/14/19 15:01:09*
%MOMM*%
%LPD*%
G01*
G04 APERTURE LIST*
%ADD10C,0.100000*%
%ADD11C,0.150000*%
G04 APERTURE END LIST*
D10*
D11*
X101600000Y-62865000D02*
X120650000Y-62865000D01*
X120650000Y-62865000D02*
X120650000Y-81915000D01*
X120650000Y-81915000D02*
X101600000Y-81915000D01*
X101600000Y-81915000D02*
X101600000Y-62865000D01*
X82550000Y-158115000D02*
X101600000Y-158115000D01*
X101600000Y-158115000D02*
X101600000Y-177165000D01*
X101600000Y-177165000D02*
X82550000Y-177165000D01*
X82550000Y-177165000D02*
X82550000Y-158115000D01*
X139700000Y-139065000D02*
X158750000Y-139065000D01*
X158750000Y-139065000D02*
X158750000Y-158115000D01*
X158750000Y-158115000D02*
X139700000Y-158115000D01*
X139700000Y-158115000D02*
X139700000Y-139065000D01*
X120650000Y-100965000D02*
X139700000Y-100965000D01*
X139700000Y-100965000D02*
X139700000Y-120015000D01*
X139700000Y-120015000D02*
X120650000Y-120015000D01*
X120650000Y-120015000D02*
X120650000Y-100965000D01*
X101600000Y-158115000D02*
X120650000Y-158115000D01*
X120650000Y-158115000D02*
X120650000Y-177165000D01*
X120650000Y-177165000D02*
X101600000Y-177165000D01*
X101600000Y-177165000D02*
X101600000Y-158115000D01*
X82550000Y-120015000D02*
X101600000Y-120015000D01*
X101600000Y-120015000D02*
X101600000Y-139065000D01*
X101600000Y-139065000D02*
X82550000Y-139065000D01*
X82550000Y-139065000D02*
X82550000Y-120015000D01*
X139700000Y-100965000D02*
X158750000Y-100965000D01*
X158750000Y-100965000D02*
X158750000Y-120015000D01*
X158750000Y-120015000D02*
X139700000Y-120015000D01*
X139700000Y-120015000D02*
X139700000Y-100965000D01*
X120650000Y-158115000D02*
X139700000Y-158115000D01*
X139700000Y-158115000D02*
X139700000Y-177165000D01*
X139700000Y-177165000D02*
X120650000Y-177165000D01*
X120650000Y-177165000D02*
X120650000Y-158115000D01*
X101600000Y-120015000D02*
X120650000Y-120015000D01*
X120650000Y-120015000D02*
X120650000Y-139065000D01*
X120650000Y-139065000D02*
X101600000Y-139065000D01*
X101600000Y-139065000D02*
X101600000Y-120015000D01*
X82550000Y-81915000D02*
X101600000Y-81915000D01*
X101600000Y-81915000D02*
X101600000Y-100965000D01*
X101600000Y-100965000D02*
X82550000Y-100965000D01*
X82550000Y-100965000D02*
X82550000Y-81915000D01*
X139700000Y-158115000D02*
X158750000Y-158115000D01*
X158750000Y-158115000D02*
X158750000Y-177165000D01*
X158750000Y-177165000D02*
X139700000Y-177165000D01*
X139700000Y-177165000D02*
X139700000Y-158115000D01*
X120650000Y-120015000D02*
X139700000Y-120015000D01*
X139700000Y-120015000D02*
X139700000Y-139065000D01*
X139700000Y-139065000D02*
X120650000Y-139065000D01*
X120650000Y-139065000D02*
X120650000Y-120015000D01*
X101600000Y-81915000D02*
X120650000Y-81915000D01*
X120650000Y-81915000D02*
X120650000Y-100965000D01*
X120650000Y-100965000D02*
X101600000Y-100965000D01*
X101600000Y-100965000D02*
X101600000Y-81915000D01*
X82550000Y-139065000D02*
X101600000Y-139065000D01*
X101600000Y-139065000D02*
X101600000Y-158115000D01*
X101600000Y-158115000D02*
X82550000Y-158115000D01*
X82550000Y-158115000D02*
X82550000Y-139065000D01*
X139700000Y-120015000D02*
X158750000Y-120015000D01*
X158750000Y-120015000D02*
X158750000Y-139065000D01*
X158750000Y-139065000D02*
X139700000Y-139065000D01*
X139700000Y-139065000D02*
X139700000Y-120015000D01*
X139700000Y-81915000D02*
X158750000Y-81915000D01*
X158750000Y-81915000D02*
X158750000Y-100965000D01*
X158750000Y-100965000D02*
X139700000Y-100965000D01*
X139700000Y-100965000D02*
X139700000Y-81915000D01*
X101600000Y-139065000D02*
X120650000Y-139065000D01*
X120650000Y-139065000D02*
X120650000Y-158115000D01*
X120650000Y-158115000D02*
X101600000Y-158115000D01*
X101600000Y-158115000D02*
X101600000Y-139065000D01*
X82550000Y-100965000D02*
X101600000Y-100965000D01*
X101600000Y-100965000D02*
X101600000Y-120015000D01*
X101600000Y-120015000D02*
X82550000Y-120015000D01*
X82550000Y-120015000D02*
X82550000Y-100965000D01*
X120650000Y-139065000D02*
X139700000Y-139065000D01*
X139700000Y-139065000D02*
X139700000Y-158115000D01*
X139700000Y-158115000D02*
X120650000Y-158115000D01*
X120650000Y-158115000D02*
X120650000Y-139065000D01*
X101600000Y-100965000D02*
X120650000Y-100965000D01*
X120650000Y-100965000D02*
X120650000Y-120015000D01*
X120650000Y-120015000D02*
X101600000Y-120015000D01*
X101600000Y-120015000D02*
X101600000Y-100965000D01*
X120650000Y-81915000D02*
X139700000Y-81915000D01*
X139700000Y-81915000D02*
X139700000Y-100965000D01*
X139700000Y-100965000D02*
X120650000Y-100965000D01*
X120650000Y-100965000D02*
X120650000Y-81915000D01*
X139700000Y-62865000D02*
X158750000Y-62865000D01*
X158750000Y-62865000D02*
X158750000Y-81915000D01*
X158750000Y-81915000D02*
X139700000Y-81915000D01*
X139700000Y-81915000D02*
X139700000Y-62865000D01*
X120650000Y-62865000D02*
X139700000Y-62865000D01*
X139700000Y-62865000D02*
X139700000Y-81915000D01*
X139700000Y-81915000D02*
X120650000Y-81915000D01*
X120650000Y-81915000D02*
X120650000Y-62865000D01*
M02*
