M48
;DRILL file {KiCad 4.0.7} date 10/08/19 20:01:47
;FORMAT={2:4/ absolute / inch / suppress leading zeros}
FMAT,2
INCH,TZ
T1C0.016
T2C0.031
T3C0.035
T4C0.039
T5C0.059
T6C0.067
T7C0.157
%
G90
G05
M72
T1
X38000Y-22000
X46000Y-27250
X46250Y-26250
X46250Y-40250
X46500Y-25750
X46500Y-47500
X46750Y-25000
X46750Y-26000
X46750Y-33000
X46750Y-48750
X46750Y-62750
X47000Y-26250
X47000Y-33750
X47000Y-48500
X47000Y-63000
X47250Y-26500
X47250Y-33500
X47250Y-41250
X47250Y-56250
X47500Y-26750
X47500Y-33000
X47750Y-42250
X48000Y-56750
X48250Y-26250
X49000Y-25000
X49250Y-26250
X49750Y-26000
X50250Y-25750
X51000Y-25250
X54750Y-26250
X54750Y-41250
X54750Y-55250
T2
X35000Y-28500
X38000Y-28500
T3
X36500Y-21750
X36500Y-22750
T4
X44000Y-21750
X44000Y-22750
X45000Y-21750
X45000Y-22750
X46000Y-21750
X46000Y-22750
X47000Y-21750
X47000Y-22750
X48000Y-21750
X48000Y-22750
X49000Y-21750
X49000Y-22750
X50000Y-21750
X50000Y-22750
X51000Y-21750
X51000Y-22750
T5
X34750Y-35000
X34750Y-42500
X34750Y-50000
X34750Y-57500
X34750Y-65000
X37250Y-34000
X37250Y-41500
X37250Y-49000
X37250Y-56500
X37250Y-64000
X42250Y-27500
X42250Y-35000
X42250Y-42500
X42250Y-50000
X42250Y-57500
X42250Y-65000
X44750Y-26500
X44750Y-34000
X44750Y-41500
X44750Y-49000
X44750Y-56500
X44750Y-64000
X49750Y-27500
X49750Y-35000
X49750Y-42500
X49750Y-50000
X49750Y-57500
X49750Y-65000
X52250Y-26500
X52250Y-34000
X52250Y-41500
X52250Y-49000
X52250Y-56500
X52250Y-64000
X57250Y-27500
X57250Y-35000
X57250Y-42500
X57250Y-50000
X57250Y-57500
X57250Y-65000
X59750Y-26500
X59750Y-34000
X59750Y-41500
X59750Y-49000
X59750Y-56500
X59750Y-64000
T6
X34250Y-36000
X34250Y-43500
X34250Y-51000
X34250Y-58500
X34250Y-66000
X38250Y-36000
X38250Y-43500
X38250Y-51000
X38250Y-58500
X38250Y-66000
X41750Y-28500
X41750Y-36000
X41750Y-43500
X41750Y-51000
X41750Y-58500
X41750Y-66000
X45750Y-28500
X45750Y-36000
X45750Y-43500
X45750Y-51000
X45750Y-58500
X45750Y-66000
X49250Y-28500
X49250Y-36000
X49250Y-43500
X49250Y-51000
X49250Y-58500
X49250Y-66000
X53250Y-28500
X53250Y-36000
X53250Y-43500
X53250Y-51000
X53250Y-58500
X53250Y-66000
X56750Y-28500
X56750Y-36000
X56750Y-43500
X56750Y-51000
X56750Y-58500
X56750Y-66000
X60750Y-28500
X60750Y-36000
X60750Y-43500
X60750Y-51000
X60750Y-58500
X60750Y-66000
T7
X36250Y-36000
X36250Y-43500
X36250Y-51000
X36250Y-58500
X36250Y-66000
X43750Y-28500
X43750Y-36000
X43750Y-43500
X43750Y-51000
X43750Y-58500
X43750Y-66000
X51250Y-28500
X51250Y-36000
X51250Y-43500
X51250Y-51000
X51250Y-58500
X51250Y-66000
X58750Y-28500
X58750Y-36000
X58750Y-43500
X58750Y-51000
X58750Y-58500
X58750Y-66000
T0
M30
