G04 #@! TF.GenerationSoftware,KiCad,Pcbnew,(5.1.5)-3*
G04 #@! TF.CreationDate,2020-10-17T22:19:32+02:00*
G04 #@! TF.ProjectId,RC1 8K ExRAM,52433120-384b-4204-9578-52414d2e6b69,rev?*
G04 #@! TF.SameCoordinates,Original*
G04 #@! TF.FileFunction,Soldermask,Top*
G04 #@! TF.FilePolarity,Negative*
%FSLAX46Y46*%
G04 Gerber Fmt 4.6, Leading zero omitted, Abs format (unit mm)*
G04 Created by KiCad (PCBNEW (5.1.5)-3) date 2020-10-17 22:19:32*
%MOMM*%
%LPD*%
G04 APERTURE LIST*
%ADD10O,2.600000X2.600000*%
%ADD11R,2.600000X2.600000*%
%ADD12R,2.000000X2.000000*%
%ADD13O,2.000000X2.000000*%
%ADD14C,2.000000*%
%ADD15R,2.100000X2.100000*%
%ADD16O,2.100000X2.100000*%
%ADD17R,2.200000X2.200000*%
%ADD18C,2.200000*%
G04 APERTURE END LIST*
D10*
X148590000Y-80645000D03*
D11*
X148590000Y-90805000D03*
D12*
X154940000Y-95885000D03*
D13*
X187960000Y-80645000D03*
X157480000Y-95885000D03*
X185420000Y-80645000D03*
X160020000Y-95885000D03*
X182880000Y-80645000D03*
X162560000Y-95885000D03*
X180340000Y-80645000D03*
X165100000Y-95885000D03*
X177800000Y-80645000D03*
X167640000Y-95885000D03*
X175260000Y-80645000D03*
X170180000Y-95885000D03*
X172720000Y-80645000D03*
X172720000Y-95885000D03*
X170180000Y-80645000D03*
X175260000Y-95885000D03*
X167640000Y-80645000D03*
X177800000Y-95885000D03*
X165100000Y-80645000D03*
X180340000Y-95885000D03*
X162560000Y-80645000D03*
X182880000Y-95885000D03*
X160020000Y-80645000D03*
X185420000Y-95885000D03*
X157480000Y-80645000D03*
X187960000Y-95885000D03*
X154940000Y-80645000D03*
X190500000Y-95885000D03*
X190500000Y-80645000D03*
D14*
X105410000Y-109855000D03*
X100410000Y-109855000D03*
X133350000Y-109855000D03*
X128350000Y-109855000D03*
X161290000Y-109855000D03*
X156290000Y-109855000D03*
X147320000Y-109855000D03*
X142320000Y-109855000D03*
X104140000Y-80645000D03*
X104140000Y-85645000D03*
X175260000Y-109855000D03*
X170260000Y-109855000D03*
X189230000Y-109855000D03*
X184230000Y-109855000D03*
X119380000Y-109855000D03*
X114380000Y-109855000D03*
D15*
X193040000Y-147320000D03*
D16*
X190500000Y-147320000D03*
X187960000Y-147320000D03*
X185420000Y-147320000D03*
X182880000Y-147320000D03*
X180340000Y-147320000D03*
X177800000Y-147320000D03*
X175260000Y-147320000D03*
X172720000Y-147320000D03*
X170180000Y-147320000D03*
X167640000Y-147320000D03*
X165100000Y-147320000D03*
X162560000Y-147320000D03*
X160020000Y-147320000D03*
X157480000Y-147320000D03*
X154940000Y-147320000D03*
X152400000Y-147320000D03*
X149860000Y-147320000D03*
X147320000Y-147320000D03*
X144780000Y-147320000D03*
X142240000Y-147320000D03*
X139700000Y-147320000D03*
X137160000Y-147320000D03*
X134620000Y-147320000D03*
X132080000Y-147320000D03*
X129540000Y-147320000D03*
X127000000Y-147320000D03*
X124460000Y-147320000D03*
X121920000Y-147320000D03*
X119380000Y-147320000D03*
X116840000Y-147320000D03*
X114300000Y-147320000D03*
X111760000Y-147320000D03*
X109220000Y-147320000D03*
X106680000Y-147320000D03*
X104140000Y-147320000D03*
X101600000Y-147320000D03*
X99060000Y-147320000D03*
X96520000Y-147320000D03*
D12*
X99060000Y-113665000D03*
D13*
X106680000Y-131445000D03*
X99060000Y-116205000D03*
X106680000Y-128905000D03*
X99060000Y-118745000D03*
X106680000Y-126365000D03*
X99060000Y-121285000D03*
X106680000Y-123825000D03*
X99060000Y-123825000D03*
X106680000Y-121285000D03*
X99060000Y-126365000D03*
X106680000Y-118745000D03*
X99060000Y-128905000D03*
X106680000Y-116205000D03*
X99060000Y-131445000D03*
X106680000Y-113665000D03*
D17*
X186690000Y-69215000D03*
D18*
X186690000Y-66675000D03*
D17*
X178435000Y-69215000D03*
D18*
X178435000Y-66675000D03*
D17*
X170180000Y-69215000D03*
D18*
X170180000Y-66675000D03*
D12*
X154940000Y-84455000D03*
D13*
X154940000Y-92075000D03*
D15*
X99695000Y-69215000D03*
D16*
X99695000Y-66675000D03*
X102235000Y-69215000D03*
X102235000Y-66675000D03*
X104775000Y-69215000D03*
X104775000Y-66675000D03*
X107315000Y-69215000D03*
X107315000Y-66675000D03*
X109855000Y-69215000D03*
X109855000Y-66675000D03*
X112395000Y-69215000D03*
X112395000Y-66675000D03*
X114935000Y-69215000D03*
X114935000Y-66675000D03*
X117475000Y-69215000D03*
X117475000Y-66675000D03*
X120015000Y-69215000D03*
X120015000Y-66675000D03*
D15*
X138430000Y-66675000D03*
D16*
X138430000Y-69215000D03*
D15*
X128270000Y-66675000D03*
D16*
X128270000Y-69215000D03*
X128270000Y-71755000D03*
D14*
X184150000Y-90170000D03*
D13*
X173990000Y-90170000D03*
D14*
X184150000Y-86360000D03*
D13*
X173990000Y-86360000D03*
D14*
X170180000Y-86360000D03*
D13*
X160020000Y-86360000D03*
D14*
X170180000Y-90170000D03*
D13*
X160020000Y-90170000D03*
D12*
X127000000Y-113665000D03*
D13*
X134620000Y-128905000D03*
X127000000Y-116205000D03*
X134620000Y-126365000D03*
X127000000Y-118745000D03*
X134620000Y-123825000D03*
X127000000Y-121285000D03*
X134620000Y-121285000D03*
X127000000Y-123825000D03*
X134620000Y-118745000D03*
X127000000Y-126365000D03*
X134620000Y-116205000D03*
X127000000Y-128905000D03*
X134620000Y-113665000D03*
D12*
X154940000Y-113665000D03*
D13*
X162560000Y-131445000D03*
X154940000Y-116205000D03*
X162560000Y-128905000D03*
X154940000Y-118745000D03*
X162560000Y-126365000D03*
X154940000Y-121285000D03*
X162560000Y-123825000D03*
X154940000Y-123825000D03*
X162560000Y-121285000D03*
X154940000Y-126365000D03*
X162560000Y-118745000D03*
X154940000Y-128905000D03*
X162560000Y-116205000D03*
X154940000Y-131445000D03*
X162560000Y-113665000D03*
D12*
X140970000Y-113665000D03*
D13*
X148590000Y-131445000D03*
X140970000Y-116205000D03*
X148590000Y-128905000D03*
X140970000Y-118745000D03*
X148590000Y-126365000D03*
X140970000Y-121285000D03*
X148590000Y-123825000D03*
X140970000Y-123825000D03*
X148590000Y-121285000D03*
X140970000Y-126365000D03*
X148590000Y-118745000D03*
X140970000Y-128905000D03*
X148590000Y-116205000D03*
X140970000Y-131445000D03*
X148590000Y-113665000D03*
D12*
X107950000Y-95885000D03*
D13*
X140970000Y-80645000D03*
X110490000Y-95885000D03*
X138430000Y-80645000D03*
X113030000Y-95885000D03*
X135890000Y-80645000D03*
X115570000Y-95885000D03*
X133350000Y-80645000D03*
X118110000Y-95885000D03*
X130810000Y-80645000D03*
X120650000Y-95885000D03*
X128270000Y-80645000D03*
X123190000Y-95885000D03*
X125730000Y-80645000D03*
X125730000Y-95885000D03*
X123190000Y-80645000D03*
X128270000Y-95885000D03*
X120650000Y-80645000D03*
X130810000Y-95885000D03*
X118110000Y-80645000D03*
X133350000Y-95885000D03*
X115570000Y-80645000D03*
X135890000Y-95885000D03*
X113030000Y-80645000D03*
X138430000Y-95885000D03*
X110490000Y-80645000D03*
X140970000Y-95885000D03*
X107950000Y-80645000D03*
D12*
X168910000Y-113665000D03*
D13*
X176530000Y-136525000D03*
X168910000Y-116205000D03*
X176530000Y-133985000D03*
X168910000Y-118745000D03*
X176530000Y-131445000D03*
X168910000Y-121285000D03*
X176530000Y-128905000D03*
X168910000Y-123825000D03*
X176530000Y-126365000D03*
X168910000Y-126365000D03*
X176530000Y-123825000D03*
X168910000Y-128905000D03*
X176530000Y-121285000D03*
X168910000Y-131445000D03*
X176530000Y-118745000D03*
X168910000Y-133985000D03*
X176530000Y-116205000D03*
X168910000Y-136525000D03*
X176530000Y-113665000D03*
D12*
X182880000Y-113665000D03*
D13*
X190500000Y-136525000D03*
X182880000Y-116205000D03*
X190500000Y-133985000D03*
X182880000Y-118745000D03*
X190500000Y-131445000D03*
X182880000Y-121285000D03*
X190500000Y-128905000D03*
X182880000Y-123825000D03*
X190500000Y-126365000D03*
X182880000Y-126365000D03*
X190500000Y-123825000D03*
X182880000Y-128905000D03*
X190500000Y-121285000D03*
X182880000Y-131445000D03*
X190500000Y-118745000D03*
X182880000Y-133985000D03*
X190500000Y-116205000D03*
X182880000Y-136525000D03*
X190500000Y-113665000D03*
D12*
X113030000Y-113665000D03*
D13*
X120650000Y-136525000D03*
X113030000Y-116205000D03*
X120650000Y-133985000D03*
X113030000Y-118745000D03*
X120650000Y-131445000D03*
X113030000Y-121285000D03*
X120650000Y-128905000D03*
X113030000Y-123825000D03*
X120650000Y-126365000D03*
X113030000Y-126365000D03*
X120650000Y-123825000D03*
X113030000Y-128905000D03*
X120650000Y-121285000D03*
X113030000Y-131445000D03*
X120650000Y-118745000D03*
X113030000Y-133985000D03*
X120650000Y-116205000D03*
X113030000Y-136525000D03*
X120650000Y-113665000D03*
D14*
X128270000Y-90170000D03*
D13*
X138430000Y-90170000D03*
D14*
X128270000Y-86360000D03*
D13*
X138430000Y-86360000D03*
D14*
X115570000Y-86360000D03*
D13*
X125730000Y-86360000D03*
D11*
X144780000Y-90805000D03*
D10*
X144780000Y-80645000D03*
D16*
X153035000Y-76835000D03*
X155575000Y-76835000D03*
X158115000Y-76835000D03*
D15*
X160655000Y-76835000D03*
M02*
