M48
; DRILL file {KiCad (5.1.5)-3} date 17/10/2020 00:03:55
; FORMAT={2:4/ absolute / inch / suppress leading zeros}
; #@! TF.CreationDate,2020-10-17T00:03:55+02:00
; #@! TF.GenerationSoftware,Kicad,Pcbnew,(5.1.5)-3
FMAT,2
INCH,TZ
T1C0.0157
T2C0.0315
T3C0.0354
T4C0.0394
T5C0.0433
%
G90
G05
T1
X37750Y-57250
X38250Y-30000
X38500Y-29000
X38500Y-29750
X38500Y-49250
X38500Y-52250
X38750Y-42250
X38750Y-42750
X38750Y-43250
X39000Y-28750
X39000Y-30250
X39250Y-29750
X39750Y-31000
X40000Y-30500
X40500Y-30250
X40500Y-46750
X40500Y-51500
X40750Y-47000
X40750Y-51750
X41000Y-46750
X41000Y-51500
X41250Y-42000
X41250Y-47000
X41250Y-50000
X41500Y-46500
X42500Y-49250
X42750Y-49000
X42750Y-53000
X43000Y-53250
X43250Y-42500
X43250Y-53000
X43250Y-57000
X43500Y-45500
X43500Y-53250
X44000Y-33500
X44000Y-36250
X44000Y-38250
X44250Y-56750
X45000Y-33500
X45000Y-36250
X45000Y-38250
X45250Y-56500
X46000Y-33500
X46000Y-36250
X46000Y-38250
X46500Y-56500
X46750Y-42500
X46750Y-56750
X47000Y-36250
X47000Y-38250
X47000Y-57000
X47250Y-34500
X48000Y-26500
X48000Y-28000
X48000Y-37250
X48250Y-36250
X49000Y-31250
X49250Y-33500
X51000Y-31250
X51250Y-33750
X51500Y-34000
X52250Y-37000
X52250Y-42500
X52500Y-50250
X52750Y-35750
X52750Y-42250
X53000Y-37250
X53000Y-56250
X53250Y-36750
X53500Y-26750
X53500Y-36500
X53500Y-39000
X53500Y-47250
X53750Y-48750
X54000Y-39000
X54000Y-43000
X54000Y-49750
X54000Y-50250
X54500Y-39000
X54500Y-41000
X54750Y-40500
X54750Y-48500
X55000Y-33250
X55250Y-26750
X55250Y-41500
X56750Y-56000
X57000Y-29750
X57750Y-42500
X57750Y-57250
X58750Y-42000
X59000Y-41750
X59250Y-41250
X59250Y-56250
X59500Y-40750
X59500Y-47000
X59750Y-33750
X59750Y-36250
X59750Y-37500
X59750Y-40250
X60000Y-40000
X60000Y-52500
X60250Y-39750
X60250Y-50500
X60500Y-39500
X60750Y-52750
X61250Y-56500
X61500Y-56250
X62250Y-32500
X62250Y-56500
X63000Y-28250
X63250Y-28000
X63250Y-32500
X63250Y-39500
X63250Y-42500
X63250Y-56500
X63500Y-27750
X63750Y-27500
X64250Y-30000
X64250Y-56500
X64500Y-29750
X64750Y-30250
X64750Y-39000
X64750Y-50500
X65000Y-27750
X65000Y-46500
X65250Y-30250
X65250Y-39000
X65250Y-56500
X65750Y-30250
X65750Y-39000
X66000Y-35750
X66250Y-39500
X66250Y-41500
X66250Y-56500
X66500Y-43000
X67250Y-41250
X67250Y-45000
X67250Y-56500
X67500Y-40500
X67750Y-40250
X67750Y-37000
X68000Y-40000
X68000Y-46000
X68000Y-52250
X68250Y-39750
X68250Y-48000
X68250Y-52000
X68250Y-56500
X68500Y-37000
X68500Y-50000
X68500Y-52250
X68750Y-41500
X68750Y-42500
X69000Y-42250
X69250Y-30750
X69250Y-56500
X69500Y-35750
X69500Y-36750
X69500Y-41250
X69750Y-30750
X70000Y-46250
X70250Y-46000
X70250Y-56500
X70500Y-35750
X70500Y-36500
X70500Y-41250
X70500Y-46250
X70750Y-45250
X71250Y-56500
X71750Y-29750
X72250Y-29750
X72250Y-56500
X73250Y-56500
X73750Y-49500
X73750Y-53500
X73750Y-57000
X74000Y-49250
X74000Y-53250
X74250Y-42500
X74250Y-50000
X74250Y-53500
X74750Y-28500
X74750Y-57250
X75000Y-29750
X75000Y-36250
X75250Y-42250
X75500Y-42000
X75750Y-41750
X76250Y-42250
X76250Y-49500
T2
X39531Y-43250
X41500Y-43250
X63000Y-35500
X67000Y-35500
X72531Y-43250
X74500Y-43250
X61000Y-33250
X61000Y-36250
X50000Y-44750
X50000Y-45750
X50000Y-46750
X50000Y-47750
X50000Y-48750
X50000Y-49750
X50000Y-50750
X53000Y-44750
X53000Y-45750
X53000Y-46750
X53000Y-47750
X53000Y-48750
X53000Y-49750
X53000Y-50750
X45500Y-34000
X49500Y-34000
X67031Y-43250
X69000Y-43250
X68500Y-34000
X72500Y-34000
X66500Y-44750
X66500Y-45750
X66500Y-46750
X66500Y-47750
X66500Y-48750
X66500Y-49750
X66500Y-50750
X66500Y-51750
X66500Y-52750
X66500Y-53750
X69500Y-44750
X69500Y-45750
X69500Y-46750
X69500Y-47750
X69500Y-48750
X69500Y-49750
X69500Y-50750
X69500Y-51750
X69500Y-52750
X69500Y-53750
X61531Y-43250
X63500Y-43250
X72000Y-44750
X72000Y-45750
X72000Y-46750
X72000Y-47750
X72000Y-48750
X72000Y-49750
X72000Y-50750
X72000Y-51750
X72000Y-52750
X72000Y-53750
X75000Y-44750
X75000Y-45750
X75000Y-46750
X75000Y-47750
X75000Y-48750
X75000Y-49750
X75000Y-50750
X75000Y-51750
X75000Y-52750
X75000Y-53750
X55500Y-44750
X55500Y-45750
X55500Y-46750
X55500Y-47750
X55500Y-48750
X55500Y-49750
X55500Y-50750
X55500Y-51750
X58500Y-44750
X58500Y-45750
X58500Y-46750
X58500Y-47750
X58500Y-48750
X58500Y-49750
X58500Y-50750
X58500Y-51750
X56031Y-43250
X58000Y-43250
X39000Y-44750
X39000Y-45750
X39000Y-46750
X39000Y-47750
X39000Y-48750
X39000Y-49750
X39000Y-50750
X39000Y-51750
X42000Y-44750
X42000Y-45750
X42000Y-46750
X42000Y-47750
X42000Y-48750
X42000Y-49750
X42000Y-50750
X42000Y-51750
X42500Y-31750
X42500Y-37750
X43500Y-31750
X43500Y-37750
X44500Y-31750
X44500Y-37750
X45500Y-31750
X45500Y-37750
X46500Y-31750
X46500Y-37750
X47500Y-31750
X47500Y-37750
X48500Y-31750
X48500Y-37750
X49500Y-31750
X49500Y-37750
X50500Y-31750
X50500Y-37750
X51500Y-31750
X51500Y-37750
X52500Y-31750
X52500Y-37750
X53500Y-31750
X53500Y-37750
X54500Y-31750
X54500Y-37750
X55500Y-31750
X55500Y-37750
X50531Y-43250
X52500Y-43250
X68500Y-35500
X72500Y-35500
X61000Y-31750
X61000Y-37750
X62000Y-31750
X62000Y-37750
X63000Y-31750
X63000Y-37750
X64000Y-31750
X64000Y-37750
X65000Y-31750
X65000Y-37750
X66000Y-31750
X66000Y-37750
X67000Y-31750
X67000Y-37750
X68000Y-31750
X68000Y-37750
X69000Y-31750
X69000Y-37750
X70000Y-31750
X70000Y-37750
X71000Y-31750
X71000Y-37750
X72000Y-31750
X72000Y-37750
X73000Y-31750
X73000Y-37750
X74000Y-31750
X74000Y-37750
X75000Y-31750
X75000Y-37750
X63000Y-34000
X67000Y-34000
X50500Y-35500
X54500Y-35500
X50500Y-34000
X54500Y-34000
X41000Y-31750
X41000Y-33719
X61000Y-44750
X61000Y-45750
X61000Y-46750
X61000Y-47750
X61000Y-48750
X61000Y-49750
X61000Y-50750
X61000Y-51750
X64000Y-44750
X64000Y-45750
X64000Y-46750
X64000Y-47750
X64000Y-48750
X64000Y-49750
X64000Y-50750
X64000Y-51750
X44500Y-44750
X44500Y-45750
X44500Y-46750
X44500Y-47750
X44500Y-48750
X44500Y-49750
X44500Y-50750
X44500Y-51750
X44500Y-52750
X44500Y-53750
X47500Y-44750
X47500Y-45750
X47500Y-46750
X47500Y-47750
X47500Y-48750
X47500Y-49750
X47500Y-50750
X47500Y-51750
X47500Y-52750
X47500Y-53750
X45031Y-43250
X47000Y-43250
T3
X67000Y-26250
X67000Y-27250
X70250Y-26250
X70250Y-27250
X73500Y-26250
X73500Y-27250
T4
X39250Y-26250
X39250Y-27250
X40250Y-26250
X40250Y-27250
X41250Y-26250
X41250Y-27250
X42250Y-26250
X42250Y-27250
X43250Y-26250
X43250Y-27250
X44250Y-26250
X44250Y-27250
X45250Y-26250
X45250Y-27250
X46250Y-26250
X46250Y-27250
X47250Y-26250
X47250Y-27250
X54500Y-26250
X54500Y-27250
X60250Y-30250
X61250Y-30250
X62250Y-30250
X63250Y-30250
X50500Y-26250
X50500Y-27250
X50500Y-28250
X38000Y-58000
X39000Y-58000
X40000Y-58000
X41000Y-58000
X42000Y-58000
X43000Y-58000
X44000Y-58000
X45000Y-58000
X46000Y-58000
X47000Y-58000
X48000Y-58000
X49000Y-58000
X50000Y-58000
X51000Y-58000
X52000Y-58000
X53000Y-58000
X54000Y-58000
X55000Y-58000
X56000Y-58000
X57000Y-58000
X58000Y-58000
X59000Y-58000
X60000Y-58000
X61000Y-58000
X62000Y-58000
X63000Y-58000
X64000Y-58000
X65000Y-58000
X66000Y-58000
X67000Y-58000
X68000Y-58000
X69000Y-58000
X70000Y-58000
X71000Y-58000
X72000Y-58000
X73000Y-58000
X74000Y-58000
X75000Y-58000
X76000Y-58000
T5
X58500Y-31750
X58500Y-35750
X57000Y-31750
X57000Y-35750
T0
M30
