G04 #@! TF.GenerationSoftware,KiCad,Pcbnew,(5.1.5)-3*
G04 #@! TF.CreationDate,2020-10-17T00:03:51+02:00*
G04 #@! TF.ProjectId,RC1 8K ExRAM,52433120-384b-4204-9578-52414d2e6b69,rev?*
G04 #@! TF.SameCoordinates,Original*
G04 #@! TF.FileFunction,Legend,Top*
G04 #@! TF.FilePolarity,Positive*
%FSLAX46Y46*%
G04 Gerber Fmt 4.6, Leading zero omitted, Abs format (unit mm)*
G04 Created by KiCad (PCBNEW (5.1.5)-3) date 2020-10-17 00:03:51*
%MOMM*%
%LPD*%
G04 APERTURE LIST*
%ADD10C,0.150000*%
%ADD11C,0.300000*%
%ADD12C,0.200000*%
%ADD13C,0.100000*%
%ADD14C,0.120000*%
G04 APERTURE END LIST*
D10*
X147630238Y-70905714D02*
X147630238Y-71715238D01*
X147582619Y-71810476D01*
X147535000Y-71858095D01*
X147439761Y-71905714D01*
X147296904Y-71905714D01*
X147201666Y-71858095D01*
X147630238Y-71524761D02*
X147535000Y-71572380D01*
X147344523Y-71572380D01*
X147249285Y-71524761D01*
X147201666Y-71477142D01*
X147154047Y-71381904D01*
X147154047Y-71096190D01*
X147201666Y-71000952D01*
X147249285Y-70953333D01*
X147344523Y-70905714D01*
X147535000Y-70905714D01*
X147630238Y-70953333D01*
X148106428Y-71572380D02*
X148106428Y-70905714D01*
X148106428Y-70572380D02*
X148058809Y-70620000D01*
X148106428Y-70667619D01*
X148154047Y-70620000D01*
X148106428Y-70572380D01*
X148106428Y-70667619D01*
X148439761Y-70905714D02*
X148820714Y-70905714D01*
X148582619Y-70572380D02*
X148582619Y-71429523D01*
X148630238Y-71524761D01*
X148725476Y-71572380D01*
X148820714Y-71572380D01*
X149154047Y-71572380D02*
X149154047Y-70572380D01*
X149582619Y-71572380D02*
X149582619Y-71048571D01*
X149535000Y-70953333D01*
X149439761Y-70905714D01*
X149296904Y-70905714D01*
X149201666Y-70953333D01*
X149154047Y-71000952D01*
X150487380Y-70905714D02*
X150487380Y-71572380D01*
X150058809Y-70905714D02*
X150058809Y-71429523D01*
X150106428Y-71524761D01*
X150201666Y-71572380D01*
X150344523Y-71572380D01*
X150439761Y-71524761D01*
X150487380Y-71477142D01*
X150963571Y-71572380D02*
X150963571Y-70572380D01*
X150963571Y-70953333D02*
X151058809Y-70905714D01*
X151249285Y-70905714D01*
X151344523Y-70953333D01*
X151392142Y-71000952D01*
X151439761Y-71096190D01*
X151439761Y-71381904D01*
X151392142Y-71477142D01*
X151344523Y-71524761D01*
X151249285Y-71572380D01*
X151058809Y-71572380D01*
X150963571Y-71524761D01*
X151868333Y-71477142D02*
X151915952Y-71524761D01*
X151868333Y-71572380D01*
X151820714Y-71524761D01*
X151868333Y-71477142D01*
X151868333Y-71572380D01*
X152773095Y-71524761D02*
X152677857Y-71572380D01*
X152487380Y-71572380D01*
X152392142Y-71524761D01*
X152344523Y-71477142D01*
X152296904Y-71381904D01*
X152296904Y-71096190D01*
X152344523Y-71000952D01*
X152392142Y-70953333D01*
X152487380Y-70905714D01*
X152677857Y-70905714D01*
X152773095Y-70953333D01*
X153344523Y-71572380D02*
X153249285Y-71524761D01*
X153201666Y-71477142D01*
X153154047Y-71381904D01*
X153154047Y-71096190D01*
X153201666Y-71000952D01*
X153249285Y-70953333D01*
X153344523Y-70905714D01*
X153487380Y-70905714D01*
X153582619Y-70953333D01*
X153630238Y-71000952D01*
X153677857Y-71096190D01*
X153677857Y-71381904D01*
X153630238Y-71477142D01*
X153582619Y-71524761D01*
X153487380Y-71572380D01*
X153344523Y-71572380D01*
X154106428Y-71572380D02*
X154106428Y-70905714D01*
X154106428Y-71000952D02*
X154154047Y-70953333D01*
X154249285Y-70905714D01*
X154392142Y-70905714D01*
X154487380Y-70953333D01*
X154535000Y-71048571D01*
X154535000Y-71572380D01*
X154535000Y-71048571D02*
X154582619Y-70953333D01*
X154677857Y-70905714D01*
X154820714Y-70905714D01*
X154915952Y-70953333D01*
X154963571Y-71048571D01*
X154963571Y-71572380D01*
X156154047Y-70524761D02*
X155296904Y-71810476D01*
X156344523Y-70905714D02*
X156725476Y-70905714D01*
X156487380Y-70572380D02*
X156487380Y-71429523D01*
X156535000Y-71524761D01*
X156630238Y-71572380D01*
X156725476Y-71572380D01*
X157439761Y-71524761D02*
X157344523Y-71572380D01*
X157154047Y-71572380D01*
X157058809Y-71524761D01*
X157011190Y-71429523D01*
X157011190Y-71048571D01*
X157058809Y-70953333D01*
X157154047Y-70905714D01*
X157344523Y-70905714D01*
X157439761Y-70953333D01*
X157487380Y-71048571D01*
X157487380Y-71143809D01*
X157011190Y-71239047D01*
X157915952Y-71572380D02*
X157915952Y-70572380D01*
X157915952Y-70953333D02*
X158011190Y-70905714D01*
X158201666Y-70905714D01*
X158296904Y-70953333D01*
X158344523Y-71000952D01*
X158392142Y-71096190D01*
X158392142Y-71381904D01*
X158344523Y-71477142D01*
X158296904Y-71524761D01*
X158201666Y-71572380D01*
X158011190Y-71572380D01*
X157915952Y-71524761D01*
X158963571Y-71572380D02*
X158868333Y-71524761D01*
X158820714Y-71429523D01*
X158820714Y-70572380D01*
X149701666Y-69095952D02*
X149606428Y-69048333D01*
X149558809Y-69000714D01*
X149511190Y-68905476D01*
X149511190Y-68857857D01*
X149558809Y-68762619D01*
X149606428Y-68715000D01*
X149701666Y-68667380D01*
X149892142Y-68667380D01*
X149987380Y-68715000D01*
X150035000Y-68762619D01*
X150082619Y-68857857D01*
X150082619Y-68905476D01*
X150035000Y-69000714D01*
X149987380Y-69048333D01*
X149892142Y-69095952D01*
X149701666Y-69095952D01*
X149606428Y-69143571D01*
X149558809Y-69191190D01*
X149511190Y-69286428D01*
X149511190Y-69476904D01*
X149558809Y-69572142D01*
X149606428Y-69619761D01*
X149701666Y-69667380D01*
X149892142Y-69667380D01*
X149987380Y-69619761D01*
X150035000Y-69572142D01*
X150082619Y-69476904D01*
X150082619Y-69286428D01*
X150035000Y-69191190D01*
X149987380Y-69143571D01*
X149892142Y-69095952D01*
X150511190Y-69667380D02*
X150511190Y-68667380D01*
X151082619Y-69667380D02*
X150654047Y-69095952D01*
X151082619Y-68667380D02*
X150511190Y-69238809D01*
X152273095Y-69143571D02*
X152606428Y-69143571D01*
X152749285Y-69667380D02*
X152273095Y-69667380D01*
X152273095Y-68667380D01*
X152749285Y-68667380D01*
X153082619Y-69667380D02*
X153606428Y-69000714D01*
X153082619Y-69000714D02*
X153606428Y-69667380D01*
X154558809Y-69667380D02*
X154225476Y-69191190D01*
X153987380Y-69667380D02*
X153987380Y-68667380D01*
X154368333Y-68667380D01*
X154463571Y-68715000D01*
X154511190Y-68762619D01*
X154558809Y-68857857D01*
X154558809Y-69000714D01*
X154511190Y-69095952D01*
X154463571Y-69143571D01*
X154368333Y-69191190D01*
X153987380Y-69191190D01*
X154939761Y-69381666D02*
X155415952Y-69381666D01*
X154844523Y-69667380D02*
X155177857Y-68667380D01*
X155511190Y-69667380D01*
X155844523Y-69667380D02*
X155844523Y-68667380D01*
X156177857Y-69381666D01*
X156511190Y-68667380D01*
X156511190Y-69667380D01*
D11*
X150205714Y-67988571D02*
X149705714Y-67274285D01*
X149348571Y-67988571D02*
X149348571Y-66488571D01*
X149920000Y-66488571D01*
X150062857Y-66560000D01*
X150134285Y-66631428D01*
X150205714Y-66774285D01*
X150205714Y-66988571D01*
X150134285Y-67131428D01*
X150062857Y-67202857D01*
X149920000Y-67274285D01*
X149348571Y-67274285D01*
X151705714Y-67845714D02*
X151634285Y-67917142D01*
X151420000Y-67988571D01*
X151277142Y-67988571D01*
X151062857Y-67917142D01*
X150920000Y-67774285D01*
X150848571Y-67631428D01*
X150777142Y-67345714D01*
X150777142Y-67131428D01*
X150848571Y-66845714D01*
X150920000Y-66702857D01*
X151062857Y-66560000D01*
X151277142Y-66488571D01*
X151420000Y-66488571D01*
X151634285Y-66560000D01*
X151705714Y-66631428D01*
X152348571Y-67417142D02*
X153491428Y-67417142D01*
X154491428Y-66488571D02*
X154777142Y-66488571D01*
X154920000Y-66560000D01*
X155062857Y-66702857D01*
X155134285Y-66988571D01*
X155134285Y-67488571D01*
X155062857Y-67774285D01*
X154920000Y-67917142D01*
X154777142Y-67988571D01*
X154491428Y-67988571D01*
X154348571Y-67917142D01*
X154205714Y-67774285D01*
X154134285Y-67488571D01*
X154134285Y-66988571D01*
X154205714Y-66702857D01*
X154348571Y-66560000D01*
X154491428Y-66488571D01*
X155777142Y-67988571D02*
X155777142Y-66488571D01*
X156634285Y-67988571D01*
X156634285Y-66488571D01*
X157348571Y-67202857D02*
X157848571Y-67202857D01*
X158062857Y-67988571D02*
X157348571Y-67988571D01*
X157348571Y-66488571D01*
X158062857Y-66488571D01*
D12*
X186690000Y-65405000D02*
G75*
G03X184150000Y-67945000I0J-2540000D01*
G01*
X189230000Y-67945000D02*
G75*
G03X186690000Y-65405000I-2540000J0D01*
G01*
X180975000Y-67945000D02*
G75*
G03X178435000Y-65405000I-2540000J0D01*
G01*
X178435000Y-65405000D02*
G75*
G03X175895000Y-67945000I0J-2540000D01*
G01*
X170180000Y-65405000D02*
G75*
G03X167640000Y-67945000I0J-2540000D01*
G01*
X172720000Y-67945000D02*
G75*
G03X170180000Y-65405000I-2540000J0D01*
G01*
X118745000Y-75565000D02*
X118745000Y-71120000D01*
X100965000Y-75565000D02*
X100965000Y-71120000D01*
X172720000Y-67945000D02*
X172720000Y-75565000D01*
X189230000Y-76835000D02*
X189230000Y-75565000D01*
X180975000Y-76835000D02*
X189230000Y-76835000D01*
X167640000Y-76835000D02*
X175895000Y-76835000D01*
X167640000Y-75565000D02*
X167640000Y-76835000D01*
D13*
X176454047Y-77158809D02*
X176568333Y-77196904D01*
X176758809Y-77196904D01*
X176835000Y-77158809D01*
X176873095Y-77120714D01*
X176911190Y-77044523D01*
X176911190Y-76968333D01*
X176873095Y-76892142D01*
X176835000Y-76854047D01*
X176758809Y-76815952D01*
X176606428Y-76777857D01*
X176530238Y-76739761D01*
X176492142Y-76701666D01*
X176454047Y-76625476D01*
X176454047Y-76549285D01*
X176492142Y-76473095D01*
X176530238Y-76435000D01*
X176606428Y-76396904D01*
X176796904Y-76396904D01*
X176911190Y-76435000D01*
X177139761Y-76396904D02*
X177596904Y-76396904D01*
X177368333Y-77196904D02*
X177368333Y-76396904D01*
X177825476Y-76968333D02*
X178206428Y-76968333D01*
X177749285Y-77196904D02*
X178015952Y-76396904D01*
X178282619Y-77196904D01*
X178435000Y-76396904D02*
X178892142Y-76396904D01*
X178663571Y-77196904D02*
X178663571Y-76396904D01*
X179158809Y-76396904D02*
X179158809Y-77044523D01*
X179196904Y-77120714D01*
X179235000Y-77158809D01*
X179311190Y-77196904D01*
X179463571Y-77196904D01*
X179539761Y-77158809D01*
X179577857Y-77120714D01*
X179615952Y-77044523D01*
X179615952Y-76396904D01*
X179958809Y-77158809D02*
X180073095Y-77196904D01*
X180263571Y-77196904D01*
X180339761Y-77158809D01*
X180377857Y-77120714D01*
X180415952Y-77044523D01*
X180415952Y-76968333D01*
X180377857Y-76892142D01*
X180339761Y-76854047D01*
X180263571Y-76815952D01*
X180111190Y-76777857D01*
X180035000Y-76739761D01*
X179996904Y-76701666D01*
X179958809Y-76625476D01*
X179958809Y-76549285D01*
X179996904Y-76473095D01*
X180035000Y-76435000D01*
X180111190Y-76396904D01*
X180301666Y-76396904D01*
X180415952Y-76435000D01*
D12*
X189230000Y-67945000D02*
X189230000Y-75565000D01*
X184150000Y-67945000D02*
X184150000Y-75565000D01*
X180975000Y-75565000D02*
X180975000Y-67945000D01*
X175895000Y-67945000D02*
X175895000Y-75565000D01*
X167640000Y-75565000D02*
X167640000Y-67945000D01*
D13*
X184994761Y-72952857D02*
X185261428Y-72952857D01*
X185375714Y-73371904D02*
X184994761Y-73371904D01*
X184994761Y-72571904D01*
X185375714Y-72571904D01*
X185642380Y-73371904D02*
X186061428Y-72838571D01*
X185642380Y-72838571D02*
X186061428Y-73371904D01*
X186823333Y-73371904D02*
X186556666Y-72990952D01*
X186366190Y-73371904D02*
X186366190Y-72571904D01*
X186670952Y-72571904D01*
X186747142Y-72610000D01*
X186785238Y-72648095D01*
X186823333Y-72724285D01*
X186823333Y-72838571D01*
X186785238Y-72914761D01*
X186747142Y-72952857D01*
X186670952Y-72990952D01*
X186366190Y-72990952D01*
X187128095Y-73143333D02*
X187509047Y-73143333D01*
X187051904Y-73371904D02*
X187318571Y-72571904D01*
X187585238Y-73371904D01*
X187851904Y-73371904D02*
X187851904Y-72571904D01*
X188118571Y-73143333D01*
X188385238Y-72571904D01*
X188385238Y-73371904D01*
X185604285Y-74252857D02*
X185718571Y-74290952D01*
X185756666Y-74329047D01*
X185794761Y-74405238D01*
X185794761Y-74519523D01*
X185756666Y-74595714D01*
X185718571Y-74633809D01*
X185642380Y-74671904D01*
X185337619Y-74671904D01*
X185337619Y-73871904D01*
X185604285Y-73871904D01*
X185680476Y-73910000D01*
X185718571Y-73948095D01*
X185756666Y-74024285D01*
X185756666Y-74100476D01*
X185718571Y-74176666D01*
X185680476Y-74214761D01*
X185604285Y-74252857D01*
X185337619Y-74252857D01*
X186137619Y-73871904D02*
X186137619Y-74519523D01*
X186175714Y-74595714D01*
X186213809Y-74633809D01*
X186290000Y-74671904D01*
X186442380Y-74671904D01*
X186518571Y-74633809D01*
X186556666Y-74595714D01*
X186594761Y-74519523D01*
X186594761Y-73871904D01*
X186937619Y-74633809D02*
X187051904Y-74671904D01*
X187242380Y-74671904D01*
X187318571Y-74633809D01*
X187356666Y-74595714D01*
X187394761Y-74519523D01*
X187394761Y-74443333D01*
X187356666Y-74367142D01*
X187318571Y-74329047D01*
X187242380Y-74290952D01*
X187090000Y-74252857D01*
X187013809Y-74214761D01*
X186975714Y-74176666D01*
X186937619Y-74100476D01*
X186937619Y-74024285D01*
X186975714Y-73948095D01*
X187013809Y-73910000D01*
X187090000Y-73871904D01*
X187280476Y-73871904D01*
X187394761Y-73910000D01*
X187890000Y-74290952D02*
X187890000Y-74671904D01*
X187623333Y-73871904D02*
X187890000Y-74290952D01*
X188156666Y-73871904D01*
X176587380Y-73333809D02*
X176701666Y-73371904D01*
X176892142Y-73371904D01*
X176968333Y-73333809D01*
X177006428Y-73295714D01*
X177044523Y-73219523D01*
X177044523Y-73143333D01*
X177006428Y-73067142D01*
X176968333Y-73029047D01*
X176892142Y-72990952D01*
X176739761Y-72952857D01*
X176663571Y-72914761D01*
X176625476Y-72876666D01*
X176587380Y-72800476D01*
X176587380Y-72724285D01*
X176625476Y-72648095D01*
X176663571Y-72610000D01*
X176739761Y-72571904D01*
X176930238Y-72571904D01*
X177044523Y-72610000D01*
X177387380Y-72952857D02*
X177654047Y-72952857D01*
X177768333Y-73371904D02*
X177387380Y-73371904D01*
X177387380Y-72571904D01*
X177768333Y-72571904D01*
X178568333Y-73371904D02*
X178301666Y-72990952D01*
X178111190Y-73371904D02*
X178111190Y-72571904D01*
X178415952Y-72571904D01*
X178492142Y-72610000D01*
X178530238Y-72648095D01*
X178568333Y-72724285D01*
X178568333Y-72838571D01*
X178530238Y-72914761D01*
X178492142Y-72952857D01*
X178415952Y-72990952D01*
X178111190Y-72990952D01*
X178911190Y-73371904D02*
X178911190Y-72571904D01*
X179254047Y-73143333D02*
X179635000Y-73143333D01*
X179177857Y-73371904D02*
X179444523Y-72571904D01*
X179711190Y-73371904D01*
X180358809Y-73371904D02*
X179977857Y-73371904D01*
X179977857Y-72571904D01*
X177235000Y-74671904D02*
X177235000Y-73871904D01*
X177425476Y-73871904D01*
X177539761Y-73910000D01*
X177615952Y-73986190D01*
X177654047Y-74062380D01*
X177692142Y-74214761D01*
X177692142Y-74329047D01*
X177654047Y-74481428D01*
X177615952Y-74557619D01*
X177539761Y-74633809D01*
X177425476Y-74671904D01*
X177235000Y-74671904D01*
X177996904Y-74443333D02*
X178377857Y-74443333D01*
X177920714Y-74671904D02*
X178187380Y-73871904D01*
X178454047Y-74671904D01*
X178606428Y-73871904D02*
X179063571Y-73871904D01*
X178835000Y-74671904D02*
X178835000Y-73871904D01*
X179292142Y-74443333D02*
X179673095Y-74443333D01*
X179215952Y-74671904D02*
X179482619Y-73871904D01*
X179749285Y-74671904D01*
X168332380Y-73333809D02*
X168446666Y-73371904D01*
X168637142Y-73371904D01*
X168713333Y-73333809D01*
X168751428Y-73295714D01*
X168789523Y-73219523D01*
X168789523Y-73143333D01*
X168751428Y-73067142D01*
X168713333Y-73029047D01*
X168637142Y-72990952D01*
X168484761Y-72952857D01*
X168408571Y-72914761D01*
X168370476Y-72876666D01*
X168332380Y-72800476D01*
X168332380Y-72724285D01*
X168370476Y-72648095D01*
X168408571Y-72610000D01*
X168484761Y-72571904D01*
X168675238Y-72571904D01*
X168789523Y-72610000D01*
X169132380Y-72952857D02*
X169399047Y-72952857D01*
X169513333Y-73371904D02*
X169132380Y-73371904D01*
X169132380Y-72571904D01*
X169513333Y-72571904D01*
X170313333Y-73371904D02*
X170046666Y-72990952D01*
X169856190Y-73371904D02*
X169856190Y-72571904D01*
X170160952Y-72571904D01*
X170237142Y-72610000D01*
X170275238Y-72648095D01*
X170313333Y-72724285D01*
X170313333Y-72838571D01*
X170275238Y-72914761D01*
X170237142Y-72952857D01*
X170160952Y-72990952D01*
X169856190Y-72990952D01*
X170656190Y-73371904D02*
X170656190Y-72571904D01*
X170999047Y-73143333D02*
X171380000Y-73143333D01*
X170922857Y-73371904D02*
X171189523Y-72571904D01*
X171456190Y-73371904D01*
X172103809Y-73371904D02*
X171722857Y-73371904D01*
X171722857Y-72571904D01*
X168884761Y-74595714D02*
X168846666Y-74633809D01*
X168732380Y-74671904D01*
X168656190Y-74671904D01*
X168541904Y-74633809D01*
X168465714Y-74557619D01*
X168427619Y-74481428D01*
X168389523Y-74329047D01*
X168389523Y-74214761D01*
X168427619Y-74062380D01*
X168465714Y-73986190D01*
X168541904Y-73910000D01*
X168656190Y-73871904D01*
X168732380Y-73871904D01*
X168846666Y-73910000D01*
X168884761Y-73948095D01*
X169608571Y-74671904D02*
X169227619Y-74671904D01*
X169227619Y-73871904D01*
X170027619Y-73871904D02*
X170180000Y-73871904D01*
X170256190Y-73910000D01*
X170332380Y-73986190D01*
X170370476Y-74138571D01*
X170370476Y-74405238D01*
X170332380Y-74557619D01*
X170256190Y-74633809D01*
X170180000Y-74671904D01*
X170027619Y-74671904D01*
X169951428Y-74633809D01*
X169875238Y-74557619D01*
X169837142Y-74405238D01*
X169837142Y-74138571D01*
X169875238Y-73986190D01*
X169951428Y-73910000D01*
X170027619Y-73871904D01*
X171170476Y-74595714D02*
X171132380Y-74633809D01*
X171018095Y-74671904D01*
X170941904Y-74671904D01*
X170827619Y-74633809D01*
X170751428Y-74557619D01*
X170713333Y-74481428D01*
X170675238Y-74329047D01*
X170675238Y-74214761D01*
X170713333Y-74062380D01*
X170751428Y-73986190D01*
X170827619Y-73910000D01*
X170941904Y-73871904D01*
X171018095Y-73871904D01*
X171132380Y-73910000D01*
X171170476Y-73948095D01*
X171513333Y-74671904D02*
X171513333Y-73871904D01*
X171970476Y-74671904D02*
X171627619Y-74214761D01*
X171970476Y-73871904D02*
X171513333Y-74329047D01*
X139007857Y-78217857D02*
X139007857Y-78484523D01*
X139426904Y-78484523D02*
X138626904Y-78484523D01*
X138626904Y-78103571D01*
X139426904Y-77341666D02*
X139045952Y-77608333D01*
X139426904Y-77798809D02*
X138626904Y-77798809D01*
X138626904Y-77494047D01*
X138665000Y-77417857D01*
X138703095Y-77379761D01*
X138779285Y-77341666D01*
X138893571Y-77341666D01*
X138969761Y-77379761D01*
X139007857Y-77417857D01*
X139045952Y-77494047D01*
X139045952Y-77798809D01*
X138626904Y-76846428D02*
X138626904Y-76694047D01*
X138665000Y-76617857D01*
X138741190Y-76541666D01*
X138893571Y-76503571D01*
X139160238Y-76503571D01*
X139312619Y-76541666D01*
X139388809Y-76617857D01*
X139426904Y-76694047D01*
X139426904Y-76846428D01*
X139388809Y-76922619D01*
X139312619Y-76998809D01*
X139160238Y-77036904D01*
X138893571Y-77036904D01*
X138741190Y-76998809D01*
X138665000Y-76922619D01*
X138626904Y-76846428D01*
X139426904Y-76160714D02*
X138626904Y-76160714D01*
X139198333Y-75894047D01*
X138626904Y-75627380D01*
X139426904Y-75627380D01*
X138626904Y-74636904D02*
X139274523Y-74636904D01*
X139350714Y-74598809D01*
X139388809Y-74560714D01*
X139426904Y-74484523D01*
X139426904Y-74332142D01*
X139388809Y-74255952D01*
X139350714Y-74217857D01*
X139274523Y-74179761D01*
X138626904Y-74179761D01*
X139388809Y-73836904D02*
X139426904Y-73722619D01*
X139426904Y-73532142D01*
X139388809Y-73455952D01*
X139350714Y-73417857D01*
X139274523Y-73379761D01*
X139198333Y-73379761D01*
X139122142Y-73417857D01*
X139084047Y-73455952D01*
X139045952Y-73532142D01*
X139007857Y-73684523D01*
X138969761Y-73760714D01*
X138931666Y-73798809D01*
X138855476Y-73836904D01*
X138779285Y-73836904D01*
X138703095Y-73798809D01*
X138665000Y-73760714D01*
X138626904Y-73684523D01*
X138626904Y-73494047D01*
X138665000Y-73379761D01*
X139007857Y-72770238D02*
X139045952Y-72655952D01*
X139084047Y-72617857D01*
X139160238Y-72579761D01*
X139274523Y-72579761D01*
X139350714Y-72617857D01*
X139388809Y-72655952D01*
X139426904Y-72732142D01*
X139426904Y-73036904D01*
X138626904Y-73036904D01*
X138626904Y-72770238D01*
X138665000Y-72694047D01*
X138703095Y-72655952D01*
X138779285Y-72617857D01*
X138855476Y-72617857D01*
X138931666Y-72655952D01*
X138969761Y-72694047D01*
X139007857Y-72770238D01*
X139007857Y-73036904D01*
X138156904Y-78484523D02*
X137356904Y-78484523D01*
X137356904Y-78179761D01*
X137395000Y-78103571D01*
X137433095Y-78065476D01*
X137509285Y-78027380D01*
X137623571Y-78027380D01*
X137699761Y-78065476D01*
X137737857Y-78103571D01*
X137775952Y-78179761D01*
X137775952Y-78484523D01*
X137356904Y-77532142D02*
X137356904Y-77379761D01*
X137395000Y-77303571D01*
X137471190Y-77227380D01*
X137623571Y-77189285D01*
X137890238Y-77189285D01*
X138042619Y-77227380D01*
X138118809Y-77303571D01*
X138156904Y-77379761D01*
X138156904Y-77532142D01*
X138118809Y-77608333D01*
X138042619Y-77684523D01*
X137890238Y-77722619D01*
X137623571Y-77722619D01*
X137471190Y-77684523D01*
X137395000Y-77608333D01*
X137356904Y-77532142D01*
X137356904Y-76922619D02*
X138156904Y-76732142D01*
X137585476Y-76579761D01*
X138156904Y-76427380D01*
X137356904Y-76236904D01*
X137737857Y-75932142D02*
X137737857Y-75665476D01*
X138156904Y-75551190D02*
X138156904Y-75932142D01*
X137356904Y-75932142D01*
X137356904Y-75551190D01*
X138156904Y-74751190D02*
X137775952Y-75017857D01*
X138156904Y-75208333D02*
X137356904Y-75208333D01*
X137356904Y-74903571D01*
X137395000Y-74827380D01*
X137433095Y-74789285D01*
X137509285Y-74751190D01*
X137623571Y-74751190D01*
X137699761Y-74789285D01*
X137737857Y-74827380D01*
X137775952Y-74903571D01*
X137775952Y-75208333D01*
D12*
X139700000Y-78740000D02*
X139700000Y-71120000D01*
X137160000Y-71120000D02*
X137160000Y-78740000D01*
X121285000Y-76835000D02*
X115570000Y-76835000D01*
X98425000Y-76835000D02*
X104140000Y-76835000D01*
X129540000Y-78740000D02*
X129540000Y-73660000D01*
X127000000Y-73660000D02*
X127000000Y-78740000D01*
D13*
X129266904Y-78484523D02*
X128466904Y-78484523D01*
X128466904Y-78179761D01*
X128505000Y-78103571D01*
X128543095Y-78065476D01*
X128619285Y-78027380D01*
X128733571Y-78027380D01*
X128809761Y-78065476D01*
X128847857Y-78103571D01*
X128885952Y-78179761D01*
X128885952Y-78484523D01*
X129266904Y-77227380D02*
X128885952Y-77494047D01*
X129266904Y-77684523D02*
X128466904Y-77684523D01*
X128466904Y-77379761D01*
X128505000Y-77303571D01*
X128543095Y-77265476D01*
X128619285Y-77227380D01*
X128733571Y-77227380D01*
X128809761Y-77265476D01*
X128847857Y-77303571D01*
X128885952Y-77379761D01*
X128885952Y-77684523D01*
X128466904Y-76732142D02*
X128466904Y-76579761D01*
X128505000Y-76503571D01*
X128581190Y-76427380D01*
X128733571Y-76389285D01*
X129000238Y-76389285D01*
X129152619Y-76427380D01*
X129228809Y-76503571D01*
X129266904Y-76579761D01*
X129266904Y-76732142D01*
X129228809Y-76808333D01*
X129152619Y-76884523D01*
X129000238Y-76922619D01*
X128733571Y-76922619D01*
X128581190Y-76884523D01*
X128505000Y-76808333D01*
X128466904Y-76732142D01*
X128466904Y-76160714D02*
X128466904Y-75703571D01*
X129266904Y-75932142D02*
X128466904Y-75932142D01*
X128847857Y-75436904D02*
X128847857Y-75170238D01*
X129266904Y-75055952D02*
X129266904Y-75436904D01*
X128466904Y-75436904D01*
X128466904Y-75055952D01*
X129190714Y-74255952D02*
X129228809Y-74294047D01*
X129266904Y-74408333D01*
X129266904Y-74484523D01*
X129228809Y-74598809D01*
X129152619Y-74675000D01*
X129076428Y-74713095D01*
X128924047Y-74751190D01*
X128809761Y-74751190D01*
X128657380Y-74713095D01*
X128581190Y-74675000D01*
X128505000Y-74598809D01*
X128466904Y-74484523D01*
X128466904Y-74408333D01*
X128505000Y-74294047D01*
X128543095Y-74255952D01*
X128466904Y-74027380D02*
X128466904Y-73570238D01*
X129266904Y-73798809D02*
X128466904Y-73798809D01*
X127996904Y-78484523D02*
X127196904Y-78484523D01*
X127768333Y-78217857D01*
X127196904Y-77951190D01*
X127996904Y-77951190D01*
X127577857Y-77570238D02*
X127577857Y-77303571D01*
X127996904Y-77189285D02*
X127996904Y-77570238D01*
X127196904Y-77570238D01*
X127196904Y-77189285D01*
X127996904Y-76846428D02*
X127196904Y-76846428D01*
X127768333Y-76579761D01*
X127196904Y-76313095D01*
X127996904Y-76313095D01*
X127196904Y-75779761D02*
X127196904Y-75627380D01*
X127235000Y-75551190D01*
X127311190Y-75475000D01*
X127463571Y-75436904D01*
X127730238Y-75436904D01*
X127882619Y-75475000D01*
X127958809Y-75551190D01*
X127996904Y-75627380D01*
X127996904Y-75779761D01*
X127958809Y-75855952D01*
X127882619Y-75932142D01*
X127730238Y-75970238D01*
X127463571Y-75970238D01*
X127311190Y-75932142D01*
X127235000Y-75855952D01*
X127196904Y-75779761D01*
X127996904Y-74636904D02*
X127615952Y-74903571D01*
X127996904Y-75094047D02*
X127196904Y-75094047D01*
X127196904Y-74789285D01*
X127235000Y-74713095D01*
X127273095Y-74675000D01*
X127349285Y-74636904D01*
X127463571Y-74636904D01*
X127539761Y-74675000D01*
X127577857Y-74713095D01*
X127615952Y-74789285D01*
X127615952Y-75094047D01*
X127615952Y-74141666D02*
X127996904Y-74141666D01*
X127196904Y-74408333D02*
X127615952Y-74141666D01*
X127196904Y-73875000D01*
D12*
X106045000Y-75565000D02*
X106045000Y-71120000D01*
X108585000Y-71120000D02*
X108585000Y-75565000D01*
X111125000Y-75565000D02*
X111125000Y-71120000D01*
X113665000Y-71120000D02*
X113665000Y-75565000D01*
X116205000Y-75565000D02*
X116205000Y-71120000D01*
X121285000Y-71120000D02*
X121285000Y-76835000D01*
X103505000Y-71120000D02*
X103505000Y-75565000D01*
X98425000Y-71120000D02*
X98425000Y-76835000D01*
D13*
X104902619Y-76968333D02*
X105283571Y-76968333D01*
X104826428Y-77196904D02*
X105093095Y-76396904D01*
X105359761Y-77196904D01*
X105626428Y-77196904D02*
X105626428Y-76396904D01*
X105816904Y-76396904D01*
X105931190Y-76435000D01*
X106007380Y-76511190D01*
X106045476Y-76587380D01*
X106083571Y-76739761D01*
X106083571Y-76854047D01*
X106045476Y-77006428D01*
X106007380Y-77082619D01*
X105931190Y-77158809D01*
X105816904Y-77196904D01*
X105626428Y-77196904D01*
X106426428Y-77196904D02*
X106426428Y-76396904D01*
X106616904Y-76396904D01*
X106731190Y-76435000D01*
X106807380Y-76511190D01*
X106845476Y-76587380D01*
X106883571Y-76739761D01*
X106883571Y-76854047D01*
X106845476Y-77006428D01*
X106807380Y-77082619D01*
X106731190Y-77158809D01*
X106616904Y-77196904D01*
X106426428Y-77196904D01*
X107683571Y-77196904D02*
X107416904Y-76815952D01*
X107226428Y-77196904D02*
X107226428Y-76396904D01*
X107531190Y-76396904D01*
X107607380Y-76435000D01*
X107645476Y-76473095D01*
X107683571Y-76549285D01*
X107683571Y-76663571D01*
X107645476Y-76739761D01*
X107607380Y-76777857D01*
X107531190Y-76815952D01*
X107226428Y-76815952D01*
X108026428Y-76777857D02*
X108293095Y-76777857D01*
X108407380Y-77196904D02*
X108026428Y-77196904D01*
X108026428Y-76396904D01*
X108407380Y-76396904D01*
X108712142Y-77158809D02*
X108826428Y-77196904D01*
X109016904Y-77196904D01*
X109093095Y-77158809D01*
X109131190Y-77120714D01*
X109169285Y-77044523D01*
X109169285Y-76968333D01*
X109131190Y-76892142D01*
X109093095Y-76854047D01*
X109016904Y-76815952D01*
X108864523Y-76777857D01*
X108788333Y-76739761D01*
X108750238Y-76701666D01*
X108712142Y-76625476D01*
X108712142Y-76549285D01*
X108750238Y-76473095D01*
X108788333Y-76435000D01*
X108864523Y-76396904D01*
X109055000Y-76396904D01*
X109169285Y-76435000D01*
X109474047Y-77158809D02*
X109588333Y-77196904D01*
X109778809Y-77196904D01*
X109855000Y-77158809D01*
X109893095Y-77120714D01*
X109931190Y-77044523D01*
X109931190Y-76968333D01*
X109893095Y-76892142D01*
X109855000Y-76854047D01*
X109778809Y-76815952D01*
X109626428Y-76777857D01*
X109550238Y-76739761D01*
X109512142Y-76701666D01*
X109474047Y-76625476D01*
X109474047Y-76549285D01*
X109512142Y-76473095D01*
X109550238Y-76435000D01*
X109626428Y-76396904D01*
X109816904Y-76396904D01*
X109931190Y-76435000D01*
X110845476Y-77158809D02*
X110959761Y-77196904D01*
X111150238Y-77196904D01*
X111226428Y-77158809D01*
X111264523Y-77120714D01*
X111302619Y-77044523D01*
X111302619Y-76968333D01*
X111264523Y-76892142D01*
X111226428Y-76854047D01*
X111150238Y-76815952D01*
X110997857Y-76777857D01*
X110921666Y-76739761D01*
X110883571Y-76701666D01*
X110845476Y-76625476D01*
X110845476Y-76549285D01*
X110883571Y-76473095D01*
X110921666Y-76435000D01*
X110997857Y-76396904D01*
X111188333Y-76396904D01*
X111302619Y-76435000D01*
X111645476Y-76777857D02*
X111912142Y-76777857D01*
X112026428Y-77196904D02*
X111645476Y-77196904D01*
X111645476Y-76396904D01*
X112026428Y-76396904D01*
X112750238Y-77196904D02*
X112369285Y-77196904D01*
X112369285Y-76396904D01*
X113016904Y-76777857D02*
X113283571Y-76777857D01*
X113397857Y-77196904D02*
X113016904Y-77196904D01*
X113016904Y-76396904D01*
X113397857Y-76396904D01*
X114197857Y-77120714D02*
X114159761Y-77158809D01*
X114045476Y-77196904D01*
X113969285Y-77196904D01*
X113855000Y-77158809D01*
X113778809Y-77082619D01*
X113740714Y-77006428D01*
X113702619Y-76854047D01*
X113702619Y-76739761D01*
X113740714Y-76587380D01*
X113778809Y-76511190D01*
X113855000Y-76435000D01*
X113969285Y-76396904D01*
X114045476Y-76396904D01*
X114159761Y-76435000D01*
X114197857Y-76473095D01*
X114426428Y-76396904D02*
X114883571Y-76396904D01*
X114655000Y-77196904D02*
X114655000Y-76396904D01*
X120376904Y-75261190D02*
X119576904Y-75261190D01*
X120376904Y-74804047D02*
X119919761Y-75146904D01*
X119576904Y-74804047D02*
X120034047Y-75261190D01*
X119576904Y-74537380D02*
X119576904Y-74004047D01*
X120376904Y-74346904D01*
X120453095Y-73889761D02*
X120453095Y-73280238D01*
X119957857Y-73089761D02*
X119957857Y-72823095D01*
X120376904Y-72708809D02*
X120376904Y-73089761D01*
X119576904Y-73089761D01*
X119576904Y-72708809D01*
X119576904Y-72442142D02*
X120376904Y-71908809D01*
X119576904Y-71908809D02*
X120376904Y-72442142D01*
X119576904Y-71718333D02*
X119576904Y-71261190D01*
X120376904Y-71489761D02*
X119576904Y-71489761D01*
X117836904Y-75261190D02*
X117036904Y-75261190D01*
X117836904Y-74804047D02*
X117379761Y-75146904D01*
X117036904Y-74804047D02*
X117494047Y-75261190D01*
X117036904Y-74308809D02*
X117036904Y-74232619D01*
X117075000Y-74156428D01*
X117113095Y-74118333D01*
X117189285Y-74080238D01*
X117341666Y-74042142D01*
X117532142Y-74042142D01*
X117684523Y-74080238D01*
X117760714Y-74118333D01*
X117798809Y-74156428D01*
X117836904Y-74232619D01*
X117836904Y-74308809D01*
X117798809Y-74385000D01*
X117760714Y-74423095D01*
X117684523Y-74461190D01*
X117532142Y-74499285D01*
X117341666Y-74499285D01*
X117189285Y-74461190D01*
X117113095Y-74423095D01*
X117075000Y-74385000D01*
X117036904Y-74308809D01*
X117913095Y-73889761D02*
X117913095Y-73280238D01*
X117417857Y-73089761D02*
X117417857Y-72823095D01*
X117836904Y-72708809D02*
X117836904Y-73089761D01*
X117036904Y-73089761D01*
X117036904Y-72708809D01*
X117036904Y-72442142D02*
X117836904Y-71908809D01*
X117036904Y-71908809D02*
X117836904Y-72442142D01*
X117036904Y-71718333D02*
X117036904Y-71261190D01*
X117836904Y-71489761D02*
X117036904Y-71489761D01*
X114839761Y-73204047D02*
X114801666Y-73280238D01*
X114763571Y-73318333D01*
X114687380Y-73356428D01*
X114649285Y-73356428D01*
X114573095Y-73318333D01*
X114535000Y-73280238D01*
X114496904Y-73204047D01*
X114496904Y-73051666D01*
X114535000Y-72975476D01*
X114573095Y-72937380D01*
X114649285Y-72899285D01*
X114687380Y-72899285D01*
X114763571Y-72937380D01*
X114801666Y-72975476D01*
X114839761Y-73051666D01*
X114839761Y-73204047D01*
X114877857Y-73280238D01*
X114915952Y-73318333D01*
X114992142Y-73356428D01*
X115144523Y-73356428D01*
X115220714Y-73318333D01*
X115258809Y-73280238D01*
X115296904Y-73204047D01*
X115296904Y-73051666D01*
X115258809Y-72975476D01*
X115220714Y-72937380D01*
X115144523Y-72899285D01*
X114992142Y-72899285D01*
X114915952Y-72937380D01*
X114877857Y-72975476D01*
X114839761Y-73051666D01*
X115296904Y-72556428D02*
X114496904Y-72556428D01*
X115296904Y-72099285D02*
X114839761Y-72442142D01*
X114496904Y-72099285D02*
X114954047Y-72556428D01*
X114496904Y-71832619D02*
X114496904Y-71299285D01*
X115296904Y-71642142D01*
X112299761Y-73204047D02*
X112261666Y-73280238D01*
X112223571Y-73318333D01*
X112147380Y-73356428D01*
X112109285Y-73356428D01*
X112033095Y-73318333D01*
X111995000Y-73280238D01*
X111956904Y-73204047D01*
X111956904Y-73051666D01*
X111995000Y-72975476D01*
X112033095Y-72937380D01*
X112109285Y-72899285D01*
X112147380Y-72899285D01*
X112223571Y-72937380D01*
X112261666Y-72975476D01*
X112299761Y-73051666D01*
X112299761Y-73204047D01*
X112337857Y-73280238D01*
X112375952Y-73318333D01*
X112452142Y-73356428D01*
X112604523Y-73356428D01*
X112680714Y-73318333D01*
X112718809Y-73280238D01*
X112756904Y-73204047D01*
X112756904Y-73051666D01*
X112718809Y-72975476D01*
X112680714Y-72937380D01*
X112604523Y-72899285D01*
X112452142Y-72899285D01*
X112375952Y-72937380D01*
X112337857Y-72975476D01*
X112299761Y-73051666D01*
X112756904Y-72556428D02*
X111956904Y-72556428D01*
X112756904Y-72099285D02*
X112299761Y-72442142D01*
X111956904Y-72099285D02*
X112414047Y-72556428D01*
X111956904Y-71413571D02*
X111956904Y-71565952D01*
X111995000Y-71642142D01*
X112033095Y-71680238D01*
X112147380Y-71756428D01*
X112299761Y-71794523D01*
X112604523Y-71794523D01*
X112680714Y-71756428D01*
X112718809Y-71718333D01*
X112756904Y-71642142D01*
X112756904Y-71489761D01*
X112718809Y-71413571D01*
X112680714Y-71375476D01*
X112604523Y-71337380D01*
X112414047Y-71337380D01*
X112337857Y-71375476D01*
X112299761Y-71413571D01*
X112261666Y-71489761D01*
X112261666Y-71642142D01*
X112299761Y-71718333D01*
X112337857Y-71756428D01*
X112414047Y-71794523D01*
X109759761Y-73204047D02*
X109721666Y-73280238D01*
X109683571Y-73318333D01*
X109607380Y-73356428D01*
X109569285Y-73356428D01*
X109493095Y-73318333D01*
X109455000Y-73280238D01*
X109416904Y-73204047D01*
X109416904Y-73051666D01*
X109455000Y-72975476D01*
X109493095Y-72937380D01*
X109569285Y-72899285D01*
X109607380Y-72899285D01*
X109683571Y-72937380D01*
X109721666Y-72975476D01*
X109759761Y-73051666D01*
X109759761Y-73204047D01*
X109797857Y-73280238D01*
X109835952Y-73318333D01*
X109912142Y-73356428D01*
X110064523Y-73356428D01*
X110140714Y-73318333D01*
X110178809Y-73280238D01*
X110216904Y-73204047D01*
X110216904Y-73051666D01*
X110178809Y-72975476D01*
X110140714Y-72937380D01*
X110064523Y-72899285D01*
X109912142Y-72899285D01*
X109835952Y-72937380D01*
X109797857Y-72975476D01*
X109759761Y-73051666D01*
X110216904Y-72556428D02*
X109416904Y-72556428D01*
X110216904Y-72099285D02*
X109759761Y-72442142D01*
X109416904Y-72099285D02*
X109874047Y-72556428D01*
X109416904Y-71375476D02*
X109416904Y-71756428D01*
X109797857Y-71794523D01*
X109759761Y-71756428D01*
X109721666Y-71680238D01*
X109721666Y-71489761D01*
X109759761Y-71413571D01*
X109797857Y-71375476D01*
X109874047Y-71337380D01*
X110064523Y-71337380D01*
X110140714Y-71375476D01*
X110178809Y-71413571D01*
X110216904Y-71489761D01*
X110216904Y-71680238D01*
X110178809Y-71756428D01*
X110140714Y-71794523D01*
X107219761Y-73204047D02*
X107181666Y-73280238D01*
X107143571Y-73318333D01*
X107067380Y-73356428D01*
X107029285Y-73356428D01*
X106953095Y-73318333D01*
X106915000Y-73280238D01*
X106876904Y-73204047D01*
X106876904Y-73051666D01*
X106915000Y-72975476D01*
X106953095Y-72937380D01*
X107029285Y-72899285D01*
X107067380Y-72899285D01*
X107143571Y-72937380D01*
X107181666Y-72975476D01*
X107219761Y-73051666D01*
X107219761Y-73204047D01*
X107257857Y-73280238D01*
X107295952Y-73318333D01*
X107372142Y-73356428D01*
X107524523Y-73356428D01*
X107600714Y-73318333D01*
X107638809Y-73280238D01*
X107676904Y-73204047D01*
X107676904Y-73051666D01*
X107638809Y-72975476D01*
X107600714Y-72937380D01*
X107524523Y-72899285D01*
X107372142Y-72899285D01*
X107295952Y-72937380D01*
X107257857Y-72975476D01*
X107219761Y-73051666D01*
X107676904Y-72556428D02*
X106876904Y-72556428D01*
X107676904Y-72099285D02*
X107219761Y-72442142D01*
X106876904Y-72099285D02*
X107334047Y-72556428D01*
X107143571Y-71413571D02*
X107676904Y-71413571D01*
X106838809Y-71604047D02*
X107410238Y-71794523D01*
X107410238Y-71299285D01*
X104679761Y-73204047D02*
X104641666Y-73280238D01*
X104603571Y-73318333D01*
X104527380Y-73356428D01*
X104489285Y-73356428D01*
X104413095Y-73318333D01*
X104375000Y-73280238D01*
X104336904Y-73204047D01*
X104336904Y-73051666D01*
X104375000Y-72975476D01*
X104413095Y-72937380D01*
X104489285Y-72899285D01*
X104527380Y-72899285D01*
X104603571Y-72937380D01*
X104641666Y-72975476D01*
X104679761Y-73051666D01*
X104679761Y-73204047D01*
X104717857Y-73280238D01*
X104755952Y-73318333D01*
X104832142Y-73356428D01*
X104984523Y-73356428D01*
X105060714Y-73318333D01*
X105098809Y-73280238D01*
X105136904Y-73204047D01*
X105136904Y-73051666D01*
X105098809Y-72975476D01*
X105060714Y-72937380D01*
X104984523Y-72899285D01*
X104832142Y-72899285D01*
X104755952Y-72937380D01*
X104717857Y-72975476D01*
X104679761Y-73051666D01*
X105136904Y-72556428D02*
X104336904Y-72556428D01*
X105136904Y-72099285D02*
X104679761Y-72442142D01*
X104336904Y-72099285D02*
X104794047Y-72556428D01*
X104336904Y-71832619D02*
X104336904Y-71337380D01*
X104641666Y-71604047D01*
X104641666Y-71489761D01*
X104679761Y-71413571D01*
X104717857Y-71375476D01*
X104794047Y-71337380D01*
X104984523Y-71337380D01*
X105060714Y-71375476D01*
X105098809Y-71413571D01*
X105136904Y-71489761D01*
X105136904Y-71718333D01*
X105098809Y-71794523D01*
X105060714Y-71832619D01*
X102139761Y-73204047D02*
X102101666Y-73280238D01*
X102063571Y-73318333D01*
X101987380Y-73356428D01*
X101949285Y-73356428D01*
X101873095Y-73318333D01*
X101835000Y-73280238D01*
X101796904Y-73204047D01*
X101796904Y-73051666D01*
X101835000Y-72975476D01*
X101873095Y-72937380D01*
X101949285Y-72899285D01*
X101987380Y-72899285D01*
X102063571Y-72937380D01*
X102101666Y-72975476D01*
X102139761Y-73051666D01*
X102139761Y-73204047D01*
X102177857Y-73280238D01*
X102215952Y-73318333D01*
X102292142Y-73356428D01*
X102444523Y-73356428D01*
X102520714Y-73318333D01*
X102558809Y-73280238D01*
X102596904Y-73204047D01*
X102596904Y-73051666D01*
X102558809Y-72975476D01*
X102520714Y-72937380D01*
X102444523Y-72899285D01*
X102292142Y-72899285D01*
X102215952Y-72937380D01*
X102177857Y-72975476D01*
X102139761Y-73051666D01*
X102596904Y-72556428D02*
X101796904Y-72556428D01*
X102596904Y-72099285D02*
X102139761Y-72442142D01*
X101796904Y-72099285D02*
X102254047Y-72556428D01*
X101873095Y-71794523D02*
X101835000Y-71756428D01*
X101796904Y-71680238D01*
X101796904Y-71489761D01*
X101835000Y-71413571D01*
X101873095Y-71375476D01*
X101949285Y-71337380D01*
X102025476Y-71337380D01*
X102139761Y-71375476D01*
X102596904Y-71832619D01*
X102596904Y-71337380D01*
X99599761Y-73204047D02*
X99561666Y-73280238D01*
X99523571Y-73318333D01*
X99447380Y-73356428D01*
X99409285Y-73356428D01*
X99333095Y-73318333D01*
X99295000Y-73280238D01*
X99256904Y-73204047D01*
X99256904Y-73051666D01*
X99295000Y-72975476D01*
X99333095Y-72937380D01*
X99409285Y-72899285D01*
X99447380Y-72899285D01*
X99523571Y-72937380D01*
X99561666Y-72975476D01*
X99599761Y-73051666D01*
X99599761Y-73204047D01*
X99637857Y-73280238D01*
X99675952Y-73318333D01*
X99752142Y-73356428D01*
X99904523Y-73356428D01*
X99980714Y-73318333D01*
X100018809Y-73280238D01*
X100056904Y-73204047D01*
X100056904Y-73051666D01*
X100018809Y-72975476D01*
X99980714Y-72937380D01*
X99904523Y-72899285D01*
X99752142Y-72899285D01*
X99675952Y-72937380D01*
X99637857Y-72975476D01*
X99599761Y-73051666D01*
X100056904Y-72556428D02*
X99256904Y-72556428D01*
X100056904Y-72099285D02*
X99599761Y-72442142D01*
X99256904Y-72099285D02*
X99714047Y-72556428D01*
X100056904Y-71337380D02*
X100056904Y-71794523D01*
X100056904Y-71565952D02*
X99256904Y-71565952D01*
X99371190Y-71642142D01*
X99447380Y-71718333D01*
X99485476Y-71794523D01*
D14*
X147180000Y-87545000D02*
X150000000Y-87545000D01*
X148590000Y-81925000D02*
X148590000Y-83065000D01*
X148590000Y-89525000D02*
X148590000Y-88385000D01*
X147180000Y-83065000D02*
X147180000Y-88385000D01*
X150000000Y-83065000D02*
X147180000Y-83065000D01*
X150000000Y-88385000D02*
X150000000Y-83065000D01*
X147180000Y-88385000D02*
X150000000Y-88385000D01*
X156210000Y-94615000D02*
X153670000Y-94615000D01*
X153670000Y-94615000D02*
X153670000Y-97285000D01*
X156210000Y-97285000D02*
X194440000Y-97285000D01*
X151000000Y-97285000D02*
X153670000Y-97285000D01*
X153670000Y-81915000D02*
X153670000Y-79245000D01*
X153670000Y-81915000D02*
X191770000Y-81915000D01*
X191770000Y-81915000D02*
X191770000Y-79245000D01*
X156210000Y-94615000D02*
X156210000Y-97285000D01*
X156210000Y-94615000D02*
X191770000Y-94615000D01*
X191770000Y-94615000D02*
X191770000Y-97285000D01*
X194440000Y-97285000D02*
X194440000Y-79245000D01*
X194440000Y-79245000D02*
X151000000Y-79245000D01*
X151000000Y-79245000D02*
X151000000Y-97285000D01*
X105320000Y-111165000D02*
X100500000Y-111165000D01*
X105320000Y-108545000D02*
X100500000Y-108545000D01*
X105320000Y-111165000D02*
X105320000Y-110851000D01*
X105320000Y-108859000D02*
X105320000Y-108545000D01*
X100500000Y-111165000D02*
X100500000Y-110851000D01*
X100500000Y-108859000D02*
X100500000Y-108545000D01*
X133260000Y-111165000D02*
X128440000Y-111165000D01*
X133260000Y-108545000D02*
X128440000Y-108545000D01*
X133260000Y-111165000D02*
X133260000Y-110851000D01*
X133260000Y-108859000D02*
X133260000Y-108545000D01*
X128440000Y-111165000D02*
X128440000Y-110851000D01*
X128440000Y-108859000D02*
X128440000Y-108545000D01*
X161200000Y-111165000D02*
X156380000Y-111165000D01*
X161200000Y-108545000D02*
X156380000Y-108545000D01*
X161200000Y-111165000D02*
X161200000Y-110851000D01*
X161200000Y-108859000D02*
X161200000Y-108545000D01*
X156380000Y-111165000D02*
X156380000Y-110851000D01*
X156380000Y-108859000D02*
X156380000Y-108545000D01*
X147230000Y-111165000D02*
X142410000Y-111165000D01*
X147230000Y-108545000D02*
X142410000Y-108545000D01*
X147230000Y-111165000D02*
X147230000Y-110851000D01*
X147230000Y-108859000D02*
X147230000Y-108545000D01*
X142410000Y-111165000D02*
X142410000Y-110851000D01*
X142410000Y-108859000D02*
X142410000Y-108545000D01*
X105450000Y-80735000D02*
X105450000Y-85555000D01*
X102830000Y-80735000D02*
X102830000Y-85555000D01*
X105450000Y-80735000D02*
X105136000Y-80735000D01*
X103144000Y-80735000D02*
X102830000Y-80735000D01*
X105450000Y-85555000D02*
X105136000Y-85555000D01*
X103144000Y-85555000D02*
X102830000Y-85555000D01*
X175170000Y-111165000D02*
X170350000Y-111165000D01*
X175170000Y-108545000D02*
X170350000Y-108545000D01*
X175170000Y-111165000D02*
X175170000Y-110851000D01*
X175170000Y-108859000D02*
X175170000Y-108545000D01*
X170350000Y-111165000D02*
X170350000Y-110851000D01*
X170350000Y-108859000D02*
X170350000Y-108545000D01*
X189140000Y-111165000D02*
X184320000Y-111165000D01*
X189140000Y-108545000D02*
X184320000Y-108545000D01*
X189140000Y-111165000D02*
X189140000Y-110851000D01*
X189140000Y-108859000D02*
X189140000Y-108545000D01*
X184320000Y-111165000D02*
X184320000Y-110851000D01*
X184320000Y-108859000D02*
X184320000Y-108545000D01*
X119290000Y-111165000D02*
X114470000Y-111165000D01*
X119290000Y-108545000D02*
X114470000Y-108545000D01*
X119290000Y-111165000D02*
X119290000Y-110851000D01*
X119290000Y-108859000D02*
X119290000Y-108545000D01*
X114470000Y-111165000D02*
X114470000Y-110851000D01*
X114470000Y-108859000D02*
X114470000Y-108545000D01*
X194370000Y-148760000D02*
X95190000Y-148760000D01*
X95190000Y-148760000D02*
X95190000Y-151420000D01*
X95190000Y-151420000D02*
X194370000Y-151420000D01*
X194370000Y-151420000D02*
X194370000Y-148760000D01*
X193420000Y-151420000D02*
X193420000Y-157420000D01*
X193420000Y-157420000D02*
X192660000Y-157420000D01*
X192660000Y-157420000D02*
X192660000Y-151420000D01*
X193360000Y-151420000D02*
X193360000Y-157420000D01*
X193240000Y-151420000D02*
X193240000Y-157420000D01*
X193120000Y-151420000D02*
X193120000Y-157420000D01*
X193000000Y-151420000D02*
X193000000Y-157420000D01*
X192880000Y-151420000D02*
X192880000Y-157420000D01*
X192760000Y-151420000D02*
X192760000Y-157420000D01*
X193420000Y-148430000D02*
X193420000Y-148760000D01*
X192660000Y-148430000D02*
X192660000Y-148760000D01*
X191770000Y-148760000D02*
X191770000Y-151420000D01*
X190880000Y-151420000D02*
X190880000Y-157420000D01*
X190880000Y-157420000D02*
X190120000Y-157420000D01*
X190120000Y-157420000D02*
X190120000Y-151420000D01*
X190880000Y-148362929D02*
X190880000Y-148760000D01*
X190120000Y-148362929D02*
X190120000Y-148760000D01*
X189230000Y-148760000D02*
X189230000Y-151420000D01*
X188340000Y-151420000D02*
X188340000Y-157420000D01*
X188340000Y-157420000D02*
X187580000Y-157420000D01*
X187580000Y-157420000D02*
X187580000Y-151420000D01*
X188340000Y-148362929D02*
X188340000Y-148760000D01*
X187580000Y-148362929D02*
X187580000Y-148760000D01*
X186690000Y-148760000D02*
X186690000Y-151420000D01*
X185800000Y-151420000D02*
X185800000Y-157420000D01*
X185800000Y-157420000D02*
X185040000Y-157420000D01*
X185040000Y-157420000D02*
X185040000Y-151420000D01*
X185800000Y-148362929D02*
X185800000Y-148760000D01*
X185040000Y-148362929D02*
X185040000Y-148760000D01*
X184150000Y-148760000D02*
X184150000Y-151420000D01*
X183260000Y-151420000D02*
X183260000Y-157420000D01*
X183260000Y-157420000D02*
X182500000Y-157420000D01*
X182500000Y-157420000D02*
X182500000Y-151420000D01*
X183260000Y-148362929D02*
X183260000Y-148760000D01*
X182500000Y-148362929D02*
X182500000Y-148760000D01*
X181610000Y-148760000D02*
X181610000Y-151420000D01*
X180720000Y-151420000D02*
X180720000Y-157420000D01*
X180720000Y-157420000D02*
X179960000Y-157420000D01*
X179960000Y-157420000D02*
X179960000Y-151420000D01*
X180720000Y-148362929D02*
X180720000Y-148760000D01*
X179960000Y-148362929D02*
X179960000Y-148760000D01*
X179070000Y-148760000D02*
X179070000Y-151420000D01*
X178180000Y-151420000D02*
X178180000Y-157420000D01*
X178180000Y-157420000D02*
X177420000Y-157420000D01*
X177420000Y-157420000D02*
X177420000Y-151420000D01*
X178180000Y-148362929D02*
X178180000Y-148760000D01*
X177420000Y-148362929D02*
X177420000Y-148760000D01*
X176530000Y-148760000D02*
X176530000Y-151420000D01*
X175640000Y-151420000D02*
X175640000Y-157420000D01*
X175640000Y-157420000D02*
X174880000Y-157420000D01*
X174880000Y-157420000D02*
X174880000Y-151420000D01*
X175640000Y-148362929D02*
X175640000Y-148760000D01*
X174880000Y-148362929D02*
X174880000Y-148760000D01*
X173990000Y-148760000D02*
X173990000Y-151420000D01*
X173100000Y-151420000D02*
X173100000Y-157420000D01*
X173100000Y-157420000D02*
X172340000Y-157420000D01*
X172340000Y-157420000D02*
X172340000Y-151420000D01*
X173100000Y-148362929D02*
X173100000Y-148760000D01*
X172340000Y-148362929D02*
X172340000Y-148760000D01*
X171450000Y-148760000D02*
X171450000Y-151420000D01*
X170560000Y-151420000D02*
X170560000Y-157420000D01*
X170560000Y-157420000D02*
X169800000Y-157420000D01*
X169800000Y-157420000D02*
X169800000Y-151420000D01*
X170560000Y-148362929D02*
X170560000Y-148760000D01*
X169800000Y-148362929D02*
X169800000Y-148760000D01*
X168910000Y-148760000D02*
X168910000Y-151420000D01*
X168020000Y-151420000D02*
X168020000Y-157420000D01*
X168020000Y-157420000D02*
X167260000Y-157420000D01*
X167260000Y-157420000D02*
X167260000Y-151420000D01*
X168020000Y-148362929D02*
X168020000Y-148760000D01*
X167260000Y-148362929D02*
X167260000Y-148760000D01*
X166370000Y-148760000D02*
X166370000Y-151420000D01*
X165480000Y-151420000D02*
X165480000Y-157420000D01*
X165480000Y-157420000D02*
X164720000Y-157420000D01*
X164720000Y-157420000D02*
X164720000Y-151420000D01*
X165480000Y-148362929D02*
X165480000Y-148760000D01*
X164720000Y-148362929D02*
X164720000Y-148760000D01*
X163830000Y-148760000D02*
X163830000Y-151420000D01*
X162940000Y-151420000D02*
X162940000Y-157420000D01*
X162940000Y-157420000D02*
X162180000Y-157420000D01*
X162180000Y-157420000D02*
X162180000Y-151420000D01*
X162940000Y-148362929D02*
X162940000Y-148760000D01*
X162180000Y-148362929D02*
X162180000Y-148760000D01*
X161290000Y-148760000D02*
X161290000Y-151420000D01*
X160400000Y-151420000D02*
X160400000Y-157420000D01*
X160400000Y-157420000D02*
X159640000Y-157420000D01*
X159640000Y-157420000D02*
X159640000Y-151420000D01*
X160400000Y-148362929D02*
X160400000Y-148760000D01*
X159640000Y-148362929D02*
X159640000Y-148760000D01*
X158750000Y-148760000D02*
X158750000Y-151420000D01*
X157860000Y-151420000D02*
X157860000Y-157420000D01*
X157860000Y-157420000D02*
X157100000Y-157420000D01*
X157100000Y-157420000D02*
X157100000Y-151420000D01*
X157860000Y-148362929D02*
X157860000Y-148760000D01*
X157100000Y-148362929D02*
X157100000Y-148760000D01*
X156210000Y-148760000D02*
X156210000Y-151420000D01*
X155320000Y-151420000D02*
X155320000Y-157420000D01*
X155320000Y-157420000D02*
X154560000Y-157420000D01*
X154560000Y-157420000D02*
X154560000Y-151420000D01*
X155320000Y-148362929D02*
X155320000Y-148760000D01*
X154560000Y-148362929D02*
X154560000Y-148760000D01*
X153670000Y-148760000D02*
X153670000Y-151420000D01*
X152780000Y-151420000D02*
X152780000Y-157420000D01*
X152780000Y-157420000D02*
X152020000Y-157420000D01*
X152020000Y-157420000D02*
X152020000Y-151420000D01*
X152780000Y-148362929D02*
X152780000Y-148760000D01*
X152020000Y-148362929D02*
X152020000Y-148760000D01*
X151130000Y-148760000D02*
X151130000Y-151420000D01*
X150240000Y-151420000D02*
X150240000Y-157420000D01*
X150240000Y-157420000D02*
X149480000Y-157420000D01*
X149480000Y-157420000D02*
X149480000Y-151420000D01*
X150240000Y-148362929D02*
X150240000Y-148760000D01*
X149480000Y-148362929D02*
X149480000Y-148760000D01*
X148590000Y-148760000D02*
X148590000Y-151420000D01*
X147700000Y-151420000D02*
X147700000Y-157420000D01*
X147700000Y-157420000D02*
X146940000Y-157420000D01*
X146940000Y-157420000D02*
X146940000Y-151420000D01*
X147700000Y-148362929D02*
X147700000Y-148760000D01*
X146940000Y-148362929D02*
X146940000Y-148760000D01*
X146050000Y-148760000D02*
X146050000Y-151420000D01*
X145160000Y-151420000D02*
X145160000Y-157420000D01*
X145160000Y-157420000D02*
X144400000Y-157420000D01*
X144400000Y-157420000D02*
X144400000Y-151420000D01*
X145160000Y-148362929D02*
X145160000Y-148760000D01*
X144400000Y-148362929D02*
X144400000Y-148760000D01*
X143510000Y-148760000D02*
X143510000Y-151420000D01*
X142620000Y-151420000D02*
X142620000Y-157420000D01*
X142620000Y-157420000D02*
X141860000Y-157420000D01*
X141860000Y-157420000D02*
X141860000Y-151420000D01*
X142620000Y-148362929D02*
X142620000Y-148760000D01*
X141860000Y-148362929D02*
X141860000Y-148760000D01*
X140970000Y-148760000D02*
X140970000Y-151420000D01*
X140080000Y-151420000D02*
X140080000Y-157420000D01*
X140080000Y-157420000D02*
X139320000Y-157420000D01*
X139320000Y-157420000D02*
X139320000Y-151420000D01*
X140080000Y-148362929D02*
X140080000Y-148760000D01*
X139320000Y-148362929D02*
X139320000Y-148760000D01*
X138430000Y-148760000D02*
X138430000Y-151420000D01*
X137540000Y-151420000D02*
X137540000Y-157420000D01*
X137540000Y-157420000D02*
X136780000Y-157420000D01*
X136780000Y-157420000D02*
X136780000Y-151420000D01*
X137540000Y-148362929D02*
X137540000Y-148760000D01*
X136780000Y-148362929D02*
X136780000Y-148760000D01*
X135890000Y-148760000D02*
X135890000Y-151420000D01*
X135000000Y-151420000D02*
X135000000Y-157420000D01*
X135000000Y-157420000D02*
X134240000Y-157420000D01*
X134240000Y-157420000D02*
X134240000Y-151420000D01*
X135000000Y-148362929D02*
X135000000Y-148760000D01*
X134240000Y-148362929D02*
X134240000Y-148760000D01*
X133350000Y-148760000D02*
X133350000Y-151420000D01*
X132460000Y-151420000D02*
X132460000Y-157420000D01*
X132460000Y-157420000D02*
X131700000Y-157420000D01*
X131700000Y-157420000D02*
X131700000Y-151420000D01*
X132460000Y-148362929D02*
X132460000Y-148760000D01*
X131700000Y-148362929D02*
X131700000Y-148760000D01*
X130810000Y-148760000D02*
X130810000Y-151420000D01*
X129920000Y-151420000D02*
X129920000Y-157420000D01*
X129920000Y-157420000D02*
X129160000Y-157420000D01*
X129160000Y-157420000D02*
X129160000Y-151420000D01*
X129920000Y-148362929D02*
X129920000Y-148760000D01*
X129160000Y-148362929D02*
X129160000Y-148760000D01*
X128270000Y-148760000D02*
X128270000Y-151420000D01*
X127380000Y-151420000D02*
X127380000Y-157420000D01*
X127380000Y-157420000D02*
X126620000Y-157420000D01*
X126620000Y-157420000D02*
X126620000Y-151420000D01*
X127380000Y-148362929D02*
X127380000Y-148760000D01*
X126620000Y-148362929D02*
X126620000Y-148760000D01*
X125730000Y-148760000D02*
X125730000Y-151420000D01*
X124840000Y-151420000D02*
X124840000Y-157420000D01*
X124840000Y-157420000D02*
X124080000Y-157420000D01*
X124080000Y-157420000D02*
X124080000Y-151420000D01*
X124840000Y-148362929D02*
X124840000Y-148760000D01*
X124080000Y-148362929D02*
X124080000Y-148760000D01*
X123190000Y-148760000D02*
X123190000Y-151420000D01*
X122300000Y-151420000D02*
X122300000Y-157420000D01*
X122300000Y-157420000D02*
X121540000Y-157420000D01*
X121540000Y-157420000D02*
X121540000Y-151420000D01*
X122300000Y-148362929D02*
X122300000Y-148760000D01*
X121540000Y-148362929D02*
X121540000Y-148760000D01*
X120650000Y-148760000D02*
X120650000Y-151420000D01*
X119760000Y-151420000D02*
X119760000Y-157420000D01*
X119760000Y-157420000D02*
X119000000Y-157420000D01*
X119000000Y-157420000D02*
X119000000Y-151420000D01*
X119760000Y-148362929D02*
X119760000Y-148760000D01*
X119000000Y-148362929D02*
X119000000Y-148760000D01*
X118110000Y-148760000D02*
X118110000Y-151420000D01*
X117220000Y-151420000D02*
X117220000Y-157420000D01*
X117220000Y-157420000D02*
X116460000Y-157420000D01*
X116460000Y-157420000D02*
X116460000Y-151420000D01*
X117220000Y-148362929D02*
X117220000Y-148760000D01*
X116460000Y-148362929D02*
X116460000Y-148760000D01*
X115570000Y-148760000D02*
X115570000Y-151420000D01*
X114680000Y-151420000D02*
X114680000Y-157420000D01*
X114680000Y-157420000D02*
X113920000Y-157420000D01*
X113920000Y-157420000D02*
X113920000Y-151420000D01*
X114680000Y-148362929D02*
X114680000Y-148760000D01*
X113920000Y-148362929D02*
X113920000Y-148760000D01*
X113030000Y-148760000D02*
X113030000Y-151420000D01*
X112140000Y-151420000D02*
X112140000Y-157420000D01*
X112140000Y-157420000D02*
X111380000Y-157420000D01*
X111380000Y-157420000D02*
X111380000Y-151420000D01*
X112140000Y-148362929D02*
X112140000Y-148760000D01*
X111380000Y-148362929D02*
X111380000Y-148760000D01*
X110490000Y-148760000D02*
X110490000Y-151420000D01*
X109600000Y-151420000D02*
X109600000Y-157420000D01*
X109600000Y-157420000D02*
X108840000Y-157420000D01*
X108840000Y-157420000D02*
X108840000Y-151420000D01*
X109600000Y-148362929D02*
X109600000Y-148760000D01*
X108840000Y-148362929D02*
X108840000Y-148760000D01*
X107950000Y-148760000D02*
X107950000Y-151420000D01*
X107060000Y-151420000D02*
X107060000Y-157420000D01*
X107060000Y-157420000D02*
X106300000Y-157420000D01*
X106300000Y-157420000D02*
X106300000Y-151420000D01*
X107060000Y-148362929D02*
X107060000Y-148760000D01*
X106300000Y-148362929D02*
X106300000Y-148760000D01*
X105410000Y-148760000D02*
X105410000Y-151420000D01*
X104520000Y-151420000D02*
X104520000Y-157420000D01*
X104520000Y-157420000D02*
X103760000Y-157420000D01*
X103760000Y-157420000D02*
X103760000Y-151420000D01*
X104520000Y-148362929D02*
X104520000Y-148760000D01*
X103760000Y-148362929D02*
X103760000Y-148760000D01*
X102870000Y-148760000D02*
X102870000Y-151420000D01*
X101980000Y-151420000D02*
X101980000Y-157420000D01*
X101980000Y-157420000D02*
X101220000Y-157420000D01*
X101220000Y-157420000D02*
X101220000Y-151420000D01*
X101980000Y-148362929D02*
X101980000Y-148760000D01*
X101220000Y-148362929D02*
X101220000Y-148760000D01*
X100330000Y-148760000D02*
X100330000Y-151420000D01*
X99440000Y-151420000D02*
X99440000Y-157420000D01*
X99440000Y-157420000D02*
X98680000Y-157420000D01*
X98680000Y-157420000D02*
X98680000Y-151420000D01*
X99440000Y-148362929D02*
X99440000Y-148760000D01*
X98680000Y-148362929D02*
X98680000Y-148760000D01*
X97790000Y-148760000D02*
X97790000Y-151420000D01*
X96900000Y-151420000D02*
X96900000Y-157420000D01*
X96900000Y-157420000D02*
X96140000Y-157420000D01*
X96140000Y-157420000D02*
X96140000Y-151420000D01*
X96900000Y-148362929D02*
X96900000Y-148760000D01*
X96140000Y-148362929D02*
X96140000Y-148760000D01*
X193040000Y-146050000D02*
X194310000Y-146050000D01*
X194310000Y-146050000D02*
X194310000Y-147320000D01*
X103870000Y-112335000D02*
G75*
G02X101870000Y-112335000I-1000000J0D01*
G01*
X101870000Y-112335000D02*
X100220000Y-112335000D01*
X100220000Y-112335000D02*
X100220000Y-132775000D01*
X100220000Y-132775000D02*
X105520000Y-132775000D01*
X105520000Y-132775000D02*
X105520000Y-112335000D01*
X105520000Y-112335000D02*
X103870000Y-112335000D01*
X97730000Y-112275000D02*
X97730000Y-132835000D01*
X97730000Y-132835000D02*
X108010000Y-132835000D01*
X108010000Y-132835000D02*
X108010000Y-112275000D01*
X108010000Y-112275000D02*
X97730000Y-112275000D01*
X186690462Y-64955000D02*
G75*
G03X185145170Y-70505000I-462J-2990000D01*
G01*
X186689538Y-64955000D02*
G75*
G02X188234830Y-70505000I462J-2990000D01*
G01*
X189190000Y-67945000D02*
G75*
G03X189190000Y-67945000I-2500000J0D01*
G01*
X185145000Y-70505000D02*
X188235000Y-70505000D01*
X178435462Y-64955000D02*
G75*
G03X176890170Y-70505000I-462J-2990000D01*
G01*
X178434538Y-64955000D02*
G75*
G02X179979830Y-70505000I462J-2990000D01*
G01*
X180935000Y-67945000D02*
G75*
G03X180935000Y-67945000I-2500000J0D01*
G01*
X176890000Y-70505000D02*
X179980000Y-70505000D01*
X170180462Y-64955000D02*
G75*
G03X168635170Y-70505000I-462J-2990000D01*
G01*
X170179538Y-64955000D02*
G75*
G02X171724830Y-70505000I462J-2990000D01*
G01*
X172680000Y-67945000D02*
G75*
G03X172680000Y-67945000I-2500000J0D01*
G01*
X168635000Y-70505000D02*
X171725000Y-70505000D01*
X156000000Y-86205000D02*
X153880000Y-86205000D01*
X153880000Y-86205000D02*
X153880000Y-90325000D01*
X153880000Y-90325000D02*
X156000000Y-90325000D01*
X156000000Y-90325000D02*
X156000000Y-86205000D01*
X154940000Y-85435000D02*
X154940000Y-86205000D01*
X154940000Y-91095000D02*
X154940000Y-90325000D01*
X156000000Y-86865000D02*
X153880000Y-86865000D01*
X121345000Y-70545000D02*
X121345000Y-65345000D01*
X100965000Y-70545000D02*
X121345000Y-70545000D01*
X98365000Y-65345000D02*
X121345000Y-65345000D01*
X100965000Y-70545000D02*
X100965000Y-67945000D01*
X100965000Y-67945000D02*
X98365000Y-67945000D01*
X98365000Y-67945000D02*
X98365000Y-65345000D01*
X99695000Y-70545000D02*
X98365000Y-70545000D01*
X98365000Y-70545000D02*
X98365000Y-69215000D01*
X137100000Y-70545000D02*
X139760000Y-70545000D01*
X137100000Y-67945000D02*
X137100000Y-70545000D01*
X139760000Y-67945000D02*
X139760000Y-70545000D01*
X137100000Y-67945000D02*
X139760000Y-67945000D01*
X137100000Y-66675000D02*
X137100000Y-65345000D01*
X137100000Y-65345000D02*
X138430000Y-65345000D01*
X126940000Y-73085000D02*
X129600000Y-73085000D01*
X126940000Y-67945000D02*
X126940000Y-73085000D01*
X129600000Y-67945000D02*
X129600000Y-73085000D01*
X126940000Y-67945000D02*
X129600000Y-67945000D01*
X126940000Y-66675000D02*
X126940000Y-65345000D01*
X126940000Y-65345000D02*
X128270000Y-65345000D01*
X182280000Y-91480000D02*
X182280000Y-88860000D01*
X182280000Y-88860000D02*
X175860000Y-88860000D01*
X175860000Y-88860000D02*
X175860000Y-91480000D01*
X175860000Y-91480000D02*
X182280000Y-91480000D01*
X183170000Y-90170000D02*
X182280000Y-90170000D01*
X174970000Y-90170000D02*
X175860000Y-90170000D01*
X182280000Y-87670000D02*
X182280000Y-85050000D01*
X182280000Y-85050000D02*
X175860000Y-85050000D01*
X175860000Y-85050000D02*
X175860000Y-87670000D01*
X175860000Y-87670000D02*
X182280000Y-87670000D01*
X183170000Y-86360000D02*
X182280000Y-86360000D01*
X174970000Y-86360000D02*
X175860000Y-86360000D01*
X168310000Y-87670000D02*
X168310000Y-85050000D01*
X168310000Y-85050000D02*
X161890000Y-85050000D01*
X161890000Y-85050000D02*
X161890000Y-87670000D01*
X161890000Y-87670000D02*
X168310000Y-87670000D01*
X169200000Y-86360000D02*
X168310000Y-86360000D01*
X161000000Y-86360000D02*
X161890000Y-86360000D01*
X168310000Y-91480000D02*
X168310000Y-88860000D01*
X168310000Y-88860000D02*
X161890000Y-88860000D01*
X161890000Y-88860000D02*
X161890000Y-91480000D01*
X161890000Y-91480000D02*
X168310000Y-91480000D01*
X169200000Y-90170000D02*
X168310000Y-90170000D01*
X161000000Y-90170000D02*
X161890000Y-90170000D01*
X131810000Y-112335000D02*
G75*
G02X129810000Y-112335000I-1000000J0D01*
G01*
X129810000Y-112335000D02*
X128160000Y-112335000D01*
X128160000Y-112335000D02*
X128160000Y-130235000D01*
X128160000Y-130235000D02*
X133460000Y-130235000D01*
X133460000Y-130235000D02*
X133460000Y-112335000D01*
X133460000Y-112335000D02*
X131810000Y-112335000D01*
X125670000Y-112275000D02*
X125670000Y-130295000D01*
X125670000Y-130295000D02*
X135950000Y-130295000D01*
X135950000Y-130295000D02*
X135950000Y-112275000D01*
X135950000Y-112275000D02*
X125670000Y-112275000D01*
X159750000Y-112335000D02*
G75*
G02X157750000Y-112335000I-1000000J0D01*
G01*
X157750000Y-112335000D02*
X156100000Y-112335000D01*
X156100000Y-112335000D02*
X156100000Y-132775000D01*
X156100000Y-132775000D02*
X161400000Y-132775000D01*
X161400000Y-132775000D02*
X161400000Y-112335000D01*
X161400000Y-112335000D02*
X159750000Y-112335000D01*
X153610000Y-112275000D02*
X153610000Y-132835000D01*
X153610000Y-132835000D02*
X163890000Y-132835000D01*
X163890000Y-132835000D02*
X163890000Y-112275000D01*
X163890000Y-112275000D02*
X153610000Y-112275000D01*
X145780000Y-112335000D02*
G75*
G02X143780000Y-112335000I-1000000J0D01*
G01*
X143780000Y-112335000D02*
X142130000Y-112335000D01*
X142130000Y-112335000D02*
X142130000Y-132775000D01*
X142130000Y-132775000D02*
X147430000Y-132775000D01*
X147430000Y-132775000D02*
X147430000Y-112335000D01*
X147430000Y-112335000D02*
X145780000Y-112335000D01*
X139640000Y-112275000D02*
X139640000Y-132835000D01*
X139640000Y-132835000D02*
X149920000Y-132835000D01*
X149920000Y-132835000D02*
X149920000Y-112275000D01*
X149920000Y-112275000D02*
X139640000Y-112275000D01*
X106620000Y-87265000D02*
G75*
G02X106620000Y-89265000I0J-1000000D01*
G01*
X106620000Y-89265000D02*
X106620000Y-94725000D01*
X106620000Y-94725000D02*
X142300000Y-94725000D01*
X142300000Y-94725000D02*
X142300000Y-81805000D01*
X142300000Y-81805000D02*
X106620000Y-81805000D01*
X106620000Y-81805000D02*
X106620000Y-87265000D01*
X106560000Y-97215000D02*
X142360000Y-97215000D01*
X142360000Y-97215000D02*
X142360000Y-79315000D01*
X142360000Y-79315000D02*
X106560000Y-79315000D01*
X106560000Y-79315000D02*
X106560000Y-97215000D01*
X173720000Y-112335000D02*
G75*
G02X171720000Y-112335000I-1000000J0D01*
G01*
X171720000Y-112335000D02*
X170070000Y-112335000D01*
X170070000Y-112335000D02*
X170070000Y-137855000D01*
X170070000Y-137855000D02*
X175370000Y-137855000D01*
X175370000Y-137855000D02*
X175370000Y-112335000D01*
X175370000Y-112335000D02*
X173720000Y-112335000D01*
X167580000Y-112275000D02*
X167580000Y-137915000D01*
X167580000Y-137915000D02*
X177860000Y-137915000D01*
X177860000Y-137915000D02*
X177860000Y-112275000D01*
X177860000Y-112275000D02*
X167580000Y-112275000D01*
X187690000Y-112335000D02*
G75*
G02X185690000Y-112335000I-1000000J0D01*
G01*
X185690000Y-112335000D02*
X184040000Y-112335000D01*
X184040000Y-112335000D02*
X184040000Y-137855000D01*
X184040000Y-137855000D02*
X189340000Y-137855000D01*
X189340000Y-137855000D02*
X189340000Y-112335000D01*
X189340000Y-112335000D02*
X187690000Y-112335000D01*
X181550000Y-112275000D02*
X181550000Y-137915000D01*
X181550000Y-137915000D02*
X191830000Y-137915000D01*
X191830000Y-137915000D02*
X191830000Y-112275000D01*
X191830000Y-112275000D02*
X181550000Y-112275000D01*
X117840000Y-112335000D02*
G75*
G02X115840000Y-112335000I-1000000J0D01*
G01*
X115840000Y-112335000D02*
X114190000Y-112335000D01*
X114190000Y-112335000D02*
X114190000Y-137855000D01*
X114190000Y-137855000D02*
X119490000Y-137855000D01*
X119490000Y-137855000D02*
X119490000Y-112335000D01*
X119490000Y-112335000D02*
X117840000Y-112335000D01*
X111700000Y-112275000D02*
X111700000Y-137915000D01*
X111700000Y-137915000D02*
X121980000Y-137915000D01*
X121980000Y-137915000D02*
X121980000Y-112275000D01*
X121980000Y-112275000D02*
X111700000Y-112275000D01*
X130140000Y-88860000D02*
X130140000Y-91480000D01*
X130140000Y-91480000D02*
X136560000Y-91480000D01*
X136560000Y-91480000D02*
X136560000Y-88860000D01*
X136560000Y-88860000D02*
X130140000Y-88860000D01*
X129250000Y-90170000D02*
X130140000Y-90170000D01*
X137450000Y-90170000D02*
X136560000Y-90170000D01*
X130140000Y-85050000D02*
X130140000Y-87670000D01*
X130140000Y-87670000D02*
X136560000Y-87670000D01*
X136560000Y-87670000D02*
X136560000Y-85050000D01*
X136560000Y-85050000D02*
X130140000Y-85050000D01*
X129250000Y-86360000D02*
X130140000Y-86360000D01*
X137450000Y-86360000D02*
X136560000Y-86360000D01*
X117440000Y-85050000D02*
X117440000Y-87670000D01*
X117440000Y-87670000D02*
X123860000Y-87670000D01*
X123860000Y-87670000D02*
X123860000Y-85050000D01*
X123860000Y-85050000D02*
X117440000Y-85050000D01*
X116550000Y-86360000D02*
X117440000Y-86360000D01*
X124750000Y-86360000D02*
X123860000Y-86360000D01*
X143370000Y-88385000D02*
X146190000Y-88385000D01*
X146190000Y-88385000D02*
X146190000Y-83065000D01*
X146190000Y-83065000D02*
X143370000Y-83065000D01*
X143370000Y-83065000D02*
X143370000Y-88385000D01*
X144780000Y-89525000D02*
X144780000Y-88385000D01*
X144780000Y-81925000D02*
X144780000Y-83065000D01*
X143370000Y-87545000D02*
X146190000Y-87545000D01*
D10*
X148407380Y-86463095D02*
X147407380Y-86463095D01*
X147407380Y-86225000D01*
X147455000Y-86082142D01*
X147550238Y-85986904D01*
X147645476Y-85939285D01*
X147835952Y-85891666D01*
X147978809Y-85891666D01*
X148169285Y-85939285D01*
X148264523Y-85986904D01*
X148359761Y-86082142D01*
X148407380Y-86225000D01*
X148407380Y-86463095D01*
X147407380Y-85034523D02*
X147407380Y-85225000D01*
X147455000Y-85320238D01*
X147502619Y-85367857D01*
X147645476Y-85463095D01*
X147835952Y-85510714D01*
X148216904Y-85510714D01*
X148312142Y-85463095D01*
X148359761Y-85415476D01*
X148407380Y-85320238D01*
X148407380Y-85129761D01*
X148359761Y-85034523D01*
X148312142Y-84986904D01*
X148216904Y-84939285D01*
X147978809Y-84939285D01*
X147883571Y-84986904D01*
X147835952Y-85034523D01*
X147788333Y-85129761D01*
X147788333Y-85320238D01*
X147835952Y-85415476D01*
X147883571Y-85463095D01*
X147978809Y-85510714D01*
D13*
X149586904Y-87439285D02*
X149586904Y-87896428D01*
X149586904Y-87667857D02*
X148786904Y-87667857D01*
X148901190Y-87744047D01*
X148977380Y-87820238D01*
X149015476Y-87896428D01*
X149586904Y-87096428D02*
X148786904Y-87096428D01*
X149586904Y-86639285D01*
X148786904Y-86639285D01*
X149053571Y-85915476D02*
X149586904Y-85915476D01*
X148748809Y-86105952D02*
X149320238Y-86296428D01*
X149320238Y-85801190D01*
X148786904Y-85344047D02*
X148786904Y-85267857D01*
X148825000Y-85191666D01*
X148863095Y-85153571D01*
X148939285Y-85115476D01*
X149091666Y-85077380D01*
X149282142Y-85077380D01*
X149434523Y-85115476D01*
X149510714Y-85153571D01*
X149548809Y-85191666D01*
X149586904Y-85267857D01*
X149586904Y-85344047D01*
X149548809Y-85420238D01*
X149510714Y-85458333D01*
X149434523Y-85496428D01*
X149282142Y-85534523D01*
X149091666Y-85534523D01*
X148939285Y-85496428D01*
X148863095Y-85458333D01*
X148825000Y-85420238D01*
X148786904Y-85344047D01*
X148786904Y-84582142D02*
X148786904Y-84505952D01*
X148825000Y-84429761D01*
X148863095Y-84391666D01*
X148939285Y-84353571D01*
X149091666Y-84315476D01*
X149282142Y-84315476D01*
X149434523Y-84353571D01*
X149510714Y-84391666D01*
X149548809Y-84429761D01*
X149586904Y-84505952D01*
X149586904Y-84582142D01*
X149548809Y-84658333D01*
X149510714Y-84696428D01*
X149434523Y-84734523D01*
X149282142Y-84772619D01*
X149091666Y-84772619D01*
X148939285Y-84734523D01*
X148863095Y-84696428D01*
X148825000Y-84658333D01*
X148786904Y-84582142D01*
X149586904Y-83553571D02*
X149586904Y-84010714D01*
X149586904Y-83782142D02*
X148786904Y-83782142D01*
X148901190Y-83858333D01*
X148977380Y-83934523D01*
X149015476Y-84010714D01*
D10*
X192325714Y-80811666D02*
X192801904Y-80811666D01*
X192230476Y-81097380D02*
X192563809Y-80097380D01*
X192897142Y-81097380D01*
X193754285Y-81097380D02*
X193182857Y-81097380D01*
X193468571Y-81097380D02*
X193468571Y-80097380D01*
X193373333Y-80240238D01*
X193278095Y-80335476D01*
X193182857Y-80383095D01*
X102703333Y-110212142D02*
X102655714Y-110259761D01*
X102512857Y-110307380D01*
X102417619Y-110307380D01*
X102274761Y-110259761D01*
X102179523Y-110164523D01*
X102131904Y-110069285D01*
X102084285Y-109878809D01*
X102084285Y-109735952D01*
X102131904Y-109545476D01*
X102179523Y-109450238D01*
X102274761Y-109355000D01*
X102417619Y-109307380D01*
X102512857Y-109307380D01*
X102655714Y-109355000D01*
X102703333Y-109402619D01*
X103655714Y-110307380D02*
X103084285Y-110307380D01*
X103370000Y-110307380D02*
X103370000Y-109307380D01*
X103274761Y-109450238D01*
X103179523Y-109545476D01*
X103084285Y-109593095D01*
X130643333Y-110212142D02*
X130595714Y-110259761D01*
X130452857Y-110307380D01*
X130357619Y-110307380D01*
X130214761Y-110259761D01*
X130119523Y-110164523D01*
X130071904Y-110069285D01*
X130024285Y-109878809D01*
X130024285Y-109735952D01*
X130071904Y-109545476D01*
X130119523Y-109450238D01*
X130214761Y-109355000D01*
X130357619Y-109307380D01*
X130452857Y-109307380D01*
X130595714Y-109355000D01*
X130643333Y-109402619D01*
X131024285Y-109402619D02*
X131071904Y-109355000D01*
X131167142Y-109307380D01*
X131405238Y-109307380D01*
X131500476Y-109355000D01*
X131548095Y-109402619D01*
X131595714Y-109497857D01*
X131595714Y-109593095D01*
X131548095Y-109735952D01*
X130976666Y-110307380D01*
X131595714Y-110307380D01*
X158583333Y-110212142D02*
X158535714Y-110259761D01*
X158392857Y-110307380D01*
X158297619Y-110307380D01*
X158154761Y-110259761D01*
X158059523Y-110164523D01*
X158011904Y-110069285D01*
X157964285Y-109878809D01*
X157964285Y-109735952D01*
X158011904Y-109545476D01*
X158059523Y-109450238D01*
X158154761Y-109355000D01*
X158297619Y-109307380D01*
X158392857Y-109307380D01*
X158535714Y-109355000D01*
X158583333Y-109402619D01*
X158916666Y-109307380D02*
X159535714Y-109307380D01*
X159202380Y-109688333D01*
X159345238Y-109688333D01*
X159440476Y-109735952D01*
X159488095Y-109783571D01*
X159535714Y-109878809D01*
X159535714Y-110116904D01*
X159488095Y-110212142D01*
X159440476Y-110259761D01*
X159345238Y-110307380D01*
X159059523Y-110307380D01*
X158964285Y-110259761D01*
X158916666Y-110212142D01*
X144613333Y-110212142D02*
X144565714Y-110259761D01*
X144422857Y-110307380D01*
X144327619Y-110307380D01*
X144184761Y-110259761D01*
X144089523Y-110164523D01*
X144041904Y-110069285D01*
X143994285Y-109878809D01*
X143994285Y-109735952D01*
X144041904Y-109545476D01*
X144089523Y-109450238D01*
X144184761Y-109355000D01*
X144327619Y-109307380D01*
X144422857Y-109307380D01*
X144565714Y-109355000D01*
X144613333Y-109402619D01*
X145470476Y-109640714D02*
X145470476Y-110307380D01*
X145232380Y-109259761D02*
X144994285Y-109974047D01*
X145613333Y-109974047D01*
X104497142Y-83351666D02*
X104544761Y-83399285D01*
X104592380Y-83542142D01*
X104592380Y-83637380D01*
X104544761Y-83780238D01*
X104449523Y-83875476D01*
X104354285Y-83923095D01*
X104163809Y-83970714D01*
X104020952Y-83970714D01*
X103830476Y-83923095D01*
X103735238Y-83875476D01*
X103640000Y-83780238D01*
X103592380Y-83637380D01*
X103592380Y-83542142D01*
X103640000Y-83399285D01*
X103687619Y-83351666D01*
X103592380Y-82446904D02*
X103592380Y-82923095D01*
X104068571Y-82970714D01*
X104020952Y-82923095D01*
X103973333Y-82827857D01*
X103973333Y-82589761D01*
X104020952Y-82494523D01*
X104068571Y-82446904D01*
X104163809Y-82399285D01*
X104401904Y-82399285D01*
X104497142Y-82446904D01*
X104544761Y-82494523D01*
X104592380Y-82589761D01*
X104592380Y-82827857D01*
X104544761Y-82923095D01*
X104497142Y-82970714D01*
X172553333Y-110212142D02*
X172505714Y-110259761D01*
X172362857Y-110307380D01*
X172267619Y-110307380D01*
X172124761Y-110259761D01*
X172029523Y-110164523D01*
X171981904Y-110069285D01*
X171934285Y-109878809D01*
X171934285Y-109735952D01*
X171981904Y-109545476D01*
X172029523Y-109450238D01*
X172124761Y-109355000D01*
X172267619Y-109307380D01*
X172362857Y-109307380D01*
X172505714Y-109355000D01*
X172553333Y-109402619D01*
X173410476Y-109307380D02*
X173220000Y-109307380D01*
X173124761Y-109355000D01*
X173077142Y-109402619D01*
X172981904Y-109545476D01*
X172934285Y-109735952D01*
X172934285Y-110116904D01*
X172981904Y-110212142D01*
X173029523Y-110259761D01*
X173124761Y-110307380D01*
X173315238Y-110307380D01*
X173410476Y-110259761D01*
X173458095Y-110212142D01*
X173505714Y-110116904D01*
X173505714Y-109878809D01*
X173458095Y-109783571D01*
X173410476Y-109735952D01*
X173315238Y-109688333D01*
X173124761Y-109688333D01*
X173029523Y-109735952D01*
X172981904Y-109783571D01*
X172934285Y-109878809D01*
X186523333Y-110212142D02*
X186475714Y-110259761D01*
X186332857Y-110307380D01*
X186237619Y-110307380D01*
X186094761Y-110259761D01*
X185999523Y-110164523D01*
X185951904Y-110069285D01*
X185904285Y-109878809D01*
X185904285Y-109735952D01*
X185951904Y-109545476D01*
X185999523Y-109450238D01*
X186094761Y-109355000D01*
X186237619Y-109307380D01*
X186332857Y-109307380D01*
X186475714Y-109355000D01*
X186523333Y-109402619D01*
X186856666Y-109307380D02*
X187523333Y-109307380D01*
X187094761Y-110307380D01*
X116673333Y-110212142D02*
X116625714Y-110259761D01*
X116482857Y-110307380D01*
X116387619Y-110307380D01*
X116244761Y-110259761D01*
X116149523Y-110164523D01*
X116101904Y-110069285D01*
X116054285Y-109878809D01*
X116054285Y-109735952D01*
X116101904Y-109545476D01*
X116149523Y-109450238D01*
X116244761Y-109355000D01*
X116387619Y-109307380D01*
X116482857Y-109307380D01*
X116625714Y-109355000D01*
X116673333Y-109402619D01*
X117244761Y-109735952D02*
X117149523Y-109688333D01*
X117101904Y-109640714D01*
X117054285Y-109545476D01*
X117054285Y-109497857D01*
X117101904Y-109402619D01*
X117149523Y-109355000D01*
X117244761Y-109307380D01*
X117435238Y-109307380D01*
X117530476Y-109355000D01*
X117578095Y-109402619D01*
X117625714Y-109497857D01*
X117625714Y-109545476D01*
X117578095Y-109640714D01*
X117530476Y-109688333D01*
X117435238Y-109735952D01*
X117244761Y-109735952D01*
X117149523Y-109783571D01*
X117101904Y-109831190D01*
X117054285Y-109926428D01*
X117054285Y-110116904D01*
X117101904Y-110212142D01*
X117149523Y-110259761D01*
X117244761Y-110307380D01*
X117435238Y-110307380D01*
X117530476Y-110259761D01*
X117578095Y-110212142D01*
X117625714Y-110116904D01*
X117625714Y-109926428D01*
X117578095Y-109831190D01*
X117530476Y-109783571D01*
X117435238Y-109735952D01*
X194762380Y-152038333D02*
X195476666Y-152038333D01*
X195619523Y-152085952D01*
X195714761Y-152181190D01*
X195762380Y-152324047D01*
X195762380Y-152419285D01*
X195762380Y-151038333D02*
X195762380Y-151609761D01*
X195762380Y-151324047D02*
X194762380Y-151324047D01*
X194905238Y-151419285D01*
X195000476Y-151514523D01*
X195048095Y-151609761D01*
X102108095Y-115657380D02*
X102108095Y-116466904D01*
X102155714Y-116562142D01*
X102203333Y-116609761D01*
X102298571Y-116657380D01*
X102489047Y-116657380D01*
X102584285Y-116609761D01*
X102631904Y-116562142D01*
X102679523Y-116466904D01*
X102679523Y-115657380D01*
X103679523Y-116657380D02*
X103108095Y-116657380D01*
X103393809Y-116657380D02*
X103393809Y-115657380D01*
X103298571Y-115800238D01*
X103203333Y-115895476D01*
X103108095Y-115943095D01*
X102322380Y-124404047D02*
X102322380Y-123737380D01*
X103322380Y-124165952D01*
X102655714Y-122927857D02*
X103322380Y-122927857D01*
X102274761Y-123165952D02*
X102989047Y-123404047D01*
X102989047Y-122785000D01*
X103322380Y-121927857D02*
X103322380Y-122404047D01*
X102322380Y-122404047D01*
X103274761Y-121642142D02*
X103322380Y-121499285D01*
X103322380Y-121261190D01*
X103274761Y-121165952D01*
X103227142Y-121118333D01*
X103131904Y-121070714D01*
X103036666Y-121070714D01*
X102941428Y-121118333D01*
X102893809Y-121165952D01*
X102846190Y-121261190D01*
X102798571Y-121451666D01*
X102750952Y-121546904D01*
X102703333Y-121594523D01*
X102608095Y-121642142D01*
X102512857Y-121642142D01*
X102417619Y-121594523D01*
X102370000Y-121546904D01*
X102322380Y-121451666D01*
X102322380Y-121213571D01*
X102370000Y-121070714D01*
X103322380Y-120118333D02*
X103322380Y-120689761D01*
X103322380Y-120404047D02*
X102322380Y-120404047D01*
X102465238Y-120499285D01*
X102560476Y-120594523D01*
X102608095Y-120689761D01*
X102322380Y-119785000D02*
X102322380Y-119165952D01*
X102703333Y-119499285D01*
X102703333Y-119356428D01*
X102750952Y-119261190D01*
X102798571Y-119213571D01*
X102893809Y-119165952D01*
X103131904Y-119165952D01*
X103227142Y-119213571D01*
X103274761Y-119261190D01*
X103322380Y-119356428D01*
X103322380Y-119642142D01*
X103274761Y-119737380D01*
X103227142Y-119785000D01*
X102750952Y-118594523D02*
X102703333Y-118689761D01*
X102655714Y-118737380D01*
X102560476Y-118785000D01*
X102512857Y-118785000D01*
X102417619Y-118737380D01*
X102370000Y-118689761D01*
X102322380Y-118594523D01*
X102322380Y-118404047D01*
X102370000Y-118308809D01*
X102417619Y-118261190D01*
X102512857Y-118213571D01*
X102560476Y-118213571D01*
X102655714Y-118261190D01*
X102703333Y-118308809D01*
X102750952Y-118404047D01*
X102750952Y-118594523D01*
X102798571Y-118689761D01*
X102846190Y-118737380D01*
X102941428Y-118785000D01*
X103131904Y-118785000D01*
X103227142Y-118737380D01*
X103274761Y-118689761D01*
X103322380Y-118594523D01*
X103322380Y-118404047D01*
X103274761Y-118308809D01*
X103227142Y-118261190D01*
X103131904Y-118213571D01*
X102941428Y-118213571D01*
X102846190Y-118261190D01*
X102798571Y-118308809D01*
X102750952Y-118404047D01*
X155392380Y-89003095D02*
X154392380Y-89003095D01*
X154392380Y-88765000D01*
X154440000Y-88622142D01*
X154535238Y-88526904D01*
X154630476Y-88479285D01*
X154820952Y-88431666D01*
X154963809Y-88431666D01*
X155154285Y-88479285D01*
X155249523Y-88526904D01*
X155344761Y-88622142D01*
X155392380Y-88765000D01*
X155392380Y-89003095D01*
X154725714Y-87574523D02*
X155392380Y-87574523D01*
X154344761Y-87812619D02*
X155059047Y-88050714D01*
X155059047Y-87431666D01*
D13*
X157206904Y-89541190D02*
X157206904Y-89998333D01*
X157206904Y-89769761D02*
X156406904Y-89769761D01*
X156521190Y-89845952D01*
X156597380Y-89922142D01*
X156635476Y-89998333D01*
X156673571Y-89198333D02*
X157206904Y-89198333D01*
X156749761Y-89198333D02*
X156711666Y-89160238D01*
X156673571Y-89084047D01*
X156673571Y-88969761D01*
X156711666Y-88893571D01*
X156787857Y-88855476D01*
X157206904Y-88855476D01*
X157206904Y-88436428D02*
X157206904Y-88284047D01*
X157168809Y-88207857D01*
X157130714Y-88169761D01*
X157016428Y-88093571D01*
X156864047Y-88055476D01*
X156559285Y-88055476D01*
X156483095Y-88093571D01*
X156445000Y-88131666D01*
X156406904Y-88207857D01*
X156406904Y-88360238D01*
X156445000Y-88436428D01*
X156483095Y-88474523D01*
X156559285Y-88512619D01*
X156749761Y-88512619D01*
X156825952Y-88474523D01*
X156864047Y-88436428D01*
X156902142Y-88360238D01*
X156902142Y-88207857D01*
X156864047Y-88131666D01*
X156825952Y-88093571D01*
X156749761Y-88055476D01*
X157206904Y-87293571D02*
X157206904Y-87750714D01*
X157206904Y-87522142D02*
X156406904Y-87522142D01*
X156521190Y-87598333D01*
X156597380Y-87674523D01*
X156635476Y-87750714D01*
X156673571Y-86607857D02*
X157206904Y-86607857D01*
X156368809Y-86798333D02*
X156940238Y-86988809D01*
X156940238Y-86493571D01*
D10*
X176998333Y-90622380D02*
X176665000Y-90146190D01*
X176426904Y-90622380D02*
X176426904Y-89622380D01*
X176807857Y-89622380D01*
X176903095Y-89670000D01*
X176950714Y-89717619D01*
X176998333Y-89812857D01*
X176998333Y-89955714D01*
X176950714Y-90050952D01*
X176903095Y-90098571D01*
X176807857Y-90146190D01*
X176426904Y-90146190D01*
X177950714Y-90622380D02*
X177379285Y-90622380D01*
X177665000Y-90622380D02*
X177665000Y-89622380D01*
X177569761Y-89765238D01*
X177474523Y-89860476D01*
X177379285Y-89908095D01*
X179101904Y-89717619D02*
X179149523Y-89670000D01*
X179244761Y-89622380D01*
X179482857Y-89622380D01*
X179578095Y-89670000D01*
X179625714Y-89717619D01*
X179673333Y-89812857D01*
X179673333Y-89908095D01*
X179625714Y-90050952D01*
X179054285Y-90622380D01*
X179673333Y-90622380D01*
X180054285Y-89717619D02*
X180101904Y-89670000D01*
X180197142Y-89622380D01*
X180435238Y-89622380D01*
X180530476Y-89670000D01*
X180578095Y-89717619D01*
X180625714Y-89812857D01*
X180625714Y-89908095D01*
X180578095Y-90050952D01*
X180006666Y-90622380D01*
X180625714Y-90622380D01*
X181244761Y-89622380D02*
X181340000Y-89622380D01*
X181435238Y-89670000D01*
X181482857Y-89717619D01*
X181530476Y-89812857D01*
X181578095Y-90003333D01*
X181578095Y-90241428D01*
X181530476Y-90431904D01*
X181482857Y-90527142D01*
X181435238Y-90574761D01*
X181340000Y-90622380D01*
X181244761Y-90622380D01*
X181149523Y-90574761D01*
X181101904Y-90527142D01*
X181054285Y-90431904D01*
X181006666Y-90241428D01*
X181006666Y-90003333D01*
X181054285Y-89812857D01*
X181101904Y-89717619D01*
X181149523Y-89670000D01*
X181244761Y-89622380D01*
X176998333Y-86812380D02*
X176665000Y-86336190D01*
X176426904Y-86812380D02*
X176426904Y-85812380D01*
X176807857Y-85812380D01*
X176903095Y-85860000D01*
X176950714Y-85907619D01*
X176998333Y-86002857D01*
X176998333Y-86145714D01*
X176950714Y-86240952D01*
X176903095Y-86288571D01*
X176807857Y-86336190D01*
X176426904Y-86336190D01*
X177379285Y-85907619D02*
X177426904Y-85860000D01*
X177522142Y-85812380D01*
X177760238Y-85812380D01*
X177855476Y-85860000D01*
X177903095Y-85907619D01*
X177950714Y-86002857D01*
X177950714Y-86098095D01*
X177903095Y-86240952D01*
X177331666Y-86812380D01*
X177950714Y-86812380D01*
X179101904Y-85907619D02*
X179149523Y-85860000D01*
X179244761Y-85812380D01*
X179482857Y-85812380D01*
X179578095Y-85860000D01*
X179625714Y-85907619D01*
X179673333Y-86002857D01*
X179673333Y-86098095D01*
X179625714Y-86240952D01*
X179054285Y-86812380D01*
X179673333Y-86812380D01*
X180054285Y-85907619D02*
X180101904Y-85860000D01*
X180197142Y-85812380D01*
X180435238Y-85812380D01*
X180530476Y-85860000D01*
X180578095Y-85907619D01*
X180625714Y-86002857D01*
X180625714Y-86098095D01*
X180578095Y-86240952D01*
X180006666Y-86812380D01*
X180625714Y-86812380D01*
X181244761Y-85812380D02*
X181340000Y-85812380D01*
X181435238Y-85860000D01*
X181482857Y-85907619D01*
X181530476Y-86002857D01*
X181578095Y-86193333D01*
X181578095Y-86431428D01*
X181530476Y-86621904D01*
X181482857Y-86717142D01*
X181435238Y-86764761D01*
X181340000Y-86812380D01*
X181244761Y-86812380D01*
X181149523Y-86764761D01*
X181101904Y-86717142D01*
X181054285Y-86621904D01*
X181006666Y-86431428D01*
X181006666Y-86193333D01*
X181054285Y-86002857D01*
X181101904Y-85907619D01*
X181149523Y-85860000D01*
X181244761Y-85812380D01*
X163028333Y-86812380D02*
X162695000Y-86336190D01*
X162456904Y-86812380D02*
X162456904Y-85812380D01*
X162837857Y-85812380D01*
X162933095Y-85860000D01*
X162980714Y-85907619D01*
X163028333Y-86002857D01*
X163028333Y-86145714D01*
X162980714Y-86240952D01*
X162933095Y-86288571D01*
X162837857Y-86336190D01*
X162456904Y-86336190D01*
X163361666Y-85812380D02*
X163980714Y-85812380D01*
X163647380Y-86193333D01*
X163790238Y-86193333D01*
X163885476Y-86240952D01*
X163933095Y-86288571D01*
X163980714Y-86383809D01*
X163980714Y-86621904D01*
X163933095Y-86717142D01*
X163885476Y-86764761D01*
X163790238Y-86812380D01*
X163504523Y-86812380D01*
X163409285Y-86764761D01*
X163361666Y-86717142D01*
X165131904Y-85907619D02*
X165179523Y-85860000D01*
X165274761Y-85812380D01*
X165512857Y-85812380D01*
X165608095Y-85860000D01*
X165655714Y-85907619D01*
X165703333Y-86002857D01*
X165703333Y-86098095D01*
X165655714Y-86240952D01*
X165084285Y-86812380D01*
X165703333Y-86812380D01*
X166084285Y-85907619D02*
X166131904Y-85860000D01*
X166227142Y-85812380D01*
X166465238Y-85812380D01*
X166560476Y-85860000D01*
X166608095Y-85907619D01*
X166655714Y-86002857D01*
X166655714Y-86098095D01*
X166608095Y-86240952D01*
X166036666Y-86812380D01*
X166655714Y-86812380D01*
X167274761Y-85812380D02*
X167370000Y-85812380D01*
X167465238Y-85860000D01*
X167512857Y-85907619D01*
X167560476Y-86002857D01*
X167608095Y-86193333D01*
X167608095Y-86431428D01*
X167560476Y-86621904D01*
X167512857Y-86717142D01*
X167465238Y-86764761D01*
X167370000Y-86812380D01*
X167274761Y-86812380D01*
X167179523Y-86764761D01*
X167131904Y-86717142D01*
X167084285Y-86621904D01*
X167036666Y-86431428D01*
X167036666Y-86193333D01*
X167084285Y-86002857D01*
X167131904Y-85907619D01*
X167179523Y-85860000D01*
X167274761Y-85812380D01*
X163028333Y-90622380D02*
X162695000Y-90146190D01*
X162456904Y-90622380D02*
X162456904Y-89622380D01*
X162837857Y-89622380D01*
X162933095Y-89670000D01*
X162980714Y-89717619D01*
X163028333Y-89812857D01*
X163028333Y-89955714D01*
X162980714Y-90050952D01*
X162933095Y-90098571D01*
X162837857Y-90146190D01*
X162456904Y-90146190D01*
X163885476Y-89955714D02*
X163885476Y-90622380D01*
X163647380Y-89574761D02*
X163409285Y-90289047D01*
X164028333Y-90289047D01*
X165155714Y-89622380D02*
X165774761Y-89622380D01*
X165441428Y-90003333D01*
X165584285Y-90003333D01*
X165679523Y-90050952D01*
X165727142Y-90098571D01*
X165774761Y-90193809D01*
X165774761Y-90431904D01*
X165727142Y-90527142D01*
X165679523Y-90574761D01*
X165584285Y-90622380D01*
X165298571Y-90622380D01*
X165203333Y-90574761D01*
X165155714Y-90527142D01*
X166203333Y-90622380D02*
X166203333Y-89622380D01*
X166298571Y-90241428D02*
X166584285Y-90622380D01*
X166584285Y-89955714D02*
X166203333Y-90336666D01*
X166917619Y-89622380D02*
X167536666Y-89622380D01*
X167203333Y-90003333D01*
X167346190Y-90003333D01*
X167441428Y-90050952D01*
X167489047Y-90098571D01*
X167536666Y-90193809D01*
X167536666Y-90431904D01*
X167489047Y-90527142D01*
X167441428Y-90574761D01*
X167346190Y-90622380D01*
X167060476Y-90622380D01*
X166965238Y-90574761D01*
X166917619Y-90527142D01*
X130048095Y-115657380D02*
X130048095Y-116466904D01*
X130095714Y-116562142D01*
X130143333Y-116609761D01*
X130238571Y-116657380D01*
X130429047Y-116657380D01*
X130524285Y-116609761D01*
X130571904Y-116562142D01*
X130619523Y-116466904D01*
X130619523Y-115657380D01*
X131048095Y-115752619D02*
X131095714Y-115705000D01*
X131190952Y-115657380D01*
X131429047Y-115657380D01*
X131524285Y-115705000D01*
X131571904Y-115752619D01*
X131619523Y-115847857D01*
X131619523Y-115943095D01*
X131571904Y-116085952D01*
X131000476Y-116657380D01*
X131619523Y-116657380D01*
X130262380Y-123927857D02*
X130262380Y-123261190D01*
X131262380Y-123689761D01*
X130595714Y-122451666D02*
X131262380Y-122451666D01*
X130214761Y-122689761D02*
X130929047Y-122927857D01*
X130929047Y-122308809D01*
X131262380Y-121451666D02*
X131262380Y-121927857D01*
X130262380Y-121927857D01*
X131214761Y-121165952D02*
X131262380Y-121023095D01*
X131262380Y-120785000D01*
X131214761Y-120689761D01*
X131167142Y-120642142D01*
X131071904Y-120594523D01*
X130976666Y-120594523D01*
X130881428Y-120642142D01*
X130833809Y-120689761D01*
X130786190Y-120785000D01*
X130738571Y-120975476D01*
X130690952Y-121070714D01*
X130643333Y-121118333D01*
X130548095Y-121165952D01*
X130452857Y-121165952D01*
X130357619Y-121118333D01*
X130310000Y-121070714D01*
X130262380Y-120975476D01*
X130262380Y-120737380D01*
X130310000Y-120594523D01*
X130262380Y-119975476D02*
X130262380Y-119880238D01*
X130310000Y-119785000D01*
X130357619Y-119737380D01*
X130452857Y-119689761D01*
X130643333Y-119642142D01*
X130881428Y-119642142D01*
X131071904Y-119689761D01*
X131167142Y-119737380D01*
X131214761Y-119785000D01*
X131262380Y-119880238D01*
X131262380Y-119975476D01*
X131214761Y-120070714D01*
X131167142Y-120118333D01*
X131071904Y-120165952D01*
X130881428Y-120213571D01*
X130643333Y-120213571D01*
X130452857Y-120165952D01*
X130357619Y-120118333D01*
X130310000Y-120070714D01*
X130262380Y-119975476D01*
X130262380Y-119023095D02*
X130262380Y-118927857D01*
X130310000Y-118832619D01*
X130357619Y-118785000D01*
X130452857Y-118737380D01*
X130643333Y-118689761D01*
X130881428Y-118689761D01*
X131071904Y-118737380D01*
X131167142Y-118785000D01*
X131214761Y-118832619D01*
X131262380Y-118927857D01*
X131262380Y-119023095D01*
X131214761Y-119118333D01*
X131167142Y-119165952D01*
X131071904Y-119213571D01*
X130881428Y-119261190D01*
X130643333Y-119261190D01*
X130452857Y-119213571D01*
X130357619Y-119165952D01*
X130310000Y-119118333D01*
X130262380Y-119023095D01*
X157988095Y-115657380D02*
X157988095Y-116466904D01*
X158035714Y-116562142D01*
X158083333Y-116609761D01*
X158178571Y-116657380D01*
X158369047Y-116657380D01*
X158464285Y-116609761D01*
X158511904Y-116562142D01*
X158559523Y-116466904D01*
X158559523Y-115657380D01*
X158940476Y-115657380D02*
X159559523Y-115657380D01*
X159226190Y-116038333D01*
X159369047Y-116038333D01*
X159464285Y-116085952D01*
X159511904Y-116133571D01*
X159559523Y-116228809D01*
X159559523Y-116466904D01*
X159511904Y-116562142D01*
X159464285Y-116609761D01*
X159369047Y-116657380D01*
X159083333Y-116657380D01*
X158988095Y-116609761D01*
X158940476Y-116562142D01*
X158202380Y-124546904D02*
X158202380Y-123880238D01*
X159202380Y-124308809D01*
X158535714Y-123070714D02*
X159202380Y-123070714D01*
X158154761Y-123308809D02*
X158869047Y-123546904D01*
X158869047Y-122927857D01*
X159202380Y-122546904D02*
X158202380Y-122546904D01*
X158678571Y-122546904D02*
X158678571Y-121975476D01*
X159202380Y-121975476D02*
X158202380Y-121975476D01*
X159107142Y-120927857D02*
X159154761Y-120975476D01*
X159202380Y-121118333D01*
X159202380Y-121213571D01*
X159154761Y-121356428D01*
X159059523Y-121451666D01*
X158964285Y-121499285D01*
X158773809Y-121546904D01*
X158630952Y-121546904D01*
X158440476Y-121499285D01*
X158345238Y-121451666D01*
X158250000Y-121356428D01*
X158202380Y-121213571D01*
X158202380Y-121118333D01*
X158250000Y-120975476D01*
X158297619Y-120927857D01*
X158202380Y-120023095D02*
X158202380Y-120499285D01*
X158678571Y-120546904D01*
X158630952Y-120499285D01*
X158583333Y-120404047D01*
X158583333Y-120165952D01*
X158630952Y-120070714D01*
X158678571Y-120023095D01*
X158773809Y-119975476D01*
X159011904Y-119975476D01*
X159107142Y-120023095D01*
X159154761Y-120070714D01*
X159202380Y-120165952D01*
X159202380Y-120404047D01*
X159154761Y-120499285D01*
X159107142Y-120546904D01*
X159202380Y-119499285D02*
X159202380Y-119308809D01*
X159154761Y-119213571D01*
X159107142Y-119165952D01*
X158964285Y-119070714D01*
X158773809Y-119023095D01*
X158392857Y-119023095D01*
X158297619Y-119070714D01*
X158250000Y-119118333D01*
X158202380Y-119213571D01*
X158202380Y-119404047D01*
X158250000Y-119499285D01*
X158297619Y-119546904D01*
X158392857Y-119594523D01*
X158630952Y-119594523D01*
X158726190Y-119546904D01*
X158773809Y-119499285D01*
X158821428Y-119404047D01*
X158821428Y-119213571D01*
X158773809Y-119118333D01*
X158726190Y-119070714D01*
X158630952Y-119023095D01*
X158202380Y-118118333D02*
X158202380Y-118594523D01*
X158678571Y-118642142D01*
X158630952Y-118594523D01*
X158583333Y-118499285D01*
X158583333Y-118261190D01*
X158630952Y-118165952D01*
X158678571Y-118118333D01*
X158773809Y-118070714D01*
X159011904Y-118070714D01*
X159107142Y-118118333D01*
X159154761Y-118165952D01*
X159202380Y-118261190D01*
X159202380Y-118499285D01*
X159154761Y-118594523D01*
X159107142Y-118642142D01*
X144018095Y-115657380D02*
X144018095Y-116466904D01*
X144065714Y-116562142D01*
X144113333Y-116609761D01*
X144208571Y-116657380D01*
X144399047Y-116657380D01*
X144494285Y-116609761D01*
X144541904Y-116562142D01*
X144589523Y-116466904D01*
X144589523Y-115657380D01*
X145494285Y-115990714D02*
X145494285Y-116657380D01*
X145256190Y-115609761D02*
X145018095Y-116324047D01*
X145637142Y-116324047D01*
X144232380Y-124546904D02*
X144232380Y-123880238D01*
X145232380Y-124308809D01*
X144565714Y-123070714D02*
X145232380Y-123070714D01*
X144184761Y-123308809D02*
X144899047Y-123546904D01*
X144899047Y-122927857D01*
X145232380Y-122546904D02*
X144232380Y-122546904D01*
X144708571Y-122546904D02*
X144708571Y-121975476D01*
X145232380Y-121975476D02*
X144232380Y-121975476D01*
X145137142Y-120927857D02*
X145184761Y-120975476D01*
X145232380Y-121118333D01*
X145232380Y-121213571D01*
X145184761Y-121356428D01*
X145089523Y-121451666D01*
X144994285Y-121499285D01*
X144803809Y-121546904D01*
X144660952Y-121546904D01*
X144470476Y-121499285D01*
X144375238Y-121451666D01*
X144280000Y-121356428D01*
X144232380Y-121213571D01*
X144232380Y-121118333D01*
X144280000Y-120975476D01*
X144327619Y-120927857D01*
X144232380Y-120023095D02*
X144232380Y-120499285D01*
X144708571Y-120546904D01*
X144660952Y-120499285D01*
X144613333Y-120404047D01*
X144613333Y-120165952D01*
X144660952Y-120070714D01*
X144708571Y-120023095D01*
X144803809Y-119975476D01*
X145041904Y-119975476D01*
X145137142Y-120023095D01*
X145184761Y-120070714D01*
X145232380Y-120165952D01*
X145232380Y-120404047D01*
X145184761Y-120499285D01*
X145137142Y-120546904D01*
X145232380Y-119499285D02*
X145232380Y-119308809D01*
X145184761Y-119213571D01*
X145137142Y-119165952D01*
X144994285Y-119070714D01*
X144803809Y-119023095D01*
X144422857Y-119023095D01*
X144327619Y-119070714D01*
X144280000Y-119118333D01*
X144232380Y-119213571D01*
X144232380Y-119404047D01*
X144280000Y-119499285D01*
X144327619Y-119546904D01*
X144422857Y-119594523D01*
X144660952Y-119594523D01*
X144756190Y-119546904D01*
X144803809Y-119499285D01*
X144851428Y-119404047D01*
X144851428Y-119213571D01*
X144803809Y-119118333D01*
X144756190Y-119070714D01*
X144660952Y-119023095D01*
X144232380Y-118118333D02*
X144232380Y-118594523D01*
X144708571Y-118642142D01*
X144660952Y-118594523D01*
X144613333Y-118499285D01*
X144613333Y-118261190D01*
X144660952Y-118165952D01*
X144708571Y-118118333D01*
X144803809Y-118070714D01*
X145041904Y-118070714D01*
X145137142Y-118118333D01*
X145184761Y-118165952D01*
X145232380Y-118261190D01*
X145232380Y-118499285D01*
X145184761Y-118594523D01*
X145137142Y-118642142D01*
X109728095Y-87717380D02*
X109728095Y-88526904D01*
X109775714Y-88622142D01*
X109823333Y-88669761D01*
X109918571Y-88717380D01*
X110109047Y-88717380D01*
X110204285Y-88669761D01*
X110251904Y-88622142D01*
X110299523Y-88526904D01*
X110299523Y-87717380D01*
X111251904Y-87717380D02*
X110775714Y-87717380D01*
X110728095Y-88193571D01*
X110775714Y-88145952D01*
X110870952Y-88098333D01*
X111109047Y-88098333D01*
X111204285Y-88145952D01*
X111251904Y-88193571D01*
X111299523Y-88288809D01*
X111299523Y-88526904D01*
X111251904Y-88622142D01*
X111204285Y-88669761D01*
X111109047Y-88717380D01*
X110870952Y-88717380D01*
X110775714Y-88669761D01*
X110728095Y-88622142D01*
X113641904Y-88717380D02*
X113641904Y-87717380D01*
X113641904Y-88193571D02*
X114213333Y-88193571D01*
X114213333Y-88717380D02*
X114213333Y-87717380D01*
X114689523Y-88717380D02*
X114689523Y-87717380D01*
X115022857Y-88431666D01*
X115356190Y-87717380D01*
X115356190Y-88717380D01*
X116260952Y-87717380D02*
X116070476Y-87717380D01*
X115975238Y-87765000D01*
X115927619Y-87812619D01*
X115832380Y-87955476D01*
X115784761Y-88145952D01*
X115784761Y-88526904D01*
X115832380Y-88622142D01*
X115880000Y-88669761D01*
X115975238Y-88717380D01*
X116165714Y-88717380D01*
X116260952Y-88669761D01*
X116308571Y-88622142D01*
X116356190Y-88526904D01*
X116356190Y-88288809D01*
X116308571Y-88193571D01*
X116260952Y-88145952D01*
X116165714Y-88098333D01*
X115975238Y-88098333D01*
X115880000Y-88145952D01*
X115832380Y-88193571D01*
X115784761Y-88288809D01*
X116737142Y-87812619D02*
X116784761Y-87765000D01*
X116880000Y-87717380D01*
X117118095Y-87717380D01*
X117213333Y-87765000D01*
X117260952Y-87812619D01*
X117308571Y-87907857D01*
X117308571Y-88003095D01*
X117260952Y-88145952D01*
X116689523Y-88717380D01*
X117308571Y-88717380D01*
X117689523Y-87812619D02*
X117737142Y-87765000D01*
X117832380Y-87717380D01*
X118070476Y-87717380D01*
X118165714Y-87765000D01*
X118213333Y-87812619D01*
X118260952Y-87907857D01*
X118260952Y-88003095D01*
X118213333Y-88145952D01*
X117641904Y-88717380D01*
X118260952Y-88717380D01*
X119165714Y-87717380D02*
X118689523Y-87717380D01*
X118641904Y-88193571D01*
X118689523Y-88145952D01*
X118784761Y-88098333D01*
X119022857Y-88098333D01*
X119118095Y-88145952D01*
X119165714Y-88193571D01*
X119213333Y-88288809D01*
X119213333Y-88526904D01*
X119165714Y-88622142D01*
X119118095Y-88669761D01*
X119022857Y-88717380D01*
X118784761Y-88717380D01*
X118689523Y-88669761D01*
X118641904Y-88622142D01*
X120070476Y-87717380D02*
X119880000Y-87717380D01*
X119784761Y-87765000D01*
X119737142Y-87812619D01*
X119641904Y-87955476D01*
X119594285Y-88145952D01*
X119594285Y-88526904D01*
X119641904Y-88622142D01*
X119689523Y-88669761D01*
X119784761Y-88717380D01*
X119975238Y-88717380D01*
X120070476Y-88669761D01*
X120118095Y-88622142D01*
X120165714Y-88526904D01*
X120165714Y-88288809D01*
X120118095Y-88193571D01*
X120070476Y-88145952D01*
X119975238Y-88098333D01*
X119784761Y-88098333D01*
X119689523Y-88145952D01*
X119641904Y-88193571D01*
X119594285Y-88288809D01*
X120927619Y-88193571D02*
X121070476Y-88241190D01*
X121118095Y-88288809D01*
X121165714Y-88384047D01*
X121165714Y-88526904D01*
X121118095Y-88622142D01*
X121070476Y-88669761D01*
X120975238Y-88717380D01*
X120594285Y-88717380D01*
X120594285Y-87717380D01*
X120927619Y-87717380D01*
X121022857Y-87765000D01*
X121070476Y-87812619D01*
X121118095Y-87907857D01*
X121118095Y-88003095D01*
X121070476Y-88098333D01*
X121022857Y-88145952D01*
X120927619Y-88193571D01*
X120594285Y-88193571D01*
X122070476Y-88717380D02*
X121594285Y-88717380D01*
X121594285Y-87717380D01*
X122403809Y-88717380D02*
X122403809Y-87717380D01*
X122784761Y-87717380D01*
X122880000Y-87765000D01*
X122927619Y-87812619D01*
X122975238Y-87907857D01*
X122975238Y-88050714D01*
X122927619Y-88145952D01*
X122880000Y-88193571D01*
X122784761Y-88241190D01*
X122403809Y-88241190D01*
X123403809Y-88336428D02*
X124165714Y-88336428D01*
X124546666Y-87717380D02*
X125213333Y-87717380D01*
X124784761Y-88717380D01*
X171958095Y-115657380D02*
X171958095Y-116466904D01*
X172005714Y-116562142D01*
X172053333Y-116609761D01*
X172148571Y-116657380D01*
X172339047Y-116657380D01*
X172434285Y-116609761D01*
X172481904Y-116562142D01*
X172529523Y-116466904D01*
X172529523Y-115657380D01*
X173434285Y-115657380D02*
X173243809Y-115657380D01*
X173148571Y-115705000D01*
X173100952Y-115752619D01*
X173005714Y-115895476D01*
X172958095Y-116085952D01*
X172958095Y-116466904D01*
X173005714Y-116562142D01*
X173053333Y-116609761D01*
X173148571Y-116657380D01*
X173339047Y-116657380D01*
X173434285Y-116609761D01*
X173481904Y-116562142D01*
X173529523Y-116466904D01*
X173529523Y-116228809D01*
X173481904Y-116133571D01*
X173434285Y-116085952D01*
X173339047Y-116038333D01*
X173148571Y-116038333D01*
X173053333Y-116085952D01*
X173005714Y-116133571D01*
X172958095Y-116228809D01*
X172172380Y-124404047D02*
X172172380Y-123737380D01*
X173172380Y-124165952D01*
X172505714Y-122927857D02*
X173172380Y-122927857D01*
X172124761Y-123165952D02*
X172839047Y-123404047D01*
X172839047Y-122785000D01*
X173172380Y-121927857D02*
X173172380Y-122404047D01*
X172172380Y-122404047D01*
X173124761Y-121642142D02*
X173172380Y-121499285D01*
X173172380Y-121261190D01*
X173124761Y-121165952D01*
X173077142Y-121118333D01*
X172981904Y-121070714D01*
X172886666Y-121070714D01*
X172791428Y-121118333D01*
X172743809Y-121165952D01*
X172696190Y-121261190D01*
X172648571Y-121451666D01*
X172600952Y-121546904D01*
X172553333Y-121594523D01*
X172458095Y-121642142D01*
X172362857Y-121642142D01*
X172267619Y-121594523D01*
X172220000Y-121546904D01*
X172172380Y-121451666D01*
X172172380Y-121213571D01*
X172220000Y-121070714D01*
X172267619Y-120689761D02*
X172220000Y-120642142D01*
X172172380Y-120546904D01*
X172172380Y-120308809D01*
X172220000Y-120213571D01*
X172267619Y-120165952D01*
X172362857Y-120118333D01*
X172458095Y-120118333D01*
X172600952Y-120165952D01*
X173172380Y-120737380D01*
X173172380Y-120118333D01*
X172505714Y-119261190D02*
X173172380Y-119261190D01*
X172124761Y-119499285D02*
X172839047Y-119737380D01*
X172839047Y-119118333D01*
X172505714Y-118308809D02*
X173172380Y-118308809D01*
X172124761Y-118546904D02*
X172839047Y-118785000D01*
X172839047Y-118165952D01*
X185928095Y-115657380D02*
X185928095Y-116466904D01*
X185975714Y-116562142D01*
X186023333Y-116609761D01*
X186118571Y-116657380D01*
X186309047Y-116657380D01*
X186404285Y-116609761D01*
X186451904Y-116562142D01*
X186499523Y-116466904D01*
X186499523Y-115657380D01*
X186880476Y-115657380D02*
X187547142Y-115657380D01*
X187118571Y-116657380D01*
X186142380Y-128214047D02*
X186142380Y-127547380D01*
X187142380Y-127975952D01*
X186475714Y-126737857D02*
X187142380Y-126737857D01*
X186094761Y-126975952D02*
X186809047Y-127214047D01*
X186809047Y-126595000D01*
X187142380Y-125737857D02*
X187142380Y-126214047D01*
X186142380Y-126214047D01*
X187094761Y-125452142D02*
X187142380Y-125309285D01*
X187142380Y-125071190D01*
X187094761Y-124975952D01*
X187047142Y-124928333D01*
X186951904Y-124880714D01*
X186856666Y-124880714D01*
X186761428Y-124928333D01*
X186713809Y-124975952D01*
X186666190Y-125071190D01*
X186618571Y-125261666D01*
X186570952Y-125356904D01*
X186523333Y-125404523D01*
X186428095Y-125452142D01*
X186332857Y-125452142D01*
X186237619Y-125404523D01*
X186190000Y-125356904D01*
X186142380Y-125261666D01*
X186142380Y-125023571D01*
X186190000Y-124880714D01*
X186237619Y-124499761D02*
X186190000Y-124452142D01*
X186142380Y-124356904D01*
X186142380Y-124118809D01*
X186190000Y-124023571D01*
X186237619Y-123975952D01*
X186332857Y-123928333D01*
X186428095Y-123928333D01*
X186570952Y-123975952D01*
X187142380Y-124547380D01*
X187142380Y-123928333D01*
X186475714Y-123071190D02*
X187142380Y-123071190D01*
X186094761Y-123309285D02*
X186809047Y-123547380D01*
X186809047Y-122928333D01*
X186475714Y-122118809D02*
X187142380Y-122118809D01*
X186094761Y-122356904D02*
X186809047Y-122595000D01*
X186809047Y-121975952D01*
X116078095Y-115657380D02*
X116078095Y-116466904D01*
X116125714Y-116562142D01*
X116173333Y-116609761D01*
X116268571Y-116657380D01*
X116459047Y-116657380D01*
X116554285Y-116609761D01*
X116601904Y-116562142D01*
X116649523Y-116466904D01*
X116649523Y-115657380D01*
X117268571Y-116085952D02*
X117173333Y-116038333D01*
X117125714Y-115990714D01*
X117078095Y-115895476D01*
X117078095Y-115847857D01*
X117125714Y-115752619D01*
X117173333Y-115705000D01*
X117268571Y-115657380D01*
X117459047Y-115657380D01*
X117554285Y-115705000D01*
X117601904Y-115752619D01*
X117649523Y-115847857D01*
X117649523Y-115895476D01*
X117601904Y-115990714D01*
X117554285Y-116038333D01*
X117459047Y-116085952D01*
X117268571Y-116085952D01*
X117173333Y-116133571D01*
X117125714Y-116181190D01*
X117078095Y-116276428D01*
X117078095Y-116466904D01*
X117125714Y-116562142D01*
X117173333Y-116609761D01*
X117268571Y-116657380D01*
X117459047Y-116657380D01*
X117554285Y-116609761D01*
X117601904Y-116562142D01*
X117649523Y-116466904D01*
X117649523Y-116276428D01*
X117601904Y-116181190D01*
X117554285Y-116133571D01*
X117459047Y-116085952D01*
X116292380Y-124404047D02*
X116292380Y-123737380D01*
X117292380Y-124165952D01*
X116625714Y-122927857D02*
X117292380Y-122927857D01*
X116244761Y-123165952D02*
X116959047Y-123404047D01*
X116959047Y-122785000D01*
X117292380Y-121927857D02*
X117292380Y-122404047D01*
X116292380Y-122404047D01*
X117244761Y-121642142D02*
X117292380Y-121499285D01*
X117292380Y-121261190D01*
X117244761Y-121165952D01*
X117197142Y-121118333D01*
X117101904Y-121070714D01*
X117006666Y-121070714D01*
X116911428Y-121118333D01*
X116863809Y-121165952D01*
X116816190Y-121261190D01*
X116768571Y-121451666D01*
X116720952Y-121546904D01*
X116673333Y-121594523D01*
X116578095Y-121642142D01*
X116482857Y-121642142D01*
X116387619Y-121594523D01*
X116340000Y-121546904D01*
X116292380Y-121451666D01*
X116292380Y-121213571D01*
X116340000Y-121070714D01*
X116387619Y-120689761D02*
X116340000Y-120642142D01*
X116292380Y-120546904D01*
X116292380Y-120308809D01*
X116340000Y-120213571D01*
X116387619Y-120165952D01*
X116482857Y-120118333D01*
X116578095Y-120118333D01*
X116720952Y-120165952D01*
X117292380Y-120737380D01*
X117292380Y-120118333D01*
X116625714Y-119261190D02*
X117292380Y-119261190D01*
X116244761Y-119499285D02*
X116959047Y-119737380D01*
X116959047Y-119118333D01*
X116292380Y-118261190D02*
X116292380Y-118737380D01*
X116768571Y-118785000D01*
X116720952Y-118737380D01*
X116673333Y-118642142D01*
X116673333Y-118404047D01*
X116720952Y-118308809D01*
X116768571Y-118261190D01*
X116863809Y-118213571D01*
X117101904Y-118213571D01*
X117197142Y-118261190D01*
X117244761Y-118308809D01*
X117292380Y-118404047D01*
X117292380Y-118642142D01*
X117244761Y-118737380D01*
X117197142Y-118785000D01*
X131278333Y-90622380D02*
X130945000Y-90146190D01*
X130706904Y-90622380D02*
X130706904Y-89622380D01*
X131087857Y-89622380D01*
X131183095Y-89670000D01*
X131230714Y-89717619D01*
X131278333Y-89812857D01*
X131278333Y-89955714D01*
X131230714Y-90050952D01*
X131183095Y-90098571D01*
X131087857Y-90146190D01*
X130706904Y-90146190D01*
X132183095Y-89622380D02*
X131706904Y-89622380D01*
X131659285Y-90098571D01*
X131706904Y-90050952D01*
X131802142Y-90003333D01*
X132040238Y-90003333D01*
X132135476Y-90050952D01*
X132183095Y-90098571D01*
X132230714Y-90193809D01*
X132230714Y-90431904D01*
X132183095Y-90527142D01*
X132135476Y-90574761D01*
X132040238Y-90622380D01*
X131802142Y-90622380D01*
X131706904Y-90574761D01*
X131659285Y-90527142D01*
X133405714Y-89622380D02*
X134024761Y-89622380D01*
X133691428Y-90003333D01*
X133834285Y-90003333D01*
X133929523Y-90050952D01*
X133977142Y-90098571D01*
X134024761Y-90193809D01*
X134024761Y-90431904D01*
X133977142Y-90527142D01*
X133929523Y-90574761D01*
X133834285Y-90622380D01*
X133548571Y-90622380D01*
X133453333Y-90574761D01*
X133405714Y-90527142D01*
X134453333Y-90622380D02*
X134453333Y-89622380D01*
X134548571Y-90241428D02*
X134834285Y-90622380D01*
X134834285Y-89955714D02*
X134453333Y-90336666D01*
X135167619Y-89622380D02*
X135786666Y-89622380D01*
X135453333Y-90003333D01*
X135596190Y-90003333D01*
X135691428Y-90050952D01*
X135739047Y-90098571D01*
X135786666Y-90193809D01*
X135786666Y-90431904D01*
X135739047Y-90527142D01*
X135691428Y-90574761D01*
X135596190Y-90622380D01*
X135310476Y-90622380D01*
X135215238Y-90574761D01*
X135167619Y-90527142D01*
X131278333Y-86812380D02*
X130945000Y-86336190D01*
X130706904Y-86812380D02*
X130706904Y-85812380D01*
X131087857Y-85812380D01*
X131183095Y-85860000D01*
X131230714Y-85907619D01*
X131278333Y-86002857D01*
X131278333Y-86145714D01*
X131230714Y-86240952D01*
X131183095Y-86288571D01*
X131087857Y-86336190D01*
X130706904Y-86336190D01*
X132135476Y-85812380D02*
X131945000Y-85812380D01*
X131849761Y-85860000D01*
X131802142Y-85907619D01*
X131706904Y-86050476D01*
X131659285Y-86240952D01*
X131659285Y-86621904D01*
X131706904Y-86717142D01*
X131754523Y-86764761D01*
X131849761Y-86812380D01*
X132040238Y-86812380D01*
X132135476Y-86764761D01*
X132183095Y-86717142D01*
X132230714Y-86621904D01*
X132230714Y-86383809D01*
X132183095Y-86288571D01*
X132135476Y-86240952D01*
X132040238Y-86193333D01*
X131849761Y-86193333D01*
X131754523Y-86240952D01*
X131706904Y-86288571D01*
X131659285Y-86383809D01*
X133405714Y-85812380D02*
X134024761Y-85812380D01*
X133691428Y-86193333D01*
X133834285Y-86193333D01*
X133929523Y-86240952D01*
X133977142Y-86288571D01*
X134024761Y-86383809D01*
X134024761Y-86621904D01*
X133977142Y-86717142D01*
X133929523Y-86764761D01*
X133834285Y-86812380D01*
X133548571Y-86812380D01*
X133453333Y-86764761D01*
X133405714Y-86717142D01*
X134453333Y-86812380D02*
X134453333Y-85812380D01*
X134548571Y-86431428D02*
X134834285Y-86812380D01*
X134834285Y-86145714D02*
X134453333Y-86526666D01*
X135167619Y-85812380D02*
X135786666Y-85812380D01*
X135453333Y-86193333D01*
X135596190Y-86193333D01*
X135691428Y-86240952D01*
X135739047Y-86288571D01*
X135786666Y-86383809D01*
X135786666Y-86621904D01*
X135739047Y-86717142D01*
X135691428Y-86764761D01*
X135596190Y-86812380D01*
X135310476Y-86812380D01*
X135215238Y-86764761D01*
X135167619Y-86717142D01*
X118578333Y-86812380D02*
X118245000Y-86336190D01*
X118006904Y-86812380D02*
X118006904Y-85812380D01*
X118387857Y-85812380D01*
X118483095Y-85860000D01*
X118530714Y-85907619D01*
X118578333Y-86002857D01*
X118578333Y-86145714D01*
X118530714Y-86240952D01*
X118483095Y-86288571D01*
X118387857Y-86336190D01*
X118006904Y-86336190D01*
X118911666Y-85812380D02*
X119578333Y-85812380D01*
X119149761Y-86812380D01*
X120705714Y-85812380D02*
X121324761Y-85812380D01*
X120991428Y-86193333D01*
X121134285Y-86193333D01*
X121229523Y-86240952D01*
X121277142Y-86288571D01*
X121324761Y-86383809D01*
X121324761Y-86621904D01*
X121277142Y-86717142D01*
X121229523Y-86764761D01*
X121134285Y-86812380D01*
X120848571Y-86812380D01*
X120753333Y-86764761D01*
X120705714Y-86717142D01*
X121753333Y-86812380D02*
X121753333Y-85812380D01*
X121848571Y-86431428D02*
X122134285Y-86812380D01*
X122134285Y-86145714D02*
X121753333Y-86526666D01*
X122467619Y-85812380D02*
X123086666Y-85812380D01*
X122753333Y-86193333D01*
X122896190Y-86193333D01*
X122991428Y-86240952D01*
X123039047Y-86288571D01*
X123086666Y-86383809D01*
X123086666Y-86621904D01*
X123039047Y-86717142D01*
X122991428Y-86764761D01*
X122896190Y-86812380D01*
X122610476Y-86812380D01*
X122515238Y-86764761D01*
X122467619Y-86717142D01*
X144597380Y-86463095D02*
X143597380Y-86463095D01*
X143597380Y-86225000D01*
X143645000Y-86082142D01*
X143740238Y-85986904D01*
X143835476Y-85939285D01*
X144025952Y-85891666D01*
X144168809Y-85891666D01*
X144359285Y-85939285D01*
X144454523Y-85986904D01*
X144549761Y-86082142D01*
X144597380Y-86225000D01*
X144597380Y-86463095D01*
X143597380Y-84986904D02*
X143597380Y-85463095D01*
X144073571Y-85510714D01*
X144025952Y-85463095D01*
X143978333Y-85367857D01*
X143978333Y-85129761D01*
X144025952Y-85034523D01*
X144073571Y-84986904D01*
X144168809Y-84939285D01*
X144406904Y-84939285D01*
X144502142Y-84986904D01*
X144549761Y-85034523D01*
X144597380Y-85129761D01*
X144597380Y-85367857D01*
X144549761Y-85463095D01*
X144502142Y-85510714D01*
D13*
X145776904Y-87439285D02*
X145776904Y-87896428D01*
X145776904Y-87667857D02*
X144976904Y-87667857D01*
X145091190Y-87744047D01*
X145167380Y-87820238D01*
X145205476Y-87896428D01*
X145776904Y-87096428D02*
X144976904Y-87096428D01*
X145776904Y-86639285D01*
X144976904Y-86639285D01*
X145243571Y-85915476D02*
X145776904Y-85915476D01*
X144938809Y-86105952D02*
X145510238Y-86296428D01*
X145510238Y-85801190D01*
X144976904Y-85344047D02*
X144976904Y-85267857D01*
X145015000Y-85191666D01*
X145053095Y-85153571D01*
X145129285Y-85115476D01*
X145281666Y-85077380D01*
X145472142Y-85077380D01*
X145624523Y-85115476D01*
X145700714Y-85153571D01*
X145738809Y-85191666D01*
X145776904Y-85267857D01*
X145776904Y-85344047D01*
X145738809Y-85420238D01*
X145700714Y-85458333D01*
X145624523Y-85496428D01*
X145472142Y-85534523D01*
X145281666Y-85534523D01*
X145129285Y-85496428D01*
X145053095Y-85458333D01*
X145015000Y-85420238D01*
X144976904Y-85344047D01*
X144976904Y-84582142D02*
X144976904Y-84505952D01*
X145015000Y-84429761D01*
X145053095Y-84391666D01*
X145129285Y-84353571D01*
X145281666Y-84315476D01*
X145472142Y-84315476D01*
X145624523Y-84353571D01*
X145700714Y-84391666D01*
X145738809Y-84429761D01*
X145776904Y-84505952D01*
X145776904Y-84582142D01*
X145738809Y-84658333D01*
X145700714Y-84696428D01*
X145624523Y-84734523D01*
X145472142Y-84772619D01*
X145281666Y-84772619D01*
X145129285Y-84734523D01*
X145053095Y-84696428D01*
X145015000Y-84658333D01*
X144976904Y-84582142D01*
X145776904Y-83553571D02*
X145776904Y-84010714D01*
X145776904Y-83782142D02*
X144976904Y-83782142D01*
X145091190Y-83858333D01*
X145167380Y-83934523D01*
X145205476Y-84010714D01*
M02*
