G04 #@! TF.FileFunction,Legend,Top*
%FSLAX46Y46*%
G04 Gerber Fmt 4.6, Leading zero omitted, Abs format (unit mm)*
G04 Created by KiCad (PCBNEW 4.0.7) date 01/29/20 23:24:51*
%MOMM*%
%LPD*%
G01*
G04 APERTURE LIST*
%ADD10C,0.100000*%
%ADD11C,0.150000*%
%ADD12C,0.300000*%
%ADD13C,0.200000*%
%ADD14C,0.120000*%
%ADD15C,0.127000*%
%ADD16C,0.400000*%
%ADD17C,0.015000*%
G04 APERTURE END LIST*
D10*
D11*
X140367381Y-105497381D02*
X140938810Y-105497381D01*
X140653095Y-106497381D02*
X140653095Y-105497381D01*
X141272143Y-106497381D02*
X141272143Y-105497381D01*
X141605477Y-106211667D01*
X141938810Y-105497381D01*
X141938810Y-106497381D01*
X142367381Y-106449762D02*
X142510238Y-106497381D01*
X142748334Y-106497381D01*
X142843572Y-106449762D01*
X142891191Y-106402143D01*
X142938810Y-106306905D01*
X142938810Y-106211667D01*
X142891191Y-106116429D01*
X142843572Y-106068810D01*
X142748334Y-106021190D01*
X142557857Y-105973571D01*
X142462619Y-105925952D01*
X142415000Y-105878333D01*
X142367381Y-105783095D01*
X142367381Y-105687857D01*
X142415000Y-105592619D01*
X142462619Y-105545000D01*
X142557857Y-105497381D01*
X142795953Y-105497381D01*
X142938810Y-105545000D01*
X143415000Y-106497381D02*
X143605476Y-106497381D01*
X143700715Y-106449762D01*
X143748334Y-106402143D01*
X143843572Y-106259286D01*
X143891191Y-106068810D01*
X143891191Y-105687857D01*
X143843572Y-105592619D01*
X143795953Y-105545000D01*
X143700715Y-105497381D01*
X143510238Y-105497381D01*
X143415000Y-105545000D01*
X143367381Y-105592619D01*
X143319762Y-105687857D01*
X143319762Y-105925952D01*
X143367381Y-106021190D01*
X143415000Y-106068810D01*
X143510238Y-106116429D01*
X143700715Y-106116429D01*
X143795953Y-106068810D01*
X143843572Y-106021190D01*
X143891191Y-105925952D01*
X144367381Y-106497381D02*
X144557857Y-106497381D01*
X144653096Y-106449762D01*
X144700715Y-106402143D01*
X144795953Y-106259286D01*
X144843572Y-106068810D01*
X144843572Y-105687857D01*
X144795953Y-105592619D01*
X144748334Y-105545000D01*
X144653096Y-105497381D01*
X144462619Y-105497381D01*
X144367381Y-105545000D01*
X144319762Y-105592619D01*
X144272143Y-105687857D01*
X144272143Y-105925952D01*
X144319762Y-106021190D01*
X144367381Y-106068810D01*
X144462619Y-106116429D01*
X144653096Y-106116429D01*
X144748334Y-106068810D01*
X144795953Y-106021190D01*
X144843572Y-105925952D01*
X145795953Y-106497381D02*
X145224524Y-106497381D01*
X145510238Y-106497381D02*
X145510238Y-105497381D01*
X145415000Y-105640238D01*
X145319762Y-105735476D01*
X145224524Y-105783095D01*
X146367381Y-105925952D02*
X146272143Y-105878333D01*
X146224524Y-105830714D01*
X146176905Y-105735476D01*
X146176905Y-105687857D01*
X146224524Y-105592619D01*
X146272143Y-105545000D01*
X146367381Y-105497381D01*
X146557858Y-105497381D01*
X146653096Y-105545000D01*
X146700715Y-105592619D01*
X146748334Y-105687857D01*
X146748334Y-105735476D01*
X146700715Y-105830714D01*
X146653096Y-105878333D01*
X146557858Y-105925952D01*
X146367381Y-105925952D01*
X146272143Y-105973571D01*
X146224524Y-106021190D01*
X146176905Y-106116429D01*
X146176905Y-106306905D01*
X146224524Y-106402143D01*
X146272143Y-106449762D01*
X146367381Y-106497381D01*
X146557858Y-106497381D01*
X146653096Y-106449762D01*
X146700715Y-106402143D01*
X146748334Y-106306905D01*
X146748334Y-106116429D01*
X146700715Y-106021190D01*
X146653096Y-105973571D01*
X146557858Y-105925952D01*
X147795953Y-105497381D02*
X148129286Y-106497381D01*
X148462620Y-105497381D01*
X148795953Y-106497381D02*
X148795953Y-105497381D01*
X149034048Y-105497381D01*
X149176906Y-105545000D01*
X149272144Y-105640238D01*
X149319763Y-105735476D01*
X149367382Y-105925952D01*
X149367382Y-106068810D01*
X149319763Y-106259286D01*
X149272144Y-106354524D01*
X149176906Y-106449762D01*
X149034048Y-106497381D01*
X148795953Y-106497381D01*
X150367382Y-106402143D02*
X150319763Y-106449762D01*
X150176906Y-106497381D01*
X150081668Y-106497381D01*
X149938810Y-106449762D01*
X149843572Y-106354524D01*
X149795953Y-106259286D01*
X149748334Y-106068810D01*
X149748334Y-105925952D01*
X149795953Y-105735476D01*
X149843572Y-105640238D01*
X149938810Y-105545000D01*
X150081668Y-105497381D01*
X150176906Y-105497381D01*
X150319763Y-105545000D01*
X150367382Y-105592619D01*
X140010238Y-107735714D02*
X140010238Y-108545238D01*
X139962619Y-108640476D01*
X139915000Y-108688095D01*
X139819761Y-108735714D01*
X139676904Y-108735714D01*
X139581666Y-108688095D01*
X140010238Y-108354762D02*
X139915000Y-108402381D01*
X139724523Y-108402381D01*
X139629285Y-108354762D01*
X139581666Y-108307143D01*
X139534047Y-108211905D01*
X139534047Y-107926190D01*
X139581666Y-107830952D01*
X139629285Y-107783333D01*
X139724523Y-107735714D01*
X139915000Y-107735714D01*
X140010238Y-107783333D01*
X140486428Y-108402381D02*
X140486428Y-107735714D01*
X140486428Y-107402381D02*
X140438809Y-107450000D01*
X140486428Y-107497619D01*
X140534047Y-107450000D01*
X140486428Y-107402381D01*
X140486428Y-107497619D01*
X140819761Y-107735714D02*
X141200713Y-107735714D01*
X140962618Y-107402381D02*
X140962618Y-108259524D01*
X141010237Y-108354762D01*
X141105475Y-108402381D01*
X141200713Y-108402381D01*
X141534047Y-108402381D02*
X141534047Y-107402381D01*
X141962619Y-108402381D02*
X141962619Y-107878571D01*
X141915000Y-107783333D01*
X141819762Y-107735714D01*
X141676904Y-107735714D01*
X141581666Y-107783333D01*
X141534047Y-107830952D01*
X142867381Y-107735714D02*
X142867381Y-108402381D01*
X142438809Y-107735714D02*
X142438809Y-108259524D01*
X142486428Y-108354762D01*
X142581666Y-108402381D01*
X142724524Y-108402381D01*
X142819762Y-108354762D01*
X142867381Y-108307143D01*
X143343571Y-108402381D02*
X143343571Y-107402381D01*
X143343571Y-107783333D02*
X143438809Y-107735714D01*
X143629286Y-107735714D01*
X143724524Y-107783333D01*
X143772143Y-107830952D01*
X143819762Y-107926190D01*
X143819762Y-108211905D01*
X143772143Y-108307143D01*
X143724524Y-108354762D01*
X143629286Y-108402381D01*
X143438809Y-108402381D01*
X143343571Y-108354762D01*
X144248333Y-108307143D02*
X144295952Y-108354762D01*
X144248333Y-108402381D01*
X144200714Y-108354762D01*
X144248333Y-108307143D01*
X144248333Y-108402381D01*
X145153095Y-108354762D02*
X145057857Y-108402381D01*
X144867380Y-108402381D01*
X144772142Y-108354762D01*
X144724523Y-108307143D01*
X144676904Y-108211905D01*
X144676904Y-107926190D01*
X144724523Y-107830952D01*
X144772142Y-107783333D01*
X144867380Y-107735714D01*
X145057857Y-107735714D01*
X145153095Y-107783333D01*
X145724523Y-108402381D02*
X145629285Y-108354762D01*
X145581666Y-108307143D01*
X145534047Y-108211905D01*
X145534047Y-107926190D01*
X145581666Y-107830952D01*
X145629285Y-107783333D01*
X145724523Y-107735714D01*
X145867381Y-107735714D01*
X145962619Y-107783333D01*
X146010238Y-107830952D01*
X146057857Y-107926190D01*
X146057857Y-108211905D01*
X146010238Y-108307143D01*
X145962619Y-108354762D01*
X145867381Y-108402381D01*
X145724523Y-108402381D01*
X146486428Y-108402381D02*
X146486428Y-107735714D01*
X146486428Y-107830952D02*
X146534047Y-107783333D01*
X146629285Y-107735714D01*
X146772143Y-107735714D01*
X146867381Y-107783333D01*
X146915000Y-107878571D01*
X146915000Y-108402381D01*
X146915000Y-107878571D02*
X146962619Y-107783333D01*
X147057857Y-107735714D01*
X147200714Y-107735714D01*
X147295952Y-107783333D01*
X147343571Y-107878571D01*
X147343571Y-108402381D01*
X148534047Y-107354762D02*
X147676904Y-108640476D01*
X148724523Y-107735714D02*
X149105475Y-107735714D01*
X148867380Y-107402381D02*
X148867380Y-108259524D01*
X148914999Y-108354762D01*
X149010237Y-108402381D01*
X149105475Y-108402381D01*
X149819762Y-108354762D02*
X149724524Y-108402381D01*
X149534047Y-108402381D01*
X149438809Y-108354762D01*
X149391190Y-108259524D01*
X149391190Y-107878571D01*
X149438809Y-107783333D01*
X149534047Y-107735714D01*
X149724524Y-107735714D01*
X149819762Y-107783333D01*
X149867381Y-107878571D01*
X149867381Y-107973810D01*
X149391190Y-108069048D01*
X150295952Y-108402381D02*
X150295952Y-107402381D01*
X150295952Y-107783333D02*
X150391190Y-107735714D01*
X150581667Y-107735714D01*
X150676905Y-107783333D01*
X150724524Y-107830952D01*
X150772143Y-107926190D01*
X150772143Y-108211905D01*
X150724524Y-108307143D01*
X150676905Y-108354762D01*
X150581667Y-108402381D01*
X150391190Y-108402381D01*
X150295952Y-108354762D01*
X151343571Y-108402381D02*
X151248333Y-108354762D01*
X151200714Y-108259524D01*
X151200714Y-107402381D01*
D12*
X141950714Y-104818571D02*
X141450714Y-104104286D01*
X141093571Y-104818571D02*
X141093571Y-103318571D01*
X141664999Y-103318571D01*
X141807857Y-103390000D01*
X141879285Y-103461429D01*
X141950714Y-103604286D01*
X141950714Y-103818571D01*
X141879285Y-103961429D01*
X141807857Y-104032857D01*
X141664999Y-104104286D01*
X141093571Y-104104286D01*
X143450714Y-104675714D02*
X143379285Y-104747143D01*
X143164999Y-104818571D01*
X143022142Y-104818571D01*
X142807857Y-104747143D01*
X142664999Y-104604286D01*
X142593571Y-104461429D01*
X142522142Y-104175714D01*
X142522142Y-103961429D01*
X142593571Y-103675714D01*
X142664999Y-103532857D01*
X142807857Y-103390000D01*
X143022142Y-103318571D01*
X143164999Y-103318571D01*
X143379285Y-103390000D01*
X143450714Y-103461429D01*
X144093571Y-104247143D02*
X145236428Y-104247143D01*
X146236428Y-103318571D02*
X146522142Y-103318571D01*
X146665000Y-103390000D01*
X146807857Y-103532857D01*
X146879285Y-103818571D01*
X146879285Y-104318571D01*
X146807857Y-104604286D01*
X146665000Y-104747143D01*
X146522142Y-104818571D01*
X146236428Y-104818571D01*
X146093571Y-104747143D01*
X145950714Y-104604286D01*
X145879285Y-104318571D01*
X145879285Y-103818571D01*
X145950714Y-103532857D01*
X146093571Y-103390000D01*
X146236428Y-103318571D01*
X147522143Y-104818571D02*
X147522143Y-103318571D01*
X148379286Y-104818571D01*
X148379286Y-103318571D01*
X149093572Y-104032857D02*
X149593572Y-104032857D01*
X149807858Y-104818571D02*
X149093572Y-104818571D01*
X149093572Y-103318571D01*
X149807858Y-103318571D01*
D13*
X193675000Y-111760000D02*
X193675000Y-71755000D01*
X193040000Y-71755000D02*
X193040000Y-111760000D01*
X192405000Y-111760000D02*
X192405000Y-71755000D01*
X193675000Y-137160000D02*
X193675000Y-128270000D01*
X193040000Y-128270000D02*
X193040000Y-137160000D01*
X192405000Y-137160000D02*
X192405000Y-128270000D01*
X192405000Y-146050000D02*
X192405000Y-142240000D01*
X193040000Y-142240000D02*
X193040000Y-146050000D01*
X193675000Y-146050000D02*
X193675000Y-142240000D01*
D11*
X193492381Y-141580952D02*
X192492381Y-141580952D01*
X192492381Y-141199999D01*
X192540000Y-141104761D01*
X192587619Y-141057142D01*
X192682857Y-141009523D01*
X192825714Y-141009523D01*
X192920952Y-141057142D01*
X192968571Y-141104761D01*
X193016190Y-141199999D01*
X193016190Y-141580952D01*
X193492381Y-140580952D02*
X192492381Y-140580952D01*
X193492381Y-140104762D02*
X192492381Y-140104762D01*
X193492381Y-139533333D01*
X192492381Y-139533333D01*
X193492381Y-137771428D02*
X193492381Y-138342857D01*
X193492381Y-138057143D02*
X192492381Y-138057143D01*
X192635238Y-138152381D01*
X192730476Y-138247619D01*
X192778095Y-138342857D01*
D14*
X172339278Y-108494723D02*
G75*
G03X176950580Y-108495000I2305722J1179723D01*
G01*
X172339278Y-106135277D02*
G75*
G02X176950580Y-106135000I2305722J-1179723D01*
G01*
X172339278Y-106135277D02*
G75*
G03X172339420Y-108495000I2305722J-1179723D01*
G01*
X174645000Y-109865000D02*
X174645000Y-104765000D01*
X174605000Y-109865000D02*
X174605000Y-104765000D01*
X174565000Y-109864000D02*
X174565000Y-104766000D01*
X174525000Y-109863000D02*
X174525000Y-104767000D01*
X174485000Y-109861000D02*
X174485000Y-104769000D01*
X174445000Y-109858000D02*
X174445000Y-104772000D01*
X174405000Y-109854000D02*
X174405000Y-104776000D01*
X174365000Y-109850000D02*
X174365000Y-108295000D01*
X174365000Y-106335000D02*
X174365000Y-104780000D01*
X174325000Y-109846000D02*
X174325000Y-108295000D01*
X174325000Y-106335000D02*
X174325000Y-104784000D01*
X174285000Y-109840000D02*
X174285000Y-108295000D01*
X174285000Y-106335000D02*
X174285000Y-104790000D01*
X174245000Y-109834000D02*
X174245000Y-108295000D01*
X174245000Y-106335000D02*
X174245000Y-104796000D01*
X174205000Y-109828000D02*
X174205000Y-108295000D01*
X174205000Y-106335000D02*
X174205000Y-104802000D01*
X174165000Y-109821000D02*
X174165000Y-108295000D01*
X174165000Y-106335000D02*
X174165000Y-104809000D01*
X174125000Y-109813000D02*
X174125000Y-108295000D01*
X174125000Y-106335000D02*
X174125000Y-104817000D01*
X174085000Y-109804000D02*
X174085000Y-108295000D01*
X174085000Y-106335000D02*
X174085000Y-104826000D01*
X174045000Y-109795000D02*
X174045000Y-108295000D01*
X174045000Y-106335000D02*
X174045000Y-104835000D01*
X174005000Y-109785000D02*
X174005000Y-108295000D01*
X174005000Y-106335000D02*
X174005000Y-104845000D01*
X173965000Y-109775000D02*
X173965000Y-108295000D01*
X173965000Y-106335000D02*
X173965000Y-104855000D01*
X173924000Y-109763000D02*
X173924000Y-108295000D01*
X173924000Y-106335000D02*
X173924000Y-104867000D01*
X173884000Y-109751000D02*
X173884000Y-108295000D01*
X173884000Y-106335000D02*
X173884000Y-104879000D01*
X173844000Y-109739000D02*
X173844000Y-108295000D01*
X173844000Y-106335000D02*
X173844000Y-104891000D01*
X173804000Y-109725000D02*
X173804000Y-108295000D01*
X173804000Y-106335000D02*
X173804000Y-104905000D01*
X173764000Y-109711000D02*
X173764000Y-108295000D01*
X173764000Y-106335000D02*
X173764000Y-104919000D01*
X173724000Y-109697000D02*
X173724000Y-108295000D01*
X173724000Y-106335000D02*
X173724000Y-104933000D01*
X173684000Y-109681000D02*
X173684000Y-108295000D01*
X173684000Y-106335000D02*
X173684000Y-104949000D01*
X173644000Y-109665000D02*
X173644000Y-108295000D01*
X173644000Y-106335000D02*
X173644000Y-104965000D01*
X173604000Y-109648000D02*
X173604000Y-108295000D01*
X173604000Y-106335000D02*
X173604000Y-104982000D01*
X173564000Y-109630000D02*
X173564000Y-108295000D01*
X173564000Y-106335000D02*
X173564000Y-105000000D01*
X173524000Y-109611000D02*
X173524000Y-108295000D01*
X173524000Y-106335000D02*
X173524000Y-105019000D01*
X173484000Y-109591000D02*
X173484000Y-108295000D01*
X173484000Y-106335000D02*
X173484000Y-105039000D01*
X173444000Y-109571000D02*
X173444000Y-108295000D01*
X173444000Y-106335000D02*
X173444000Y-105059000D01*
X173404000Y-109549000D02*
X173404000Y-108295000D01*
X173404000Y-106335000D02*
X173404000Y-105081000D01*
X173364000Y-109527000D02*
X173364000Y-108295000D01*
X173364000Y-106335000D02*
X173364000Y-105103000D01*
X173324000Y-109504000D02*
X173324000Y-108295000D01*
X173324000Y-106335000D02*
X173324000Y-105126000D01*
X173284000Y-109480000D02*
X173284000Y-108295000D01*
X173284000Y-106335000D02*
X173284000Y-105150000D01*
X173244000Y-109455000D02*
X173244000Y-108295000D01*
X173244000Y-106335000D02*
X173244000Y-105175000D01*
X173204000Y-109428000D02*
X173204000Y-108295000D01*
X173204000Y-106335000D02*
X173204000Y-105202000D01*
X173164000Y-109401000D02*
X173164000Y-108295000D01*
X173164000Y-106335000D02*
X173164000Y-105229000D01*
X173124000Y-109373000D02*
X173124000Y-108295000D01*
X173124000Y-106335000D02*
X173124000Y-105257000D01*
X173084000Y-109343000D02*
X173084000Y-108295000D01*
X173084000Y-106335000D02*
X173084000Y-105287000D01*
X173044000Y-109312000D02*
X173044000Y-108295000D01*
X173044000Y-106335000D02*
X173044000Y-105318000D01*
X173004000Y-109280000D02*
X173004000Y-108295000D01*
X173004000Y-106335000D02*
X173004000Y-105350000D01*
X172964000Y-109247000D02*
X172964000Y-108295000D01*
X172964000Y-106335000D02*
X172964000Y-105383000D01*
X172924000Y-109212000D02*
X172924000Y-108295000D01*
X172924000Y-106335000D02*
X172924000Y-105418000D01*
X172884000Y-109176000D02*
X172884000Y-108295000D01*
X172884000Y-106335000D02*
X172884000Y-105454000D01*
X172844000Y-109138000D02*
X172844000Y-108295000D01*
X172844000Y-106335000D02*
X172844000Y-105492000D01*
X172804000Y-109098000D02*
X172804000Y-108295000D01*
X172804000Y-106335000D02*
X172804000Y-105532000D01*
X172764000Y-109057000D02*
X172764000Y-108295000D01*
X172764000Y-106335000D02*
X172764000Y-105573000D01*
X172724000Y-109014000D02*
X172724000Y-108295000D01*
X172724000Y-106335000D02*
X172724000Y-105616000D01*
X172684000Y-108969000D02*
X172684000Y-108295000D01*
X172684000Y-106335000D02*
X172684000Y-105661000D01*
X172644000Y-108921000D02*
X172644000Y-108295000D01*
X172644000Y-106335000D02*
X172644000Y-105709000D01*
X172604000Y-108871000D02*
X172604000Y-108295000D01*
X172604000Y-106335000D02*
X172604000Y-105759000D01*
X172564000Y-108819000D02*
X172564000Y-108295000D01*
X172564000Y-106335000D02*
X172564000Y-105811000D01*
X172524000Y-108763000D02*
X172524000Y-108295000D01*
X172524000Y-106335000D02*
X172524000Y-105867000D01*
X172484000Y-108705000D02*
X172484000Y-108295000D01*
X172484000Y-106335000D02*
X172484000Y-105925000D01*
X172444000Y-108642000D02*
X172444000Y-108295000D01*
X172444000Y-106335000D02*
X172444000Y-105988000D01*
X172404000Y-108576000D02*
X172404000Y-106054000D01*
X172364000Y-108504000D02*
X172364000Y-106126000D01*
X172324000Y-108427000D02*
X172324000Y-106203000D01*
X172284000Y-108343000D02*
X172284000Y-106287000D01*
X172244000Y-108249000D02*
X172244000Y-106381000D01*
X172204000Y-108144000D02*
X172204000Y-106486000D01*
X172164000Y-108022000D02*
X172164000Y-106608000D01*
X172124000Y-107874000D02*
X172124000Y-106756000D01*
X172084000Y-107669000D02*
X172084000Y-106961000D01*
X178095000Y-107315000D02*
X176895000Y-107315000D01*
X177495000Y-107965000D02*
X177495000Y-106665000D01*
X194370000Y-148760000D02*
X95190000Y-148760000D01*
X95190000Y-148760000D02*
X95190000Y-151420000D01*
X95190000Y-151420000D02*
X194370000Y-151420000D01*
X194370000Y-151420000D02*
X194370000Y-148760000D01*
X193420000Y-151420000D02*
X193420000Y-157420000D01*
X193420000Y-157420000D02*
X192660000Y-157420000D01*
X192660000Y-157420000D02*
X192660000Y-151420000D01*
X193360000Y-151420000D02*
X193360000Y-157420000D01*
X193240000Y-151420000D02*
X193240000Y-157420000D01*
X193120000Y-151420000D02*
X193120000Y-157420000D01*
X193000000Y-151420000D02*
X193000000Y-157420000D01*
X192880000Y-151420000D02*
X192880000Y-157420000D01*
X192760000Y-151420000D02*
X192760000Y-157420000D01*
X193420000Y-148430000D02*
X193420000Y-148760000D01*
X192660000Y-148430000D02*
X192660000Y-148760000D01*
X191770000Y-148760000D02*
X191770000Y-151420000D01*
X190880000Y-151420000D02*
X190880000Y-157420000D01*
X190880000Y-157420000D02*
X190120000Y-157420000D01*
X190120000Y-157420000D02*
X190120000Y-151420000D01*
X190880000Y-148362929D02*
X190880000Y-148760000D01*
X190120000Y-148362929D02*
X190120000Y-148760000D01*
X189230000Y-148760000D02*
X189230000Y-151420000D01*
X188340000Y-151420000D02*
X188340000Y-157420000D01*
X188340000Y-157420000D02*
X187580000Y-157420000D01*
X187580000Y-157420000D02*
X187580000Y-151420000D01*
X188340000Y-148362929D02*
X188340000Y-148760000D01*
X187580000Y-148362929D02*
X187580000Y-148760000D01*
X186690000Y-148760000D02*
X186690000Y-151420000D01*
X185800000Y-151420000D02*
X185800000Y-157420000D01*
X185800000Y-157420000D02*
X185040000Y-157420000D01*
X185040000Y-157420000D02*
X185040000Y-151420000D01*
X185800000Y-148362929D02*
X185800000Y-148760000D01*
X185040000Y-148362929D02*
X185040000Y-148760000D01*
X184150000Y-148760000D02*
X184150000Y-151420000D01*
X183260000Y-151420000D02*
X183260000Y-157420000D01*
X183260000Y-157420000D02*
X182500000Y-157420000D01*
X182500000Y-157420000D02*
X182500000Y-151420000D01*
X183260000Y-148362929D02*
X183260000Y-148760000D01*
X182500000Y-148362929D02*
X182500000Y-148760000D01*
X181610000Y-148760000D02*
X181610000Y-151420000D01*
X180720000Y-151420000D02*
X180720000Y-157420000D01*
X180720000Y-157420000D02*
X179960000Y-157420000D01*
X179960000Y-157420000D02*
X179960000Y-151420000D01*
X180720000Y-148362929D02*
X180720000Y-148760000D01*
X179960000Y-148362929D02*
X179960000Y-148760000D01*
X179070000Y-148760000D02*
X179070000Y-151420000D01*
X178180000Y-151420000D02*
X178180000Y-157420000D01*
X178180000Y-157420000D02*
X177420000Y-157420000D01*
X177420000Y-157420000D02*
X177420000Y-151420000D01*
X178180000Y-148362929D02*
X178180000Y-148760000D01*
X177420000Y-148362929D02*
X177420000Y-148760000D01*
X176530000Y-148760000D02*
X176530000Y-151420000D01*
X175640000Y-151420000D02*
X175640000Y-157420000D01*
X175640000Y-157420000D02*
X174880000Y-157420000D01*
X174880000Y-157420000D02*
X174880000Y-151420000D01*
X175640000Y-148362929D02*
X175640000Y-148760000D01*
X174880000Y-148362929D02*
X174880000Y-148760000D01*
X173990000Y-148760000D02*
X173990000Y-151420000D01*
X173100000Y-151420000D02*
X173100000Y-157420000D01*
X173100000Y-157420000D02*
X172340000Y-157420000D01*
X172340000Y-157420000D02*
X172340000Y-151420000D01*
X173100000Y-148362929D02*
X173100000Y-148760000D01*
X172340000Y-148362929D02*
X172340000Y-148760000D01*
X171450000Y-148760000D02*
X171450000Y-151420000D01*
X170560000Y-151420000D02*
X170560000Y-157420000D01*
X170560000Y-157420000D02*
X169800000Y-157420000D01*
X169800000Y-157420000D02*
X169800000Y-151420000D01*
X170560000Y-148362929D02*
X170560000Y-148760000D01*
X169800000Y-148362929D02*
X169800000Y-148760000D01*
X168910000Y-148760000D02*
X168910000Y-151420000D01*
X168020000Y-151420000D02*
X168020000Y-157420000D01*
X168020000Y-157420000D02*
X167260000Y-157420000D01*
X167260000Y-157420000D02*
X167260000Y-151420000D01*
X168020000Y-148362929D02*
X168020000Y-148760000D01*
X167260000Y-148362929D02*
X167260000Y-148760000D01*
X166370000Y-148760000D02*
X166370000Y-151420000D01*
X165480000Y-151420000D02*
X165480000Y-157420000D01*
X165480000Y-157420000D02*
X164720000Y-157420000D01*
X164720000Y-157420000D02*
X164720000Y-151420000D01*
X165480000Y-148362929D02*
X165480000Y-148760000D01*
X164720000Y-148362929D02*
X164720000Y-148760000D01*
X163830000Y-148760000D02*
X163830000Y-151420000D01*
X162940000Y-151420000D02*
X162940000Y-157420000D01*
X162940000Y-157420000D02*
X162180000Y-157420000D01*
X162180000Y-157420000D02*
X162180000Y-151420000D01*
X162940000Y-148362929D02*
X162940000Y-148760000D01*
X162180000Y-148362929D02*
X162180000Y-148760000D01*
X161290000Y-148760000D02*
X161290000Y-151420000D01*
X160400000Y-151420000D02*
X160400000Y-157420000D01*
X160400000Y-157420000D02*
X159640000Y-157420000D01*
X159640000Y-157420000D02*
X159640000Y-151420000D01*
X160400000Y-148362929D02*
X160400000Y-148760000D01*
X159640000Y-148362929D02*
X159640000Y-148760000D01*
X158750000Y-148760000D02*
X158750000Y-151420000D01*
X157860000Y-151420000D02*
X157860000Y-157420000D01*
X157860000Y-157420000D02*
X157100000Y-157420000D01*
X157100000Y-157420000D02*
X157100000Y-151420000D01*
X157860000Y-148362929D02*
X157860000Y-148760000D01*
X157100000Y-148362929D02*
X157100000Y-148760000D01*
X156210000Y-148760000D02*
X156210000Y-151420000D01*
X155320000Y-151420000D02*
X155320000Y-157420000D01*
X155320000Y-157420000D02*
X154560000Y-157420000D01*
X154560000Y-157420000D02*
X154560000Y-151420000D01*
X155320000Y-148362929D02*
X155320000Y-148760000D01*
X154560000Y-148362929D02*
X154560000Y-148760000D01*
X153670000Y-148760000D02*
X153670000Y-151420000D01*
X152780000Y-151420000D02*
X152780000Y-157420000D01*
X152780000Y-157420000D02*
X152020000Y-157420000D01*
X152020000Y-157420000D02*
X152020000Y-151420000D01*
X152780000Y-148362929D02*
X152780000Y-148760000D01*
X152020000Y-148362929D02*
X152020000Y-148760000D01*
X151130000Y-148760000D02*
X151130000Y-151420000D01*
X150240000Y-151420000D02*
X150240000Y-157420000D01*
X150240000Y-157420000D02*
X149480000Y-157420000D01*
X149480000Y-157420000D02*
X149480000Y-151420000D01*
X150240000Y-148362929D02*
X150240000Y-148760000D01*
X149480000Y-148362929D02*
X149480000Y-148760000D01*
X148590000Y-148760000D02*
X148590000Y-151420000D01*
X147700000Y-151420000D02*
X147700000Y-157420000D01*
X147700000Y-157420000D02*
X146940000Y-157420000D01*
X146940000Y-157420000D02*
X146940000Y-151420000D01*
X147700000Y-148362929D02*
X147700000Y-148760000D01*
X146940000Y-148362929D02*
X146940000Y-148760000D01*
X146050000Y-148760000D02*
X146050000Y-151420000D01*
X145160000Y-151420000D02*
X145160000Y-157420000D01*
X145160000Y-157420000D02*
X144400000Y-157420000D01*
X144400000Y-157420000D02*
X144400000Y-151420000D01*
X145160000Y-148362929D02*
X145160000Y-148760000D01*
X144400000Y-148362929D02*
X144400000Y-148760000D01*
X143510000Y-148760000D02*
X143510000Y-151420000D01*
X142620000Y-151420000D02*
X142620000Y-157420000D01*
X142620000Y-157420000D02*
X141860000Y-157420000D01*
X141860000Y-157420000D02*
X141860000Y-151420000D01*
X142620000Y-148362929D02*
X142620000Y-148760000D01*
X141860000Y-148362929D02*
X141860000Y-148760000D01*
X140970000Y-148760000D02*
X140970000Y-151420000D01*
X140080000Y-151420000D02*
X140080000Y-157420000D01*
X140080000Y-157420000D02*
X139320000Y-157420000D01*
X139320000Y-157420000D02*
X139320000Y-151420000D01*
X140080000Y-148362929D02*
X140080000Y-148760000D01*
X139320000Y-148362929D02*
X139320000Y-148760000D01*
X138430000Y-148760000D02*
X138430000Y-151420000D01*
X137540000Y-151420000D02*
X137540000Y-157420000D01*
X137540000Y-157420000D02*
X136780000Y-157420000D01*
X136780000Y-157420000D02*
X136780000Y-151420000D01*
X137540000Y-148362929D02*
X137540000Y-148760000D01*
X136780000Y-148362929D02*
X136780000Y-148760000D01*
X135890000Y-148760000D02*
X135890000Y-151420000D01*
X135000000Y-151420000D02*
X135000000Y-157420000D01*
X135000000Y-157420000D02*
X134240000Y-157420000D01*
X134240000Y-157420000D02*
X134240000Y-151420000D01*
X135000000Y-148362929D02*
X135000000Y-148760000D01*
X134240000Y-148362929D02*
X134240000Y-148760000D01*
X133350000Y-148760000D02*
X133350000Y-151420000D01*
X132460000Y-151420000D02*
X132460000Y-157420000D01*
X132460000Y-157420000D02*
X131700000Y-157420000D01*
X131700000Y-157420000D02*
X131700000Y-151420000D01*
X132460000Y-148362929D02*
X132460000Y-148760000D01*
X131700000Y-148362929D02*
X131700000Y-148760000D01*
X130810000Y-148760000D02*
X130810000Y-151420000D01*
X129920000Y-151420000D02*
X129920000Y-157420000D01*
X129920000Y-157420000D02*
X129160000Y-157420000D01*
X129160000Y-157420000D02*
X129160000Y-151420000D01*
X129920000Y-148362929D02*
X129920000Y-148760000D01*
X129160000Y-148362929D02*
X129160000Y-148760000D01*
X128270000Y-148760000D02*
X128270000Y-151420000D01*
X127380000Y-151420000D02*
X127380000Y-157420000D01*
X127380000Y-157420000D02*
X126620000Y-157420000D01*
X126620000Y-157420000D02*
X126620000Y-151420000D01*
X127380000Y-148362929D02*
X127380000Y-148760000D01*
X126620000Y-148362929D02*
X126620000Y-148760000D01*
X125730000Y-148760000D02*
X125730000Y-151420000D01*
X124840000Y-151420000D02*
X124840000Y-157420000D01*
X124840000Y-157420000D02*
X124080000Y-157420000D01*
X124080000Y-157420000D02*
X124080000Y-151420000D01*
X124840000Y-148362929D02*
X124840000Y-148760000D01*
X124080000Y-148362929D02*
X124080000Y-148760000D01*
X123190000Y-148760000D02*
X123190000Y-151420000D01*
X122300000Y-151420000D02*
X122300000Y-157420000D01*
X122300000Y-157420000D02*
X121540000Y-157420000D01*
X121540000Y-157420000D02*
X121540000Y-151420000D01*
X122300000Y-148362929D02*
X122300000Y-148760000D01*
X121540000Y-148362929D02*
X121540000Y-148760000D01*
X120650000Y-148760000D02*
X120650000Y-151420000D01*
X119760000Y-151420000D02*
X119760000Y-157420000D01*
X119760000Y-157420000D02*
X119000000Y-157420000D01*
X119000000Y-157420000D02*
X119000000Y-151420000D01*
X119760000Y-148362929D02*
X119760000Y-148760000D01*
X119000000Y-148362929D02*
X119000000Y-148760000D01*
X118110000Y-148760000D02*
X118110000Y-151420000D01*
X117220000Y-151420000D02*
X117220000Y-157420000D01*
X117220000Y-157420000D02*
X116460000Y-157420000D01*
X116460000Y-157420000D02*
X116460000Y-151420000D01*
X117220000Y-148362929D02*
X117220000Y-148760000D01*
X116460000Y-148362929D02*
X116460000Y-148760000D01*
X115570000Y-148760000D02*
X115570000Y-151420000D01*
X114680000Y-151420000D02*
X114680000Y-157420000D01*
X114680000Y-157420000D02*
X113920000Y-157420000D01*
X113920000Y-157420000D02*
X113920000Y-151420000D01*
X114680000Y-148362929D02*
X114680000Y-148760000D01*
X113920000Y-148362929D02*
X113920000Y-148760000D01*
X113030000Y-148760000D02*
X113030000Y-151420000D01*
X112140000Y-151420000D02*
X112140000Y-157420000D01*
X112140000Y-157420000D02*
X111380000Y-157420000D01*
X111380000Y-157420000D02*
X111380000Y-151420000D01*
X112140000Y-148362929D02*
X112140000Y-148760000D01*
X111380000Y-148362929D02*
X111380000Y-148760000D01*
X110490000Y-148760000D02*
X110490000Y-151420000D01*
X109600000Y-151420000D02*
X109600000Y-157420000D01*
X109600000Y-157420000D02*
X108840000Y-157420000D01*
X108840000Y-157420000D02*
X108840000Y-151420000D01*
X109600000Y-148362929D02*
X109600000Y-148760000D01*
X108840000Y-148362929D02*
X108840000Y-148760000D01*
X107950000Y-148760000D02*
X107950000Y-151420000D01*
X107060000Y-151420000D02*
X107060000Y-157420000D01*
X107060000Y-157420000D02*
X106300000Y-157420000D01*
X106300000Y-157420000D02*
X106300000Y-151420000D01*
X107060000Y-148362929D02*
X107060000Y-148760000D01*
X106300000Y-148362929D02*
X106300000Y-148760000D01*
X105410000Y-148760000D02*
X105410000Y-151420000D01*
X104520000Y-151420000D02*
X104520000Y-157420000D01*
X104520000Y-157420000D02*
X103760000Y-157420000D01*
X103760000Y-157420000D02*
X103760000Y-151420000D01*
X104520000Y-148362929D02*
X104520000Y-148760000D01*
X103760000Y-148362929D02*
X103760000Y-148760000D01*
X102870000Y-148760000D02*
X102870000Y-151420000D01*
X101980000Y-151420000D02*
X101980000Y-157420000D01*
X101980000Y-157420000D02*
X101220000Y-157420000D01*
X101220000Y-157420000D02*
X101220000Y-151420000D01*
X101980000Y-148362929D02*
X101980000Y-148760000D01*
X101220000Y-148362929D02*
X101220000Y-148760000D01*
X100330000Y-148760000D02*
X100330000Y-151420000D01*
X99440000Y-151420000D02*
X99440000Y-157420000D01*
X99440000Y-157420000D02*
X98680000Y-157420000D01*
X98680000Y-157420000D02*
X98680000Y-151420000D01*
X99440000Y-148362929D02*
X99440000Y-148760000D01*
X98680000Y-148362929D02*
X98680000Y-148760000D01*
X97790000Y-148760000D02*
X97790000Y-151420000D01*
X96900000Y-151420000D02*
X96900000Y-157420000D01*
X96900000Y-157420000D02*
X96140000Y-157420000D01*
X96140000Y-157420000D02*
X96140000Y-151420000D01*
X96900000Y-148362929D02*
X96900000Y-148760000D01*
X96140000Y-148362929D02*
X96140000Y-148760000D01*
X193040000Y-146050000D02*
X194310000Y-146050000D01*
X194310000Y-146050000D02*
X194310000Y-147320000D01*
X179435000Y-112335000D02*
G75*
G02X177435000Y-112335000I-1000000J0D01*
G01*
X177435000Y-112335000D02*
X175785000Y-112335000D01*
X175785000Y-112335000D02*
X175785000Y-132775000D01*
X175785000Y-132775000D02*
X181085000Y-132775000D01*
X181085000Y-132775000D02*
X181085000Y-112335000D01*
X181085000Y-112335000D02*
X179435000Y-112335000D01*
X173295000Y-112275000D02*
X173295000Y-132835000D01*
X173295000Y-132835000D02*
X183575000Y-132835000D01*
X183575000Y-132835000D02*
X183575000Y-112275000D01*
X183575000Y-112275000D02*
X173295000Y-112275000D01*
X164195000Y-112335000D02*
G75*
G02X162195000Y-112335000I-1000000J0D01*
G01*
X162195000Y-112335000D02*
X160545000Y-112335000D01*
X160545000Y-112335000D02*
X160545000Y-132775000D01*
X160545000Y-132775000D02*
X165845000Y-132775000D01*
X165845000Y-132775000D02*
X165845000Y-112335000D01*
X165845000Y-112335000D02*
X164195000Y-112335000D01*
X158055000Y-112275000D02*
X158055000Y-132835000D01*
X158055000Y-132835000D02*
X168335000Y-132835000D01*
X168335000Y-132835000D02*
X168335000Y-112275000D01*
X168335000Y-112275000D02*
X158055000Y-112275000D01*
X188535000Y-127695000D02*
X193735000Y-127695000D01*
X188535000Y-114935000D02*
X188535000Y-127695000D01*
X193735000Y-112335000D02*
X193735000Y-127695000D01*
X188535000Y-114935000D02*
X191135000Y-114935000D01*
X191135000Y-114935000D02*
X191135000Y-112335000D01*
X191135000Y-112335000D02*
X193735000Y-112335000D01*
X188535000Y-113665000D02*
X188535000Y-112335000D01*
X188535000Y-112335000D02*
X189865000Y-112335000D01*
X118785000Y-101055000D02*
X118785000Y-105875000D01*
X116165000Y-101055000D02*
X116165000Y-105875000D01*
X118785000Y-101055000D02*
X118471000Y-101055000D01*
X116479000Y-101055000D02*
X116165000Y-101055000D01*
X118785000Y-105875000D02*
X118471000Y-105875000D01*
X116479000Y-105875000D02*
X116165000Y-105875000D01*
X187365000Y-113755000D02*
X187365000Y-118575000D01*
X184745000Y-113755000D02*
X184745000Y-118575000D01*
X187365000Y-113755000D02*
X187051000Y-113755000D01*
X185059000Y-113755000D02*
X184745000Y-113755000D01*
X187365000Y-118575000D02*
X187051000Y-118575000D01*
X185059000Y-118575000D02*
X184745000Y-118575000D01*
X118785000Y-113755000D02*
X118785000Y-118575000D01*
X116165000Y-113755000D02*
X116165000Y-118575000D01*
X118785000Y-113755000D02*
X118471000Y-113755000D01*
X116479000Y-113755000D02*
X116165000Y-113755000D01*
X118785000Y-118575000D02*
X118471000Y-118575000D01*
X116479000Y-118575000D02*
X116165000Y-118575000D01*
X172125000Y-113755000D02*
X172125000Y-118575000D01*
X169505000Y-113755000D02*
X169505000Y-118575000D01*
X172125000Y-113755000D02*
X171811000Y-113755000D01*
X169819000Y-113755000D02*
X169505000Y-113755000D01*
X172125000Y-118575000D02*
X171811000Y-118575000D01*
X169819000Y-118575000D02*
X169505000Y-118575000D01*
X188630000Y-101640000D02*
X188630000Y-99020000D01*
X188630000Y-99020000D02*
X182210000Y-99020000D01*
X182210000Y-99020000D02*
X182210000Y-101640000D01*
X182210000Y-101640000D02*
X188630000Y-101640000D01*
X189520000Y-100330000D02*
X188630000Y-100330000D01*
X181320000Y-100330000D02*
X182210000Y-100330000D01*
X188630000Y-105450000D02*
X188630000Y-102830000D01*
X188630000Y-102830000D02*
X182210000Y-102830000D01*
X182210000Y-102830000D02*
X182210000Y-105450000D01*
X182210000Y-105450000D02*
X188630000Y-105450000D01*
X189520000Y-104140000D02*
X188630000Y-104140000D01*
X181320000Y-104140000D02*
X182210000Y-104140000D01*
X182210000Y-95210000D02*
X182210000Y-97830000D01*
X182210000Y-97830000D02*
X188630000Y-97830000D01*
X188630000Y-97830000D02*
X188630000Y-95210000D01*
X188630000Y-95210000D02*
X182210000Y-95210000D01*
X181320000Y-96520000D02*
X182210000Y-96520000D01*
X189520000Y-96520000D02*
X188630000Y-96520000D01*
X109980000Y-79995000D02*
X103580000Y-79995000D01*
X109980000Y-74945000D02*
X103580000Y-74945000D01*
X109980000Y-74945000D02*
G75*
G02X109980000Y-79995000I0J-2525000D01*
G01*
X103580000Y-74945000D02*
G75*
G03X103580000Y-79995000I0J-2525000D01*
G01*
X150535000Y-75020000D02*
X150535000Y-79840000D01*
X147915000Y-75020000D02*
X147915000Y-79840000D01*
X150535000Y-75020000D02*
X150221000Y-75020000D01*
X148229000Y-75020000D02*
X147915000Y-75020000D01*
X150535000Y-79840000D02*
X150221000Y-79840000D01*
X148229000Y-79840000D02*
X147915000Y-79840000D01*
X135295000Y-75020000D02*
X135295000Y-79840000D01*
X132675000Y-75020000D02*
X132675000Y-79840000D01*
X135295000Y-75020000D02*
X134981000Y-75020000D01*
X132989000Y-75020000D02*
X132675000Y-75020000D01*
X135295000Y-79840000D02*
X134981000Y-79840000D01*
X132989000Y-79840000D02*
X132675000Y-79840000D01*
X165775000Y-75020000D02*
X165775000Y-79840000D01*
X163155000Y-75020000D02*
X163155000Y-79840000D01*
X165775000Y-75020000D02*
X165461000Y-75020000D01*
X163469000Y-75020000D02*
X163155000Y-75020000D01*
X165775000Y-79840000D02*
X165461000Y-79840000D01*
X163469000Y-79840000D02*
X163155000Y-79840000D01*
X99735000Y-75020000D02*
X99735000Y-79840000D01*
X97115000Y-75020000D02*
X97115000Y-79840000D01*
X99735000Y-75020000D02*
X99421000Y-75020000D01*
X97429000Y-75020000D02*
X97115000Y-75020000D01*
X99735000Y-79840000D02*
X99421000Y-79840000D01*
X97429000Y-79840000D02*
X97115000Y-79840000D01*
X116245000Y-75020000D02*
X116245000Y-79840000D01*
X113625000Y-75020000D02*
X113625000Y-79840000D01*
X116245000Y-75020000D02*
X115931000Y-75020000D01*
X113939000Y-75020000D02*
X113625000Y-75020000D01*
X116245000Y-79840000D02*
X115931000Y-79840000D01*
X113939000Y-79840000D02*
X113625000Y-79840000D01*
X172175000Y-100925000D02*
X176995000Y-100925000D01*
X172175000Y-103545000D02*
X176995000Y-103545000D01*
X172175000Y-100925000D02*
X172175000Y-101239000D01*
X172175000Y-103231000D02*
X172175000Y-103545000D01*
X176995000Y-100925000D02*
X176995000Y-101239000D01*
X176995000Y-103231000D02*
X176995000Y-103545000D01*
X181065277Y-89154278D02*
G75*
G03X181065000Y-93765580I1179723J-2305722D01*
G01*
X183424723Y-89154278D02*
G75*
G02X183425000Y-93765580I-1179723J-2305722D01*
G01*
X183424723Y-89154278D02*
G75*
G03X181065000Y-89154420I-1179723J-2305722D01*
G01*
X179695000Y-91460000D02*
X184795000Y-91460000D01*
X179695000Y-91420000D02*
X184795000Y-91420000D01*
X179696000Y-91380000D02*
X184794000Y-91380000D01*
X179697000Y-91340000D02*
X184793000Y-91340000D01*
X179699000Y-91300000D02*
X184791000Y-91300000D01*
X179702000Y-91260000D02*
X184788000Y-91260000D01*
X179706000Y-91220000D02*
X184784000Y-91220000D01*
X179710000Y-91180000D02*
X181265000Y-91180000D01*
X183225000Y-91180000D02*
X184780000Y-91180000D01*
X179714000Y-91140000D02*
X181265000Y-91140000D01*
X183225000Y-91140000D02*
X184776000Y-91140000D01*
X179720000Y-91100000D02*
X181265000Y-91100000D01*
X183225000Y-91100000D02*
X184770000Y-91100000D01*
X179726000Y-91060000D02*
X181265000Y-91060000D01*
X183225000Y-91060000D02*
X184764000Y-91060000D01*
X179732000Y-91020000D02*
X181265000Y-91020000D01*
X183225000Y-91020000D02*
X184758000Y-91020000D01*
X179739000Y-90980000D02*
X181265000Y-90980000D01*
X183225000Y-90980000D02*
X184751000Y-90980000D01*
X179747000Y-90940000D02*
X181265000Y-90940000D01*
X183225000Y-90940000D02*
X184743000Y-90940000D01*
X179756000Y-90900000D02*
X181265000Y-90900000D01*
X183225000Y-90900000D02*
X184734000Y-90900000D01*
X179765000Y-90860000D02*
X181265000Y-90860000D01*
X183225000Y-90860000D02*
X184725000Y-90860000D01*
X179775000Y-90820000D02*
X181265000Y-90820000D01*
X183225000Y-90820000D02*
X184715000Y-90820000D01*
X179785000Y-90780000D02*
X181265000Y-90780000D01*
X183225000Y-90780000D02*
X184705000Y-90780000D01*
X179797000Y-90739000D02*
X181265000Y-90739000D01*
X183225000Y-90739000D02*
X184693000Y-90739000D01*
X179809000Y-90699000D02*
X181265000Y-90699000D01*
X183225000Y-90699000D02*
X184681000Y-90699000D01*
X179821000Y-90659000D02*
X181265000Y-90659000D01*
X183225000Y-90659000D02*
X184669000Y-90659000D01*
X179835000Y-90619000D02*
X181265000Y-90619000D01*
X183225000Y-90619000D02*
X184655000Y-90619000D01*
X179849000Y-90579000D02*
X181265000Y-90579000D01*
X183225000Y-90579000D02*
X184641000Y-90579000D01*
X179863000Y-90539000D02*
X181265000Y-90539000D01*
X183225000Y-90539000D02*
X184627000Y-90539000D01*
X179879000Y-90499000D02*
X181265000Y-90499000D01*
X183225000Y-90499000D02*
X184611000Y-90499000D01*
X179895000Y-90459000D02*
X181265000Y-90459000D01*
X183225000Y-90459000D02*
X184595000Y-90459000D01*
X179912000Y-90419000D02*
X181265000Y-90419000D01*
X183225000Y-90419000D02*
X184578000Y-90419000D01*
X179930000Y-90379000D02*
X181265000Y-90379000D01*
X183225000Y-90379000D02*
X184560000Y-90379000D01*
X179949000Y-90339000D02*
X181265000Y-90339000D01*
X183225000Y-90339000D02*
X184541000Y-90339000D01*
X179969000Y-90299000D02*
X181265000Y-90299000D01*
X183225000Y-90299000D02*
X184521000Y-90299000D01*
X179989000Y-90259000D02*
X181265000Y-90259000D01*
X183225000Y-90259000D02*
X184501000Y-90259000D01*
X180011000Y-90219000D02*
X181265000Y-90219000D01*
X183225000Y-90219000D02*
X184479000Y-90219000D01*
X180033000Y-90179000D02*
X181265000Y-90179000D01*
X183225000Y-90179000D02*
X184457000Y-90179000D01*
X180056000Y-90139000D02*
X181265000Y-90139000D01*
X183225000Y-90139000D02*
X184434000Y-90139000D01*
X180080000Y-90099000D02*
X181265000Y-90099000D01*
X183225000Y-90099000D02*
X184410000Y-90099000D01*
X180105000Y-90059000D02*
X181265000Y-90059000D01*
X183225000Y-90059000D02*
X184385000Y-90059000D01*
X180132000Y-90019000D02*
X181265000Y-90019000D01*
X183225000Y-90019000D02*
X184358000Y-90019000D01*
X180159000Y-89979000D02*
X181265000Y-89979000D01*
X183225000Y-89979000D02*
X184331000Y-89979000D01*
X180187000Y-89939000D02*
X181265000Y-89939000D01*
X183225000Y-89939000D02*
X184303000Y-89939000D01*
X180217000Y-89899000D02*
X181265000Y-89899000D01*
X183225000Y-89899000D02*
X184273000Y-89899000D01*
X180248000Y-89859000D02*
X181265000Y-89859000D01*
X183225000Y-89859000D02*
X184242000Y-89859000D01*
X180280000Y-89819000D02*
X181265000Y-89819000D01*
X183225000Y-89819000D02*
X184210000Y-89819000D01*
X180313000Y-89779000D02*
X181265000Y-89779000D01*
X183225000Y-89779000D02*
X184177000Y-89779000D01*
X180348000Y-89739000D02*
X181265000Y-89739000D01*
X183225000Y-89739000D02*
X184142000Y-89739000D01*
X180384000Y-89699000D02*
X181265000Y-89699000D01*
X183225000Y-89699000D02*
X184106000Y-89699000D01*
X180422000Y-89659000D02*
X181265000Y-89659000D01*
X183225000Y-89659000D02*
X184068000Y-89659000D01*
X180462000Y-89619000D02*
X181265000Y-89619000D01*
X183225000Y-89619000D02*
X184028000Y-89619000D01*
X180503000Y-89579000D02*
X181265000Y-89579000D01*
X183225000Y-89579000D02*
X183987000Y-89579000D01*
X180546000Y-89539000D02*
X181265000Y-89539000D01*
X183225000Y-89539000D02*
X183944000Y-89539000D01*
X180591000Y-89499000D02*
X181265000Y-89499000D01*
X183225000Y-89499000D02*
X183899000Y-89499000D01*
X180639000Y-89459000D02*
X181265000Y-89459000D01*
X183225000Y-89459000D02*
X183851000Y-89459000D01*
X180689000Y-89419000D02*
X181265000Y-89419000D01*
X183225000Y-89419000D02*
X183801000Y-89419000D01*
X180741000Y-89379000D02*
X181265000Y-89379000D01*
X183225000Y-89379000D02*
X183749000Y-89379000D01*
X180797000Y-89339000D02*
X181265000Y-89339000D01*
X183225000Y-89339000D02*
X183693000Y-89339000D01*
X180855000Y-89299000D02*
X181265000Y-89299000D01*
X183225000Y-89299000D02*
X183635000Y-89299000D01*
X180918000Y-89259000D02*
X181265000Y-89259000D01*
X183225000Y-89259000D02*
X183572000Y-89259000D01*
X180984000Y-89219000D02*
X183506000Y-89219000D01*
X181056000Y-89179000D02*
X183434000Y-89179000D01*
X181133000Y-89139000D02*
X183357000Y-89139000D01*
X181217000Y-89099000D02*
X183273000Y-89099000D01*
X181311000Y-89059000D02*
X183179000Y-89059000D01*
X181416000Y-89019000D02*
X183074000Y-89019000D01*
X181538000Y-88979000D02*
X182952000Y-88979000D01*
X181686000Y-88939000D02*
X182804000Y-88939000D01*
X181891000Y-88899000D02*
X182599000Y-88899000D01*
X182245000Y-94910000D02*
X182245000Y-93710000D01*
X181595000Y-94310000D02*
X182895000Y-94310000D01*
X107795000Y-137370000D02*
X107795000Y-139490000D01*
X107795000Y-139490000D02*
X111915000Y-139490000D01*
X111915000Y-139490000D02*
X111915000Y-137370000D01*
X111915000Y-137370000D02*
X107795000Y-137370000D01*
X107025000Y-138430000D02*
X107795000Y-138430000D01*
X112685000Y-138430000D02*
X111915000Y-138430000D01*
X108455000Y-137370000D02*
X108455000Y-139490000D01*
X123250000Y-137100000D02*
X118050000Y-137100000D01*
X123250000Y-139700000D02*
X123250000Y-137100000D01*
X118050000Y-142300000D02*
X118050000Y-137100000D01*
X123250000Y-139700000D02*
X120650000Y-139700000D01*
X120650000Y-139700000D02*
X120650000Y-142300000D01*
X120650000Y-142300000D02*
X118050000Y-142300000D01*
X123250000Y-140970000D02*
X123250000Y-142300000D01*
X123250000Y-142300000D02*
X121920000Y-142300000D01*
D15*
X191655000Y-84795000D02*
X199655000Y-84795000D01*
X199655000Y-84795000D02*
X199655000Y-76495000D01*
X199655000Y-76495000D02*
X191655000Y-76495000D01*
X191655000Y-76495000D02*
X191655000Y-75345000D01*
X191655000Y-75345000D02*
X188555000Y-75345000D01*
X191655000Y-85945000D02*
X191655000Y-84795000D01*
X188455000Y-85945000D02*
X191655000Y-85945000D01*
X185155000Y-77295000D02*
X185155000Y-79845000D01*
X185155000Y-81545000D02*
X185155000Y-84045000D01*
D16*
X183805000Y-85845000D02*
G75*
G03X183805000Y-85845000I-200000J0D01*
G01*
D14*
X187380000Y-89640000D02*
X187380000Y-93240000D01*
X187391522Y-89601522D02*
G75*
G02X191830000Y-91440000I1838478J-1838478D01*
G01*
X187391522Y-93278478D02*
G75*
G03X191830000Y-91440000I1838478J1838478D01*
G01*
X107045000Y-81855000D02*
G75*
G02X105045000Y-81855000I-1000000J0D01*
G01*
X105045000Y-81855000D02*
X99985000Y-81855000D01*
X99985000Y-81855000D02*
X99985000Y-132775000D01*
X99985000Y-132775000D02*
X112105000Y-132775000D01*
X112105000Y-132775000D02*
X112105000Y-81855000D01*
X112105000Y-81855000D02*
X107045000Y-81855000D01*
X96985000Y-81795000D02*
X96985000Y-132835000D01*
X96985000Y-132835000D02*
X115105000Y-132835000D01*
X115105000Y-132835000D02*
X115105000Y-81795000D01*
X115105000Y-81795000D02*
X96985000Y-81795000D01*
X119955000Y-120285000D02*
G75*
G02X119955000Y-122285000I0J-1000000D01*
G01*
X119955000Y-122285000D02*
X119955000Y-127345000D01*
X119955000Y-127345000D02*
X155635000Y-127345000D01*
X155635000Y-127345000D02*
X155635000Y-115225000D01*
X155635000Y-115225000D02*
X119955000Y-115225000D01*
X119955000Y-115225000D02*
X119955000Y-120285000D01*
X119895000Y-130345000D02*
X155695000Y-130345000D01*
X155695000Y-130345000D02*
X155695000Y-112225000D01*
X155695000Y-112225000D02*
X119895000Y-112225000D01*
X119895000Y-112225000D02*
X119895000Y-130345000D01*
X173720000Y-73600000D02*
G75*
G02X171720000Y-73600000I-1000000J0D01*
G01*
X171720000Y-73600000D02*
X170070000Y-73600000D01*
X170070000Y-73600000D02*
X170070000Y-91500000D01*
X170070000Y-91500000D02*
X175370000Y-91500000D01*
X175370000Y-91500000D02*
X175370000Y-73600000D01*
X175370000Y-73600000D02*
X173720000Y-73600000D01*
X167580000Y-73540000D02*
X167580000Y-91560000D01*
X167580000Y-91560000D02*
X177860000Y-91560000D01*
X177860000Y-91560000D02*
X177860000Y-73540000D01*
X177860000Y-73540000D02*
X167580000Y-73540000D01*
X142605000Y-73600000D02*
G75*
G02X140605000Y-73600000I-1000000J0D01*
G01*
X140605000Y-73600000D02*
X138955000Y-73600000D01*
X138955000Y-73600000D02*
X138955000Y-99120000D01*
X138955000Y-99120000D02*
X144255000Y-99120000D01*
X144255000Y-99120000D02*
X144255000Y-73600000D01*
X144255000Y-73600000D02*
X142605000Y-73600000D01*
X136465000Y-73540000D02*
X136465000Y-99180000D01*
X136465000Y-99180000D02*
X146745000Y-99180000D01*
X146745000Y-99180000D02*
X146745000Y-73540000D01*
X146745000Y-73540000D02*
X136465000Y-73540000D01*
X126730000Y-73600000D02*
G75*
G02X124730000Y-73600000I-1000000J0D01*
G01*
X124730000Y-73600000D02*
X123080000Y-73600000D01*
X123080000Y-73600000D02*
X123080000Y-99120000D01*
X123080000Y-99120000D02*
X128380000Y-99120000D01*
X128380000Y-99120000D02*
X128380000Y-73600000D01*
X128380000Y-73600000D02*
X126730000Y-73600000D01*
X120590000Y-73540000D02*
X120590000Y-99180000D01*
X120590000Y-99180000D02*
X130870000Y-99180000D01*
X130870000Y-99180000D02*
X130870000Y-73540000D01*
X130870000Y-73540000D02*
X120590000Y-73540000D01*
X157845000Y-73600000D02*
G75*
G02X155845000Y-73600000I-1000000J0D01*
G01*
X155845000Y-73600000D02*
X154195000Y-73600000D01*
X154195000Y-73600000D02*
X154195000Y-99120000D01*
X154195000Y-99120000D02*
X159495000Y-99120000D01*
X159495000Y-99120000D02*
X159495000Y-73600000D01*
X159495000Y-73600000D02*
X157845000Y-73600000D01*
X151705000Y-73540000D02*
X151705000Y-99180000D01*
X151705000Y-99180000D02*
X161985000Y-99180000D01*
X161985000Y-99180000D02*
X161985000Y-73540000D01*
X161985000Y-73540000D02*
X151705000Y-73540000D01*
X181650000Y-75020000D02*
X181650000Y-79840000D01*
X179030000Y-75020000D02*
X179030000Y-79840000D01*
X181650000Y-75020000D02*
X181336000Y-75020000D01*
X179344000Y-75020000D02*
X179030000Y-75020000D01*
X181650000Y-79840000D02*
X181336000Y-79840000D01*
X179344000Y-79840000D02*
X179030000Y-79840000D01*
X188980000Y-110295000D02*
X188980000Y-106875000D01*
X188980000Y-106875000D02*
X181860000Y-106875000D01*
X181860000Y-106875000D02*
X181860000Y-110295000D01*
X181860000Y-110295000D02*
X188980000Y-110295000D01*
X189520000Y-108585000D02*
X188980000Y-108585000D01*
X181320000Y-108585000D02*
X181860000Y-108585000D01*
D10*
X175380714Y-109505714D02*
X175342619Y-109543810D01*
X175228333Y-109581905D01*
X175152143Y-109581905D01*
X175037857Y-109543810D01*
X174961666Y-109467619D01*
X174923571Y-109391429D01*
X174885476Y-109239048D01*
X174885476Y-109124762D01*
X174923571Y-108972381D01*
X174961666Y-108896190D01*
X175037857Y-108820000D01*
X175152143Y-108781905D01*
X175228333Y-108781905D01*
X175342619Y-108820000D01*
X175380714Y-108858095D01*
X176142619Y-109581905D02*
X175685476Y-109581905D01*
X175914047Y-109581905D02*
X175914047Y-108781905D01*
X175837857Y-108896190D01*
X175761666Y-108972381D01*
X175685476Y-109010476D01*
X176904524Y-109581905D02*
X176447381Y-109581905D01*
X176675952Y-109581905D02*
X176675952Y-108781905D01*
X176599762Y-108896190D01*
X176523571Y-108972381D01*
X176447381Y-109010476D01*
D11*
X194762381Y-152038333D02*
X195476667Y-152038333D01*
X195619524Y-152085953D01*
X195714762Y-152181191D01*
X195762381Y-152324048D01*
X195762381Y-152419286D01*
X195762381Y-151038333D02*
X195762381Y-151609762D01*
X195762381Y-151324048D02*
X194762381Y-151324048D01*
X194905238Y-151419286D01*
X195000476Y-151514524D01*
X195048095Y-151609762D01*
X177673095Y-115657381D02*
X177673095Y-116466905D01*
X177720714Y-116562143D01*
X177768333Y-116609762D01*
X177863571Y-116657381D01*
X178054048Y-116657381D01*
X178149286Y-116609762D01*
X178196905Y-116562143D01*
X178244524Y-116466905D01*
X178244524Y-115657381D01*
X178625476Y-115657381D02*
X179244524Y-115657381D01*
X178911190Y-116038333D01*
X179054048Y-116038333D01*
X179149286Y-116085952D01*
X179196905Y-116133571D01*
X179244524Y-116228810D01*
X179244524Y-116466905D01*
X179196905Y-116562143D01*
X179149286Y-116609762D01*
X179054048Y-116657381D01*
X178768333Y-116657381D01*
X178673095Y-116609762D01*
X178625476Y-116562143D01*
X177887381Y-125674048D02*
X177887381Y-125007381D01*
X178887381Y-125435953D01*
X178220714Y-124197857D02*
X178887381Y-124197857D01*
X177839762Y-124435953D02*
X178554048Y-124674048D01*
X178554048Y-124055000D01*
X178887381Y-123197857D02*
X178887381Y-123674048D01*
X177887381Y-123674048D01*
X178839762Y-122912143D02*
X178887381Y-122769286D01*
X178887381Y-122531190D01*
X178839762Y-122435952D01*
X178792143Y-122388333D01*
X178696905Y-122340714D01*
X178601667Y-122340714D01*
X178506429Y-122388333D01*
X178458810Y-122435952D01*
X178411190Y-122531190D01*
X178363571Y-122721667D01*
X178315952Y-122816905D01*
X178268333Y-122864524D01*
X178173095Y-122912143D01*
X178077857Y-122912143D01*
X177982619Y-122864524D01*
X177935000Y-122816905D01*
X177887381Y-122721667D01*
X177887381Y-122483571D01*
X177935000Y-122340714D01*
X178887381Y-121388333D02*
X178887381Y-121959762D01*
X178887381Y-121674048D02*
X177887381Y-121674048D01*
X178030238Y-121769286D01*
X178125476Y-121864524D01*
X178173095Y-121959762D01*
X177887381Y-121055000D02*
X177887381Y-120435952D01*
X178268333Y-120769286D01*
X178268333Y-120626428D01*
X178315952Y-120531190D01*
X178363571Y-120483571D01*
X178458810Y-120435952D01*
X178696905Y-120435952D01*
X178792143Y-120483571D01*
X178839762Y-120531190D01*
X178887381Y-120626428D01*
X178887381Y-120912143D01*
X178839762Y-121007381D01*
X178792143Y-121055000D01*
X178315952Y-119864524D02*
X178268333Y-119959762D01*
X178220714Y-120007381D01*
X178125476Y-120055000D01*
X178077857Y-120055000D01*
X177982619Y-120007381D01*
X177935000Y-119959762D01*
X177887381Y-119864524D01*
X177887381Y-119674047D01*
X177935000Y-119578809D01*
X177982619Y-119531190D01*
X178077857Y-119483571D01*
X178125476Y-119483571D01*
X178220714Y-119531190D01*
X178268333Y-119578809D01*
X178315952Y-119674047D01*
X178315952Y-119864524D01*
X178363571Y-119959762D01*
X178411190Y-120007381D01*
X178506429Y-120055000D01*
X178696905Y-120055000D01*
X178792143Y-120007381D01*
X178839762Y-119959762D01*
X178887381Y-119864524D01*
X178887381Y-119674047D01*
X178839762Y-119578809D01*
X178792143Y-119531190D01*
X178696905Y-119483571D01*
X178506429Y-119483571D01*
X178411190Y-119531190D01*
X178363571Y-119578809D01*
X178315952Y-119674047D01*
X162433095Y-115657381D02*
X162433095Y-116466905D01*
X162480714Y-116562143D01*
X162528333Y-116609762D01*
X162623571Y-116657381D01*
X162814048Y-116657381D01*
X162909286Y-116609762D01*
X162956905Y-116562143D01*
X163004524Y-116466905D01*
X163004524Y-115657381D01*
X163909286Y-115990714D02*
X163909286Y-116657381D01*
X163671190Y-115609762D02*
X163433095Y-116324048D01*
X164052143Y-116324048D01*
X162647381Y-125674048D02*
X162647381Y-125007381D01*
X163647381Y-125435953D01*
X162980714Y-124197857D02*
X163647381Y-124197857D01*
X162599762Y-124435953D02*
X163314048Y-124674048D01*
X163314048Y-124055000D01*
X163647381Y-123197857D02*
X163647381Y-123674048D01*
X162647381Y-123674048D01*
X163599762Y-122912143D02*
X163647381Y-122769286D01*
X163647381Y-122531190D01*
X163599762Y-122435952D01*
X163552143Y-122388333D01*
X163456905Y-122340714D01*
X163361667Y-122340714D01*
X163266429Y-122388333D01*
X163218810Y-122435952D01*
X163171190Y-122531190D01*
X163123571Y-122721667D01*
X163075952Y-122816905D01*
X163028333Y-122864524D01*
X162933095Y-122912143D01*
X162837857Y-122912143D01*
X162742619Y-122864524D01*
X162695000Y-122816905D01*
X162647381Y-122721667D01*
X162647381Y-122483571D01*
X162695000Y-122340714D01*
X163647381Y-121388333D02*
X163647381Y-121959762D01*
X163647381Y-121674048D02*
X162647381Y-121674048D01*
X162790238Y-121769286D01*
X162885476Y-121864524D01*
X162933095Y-121959762D01*
X162647381Y-121055000D02*
X162647381Y-120435952D01*
X163028333Y-120769286D01*
X163028333Y-120626428D01*
X163075952Y-120531190D01*
X163123571Y-120483571D01*
X163218810Y-120435952D01*
X163456905Y-120435952D01*
X163552143Y-120483571D01*
X163599762Y-120531190D01*
X163647381Y-120626428D01*
X163647381Y-120912143D01*
X163599762Y-121007381D01*
X163552143Y-121055000D01*
X163075952Y-119864524D02*
X163028333Y-119959762D01*
X162980714Y-120007381D01*
X162885476Y-120055000D01*
X162837857Y-120055000D01*
X162742619Y-120007381D01*
X162695000Y-119959762D01*
X162647381Y-119864524D01*
X162647381Y-119674047D01*
X162695000Y-119578809D01*
X162742619Y-119531190D01*
X162837857Y-119483571D01*
X162885476Y-119483571D01*
X162980714Y-119531190D01*
X163028333Y-119578809D01*
X163075952Y-119674047D01*
X163075952Y-119864524D01*
X163123571Y-119959762D01*
X163171190Y-120007381D01*
X163266429Y-120055000D01*
X163456905Y-120055000D01*
X163552143Y-120007381D01*
X163599762Y-119959762D01*
X163647381Y-119864524D01*
X163647381Y-119674047D01*
X163599762Y-119578809D01*
X163552143Y-119531190D01*
X163456905Y-119483571D01*
X163266429Y-119483571D01*
X163171190Y-119531190D01*
X163123571Y-119578809D01*
X163075952Y-119674047D01*
D10*
X187458333Y-125704286D02*
X187458333Y-125323334D01*
X187686905Y-125780477D02*
X186886905Y-125513810D01*
X187686905Y-125247143D01*
X187686905Y-124980477D02*
X186886905Y-124980477D01*
X186886905Y-124790001D01*
X186925000Y-124675715D01*
X187001190Y-124599524D01*
X187077381Y-124561429D01*
X187229762Y-124523334D01*
X187344048Y-124523334D01*
X187496429Y-124561429D01*
X187572619Y-124599524D01*
X187648810Y-124675715D01*
X187686905Y-124790001D01*
X187686905Y-124980477D01*
X187686905Y-124180477D02*
X186886905Y-124180477D01*
X186886905Y-123990001D01*
X186925000Y-123875715D01*
X187001190Y-123799524D01*
X187077381Y-123761429D01*
X187229762Y-123723334D01*
X187344048Y-123723334D01*
X187496429Y-123761429D01*
X187572619Y-123799524D01*
X187648810Y-123875715D01*
X187686905Y-123990001D01*
X187686905Y-124180477D01*
X187686905Y-122923334D02*
X187305952Y-123190001D01*
X187686905Y-123380477D02*
X186886905Y-123380477D01*
X186886905Y-123075715D01*
X186925000Y-122999524D01*
X186963095Y-122961429D01*
X187039286Y-122923334D01*
X187153571Y-122923334D01*
X187229762Y-122961429D01*
X187267857Y-122999524D01*
X187305952Y-123075715D01*
X187305952Y-123380477D01*
X187267857Y-122580477D02*
X187267857Y-122313810D01*
X187686905Y-122199524D02*
X187686905Y-122580477D01*
X186886905Y-122580477D01*
X186886905Y-122199524D01*
X187648810Y-121894762D02*
X187686905Y-121780476D01*
X187686905Y-121590000D01*
X187648810Y-121513810D01*
X187610714Y-121475714D01*
X187534524Y-121437619D01*
X187458333Y-121437619D01*
X187382143Y-121475714D01*
X187344048Y-121513810D01*
X187305952Y-121590000D01*
X187267857Y-121742381D01*
X187229762Y-121818572D01*
X187191667Y-121856667D01*
X187115476Y-121894762D01*
X187039286Y-121894762D01*
X186963095Y-121856667D01*
X186925000Y-121818572D01*
X186886905Y-121742381D01*
X186886905Y-121551905D01*
X186925000Y-121437619D01*
X187648810Y-121132857D02*
X187686905Y-121018571D01*
X187686905Y-120828095D01*
X187648810Y-120751905D01*
X187610714Y-120713809D01*
X187534524Y-120675714D01*
X187458333Y-120675714D01*
X187382143Y-120713809D01*
X187344048Y-120751905D01*
X187305952Y-120828095D01*
X187267857Y-120980476D01*
X187229762Y-121056667D01*
X187191667Y-121094762D01*
X187115476Y-121132857D01*
X187039286Y-121132857D01*
X186963095Y-121094762D01*
X186925000Y-121056667D01*
X186886905Y-120980476D01*
X186886905Y-120790000D01*
X186925000Y-120675714D01*
D11*
X117308334Y-103862143D02*
X117260715Y-103909762D01*
X117117858Y-103957381D01*
X117022620Y-103957381D01*
X116879762Y-103909762D01*
X116784524Y-103814524D01*
X116736905Y-103719286D01*
X116689286Y-103528810D01*
X116689286Y-103385952D01*
X116736905Y-103195476D01*
X116784524Y-103100238D01*
X116879762Y-103005000D01*
X117022620Y-102957381D01*
X117117858Y-102957381D01*
X117260715Y-103005000D01*
X117308334Y-103052619D01*
X118260715Y-103957381D02*
X117689286Y-103957381D01*
X117975000Y-103957381D02*
X117975000Y-102957381D01*
X117879762Y-103100238D01*
X117784524Y-103195476D01*
X117689286Y-103243095D01*
X185888334Y-116562143D02*
X185840715Y-116609762D01*
X185697858Y-116657381D01*
X185602620Y-116657381D01*
X185459762Y-116609762D01*
X185364524Y-116514524D01*
X185316905Y-116419286D01*
X185269286Y-116228810D01*
X185269286Y-116085952D01*
X185316905Y-115895476D01*
X185364524Y-115800238D01*
X185459762Y-115705000D01*
X185602620Y-115657381D01*
X185697858Y-115657381D01*
X185840715Y-115705000D01*
X185888334Y-115752619D01*
X186221667Y-115657381D02*
X186840715Y-115657381D01*
X186507381Y-116038333D01*
X186650239Y-116038333D01*
X186745477Y-116085952D01*
X186793096Y-116133571D01*
X186840715Y-116228810D01*
X186840715Y-116466905D01*
X186793096Y-116562143D01*
X186745477Y-116609762D01*
X186650239Y-116657381D01*
X186364524Y-116657381D01*
X186269286Y-116609762D01*
X186221667Y-116562143D01*
X117308334Y-116562143D02*
X117260715Y-116609762D01*
X117117858Y-116657381D01*
X117022620Y-116657381D01*
X116879762Y-116609762D01*
X116784524Y-116514524D01*
X116736905Y-116419286D01*
X116689286Y-116228810D01*
X116689286Y-116085952D01*
X116736905Y-115895476D01*
X116784524Y-115800238D01*
X116879762Y-115705000D01*
X117022620Y-115657381D01*
X117117858Y-115657381D01*
X117260715Y-115705000D01*
X117308334Y-115752619D01*
X117689286Y-115752619D02*
X117736905Y-115705000D01*
X117832143Y-115657381D01*
X118070239Y-115657381D01*
X118165477Y-115705000D01*
X118213096Y-115752619D01*
X118260715Y-115847857D01*
X118260715Y-115943095D01*
X118213096Y-116085952D01*
X117641667Y-116657381D01*
X118260715Y-116657381D01*
X170648334Y-116562143D02*
X170600715Y-116609762D01*
X170457858Y-116657381D01*
X170362620Y-116657381D01*
X170219762Y-116609762D01*
X170124524Y-116514524D01*
X170076905Y-116419286D01*
X170029286Y-116228810D01*
X170029286Y-116085952D01*
X170076905Y-115895476D01*
X170124524Y-115800238D01*
X170219762Y-115705000D01*
X170362620Y-115657381D01*
X170457858Y-115657381D01*
X170600715Y-115705000D01*
X170648334Y-115752619D01*
X171505477Y-115990714D02*
X171505477Y-116657381D01*
X171267381Y-115609762D02*
X171029286Y-116324048D01*
X171648334Y-116324048D01*
X183967381Y-100496666D02*
X183491190Y-100830000D01*
X183967381Y-101068095D02*
X182967381Y-101068095D01*
X182967381Y-100687142D01*
X183015000Y-100591904D01*
X183062619Y-100544285D01*
X183157857Y-100496666D01*
X183300714Y-100496666D01*
X183395952Y-100544285D01*
X183443571Y-100591904D01*
X183491190Y-100687142D01*
X183491190Y-101068095D01*
X183967381Y-99544285D02*
X183967381Y-100115714D01*
X183967381Y-99830000D02*
X182967381Y-99830000D01*
X183110238Y-99925238D01*
X183205476Y-100020476D01*
X183253095Y-100115714D01*
X185928096Y-100115714D02*
X185928096Y-100782381D01*
X185690000Y-99734762D02*
X185451905Y-100449048D01*
X186070953Y-100449048D01*
X186356667Y-99782381D02*
X187023334Y-99782381D01*
X186594762Y-100782381D01*
X187594762Y-99782381D02*
X187690001Y-99782381D01*
X187785239Y-99830000D01*
X187832858Y-99877619D01*
X187880477Y-99972857D01*
X187928096Y-100163333D01*
X187928096Y-100401429D01*
X187880477Y-100591905D01*
X187832858Y-100687143D01*
X187785239Y-100734762D01*
X187690001Y-100782381D01*
X187594762Y-100782381D01*
X187499524Y-100734762D01*
X187451905Y-100687143D01*
X187404286Y-100591905D01*
X187356667Y-100401429D01*
X187356667Y-100163333D01*
X187404286Y-99972857D01*
X187451905Y-99877619D01*
X187499524Y-99830000D01*
X187594762Y-99782381D01*
X183967381Y-104306666D02*
X183491190Y-104640000D01*
X183967381Y-104878095D02*
X182967381Y-104878095D01*
X182967381Y-104497142D01*
X183015000Y-104401904D01*
X183062619Y-104354285D01*
X183157857Y-104306666D01*
X183300714Y-104306666D01*
X183395952Y-104354285D01*
X183443571Y-104401904D01*
X183491190Y-104497142D01*
X183491190Y-104878095D01*
X183062619Y-103925714D02*
X183015000Y-103878095D01*
X182967381Y-103782857D01*
X182967381Y-103544761D01*
X183015000Y-103449523D01*
X183062619Y-103401904D01*
X183157857Y-103354285D01*
X183253095Y-103354285D01*
X183395952Y-103401904D01*
X183967381Y-103973333D01*
X183967381Y-103354285D01*
X185880476Y-103592381D02*
X186547143Y-103592381D01*
X186118571Y-104592381D01*
X187404286Y-103592381D02*
X186928095Y-103592381D01*
X186880476Y-104068571D01*
X186928095Y-104020952D01*
X187023333Y-103973333D01*
X187261429Y-103973333D01*
X187356667Y-104020952D01*
X187404286Y-104068571D01*
X187451905Y-104163810D01*
X187451905Y-104401905D01*
X187404286Y-104497143D01*
X187356667Y-104544762D01*
X187261429Y-104592381D01*
X187023333Y-104592381D01*
X186928095Y-104544762D01*
X186880476Y-104497143D01*
X183967381Y-96686666D02*
X183491190Y-97020000D01*
X183967381Y-97258095D02*
X182967381Y-97258095D01*
X182967381Y-96877142D01*
X183015000Y-96781904D01*
X183062619Y-96734285D01*
X183157857Y-96686666D01*
X183300714Y-96686666D01*
X183395952Y-96734285D01*
X183443571Y-96781904D01*
X183491190Y-96877142D01*
X183491190Y-97258095D01*
X182967381Y-96353333D02*
X182967381Y-95734285D01*
X183348333Y-96067619D01*
X183348333Y-95924761D01*
X183395952Y-95829523D01*
X183443571Y-95781904D01*
X183538810Y-95734285D01*
X183776905Y-95734285D01*
X183872143Y-95781904D01*
X183919762Y-95829523D01*
X183967381Y-95924761D01*
X183967381Y-96210476D01*
X183919762Y-96305714D01*
X183872143Y-96353333D01*
X185880476Y-95972381D02*
X186547143Y-95972381D01*
X186118571Y-96972381D01*
X187404286Y-95972381D02*
X186928095Y-95972381D01*
X186880476Y-96448571D01*
X186928095Y-96400952D01*
X187023333Y-96353333D01*
X187261429Y-96353333D01*
X187356667Y-96400952D01*
X187404286Y-96448571D01*
X187451905Y-96543810D01*
X187451905Y-96781905D01*
X187404286Y-96877143D01*
X187356667Y-96924762D01*
X187261429Y-96972381D01*
X187023333Y-96972381D01*
X186928095Y-96924762D01*
X186880476Y-96877143D01*
X106203809Y-78716190D02*
X106203809Y-79192381D01*
X105870476Y-78192381D02*
X106203809Y-78716190D01*
X106537143Y-78192381D01*
X107394286Y-79192381D02*
X106822857Y-79192381D01*
X107108571Y-79192381D02*
X107108571Y-78192381D01*
X107013333Y-78335238D01*
X106918095Y-78430476D01*
X106822857Y-78478095D01*
D10*
X101403809Y-74021905D02*
X100946666Y-74021905D01*
X101175237Y-74021905D02*
X101175237Y-73221905D01*
X101099047Y-73336190D01*
X101022856Y-73412381D01*
X100946666Y-73450476D01*
X101899047Y-73221905D02*
X101975238Y-73221905D01*
X102051428Y-73260000D01*
X102089523Y-73298095D01*
X102127619Y-73374286D01*
X102165714Y-73526667D01*
X102165714Y-73717143D01*
X102127619Y-73869524D01*
X102089523Y-73945714D01*
X102051428Y-73983810D01*
X101975238Y-74021905D01*
X101899047Y-74021905D01*
X101822857Y-73983810D01*
X101784761Y-73945714D01*
X101746666Y-73869524D01*
X101708571Y-73717143D01*
X101708571Y-73526667D01*
X101746666Y-73374286D01*
X101784761Y-73298095D01*
X101822857Y-73260000D01*
X101899047Y-73221905D01*
X102508571Y-73945714D02*
X102546666Y-73983810D01*
X102508571Y-74021905D01*
X102470476Y-73983810D01*
X102508571Y-73945714D01*
X102508571Y-74021905D01*
X102813333Y-73221905D02*
X103346666Y-73221905D01*
X103003809Y-74021905D01*
X103575238Y-73221905D02*
X104070476Y-73221905D01*
X103803809Y-73526667D01*
X103918095Y-73526667D01*
X103994285Y-73564762D01*
X104032381Y-73602857D01*
X104070476Y-73679048D01*
X104070476Y-73869524D01*
X104032381Y-73945714D01*
X103994285Y-73983810D01*
X103918095Y-74021905D01*
X103689523Y-74021905D01*
X103613333Y-73983810D01*
X103575238Y-73945714D01*
X104527619Y-73564762D02*
X104451428Y-73526667D01*
X104413333Y-73488571D01*
X104375238Y-73412381D01*
X104375238Y-73374286D01*
X104413333Y-73298095D01*
X104451428Y-73260000D01*
X104527619Y-73221905D01*
X104680000Y-73221905D01*
X104756190Y-73260000D01*
X104794286Y-73298095D01*
X104832381Y-73374286D01*
X104832381Y-73412381D01*
X104794286Y-73488571D01*
X104756190Y-73526667D01*
X104680000Y-73564762D01*
X104527619Y-73564762D01*
X104451428Y-73602857D01*
X104413333Y-73640952D01*
X104375238Y-73717143D01*
X104375238Y-73869524D01*
X104413333Y-73945714D01*
X104451428Y-73983810D01*
X104527619Y-74021905D01*
X104680000Y-74021905D01*
X104756190Y-73983810D01*
X104794286Y-73945714D01*
X104832381Y-73869524D01*
X104832381Y-73717143D01*
X104794286Y-73640952D01*
X104756190Y-73602857D01*
X104680000Y-73564762D01*
X105099048Y-73221905D02*
X105632381Y-73221905D01*
X105289524Y-74021905D01*
X105860953Y-73221905D02*
X106356191Y-73221905D01*
X106089524Y-73526667D01*
X106203810Y-73526667D01*
X106280000Y-73564762D01*
X106318096Y-73602857D01*
X106356191Y-73679048D01*
X106356191Y-73869524D01*
X106318096Y-73945714D01*
X106280000Y-73983810D01*
X106203810Y-74021905D01*
X105975238Y-74021905D01*
X105899048Y-73983810D01*
X105860953Y-73945714D01*
X106813334Y-73564762D02*
X106737143Y-73526667D01*
X106699048Y-73488571D01*
X106660953Y-73412381D01*
X106660953Y-73374286D01*
X106699048Y-73298095D01*
X106737143Y-73260000D01*
X106813334Y-73221905D01*
X106965715Y-73221905D01*
X107041905Y-73260000D01*
X107080001Y-73298095D01*
X107118096Y-73374286D01*
X107118096Y-73412381D01*
X107080001Y-73488571D01*
X107041905Y-73526667D01*
X106965715Y-73564762D01*
X106813334Y-73564762D01*
X106737143Y-73602857D01*
X106699048Y-73640952D01*
X106660953Y-73717143D01*
X106660953Y-73869524D01*
X106699048Y-73945714D01*
X106737143Y-73983810D01*
X106813334Y-74021905D01*
X106965715Y-74021905D01*
X107041905Y-73983810D01*
X107080001Y-73945714D01*
X107118096Y-73869524D01*
X107118096Y-73717143D01*
X107080001Y-73640952D01*
X107041905Y-73602857D01*
X106965715Y-73564762D01*
X107803810Y-73221905D02*
X107651429Y-73221905D01*
X107575239Y-73260000D01*
X107537144Y-73298095D01*
X107460953Y-73412381D01*
X107422858Y-73564762D01*
X107422858Y-73869524D01*
X107460953Y-73945714D01*
X107499048Y-73983810D01*
X107575239Y-74021905D01*
X107727620Y-74021905D01*
X107803810Y-73983810D01*
X107841906Y-73945714D01*
X107880001Y-73869524D01*
X107880001Y-73679048D01*
X107841906Y-73602857D01*
X107803810Y-73564762D01*
X107727620Y-73526667D01*
X107575239Y-73526667D01*
X107499048Y-73564762D01*
X107460953Y-73602857D01*
X107422858Y-73679048D01*
X108146668Y-73221905D02*
X108641906Y-73221905D01*
X108375239Y-73526667D01*
X108489525Y-73526667D01*
X108565715Y-73564762D01*
X108603811Y-73602857D01*
X108641906Y-73679048D01*
X108641906Y-73869524D01*
X108603811Y-73945714D01*
X108565715Y-73983810D01*
X108489525Y-74021905D01*
X108260953Y-74021905D01*
X108184763Y-73983810D01*
X108146668Y-73945714D01*
X109365716Y-73221905D02*
X108984763Y-73221905D01*
X108946668Y-73602857D01*
X108984763Y-73564762D01*
X109060954Y-73526667D01*
X109251430Y-73526667D01*
X109327620Y-73564762D01*
X109365716Y-73602857D01*
X109403811Y-73679048D01*
X109403811Y-73869524D01*
X109365716Y-73945714D01*
X109327620Y-73983810D01*
X109251430Y-74021905D01*
X109060954Y-74021905D01*
X108984763Y-73983810D01*
X108946668Y-73945714D01*
X110356192Y-74021905D02*
X110356192Y-73221905D01*
X110622859Y-73793333D01*
X110889526Y-73221905D01*
X110889526Y-74021905D01*
X111270478Y-74021905D02*
X111270478Y-73221905D01*
X111270478Y-73602857D02*
X111727621Y-73602857D01*
X111727621Y-74021905D02*
X111727621Y-73221905D01*
X112032383Y-73488571D02*
X112451430Y-73488571D01*
X112032383Y-74021905D01*
X112451430Y-74021905D01*
D11*
X149058334Y-77827143D02*
X149010715Y-77874762D01*
X148867858Y-77922381D01*
X148772620Y-77922381D01*
X148629762Y-77874762D01*
X148534524Y-77779524D01*
X148486905Y-77684286D01*
X148439286Y-77493810D01*
X148439286Y-77350952D01*
X148486905Y-77160476D01*
X148534524Y-77065238D01*
X148629762Y-76970000D01*
X148772620Y-76922381D01*
X148867858Y-76922381D01*
X149010715Y-76970000D01*
X149058334Y-77017619D01*
X149915477Y-76922381D02*
X149725000Y-76922381D01*
X149629762Y-76970000D01*
X149582143Y-77017619D01*
X149486905Y-77160476D01*
X149439286Y-77350952D01*
X149439286Y-77731905D01*
X149486905Y-77827143D01*
X149534524Y-77874762D01*
X149629762Y-77922381D01*
X149820239Y-77922381D01*
X149915477Y-77874762D01*
X149963096Y-77827143D01*
X150010715Y-77731905D01*
X150010715Y-77493810D01*
X149963096Y-77398571D01*
X149915477Y-77350952D01*
X149820239Y-77303333D01*
X149629762Y-77303333D01*
X149534524Y-77350952D01*
X149486905Y-77398571D01*
X149439286Y-77493810D01*
X133818334Y-77827143D02*
X133770715Y-77874762D01*
X133627858Y-77922381D01*
X133532620Y-77922381D01*
X133389762Y-77874762D01*
X133294524Y-77779524D01*
X133246905Y-77684286D01*
X133199286Y-77493810D01*
X133199286Y-77350952D01*
X133246905Y-77160476D01*
X133294524Y-77065238D01*
X133389762Y-76970000D01*
X133532620Y-76922381D01*
X133627858Y-76922381D01*
X133770715Y-76970000D01*
X133818334Y-77017619D01*
X134151667Y-76922381D02*
X134818334Y-76922381D01*
X134389762Y-77922381D01*
X164298334Y-77827143D02*
X164250715Y-77874762D01*
X164107858Y-77922381D01*
X164012620Y-77922381D01*
X163869762Y-77874762D01*
X163774524Y-77779524D01*
X163726905Y-77684286D01*
X163679286Y-77493810D01*
X163679286Y-77350952D01*
X163726905Y-77160476D01*
X163774524Y-77065238D01*
X163869762Y-76970000D01*
X164012620Y-76922381D01*
X164107858Y-76922381D01*
X164250715Y-76970000D01*
X164298334Y-77017619D01*
X164869762Y-77350952D02*
X164774524Y-77303333D01*
X164726905Y-77255714D01*
X164679286Y-77160476D01*
X164679286Y-77112857D01*
X164726905Y-77017619D01*
X164774524Y-76970000D01*
X164869762Y-76922381D01*
X165060239Y-76922381D01*
X165155477Y-76970000D01*
X165203096Y-77017619D01*
X165250715Y-77112857D01*
X165250715Y-77160476D01*
X165203096Y-77255714D01*
X165155477Y-77303333D01*
X165060239Y-77350952D01*
X164869762Y-77350952D01*
X164774524Y-77398571D01*
X164726905Y-77446190D01*
X164679286Y-77541429D01*
X164679286Y-77731905D01*
X164726905Y-77827143D01*
X164774524Y-77874762D01*
X164869762Y-77922381D01*
X165060239Y-77922381D01*
X165155477Y-77874762D01*
X165203096Y-77827143D01*
X165250715Y-77731905D01*
X165250715Y-77541429D01*
X165203096Y-77446190D01*
X165155477Y-77398571D01*
X165060239Y-77350952D01*
D10*
X98291667Y-77120714D02*
X98253572Y-77158810D01*
X98139286Y-77196905D01*
X98063096Y-77196905D01*
X97948810Y-77158810D01*
X97872619Y-77082619D01*
X97834524Y-77006429D01*
X97796429Y-76854048D01*
X97796429Y-76739762D01*
X97834524Y-76587381D01*
X97872619Y-76511190D01*
X97948810Y-76435000D01*
X98063096Y-76396905D01*
X98139286Y-76396905D01*
X98253572Y-76435000D01*
X98291667Y-76473095D01*
X98672619Y-77196905D02*
X98825000Y-77196905D01*
X98901191Y-77158810D01*
X98939286Y-77120714D01*
X99015477Y-77006429D01*
X99053572Y-76854048D01*
X99053572Y-76549286D01*
X99015477Y-76473095D01*
X98977381Y-76435000D01*
X98901191Y-76396905D01*
X98748810Y-76396905D01*
X98672619Y-76435000D01*
X98634524Y-76473095D01*
X98596429Y-76549286D01*
X98596429Y-76739762D01*
X98634524Y-76815952D01*
X98672619Y-76854048D01*
X98748810Y-76892143D01*
X98901191Y-76892143D01*
X98977381Y-76854048D01*
X99015477Y-76815952D01*
X99053572Y-76739762D01*
X97072619Y-77666905D02*
X97567857Y-77666905D01*
X97301190Y-77971667D01*
X97415476Y-77971667D01*
X97491666Y-78009762D01*
X97529762Y-78047857D01*
X97567857Y-78124048D01*
X97567857Y-78314524D01*
X97529762Y-78390714D01*
X97491666Y-78428810D01*
X97415476Y-78466905D01*
X97186904Y-78466905D01*
X97110714Y-78428810D01*
X97072619Y-78390714D01*
X97834524Y-77666905D02*
X98329762Y-77666905D01*
X98063095Y-77971667D01*
X98177381Y-77971667D01*
X98253571Y-78009762D01*
X98291667Y-78047857D01*
X98329762Y-78124048D01*
X98329762Y-78314524D01*
X98291667Y-78390714D01*
X98253571Y-78428810D01*
X98177381Y-78466905D01*
X97948809Y-78466905D01*
X97872619Y-78428810D01*
X97834524Y-78390714D01*
X98672619Y-77933571D02*
X98672619Y-78733571D01*
X98672619Y-77971667D02*
X98748810Y-77933571D01*
X98901191Y-77933571D01*
X98977381Y-77971667D01*
X99015476Y-78009762D01*
X99053572Y-78085952D01*
X99053572Y-78314524D01*
X99015476Y-78390714D01*
X98977381Y-78428810D01*
X98901191Y-78466905D01*
X98748810Y-78466905D01*
X98672619Y-78428810D01*
X99663096Y-78047857D02*
X99396429Y-78047857D01*
X99396429Y-78466905D02*
X99396429Y-77666905D01*
X99777382Y-77666905D01*
X114420714Y-77120714D02*
X114382619Y-77158810D01*
X114268333Y-77196905D01*
X114192143Y-77196905D01*
X114077857Y-77158810D01*
X114001666Y-77082619D01*
X113963571Y-77006429D01*
X113925476Y-76854048D01*
X113925476Y-76739762D01*
X113963571Y-76587381D01*
X114001666Y-76511190D01*
X114077857Y-76435000D01*
X114192143Y-76396905D01*
X114268333Y-76396905D01*
X114382619Y-76435000D01*
X114420714Y-76473095D01*
X115182619Y-77196905D02*
X114725476Y-77196905D01*
X114954047Y-77196905D02*
X114954047Y-76396905D01*
X114877857Y-76511190D01*
X114801666Y-76587381D01*
X114725476Y-76625476D01*
X115677857Y-76396905D02*
X115754048Y-76396905D01*
X115830238Y-76435000D01*
X115868333Y-76473095D01*
X115906429Y-76549286D01*
X115944524Y-76701667D01*
X115944524Y-76892143D01*
X115906429Y-77044524D01*
X115868333Y-77120714D01*
X115830238Y-77158810D01*
X115754048Y-77196905D01*
X115677857Y-77196905D01*
X115601667Y-77158810D01*
X115563571Y-77120714D01*
X115525476Y-77044524D01*
X115487381Y-76892143D01*
X115487381Y-76701667D01*
X115525476Y-76549286D01*
X115563571Y-76473095D01*
X115601667Y-76435000D01*
X115677857Y-76396905D01*
X113582619Y-77666905D02*
X114077857Y-77666905D01*
X113811190Y-77971667D01*
X113925476Y-77971667D01*
X114001666Y-78009762D01*
X114039762Y-78047857D01*
X114077857Y-78124048D01*
X114077857Y-78314524D01*
X114039762Y-78390714D01*
X114001666Y-78428810D01*
X113925476Y-78466905D01*
X113696904Y-78466905D01*
X113620714Y-78428810D01*
X113582619Y-78390714D01*
X114344524Y-77666905D02*
X114839762Y-77666905D01*
X114573095Y-77971667D01*
X114687381Y-77971667D01*
X114763571Y-78009762D01*
X114801667Y-78047857D01*
X114839762Y-78124048D01*
X114839762Y-78314524D01*
X114801667Y-78390714D01*
X114763571Y-78428810D01*
X114687381Y-78466905D01*
X114458809Y-78466905D01*
X114382619Y-78428810D01*
X114344524Y-78390714D01*
X115182619Y-77933571D02*
X115182619Y-78733571D01*
X115182619Y-77971667D02*
X115258810Y-77933571D01*
X115411191Y-77933571D01*
X115487381Y-77971667D01*
X115525476Y-78009762D01*
X115563572Y-78085952D01*
X115563572Y-78314524D01*
X115525476Y-78390714D01*
X115487381Y-78428810D01*
X115411191Y-78466905D01*
X115258810Y-78466905D01*
X115182619Y-78428810D01*
X116173096Y-78047857D02*
X115906429Y-78047857D01*
X115906429Y-78466905D02*
X115906429Y-77666905D01*
X116287382Y-77666905D01*
D11*
X173982143Y-102592143D02*
X173934524Y-102639762D01*
X173791667Y-102687381D01*
X173696429Y-102687381D01*
X173553571Y-102639762D01*
X173458333Y-102544524D01*
X173410714Y-102449286D01*
X173363095Y-102258810D01*
X173363095Y-102115952D01*
X173410714Y-101925476D01*
X173458333Y-101830238D01*
X173553571Y-101735000D01*
X173696429Y-101687381D01*
X173791667Y-101687381D01*
X173934524Y-101735000D01*
X173982143Y-101782619D01*
X174934524Y-102687381D02*
X174363095Y-102687381D01*
X174648809Y-102687381D02*
X174648809Y-101687381D01*
X174553571Y-101830238D01*
X174458333Y-101925476D01*
X174363095Y-101973095D01*
X175315476Y-101782619D02*
X175363095Y-101735000D01*
X175458333Y-101687381D01*
X175696429Y-101687381D01*
X175791667Y-101735000D01*
X175839286Y-101782619D01*
X175886905Y-101877857D01*
X175886905Y-101973095D01*
X175839286Y-102115952D01*
X175267857Y-102687381D01*
X175886905Y-102687381D01*
D10*
X183635714Y-92995714D02*
X183597619Y-93033810D01*
X183483333Y-93071905D01*
X183407143Y-93071905D01*
X183292857Y-93033810D01*
X183216666Y-92957619D01*
X183178571Y-92881429D01*
X183140476Y-92729048D01*
X183140476Y-92614762D01*
X183178571Y-92462381D01*
X183216666Y-92386190D01*
X183292857Y-92310000D01*
X183407143Y-92271905D01*
X183483333Y-92271905D01*
X183597619Y-92310000D01*
X183635714Y-92348095D01*
X184397619Y-93071905D02*
X183940476Y-93071905D01*
X184169047Y-93071905D02*
X184169047Y-92271905D01*
X184092857Y-92386190D01*
X184016666Y-92462381D01*
X183940476Y-92500476D01*
X184664286Y-92271905D02*
X185159524Y-92271905D01*
X184892857Y-92576667D01*
X185007143Y-92576667D01*
X185083333Y-92614762D01*
X185121429Y-92652857D01*
X185159524Y-92729048D01*
X185159524Y-92919524D01*
X185121429Y-92995714D01*
X185083333Y-93033810D01*
X185007143Y-93071905D01*
X184778571Y-93071905D01*
X184702381Y-93033810D01*
X184664286Y-92995714D01*
D11*
X109116905Y-138882381D02*
X109116905Y-137882381D01*
X109355000Y-137882381D01*
X109497858Y-137930000D01*
X109593096Y-138025238D01*
X109640715Y-138120476D01*
X109688334Y-138310952D01*
X109688334Y-138453810D01*
X109640715Y-138644286D01*
X109593096Y-138739524D01*
X109497858Y-138834762D01*
X109355000Y-138882381D01*
X109116905Y-138882381D01*
X110640715Y-138882381D02*
X110069286Y-138882381D01*
X110355000Y-138882381D02*
X110355000Y-137882381D01*
X110259762Y-138025238D01*
X110164524Y-138120476D01*
X110069286Y-138168095D01*
D10*
X118554762Y-136251905D02*
X118554762Y-135451905D01*
X118935714Y-136251905D02*
X118935714Y-135451905D01*
X119392857Y-136251905D01*
X119392857Y-135451905D01*
X119659523Y-135451905D02*
X120116666Y-135451905D01*
X119888095Y-136251905D02*
X119888095Y-135451905D01*
X120192857Y-136328095D02*
X120802381Y-136328095D01*
X120954762Y-136213810D02*
X121069048Y-136251905D01*
X121259524Y-136251905D01*
X121335714Y-136213810D01*
X121373810Y-136175714D01*
X121411905Y-136099524D01*
X121411905Y-136023333D01*
X121373810Y-135947143D01*
X121335714Y-135909048D01*
X121259524Y-135870952D01*
X121107143Y-135832857D01*
X121030952Y-135794762D01*
X120992857Y-135756667D01*
X120954762Y-135680476D01*
X120954762Y-135604286D01*
X120992857Y-135528095D01*
X121030952Y-135490000D01*
X121107143Y-135451905D01*
X121297619Y-135451905D01*
X121411905Y-135490000D01*
X121754762Y-135832857D02*
X122021429Y-135832857D01*
X122135715Y-136251905D02*
X121754762Y-136251905D01*
X121754762Y-135451905D01*
X122135715Y-135451905D01*
X122859525Y-136251905D02*
X122478572Y-136251905D01*
X122478572Y-135451905D01*
D17*
X196101850Y-85859693D02*
X196101850Y-86574980D01*
X196054164Y-86718038D01*
X195958792Y-86813409D01*
X195815735Y-86861095D01*
X195720363Y-86861095D01*
X197007880Y-86193494D02*
X197007880Y-86861095D01*
X196769451Y-85812007D02*
X196531022Y-86527295D01*
X197150938Y-86527295D01*
D11*
X193337619Y-91535238D02*
X193290000Y-91630476D01*
X193194762Y-91725714D01*
X193051905Y-91868571D01*
X193004286Y-91963810D01*
X193004286Y-92059048D01*
X193242381Y-92011429D02*
X193194762Y-92106667D01*
X193099524Y-92201905D01*
X192909048Y-92249524D01*
X192575714Y-92249524D01*
X192385238Y-92201905D01*
X192290000Y-92106667D01*
X192242381Y-92011429D01*
X192242381Y-91820952D01*
X192290000Y-91725714D01*
X192385238Y-91630476D01*
X192575714Y-91582857D01*
X192909048Y-91582857D01*
X193099524Y-91630476D01*
X193194762Y-91725714D01*
X193242381Y-91820952D01*
X193242381Y-92011429D01*
X193242381Y-90630476D02*
X193242381Y-91201905D01*
X193242381Y-90916191D02*
X192242381Y-90916191D01*
X192385238Y-91011429D01*
X192480476Y-91106667D01*
X192528095Y-91201905D01*
X105283095Y-85177381D02*
X105283095Y-85986905D01*
X105330714Y-86082143D01*
X105378333Y-86129762D01*
X105473571Y-86177381D01*
X105664048Y-86177381D01*
X105759286Y-86129762D01*
X105806905Y-86082143D01*
X105854524Y-85986905D01*
X105854524Y-85177381D01*
X106854524Y-86177381D02*
X106283095Y-86177381D01*
X106568809Y-86177381D02*
X106568809Y-85177381D01*
X106473571Y-85320238D01*
X106378333Y-85415476D01*
X106283095Y-85463095D01*
X102378333Y-87717381D02*
X102949762Y-87717381D01*
X102664047Y-88717381D02*
X102664047Y-87717381D01*
X103283095Y-88717381D02*
X103283095Y-87717381D01*
X103616429Y-88431667D01*
X103949762Y-87717381D01*
X103949762Y-88717381D01*
X104378333Y-88669762D02*
X104521190Y-88717381D01*
X104759286Y-88717381D01*
X104854524Y-88669762D01*
X104902143Y-88622143D01*
X104949762Y-88526905D01*
X104949762Y-88431667D01*
X104902143Y-88336429D01*
X104854524Y-88288810D01*
X104759286Y-88241190D01*
X104568809Y-88193571D01*
X104473571Y-88145952D01*
X104425952Y-88098333D01*
X104378333Y-88003095D01*
X104378333Y-87907857D01*
X104425952Y-87812619D01*
X104473571Y-87765000D01*
X104568809Y-87717381D01*
X104806905Y-87717381D01*
X104949762Y-87765000D01*
X105425952Y-88717381D02*
X105616428Y-88717381D01*
X105711667Y-88669762D01*
X105759286Y-88622143D01*
X105854524Y-88479286D01*
X105902143Y-88288810D01*
X105902143Y-87907857D01*
X105854524Y-87812619D01*
X105806905Y-87765000D01*
X105711667Y-87717381D01*
X105521190Y-87717381D01*
X105425952Y-87765000D01*
X105378333Y-87812619D01*
X105330714Y-87907857D01*
X105330714Y-88145952D01*
X105378333Y-88241190D01*
X105425952Y-88288810D01*
X105521190Y-88336429D01*
X105711667Y-88336429D01*
X105806905Y-88288810D01*
X105854524Y-88241190D01*
X105902143Y-88145952D01*
X106378333Y-88717381D02*
X106568809Y-88717381D01*
X106664048Y-88669762D01*
X106711667Y-88622143D01*
X106806905Y-88479286D01*
X106854524Y-88288810D01*
X106854524Y-87907857D01*
X106806905Y-87812619D01*
X106759286Y-87765000D01*
X106664048Y-87717381D01*
X106473571Y-87717381D01*
X106378333Y-87765000D01*
X106330714Y-87812619D01*
X106283095Y-87907857D01*
X106283095Y-88145952D01*
X106330714Y-88241190D01*
X106378333Y-88288810D01*
X106473571Y-88336429D01*
X106664048Y-88336429D01*
X106759286Y-88288810D01*
X106806905Y-88241190D01*
X106854524Y-88145952D01*
X107806905Y-88717381D02*
X107235476Y-88717381D01*
X107521190Y-88717381D02*
X107521190Y-87717381D01*
X107425952Y-87860238D01*
X107330714Y-87955476D01*
X107235476Y-88003095D01*
X108378333Y-88145952D02*
X108283095Y-88098333D01*
X108235476Y-88050714D01*
X108187857Y-87955476D01*
X108187857Y-87907857D01*
X108235476Y-87812619D01*
X108283095Y-87765000D01*
X108378333Y-87717381D01*
X108568810Y-87717381D01*
X108664048Y-87765000D01*
X108711667Y-87812619D01*
X108759286Y-87907857D01*
X108759286Y-87955476D01*
X108711667Y-88050714D01*
X108664048Y-88098333D01*
X108568810Y-88145952D01*
X108378333Y-88145952D01*
X108283095Y-88193571D01*
X108235476Y-88241190D01*
X108187857Y-88336429D01*
X108187857Y-88526905D01*
X108235476Y-88622143D01*
X108283095Y-88669762D01*
X108378333Y-88717381D01*
X108568810Y-88717381D01*
X108664048Y-88669762D01*
X108711667Y-88622143D01*
X108759286Y-88526905D01*
X108759286Y-88336429D01*
X108711667Y-88241190D01*
X108664048Y-88193571D01*
X108568810Y-88145952D01*
X109140238Y-88431667D02*
X109616429Y-88431667D01*
X109045000Y-88717381D02*
X109378333Y-87717381D01*
X109711667Y-88717381D01*
X137033095Y-119467381D02*
X137033095Y-120276905D01*
X137080714Y-120372143D01*
X137128333Y-120419762D01*
X137223571Y-120467381D01*
X137414048Y-120467381D01*
X137509286Y-120419762D01*
X137556905Y-120372143D01*
X137604524Y-120276905D01*
X137604524Y-119467381D01*
X138033095Y-119562619D02*
X138080714Y-119515000D01*
X138175952Y-119467381D01*
X138414048Y-119467381D01*
X138509286Y-119515000D01*
X138556905Y-119562619D01*
X138604524Y-119657857D01*
X138604524Y-119753095D01*
X138556905Y-119895952D01*
X137985476Y-120467381D01*
X138604524Y-120467381D01*
X132056905Y-123007381D02*
X132056905Y-122007381D01*
X132056905Y-122483571D02*
X132628334Y-122483571D01*
X132628334Y-123007381D02*
X132628334Y-122007381D01*
X133104524Y-123007381D02*
X133104524Y-122007381D01*
X133437858Y-122721667D01*
X133771191Y-122007381D01*
X133771191Y-123007381D01*
X134675953Y-122007381D02*
X134485476Y-122007381D01*
X134390238Y-122055000D01*
X134342619Y-122102619D01*
X134247381Y-122245476D01*
X134199762Y-122435952D01*
X134199762Y-122816905D01*
X134247381Y-122912143D01*
X134295000Y-122959762D01*
X134390238Y-123007381D01*
X134580715Y-123007381D01*
X134675953Y-122959762D01*
X134723572Y-122912143D01*
X134771191Y-122816905D01*
X134771191Y-122578810D01*
X134723572Y-122483571D01*
X134675953Y-122435952D01*
X134580715Y-122388333D01*
X134390238Y-122388333D01*
X134295000Y-122435952D01*
X134247381Y-122483571D01*
X134199762Y-122578810D01*
X135152143Y-122102619D02*
X135199762Y-122055000D01*
X135295000Y-122007381D01*
X135533096Y-122007381D01*
X135628334Y-122055000D01*
X135675953Y-122102619D01*
X135723572Y-122197857D01*
X135723572Y-122293095D01*
X135675953Y-122435952D01*
X135104524Y-123007381D01*
X135723572Y-123007381D01*
X136104524Y-122102619D02*
X136152143Y-122055000D01*
X136247381Y-122007381D01*
X136485477Y-122007381D01*
X136580715Y-122055000D01*
X136628334Y-122102619D01*
X136675953Y-122197857D01*
X136675953Y-122293095D01*
X136628334Y-122435952D01*
X136056905Y-123007381D01*
X136675953Y-123007381D01*
X137580715Y-122007381D02*
X137104524Y-122007381D01*
X137056905Y-122483571D01*
X137104524Y-122435952D01*
X137199762Y-122388333D01*
X137437858Y-122388333D01*
X137533096Y-122435952D01*
X137580715Y-122483571D01*
X137628334Y-122578810D01*
X137628334Y-122816905D01*
X137580715Y-122912143D01*
X137533096Y-122959762D01*
X137437858Y-123007381D01*
X137199762Y-123007381D01*
X137104524Y-122959762D01*
X137056905Y-122912143D01*
X138485477Y-122007381D02*
X138295000Y-122007381D01*
X138199762Y-122055000D01*
X138152143Y-122102619D01*
X138056905Y-122245476D01*
X138009286Y-122435952D01*
X138009286Y-122816905D01*
X138056905Y-122912143D01*
X138104524Y-122959762D01*
X138199762Y-123007381D01*
X138390239Y-123007381D01*
X138485477Y-122959762D01*
X138533096Y-122912143D01*
X138580715Y-122816905D01*
X138580715Y-122578810D01*
X138533096Y-122483571D01*
X138485477Y-122435952D01*
X138390239Y-122388333D01*
X138199762Y-122388333D01*
X138104524Y-122435952D01*
X138056905Y-122483571D01*
X138009286Y-122578810D01*
X139342620Y-122483571D02*
X139485477Y-122531190D01*
X139533096Y-122578810D01*
X139580715Y-122674048D01*
X139580715Y-122816905D01*
X139533096Y-122912143D01*
X139485477Y-122959762D01*
X139390239Y-123007381D01*
X139009286Y-123007381D01*
X139009286Y-122007381D01*
X139342620Y-122007381D01*
X139437858Y-122055000D01*
X139485477Y-122102619D01*
X139533096Y-122197857D01*
X139533096Y-122293095D01*
X139485477Y-122388333D01*
X139437858Y-122435952D01*
X139342620Y-122483571D01*
X139009286Y-122483571D01*
X140485477Y-123007381D02*
X140009286Y-123007381D01*
X140009286Y-122007381D01*
X140818810Y-123007381D02*
X140818810Y-122007381D01*
X141199763Y-122007381D01*
X141295001Y-122055000D01*
X141342620Y-122102619D01*
X141390239Y-122197857D01*
X141390239Y-122340714D01*
X141342620Y-122435952D01*
X141295001Y-122483571D01*
X141199763Y-122531190D01*
X140818810Y-122531190D01*
X141818810Y-122626429D02*
X142580715Y-122626429D01*
X142961667Y-122007381D02*
X143628334Y-122007381D01*
X143199762Y-123007381D01*
X171958095Y-76922381D02*
X171958095Y-77731905D01*
X172005714Y-77827143D01*
X172053333Y-77874762D01*
X172148571Y-77922381D01*
X172339048Y-77922381D01*
X172434286Y-77874762D01*
X172481905Y-77827143D01*
X172529524Y-77731905D01*
X172529524Y-76922381D01*
X173481905Y-76922381D02*
X173005714Y-76922381D01*
X172958095Y-77398571D01*
X173005714Y-77350952D01*
X173100952Y-77303333D01*
X173339048Y-77303333D01*
X173434286Y-77350952D01*
X173481905Y-77398571D01*
X173529524Y-77493810D01*
X173529524Y-77731905D01*
X173481905Y-77827143D01*
X173434286Y-77874762D01*
X173339048Y-77922381D01*
X173100952Y-77922381D01*
X173005714Y-77874762D01*
X172958095Y-77827143D01*
X172172381Y-85716667D02*
X172172381Y-85050000D01*
X173172381Y-85478572D01*
X172505714Y-84240476D02*
X173172381Y-84240476D01*
X172124762Y-84478572D02*
X172839048Y-84716667D01*
X172839048Y-84097619D01*
X173172381Y-83716667D02*
X172172381Y-83716667D01*
X172648571Y-83716667D02*
X172648571Y-83145238D01*
X173172381Y-83145238D02*
X172172381Y-83145238D01*
X173077143Y-82097619D02*
X173124762Y-82145238D01*
X173172381Y-82288095D01*
X173172381Y-82383333D01*
X173124762Y-82526191D01*
X173029524Y-82621429D01*
X172934286Y-82669048D01*
X172743810Y-82716667D01*
X172600952Y-82716667D01*
X172410476Y-82669048D01*
X172315238Y-82621429D01*
X172220000Y-82526191D01*
X172172381Y-82383333D01*
X172172381Y-82288095D01*
X172220000Y-82145238D01*
X172267619Y-82097619D01*
X172172381Y-81811905D02*
X172172381Y-81240476D01*
X173172381Y-81526191D02*
X172172381Y-81526191D01*
X172172381Y-80716667D02*
X172172381Y-80621428D01*
X172220000Y-80526190D01*
X172267619Y-80478571D01*
X172362857Y-80430952D01*
X172553333Y-80383333D01*
X172791429Y-80383333D01*
X172981905Y-80430952D01*
X173077143Y-80478571D01*
X173124762Y-80526190D01*
X173172381Y-80621428D01*
X173172381Y-80716667D01*
X173124762Y-80811905D01*
X173077143Y-80859524D01*
X172981905Y-80907143D01*
X172791429Y-80954762D01*
X172553333Y-80954762D01*
X172362857Y-80907143D01*
X172267619Y-80859524D01*
X172220000Y-80811905D01*
X172172381Y-80716667D01*
X172505714Y-79526190D02*
X173172381Y-79526190D01*
X172124762Y-79764286D02*
X172839048Y-80002381D01*
X172839048Y-79383333D01*
X140843095Y-76922381D02*
X140843095Y-77731905D01*
X140890714Y-77827143D01*
X140938333Y-77874762D01*
X141033571Y-77922381D01*
X141224048Y-77922381D01*
X141319286Y-77874762D01*
X141366905Y-77827143D01*
X141414524Y-77731905D01*
X141414524Y-76922381D01*
X142319286Y-76922381D02*
X142128809Y-76922381D01*
X142033571Y-76970000D01*
X141985952Y-77017619D01*
X141890714Y-77160476D01*
X141843095Y-77350952D01*
X141843095Y-77731905D01*
X141890714Y-77827143D01*
X141938333Y-77874762D01*
X142033571Y-77922381D01*
X142224048Y-77922381D01*
X142319286Y-77874762D01*
X142366905Y-77827143D01*
X142414524Y-77731905D01*
X142414524Y-77493810D01*
X142366905Y-77398571D01*
X142319286Y-77350952D01*
X142224048Y-77303333D01*
X142033571Y-77303333D01*
X141938333Y-77350952D01*
X141890714Y-77398571D01*
X141843095Y-77493810D01*
X141057381Y-89479048D02*
X141057381Y-88812381D01*
X142057381Y-89240953D01*
X141390714Y-88002857D02*
X142057381Y-88002857D01*
X141009762Y-88240953D02*
X141724048Y-88479048D01*
X141724048Y-87860000D01*
X142057381Y-87002857D02*
X142057381Y-87479048D01*
X141057381Y-87479048D01*
X142009762Y-86717143D02*
X142057381Y-86574286D01*
X142057381Y-86336190D01*
X142009762Y-86240952D01*
X141962143Y-86193333D01*
X141866905Y-86145714D01*
X141771667Y-86145714D01*
X141676429Y-86193333D01*
X141628810Y-86240952D01*
X141581190Y-86336190D01*
X141533571Y-86526667D01*
X141485952Y-86621905D01*
X141438333Y-86669524D01*
X141343095Y-86717143D01*
X141247857Y-86717143D01*
X141152619Y-86669524D01*
X141105000Y-86621905D01*
X141057381Y-86526667D01*
X141057381Y-86288571D01*
X141105000Y-86145714D01*
X141057381Y-85812381D02*
X141057381Y-85193333D01*
X141438333Y-85526667D01*
X141438333Y-85383809D01*
X141485952Y-85288571D01*
X141533571Y-85240952D01*
X141628810Y-85193333D01*
X141866905Y-85193333D01*
X141962143Y-85240952D01*
X142009762Y-85288571D01*
X142057381Y-85383809D01*
X142057381Y-85669524D01*
X142009762Y-85764762D01*
X141962143Y-85812381D01*
X141057381Y-84860000D02*
X141057381Y-84193333D01*
X142057381Y-84621905D01*
X141390714Y-83383809D02*
X142057381Y-83383809D01*
X141009762Y-83621905D02*
X141724048Y-83860000D01*
X141724048Y-83240952D01*
X124968095Y-76922381D02*
X124968095Y-77731905D01*
X125015714Y-77827143D01*
X125063333Y-77874762D01*
X125158571Y-77922381D01*
X125349048Y-77922381D01*
X125444286Y-77874762D01*
X125491905Y-77827143D01*
X125539524Y-77731905D01*
X125539524Y-76922381D01*
X125920476Y-76922381D02*
X126587143Y-76922381D01*
X126158571Y-77922381D01*
X125182381Y-89479048D02*
X125182381Y-88812381D01*
X126182381Y-89240953D01*
X125515714Y-88002857D02*
X126182381Y-88002857D01*
X125134762Y-88240953D02*
X125849048Y-88479048D01*
X125849048Y-87860000D01*
X126182381Y-87002857D02*
X126182381Y-87479048D01*
X125182381Y-87479048D01*
X126134762Y-86717143D02*
X126182381Y-86574286D01*
X126182381Y-86336190D01*
X126134762Y-86240952D01*
X126087143Y-86193333D01*
X125991905Y-86145714D01*
X125896667Y-86145714D01*
X125801429Y-86193333D01*
X125753810Y-86240952D01*
X125706190Y-86336190D01*
X125658571Y-86526667D01*
X125610952Y-86621905D01*
X125563333Y-86669524D01*
X125468095Y-86717143D01*
X125372857Y-86717143D01*
X125277619Y-86669524D01*
X125230000Y-86621905D01*
X125182381Y-86526667D01*
X125182381Y-86288571D01*
X125230000Y-86145714D01*
X125182381Y-85812381D02*
X125182381Y-85193333D01*
X125563333Y-85526667D01*
X125563333Y-85383809D01*
X125610952Y-85288571D01*
X125658571Y-85240952D01*
X125753810Y-85193333D01*
X125991905Y-85193333D01*
X126087143Y-85240952D01*
X126134762Y-85288571D01*
X126182381Y-85383809D01*
X126182381Y-85669524D01*
X126134762Y-85764762D01*
X126087143Y-85812381D01*
X125182381Y-84860000D02*
X125182381Y-84193333D01*
X126182381Y-84621905D01*
X125515714Y-83383809D02*
X126182381Y-83383809D01*
X125134762Y-83621905D02*
X125849048Y-83860000D01*
X125849048Y-83240952D01*
X156083095Y-76922381D02*
X156083095Y-77731905D01*
X156130714Y-77827143D01*
X156178333Y-77874762D01*
X156273571Y-77922381D01*
X156464048Y-77922381D01*
X156559286Y-77874762D01*
X156606905Y-77827143D01*
X156654524Y-77731905D01*
X156654524Y-76922381D01*
X157273571Y-77350952D02*
X157178333Y-77303333D01*
X157130714Y-77255714D01*
X157083095Y-77160476D01*
X157083095Y-77112857D01*
X157130714Y-77017619D01*
X157178333Y-76970000D01*
X157273571Y-76922381D01*
X157464048Y-76922381D01*
X157559286Y-76970000D01*
X157606905Y-77017619D01*
X157654524Y-77112857D01*
X157654524Y-77160476D01*
X157606905Y-77255714D01*
X157559286Y-77303333D01*
X157464048Y-77350952D01*
X157273571Y-77350952D01*
X157178333Y-77398571D01*
X157130714Y-77446190D01*
X157083095Y-77541429D01*
X157083095Y-77731905D01*
X157130714Y-77827143D01*
X157178333Y-77874762D01*
X157273571Y-77922381D01*
X157464048Y-77922381D01*
X157559286Y-77874762D01*
X157606905Y-77827143D01*
X157654524Y-77731905D01*
X157654524Y-77541429D01*
X157606905Y-77446190D01*
X157559286Y-77398571D01*
X157464048Y-77350952D01*
X156297381Y-89479048D02*
X156297381Y-88812381D01*
X157297381Y-89240953D01*
X156630714Y-88002857D02*
X157297381Y-88002857D01*
X156249762Y-88240953D02*
X156964048Y-88479048D01*
X156964048Y-87860000D01*
X157297381Y-87002857D02*
X157297381Y-87479048D01*
X156297381Y-87479048D01*
X157249762Y-86717143D02*
X157297381Y-86574286D01*
X157297381Y-86336190D01*
X157249762Y-86240952D01*
X157202143Y-86193333D01*
X157106905Y-86145714D01*
X157011667Y-86145714D01*
X156916429Y-86193333D01*
X156868810Y-86240952D01*
X156821190Y-86336190D01*
X156773571Y-86526667D01*
X156725952Y-86621905D01*
X156678333Y-86669524D01*
X156583095Y-86717143D01*
X156487857Y-86717143D01*
X156392619Y-86669524D01*
X156345000Y-86621905D01*
X156297381Y-86526667D01*
X156297381Y-86288571D01*
X156345000Y-86145714D01*
X156297381Y-85812381D02*
X156297381Y-85193333D01*
X156678333Y-85526667D01*
X156678333Y-85383809D01*
X156725952Y-85288571D01*
X156773571Y-85240952D01*
X156868810Y-85193333D01*
X157106905Y-85193333D01*
X157202143Y-85240952D01*
X157249762Y-85288571D01*
X157297381Y-85383809D01*
X157297381Y-85669524D01*
X157249762Y-85764762D01*
X157202143Y-85812381D01*
X156297381Y-84860000D02*
X156297381Y-84193333D01*
X157297381Y-84621905D01*
X156630714Y-83383809D02*
X157297381Y-83383809D01*
X156249762Y-83621905D02*
X156964048Y-83860000D01*
X156964048Y-83240952D01*
X180173334Y-77827143D02*
X180125715Y-77874762D01*
X179982858Y-77922381D01*
X179887620Y-77922381D01*
X179744762Y-77874762D01*
X179649524Y-77779524D01*
X179601905Y-77684286D01*
X179554286Y-77493810D01*
X179554286Y-77350952D01*
X179601905Y-77160476D01*
X179649524Y-77065238D01*
X179744762Y-76970000D01*
X179887620Y-76922381D01*
X179982858Y-76922381D01*
X180125715Y-76970000D01*
X180173334Y-77017619D01*
X181078096Y-76922381D02*
X180601905Y-76922381D01*
X180554286Y-77398571D01*
X180601905Y-77350952D01*
X180697143Y-77303333D01*
X180935239Y-77303333D01*
X181030477Y-77350952D01*
X181078096Y-77398571D01*
X181125715Y-77493810D01*
X181125715Y-77731905D01*
X181078096Y-77827143D01*
X181030477Y-77874762D01*
X180935239Y-77922381D01*
X180697143Y-77922381D01*
X180601905Y-77874762D01*
X180554286Y-77827143D01*
X183348334Y-109037381D02*
X182872143Y-109037381D01*
X182872143Y-108037381D01*
X184205477Y-109037381D02*
X183634048Y-109037381D01*
X183919762Y-109037381D02*
X183919762Y-108037381D01*
X183824524Y-108180238D01*
X183729286Y-108275476D01*
X183634048Y-108323095D01*
X185380477Y-108513571D02*
X185523334Y-108561190D01*
X185570953Y-108608810D01*
X185618572Y-108704048D01*
X185618572Y-108846905D01*
X185570953Y-108942143D01*
X185523334Y-108989762D01*
X185428096Y-109037381D01*
X185047143Y-109037381D01*
X185047143Y-108037381D01*
X185380477Y-108037381D01*
X185475715Y-108085000D01*
X185523334Y-108132619D01*
X185570953Y-108227857D01*
X185570953Y-108323095D01*
X185523334Y-108418333D01*
X185475715Y-108465952D01*
X185380477Y-108513571D01*
X185047143Y-108513571D01*
X186047143Y-108513571D02*
X186380477Y-108513571D01*
X186523334Y-109037381D02*
X186047143Y-109037381D01*
X186047143Y-108037381D01*
X186523334Y-108037381D01*
X186904286Y-108751667D02*
X187380477Y-108751667D01*
X186809048Y-109037381D02*
X187142381Y-108037381D01*
X187475715Y-109037381D01*
X187809048Y-109037381D02*
X187809048Y-108037381D01*
X188047143Y-108037381D01*
X188190001Y-108085000D01*
X188285239Y-108180238D01*
X188332858Y-108275476D01*
X188380477Y-108465952D01*
X188380477Y-108608810D01*
X188332858Y-108799286D01*
X188285239Y-108894524D01*
X188190001Y-108989762D01*
X188047143Y-109037381D01*
X187809048Y-109037381D01*
M02*
