M48
;DRILL file {KiCad 4.0.7} date 01/29/20 23:24:53
;FORMAT={2:4/ absolute / inch / suppress leading zeros}
FMAT,2
INCH,TZ
T1C0.016
T2C0.024
T3C0.031
T4C0.039
T5C0.067
T6C0.102
%
G90
G05
M72
T1
X37750Y-39500
X37750Y-57250
X39500Y-35000
X39750Y-40500
X40000Y-36500
X40000Y-39500
X40250Y-35000
X40750Y-44250
X40750Y-44750
X40750Y-45750
X40750Y-46750
X42250Y-45250
X42500Y-45000
X42500Y-46250
X42750Y-47250
X43000Y-48500
X43000Y-54250
X43000Y-56000
X43250Y-39000
X43250Y-45500
X43250Y-48250
X43250Y-54500
X43250Y-56250
X43500Y-54250
X43500Y-56000
X43750Y-54500
X43750Y-56250
X44000Y-31750
X45500Y-38500
X46500Y-57500
X48250Y-41000
X48500Y-38000
X48750Y-30500
X48750Y-37750
X49000Y-33500
X49000Y-34750
X49000Y-38000
X49250Y-34000
X49250Y-38250
X50000Y-34750
X50000Y-38000
X50250Y-44000
X51250Y-44000
X52250Y-44000
X52500Y-45750
X53250Y-57250
X54750Y-39000
X54750Y-42250
X54750Y-52000
X55000Y-30750
X55000Y-38250
X55000Y-42000
X55000Y-54500
X55000Y-56750
X55000Y-57250
X55250Y-33500
X55250Y-34750
X55250Y-38750
X55250Y-41750
X55250Y-54250
X55500Y-33750
X55500Y-38500
X55500Y-41500
X55500Y-48250
X55500Y-51500
X55500Y-57000
X55750Y-35250
X55750Y-37500
X55750Y-38000
X55750Y-38750
X55750Y-41750
X55750Y-54250
X56000Y-38500
X56000Y-41500
X56000Y-54000
X56250Y-38750
X56250Y-41750
X56250Y-47750
X56500Y-51500
X56750Y-41750
X56750Y-42750
X56750Y-54000
X57000Y-53750
X57250Y-48000
X57500Y-52250
X57750Y-42750
X57750Y-48000
X58000Y-41750
X58000Y-53500
X58250Y-42750
X58250Y-48000
X58500Y-41750
X58500Y-52500
X58750Y-42750
X58750Y-48000
X59000Y-53250
X59250Y-42750
X59250Y-48000
X59500Y-52750
X59750Y-42750
X59750Y-48000
X60000Y-53000
X60500Y-44000
X60500Y-57500
X60750Y-54250
X61000Y-30750
X61000Y-38250
X61000Y-54000
X61000Y-57250
X61250Y-33750
X61250Y-38500
X61500Y-30750
X61500Y-38250
X61750Y-34750
X61750Y-38500
X61750Y-40750
X61750Y-41250
X61750Y-41750
X62000Y-33750
X62000Y-38250
X62250Y-37750
X62250Y-38500
X62250Y-41750
X62500Y-38250
X62500Y-54000
X62750Y-39000
X62750Y-41500
X62750Y-42250
X62750Y-54250
X63250Y-41500
X64000Y-40250
X65000Y-49750
X65250Y-34250
X65500Y-33750
X65500Y-34500
X65750Y-30250
X65750Y-34750
X69250Y-56500
X69500Y-47250
X70000Y-46000
X70250Y-47000
X70500Y-47250
X70750Y-28500
X76250Y-57250
T2
X74500Y-35500
X74500Y-36500
X75000Y-36000
T3
X38750Y-29500
X38750Y-31469
X38750Y-32750
X38750Y-33750
X38750Y-34750
X38750Y-35750
X38750Y-36750
X38750Y-37750
X38750Y-38750
X38750Y-39750
X38750Y-40750
X38750Y-41750
X38750Y-42750
X38750Y-43750
X38750Y-44750
X38750Y-45750
X38750Y-46750
X38750Y-47750
X38750Y-48750
X38750Y-49750
X38750Y-50750
X38750Y-51750
X41079Y-30500
X41750Y-54500
X43000Y-30500
X44750Y-32750
X44750Y-33750
X44750Y-34750
X44750Y-35750
X44750Y-36750
X44750Y-37750
X44750Y-38750
X44750Y-39750
X44750Y-40750
X44750Y-41750
X44750Y-42750
X44750Y-43750
X44750Y-44750
X44750Y-45750
X44750Y-46750
X44750Y-47750
X44750Y-48750
X44750Y-49750
X44750Y-50750
X44750Y-51750
X44750Y-54500
X45250Y-29500
X45250Y-31469
X46250Y-39750
X46250Y-41719
X46250Y-44750
X46250Y-46719
X47750Y-44750
X47750Y-50750
X48000Y-29500
X48000Y-30500
X48000Y-31500
X48000Y-32500
X48000Y-33500
X48000Y-34500
X48000Y-35500
X48000Y-36500
X48000Y-37500
X48000Y-38500
X48750Y-44750
X48750Y-50750
X49750Y-44750
X49750Y-50750
X50750Y-44750
X50750Y-50750
X51000Y-29500
X51000Y-30500
X51000Y-31500
X51000Y-32500
X51000Y-33500
X51000Y-34500
X51000Y-35500
X51000Y-36500
X51000Y-37500
X51000Y-38500
X51750Y-44750
X51750Y-50750
X52750Y-29500
X52750Y-31469
X52750Y-44750
X52750Y-50750
X53750Y-44750
X53750Y-50750
X54250Y-29500
X54250Y-30500
X54250Y-31500
X54250Y-32500
X54250Y-33500
X54250Y-34500
X54250Y-35500
X54250Y-36500
X54250Y-37500
X54250Y-38500
X54750Y-44750
X54750Y-50750
X55750Y-44750
X55750Y-50750
X56750Y-44750
X56750Y-50750
X57250Y-29500
X57250Y-30500
X57250Y-31500
X57250Y-32500
X57250Y-33500
X57250Y-34500
X57250Y-35500
X57250Y-36500
X57250Y-37500
X57250Y-38500
X57750Y-44750
X57750Y-50750
X58750Y-29500
X58750Y-31469
X58750Y-44750
X58750Y-50750
X59750Y-44750
X59750Y-50750
X60250Y-29500
X60250Y-30500
X60250Y-31500
X60250Y-32500
X60250Y-33500
X60250Y-34500
X60250Y-35500
X60250Y-36500
X60250Y-37500
X60250Y-38500
X60750Y-44750
X60750Y-50750
X62750Y-44750
X62750Y-45750
X62750Y-46750
X62750Y-47750
X62750Y-48750
X62750Y-49750
X62750Y-50750
X62750Y-51750
X63250Y-29500
X63250Y-30500
X63250Y-31500
X63250Y-32500
X63250Y-33500
X63250Y-34500
X63250Y-35500
X63250Y-36500
X63250Y-37500
X63250Y-38500
X64750Y-29500
X64750Y-31469
X65750Y-44750
X65750Y-45750
X65750Y-46750
X65750Y-47750
X65750Y-48750
X65750Y-49750
X65750Y-50750
X65750Y-51750
X66500Y-29500
X66500Y-30500
X66500Y-31500
X66500Y-32500
X66500Y-33500
X66500Y-34500
X66500Y-35500
X67250Y-44750
X67250Y-46719
X67750Y-40250
X68266Y-42250
X68750Y-44750
X68750Y-45750
X68750Y-46750
X68750Y-47750
X68750Y-48750
X68750Y-49750
X68750Y-50750
X68750Y-51750
X69250Y-42250
X69500Y-29500
X69500Y-30500
X69500Y-31500
X69500Y-32500
X69500Y-33500
X69500Y-34500
X69500Y-35500
X69719Y-40250
X71000Y-29500
X71000Y-31469
X71000Y-38000
X71000Y-39500
X71000Y-41000
X71000Y-42750
X71750Y-35516
X71750Y-36500
X71750Y-44750
X71750Y-45750
X71750Y-46750
X71750Y-47750
X71750Y-48750
X71750Y-49750
X71750Y-50750
X71750Y-51750
X73250Y-44750
X73250Y-46719
X75000Y-38000
X75000Y-39500
X75000Y-41000
X75000Y-42750
T4
X38000Y-58000
X39000Y-58000
X40000Y-58000
X41000Y-58000
X42000Y-58000
X43000Y-58000
X44000Y-58000
X45000Y-58000
X46000Y-58000
X47000Y-54500
X47000Y-55500
X47000Y-58000
X48000Y-54500
X48000Y-55500
X48000Y-58000
X49000Y-58000
X50000Y-58000
X51000Y-58000
X52000Y-58000
X53000Y-58000
X54000Y-58000
X55000Y-58000
X56000Y-58000
X57000Y-58000
X58000Y-58000
X59000Y-58000
X60000Y-58000
X61000Y-58000
X62000Y-58000
X63000Y-58000
X64000Y-58000
X65000Y-58000
X66000Y-58000
X67000Y-58000
X68000Y-58000
X69000Y-58000
X70000Y-58000
X71000Y-58000
X72000Y-58000
X73000Y-58000
X74000Y-58000
X74750Y-44750
X74750Y-45750
X74750Y-46750
X74750Y-47750
X74750Y-48750
X74750Y-49750
X75000Y-58000
X75750Y-44750
X75750Y-45750
X75750Y-46750
X75750Y-47750
X75750Y-48750
X75750Y-49750
X76000Y-58000
T5
X73407Y-31750
T6
X73407Y-29781
X73407Y-33719
X75179Y-31750
T0
M30
