G04 #@! TF.FileFunction,Soldermask,Top*
%FSLAX46Y46*%
G04 Gerber Fmt 4.6, Leading zero omitted, Abs format (unit mm)*
G04 Created by KiCad (PCBNEW 4.0.7) date 01/29/20 23:24:51*
%MOMM*%
%LPD*%
G01*
G04 APERTURE LIST*
%ADD10C,0.100000*%
%ADD11R,2.000000X2.000000*%
%ADD12C,2.000000*%
%ADD13R,2.100000X2.100000*%
%ADD14O,2.100000X2.100000*%
%ADD15O,2.000000X2.000000*%
%ADD16C,1.900000*%
%ADD17C,2.950000*%
%ADD18C,4.016000*%
%ADD19C,1.400000*%
%ADD20R,1.400000X1.400000*%
%ADD21R,2.800000X2.000000*%
%ADD22O,2.800000X2.000000*%
%ADD23R,2.000000X2.800000*%
%ADD24O,2.000000X2.800000*%
G04 APERTURE END LIST*
D10*
D11*
X175895000Y-107315000D03*
D12*
X173395000Y-107315000D03*
D13*
X193040000Y-147320000D03*
D14*
X190500000Y-147320000D03*
X187960000Y-147320000D03*
X185420000Y-147320000D03*
X182880000Y-147320000D03*
X180340000Y-147320000D03*
X177800000Y-147320000D03*
X175260000Y-147320000D03*
X172720000Y-147320000D03*
X170180000Y-147320000D03*
X167640000Y-147320000D03*
X165100000Y-147320000D03*
X162560000Y-147320000D03*
X160020000Y-147320000D03*
X157480000Y-147320000D03*
X154940000Y-147320000D03*
X152400000Y-147320000D03*
X149860000Y-147320000D03*
X147320000Y-147320000D03*
X144780000Y-147320000D03*
X142240000Y-147320000D03*
X139700000Y-147320000D03*
X137160000Y-147320000D03*
X134620000Y-147320000D03*
X132080000Y-147320000D03*
X129540000Y-147320000D03*
X127000000Y-147320000D03*
X124460000Y-147320000D03*
X121920000Y-147320000D03*
X119380000Y-147320000D03*
X116840000Y-147320000D03*
X114300000Y-147320000D03*
X111760000Y-147320000D03*
X109220000Y-147320000D03*
X106680000Y-147320000D03*
X104140000Y-147320000D03*
X101600000Y-147320000D03*
X99060000Y-147320000D03*
X96520000Y-147320000D03*
D11*
X174625000Y-113665000D03*
D15*
X182245000Y-131445000D03*
X174625000Y-116205000D03*
X182245000Y-128905000D03*
X174625000Y-118745000D03*
X182245000Y-126365000D03*
X174625000Y-121285000D03*
X182245000Y-123825000D03*
X174625000Y-123825000D03*
X182245000Y-121285000D03*
X174625000Y-126365000D03*
X182245000Y-118745000D03*
X174625000Y-128905000D03*
X182245000Y-116205000D03*
X174625000Y-131445000D03*
X182245000Y-113665000D03*
D11*
X159385000Y-113665000D03*
D15*
X167005000Y-131445000D03*
X159385000Y-116205000D03*
X167005000Y-128905000D03*
X159385000Y-118745000D03*
X167005000Y-126365000D03*
X159385000Y-121285000D03*
X167005000Y-123825000D03*
X159385000Y-123825000D03*
X167005000Y-121285000D03*
X159385000Y-126365000D03*
X167005000Y-118745000D03*
X159385000Y-128905000D03*
X167005000Y-116205000D03*
X159385000Y-131445000D03*
X167005000Y-113665000D03*
D13*
X189865000Y-113665000D03*
D14*
X192405000Y-113665000D03*
X189865000Y-116205000D03*
X192405000Y-116205000D03*
X189865000Y-118745000D03*
X192405000Y-118745000D03*
X189865000Y-121285000D03*
X192405000Y-121285000D03*
X189865000Y-123825000D03*
X192405000Y-123825000D03*
X189865000Y-126365000D03*
X192405000Y-126365000D03*
D12*
X117475000Y-100965000D03*
X117475000Y-105965000D03*
X186055000Y-113665000D03*
X186055000Y-118665000D03*
X117475000Y-113665000D03*
X117475000Y-118665000D03*
X170815000Y-113665000D03*
X170815000Y-118665000D03*
X190500000Y-100330000D03*
D15*
X180340000Y-100330000D03*
D12*
X190500000Y-104140000D03*
D15*
X180340000Y-104140000D03*
D12*
X180340000Y-96520000D03*
D15*
X190500000Y-96520000D03*
D16*
X109220000Y-77470000D03*
X104340000Y-77470000D03*
D12*
X149225000Y-74930000D03*
X149225000Y-79930000D03*
X133985000Y-74930000D03*
X133985000Y-79930000D03*
X164465000Y-74930000D03*
X164465000Y-79930000D03*
X98425000Y-74930000D03*
X98425000Y-79930000D03*
X114935000Y-74930000D03*
X114935000Y-79930000D03*
X172085000Y-102235000D03*
X177085000Y-102235000D03*
D11*
X182245000Y-92710000D03*
D12*
X182245000Y-90210000D03*
D11*
X106045000Y-138430000D03*
D15*
X113665000Y-138430000D03*
D13*
X121920000Y-140970000D03*
D14*
X119380000Y-140970000D03*
X121920000Y-138430000D03*
X119380000Y-138430000D03*
D17*
X186455000Y-80645000D03*
D18*
X186455000Y-85645000D03*
X186455000Y-75645000D03*
X190955000Y-80645000D03*
D19*
X190500000Y-91440000D03*
X189230000Y-92710000D03*
D20*
X189230000Y-90170000D03*
D21*
X98425000Y-83185000D03*
D22*
X113665000Y-131445000D03*
X98425000Y-85725000D03*
X113665000Y-128905000D03*
X98425000Y-88265000D03*
X113665000Y-126365000D03*
X98425000Y-90805000D03*
X113665000Y-123825000D03*
X98425000Y-93345000D03*
X113665000Y-121285000D03*
X98425000Y-95885000D03*
X113665000Y-118745000D03*
X98425000Y-98425000D03*
X113665000Y-116205000D03*
X98425000Y-100965000D03*
X113665000Y-113665000D03*
X98425000Y-103505000D03*
X113665000Y-111125000D03*
X98425000Y-106045000D03*
X113665000Y-108585000D03*
X98425000Y-108585000D03*
X113665000Y-106045000D03*
X98425000Y-111125000D03*
X113665000Y-103505000D03*
X98425000Y-113665000D03*
X113665000Y-100965000D03*
X98425000Y-116205000D03*
X113665000Y-98425000D03*
X98425000Y-118745000D03*
X113665000Y-95885000D03*
X98425000Y-121285000D03*
X113665000Y-93345000D03*
X98425000Y-123825000D03*
X113665000Y-90805000D03*
X98425000Y-126365000D03*
X113665000Y-88265000D03*
X98425000Y-128905000D03*
X113665000Y-85725000D03*
X98425000Y-131445000D03*
X113665000Y-83185000D03*
D23*
X121285000Y-128905000D03*
D24*
X154305000Y-113665000D03*
X123825000Y-128905000D03*
X151765000Y-113665000D03*
X126365000Y-128905000D03*
X149225000Y-113665000D03*
X128905000Y-128905000D03*
X146685000Y-113665000D03*
X131445000Y-128905000D03*
X144145000Y-113665000D03*
X133985000Y-128905000D03*
X141605000Y-113665000D03*
X136525000Y-128905000D03*
X139065000Y-113665000D03*
X139065000Y-128905000D03*
X136525000Y-113665000D03*
X141605000Y-128905000D03*
X133985000Y-113665000D03*
X144145000Y-128905000D03*
X131445000Y-113665000D03*
X146685000Y-128905000D03*
X128905000Y-113665000D03*
X149225000Y-128905000D03*
X126365000Y-113665000D03*
X151765000Y-128905000D03*
X123825000Y-113665000D03*
X154305000Y-128905000D03*
X121285000Y-113665000D03*
D11*
X168910000Y-74930000D03*
D15*
X176530000Y-90170000D03*
X168910000Y-77470000D03*
X176530000Y-87630000D03*
X168910000Y-80010000D03*
X176530000Y-85090000D03*
X168910000Y-82550000D03*
X176530000Y-82550000D03*
X168910000Y-85090000D03*
X176530000Y-80010000D03*
X168910000Y-87630000D03*
X176530000Y-77470000D03*
X168910000Y-90170000D03*
X176530000Y-74930000D03*
D11*
X137795000Y-74930000D03*
D15*
X145415000Y-97790000D03*
X137795000Y-77470000D03*
X145415000Y-95250000D03*
X137795000Y-80010000D03*
X145415000Y-92710000D03*
X137795000Y-82550000D03*
X145415000Y-90170000D03*
X137795000Y-85090000D03*
X145415000Y-87630000D03*
X137795000Y-87630000D03*
X145415000Y-85090000D03*
X137795000Y-90170000D03*
X145415000Y-82550000D03*
X137795000Y-92710000D03*
X145415000Y-80010000D03*
X137795000Y-95250000D03*
X145415000Y-77470000D03*
X137795000Y-97790000D03*
X145415000Y-74930000D03*
D11*
X121920000Y-74930000D03*
D15*
X129540000Y-97790000D03*
X121920000Y-77470000D03*
X129540000Y-95250000D03*
X121920000Y-80010000D03*
X129540000Y-92710000D03*
X121920000Y-82550000D03*
X129540000Y-90170000D03*
X121920000Y-85090000D03*
X129540000Y-87630000D03*
X121920000Y-87630000D03*
X129540000Y-85090000D03*
X121920000Y-90170000D03*
X129540000Y-82550000D03*
X121920000Y-92710000D03*
X129540000Y-80010000D03*
X121920000Y-95250000D03*
X129540000Y-77470000D03*
X121920000Y-97790000D03*
X129540000Y-74930000D03*
D11*
X153035000Y-74930000D03*
D15*
X160655000Y-97790000D03*
X153035000Y-77470000D03*
X160655000Y-95250000D03*
X153035000Y-80010000D03*
X160655000Y-92710000D03*
X153035000Y-82550000D03*
X160655000Y-90170000D03*
X153035000Y-85090000D03*
X160655000Y-87630000D03*
X153035000Y-87630000D03*
X160655000Y-85090000D03*
X153035000Y-90170000D03*
X160655000Y-82550000D03*
X153035000Y-92710000D03*
X160655000Y-80010000D03*
X153035000Y-95250000D03*
X160655000Y-77470000D03*
X153035000Y-97790000D03*
X160655000Y-74930000D03*
D12*
X180340000Y-74930000D03*
X180340000Y-79930000D03*
X190500000Y-108585000D03*
D15*
X180340000Y-108585000D03*
M02*
