G04 #@! TF.FileFunction,Copper,L1,Top,Signal*
%FSLAX46Y46*%
G04 Gerber Fmt 4.6, Leading zero omitted, Abs format (unit mm)*
G04 Created by KiCad (PCBNEW 4.0.7) date 12/04/19 22:34:12*
%MOMM*%
%LPD*%
G01*
G04 APERTURE LIST*
%ADD10C,0.100000*%
%ADD11R,1.700000X1.700000*%
%ADD12O,1.700000X1.700000*%
%ADD13C,5.000000*%
%ADD14C,1.600000*%
%ADD15R,2.400000X1.600000*%
%ADD16O,2.400000X1.600000*%
%ADD17R,1.600000X2.400000*%
%ADD18O,1.600000X2.400000*%
%ADD19C,0.600000*%
%ADD20C,0.250000*%
G04 APERTURE END LIST*
D10*
D11*
X198120000Y-145415000D03*
D12*
X195580000Y-145415000D03*
X193040000Y-145415000D03*
X190500000Y-145415000D03*
X187960000Y-145415000D03*
X185420000Y-145415000D03*
X182880000Y-145415000D03*
X180340000Y-145415000D03*
X177800000Y-145415000D03*
X175260000Y-145415000D03*
X172720000Y-145415000D03*
X170180000Y-145415000D03*
X167640000Y-145415000D03*
X165100000Y-145415000D03*
X162560000Y-145415000D03*
X160020000Y-145415000D03*
X157480000Y-145415000D03*
X154940000Y-145415000D03*
X152400000Y-145415000D03*
X149860000Y-145415000D03*
X147320000Y-145415000D03*
X144780000Y-145415000D03*
X142240000Y-145415000D03*
X139700000Y-145415000D03*
X137160000Y-145415000D03*
X134620000Y-145415000D03*
X132080000Y-145415000D03*
X129540000Y-145415000D03*
X127000000Y-145415000D03*
X124460000Y-145415000D03*
X121920000Y-145415000D03*
X119380000Y-145415000D03*
X116840000Y-145415000D03*
X114300000Y-145415000D03*
X111760000Y-145415000D03*
X109220000Y-145415000D03*
X106680000Y-145415000D03*
X104140000Y-145415000D03*
X101600000Y-145415000D03*
D13*
X104140000Y-140335000D03*
X195580000Y-140335000D03*
X195580000Y-55880000D03*
X104140000Y-55880000D03*
D11*
X198120000Y-50800000D03*
D12*
X195580000Y-50800000D03*
X193040000Y-50800000D03*
X190500000Y-50800000D03*
X187960000Y-50800000D03*
X185420000Y-50800000D03*
X182880000Y-50800000D03*
X180340000Y-50800000D03*
X177800000Y-50800000D03*
X175260000Y-50800000D03*
X172720000Y-50800000D03*
X170180000Y-50800000D03*
X167640000Y-50800000D03*
X165100000Y-50800000D03*
X162560000Y-50800000D03*
X160020000Y-50800000D03*
X157480000Y-50800000D03*
X154940000Y-50800000D03*
X152400000Y-50800000D03*
X149860000Y-50800000D03*
X147320000Y-50800000D03*
X144780000Y-50800000D03*
X142240000Y-50800000D03*
X139700000Y-50800000D03*
X137160000Y-50800000D03*
X134620000Y-50800000D03*
X132080000Y-50800000D03*
X129540000Y-50800000D03*
X127000000Y-50800000D03*
X124460000Y-50800000D03*
X121920000Y-50800000D03*
X119380000Y-50800000D03*
X116840000Y-50800000D03*
X114300000Y-50800000D03*
X111760000Y-50800000D03*
X109220000Y-50800000D03*
X106680000Y-50800000D03*
X104140000Y-50800000D03*
X101600000Y-50800000D03*
D14*
X156845000Y-75565000D03*
X156845000Y-70565000D03*
X173355000Y-56515000D03*
X168355000Y-56515000D03*
X188595000Y-56515000D03*
X183595000Y-56515000D03*
D11*
X194310000Y-65405000D03*
D12*
X196850000Y-65405000D03*
X194310000Y-67945000D03*
X196850000Y-67945000D03*
X194310000Y-70485000D03*
X196850000Y-70485000D03*
X194310000Y-73025000D03*
X196850000Y-73025000D03*
X194310000Y-75565000D03*
X196850000Y-75565000D03*
X194310000Y-78105000D03*
X196850000Y-78105000D03*
D11*
X104140000Y-80010000D03*
D12*
X106680000Y-80010000D03*
X109220000Y-80010000D03*
X111760000Y-80010000D03*
X114300000Y-80010000D03*
X116840000Y-80010000D03*
X119380000Y-80010000D03*
X121920000Y-80010000D03*
X124460000Y-80010000D03*
X127000000Y-80010000D03*
D11*
X132080000Y-80010000D03*
D12*
X134620000Y-80010000D03*
X137160000Y-80010000D03*
X139700000Y-80010000D03*
X142240000Y-80010000D03*
X144780000Y-80010000D03*
X147320000Y-80010000D03*
X149860000Y-80010000D03*
X152400000Y-80010000D03*
X154940000Y-80010000D03*
D11*
X195580000Y-133985000D03*
D12*
X195580000Y-131445000D03*
D11*
X195580000Y-88265000D03*
D12*
X195580000Y-85725000D03*
D11*
X147320000Y-57150000D03*
D12*
X144780000Y-57150000D03*
D11*
X156845000Y-60325000D03*
D12*
X156845000Y-62865000D03*
X156845000Y-65405000D03*
D15*
X182245000Y-60325000D03*
D16*
X189865000Y-78105000D03*
X182245000Y-62865000D03*
X189865000Y-75565000D03*
X182245000Y-65405000D03*
X189865000Y-73025000D03*
X182245000Y-67945000D03*
X189865000Y-70485000D03*
X182245000Y-70485000D03*
X189865000Y-67945000D03*
X182245000Y-73025000D03*
X189865000Y-65405000D03*
X182245000Y-75565000D03*
X189865000Y-62865000D03*
X182245000Y-78105000D03*
X189865000Y-60325000D03*
D17*
X104140000Y-75565000D03*
D18*
X152400000Y-60325000D03*
X106680000Y-75565000D03*
X149860000Y-60325000D03*
X109220000Y-75565000D03*
X147320000Y-60325000D03*
X111760000Y-75565000D03*
X144780000Y-60325000D03*
X114300000Y-75565000D03*
X142240000Y-60325000D03*
X116840000Y-75565000D03*
X139700000Y-60325000D03*
X119380000Y-75565000D03*
X137160000Y-60325000D03*
X121920000Y-75565000D03*
X134620000Y-60325000D03*
X124460000Y-75565000D03*
X132080000Y-60325000D03*
X127000000Y-75565000D03*
X129540000Y-60325000D03*
X129540000Y-75565000D03*
X127000000Y-60325000D03*
X132080000Y-75565000D03*
X124460000Y-60325000D03*
X134620000Y-75565000D03*
X121920000Y-60325000D03*
X137160000Y-75565000D03*
X119380000Y-60325000D03*
X139700000Y-75565000D03*
X116840000Y-60325000D03*
X142240000Y-75565000D03*
X114300000Y-60325000D03*
X144780000Y-75565000D03*
X111760000Y-60325000D03*
X147320000Y-75565000D03*
X109220000Y-60325000D03*
X149860000Y-75565000D03*
X106680000Y-60325000D03*
X152400000Y-75565000D03*
X104140000Y-60325000D03*
D15*
X167005000Y-60325000D03*
D16*
X174625000Y-78105000D03*
X167005000Y-62865000D03*
X174625000Y-75565000D03*
X167005000Y-65405000D03*
X174625000Y-73025000D03*
X167005000Y-67945000D03*
X174625000Y-70485000D03*
X167005000Y-70485000D03*
X174625000Y-67945000D03*
X167005000Y-73025000D03*
X174625000Y-65405000D03*
X167005000Y-75565000D03*
X174625000Y-62865000D03*
X167005000Y-78105000D03*
X174625000Y-60325000D03*
D19*
X158750000Y-133985000D03*
X158750000Y-88265000D03*
X158115000Y-67310000D03*
X158115000Y-58420000D03*
X154305000Y-63500000D03*
X145415000Y-63500000D03*
X172720000Y-71755000D03*
X197485000Y-66675000D03*
X198120000Y-62230000D03*
X198120000Y-64135000D03*
X179705000Y-66040000D03*
X175895000Y-66675000D03*
X179070000Y-63500000D03*
X175895000Y-64135000D03*
X178435000Y-60960000D03*
X175895000Y-61595000D03*
X155575000Y-53975000D03*
X116840000Y-54610000D03*
X161925000Y-53975000D03*
X159385000Y-53975000D03*
X156210000Y-53340000D03*
X114300000Y-53975000D03*
X161290000Y-53340000D03*
X158750000Y-53340000D03*
X155575000Y-52705000D03*
X111760000Y-53340000D03*
X160655000Y-52705000D03*
X159385000Y-52705000D03*
X156210000Y-52070000D03*
X109220000Y-52705000D03*
X140970000Y-62230000D03*
X121920000Y-64135000D03*
X131445000Y-65405000D03*
X125095000Y-65405000D03*
X130175000Y-65405000D03*
X126365000Y-64770000D03*
X128905000Y-64770000D03*
X123825000Y-64135000D03*
X131445000Y-64135000D03*
X121285000Y-63500000D03*
X133985000Y-63500000D03*
X118745000Y-62865000D03*
X136525000Y-62865000D03*
X116205000Y-62230000D03*
X119380000Y-55245000D03*
X149225000Y-54610000D03*
X154940000Y-64135000D03*
X103505000Y-63500000D03*
X101600000Y-63500000D03*
X101600000Y-143510000D03*
X101600000Y-52705000D03*
X175895000Y-69215000D03*
X180975000Y-69215000D03*
X107315000Y-73660000D03*
X106680000Y-72390000D03*
X151765000Y-57785000D03*
X159385000Y-55245000D03*
X164465000Y-55245000D03*
X147955000Y-62865000D03*
D20*
X189865000Y-56515000D02*
X191770000Y-54610000D01*
X154940000Y-145415000D02*
X154940000Y-144780000D01*
X154940000Y-144780000D02*
X155575000Y-144145000D01*
X158115000Y-143510000D02*
X158115000Y-142875000D01*
X157480000Y-144145000D02*
X158115000Y-143510000D01*
X155575000Y-144145000D02*
X157480000Y-144145000D01*
X158115000Y-133350000D02*
X158115000Y-142875000D01*
X158115000Y-87630000D02*
X158115000Y-133350000D01*
X158115000Y-133350000D02*
X158750000Y-133985000D01*
X158115000Y-74295000D02*
X158115000Y-87630000D01*
X158115000Y-87630000D02*
X158750000Y-88265000D01*
X156845000Y-75565000D02*
X158115000Y-74295000D01*
X158115000Y-74295000D02*
X158115000Y-67310000D01*
X155575000Y-55245000D02*
X154940000Y-54610000D01*
X156845000Y-55245000D02*
X155575000Y-55245000D01*
X158115000Y-55880000D02*
X157480000Y-55245000D01*
X157480000Y-55245000D02*
X156845000Y-55245000D01*
X158115000Y-58420000D02*
X158115000Y-55880000D01*
X144780000Y-60325000D02*
X144780000Y-62230000D01*
X154305000Y-63500000D02*
X154940000Y-62865000D01*
X154940000Y-62865000D02*
X154940000Y-54610000D01*
X144780000Y-62230000D02*
X144780000Y-62865000D01*
X144780000Y-62865000D02*
X145415000Y-63500000D01*
X154940000Y-50800000D02*
X154940000Y-54610000D01*
X189865000Y-60325000D02*
X189865000Y-56515000D01*
X174625000Y-60325000D02*
X174625000Y-57785000D01*
X174625000Y-57785000D02*
X173355000Y-56515000D01*
X173355000Y-56515000D02*
X173355000Y-53340000D01*
X173355000Y-53340000D02*
X173990000Y-52705000D01*
X173990000Y-52705000D02*
X173990000Y-49530000D01*
X173990000Y-49530000D02*
X173355000Y-48895000D01*
X191135000Y-48895000D02*
X173355000Y-48895000D01*
X188595000Y-56515000D02*
X189865000Y-56515000D01*
X191770000Y-49530000D02*
X191135000Y-48895000D01*
X191770000Y-54610000D02*
X191770000Y-49530000D01*
X173355000Y-48895000D02*
X155575000Y-48895000D01*
X155575000Y-48895000D02*
X154940000Y-49530000D01*
X154940000Y-49530000D02*
X154940000Y-50800000D01*
X167005000Y-73025000D02*
X172085000Y-73025000D01*
X172720000Y-72390000D02*
X172720000Y-71755000D01*
X172085000Y-73025000D02*
X172720000Y-72390000D01*
X197485000Y-88900000D02*
X197485000Y-133350000D01*
X196850000Y-88265000D02*
X197485000Y-88900000D01*
X195580000Y-88265000D02*
X196850000Y-88265000D01*
X196850000Y-133985000D02*
X195580000Y-133985000D01*
X197485000Y-133350000D02*
X196850000Y-133985000D01*
X173355000Y-56515000D02*
X173355000Y-55880000D01*
X182245000Y-65405000D02*
X183515000Y-66675000D01*
X183515000Y-66675000D02*
X197485000Y-66675000D01*
X198755000Y-62865000D02*
X198120000Y-63500000D01*
X191770000Y-63500000D02*
X191135000Y-64135000D01*
X198120000Y-63500000D02*
X191770000Y-63500000D01*
X182245000Y-62865000D02*
X183515000Y-64135000D01*
X183515000Y-64135000D02*
X191135000Y-64135000D01*
X198755000Y-142875000D02*
X198120000Y-143510000D01*
X195580000Y-52070000D02*
X196215000Y-52705000D01*
X196215000Y-52705000D02*
X198120000Y-52705000D01*
X198120000Y-52705000D02*
X198755000Y-53340000D01*
X198755000Y-53340000D02*
X198755000Y-62865000D01*
X198755000Y-62865000D02*
X198755000Y-63500000D01*
X198755000Y-63500000D02*
X198755000Y-142875000D01*
X195580000Y-50800000D02*
X195580000Y-52070000D01*
X195580000Y-144145000D02*
X195580000Y-145415000D01*
X196215000Y-143510000D02*
X195580000Y-144145000D01*
X198120000Y-143510000D02*
X196215000Y-143510000D01*
X192405000Y-57785000D02*
X194310000Y-59690000D01*
X192405000Y-59055000D02*
X192405000Y-60960000D01*
X192405000Y-60960000D02*
X191770000Y-61595000D01*
X182245000Y-60325000D02*
X183515000Y-61595000D01*
X183515000Y-61595000D02*
X191770000Y-61595000D01*
X198120000Y-85725000D02*
X198120000Y-136525000D01*
X198120000Y-136525000D02*
X197485000Y-137160000D01*
X197485000Y-137160000D02*
X193040000Y-137160000D01*
X193040000Y-137160000D02*
X192405000Y-137795000D01*
X192405000Y-137795000D02*
X192405000Y-143510000D01*
X192405000Y-143510000D02*
X193040000Y-144145000D01*
X193040000Y-144145000D02*
X193040000Y-145415000D01*
X194310000Y-59690000D02*
X197485000Y-59690000D01*
X197485000Y-59690000D02*
X198120000Y-60325000D01*
X198120000Y-60960000D02*
X198120000Y-62230000D01*
X198120000Y-60325000D02*
X198120000Y-60960000D01*
X198120000Y-64135000D02*
X198120000Y-85725000D01*
X193040000Y-50800000D02*
X193040000Y-52070000D01*
X192405000Y-52705000D02*
X192405000Y-57785000D01*
X192405000Y-57785000D02*
X192405000Y-59055000D01*
X193040000Y-52070000D02*
X192405000Y-52705000D01*
X180340000Y-80645000D02*
X180340000Y-81280000D01*
X190500000Y-91440000D02*
X190500000Y-93345000D01*
X180340000Y-81280000D02*
X190500000Y-91440000D01*
X182245000Y-73025000D02*
X180975000Y-73025000D01*
X180975000Y-73025000D02*
X180340000Y-72390000D01*
X180340000Y-55880000D02*
X180340000Y-72390000D01*
X180340000Y-72390000D02*
X180340000Y-78105000D01*
X190500000Y-145415000D02*
X190500000Y-97155000D01*
X190500000Y-97155000D02*
X190500000Y-93345000D01*
X180340000Y-78105000D02*
X180340000Y-80645000D01*
X190500000Y-53975000D02*
X189865000Y-54610000D01*
X189865000Y-54610000D02*
X181610000Y-54610000D01*
X181610000Y-54610000D02*
X180340000Y-55880000D01*
X190500000Y-53975000D02*
X190500000Y-50800000D01*
X179705000Y-81915000D02*
X187960000Y-90170000D01*
X187960000Y-90170000D02*
X187960000Y-92075000D01*
X167005000Y-65405000D02*
X168275000Y-66675000D01*
X168275000Y-66675000D02*
X175895000Y-66675000D01*
X179705000Y-80645000D02*
X179705000Y-66040000D01*
X179705000Y-66040000D02*
X179705000Y-55245000D01*
X187960000Y-93345000D02*
X187960000Y-92075000D01*
X187960000Y-145415000D02*
X187960000Y-93345000D01*
X179705000Y-80645000D02*
X179705000Y-81915000D01*
X187960000Y-53340000D02*
X187325000Y-53975000D01*
X187325000Y-53975000D02*
X180975000Y-53975000D01*
X180975000Y-53975000D02*
X179705000Y-55245000D01*
X187960000Y-53340000D02*
X187960000Y-50800000D01*
X185420000Y-90805000D02*
X185420000Y-88900000D01*
X185420000Y-88900000D02*
X179070000Y-82550000D01*
X167005000Y-62865000D02*
X168275000Y-64135000D01*
X168275000Y-64135000D02*
X175895000Y-64135000D01*
X179070000Y-54610000D02*
X179070000Y-63500000D01*
X179070000Y-63500000D02*
X179070000Y-82550000D01*
X185420000Y-145415000D02*
X185420000Y-90805000D01*
X185420000Y-52705000D02*
X184785000Y-53340000D01*
X184785000Y-53340000D02*
X180340000Y-53340000D01*
X180340000Y-53340000D02*
X179070000Y-54610000D01*
X185420000Y-52705000D02*
X185420000Y-50800000D01*
X182880000Y-89535000D02*
X182880000Y-87630000D01*
X182880000Y-87630000D02*
X178435000Y-83185000D01*
X167005000Y-60325000D02*
X168275000Y-60325000D01*
X169545000Y-61595000D02*
X175895000Y-61595000D01*
X168275000Y-60325000D02*
X169545000Y-61595000D01*
X178435000Y-58420000D02*
X178435000Y-60960000D01*
X178435000Y-60960000D02*
X178435000Y-83185000D01*
X182880000Y-90170000D02*
X182880000Y-145415000D01*
X182880000Y-90170000D02*
X182880000Y-89535000D01*
X167005000Y-60325000D02*
X167005000Y-59690000D01*
X178435000Y-58420000D02*
X178435000Y-53975000D01*
X178435000Y-53975000D02*
X179705000Y-52705000D01*
X179705000Y-52705000D02*
X182245000Y-52705000D01*
X182245000Y-52705000D02*
X182880000Y-52070000D01*
X182880000Y-52070000D02*
X182880000Y-50800000D01*
X180340000Y-88265000D02*
X180340000Y-86360000D01*
X180340000Y-86360000D02*
X177800000Y-83820000D01*
X177800000Y-83820000D02*
X177800000Y-53340000D01*
X180340000Y-145415000D02*
X180340000Y-89535000D01*
X180340000Y-89535000D02*
X180340000Y-88265000D01*
X177800000Y-53340000D02*
X180340000Y-50800000D01*
X177800000Y-86995000D02*
X177800000Y-85090000D01*
X177800000Y-85090000D02*
X177165000Y-84455000D01*
X177800000Y-145415000D02*
X177800000Y-86995000D01*
X177165000Y-52070000D02*
X177800000Y-51435000D01*
X177165000Y-84455000D02*
X177165000Y-52070000D01*
X177800000Y-51435000D02*
X177800000Y-50800000D01*
X175260000Y-90170000D02*
X175260000Y-86360000D01*
X175260000Y-86360000D02*
X176530000Y-85090000D01*
X176530000Y-84455000D02*
X176530000Y-85090000D01*
X176530000Y-52070000D02*
X175260000Y-50800000D01*
X176530000Y-84455000D02*
X176530000Y-52070000D01*
X175260000Y-145415000D02*
X175260000Y-90170000D01*
X172720000Y-145415000D02*
X172720000Y-90170000D01*
X163195000Y-80645000D02*
X172720000Y-90170000D01*
X172720000Y-53975000D02*
X172720000Y-50800000D01*
X163830000Y-54610000D02*
X163195000Y-55245000D01*
X172085000Y-54610000D02*
X163830000Y-54610000D01*
X172720000Y-53975000D02*
X172085000Y-54610000D01*
X163195000Y-55245000D02*
X163195000Y-80645000D01*
X162560000Y-81280000D02*
X162560000Y-54610000D01*
X170180000Y-88900000D02*
X162560000Y-81280000D01*
X170180000Y-145415000D02*
X170180000Y-88900000D01*
X170180000Y-53340000D02*
X170180000Y-50800000D01*
X169545000Y-53975000D02*
X170180000Y-53340000D01*
X163195000Y-53975000D02*
X169545000Y-53975000D01*
X162560000Y-54610000D02*
X163195000Y-53975000D01*
X155575000Y-53975000D02*
X159385000Y-53975000D01*
X116840000Y-60325000D02*
X116840000Y-54610000D01*
X167640000Y-145415000D02*
X167640000Y-87630000D01*
X161925000Y-81915000D02*
X167640000Y-87630000D01*
X167640000Y-52705000D02*
X167640000Y-50800000D01*
X162560000Y-53340000D02*
X161925000Y-53975000D01*
X167005000Y-53340000D02*
X162560000Y-53340000D01*
X167640000Y-52705000D02*
X167005000Y-53340000D01*
X161925000Y-53975000D02*
X161925000Y-81915000D01*
X156210000Y-53340000D02*
X158750000Y-53340000D01*
X114300000Y-60325000D02*
X114300000Y-53975000D01*
X165100000Y-145415000D02*
X165100000Y-86360000D01*
X165100000Y-52070000D02*
X164465000Y-52705000D01*
X164465000Y-52705000D02*
X161925000Y-52705000D01*
X161925000Y-52705000D02*
X161290000Y-53340000D01*
X161290000Y-53340000D02*
X161290000Y-60960000D01*
X165100000Y-52070000D02*
X165100000Y-50800000D01*
X161290000Y-82550000D02*
X161290000Y-60960000D01*
X165100000Y-86360000D02*
X161290000Y-82550000D01*
X155575000Y-52705000D02*
X159385000Y-52705000D01*
X111760000Y-60325000D02*
X111760000Y-53340000D01*
X162560000Y-145415000D02*
X162560000Y-85090000D01*
X161925000Y-52070000D02*
X162560000Y-51435000D01*
X161925000Y-52070000D02*
X161290000Y-52070000D01*
X161290000Y-52070000D02*
X160655000Y-52705000D01*
X160655000Y-52705000D02*
X160655000Y-55880000D01*
X160655000Y-83185000D02*
X160655000Y-55880000D01*
X162560000Y-85090000D02*
X160655000Y-83185000D01*
X162560000Y-50800000D02*
X162560000Y-51435000D01*
X160020000Y-50800000D02*
X160020000Y-51435000D01*
X160020000Y-51435000D02*
X159385000Y-52070000D01*
X159385000Y-52070000D02*
X156210000Y-52070000D01*
X109220000Y-52705000D02*
X109220000Y-60325000D01*
X160020000Y-50800000D02*
X160020000Y-90170000D01*
X160020000Y-90170000D02*
X160020000Y-145415000D01*
X160020000Y-50800000D02*
X160020000Y-51435000D01*
X144780000Y-57150000D02*
X146050000Y-58420000D01*
X144780000Y-57150000D02*
X144780000Y-50800000D01*
X143510000Y-79375000D02*
X143510000Y-144145000D01*
X143510000Y-144145000D02*
X144780000Y-145415000D01*
X146050000Y-58420000D02*
X146050000Y-76835000D01*
X146050000Y-76835000D02*
X143510000Y-79375000D01*
X144780000Y-50800000D02*
X144780000Y-51435000D01*
X142240000Y-145415000D02*
X140970000Y-144145000D01*
X143510000Y-76835000D02*
X140970000Y-79375000D01*
X143510000Y-52705000D02*
X143510000Y-76835000D01*
X143510000Y-52705000D02*
X142240000Y-51435000D01*
X140970000Y-144145000D02*
X140970000Y-79375000D01*
X142240000Y-50800000D02*
X142240000Y-51435000D01*
X138430000Y-79375000D02*
X138430000Y-144145000D01*
X140970000Y-76835000D02*
X138430000Y-79375000D01*
X140970000Y-52705000D02*
X140970000Y-62230000D01*
X140970000Y-62230000D02*
X140970000Y-76835000D01*
X139700000Y-51435000D02*
X140970000Y-52705000D01*
X138430000Y-144145000D02*
X139700000Y-145415000D01*
X139700000Y-50800000D02*
X139700000Y-51435000D01*
X135890000Y-79375000D02*
X135890000Y-144145000D01*
X138430000Y-76835000D02*
X135890000Y-79375000D01*
X137160000Y-51435000D02*
X138430000Y-52705000D01*
X138430000Y-52705000D02*
X138430000Y-76200000D01*
X138430000Y-76200000D02*
X138430000Y-76835000D01*
X135890000Y-144145000D02*
X137160000Y-145415000D01*
X137160000Y-50800000D02*
X137160000Y-51435000D01*
X134620000Y-145415000D02*
X133350000Y-144145000D01*
X135890000Y-76200000D02*
X135890000Y-76835000D01*
X135890000Y-52705000D02*
X135890000Y-76200000D01*
X135890000Y-52705000D02*
X134620000Y-51435000D01*
X135890000Y-76835000D02*
X133350000Y-79375000D01*
X133350000Y-144145000D02*
X133350000Y-79375000D01*
X134620000Y-50800000D02*
X134620000Y-51435000D01*
X121920000Y-63500000D02*
X121920000Y-64135000D01*
X131445000Y-65405000D02*
X132715000Y-65405000D01*
X132715000Y-65405000D02*
X133350000Y-64770000D01*
X121920000Y-60325000D02*
X121920000Y-63500000D01*
X132080000Y-77470000D02*
X132715000Y-77470000D01*
X132715000Y-77470000D02*
X133350000Y-76835000D01*
X130810000Y-83185000D02*
X130810000Y-78740000D01*
X130810000Y-144145000D02*
X132080000Y-145415000D01*
X130810000Y-83185000D02*
X130810000Y-144145000D01*
X130810000Y-78740000D02*
X132080000Y-77470000D01*
X133350000Y-64770000D02*
X133350000Y-76835000D01*
X133350000Y-62865000D02*
X133350000Y-63500000D01*
X133350000Y-63500000D02*
X133350000Y-64770000D01*
X133350000Y-52705000D02*
X133350000Y-62865000D01*
X132080000Y-51435000D02*
X133350000Y-52705000D01*
X132080000Y-50800000D02*
X132080000Y-51435000D01*
X124460000Y-64135000D02*
X124460000Y-64770000D01*
X124460000Y-64770000D02*
X125095000Y-65405000D01*
X130175000Y-65405000D02*
X130810000Y-64770000D01*
X124460000Y-60325000D02*
X124460000Y-64135000D01*
X128270000Y-79375000D02*
X128270000Y-144145000D01*
X128270000Y-144145000D02*
X129540000Y-145415000D01*
X130810000Y-64770000D02*
X130810000Y-76835000D01*
X130810000Y-76835000D02*
X128270000Y-79375000D01*
X129540000Y-51435000D02*
X130810000Y-52705000D01*
X130810000Y-62865000D02*
X130810000Y-64135000D01*
X130810000Y-52705000D02*
X130810000Y-62865000D01*
X130810000Y-64135000D02*
X130810000Y-64770000D01*
X129540000Y-50800000D02*
X129540000Y-51435000D01*
X127000000Y-60325000D02*
X128270000Y-60325000D01*
X125730000Y-79375000D02*
X125730000Y-144145000D01*
X128270000Y-76835000D02*
X125730000Y-79375000D01*
X127000000Y-51435000D02*
X128270000Y-52705000D01*
X128270000Y-52705000D02*
X128270000Y-60325000D01*
X128270000Y-60325000D02*
X128270000Y-62865000D01*
X128270000Y-62865000D02*
X128270000Y-76835000D01*
X125730000Y-144145000D02*
X127000000Y-145415000D01*
X127000000Y-50800000D02*
X127000000Y-51435000D01*
X129540000Y-60325000D02*
X129540000Y-64135000D01*
X126365000Y-64770000D02*
X125730000Y-64135000D01*
X129540000Y-64135000D02*
X128905000Y-64770000D01*
X123190000Y-79375000D02*
X123190000Y-144145000D01*
X125730000Y-76835000D02*
X123190000Y-79375000D01*
X125730000Y-62865000D02*
X125730000Y-52705000D01*
X124460000Y-51435000D02*
X125730000Y-52705000D01*
X125730000Y-62865000D02*
X125730000Y-64135000D01*
X125730000Y-64135000D02*
X125730000Y-76835000D01*
X123190000Y-144145000D02*
X124460000Y-145415000D01*
X124460000Y-50800000D02*
X124460000Y-51435000D01*
X132080000Y-60325000D02*
X132080000Y-63500000D01*
X123825000Y-64135000D02*
X123190000Y-63500000D01*
X132080000Y-63500000D02*
X131445000Y-64135000D01*
X120650000Y-79375000D02*
X120650000Y-144145000D01*
X123190000Y-76835000D02*
X120650000Y-79375000D01*
X123190000Y-52705000D02*
X123190000Y-63500000D01*
X123190000Y-63500000D02*
X123190000Y-76835000D01*
X121920000Y-51435000D02*
X123190000Y-52705000D01*
X120650000Y-144145000D02*
X121920000Y-145415000D01*
X121920000Y-50800000D02*
X121920000Y-51435000D01*
X134620000Y-60325000D02*
X134620000Y-62865000D01*
X121285000Y-63500000D02*
X120650000Y-62865000D01*
X134620000Y-62865000D02*
X133985000Y-63500000D01*
X118110000Y-79375000D02*
X118110000Y-144145000D01*
X120650000Y-76835000D02*
X118110000Y-79375000D01*
X119380000Y-51435000D02*
X120650000Y-52705000D01*
X120650000Y-52705000D02*
X120650000Y-62865000D01*
X120650000Y-62865000D02*
X120650000Y-73660000D01*
X120650000Y-73660000D02*
X120650000Y-76835000D01*
X118110000Y-144145000D02*
X119380000Y-145415000D01*
X119380000Y-50800000D02*
X119380000Y-51435000D01*
X137160000Y-60325000D02*
X137160000Y-62230000D01*
X118745000Y-62865000D02*
X118110000Y-62230000D01*
X137160000Y-62230000D02*
X136525000Y-62865000D01*
X115570000Y-79375000D02*
X115570000Y-144145000D01*
X118110000Y-76835000D02*
X115570000Y-79375000D01*
X118110000Y-52705000D02*
X118110000Y-62230000D01*
X118110000Y-62230000D02*
X118110000Y-76835000D01*
X116840000Y-51435000D02*
X118110000Y-52705000D01*
X115570000Y-144145000D02*
X116840000Y-145415000D01*
X116840000Y-50800000D02*
X116840000Y-51435000D01*
X116205000Y-62230000D02*
X115570000Y-61595000D01*
X113030000Y-79375000D02*
X113030000Y-144145000D01*
X115570000Y-76835000D02*
X113030000Y-79375000D01*
X115570000Y-52705000D02*
X115570000Y-61595000D01*
X115570000Y-61595000D02*
X115570000Y-76835000D01*
X114300000Y-51435000D02*
X115570000Y-52705000D01*
X113030000Y-144145000D02*
X114300000Y-145415000D01*
X114300000Y-50800000D02*
X114300000Y-51435000D01*
X151130000Y-53975000D02*
X150495000Y-54610000D01*
X119380000Y-55245000D02*
X119380000Y-60325000D01*
X150495000Y-54610000D02*
X149225000Y-54610000D01*
X148590000Y-79375000D02*
X148590000Y-144145000D01*
X151130000Y-52070000D02*
X151130000Y-53975000D01*
X151130000Y-53975000D02*
X151130000Y-76835000D01*
X151130000Y-76835000D02*
X148590000Y-79375000D01*
X149860000Y-50800000D02*
X151130000Y-52070000D01*
X148590000Y-144145000D02*
X149860000Y-145415000D01*
X110490000Y-79375000D02*
X110490000Y-144145000D01*
X113030000Y-76835000D02*
X110490000Y-79375000D01*
X113030000Y-52705000D02*
X113030000Y-76835000D01*
X111760000Y-51435000D02*
X113030000Y-52705000D01*
X110490000Y-144145000D02*
X111760000Y-145415000D01*
X111760000Y-50800000D02*
X111760000Y-51435000D01*
X109220000Y-145415000D02*
X107950000Y-144145000D01*
X107950000Y-144145000D02*
X107950000Y-143510000D01*
X109220000Y-144780000D02*
X109220000Y-145415000D01*
X107950000Y-79375000D02*
X107950000Y-143510000D01*
X109220000Y-51435000D02*
X110490000Y-52705000D01*
X110490000Y-52705000D02*
X110490000Y-76835000D01*
X110490000Y-76835000D02*
X107950000Y-79375000D01*
X109220000Y-50800000D02*
X109220000Y-51435000D01*
X106680000Y-145415000D02*
X106680000Y-144780000D01*
X106680000Y-144780000D02*
X107315000Y-144145000D01*
X107315000Y-144145000D02*
X107315000Y-143510000D01*
X107315000Y-142875000D02*
X107315000Y-143510000D01*
X107315000Y-137160000D02*
X105410000Y-135255000D01*
X107315000Y-142875000D02*
X107315000Y-137160000D01*
X105410000Y-135255000D02*
X105410000Y-79375000D01*
X107950000Y-76835000D02*
X105410000Y-79375000D01*
X107950000Y-52705000D02*
X107950000Y-76835000D01*
X107950000Y-52705000D02*
X106680000Y-51435000D01*
X106680000Y-50800000D02*
X106680000Y-51435000D01*
X100965000Y-52070000D02*
X100965000Y-144145000D01*
X101600000Y-51435000D02*
X100965000Y-52070000D01*
X100965000Y-144145000D02*
X101600000Y-144780000D01*
X101600000Y-144780000D02*
X101600000Y-145415000D01*
X101600000Y-50800000D02*
X101600000Y-51435000D01*
X141605000Y-49530000D02*
X151765000Y-49530000D01*
X140970000Y-50165000D02*
X141605000Y-49530000D01*
X142240000Y-60325000D02*
X142240000Y-52705000D01*
X142240000Y-52705000D02*
X140970000Y-51435000D01*
X140970000Y-51435000D02*
X140970000Y-50165000D01*
X151765000Y-49530000D02*
X152400000Y-50165000D01*
X152400000Y-50165000D02*
X152400000Y-50800000D01*
X151130000Y-79375000D02*
X151130000Y-144145000D01*
X153670000Y-52070000D02*
X153670000Y-76835000D01*
X153670000Y-76835000D02*
X151130000Y-79375000D01*
X152400000Y-50800000D02*
X153670000Y-52070000D01*
X151130000Y-144145000D02*
X152400000Y-145415000D01*
X146050000Y-79375000D02*
X146050000Y-144145000D01*
X148590000Y-76835000D02*
X146050000Y-79375000D01*
X148590000Y-52705000D02*
X148590000Y-76835000D01*
X147320000Y-51435000D02*
X148590000Y-52705000D01*
X146050000Y-144145000D02*
X147320000Y-145415000D01*
X147320000Y-50800000D02*
X147320000Y-51435000D01*
X155575000Y-60960000D02*
X156210000Y-60325000D01*
X155575000Y-63500000D02*
X155575000Y-60960000D01*
X154940000Y-64135000D02*
X155575000Y-63500000D01*
X156210000Y-60325000D02*
X156845000Y-60325000D01*
X103505000Y-63500000D02*
X101600000Y-63500000D01*
X101600000Y-143510000D02*
X103505000Y-143510000D01*
X103505000Y-143510000D02*
X104140000Y-144145000D01*
X104140000Y-144145000D02*
X104140000Y-145415000D01*
X104140000Y-50800000D02*
X102870000Y-52070000D01*
X102235000Y-52070000D02*
X101600000Y-52705000D01*
X102870000Y-52070000D02*
X102235000Y-52070000D01*
X104140000Y-145415000D02*
X104140000Y-144780000D01*
X189865000Y-65405000D02*
X194310000Y-65405000D01*
X196850000Y-70485000D02*
X195580000Y-69215000D01*
X195580000Y-69215000D02*
X180975000Y-69215000D01*
X168275000Y-69215000D02*
X167005000Y-70485000D01*
X175895000Y-69215000D02*
X168275000Y-69215000D01*
X189865000Y-67945000D02*
X194310000Y-67945000D01*
X189865000Y-70485000D02*
X194310000Y-70485000D01*
X189865000Y-73025000D02*
X194310000Y-73025000D01*
X189865000Y-75565000D02*
X194310000Y-75565000D01*
X189865000Y-78105000D02*
X194310000Y-78105000D01*
X104140000Y-80010000D02*
X104140000Y-79375000D01*
X104140000Y-79375000D02*
X106045000Y-77470000D01*
X106680000Y-75565000D02*
X106680000Y-76835000D01*
X106680000Y-76835000D02*
X106045000Y-77470000D01*
X106680000Y-80010000D02*
X106680000Y-79375000D01*
X106680000Y-79375000D02*
X108585000Y-77470000D01*
X109220000Y-76835000D02*
X109220000Y-75565000D01*
X108585000Y-77470000D02*
X109220000Y-76835000D01*
X109220000Y-80010000D02*
X109220000Y-79375000D01*
X109220000Y-79375000D02*
X111125000Y-77470000D01*
X111760000Y-76835000D02*
X111760000Y-75565000D01*
X111125000Y-77470000D02*
X111760000Y-76835000D01*
X111760000Y-80010000D02*
X111760000Y-79375000D01*
X111760000Y-79375000D02*
X113665000Y-77470000D01*
X114300000Y-76835000D02*
X114300000Y-75565000D01*
X113665000Y-77470000D02*
X114300000Y-76835000D01*
X114300000Y-80010000D02*
X114300000Y-79375000D01*
X114300000Y-79375000D02*
X116205000Y-77470000D01*
X116840000Y-76835000D02*
X116840000Y-75565000D01*
X116205000Y-77470000D02*
X116840000Y-76835000D01*
X116840000Y-80010000D02*
X116840000Y-79375000D01*
X116840000Y-79375000D02*
X119380000Y-76835000D01*
X119380000Y-76835000D02*
X119380000Y-75565000D01*
X119380000Y-80010000D02*
X119380000Y-79375000D01*
X119380000Y-79375000D02*
X121920000Y-76835000D01*
X121920000Y-76835000D02*
X121920000Y-75565000D01*
X121920000Y-80010000D02*
X121920000Y-79375000D01*
X121920000Y-79375000D02*
X124460000Y-76835000D01*
X124460000Y-76835000D02*
X124460000Y-75565000D01*
X104140000Y-73025000D02*
X104775000Y-73660000D01*
X104775000Y-73660000D02*
X107315000Y-73660000D01*
X104140000Y-60325000D02*
X104140000Y-73025000D01*
X106680000Y-72390000D02*
X106680000Y-71755000D01*
X106680000Y-71755000D02*
X106680000Y-60325000D01*
X152400000Y-58420000D02*
X152400000Y-60325000D01*
X151765000Y-57785000D02*
X152400000Y-58420000D01*
X156845000Y-65405000D02*
X158750000Y-65405000D01*
X158750000Y-65405000D02*
X159385000Y-64770000D01*
X159385000Y-55245000D02*
X159385000Y-64770000D01*
X174625000Y-62865000D02*
X169545000Y-62865000D01*
X169545000Y-62865000D02*
X168275000Y-61595000D01*
X164465000Y-55245000D02*
X164465000Y-60960000D01*
X165100000Y-61595000D02*
X168275000Y-61595000D01*
X164465000Y-60960000D02*
X165100000Y-61595000D01*
X147955000Y-62865000D02*
X147320000Y-62230000D01*
X147320000Y-60325000D02*
X147320000Y-62230000D01*
M02*
