G04 #@! TF.FileFunction,Soldermask,Bot*
%FSLAX46Y46*%
G04 Gerber Fmt 4.6, Leading zero omitted, Abs format (unit mm)*
G04 Created by KiCad (PCBNEW 4.0.7) date 12/20/19 23:37:23*
%MOMM*%
%LPD*%
G01*
G04 APERTURE LIST*
%ADD10C,0.100000*%
%ADD11R,2.100000X2.100000*%
%ADD12O,2.100000X2.100000*%
%ADD13C,5.400000*%
%ADD14C,2.000000*%
%ADD15R,2.800000X2.000000*%
%ADD16O,2.800000X2.000000*%
%ADD17R,2.000000X2.800000*%
%ADD18O,2.000000X2.800000*%
G04 APERTURE END LIST*
D10*
D11*
X198120000Y-145415000D03*
D12*
X195580000Y-145415000D03*
X193040000Y-145415000D03*
X190500000Y-145415000D03*
X187960000Y-145415000D03*
X185420000Y-145415000D03*
X182880000Y-145415000D03*
X180340000Y-145415000D03*
X177800000Y-145415000D03*
X175260000Y-145415000D03*
X172720000Y-145415000D03*
X170180000Y-145415000D03*
X167640000Y-145415000D03*
X165100000Y-145415000D03*
X162560000Y-145415000D03*
X160020000Y-145415000D03*
X157480000Y-145415000D03*
X154940000Y-145415000D03*
X152400000Y-145415000D03*
X149860000Y-145415000D03*
X147320000Y-145415000D03*
X144780000Y-145415000D03*
X142240000Y-145415000D03*
X139700000Y-145415000D03*
X137160000Y-145415000D03*
X134620000Y-145415000D03*
X132080000Y-145415000D03*
X129540000Y-145415000D03*
X127000000Y-145415000D03*
X124460000Y-145415000D03*
X121920000Y-145415000D03*
X119380000Y-145415000D03*
X116840000Y-145415000D03*
X114300000Y-145415000D03*
X111760000Y-145415000D03*
X109220000Y-145415000D03*
X106680000Y-145415000D03*
X104140000Y-145415000D03*
X101600000Y-145415000D03*
D13*
X104140000Y-140335000D03*
X195580000Y-140335000D03*
X195580000Y-55880000D03*
X104140000Y-55880000D03*
D11*
X198120000Y-50800000D03*
D12*
X195580000Y-50800000D03*
X193040000Y-50800000D03*
X190500000Y-50800000D03*
X187960000Y-50800000D03*
X185420000Y-50800000D03*
X182880000Y-50800000D03*
X180340000Y-50800000D03*
X177800000Y-50800000D03*
X175260000Y-50800000D03*
X172720000Y-50800000D03*
X170180000Y-50800000D03*
X167640000Y-50800000D03*
X165100000Y-50800000D03*
X162560000Y-50800000D03*
X160020000Y-50800000D03*
X157480000Y-50800000D03*
X154940000Y-50800000D03*
X152400000Y-50800000D03*
X149860000Y-50800000D03*
X147320000Y-50800000D03*
X144780000Y-50800000D03*
X142240000Y-50800000D03*
X139700000Y-50800000D03*
X137160000Y-50800000D03*
X134620000Y-50800000D03*
X132080000Y-50800000D03*
X129540000Y-50800000D03*
X127000000Y-50800000D03*
X124460000Y-50800000D03*
X121920000Y-50800000D03*
X119380000Y-50800000D03*
X116840000Y-50800000D03*
X114300000Y-50800000D03*
X111760000Y-50800000D03*
X109220000Y-50800000D03*
X106680000Y-50800000D03*
X104140000Y-50800000D03*
X101600000Y-50800000D03*
D14*
X156845000Y-75565000D03*
X156845000Y-70565000D03*
X173355000Y-56515000D03*
X168355000Y-56515000D03*
X188595000Y-56515000D03*
X183595000Y-56515000D03*
D11*
X194310000Y-65405000D03*
D12*
X196850000Y-65405000D03*
X194310000Y-67945000D03*
X196850000Y-67945000D03*
X194310000Y-70485000D03*
X196850000Y-70485000D03*
X194310000Y-73025000D03*
X196850000Y-73025000D03*
X194310000Y-75565000D03*
X196850000Y-75565000D03*
X194310000Y-78105000D03*
X196850000Y-78105000D03*
D11*
X104140000Y-80010000D03*
D12*
X106680000Y-80010000D03*
X109220000Y-80010000D03*
X111760000Y-80010000D03*
X114300000Y-80010000D03*
X116840000Y-80010000D03*
X119380000Y-80010000D03*
X121920000Y-80010000D03*
X124460000Y-80010000D03*
X127000000Y-80010000D03*
D11*
X132080000Y-80010000D03*
D12*
X134620000Y-80010000D03*
X137160000Y-80010000D03*
X139700000Y-80010000D03*
X142240000Y-80010000D03*
X144780000Y-80010000D03*
X147320000Y-80010000D03*
X149860000Y-80010000D03*
X152400000Y-80010000D03*
X154940000Y-80010000D03*
D11*
X195580000Y-133985000D03*
D12*
X195580000Y-131445000D03*
D11*
X195580000Y-88265000D03*
D12*
X195580000Y-85725000D03*
D11*
X144780000Y-57150000D03*
D12*
X147320000Y-57150000D03*
D11*
X156845000Y-60325000D03*
D12*
X156845000Y-62865000D03*
X156845000Y-65405000D03*
D15*
X182245000Y-60325000D03*
D16*
X189865000Y-78105000D03*
X182245000Y-62865000D03*
X189865000Y-75565000D03*
X182245000Y-65405000D03*
X189865000Y-73025000D03*
X182245000Y-67945000D03*
X189865000Y-70485000D03*
X182245000Y-70485000D03*
X189865000Y-67945000D03*
X182245000Y-73025000D03*
X189865000Y-65405000D03*
X182245000Y-75565000D03*
X189865000Y-62865000D03*
X182245000Y-78105000D03*
X189865000Y-60325000D03*
D17*
X104140000Y-75565000D03*
D18*
X152400000Y-60325000D03*
X106680000Y-75565000D03*
X149860000Y-60325000D03*
X109220000Y-75565000D03*
X147320000Y-60325000D03*
X111760000Y-75565000D03*
X144780000Y-60325000D03*
X114300000Y-75565000D03*
X142240000Y-60325000D03*
X116840000Y-75565000D03*
X139700000Y-60325000D03*
X119380000Y-75565000D03*
X137160000Y-60325000D03*
X121920000Y-75565000D03*
X134620000Y-60325000D03*
X124460000Y-75565000D03*
X132080000Y-60325000D03*
X127000000Y-75565000D03*
X129540000Y-60325000D03*
X129540000Y-75565000D03*
X127000000Y-60325000D03*
X132080000Y-75565000D03*
X124460000Y-60325000D03*
X134620000Y-75565000D03*
X121920000Y-60325000D03*
X137160000Y-75565000D03*
X119380000Y-60325000D03*
X139700000Y-75565000D03*
X116840000Y-60325000D03*
X142240000Y-75565000D03*
X114300000Y-60325000D03*
X144780000Y-75565000D03*
X111760000Y-60325000D03*
X147320000Y-75565000D03*
X109220000Y-60325000D03*
X149860000Y-75565000D03*
X106680000Y-60325000D03*
X152400000Y-75565000D03*
X104140000Y-60325000D03*
D15*
X167005000Y-60325000D03*
D16*
X174625000Y-78105000D03*
X167005000Y-62865000D03*
X174625000Y-75565000D03*
X167005000Y-65405000D03*
X174625000Y-73025000D03*
X167005000Y-67945000D03*
X174625000Y-70485000D03*
X167005000Y-70485000D03*
X174625000Y-67945000D03*
X167005000Y-73025000D03*
X174625000Y-65405000D03*
X167005000Y-75565000D03*
X174625000Y-62865000D03*
X167005000Y-78105000D03*
X174625000Y-60325000D03*
D11*
X134620000Y-57150000D03*
D12*
X137160000Y-57150000D03*
X139700000Y-57150000D03*
M02*
