M48
;DRILL file {KiCad 4.0.7} date 12/20/19 23:37:26
;FORMAT={2:4/ absolute / inch / suppress leading zeros}
FMAT,2
INCH,TZ
T1C0.016
T2C0.031
T3C0.039
T4C0.120
%
G90
G05
M72
T1
X40000Y-20750
X40000Y-25000
X40000Y-56500
X40750Y-25000
X42000Y-28500
X42250Y-29000
X43000Y-20750
X44000Y-21000
X45000Y-21250
X45750Y-24500
X46000Y-21500
X46750Y-24750
X47000Y-21750
X47750Y-25000
X48000Y-25250
X48750Y-25250
X49250Y-25750
X49750Y-25500
X50750Y-25500
X51250Y-25750
X51750Y-25250
X51750Y-25750
X52750Y-25000
X53750Y-24750
X55500Y-24500
X57250Y-25000
X58250Y-24750
X58750Y-21500
X59750Y-22750
X60750Y-25000
X61000Y-25250
X61250Y-20750
X61250Y-21250
X61500Y-20500
X61500Y-21000
X62250Y-23000
X62250Y-26500
X62500Y-21000
X62500Y-34750
X62500Y-52750
X62750Y-20750
X62750Y-21250
X62750Y-21750
X63250Y-20750
X63500Y-21000
X63750Y-21250
X64750Y-21750
X68000Y-28250
X69250Y-24250
X69250Y-25250
X69250Y-26250
X69250Y-27250
X70250Y-24000
X70500Y-25000
X70750Y-26000
X71250Y-27250
X77750Y-26250
X78000Y-24500
X78000Y-25250
T2
X41000Y-23750
X41000Y-29750
X42000Y-23750
X42000Y-29750
X43000Y-23750
X43000Y-29750
X44000Y-23750
X44000Y-29750
X45000Y-23750
X45000Y-29750
X46000Y-23750
X46000Y-29750
X47000Y-23750
X47000Y-29750
X48000Y-23750
X48000Y-29750
X49000Y-23750
X49000Y-29750
X50000Y-23750
X50000Y-29750
X51000Y-23750
X51000Y-29750
X52000Y-23750
X52000Y-29750
X53000Y-23750
X53000Y-29750
X54000Y-23750
X54000Y-29750
X55000Y-23750
X55000Y-29750
X56000Y-23750
X56000Y-29750
X57000Y-23750
X57000Y-29750
X58000Y-23750
X58000Y-29750
X59000Y-23750
X59000Y-29750
X60000Y-23750
X60000Y-29750
X61750Y-27781
X61750Y-29750
X65750Y-23750
X65750Y-24750
X65750Y-25750
X65750Y-26750
X65750Y-27750
X65750Y-28750
X65750Y-29750
X65750Y-30750
X66281Y-22250
X68250Y-22250
X68750Y-23750
X68750Y-24750
X68750Y-25750
X68750Y-26750
X68750Y-27750
X68750Y-28750
X68750Y-29750
X68750Y-30750
X71750Y-23750
X71750Y-24750
X71750Y-25750
X71750Y-26750
X71750Y-27750
X71750Y-28750
X71750Y-29750
X71750Y-30750
X72281Y-22250
X74250Y-22250
X74750Y-23750
X74750Y-24750
X74750Y-25750
X74750Y-26750
X74750Y-27750
X74750Y-28750
X74750Y-29750
X74750Y-30750
T3
X40000Y-20000
X40000Y-57250
X41000Y-20000
X41000Y-31500
X41000Y-57250
X42000Y-20000
X42000Y-31500
X42000Y-57250
X43000Y-20000
X43000Y-31500
X43000Y-57250
X44000Y-20000
X44000Y-31500
X44000Y-57250
X45000Y-20000
X45000Y-31500
X45000Y-57250
X46000Y-20000
X46000Y-31500
X46000Y-57250
X47000Y-20000
X47000Y-31500
X47000Y-57250
X48000Y-20000
X48000Y-31500
X48000Y-57250
X49000Y-20000
X49000Y-31500
X49000Y-57250
X50000Y-20000
X50000Y-31500
X50000Y-57250
X51000Y-20000
X51000Y-57250
X52000Y-20000
X52000Y-31500
X52000Y-57250
X53000Y-20000
X53000Y-22500
X53000Y-31500
X53000Y-57250
X54000Y-20000
X54000Y-22500
X54000Y-31500
X54000Y-57250
X55000Y-20000
X55000Y-22500
X55000Y-31500
X55000Y-57250
X56000Y-20000
X56000Y-31500
X56000Y-57250
X57000Y-20000
X57000Y-22500
X57000Y-31500
X57000Y-57250
X58000Y-20000
X58000Y-22500
X58000Y-31500
X58000Y-57250
X59000Y-20000
X59000Y-31500
X59000Y-57250
X60000Y-20000
X60000Y-31500
X60000Y-57250
X61000Y-20000
X61000Y-31500
X61000Y-57250
X61750Y-23750
X61750Y-24750
X61750Y-25750
X62000Y-20000
X62000Y-57250
X63000Y-20000
X63000Y-57250
X64000Y-20000
X64000Y-57250
X65000Y-20000
X65000Y-57250
X66000Y-20000
X66000Y-57250
X67000Y-20000
X67000Y-57250
X68000Y-20000
X68000Y-57250
X69000Y-20000
X69000Y-57250
X70000Y-20000
X70000Y-57250
X71000Y-20000
X71000Y-57250
X72000Y-20000
X72000Y-57250
X73000Y-20000
X73000Y-57250
X74000Y-20000
X74000Y-57250
X75000Y-20000
X75000Y-57250
X76000Y-20000
X76000Y-57250
X76500Y-25750
X76500Y-26750
X76500Y-27750
X76500Y-28750
X76500Y-29750
X76500Y-30750
X77000Y-20000
X77000Y-33750
X77000Y-34750
X77000Y-51750
X77000Y-52750
X77000Y-57250
X77500Y-25750
X77500Y-26750
X77500Y-27750
X77500Y-28750
X77500Y-29750
X77500Y-30750
X78000Y-20000
X78000Y-57250
T4
X41000Y-22000
X41000Y-55250
X77000Y-22000
X77000Y-55250
T0
M30
