G04 #@! TF.FileFunction,Copper,L2,Bot,Signal*
%FSLAX46Y46*%
G04 Gerber Fmt 4.6, Leading zero omitted, Abs format (unit mm)*
G04 Created by KiCad (PCBNEW 4.0.7) date 09/25/19 15:54:21*
%MOMM*%
%LPD*%
G01*
G04 APERTURE LIST*
%ADD10C,0.100000*%
%ADD11C,1.600000*%
%ADD12R,1.700000X1.700000*%
%ADD13O,1.700000X1.700000*%
%ADD14O,1.600000X1.600000*%
%ADD15R,1.600000X1.600000*%
%ADD16C,2.000000*%
%ADD17C,1.500000*%
%ADD18C,0.600000*%
%ADD19C,0.250000*%
%ADD20C,0.254000*%
G04 APERTURE END LIST*
D10*
D11*
X146685000Y-113665000D03*
X146685000Y-118665000D03*
X116205000Y-103505000D03*
X116205000Y-108505000D03*
X161925000Y-113665000D03*
X161925000Y-118665000D03*
X131445000Y-113665000D03*
X131445000Y-118665000D03*
X192405000Y-113665000D03*
X192405000Y-118665000D03*
X177165000Y-113665000D03*
X177165000Y-118665000D03*
X142875000Y-108585000D03*
X137875000Y-108585000D03*
D12*
X193040000Y-147320000D03*
D13*
X190500000Y-147320000D03*
X187960000Y-147320000D03*
X185420000Y-147320000D03*
X182880000Y-147320000D03*
X180340000Y-147320000D03*
X177800000Y-147320000D03*
X175260000Y-147320000D03*
X172720000Y-147320000D03*
X170180000Y-147320000D03*
X167640000Y-147320000D03*
X165100000Y-147320000D03*
X162560000Y-147320000D03*
X160020000Y-147320000D03*
X157480000Y-147320000D03*
X154940000Y-147320000D03*
X152400000Y-147320000D03*
X149860000Y-147320000D03*
X147320000Y-147320000D03*
X144780000Y-147320000D03*
X142240000Y-147320000D03*
X139700000Y-147320000D03*
X137160000Y-147320000D03*
X134620000Y-147320000D03*
X132080000Y-147320000D03*
X129540000Y-147320000D03*
X127000000Y-147320000D03*
X124460000Y-147320000D03*
X121920000Y-147320000D03*
X119380000Y-147320000D03*
X116840000Y-147320000D03*
X114300000Y-147320000D03*
X111760000Y-147320000D03*
X109220000Y-147320000D03*
X106680000Y-147320000D03*
X104140000Y-147320000D03*
X101600000Y-147320000D03*
X99060000Y-147320000D03*
X96520000Y-147320000D03*
D11*
X156210000Y-108585000D03*
D14*
X146050000Y-108585000D03*
D11*
X158750000Y-108585000D03*
D14*
X168910000Y-108585000D03*
D11*
X168910000Y-104775000D03*
D14*
X158750000Y-104775000D03*
D15*
X180975000Y-113665000D03*
D14*
X188595000Y-131445000D03*
X180975000Y-116205000D03*
X188595000Y-128905000D03*
X180975000Y-118745000D03*
X188595000Y-126365000D03*
X180975000Y-121285000D03*
X188595000Y-123825000D03*
X180975000Y-123825000D03*
X188595000Y-121285000D03*
X180975000Y-126365000D03*
X188595000Y-118745000D03*
X180975000Y-128905000D03*
X188595000Y-116205000D03*
X180975000Y-131445000D03*
X188595000Y-113665000D03*
D15*
X165735000Y-113665000D03*
D14*
X173355000Y-131445000D03*
X165735000Y-116205000D03*
X173355000Y-128905000D03*
X165735000Y-118745000D03*
X173355000Y-126365000D03*
X165735000Y-121285000D03*
X173355000Y-123825000D03*
X165735000Y-123825000D03*
X173355000Y-121285000D03*
X165735000Y-126365000D03*
X173355000Y-118745000D03*
X165735000Y-128905000D03*
X173355000Y-116205000D03*
X165735000Y-131445000D03*
X173355000Y-113665000D03*
D12*
X182245000Y-94615000D03*
D13*
X184785000Y-94615000D03*
X182245000Y-97155000D03*
X184785000Y-97155000D03*
X182245000Y-99695000D03*
X184785000Y-99695000D03*
X182245000Y-102235000D03*
X184785000Y-102235000D03*
X182245000Y-104775000D03*
X184785000Y-104775000D03*
X182245000Y-107315000D03*
X184785000Y-107315000D03*
D15*
X175260000Y-106680000D03*
D11*
X172760000Y-106680000D03*
D15*
X156210000Y-104775000D03*
D14*
X148590000Y-104775000D03*
D15*
X127635000Y-108585000D03*
D14*
X135255000Y-108585000D03*
D15*
X137795000Y-104775000D03*
D14*
X145415000Y-104775000D03*
D12*
X110490000Y-90805000D03*
D13*
X110490000Y-93345000D03*
D12*
X115570000Y-90805000D03*
D13*
X115570000Y-93345000D03*
D12*
X120015000Y-90805000D03*
D13*
X122555000Y-90805000D03*
X125095000Y-90805000D03*
D12*
X113030000Y-90805000D03*
D13*
X113030000Y-93345000D03*
D16*
X170815000Y-99115000D03*
X170815000Y-94615000D03*
X177315000Y-99115000D03*
X177315000Y-94615000D03*
D15*
X135255000Y-113665000D03*
D14*
X142875000Y-128905000D03*
X135255000Y-116205000D03*
X142875000Y-126365000D03*
X135255000Y-118745000D03*
X142875000Y-123825000D03*
X135255000Y-121285000D03*
X142875000Y-121285000D03*
X135255000Y-123825000D03*
X142875000Y-118745000D03*
X135255000Y-126365000D03*
X142875000Y-116205000D03*
X135255000Y-128905000D03*
X142875000Y-113665000D03*
D15*
X97155000Y-103505000D03*
D14*
X112395000Y-131445000D03*
X97155000Y-106045000D03*
X112395000Y-128905000D03*
X97155000Y-108585000D03*
X112395000Y-126365000D03*
X97155000Y-111125000D03*
X112395000Y-123825000D03*
X97155000Y-113665000D03*
X112395000Y-121285000D03*
X97155000Y-116205000D03*
X112395000Y-118745000D03*
X97155000Y-118745000D03*
X112395000Y-116205000D03*
X97155000Y-121285000D03*
X112395000Y-113665000D03*
X97155000Y-123825000D03*
X112395000Y-111125000D03*
X97155000Y-126365000D03*
X112395000Y-108585000D03*
X97155000Y-128905000D03*
X112395000Y-106045000D03*
X97155000Y-131445000D03*
X112395000Y-103505000D03*
D15*
X150495000Y-113665000D03*
D14*
X158115000Y-128905000D03*
X150495000Y-116205000D03*
X158115000Y-126365000D03*
X150495000Y-118745000D03*
X158115000Y-123825000D03*
X150495000Y-121285000D03*
X158115000Y-121285000D03*
X150495000Y-123825000D03*
X158115000Y-118745000D03*
X150495000Y-126365000D03*
X158115000Y-116205000D03*
X150495000Y-128905000D03*
X158115000Y-113665000D03*
D15*
X120015000Y-113665000D03*
D14*
X127635000Y-128905000D03*
X120015000Y-116205000D03*
X127635000Y-126365000D03*
X120015000Y-118745000D03*
X127635000Y-123825000D03*
X120015000Y-121285000D03*
X127635000Y-121285000D03*
X120015000Y-123825000D03*
X127635000Y-118745000D03*
X120015000Y-126365000D03*
X127635000Y-116205000D03*
X120015000Y-128905000D03*
X127635000Y-113665000D03*
D17*
X99695000Y-96520000D03*
X104575000Y-96520000D03*
D18*
X95885000Y-92710000D03*
X155575000Y-145415000D03*
X147320000Y-110490000D03*
X118745000Y-110490000D03*
X183515000Y-119380000D03*
X184150000Y-128905000D03*
X182880000Y-116840000D03*
X183515000Y-128270000D03*
X182880000Y-128905000D03*
X182245000Y-130175000D03*
X168275000Y-119380000D03*
X168275000Y-126365000D03*
X167640000Y-127000000D03*
X167640000Y-116840000D03*
X167005000Y-127635000D03*
X154940000Y-144780000D03*
X118110000Y-120650000D03*
X144780000Y-127635000D03*
X144780000Y-123190000D03*
X182245000Y-109855000D03*
X184785000Y-130810000D03*
X181610000Y-109220000D03*
X184150000Y-109855000D03*
X186055000Y-109855000D03*
X186690000Y-109220000D03*
X187325000Y-109855000D03*
X175895000Y-109855000D03*
X172085000Y-122555000D03*
X116840000Y-130810000D03*
X116840000Y-132080000D03*
X117475000Y-116840000D03*
X116840000Y-122555000D03*
X125095000Y-93345000D03*
X127000000Y-95250000D03*
X135890000Y-111125000D03*
X170815000Y-111125000D03*
X171450000Y-109855000D03*
X110490000Y-105410000D03*
X110490000Y-100330000D03*
X109220000Y-139065000D03*
X108585000Y-92710000D03*
X111760000Y-139065000D03*
X111125000Y-102235000D03*
X113665000Y-114935000D03*
X119380000Y-93345000D03*
X122555000Y-93345000D03*
X109855000Y-102235000D03*
X109855000Y-106045000D03*
X118745000Y-92710000D03*
X126365000Y-92710000D03*
X136525000Y-130175000D03*
X136525000Y-117475000D03*
X144145000Y-122555000D03*
X144145000Y-130175000D03*
D19*
X193675000Y-114935000D02*
X192405000Y-113665000D01*
X193675000Y-144780000D02*
X193675000Y-114935000D01*
X193040000Y-145415000D02*
X193675000Y-144780000D01*
X155575000Y-145415000D02*
X193040000Y-145415000D01*
X146685000Y-111125000D02*
X147320000Y-110490000D01*
X112395000Y-103505000D02*
X116205000Y-103505000D01*
X95885000Y-139700000D02*
X95885000Y-100965000D01*
X149860000Y-146050000D02*
X149225000Y-145415000D01*
X149225000Y-145415000D02*
X96520000Y-145415000D01*
X96520000Y-145415000D02*
X95885000Y-144780000D01*
X95885000Y-144780000D02*
X95885000Y-139700000D01*
X149860000Y-147320000D02*
X149860000Y-146050000D01*
X95885000Y-100965000D02*
X95885000Y-92710000D01*
X118745000Y-110490000D02*
X118110000Y-109855000D01*
X118110000Y-109855000D02*
X118110000Y-104140000D01*
X118110000Y-104140000D02*
X117475000Y-103505000D01*
X117475000Y-103505000D02*
X116205000Y-103505000D01*
X146685000Y-113665000D02*
X146685000Y-111125000D01*
X184150000Y-125095000D02*
X183515000Y-124460000D01*
X183515000Y-124460000D02*
X183515000Y-119380000D01*
X184150000Y-128905000D02*
X184150000Y-125095000D01*
X182880000Y-125095000D02*
X183515000Y-125730000D01*
X182880000Y-116840000D02*
X182880000Y-125095000D01*
X183515000Y-128270000D02*
X183515000Y-125730000D01*
X182880000Y-126365000D02*
X182245000Y-125730000D01*
X182245000Y-114300000D02*
X181610000Y-113665000D01*
X182245000Y-125730000D02*
X182245000Y-114300000D01*
X181610000Y-113665000D02*
X180975000Y-113665000D01*
X182880000Y-128905000D02*
X182880000Y-126365000D01*
X181610000Y-126365000D02*
X182245000Y-127000000D01*
X182245000Y-127000000D02*
X182245000Y-130175000D01*
X181610000Y-126365000D02*
X180975000Y-126365000D01*
X168275000Y-126365000D02*
X168275000Y-119380000D01*
X167640000Y-116840000D02*
X167640000Y-127000000D01*
X167005000Y-114300000D02*
X166370000Y-113665000D01*
X167005000Y-127635000D02*
X167005000Y-114300000D01*
X166370000Y-113665000D02*
X165735000Y-113665000D01*
X154940000Y-147320000D02*
X154940000Y-144780000D01*
X118745000Y-113665000D02*
X120015000Y-113665000D01*
X118110000Y-114300000D02*
X118745000Y-113665000D01*
X118110000Y-120650000D02*
X118110000Y-114300000D01*
X144780000Y-123190000D02*
X144780000Y-121920000D01*
X144780000Y-127635000D02*
X144780000Y-123190000D01*
X144145000Y-121285000D02*
X142875000Y-121285000D01*
X144780000Y-121920000D02*
X144145000Y-121285000D01*
X182880000Y-115570000D02*
X184150000Y-116840000D01*
X182880000Y-110490000D02*
X182880000Y-115570000D01*
X182245000Y-109855000D02*
X182880000Y-110490000D01*
X184150000Y-116840000D02*
X184150000Y-118745000D01*
X184785000Y-130810000D02*
X184785000Y-124460000D01*
X184150000Y-123825000D02*
X184150000Y-118745000D01*
X184785000Y-124460000D02*
X184150000Y-123825000D01*
X184785000Y-118110000D02*
X184785000Y-116205000D01*
X188595000Y-128905000D02*
X186055000Y-128905000D01*
X185420000Y-128270000D02*
X185420000Y-123825000D01*
X186055000Y-128905000D02*
X185420000Y-128270000D01*
X184785000Y-123190000D02*
X184785000Y-118110000D01*
X185420000Y-123825000D02*
X184785000Y-123190000D01*
X182880000Y-109220000D02*
X181610000Y-109220000D01*
X183515000Y-109855000D02*
X182880000Y-109220000D01*
X183515000Y-114935000D02*
X183515000Y-109855000D01*
X184785000Y-116205000D02*
X183515000Y-114935000D01*
X185420000Y-115570000D02*
X184150000Y-114300000D01*
X184150000Y-114300000D02*
X184150000Y-109855000D01*
X186690000Y-126365000D02*
X188595000Y-126365000D01*
X186055000Y-125730000D02*
X186055000Y-123190000D01*
X186690000Y-126365000D02*
X186055000Y-125730000D01*
X185420000Y-122555000D02*
X185420000Y-117475000D01*
X186055000Y-123190000D02*
X185420000Y-122555000D01*
X185420000Y-115570000D02*
X185420000Y-117475000D01*
X187325000Y-123825000D02*
X188595000Y-123825000D01*
X186690000Y-123190000D02*
X186690000Y-122555000D01*
X187325000Y-123825000D02*
X186690000Y-123190000D01*
X186055000Y-121920000D02*
X186055000Y-116840000D01*
X186690000Y-122555000D02*
X186055000Y-121920000D01*
X186055000Y-109855000D02*
X186055000Y-116840000D01*
X186690000Y-116205000D02*
X186690000Y-109220000D01*
X187325000Y-121285000D02*
X186690000Y-120650000D01*
X186690000Y-120650000D02*
X186690000Y-116205000D01*
X188595000Y-121285000D02*
X187325000Y-121285000D01*
X188595000Y-121285000D02*
X187960000Y-121285000D01*
X187325000Y-115570000D02*
X187325000Y-109855000D01*
X188595000Y-118745000D02*
X187960000Y-118745000D01*
X187960000Y-118745000D02*
X187325000Y-118110000D01*
X187325000Y-118110000D02*
X187325000Y-115570000D01*
X175895000Y-109855000D02*
X172720000Y-109855000D01*
X172085000Y-110490000D02*
X172720000Y-109855000D01*
X172085000Y-111125000D02*
X172085000Y-110490000D01*
X172085000Y-122555000D02*
X172085000Y-111125000D01*
X184785000Y-97155000D02*
X184785000Y-94615000D01*
X184785000Y-99695000D02*
X184785000Y-97155000D01*
X184785000Y-102235000D02*
X184785000Y-99695000D01*
X184785000Y-104775000D02*
X184785000Y-102235000D01*
X184785000Y-107315000D02*
X184785000Y-104775000D01*
X116840000Y-130810000D02*
X116840000Y-132080000D01*
X117475000Y-120650000D02*
X117475000Y-121285000D01*
X117475000Y-116840000D02*
X117475000Y-120650000D01*
X116840000Y-121920000D02*
X116840000Y-122555000D01*
X117475000Y-121285000D02*
X116840000Y-121920000D01*
X127000000Y-95250000D02*
X125095000Y-93345000D01*
X135255000Y-110490000D02*
X135255000Y-108585000D01*
X135890000Y-111125000D02*
X135255000Y-110490000D01*
X170815000Y-111125000D02*
X171450000Y-110490000D01*
X171450000Y-110490000D02*
X171450000Y-109855000D01*
X110490000Y-105410000D02*
X110490000Y-100330000D01*
X109220000Y-92075000D02*
X108585000Y-92710000D01*
X109220000Y-139065000D02*
X110490000Y-139065000D01*
X111760000Y-92075000D02*
X113030000Y-90805000D01*
X109220000Y-92075000D02*
X111760000Y-92075000D01*
X111760000Y-139065000D02*
X110490000Y-139065000D01*
X127635000Y-121285000D02*
X128270000Y-121285000D01*
X128270000Y-121285000D02*
X128905000Y-120650000D01*
X128905000Y-116840000D02*
X128270000Y-116205000D01*
X128905000Y-120650000D02*
X128905000Y-116840000D01*
X128270000Y-116205000D02*
X127635000Y-116205000D01*
X112395000Y-113665000D02*
X111760000Y-113665000D01*
X111760000Y-113665000D02*
X111125000Y-113030000D01*
X111125000Y-113030000D02*
X111125000Y-102235000D01*
X112395000Y-118745000D02*
X113030000Y-118745000D01*
X113030000Y-118745000D02*
X113665000Y-118110000D01*
X113665000Y-118110000D02*
X113665000Y-114935000D01*
X119380000Y-93345000D02*
X122555000Y-93345000D01*
X109855000Y-102235000D02*
X109855000Y-106045000D01*
X118745000Y-92710000D02*
X126365000Y-92710000D01*
X120015000Y-118745000D02*
X120015000Y-116205000D01*
X136525000Y-117475000D02*
X136525000Y-130175000D01*
X144145000Y-122555000D02*
X144145000Y-130175000D01*
D20*
G36*
X109043569Y-89703110D02*
X108992560Y-89955000D01*
X108992560Y-91360241D01*
X108929161Y-91372852D01*
X108682599Y-91537599D01*
X108445320Y-91774878D01*
X108399833Y-91774838D01*
X108056057Y-91916883D01*
X107792808Y-92179673D01*
X107650162Y-92523201D01*
X107649838Y-92895167D01*
X107791883Y-93238943D01*
X108054673Y-93502192D01*
X108398201Y-93644838D01*
X108770167Y-93645162D01*
X109113943Y-93503117D01*
X109145112Y-93472002D01*
X109169844Y-93472002D01*
X109048524Y-93701890D01*
X109218355Y-94111924D01*
X109608642Y-94540183D01*
X110133108Y-94786486D01*
X110363000Y-94665819D01*
X110363000Y-93472000D01*
X110343000Y-93472000D01*
X110343000Y-93218000D01*
X110363000Y-93218000D01*
X110363000Y-93198000D01*
X110617000Y-93198000D01*
X110617000Y-93218000D01*
X110637000Y-93218000D01*
X110637000Y-93472000D01*
X110617000Y-93472000D01*
X110617000Y-94665819D01*
X110846892Y-94786486D01*
X111371358Y-94540183D01*
X111761645Y-94111924D01*
X111761655Y-94111899D01*
X111950853Y-94395054D01*
X112432622Y-94716961D01*
X113000907Y-94830000D01*
X113059093Y-94830000D01*
X113627378Y-94716961D01*
X114109147Y-94395054D01*
X114298345Y-94111899D01*
X114298355Y-94111924D01*
X114688642Y-94540183D01*
X115213108Y-94786486D01*
X115443000Y-94665819D01*
X115443000Y-93472000D01*
X115697000Y-93472000D01*
X115697000Y-94665819D01*
X115926892Y-94786486D01*
X116451358Y-94540183D01*
X116841645Y-94111924D01*
X117011476Y-93701890D01*
X116890155Y-93472000D01*
X115697000Y-93472000D01*
X115443000Y-93472000D01*
X115423000Y-93472000D01*
X115423000Y-93218000D01*
X115443000Y-93218000D01*
X115443000Y-93198000D01*
X115697000Y-93198000D01*
X115697000Y-93218000D01*
X116890155Y-93218000D01*
X117011476Y-92988110D01*
X116841645Y-92578076D01*
X116565499Y-92275063D01*
X116655317Y-92258162D01*
X116871441Y-92119090D01*
X117016431Y-91906890D01*
X117067440Y-91655000D01*
X117067440Y-89955000D01*
X117023162Y-89719683D01*
X116952583Y-89610000D01*
X118632188Y-89610000D01*
X118568569Y-89703110D01*
X118517560Y-89955000D01*
X118517560Y-91655000D01*
X118541532Y-91782400D01*
X118216057Y-91916883D01*
X117952808Y-92179673D01*
X117810162Y-92523201D01*
X117809838Y-92895167D01*
X117951883Y-93238943D01*
X118214673Y-93502192D01*
X118478554Y-93611765D01*
X118586883Y-93873943D01*
X118849673Y-94137192D01*
X119193201Y-94279838D01*
X119565167Y-94280162D01*
X119908943Y-94138117D01*
X119942118Y-94105000D01*
X121992537Y-94105000D01*
X122024673Y-94137192D01*
X122368201Y-94279838D01*
X122740167Y-94280162D01*
X123083943Y-94138117D01*
X123347192Y-93875327D01*
X123489838Y-93531799D01*
X123489892Y-93470000D01*
X124159890Y-93470000D01*
X124159838Y-93530167D01*
X124301883Y-93873943D01*
X124564673Y-94137192D01*
X124908201Y-94279838D01*
X124955077Y-94279879D01*
X126064878Y-95389680D01*
X126064838Y-95435167D01*
X126206883Y-95778943D01*
X126469673Y-96042192D01*
X126813201Y-96184838D01*
X127185167Y-96185162D01*
X127528943Y-96043117D01*
X127792192Y-95780327D01*
X127934838Y-95436799D01*
X127935162Y-95064833D01*
X127883085Y-94938795D01*
X169179716Y-94938795D01*
X169428106Y-95539943D01*
X169887637Y-96000278D01*
X170488352Y-96249716D01*
X171138795Y-96250284D01*
X171739943Y-96001894D01*
X172200278Y-95542363D01*
X172449716Y-94941648D01*
X172449718Y-94938795D01*
X175679716Y-94938795D01*
X175928106Y-95539943D01*
X176387637Y-96000278D01*
X176988352Y-96249716D01*
X177638795Y-96250284D01*
X178239943Y-96001894D01*
X178700278Y-95542363D01*
X178949716Y-94941648D01*
X178950284Y-94291205D01*
X178701894Y-93690057D01*
X178242363Y-93229722D01*
X177641648Y-92980284D01*
X176991205Y-92979716D01*
X176390057Y-93228106D01*
X175929722Y-93687637D01*
X175680284Y-94288352D01*
X175679716Y-94938795D01*
X172449718Y-94938795D01*
X172450284Y-94291205D01*
X172201894Y-93690057D01*
X171742363Y-93229722D01*
X171141648Y-92980284D01*
X170491205Y-92979716D01*
X169890057Y-93228106D01*
X169429722Y-93687637D01*
X169180284Y-94288352D01*
X169179716Y-94938795D01*
X127883085Y-94938795D01*
X127793117Y-94721057D01*
X127530327Y-94457808D01*
X127186799Y-94315162D01*
X127139923Y-94315121D01*
X126469894Y-93645092D01*
X126550167Y-93645162D01*
X126893943Y-93503117D01*
X127157192Y-93240327D01*
X127299838Y-92896799D01*
X127300162Y-92524833D01*
X127158117Y-92181057D01*
X126895327Y-91917808D01*
X126551799Y-91775162D01*
X126218070Y-91774871D01*
X126466961Y-91402378D01*
X126580000Y-90834093D01*
X126580000Y-90775907D01*
X126466961Y-90207622D01*
X126145054Y-89725853D01*
X125971667Y-89610000D01*
X189570908Y-89610000D01*
X193600000Y-93639092D01*
X193600000Y-112830918D01*
X193218923Y-112449176D01*
X192691691Y-112230250D01*
X192120813Y-112229752D01*
X191593200Y-112447757D01*
X191189176Y-112851077D01*
X190970250Y-113378309D01*
X190969752Y-113949187D01*
X191187757Y-114476800D01*
X191591077Y-114880824D01*
X192118309Y-115099750D01*
X192689187Y-115100248D01*
X192743149Y-115077951D01*
X192915000Y-115249802D01*
X192915000Y-117323431D01*
X192621777Y-117218035D01*
X192051546Y-117245222D01*
X191650995Y-117411136D01*
X191576861Y-117657255D01*
X192405000Y-118485395D01*
X192419142Y-118471252D01*
X192598748Y-118650858D01*
X192584605Y-118665000D01*
X192598748Y-118679143D01*
X192419142Y-118858748D01*
X192405000Y-118844605D01*
X191576861Y-119672745D01*
X191650995Y-119918864D01*
X192188223Y-120111965D01*
X192758454Y-120084778D01*
X192915000Y-120019934D01*
X192915000Y-144465198D01*
X192725198Y-144655000D01*
X156137463Y-144655000D01*
X156105327Y-144622808D01*
X155841446Y-144513235D01*
X155733117Y-144251057D01*
X155470327Y-143987808D01*
X155126799Y-143845162D01*
X154754833Y-143844838D01*
X154411057Y-143986883D01*
X154147808Y-144249673D01*
X154005162Y-144593201D01*
X154004838Y-144965167D01*
X154146883Y-145308943D01*
X154180000Y-145342118D01*
X154180000Y-146047046D01*
X153889946Y-146240853D01*
X153662298Y-146581553D01*
X153595183Y-146438642D01*
X153166924Y-146048355D01*
X152756890Y-145878524D01*
X152527000Y-145999845D01*
X152527000Y-147193000D01*
X152547000Y-147193000D01*
X152547000Y-147447000D01*
X152527000Y-147447000D01*
X152527000Y-147467000D01*
X152273000Y-147467000D01*
X152273000Y-147447000D01*
X152253000Y-147447000D01*
X152253000Y-147193000D01*
X152273000Y-147193000D01*
X152273000Y-145999845D01*
X152043110Y-145878524D01*
X151633076Y-146048355D01*
X151204817Y-146438642D01*
X151137702Y-146581553D01*
X150910054Y-146240853D01*
X150619322Y-146046593D01*
X150562148Y-145759161D01*
X150397401Y-145512599D01*
X149762401Y-144877599D01*
X149515839Y-144712852D01*
X149225000Y-144655000D01*
X96834802Y-144655000D01*
X96645000Y-144465198D01*
X96645000Y-139250167D01*
X108284838Y-139250167D01*
X108426883Y-139593943D01*
X108689673Y-139857192D01*
X109033201Y-139999838D01*
X109405167Y-140000162D01*
X109748943Y-139858117D01*
X109782118Y-139825000D01*
X111197537Y-139825000D01*
X111229673Y-139857192D01*
X111573201Y-139999838D01*
X111945167Y-140000162D01*
X112288943Y-139858117D01*
X112552192Y-139595327D01*
X112694838Y-139251799D01*
X112695162Y-138879833D01*
X112553117Y-138536057D01*
X112290327Y-138272808D01*
X111946799Y-138130162D01*
X111574833Y-138129838D01*
X111231057Y-138271883D01*
X111197882Y-138305000D01*
X109782463Y-138305000D01*
X109750327Y-138272808D01*
X109406799Y-138130162D01*
X109034833Y-138129838D01*
X108691057Y-138271883D01*
X108427808Y-138534673D01*
X108285162Y-138878201D01*
X108284838Y-139250167D01*
X96645000Y-139250167D01*
X96645000Y-132760735D01*
X96805959Y-132836914D01*
X97028000Y-132715629D01*
X97028000Y-131572000D01*
X97282000Y-131572000D01*
X97282000Y-132715629D01*
X97504041Y-132836914D01*
X98010134Y-132597389D01*
X98386041Y-132182423D01*
X98546904Y-131794039D01*
X98424915Y-131572000D01*
X97282000Y-131572000D01*
X97028000Y-131572000D01*
X97008000Y-131572000D01*
X97008000Y-131318000D01*
X97028000Y-131318000D01*
X97028000Y-131298000D01*
X97282000Y-131298000D01*
X97282000Y-131318000D01*
X98424915Y-131318000D01*
X98546904Y-131095961D01*
X98386041Y-130707577D01*
X98010134Y-130292611D01*
X97793297Y-130189986D01*
X98197811Y-129919698D01*
X98508880Y-129454151D01*
X98618113Y-128905000D01*
X98508880Y-128355849D01*
X98197811Y-127890302D01*
X97815725Y-127635000D01*
X98197811Y-127379698D01*
X98508880Y-126914151D01*
X98618113Y-126365000D01*
X110931887Y-126365000D01*
X111041120Y-126914151D01*
X111352189Y-127379698D01*
X111734275Y-127635000D01*
X111352189Y-127890302D01*
X111041120Y-128355849D01*
X110931887Y-128905000D01*
X111041120Y-129454151D01*
X111352189Y-129919698D01*
X111734275Y-130175000D01*
X111352189Y-130430302D01*
X111041120Y-130895849D01*
X110931887Y-131445000D01*
X111041120Y-131994151D01*
X111352189Y-132459698D01*
X111817736Y-132770767D01*
X112366887Y-132880000D01*
X112423113Y-132880000D01*
X112972264Y-132770767D01*
X113437811Y-132459698D01*
X113748880Y-131994151D01*
X113858113Y-131445000D01*
X113768636Y-130995167D01*
X115904838Y-130995167D01*
X116046883Y-131338943D01*
X116080000Y-131372118D01*
X116080000Y-131517537D01*
X116047808Y-131549673D01*
X115905162Y-131893201D01*
X115904838Y-132265167D01*
X116046883Y-132608943D01*
X116309673Y-132872192D01*
X116653201Y-133014838D01*
X117025167Y-133015162D01*
X117368943Y-132873117D01*
X117632192Y-132610327D01*
X117774838Y-132266799D01*
X117775162Y-131894833D01*
X117733515Y-131794039D01*
X164343096Y-131794039D01*
X164503959Y-132182423D01*
X164879866Y-132597389D01*
X165385959Y-132836914D01*
X165608000Y-132715629D01*
X165608000Y-131572000D01*
X165862000Y-131572000D01*
X165862000Y-132715629D01*
X166084041Y-132836914D01*
X166590134Y-132597389D01*
X166966041Y-132182423D01*
X167126904Y-131794039D01*
X167004915Y-131572000D01*
X165862000Y-131572000D01*
X165608000Y-131572000D01*
X164465085Y-131572000D01*
X164343096Y-131794039D01*
X117733515Y-131794039D01*
X117633117Y-131551057D01*
X117600000Y-131517882D01*
X117600000Y-131372463D01*
X117632192Y-131340327D01*
X117774838Y-130996799D01*
X117775162Y-130624833D01*
X117633117Y-130281057D01*
X117370327Y-130017808D01*
X117026799Y-129875162D01*
X116654833Y-129874838D01*
X116311057Y-130016883D01*
X116047808Y-130279673D01*
X115905162Y-130623201D01*
X115904838Y-130995167D01*
X113768636Y-130995167D01*
X113748880Y-130895849D01*
X113437811Y-130430302D01*
X113055725Y-130175000D01*
X113437811Y-129919698D01*
X113748880Y-129454151D01*
X113788684Y-129254039D01*
X118623096Y-129254039D01*
X118783959Y-129642423D01*
X119159866Y-130057389D01*
X119665959Y-130296914D01*
X119888000Y-130175629D01*
X119888000Y-129032000D01*
X120142000Y-129032000D01*
X120142000Y-130175629D01*
X120364041Y-130296914D01*
X120870134Y-130057389D01*
X121246041Y-129642423D01*
X121406904Y-129254039D01*
X121284915Y-129032000D01*
X120142000Y-129032000D01*
X119888000Y-129032000D01*
X118745085Y-129032000D01*
X118623096Y-129254039D01*
X113788684Y-129254039D01*
X113858113Y-128905000D01*
X113748880Y-128355849D01*
X113437811Y-127890302D01*
X113055725Y-127635000D01*
X113437811Y-127379698D01*
X113748880Y-126914151D01*
X113858113Y-126365000D01*
X113748880Y-125815849D01*
X113437811Y-125350302D01*
X113033297Y-125080014D01*
X113250134Y-124977389D01*
X113626041Y-124562423D01*
X113786904Y-124174039D01*
X113664915Y-123952000D01*
X112522000Y-123952000D01*
X112522000Y-123972000D01*
X112268000Y-123972000D01*
X112268000Y-123952000D01*
X111125085Y-123952000D01*
X111003096Y-124174039D01*
X111163959Y-124562423D01*
X111539866Y-124977389D01*
X111756703Y-125080014D01*
X111352189Y-125350302D01*
X111041120Y-125815849D01*
X110931887Y-126365000D01*
X98618113Y-126365000D01*
X98508880Y-125815849D01*
X98197811Y-125350302D01*
X97815725Y-125095000D01*
X98197811Y-124839698D01*
X98508880Y-124374151D01*
X98618113Y-123825000D01*
X98508880Y-123275849D01*
X98197811Y-122810302D01*
X97815725Y-122555000D01*
X98197811Y-122299698D01*
X98508880Y-121834151D01*
X98618113Y-121285000D01*
X98508880Y-120735849D01*
X98197811Y-120270302D01*
X97815725Y-120015000D01*
X98197811Y-119759698D01*
X98508880Y-119294151D01*
X98618113Y-118745000D01*
X98508880Y-118195849D01*
X98197811Y-117730302D01*
X97815725Y-117475000D01*
X98197811Y-117219698D01*
X98508880Y-116754151D01*
X98618113Y-116205000D01*
X98508880Y-115655849D01*
X98197811Y-115190302D01*
X97815725Y-114935000D01*
X98197811Y-114679698D01*
X98508880Y-114214151D01*
X98618113Y-113665000D01*
X98508880Y-113115849D01*
X98197811Y-112650302D01*
X97815725Y-112395000D01*
X98197811Y-112139698D01*
X98508880Y-111674151D01*
X98618113Y-111125000D01*
X98508880Y-110575849D01*
X98197811Y-110110302D01*
X97815725Y-109855000D01*
X98197811Y-109599698D01*
X98508880Y-109134151D01*
X98618113Y-108585000D01*
X98508880Y-108035849D01*
X98197811Y-107570302D01*
X97815725Y-107315000D01*
X98197811Y-107059698D01*
X98508880Y-106594151D01*
X98618113Y-106045000D01*
X98508880Y-105495849D01*
X98197811Y-105030302D01*
X98062665Y-104940000D01*
X98081309Y-104940000D01*
X98314698Y-104843327D01*
X98493327Y-104664699D01*
X98590000Y-104431310D01*
X98590000Y-103790750D01*
X98431250Y-103632000D01*
X97282000Y-103632000D01*
X97282000Y-103652000D01*
X97028000Y-103652000D01*
X97028000Y-103632000D01*
X97008000Y-103632000D01*
X97008000Y-103378000D01*
X97028000Y-103378000D01*
X97028000Y-102228750D01*
X97282000Y-102228750D01*
X97282000Y-103378000D01*
X98431250Y-103378000D01*
X98590000Y-103219250D01*
X98590000Y-102578690D01*
X98524338Y-102420167D01*
X108919838Y-102420167D01*
X109061883Y-102763943D01*
X109095000Y-102797118D01*
X109095000Y-105482537D01*
X109062808Y-105514673D01*
X108920162Y-105858201D01*
X108919838Y-106230167D01*
X109061883Y-106573943D01*
X109324673Y-106837192D01*
X109668201Y-106979838D01*
X110040167Y-106980162D01*
X110365000Y-106845944D01*
X110365000Y-113030000D01*
X110422852Y-113320839D01*
X110587599Y-113567401D01*
X110993141Y-113972943D01*
X111041120Y-114214151D01*
X111352189Y-114679698D01*
X111734275Y-114935000D01*
X111352189Y-115190302D01*
X111041120Y-115655849D01*
X110931887Y-116205000D01*
X111041120Y-116754151D01*
X111352189Y-117219698D01*
X111734275Y-117475000D01*
X111352189Y-117730302D01*
X111041120Y-118195849D01*
X110931887Y-118745000D01*
X111041120Y-119294151D01*
X111352189Y-119759698D01*
X111734275Y-120015000D01*
X111352189Y-120270302D01*
X111041120Y-120735849D01*
X110931887Y-121285000D01*
X111041120Y-121834151D01*
X111352189Y-122299698D01*
X111756703Y-122569986D01*
X111539866Y-122672611D01*
X111163959Y-123087577D01*
X111003096Y-123475961D01*
X111125085Y-123698000D01*
X112268000Y-123698000D01*
X112268000Y-123678000D01*
X112522000Y-123678000D01*
X112522000Y-123698000D01*
X113664915Y-123698000D01*
X113786904Y-123475961D01*
X113626041Y-123087577D01*
X113311332Y-122740167D01*
X115904838Y-122740167D01*
X116046883Y-123083943D01*
X116309673Y-123347192D01*
X116653201Y-123489838D01*
X117025167Y-123490162D01*
X117368943Y-123348117D01*
X117632192Y-123085327D01*
X117774838Y-122741799D01*
X117775162Y-122369833D01*
X117684467Y-122150335D01*
X118012401Y-121822401D01*
X118170991Y-121585054D01*
X118295167Y-121585162D01*
X118587561Y-121464347D01*
X118661120Y-121834151D01*
X118972189Y-122299698D01*
X119354275Y-122555000D01*
X118972189Y-122810302D01*
X118661120Y-123275849D01*
X118551887Y-123825000D01*
X118661120Y-124374151D01*
X118972189Y-124839698D01*
X119354275Y-125095000D01*
X118972189Y-125350302D01*
X118661120Y-125815849D01*
X118551887Y-126365000D01*
X118661120Y-126914151D01*
X118972189Y-127379698D01*
X119376703Y-127649986D01*
X119159866Y-127752611D01*
X118783959Y-128167577D01*
X118623096Y-128555961D01*
X118745085Y-128778000D01*
X119888000Y-128778000D01*
X119888000Y-128758000D01*
X120142000Y-128758000D01*
X120142000Y-128778000D01*
X121284915Y-128778000D01*
X121406904Y-128555961D01*
X121246041Y-128167577D01*
X120870134Y-127752611D01*
X120653297Y-127649986D01*
X121057811Y-127379698D01*
X121368880Y-126914151D01*
X121478113Y-126365000D01*
X121368880Y-125815849D01*
X121057811Y-125350302D01*
X120675725Y-125095000D01*
X121057811Y-124839698D01*
X121368880Y-124374151D01*
X121478113Y-123825000D01*
X121368880Y-123275849D01*
X121057811Y-122810302D01*
X120675725Y-122555000D01*
X121057811Y-122299698D01*
X121368880Y-121834151D01*
X121478113Y-121285000D01*
X121368880Y-120735849D01*
X121057811Y-120270302D01*
X120675725Y-120015000D01*
X121057811Y-119759698D01*
X121368880Y-119294151D01*
X121478113Y-118745000D01*
X121368880Y-118195849D01*
X121057811Y-117730302D01*
X120775000Y-117541333D01*
X120775000Y-117408667D01*
X121057811Y-117219698D01*
X121368880Y-116754151D01*
X121478113Y-116205000D01*
X121368880Y-115655849D01*
X121057811Y-115190302D01*
X120913535Y-115093899D01*
X121050317Y-115068162D01*
X121266441Y-114929090D01*
X121411431Y-114716890D01*
X121462440Y-114465000D01*
X121462440Y-113665000D01*
X126171887Y-113665000D01*
X126281120Y-114214151D01*
X126592189Y-114679698D01*
X126974275Y-114935000D01*
X126592189Y-115190302D01*
X126281120Y-115655849D01*
X126171887Y-116205000D01*
X126281120Y-116754151D01*
X126592189Y-117219698D01*
X126974275Y-117475000D01*
X126592189Y-117730302D01*
X126281120Y-118195849D01*
X126171887Y-118745000D01*
X126281120Y-119294151D01*
X126592189Y-119759698D01*
X126974275Y-120015000D01*
X126592189Y-120270302D01*
X126281120Y-120735849D01*
X126171887Y-121285000D01*
X126281120Y-121834151D01*
X126592189Y-122299698D01*
X126974275Y-122555000D01*
X126592189Y-122810302D01*
X126281120Y-123275849D01*
X126171887Y-123825000D01*
X126281120Y-124374151D01*
X126592189Y-124839698D01*
X126974275Y-125095000D01*
X126592189Y-125350302D01*
X126281120Y-125815849D01*
X126171887Y-126365000D01*
X126281120Y-126914151D01*
X126592189Y-127379698D01*
X126974275Y-127635000D01*
X126592189Y-127890302D01*
X126281120Y-128355849D01*
X126171887Y-128905000D01*
X126281120Y-129454151D01*
X126592189Y-129919698D01*
X127057736Y-130230767D01*
X127606887Y-130340000D01*
X127663113Y-130340000D01*
X128212264Y-130230767D01*
X128677811Y-129919698D01*
X128988880Y-129454151D01*
X129028684Y-129254039D01*
X133863096Y-129254039D01*
X134023959Y-129642423D01*
X134399866Y-130057389D01*
X134905959Y-130296914D01*
X135128000Y-130175629D01*
X135128000Y-129032000D01*
X133985085Y-129032000D01*
X133863096Y-129254039D01*
X129028684Y-129254039D01*
X129098113Y-128905000D01*
X128988880Y-128355849D01*
X128677811Y-127890302D01*
X128295725Y-127635000D01*
X128677811Y-127379698D01*
X128988880Y-126914151D01*
X129098113Y-126365000D01*
X128988880Y-125815849D01*
X128677811Y-125350302D01*
X128295725Y-125095000D01*
X128677811Y-124839698D01*
X128988880Y-124374151D01*
X129098113Y-123825000D01*
X128988880Y-123275849D01*
X128677811Y-122810302D01*
X128295725Y-122555000D01*
X128677811Y-122299698D01*
X128988880Y-121834151D01*
X129036859Y-121592943D01*
X129442401Y-121187401D01*
X129607148Y-120940839D01*
X129665000Y-120650000D01*
X129665000Y-119672745D01*
X130616861Y-119672745D01*
X130690995Y-119918864D01*
X131228223Y-120111965D01*
X131798454Y-120084778D01*
X132199005Y-119918864D01*
X132273139Y-119672745D01*
X131445000Y-118844605D01*
X130616861Y-119672745D01*
X129665000Y-119672745D01*
X129665000Y-118448223D01*
X129998035Y-118448223D01*
X130025222Y-119018454D01*
X130191136Y-119419005D01*
X130437255Y-119493139D01*
X131265395Y-118665000D01*
X131624605Y-118665000D01*
X132452745Y-119493139D01*
X132698864Y-119419005D01*
X132891965Y-118881777D01*
X132864778Y-118311546D01*
X132698864Y-117910995D01*
X132452745Y-117836861D01*
X131624605Y-118665000D01*
X131265395Y-118665000D01*
X130437255Y-117836861D01*
X130191136Y-117910995D01*
X129998035Y-118448223D01*
X129665000Y-118448223D01*
X129665000Y-117657255D01*
X130616861Y-117657255D01*
X131445000Y-118485395D01*
X132273139Y-117657255D01*
X132199005Y-117411136D01*
X131661777Y-117218035D01*
X131091546Y-117245222D01*
X130690995Y-117411136D01*
X130616861Y-117657255D01*
X129665000Y-117657255D01*
X129665000Y-116840000D01*
X129607148Y-116549161D01*
X129442401Y-116302599D01*
X129344802Y-116205000D01*
X133791887Y-116205000D01*
X133901120Y-116754151D01*
X134212189Y-117219698D01*
X134616703Y-117489986D01*
X134399866Y-117592611D01*
X134023959Y-118007577D01*
X133863096Y-118395961D01*
X133985085Y-118618000D01*
X135128000Y-118618000D01*
X135128000Y-118598000D01*
X135382000Y-118598000D01*
X135382000Y-118618000D01*
X135402000Y-118618000D01*
X135402000Y-118872000D01*
X135382000Y-118872000D01*
X135382000Y-118892000D01*
X135128000Y-118892000D01*
X135128000Y-118872000D01*
X133985085Y-118872000D01*
X133863096Y-119094039D01*
X134023959Y-119482423D01*
X134399866Y-119897389D01*
X134616703Y-120000014D01*
X134212189Y-120270302D01*
X133901120Y-120735849D01*
X133791887Y-121285000D01*
X133901120Y-121834151D01*
X134212189Y-122299698D01*
X134616703Y-122569986D01*
X134399866Y-122672611D01*
X134023959Y-123087577D01*
X133863096Y-123475961D01*
X133985085Y-123698000D01*
X135128000Y-123698000D01*
X135128000Y-123678000D01*
X135382000Y-123678000D01*
X135382000Y-123698000D01*
X135402000Y-123698000D01*
X135402000Y-123952000D01*
X135382000Y-123952000D01*
X135382000Y-123972000D01*
X135128000Y-123972000D01*
X135128000Y-123952000D01*
X133985085Y-123952000D01*
X133863096Y-124174039D01*
X134023959Y-124562423D01*
X134399866Y-124977389D01*
X134616703Y-125080014D01*
X134212189Y-125350302D01*
X133901120Y-125815849D01*
X133791887Y-126365000D01*
X133901120Y-126914151D01*
X134212189Y-127379698D01*
X134616703Y-127649986D01*
X134399866Y-127752611D01*
X134023959Y-128167577D01*
X133863096Y-128555961D01*
X133985085Y-128778000D01*
X135128000Y-128778000D01*
X135128000Y-128758000D01*
X135382000Y-128758000D01*
X135382000Y-128778000D01*
X135402000Y-128778000D01*
X135402000Y-129032000D01*
X135382000Y-129032000D01*
X135382000Y-130175629D01*
X135589900Y-130289190D01*
X135589838Y-130360167D01*
X135731883Y-130703943D01*
X135994673Y-130967192D01*
X136338201Y-131109838D01*
X136710167Y-131110162D01*
X137053943Y-130968117D01*
X137317192Y-130705327D01*
X137459838Y-130361799D01*
X137460162Y-129989833D01*
X137318117Y-129646057D01*
X137285000Y-129612882D01*
X137285000Y-118037463D01*
X137317192Y-118005327D01*
X137459838Y-117661799D01*
X137460162Y-117289833D01*
X137318117Y-116946057D01*
X137055327Y-116682808D01*
X136711799Y-116540162D01*
X136651456Y-116540109D01*
X136718113Y-116205000D01*
X136608880Y-115655849D01*
X136297811Y-115190302D01*
X136162665Y-115100000D01*
X136181309Y-115100000D01*
X136414698Y-115003327D01*
X136593327Y-114824699D01*
X136690000Y-114591310D01*
X136690000Y-113950750D01*
X136531250Y-113792000D01*
X135382000Y-113792000D01*
X135382000Y-113812000D01*
X135128000Y-113812000D01*
X135128000Y-113792000D01*
X133978750Y-113792000D01*
X133820000Y-113950750D01*
X133820000Y-114591310D01*
X133916673Y-114824699D01*
X134095302Y-115003327D01*
X134328691Y-115100000D01*
X134347335Y-115100000D01*
X134212189Y-115190302D01*
X133901120Y-115655849D01*
X133791887Y-116205000D01*
X129344802Y-116205000D01*
X129036859Y-115897057D01*
X128988880Y-115655849D01*
X128677811Y-115190302D01*
X128295725Y-114935000D01*
X128677811Y-114679698D01*
X128988880Y-114214151D01*
X129041584Y-113949187D01*
X130009752Y-113949187D01*
X130227757Y-114476800D01*
X130631077Y-114880824D01*
X131158309Y-115099750D01*
X131729187Y-115100248D01*
X132256800Y-114882243D01*
X132660824Y-114478923D01*
X132879750Y-113951691D01*
X132880000Y-113665000D01*
X141411887Y-113665000D01*
X141521120Y-114214151D01*
X141832189Y-114679698D01*
X142214275Y-114935000D01*
X141832189Y-115190302D01*
X141521120Y-115655849D01*
X141411887Y-116205000D01*
X141521120Y-116754151D01*
X141832189Y-117219698D01*
X142214275Y-117475000D01*
X141832189Y-117730302D01*
X141521120Y-118195849D01*
X141411887Y-118745000D01*
X141521120Y-119294151D01*
X141832189Y-119759698D01*
X142214275Y-120015000D01*
X141832189Y-120270302D01*
X141521120Y-120735849D01*
X141411887Y-121285000D01*
X141521120Y-121834151D01*
X141832189Y-122299698D01*
X142214275Y-122555000D01*
X141832189Y-122810302D01*
X141521120Y-123275849D01*
X141411887Y-123825000D01*
X141521120Y-124374151D01*
X141832189Y-124839698D01*
X142214275Y-125095000D01*
X141832189Y-125350302D01*
X141521120Y-125815849D01*
X141411887Y-126365000D01*
X141521120Y-126914151D01*
X141832189Y-127379698D01*
X142214275Y-127635000D01*
X141832189Y-127890302D01*
X141521120Y-128355849D01*
X141411887Y-128905000D01*
X141521120Y-129454151D01*
X141832189Y-129919698D01*
X142297736Y-130230767D01*
X142846887Y-130340000D01*
X142903113Y-130340000D01*
X143209909Y-130278974D01*
X143209838Y-130360167D01*
X143351883Y-130703943D01*
X143614673Y-130967192D01*
X143958201Y-131109838D01*
X144330167Y-131110162D01*
X144673943Y-130968117D01*
X144937192Y-130705327D01*
X145079838Y-130361799D01*
X145080162Y-129989833D01*
X144938117Y-129646057D01*
X144905000Y-129612882D01*
X144905000Y-129254039D01*
X149103096Y-129254039D01*
X149263959Y-129642423D01*
X149639866Y-130057389D01*
X150145959Y-130296914D01*
X150368000Y-130175629D01*
X150368000Y-129032000D01*
X150622000Y-129032000D01*
X150622000Y-130175629D01*
X150844041Y-130296914D01*
X151350134Y-130057389D01*
X151726041Y-129642423D01*
X151886904Y-129254039D01*
X151764915Y-129032000D01*
X150622000Y-129032000D01*
X150368000Y-129032000D01*
X149225085Y-129032000D01*
X149103096Y-129254039D01*
X144905000Y-129254039D01*
X144905000Y-128905000D01*
X156651887Y-128905000D01*
X156761120Y-129454151D01*
X157072189Y-129919698D01*
X157537736Y-130230767D01*
X158086887Y-130340000D01*
X158143113Y-130340000D01*
X158692264Y-130230767D01*
X159157811Y-129919698D01*
X159468880Y-129454151D01*
X159578113Y-128905000D01*
X159468880Y-128355849D01*
X159157811Y-127890302D01*
X158753297Y-127620014D01*
X158970134Y-127517389D01*
X159346041Y-127102423D01*
X159506904Y-126714039D01*
X159384915Y-126492000D01*
X158242000Y-126492000D01*
X158242000Y-126512000D01*
X157988000Y-126512000D01*
X157988000Y-126492000D01*
X156845085Y-126492000D01*
X156723096Y-126714039D01*
X156883959Y-127102423D01*
X157259866Y-127517389D01*
X157476703Y-127620014D01*
X157072189Y-127890302D01*
X156761120Y-128355849D01*
X156651887Y-128905000D01*
X144905000Y-128905000D01*
X144905000Y-128570110D01*
X144965167Y-128570162D01*
X145308943Y-128428117D01*
X145572192Y-128165327D01*
X145714838Y-127821799D01*
X145715162Y-127449833D01*
X145573117Y-127106057D01*
X145540000Y-127072882D01*
X145540000Y-126365000D01*
X149031887Y-126365000D01*
X149141120Y-126914151D01*
X149452189Y-127379698D01*
X149856703Y-127649986D01*
X149639866Y-127752611D01*
X149263959Y-128167577D01*
X149103096Y-128555961D01*
X149225085Y-128778000D01*
X150368000Y-128778000D01*
X150368000Y-128758000D01*
X150622000Y-128758000D01*
X150622000Y-128778000D01*
X151764915Y-128778000D01*
X151886904Y-128555961D01*
X151726041Y-128167577D01*
X151350134Y-127752611D01*
X151133297Y-127649986D01*
X151537811Y-127379698D01*
X151848880Y-126914151D01*
X151958113Y-126365000D01*
X151848880Y-125815849D01*
X151537811Y-125350302D01*
X151133297Y-125080014D01*
X151350134Y-124977389D01*
X151726041Y-124562423D01*
X151886904Y-124174039D01*
X151764915Y-123952000D01*
X150622000Y-123952000D01*
X150622000Y-123972000D01*
X150368000Y-123972000D01*
X150368000Y-123952000D01*
X149225085Y-123952000D01*
X149103096Y-124174039D01*
X149263959Y-124562423D01*
X149639866Y-124977389D01*
X149856703Y-125080014D01*
X149452189Y-125350302D01*
X149141120Y-125815849D01*
X149031887Y-126365000D01*
X145540000Y-126365000D01*
X145540000Y-123825000D01*
X156651887Y-123825000D01*
X156761120Y-124374151D01*
X157072189Y-124839698D01*
X157476703Y-125109986D01*
X157259866Y-125212611D01*
X156883959Y-125627577D01*
X156723096Y-126015961D01*
X156845085Y-126238000D01*
X157988000Y-126238000D01*
X157988000Y-126218000D01*
X158242000Y-126218000D01*
X158242000Y-126238000D01*
X159384915Y-126238000D01*
X159506904Y-126015961D01*
X159346041Y-125627577D01*
X158970134Y-125212611D01*
X158753297Y-125109986D01*
X159157811Y-124839698D01*
X159468880Y-124374151D01*
X159578113Y-123825000D01*
X159468880Y-123275849D01*
X159157811Y-122810302D01*
X158753297Y-122540014D01*
X158970134Y-122437389D01*
X159346041Y-122022423D01*
X159506904Y-121634039D01*
X159384915Y-121412000D01*
X158242000Y-121412000D01*
X158242000Y-121432000D01*
X157988000Y-121432000D01*
X157988000Y-121412000D01*
X156845085Y-121412000D01*
X156723096Y-121634039D01*
X156883959Y-122022423D01*
X157259866Y-122437389D01*
X157476703Y-122540014D01*
X157072189Y-122810302D01*
X156761120Y-123275849D01*
X156651887Y-123825000D01*
X145540000Y-123825000D01*
X145540000Y-123752463D01*
X145572192Y-123720327D01*
X145714838Y-123376799D01*
X145715162Y-123004833D01*
X145573117Y-122661057D01*
X145540000Y-122627882D01*
X145540000Y-121920000D01*
X145482148Y-121629161D01*
X145317401Y-121382599D01*
X145219802Y-121285000D01*
X149031887Y-121285000D01*
X149141120Y-121834151D01*
X149452189Y-122299698D01*
X149856703Y-122569986D01*
X149639866Y-122672611D01*
X149263959Y-123087577D01*
X149103096Y-123475961D01*
X149225085Y-123698000D01*
X150368000Y-123698000D01*
X150368000Y-123678000D01*
X150622000Y-123678000D01*
X150622000Y-123698000D01*
X151764915Y-123698000D01*
X151886904Y-123475961D01*
X151726041Y-123087577D01*
X151350134Y-122672611D01*
X151133297Y-122569986D01*
X151537811Y-122299698D01*
X151848880Y-121834151D01*
X151958113Y-121285000D01*
X151848880Y-120735849D01*
X151537811Y-120270302D01*
X151133297Y-120000014D01*
X151350134Y-119897389D01*
X151726041Y-119482423D01*
X151886904Y-119094039D01*
X151764915Y-118872000D01*
X150622000Y-118872000D01*
X150622000Y-118892000D01*
X150368000Y-118892000D01*
X150368000Y-118872000D01*
X149225085Y-118872000D01*
X149103096Y-119094039D01*
X149263959Y-119482423D01*
X149639866Y-119897389D01*
X149856703Y-120000014D01*
X149452189Y-120270302D01*
X149141120Y-120735849D01*
X149031887Y-121285000D01*
X145219802Y-121285000D01*
X144682401Y-120747599D01*
X144435839Y-120582852D01*
X144145000Y-120525000D01*
X144087995Y-120525000D01*
X143917811Y-120270302D01*
X143535725Y-120015000D01*
X143917811Y-119759698D01*
X143975911Y-119672745D01*
X145856861Y-119672745D01*
X145930995Y-119918864D01*
X146468223Y-120111965D01*
X147038454Y-120084778D01*
X147439005Y-119918864D01*
X147513139Y-119672745D01*
X146685000Y-118844605D01*
X145856861Y-119672745D01*
X143975911Y-119672745D01*
X144228880Y-119294151D01*
X144338113Y-118745000D01*
X144279081Y-118448223D01*
X145238035Y-118448223D01*
X145265222Y-119018454D01*
X145431136Y-119419005D01*
X145677255Y-119493139D01*
X146505395Y-118665000D01*
X146864605Y-118665000D01*
X147692745Y-119493139D01*
X147938864Y-119419005D01*
X148131965Y-118881777D01*
X148104778Y-118311546D01*
X147938864Y-117910995D01*
X147692745Y-117836861D01*
X146864605Y-118665000D01*
X146505395Y-118665000D01*
X145677255Y-117836861D01*
X145431136Y-117910995D01*
X145238035Y-118448223D01*
X144279081Y-118448223D01*
X144228880Y-118195849D01*
X143917811Y-117730302D01*
X143808489Y-117657255D01*
X145856861Y-117657255D01*
X146685000Y-118485395D01*
X147513139Y-117657255D01*
X147439005Y-117411136D01*
X146901777Y-117218035D01*
X146331546Y-117245222D01*
X145930995Y-117411136D01*
X145856861Y-117657255D01*
X143808489Y-117657255D01*
X143535725Y-117475000D01*
X143917811Y-117219698D01*
X144228880Y-116754151D01*
X144338113Y-116205000D01*
X149031887Y-116205000D01*
X149141120Y-116754151D01*
X149452189Y-117219698D01*
X149856703Y-117489986D01*
X149639866Y-117592611D01*
X149263959Y-118007577D01*
X149103096Y-118395961D01*
X149225085Y-118618000D01*
X150368000Y-118618000D01*
X150368000Y-118598000D01*
X150622000Y-118598000D01*
X150622000Y-118618000D01*
X151764915Y-118618000D01*
X151886904Y-118395961D01*
X151726041Y-118007577D01*
X151350134Y-117592611D01*
X151133297Y-117489986D01*
X151537811Y-117219698D01*
X151848880Y-116754151D01*
X151958113Y-116205000D01*
X151848880Y-115655849D01*
X151537811Y-115190302D01*
X151402665Y-115100000D01*
X151421309Y-115100000D01*
X151654698Y-115003327D01*
X151833327Y-114824699D01*
X151930000Y-114591310D01*
X151930000Y-113950750D01*
X151771250Y-113792000D01*
X150622000Y-113792000D01*
X150622000Y-113812000D01*
X150368000Y-113812000D01*
X150368000Y-113792000D01*
X149218750Y-113792000D01*
X149060000Y-113950750D01*
X149060000Y-114591310D01*
X149156673Y-114824699D01*
X149335302Y-115003327D01*
X149568691Y-115100000D01*
X149587335Y-115100000D01*
X149452189Y-115190302D01*
X149141120Y-115655849D01*
X149031887Y-116205000D01*
X144338113Y-116205000D01*
X144228880Y-115655849D01*
X143917811Y-115190302D01*
X143535725Y-114935000D01*
X143917811Y-114679698D01*
X144228880Y-114214151D01*
X144338113Y-113665000D01*
X144228880Y-113115849D01*
X143917811Y-112650302D01*
X143452264Y-112339233D01*
X142903113Y-112230000D01*
X142846887Y-112230000D01*
X142297736Y-112339233D01*
X141832189Y-112650302D01*
X141521120Y-113115849D01*
X141411887Y-113665000D01*
X132880000Y-113665000D01*
X132880248Y-113380813D01*
X132662243Y-112853200D01*
X132547933Y-112738690D01*
X133820000Y-112738690D01*
X133820000Y-113379250D01*
X133978750Y-113538000D01*
X135128000Y-113538000D01*
X135128000Y-112388750D01*
X135382000Y-112388750D01*
X135382000Y-113538000D01*
X136531250Y-113538000D01*
X136690000Y-113379250D01*
X136690000Y-112738690D01*
X136593327Y-112505301D01*
X136414698Y-112326673D01*
X136181309Y-112230000D01*
X135540750Y-112230000D01*
X135382000Y-112388750D01*
X135128000Y-112388750D01*
X134969250Y-112230000D01*
X134328691Y-112230000D01*
X134095302Y-112326673D01*
X133916673Y-112505301D01*
X133820000Y-112738690D01*
X132547933Y-112738690D01*
X132258923Y-112449176D01*
X131731691Y-112230250D01*
X131160813Y-112229752D01*
X130633200Y-112447757D01*
X130229176Y-112851077D01*
X130010250Y-113378309D01*
X130009752Y-113949187D01*
X129041584Y-113949187D01*
X129098113Y-113665000D01*
X128988880Y-113115849D01*
X128677811Y-112650302D01*
X128212264Y-112339233D01*
X127663113Y-112230000D01*
X127606887Y-112230000D01*
X127057736Y-112339233D01*
X126592189Y-112650302D01*
X126281120Y-113115849D01*
X126171887Y-113665000D01*
X121462440Y-113665000D01*
X121462440Y-112865000D01*
X121418162Y-112629683D01*
X121279090Y-112413559D01*
X121066890Y-112268569D01*
X120815000Y-112217560D01*
X119215000Y-112217560D01*
X118979683Y-112261838D01*
X118763559Y-112400910D01*
X118618569Y-112613110D01*
X118567560Y-112865000D01*
X118567560Y-112940295D01*
X118454161Y-112962852D01*
X118207599Y-113127599D01*
X117572599Y-113762599D01*
X117407852Y-114009161D01*
X117350000Y-114300000D01*
X117350000Y-115904890D01*
X117289833Y-115904838D01*
X116946057Y-116046883D01*
X116682808Y-116309673D01*
X116540162Y-116653201D01*
X116539838Y-117025167D01*
X116681883Y-117368943D01*
X116715000Y-117402118D01*
X116715000Y-120970198D01*
X116302599Y-121382599D01*
X116137852Y-121629161D01*
X116080000Y-121920000D01*
X116080000Y-121992537D01*
X116047808Y-122024673D01*
X115905162Y-122368201D01*
X115904838Y-122740167D01*
X113311332Y-122740167D01*
X113250134Y-122672611D01*
X113033297Y-122569986D01*
X113437811Y-122299698D01*
X113748880Y-121834151D01*
X113858113Y-121285000D01*
X113748880Y-120735849D01*
X113437811Y-120270302D01*
X113055725Y-120015000D01*
X113437811Y-119759698D01*
X113748880Y-119294151D01*
X113796859Y-119052943D01*
X114202401Y-118647401D01*
X114367148Y-118400839D01*
X114425000Y-118110000D01*
X114425000Y-115497463D01*
X114457192Y-115465327D01*
X114599838Y-115121799D01*
X114600162Y-114749833D01*
X114458117Y-114406057D01*
X114195327Y-114142808D01*
X113851799Y-114000162D01*
X113791456Y-114000109D01*
X113858113Y-113665000D01*
X113748880Y-113115849D01*
X113437811Y-112650302D01*
X113055725Y-112395000D01*
X113437811Y-112139698D01*
X113748880Y-111674151D01*
X113858113Y-111125000D01*
X113748880Y-110575849D01*
X113437811Y-110110302D01*
X113055725Y-109855000D01*
X113437811Y-109599698D01*
X113495911Y-109512745D01*
X115376861Y-109512745D01*
X115450995Y-109758864D01*
X115988223Y-109951965D01*
X116558454Y-109924778D01*
X116959005Y-109758864D01*
X117033139Y-109512745D01*
X116205000Y-108684605D01*
X115376861Y-109512745D01*
X113495911Y-109512745D01*
X113748880Y-109134151D01*
X113858113Y-108585000D01*
X113799081Y-108288223D01*
X114758035Y-108288223D01*
X114785222Y-108858454D01*
X114951136Y-109259005D01*
X115197255Y-109333139D01*
X116025395Y-108505000D01*
X115197255Y-107676861D01*
X114951136Y-107750995D01*
X114758035Y-108288223D01*
X113799081Y-108288223D01*
X113748880Y-108035849D01*
X113437811Y-107570302D01*
X113328489Y-107497255D01*
X115376861Y-107497255D01*
X116205000Y-108325395D01*
X117033139Y-107497255D01*
X116959005Y-107251136D01*
X116421777Y-107058035D01*
X115851546Y-107085222D01*
X115450995Y-107251136D01*
X115376861Y-107497255D01*
X113328489Y-107497255D01*
X113055725Y-107315000D01*
X113437811Y-107059698D01*
X113748880Y-106594151D01*
X113858113Y-106045000D01*
X113748880Y-105495849D01*
X113437811Y-105030302D01*
X113055725Y-104775000D01*
X113437811Y-104519698D01*
X113607995Y-104265000D01*
X114966354Y-104265000D01*
X114987757Y-104316800D01*
X115391077Y-104720824D01*
X115918309Y-104939750D01*
X116489187Y-104940248D01*
X117016800Y-104722243D01*
X117317382Y-104422184D01*
X117350000Y-104454802D01*
X117350000Y-107718204D01*
X117212745Y-107676861D01*
X116384605Y-108505000D01*
X117212745Y-109333139D01*
X117350000Y-109291796D01*
X117350000Y-109855000D01*
X117407852Y-110145839D01*
X117572599Y-110392401D01*
X117809878Y-110629680D01*
X117809838Y-110675167D01*
X117951883Y-111018943D01*
X118214673Y-111282192D01*
X118558201Y-111424838D01*
X118930167Y-111425162D01*
X119273943Y-111283117D01*
X119537192Y-111020327D01*
X119679838Y-110676799D01*
X119680162Y-110304833D01*
X119538117Y-109961057D01*
X119275327Y-109697808D01*
X118931799Y-109555162D01*
X118884923Y-109555121D01*
X118870000Y-109540198D01*
X118870000Y-107785000D01*
X126187560Y-107785000D01*
X126187560Y-109385000D01*
X126231838Y-109620317D01*
X126370910Y-109836441D01*
X126583110Y-109981431D01*
X126835000Y-110032440D01*
X128435000Y-110032440D01*
X128670317Y-109988162D01*
X128886441Y-109849090D01*
X129031431Y-109636890D01*
X129082440Y-109385000D01*
X129082440Y-108585000D01*
X133791887Y-108585000D01*
X133901120Y-109134151D01*
X134212189Y-109599698D01*
X134495000Y-109788667D01*
X134495000Y-110490000D01*
X134552852Y-110780839D01*
X134717599Y-111027401D01*
X134954878Y-111264680D01*
X134954838Y-111310167D01*
X135096883Y-111653943D01*
X135359673Y-111917192D01*
X135703201Y-112059838D01*
X136075167Y-112060162D01*
X136418943Y-111918117D01*
X136682192Y-111655327D01*
X136824838Y-111311799D01*
X136825162Y-110939833D01*
X136683117Y-110596057D01*
X136420327Y-110332808D01*
X136076799Y-110190162D01*
X136029923Y-110190121D01*
X136015000Y-110175198D01*
X136015000Y-109788667D01*
X136297811Y-109599698D01*
X136302456Y-109592745D01*
X137046861Y-109592745D01*
X137120995Y-109838864D01*
X137658223Y-110031965D01*
X138228454Y-110004778D01*
X138629005Y-109838864D01*
X138703139Y-109592745D01*
X137875000Y-108764605D01*
X137046861Y-109592745D01*
X136302456Y-109592745D01*
X136564064Y-109201222D01*
X136621136Y-109339005D01*
X136867255Y-109413139D01*
X137695395Y-108585000D01*
X138054605Y-108585000D01*
X138882745Y-109413139D01*
X139128864Y-109339005D01*
X139297735Y-108869187D01*
X141439752Y-108869187D01*
X141657757Y-109396800D01*
X142061077Y-109800824D01*
X142588309Y-110019750D01*
X143159187Y-110020248D01*
X143686800Y-109802243D01*
X144090824Y-109398923D01*
X144309750Y-108871691D01*
X144310000Y-108585000D01*
X144586887Y-108585000D01*
X144696120Y-109134151D01*
X145007189Y-109599698D01*
X145472736Y-109910767D01*
X146021887Y-110020000D01*
X146078113Y-110020000D01*
X146564242Y-109923303D01*
X146527808Y-109959673D01*
X146385162Y-110303201D01*
X146385121Y-110350077D01*
X146147599Y-110587599D01*
X145982852Y-110834161D01*
X145925000Y-111125000D01*
X145925000Y-112426354D01*
X145873200Y-112447757D01*
X145469176Y-112851077D01*
X145250250Y-113378309D01*
X145249752Y-113949187D01*
X145467757Y-114476800D01*
X145871077Y-114880824D01*
X146398309Y-115099750D01*
X146969187Y-115100248D01*
X147496800Y-114882243D01*
X147900824Y-114478923D01*
X148119750Y-113951691D01*
X148120000Y-113665000D01*
X156651887Y-113665000D01*
X156761120Y-114214151D01*
X157072189Y-114679698D01*
X157454275Y-114935000D01*
X157072189Y-115190302D01*
X156761120Y-115655849D01*
X156651887Y-116205000D01*
X156761120Y-116754151D01*
X157072189Y-117219698D01*
X157454275Y-117475000D01*
X157072189Y-117730302D01*
X156761120Y-118195849D01*
X156651887Y-118745000D01*
X156761120Y-119294151D01*
X157072189Y-119759698D01*
X157476703Y-120029986D01*
X157259866Y-120132611D01*
X156883959Y-120547577D01*
X156723096Y-120935961D01*
X156845085Y-121158000D01*
X157988000Y-121158000D01*
X157988000Y-121138000D01*
X158242000Y-121138000D01*
X158242000Y-121158000D01*
X159384915Y-121158000D01*
X159506904Y-120935961D01*
X159346041Y-120547577D01*
X158970134Y-120132611D01*
X158753297Y-120029986D01*
X159157811Y-119759698D01*
X159215911Y-119672745D01*
X161096861Y-119672745D01*
X161170995Y-119918864D01*
X161708223Y-120111965D01*
X162278454Y-120084778D01*
X162679005Y-119918864D01*
X162753139Y-119672745D01*
X161925000Y-118844605D01*
X161096861Y-119672745D01*
X159215911Y-119672745D01*
X159468880Y-119294151D01*
X159578113Y-118745000D01*
X159519081Y-118448223D01*
X160478035Y-118448223D01*
X160505222Y-119018454D01*
X160671136Y-119419005D01*
X160917255Y-119493139D01*
X161745395Y-118665000D01*
X162104605Y-118665000D01*
X162932745Y-119493139D01*
X163178864Y-119419005D01*
X163371965Y-118881777D01*
X163344778Y-118311546D01*
X163178864Y-117910995D01*
X162932745Y-117836861D01*
X162104605Y-118665000D01*
X161745395Y-118665000D01*
X160917255Y-117836861D01*
X160671136Y-117910995D01*
X160478035Y-118448223D01*
X159519081Y-118448223D01*
X159468880Y-118195849D01*
X159157811Y-117730302D01*
X159048489Y-117657255D01*
X161096861Y-117657255D01*
X161925000Y-118485395D01*
X162753139Y-117657255D01*
X162679005Y-117411136D01*
X162141777Y-117218035D01*
X161571546Y-117245222D01*
X161170995Y-117411136D01*
X161096861Y-117657255D01*
X159048489Y-117657255D01*
X158775725Y-117475000D01*
X159157811Y-117219698D01*
X159468880Y-116754151D01*
X159578113Y-116205000D01*
X164271887Y-116205000D01*
X164381120Y-116754151D01*
X164692189Y-117219698D01*
X165074275Y-117475000D01*
X164692189Y-117730302D01*
X164381120Y-118195849D01*
X164271887Y-118745000D01*
X164381120Y-119294151D01*
X164692189Y-119759698D01*
X165096703Y-120029986D01*
X164879866Y-120132611D01*
X164503959Y-120547577D01*
X164343096Y-120935961D01*
X164465085Y-121158000D01*
X165608000Y-121158000D01*
X165608000Y-121138000D01*
X165862000Y-121138000D01*
X165862000Y-121158000D01*
X165882000Y-121158000D01*
X165882000Y-121412000D01*
X165862000Y-121412000D01*
X165862000Y-121432000D01*
X165608000Y-121432000D01*
X165608000Y-121412000D01*
X164465085Y-121412000D01*
X164343096Y-121634039D01*
X164503959Y-122022423D01*
X164879866Y-122437389D01*
X165096703Y-122540014D01*
X164692189Y-122810302D01*
X164381120Y-123275849D01*
X164271887Y-123825000D01*
X164381120Y-124374151D01*
X164692189Y-124839698D01*
X165074275Y-125095000D01*
X164692189Y-125350302D01*
X164381120Y-125815849D01*
X164271887Y-126365000D01*
X164381120Y-126914151D01*
X164692189Y-127379698D01*
X165074275Y-127635000D01*
X164692189Y-127890302D01*
X164381120Y-128355849D01*
X164271887Y-128905000D01*
X164381120Y-129454151D01*
X164692189Y-129919698D01*
X165096703Y-130189986D01*
X164879866Y-130292611D01*
X164503959Y-130707577D01*
X164343096Y-131095961D01*
X164465085Y-131318000D01*
X165608000Y-131318000D01*
X165608000Y-131298000D01*
X165862000Y-131298000D01*
X165862000Y-131318000D01*
X167004915Y-131318000D01*
X167126904Y-131095961D01*
X166966041Y-130707577D01*
X166590134Y-130292611D01*
X166373297Y-130189986D01*
X166777811Y-129919698D01*
X167088880Y-129454151D01*
X167198113Y-128905000D01*
X167131499Y-128570111D01*
X167190167Y-128570162D01*
X167533943Y-128428117D01*
X167797192Y-128165327D01*
X167906765Y-127901446D01*
X168168943Y-127793117D01*
X168432192Y-127530327D01*
X168541765Y-127266446D01*
X168803943Y-127158117D01*
X169067192Y-126895327D01*
X169209838Y-126551799D01*
X169210162Y-126179833D01*
X169068117Y-125836057D01*
X169035000Y-125802882D01*
X169035000Y-119942463D01*
X169067192Y-119910327D01*
X169209838Y-119566799D01*
X169210162Y-119194833D01*
X169068117Y-118851057D01*
X168805327Y-118587808D01*
X168461799Y-118445162D01*
X168400000Y-118445108D01*
X168400000Y-117402463D01*
X168432192Y-117370327D01*
X168574838Y-117026799D01*
X168575162Y-116654833D01*
X168433117Y-116311057D01*
X168170327Y-116047808D01*
X167826799Y-115905162D01*
X167765000Y-115905108D01*
X167765000Y-114300000D01*
X167707148Y-114009161D01*
X167542401Y-113762599D01*
X167182440Y-113402638D01*
X167182440Y-112865000D01*
X167138162Y-112629683D01*
X166999090Y-112413559D01*
X166786890Y-112268569D01*
X166535000Y-112217560D01*
X164935000Y-112217560D01*
X164699683Y-112261838D01*
X164483559Y-112400910D01*
X164338569Y-112613110D01*
X164287560Y-112865000D01*
X164287560Y-114465000D01*
X164331838Y-114700317D01*
X164470910Y-114916441D01*
X164683110Y-115061431D01*
X164838089Y-115092815D01*
X164692189Y-115190302D01*
X164381120Y-115655849D01*
X164271887Y-116205000D01*
X159578113Y-116205000D01*
X159468880Y-115655849D01*
X159157811Y-115190302D01*
X158775725Y-114935000D01*
X159157811Y-114679698D01*
X159468880Y-114214151D01*
X159521584Y-113949187D01*
X160489752Y-113949187D01*
X160707757Y-114476800D01*
X161111077Y-114880824D01*
X161638309Y-115099750D01*
X162209187Y-115100248D01*
X162736800Y-114882243D01*
X163140824Y-114478923D01*
X163359750Y-113951691D01*
X163360248Y-113380813D01*
X163142243Y-112853200D01*
X162738923Y-112449176D01*
X162211691Y-112230250D01*
X161640813Y-112229752D01*
X161113200Y-112447757D01*
X160709176Y-112851077D01*
X160490250Y-113378309D01*
X160489752Y-113949187D01*
X159521584Y-113949187D01*
X159578113Y-113665000D01*
X159468880Y-113115849D01*
X159157811Y-112650302D01*
X158692264Y-112339233D01*
X158143113Y-112230000D01*
X158086887Y-112230000D01*
X157537736Y-112339233D01*
X157072189Y-112650302D01*
X156761120Y-113115849D01*
X156651887Y-113665000D01*
X148120000Y-113665000D01*
X148120248Y-113380813D01*
X147902243Y-112853200D01*
X147787933Y-112738690D01*
X149060000Y-112738690D01*
X149060000Y-113379250D01*
X149218750Y-113538000D01*
X150368000Y-113538000D01*
X150368000Y-112388750D01*
X150622000Y-112388750D01*
X150622000Y-113538000D01*
X151771250Y-113538000D01*
X151930000Y-113379250D01*
X151930000Y-112738690D01*
X151833327Y-112505301D01*
X151654698Y-112326673D01*
X151421309Y-112230000D01*
X150780750Y-112230000D01*
X150622000Y-112388750D01*
X150368000Y-112388750D01*
X150209250Y-112230000D01*
X149568691Y-112230000D01*
X149335302Y-112326673D01*
X149156673Y-112505301D01*
X149060000Y-112738690D01*
X147787933Y-112738690D01*
X147498923Y-112449176D01*
X147445000Y-112426785D01*
X147445000Y-111439802D01*
X147459680Y-111425122D01*
X147505167Y-111425162D01*
X147783476Y-111310167D01*
X169879838Y-111310167D01*
X170021883Y-111653943D01*
X170284673Y-111917192D01*
X170628201Y-112059838D01*
X171000167Y-112060162D01*
X171325000Y-111925944D01*
X171325000Y-121992537D01*
X171292808Y-122024673D01*
X171150162Y-122368201D01*
X171149838Y-122740167D01*
X171291883Y-123083943D01*
X171554673Y-123347192D01*
X171898201Y-123489838D01*
X171958544Y-123489891D01*
X171891887Y-123825000D01*
X172001120Y-124374151D01*
X172312189Y-124839698D01*
X172694275Y-125095000D01*
X172312189Y-125350302D01*
X172001120Y-125815849D01*
X171891887Y-126365000D01*
X172001120Y-126914151D01*
X172312189Y-127379698D01*
X172694275Y-127635000D01*
X172312189Y-127890302D01*
X172001120Y-128355849D01*
X171891887Y-128905000D01*
X172001120Y-129454151D01*
X172312189Y-129919698D01*
X172694275Y-130175000D01*
X172312189Y-130430302D01*
X172001120Y-130895849D01*
X171891887Y-131445000D01*
X172001120Y-131994151D01*
X172312189Y-132459698D01*
X172777736Y-132770767D01*
X173326887Y-132880000D01*
X173383113Y-132880000D01*
X173932264Y-132770767D01*
X174397811Y-132459698D01*
X174708880Y-131994151D01*
X174748684Y-131794039D01*
X179583096Y-131794039D01*
X179743959Y-132182423D01*
X180119866Y-132597389D01*
X180625959Y-132836914D01*
X180848000Y-132715629D01*
X180848000Y-131572000D01*
X181102000Y-131572000D01*
X181102000Y-132715629D01*
X181324041Y-132836914D01*
X181830134Y-132597389D01*
X182206041Y-132182423D01*
X182366904Y-131794039D01*
X182244915Y-131572000D01*
X181102000Y-131572000D01*
X180848000Y-131572000D01*
X179705085Y-131572000D01*
X179583096Y-131794039D01*
X174748684Y-131794039D01*
X174818113Y-131445000D01*
X174708880Y-130895849D01*
X174397811Y-130430302D01*
X174015725Y-130175000D01*
X174397811Y-129919698D01*
X174708880Y-129454151D01*
X174818113Y-128905000D01*
X174708880Y-128355849D01*
X174397811Y-127890302D01*
X174015725Y-127635000D01*
X174397811Y-127379698D01*
X174708880Y-126914151D01*
X174818113Y-126365000D01*
X174708880Y-125815849D01*
X174397811Y-125350302D01*
X174015725Y-125095000D01*
X174397811Y-124839698D01*
X174708880Y-124374151D01*
X174818113Y-123825000D01*
X174708880Y-123275849D01*
X174397811Y-122810302D01*
X174015725Y-122555000D01*
X174397811Y-122299698D01*
X174708880Y-121834151D01*
X174748684Y-121634039D01*
X179583096Y-121634039D01*
X179743959Y-122022423D01*
X180119866Y-122437389D01*
X180368367Y-122555000D01*
X180119866Y-122672611D01*
X179743959Y-123087577D01*
X179583096Y-123475961D01*
X179705085Y-123698000D01*
X180848000Y-123698000D01*
X180848000Y-121412000D01*
X179705085Y-121412000D01*
X179583096Y-121634039D01*
X174748684Y-121634039D01*
X174818113Y-121285000D01*
X174708880Y-120735849D01*
X174397811Y-120270302D01*
X174015725Y-120015000D01*
X174397811Y-119759698D01*
X174455911Y-119672745D01*
X176336861Y-119672745D01*
X176410995Y-119918864D01*
X176948223Y-120111965D01*
X177518454Y-120084778D01*
X177919005Y-119918864D01*
X177993139Y-119672745D01*
X177165000Y-118844605D01*
X176336861Y-119672745D01*
X174455911Y-119672745D01*
X174708880Y-119294151D01*
X174818113Y-118745000D01*
X174759081Y-118448223D01*
X175718035Y-118448223D01*
X175745222Y-119018454D01*
X175911136Y-119419005D01*
X176157255Y-119493139D01*
X176985395Y-118665000D01*
X177344605Y-118665000D01*
X178172745Y-119493139D01*
X178418864Y-119419005D01*
X178611965Y-118881777D01*
X178584778Y-118311546D01*
X178418864Y-117910995D01*
X178172745Y-117836861D01*
X177344605Y-118665000D01*
X176985395Y-118665000D01*
X176157255Y-117836861D01*
X175911136Y-117910995D01*
X175718035Y-118448223D01*
X174759081Y-118448223D01*
X174708880Y-118195849D01*
X174397811Y-117730302D01*
X174288489Y-117657255D01*
X176336861Y-117657255D01*
X177165000Y-118485395D01*
X177993139Y-117657255D01*
X177919005Y-117411136D01*
X177381777Y-117218035D01*
X176811546Y-117245222D01*
X176410995Y-117411136D01*
X176336861Y-117657255D01*
X174288489Y-117657255D01*
X174015725Y-117475000D01*
X174397811Y-117219698D01*
X174708880Y-116754151D01*
X174818113Y-116205000D01*
X179511887Y-116205000D01*
X179621120Y-116754151D01*
X179932189Y-117219698D01*
X180314275Y-117475000D01*
X179932189Y-117730302D01*
X179621120Y-118195849D01*
X179511887Y-118745000D01*
X179621120Y-119294151D01*
X179932189Y-119759698D01*
X180336703Y-120029986D01*
X180119866Y-120132611D01*
X179743959Y-120547577D01*
X179583096Y-120935961D01*
X179705085Y-121158000D01*
X180848000Y-121158000D01*
X180848000Y-121138000D01*
X181102000Y-121138000D01*
X181102000Y-121158000D01*
X181122000Y-121158000D01*
X181122000Y-121412000D01*
X181102000Y-121412000D01*
X181102000Y-123698000D01*
X181122000Y-123698000D01*
X181122000Y-123952000D01*
X181102000Y-123952000D01*
X181102000Y-123972000D01*
X180848000Y-123972000D01*
X180848000Y-123952000D01*
X179705085Y-123952000D01*
X179583096Y-124174039D01*
X179743959Y-124562423D01*
X180119866Y-124977389D01*
X180336703Y-125080014D01*
X179932189Y-125350302D01*
X179621120Y-125815849D01*
X179511887Y-126365000D01*
X179621120Y-126914151D01*
X179932189Y-127379698D01*
X180314275Y-127635000D01*
X179932189Y-127890302D01*
X179621120Y-128355849D01*
X179511887Y-128905000D01*
X179621120Y-129454151D01*
X179932189Y-129919698D01*
X180336703Y-130189986D01*
X180119866Y-130292611D01*
X179743959Y-130707577D01*
X179583096Y-131095961D01*
X179705085Y-131318000D01*
X180848000Y-131318000D01*
X180848000Y-131298000D01*
X181102000Y-131298000D01*
X181102000Y-131318000D01*
X182244915Y-131318000D01*
X182359136Y-131110100D01*
X182430167Y-131110162D01*
X182773943Y-130968117D01*
X183037192Y-130705327D01*
X183179838Y-130361799D01*
X183180162Y-129989833D01*
X183110568Y-129821403D01*
X183408943Y-129698117D01*
X183514954Y-129592290D01*
X183619673Y-129697192D01*
X183963201Y-129839838D01*
X184025000Y-129839892D01*
X184025000Y-130247537D01*
X183992808Y-130279673D01*
X183850162Y-130623201D01*
X183849838Y-130995167D01*
X183991883Y-131338943D01*
X184254673Y-131602192D01*
X184598201Y-131744838D01*
X184970167Y-131745162D01*
X185313943Y-131603117D01*
X185577192Y-131340327D01*
X185719838Y-130996799D01*
X185720162Y-130624833D01*
X185578117Y-130281057D01*
X185545000Y-130247882D01*
X185545000Y-129460710D01*
X185764161Y-129607148D01*
X186055000Y-129665000D01*
X187382005Y-129665000D01*
X187552189Y-129919698D01*
X187934275Y-130175000D01*
X187552189Y-130430302D01*
X187241120Y-130895849D01*
X187131887Y-131445000D01*
X187241120Y-131994151D01*
X187552189Y-132459698D01*
X188017736Y-132770767D01*
X188566887Y-132880000D01*
X188623113Y-132880000D01*
X189172264Y-132770767D01*
X189637811Y-132459698D01*
X189948880Y-131994151D01*
X190058113Y-131445000D01*
X189948880Y-130895849D01*
X189637811Y-130430302D01*
X189255725Y-130175000D01*
X189637811Y-129919698D01*
X189948880Y-129454151D01*
X190058113Y-128905000D01*
X189948880Y-128355849D01*
X189637811Y-127890302D01*
X189255725Y-127635000D01*
X189637811Y-127379698D01*
X189948880Y-126914151D01*
X190058113Y-126365000D01*
X189948880Y-125815849D01*
X189637811Y-125350302D01*
X189255725Y-125095000D01*
X189637811Y-124839698D01*
X189948880Y-124374151D01*
X190058113Y-123825000D01*
X189948880Y-123275849D01*
X189637811Y-122810302D01*
X189255725Y-122555000D01*
X189637811Y-122299698D01*
X189948880Y-121834151D01*
X190058113Y-121285000D01*
X189948880Y-120735849D01*
X189637811Y-120270302D01*
X189255725Y-120015000D01*
X189637811Y-119759698D01*
X189948880Y-119294151D01*
X190058113Y-118745000D01*
X189999081Y-118448223D01*
X190958035Y-118448223D01*
X190985222Y-119018454D01*
X191151136Y-119419005D01*
X191397255Y-119493139D01*
X192225395Y-118665000D01*
X191397255Y-117836861D01*
X191151136Y-117910995D01*
X190958035Y-118448223D01*
X189999081Y-118448223D01*
X189948880Y-118195849D01*
X189637811Y-117730302D01*
X189255725Y-117475000D01*
X189637811Y-117219698D01*
X189948880Y-116754151D01*
X190058113Y-116205000D01*
X189948880Y-115655849D01*
X189637811Y-115190302D01*
X189255725Y-114935000D01*
X189637811Y-114679698D01*
X189948880Y-114214151D01*
X190058113Y-113665000D01*
X189948880Y-113115849D01*
X189637811Y-112650302D01*
X189172264Y-112339233D01*
X188623113Y-112230000D01*
X188566887Y-112230000D01*
X188085000Y-112325853D01*
X188085000Y-110417463D01*
X188117192Y-110385327D01*
X188259838Y-110041799D01*
X188260162Y-109669833D01*
X188118117Y-109326057D01*
X187855327Y-109062808D01*
X187591446Y-108953235D01*
X187483117Y-108691057D01*
X187220327Y-108427808D01*
X186876799Y-108285162D01*
X186504833Y-108284838D01*
X186161057Y-108426883D01*
X185897808Y-108689673D01*
X185788235Y-108953554D01*
X185526057Y-109061883D01*
X185262808Y-109324673D01*
X185120162Y-109668201D01*
X185119838Y-110040167D01*
X185261883Y-110383943D01*
X185295000Y-110417118D01*
X185295000Y-114370198D01*
X184910000Y-113985198D01*
X184910000Y-110417463D01*
X184942192Y-110385327D01*
X185084838Y-110041799D01*
X185085162Y-109669833D01*
X184943117Y-109326057D01*
X184680327Y-109062808D01*
X184336799Y-108920162D01*
X183964833Y-108919838D01*
X183745335Y-109010533D01*
X183417401Y-108682599D01*
X183170839Y-108517852D01*
X183112758Y-108506299D01*
X183324147Y-108365054D01*
X183515000Y-108079422D01*
X183705853Y-108365054D01*
X184187622Y-108686961D01*
X184755907Y-108800000D01*
X184814093Y-108800000D01*
X185382378Y-108686961D01*
X185864147Y-108365054D01*
X186186054Y-107883285D01*
X186299093Y-107315000D01*
X186186054Y-106746715D01*
X185864147Y-106264946D01*
X185545000Y-106051699D01*
X185545000Y-106038301D01*
X185864147Y-105825054D01*
X186186054Y-105343285D01*
X186299093Y-104775000D01*
X186186054Y-104206715D01*
X185864147Y-103724946D01*
X185545000Y-103511699D01*
X185545000Y-103498301D01*
X185864147Y-103285054D01*
X186186054Y-102803285D01*
X186299093Y-102235000D01*
X186186054Y-101666715D01*
X185864147Y-101184946D01*
X185545000Y-100971699D01*
X185545000Y-100958301D01*
X185864147Y-100745054D01*
X186186054Y-100263285D01*
X186299093Y-99695000D01*
X186186054Y-99126715D01*
X185864147Y-98644946D01*
X185545000Y-98431699D01*
X185545000Y-98418301D01*
X185864147Y-98205054D01*
X186186054Y-97723285D01*
X186299093Y-97155000D01*
X186186054Y-96586715D01*
X185864147Y-96104946D01*
X185545000Y-95891699D01*
X185545000Y-95878301D01*
X185864147Y-95665054D01*
X186186054Y-95183285D01*
X186299093Y-94615000D01*
X186186054Y-94046715D01*
X185864147Y-93564946D01*
X185382378Y-93243039D01*
X184814093Y-93130000D01*
X184755907Y-93130000D01*
X184187622Y-93243039D01*
X183705853Y-93564946D01*
X183705029Y-93566179D01*
X183698162Y-93529683D01*
X183559090Y-93313559D01*
X183346890Y-93168569D01*
X183095000Y-93117560D01*
X181395000Y-93117560D01*
X181159683Y-93161838D01*
X180943559Y-93300910D01*
X180798569Y-93513110D01*
X180747560Y-93765000D01*
X180747560Y-95465000D01*
X180791838Y-95700317D01*
X180930910Y-95916441D01*
X181143110Y-96061431D01*
X181210541Y-96075086D01*
X181165853Y-96104946D01*
X180843946Y-96586715D01*
X180730907Y-97155000D01*
X180843946Y-97723285D01*
X181165853Y-98205054D01*
X181495026Y-98425000D01*
X181165853Y-98644946D01*
X180843946Y-99126715D01*
X180730907Y-99695000D01*
X180843946Y-100263285D01*
X181165853Y-100745054D01*
X181495026Y-100965000D01*
X181165853Y-101184946D01*
X180843946Y-101666715D01*
X180730907Y-102235000D01*
X180843946Y-102803285D01*
X181165853Y-103285054D01*
X181495026Y-103505000D01*
X181165853Y-103724946D01*
X180843946Y-104206715D01*
X180730907Y-104775000D01*
X180843946Y-105343285D01*
X181165853Y-105825054D01*
X181495026Y-106045000D01*
X181165853Y-106264946D01*
X180843946Y-106746715D01*
X180730907Y-107315000D01*
X180843946Y-107883285D01*
X181165853Y-108365054D01*
X181190629Y-108381609D01*
X181081057Y-108426883D01*
X180817808Y-108689673D01*
X180675162Y-109033201D01*
X180674838Y-109405167D01*
X180816883Y-109748943D01*
X181079673Y-110012192D01*
X181343554Y-110121765D01*
X181451883Y-110383943D01*
X181714673Y-110647192D01*
X182058201Y-110789838D01*
X182105077Y-110789879D01*
X182120000Y-110804802D01*
X182120000Y-112332188D01*
X182026890Y-112268569D01*
X181775000Y-112217560D01*
X180175000Y-112217560D01*
X179939683Y-112261838D01*
X179723559Y-112400910D01*
X179578569Y-112613110D01*
X179527560Y-112865000D01*
X179527560Y-114465000D01*
X179571838Y-114700317D01*
X179710910Y-114916441D01*
X179923110Y-115061431D01*
X180078089Y-115092815D01*
X179932189Y-115190302D01*
X179621120Y-115655849D01*
X179511887Y-116205000D01*
X174818113Y-116205000D01*
X174708880Y-115655849D01*
X174397811Y-115190302D01*
X174015725Y-114935000D01*
X174397811Y-114679698D01*
X174708880Y-114214151D01*
X174761584Y-113949187D01*
X175729752Y-113949187D01*
X175947757Y-114476800D01*
X176351077Y-114880824D01*
X176878309Y-115099750D01*
X177449187Y-115100248D01*
X177976800Y-114882243D01*
X178380824Y-114478923D01*
X178599750Y-113951691D01*
X178600248Y-113380813D01*
X178382243Y-112853200D01*
X177978923Y-112449176D01*
X177451691Y-112230250D01*
X176880813Y-112229752D01*
X176353200Y-112447757D01*
X175949176Y-112851077D01*
X175730250Y-113378309D01*
X175729752Y-113949187D01*
X174761584Y-113949187D01*
X174818113Y-113665000D01*
X174708880Y-113115849D01*
X174397811Y-112650302D01*
X173932264Y-112339233D01*
X173383113Y-112230000D01*
X173326887Y-112230000D01*
X172845000Y-112325853D01*
X172845000Y-110804802D01*
X173034802Y-110615000D01*
X175332537Y-110615000D01*
X175364673Y-110647192D01*
X175708201Y-110789838D01*
X176080167Y-110790162D01*
X176423943Y-110648117D01*
X176687192Y-110385327D01*
X176829838Y-110041799D01*
X176830162Y-109669833D01*
X176688117Y-109326057D01*
X176425327Y-109062808D01*
X176081799Y-108920162D01*
X175709833Y-108919838D01*
X175366057Y-109061883D01*
X175332882Y-109095000D01*
X172720000Y-109095000D01*
X172429161Y-109152852D01*
X172213837Y-109296726D01*
X171980327Y-109062808D01*
X171636799Y-108920162D01*
X171264833Y-108919838D01*
X170921057Y-109061883D01*
X170657808Y-109324673D01*
X170515162Y-109668201D01*
X170514838Y-110040167D01*
X170584432Y-110208597D01*
X170286057Y-110331883D01*
X170022808Y-110594673D01*
X169880162Y-110938201D01*
X169879838Y-111310167D01*
X147783476Y-111310167D01*
X147848943Y-111283117D01*
X148112192Y-111020327D01*
X148254838Y-110676799D01*
X148255162Y-110304833D01*
X148113117Y-109961057D01*
X147850327Y-109697808D01*
X147506799Y-109555162D01*
X147134833Y-109554838D01*
X147118191Y-109561714D01*
X147403880Y-109134151D01*
X147456584Y-108869187D01*
X154774752Y-108869187D01*
X154992757Y-109396800D01*
X155396077Y-109800824D01*
X155923309Y-110019750D01*
X156494187Y-110020248D01*
X157021800Y-109802243D01*
X157425824Y-109398923D01*
X157479862Y-109268785D01*
X157532757Y-109396800D01*
X157936077Y-109800824D01*
X158463309Y-110019750D01*
X159034187Y-110020248D01*
X159561800Y-109802243D01*
X159965824Y-109398923D01*
X160184750Y-108871691D01*
X160185000Y-108585000D01*
X167446887Y-108585000D01*
X167556120Y-109134151D01*
X167867189Y-109599698D01*
X168332736Y-109910767D01*
X168881887Y-110020000D01*
X168938113Y-110020000D01*
X169487264Y-109910767D01*
X169952811Y-109599698D01*
X170263880Y-109134151D01*
X170373113Y-108585000D01*
X170263880Y-108035849D01*
X169952811Y-107570302D01*
X169487264Y-107259233D01*
X168938113Y-107150000D01*
X168881887Y-107150000D01*
X168332736Y-107259233D01*
X167867189Y-107570302D01*
X167556120Y-108035849D01*
X167446887Y-108585000D01*
X160185000Y-108585000D01*
X160185248Y-108300813D01*
X159967243Y-107773200D01*
X159563923Y-107369176D01*
X159036691Y-107150250D01*
X158465813Y-107149752D01*
X157938200Y-107367757D01*
X157534176Y-107771077D01*
X157480138Y-107901215D01*
X157427243Y-107773200D01*
X157023923Y-107369176D01*
X156496691Y-107150250D01*
X155925813Y-107149752D01*
X155398200Y-107367757D01*
X154994176Y-107771077D01*
X154775250Y-108298309D01*
X154774752Y-108869187D01*
X147456584Y-108869187D01*
X147513113Y-108585000D01*
X147403880Y-108035849D01*
X147092811Y-107570302D01*
X146627264Y-107259233D01*
X146078113Y-107150000D01*
X146021887Y-107150000D01*
X145472736Y-107259233D01*
X145007189Y-107570302D01*
X144696120Y-108035849D01*
X144586887Y-108585000D01*
X144310000Y-108585000D01*
X144310248Y-108300813D01*
X144092243Y-107773200D01*
X143688923Y-107369176D01*
X143161691Y-107150250D01*
X142590813Y-107149752D01*
X142063200Y-107367757D01*
X141659176Y-107771077D01*
X141440250Y-108298309D01*
X141439752Y-108869187D01*
X139297735Y-108869187D01*
X139321965Y-108801777D01*
X139294778Y-108231546D01*
X139128864Y-107830995D01*
X138882745Y-107756861D01*
X138054605Y-108585000D01*
X137695395Y-108585000D01*
X136867255Y-107756861D01*
X136621136Y-107830995D01*
X136568972Y-107976122D01*
X136302457Y-107577255D01*
X137046861Y-107577255D01*
X137875000Y-108405395D01*
X138703139Y-107577255D01*
X138629005Y-107331136D01*
X138091777Y-107138035D01*
X137521546Y-107165222D01*
X137120995Y-107331136D01*
X137046861Y-107577255D01*
X136302457Y-107577255D01*
X136297811Y-107570302D01*
X135832264Y-107259233D01*
X135283113Y-107150000D01*
X135226887Y-107150000D01*
X134677736Y-107259233D01*
X134212189Y-107570302D01*
X133901120Y-108035849D01*
X133791887Y-108585000D01*
X129082440Y-108585000D01*
X129082440Y-107785000D01*
X129038162Y-107549683D01*
X128899090Y-107333559D01*
X128686890Y-107188569D01*
X128435000Y-107137560D01*
X126835000Y-107137560D01*
X126599683Y-107181838D01*
X126383559Y-107320910D01*
X126238569Y-107533110D01*
X126187560Y-107785000D01*
X118870000Y-107785000D01*
X118870000Y-106964187D01*
X171324752Y-106964187D01*
X171542757Y-107491800D01*
X171946077Y-107895824D01*
X172473309Y-108114750D01*
X173044187Y-108115248D01*
X173571800Y-107897243D01*
X173840583Y-107628928D01*
X173856838Y-107715317D01*
X173995910Y-107931441D01*
X174208110Y-108076431D01*
X174460000Y-108127440D01*
X176060000Y-108127440D01*
X176295317Y-108083162D01*
X176511441Y-107944090D01*
X176656431Y-107731890D01*
X176707440Y-107480000D01*
X176707440Y-105880000D01*
X176663162Y-105644683D01*
X176524090Y-105428559D01*
X176311890Y-105283569D01*
X176060000Y-105232560D01*
X174460000Y-105232560D01*
X174224683Y-105276838D01*
X174008559Y-105415910D01*
X173863569Y-105628110D01*
X173842320Y-105733041D01*
X173573923Y-105464176D01*
X173046691Y-105245250D01*
X172475813Y-105244752D01*
X171948200Y-105462757D01*
X171544176Y-105866077D01*
X171325250Y-106393309D01*
X171324752Y-106964187D01*
X118870000Y-106964187D01*
X118870000Y-104140000D01*
X118837180Y-103975000D01*
X136347560Y-103975000D01*
X136347560Y-105575000D01*
X136391838Y-105810317D01*
X136530910Y-106026441D01*
X136743110Y-106171431D01*
X136995000Y-106222440D01*
X138595000Y-106222440D01*
X138830317Y-106178162D01*
X139046441Y-106039090D01*
X139191431Y-105826890D01*
X139242440Y-105575000D01*
X139242440Y-105124039D01*
X144023096Y-105124039D01*
X144183959Y-105512423D01*
X144559866Y-105927389D01*
X145065959Y-106166914D01*
X145288000Y-106045629D01*
X145288000Y-104902000D01*
X145542000Y-104902000D01*
X145542000Y-106045629D01*
X145764041Y-106166914D01*
X146270134Y-105927389D01*
X146646041Y-105512423D01*
X146806904Y-105124039D01*
X146684915Y-104902000D01*
X145542000Y-104902000D01*
X145288000Y-104902000D01*
X144145085Y-104902000D01*
X144023096Y-105124039D01*
X139242440Y-105124039D01*
X139242440Y-104775000D01*
X147126887Y-104775000D01*
X147236120Y-105324151D01*
X147547189Y-105789698D01*
X148012736Y-106100767D01*
X148561887Y-106210000D01*
X148618113Y-106210000D01*
X149167264Y-106100767D01*
X149632811Y-105789698D01*
X149943880Y-105324151D01*
X150053113Y-104775000D01*
X149943880Y-104225849D01*
X149776268Y-103975000D01*
X154762560Y-103975000D01*
X154762560Y-105575000D01*
X154806838Y-105810317D01*
X154945910Y-106026441D01*
X155158110Y-106171431D01*
X155410000Y-106222440D01*
X157010000Y-106222440D01*
X157245317Y-106178162D01*
X157461441Y-106039090D01*
X157606431Y-105826890D01*
X157642496Y-105648796D01*
X157894866Y-105927389D01*
X158400959Y-106166914D01*
X158623000Y-106045629D01*
X158623000Y-104902000D01*
X158877000Y-104902000D01*
X158877000Y-106045629D01*
X159099041Y-106166914D01*
X159605134Y-105927389D01*
X159981041Y-105512423D01*
X160141904Y-105124039D01*
X160106275Y-105059187D01*
X167474752Y-105059187D01*
X167692757Y-105586800D01*
X168096077Y-105990824D01*
X168623309Y-106209750D01*
X169194187Y-106210248D01*
X169721800Y-105992243D01*
X170125824Y-105588923D01*
X170344750Y-105061691D01*
X170345248Y-104490813D01*
X170127243Y-103963200D01*
X169723923Y-103559176D01*
X169196691Y-103340250D01*
X168625813Y-103339752D01*
X168098200Y-103557757D01*
X167694176Y-103961077D01*
X167475250Y-104488309D01*
X167474752Y-105059187D01*
X160106275Y-105059187D01*
X160019915Y-104902000D01*
X158877000Y-104902000D01*
X158623000Y-104902000D01*
X158603000Y-104902000D01*
X158603000Y-104648000D01*
X158623000Y-104648000D01*
X158623000Y-103504371D01*
X158877000Y-103504371D01*
X158877000Y-104648000D01*
X160019915Y-104648000D01*
X160141904Y-104425961D01*
X159981041Y-104037577D01*
X159605134Y-103622611D01*
X159099041Y-103383086D01*
X158877000Y-103504371D01*
X158623000Y-103504371D01*
X158400959Y-103383086D01*
X157894866Y-103622611D01*
X157643372Y-103900236D01*
X157613162Y-103739683D01*
X157474090Y-103523559D01*
X157261890Y-103378569D01*
X157010000Y-103327560D01*
X155410000Y-103327560D01*
X155174683Y-103371838D01*
X154958559Y-103510910D01*
X154813569Y-103723110D01*
X154762560Y-103975000D01*
X149776268Y-103975000D01*
X149632811Y-103760302D01*
X149167264Y-103449233D01*
X148618113Y-103340000D01*
X148561887Y-103340000D01*
X148012736Y-103449233D01*
X147547189Y-103760302D01*
X147236120Y-104225849D01*
X147126887Y-104775000D01*
X139242440Y-104775000D01*
X139242440Y-104425961D01*
X144023096Y-104425961D01*
X144145085Y-104648000D01*
X145288000Y-104648000D01*
X145288000Y-103504371D01*
X145542000Y-103504371D01*
X145542000Y-104648000D01*
X146684915Y-104648000D01*
X146806904Y-104425961D01*
X146646041Y-104037577D01*
X146270134Y-103622611D01*
X145764041Y-103383086D01*
X145542000Y-103504371D01*
X145288000Y-103504371D01*
X145065959Y-103383086D01*
X144559866Y-103622611D01*
X144183959Y-104037577D01*
X144023096Y-104425961D01*
X139242440Y-104425961D01*
X139242440Y-103975000D01*
X139198162Y-103739683D01*
X139059090Y-103523559D01*
X138846890Y-103378569D01*
X138595000Y-103327560D01*
X136995000Y-103327560D01*
X136759683Y-103371838D01*
X136543559Y-103510910D01*
X136398569Y-103723110D01*
X136347560Y-103975000D01*
X118837180Y-103975000D01*
X118812148Y-103849161D01*
X118647401Y-103602599D01*
X118012401Y-102967599D01*
X117765839Y-102802852D01*
X117475000Y-102745000D01*
X117443646Y-102745000D01*
X117422243Y-102693200D01*
X117018923Y-102289176D01*
X116491691Y-102070250D01*
X115920813Y-102069752D01*
X115393200Y-102287757D01*
X114989176Y-102691077D01*
X114966785Y-102745000D01*
X113607995Y-102745000D01*
X113437811Y-102490302D01*
X112972264Y-102179233D01*
X112423113Y-102070000D01*
X112366887Y-102070000D01*
X112060091Y-102131026D01*
X112060162Y-102049833D01*
X111918117Y-101706057D01*
X111655327Y-101442808D01*
X111311799Y-101300162D01*
X111250000Y-101300108D01*
X111250000Y-100892463D01*
X111282192Y-100860327D01*
X111424838Y-100516799D01*
X111425055Y-100267532D01*
X169842073Y-100267532D01*
X169940736Y-100534387D01*
X170550461Y-100760908D01*
X171200460Y-100736856D01*
X171689264Y-100534387D01*
X171787927Y-100267532D01*
X176342073Y-100267532D01*
X176440736Y-100534387D01*
X177050461Y-100760908D01*
X177700460Y-100736856D01*
X178189264Y-100534387D01*
X178287927Y-100267532D01*
X177315000Y-99294605D01*
X176342073Y-100267532D01*
X171787927Y-100267532D01*
X170815000Y-99294605D01*
X169842073Y-100267532D01*
X111425055Y-100267532D01*
X111425162Y-100144833D01*
X111283117Y-99801057D01*
X111020327Y-99537808D01*
X110676799Y-99395162D01*
X110304833Y-99394838D01*
X109961057Y-99536883D01*
X109697808Y-99799673D01*
X109555162Y-100143201D01*
X109554838Y-100515167D01*
X109696883Y-100858943D01*
X109730000Y-100892118D01*
X109730000Y-101299890D01*
X109669833Y-101299838D01*
X109326057Y-101441883D01*
X109062808Y-101704673D01*
X108920162Y-102048201D01*
X108919838Y-102420167D01*
X98524338Y-102420167D01*
X98493327Y-102345301D01*
X98314698Y-102166673D01*
X98081309Y-102070000D01*
X97440750Y-102070000D01*
X97282000Y-102228750D01*
X97028000Y-102228750D01*
X96869250Y-102070000D01*
X96645000Y-102070000D01*
X96645000Y-98850461D01*
X169169092Y-98850461D01*
X169193144Y-99500460D01*
X169395613Y-99989264D01*
X169662468Y-100087927D01*
X170635395Y-99115000D01*
X170994605Y-99115000D01*
X171967532Y-100087927D01*
X172234387Y-99989264D01*
X172460908Y-99379539D01*
X172441331Y-98850461D01*
X175669092Y-98850461D01*
X175693144Y-99500460D01*
X175895613Y-99989264D01*
X176162468Y-100087927D01*
X177135395Y-99115000D01*
X177494605Y-99115000D01*
X178467532Y-100087927D01*
X178734387Y-99989264D01*
X178960908Y-99379539D01*
X178936856Y-98729540D01*
X178734387Y-98240736D01*
X178467532Y-98142073D01*
X177494605Y-99115000D01*
X177135395Y-99115000D01*
X176162468Y-98142073D01*
X175895613Y-98240736D01*
X175669092Y-98850461D01*
X172441331Y-98850461D01*
X172436856Y-98729540D01*
X172234387Y-98240736D01*
X171967532Y-98142073D01*
X170994605Y-99115000D01*
X170635395Y-99115000D01*
X169662468Y-98142073D01*
X169395613Y-98240736D01*
X169169092Y-98850461D01*
X96645000Y-98850461D01*
X96645000Y-97962468D01*
X169842073Y-97962468D01*
X170815000Y-98935395D01*
X171787927Y-97962468D01*
X176342073Y-97962468D01*
X177315000Y-98935395D01*
X178287927Y-97962468D01*
X178189264Y-97695613D01*
X177579539Y-97469092D01*
X176929540Y-97493144D01*
X176440736Y-97695613D01*
X176342073Y-97962468D01*
X171787927Y-97962468D01*
X171689264Y-97695613D01*
X171079539Y-97469092D01*
X170429540Y-97493144D01*
X169940736Y-97695613D01*
X169842073Y-97962468D01*
X96645000Y-97962468D01*
X96645000Y-96794285D01*
X98309760Y-96794285D01*
X98520169Y-97303515D01*
X98909436Y-97693461D01*
X99418298Y-97904759D01*
X99969285Y-97905240D01*
X100478515Y-97694831D01*
X100868461Y-97305564D01*
X101079759Y-96796702D01*
X101079761Y-96794285D01*
X103189760Y-96794285D01*
X103400169Y-97303515D01*
X103789436Y-97693461D01*
X104298298Y-97904759D01*
X104849285Y-97905240D01*
X105358515Y-97694831D01*
X105748461Y-97305564D01*
X105959759Y-96796702D01*
X105960240Y-96245715D01*
X105749831Y-95736485D01*
X105360564Y-95346539D01*
X104851702Y-95135241D01*
X104300715Y-95134760D01*
X103791485Y-95345169D01*
X103401539Y-95734436D01*
X103190241Y-96243298D01*
X103189760Y-96794285D01*
X101079761Y-96794285D01*
X101080240Y-96245715D01*
X100869831Y-95736485D01*
X100480564Y-95346539D01*
X99971702Y-95135241D01*
X99420715Y-95134760D01*
X98911485Y-95345169D01*
X98521539Y-95734436D01*
X98310241Y-96243298D01*
X98309760Y-96794285D01*
X96645000Y-96794285D01*
X96645000Y-93272463D01*
X96677192Y-93240327D01*
X96819838Y-92896799D01*
X96820162Y-92524833D01*
X96678117Y-92181057D01*
X96415327Y-91917808D01*
X96293182Y-91867089D01*
X97063791Y-90713791D01*
X98271001Y-89907161D01*
X99764931Y-89610000D01*
X109107188Y-89610000D01*
X109043569Y-89703110D01*
X109043569Y-89703110D01*
G37*
X109043569Y-89703110D02*
X108992560Y-89955000D01*
X108992560Y-91360241D01*
X108929161Y-91372852D01*
X108682599Y-91537599D01*
X108445320Y-91774878D01*
X108399833Y-91774838D01*
X108056057Y-91916883D01*
X107792808Y-92179673D01*
X107650162Y-92523201D01*
X107649838Y-92895167D01*
X107791883Y-93238943D01*
X108054673Y-93502192D01*
X108398201Y-93644838D01*
X108770167Y-93645162D01*
X109113943Y-93503117D01*
X109145112Y-93472002D01*
X109169844Y-93472002D01*
X109048524Y-93701890D01*
X109218355Y-94111924D01*
X109608642Y-94540183D01*
X110133108Y-94786486D01*
X110363000Y-94665819D01*
X110363000Y-93472000D01*
X110343000Y-93472000D01*
X110343000Y-93218000D01*
X110363000Y-93218000D01*
X110363000Y-93198000D01*
X110617000Y-93198000D01*
X110617000Y-93218000D01*
X110637000Y-93218000D01*
X110637000Y-93472000D01*
X110617000Y-93472000D01*
X110617000Y-94665819D01*
X110846892Y-94786486D01*
X111371358Y-94540183D01*
X111761645Y-94111924D01*
X111761655Y-94111899D01*
X111950853Y-94395054D01*
X112432622Y-94716961D01*
X113000907Y-94830000D01*
X113059093Y-94830000D01*
X113627378Y-94716961D01*
X114109147Y-94395054D01*
X114298345Y-94111899D01*
X114298355Y-94111924D01*
X114688642Y-94540183D01*
X115213108Y-94786486D01*
X115443000Y-94665819D01*
X115443000Y-93472000D01*
X115697000Y-93472000D01*
X115697000Y-94665819D01*
X115926892Y-94786486D01*
X116451358Y-94540183D01*
X116841645Y-94111924D01*
X117011476Y-93701890D01*
X116890155Y-93472000D01*
X115697000Y-93472000D01*
X115443000Y-93472000D01*
X115423000Y-93472000D01*
X115423000Y-93218000D01*
X115443000Y-93218000D01*
X115443000Y-93198000D01*
X115697000Y-93198000D01*
X115697000Y-93218000D01*
X116890155Y-93218000D01*
X117011476Y-92988110D01*
X116841645Y-92578076D01*
X116565499Y-92275063D01*
X116655317Y-92258162D01*
X116871441Y-92119090D01*
X117016431Y-91906890D01*
X117067440Y-91655000D01*
X117067440Y-89955000D01*
X117023162Y-89719683D01*
X116952583Y-89610000D01*
X118632188Y-89610000D01*
X118568569Y-89703110D01*
X118517560Y-89955000D01*
X118517560Y-91655000D01*
X118541532Y-91782400D01*
X118216057Y-91916883D01*
X117952808Y-92179673D01*
X117810162Y-92523201D01*
X117809838Y-92895167D01*
X117951883Y-93238943D01*
X118214673Y-93502192D01*
X118478554Y-93611765D01*
X118586883Y-93873943D01*
X118849673Y-94137192D01*
X119193201Y-94279838D01*
X119565167Y-94280162D01*
X119908943Y-94138117D01*
X119942118Y-94105000D01*
X121992537Y-94105000D01*
X122024673Y-94137192D01*
X122368201Y-94279838D01*
X122740167Y-94280162D01*
X123083943Y-94138117D01*
X123347192Y-93875327D01*
X123489838Y-93531799D01*
X123489892Y-93470000D01*
X124159890Y-93470000D01*
X124159838Y-93530167D01*
X124301883Y-93873943D01*
X124564673Y-94137192D01*
X124908201Y-94279838D01*
X124955077Y-94279879D01*
X126064878Y-95389680D01*
X126064838Y-95435167D01*
X126206883Y-95778943D01*
X126469673Y-96042192D01*
X126813201Y-96184838D01*
X127185167Y-96185162D01*
X127528943Y-96043117D01*
X127792192Y-95780327D01*
X127934838Y-95436799D01*
X127935162Y-95064833D01*
X127883085Y-94938795D01*
X169179716Y-94938795D01*
X169428106Y-95539943D01*
X169887637Y-96000278D01*
X170488352Y-96249716D01*
X171138795Y-96250284D01*
X171739943Y-96001894D01*
X172200278Y-95542363D01*
X172449716Y-94941648D01*
X172449718Y-94938795D01*
X175679716Y-94938795D01*
X175928106Y-95539943D01*
X176387637Y-96000278D01*
X176988352Y-96249716D01*
X177638795Y-96250284D01*
X178239943Y-96001894D01*
X178700278Y-95542363D01*
X178949716Y-94941648D01*
X178950284Y-94291205D01*
X178701894Y-93690057D01*
X178242363Y-93229722D01*
X177641648Y-92980284D01*
X176991205Y-92979716D01*
X176390057Y-93228106D01*
X175929722Y-93687637D01*
X175680284Y-94288352D01*
X175679716Y-94938795D01*
X172449718Y-94938795D01*
X172450284Y-94291205D01*
X172201894Y-93690057D01*
X171742363Y-93229722D01*
X171141648Y-92980284D01*
X170491205Y-92979716D01*
X169890057Y-93228106D01*
X169429722Y-93687637D01*
X169180284Y-94288352D01*
X169179716Y-94938795D01*
X127883085Y-94938795D01*
X127793117Y-94721057D01*
X127530327Y-94457808D01*
X127186799Y-94315162D01*
X127139923Y-94315121D01*
X126469894Y-93645092D01*
X126550167Y-93645162D01*
X126893943Y-93503117D01*
X127157192Y-93240327D01*
X127299838Y-92896799D01*
X127300162Y-92524833D01*
X127158117Y-92181057D01*
X126895327Y-91917808D01*
X126551799Y-91775162D01*
X126218070Y-91774871D01*
X126466961Y-91402378D01*
X126580000Y-90834093D01*
X126580000Y-90775907D01*
X126466961Y-90207622D01*
X126145054Y-89725853D01*
X125971667Y-89610000D01*
X189570908Y-89610000D01*
X193600000Y-93639092D01*
X193600000Y-112830918D01*
X193218923Y-112449176D01*
X192691691Y-112230250D01*
X192120813Y-112229752D01*
X191593200Y-112447757D01*
X191189176Y-112851077D01*
X190970250Y-113378309D01*
X190969752Y-113949187D01*
X191187757Y-114476800D01*
X191591077Y-114880824D01*
X192118309Y-115099750D01*
X192689187Y-115100248D01*
X192743149Y-115077951D01*
X192915000Y-115249802D01*
X192915000Y-117323431D01*
X192621777Y-117218035D01*
X192051546Y-117245222D01*
X191650995Y-117411136D01*
X191576861Y-117657255D01*
X192405000Y-118485395D01*
X192419142Y-118471252D01*
X192598748Y-118650858D01*
X192584605Y-118665000D01*
X192598748Y-118679143D01*
X192419142Y-118858748D01*
X192405000Y-118844605D01*
X191576861Y-119672745D01*
X191650995Y-119918864D01*
X192188223Y-120111965D01*
X192758454Y-120084778D01*
X192915000Y-120019934D01*
X192915000Y-144465198D01*
X192725198Y-144655000D01*
X156137463Y-144655000D01*
X156105327Y-144622808D01*
X155841446Y-144513235D01*
X155733117Y-144251057D01*
X155470327Y-143987808D01*
X155126799Y-143845162D01*
X154754833Y-143844838D01*
X154411057Y-143986883D01*
X154147808Y-144249673D01*
X154005162Y-144593201D01*
X154004838Y-144965167D01*
X154146883Y-145308943D01*
X154180000Y-145342118D01*
X154180000Y-146047046D01*
X153889946Y-146240853D01*
X153662298Y-146581553D01*
X153595183Y-146438642D01*
X153166924Y-146048355D01*
X152756890Y-145878524D01*
X152527000Y-145999845D01*
X152527000Y-147193000D01*
X152547000Y-147193000D01*
X152547000Y-147447000D01*
X152527000Y-147447000D01*
X152527000Y-147467000D01*
X152273000Y-147467000D01*
X152273000Y-147447000D01*
X152253000Y-147447000D01*
X152253000Y-147193000D01*
X152273000Y-147193000D01*
X152273000Y-145999845D01*
X152043110Y-145878524D01*
X151633076Y-146048355D01*
X151204817Y-146438642D01*
X151137702Y-146581553D01*
X150910054Y-146240853D01*
X150619322Y-146046593D01*
X150562148Y-145759161D01*
X150397401Y-145512599D01*
X149762401Y-144877599D01*
X149515839Y-144712852D01*
X149225000Y-144655000D01*
X96834802Y-144655000D01*
X96645000Y-144465198D01*
X96645000Y-139250167D01*
X108284838Y-139250167D01*
X108426883Y-139593943D01*
X108689673Y-139857192D01*
X109033201Y-139999838D01*
X109405167Y-140000162D01*
X109748943Y-139858117D01*
X109782118Y-139825000D01*
X111197537Y-139825000D01*
X111229673Y-139857192D01*
X111573201Y-139999838D01*
X111945167Y-140000162D01*
X112288943Y-139858117D01*
X112552192Y-139595327D01*
X112694838Y-139251799D01*
X112695162Y-138879833D01*
X112553117Y-138536057D01*
X112290327Y-138272808D01*
X111946799Y-138130162D01*
X111574833Y-138129838D01*
X111231057Y-138271883D01*
X111197882Y-138305000D01*
X109782463Y-138305000D01*
X109750327Y-138272808D01*
X109406799Y-138130162D01*
X109034833Y-138129838D01*
X108691057Y-138271883D01*
X108427808Y-138534673D01*
X108285162Y-138878201D01*
X108284838Y-139250167D01*
X96645000Y-139250167D01*
X96645000Y-132760735D01*
X96805959Y-132836914D01*
X97028000Y-132715629D01*
X97028000Y-131572000D01*
X97282000Y-131572000D01*
X97282000Y-132715629D01*
X97504041Y-132836914D01*
X98010134Y-132597389D01*
X98386041Y-132182423D01*
X98546904Y-131794039D01*
X98424915Y-131572000D01*
X97282000Y-131572000D01*
X97028000Y-131572000D01*
X97008000Y-131572000D01*
X97008000Y-131318000D01*
X97028000Y-131318000D01*
X97028000Y-131298000D01*
X97282000Y-131298000D01*
X97282000Y-131318000D01*
X98424915Y-131318000D01*
X98546904Y-131095961D01*
X98386041Y-130707577D01*
X98010134Y-130292611D01*
X97793297Y-130189986D01*
X98197811Y-129919698D01*
X98508880Y-129454151D01*
X98618113Y-128905000D01*
X98508880Y-128355849D01*
X98197811Y-127890302D01*
X97815725Y-127635000D01*
X98197811Y-127379698D01*
X98508880Y-126914151D01*
X98618113Y-126365000D01*
X110931887Y-126365000D01*
X111041120Y-126914151D01*
X111352189Y-127379698D01*
X111734275Y-127635000D01*
X111352189Y-127890302D01*
X111041120Y-128355849D01*
X110931887Y-128905000D01*
X111041120Y-129454151D01*
X111352189Y-129919698D01*
X111734275Y-130175000D01*
X111352189Y-130430302D01*
X111041120Y-130895849D01*
X110931887Y-131445000D01*
X111041120Y-131994151D01*
X111352189Y-132459698D01*
X111817736Y-132770767D01*
X112366887Y-132880000D01*
X112423113Y-132880000D01*
X112972264Y-132770767D01*
X113437811Y-132459698D01*
X113748880Y-131994151D01*
X113858113Y-131445000D01*
X113768636Y-130995167D01*
X115904838Y-130995167D01*
X116046883Y-131338943D01*
X116080000Y-131372118D01*
X116080000Y-131517537D01*
X116047808Y-131549673D01*
X115905162Y-131893201D01*
X115904838Y-132265167D01*
X116046883Y-132608943D01*
X116309673Y-132872192D01*
X116653201Y-133014838D01*
X117025167Y-133015162D01*
X117368943Y-132873117D01*
X117632192Y-132610327D01*
X117774838Y-132266799D01*
X117775162Y-131894833D01*
X117733515Y-131794039D01*
X164343096Y-131794039D01*
X164503959Y-132182423D01*
X164879866Y-132597389D01*
X165385959Y-132836914D01*
X165608000Y-132715629D01*
X165608000Y-131572000D01*
X165862000Y-131572000D01*
X165862000Y-132715629D01*
X166084041Y-132836914D01*
X166590134Y-132597389D01*
X166966041Y-132182423D01*
X167126904Y-131794039D01*
X167004915Y-131572000D01*
X165862000Y-131572000D01*
X165608000Y-131572000D01*
X164465085Y-131572000D01*
X164343096Y-131794039D01*
X117733515Y-131794039D01*
X117633117Y-131551057D01*
X117600000Y-131517882D01*
X117600000Y-131372463D01*
X117632192Y-131340327D01*
X117774838Y-130996799D01*
X117775162Y-130624833D01*
X117633117Y-130281057D01*
X117370327Y-130017808D01*
X117026799Y-129875162D01*
X116654833Y-129874838D01*
X116311057Y-130016883D01*
X116047808Y-130279673D01*
X115905162Y-130623201D01*
X115904838Y-130995167D01*
X113768636Y-130995167D01*
X113748880Y-130895849D01*
X113437811Y-130430302D01*
X113055725Y-130175000D01*
X113437811Y-129919698D01*
X113748880Y-129454151D01*
X113788684Y-129254039D01*
X118623096Y-129254039D01*
X118783959Y-129642423D01*
X119159866Y-130057389D01*
X119665959Y-130296914D01*
X119888000Y-130175629D01*
X119888000Y-129032000D01*
X120142000Y-129032000D01*
X120142000Y-130175629D01*
X120364041Y-130296914D01*
X120870134Y-130057389D01*
X121246041Y-129642423D01*
X121406904Y-129254039D01*
X121284915Y-129032000D01*
X120142000Y-129032000D01*
X119888000Y-129032000D01*
X118745085Y-129032000D01*
X118623096Y-129254039D01*
X113788684Y-129254039D01*
X113858113Y-128905000D01*
X113748880Y-128355849D01*
X113437811Y-127890302D01*
X113055725Y-127635000D01*
X113437811Y-127379698D01*
X113748880Y-126914151D01*
X113858113Y-126365000D01*
X113748880Y-125815849D01*
X113437811Y-125350302D01*
X113033297Y-125080014D01*
X113250134Y-124977389D01*
X113626041Y-124562423D01*
X113786904Y-124174039D01*
X113664915Y-123952000D01*
X112522000Y-123952000D01*
X112522000Y-123972000D01*
X112268000Y-123972000D01*
X112268000Y-123952000D01*
X111125085Y-123952000D01*
X111003096Y-124174039D01*
X111163959Y-124562423D01*
X111539866Y-124977389D01*
X111756703Y-125080014D01*
X111352189Y-125350302D01*
X111041120Y-125815849D01*
X110931887Y-126365000D01*
X98618113Y-126365000D01*
X98508880Y-125815849D01*
X98197811Y-125350302D01*
X97815725Y-125095000D01*
X98197811Y-124839698D01*
X98508880Y-124374151D01*
X98618113Y-123825000D01*
X98508880Y-123275849D01*
X98197811Y-122810302D01*
X97815725Y-122555000D01*
X98197811Y-122299698D01*
X98508880Y-121834151D01*
X98618113Y-121285000D01*
X98508880Y-120735849D01*
X98197811Y-120270302D01*
X97815725Y-120015000D01*
X98197811Y-119759698D01*
X98508880Y-119294151D01*
X98618113Y-118745000D01*
X98508880Y-118195849D01*
X98197811Y-117730302D01*
X97815725Y-117475000D01*
X98197811Y-117219698D01*
X98508880Y-116754151D01*
X98618113Y-116205000D01*
X98508880Y-115655849D01*
X98197811Y-115190302D01*
X97815725Y-114935000D01*
X98197811Y-114679698D01*
X98508880Y-114214151D01*
X98618113Y-113665000D01*
X98508880Y-113115849D01*
X98197811Y-112650302D01*
X97815725Y-112395000D01*
X98197811Y-112139698D01*
X98508880Y-111674151D01*
X98618113Y-111125000D01*
X98508880Y-110575849D01*
X98197811Y-110110302D01*
X97815725Y-109855000D01*
X98197811Y-109599698D01*
X98508880Y-109134151D01*
X98618113Y-108585000D01*
X98508880Y-108035849D01*
X98197811Y-107570302D01*
X97815725Y-107315000D01*
X98197811Y-107059698D01*
X98508880Y-106594151D01*
X98618113Y-106045000D01*
X98508880Y-105495849D01*
X98197811Y-105030302D01*
X98062665Y-104940000D01*
X98081309Y-104940000D01*
X98314698Y-104843327D01*
X98493327Y-104664699D01*
X98590000Y-104431310D01*
X98590000Y-103790750D01*
X98431250Y-103632000D01*
X97282000Y-103632000D01*
X97282000Y-103652000D01*
X97028000Y-103652000D01*
X97028000Y-103632000D01*
X97008000Y-103632000D01*
X97008000Y-103378000D01*
X97028000Y-103378000D01*
X97028000Y-102228750D01*
X97282000Y-102228750D01*
X97282000Y-103378000D01*
X98431250Y-103378000D01*
X98590000Y-103219250D01*
X98590000Y-102578690D01*
X98524338Y-102420167D01*
X108919838Y-102420167D01*
X109061883Y-102763943D01*
X109095000Y-102797118D01*
X109095000Y-105482537D01*
X109062808Y-105514673D01*
X108920162Y-105858201D01*
X108919838Y-106230167D01*
X109061883Y-106573943D01*
X109324673Y-106837192D01*
X109668201Y-106979838D01*
X110040167Y-106980162D01*
X110365000Y-106845944D01*
X110365000Y-113030000D01*
X110422852Y-113320839D01*
X110587599Y-113567401D01*
X110993141Y-113972943D01*
X111041120Y-114214151D01*
X111352189Y-114679698D01*
X111734275Y-114935000D01*
X111352189Y-115190302D01*
X111041120Y-115655849D01*
X110931887Y-116205000D01*
X111041120Y-116754151D01*
X111352189Y-117219698D01*
X111734275Y-117475000D01*
X111352189Y-117730302D01*
X111041120Y-118195849D01*
X110931887Y-118745000D01*
X111041120Y-119294151D01*
X111352189Y-119759698D01*
X111734275Y-120015000D01*
X111352189Y-120270302D01*
X111041120Y-120735849D01*
X110931887Y-121285000D01*
X111041120Y-121834151D01*
X111352189Y-122299698D01*
X111756703Y-122569986D01*
X111539866Y-122672611D01*
X111163959Y-123087577D01*
X111003096Y-123475961D01*
X111125085Y-123698000D01*
X112268000Y-123698000D01*
X112268000Y-123678000D01*
X112522000Y-123678000D01*
X112522000Y-123698000D01*
X113664915Y-123698000D01*
X113786904Y-123475961D01*
X113626041Y-123087577D01*
X113311332Y-122740167D01*
X115904838Y-122740167D01*
X116046883Y-123083943D01*
X116309673Y-123347192D01*
X116653201Y-123489838D01*
X117025167Y-123490162D01*
X117368943Y-123348117D01*
X117632192Y-123085327D01*
X117774838Y-122741799D01*
X117775162Y-122369833D01*
X117684467Y-122150335D01*
X118012401Y-121822401D01*
X118170991Y-121585054D01*
X118295167Y-121585162D01*
X118587561Y-121464347D01*
X118661120Y-121834151D01*
X118972189Y-122299698D01*
X119354275Y-122555000D01*
X118972189Y-122810302D01*
X118661120Y-123275849D01*
X118551887Y-123825000D01*
X118661120Y-124374151D01*
X118972189Y-124839698D01*
X119354275Y-125095000D01*
X118972189Y-125350302D01*
X118661120Y-125815849D01*
X118551887Y-126365000D01*
X118661120Y-126914151D01*
X118972189Y-127379698D01*
X119376703Y-127649986D01*
X119159866Y-127752611D01*
X118783959Y-128167577D01*
X118623096Y-128555961D01*
X118745085Y-128778000D01*
X119888000Y-128778000D01*
X119888000Y-128758000D01*
X120142000Y-128758000D01*
X120142000Y-128778000D01*
X121284915Y-128778000D01*
X121406904Y-128555961D01*
X121246041Y-128167577D01*
X120870134Y-127752611D01*
X120653297Y-127649986D01*
X121057811Y-127379698D01*
X121368880Y-126914151D01*
X121478113Y-126365000D01*
X121368880Y-125815849D01*
X121057811Y-125350302D01*
X120675725Y-125095000D01*
X121057811Y-124839698D01*
X121368880Y-124374151D01*
X121478113Y-123825000D01*
X121368880Y-123275849D01*
X121057811Y-122810302D01*
X120675725Y-122555000D01*
X121057811Y-122299698D01*
X121368880Y-121834151D01*
X121478113Y-121285000D01*
X121368880Y-120735849D01*
X121057811Y-120270302D01*
X120675725Y-120015000D01*
X121057811Y-119759698D01*
X121368880Y-119294151D01*
X121478113Y-118745000D01*
X121368880Y-118195849D01*
X121057811Y-117730302D01*
X120775000Y-117541333D01*
X120775000Y-117408667D01*
X121057811Y-117219698D01*
X121368880Y-116754151D01*
X121478113Y-116205000D01*
X121368880Y-115655849D01*
X121057811Y-115190302D01*
X120913535Y-115093899D01*
X121050317Y-115068162D01*
X121266441Y-114929090D01*
X121411431Y-114716890D01*
X121462440Y-114465000D01*
X121462440Y-113665000D01*
X126171887Y-113665000D01*
X126281120Y-114214151D01*
X126592189Y-114679698D01*
X126974275Y-114935000D01*
X126592189Y-115190302D01*
X126281120Y-115655849D01*
X126171887Y-116205000D01*
X126281120Y-116754151D01*
X126592189Y-117219698D01*
X126974275Y-117475000D01*
X126592189Y-117730302D01*
X126281120Y-118195849D01*
X126171887Y-118745000D01*
X126281120Y-119294151D01*
X126592189Y-119759698D01*
X126974275Y-120015000D01*
X126592189Y-120270302D01*
X126281120Y-120735849D01*
X126171887Y-121285000D01*
X126281120Y-121834151D01*
X126592189Y-122299698D01*
X126974275Y-122555000D01*
X126592189Y-122810302D01*
X126281120Y-123275849D01*
X126171887Y-123825000D01*
X126281120Y-124374151D01*
X126592189Y-124839698D01*
X126974275Y-125095000D01*
X126592189Y-125350302D01*
X126281120Y-125815849D01*
X126171887Y-126365000D01*
X126281120Y-126914151D01*
X126592189Y-127379698D01*
X126974275Y-127635000D01*
X126592189Y-127890302D01*
X126281120Y-128355849D01*
X126171887Y-128905000D01*
X126281120Y-129454151D01*
X126592189Y-129919698D01*
X127057736Y-130230767D01*
X127606887Y-130340000D01*
X127663113Y-130340000D01*
X128212264Y-130230767D01*
X128677811Y-129919698D01*
X128988880Y-129454151D01*
X129028684Y-129254039D01*
X133863096Y-129254039D01*
X134023959Y-129642423D01*
X134399866Y-130057389D01*
X134905959Y-130296914D01*
X135128000Y-130175629D01*
X135128000Y-129032000D01*
X133985085Y-129032000D01*
X133863096Y-129254039D01*
X129028684Y-129254039D01*
X129098113Y-128905000D01*
X128988880Y-128355849D01*
X128677811Y-127890302D01*
X128295725Y-127635000D01*
X128677811Y-127379698D01*
X128988880Y-126914151D01*
X129098113Y-126365000D01*
X128988880Y-125815849D01*
X128677811Y-125350302D01*
X128295725Y-125095000D01*
X128677811Y-124839698D01*
X128988880Y-124374151D01*
X129098113Y-123825000D01*
X128988880Y-123275849D01*
X128677811Y-122810302D01*
X128295725Y-122555000D01*
X128677811Y-122299698D01*
X128988880Y-121834151D01*
X129036859Y-121592943D01*
X129442401Y-121187401D01*
X129607148Y-120940839D01*
X129665000Y-120650000D01*
X129665000Y-119672745D01*
X130616861Y-119672745D01*
X130690995Y-119918864D01*
X131228223Y-120111965D01*
X131798454Y-120084778D01*
X132199005Y-119918864D01*
X132273139Y-119672745D01*
X131445000Y-118844605D01*
X130616861Y-119672745D01*
X129665000Y-119672745D01*
X129665000Y-118448223D01*
X129998035Y-118448223D01*
X130025222Y-119018454D01*
X130191136Y-119419005D01*
X130437255Y-119493139D01*
X131265395Y-118665000D01*
X131624605Y-118665000D01*
X132452745Y-119493139D01*
X132698864Y-119419005D01*
X132891965Y-118881777D01*
X132864778Y-118311546D01*
X132698864Y-117910995D01*
X132452745Y-117836861D01*
X131624605Y-118665000D01*
X131265395Y-118665000D01*
X130437255Y-117836861D01*
X130191136Y-117910995D01*
X129998035Y-118448223D01*
X129665000Y-118448223D01*
X129665000Y-117657255D01*
X130616861Y-117657255D01*
X131445000Y-118485395D01*
X132273139Y-117657255D01*
X132199005Y-117411136D01*
X131661777Y-117218035D01*
X131091546Y-117245222D01*
X130690995Y-117411136D01*
X130616861Y-117657255D01*
X129665000Y-117657255D01*
X129665000Y-116840000D01*
X129607148Y-116549161D01*
X129442401Y-116302599D01*
X129344802Y-116205000D01*
X133791887Y-116205000D01*
X133901120Y-116754151D01*
X134212189Y-117219698D01*
X134616703Y-117489986D01*
X134399866Y-117592611D01*
X134023959Y-118007577D01*
X133863096Y-118395961D01*
X133985085Y-118618000D01*
X135128000Y-118618000D01*
X135128000Y-118598000D01*
X135382000Y-118598000D01*
X135382000Y-118618000D01*
X135402000Y-118618000D01*
X135402000Y-118872000D01*
X135382000Y-118872000D01*
X135382000Y-118892000D01*
X135128000Y-118892000D01*
X135128000Y-118872000D01*
X133985085Y-118872000D01*
X133863096Y-119094039D01*
X134023959Y-119482423D01*
X134399866Y-119897389D01*
X134616703Y-120000014D01*
X134212189Y-120270302D01*
X133901120Y-120735849D01*
X133791887Y-121285000D01*
X133901120Y-121834151D01*
X134212189Y-122299698D01*
X134616703Y-122569986D01*
X134399866Y-122672611D01*
X134023959Y-123087577D01*
X133863096Y-123475961D01*
X133985085Y-123698000D01*
X135128000Y-123698000D01*
X135128000Y-123678000D01*
X135382000Y-123678000D01*
X135382000Y-123698000D01*
X135402000Y-123698000D01*
X135402000Y-123952000D01*
X135382000Y-123952000D01*
X135382000Y-123972000D01*
X135128000Y-123972000D01*
X135128000Y-123952000D01*
X133985085Y-123952000D01*
X133863096Y-124174039D01*
X134023959Y-124562423D01*
X134399866Y-124977389D01*
X134616703Y-125080014D01*
X134212189Y-125350302D01*
X133901120Y-125815849D01*
X133791887Y-126365000D01*
X133901120Y-126914151D01*
X134212189Y-127379698D01*
X134616703Y-127649986D01*
X134399866Y-127752611D01*
X134023959Y-128167577D01*
X133863096Y-128555961D01*
X133985085Y-128778000D01*
X135128000Y-128778000D01*
X135128000Y-128758000D01*
X135382000Y-128758000D01*
X135382000Y-128778000D01*
X135402000Y-128778000D01*
X135402000Y-129032000D01*
X135382000Y-129032000D01*
X135382000Y-130175629D01*
X135589900Y-130289190D01*
X135589838Y-130360167D01*
X135731883Y-130703943D01*
X135994673Y-130967192D01*
X136338201Y-131109838D01*
X136710167Y-131110162D01*
X137053943Y-130968117D01*
X137317192Y-130705327D01*
X137459838Y-130361799D01*
X137460162Y-129989833D01*
X137318117Y-129646057D01*
X137285000Y-129612882D01*
X137285000Y-118037463D01*
X137317192Y-118005327D01*
X137459838Y-117661799D01*
X137460162Y-117289833D01*
X137318117Y-116946057D01*
X137055327Y-116682808D01*
X136711799Y-116540162D01*
X136651456Y-116540109D01*
X136718113Y-116205000D01*
X136608880Y-115655849D01*
X136297811Y-115190302D01*
X136162665Y-115100000D01*
X136181309Y-115100000D01*
X136414698Y-115003327D01*
X136593327Y-114824699D01*
X136690000Y-114591310D01*
X136690000Y-113950750D01*
X136531250Y-113792000D01*
X135382000Y-113792000D01*
X135382000Y-113812000D01*
X135128000Y-113812000D01*
X135128000Y-113792000D01*
X133978750Y-113792000D01*
X133820000Y-113950750D01*
X133820000Y-114591310D01*
X133916673Y-114824699D01*
X134095302Y-115003327D01*
X134328691Y-115100000D01*
X134347335Y-115100000D01*
X134212189Y-115190302D01*
X133901120Y-115655849D01*
X133791887Y-116205000D01*
X129344802Y-116205000D01*
X129036859Y-115897057D01*
X128988880Y-115655849D01*
X128677811Y-115190302D01*
X128295725Y-114935000D01*
X128677811Y-114679698D01*
X128988880Y-114214151D01*
X129041584Y-113949187D01*
X130009752Y-113949187D01*
X130227757Y-114476800D01*
X130631077Y-114880824D01*
X131158309Y-115099750D01*
X131729187Y-115100248D01*
X132256800Y-114882243D01*
X132660824Y-114478923D01*
X132879750Y-113951691D01*
X132880000Y-113665000D01*
X141411887Y-113665000D01*
X141521120Y-114214151D01*
X141832189Y-114679698D01*
X142214275Y-114935000D01*
X141832189Y-115190302D01*
X141521120Y-115655849D01*
X141411887Y-116205000D01*
X141521120Y-116754151D01*
X141832189Y-117219698D01*
X142214275Y-117475000D01*
X141832189Y-117730302D01*
X141521120Y-118195849D01*
X141411887Y-118745000D01*
X141521120Y-119294151D01*
X141832189Y-119759698D01*
X142214275Y-120015000D01*
X141832189Y-120270302D01*
X141521120Y-120735849D01*
X141411887Y-121285000D01*
X141521120Y-121834151D01*
X141832189Y-122299698D01*
X142214275Y-122555000D01*
X141832189Y-122810302D01*
X141521120Y-123275849D01*
X141411887Y-123825000D01*
X141521120Y-124374151D01*
X141832189Y-124839698D01*
X142214275Y-125095000D01*
X141832189Y-125350302D01*
X141521120Y-125815849D01*
X141411887Y-126365000D01*
X141521120Y-126914151D01*
X141832189Y-127379698D01*
X142214275Y-127635000D01*
X141832189Y-127890302D01*
X141521120Y-128355849D01*
X141411887Y-128905000D01*
X141521120Y-129454151D01*
X141832189Y-129919698D01*
X142297736Y-130230767D01*
X142846887Y-130340000D01*
X142903113Y-130340000D01*
X143209909Y-130278974D01*
X143209838Y-130360167D01*
X143351883Y-130703943D01*
X143614673Y-130967192D01*
X143958201Y-131109838D01*
X144330167Y-131110162D01*
X144673943Y-130968117D01*
X144937192Y-130705327D01*
X145079838Y-130361799D01*
X145080162Y-129989833D01*
X144938117Y-129646057D01*
X144905000Y-129612882D01*
X144905000Y-129254039D01*
X149103096Y-129254039D01*
X149263959Y-129642423D01*
X149639866Y-130057389D01*
X150145959Y-130296914D01*
X150368000Y-130175629D01*
X150368000Y-129032000D01*
X150622000Y-129032000D01*
X150622000Y-130175629D01*
X150844041Y-130296914D01*
X151350134Y-130057389D01*
X151726041Y-129642423D01*
X151886904Y-129254039D01*
X151764915Y-129032000D01*
X150622000Y-129032000D01*
X150368000Y-129032000D01*
X149225085Y-129032000D01*
X149103096Y-129254039D01*
X144905000Y-129254039D01*
X144905000Y-128905000D01*
X156651887Y-128905000D01*
X156761120Y-129454151D01*
X157072189Y-129919698D01*
X157537736Y-130230767D01*
X158086887Y-130340000D01*
X158143113Y-130340000D01*
X158692264Y-130230767D01*
X159157811Y-129919698D01*
X159468880Y-129454151D01*
X159578113Y-128905000D01*
X159468880Y-128355849D01*
X159157811Y-127890302D01*
X158753297Y-127620014D01*
X158970134Y-127517389D01*
X159346041Y-127102423D01*
X159506904Y-126714039D01*
X159384915Y-126492000D01*
X158242000Y-126492000D01*
X158242000Y-126512000D01*
X157988000Y-126512000D01*
X157988000Y-126492000D01*
X156845085Y-126492000D01*
X156723096Y-126714039D01*
X156883959Y-127102423D01*
X157259866Y-127517389D01*
X157476703Y-127620014D01*
X157072189Y-127890302D01*
X156761120Y-128355849D01*
X156651887Y-128905000D01*
X144905000Y-128905000D01*
X144905000Y-128570110D01*
X144965167Y-128570162D01*
X145308943Y-128428117D01*
X145572192Y-128165327D01*
X145714838Y-127821799D01*
X145715162Y-127449833D01*
X145573117Y-127106057D01*
X145540000Y-127072882D01*
X145540000Y-126365000D01*
X149031887Y-126365000D01*
X149141120Y-126914151D01*
X149452189Y-127379698D01*
X149856703Y-127649986D01*
X149639866Y-127752611D01*
X149263959Y-128167577D01*
X149103096Y-128555961D01*
X149225085Y-128778000D01*
X150368000Y-128778000D01*
X150368000Y-128758000D01*
X150622000Y-128758000D01*
X150622000Y-128778000D01*
X151764915Y-128778000D01*
X151886904Y-128555961D01*
X151726041Y-128167577D01*
X151350134Y-127752611D01*
X151133297Y-127649986D01*
X151537811Y-127379698D01*
X151848880Y-126914151D01*
X151958113Y-126365000D01*
X151848880Y-125815849D01*
X151537811Y-125350302D01*
X151133297Y-125080014D01*
X151350134Y-124977389D01*
X151726041Y-124562423D01*
X151886904Y-124174039D01*
X151764915Y-123952000D01*
X150622000Y-123952000D01*
X150622000Y-123972000D01*
X150368000Y-123972000D01*
X150368000Y-123952000D01*
X149225085Y-123952000D01*
X149103096Y-124174039D01*
X149263959Y-124562423D01*
X149639866Y-124977389D01*
X149856703Y-125080014D01*
X149452189Y-125350302D01*
X149141120Y-125815849D01*
X149031887Y-126365000D01*
X145540000Y-126365000D01*
X145540000Y-123825000D01*
X156651887Y-123825000D01*
X156761120Y-124374151D01*
X157072189Y-124839698D01*
X157476703Y-125109986D01*
X157259866Y-125212611D01*
X156883959Y-125627577D01*
X156723096Y-126015961D01*
X156845085Y-126238000D01*
X157988000Y-126238000D01*
X157988000Y-126218000D01*
X158242000Y-126218000D01*
X158242000Y-126238000D01*
X159384915Y-126238000D01*
X159506904Y-126015961D01*
X159346041Y-125627577D01*
X158970134Y-125212611D01*
X158753297Y-125109986D01*
X159157811Y-124839698D01*
X159468880Y-124374151D01*
X159578113Y-123825000D01*
X159468880Y-123275849D01*
X159157811Y-122810302D01*
X158753297Y-122540014D01*
X158970134Y-122437389D01*
X159346041Y-122022423D01*
X159506904Y-121634039D01*
X159384915Y-121412000D01*
X158242000Y-121412000D01*
X158242000Y-121432000D01*
X157988000Y-121432000D01*
X157988000Y-121412000D01*
X156845085Y-121412000D01*
X156723096Y-121634039D01*
X156883959Y-122022423D01*
X157259866Y-122437389D01*
X157476703Y-122540014D01*
X157072189Y-122810302D01*
X156761120Y-123275849D01*
X156651887Y-123825000D01*
X145540000Y-123825000D01*
X145540000Y-123752463D01*
X145572192Y-123720327D01*
X145714838Y-123376799D01*
X145715162Y-123004833D01*
X145573117Y-122661057D01*
X145540000Y-122627882D01*
X145540000Y-121920000D01*
X145482148Y-121629161D01*
X145317401Y-121382599D01*
X145219802Y-121285000D01*
X149031887Y-121285000D01*
X149141120Y-121834151D01*
X149452189Y-122299698D01*
X149856703Y-122569986D01*
X149639866Y-122672611D01*
X149263959Y-123087577D01*
X149103096Y-123475961D01*
X149225085Y-123698000D01*
X150368000Y-123698000D01*
X150368000Y-123678000D01*
X150622000Y-123678000D01*
X150622000Y-123698000D01*
X151764915Y-123698000D01*
X151886904Y-123475961D01*
X151726041Y-123087577D01*
X151350134Y-122672611D01*
X151133297Y-122569986D01*
X151537811Y-122299698D01*
X151848880Y-121834151D01*
X151958113Y-121285000D01*
X151848880Y-120735849D01*
X151537811Y-120270302D01*
X151133297Y-120000014D01*
X151350134Y-119897389D01*
X151726041Y-119482423D01*
X151886904Y-119094039D01*
X151764915Y-118872000D01*
X150622000Y-118872000D01*
X150622000Y-118892000D01*
X150368000Y-118892000D01*
X150368000Y-118872000D01*
X149225085Y-118872000D01*
X149103096Y-119094039D01*
X149263959Y-119482423D01*
X149639866Y-119897389D01*
X149856703Y-120000014D01*
X149452189Y-120270302D01*
X149141120Y-120735849D01*
X149031887Y-121285000D01*
X145219802Y-121285000D01*
X144682401Y-120747599D01*
X144435839Y-120582852D01*
X144145000Y-120525000D01*
X144087995Y-120525000D01*
X143917811Y-120270302D01*
X143535725Y-120015000D01*
X143917811Y-119759698D01*
X143975911Y-119672745D01*
X145856861Y-119672745D01*
X145930995Y-119918864D01*
X146468223Y-120111965D01*
X147038454Y-120084778D01*
X147439005Y-119918864D01*
X147513139Y-119672745D01*
X146685000Y-118844605D01*
X145856861Y-119672745D01*
X143975911Y-119672745D01*
X144228880Y-119294151D01*
X144338113Y-118745000D01*
X144279081Y-118448223D01*
X145238035Y-118448223D01*
X145265222Y-119018454D01*
X145431136Y-119419005D01*
X145677255Y-119493139D01*
X146505395Y-118665000D01*
X146864605Y-118665000D01*
X147692745Y-119493139D01*
X147938864Y-119419005D01*
X148131965Y-118881777D01*
X148104778Y-118311546D01*
X147938864Y-117910995D01*
X147692745Y-117836861D01*
X146864605Y-118665000D01*
X146505395Y-118665000D01*
X145677255Y-117836861D01*
X145431136Y-117910995D01*
X145238035Y-118448223D01*
X144279081Y-118448223D01*
X144228880Y-118195849D01*
X143917811Y-117730302D01*
X143808489Y-117657255D01*
X145856861Y-117657255D01*
X146685000Y-118485395D01*
X147513139Y-117657255D01*
X147439005Y-117411136D01*
X146901777Y-117218035D01*
X146331546Y-117245222D01*
X145930995Y-117411136D01*
X145856861Y-117657255D01*
X143808489Y-117657255D01*
X143535725Y-117475000D01*
X143917811Y-117219698D01*
X144228880Y-116754151D01*
X144338113Y-116205000D01*
X149031887Y-116205000D01*
X149141120Y-116754151D01*
X149452189Y-117219698D01*
X149856703Y-117489986D01*
X149639866Y-117592611D01*
X149263959Y-118007577D01*
X149103096Y-118395961D01*
X149225085Y-118618000D01*
X150368000Y-118618000D01*
X150368000Y-118598000D01*
X150622000Y-118598000D01*
X150622000Y-118618000D01*
X151764915Y-118618000D01*
X151886904Y-118395961D01*
X151726041Y-118007577D01*
X151350134Y-117592611D01*
X151133297Y-117489986D01*
X151537811Y-117219698D01*
X151848880Y-116754151D01*
X151958113Y-116205000D01*
X151848880Y-115655849D01*
X151537811Y-115190302D01*
X151402665Y-115100000D01*
X151421309Y-115100000D01*
X151654698Y-115003327D01*
X151833327Y-114824699D01*
X151930000Y-114591310D01*
X151930000Y-113950750D01*
X151771250Y-113792000D01*
X150622000Y-113792000D01*
X150622000Y-113812000D01*
X150368000Y-113812000D01*
X150368000Y-113792000D01*
X149218750Y-113792000D01*
X149060000Y-113950750D01*
X149060000Y-114591310D01*
X149156673Y-114824699D01*
X149335302Y-115003327D01*
X149568691Y-115100000D01*
X149587335Y-115100000D01*
X149452189Y-115190302D01*
X149141120Y-115655849D01*
X149031887Y-116205000D01*
X144338113Y-116205000D01*
X144228880Y-115655849D01*
X143917811Y-115190302D01*
X143535725Y-114935000D01*
X143917811Y-114679698D01*
X144228880Y-114214151D01*
X144338113Y-113665000D01*
X144228880Y-113115849D01*
X143917811Y-112650302D01*
X143452264Y-112339233D01*
X142903113Y-112230000D01*
X142846887Y-112230000D01*
X142297736Y-112339233D01*
X141832189Y-112650302D01*
X141521120Y-113115849D01*
X141411887Y-113665000D01*
X132880000Y-113665000D01*
X132880248Y-113380813D01*
X132662243Y-112853200D01*
X132547933Y-112738690D01*
X133820000Y-112738690D01*
X133820000Y-113379250D01*
X133978750Y-113538000D01*
X135128000Y-113538000D01*
X135128000Y-112388750D01*
X135382000Y-112388750D01*
X135382000Y-113538000D01*
X136531250Y-113538000D01*
X136690000Y-113379250D01*
X136690000Y-112738690D01*
X136593327Y-112505301D01*
X136414698Y-112326673D01*
X136181309Y-112230000D01*
X135540750Y-112230000D01*
X135382000Y-112388750D01*
X135128000Y-112388750D01*
X134969250Y-112230000D01*
X134328691Y-112230000D01*
X134095302Y-112326673D01*
X133916673Y-112505301D01*
X133820000Y-112738690D01*
X132547933Y-112738690D01*
X132258923Y-112449176D01*
X131731691Y-112230250D01*
X131160813Y-112229752D01*
X130633200Y-112447757D01*
X130229176Y-112851077D01*
X130010250Y-113378309D01*
X130009752Y-113949187D01*
X129041584Y-113949187D01*
X129098113Y-113665000D01*
X128988880Y-113115849D01*
X128677811Y-112650302D01*
X128212264Y-112339233D01*
X127663113Y-112230000D01*
X127606887Y-112230000D01*
X127057736Y-112339233D01*
X126592189Y-112650302D01*
X126281120Y-113115849D01*
X126171887Y-113665000D01*
X121462440Y-113665000D01*
X121462440Y-112865000D01*
X121418162Y-112629683D01*
X121279090Y-112413559D01*
X121066890Y-112268569D01*
X120815000Y-112217560D01*
X119215000Y-112217560D01*
X118979683Y-112261838D01*
X118763559Y-112400910D01*
X118618569Y-112613110D01*
X118567560Y-112865000D01*
X118567560Y-112940295D01*
X118454161Y-112962852D01*
X118207599Y-113127599D01*
X117572599Y-113762599D01*
X117407852Y-114009161D01*
X117350000Y-114300000D01*
X117350000Y-115904890D01*
X117289833Y-115904838D01*
X116946057Y-116046883D01*
X116682808Y-116309673D01*
X116540162Y-116653201D01*
X116539838Y-117025167D01*
X116681883Y-117368943D01*
X116715000Y-117402118D01*
X116715000Y-120970198D01*
X116302599Y-121382599D01*
X116137852Y-121629161D01*
X116080000Y-121920000D01*
X116080000Y-121992537D01*
X116047808Y-122024673D01*
X115905162Y-122368201D01*
X115904838Y-122740167D01*
X113311332Y-122740167D01*
X113250134Y-122672611D01*
X113033297Y-122569986D01*
X113437811Y-122299698D01*
X113748880Y-121834151D01*
X113858113Y-121285000D01*
X113748880Y-120735849D01*
X113437811Y-120270302D01*
X113055725Y-120015000D01*
X113437811Y-119759698D01*
X113748880Y-119294151D01*
X113796859Y-119052943D01*
X114202401Y-118647401D01*
X114367148Y-118400839D01*
X114425000Y-118110000D01*
X114425000Y-115497463D01*
X114457192Y-115465327D01*
X114599838Y-115121799D01*
X114600162Y-114749833D01*
X114458117Y-114406057D01*
X114195327Y-114142808D01*
X113851799Y-114000162D01*
X113791456Y-114000109D01*
X113858113Y-113665000D01*
X113748880Y-113115849D01*
X113437811Y-112650302D01*
X113055725Y-112395000D01*
X113437811Y-112139698D01*
X113748880Y-111674151D01*
X113858113Y-111125000D01*
X113748880Y-110575849D01*
X113437811Y-110110302D01*
X113055725Y-109855000D01*
X113437811Y-109599698D01*
X113495911Y-109512745D01*
X115376861Y-109512745D01*
X115450995Y-109758864D01*
X115988223Y-109951965D01*
X116558454Y-109924778D01*
X116959005Y-109758864D01*
X117033139Y-109512745D01*
X116205000Y-108684605D01*
X115376861Y-109512745D01*
X113495911Y-109512745D01*
X113748880Y-109134151D01*
X113858113Y-108585000D01*
X113799081Y-108288223D01*
X114758035Y-108288223D01*
X114785222Y-108858454D01*
X114951136Y-109259005D01*
X115197255Y-109333139D01*
X116025395Y-108505000D01*
X115197255Y-107676861D01*
X114951136Y-107750995D01*
X114758035Y-108288223D01*
X113799081Y-108288223D01*
X113748880Y-108035849D01*
X113437811Y-107570302D01*
X113328489Y-107497255D01*
X115376861Y-107497255D01*
X116205000Y-108325395D01*
X117033139Y-107497255D01*
X116959005Y-107251136D01*
X116421777Y-107058035D01*
X115851546Y-107085222D01*
X115450995Y-107251136D01*
X115376861Y-107497255D01*
X113328489Y-107497255D01*
X113055725Y-107315000D01*
X113437811Y-107059698D01*
X113748880Y-106594151D01*
X113858113Y-106045000D01*
X113748880Y-105495849D01*
X113437811Y-105030302D01*
X113055725Y-104775000D01*
X113437811Y-104519698D01*
X113607995Y-104265000D01*
X114966354Y-104265000D01*
X114987757Y-104316800D01*
X115391077Y-104720824D01*
X115918309Y-104939750D01*
X116489187Y-104940248D01*
X117016800Y-104722243D01*
X117317382Y-104422184D01*
X117350000Y-104454802D01*
X117350000Y-107718204D01*
X117212745Y-107676861D01*
X116384605Y-108505000D01*
X117212745Y-109333139D01*
X117350000Y-109291796D01*
X117350000Y-109855000D01*
X117407852Y-110145839D01*
X117572599Y-110392401D01*
X117809878Y-110629680D01*
X117809838Y-110675167D01*
X117951883Y-111018943D01*
X118214673Y-111282192D01*
X118558201Y-111424838D01*
X118930167Y-111425162D01*
X119273943Y-111283117D01*
X119537192Y-111020327D01*
X119679838Y-110676799D01*
X119680162Y-110304833D01*
X119538117Y-109961057D01*
X119275327Y-109697808D01*
X118931799Y-109555162D01*
X118884923Y-109555121D01*
X118870000Y-109540198D01*
X118870000Y-107785000D01*
X126187560Y-107785000D01*
X126187560Y-109385000D01*
X126231838Y-109620317D01*
X126370910Y-109836441D01*
X126583110Y-109981431D01*
X126835000Y-110032440D01*
X128435000Y-110032440D01*
X128670317Y-109988162D01*
X128886441Y-109849090D01*
X129031431Y-109636890D01*
X129082440Y-109385000D01*
X129082440Y-108585000D01*
X133791887Y-108585000D01*
X133901120Y-109134151D01*
X134212189Y-109599698D01*
X134495000Y-109788667D01*
X134495000Y-110490000D01*
X134552852Y-110780839D01*
X134717599Y-111027401D01*
X134954878Y-111264680D01*
X134954838Y-111310167D01*
X135096883Y-111653943D01*
X135359673Y-111917192D01*
X135703201Y-112059838D01*
X136075167Y-112060162D01*
X136418943Y-111918117D01*
X136682192Y-111655327D01*
X136824838Y-111311799D01*
X136825162Y-110939833D01*
X136683117Y-110596057D01*
X136420327Y-110332808D01*
X136076799Y-110190162D01*
X136029923Y-110190121D01*
X136015000Y-110175198D01*
X136015000Y-109788667D01*
X136297811Y-109599698D01*
X136302456Y-109592745D01*
X137046861Y-109592745D01*
X137120995Y-109838864D01*
X137658223Y-110031965D01*
X138228454Y-110004778D01*
X138629005Y-109838864D01*
X138703139Y-109592745D01*
X137875000Y-108764605D01*
X137046861Y-109592745D01*
X136302456Y-109592745D01*
X136564064Y-109201222D01*
X136621136Y-109339005D01*
X136867255Y-109413139D01*
X137695395Y-108585000D01*
X138054605Y-108585000D01*
X138882745Y-109413139D01*
X139128864Y-109339005D01*
X139297735Y-108869187D01*
X141439752Y-108869187D01*
X141657757Y-109396800D01*
X142061077Y-109800824D01*
X142588309Y-110019750D01*
X143159187Y-110020248D01*
X143686800Y-109802243D01*
X144090824Y-109398923D01*
X144309750Y-108871691D01*
X144310000Y-108585000D01*
X144586887Y-108585000D01*
X144696120Y-109134151D01*
X145007189Y-109599698D01*
X145472736Y-109910767D01*
X146021887Y-110020000D01*
X146078113Y-110020000D01*
X146564242Y-109923303D01*
X146527808Y-109959673D01*
X146385162Y-110303201D01*
X146385121Y-110350077D01*
X146147599Y-110587599D01*
X145982852Y-110834161D01*
X145925000Y-111125000D01*
X145925000Y-112426354D01*
X145873200Y-112447757D01*
X145469176Y-112851077D01*
X145250250Y-113378309D01*
X145249752Y-113949187D01*
X145467757Y-114476800D01*
X145871077Y-114880824D01*
X146398309Y-115099750D01*
X146969187Y-115100248D01*
X147496800Y-114882243D01*
X147900824Y-114478923D01*
X148119750Y-113951691D01*
X148120000Y-113665000D01*
X156651887Y-113665000D01*
X156761120Y-114214151D01*
X157072189Y-114679698D01*
X157454275Y-114935000D01*
X157072189Y-115190302D01*
X156761120Y-115655849D01*
X156651887Y-116205000D01*
X156761120Y-116754151D01*
X157072189Y-117219698D01*
X157454275Y-117475000D01*
X157072189Y-117730302D01*
X156761120Y-118195849D01*
X156651887Y-118745000D01*
X156761120Y-119294151D01*
X157072189Y-119759698D01*
X157476703Y-120029986D01*
X157259866Y-120132611D01*
X156883959Y-120547577D01*
X156723096Y-120935961D01*
X156845085Y-121158000D01*
X157988000Y-121158000D01*
X157988000Y-121138000D01*
X158242000Y-121138000D01*
X158242000Y-121158000D01*
X159384915Y-121158000D01*
X159506904Y-120935961D01*
X159346041Y-120547577D01*
X158970134Y-120132611D01*
X158753297Y-120029986D01*
X159157811Y-119759698D01*
X159215911Y-119672745D01*
X161096861Y-119672745D01*
X161170995Y-119918864D01*
X161708223Y-120111965D01*
X162278454Y-120084778D01*
X162679005Y-119918864D01*
X162753139Y-119672745D01*
X161925000Y-118844605D01*
X161096861Y-119672745D01*
X159215911Y-119672745D01*
X159468880Y-119294151D01*
X159578113Y-118745000D01*
X159519081Y-118448223D01*
X160478035Y-118448223D01*
X160505222Y-119018454D01*
X160671136Y-119419005D01*
X160917255Y-119493139D01*
X161745395Y-118665000D01*
X162104605Y-118665000D01*
X162932745Y-119493139D01*
X163178864Y-119419005D01*
X163371965Y-118881777D01*
X163344778Y-118311546D01*
X163178864Y-117910995D01*
X162932745Y-117836861D01*
X162104605Y-118665000D01*
X161745395Y-118665000D01*
X160917255Y-117836861D01*
X160671136Y-117910995D01*
X160478035Y-118448223D01*
X159519081Y-118448223D01*
X159468880Y-118195849D01*
X159157811Y-117730302D01*
X159048489Y-117657255D01*
X161096861Y-117657255D01*
X161925000Y-118485395D01*
X162753139Y-117657255D01*
X162679005Y-117411136D01*
X162141777Y-117218035D01*
X161571546Y-117245222D01*
X161170995Y-117411136D01*
X161096861Y-117657255D01*
X159048489Y-117657255D01*
X158775725Y-117475000D01*
X159157811Y-117219698D01*
X159468880Y-116754151D01*
X159578113Y-116205000D01*
X164271887Y-116205000D01*
X164381120Y-116754151D01*
X164692189Y-117219698D01*
X165074275Y-117475000D01*
X164692189Y-117730302D01*
X164381120Y-118195849D01*
X164271887Y-118745000D01*
X164381120Y-119294151D01*
X164692189Y-119759698D01*
X165096703Y-120029986D01*
X164879866Y-120132611D01*
X164503959Y-120547577D01*
X164343096Y-120935961D01*
X164465085Y-121158000D01*
X165608000Y-121158000D01*
X165608000Y-121138000D01*
X165862000Y-121138000D01*
X165862000Y-121158000D01*
X165882000Y-121158000D01*
X165882000Y-121412000D01*
X165862000Y-121412000D01*
X165862000Y-121432000D01*
X165608000Y-121432000D01*
X165608000Y-121412000D01*
X164465085Y-121412000D01*
X164343096Y-121634039D01*
X164503959Y-122022423D01*
X164879866Y-122437389D01*
X165096703Y-122540014D01*
X164692189Y-122810302D01*
X164381120Y-123275849D01*
X164271887Y-123825000D01*
X164381120Y-124374151D01*
X164692189Y-124839698D01*
X165074275Y-125095000D01*
X164692189Y-125350302D01*
X164381120Y-125815849D01*
X164271887Y-126365000D01*
X164381120Y-126914151D01*
X164692189Y-127379698D01*
X165074275Y-127635000D01*
X164692189Y-127890302D01*
X164381120Y-128355849D01*
X164271887Y-128905000D01*
X164381120Y-129454151D01*
X164692189Y-129919698D01*
X165096703Y-130189986D01*
X164879866Y-130292611D01*
X164503959Y-130707577D01*
X164343096Y-131095961D01*
X164465085Y-131318000D01*
X165608000Y-131318000D01*
X165608000Y-131298000D01*
X165862000Y-131298000D01*
X165862000Y-131318000D01*
X167004915Y-131318000D01*
X167126904Y-131095961D01*
X166966041Y-130707577D01*
X166590134Y-130292611D01*
X166373297Y-130189986D01*
X166777811Y-129919698D01*
X167088880Y-129454151D01*
X167198113Y-128905000D01*
X167131499Y-128570111D01*
X167190167Y-128570162D01*
X167533943Y-128428117D01*
X167797192Y-128165327D01*
X167906765Y-127901446D01*
X168168943Y-127793117D01*
X168432192Y-127530327D01*
X168541765Y-127266446D01*
X168803943Y-127158117D01*
X169067192Y-126895327D01*
X169209838Y-126551799D01*
X169210162Y-126179833D01*
X169068117Y-125836057D01*
X169035000Y-125802882D01*
X169035000Y-119942463D01*
X169067192Y-119910327D01*
X169209838Y-119566799D01*
X169210162Y-119194833D01*
X169068117Y-118851057D01*
X168805327Y-118587808D01*
X168461799Y-118445162D01*
X168400000Y-118445108D01*
X168400000Y-117402463D01*
X168432192Y-117370327D01*
X168574838Y-117026799D01*
X168575162Y-116654833D01*
X168433117Y-116311057D01*
X168170327Y-116047808D01*
X167826799Y-115905162D01*
X167765000Y-115905108D01*
X167765000Y-114300000D01*
X167707148Y-114009161D01*
X167542401Y-113762599D01*
X167182440Y-113402638D01*
X167182440Y-112865000D01*
X167138162Y-112629683D01*
X166999090Y-112413559D01*
X166786890Y-112268569D01*
X166535000Y-112217560D01*
X164935000Y-112217560D01*
X164699683Y-112261838D01*
X164483559Y-112400910D01*
X164338569Y-112613110D01*
X164287560Y-112865000D01*
X164287560Y-114465000D01*
X164331838Y-114700317D01*
X164470910Y-114916441D01*
X164683110Y-115061431D01*
X164838089Y-115092815D01*
X164692189Y-115190302D01*
X164381120Y-115655849D01*
X164271887Y-116205000D01*
X159578113Y-116205000D01*
X159468880Y-115655849D01*
X159157811Y-115190302D01*
X158775725Y-114935000D01*
X159157811Y-114679698D01*
X159468880Y-114214151D01*
X159521584Y-113949187D01*
X160489752Y-113949187D01*
X160707757Y-114476800D01*
X161111077Y-114880824D01*
X161638309Y-115099750D01*
X162209187Y-115100248D01*
X162736800Y-114882243D01*
X163140824Y-114478923D01*
X163359750Y-113951691D01*
X163360248Y-113380813D01*
X163142243Y-112853200D01*
X162738923Y-112449176D01*
X162211691Y-112230250D01*
X161640813Y-112229752D01*
X161113200Y-112447757D01*
X160709176Y-112851077D01*
X160490250Y-113378309D01*
X160489752Y-113949187D01*
X159521584Y-113949187D01*
X159578113Y-113665000D01*
X159468880Y-113115849D01*
X159157811Y-112650302D01*
X158692264Y-112339233D01*
X158143113Y-112230000D01*
X158086887Y-112230000D01*
X157537736Y-112339233D01*
X157072189Y-112650302D01*
X156761120Y-113115849D01*
X156651887Y-113665000D01*
X148120000Y-113665000D01*
X148120248Y-113380813D01*
X147902243Y-112853200D01*
X147787933Y-112738690D01*
X149060000Y-112738690D01*
X149060000Y-113379250D01*
X149218750Y-113538000D01*
X150368000Y-113538000D01*
X150368000Y-112388750D01*
X150622000Y-112388750D01*
X150622000Y-113538000D01*
X151771250Y-113538000D01*
X151930000Y-113379250D01*
X151930000Y-112738690D01*
X151833327Y-112505301D01*
X151654698Y-112326673D01*
X151421309Y-112230000D01*
X150780750Y-112230000D01*
X150622000Y-112388750D01*
X150368000Y-112388750D01*
X150209250Y-112230000D01*
X149568691Y-112230000D01*
X149335302Y-112326673D01*
X149156673Y-112505301D01*
X149060000Y-112738690D01*
X147787933Y-112738690D01*
X147498923Y-112449176D01*
X147445000Y-112426785D01*
X147445000Y-111439802D01*
X147459680Y-111425122D01*
X147505167Y-111425162D01*
X147783476Y-111310167D01*
X169879838Y-111310167D01*
X170021883Y-111653943D01*
X170284673Y-111917192D01*
X170628201Y-112059838D01*
X171000167Y-112060162D01*
X171325000Y-111925944D01*
X171325000Y-121992537D01*
X171292808Y-122024673D01*
X171150162Y-122368201D01*
X171149838Y-122740167D01*
X171291883Y-123083943D01*
X171554673Y-123347192D01*
X171898201Y-123489838D01*
X171958544Y-123489891D01*
X171891887Y-123825000D01*
X172001120Y-124374151D01*
X172312189Y-124839698D01*
X172694275Y-125095000D01*
X172312189Y-125350302D01*
X172001120Y-125815849D01*
X171891887Y-126365000D01*
X172001120Y-126914151D01*
X172312189Y-127379698D01*
X172694275Y-127635000D01*
X172312189Y-127890302D01*
X172001120Y-128355849D01*
X171891887Y-128905000D01*
X172001120Y-129454151D01*
X172312189Y-129919698D01*
X172694275Y-130175000D01*
X172312189Y-130430302D01*
X172001120Y-130895849D01*
X171891887Y-131445000D01*
X172001120Y-131994151D01*
X172312189Y-132459698D01*
X172777736Y-132770767D01*
X173326887Y-132880000D01*
X173383113Y-132880000D01*
X173932264Y-132770767D01*
X174397811Y-132459698D01*
X174708880Y-131994151D01*
X174748684Y-131794039D01*
X179583096Y-131794039D01*
X179743959Y-132182423D01*
X180119866Y-132597389D01*
X180625959Y-132836914D01*
X180848000Y-132715629D01*
X180848000Y-131572000D01*
X181102000Y-131572000D01*
X181102000Y-132715629D01*
X181324041Y-132836914D01*
X181830134Y-132597389D01*
X182206041Y-132182423D01*
X182366904Y-131794039D01*
X182244915Y-131572000D01*
X181102000Y-131572000D01*
X180848000Y-131572000D01*
X179705085Y-131572000D01*
X179583096Y-131794039D01*
X174748684Y-131794039D01*
X174818113Y-131445000D01*
X174708880Y-130895849D01*
X174397811Y-130430302D01*
X174015725Y-130175000D01*
X174397811Y-129919698D01*
X174708880Y-129454151D01*
X174818113Y-128905000D01*
X174708880Y-128355849D01*
X174397811Y-127890302D01*
X174015725Y-127635000D01*
X174397811Y-127379698D01*
X174708880Y-126914151D01*
X174818113Y-126365000D01*
X174708880Y-125815849D01*
X174397811Y-125350302D01*
X174015725Y-125095000D01*
X174397811Y-124839698D01*
X174708880Y-124374151D01*
X174818113Y-123825000D01*
X174708880Y-123275849D01*
X174397811Y-122810302D01*
X174015725Y-122555000D01*
X174397811Y-122299698D01*
X174708880Y-121834151D01*
X174748684Y-121634039D01*
X179583096Y-121634039D01*
X179743959Y-122022423D01*
X180119866Y-122437389D01*
X180368367Y-122555000D01*
X180119866Y-122672611D01*
X179743959Y-123087577D01*
X179583096Y-123475961D01*
X179705085Y-123698000D01*
X180848000Y-123698000D01*
X180848000Y-121412000D01*
X179705085Y-121412000D01*
X179583096Y-121634039D01*
X174748684Y-121634039D01*
X174818113Y-121285000D01*
X174708880Y-120735849D01*
X174397811Y-120270302D01*
X174015725Y-120015000D01*
X174397811Y-119759698D01*
X174455911Y-119672745D01*
X176336861Y-119672745D01*
X176410995Y-119918864D01*
X176948223Y-120111965D01*
X177518454Y-120084778D01*
X177919005Y-119918864D01*
X177993139Y-119672745D01*
X177165000Y-118844605D01*
X176336861Y-119672745D01*
X174455911Y-119672745D01*
X174708880Y-119294151D01*
X174818113Y-118745000D01*
X174759081Y-118448223D01*
X175718035Y-118448223D01*
X175745222Y-119018454D01*
X175911136Y-119419005D01*
X176157255Y-119493139D01*
X176985395Y-118665000D01*
X177344605Y-118665000D01*
X178172745Y-119493139D01*
X178418864Y-119419005D01*
X178611965Y-118881777D01*
X178584778Y-118311546D01*
X178418864Y-117910995D01*
X178172745Y-117836861D01*
X177344605Y-118665000D01*
X176985395Y-118665000D01*
X176157255Y-117836861D01*
X175911136Y-117910995D01*
X175718035Y-118448223D01*
X174759081Y-118448223D01*
X174708880Y-118195849D01*
X174397811Y-117730302D01*
X174288489Y-117657255D01*
X176336861Y-117657255D01*
X177165000Y-118485395D01*
X177993139Y-117657255D01*
X177919005Y-117411136D01*
X177381777Y-117218035D01*
X176811546Y-117245222D01*
X176410995Y-117411136D01*
X176336861Y-117657255D01*
X174288489Y-117657255D01*
X174015725Y-117475000D01*
X174397811Y-117219698D01*
X174708880Y-116754151D01*
X174818113Y-116205000D01*
X179511887Y-116205000D01*
X179621120Y-116754151D01*
X179932189Y-117219698D01*
X180314275Y-117475000D01*
X179932189Y-117730302D01*
X179621120Y-118195849D01*
X179511887Y-118745000D01*
X179621120Y-119294151D01*
X179932189Y-119759698D01*
X180336703Y-120029986D01*
X180119866Y-120132611D01*
X179743959Y-120547577D01*
X179583096Y-120935961D01*
X179705085Y-121158000D01*
X180848000Y-121158000D01*
X180848000Y-121138000D01*
X181102000Y-121138000D01*
X181102000Y-121158000D01*
X181122000Y-121158000D01*
X181122000Y-121412000D01*
X181102000Y-121412000D01*
X181102000Y-123698000D01*
X181122000Y-123698000D01*
X181122000Y-123952000D01*
X181102000Y-123952000D01*
X181102000Y-123972000D01*
X180848000Y-123972000D01*
X180848000Y-123952000D01*
X179705085Y-123952000D01*
X179583096Y-124174039D01*
X179743959Y-124562423D01*
X180119866Y-124977389D01*
X180336703Y-125080014D01*
X179932189Y-125350302D01*
X179621120Y-125815849D01*
X179511887Y-126365000D01*
X179621120Y-126914151D01*
X179932189Y-127379698D01*
X180314275Y-127635000D01*
X179932189Y-127890302D01*
X179621120Y-128355849D01*
X179511887Y-128905000D01*
X179621120Y-129454151D01*
X179932189Y-129919698D01*
X180336703Y-130189986D01*
X180119866Y-130292611D01*
X179743959Y-130707577D01*
X179583096Y-131095961D01*
X179705085Y-131318000D01*
X180848000Y-131318000D01*
X180848000Y-131298000D01*
X181102000Y-131298000D01*
X181102000Y-131318000D01*
X182244915Y-131318000D01*
X182359136Y-131110100D01*
X182430167Y-131110162D01*
X182773943Y-130968117D01*
X183037192Y-130705327D01*
X183179838Y-130361799D01*
X183180162Y-129989833D01*
X183110568Y-129821403D01*
X183408943Y-129698117D01*
X183514954Y-129592290D01*
X183619673Y-129697192D01*
X183963201Y-129839838D01*
X184025000Y-129839892D01*
X184025000Y-130247537D01*
X183992808Y-130279673D01*
X183850162Y-130623201D01*
X183849838Y-130995167D01*
X183991883Y-131338943D01*
X184254673Y-131602192D01*
X184598201Y-131744838D01*
X184970167Y-131745162D01*
X185313943Y-131603117D01*
X185577192Y-131340327D01*
X185719838Y-130996799D01*
X185720162Y-130624833D01*
X185578117Y-130281057D01*
X185545000Y-130247882D01*
X185545000Y-129460710D01*
X185764161Y-129607148D01*
X186055000Y-129665000D01*
X187382005Y-129665000D01*
X187552189Y-129919698D01*
X187934275Y-130175000D01*
X187552189Y-130430302D01*
X187241120Y-130895849D01*
X187131887Y-131445000D01*
X187241120Y-131994151D01*
X187552189Y-132459698D01*
X188017736Y-132770767D01*
X188566887Y-132880000D01*
X188623113Y-132880000D01*
X189172264Y-132770767D01*
X189637811Y-132459698D01*
X189948880Y-131994151D01*
X190058113Y-131445000D01*
X189948880Y-130895849D01*
X189637811Y-130430302D01*
X189255725Y-130175000D01*
X189637811Y-129919698D01*
X189948880Y-129454151D01*
X190058113Y-128905000D01*
X189948880Y-128355849D01*
X189637811Y-127890302D01*
X189255725Y-127635000D01*
X189637811Y-127379698D01*
X189948880Y-126914151D01*
X190058113Y-126365000D01*
X189948880Y-125815849D01*
X189637811Y-125350302D01*
X189255725Y-125095000D01*
X189637811Y-124839698D01*
X189948880Y-124374151D01*
X190058113Y-123825000D01*
X189948880Y-123275849D01*
X189637811Y-122810302D01*
X189255725Y-122555000D01*
X189637811Y-122299698D01*
X189948880Y-121834151D01*
X190058113Y-121285000D01*
X189948880Y-120735849D01*
X189637811Y-120270302D01*
X189255725Y-120015000D01*
X189637811Y-119759698D01*
X189948880Y-119294151D01*
X190058113Y-118745000D01*
X189999081Y-118448223D01*
X190958035Y-118448223D01*
X190985222Y-119018454D01*
X191151136Y-119419005D01*
X191397255Y-119493139D01*
X192225395Y-118665000D01*
X191397255Y-117836861D01*
X191151136Y-117910995D01*
X190958035Y-118448223D01*
X189999081Y-118448223D01*
X189948880Y-118195849D01*
X189637811Y-117730302D01*
X189255725Y-117475000D01*
X189637811Y-117219698D01*
X189948880Y-116754151D01*
X190058113Y-116205000D01*
X189948880Y-115655849D01*
X189637811Y-115190302D01*
X189255725Y-114935000D01*
X189637811Y-114679698D01*
X189948880Y-114214151D01*
X190058113Y-113665000D01*
X189948880Y-113115849D01*
X189637811Y-112650302D01*
X189172264Y-112339233D01*
X188623113Y-112230000D01*
X188566887Y-112230000D01*
X188085000Y-112325853D01*
X188085000Y-110417463D01*
X188117192Y-110385327D01*
X188259838Y-110041799D01*
X188260162Y-109669833D01*
X188118117Y-109326057D01*
X187855327Y-109062808D01*
X187591446Y-108953235D01*
X187483117Y-108691057D01*
X187220327Y-108427808D01*
X186876799Y-108285162D01*
X186504833Y-108284838D01*
X186161057Y-108426883D01*
X185897808Y-108689673D01*
X185788235Y-108953554D01*
X185526057Y-109061883D01*
X185262808Y-109324673D01*
X185120162Y-109668201D01*
X185119838Y-110040167D01*
X185261883Y-110383943D01*
X185295000Y-110417118D01*
X185295000Y-114370198D01*
X184910000Y-113985198D01*
X184910000Y-110417463D01*
X184942192Y-110385327D01*
X185084838Y-110041799D01*
X185085162Y-109669833D01*
X184943117Y-109326057D01*
X184680327Y-109062808D01*
X184336799Y-108920162D01*
X183964833Y-108919838D01*
X183745335Y-109010533D01*
X183417401Y-108682599D01*
X183170839Y-108517852D01*
X183112758Y-108506299D01*
X183324147Y-108365054D01*
X183515000Y-108079422D01*
X183705853Y-108365054D01*
X184187622Y-108686961D01*
X184755907Y-108800000D01*
X184814093Y-108800000D01*
X185382378Y-108686961D01*
X185864147Y-108365054D01*
X186186054Y-107883285D01*
X186299093Y-107315000D01*
X186186054Y-106746715D01*
X185864147Y-106264946D01*
X185545000Y-106051699D01*
X185545000Y-106038301D01*
X185864147Y-105825054D01*
X186186054Y-105343285D01*
X186299093Y-104775000D01*
X186186054Y-104206715D01*
X185864147Y-103724946D01*
X185545000Y-103511699D01*
X185545000Y-103498301D01*
X185864147Y-103285054D01*
X186186054Y-102803285D01*
X186299093Y-102235000D01*
X186186054Y-101666715D01*
X185864147Y-101184946D01*
X185545000Y-100971699D01*
X185545000Y-100958301D01*
X185864147Y-100745054D01*
X186186054Y-100263285D01*
X186299093Y-99695000D01*
X186186054Y-99126715D01*
X185864147Y-98644946D01*
X185545000Y-98431699D01*
X185545000Y-98418301D01*
X185864147Y-98205054D01*
X186186054Y-97723285D01*
X186299093Y-97155000D01*
X186186054Y-96586715D01*
X185864147Y-96104946D01*
X185545000Y-95891699D01*
X185545000Y-95878301D01*
X185864147Y-95665054D01*
X186186054Y-95183285D01*
X186299093Y-94615000D01*
X186186054Y-94046715D01*
X185864147Y-93564946D01*
X185382378Y-93243039D01*
X184814093Y-93130000D01*
X184755907Y-93130000D01*
X184187622Y-93243039D01*
X183705853Y-93564946D01*
X183705029Y-93566179D01*
X183698162Y-93529683D01*
X183559090Y-93313559D01*
X183346890Y-93168569D01*
X183095000Y-93117560D01*
X181395000Y-93117560D01*
X181159683Y-93161838D01*
X180943559Y-93300910D01*
X180798569Y-93513110D01*
X180747560Y-93765000D01*
X180747560Y-95465000D01*
X180791838Y-95700317D01*
X180930910Y-95916441D01*
X181143110Y-96061431D01*
X181210541Y-96075086D01*
X181165853Y-96104946D01*
X180843946Y-96586715D01*
X180730907Y-97155000D01*
X180843946Y-97723285D01*
X181165853Y-98205054D01*
X181495026Y-98425000D01*
X181165853Y-98644946D01*
X180843946Y-99126715D01*
X180730907Y-99695000D01*
X180843946Y-100263285D01*
X181165853Y-100745054D01*
X181495026Y-100965000D01*
X181165853Y-101184946D01*
X180843946Y-101666715D01*
X180730907Y-102235000D01*
X180843946Y-102803285D01*
X181165853Y-103285054D01*
X181495026Y-103505000D01*
X181165853Y-103724946D01*
X180843946Y-104206715D01*
X180730907Y-104775000D01*
X180843946Y-105343285D01*
X181165853Y-105825054D01*
X181495026Y-106045000D01*
X181165853Y-106264946D01*
X180843946Y-106746715D01*
X180730907Y-107315000D01*
X180843946Y-107883285D01*
X181165853Y-108365054D01*
X181190629Y-108381609D01*
X181081057Y-108426883D01*
X180817808Y-108689673D01*
X180675162Y-109033201D01*
X180674838Y-109405167D01*
X180816883Y-109748943D01*
X181079673Y-110012192D01*
X181343554Y-110121765D01*
X181451883Y-110383943D01*
X181714673Y-110647192D01*
X182058201Y-110789838D01*
X182105077Y-110789879D01*
X182120000Y-110804802D01*
X182120000Y-112332188D01*
X182026890Y-112268569D01*
X181775000Y-112217560D01*
X180175000Y-112217560D01*
X179939683Y-112261838D01*
X179723559Y-112400910D01*
X179578569Y-112613110D01*
X179527560Y-112865000D01*
X179527560Y-114465000D01*
X179571838Y-114700317D01*
X179710910Y-114916441D01*
X179923110Y-115061431D01*
X180078089Y-115092815D01*
X179932189Y-115190302D01*
X179621120Y-115655849D01*
X179511887Y-116205000D01*
X174818113Y-116205000D01*
X174708880Y-115655849D01*
X174397811Y-115190302D01*
X174015725Y-114935000D01*
X174397811Y-114679698D01*
X174708880Y-114214151D01*
X174761584Y-113949187D01*
X175729752Y-113949187D01*
X175947757Y-114476800D01*
X176351077Y-114880824D01*
X176878309Y-115099750D01*
X177449187Y-115100248D01*
X177976800Y-114882243D01*
X178380824Y-114478923D01*
X178599750Y-113951691D01*
X178600248Y-113380813D01*
X178382243Y-112853200D01*
X177978923Y-112449176D01*
X177451691Y-112230250D01*
X176880813Y-112229752D01*
X176353200Y-112447757D01*
X175949176Y-112851077D01*
X175730250Y-113378309D01*
X175729752Y-113949187D01*
X174761584Y-113949187D01*
X174818113Y-113665000D01*
X174708880Y-113115849D01*
X174397811Y-112650302D01*
X173932264Y-112339233D01*
X173383113Y-112230000D01*
X173326887Y-112230000D01*
X172845000Y-112325853D01*
X172845000Y-110804802D01*
X173034802Y-110615000D01*
X175332537Y-110615000D01*
X175364673Y-110647192D01*
X175708201Y-110789838D01*
X176080167Y-110790162D01*
X176423943Y-110648117D01*
X176687192Y-110385327D01*
X176829838Y-110041799D01*
X176830162Y-109669833D01*
X176688117Y-109326057D01*
X176425327Y-109062808D01*
X176081799Y-108920162D01*
X175709833Y-108919838D01*
X175366057Y-109061883D01*
X175332882Y-109095000D01*
X172720000Y-109095000D01*
X172429161Y-109152852D01*
X172213837Y-109296726D01*
X171980327Y-109062808D01*
X171636799Y-108920162D01*
X171264833Y-108919838D01*
X170921057Y-109061883D01*
X170657808Y-109324673D01*
X170515162Y-109668201D01*
X170514838Y-110040167D01*
X170584432Y-110208597D01*
X170286057Y-110331883D01*
X170022808Y-110594673D01*
X169880162Y-110938201D01*
X169879838Y-111310167D01*
X147783476Y-111310167D01*
X147848943Y-111283117D01*
X148112192Y-111020327D01*
X148254838Y-110676799D01*
X148255162Y-110304833D01*
X148113117Y-109961057D01*
X147850327Y-109697808D01*
X147506799Y-109555162D01*
X147134833Y-109554838D01*
X147118191Y-109561714D01*
X147403880Y-109134151D01*
X147456584Y-108869187D01*
X154774752Y-108869187D01*
X154992757Y-109396800D01*
X155396077Y-109800824D01*
X155923309Y-110019750D01*
X156494187Y-110020248D01*
X157021800Y-109802243D01*
X157425824Y-109398923D01*
X157479862Y-109268785D01*
X157532757Y-109396800D01*
X157936077Y-109800824D01*
X158463309Y-110019750D01*
X159034187Y-110020248D01*
X159561800Y-109802243D01*
X159965824Y-109398923D01*
X160184750Y-108871691D01*
X160185000Y-108585000D01*
X167446887Y-108585000D01*
X167556120Y-109134151D01*
X167867189Y-109599698D01*
X168332736Y-109910767D01*
X168881887Y-110020000D01*
X168938113Y-110020000D01*
X169487264Y-109910767D01*
X169952811Y-109599698D01*
X170263880Y-109134151D01*
X170373113Y-108585000D01*
X170263880Y-108035849D01*
X169952811Y-107570302D01*
X169487264Y-107259233D01*
X168938113Y-107150000D01*
X168881887Y-107150000D01*
X168332736Y-107259233D01*
X167867189Y-107570302D01*
X167556120Y-108035849D01*
X167446887Y-108585000D01*
X160185000Y-108585000D01*
X160185248Y-108300813D01*
X159967243Y-107773200D01*
X159563923Y-107369176D01*
X159036691Y-107150250D01*
X158465813Y-107149752D01*
X157938200Y-107367757D01*
X157534176Y-107771077D01*
X157480138Y-107901215D01*
X157427243Y-107773200D01*
X157023923Y-107369176D01*
X156496691Y-107150250D01*
X155925813Y-107149752D01*
X155398200Y-107367757D01*
X154994176Y-107771077D01*
X154775250Y-108298309D01*
X154774752Y-108869187D01*
X147456584Y-108869187D01*
X147513113Y-108585000D01*
X147403880Y-108035849D01*
X147092811Y-107570302D01*
X146627264Y-107259233D01*
X146078113Y-107150000D01*
X146021887Y-107150000D01*
X145472736Y-107259233D01*
X145007189Y-107570302D01*
X144696120Y-108035849D01*
X144586887Y-108585000D01*
X144310000Y-108585000D01*
X144310248Y-108300813D01*
X144092243Y-107773200D01*
X143688923Y-107369176D01*
X143161691Y-107150250D01*
X142590813Y-107149752D01*
X142063200Y-107367757D01*
X141659176Y-107771077D01*
X141440250Y-108298309D01*
X141439752Y-108869187D01*
X139297735Y-108869187D01*
X139321965Y-108801777D01*
X139294778Y-108231546D01*
X139128864Y-107830995D01*
X138882745Y-107756861D01*
X138054605Y-108585000D01*
X137695395Y-108585000D01*
X136867255Y-107756861D01*
X136621136Y-107830995D01*
X136568972Y-107976122D01*
X136302457Y-107577255D01*
X137046861Y-107577255D01*
X137875000Y-108405395D01*
X138703139Y-107577255D01*
X138629005Y-107331136D01*
X138091777Y-107138035D01*
X137521546Y-107165222D01*
X137120995Y-107331136D01*
X137046861Y-107577255D01*
X136302457Y-107577255D01*
X136297811Y-107570302D01*
X135832264Y-107259233D01*
X135283113Y-107150000D01*
X135226887Y-107150000D01*
X134677736Y-107259233D01*
X134212189Y-107570302D01*
X133901120Y-108035849D01*
X133791887Y-108585000D01*
X129082440Y-108585000D01*
X129082440Y-107785000D01*
X129038162Y-107549683D01*
X128899090Y-107333559D01*
X128686890Y-107188569D01*
X128435000Y-107137560D01*
X126835000Y-107137560D01*
X126599683Y-107181838D01*
X126383559Y-107320910D01*
X126238569Y-107533110D01*
X126187560Y-107785000D01*
X118870000Y-107785000D01*
X118870000Y-106964187D01*
X171324752Y-106964187D01*
X171542757Y-107491800D01*
X171946077Y-107895824D01*
X172473309Y-108114750D01*
X173044187Y-108115248D01*
X173571800Y-107897243D01*
X173840583Y-107628928D01*
X173856838Y-107715317D01*
X173995910Y-107931441D01*
X174208110Y-108076431D01*
X174460000Y-108127440D01*
X176060000Y-108127440D01*
X176295317Y-108083162D01*
X176511441Y-107944090D01*
X176656431Y-107731890D01*
X176707440Y-107480000D01*
X176707440Y-105880000D01*
X176663162Y-105644683D01*
X176524090Y-105428559D01*
X176311890Y-105283569D01*
X176060000Y-105232560D01*
X174460000Y-105232560D01*
X174224683Y-105276838D01*
X174008559Y-105415910D01*
X173863569Y-105628110D01*
X173842320Y-105733041D01*
X173573923Y-105464176D01*
X173046691Y-105245250D01*
X172475813Y-105244752D01*
X171948200Y-105462757D01*
X171544176Y-105866077D01*
X171325250Y-106393309D01*
X171324752Y-106964187D01*
X118870000Y-106964187D01*
X118870000Y-104140000D01*
X118837180Y-103975000D01*
X136347560Y-103975000D01*
X136347560Y-105575000D01*
X136391838Y-105810317D01*
X136530910Y-106026441D01*
X136743110Y-106171431D01*
X136995000Y-106222440D01*
X138595000Y-106222440D01*
X138830317Y-106178162D01*
X139046441Y-106039090D01*
X139191431Y-105826890D01*
X139242440Y-105575000D01*
X139242440Y-105124039D01*
X144023096Y-105124039D01*
X144183959Y-105512423D01*
X144559866Y-105927389D01*
X145065959Y-106166914D01*
X145288000Y-106045629D01*
X145288000Y-104902000D01*
X145542000Y-104902000D01*
X145542000Y-106045629D01*
X145764041Y-106166914D01*
X146270134Y-105927389D01*
X146646041Y-105512423D01*
X146806904Y-105124039D01*
X146684915Y-104902000D01*
X145542000Y-104902000D01*
X145288000Y-104902000D01*
X144145085Y-104902000D01*
X144023096Y-105124039D01*
X139242440Y-105124039D01*
X139242440Y-104775000D01*
X147126887Y-104775000D01*
X147236120Y-105324151D01*
X147547189Y-105789698D01*
X148012736Y-106100767D01*
X148561887Y-106210000D01*
X148618113Y-106210000D01*
X149167264Y-106100767D01*
X149632811Y-105789698D01*
X149943880Y-105324151D01*
X150053113Y-104775000D01*
X149943880Y-104225849D01*
X149776268Y-103975000D01*
X154762560Y-103975000D01*
X154762560Y-105575000D01*
X154806838Y-105810317D01*
X154945910Y-106026441D01*
X155158110Y-106171431D01*
X155410000Y-106222440D01*
X157010000Y-106222440D01*
X157245317Y-106178162D01*
X157461441Y-106039090D01*
X157606431Y-105826890D01*
X157642496Y-105648796D01*
X157894866Y-105927389D01*
X158400959Y-106166914D01*
X158623000Y-106045629D01*
X158623000Y-104902000D01*
X158877000Y-104902000D01*
X158877000Y-106045629D01*
X159099041Y-106166914D01*
X159605134Y-105927389D01*
X159981041Y-105512423D01*
X160141904Y-105124039D01*
X160106275Y-105059187D01*
X167474752Y-105059187D01*
X167692757Y-105586800D01*
X168096077Y-105990824D01*
X168623309Y-106209750D01*
X169194187Y-106210248D01*
X169721800Y-105992243D01*
X170125824Y-105588923D01*
X170344750Y-105061691D01*
X170345248Y-104490813D01*
X170127243Y-103963200D01*
X169723923Y-103559176D01*
X169196691Y-103340250D01*
X168625813Y-103339752D01*
X168098200Y-103557757D01*
X167694176Y-103961077D01*
X167475250Y-104488309D01*
X167474752Y-105059187D01*
X160106275Y-105059187D01*
X160019915Y-104902000D01*
X158877000Y-104902000D01*
X158623000Y-104902000D01*
X158603000Y-104902000D01*
X158603000Y-104648000D01*
X158623000Y-104648000D01*
X158623000Y-103504371D01*
X158877000Y-103504371D01*
X158877000Y-104648000D01*
X160019915Y-104648000D01*
X160141904Y-104425961D01*
X159981041Y-104037577D01*
X159605134Y-103622611D01*
X159099041Y-103383086D01*
X158877000Y-103504371D01*
X158623000Y-103504371D01*
X158400959Y-103383086D01*
X157894866Y-103622611D01*
X157643372Y-103900236D01*
X157613162Y-103739683D01*
X157474090Y-103523559D01*
X157261890Y-103378569D01*
X157010000Y-103327560D01*
X155410000Y-103327560D01*
X155174683Y-103371838D01*
X154958559Y-103510910D01*
X154813569Y-103723110D01*
X154762560Y-103975000D01*
X149776268Y-103975000D01*
X149632811Y-103760302D01*
X149167264Y-103449233D01*
X148618113Y-103340000D01*
X148561887Y-103340000D01*
X148012736Y-103449233D01*
X147547189Y-103760302D01*
X147236120Y-104225849D01*
X147126887Y-104775000D01*
X139242440Y-104775000D01*
X139242440Y-104425961D01*
X144023096Y-104425961D01*
X144145085Y-104648000D01*
X145288000Y-104648000D01*
X145288000Y-103504371D01*
X145542000Y-103504371D01*
X145542000Y-104648000D01*
X146684915Y-104648000D01*
X146806904Y-104425961D01*
X146646041Y-104037577D01*
X146270134Y-103622611D01*
X145764041Y-103383086D01*
X145542000Y-103504371D01*
X145288000Y-103504371D01*
X145065959Y-103383086D01*
X144559866Y-103622611D01*
X144183959Y-104037577D01*
X144023096Y-104425961D01*
X139242440Y-104425961D01*
X139242440Y-103975000D01*
X139198162Y-103739683D01*
X139059090Y-103523559D01*
X138846890Y-103378569D01*
X138595000Y-103327560D01*
X136995000Y-103327560D01*
X136759683Y-103371838D01*
X136543559Y-103510910D01*
X136398569Y-103723110D01*
X136347560Y-103975000D01*
X118837180Y-103975000D01*
X118812148Y-103849161D01*
X118647401Y-103602599D01*
X118012401Y-102967599D01*
X117765839Y-102802852D01*
X117475000Y-102745000D01*
X117443646Y-102745000D01*
X117422243Y-102693200D01*
X117018923Y-102289176D01*
X116491691Y-102070250D01*
X115920813Y-102069752D01*
X115393200Y-102287757D01*
X114989176Y-102691077D01*
X114966785Y-102745000D01*
X113607995Y-102745000D01*
X113437811Y-102490302D01*
X112972264Y-102179233D01*
X112423113Y-102070000D01*
X112366887Y-102070000D01*
X112060091Y-102131026D01*
X112060162Y-102049833D01*
X111918117Y-101706057D01*
X111655327Y-101442808D01*
X111311799Y-101300162D01*
X111250000Y-101300108D01*
X111250000Y-100892463D01*
X111282192Y-100860327D01*
X111424838Y-100516799D01*
X111425055Y-100267532D01*
X169842073Y-100267532D01*
X169940736Y-100534387D01*
X170550461Y-100760908D01*
X171200460Y-100736856D01*
X171689264Y-100534387D01*
X171787927Y-100267532D01*
X176342073Y-100267532D01*
X176440736Y-100534387D01*
X177050461Y-100760908D01*
X177700460Y-100736856D01*
X178189264Y-100534387D01*
X178287927Y-100267532D01*
X177315000Y-99294605D01*
X176342073Y-100267532D01*
X171787927Y-100267532D01*
X170815000Y-99294605D01*
X169842073Y-100267532D01*
X111425055Y-100267532D01*
X111425162Y-100144833D01*
X111283117Y-99801057D01*
X111020327Y-99537808D01*
X110676799Y-99395162D01*
X110304833Y-99394838D01*
X109961057Y-99536883D01*
X109697808Y-99799673D01*
X109555162Y-100143201D01*
X109554838Y-100515167D01*
X109696883Y-100858943D01*
X109730000Y-100892118D01*
X109730000Y-101299890D01*
X109669833Y-101299838D01*
X109326057Y-101441883D01*
X109062808Y-101704673D01*
X108920162Y-102048201D01*
X108919838Y-102420167D01*
X98524338Y-102420167D01*
X98493327Y-102345301D01*
X98314698Y-102166673D01*
X98081309Y-102070000D01*
X97440750Y-102070000D01*
X97282000Y-102228750D01*
X97028000Y-102228750D01*
X96869250Y-102070000D01*
X96645000Y-102070000D01*
X96645000Y-98850461D01*
X169169092Y-98850461D01*
X169193144Y-99500460D01*
X169395613Y-99989264D01*
X169662468Y-100087927D01*
X170635395Y-99115000D01*
X170994605Y-99115000D01*
X171967532Y-100087927D01*
X172234387Y-99989264D01*
X172460908Y-99379539D01*
X172441331Y-98850461D01*
X175669092Y-98850461D01*
X175693144Y-99500460D01*
X175895613Y-99989264D01*
X176162468Y-100087927D01*
X177135395Y-99115000D01*
X177494605Y-99115000D01*
X178467532Y-100087927D01*
X178734387Y-99989264D01*
X178960908Y-99379539D01*
X178936856Y-98729540D01*
X178734387Y-98240736D01*
X178467532Y-98142073D01*
X177494605Y-99115000D01*
X177135395Y-99115000D01*
X176162468Y-98142073D01*
X175895613Y-98240736D01*
X175669092Y-98850461D01*
X172441331Y-98850461D01*
X172436856Y-98729540D01*
X172234387Y-98240736D01*
X171967532Y-98142073D01*
X170994605Y-99115000D01*
X170635395Y-99115000D01*
X169662468Y-98142073D01*
X169395613Y-98240736D01*
X169169092Y-98850461D01*
X96645000Y-98850461D01*
X96645000Y-97962468D01*
X169842073Y-97962468D01*
X170815000Y-98935395D01*
X171787927Y-97962468D01*
X176342073Y-97962468D01*
X177315000Y-98935395D01*
X178287927Y-97962468D01*
X178189264Y-97695613D01*
X177579539Y-97469092D01*
X176929540Y-97493144D01*
X176440736Y-97695613D01*
X176342073Y-97962468D01*
X171787927Y-97962468D01*
X171689264Y-97695613D01*
X171079539Y-97469092D01*
X170429540Y-97493144D01*
X169940736Y-97695613D01*
X169842073Y-97962468D01*
X96645000Y-97962468D01*
X96645000Y-96794285D01*
X98309760Y-96794285D01*
X98520169Y-97303515D01*
X98909436Y-97693461D01*
X99418298Y-97904759D01*
X99969285Y-97905240D01*
X100478515Y-97694831D01*
X100868461Y-97305564D01*
X101079759Y-96796702D01*
X101079761Y-96794285D01*
X103189760Y-96794285D01*
X103400169Y-97303515D01*
X103789436Y-97693461D01*
X104298298Y-97904759D01*
X104849285Y-97905240D01*
X105358515Y-97694831D01*
X105748461Y-97305564D01*
X105959759Y-96796702D01*
X105960240Y-96245715D01*
X105749831Y-95736485D01*
X105360564Y-95346539D01*
X104851702Y-95135241D01*
X104300715Y-95134760D01*
X103791485Y-95345169D01*
X103401539Y-95734436D01*
X103190241Y-96243298D01*
X103189760Y-96794285D01*
X101079761Y-96794285D01*
X101080240Y-96245715D01*
X100869831Y-95736485D01*
X100480564Y-95346539D01*
X99971702Y-95135241D01*
X99420715Y-95134760D01*
X98911485Y-95345169D01*
X98521539Y-95734436D01*
X98310241Y-96243298D01*
X98309760Y-96794285D01*
X96645000Y-96794285D01*
X96645000Y-93272463D01*
X96677192Y-93240327D01*
X96819838Y-92896799D01*
X96820162Y-92524833D01*
X96678117Y-92181057D01*
X96415327Y-91917808D01*
X96293182Y-91867089D01*
X97063791Y-90713791D01*
X98271001Y-89907161D01*
X99764931Y-89610000D01*
X109107188Y-89610000D01*
X109043569Y-89703110D01*
M02*
