M48
;DRILL file {KiCad 4.0.7} date 09/25/19 15:54:23
;FORMAT={2:4/ absolute / inch / suppress leading zeros}
FMAT,2
INCH,TZ
T1C0.016
T2C0.031
T3C0.039
T4C0.043
%
G90
G05
M72
T1
X37750Y-36500
X42750Y-36500
X43000Y-54750
X43250Y-40250
X43250Y-41750
X43500Y-39500
X43500Y-41500
X43750Y-40250
X44000Y-54750
X44750Y-45250
X46000Y-48250
X46000Y-51500
X46000Y-52000
X46250Y-46000
X46500Y-47500
X46750Y-36500
X46750Y-43500
X47000Y-36750
X48250Y-36750
X49250Y-36750
X49750Y-36500
X50000Y-37500
X53500Y-43750
X53750Y-46250
X53750Y-51250
X56750Y-48250
X56750Y-51250
X57000Y-48500
X57000Y-50250
X58000Y-43500
X61000Y-57000
X61250Y-57250
X65750Y-50250
X66000Y-46000
X66000Y-50000
X66250Y-47000
X66250Y-49750
X67250Y-43750
X67500Y-43250
X67750Y-48250
X69250Y-43250
X71500Y-43000
X71750Y-43250
X71750Y-51250
X72000Y-46000
X72000Y-50750
X72250Y-47000
X72250Y-50500
X72500Y-43250
X72500Y-50750
X72750Y-51500
X73250Y-43250
X73500Y-43000
X73750Y-43250
T2
X38250Y-40750
X38250Y-41750
X38250Y-42750
X38250Y-43750
X38250Y-44750
X38250Y-45750
X38250Y-46750
X38250Y-47750
X38250Y-48750
X38250Y-49750
X38250Y-50750
X38250Y-51750
X39250Y-38000
X41171Y-38000
X44250Y-40750
X44250Y-41750
X44250Y-42750
X44250Y-43750
X44250Y-44750
X44250Y-45750
X44250Y-46750
X44250Y-47750
X44250Y-48750
X44250Y-49750
X44250Y-50750
X44250Y-51750
X45750Y-40750
X45750Y-42719
X47250Y-44750
X47250Y-45750
X47250Y-46750
X47250Y-47750
X47250Y-48750
X47250Y-49750
X47250Y-50750
X50250Y-42750
X50250Y-44750
X50250Y-45750
X50250Y-46750
X50250Y-47750
X50250Y-48750
X50250Y-49750
X50250Y-50750
X51750Y-44750
X51750Y-46719
X53250Y-42750
X53250Y-44750
X53250Y-45750
X53250Y-46750
X53250Y-47750
X53250Y-48750
X53250Y-49750
X53250Y-50750
X54250Y-41250
X54281Y-42750
X56250Y-42750
X56250Y-44750
X56250Y-45750
X56250Y-46750
X56250Y-47750
X56250Y-48750
X56250Y-49750
X56250Y-50750
X57250Y-41250
X57500Y-42750
X57750Y-44750
X57750Y-46719
X58500Y-41250
X59250Y-44750
X59250Y-45750
X59250Y-46750
X59250Y-47750
X59250Y-48750
X59250Y-49750
X59250Y-50750
X61500Y-41250
X61500Y-42750
X62250Y-44750
X62250Y-45750
X62250Y-46750
X62250Y-47750
X62250Y-48750
X62250Y-49750
X62250Y-50750
X62500Y-41250
X62500Y-42750
X63750Y-44750
X63750Y-46719
X65250Y-44750
X65250Y-45750
X65250Y-46750
X65250Y-47750
X65250Y-48750
X65250Y-49750
X65250Y-50750
X65250Y-51750
X66500Y-41250
X66500Y-42750
X68016Y-42000
X68250Y-44750
X68250Y-45750
X68250Y-46750
X68250Y-47750
X68250Y-48750
X68250Y-49750
X68250Y-50750
X68250Y-51750
X69000Y-42000
X69750Y-44750
X69750Y-46719
X71250Y-44750
X71250Y-45750
X71250Y-46750
X71250Y-47750
X71250Y-48750
X71250Y-49750
X71250Y-50750
X71250Y-51750
X74250Y-44750
X74250Y-45750
X74250Y-46750
X74250Y-47750
X74250Y-48750
X74250Y-49750
X74250Y-50750
X74250Y-51750
X75750Y-44750
X75750Y-46719
T3
X38000Y-58000
X39000Y-58000
X40000Y-58000
X41000Y-58000
X42000Y-58000
X43000Y-58000
X43500Y-35750
X43500Y-36750
X44000Y-58000
X44500Y-35750
X44500Y-36750
X45000Y-58000
X45500Y-35750
X45500Y-36750
X46000Y-58000
X47000Y-58000
X47250Y-35750
X48000Y-58000
X48250Y-35750
X49000Y-58000
X49250Y-35750
X50000Y-58000
X51000Y-58000
X52000Y-58000
X53000Y-58000
X54000Y-58000
X55000Y-58000
X56000Y-58000
X57000Y-58000
X58000Y-58000
X59000Y-58000
X60000Y-58000
X61000Y-58000
X62000Y-58000
X63000Y-58000
X64000Y-58000
X65000Y-58000
X66000Y-58000
X67000Y-58000
X68000Y-58000
X69000Y-58000
X70000Y-58000
X71000Y-58000
X71750Y-37250
X71750Y-38250
X71750Y-39250
X71750Y-40250
X71750Y-41250
X71750Y-42250
X72000Y-58000
X72750Y-37250
X72750Y-38250
X72750Y-39250
X72750Y-40250
X72750Y-41250
X72750Y-42250
X73000Y-58000
X74000Y-58000
X75000Y-58000
X76000Y-58000
T4
X67250Y-37250
X67250Y-39022
X69809Y-37250
X69809Y-39022
T0
M30
