G04 #@! TF.FileFunction,Copper,L1,Top,Signal*
%FSLAX46Y46*%
G04 Gerber Fmt 4.6, Leading zero omitted, Abs format (unit mm)*
G04 Created by KiCad (PCBNEW 4.0.7) date 09/25/19 15:54:21*
%MOMM*%
%LPD*%
G01*
G04 APERTURE LIST*
%ADD10C,0.100000*%
%ADD11C,1.600000*%
%ADD12R,1.700000X1.700000*%
%ADD13O,1.700000X1.700000*%
%ADD14O,1.600000X1.600000*%
%ADD15R,1.600000X1.600000*%
%ADD16C,2.000000*%
%ADD17C,1.500000*%
%ADD18C,0.600000*%
%ADD19C,0.250000*%
G04 APERTURE END LIST*
D10*
D11*
X146685000Y-113665000D03*
X146685000Y-118665000D03*
X116205000Y-103505000D03*
X116205000Y-108505000D03*
X161925000Y-113665000D03*
X161925000Y-118665000D03*
X131445000Y-113665000D03*
X131445000Y-118665000D03*
X192405000Y-113665000D03*
X192405000Y-118665000D03*
X177165000Y-113665000D03*
X177165000Y-118665000D03*
X142875000Y-108585000D03*
X137875000Y-108585000D03*
D12*
X193040000Y-147320000D03*
D13*
X190500000Y-147320000D03*
X187960000Y-147320000D03*
X185420000Y-147320000D03*
X182880000Y-147320000D03*
X180340000Y-147320000D03*
X177800000Y-147320000D03*
X175260000Y-147320000D03*
X172720000Y-147320000D03*
X170180000Y-147320000D03*
X167640000Y-147320000D03*
X165100000Y-147320000D03*
X162560000Y-147320000D03*
X160020000Y-147320000D03*
X157480000Y-147320000D03*
X154940000Y-147320000D03*
X152400000Y-147320000D03*
X149860000Y-147320000D03*
X147320000Y-147320000D03*
X144780000Y-147320000D03*
X142240000Y-147320000D03*
X139700000Y-147320000D03*
X137160000Y-147320000D03*
X134620000Y-147320000D03*
X132080000Y-147320000D03*
X129540000Y-147320000D03*
X127000000Y-147320000D03*
X124460000Y-147320000D03*
X121920000Y-147320000D03*
X119380000Y-147320000D03*
X116840000Y-147320000D03*
X114300000Y-147320000D03*
X111760000Y-147320000D03*
X109220000Y-147320000D03*
X106680000Y-147320000D03*
X104140000Y-147320000D03*
X101600000Y-147320000D03*
X99060000Y-147320000D03*
X96520000Y-147320000D03*
D11*
X156210000Y-108585000D03*
D14*
X146050000Y-108585000D03*
D11*
X158750000Y-108585000D03*
D14*
X168910000Y-108585000D03*
D11*
X168910000Y-104775000D03*
D14*
X158750000Y-104775000D03*
D15*
X180975000Y-113665000D03*
D14*
X188595000Y-131445000D03*
X180975000Y-116205000D03*
X188595000Y-128905000D03*
X180975000Y-118745000D03*
X188595000Y-126365000D03*
X180975000Y-121285000D03*
X188595000Y-123825000D03*
X180975000Y-123825000D03*
X188595000Y-121285000D03*
X180975000Y-126365000D03*
X188595000Y-118745000D03*
X180975000Y-128905000D03*
X188595000Y-116205000D03*
X180975000Y-131445000D03*
X188595000Y-113665000D03*
D15*
X165735000Y-113665000D03*
D14*
X173355000Y-131445000D03*
X165735000Y-116205000D03*
X173355000Y-128905000D03*
X165735000Y-118745000D03*
X173355000Y-126365000D03*
X165735000Y-121285000D03*
X173355000Y-123825000D03*
X165735000Y-123825000D03*
X173355000Y-121285000D03*
X165735000Y-126365000D03*
X173355000Y-118745000D03*
X165735000Y-128905000D03*
X173355000Y-116205000D03*
X165735000Y-131445000D03*
X173355000Y-113665000D03*
D12*
X182245000Y-94615000D03*
D13*
X184785000Y-94615000D03*
X182245000Y-97155000D03*
X184785000Y-97155000D03*
X182245000Y-99695000D03*
X184785000Y-99695000D03*
X182245000Y-102235000D03*
X184785000Y-102235000D03*
X182245000Y-104775000D03*
X184785000Y-104775000D03*
X182245000Y-107315000D03*
X184785000Y-107315000D03*
D15*
X175260000Y-106680000D03*
D11*
X172760000Y-106680000D03*
D15*
X156210000Y-104775000D03*
D14*
X148590000Y-104775000D03*
D15*
X127635000Y-108585000D03*
D14*
X135255000Y-108585000D03*
D15*
X137795000Y-104775000D03*
D14*
X145415000Y-104775000D03*
D12*
X110490000Y-90805000D03*
D13*
X110490000Y-93345000D03*
D12*
X115570000Y-90805000D03*
D13*
X115570000Y-93345000D03*
D12*
X120015000Y-90805000D03*
D13*
X122555000Y-90805000D03*
X125095000Y-90805000D03*
D12*
X113030000Y-90805000D03*
D13*
X113030000Y-93345000D03*
D16*
X170815000Y-99115000D03*
X170815000Y-94615000D03*
X177315000Y-99115000D03*
X177315000Y-94615000D03*
D15*
X135255000Y-113665000D03*
D14*
X142875000Y-128905000D03*
X135255000Y-116205000D03*
X142875000Y-126365000D03*
X135255000Y-118745000D03*
X142875000Y-123825000D03*
X135255000Y-121285000D03*
X142875000Y-121285000D03*
X135255000Y-123825000D03*
X142875000Y-118745000D03*
X135255000Y-126365000D03*
X142875000Y-116205000D03*
X135255000Y-128905000D03*
X142875000Y-113665000D03*
D15*
X97155000Y-103505000D03*
D14*
X112395000Y-131445000D03*
X97155000Y-106045000D03*
X112395000Y-128905000D03*
X97155000Y-108585000D03*
X112395000Y-126365000D03*
X97155000Y-111125000D03*
X112395000Y-123825000D03*
X97155000Y-113665000D03*
X112395000Y-121285000D03*
X97155000Y-116205000D03*
X112395000Y-118745000D03*
X97155000Y-118745000D03*
X112395000Y-116205000D03*
X97155000Y-121285000D03*
X112395000Y-113665000D03*
X97155000Y-123825000D03*
X112395000Y-111125000D03*
X97155000Y-126365000D03*
X112395000Y-108585000D03*
X97155000Y-128905000D03*
X112395000Y-106045000D03*
X97155000Y-131445000D03*
X112395000Y-103505000D03*
D15*
X150495000Y-113665000D03*
D14*
X158115000Y-128905000D03*
X150495000Y-116205000D03*
X158115000Y-126365000D03*
X150495000Y-118745000D03*
X158115000Y-123825000D03*
X150495000Y-121285000D03*
X158115000Y-121285000D03*
X150495000Y-123825000D03*
X158115000Y-118745000D03*
X150495000Y-126365000D03*
X158115000Y-116205000D03*
X150495000Y-128905000D03*
X158115000Y-113665000D03*
D15*
X120015000Y-113665000D03*
D14*
X127635000Y-128905000D03*
X120015000Y-116205000D03*
X127635000Y-126365000D03*
X120015000Y-118745000D03*
X127635000Y-123825000D03*
X120015000Y-121285000D03*
X127635000Y-121285000D03*
X120015000Y-123825000D03*
X127635000Y-118745000D03*
X120015000Y-126365000D03*
X127635000Y-116205000D03*
X120015000Y-128905000D03*
X127635000Y-113665000D03*
D17*
X99695000Y-96520000D03*
X104575000Y-96520000D03*
D18*
X95885000Y-92710000D03*
X155575000Y-145415000D03*
X147320000Y-110490000D03*
X118745000Y-110490000D03*
X183515000Y-119380000D03*
X184150000Y-128905000D03*
X182880000Y-116840000D03*
X183515000Y-128270000D03*
X182880000Y-128905000D03*
X182245000Y-130175000D03*
X168275000Y-119380000D03*
X168275000Y-126365000D03*
X167640000Y-127000000D03*
X167640000Y-116840000D03*
X167005000Y-127635000D03*
X154940000Y-144780000D03*
X118110000Y-120650000D03*
X144780000Y-127635000D03*
X144780000Y-123190000D03*
X182245000Y-109855000D03*
X184785000Y-130810000D03*
X181610000Y-109220000D03*
X184150000Y-109855000D03*
X186055000Y-109855000D03*
X186690000Y-109220000D03*
X187325000Y-109855000D03*
X175895000Y-109855000D03*
X172085000Y-122555000D03*
X116840000Y-130810000D03*
X116840000Y-132080000D03*
X117475000Y-116840000D03*
X116840000Y-122555000D03*
X125095000Y-93345000D03*
X127000000Y-95250000D03*
X135890000Y-111125000D03*
X170815000Y-111125000D03*
X171450000Y-109855000D03*
X110490000Y-105410000D03*
X110490000Y-100330000D03*
X109220000Y-139065000D03*
X108585000Y-92710000D03*
X111760000Y-139065000D03*
X111125000Y-102235000D03*
X113665000Y-114935000D03*
X119380000Y-93345000D03*
X122555000Y-93345000D03*
X109855000Y-102235000D03*
X109855000Y-106045000D03*
X118745000Y-92710000D03*
X126365000Y-92710000D03*
X136525000Y-130175000D03*
X136525000Y-117475000D03*
X144145000Y-122555000D03*
X144145000Y-130175000D03*
D19*
X99695000Y-89535000D02*
X99060000Y-89535000D01*
X99060000Y-89535000D02*
X95885000Y-92710000D01*
X112395000Y-103505000D02*
X109855000Y-103505000D01*
X109220000Y-90170000D02*
X108585000Y-89535000D01*
X109220000Y-102870000D02*
X109220000Y-90170000D01*
X109855000Y-103505000D02*
X109220000Y-102870000D01*
X154305000Y-145415000D02*
X155575000Y-145415000D01*
X149860000Y-146050000D02*
X150495000Y-145415000D01*
X150495000Y-145415000D02*
X154305000Y-145415000D01*
X149860000Y-147320000D02*
X149860000Y-146050000D01*
X192405000Y-113665000D02*
X192405000Y-110490000D01*
X177165000Y-113665000D02*
X177165000Y-111125000D01*
X177165000Y-111125000D02*
X176530000Y-110490000D01*
X161925000Y-113665000D02*
X161925000Y-111125000D01*
X161925000Y-111125000D02*
X162560000Y-110490000D01*
X131445000Y-113665000D02*
X131445000Y-111125000D01*
X131445000Y-111125000D02*
X132080000Y-110490000D01*
X156210000Y-104775000D02*
X156210000Y-108585000D01*
X156210000Y-108585000D02*
X158750000Y-108585000D01*
X147320000Y-110490000D02*
X144780000Y-110490000D01*
X144780000Y-110490000D02*
X132080000Y-110490000D01*
X132080000Y-110490000D02*
X130810000Y-110490000D01*
X158750000Y-108585000D02*
X158750000Y-109855000D01*
X158750000Y-109855000D02*
X159385000Y-110490000D01*
X175260000Y-106680000D02*
X175260000Y-109220000D01*
X175260000Y-109220000D02*
X173990000Y-110490000D01*
X99695000Y-89535000D02*
X108585000Y-89535000D01*
X189230000Y-89535000D02*
X191770000Y-92075000D01*
X193040000Y-93980000D02*
X193040000Y-109855000D01*
X193040000Y-109855000D02*
X192405000Y-110490000D01*
X193040000Y-93345000D02*
X191770000Y-92075000D01*
X193040000Y-93980000D02*
X193040000Y-93345000D01*
X108585000Y-89535000D02*
X189230000Y-89535000D01*
X192405000Y-110490000D02*
X191770000Y-110490000D01*
X178435000Y-110490000D02*
X176530000Y-110490000D01*
X178435000Y-110490000D02*
X191770000Y-110490000D01*
X130810000Y-110490000D02*
X118745000Y-110490000D01*
X161290000Y-110490000D02*
X159385000Y-110490000D01*
X159385000Y-110490000D02*
X147320000Y-110490000D01*
X161290000Y-110490000D02*
X162560000Y-110490000D01*
X162560000Y-110490000D02*
X163195000Y-110490000D01*
X163195000Y-110490000D02*
X173990000Y-110490000D01*
X167640000Y-125095000D02*
X174625000Y-125095000D01*
X175260000Y-124460000D02*
X175260000Y-121920000D01*
X174625000Y-125095000D02*
X175260000Y-124460000D01*
X165735000Y-126365000D02*
X166370000Y-126365000D01*
X166370000Y-126365000D02*
X167640000Y-125095000D01*
X175260000Y-121920000D02*
X175260000Y-113665000D01*
X127635000Y-113665000D02*
X131445000Y-113665000D01*
X146685000Y-113665000D02*
X142875000Y-113665000D01*
X158115000Y-113665000D02*
X161925000Y-113665000D01*
X192405000Y-113665000D02*
X188595000Y-113665000D01*
X173355000Y-113665000D02*
X175260000Y-113665000D01*
X175260000Y-113665000D02*
X177165000Y-113665000D01*
X173990000Y-110490000D02*
X176530000Y-110490000D01*
X183515000Y-119380000D02*
X182880000Y-118745000D01*
X193040000Y-147320000D02*
X193040000Y-142240000D01*
X182880000Y-118745000D02*
X180975000Y-118745000D01*
X184150000Y-140970000D02*
X184150000Y-128905000D01*
X184785000Y-141605000D02*
X184150000Y-140970000D01*
X192405000Y-141605000D02*
X184785000Y-141605000D01*
X193040000Y-142240000D02*
X192405000Y-141605000D01*
X180975000Y-116205000D02*
X182245000Y-116205000D01*
X182245000Y-116205000D02*
X182880000Y-116840000D01*
X190500000Y-147320000D02*
X190500000Y-142875000D01*
X183515000Y-141605000D02*
X183515000Y-128270000D01*
X184150000Y-142240000D02*
X183515000Y-141605000D01*
X189865000Y-142240000D02*
X184150000Y-142240000D01*
X190500000Y-142875000D02*
X189865000Y-142240000D01*
X187960000Y-143510000D02*
X187325000Y-142875000D01*
X187325000Y-142875000D02*
X183515000Y-142875000D01*
X183515000Y-142875000D02*
X182880000Y-142240000D01*
X182880000Y-142240000D02*
X182880000Y-128905000D01*
X187960000Y-147320000D02*
X187960000Y-143510000D01*
X180975000Y-126365000D02*
X181610000Y-126365000D01*
X182245000Y-130175000D02*
X182245000Y-142875000D01*
X182245000Y-142875000D02*
X182880000Y-143510000D01*
X182880000Y-143510000D02*
X184785000Y-143510000D01*
X184785000Y-143510000D02*
X185420000Y-144145000D01*
X185420000Y-144145000D02*
X185420000Y-147320000D01*
X182880000Y-147320000D02*
X182880000Y-144780000D01*
X167640000Y-118745000D02*
X165735000Y-118745000D01*
X168275000Y-119380000D02*
X167640000Y-118745000D01*
X168275000Y-141605000D02*
X168275000Y-126365000D01*
X168910000Y-142240000D02*
X168275000Y-141605000D01*
X180340000Y-142240000D02*
X168910000Y-142240000D01*
X182880000Y-144780000D02*
X180340000Y-142240000D01*
X165735000Y-116205000D02*
X167005000Y-116205000D01*
X180340000Y-143510000D02*
X180340000Y-147320000D01*
X179705000Y-142875000D02*
X180340000Y-143510000D01*
X168275000Y-142875000D02*
X179705000Y-142875000D01*
X167640000Y-142240000D02*
X168275000Y-142875000D01*
X167640000Y-127000000D02*
X167640000Y-142240000D01*
X167005000Y-116205000D02*
X167640000Y-116840000D01*
X177800000Y-147320000D02*
X177800000Y-144145000D01*
X167005000Y-142875000D02*
X167005000Y-127635000D01*
X167640000Y-143510000D02*
X167005000Y-142875000D01*
X177165000Y-143510000D02*
X167640000Y-143510000D01*
X177800000Y-144145000D02*
X177165000Y-143510000D01*
X144145000Y-126365000D02*
X144780000Y-126365000D01*
X145415000Y-136525000D02*
X146050000Y-137160000D01*
X145415000Y-127000000D02*
X145415000Y-136525000D01*
X144780000Y-126365000D02*
X145415000Y-127000000D01*
X154940000Y-137795000D02*
X154940000Y-138430000D01*
X154305000Y-137160000D02*
X154940000Y-137795000D01*
X153670000Y-137160000D02*
X154305000Y-137160000D01*
X146050000Y-137160000D02*
X153670000Y-137160000D01*
X144145000Y-126365000D02*
X142875000Y-126365000D01*
X154940000Y-144780000D02*
X154940000Y-138430000D01*
X142875000Y-126365000D02*
X137795000Y-126365000D01*
X137795000Y-126365000D02*
X136525000Y-125095000D01*
X122555000Y-123825000D02*
X125095000Y-123825000D01*
X125095000Y-123825000D02*
X126365000Y-125095000D01*
X120015000Y-122555000D02*
X118745000Y-122555000D01*
X122555000Y-123825000D02*
X121285000Y-122555000D01*
X121285000Y-122555000D02*
X120015000Y-122555000D01*
X128905000Y-125095000D02*
X126365000Y-125095000D01*
X136525000Y-125095000D02*
X128905000Y-125095000D01*
X118110000Y-121920000D02*
X118110000Y-120650000D01*
X118745000Y-122555000D02*
X118110000Y-121920000D01*
X144780000Y-137160000D02*
X144780000Y-127635000D01*
X145415000Y-137795000D02*
X144780000Y-137160000D01*
X147320000Y-138430000D02*
X146685000Y-137795000D01*
X147320000Y-147320000D02*
X147320000Y-138430000D01*
X146685000Y-137795000D02*
X145415000Y-137795000D01*
X114300000Y-140335000D02*
X104140000Y-140335000D01*
X127000000Y-140970000D02*
X126365000Y-140335000D01*
X126365000Y-140335000D02*
X114300000Y-140335000D01*
X127000000Y-147320000D02*
X127000000Y-140970000D01*
X102870000Y-111125000D02*
X103505000Y-111760000D01*
X103505000Y-111760000D02*
X103505000Y-126365000D01*
X102870000Y-111125000D02*
X97155000Y-111125000D01*
X103505000Y-139700000D02*
X103505000Y-126365000D01*
X104140000Y-140335000D02*
X103505000Y-139700000D01*
X102870000Y-124460000D02*
X102870000Y-140335000D01*
X123825000Y-140970000D02*
X113665000Y-140970000D01*
X124460000Y-141605000D02*
X123825000Y-140970000D01*
X124460000Y-147320000D02*
X124460000Y-141605000D01*
X102870000Y-114935000D02*
X102870000Y-124460000D01*
X101600000Y-113665000D02*
X97155000Y-113665000D01*
X102870000Y-114300000D02*
X102235000Y-113665000D01*
X102235000Y-113665000D02*
X101600000Y-113665000D01*
X102870000Y-114935000D02*
X102870000Y-114300000D01*
X103505000Y-140970000D02*
X113665000Y-140970000D01*
X102870000Y-140335000D02*
X103505000Y-140970000D01*
X113030000Y-141605000D02*
X102870000Y-141605000D01*
X121285000Y-141605000D02*
X113030000Y-141605000D01*
X121920000Y-142240000D02*
X121285000Y-141605000D01*
X121920000Y-147320000D02*
X121920000Y-142240000D01*
X101600000Y-116205000D02*
X97155000Y-116205000D01*
X102235000Y-116840000D02*
X101600000Y-116205000D01*
X102235000Y-140970000D02*
X102235000Y-116840000D01*
X102870000Y-141605000D02*
X102235000Y-140970000D01*
X97155000Y-118745000D02*
X100965000Y-118745000D01*
X119380000Y-142875000D02*
X118745000Y-142240000D01*
X118745000Y-142240000D02*
X112395000Y-142240000D01*
X119380000Y-142875000D02*
X119380000Y-147320000D01*
X102235000Y-142240000D02*
X112395000Y-142240000D01*
X101600000Y-141605000D02*
X102235000Y-142240000D01*
X101600000Y-119380000D02*
X101600000Y-141605000D01*
X100965000Y-118745000D02*
X101600000Y-119380000D01*
X111760000Y-142875000D02*
X101600000Y-142875000D01*
X116840000Y-143510000D02*
X116205000Y-142875000D01*
X116205000Y-142875000D02*
X111760000Y-142875000D01*
X116840000Y-147320000D02*
X116840000Y-143510000D01*
X100330000Y-121285000D02*
X97155000Y-121285000D01*
X100965000Y-121920000D02*
X100330000Y-121285000D01*
X100965000Y-142240000D02*
X100965000Y-121920000D01*
X101600000Y-142875000D02*
X100965000Y-142240000D01*
X97155000Y-123825000D02*
X99695000Y-123825000D01*
X114300000Y-144145000D02*
X113665000Y-143510000D01*
X113665000Y-143510000D02*
X111125000Y-143510000D01*
X114300000Y-144145000D02*
X114300000Y-147320000D01*
X100965000Y-143510000D02*
X111125000Y-143510000D01*
X100330000Y-142875000D02*
X100965000Y-143510000D01*
X100330000Y-124460000D02*
X100330000Y-142875000D01*
X99695000Y-123825000D02*
X100330000Y-124460000D01*
X110490000Y-144145000D02*
X100330000Y-144145000D01*
X111760000Y-144780000D02*
X111125000Y-144145000D01*
X111125000Y-144145000D02*
X110490000Y-144145000D01*
X111760000Y-147320000D02*
X111760000Y-144780000D01*
X99060000Y-126365000D02*
X97155000Y-126365000D01*
X99695000Y-127000000D02*
X99060000Y-126365000D01*
X99695000Y-143510000D02*
X99695000Y-127000000D01*
X100330000Y-144145000D02*
X99695000Y-143510000D01*
X97155000Y-128905000D02*
X98425000Y-128905000D01*
X109220000Y-145415000D02*
X109220000Y-147320000D01*
X108585000Y-144780000D02*
X109220000Y-145415000D01*
X99695000Y-144780000D02*
X108585000Y-144780000D01*
X99060000Y-144145000D02*
X99695000Y-144780000D01*
X99060000Y-129540000D02*
X99060000Y-144145000D01*
X98425000Y-128905000D02*
X99060000Y-129540000D01*
X182245000Y-107315000D02*
X182245000Y-109855000D01*
X182245000Y-107315000D02*
X182245000Y-107950000D01*
X188595000Y-131445000D02*
X185420000Y-131445000D01*
X185420000Y-131445000D02*
X184785000Y-130810000D01*
X180975000Y-105410000D02*
X181610000Y-104775000D01*
X180975000Y-108585000D02*
X180975000Y-105410000D01*
X181610000Y-109220000D02*
X180975000Y-108585000D01*
X181610000Y-104775000D02*
X182245000Y-104775000D01*
X183515000Y-108585000D02*
X183515000Y-107950000D01*
X184150000Y-109220000D02*
X183515000Y-108585000D01*
X184150000Y-109855000D02*
X184150000Y-109220000D01*
X182245000Y-102235000D02*
X183515000Y-103505000D01*
X183515000Y-103505000D02*
X183515000Y-107950000D01*
X182245000Y-99695000D02*
X182880000Y-99695000D01*
X182880000Y-99695000D02*
X184150000Y-100965000D01*
X186055000Y-101600000D02*
X186055000Y-109855000D01*
X185420000Y-100965000D02*
X186055000Y-101600000D01*
X184150000Y-100965000D02*
X185420000Y-100965000D01*
X183515000Y-98425000D02*
X182245000Y-97155000D01*
X186055000Y-98425000D02*
X183515000Y-98425000D01*
X186690000Y-99060000D02*
X186055000Y-98425000D01*
X186690000Y-109220000D02*
X186690000Y-99060000D01*
X183515000Y-95885000D02*
X182245000Y-94615000D01*
X186690000Y-95885000D02*
X183515000Y-95885000D01*
X187325000Y-96520000D02*
X186690000Y-95885000D01*
X187325000Y-109855000D02*
X187325000Y-96520000D01*
X181610000Y-100965000D02*
X180975000Y-100965000D01*
X171450000Y-123825000D02*
X172085000Y-123190000D01*
X165735000Y-123825000D02*
X171450000Y-123825000D01*
X172085000Y-123190000D02*
X172085000Y-122555000D01*
X175895000Y-109855000D02*
X179070000Y-109855000D01*
X182880000Y-100965000D02*
X181610000Y-100965000D01*
X182880000Y-100965000D02*
X184150000Y-102235000D01*
X179705000Y-109855000D02*
X179070000Y-109855000D01*
X180340000Y-109220000D02*
X179705000Y-109855000D01*
X180340000Y-101600000D02*
X180340000Y-109220000D01*
X180975000Y-100965000D02*
X180340000Y-101600000D01*
X184785000Y-102235000D02*
X184150000Y-102235000D01*
X118745000Y-108585000D02*
X117475000Y-109855000D01*
X117475000Y-109855000D02*
X117475000Y-116840000D01*
X127635000Y-108585000D02*
X118745000Y-108585000D01*
X144780000Y-139065000D02*
X144780000Y-147320000D01*
X144145000Y-138430000D02*
X144780000Y-139065000D01*
X117475000Y-138430000D02*
X144145000Y-138430000D01*
X116840000Y-137795000D02*
X117475000Y-138430000D01*
X116840000Y-122555000D02*
X116840000Y-130810000D01*
X116840000Y-132080000D02*
X116840000Y-137795000D01*
X127635000Y-108585000D02*
X127635000Y-95885000D01*
X125095000Y-93345000D02*
X125095000Y-90805000D01*
X127635000Y-95885000D02*
X127000000Y-95250000D01*
X142875000Y-108585000D02*
X142875000Y-95250000D01*
X120015000Y-93345000D02*
X121285000Y-94615000D01*
X121285000Y-94615000D02*
X126365000Y-94615000D01*
X120015000Y-93345000D02*
X120015000Y-90805000D01*
X142240000Y-94615000D02*
X126365000Y-94615000D01*
X142875000Y-95250000D02*
X142240000Y-94615000D01*
X142875000Y-108585000D02*
X142875000Y-109220000D01*
X142875000Y-109220000D02*
X143510000Y-109855000D01*
X143510000Y-109855000D02*
X147955000Y-109855000D01*
X147955000Y-109855000D02*
X148590000Y-109220000D01*
X148590000Y-109220000D02*
X148590000Y-104775000D01*
X158115000Y-116205000D02*
X157480000Y-116205000D01*
X157480000Y-116205000D02*
X156845000Y-115570000D01*
X156210000Y-111125000D02*
X135890000Y-111125000D01*
X156845000Y-111760000D02*
X156210000Y-111125000D01*
X156845000Y-115570000D02*
X156845000Y-111760000D01*
X135255000Y-108585000D02*
X135255000Y-105410000D01*
X135890000Y-104775000D02*
X137795000Y-104775000D01*
X135255000Y-105410000D02*
X135890000Y-104775000D01*
X168910000Y-104775000D02*
X168910000Y-108585000D01*
X171450000Y-109855000D02*
X171450000Y-109220000D01*
X159385000Y-114935000D02*
X163195000Y-114935000D01*
X163195000Y-114935000D02*
X163830000Y-114300000D01*
X163830000Y-114300000D02*
X163830000Y-111760000D01*
X163830000Y-111760000D02*
X164465000Y-111125000D01*
X164465000Y-111125000D02*
X170815000Y-111125000D01*
X158115000Y-116205000D02*
X159385000Y-114935000D01*
X171450000Y-109220000D02*
X170815000Y-108585000D01*
X172760000Y-106680000D02*
X172085000Y-106680000D01*
X172085000Y-106680000D02*
X171450000Y-107315000D01*
X171450000Y-107315000D02*
X171450000Y-107950000D01*
X171450000Y-107950000D02*
X170815000Y-108585000D01*
X170815000Y-108585000D02*
X168910000Y-108585000D01*
X112395000Y-106045000D02*
X111125000Y-106045000D01*
X111760000Y-92075000D02*
X110490000Y-90805000D01*
X111760000Y-94615000D02*
X111760000Y-92075000D01*
X110490000Y-95885000D02*
X111760000Y-94615000D01*
X110490000Y-100330000D02*
X110490000Y-95885000D01*
X111125000Y-106045000D02*
X110490000Y-105410000D01*
X108585000Y-138430000D02*
X109220000Y-139065000D01*
X108585000Y-92710000D02*
X108585000Y-138430000D01*
X139700000Y-147320000D02*
X139700000Y-139700000D01*
X139065000Y-139065000D02*
X111760000Y-139065000D01*
X139700000Y-139700000D02*
X139065000Y-139065000D01*
X127635000Y-121285000D02*
X122555000Y-121285000D01*
X122555000Y-121285000D02*
X121285000Y-120015000D01*
X110490000Y-135255000D02*
X110490000Y-139065000D01*
X111125000Y-139700000D02*
X114935000Y-139700000D01*
X110490000Y-139065000D02*
X111125000Y-139700000D01*
X127000000Y-139700000D02*
X114935000Y-139700000D01*
X113665000Y-126365000D02*
X112395000Y-126365000D01*
X114300000Y-127000000D02*
X113665000Y-126365000D01*
X114300000Y-129540000D02*
X114300000Y-127000000D01*
X113665000Y-130175000D02*
X114300000Y-129540000D01*
X111125000Y-130175000D02*
X113665000Y-130175000D01*
X110490000Y-130810000D02*
X111125000Y-130175000D01*
X110490000Y-135255000D02*
X110490000Y-130810000D01*
X114935000Y-120015000D02*
X121285000Y-120015000D01*
X111125000Y-126365000D02*
X110490000Y-125730000D01*
X110490000Y-125730000D02*
X110490000Y-120650000D01*
X110490000Y-120650000D02*
X111125000Y-120015000D01*
X111125000Y-120015000D02*
X114935000Y-120015000D01*
X112395000Y-126365000D02*
X111125000Y-126365000D01*
X134620000Y-140335000D02*
X133985000Y-139700000D01*
X133985000Y-139700000D02*
X127635000Y-139700000D01*
X134620000Y-140335000D02*
X134620000Y-147320000D01*
X127635000Y-139700000D02*
X127000000Y-139700000D01*
X117475000Y-100965000D02*
X117475000Y-99695000D01*
X116840000Y-101600000D02*
X117475000Y-100965000D01*
X111760000Y-101600000D02*
X116840000Y-101600000D01*
X111125000Y-102235000D02*
X111760000Y-101600000D01*
X116840000Y-90805000D02*
X115570000Y-90805000D01*
X117475000Y-91440000D02*
X116840000Y-90805000D01*
X117475000Y-99695000D02*
X117475000Y-91440000D01*
X113665000Y-114935000D02*
X113665000Y-112395000D01*
X113665000Y-112395000D02*
X114935000Y-111125000D01*
X114935000Y-111125000D02*
X114935000Y-105410000D01*
X114935000Y-105410000D02*
X115570000Y-104775000D01*
X115570000Y-104775000D02*
X118110000Y-104775000D01*
X118110000Y-104775000D02*
X118745000Y-104140000D01*
X118745000Y-104140000D02*
X118745000Y-93980000D01*
X118745000Y-93980000D02*
X119380000Y-93345000D01*
X122555000Y-90805000D02*
X122555000Y-93345000D01*
X144145000Y-107315000D02*
X145415000Y-108585000D01*
X144145000Y-94615000D02*
X144145000Y-107315000D01*
X143510000Y-93980000D02*
X144145000Y-94615000D01*
X123190000Y-93980000D02*
X143510000Y-93980000D01*
X122555000Y-93345000D02*
X123190000Y-93980000D01*
X145415000Y-108585000D02*
X146050000Y-108585000D01*
X112395000Y-116205000D02*
X111125000Y-116205000D01*
X113030000Y-94615000D02*
X113030000Y-93345000D01*
X111760000Y-95885000D02*
X113030000Y-94615000D01*
X111760000Y-100330000D02*
X111760000Y-95885000D01*
X109855000Y-102235000D02*
X111760000Y-100330000D01*
X110490000Y-106680000D02*
X109855000Y-106045000D01*
X110490000Y-115570000D02*
X110490000Y-106680000D01*
X111125000Y-116205000D02*
X110490000Y-115570000D01*
X114300000Y-105410000D02*
X114300000Y-102870000D01*
X117475000Y-102235000D02*
X118110000Y-101600000D01*
X114935000Y-102235000D02*
X117475000Y-102235000D01*
X114300000Y-102870000D02*
X114935000Y-102235000D01*
X112395000Y-111125000D02*
X113665000Y-111125000D01*
X118110000Y-101600000D02*
X118110000Y-100330000D01*
X114300000Y-110490000D02*
X114300000Y-105410000D01*
X113665000Y-111125000D02*
X114300000Y-110490000D01*
X118110000Y-93345000D02*
X118745000Y-92710000D01*
X118110000Y-100330000D02*
X118110000Y-93345000D01*
X170815000Y-94615000D02*
X177315000Y-94615000D01*
X160020000Y-92710000D02*
X168910000Y-92710000D01*
X126365000Y-92710000D02*
X160020000Y-92710000D01*
X168910000Y-92710000D02*
X170815000Y-94615000D01*
X121920000Y-125095000D02*
X125095000Y-125095000D01*
X125095000Y-125095000D02*
X126365000Y-126365000D01*
X127635000Y-126365000D02*
X126365000Y-126365000D01*
X127635000Y-126365000D02*
X128905000Y-127635000D01*
X141605000Y-127635000D02*
X142875000Y-128905000D01*
X128905000Y-127635000D02*
X141605000Y-127635000D01*
X120015000Y-123825000D02*
X120650000Y-123825000D01*
X120650000Y-123825000D02*
X121920000Y-125095000D01*
X129540000Y-120015000D02*
X140970000Y-120015000D01*
X141605000Y-120650000D02*
X141605000Y-122555000D01*
X140970000Y-120015000D02*
X141605000Y-120650000D01*
X142875000Y-123825000D02*
X141605000Y-122555000D01*
X120015000Y-118745000D02*
X121285000Y-118745000D01*
X121285000Y-118745000D02*
X122555000Y-120015000D01*
X122555000Y-120015000D02*
X129540000Y-120015000D01*
X142875000Y-116205000D02*
X137160000Y-116205000D01*
X127635000Y-130175000D02*
X127635000Y-128905000D01*
X128270000Y-130810000D02*
X127635000Y-130175000D01*
X135890000Y-130810000D02*
X128270000Y-130810000D01*
X136525000Y-130175000D02*
X135890000Y-130810000D01*
X136525000Y-116840000D02*
X136525000Y-117475000D01*
X137160000Y-116205000D02*
X136525000Y-116840000D01*
X112395000Y-131445000D02*
X117475000Y-131445000D01*
X156845000Y-120015000D02*
X144780000Y-120015000D01*
X144780000Y-120015000D02*
X144145000Y-120650000D01*
X144145000Y-120650000D02*
X144145000Y-122555000D01*
X144145000Y-130175000D02*
X144145000Y-130810000D01*
X144145000Y-130810000D02*
X143510000Y-131445000D01*
X143510000Y-131445000D02*
X117475000Y-131445000D01*
X156845000Y-120015000D02*
X158115000Y-118745000D01*
X97155000Y-106045000D02*
X99060000Y-106045000D01*
X99695000Y-105410000D02*
X99695000Y-96520000D01*
X99060000Y-106045000D02*
X99695000Y-105410000D01*
X112395000Y-128905000D02*
X110490000Y-128905000D01*
X126365000Y-117475000D02*
X127635000Y-118745000D01*
X110490000Y-117475000D02*
X126365000Y-117475000D01*
X109855000Y-118110000D02*
X110490000Y-117475000D01*
X109855000Y-128270000D02*
X109855000Y-118110000D01*
X110490000Y-128905000D02*
X109855000Y-128270000D01*
X97155000Y-108585000D02*
X104140000Y-108585000D01*
X104575000Y-108150000D02*
X104575000Y-96520000D01*
X104140000Y-108585000D02*
X104575000Y-108150000D01*
X120015000Y-126365000D02*
X118110000Y-126365000D01*
X117475000Y-121920000D02*
X116840000Y-121285000D01*
X117475000Y-125730000D02*
X117475000Y-121920000D01*
X118110000Y-126365000D02*
X117475000Y-125730000D01*
X112395000Y-121285000D02*
X116840000Y-121285000D01*
X140970000Y-123825000D02*
X140970000Y-124460000D01*
X129540000Y-122555000D02*
X140335000Y-122555000D01*
X140335000Y-122555000D02*
X140970000Y-123190000D01*
X140970000Y-123190000D02*
X140970000Y-123825000D01*
X128270000Y-123825000D02*
X129540000Y-122555000D01*
X172085000Y-120015000D02*
X173355000Y-118745000D01*
X164465000Y-120015000D02*
X172085000Y-120015000D01*
X163830000Y-120650000D02*
X164465000Y-120015000D01*
X163830000Y-124460000D02*
X163830000Y-120650000D01*
X163195000Y-125095000D02*
X163830000Y-124460000D01*
X141605000Y-125095000D02*
X163195000Y-125095000D01*
X140970000Y-124460000D02*
X141605000Y-125095000D01*
X127635000Y-123825000D02*
X128270000Y-123825000D01*
X127635000Y-123825000D02*
X126365000Y-123825000D01*
X126365000Y-123825000D02*
X125095000Y-122555000D01*
X120015000Y-121285000D02*
X121285000Y-121285000D01*
X122555000Y-122555000D02*
X125095000Y-122555000D01*
X121285000Y-121285000D02*
X122555000Y-122555000D01*
X120015000Y-121285000D02*
X120650000Y-121285000D01*
M02*
