G04 #@! TF.FileFunction,Soldermask,Top*
%FSLAX46Y46*%
G04 Gerber Fmt 4.6, Leading zero omitted, Abs format (unit mm)*
G04 Created by KiCad (PCBNEW 4.0.7) date 09/25/19 15:54:21*
%MOMM*%
%LPD*%
G01*
G04 APERTURE LIST*
%ADD10C,0.100000*%
%ADD11C,2.000000*%
%ADD12R,2.100000X2.100000*%
%ADD13O,2.100000X2.100000*%
%ADD14O,2.000000X2.000000*%
%ADD15R,2.000000X2.000000*%
%ADD16C,2.400000*%
%ADD17C,1.900000*%
G04 APERTURE END LIST*
D10*
D11*
X146685000Y-113665000D03*
X146685000Y-118665000D03*
X116205000Y-103505000D03*
X116205000Y-108505000D03*
X161925000Y-113665000D03*
X161925000Y-118665000D03*
X131445000Y-113665000D03*
X131445000Y-118665000D03*
X192405000Y-113665000D03*
X192405000Y-118665000D03*
X177165000Y-113665000D03*
X177165000Y-118665000D03*
X142875000Y-108585000D03*
X137875000Y-108585000D03*
D12*
X193040000Y-147320000D03*
D13*
X190500000Y-147320000D03*
X187960000Y-147320000D03*
X185420000Y-147320000D03*
X182880000Y-147320000D03*
X180340000Y-147320000D03*
X177800000Y-147320000D03*
X175260000Y-147320000D03*
X172720000Y-147320000D03*
X170180000Y-147320000D03*
X167640000Y-147320000D03*
X165100000Y-147320000D03*
X162560000Y-147320000D03*
X160020000Y-147320000D03*
X157480000Y-147320000D03*
X154940000Y-147320000D03*
X152400000Y-147320000D03*
X149860000Y-147320000D03*
X147320000Y-147320000D03*
X144780000Y-147320000D03*
X142240000Y-147320000D03*
X139700000Y-147320000D03*
X137160000Y-147320000D03*
X134620000Y-147320000D03*
X132080000Y-147320000D03*
X129540000Y-147320000D03*
X127000000Y-147320000D03*
X124460000Y-147320000D03*
X121920000Y-147320000D03*
X119380000Y-147320000D03*
X116840000Y-147320000D03*
X114300000Y-147320000D03*
X111760000Y-147320000D03*
X109220000Y-147320000D03*
X106680000Y-147320000D03*
X104140000Y-147320000D03*
X101600000Y-147320000D03*
X99060000Y-147320000D03*
X96520000Y-147320000D03*
D11*
X156210000Y-108585000D03*
D14*
X146050000Y-108585000D03*
D11*
X158750000Y-108585000D03*
D14*
X168910000Y-108585000D03*
D11*
X168910000Y-104775000D03*
D14*
X158750000Y-104775000D03*
D15*
X180975000Y-113665000D03*
D14*
X188595000Y-131445000D03*
X180975000Y-116205000D03*
X188595000Y-128905000D03*
X180975000Y-118745000D03*
X188595000Y-126365000D03*
X180975000Y-121285000D03*
X188595000Y-123825000D03*
X180975000Y-123825000D03*
X188595000Y-121285000D03*
X180975000Y-126365000D03*
X188595000Y-118745000D03*
X180975000Y-128905000D03*
X188595000Y-116205000D03*
X180975000Y-131445000D03*
X188595000Y-113665000D03*
D15*
X165735000Y-113665000D03*
D14*
X173355000Y-131445000D03*
X165735000Y-116205000D03*
X173355000Y-128905000D03*
X165735000Y-118745000D03*
X173355000Y-126365000D03*
X165735000Y-121285000D03*
X173355000Y-123825000D03*
X165735000Y-123825000D03*
X173355000Y-121285000D03*
X165735000Y-126365000D03*
X173355000Y-118745000D03*
X165735000Y-128905000D03*
X173355000Y-116205000D03*
X165735000Y-131445000D03*
X173355000Y-113665000D03*
D12*
X182245000Y-94615000D03*
D13*
X184785000Y-94615000D03*
X182245000Y-97155000D03*
X184785000Y-97155000D03*
X182245000Y-99695000D03*
X184785000Y-99695000D03*
X182245000Y-102235000D03*
X184785000Y-102235000D03*
X182245000Y-104775000D03*
X184785000Y-104775000D03*
X182245000Y-107315000D03*
X184785000Y-107315000D03*
D15*
X175260000Y-106680000D03*
D11*
X172760000Y-106680000D03*
D15*
X156210000Y-104775000D03*
D14*
X148590000Y-104775000D03*
D15*
X127635000Y-108585000D03*
D14*
X135255000Y-108585000D03*
D15*
X137795000Y-104775000D03*
D14*
X145415000Y-104775000D03*
D12*
X110490000Y-90805000D03*
D13*
X110490000Y-93345000D03*
D12*
X115570000Y-90805000D03*
D13*
X115570000Y-93345000D03*
D12*
X120015000Y-90805000D03*
D13*
X122555000Y-90805000D03*
X125095000Y-90805000D03*
D12*
X113030000Y-90805000D03*
D13*
X113030000Y-93345000D03*
D16*
X170815000Y-99115000D03*
X170815000Y-94615000D03*
X177315000Y-99115000D03*
X177315000Y-94615000D03*
D15*
X135255000Y-113665000D03*
D14*
X142875000Y-128905000D03*
X135255000Y-116205000D03*
X142875000Y-126365000D03*
X135255000Y-118745000D03*
X142875000Y-123825000D03*
X135255000Y-121285000D03*
X142875000Y-121285000D03*
X135255000Y-123825000D03*
X142875000Y-118745000D03*
X135255000Y-126365000D03*
X142875000Y-116205000D03*
X135255000Y-128905000D03*
X142875000Y-113665000D03*
D15*
X97155000Y-103505000D03*
D14*
X112395000Y-131445000D03*
X97155000Y-106045000D03*
X112395000Y-128905000D03*
X97155000Y-108585000D03*
X112395000Y-126365000D03*
X97155000Y-111125000D03*
X112395000Y-123825000D03*
X97155000Y-113665000D03*
X112395000Y-121285000D03*
X97155000Y-116205000D03*
X112395000Y-118745000D03*
X97155000Y-118745000D03*
X112395000Y-116205000D03*
X97155000Y-121285000D03*
X112395000Y-113665000D03*
X97155000Y-123825000D03*
X112395000Y-111125000D03*
X97155000Y-126365000D03*
X112395000Y-108585000D03*
X97155000Y-128905000D03*
X112395000Y-106045000D03*
X97155000Y-131445000D03*
X112395000Y-103505000D03*
D15*
X150495000Y-113665000D03*
D14*
X158115000Y-128905000D03*
X150495000Y-116205000D03*
X158115000Y-126365000D03*
X150495000Y-118745000D03*
X158115000Y-123825000D03*
X150495000Y-121285000D03*
X158115000Y-121285000D03*
X150495000Y-123825000D03*
X158115000Y-118745000D03*
X150495000Y-126365000D03*
X158115000Y-116205000D03*
X150495000Y-128905000D03*
X158115000Y-113665000D03*
D15*
X120015000Y-113665000D03*
D14*
X127635000Y-128905000D03*
X120015000Y-116205000D03*
X127635000Y-126365000D03*
X120015000Y-118745000D03*
X127635000Y-123825000D03*
X120015000Y-121285000D03*
X127635000Y-121285000D03*
X120015000Y-123825000D03*
X127635000Y-118745000D03*
X120015000Y-126365000D03*
X127635000Y-116205000D03*
X120015000Y-128905000D03*
X127635000Y-113665000D03*
D17*
X99695000Y-96520000D03*
X104575000Y-96520000D03*
M02*
