G04 #@! TF.FileFunction,Legend,Bot*
%FSLAX46Y46*%
G04 Gerber Fmt 4.6, Leading zero omitted, Abs format (unit mm)*
G04 Created by KiCad (PCBNEW 4.0.7) date 09/25/19 15:54:21*
%MOMM*%
%LPD*%
G01*
G04 APERTURE LIST*
%ADD10C,0.100000*%
%ADD11C,0.200000*%
%ADD12C,0.150000*%
G04 APERTURE END LIST*
D10*
D11*
X130175000Y-97155000D02*
X129540000Y-97155000D01*
X130175000Y-102235000D02*
X130175000Y-97155000D01*
X129540000Y-102235000D02*
X130175000Y-102235000D01*
X117475000Y-97155000D02*
X129540000Y-97155000D01*
X114300000Y-102235000D02*
X129540000Y-102235000D01*
X114300000Y-101600000D02*
X114300000Y-102235000D01*
X117475000Y-100965000D02*
X117475000Y-97155000D01*
X116840000Y-100965000D02*
X117475000Y-100965000D01*
X116840000Y-100330000D02*
X116840000Y-100965000D01*
X114300000Y-100965000D02*
X114300000Y-101600000D01*
D10*
X129177382Y-98718810D02*
X129063096Y-98756905D01*
X128872620Y-98756905D01*
X128796430Y-98718810D01*
X128758334Y-98680714D01*
X128720239Y-98604524D01*
X128720239Y-98528333D01*
X128758334Y-98452143D01*
X128796430Y-98414048D01*
X128872620Y-98375952D01*
X129025001Y-98337857D01*
X129101192Y-98299762D01*
X129139287Y-98261667D01*
X129177382Y-98185476D01*
X129177382Y-98109286D01*
X129139287Y-98033095D01*
X129101192Y-97995000D01*
X129025001Y-97956905D01*
X128834525Y-97956905D01*
X128720239Y-97995000D01*
X128377382Y-98756905D02*
X128377382Y-97956905D01*
X128034525Y-98756905D02*
X128034525Y-98337857D01*
X128072620Y-98261667D01*
X128148810Y-98223571D01*
X128263096Y-98223571D01*
X128339287Y-98261667D01*
X128377382Y-98299762D01*
X127539286Y-98756905D02*
X127615477Y-98718810D01*
X127653572Y-98680714D01*
X127691667Y-98604524D01*
X127691667Y-98375952D01*
X127653572Y-98299762D01*
X127615477Y-98261667D01*
X127539286Y-98223571D01*
X127425000Y-98223571D01*
X127348810Y-98261667D01*
X127310715Y-98299762D01*
X127272619Y-98375952D01*
X127272619Y-98604524D01*
X127310715Y-98680714D01*
X127348810Y-98718810D01*
X127425000Y-98756905D01*
X127539286Y-98756905D01*
X126929762Y-98756905D02*
X126929762Y-98223571D01*
X126929762Y-98375952D02*
X126891667Y-98299762D01*
X126853571Y-98261667D01*
X126777381Y-98223571D01*
X126701190Y-98223571D01*
X126548810Y-98223571D02*
X126244048Y-98223571D01*
X126434524Y-97956905D02*
X126434524Y-98642619D01*
X126396429Y-98718810D01*
X126320238Y-98756905D01*
X126244048Y-98756905D01*
X125367857Y-98756905D02*
X125367857Y-97956905D01*
X125367857Y-98261667D02*
X125291666Y-98223571D01*
X125139285Y-98223571D01*
X125063095Y-98261667D01*
X125025000Y-98299762D01*
X124986904Y-98375952D01*
X124986904Y-98604524D01*
X125025000Y-98680714D01*
X125063095Y-98718810D01*
X125139285Y-98756905D01*
X125291666Y-98756905D01*
X125367857Y-98718810D01*
X124301190Y-98756905D02*
X124301190Y-98337857D01*
X124339285Y-98261667D01*
X124415475Y-98223571D01*
X124567856Y-98223571D01*
X124644047Y-98261667D01*
X124301190Y-98718810D02*
X124377380Y-98756905D01*
X124567856Y-98756905D01*
X124644047Y-98718810D01*
X124682142Y-98642619D01*
X124682142Y-98566429D01*
X124644047Y-98490238D01*
X124567856Y-98452143D01*
X124377380Y-98452143D01*
X124301190Y-98414048D01*
X124034523Y-98223571D02*
X123729761Y-98223571D01*
X123920237Y-97956905D02*
X123920237Y-98642619D01*
X123882142Y-98718810D01*
X123805951Y-98756905D01*
X123729761Y-98756905D01*
X123577380Y-98223571D02*
X123272618Y-98223571D01*
X123463094Y-97956905D02*
X123463094Y-98642619D01*
X123424999Y-98718810D01*
X123348808Y-98756905D01*
X123272618Y-98756905D01*
X122701189Y-98718810D02*
X122777379Y-98756905D01*
X122929760Y-98756905D01*
X123005951Y-98718810D01*
X123044046Y-98642619D01*
X123044046Y-98337857D01*
X123005951Y-98261667D01*
X122929760Y-98223571D01*
X122777379Y-98223571D01*
X122701189Y-98261667D01*
X122663094Y-98337857D01*
X122663094Y-98414048D01*
X123044046Y-98490238D01*
X122320237Y-98756905D02*
X122320237Y-98223571D01*
X122320237Y-98375952D02*
X122282142Y-98299762D01*
X122244046Y-98261667D01*
X122167856Y-98223571D01*
X122091665Y-98223571D01*
X121901189Y-98223571D02*
X121710713Y-98756905D01*
X121520237Y-98223571D02*
X121710713Y-98756905D01*
X121786904Y-98947381D01*
X121824999Y-98985476D01*
X121901189Y-99023571D01*
X120605951Y-98223571D02*
X120605951Y-99023571D01*
X120605951Y-98261667D02*
X120529760Y-98223571D01*
X120377379Y-98223571D01*
X120301189Y-98261667D01*
X120263094Y-98299762D01*
X120224998Y-98375952D01*
X120224998Y-98604524D01*
X120263094Y-98680714D01*
X120301189Y-98718810D01*
X120377379Y-98756905D01*
X120529760Y-98756905D01*
X120605951Y-98718810D01*
X119882141Y-98756905D02*
X119882141Y-98223571D01*
X119882141Y-97956905D02*
X119920236Y-97995000D01*
X119882141Y-98033095D01*
X119844046Y-97995000D01*
X119882141Y-97956905D01*
X119882141Y-98033095D01*
X119501189Y-98223571D02*
X119501189Y-98756905D01*
X119501189Y-98299762D02*
X119463094Y-98261667D01*
X119386903Y-98223571D01*
X119272617Y-98223571D01*
X119196427Y-98261667D01*
X119158332Y-98337857D01*
X119158332Y-98756905D01*
X118815474Y-98718810D02*
X118739284Y-98756905D01*
X118586903Y-98756905D01*
X118510712Y-98718810D01*
X118472617Y-98642619D01*
X118472617Y-98604524D01*
X118510712Y-98528333D01*
X118586903Y-98490238D01*
X118701188Y-98490238D01*
X118777379Y-98452143D01*
X118815474Y-98375952D01*
X118815474Y-98337857D01*
X118777379Y-98261667D01*
X118701188Y-98223571D01*
X118586903Y-98223571D01*
X118510712Y-98261667D01*
X129082144Y-99523571D02*
X128929763Y-100056905D01*
X128777382Y-99675952D01*
X128625001Y-100056905D01*
X128472620Y-99523571D01*
X128167859Y-100056905D02*
X128167859Y-99256905D01*
X127825002Y-100056905D02*
X127825002Y-99637857D01*
X127863097Y-99561667D01*
X127939287Y-99523571D01*
X128053573Y-99523571D01*
X128129764Y-99561667D01*
X128167859Y-99599762D01*
X127139287Y-100018810D02*
X127215477Y-100056905D01*
X127367858Y-100056905D01*
X127444049Y-100018810D01*
X127482144Y-99942619D01*
X127482144Y-99637857D01*
X127444049Y-99561667D01*
X127367858Y-99523571D01*
X127215477Y-99523571D01*
X127139287Y-99561667D01*
X127101192Y-99637857D01*
X127101192Y-99714048D01*
X127482144Y-99790238D01*
X126758335Y-99523571D02*
X126758335Y-100056905D01*
X126758335Y-99599762D02*
X126720240Y-99561667D01*
X126644049Y-99523571D01*
X126529763Y-99523571D01*
X126453573Y-99561667D01*
X126415478Y-99637857D01*
X126415478Y-100056905D01*
X124967858Y-99980714D02*
X125005953Y-100018810D01*
X125120239Y-100056905D01*
X125196429Y-100056905D01*
X125310715Y-100018810D01*
X125386906Y-99942619D01*
X125425001Y-99866429D01*
X125463096Y-99714048D01*
X125463096Y-99599762D01*
X125425001Y-99447381D01*
X125386906Y-99371190D01*
X125310715Y-99295000D01*
X125196429Y-99256905D01*
X125120239Y-99256905D01*
X125005953Y-99295000D01*
X124967858Y-99333095D01*
X124167858Y-100056905D02*
X124434525Y-99675952D01*
X124625001Y-100056905D02*
X124625001Y-99256905D01*
X124320239Y-99256905D01*
X124244048Y-99295000D01*
X124205953Y-99333095D01*
X124167858Y-99409286D01*
X124167858Y-99523571D01*
X124205953Y-99599762D01*
X124244048Y-99637857D01*
X124320239Y-99675952D01*
X124625001Y-99675952D01*
X123863096Y-99333095D02*
X123825001Y-99295000D01*
X123748810Y-99256905D01*
X123558334Y-99256905D01*
X123482144Y-99295000D01*
X123444048Y-99333095D01*
X123405953Y-99409286D01*
X123405953Y-99485476D01*
X123444048Y-99599762D01*
X123901191Y-100056905D01*
X123405953Y-100056905D01*
X122910715Y-99256905D02*
X122834524Y-99256905D01*
X122758334Y-99295000D01*
X122720239Y-99333095D01*
X122682143Y-99409286D01*
X122644048Y-99561667D01*
X122644048Y-99752143D01*
X122682143Y-99904524D01*
X122720239Y-99980714D01*
X122758334Y-100018810D01*
X122834524Y-100056905D01*
X122910715Y-100056905D01*
X122986905Y-100018810D01*
X123025001Y-99980714D01*
X123063096Y-99904524D01*
X123101191Y-99752143D01*
X123101191Y-99561667D01*
X123063096Y-99409286D01*
X123025001Y-99333095D01*
X122986905Y-99295000D01*
X122910715Y-99256905D01*
X122377381Y-99256905D02*
X121882143Y-99256905D01*
X122148810Y-99561667D01*
X122034524Y-99561667D01*
X121958334Y-99599762D01*
X121920238Y-99637857D01*
X121882143Y-99714048D01*
X121882143Y-99904524D01*
X121920238Y-99980714D01*
X121958334Y-100018810D01*
X122034524Y-100056905D01*
X122263096Y-100056905D01*
X122339286Y-100018810D01*
X122377381Y-99980714D01*
X121577381Y-99333095D02*
X121539286Y-99295000D01*
X121463095Y-99256905D01*
X121272619Y-99256905D01*
X121196429Y-99295000D01*
X121158333Y-99333095D01*
X121120238Y-99409286D01*
X121120238Y-99485476D01*
X121158333Y-99599762D01*
X121615476Y-100056905D01*
X121120238Y-100056905D01*
X120167857Y-99523571D02*
X120167857Y-100056905D01*
X120167857Y-99599762D02*
X120129762Y-99561667D01*
X120053571Y-99523571D01*
X119939285Y-99523571D01*
X119863095Y-99561667D01*
X119825000Y-99637857D01*
X119825000Y-100056905D01*
X119329761Y-100056905D02*
X119405952Y-100018810D01*
X119444047Y-99980714D01*
X119482142Y-99904524D01*
X119482142Y-99675952D01*
X119444047Y-99599762D01*
X119405952Y-99561667D01*
X119329761Y-99523571D01*
X119215475Y-99523571D01*
X119139285Y-99561667D01*
X119101190Y-99599762D01*
X119063094Y-99675952D01*
X119063094Y-99904524D01*
X119101190Y-99980714D01*
X119139285Y-100018810D01*
X119215475Y-100056905D01*
X119329761Y-100056905D01*
X118834523Y-99523571D02*
X118529761Y-99523571D01*
X118720237Y-99256905D02*
X118720237Y-99942619D01*
X118682142Y-100018810D01*
X118605951Y-100056905D01*
X118529761Y-100056905D01*
X126415477Y-101356905D02*
X126415477Y-100823571D01*
X126415477Y-100556905D02*
X126453572Y-100595000D01*
X126415477Y-100633095D01*
X126377382Y-100595000D01*
X126415477Y-100556905D01*
X126415477Y-100633095D01*
X126034525Y-100823571D02*
X126034525Y-101356905D01*
X126034525Y-100899762D02*
X125996430Y-100861667D01*
X125920239Y-100823571D01*
X125805953Y-100823571D01*
X125729763Y-100861667D01*
X125691668Y-100937857D01*
X125691668Y-101356905D01*
X125348810Y-101318810D02*
X125272620Y-101356905D01*
X125120239Y-101356905D01*
X125044048Y-101318810D01*
X125005953Y-101242619D01*
X125005953Y-101204524D01*
X125044048Y-101128333D01*
X125120239Y-101090238D01*
X125234524Y-101090238D01*
X125310715Y-101052143D01*
X125348810Y-100975952D01*
X125348810Y-100937857D01*
X125310715Y-100861667D01*
X125234524Y-100823571D01*
X125120239Y-100823571D01*
X125044048Y-100861667D01*
X124777382Y-100823571D02*
X124472620Y-100823571D01*
X124663096Y-100556905D02*
X124663096Y-101242619D01*
X124625001Y-101318810D01*
X124548810Y-101356905D01*
X124472620Y-101356905D01*
X123863096Y-101356905D02*
X123863096Y-100937857D01*
X123901191Y-100861667D01*
X123977381Y-100823571D01*
X124129762Y-100823571D01*
X124205953Y-100861667D01*
X123863096Y-101318810D02*
X123939286Y-101356905D01*
X124129762Y-101356905D01*
X124205953Y-101318810D01*
X124244048Y-101242619D01*
X124244048Y-101166429D01*
X124205953Y-101090238D01*
X124129762Y-101052143D01*
X123939286Y-101052143D01*
X123863096Y-101014048D01*
X123367857Y-101356905D02*
X123444048Y-101318810D01*
X123482143Y-101242619D01*
X123482143Y-100556905D01*
X122948809Y-101356905D02*
X123025000Y-101318810D01*
X123063095Y-101242619D01*
X123063095Y-100556905D01*
X122339285Y-101318810D02*
X122415475Y-101356905D01*
X122567856Y-101356905D01*
X122644047Y-101318810D01*
X122682142Y-101242619D01*
X122682142Y-100937857D01*
X122644047Y-100861667D01*
X122567856Y-100823571D01*
X122415475Y-100823571D01*
X122339285Y-100861667D01*
X122301190Y-100937857D01*
X122301190Y-101014048D01*
X122682142Y-101090238D01*
X121615476Y-101356905D02*
X121615476Y-100556905D01*
X121615476Y-101318810D02*
X121691666Y-101356905D01*
X121844047Y-101356905D01*
X121920238Y-101318810D01*
X121958333Y-101280714D01*
X121996428Y-101204524D01*
X121996428Y-100975952D01*
X121958333Y-100899762D01*
X121920238Y-100861667D01*
X121844047Y-100823571D01*
X121691666Y-100823571D01*
X121615476Y-100861667D01*
X121234523Y-101280714D02*
X121196428Y-101318810D01*
X121234523Y-101356905D01*
X121272618Y-101318810D01*
X121234523Y-101280714D01*
X121234523Y-101356905D01*
D11*
X122555000Y-92075000D02*
X122555000Y-91440000D01*
X120015000Y-92075000D02*
X122555000Y-92075000D01*
X120015000Y-91440000D02*
X120015000Y-92075000D01*
D10*
X190982619Y-108273810D02*
X190868333Y-108311905D01*
X190677857Y-108311905D01*
X190601667Y-108273810D01*
X190563571Y-108235714D01*
X190525476Y-108159524D01*
X190525476Y-108083333D01*
X190563571Y-108007143D01*
X190601667Y-107969048D01*
X190677857Y-107930952D01*
X190830238Y-107892857D01*
X190906429Y-107854762D01*
X190944524Y-107816667D01*
X190982619Y-107740476D01*
X190982619Y-107664286D01*
X190944524Y-107588095D01*
X190906429Y-107550000D01*
X190830238Y-107511905D01*
X190639762Y-107511905D01*
X190525476Y-107550000D01*
X190754048Y-107397619D02*
X190754048Y-108426190D01*
X189725476Y-108235714D02*
X189763571Y-108273810D01*
X189877857Y-108311905D01*
X189954047Y-108311905D01*
X190068333Y-108273810D01*
X190144524Y-108197619D01*
X190182619Y-108121429D01*
X190220714Y-107969048D01*
X190220714Y-107854762D01*
X190182619Y-107702381D01*
X190144524Y-107626190D01*
X190068333Y-107550000D01*
X189954047Y-107511905D01*
X189877857Y-107511905D01*
X189763571Y-107550000D01*
X189725476Y-107588095D01*
X189420714Y-107588095D02*
X189382619Y-107550000D01*
X189306428Y-107511905D01*
X189115952Y-107511905D01*
X189039762Y-107550000D01*
X189001666Y-107588095D01*
X188963571Y-107664286D01*
X188963571Y-107740476D01*
X189001666Y-107854762D01*
X189458809Y-108311905D01*
X188963571Y-108311905D01*
X188468333Y-107511905D02*
X188392142Y-107511905D01*
X188315952Y-107550000D01*
X188277857Y-107588095D01*
X188239761Y-107664286D01*
X188201666Y-107816667D01*
X188201666Y-108007143D01*
X188239761Y-108159524D01*
X188277857Y-108235714D01*
X188315952Y-108273810D01*
X188392142Y-108311905D01*
X188468333Y-108311905D01*
X188544523Y-108273810D01*
X188582619Y-108235714D01*
X188620714Y-108159524D01*
X188658809Y-108007143D01*
X188658809Y-107816667D01*
X188620714Y-107664286D01*
X188582619Y-107588095D01*
X188544523Y-107550000D01*
X188468333Y-107511905D01*
X187439761Y-108311905D02*
X187896904Y-108311905D01*
X187668333Y-108311905D02*
X187668333Y-107511905D01*
X187744523Y-107626190D01*
X187820714Y-107702381D01*
X187896904Y-107740476D01*
X190982619Y-105733810D02*
X190868333Y-105771905D01*
X190677857Y-105771905D01*
X190601667Y-105733810D01*
X190563571Y-105695714D01*
X190525476Y-105619524D01*
X190525476Y-105543333D01*
X190563571Y-105467143D01*
X190601667Y-105429048D01*
X190677857Y-105390952D01*
X190830238Y-105352857D01*
X190906429Y-105314762D01*
X190944524Y-105276667D01*
X190982619Y-105200476D01*
X190982619Y-105124286D01*
X190944524Y-105048095D01*
X190906429Y-105010000D01*
X190830238Y-104971905D01*
X190639762Y-104971905D01*
X190525476Y-105010000D01*
X190754048Y-104857619D02*
X190754048Y-105886190D01*
X190220714Y-105543333D02*
X189839762Y-105543333D01*
X190296905Y-105771905D02*
X190030238Y-104971905D01*
X189763571Y-105771905D01*
X189535000Y-105048095D02*
X189496905Y-105010000D01*
X189420714Y-104971905D01*
X189230238Y-104971905D01*
X189154048Y-105010000D01*
X189115952Y-105048095D01*
X189077857Y-105124286D01*
X189077857Y-105200476D01*
X189115952Y-105314762D01*
X189573095Y-105771905D01*
X189077857Y-105771905D01*
X188582619Y-104971905D02*
X188506428Y-104971905D01*
X188430238Y-105010000D01*
X188392143Y-105048095D01*
X188354047Y-105124286D01*
X188315952Y-105276667D01*
X188315952Y-105467143D01*
X188354047Y-105619524D01*
X188392143Y-105695714D01*
X188430238Y-105733810D01*
X188506428Y-105771905D01*
X188582619Y-105771905D01*
X188658809Y-105733810D01*
X188696905Y-105695714D01*
X188735000Y-105619524D01*
X188773095Y-105467143D01*
X188773095Y-105276667D01*
X188735000Y-105124286D01*
X188696905Y-105048095D01*
X188658809Y-105010000D01*
X188582619Y-104971905D01*
X187554047Y-105771905D02*
X188011190Y-105771905D01*
X187782619Y-105771905D02*
X187782619Y-104971905D01*
X187858809Y-105086190D01*
X187935000Y-105162381D01*
X188011190Y-105200476D01*
X190982619Y-103193810D02*
X190868333Y-103231905D01*
X190677857Y-103231905D01*
X190601667Y-103193810D01*
X190563571Y-103155714D01*
X190525476Y-103079524D01*
X190525476Y-103003333D01*
X190563571Y-102927143D01*
X190601667Y-102889048D01*
X190677857Y-102850952D01*
X190830238Y-102812857D01*
X190906429Y-102774762D01*
X190944524Y-102736667D01*
X190982619Y-102660476D01*
X190982619Y-102584286D01*
X190944524Y-102508095D01*
X190906429Y-102470000D01*
X190830238Y-102431905D01*
X190639762Y-102431905D01*
X190525476Y-102470000D01*
X190754048Y-102317619D02*
X190754048Y-103346190D01*
X190068333Y-102774762D02*
X190144524Y-102736667D01*
X190182619Y-102698571D01*
X190220714Y-102622381D01*
X190220714Y-102584286D01*
X190182619Y-102508095D01*
X190144524Y-102470000D01*
X190068333Y-102431905D01*
X189915952Y-102431905D01*
X189839762Y-102470000D01*
X189801666Y-102508095D01*
X189763571Y-102584286D01*
X189763571Y-102622381D01*
X189801666Y-102698571D01*
X189839762Y-102736667D01*
X189915952Y-102774762D01*
X190068333Y-102774762D01*
X190144524Y-102812857D01*
X190182619Y-102850952D01*
X190220714Y-102927143D01*
X190220714Y-103079524D01*
X190182619Y-103155714D01*
X190144524Y-103193810D01*
X190068333Y-103231905D01*
X189915952Y-103231905D01*
X189839762Y-103193810D01*
X189801666Y-103155714D01*
X189763571Y-103079524D01*
X189763571Y-102927143D01*
X189801666Y-102850952D01*
X189839762Y-102812857D01*
X189915952Y-102774762D01*
X189458809Y-102508095D02*
X189420714Y-102470000D01*
X189344523Y-102431905D01*
X189154047Y-102431905D01*
X189077857Y-102470000D01*
X189039761Y-102508095D01*
X189001666Y-102584286D01*
X189001666Y-102660476D01*
X189039761Y-102774762D01*
X189496904Y-103231905D01*
X189001666Y-103231905D01*
X188506428Y-102431905D02*
X188430237Y-102431905D01*
X188354047Y-102470000D01*
X188315952Y-102508095D01*
X188277856Y-102584286D01*
X188239761Y-102736667D01*
X188239761Y-102927143D01*
X188277856Y-103079524D01*
X188315952Y-103155714D01*
X188354047Y-103193810D01*
X188430237Y-103231905D01*
X188506428Y-103231905D01*
X188582618Y-103193810D01*
X188620714Y-103155714D01*
X188658809Y-103079524D01*
X188696904Y-102927143D01*
X188696904Y-102736667D01*
X188658809Y-102584286D01*
X188620714Y-102508095D01*
X188582618Y-102470000D01*
X188506428Y-102431905D01*
X187477856Y-103231905D02*
X187934999Y-103231905D01*
X187706428Y-103231905D02*
X187706428Y-102431905D01*
X187782618Y-102546190D01*
X187858809Y-102622381D01*
X187934999Y-102660476D01*
X190982619Y-100653810D02*
X190868333Y-100691905D01*
X190677857Y-100691905D01*
X190601667Y-100653810D01*
X190563571Y-100615714D01*
X190525476Y-100539524D01*
X190525476Y-100463333D01*
X190563571Y-100387143D01*
X190601667Y-100349048D01*
X190677857Y-100310952D01*
X190830238Y-100272857D01*
X190906429Y-100234762D01*
X190944524Y-100196667D01*
X190982619Y-100120476D01*
X190982619Y-100044286D01*
X190944524Y-99968095D01*
X190906429Y-99930000D01*
X190830238Y-99891905D01*
X190639762Y-99891905D01*
X190525476Y-99930000D01*
X190754048Y-99777619D02*
X190754048Y-100806190D01*
X189839762Y-99891905D02*
X189992143Y-99891905D01*
X190068333Y-99930000D01*
X190106428Y-99968095D01*
X190182619Y-100082381D01*
X190220714Y-100234762D01*
X190220714Y-100539524D01*
X190182619Y-100615714D01*
X190144524Y-100653810D01*
X190068333Y-100691905D01*
X189915952Y-100691905D01*
X189839762Y-100653810D01*
X189801666Y-100615714D01*
X189763571Y-100539524D01*
X189763571Y-100349048D01*
X189801666Y-100272857D01*
X189839762Y-100234762D01*
X189915952Y-100196667D01*
X190068333Y-100196667D01*
X190144524Y-100234762D01*
X190182619Y-100272857D01*
X190220714Y-100349048D01*
X189458809Y-99968095D02*
X189420714Y-99930000D01*
X189344523Y-99891905D01*
X189154047Y-99891905D01*
X189077857Y-99930000D01*
X189039761Y-99968095D01*
X189001666Y-100044286D01*
X189001666Y-100120476D01*
X189039761Y-100234762D01*
X189496904Y-100691905D01*
X189001666Y-100691905D01*
X188506428Y-99891905D02*
X188430237Y-99891905D01*
X188354047Y-99930000D01*
X188315952Y-99968095D01*
X188277856Y-100044286D01*
X188239761Y-100196667D01*
X188239761Y-100387143D01*
X188277856Y-100539524D01*
X188315952Y-100615714D01*
X188354047Y-100653810D01*
X188430237Y-100691905D01*
X188506428Y-100691905D01*
X188582618Y-100653810D01*
X188620714Y-100615714D01*
X188658809Y-100539524D01*
X188696904Y-100387143D01*
X188696904Y-100196667D01*
X188658809Y-100044286D01*
X188620714Y-99968095D01*
X188582618Y-99930000D01*
X188506428Y-99891905D01*
X187477856Y-100691905D02*
X187934999Y-100691905D01*
X187706428Y-100691905D02*
X187706428Y-99891905D01*
X187782618Y-100006190D01*
X187858809Y-100082381D01*
X187934999Y-100120476D01*
X190982619Y-98113810D02*
X190868333Y-98151905D01*
X190677857Y-98151905D01*
X190601667Y-98113810D01*
X190563571Y-98075714D01*
X190525476Y-97999524D01*
X190525476Y-97923333D01*
X190563571Y-97847143D01*
X190601667Y-97809048D01*
X190677857Y-97770952D01*
X190830238Y-97732857D01*
X190906429Y-97694762D01*
X190944524Y-97656667D01*
X190982619Y-97580476D01*
X190982619Y-97504286D01*
X190944524Y-97428095D01*
X190906429Y-97390000D01*
X190830238Y-97351905D01*
X190639762Y-97351905D01*
X190525476Y-97390000D01*
X190754048Y-97237619D02*
X190754048Y-98266190D01*
X189839762Y-97618571D02*
X189839762Y-98151905D01*
X190030238Y-97313810D02*
X190220714Y-97885238D01*
X189725476Y-97885238D01*
X189458809Y-97428095D02*
X189420714Y-97390000D01*
X189344523Y-97351905D01*
X189154047Y-97351905D01*
X189077857Y-97390000D01*
X189039761Y-97428095D01*
X189001666Y-97504286D01*
X189001666Y-97580476D01*
X189039761Y-97694762D01*
X189496904Y-98151905D01*
X189001666Y-98151905D01*
X188506428Y-97351905D02*
X188430237Y-97351905D01*
X188354047Y-97390000D01*
X188315952Y-97428095D01*
X188277856Y-97504286D01*
X188239761Y-97656667D01*
X188239761Y-97847143D01*
X188277856Y-97999524D01*
X188315952Y-98075714D01*
X188354047Y-98113810D01*
X188430237Y-98151905D01*
X188506428Y-98151905D01*
X188582618Y-98113810D01*
X188620714Y-98075714D01*
X188658809Y-97999524D01*
X188696904Y-97847143D01*
X188696904Y-97656667D01*
X188658809Y-97504286D01*
X188620714Y-97428095D01*
X188582618Y-97390000D01*
X188506428Y-97351905D01*
X187477856Y-98151905D02*
X187934999Y-98151905D01*
X187706428Y-98151905D02*
X187706428Y-97351905D01*
X187782618Y-97466190D01*
X187858809Y-97542381D01*
X187934999Y-97580476D01*
D11*
X192405000Y-107950000D02*
X192405000Y-106680000D01*
X192405000Y-93980000D02*
X192405000Y-95250000D01*
D10*
X109422619Y-117186905D02*
X109689286Y-116805952D01*
X109879762Y-117186905D02*
X109879762Y-116386905D01*
X109575000Y-116386905D01*
X109498809Y-116425000D01*
X109460714Y-116463095D01*
X109422619Y-116539286D01*
X109422619Y-116653571D01*
X109460714Y-116729762D01*
X109498809Y-116767857D01*
X109575000Y-116805952D01*
X109879762Y-116805952D01*
X109079762Y-116767857D02*
X108813095Y-116767857D01*
X108698809Y-117186905D02*
X109079762Y-117186905D01*
X109079762Y-116386905D01*
X108698809Y-116386905D01*
X108394047Y-116958333D02*
X108013095Y-116958333D01*
X108470238Y-117186905D02*
X108203571Y-116386905D01*
X107936904Y-117186905D01*
X107289285Y-117186905D02*
X107670238Y-117186905D01*
X107670238Y-116386905D01*
X106527381Y-116386905D02*
X106070238Y-116386905D01*
X106298809Y-117186905D02*
X106298809Y-116386905D01*
X105803571Y-117186905D02*
X105803571Y-116386905D01*
X105422619Y-117186905D02*
X105422619Y-116386905D01*
X105155952Y-116958333D01*
X104889285Y-116386905D01*
X104889285Y-117186905D01*
X104508333Y-116767857D02*
X104241666Y-116767857D01*
X104127380Y-117186905D02*
X104508333Y-117186905D01*
X104508333Y-116386905D01*
X104127380Y-116386905D01*
X102717856Y-117110714D02*
X102755951Y-117148810D01*
X102870237Y-117186905D01*
X102946427Y-117186905D01*
X103060713Y-117148810D01*
X103136904Y-117072619D01*
X103174999Y-116996429D01*
X103213094Y-116844048D01*
X103213094Y-116729762D01*
X103174999Y-116577381D01*
X103136904Y-116501190D01*
X103060713Y-116425000D01*
X102946427Y-116386905D01*
X102870237Y-116386905D01*
X102755951Y-116425000D01*
X102717856Y-116463095D01*
X101994046Y-117186905D02*
X102374999Y-117186905D01*
X102374999Y-116386905D01*
X101574999Y-116386905D02*
X101422618Y-116386905D01*
X101346427Y-116425000D01*
X101270237Y-116501190D01*
X101232142Y-116653571D01*
X101232142Y-116920238D01*
X101270237Y-117072619D01*
X101346427Y-117148810D01*
X101422618Y-117186905D01*
X101574999Y-117186905D01*
X101651189Y-117148810D01*
X101727380Y-117072619D01*
X101765475Y-116920238D01*
X101765475Y-116653571D01*
X101727380Y-116501190D01*
X101651189Y-116425000D01*
X101574999Y-116386905D01*
X100432142Y-117110714D02*
X100470237Y-117148810D01*
X100584523Y-117186905D01*
X100660713Y-117186905D01*
X100774999Y-117148810D01*
X100851190Y-117072619D01*
X100889285Y-116996429D01*
X100927380Y-116844048D01*
X100927380Y-116729762D01*
X100889285Y-116577381D01*
X100851190Y-116501190D01*
X100774999Y-116425000D01*
X100660713Y-116386905D01*
X100584523Y-116386905D01*
X100470237Y-116425000D01*
X100432142Y-116463095D01*
X100089285Y-117186905D02*
X100089285Y-116386905D01*
X99632142Y-117186905D02*
X99974999Y-116729762D01*
X99632142Y-116386905D02*
X100089285Y-116844048D01*
X105994047Y-118791667D02*
X106032143Y-118753571D01*
X106108333Y-118639286D01*
X106146428Y-118563095D01*
X106184524Y-118448810D01*
X106222619Y-118258333D01*
X106222619Y-118105952D01*
X106184524Y-117915476D01*
X106146428Y-117801190D01*
X106108333Y-117725000D01*
X106032143Y-117610714D01*
X105994047Y-117572619D01*
X105232143Y-118486905D02*
X105498810Y-118105952D01*
X105689286Y-118486905D02*
X105689286Y-117686905D01*
X105384524Y-117686905D01*
X105308333Y-117725000D01*
X105270238Y-117763095D01*
X105232143Y-117839286D01*
X105232143Y-117953571D01*
X105270238Y-118029762D01*
X105308333Y-118067857D01*
X105384524Y-118105952D01*
X105689286Y-118105952D01*
X105003572Y-117686905D02*
X104546429Y-117686905D01*
X104775000Y-118486905D02*
X104775000Y-117686905D01*
X103822619Y-118410714D02*
X103860714Y-118448810D01*
X103975000Y-118486905D01*
X104051190Y-118486905D01*
X104165476Y-118448810D01*
X104241667Y-118372619D01*
X104279762Y-118296429D01*
X104317857Y-118144048D01*
X104317857Y-118029762D01*
X104279762Y-117877381D01*
X104241667Y-117801190D01*
X104165476Y-117725000D01*
X104051190Y-117686905D01*
X103975000Y-117686905D01*
X103860714Y-117725000D01*
X103822619Y-117763095D01*
X103555952Y-118791667D02*
X103517857Y-118753571D01*
X103441667Y-118639286D01*
X103403571Y-118563095D01*
X103365476Y-118448810D01*
X103327381Y-118258333D01*
X103327381Y-118105952D01*
X103365476Y-117915476D01*
X103403571Y-117801190D01*
X103441667Y-117725000D01*
X103517857Y-117610714D01*
X103555952Y-117572619D01*
D11*
X112395000Y-133350000D02*
X112395000Y-132080000D01*
X97155000Y-133350000D02*
X112395000Y-133350000D01*
X97155000Y-132080000D02*
X97155000Y-133350000D01*
X97155000Y-101600000D02*
X97155000Y-102870000D01*
X112395000Y-101600000D02*
X97155000Y-101600000D01*
X112395000Y-102870000D02*
X112395000Y-101600000D01*
X188595000Y-133350000D02*
X188595000Y-132080000D01*
X180975000Y-133350000D02*
X188595000Y-133350000D01*
X180975000Y-132080000D02*
X180975000Y-133350000D01*
X173355000Y-133350000D02*
X173355000Y-132080000D01*
X165735000Y-133350000D02*
X173355000Y-133350000D01*
X165735000Y-132080000D02*
X165735000Y-133350000D01*
X158115000Y-130810000D02*
X158115000Y-129540000D01*
X150495000Y-130810000D02*
X158115000Y-130810000D01*
X150495000Y-129540000D02*
X150495000Y-130810000D01*
X142875000Y-130810000D02*
X142875000Y-129540000D01*
X135255000Y-130810000D02*
X142875000Y-130810000D01*
X135255000Y-129540000D02*
X135255000Y-130810000D01*
X127635000Y-130810000D02*
X127635000Y-129540000D01*
X120015000Y-130810000D02*
X127635000Y-130810000D01*
X120015000Y-129540000D02*
X120015000Y-130810000D01*
X127635000Y-111760000D02*
X127635000Y-113030000D01*
X120015000Y-111760000D02*
X127635000Y-111760000D01*
X120015000Y-113030000D02*
X120015000Y-111760000D01*
X142875000Y-111760000D02*
X142875000Y-113030000D01*
X135255000Y-111760000D02*
X142875000Y-111760000D01*
X135255000Y-113030000D02*
X135255000Y-111760000D01*
X150495000Y-111760000D02*
X150495000Y-113030000D01*
X158115000Y-111760000D02*
X150495000Y-111760000D01*
X158115000Y-113030000D02*
X158115000Y-111760000D01*
X173355000Y-111760000D02*
X173355000Y-113030000D01*
X165735000Y-111760000D02*
X173355000Y-111760000D01*
X165735000Y-113030000D02*
X165735000Y-111760000D01*
D10*
X125215476Y-122266905D02*
X125215476Y-121466905D01*
X124758333Y-122266905D01*
X124758333Y-121466905D01*
X124415476Y-122038333D02*
X124034524Y-122038333D01*
X124491667Y-122266905D02*
X124225000Y-121466905D01*
X123958333Y-122266905D01*
X123691667Y-122266905D02*
X123691667Y-121466905D01*
X123234524Y-122266905D01*
X123234524Y-121466905D01*
X122853572Y-122266905D02*
X122853572Y-121466905D01*
X122663096Y-121466905D01*
X122548810Y-121505000D01*
X122472619Y-121581190D01*
X122434524Y-121657381D01*
X122396429Y-121809762D01*
X122396429Y-121924048D01*
X122434524Y-122076429D01*
X122472619Y-122152619D01*
X122548810Y-122228810D01*
X122663096Y-122266905D01*
X122853572Y-122266905D01*
X125005952Y-122805000D02*
X125082143Y-122766905D01*
X125196428Y-122766905D01*
X125310714Y-122805000D01*
X125386905Y-122881190D01*
X125425000Y-122957381D01*
X125463095Y-123109762D01*
X125463095Y-123224048D01*
X125425000Y-123376429D01*
X125386905Y-123452619D01*
X125310714Y-123528810D01*
X125196428Y-123566905D01*
X125120238Y-123566905D01*
X125005952Y-123528810D01*
X124967857Y-123490714D01*
X124967857Y-123224048D01*
X125120238Y-123224048D01*
X124663095Y-123338333D02*
X124282143Y-123338333D01*
X124739286Y-123566905D02*
X124472619Y-122766905D01*
X124205952Y-123566905D01*
X124053572Y-122766905D02*
X123596429Y-122766905D01*
X123825000Y-123566905D02*
X123825000Y-122766905D01*
X123329762Y-123147857D02*
X123063095Y-123147857D01*
X122948809Y-123566905D02*
X123329762Y-123566905D01*
X123329762Y-122766905D01*
X122948809Y-122766905D01*
X122644047Y-123528810D02*
X122529761Y-123566905D01*
X122339285Y-123566905D01*
X122263095Y-123528810D01*
X122224999Y-123490714D01*
X122186904Y-123414524D01*
X122186904Y-123338333D01*
X122224999Y-123262143D01*
X122263095Y-123224048D01*
X122339285Y-123185952D01*
X122491666Y-123147857D01*
X122567857Y-123109762D01*
X122605952Y-123071667D01*
X122644047Y-122995476D01*
X122644047Y-122919286D01*
X122605952Y-122843095D01*
X122567857Y-122805000D01*
X122491666Y-122766905D01*
X122301190Y-122766905D01*
X122186904Y-122805000D01*
X156609762Y-121593810D02*
X156495476Y-121631905D01*
X156305000Y-121631905D01*
X156228810Y-121593810D01*
X156190714Y-121555714D01*
X156152619Y-121479524D01*
X156152619Y-121403333D01*
X156190714Y-121327143D01*
X156228810Y-121289048D01*
X156305000Y-121250952D01*
X156457381Y-121212857D01*
X156533572Y-121174762D01*
X156571667Y-121136667D01*
X156609762Y-121060476D01*
X156609762Y-120984286D01*
X156571667Y-120908095D01*
X156533572Y-120870000D01*
X156457381Y-120831905D01*
X156266905Y-120831905D01*
X156152619Y-120870000D01*
X155352619Y-121555714D02*
X155390714Y-121593810D01*
X155505000Y-121631905D01*
X155581190Y-121631905D01*
X155695476Y-121593810D01*
X155771667Y-121517619D01*
X155809762Y-121441429D01*
X155847857Y-121289048D01*
X155847857Y-121174762D01*
X155809762Y-121022381D01*
X155771667Y-120946190D01*
X155695476Y-120870000D01*
X155581190Y-120831905D01*
X155505000Y-120831905D01*
X155390714Y-120870000D01*
X155352619Y-120908095D01*
X155009762Y-121631905D02*
X155009762Y-120831905D01*
X155009762Y-121212857D02*
X154552619Y-121212857D01*
X154552619Y-121631905D02*
X154552619Y-120831905D01*
X154171667Y-121631905D02*
X154171667Y-120831905D01*
X153905000Y-121403333D01*
X153638333Y-120831905D01*
X153638333Y-121631905D01*
X153257381Y-121631905D02*
X153257381Y-120831905D01*
X152990715Y-120831905D02*
X152533572Y-120831905D01*
X152762143Y-121631905D02*
X152762143Y-120831905D01*
X152381191Y-120831905D02*
X151924048Y-120831905D01*
X152152619Y-121631905D02*
X152152619Y-120831905D01*
X156685953Y-122131905D02*
X156228810Y-122131905D01*
X156457381Y-122931905D02*
X156457381Y-122131905D01*
X155505000Y-122931905D02*
X155771667Y-122550952D01*
X155962143Y-122931905D02*
X155962143Y-122131905D01*
X155657381Y-122131905D01*
X155581190Y-122170000D01*
X155543095Y-122208095D01*
X155505000Y-122284286D01*
X155505000Y-122398571D01*
X155543095Y-122474762D01*
X155581190Y-122512857D01*
X155657381Y-122550952D01*
X155962143Y-122550952D01*
X155162143Y-122931905D02*
X155162143Y-122131905D01*
X154362143Y-122170000D02*
X154438334Y-122131905D01*
X154552619Y-122131905D01*
X154666905Y-122170000D01*
X154743096Y-122246190D01*
X154781191Y-122322381D01*
X154819286Y-122474762D01*
X154819286Y-122589048D01*
X154781191Y-122741429D01*
X154743096Y-122817619D01*
X154666905Y-122893810D01*
X154552619Y-122931905D01*
X154476429Y-122931905D01*
X154362143Y-122893810D01*
X154324048Y-122855714D01*
X154324048Y-122589048D01*
X154476429Y-122589048D01*
X153562143Y-122170000D02*
X153638334Y-122131905D01*
X153752619Y-122131905D01*
X153866905Y-122170000D01*
X153943096Y-122246190D01*
X153981191Y-122322381D01*
X154019286Y-122474762D01*
X154019286Y-122589048D01*
X153981191Y-122741429D01*
X153943096Y-122817619D01*
X153866905Y-122893810D01*
X153752619Y-122931905D01*
X153676429Y-122931905D01*
X153562143Y-122893810D01*
X153524048Y-122855714D01*
X153524048Y-122589048D01*
X153676429Y-122589048D01*
X153181191Y-122512857D02*
X152914524Y-122512857D01*
X152800238Y-122931905D02*
X153181191Y-122931905D01*
X153181191Y-122131905D01*
X152800238Y-122131905D01*
X152000238Y-122931905D02*
X152266905Y-122550952D01*
X152457381Y-122931905D02*
X152457381Y-122131905D01*
X152152619Y-122131905D01*
X152076428Y-122170000D01*
X152038333Y-122208095D01*
X152000238Y-122284286D01*
X152000238Y-122398571D01*
X152038333Y-122474762D01*
X152076428Y-122512857D01*
X152152619Y-122550952D01*
X152457381Y-122550952D01*
X140036429Y-121631905D02*
X140036429Y-120831905D01*
X140036429Y-121212857D02*
X139579286Y-121212857D01*
X139579286Y-121631905D02*
X139579286Y-120831905D01*
X139198334Y-121212857D02*
X138931667Y-121212857D01*
X138817381Y-121631905D02*
X139198334Y-121631905D01*
X139198334Y-120831905D01*
X138817381Y-120831905D01*
X138550714Y-120831905D02*
X138017381Y-121631905D01*
X138017381Y-120831905D02*
X138550714Y-121631905D01*
X141655476Y-122931905D02*
X141655476Y-122131905D01*
X141274524Y-122931905D02*
X141274524Y-122131905D01*
X140817381Y-122931905D01*
X140817381Y-122131905D01*
X140550715Y-122131905D02*
X140284048Y-122931905D01*
X140017381Y-122131905D01*
X139750715Y-122512857D02*
X139484048Y-122512857D01*
X139369762Y-122931905D02*
X139750715Y-122931905D01*
X139750715Y-122131905D01*
X139369762Y-122131905D01*
X138569762Y-122931905D02*
X138836429Y-122550952D01*
X139026905Y-122931905D02*
X139026905Y-122131905D01*
X138722143Y-122131905D01*
X138645952Y-122170000D01*
X138607857Y-122208095D01*
X138569762Y-122284286D01*
X138569762Y-122398571D01*
X138607857Y-122474762D01*
X138645952Y-122512857D01*
X138722143Y-122550952D01*
X139026905Y-122550952D01*
X138341191Y-122131905D02*
X137884048Y-122131905D01*
X138112619Y-122931905D02*
X138112619Y-122131905D01*
X137617381Y-122512857D02*
X137350714Y-122512857D01*
X137236428Y-122931905D02*
X137617381Y-122931905D01*
X137617381Y-122131905D01*
X137236428Y-122131905D01*
X136436428Y-122931905D02*
X136703095Y-122550952D01*
X136893571Y-122931905D02*
X136893571Y-122131905D01*
X136588809Y-122131905D01*
X136512618Y-122170000D01*
X136474523Y-122208095D01*
X136436428Y-122284286D01*
X136436428Y-122398571D01*
X136474523Y-122474762D01*
X136512618Y-122512857D01*
X136588809Y-122550952D01*
X136893571Y-122550952D01*
X114649286Y-99682381D02*
X114611190Y-99720476D01*
X114573095Y-99834762D01*
X114573095Y-99910952D01*
X114611190Y-100025238D01*
X114687381Y-100101429D01*
X114763571Y-100139524D01*
X114915952Y-100177619D01*
X115030238Y-100177619D01*
X115182619Y-100139524D01*
X115258810Y-100101429D01*
X115335000Y-100025238D01*
X115373095Y-99910952D01*
X115373095Y-99834762D01*
X115335000Y-99720476D01*
X115296905Y-99682381D01*
X114573095Y-98882381D02*
X114954048Y-99149048D01*
X114573095Y-99339524D02*
X115373095Y-99339524D01*
X115373095Y-99034762D01*
X115335000Y-98958571D01*
X115296905Y-98920476D01*
X115220714Y-98882381D01*
X115106429Y-98882381D01*
X115030238Y-98920476D01*
X114992143Y-98958571D01*
X114954048Y-99034762D01*
X114954048Y-99339524D01*
X115296905Y-98577619D02*
X115335000Y-98539524D01*
X115373095Y-98463333D01*
X115373095Y-98272857D01*
X115335000Y-98196667D01*
X115296905Y-98158571D01*
X115220714Y-98120476D01*
X115144524Y-98120476D01*
X115030238Y-98158571D01*
X114573095Y-98615714D01*
X114573095Y-98120476D01*
X115373095Y-97625238D02*
X115373095Y-97549047D01*
X115335000Y-97472857D01*
X115296905Y-97434762D01*
X115220714Y-97396666D01*
X115068333Y-97358571D01*
X114877857Y-97358571D01*
X114725476Y-97396666D01*
X114649286Y-97434762D01*
X114611190Y-97472857D01*
X114573095Y-97549047D01*
X114573095Y-97625238D01*
X114611190Y-97701428D01*
X114649286Y-97739524D01*
X114725476Y-97777619D01*
X114877857Y-97815714D01*
X115068333Y-97815714D01*
X115220714Y-97777619D01*
X115296905Y-97739524D01*
X115335000Y-97701428D01*
X115373095Y-97625238D01*
X115373095Y-97091904D02*
X115373095Y-96596666D01*
X115068333Y-96863333D01*
X115068333Y-96749047D01*
X115030238Y-96672857D01*
X114992143Y-96634761D01*
X114915952Y-96596666D01*
X114725476Y-96596666D01*
X114649286Y-96634761D01*
X114611190Y-96672857D01*
X114573095Y-96749047D01*
X114573095Y-96977619D01*
X114611190Y-97053809D01*
X114649286Y-97091904D01*
X115296905Y-96291904D02*
X115335000Y-96253809D01*
X115373095Y-96177618D01*
X115373095Y-95987142D01*
X115335000Y-95910952D01*
X115296905Y-95872856D01*
X115220714Y-95834761D01*
X115144524Y-95834761D01*
X115030238Y-95872856D01*
X114573095Y-96329999D01*
X114573095Y-95834761D01*
X116262143Y-99872857D02*
X116224048Y-99758571D01*
X116185952Y-99720476D01*
X116109762Y-99682381D01*
X115995476Y-99682381D01*
X115919286Y-99720476D01*
X115881190Y-99758571D01*
X115843095Y-99834762D01*
X115843095Y-100139524D01*
X116643095Y-100139524D01*
X116643095Y-99872857D01*
X116605000Y-99796667D01*
X116566905Y-99758571D01*
X116490714Y-99720476D01*
X116414524Y-99720476D01*
X116338333Y-99758571D01*
X116300238Y-99796667D01*
X116262143Y-99872857D01*
X116262143Y-100139524D01*
X116071667Y-99377619D02*
X116071667Y-98996667D01*
X115843095Y-99453810D02*
X116643095Y-99187143D01*
X115843095Y-98920476D01*
X116643095Y-98768096D02*
X116643095Y-98310953D01*
X115843095Y-98539524D02*
X116643095Y-98539524D01*
X116643095Y-98158572D02*
X116643095Y-97701429D01*
X115843095Y-97930000D02*
X116643095Y-97930000D01*
X116262143Y-97434762D02*
X116262143Y-97168095D01*
X115843095Y-97053809D02*
X115843095Y-97434762D01*
X116643095Y-97434762D01*
X116643095Y-97053809D01*
X115843095Y-96253809D02*
X116224048Y-96520476D01*
X115843095Y-96710952D02*
X116643095Y-96710952D01*
X116643095Y-96406190D01*
X116605000Y-96329999D01*
X116566905Y-96291904D01*
X116490714Y-96253809D01*
X116376429Y-96253809D01*
X116300238Y-96291904D01*
X116262143Y-96329999D01*
X116224048Y-96406190D01*
X116224048Y-96710952D01*
X116224048Y-95758571D02*
X115843095Y-95758571D01*
X116643095Y-96025238D02*
X116224048Y-95758571D01*
X116643095Y-95491904D01*
X112452143Y-100139524D02*
X112452143Y-99872857D01*
X112033095Y-99758571D02*
X112033095Y-100139524D01*
X112833095Y-100139524D01*
X112833095Y-99758571D01*
X112033095Y-99415714D02*
X112833095Y-99415714D01*
X112033095Y-98958571D01*
X112833095Y-98958571D01*
X112261667Y-98615714D02*
X112261667Y-98234762D01*
X112033095Y-98691905D02*
X112833095Y-98425238D01*
X112033095Y-98158571D01*
X112452143Y-97625238D02*
X112414048Y-97510952D01*
X112375952Y-97472857D01*
X112299762Y-97434762D01*
X112185476Y-97434762D01*
X112109286Y-97472857D01*
X112071190Y-97510952D01*
X112033095Y-97587143D01*
X112033095Y-97891905D01*
X112833095Y-97891905D01*
X112833095Y-97625238D01*
X112795000Y-97549048D01*
X112756905Y-97510952D01*
X112680714Y-97472857D01*
X112604524Y-97472857D01*
X112528333Y-97510952D01*
X112490238Y-97549048D01*
X112452143Y-97625238D01*
X112452143Y-97891905D01*
X112033095Y-96710952D02*
X112033095Y-97091905D01*
X112833095Y-97091905D01*
X112452143Y-96444286D02*
X112452143Y-96177619D01*
X112033095Y-96063333D02*
X112033095Y-96444286D01*
X112833095Y-96444286D01*
X112833095Y-96063333D01*
X113303095Y-100139524D02*
X114103095Y-100139524D01*
X113303095Y-99301429D02*
X113684048Y-99568096D01*
X113303095Y-99758572D02*
X114103095Y-99758572D01*
X114103095Y-99453810D01*
X114065000Y-99377619D01*
X114026905Y-99339524D01*
X113950714Y-99301429D01*
X113836429Y-99301429D01*
X113760238Y-99339524D01*
X113722143Y-99377619D01*
X113684048Y-99453810D01*
X113684048Y-99758572D01*
X113226905Y-98425238D02*
X113265000Y-98501429D01*
X113341190Y-98577619D01*
X113455476Y-98691905D01*
X113493571Y-98768096D01*
X113493571Y-98844286D01*
X113303095Y-98806191D02*
X113341190Y-98882381D01*
X113417381Y-98958572D01*
X113569762Y-98996667D01*
X113836429Y-98996667D01*
X113988810Y-98958572D01*
X114065000Y-98882381D01*
X114103095Y-98806191D01*
X114103095Y-98653810D01*
X114065000Y-98577619D01*
X113988810Y-98501429D01*
X113836429Y-98463334D01*
X113569762Y-98463334D01*
X113417381Y-98501429D01*
X113341190Y-98577619D01*
X113303095Y-98653810D01*
X113303095Y-98806191D01*
X113722143Y-97244286D02*
X113684048Y-97130000D01*
X113645952Y-97091905D01*
X113569762Y-97053810D01*
X113455476Y-97053810D01*
X113379286Y-97091905D01*
X113341190Y-97130000D01*
X113303095Y-97206191D01*
X113303095Y-97510953D01*
X114103095Y-97510953D01*
X114103095Y-97244286D01*
X114065000Y-97168096D01*
X114026905Y-97130000D01*
X113950714Y-97091905D01*
X113874524Y-97091905D01*
X113798333Y-97130000D01*
X113760238Y-97168096D01*
X113722143Y-97244286D01*
X113722143Y-97510953D01*
X114103095Y-96710953D02*
X113455476Y-96710953D01*
X113379286Y-96672858D01*
X113341190Y-96634762D01*
X113303095Y-96558572D01*
X113303095Y-96406191D01*
X113341190Y-96330000D01*
X113379286Y-96291905D01*
X113455476Y-96253810D01*
X114103095Y-96253810D01*
X113341190Y-95910953D02*
X113303095Y-95796667D01*
X113303095Y-95606191D01*
X113341190Y-95530001D01*
X113379286Y-95491905D01*
X113455476Y-95453810D01*
X113531667Y-95453810D01*
X113607857Y-95491905D01*
X113645952Y-95530001D01*
X113684048Y-95606191D01*
X113722143Y-95758572D01*
X113760238Y-95834763D01*
X113798333Y-95872858D01*
X113874524Y-95910953D01*
X113950714Y-95910953D01*
X114026905Y-95872858D01*
X114065000Y-95834763D01*
X114103095Y-95758572D01*
X114103095Y-95568096D01*
X114065000Y-95453810D01*
X110293095Y-100215714D02*
X109493095Y-100025238D01*
X110064524Y-99872857D01*
X109493095Y-99720476D01*
X110293095Y-99530000D01*
X109721667Y-99263333D02*
X109721667Y-98882381D01*
X109493095Y-99339524D02*
X110293095Y-99072857D01*
X109493095Y-98806190D01*
X110293095Y-98653810D02*
X109493095Y-98387143D01*
X110293095Y-98120476D01*
X109912143Y-97853810D02*
X109912143Y-97587143D01*
X109493095Y-97472857D02*
X109493095Y-97853810D01*
X110293095Y-97853810D01*
X110293095Y-97472857D01*
X110801190Y-100177619D02*
X110763095Y-100063333D01*
X110763095Y-99872857D01*
X110801190Y-99796667D01*
X110839286Y-99758571D01*
X110915476Y-99720476D01*
X110991667Y-99720476D01*
X111067857Y-99758571D01*
X111105952Y-99796667D01*
X111144048Y-99872857D01*
X111182143Y-100025238D01*
X111220238Y-100101429D01*
X111258333Y-100139524D01*
X111334524Y-100177619D01*
X111410714Y-100177619D01*
X111486905Y-100139524D01*
X111525000Y-100101429D01*
X111563095Y-100025238D01*
X111563095Y-99834762D01*
X111525000Y-99720476D01*
X110686905Y-98844285D02*
X110725000Y-98920476D01*
X110801190Y-98996666D01*
X110915476Y-99110952D01*
X110953571Y-99187143D01*
X110953571Y-99263333D01*
X110763095Y-99225238D02*
X110801190Y-99301428D01*
X110877381Y-99377619D01*
X111029762Y-99415714D01*
X111296429Y-99415714D01*
X111448810Y-99377619D01*
X111525000Y-99301428D01*
X111563095Y-99225238D01*
X111563095Y-99072857D01*
X111525000Y-98996666D01*
X111448810Y-98920476D01*
X111296429Y-98882381D01*
X111029762Y-98882381D01*
X110877381Y-98920476D01*
X110801190Y-98996666D01*
X110763095Y-99072857D01*
X110763095Y-99225238D01*
X111563095Y-98539524D02*
X110915476Y-98539524D01*
X110839286Y-98501429D01*
X110801190Y-98463333D01*
X110763095Y-98387143D01*
X110763095Y-98234762D01*
X110801190Y-98158571D01*
X110839286Y-98120476D01*
X110915476Y-98082381D01*
X111563095Y-98082381D01*
X110991667Y-97739524D02*
X110991667Y-97358572D01*
X110763095Y-97815715D02*
X111563095Y-97549048D01*
X110763095Y-97282381D01*
X110763095Y-96558572D02*
X111144048Y-96825239D01*
X110763095Y-97015715D02*
X111563095Y-97015715D01*
X111563095Y-96710953D01*
X111525000Y-96634762D01*
X111486905Y-96596667D01*
X111410714Y-96558572D01*
X111296429Y-96558572D01*
X111220238Y-96596667D01*
X111182143Y-96634762D01*
X111144048Y-96710953D01*
X111144048Y-97015715D01*
X111182143Y-96215715D02*
X111182143Y-95949048D01*
X110763095Y-95834762D02*
X110763095Y-96215715D01*
X111563095Y-96215715D01*
X111563095Y-95834762D01*
D11*
X118745000Y-89535000D02*
X126365000Y-89535000D01*
X131445000Y-92075000D02*
X127000000Y-92075000D01*
X127000000Y-89535000D02*
X131445000Y-89535000D01*
X126365000Y-92075000D02*
X126365000Y-89535000D01*
X126365000Y-94615000D02*
X126365000Y-92075000D01*
X118745000Y-92710000D02*
X118745000Y-92075000D01*
D10*
X121742143Y-94341905D02*
X122008810Y-93960952D01*
X122199286Y-94341905D02*
X122199286Y-93541905D01*
X121894524Y-93541905D01*
X121818333Y-93580000D01*
X121780238Y-93618095D01*
X121742143Y-93694286D01*
X121742143Y-93808571D01*
X121780238Y-93884762D01*
X121818333Y-93922857D01*
X121894524Y-93960952D01*
X122199286Y-93960952D01*
X121513572Y-93541905D02*
X121056429Y-93541905D01*
X121285000Y-94341905D02*
X121285000Y-93541905D01*
X120332619Y-94265714D02*
X120370714Y-94303810D01*
X120485000Y-94341905D01*
X120561190Y-94341905D01*
X120675476Y-94303810D01*
X120751667Y-94227619D01*
X120789762Y-94151429D01*
X120827857Y-93999048D01*
X120827857Y-93884762D01*
X120789762Y-93732381D01*
X120751667Y-93656190D01*
X120675476Y-93580000D01*
X120561190Y-93541905D01*
X120485000Y-93541905D01*
X120370714Y-93580000D01*
X120332619Y-93618095D01*
X125901191Y-96208810D02*
X125786905Y-96246905D01*
X125596429Y-96246905D01*
X125520239Y-96208810D01*
X125482143Y-96170714D01*
X125444048Y-96094524D01*
X125444048Y-96018333D01*
X125482143Y-95942143D01*
X125520239Y-95904048D01*
X125596429Y-95865952D01*
X125748810Y-95827857D01*
X125825001Y-95789762D01*
X125863096Y-95751667D01*
X125901191Y-95675476D01*
X125901191Y-95599286D01*
X125863096Y-95523095D01*
X125825001Y-95485000D01*
X125748810Y-95446905D01*
X125558334Y-95446905D01*
X125444048Y-95485000D01*
X124948810Y-95865952D02*
X124948810Y-96246905D01*
X125215477Y-95446905D02*
X124948810Y-95865952D01*
X124682143Y-95446905D01*
X124453572Y-96208810D02*
X124339286Y-96246905D01*
X124148810Y-96246905D01*
X124072620Y-96208810D01*
X124034524Y-96170714D01*
X123996429Y-96094524D01*
X123996429Y-96018333D01*
X124034524Y-95942143D01*
X124072620Y-95904048D01*
X124148810Y-95865952D01*
X124301191Y-95827857D01*
X124377382Y-95789762D01*
X124415477Y-95751667D01*
X124453572Y-95675476D01*
X124453572Y-95599286D01*
X124415477Y-95523095D01*
X124377382Y-95485000D01*
X124301191Y-95446905D01*
X124110715Y-95446905D01*
X123996429Y-95485000D01*
X123767858Y-95446905D02*
X123310715Y-95446905D01*
X123539286Y-96246905D02*
X123539286Y-95446905D01*
X123044048Y-95827857D02*
X122777381Y-95827857D01*
X122663095Y-96246905D02*
X123044048Y-96246905D01*
X123044048Y-95446905D01*
X122663095Y-95446905D01*
X122320238Y-96246905D02*
X122320238Y-95446905D01*
X122053571Y-96018333D01*
X121786904Y-95446905D01*
X121786904Y-96246905D01*
X131114287Y-91763810D02*
X131000001Y-91801905D01*
X130809525Y-91801905D01*
X130733335Y-91763810D01*
X130695239Y-91725714D01*
X130657144Y-91649524D01*
X130657144Y-91573333D01*
X130695239Y-91497143D01*
X130733335Y-91459048D01*
X130809525Y-91420952D01*
X130961906Y-91382857D01*
X131038097Y-91344762D01*
X131076192Y-91306667D01*
X131114287Y-91230476D01*
X131114287Y-91154286D01*
X131076192Y-91078095D01*
X131038097Y-91040000D01*
X130961906Y-91001905D01*
X130771430Y-91001905D01*
X130657144Y-91040000D01*
X130314287Y-91382857D02*
X130047620Y-91382857D01*
X129933334Y-91801905D02*
X130314287Y-91801905D01*
X130314287Y-91001905D01*
X129933334Y-91001905D01*
X129209524Y-91801905D02*
X129590477Y-91801905D01*
X129590477Y-91001905D01*
X128942858Y-91382857D02*
X128676191Y-91382857D01*
X128561905Y-91801905D02*
X128942858Y-91801905D01*
X128942858Y-91001905D01*
X128561905Y-91001905D01*
X127761905Y-91725714D02*
X127800000Y-91763810D01*
X127914286Y-91801905D01*
X127990476Y-91801905D01*
X128104762Y-91763810D01*
X128180953Y-91687619D01*
X128219048Y-91611429D01*
X128257143Y-91459048D01*
X128257143Y-91344762D01*
X128219048Y-91192381D01*
X128180953Y-91116190D01*
X128104762Y-91040000D01*
X127990476Y-91001905D01*
X127914286Y-91001905D01*
X127800000Y-91040000D01*
X127761905Y-91078095D01*
X127533334Y-91001905D02*
X127076191Y-91001905D01*
X127304762Y-91801905D02*
X127304762Y-91001905D01*
X129971430Y-90531905D02*
X130238097Y-90150952D01*
X130428573Y-90531905D02*
X130428573Y-89731905D01*
X130123811Y-89731905D01*
X130047620Y-89770000D01*
X130009525Y-89808095D01*
X129971430Y-89884286D01*
X129971430Y-89998571D01*
X130009525Y-90074762D01*
X130047620Y-90112857D01*
X130123811Y-90150952D01*
X130428573Y-90150952D01*
X129628573Y-90112857D02*
X129361906Y-90112857D01*
X129247620Y-90531905D02*
X129628573Y-90531905D01*
X129628573Y-89731905D01*
X129247620Y-89731905D01*
X128942858Y-90493810D02*
X128828572Y-90531905D01*
X128638096Y-90531905D01*
X128561906Y-90493810D01*
X128523810Y-90455714D01*
X128485715Y-90379524D01*
X128485715Y-90303333D01*
X128523810Y-90227143D01*
X128561906Y-90189048D01*
X128638096Y-90150952D01*
X128790477Y-90112857D01*
X128866668Y-90074762D01*
X128904763Y-90036667D01*
X128942858Y-89960476D01*
X128942858Y-89884286D01*
X128904763Y-89808095D01*
X128866668Y-89770000D01*
X128790477Y-89731905D01*
X128600001Y-89731905D01*
X128485715Y-89770000D01*
X128142858Y-90112857D02*
X127876191Y-90112857D01*
X127761905Y-90531905D02*
X128142858Y-90531905D01*
X128142858Y-89731905D01*
X127761905Y-89731905D01*
X127533334Y-89731905D02*
X127076191Y-89731905D01*
X127304762Y-90531905D02*
X127304762Y-89731905D01*
D11*
X118745000Y-89535000D02*
X126365000Y-89535000D01*
X118745000Y-92075000D02*
X118745000Y-89535000D01*
X126365000Y-94615000D02*
X126365000Y-95885000D01*
X121285000Y-95250000D02*
X126365000Y-95250000D01*
X121285000Y-94615000D02*
X121285000Y-95885000D01*
X123825000Y-92710000D02*
X123825000Y-93980000D01*
X118745000Y-93345000D02*
X123825000Y-93345000D01*
X118745000Y-92710000D02*
X118745000Y-93980000D01*
X116840000Y-89535000D02*
X116840000Y-95250000D01*
X109220000Y-89535000D02*
X116840000Y-89535000D01*
X109220000Y-95250000D02*
X109220000Y-89535000D01*
X116840000Y-100330000D02*
X116840000Y-95250000D01*
X114300000Y-95250000D02*
X114300000Y-100330000D01*
X111760000Y-100330000D02*
X111760000Y-95250000D01*
X109220000Y-95250000D02*
X109220000Y-100330000D01*
D10*
X187299286Y-122038333D02*
X186918334Y-122038333D01*
X187375477Y-122266905D02*
X187108810Y-121466905D01*
X186842143Y-122266905D01*
X186575477Y-122266905D02*
X186575477Y-121466905D01*
X186385001Y-121466905D01*
X186270715Y-121505000D01*
X186194524Y-121581190D01*
X186156429Y-121657381D01*
X186118334Y-121809762D01*
X186118334Y-121924048D01*
X186156429Y-122076429D01*
X186194524Y-122152619D01*
X186270715Y-122228810D01*
X186385001Y-122266905D01*
X186575477Y-122266905D01*
X185775477Y-122266905D02*
X185775477Y-121466905D01*
X185585001Y-121466905D01*
X185470715Y-121505000D01*
X185394524Y-121581190D01*
X185356429Y-121657381D01*
X185318334Y-121809762D01*
X185318334Y-121924048D01*
X185356429Y-122076429D01*
X185394524Y-122152619D01*
X185470715Y-122228810D01*
X185585001Y-122266905D01*
X185775477Y-122266905D01*
X184518334Y-122266905D02*
X184785001Y-121885952D01*
X184975477Y-122266905D02*
X184975477Y-121466905D01*
X184670715Y-121466905D01*
X184594524Y-121505000D01*
X184556429Y-121543095D01*
X184518334Y-121619286D01*
X184518334Y-121733571D01*
X184556429Y-121809762D01*
X184594524Y-121847857D01*
X184670715Y-121885952D01*
X184975477Y-121885952D01*
X184175477Y-121847857D02*
X183908810Y-121847857D01*
X183794524Y-122266905D02*
X184175477Y-122266905D01*
X184175477Y-121466905D01*
X183794524Y-121466905D01*
X183489762Y-122228810D02*
X183375476Y-122266905D01*
X183185000Y-122266905D01*
X183108810Y-122228810D01*
X183070714Y-122190714D01*
X183032619Y-122114524D01*
X183032619Y-122038333D01*
X183070714Y-121962143D01*
X183108810Y-121924048D01*
X183185000Y-121885952D01*
X183337381Y-121847857D01*
X183413572Y-121809762D01*
X183451667Y-121771667D01*
X183489762Y-121695476D01*
X183489762Y-121619286D01*
X183451667Y-121543095D01*
X183413572Y-121505000D01*
X183337381Y-121466905D01*
X183146905Y-121466905D01*
X183032619Y-121505000D01*
X182727857Y-122228810D02*
X182613571Y-122266905D01*
X182423095Y-122266905D01*
X182346905Y-122228810D01*
X182308809Y-122190714D01*
X182270714Y-122114524D01*
X182270714Y-122038333D01*
X182308809Y-121962143D01*
X182346905Y-121924048D01*
X182423095Y-121885952D01*
X182575476Y-121847857D01*
X182651667Y-121809762D01*
X182689762Y-121771667D01*
X182727857Y-121695476D01*
X182727857Y-121619286D01*
X182689762Y-121543095D01*
X182651667Y-121505000D01*
X182575476Y-121466905D01*
X182385000Y-121466905D01*
X182270714Y-121505000D01*
X187585000Y-123566905D02*
X187585000Y-122766905D01*
X187394524Y-122766905D01*
X187280238Y-122805000D01*
X187204047Y-122881190D01*
X187165952Y-122957381D01*
X187127857Y-123109762D01*
X187127857Y-123224048D01*
X187165952Y-123376429D01*
X187204047Y-123452619D01*
X187280238Y-123528810D01*
X187394524Y-123566905D01*
X187585000Y-123566905D01*
X186785000Y-123147857D02*
X186518333Y-123147857D01*
X186404047Y-123566905D02*
X186785000Y-123566905D01*
X186785000Y-122766905D01*
X186404047Y-122766905D01*
X185604047Y-123490714D02*
X185642142Y-123528810D01*
X185756428Y-123566905D01*
X185832618Y-123566905D01*
X185946904Y-123528810D01*
X186023095Y-123452619D01*
X186061190Y-123376429D01*
X186099285Y-123224048D01*
X186099285Y-123109762D01*
X186061190Y-122957381D01*
X186023095Y-122881190D01*
X185946904Y-122805000D01*
X185832618Y-122766905D01*
X185756428Y-122766905D01*
X185642142Y-122805000D01*
X185604047Y-122843095D01*
X185108809Y-122766905D02*
X184956428Y-122766905D01*
X184880237Y-122805000D01*
X184804047Y-122881190D01*
X184765952Y-123033571D01*
X184765952Y-123300238D01*
X184804047Y-123452619D01*
X184880237Y-123528810D01*
X184956428Y-123566905D01*
X185108809Y-123566905D01*
X185184999Y-123528810D01*
X185261190Y-123452619D01*
X185299285Y-123300238D01*
X185299285Y-123033571D01*
X185261190Y-122881190D01*
X185184999Y-122805000D01*
X185108809Y-122766905D01*
X184423095Y-123566905D02*
X184423095Y-122766905D01*
X184232619Y-122766905D01*
X184118333Y-122805000D01*
X184042142Y-122881190D01*
X184004047Y-122957381D01*
X183965952Y-123109762D01*
X183965952Y-123224048D01*
X184004047Y-123376429D01*
X184042142Y-123452619D01*
X184118333Y-123528810D01*
X184232619Y-123566905D01*
X184423095Y-123566905D01*
X183623095Y-123566905D02*
X183623095Y-122766905D01*
X183242143Y-123566905D02*
X183242143Y-122766905D01*
X182785000Y-123566905D01*
X182785000Y-122766905D01*
X181985000Y-122805000D02*
X182061191Y-122766905D01*
X182175476Y-122766905D01*
X182289762Y-122805000D01*
X182365953Y-122881190D01*
X182404048Y-122957381D01*
X182442143Y-123109762D01*
X182442143Y-123224048D01*
X182404048Y-123376429D01*
X182365953Y-123452619D01*
X182289762Y-123528810D01*
X182175476Y-123566905D01*
X182099286Y-123566905D01*
X181985000Y-123528810D01*
X181946905Y-123490714D01*
X181946905Y-123224048D01*
X182099286Y-123224048D01*
X172059286Y-122038333D02*
X171678334Y-122038333D01*
X172135477Y-122266905D02*
X171868810Y-121466905D01*
X171602143Y-122266905D01*
X171335477Y-122266905D02*
X171335477Y-121466905D01*
X171145001Y-121466905D01*
X171030715Y-121505000D01*
X170954524Y-121581190D01*
X170916429Y-121657381D01*
X170878334Y-121809762D01*
X170878334Y-121924048D01*
X170916429Y-122076429D01*
X170954524Y-122152619D01*
X171030715Y-122228810D01*
X171145001Y-122266905D01*
X171335477Y-122266905D01*
X170535477Y-122266905D02*
X170535477Y-121466905D01*
X170345001Y-121466905D01*
X170230715Y-121505000D01*
X170154524Y-121581190D01*
X170116429Y-121657381D01*
X170078334Y-121809762D01*
X170078334Y-121924048D01*
X170116429Y-122076429D01*
X170154524Y-122152619D01*
X170230715Y-122228810D01*
X170345001Y-122266905D01*
X170535477Y-122266905D01*
X169278334Y-122266905D02*
X169545001Y-121885952D01*
X169735477Y-122266905D02*
X169735477Y-121466905D01*
X169430715Y-121466905D01*
X169354524Y-121505000D01*
X169316429Y-121543095D01*
X169278334Y-121619286D01*
X169278334Y-121733571D01*
X169316429Y-121809762D01*
X169354524Y-121847857D01*
X169430715Y-121885952D01*
X169735477Y-121885952D01*
X168935477Y-121847857D02*
X168668810Y-121847857D01*
X168554524Y-122266905D02*
X168935477Y-122266905D01*
X168935477Y-121466905D01*
X168554524Y-121466905D01*
X168249762Y-122228810D02*
X168135476Y-122266905D01*
X167945000Y-122266905D01*
X167868810Y-122228810D01*
X167830714Y-122190714D01*
X167792619Y-122114524D01*
X167792619Y-122038333D01*
X167830714Y-121962143D01*
X167868810Y-121924048D01*
X167945000Y-121885952D01*
X168097381Y-121847857D01*
X168173572Y-121809762D01*
X168211667Y-121771667D01*
X168249762Y-121695476D01*
X168249762Y-121619286D01*
X168211667Y-121543095D01*
X168173572Y-121505000D01*
X168097381Y-121466905D01*
X167906905Y-121466905D01*
X167792619Y-121505000D01*
X167487857Y-122228810D02*
X167373571Y-122266905D01*
X167183095Y-122266905D01*
X167106905Y-122228810D01*
X167068809Y-122190714D01*
X167030714Y-122114524D01*
X167030714Y-122038333D01*
X167068809Y-121962143D01*
X167106905Y-121924048D01*
X167183095Y-121885952D01*
X167335476Y-121847857D01*
X167411667Y-121809762D01*
X167449762Y-121771667D01*
X167487857Y-121695476D01*
X167487857Y-121619286D01*
X167449762Y-121543095D01*
X167411667Y-121505000D01*
X167335476Y-121466905D01*
X167145000Y-121466905D01*
X167030714Y-121505000D01*
X172345000Y-123566905D02*
X172345000Y-122766905D01*
X172154524Y-122766905D01*
X172040238Y-122805000D01*
X171964047Y-122881190D01*
X171925952Y-122957381D01*
X171887857Y-123109762D01*
X171887857Y-123224048D01*
X171925952Y-123376429D01*
X171964047Y-123452619D01*
X172040238Y-123528810D01*
X172154524Y-123566905D01*
X172345000Y-123566905D01*
X171545000Y-123147857D02*
X171278333Y-123147857D01*
X171164047Y-123566905D02*
X171545000Y-123566905D01*
X171545000Y-122766905D01*
X171164047Y-122766905D01*
X170364047Y-123490714D02*
X170402142Y-123528810D01*
X170516428Y-123566905D01*
X170592618Y-123566905D01*
X170706904Y-123528810D01*
X170783095Y-123452619D01*
X170821190Y-123376429D01*
X170859285Y-123224048D01*
X170859285Y-123109762D01*
X170821190Y-122957381D01*
X170783095Y-122881190D01*
X170706904Y-122805000D01*
X170592618Y-122766905D01*
X170516428Y-122766905D01*
X170402142Y-122805000D01*
X170364047Y-122843095D01*
X169868809Y-122766905D02*
X169716428Y-122766905D01*
X169640237Y-122805000D01*
X169564047Y-122881190D01*
X169525952Y-123033571D01*
X169525952Y-123300238D01*
X169564047Y-123452619D01*
X169640237Y-123528810D01*
X169716428Y-123566905D01*
X169868809Y-123566905D01*
X169944999Y-123528810D01*
X170021190Y-123452619D01*
X170059285Y-123300238D01*
X170059285Y-123033571D01*
X170021190Y-122881190D01*
X169944999Y-122805000D01*
X169868809Y-122766905D01*
X169183095Y-123566905D02*
X169183095Y-122766905D01*
X168992619Y-122766905D01*
X168878333Y-122805000D01*
X168802142Y-122881190D01*
X168764047Y-122957381D01*
X168725952Y-123109762D01*
X168725952Y-123224048D01*
X168764047Y-123376429D01*
X168802142Y-123452619D01*
X168878333Y-123528810D01*
X168992619Y-123566905D01*
X169183095Y-123566905D01*
X168383095Y-123566905D02*
X168383095Y-122766905D01*
X168002143Y-123566905D02*
X168002143Y-122766905D01*
X167545000Y-123566905D01*
X167545000Y-122766905D01*
X166745000Y-122805000D02*
X166821191Y-122766905D01*
X166935476Y-122766905D01*
X167049762Y-122805000D01*
X167125953Y-122881190D01*
X167164048Y-122957381D01*
X167202143Y-123109762D01*
X167202143Y-123224048D01*
X167164048Y-123376429D01*
X167125953Y-123452619D01*
X167049762Y-123528810D01*
X166935476Y-123566905D01*
X166859286Y-123566905D01*
X166745000Y-123528810D01*
X166706905Y-123490714D01*
X166706905Y-123224048D01*
X166859286Y-123224048D01*
D11*
X186690000Y-108585000D02*
X180975000Y-108585000D01*
X188595000Y-111760000D02*
X188595000Y-113030000D01*
X180975000Y-111760000D02*
X188595000Y-111760000D01*
X180975000Y-113030000D02*
X180975000Y-111760000D01*
X180975000Y-93345000D02*
X180975000Y-108585000D01*
X186690000Y-93345000D02*
X180975000Y-93345000D01*
D10*
X192271667Y-105917382D02*
X192271667Y-105536430D01*
X192043095Y-105993573D02*
X192843095Y-105726906D01*
X192043095Y-105460239D01*
X192043095Y-105193573D02*
X192843095Y-105193573D01*
X192843095Y-105003097D01*
X192805000Y-104888811D01*
X192728810Y-104812620D01*
X192652619Y-104774525D01*
X192500238Y-104736430D01*
X192385952Y-104736430D01*
X192233571Y-104774525D01*
X192157381Y-104812620D01*
X192081190Y-104888811D01*
X192043095Y-105003097D01*
X192043095Y-105193573D01*
X192043095Y-104393573D02*
X192843095Y-104393573D01*
X192843095Y-104203097D01*
X192805000Y-104088811D01*
X192728810Y-104012620D01*
X192652619Y-103974525D01*
X192500238Y-103936430D01*
X192385952Y-103936430D01*
X192233571Y-103974525D01*
X192157381Y-104012620D01*
X192081190Y-104088811D01*
X192043095Y-104203097D01*
X192043095Y-104393573D01*
X192043095Y-103136430D02*
X192424048Y-103403097D01*
X192043095Y-103593573D02*
X192843095Y-103593573D01*
X192843095Y-103288811D01*
X192805000Y-103212620D01*
X192766905Y-103174525D01*
X192690714Y-103136430D01*
X192576429Y-103136430D01*
X192500238Y-103174525D01*
X192462143Y-103212620D01*
X192424048Y-103288811D01*
X192424048Y-103593573D01*
X192462143Y-102793573D02*
X192462143Y-102526906D01*
X192043095Y-102412620D02*
X192043095Y-102793573D01*
X192843095Y-102793573D01*
X192843095Y-102412620D01*
X192081190Y-102107858D02*
X192043095Y-101993572D01*
X192043095Y-101803096D01*
X192081190Y-101726906D01*
X192119286Y-101688810D01*
X192195476Y-101650715D01*
X192271667Y-101650715D01*
X192347857Y-101688810D01*
X192385952Y-101726906D01*
X192424048Y-101803096D01*
X192462143Y-101955477D01*
X192500238Y-102031668D01*
X192538333Y-102069763D01*
X192614524Y-102107858D01*
X192690714Y-102107858D01*
X192766905Y-102069763D01*
X192805000Y-102031668D01*
X192843095Y-101955477D01*
X192843095Y-101765001D01*
X192805000Y-101650715D01*
X192081190Y-101345953D02*
X192043095Y-101231667D01*
X192043095Y-101041191D01*
X192081190Y-100965001D01*
X192119286Y-100926905D01*
X192195476Y-100888810D01*
X192271667Y-100888810D01*
X192347857Y-100926905D01*
X192385952Y-100965001D01*
X192424048Y-101041191D01*
X192462143Y-101193572D01*
X192500238Y-101269763D01*
X192538333Y-101307858D01*
X192614524Y-101345953D01*
X192690714Y-101345953D01*
X192766905Y-101307858D01*
X192805000Y-101269763D01*
X192843095Y-101193572D01*
X192843095Y-101003096D01*
X192805000Y-100888810D01*
X192081190Y-99974524D02*
X192043095Y-99860238D01*
X192043095Y-99669762D01*
X192081190Y-99593572D01*
X192119286Y-99555476D01*
X192195476Y-99517381D01*
X192271667Y-99517381D01*
X192347857Y-99555476D01*
X192385952Y-99593572D01*
X192424048Y-99669762D01*
X192462143Y-99822143D01*
X192500238Y-99898334D01*
X192538333Y-99936429D01*
X192614524Y-99974524D01*
X192690714Y-99974524D01*
X192766905Y-99936429D01*
X192805000Y-99898334D01*
X192843095Y-99822143D01*
X192843095Y-99631667D01*
X192805000Y-99517381D01*
X192462143Y-99174524D02*
X192462143Y-98907857D01*
X192043095Y-98793571D02*
X192043095Y-99174524D01*
X192843095Y-99174524D01*
X192843095Y-98793571D01*
X192043095Y-98069761D02*
X192043095Y-98450714D01*
X192843095Y-98450714D01*
X192462143Y-97803095D02*
X192462143Y-97536428D01*
X192043095Y-97422142D02*
X192043095Y-97803095D01*
X192843095Y-97803095D01*
X192843095Y-97422142D01*
X192119286Y-96622142D02*
X192081190Y-96660237D01*
X192043095Y-96774523D01*
X192043095Y-96850713D01*
X192081190Y-96964999D01*
X192157381Y-97041190D01*
X192233571Y-97079285D01*
X192385952Y-97117380D01*
X192500238Y-97117380D01*
X192652619Y-97079285D01*
X192728810Y-97041190D01*
X192805000Y-96964999D01*
X192843095Y-96850713D01*
X192843095Y-96774523D01*
X192805000Y-96660237D01*
X192766905Y-96622142D01*
X192843095Y-96393571D02*
X192843095Y-95936428D01*
X192043095Y-96164999D02*
X192843095Y-96164999D01*
D11*
X192405000Y-108585000D02*
X186690000Y-108585000D01*
X192405000Y-107950000D02*
X192405000Y-108585000D01*
X192405000Y-93345000D02*
X192405000Y-93980000D01*
X186690000Y-93345000D02*
X192405000Y-93345000D01*
X191135000Y-95885000D02*
X186690000Y-95885000D01*
X186690000Y-98425000D02*
X191135000Y-98425000D01*
X191135000Y-100965000D02*
X186690000Y-100965000D01*
X186690000Y-103505000D02*
X191135000Y-103505000D01*
X186690000Y-106045000D02*
X191135000Y-106045000D01*
D10*
X190982619Y-107003810D02*
X190868333Y-107041905D01*
X190677857Y-107041905D01*
X190601667Y-107003810D01*
X190563571Y-106965714D01*
X190525476Y-106889524D01*
X190525476Y-106813333D01*
X190563571Y-106737143D01*
X190601667Y-106699048D01*
X190677857Y-106660952D01*
X190830238Y-106622857D01*
X190906429Y-106584762D01*
X190944524Y-106546667D01*
X190982619Y-106470476D01*
X190982619Y-106394286D01*
X190944524Y-106318095D01*
X190906429Y-106280000D01*
X190830238Y-106241905D01*
X190639762Y-106241905D01*
X190525476Y-106280000D01*
X190754048Y-106127619D02*
X190754048Y-107156190D01*
X189725476Y-106965714D02*
X189763571Y-107003810D01*
X189877857Y-107041905D01*
X189954047Y-107041905D01*
X190068333Y-107003810D01*
X190144524Y-106927619D01*
X190182619Y-106851429D01*
X190220714Y-106699048D01*
X190220714Y-106584762D01*
X190182619Y-106432381D01*
X190144524Y-106356190D01*
X190068333Y-106280000D01*
X189954047Y-106241905D01*
X189877857Y-106241905D01*
X189763571Y-106280000D01*
X189725476Y-106318095D01*
X189420714Y-106318095D02*
X189382619Y-106280000D01*
X189306428Y-106241905D01*
X189115952Y-106241905D01*
X189039762Y-106280000D01*
X189001666Y-106318095D01*
X188963571Y-106394286D01*
X188963571Y-106470476D01*
X189001666Y-106584762D01*
X189458809Y-107041905D01*
X188963571Y-107041905D01*
X188468333Y-106241905D02*
X188392142Y-106241905D01*
X188315952Y-106280000D01*
X188277857Y-106318095D01*
X188239761Y-106394286D01*
X188201666Y-106546667D01*
X188201666Y-106737143D01*
X188239761Y-106889524D01*
X188277857Y-106965714D01*
X188315952Y-107003810D01*
X188392142Y-107041905D01*
X188468333Y-107041905D01*
X188544523Y-107003810D01*
X188582619Y-106965714D01*
X188620714Y-106889524D01*
X188658809Y-106737143D01*
X188658809Y-106546667D01*
X188620714Y-106394286D01*
X188582619Y-106318095D01*
X188544523Y-106280000D01*
X188468333Y-106241905D01*
X187706428Y-106241905D02*
X187630237Y-106241905D01*
X187554047Y-106280000D01*
X187515952Y-106318095D01*
X187477856Y-106394286D01*
X187439761Y-106546667D01*
X187439761Y-106737143D01*
X187477856Y-106889524D01*
X187515952Y-106965714D01*
X187554047Y-107003810D01*
X187630237Y-107041905D01*
X187706428Y-107041905D01*
X187782618Y-107003810D01*
X187820714Y-106965714D01*
X187858809Y-106889524D01*
X187896904Y-106737143D01*
X187896904Y-106546667D01*
X187858809Y-106394286D01*
X187820714Y-106318095D01*
X187782618Y-106280000D01*
X187706428Y-106241905D01*
X190982619Y-104463810D02*
X190868333Y-104501905D01*
X190677857Y-104501905D01*
X190601667Y-104463810D01*
X190563571Y-104425714D01*
X190525476Y-104349524D01*
X190525476Y-104273333D01*
X190563571Y-104197143D01*
X190601667Y-104159048D01*
X190677857Y-104120952D01*
X190830238Y-104082857D01*
X190906429Y-104044762D01*
X190944524Y-104006667D01*
X190982619Y-103930476D01*
X190982619Y-103854286D01*
X190944524Y-103778095D01*
X190906429Y-103740000D01*
X190830238Y-103701905D01*
X190639762Y-103701905D01*
X190525476Y-103740000D01*
X190754048Y-103587619D02*
X190754048Y-104616190D01*
X190220714Y-104273333D02*
X189839762Y-104273333D01*
X190296905Y-104501905D02*
X190030238Y-103701905D01*
X189763571Y-104501905D01*
X189535000Y-103778095D02*
X189496905Y-103740000D01*
X189420714Y-103701905D01*
X189230238Y-103701905D01*
X189154048Y-103740000D01*
X189115952Y-103778095D01*
X189077857Y-103854286D01*
X189077857Y-103930476D01*
X189115952Y-104044762D01*
X189573095Y-104501905D01*
X189077857Y-104501905D01*
X188582619Y-103701905D02*
X188506428Y-103701905D01*
X188430238Y-103740000D01*
X188392143Y-103778095D01*
X188354047Y-103854286D01*
X188315952Y-104006667D01*
X188315952Y-104197143D01*
X188354047Y-104349524D01*
X188392143Y-104425714D01*
X188430238Y-104463810D01*
X188506428Y-104501905D01*
X188582619Y-104501905D01*
X188658809Y-104463810D01*
X188696905Y-104425714D01*
X188735000Y-104349524D01*
X188773095Y-104197143D01*
X188773095Y-104006667D01*
X188735000Y-103854286D01*
X188696905Y-103778095D01*
X188658809Y-103740000D01*
X188582619Y-103701905D01*
X187820714Y-103701905D02*
X187744523Y-103701905D01*
X187668333Y-103740000D01*
X187630238Y-103778095D01*
X187592142Y-103854286D01*
X187554047Y-104006667D01*
X187554047Y-104197143D01*
X187592142Y-104349524D01*
X187630238Y-104425714D01*
X187668333Y-104463810D01*
X187744523Y-104501905D01*
X187820714Y-104501905D01*
X187896904Y-104463810D01*
X187935000Y-104425714D01*
X187973095Y-104349524D01*
X188011190Y-104197143D01*
X188011190Y-104006667D01*
X187973095Y-103854286D01*
X187935000Y-103778095D01*
X187896904Y-103740000D01*
X187820714Y-103701905D01*
X190982619Y-101923810D02*
X190868333Y-101961905D01*
X190677857Y-101961905D01*
X190601667Y-101923810D01*
X190563571Y-101885714D01*
X190525476Y-101809524D01*
X190525476Y-101733333D01*
X190563571Y-101657143D01*
X190601667Y-101619048D01*
X190677857Y-101580952D01*
X190830238Y-101542857D01*
X190906429Y-101504762D01*
X190944524Y-101466667D01*
X190982619Y-101390476D01*
X190982619Y-101314286D01*
X190944524Y-101238095D01*
X190906429Y-101200000D01*
X190830238Y-101161905D01*
X190639762Y-101161905D01*
X190525476Y-101200000D01*
X190754048Y-101047619D02*
X190754048Y-102076190D01*
X190068333Y-101504762D02*
X190144524Y-101466667D01*
X190182619Y-101428571D01*
X190220714Y-101352381D01*
X190220714Y-101314286D01*
X190182619Y-101238095D01*
X190144524Y-101200000D01*
X190068333Y-101161905D01*
X189915952Y-101161905D01*
X189839762Y-101200000D01*
X189801666Y-101238095D01*
X189763571Y-101314286D01*
X189763571Y-101352381D01*
X189801666Y-101428571D01*
X189839762Y-101466667D01*
X189915952Y-101504762D01*
X190068333Y-101504762D01*
X190144524Y-101542857D01*
X190182619Y-101580952D01*
X190220714Y-101657143D01*
X190220714Y-101809524D01*
X190182619Y-101885714D01*
X190144524Y-101923810D01*
X190068333Y-101961905D01*
X189915952Y-101961905D01*
X189839762Y-101923810D01*
X189801666Y-101885714D01*
X189763571Y-101809524D01*
X189763571Y-101657143D01*
X189801666Y-101580952D01*
X189839762Y-101542857D01*
X189915952Y-101504762D01*
X189458809Y-101238095D02*
X189420714Y-101200000D01*
X189344523Y-101161905D01*
X189154047Y-101161905D01*
X189077857Y-101200000D01*
X189039761Y-101238095D01*
X189001666Y-101314286D01*
X189001666Y-101390476D01*
X189039761Y-101504762D01*
X189496904Y-101961905D01*
X189001666Y-101961905D01*
X188506428Y-101161905D02*
X188430237Y-101161905D01*
X188354047Y-101200000D01*
X188315952Y-101238095D01*
X188277856Y-101314286D01*
X188239761Y-101466667D01*
X188239761Y-101657143D01*
X188277856Y-101809524D01*
X188315952Y-101885714D01*
X188354047Y-101923810D01*
X188430237Y-101961905D01*
X188506428Y-101961905D01*
X188582618Y-101923810D01*
X188620714Y-101885714D01*
X188658809Y-101809524D01*
X188696904Y-101657143D01*
X188696904Y-101466667D01*
X188658809Y-101314286D01*
X188620714Y-101238095D01*
X188582618Y-101200000D01*
X188506428Y-101161905D01*
X187744523Y-101161905D02*
X187668332Y-101161905D01*
X187592142Y-101200000D01*
X187554047Y-101238095D01*
X187515951Y-101314286D01*
X187477856Y-101466667D01*
X187477856Y-101657143D01*
X187515951Y-101809524D01*
X187554047Y-101885714D01*
X187592142Y-101923810D01*
X187668332Y-101961905D01*
X187744523Y-101961905D01*
X187820713Y-101923810D01*
X187858809Y-101885714D01*
X187896904Y-101809524D01*
X187934999Y-101657143D01*
X187934999Y-101466667D01*
X187896904Y-101314286D01*
X187858809Y-101238095D01*
X187820713Y-101200000D01*
X187744523Y-101161905D01*
X190982619Y-99383810D02*
X190868333Y-99421905D01*
X190677857Y-99421905D01*
X190601667Y-99383810D01*
X190563571Y-99345714D01*
X190525476Y-99269524D01*
X190525476Y-99193333D01*
X190563571Y-99117143D01*
X190601667Y-99079048D01*
X190677857Y-99040952D01*
X190830238Y-99002857D01*
X190906429Y-98964762D01*
X190944524Y-98926667D01*
X190982619Y-98850476D01*
X190982619Y-98774286D01*
X190944524Y-98698095D01*
X190906429Y-98660000D01*
X190830238Y-98621905D01*
X190639762Y-98621905D01*
X190525476Y-98660000D01*
X190754048Y-98507619D02*
X190754048Y-99536190D01*
X189839762Y-98621905D02*
X189992143Y-98621905D01*
X190068333Y-98660000D01*
X190106428Y-98698095D01*
X190182619Y-98812381D01*
X190220714Y-98964762D01*
X190220714Y-99269524D01*
X190182619Y-99345714D01*
X190144524Y-99383810D01*
X190068333Y-99421905D01*
X189915952Y-99421905D01*
X189839762Y-99383810D01*
X189801666Y-99345714D01*
X189763571Y-99269524D01*
X189763571Y-99079048D01*
X189801666Y-99002857D01*
X189839762Y-98964762D01*
X189915952Y-98926667D01*
X190068333Y-98926667D01*
X190144524Y-98964762D01*
X190182619Y-99002857D01*
X190220714Y-99079048D01*
X189458809Y-98698095D02*
X189420714Y-98660000D01*
X189344523Y-98621905D01*
X189154047Y-98621905D01*
X189077857Y-98660000D01*
X189039761Y-98698095D01*
X189001666Y-98774286D01*
X189001666Y-98850476D01*
X189039761Y-98964762D01*
X189496904Y-99421905D01*
X189001666Y-99421905D01*
X188506428Y-98621905D02*
X188430237Y-98621905D01*
X188354047Y-98660000D01*
X188315952Y-98698095D01*
X188277856Y-98774286D01*
X188239761Y-98926667D01*
X188239761Y-99117143D01*
X188277856Y-99269524D01*
X188315952Y-99345714D01*
X188354047Y-99383810D01*
X188430237Y-99421905D01*
X188506428Y-99421905D01*
X188582618Y-99383810D01*
X188620714Y-99345714D01*
X188658809Y-99269524D01*
X188696904Y-99117143D01*
X188696904Y-98926667D01*
X188658809Y-98774286D01*
X188620714Y-98698095D01*
X188582618Y-98660000D01*
X188506428Y-98621905D01*
X187744523Y-98621905D02*
X187668332Y-98621905D01*
X187592142Y-98660000D01*
X187554047Y-98698095D01*
X187515951Y-98774286D01*
X187477856Y-98926667D01*
X187477856Y-99117143D01*
X187515951Y-99269524D01*
X187554047Y-99345714D01*
X187592142Y-99383810D01*
X187668332Y-99421905D01*
X187744523Y-99421905D01*
X187820713Y-99383810D01*
X187858809Y-99345714D01*
X187896904Y-99269524D01*
X187934999Y-99117143D01*
X187934999Y-98926667D01*
X187896904Y-98774286D01*
X187858809Y-98698095D01*
X187820713Y-98660000D01*
X187744523Y-98621905D01*
X190982619Y-96843810D02*
X190868333Y-96881905D01*
X190677857Y-96881905D01*
X190601667Y-96843810D01*
X190563571Y-96805714D01*
X190525476Y-96729524D01*
X190525476Y-96653333D01*
X190563571Y-96577143D01*
X190601667Y-96539048D01*
X190677857Y-96500952D01*
X190830238Y-96462857D01*
X190906429Y-96424762D01*
X190944524Y-96386667D01*
X190982619Y-96310476D01*
X190982619Y-96234286D01*
X190944524Y-96158095D01*
X190906429Y-96120000D01*
X190830238Y-96081905D01*
X190639762Y-96081905D01*
X190525476Y-96120000D01*
X190754048Y-95967619D02*
X190754048Y-96996190D01*
X189839762Y-96348571D02*
X189839762Y-96881905D01*
X190030238Y-96043810D02*
X190220714Y-96615238D01*
X189725476Y-96615238D01*
X189458809Y-96158095D02*
X189420714Y-96120000D01*
X189344523Y-96081905D01*
X189154047Y-96081905D01*
X189077857Y-96120000D01*
X189039761Y-96158095D01*
X189001666Y-96234286D01*
X189001666Y-96310476D01*
X189039761Y-96424762D01*
X189496904Y-96881905D01*
X189001666Y-96881905D01*
X188506428Y-96081905D02*
X188430237Y-96081905D01*
X188354047Y-96120000D01*
X188315952Y-96158095D01*
X188277856Y-96234286D01*
X188239761Y-96386667D01*
X188239761Y-96577143D01*
X188277856Y-96729524D01*
X188315952Y-96805714D01*
X188354047Y-96843810D01*
X188430237Y-96881905D01*
X188506428Y-96881905D01*
X188582618Y-96843810D01*
X188620714Y-96805714D01*
X188658809Y-96729524D01*
X188696904Y-96577143D01*
X188696904Y-96386667D01*
X188658809Y-96234286D01*
X188620714Y-96158095D01*
X188582618Y-96120000D01*
X188506428Y-96081905D01*
X187744523Y-96081905D02*
X187668332Y-96081905D01*
X187592142Y-96120000D01*
X187554047Y-96158095D01*
X187515951Y-96234286D01*
X187477856Y-96386667D01*
X187477856Y-96577143D01*
X187515951Y-96729524D01*
X187554047Y-96805714D01*
X187592142Y-96843810D01*
X187668332Y-96881905D01*
X187744523Y-96881905D01*
X187820713Y-96843810D01*
X187858809Y-96805714D01*
X187896904Y-96729524D01*
X187934999Y-96577143D01*
X187934999Y-96386667D01*
X187896904Y-96234286D01*
X187858809Y-96158095D01*
X187820713Y-96120000D01*
X187744523Y-96081905D01*
X190982619Y-95573810D02*
X190868333Y-95611905D01*
X190677857Y-95611905D01*
X190601667Y-95573810D01*
X190563571Y-95535714D01*
X190525476Y-95459524D01*
X190525476Y-95383333D01*
X190563571Y-95307143D01*
X190601667Y-95269048D01*
X190677857Y-95230952D01*
X190830238Y-95192857D01*
X190906429Y-95154762D01*
X190944524Y-95116667D01*
X190982619Y-95040476D01*
X190982619Y-94964286D01*
X190944524Y-94888095D01*
X190906429Y-94850000D01*
X190830238Y-94811905D01*
X190639762Y-94811905D01*
X190525476Y-94850000D01*
X190754048Y-94697619D02*
X190754048Y-95726190D01*
X190220714Y-94888095D02*
X190182619Y-94850000D01*
X190106428Y-94811905D01*
X189915952Y-94811905D01*
X189839762Y-94850000D01*
X189801666Y-94888095D01*
X189763571Y-94964286D01*
X189763571Y-95040476D01*
X189801666Y-95154762D01*
X190258809Y-95611905D01*
X189763571Y-95611905D01*
X189458809Y-94888095D02*
X189420714Y-94850000D01*
X189344523Y-94811905D01*
X189154047Y-94811905D01*
X189077857Y-94850000D01*
X189039761Y-94888095D01*
X189001666Y-94964286D01*
X189001666Y-95040476D01*
X189039761Y-95154762D01*
X189496904Y-95611905D01*
X189001666Y-95611905D01*
X188506428Y-94811905D02*
X188430237Y-94811905D01*
X188354047Y-94850000D01*
X188315952Y-94888095D01*
X188277856Y-94964286D01*
X188239761Y-95116667D01*
X188239761Y-95307143D01*
X188277856Y-95459524D01*
X188315952Y-95535714D01*
X188354047Y-95573810D01*
X188430237Y-95611905D01*
X188506428Y-95611905D01*
X188582618Y-95573810D01*
X188620714Y-95535714D01*
X188658809Y-95459524D01*
X188696904Y-95307143D01*
X188696904Y-95116667D01*
X188658809Y-94964286D01*
X188620714Y-94888095D01*
X188582618Y-94850000D01*
X188506428Y-94811905D01*
X187477856Y-95611905D02*
X187934999Y-95611905D01*
X187706428Y-95611905D02*
X187706428Y-94811905D01*
X187782618Y-94926190D01*
X187858809Y-95002381D01*
X187934999Y-95040476D01*
X190982619Y-94303810D02*
X190868333Y-94341905D01*
X190677857Y-94341905D01*
X190601667Y-94303810D01*
X190563571Y-94265714D01*
X190525476Y-94189524D01*
X190525476Y-94113333D01*
X190563571Y-94037143D01*
X190601667Y-93999048D01*
X190677857Y-93960952D01*
X190830238Y-93922857D01*
X190906429Y-93884762D01*
X190944524Y-93846667D01*
X190982619Y-93770476D01*
X190982619Y-93694286D01*
X190944524Y-93618095D01*
X190906429Y-93580000D01*
X190830238Y-93541905D01*
X190639762Y-93541905D01*
X190525476Y-93580000D01*
X190754048Y-93427619D02*
X190754048Y-94456190D01*
X190220714Y-93618095D02*
X190182619Y-93580000D01*
X190106428Y-93541905D01*
X189915952Y-93541905D01*
X189839762Y-93580000D01*
X189801666Y-93618095D01*
X189763571Y-93694286D01*
X189763571Y-93770476D01*
X189801666Y-93884762D01*
X190258809Y-94341905D01*
X189763571Y-94341905D01*
X189458809Y-93618095D02*
X189420714Y-93580000D01*
X189344523Y-93541905D01*
X189154047Y-93541905D01*
X189077857Y-93580000D01*
X189039761Y-93618095D01*
X189001666Y-93694286D01*
X189001666Y-93770476D01*
X189039761Y-93884762D01*
X189496904Y-94341905D01*
X189001666Y-94341905D01*
X188506428Y-93541905D02*
X188430237Y-93541905D01*
X188354047Y-93580000D01*
X188315952Y-93618095D01*
X188277856Y-93694286D01*
X188239761Y-93846667D01*
X188239761Y-94037143D01*
X188277856Y-94189524D01*
X188315952Y-94265714D01*
X188354047Y-94303810D01*
X188430237Y-94341905D01*
X188506428Y-94341905D01*
X188582618Y-94303810D01*
X188620714Y-94265714D01*
X188658809Y-94189524D01*
X188696904Y-94037143D01*
X188696904Y-93846667D01*
X188658809Y-93694286D01*
X188620714Y-93618095D01*
X188582618Y-93580000D01*
X188506428Y-93541905D01*
X187744523Y-93541905D02*
X187668332Y-93541905D01*
X187592142Y-93580000D01*
X187554047Y-93618095D01*
X187515951Y-93694286D01*
X187477856Y-93846667D01*
X187477856Y-94037143D01*
X187515951Y-94189524D01*
X187554047Y-94265714D01*
X187592142Y-94303810D01*
X187668332Y-94341905D01*
X187744523Y-94341905D01*
X187820713Y-94303810D01*
X187858809Y-94265714D01*
X187896904Y-94189524D01*
X187934999Y-94037143D01*
X187934999Y-93846667D01*
X187896904Y-93694286D01*
X187858809Y-93618095D01*
X187820713Y-93580000D01*
X187744523Y-93541905D01*
D12*
X104155000Y-145867381D02*
X104488334Y-145391190D01*
X104726429Y-145867381D02*
X104726429Y-144867381D01*
X104345476Y-144867381D01*
X104250238Y-144915000D01*
X104202619Y-144962619D01*
X104155000Y-145057857D01*
X104155000Y-145200714D01*
X104202619Y-145295952D01*
X104250238Y-145343571D01*
X104345476Y-145391190D01*
X104726429Y-145391190D01*
X103345476Y-145819762D02*
X103440714Y-145867381D01*
X103631191Y-145867381D01*
X103726429Y-145819762D01*
X103774048Y-145724524D01*
X103774048Y-145343571D01*
X103726429Y-145248333D01*
X103631191Y-145200714D01*
X103440714Y-145200714D01*
X103345476Y-145248333D01*
X103297857Y-145343571D01*
X103297857Y-145438810D01*
X103774048Y-145534048D01*
X102964524Y-145200714D02*
X102726429Y-145867381D01*
X102488333Y-145200714D01*
X102107381Y-145867381D02*
X102107381Y-145200714D01*
X102107381Y-144867381D02*
X102155000Y-144915000D01*
X102107381Y-144962619D01*
X102059762Y-144915000D01*
X102107381Y-144867381D01*
X102107381Y-144962619D01*
X101678810Y-145819762D02*
X101583572Y-145867381D01*
X101393096Y-145867381D01*
X101297857Y-145819762D01*
X101250238Y-145724524D01*
X101250238Y-145676905D01*
X101297857Y-145581667D01*
X101393096Y-145534048D01*
X101535953Y-145534048D01*
X101631191Y-145486429D01*
X101678810Y-145391190D01*
X101678810Y-145343571D01*
X101631191Y-145248333D01*
X101535953Y-145200714D01*
X101393096Y-145200714D01*
X101297857Y-145248333D01*
X100821667Y-145867381D02*
X100821667Y-145200714D01*
X100821667Y-144867381D02*
X100869286Y-144915000D01*
X100821667Y-144962619D01*
X100774048Y-144915000D01*
X100821667Y-144867381D01*
X100821667Y-144962619D01*
X100202620Y-145867381D02*
X100297858Y-145819762D01*
X100345477Y-145772143D01*
X100393096Y-145676905D01*
X100393096Y-145391190D01*
X100345477Y-145295952D01*
X100297858Y-145248333D01*
X100202620Y-145200714D01*
X100059762Y-145200714D01*
X99964524Y-145248333D01*
X99916905Y-145295952D01*
X99869286Y-145391190D01*
X99869286Y-145676905D01*
X99916905Y-145772143D01*
X99964524Y-145819762D01*
X100059762Y-145867381D01*
X100202620Y-145867381D01*
X99440715Y-145200714D02*
X99440715Y-145867381D01*
X99440715Y-145295952D02*
X99393096Y-145248333D01*
X99297858Y-145200714D01*
X99155000Y-145200714D01*
X99059762Y-145248333D01*
X99012143Y-145343571D01*
X99012143Y-145867381D01*
X97821667Y-145581667D02*
X97345476Y-145581667D01*
X97916905Y-145867381D02*
X97583572Y-144867381D01*
X97250238Y-145867381D01*
X175061428Y-105227381D02*
X175632857Y-105227381D01*
X175347143Y-105227381D02*
X175347143Y-104227381D01*
X175442381Y-104370238D01*
X175537619Y-104465476D01*
X175632857Y-104513095D01*
X174442381Y-104227381D02*
X174347142Y-104227381D01*
X174251904Y-104275000D01*
X174204285Y-104322619D01*
X174156666Y-104417857D01*
X174109047Y-104608333D01*
X174109047Y-104846429D01*
X174156666Y-105036905D01*
X174204285Y-105132143D01*
X174251904Y-105179762D01*
X174347142Y-105227381D01*
X174442381Y-105227381D01*
X174537619Y-105179762D01*
X174585238Y-105132143D01*
X174632857Y-105036905D01*
X174680476Y-104846429D01*
X174680476Y-104608333D01*
X174632857Y-104417857D01*
X174585238Y-104322619D01*
X174537619Y-104275000D01*
X174442381Y-104227381D01*
X173251904Y-104560714D02*
X173251904Y-105227381D01*
X173680476Y-104560714D02*
X173680476Y-105084524D01*
X173632857Y-105179762D01*
X173537619Y-105227381D01*
X173394761Y-105227381D01*
X173299523Y-105179762D01*
X173251904Y-105132143D01*
X172442380Y-104703571D02*
X172775714Y-104703571D01*
X172775714Y-105227381D02*
X172775714Y-104227381D01*
X172299523Y-104227381D01*
M02*
