G04 #@! TF.FileFunction,Legend,Top*
%FSLAX46Y46*%
G04 Gerber Fmt 4.6, Leading zero omitted, Abs format (unit mm)*
G04 Created by KiCad (PCBNEW 4.0.7) date 09/25/19 15:54:21*
%MOMM*%
%LPD*%
G01*
G04 APERTURE LIST*
%ADD10C,0.100000*%
%ADD11C,0.150000*%
%ADD12C,0.200000*%
%ADD13C,0.300000*%
%ADD14C,0.120000*%
G04 APERTURE END LIST*
D10*
D11*
X170632857Y-101957143D02*
X170585238Y-102004762D01*
X170442381Y-102052381D01*
X170347143Y-102052381D01*
X170204285Y-102004762D01*
X170109047Y-101909524D01*
X170061428Y-101814286D01*
X170013809Y-101623810D01*
X170013809Y-101480952D01*
X170061428Y-101290476D01*
X170109047Y-101195238D01*
X170204285Y-101100000D01*
X170347143Y-101052381D01*
X170442381Y-101052381D01*
X170585238Y-101100000D01*
X170632857Y-101147619D01*
X171537619Y-102052381D02*
X171061428Y-102052381D01*
X171061428Y-101052381D01*
X171870952Y-101528571D02*
X172204286Y-101528571D01*
X172347143Y-102052381D02*
X171870952Y-102052381D01*
X171870952Y-101052381D01*
X172347143Y-101052381D01*
X172728095Y-101766667D02*
X173204286Y-101766667D01*
X172632857Y-102052381D02*
X172966190Y-101052381D01*
X173299524Y-102052381D01*
X174204286Y-102052381D02*
X173870952Y-101576190D01*
X173632857Y-102052381D02*
X173632857Y-101052381D01*
X174013810Y-101052381D01*
X174109048Y-101100000D01*
X174156667Y-101147619D01*
X174204286Y-101242857D01*
X174204286Y-101385714D01*
X174156667Y-101480952D01*
X174109048Y-101528571D01*
X174013810Y-101576190D01*
X173632857Y-101576190D01*
X175966191Y-102052381D02*
X175632857Y-101576190D01*
X175394762Y-102052381D02*
X175394762Y-101052381D01*
X175775715Y-101052381D01*
X175870953Y-101100000D01*
X175918572Y-101147619D01*
X175966191Y-101242857D01*
X175966191Y-101385714D01*
X175918572Y-101480952D01*
X175870953Y-101528571D01*
X175775715Y-101576190D01*
X175394762Y-101576190D01*
X176347143Y-101766667D02*
X176823334Y-101766667D01*
X176251905Y-102052381D02*
X176585238Y-101052381D01*
X176918572Y-102052381D01*
X177251905Y-102052381D02*
X177251905Y-101052381D01*
X177585239Y-101766667D01*
X177918572Y-101052381D01*
X177918572Y-102052381D01*
D12*
X192405000Y-95250000D02*
X192405000Y-93980000D01*
X192405000Y-107950000D02*
X192405000Y-106680000D01*
D10*
X127152381Y-91763810D02*
X127266667Y-91801905D01*
X127457143Y-91801905D01*
X127533333Y-91763810D01*
X127571429Y-91725714D01*
X127609524Y-91649524D01*
X127609524Y-91573333D01*
X127571429Y-91497143D01*
X127533333Y-91459048D01*
X127457143Y-91420952D01*
X127304762Y-91382857D01*
X127228571Y-91344762D01*
X127190476Y-91306667D01*
X127152381Y-91230476D01*
X127152381Y-91154286D01*
X127190476Y-91078095D01*
X127228571Y-91040000D01*
X127304762Y-91001905D01*
X127495238Y-91001905D01*
X127609524Y-91040000D01*
X127952381Y-91382857D02*
X128219048Y-91382857D01*
X128333334Y-91801905D02*
X127952381Y-91801905D01*
X127952381Y-91001905D01*
X128333334Y-91001905D01*
X129057144Y-91801905D02*
X128676191Y-91801905D01*
X128676191Y-91001905D01*
X129323810Y-91382857D02*
X129590477Y-91382857D01*
X129704763Y-91801905D02*
X129323810Y-91801905D01*
X129323810Y-91001905D01*
X129704763Y-91001905D01*
X130504763Y-91725714D02*
X130466668Y-91763810D01*
X130352382Y-91801905D01*
X130276192Y-91801905D01*
X130161906Y-91763810D01*
X130085715Y-91687619D01*
X130047620Y-91611429D01*
X130009525Y-91459048D01*
X130009525Y-91344762D01*
X130047620Y-91192381D01*
X130085715Y-91116190D01*
X130161906Y-91040000D01*
X130276192Y-91001905D01*
X130352382Y-91001905D01*
X130466668Y-91040000D01*
X130504763Y-91078095D01*
X130733334Y-91001905D02*
X131190477Y-91001905D01*
X130961906Y-91801905D02*
X130961906Y-91001905D01*
X127647619Y-90531905D02*
X127380952Y-90150952D01*
X127190476Y-90531905D02*
X127190476Y-89731905D01*
X127495238Y-89731905D01*
X127571429Y-89770000D01*
X127609524Y-89808095D01*
X127647619Y-89884286D01*
X127647619Y-89998571D01*
X127609524Y-90074762D01*
X127571429Y-90112857D01*
X127495238Y-90150952D01*
X127190476Y-90150952D01*
X127990476Y-90112857D02*
X128257143Y-90112857D01*
X128371429Y-90531905D02*
X127990476Y-90531905D01*
X127990476Y-89731905D01*
X128371429Y-89731905D01*
X128676191Y-90493810D02*
X128790477Y-90531905D01*
X128980953Y-90531905D01*
X129057143Y-90493810D01*
X129095239Y-90455714D01*
X129133334Y-90379524D01*
X129133334Y-90303333D01*
X129095239Y-90227143D01*
X129057143Y-90189048D01*
X128980953Y-90150952D01*
X128828572Y-90112857D01*
X128752381Y-90074762D01*
X128714286Y-90036667D01*
X128676191Y-89960476D01*
X128676191Y-89884286D01*
X128714286Y-89808095D01*
X128752381Y-89770000D01*
X128828572Y-89731905D01*
X129019048Y-89731905D01*
X129133334Y-89770000D01*
X129476191Y-90112857D02*
X129742858Y-90112857D01*
X129857144Y-90531905D02*
X129476191Y-90531905D01*
X129476191Y-89731905D01*
X129857144Y-89731905D01*
X130085715Y-89731905D02*
X130542858Y-89731905D01*
X130314287Y-90531905D02*
X130314287Y-89731905D01*
D12*
X131445000Y-92075000D02*
X127000000Y-92075000D01*
X131445000Y-89535000D02*
X127000000Y-89535000D01*
D10*
X116490714Y-99682381D02*
X116528810Y-99720476D01*
X116566905Y-99834762D01*
X116566905Y-99910952D01*
X116528810Y-100025238D01*
X116452619Y-100101429D01*
X116376429Y-100139524D01*
X116224048Y-100177619D01*
X116109762Y-100177619D01*
X115957381Y-100139524D01*
X115881190Y-100101429D01*
X115805000Y-100025238D01*
X115766905Y-99910952D01*
X115766905Y-99834762D01*
X115805000Y-99720476D01*
X115843095Y-99682381D01*
X116566905Y-98882381D02*
X116185952Y-99149048D01*
X116566905Y-99339524D02*
X115766905Y-99339524D01*
X115766905Y-99034762D01*
X115805000Y-98958571D01*
X115843095Y-98920476D01*
X115919286Y-98882381D01*
X116033571Y-98882381D01*
X116109762Y-98920476D01*
X116147857Y-98958571D01*
X116185952Y-99034762D01*
X116185952Y-99339524D01*
X115843095Y-98577619D02*
X115805000Y-98539524D01*
X115766905Y-98463333D01*
X115766905Y-98272857D01*
X115805000Y-98196667D01*
X115843095Y-98158571D01*
X115919286Y-98120476D01*
X115995476Y-98120476D01*
X116109762Y-98158571D01*
X116566905Y-98615714D01*
X116566905Y-98120476D01*
X115766905Y-97625238D02*
X115766905Y-97549047D01*
X115805000Y-97472857D01*
X115843095Y-97434762D01*
X115919286Y-97396666D01*
X116071667Y-97358571D01*
X116262143Y-97358571D01*
X116414524Y-97396666D01*
X116490714Y-97434762D01*
X116528810Y-97472857D01*
X116566905Y-97549047D01*
X116566905Y-97625238D01*
X116528810Y-97701428D01*
X116490714Y-97739524D01*
X116414524Y-97777619D01*
X116262143Y-97815714D01*
X116071667Y-97815714D01*
X115919286Y-97777619D01*
X115843095Y-97739524D01*
X115805000Y-97701428D01*
X115766905Y-97625238D01*
X115766905Y-97091904D02*
X115766905Y-96596666D01*
X116071667Y-96863333D01*
X116071667Y-96749047D01*
X116109762Y-96672857D01*
X116147857Y-96634761D01*
X116224048Y-96596666D01*
X116414524Y-96596666D01*
X116490714Y-96634761D01*
X116528810Y-96672857D01*
X116566905Y-96749047D01*
X116566905Y-96977619D01*
X116528810Y-97053809D01*
X116490714Y-97091904D01*
X115843095Y-96291904D02*
X115805000Y-96253809D01*
X115766905Y-96177618D01*
X115766905Y-95987142D01*
X115805000Y-95910952D01*
X115843095Y-95872856D01*
X115919286Y-95834761D01*
X115995476Y-95834761D01*
X116109762Y-95872856D01*
X116566905Y-96329999D01*
X116566905Y-95834761D01*
X114877857Y-99872857D02*
X114915952Y-99758571D01*
X114954048Y-99720476D01*
X115030238Y-99682381D01*
X115144524Y-99682381D01*
X115220714Y-99720476D01*
X115258810Y-99758571D01*
X115296905Y-99834762D01*
X115296905Y-100139524D01*
X114496905Y-100139524D01*
X114496905Y-99872857D01*
X114535000Y-99796667D01*
X114573095Y-99758571D01*
X114649286Y-99720476D01*
X114725476Y-99720476D01*
X114801667Y-99758571D01*
X114839762Y-99796667D01*
X114877857Y-99872857D01*
X114877857Y-100139524D01*
X115068333Y-99377619D02*
X115068333Y-98996667D01*
X115296905Y-99453810D02*
X114496905Y-99187143D01*
X115296905Y-98920476D01*
X114496905Y-98768096D02*
X114496905Y-98310953D01*
X115296905Y-98539524D02*
X114496905Y-98539524D01*
X114496905Y-98158572D02*
X114496905Y-97701429D01*
X115296905Y-97930000D02*
X114496905Y-97930000D01*
X114877857Y-97434762D02*
X114877857Y-97168095D01*
X115296905Y-97053809D02*
X115296905Y-97434762D01*
X114496905Y-97434762D01*
X114496905Y-97053809D01*
X115296905Y-96253809D02*
X114915952Y-96520476D01*
X115296905Y-96710952D02*
X114496905Y-96710952D01*
X114496905Y-96406190D01*
X114535000Y-96329999D01*
X114573095Y-96291904D01*
X114649286Y-96253809D01*
X114763571Y-96253809D01*
X114839762Y-96291904D01*
X114877857Y-96329999D01*
X114915952Y-96406190D01*
X114915952Y-96710952D01*
X114915952Y-95758571D02*
X115296905Y-95758571D01*
X114496905Y-96025238D02*
X114915952Y-95758571D01*
X114496905Y-95491904D01*
X113607857Y-100139524D02*
X113607857Y-99872857D01*
X114026905Y-99758571D02*
X114026905Y-100139524D01*
X113226905Y-100139524D01*
X113226905Y-99758571D01*
X114026905Y-99415714D02*
X113226905Y-99415714D01*
X114026905Y-98958571D01*
X113226905Y-98958571D01*
X113798333Y-98615714D02*
X113798333Y-98234762D01*
X114026905Y-98691905D02*
X113226905Y-98425238D01*
X114026905Y-98158571D01*
X113607857Y-97625238D02*
X113645952Y-97510952D01*
X113684048Y-97472857D01*
X113760238Y-97434762D01*
X113874524Y-97434762D01*
X113950714Y-97472857D01*
X113988810Y-97510952D01*
X114026905Y-97587143D01*
X114026905Y-97891905D01*
X113226905Y-97891905D01*
X113226905Y-97625238D01*
X113265000Y-97549048D01*
X113303095Y-97510952D01*
X113379286Y-97472857D01*
X113455476Y-97472857D01*
X113531667Y-97510952D01*
X113569762Y-97549048D01*
X113607857Y-97625238D01*
X113607857Y-97891905D01*
X114026905Y-96710952D02*
X114026905Y-97091905D01*
X113226905Y-97091905D01*
X113607857Y-96444286D02*
X113607857Y-96177619D01*
X114026905Y-96063333D02*
X114026905Y-96444286D01*
X113226905Y-96444286D01*
X113226905Y-96063333D01*
X112756905Y-100139524D02*
X111956905Y-100139524D01*
X112756905Y-99301429D02*
X112375952Y-99568096D01*
X112756905Y-99758572D02*
X111956905Y-99758572D01*
X111956905Y-99453810D01*
X111995000Y-99377619D01*
X112033095Y-99339524D01*
X112109286Y-99301429D01*
X112223571Y-99301429D01*
X112299762Y-99339524D01*
X112337857Y-99377619D01*
X112375952Y-99453810D01*
X112375952Y-99758572D01*
X112833095Y-98425238D02*
X112795000Y-98501429D01*
X112718810Y-98577619D01*
X112604524Y-98691905D01*
X112566429Y-98768096D01*
X112566429Y-98844286D01*
X112756905Y-98806191D02*
X112718810Y-98882381D01*
X112642619Y-98958572D01*
X112490238Y-98996667D01*
X112223571Y-98996667D01*
X112071190Y-98958572D01*
X111995000Y-98882381D01*
X111956905Y-98806191D01*
X111956905Y-98653810D01*
X111995000Y-98577619D01*
X112071190Y-98501429D01*
X112223571Y-98463334D01*
X112490238Y-98463334D01*
X112642619Y-98501429D01*
X112718810Y-98577619D01*
X112756905Y-98653810D01*
X112756905Y-98806191D01*
X112337857Y-97244286D02*
X112375952Y-97130000D01*
X112414048Y-97091905D01*
X112490238Y-97053810D01*
X112604524Y-97053810D01*
X112680714Y-97091905D01*
X112718810Y-97130000D01*
X112756905Y-97206191D01*
X112756905Y-97510953D01*
X111956905Y-97510953D01*
X111956905Y-97244286D01*
X111995000Y-97168096D01*
X112033095Y-97130000D01*
X112109286Y-97091905D01*
X112185476Y-97091905D01*
X112261667Y-97130000D01*
X112299762Y-97168096D01*
X112337857Y-97244286D01*
X112337857Y-97510953D01*
X111956905Y-96710953D02*
X112604524Y-96710953D01*
X112680714Y-96672858D01*
X112718810Y-96634762D01*
X112756905Y-96558572D01*
X112756905Y-96406191D01*
X112718810Y-96330000D01*
X112680714Y-96291905D01*
X112604524Y-96253810D01*
X111956905Y-96253810D01*
X112718810Y-95910953D02*
X112756905Y-95796667D01*
X112756905Y-95606191D01*
X112718810Y-95530001D01*
X112680714Y-95491905D01*
X112604524Y-95453810D01*
X112528333Y-95453810D01*
X112452143Y-95491905D01*
X112414048Y-95530001D01*
X112375952Y-95606191D01*
X112337857Y-95758572D01*
X112299762Y-95834763D01*
X112261667Y-95872858D01*
X112185476Y-95910953D01*
X112109286Y-95910953D01*
X112033095Y-95872858D01*
X111995000Y-95834763D01*
X111956905Y-95758572D01*
X111956905Y-95568096D01*
X111995000Y-95453810D01*
X110686905Y-100215714D02*
X111486905Y-100025238D01*
X110915476Y-99872857D01*
X111486905Y-99720476D01*
X110686905Y-99530000D01*
X111258333Y-99263333D02*
X111258333Y-98882381D01*
X111486905Y-99339524D02*
X110686905Y-99072857D01*
X111486905Y-98806190D01*
X110686905Y-98653810D02*
X111486905Y-98387143D01*
X110686905Y-98120476D01*
X111067857Y-97853810D02*
X111067857Y-97587143D01*
X111486905Y-97472857D02*
X111486905Y-97853810D01*
X110686905Y-97853810D01*
X110686905Y-97472857D01*
X110178810Y-100177619D02*
X110216905Y-100063333D01*
X110216905Y-99872857D01*
X110178810Y-99796667D01*
X110140714Y-99758571D01*
X110064524Y-99720476D01*
X109988333Y-99720476D01*
X109912143Y-99758571D01*
X109874048Y-99796667D01*
X109835952Y-99872857D01*
X109797857Y-100025238D01*
X109759762Y-100101429D01*
X109721667Y-100139524D01*
X109645476Y-100177619D01*
X109569286Y-100177619D01*
X109493095Y-100139524D01*
X109455000Y-100101429D01*
X109416905Y-100025238D01*
X109416905Y-99834762D01*
X109455000Y-99720476D01*
X110293095Y-98844285D02*
X110255000Y-98920476D01*
X110178810Y-98996666D01*
X110064524Y-99110952D01*
X110026429Y-99187143D01*
X110026429Y-99263333D01*
X110216905Y-99225238D02*
X110178810Y-99301428D01*
X110102619Y-99377619D01*
X109950238Y-99415714D01*
X109683571Y-99415714D01*
X109531190Y-99377619D01*
X109455000Y-99301428D01*
X109416905Y-99225238D01*
X109416905Y-99072857D01*
X109455000Y-98996666D01*
X109531190Y-98920476D01*
X109683571Y-98882381D01*
X109950238Y-98882381D01*
X110102619Y-98920476D01*
X110178810Y-98996666D01*
X110216905Y-99072857D01*
X110216905Y-99225238D01*
X109416905Y-98539524D02*
X110064524Y-98539524D01*
X110140714Y-98501429D01*
X110178810Y-98463333D01*
X110216905Y-98387143D01*
X110216905Y-98234762D01*
X110178810Y-98158571D01*
X110140714Y-98120476D01*
X110064524Y-98082381D01*
X109416905Y-98082381D01*
X109988333Y-97739524D02*
X109988333Y-97358572D01*
X110216905Y-97815715D02*
X109416905Y-97549048D01*
X110216905Y-97282381D01*
X110216905Y-96558572D02*
X109835952Y-96825239D01*
X110216905Y-97015715D02*
X109416905Y-97015715D01*
X109416905Y-96710953D01*
X109455000Y-96634762D01*
X109493095Y-96596667D01*
X109569286Y-96558572D01*
X109683571Y-96558572D01*
X109759762Y-96596667D01*
X109797857Y-96634762D01*
X109835952Y-96710953D01*
X109835952Y-97015715D01*
X109797857Y-96215715D02*
X109797857Y-95949048D01*
X110216905Y-95834762D02*
X110216905Y-96215715D01*
X109416905Y-96215715D01*
X109416905Y-95834762D01*
D12*
X116840000Y-95250000D02*
X116840000Y-100330000D01*
X114300000Y-95250000D02*
X114300000Y-100330000D01*
X111760000Y-95250000D02*
X111760000Y-100330000D01*
X109220000Y-95250000D02*
X109220000Y-100330000D01*
D11*
X144455238Y-95670714D02*
X144455238Y-96480238D01*
X144407619Y-96575476D01*
X144360000Y-96623095D01*
X144264761Y-96670714D01*
X144121904Y-96670714D01*
X144026666Y-96623095D01*
X144455238Y-96289762D02*
X144360000Y-96337381D01*
X144169523Y-96337381D01*
X144074285Y-96289762D01*
X144026666Y-96242143D01*
X143979047Y-96146905D01*
X143979047Y-95861190D01*
X144026666Y-95765952D01*
X144074285Y-95718333D01*
X144169523Y-95670714D01*
X144360000Y-95670714D01*
X144455238Y-95718333D01*
X144931428Y-96337381D02*
X144931428Y-95670714D01*
X144931428Y-95337381D02*
X144883809Y-95385000D01*
X144931428Y-95432619D01*
X144979047Y-95385000D01*
X144931428Y-95337381D01*
X144931428Y-95432619D01*
X145264761Y-95670714D02*
X145645713Y-95670714D01*
X145407618Y-95337381D02*
X145407618Y-96194524D01*
X145455237Y-96289762D01*
X145550475Y-96337381D01*
X145645713Y-96337381D01*
X145979047Y-96337381D02*
X145979047Y-95337381D01*
X146407619Y-96337381D02*
X146407619Y-95813571D01*
X146360000Y-95718333D01*
X146264762Y-95670714D01*
X146121904Y-95670714D01*
X146026666Y-95718333D01*
X145979047Y-95765952D01*
X147312381Y-95670714D02*
X147312381Y-96337381D01*
X146883809Y-95670714D02*
X146883809Y-96194524D01*
X146931428Y-96289762D01*
X147026666Y-96337381D01*
X147169524Y-96337381D01*
X147264762Y-96289762D01*
X147312381Y-96242143D01*
X147788571Y-96337381D02*
X147788571Y-95337381D01*
X147788571Y-95718333D02*
X147883809Y-95670714D01*
X148074286Y-95670714D01*
X148169524Y-95718333D01*
X148217143Y-95765952D01*
X148264762Y-95861190D01*
X148264762Y-96146905D01*
X148217143Y-96242143D01*
X148169524Y-96289762D01*
X148074286Y-96337381D01*
X147883809Y-96337381D01*
X147788571Y-96289762D01*
X148693333Y-96242143D02*
X148740952Y-96289762D01*
X148693333Y-96337381D01*
X148645714Y-96289762D01*
X148693333Y-96242143D01*
X148693333Y-96337381D01*
X149598095Y-96289762D02*
X149502857Y-96337381D01*
X149312380Y-96337381D01*
X149217142Y-96289762D01*
X149169523Y-96242143D01*
X149121904Y-96146905D01*
X149121904Y-95861190D01*
X149169523Y-95765952D01*
X149217142Y-95718333D01*
X149312380Y-95670714D01*
X149502857Y-95670714D01*
X149598095Y-95718333D01*
X150169523Y-96337381D02*
X150074285Y-96289762D01*
X150026666Y-96242143D01*
X149979047Y-96146905D01*
X149979047Y-95861190D01*
X150026666Y-95765952D01*
X150074285Y-95718333D01*
X150169523Y-95670714D01*
X150312381Y-95670714D01*
X150407619Y-95718333D01*
X150455238Y-95765952D01*
X150502857Y-95861190D01*
X150502857Y-96146905D01*
X150455238Y-96242143D01*
X150407619Y-96289762D01*
X150312381Y-96337381D01*
X150169523Y-96337381D01*
X150931428Y-96337381D02*
X150931428Y-95670714D01*
X150931428Y-95765952D02*
X150979047Y-95718333D01*
X151074285Y-95670714D01*
X151217143Y-95670714D01*
X151312381Y-95718333D01*
X151360000Y-95813571D01*
X151360000Y-96337381D01*
X151360000Y-95813571D02*
X151407619Y-95718333D01*
X151502857Y-95670714D01*
X151645714Y-95670714D01*
X151740952Y-95718333D01*
X151788571Y-95813571D01*
X151788571Y-96337381D01*
X152979047Y-95289762D02*
X152121904Y-96575476D01*
X153169523Y-95670714D02*
X153550475Y-95670714D01*
X153312380Y-95337381D02*
X153312380Y-96194524D01*
X153359999Y-96289762D01*
X153455237Y-96337381D01*
X153550475Y-96337381D01*
X154264762Y-96289762D02*
X154169524Y-96337381D01*
X153979047Y-96337381D01*
X153883809Y-96289762D01*
X153836190Y-96194524D01*
X153836190Y-95813571D01*
X153883809Y-95718333D01*
X153979047Y-95670714D01*
X154169524Y-95670714D01*
X154264762Y-95718333D01*
X154312381Y-95813571D01*
X154312381Y-95908810D01*
X153836190Y-96004048D01*
X154740952Y-96337381D02*
X154740952Y-95337381D01*
X154740952Y-95718333D02*
X154836190Y-95670714D01*
X155026667Y-95670714D01*
X155121905Y-95718333D01*
X155169524Y-95765952D01*
X155217143Y-95861190D01*
X155217143Y-96146905D01*
X155169524Y-96242143D01*
X155121905Y-96289762D01*
X155026667Y-96337381D01*
X154836190Y-96337381D01*
X154740952Y-96289762D01*
X155788571Y-96337381D02*
X155693333Y-96289762D01*
X155645714Y-96194524D01*
X155645714Y-95337381D01*
X144502857Y-94432381D02*
X144169523Y-93956190D01*
X143931428Y-94432381D02*
X143931428Y-93432381D01*
X144312381Y-93432381D01*
X144407619Y-93480000D01*
X144455238Y-93527619D01*
X144502857Y-93622857D01*
X144502857Y-93765714D01*
X144455238Y-93860952D01*
X144407619Y-93908571D01*
X144312381Y-93956190D01*
X143931428Y-93956190D01*
X145312381Y-94384762D02*
X145217143Y-94432381D01*
X145026666Y-94432381D01*
X144931428Y-94384762D01*
X144883809Y-94289524D01*
X144883809Y-93908571D01*
X144931428Y-93813333D01*
X145026666Y-93765714D01*
X145217143Y-93765714D01*
X145312381Y-93813333D01*
X145360000Y-93908571D01*
X145360000Y-94003810D01*
X144883809Y-94099048D01*
X146217143Y-94432381D02*
X146217143Y-93908571D01*
X146169524Y-93813333D01*
X146074286Y-93765714D01*
X145883809Y-93765714D01*
X145788571Y-93813333D01*
X146217143Y-94384762D02*
X146121905Y-94432381D01*
X145883809Y-94432381D01*
X145788571Y-94384762D01*
X145740952Y-94289524D01*
X145740952Y-94194286D01*
X145788571Y-94099048D01*
X145883809Y-94051429D01*
X146121905Y-94051429D01*
X146217143Y-94003810D01*
X146836190Y-94432381D02*
X146740952Y-94384762D01*
X146693333Y-94289524D01*
X146693333Y-93432381D01*
X147836191Y-93432381D02*
X148407620Y-93432381D01*
X148121905Y-94432381D02*
X148121905Y-93432381D01*
X148740953Y-94432381D02*
X148740953Y-93765714D01*
X148740953Y-93432381D02*
X148693334Y-93480000D01*
X148740953Y-93527619D01*
X148788572Y-93480000D01*
X148740953Y-93432381D01*
X148740953Y-93527619D01*
X149217143Y-94432381D02*
X149217143Y-93765714D01*
X149217143Y-93860952D02*
X149264762Y-93813333D01*
X149360000Y-93765714D01*
X149502858Y-93765714D01*
X149598096Y-93813333D01*
X149645715Y-93908571D01*
X149645715Y-94432381D01*
X149645715Y-93908571D02*
X149693334Y-93813333D01*
X149788572Y-93765714D01*
X149931429Y-93765714D01*
X150026667Y-93813333D01*
X150074286Y-93908571D01*
X150074286Y-94432381D01*
X150931429Y-94384762D02*
X150836191Y-94432381D01*
X150645714Y-94432381D01*
X150550476Y-94384762D01*
X150502857Y-94289524D01*
X150502857Y-93908571D01*
X150550476Y-93813333D01*
X150645714Y-93765714D01*
X150836191Y-93765714D01*
X150931429Y-93813333D01*
X150979048Y-93908571D01*
X150979048Y-94003810D01*
X150502857Y-94099048D01*
X152740953Y-94337143D02*
X152693334Y-94384762D01*
X152550477Y-94432381D01*
X152455239Y-94432381D01*
X152312381Y-94384762D01*
X152217143Y-94289524D01*
X152169524Y-94194286D01*
X152121905Y-94003810D01*
X152121905Y-93860952D01*
X152169524Y-93670476D01*
X152217143Y-93575238D01*
X152312381Y-93480000D01*
X152455239Y-93432381D01*
X152550477Y-93432381D01*
X152693334Y-93480000D01*
X152740953Y-93527619D01*
X153312381Y-94432381D02*
X153217143Y-94384762D01*
X153169524Y-94289524D01*
X153169524Y-93432381D01*
X153836191Y-94432381D02*
X153740953Y-94384762D01*
X153693334Y-94337143D01*
X153645715Y-94241905D01*
X153645715Y-93956190D01*
X153693334Y-93860952D01*
X153740953Y-93813333D01*
X153836191Y-93765714D01*
X153979049Y-93765714D01*
X154074287Y-93813333D01*
X154121906Y-93860952D01*
X154169525Y-93956190D01*
X154169525Y-94241905D01*
X154121906Y-94337143D01*
X154074287Y-94384762D01*
X153979049Y-94432381D01*
X153836191Y-94432381D01*
X155026668Y-94384762D02*
X154931430Y-94432381D01*
X154740953Y-94432381D01*
X154645715Y-94384762D01*
X154598096Y-94337143D01*
X154550477Y-94241905D01*
X154550477Y-93956190D01*
X154598096Y-93860952D01*
X154645715Y-93813333D01*
X154740953Y-93765714D01*
X154931430Y-93765714D01*
X155026668Y-93813333D01*
X155455239Y-94432381D02*
X155455239Y-93432381D01*
X155550477Y-94051429D02*
X155836192Y-94432381D01*
X155836192Y-93765714D02*
X155455239Y-94146667D01*
D13*
X146395714Y-92118571D02*
X145895714Y-91404286D01*
X145538571Y-92118571D02*
X145538571Y-90618571D01*
X146109999Y-90618571D01*
X146252857Y-90690000D01*
X146324285Y-90761429D01*
X146395714Y-90904286D01*
X146395714Y-91118571D01*
X146324285Y-91261429D01*
X146252857Y-91332857D01*
X146109999Y-91404286D01*
X145538571Y-91404286D01*
X147895714Y-91975714D02*
X147824285Y-92047143D01*
X147609999Y-92118571D01*
X147467142Y-92118571D01*
X147252857Y-92047143D01*
X147109999Y-91904286D01*
X147038571Y-91761429D01*
X146967142Y-91475714D01*
X146967142Y-91261429D01*
X147038571Y-90975714D01*
X147109999Y-90832857D01*
X147252857Y-90690000D01*
X147467142Y-90618571D01*
X147609999Y-90618571D01*
X147824285Y-90690000D01*
X147895714Y-90761429D01*
X148538571Y-91547143D02*
X149681428Y-91547143D01*
X150681428Y-90618571D02*
X150967142Y-90618571D01*
X151110000Y-90690000D01*
X151252857Y-90832857D01*
X151324285Y-91118571D01*
X151324285Y-91618571D01*
X151252857Y-91904286D01*
X151110000Y-92047143D01*
X150967142Y-92118571D01*
X150681428Y-92118571D01*
X150538571Y-92047143D01*
X150395714Y-91904286D01*
X150324285Y-91618571D01*
X150324285Y-91118571D01*
X150395714Y-90832857D01*
X150538571Y-90690000D01*
X150681428Y-90618571D01*
X151967143Y-92118571D02*
X151967143Y-90618571D01*
X152824286Y-92118571D01*
X152824286Y-90618571D01*
X153538572Y-91332857D02*
X154038572Y-91332857D01*
X154252858Y-92118571D02*
X153538572Y-92118571D01*
X153538572Y-90618571D01*
X154252858Y-90618571D01*
D10*
X186994762Y-107219762D02*
X186918571Y-107181667D01*
X186880476Y-107143571D01*
X186842381Y-107067381D01*
X186842381Y-107029286D01*
X186880476Y-106953095D01*
X186918571Y-106915000D01*
X186994762Y-106876905D01*
X187147143Y-106876905D01*
X187223333Y-106915000D01*
X187261429Y-106953095D01*
X187299524Y-107029286D01*
X187299524Y-107067381D01*
X187261429Y-107143571D01*
X187223333Y-107181667D01*
X187147143Y-107219762D01*
X186994762Y-107219762D01*
X186918571Y-107257857D01*
X186880476Y-107295952D01*
X186842381Y-107372143D01*
X186842381Y-107524524D01*
X186880476Y-107600714D01*
X186918571Y-107638810D01*
X186994762Y-107676905D01*
X187147143Y-107676905D01*
X187223333Y-107638810D01*
X187261429Y-107600714D01*
X187299524Y-107524524D01*
X187299524Y-107372143D01*
X187261429Y-107295952D01*
X187223333Y-107257857D01*
X187147143Y-107219762D01*
X187642381Y-107676905D02*
X187642381Y-106876905D01*
X188099524Y-107676905D02*
X187756667Y-107219762D01*
X188099524Y-106876905D02*
X187642381Y-107334048D01*
X188785238Y-106876905D02*
X188632857Y-106876905D01*
X188556667Y-106915000D01*
X188518572Y-106953095D01*
X188442381Y-107067381D01*
X188404286Y-107219762D01*
X188404286Y-107524524D01*
X188442381Y-107600714D01*
X188480476Y-107638810D01*
X188556667Y-107676905D01*
X188709048Y-107676905D01*
X188785238Y-107638810D01*
X188823334Y-107600714D01*
X188861429Y-107524524D01*
X188861429Y-107334048D01*
X188823334Y-107257857D01*
X188785238Y-107219762D01*
X188709048Y-107181667D01*
X188556667Y-107181667D01*
X188480476Y-107219762D01*
X188442381Y-107257857D01*
X188404286Y-107334048D01*
X186994762Y-104679762D02*
X186918571Y-104641667D01*
X186880476Y-104603571D01*
X186842381Y-104527381D01*
X186842381Y-104489286D01*
X186880476Y-104413095D01*
X186918571Y-104375000D01*
X186994762Y-104336905D01*
X187147143Y-104336905D01*
X187223333Y-104375000D01*
X187261429Y-104413095D01*
X187299524Y-104489286D01*
X187299524Y-104527381D01*
X187261429Y-104603571D01*
X187223333Y-104641667D01*
X187147143Y-104679762D01*
X186994762Y-104679762D01*
X186918571Y-104717857D01*
X186880476Y-104755952D01*
X186842381Y-104832143D01*
X186842381Y-104984524D01*
X186880476Y-105060714D01*
X186918571Y-105098810D01*
X186994762Y-105136905D01*
X187147143Y-105136905D01*
X187223333Y-105098810D01*
X187261429Y-105060714D01*
X187299524Y-104984524D01*
X187299524Y-104832143D01*
X187261429Y-104755952D01*
X187223333Y-104717857D01*
X187147143Y-104679762D01*
X187642381Y-105136905D02*
X187642381Y-104336905D01*
X188099524Y-105136905D02*
X187756667Y-104679762D01*
X188099524Y-104336905D02*
X187642381Y-104794048D01*
X188823334Y-104336905D02*
X188442381Y-104336905D01*
X188404286Y-104717857D01*
X188442381Y-104679762D01*
X188518572Y-104641667D01*
X188709048Y-104641667D01*
X188785238Y-104679762D01*
X188823334Y-104717857D01*
X188861429Y-104794048D01*
X188861429Y-104984524D01*
X188823334Y-105060714D01*
X188785238Y-105098810D01*
X188709048Y-105136905D01*
X188518572Y-105136905D01*
X188442381Y-105098810D01*
X188404286Y-105060714D01*
X186994762Y-102139762D02*
X186918571Y-102101667D01*
X186880476Y-102063571D01*
X186842381Y-101987381D01*
X186842381Y-101949286D01*
X186880476Y-101873095D01*
X186918571Y-101835000D01*
X186994762Y-101796905D01*
X187147143Y-101796905D01*
X187223333Y-101835000D01*
X187261429Y-101873095D01*
X187299524Y-101949286D01*
X187299524Y-101987381D01*
X187261429Y-102063571D01*
X187223333Y-102101667D01*
X187147143Y-102139762D01*
X186994762Y-102139762D01*
X186918571Y-102177857D01*
X186880476Y-102215952D01*
X186842381Y-102292143D01*
X186842381Y-102444524D01*
X186880476Y-102520714D01*
X186918571Y-102558810D01*
X186994762Y-102596905D01*
X187147143Y-102596905D01*
X187223333Y-102558810D01*
X187261429Y-102520714D01*
X187299524Y-102444524D01*
X187299524Y-102292143D01*
X187261429Y-102215952D01*
X187223333Y-102177857D01*
X187147143Y-102139762D01*
X187642381Y-102596905D02*
X187642381Y-101796905D01*
X188099524Y-102596905D02*
X187756667Y-102139762D01*
X188099524Y-101796905D02*
X187642381Y-102254048D01*
X188785238Y-102063571D02*
X188785238Y-102596905D01*
X188594762Y-101758810D02*
X188404286Y-102330238D01*
X188899524Y-102330238D01*
X186994762Y-99599762D02*
X186918571Y-99561667D01*
X186880476Y-99523571D01*
X186842381Y-99447381D01*
X186842381Y-99409286D01*
X186880476Y-99333095D01*
X186918571Y-99295000D01*
X186994762Y-99256905D01*
X187147143Y-99256905D01*
X187223333Y-99295000D01*
X187261429Y-99333095D01*
X187299524Y-99409286D01*
X187299524Y-99447381D01*
X187261429Y-99523571D01*
X187223333Y-99561667D01*
X187147143Y-99599762D01*
X186994762Y-99599762D01*
X186918571Y-99637857D01*
X186880476Y-99675952D01*
X186842381Y-99752143D01*
X186842381Y-99904524D01*
X186880476Y-99980714D01*
X186918571Y-100018810D01*
X186994762Y-100056905D01*
X187147143Y-100056905D01*
X187223333Y-100018810D01*
X187261429Y-99980714D01*
X187299524Y-99904524D01*
X187299524Y-99752143D01*
X187261429Y-99675952D01*
X187223333Y-99637857D01*
X187147143Y-99599762D01*
X187642381Y-100056905D02*
X187642381Y-99256905D01*
X188099524Y-100056905D02*
X187756667Y-99599762D01*
X188099524Y-99256905D02*
X187642381Y-99714048D01*
X188366191Y-99256905D02*
X188861429Y-99256905D01*
X188594762Y-99561667D01*
X188709048Y-99561667D01*
X188785238Y-99599762D01*
X188823334Y-99637857D01*
X188861429Y-99714048D01*
X188861429Y-99904524D01*
X188823334Y-99980714D01*
X188785238Y-100018810D01*
X188709048Y-100056905D01*
X188480476Y-100056905D01*
X188404286Y-100018810D01*
X188366191Y-99980714D01*
X186994762Y-97059762D02*
X186918571Y-97021667D01*
X186880476Y-96983571D01*
X186842381Y-96907381D01*
X186842381Y-96869286D01*
X186880476Y-96793095D01*
X186918571Y-96755000D01*
X186994762Y-96716905D01*
X187147143Y-96716905D01*
X187223333Y-96755000D01*
X187261429Y-96793095D01*
X187299524Y-96869286D01*
X187299524Y-96907381D01*
X187261429Y-96983571D01*
X187223333Y-97021667D01*
X187147143Y-97059762D01*
X186994762Y-97059762D01*
X186918571Y-97097857D01*
X186880476Y-97135952D01*
X186842381Y-97212143D01*
X186842381Y-97364524D01*
X186880476Y-97440714D01*
X186918571Y-97478810D01*
X186994762Y-97516905D01*
X187147143Y-97516905D01*
X187223333Y-97478810D01*
X187261429Y-97440714D01*
X187299524Y-97364524D01*
X187299524Y-97212143D01*
X187261429Y-97135952D01*
X187223333Y-97097857D01*
X187147143Y-97059762D01*
X187642381Y-97516905D02*
X187642381Y-96716905D01*
X188099524Y-97516905D02*
X187756667Y-97059762D01*
X188099524Y-96716905D02*
X187642381Y-97174048D01*
X188404286Y-96793095D02*
X188442381Y-96755000D01*
X188518572Y-96716905D01*
X188709048Y-96716905D01*
X188785238Y-96755000D01*
X188823334Y-96793095D01*
X188861429Y-96869286D01*
X188861429Y-96945476D01*
X188823334Y-97059762D01*
X188366191Y-97516905D01*
X188861429Y-97516905D01*
X192538333Y-105917382D02*
X192538333Y-105536430D01*
X192766905Y-105993573D02*
X191966905Y-105726906D01*
X192766905Y-105460239D01*
X192766905Y-105193573D02*
X191966905Y-105193573D01*
X191966905Y-105003097D01*
X192005000Y-104888811D01*
X192081190Y-104812620D01*
X192157381Y-104774525D01*
X192309762Y-104736430D01*
X192424048Y-104736430D01*
X192576429Y-104774525D01*
X192652619Y-104812620D01*
X192728810Y-104888811D01*
X192766905Y-105003097D01*
X192766905Y-105193573D01*
X192766905Y-104393573D02*
X191966905Y-104393573D01*
X191966905Y-104203097D01*
X192005000Y-104088811D01*
X192081190Y-104012620D01*
X192157381Y-103974525D01*
X192309762Y-103936430D01*
X192424048Y-103936430D01*
X192576429Y-103974525D01*
X192652619Y-104012620D01*
X192728810Y-104088811D01*
X192766905Y-104203097D01*
X192766905Y-104393573D01*
X192766905Y-103136430D02*
X192385952Y-103403097D01*
X192766905Y-103593573D02*
X191966905Y-103593573D01*
X191966905Y-103288811D01*
X192005000Y-103212620D01*
X192043095Y-103174525D01*
X192119286Y-103136430D01*
X192233571Y-103136430D01*
X192309762Y-103174525D01*
X192347857Y-103212620D01*
X192385952Y-103288811D01*
X192385952Y-103593573D01*
X192347857Y-102793573D02*
X192347857Y-102526906D01*
X192766905Y-102412620D02*
X192766905Y-102793573D01*
X191966905Y-102793573D01*
X191966905Y-102412620D01*
X192728810Y-102107858D02*
X192766905Y-101993572D01*
X192766905Y-101803096D01*
X192728810Y-101726906D01*
X192690714Y-101688810D01*
X192614524Y-101650715D01*
X192538333Y-101650715D01*
X192462143Y-101688810D01*
X192424048Y-101726906D01*
X192385952Y-101803096D01*
X192347857Y-101955477D01*
X192309762Y-102031668D01*
X192271667Y-102069763D01*
X192195476Y-102107858D01*
X192119286Y-102107858D01*
X192043095Y-102069763D01*
X192005000Y-102031668D01*
X191966905Y-101955477D01*
X191966905Y-101765001D01*
X192005000Y-101650715D01*
X192728810Y-101345953D02*
X192766905Y-101231667D01*
X192766905Y-101041191D01*
X192728810Y-100965001D01*
X192690714Y-100926905D01*
X192614524Y-100888810D01*
X192538333Y-100888810D01*
X192462143Y-100926905D01*
X192424048Y-100965001D01*
X192385952Y-101041191D01*
X192347857Y-101193572D01*
X192309762Y-101269763D01*
X192271667Y-101307858D01*
X192195476Y-101345953D01*
X192119286Y-101345953D01*
X192043095Y-101307858D01*
X192005000Y-101269763D01*
X191966905Y-101193572D01*
X191966905Y-101003096D01*
X192005000Y-100888810D01*
X192728810Y-99974524D02*
X192766905Y-99860238D01*
X192766905Y-99669762D01*
X192728810Y-99593572D01*
X192690714Y-99555476D01*
X192614524Y-99517381D01*
X192538333Y-99517381D01*
X192462143Y-99555476D01*
X192424048Y-99593572D01*
X192385952Y-99669762D01*
X192347857Y-99822143D01*
X192309762Y-99898334D01*
X192271667Y-99936429D01*
X192195476Y-99974524D01*
X192119286Y-99974524D01*
X192043095Y-99936429D01*
X192005000Y-99898334D01*
X191966905Y-99822143D01*
X191966905Y-99631667D01*
X192005000Y-99517381D01*
X192347857Y-99174524D02*
X192347857Y-98907857D01*
X192766905Y-98793571D02*
X192766905Y-99174524D01*
X191966905Y-99174524D01*
X191966905Y-98793571D01*
X192766905Y-98069761D02*
X192766905Y-98450714D01*
X191966905Y-98450714D01*
X192347857Y-97803095D02*
X192347857Y-97536428D01*
X192766905Y-97422142D02*
X192766905Y-97803095D01*
X191966905Y-97803095D01*
X191966905Y-97422142D01*
X192690714Y-96622142D02*
X192728810Y-96660237D01*
X192766905Y-96774523D01*
X192766905Y-96850713D01*
X192728810Y-96964999D01*
X192652619Y-97041190D01*
X192576429Y-97079285D01*
X192424048Y-97117380D01*
X192309762Y-97117380D01*
X192157381Y-97079285D01*
X192081190Y-97041190D01*
X192005000Y-96964999D01*
X191966905Y-96850713D01*
X191966905Y-96774523D01*
X192005000Y-96660237D01*
X192043095Y-96622142D01*
X191966905Y-96393571D02*
X191966905Y-95936428D01*
X192766905Y-96164999D02*
X191966905Y-96164999D01*
D12*
X192405000Y-108585000D02*
X192405000Y-107950000D01*
X186690000Y-108585000D02*
X192405000Y-108585000D01*
X192405000Y-93345000D02*
X192405000Y-93980000D01*
X186690000Y-93345000D02*
X192405000Y-93345000D01*
X186690000Y-106045000D02*
X191135000Y-106045000D01*
X186690000Y-103505000D02*
X191135000Y-103505000D01*
X186690000Y-100965000D02*
X191135000Y-100965000D01*
X186690000Y-98425000D02*
X191135000Y-98425000D01*
X186690000Y-95885000D02*
X191135000Y-95885000D01*
D10*
X186994762Y-94519762D02*
X186918571Y-94481667D01*
X186880476Y-94443571D01*
X186842381Y-94367381D01*
X186842381Y-94329286D01*
X186880476Y-94253095D01*
X186918571Y-94215000D01*
X186994762Y-94176905D01*
X187147143Y-94176905D01*
X187223333Y-94215000D01*
X187261429Y-94253095D01*
X187299524Y-94329286D01*
X187299524Y-94367381D01*
X187261429Y-94443571D01*
X187223333Y-94481667D01*
X187147143Y-94519762D01*
X186994762Y-94519762D01*
X186918571Y-94557857D01*
X186880476Y-94595952D01*
X186842381Y-94672143D01*
X186842381Y-94824524D01*
X186880476Y-94900714D01*
X186918571Y-94938810D01*
X186994762Y-94976905D01*
X187147143Y-94976905D01*
X187223333Y-94938810D01*
X187261429Y-94900714D01*
X187299524Y-94824524D01*
X187299524Y-94672143D01*
X187261429Y-94595952D01*
X187223333Y-94557857D01*
X187147143Y-94519762D01*
X187642381Y-94976905D02*
X187642381Y-94176905D01*
X188099524Y-94976905D02*
X187756667Y-94519762D01*
X188099524Y-94176905D02*
X187642381Y-94634048D01*
X188861429Y-94976905D02*
X188404286Y-94976905D01*
X188632857Y-94976905D02*
X188632857Y-94176905D01*
X188556667Y-94291190D01*
X188480476Y-94367381D01*
X188404286Y-94405476D01*
D14*
X147995000Y-113755000D02*
X147995000Y-118575000D01*
X145375000Y-113755000D02*
X145375000Y-118575000D01*
X147995000Y-113755000D02*
X147681000Y-113755000D01*
X145689000Y-113755000D02*
X145375000Y-113755000D01*
X147995000Y-118575000D02*
X147681000Y-118575000D01*
X145689000Y-118575000D02*
X145375000Y-118575000D01*
X117515000Y-103595000D02*
X117515000Y-108415000D01*
X114895000Y-103595000D02*
X114895000Y-108415000D01*
X117515000Y-103595000D02*
X117201000Y-103595000D01*
X115209000Y-103595000D02*
X114895000Y-103595000D01*
X117515000Y-108415000D02*
X117201000Y-108415000D01*
X115209000Y-108415000D02*
X114895000Y-108415000D01*
X163235000Y-113755000D02*
X163235000Y-118575000D01*
X160615000Y-113755000D02*
X160615000Y-118575000D01*
X163235000Y-113755000D02*
X162921000Y-113755000D01*
X160929000Y-113755000D02*
X160615000Y-113755000D01*
X163235000Y-118575000D02*
X162921000Y-118575000D01*
X160929000Y-118575000D02*
X160615000Y-118575000D01*
X132755000Y-113755000D02*
X132755000Y-118575000D01*
X130135000Y-113755000D02*
X130135000Y-118575000D01*
X132755000Y-113755000D02*
X132441000Y-113755000D01*
X130449000Y-113755000D02*
X130135000Y-113755000D01*
X132755000Y-118575000D02*
X132441000Y-118575000D01*
X130449000Y-118575000D02*
X130135000Y-118575000D01*
X193715000Y-113755000D02*
X193715000Y-118575000D01*
X191095000Y-113755000D02*
X191095000Y-118575000D01*
X193715000Y-113755000D02*
X193401000Y-113755000D01*
X191409000Y-113755000D02*
X191095000Y-113755000D01*
X193715000Y-118575000D02*
X193401000Y-118575000D01*
X191409000Y-118575000D02*
X191095000Y-118575000D01*
X178475000Y-113755000D02*
X178475000Y-118575000D01*
X175855000Y-113755000D02*
X175855000Y-118575000D01*
X178475000Y-113755000D02*
X178161000Y-113755000D01*
X176169000Y-113755000D02*
X175855000Y-113755000D01*
X178475000Y-118575000D02*
X178161000Y-118575000D01*
X176169000Y-118575000D02*
X175855000Y-118575000D01*
X142785000Y-109895000D02*
X137965000Y-109895000D01*
X142785000Y-107275000D02*
X137965000Y-107275000D01*
X142785000Y-109895000D02*
X142785000Y-109581000D01*
X142785000Y-107589000D02*
X142785000Y-107275000D01*
X137965000Y-109895000D02*
X137965000Y-109581000D01*
X137965000Y-107589000D02*
X137965000Y-107275000D01*
X194370000Y-148760000D02*
X95190000Y-148760000D01*
X95190000Y-148760000D02*
X95190000Y-151420000D01*
X95190000Y-151420000D02*
X194370000Y-151420000D01*
X194370000Y-151420000D02*
X194370000Y-148760000D01*
X193420000Y-151420000D02*
X193420000Y-157420000D01*
X193420000Y-157420000D02*
X192660000Y-157420000D01*
X192660000Y-157420000D02*
X192660000Y-151420000D01*
X193360000Y-151420000D02*
X193360000Y-157420000D01*
X193240000Y-151420000D02*
X193240000Y-157420000D01*
X193120000Y-151420000D02*
X193120000Y-157420000D01*
X193000000Y-151420000D02*
X193000000Y-157420000D01*
X192880000Y-151420000D02*
X192880000Y-157420000D01*
X192760000Y-151420000D02*
X192760000Y-157420000D01*
X193420000Y-148430000D02*
X193420000Y-148760000D01*
X192660000Y-148430000D02*
X192660000Y-148760000D01*
X191770000Y-148760000D02*
X191770000Y-151420000D01*
X190880000Y-151420000D02*
X190880000Y-157420000D01*
X190880000Y-157420000D02*
X190120000Y-157420000D01*
X190120000Y-157420000D02*
X190120000Y-151420000D01*
X190880000Y-148362929D02*
X190880000Y-148760000D01*
X190120000Y-148362929D02*
X190120000Y-148760000D01*
X189230000Y-148760000D02*
X189230000Y-151420000D01*
X188340000Y-151420000D02*
X188340000Y-157420000D01*
X188340000Y-157420000D02*
X187580000Y-157420000D01*
X187580000Y-157420000D02*
X187580000Y-151420000D01*
X188340000Y-148362929D02*
X188340000Y-148760000D01*
X187580000Y-148362929D02*
X187580000Y-148760000D01*
X186690000Y-148760000D02*
X186690000Y-151420000D01*
X185800000Y-151420000D02*
X185800000Y-157420000D01*
X185800000Y-157420000D02*
X185040000Y-157420000D01*
X185040000Y-157420000D02*
X185040000Y-151420000D01*
X185800000Y-148362929D02*
X185800000Y-148760000D01*
X185040000Y-148362929D02*
X185040000Y-148760000D01*
X184150000Y-148760000D02*
X184150000Y-151420000D01*
X183260000Y-151420000D02*
X183260000Y-157420000D01*
X183260000Y-157420000D02*
X182500000Y-157420000D01*
X182500000Y-157420000D02*
X182500000Y-151420000D01*
X183260000Y-148362929D02*
X183260000Y-148760000D01*
X182500000Y-148362929D02*
X182500000Y-148760000D01*
X181610000Y-148760000D02*
X181610000Y-151420000D01*
X180720000Y-151420000D02*
X180720000Y-157420000D01*
X180720000Y-157420000D02*
X179960000Y-157420000D01*
X179960000Y-157420000D02*
X179960000Y-151420000D01*
X180720000Y-148362929D02*
X180720000Y-148760000D01*
X179960000Y-148362929D02*
X179960000Y-148760000D01*
X179070000Y-148760000D02*
X179070000Y-151420000D01*
X178180000Y-151420000D02*
X178180000Y-157420000D01*
X178180000Y-157420000D02*
X177420000Y-157420000D01*
X177420000Y-157420000D02*
X177420000Y-151420000D01*
X178180000Y-148362929D02*
X178180000Y-148760000D01*
X177420000Y-148362929D02*
X177420000Y-148760000D01*
X176530000Y-148760000D02*
X176530000Y-151420000D01*
X175640000Y-151420000D02*
X175640000Y-157420000D01*
X175640000Y-157420000D02*
X174880000Y-157420000D01*
X174880000Y-157420000D02*
X174880000Y-151420000D01*
X175640000Y-148362929D02*
X175640000Y-148760000D01*
X174880000Y-148362929D02*
X174880000Y-148760000D01*
X173990000Y-148760000D02*
X173990000Y-151420000D01*
X173100000Y-151420000D02*
X173100000Y-157420000D01*
X173100000Y-157420000D02*
X172340000Y-157420000D01*
X172340000Y-157420000D02*
X172340000Y-151420000D01*
X173100000Y-148362929D02*
X173100000Y-148760000D01*
X172340000Y-148362929D02*
X172340000Y-148760000D01*
X171450000Y-148760000D02*
X171450000Y-151420000D01*
X170560000Y-151420000D02*
X170560000Y-157420000D01*
X170560000Y-157420000D02*
X169800000Y-157420000D01*
X169800000Y-157420000D02*
X169800000Y-151420000D01*
X170560000Y-148362929D02*
X170560000Y-148760000D01*
X169800000Y-148362929D02*
X169800000Y-148760000D01*
X168910000Y-148760000D02*
X168910000Y-151420000D01*
X168020000Y-151420000D02*
X168020000Y-157420000D01*
X168020000Y-157420000D02*
X167260000Y-157420000D01*
X167260000Y-157420000D02*
X167260000Y-151420000D01*
X168020000Y-148362929D02*
X168020000Y-148760000D01*
X167260000Y-148362929D02*
X167260000Y-148760000D01*
X166370000Y-148760000D02*
X166370000Y-151420000D01*
X165480000Y-151420000D02*
X165480000Y-157420000D01*
X165480000Y-157420000D02*
X164720000Y-157420000D01*
X164720000Y-157420000D02*
X164720000Y-151420000D01*
X165480000Y-148362929D02*
X165480000Y-148760000D01*
X164720000Y-148362929D02*
X164720000Y-148760000D01*
X163830000Y-148760000D02*
X163830000Y-151420000D01*
X162940000Y-151420000D02*
X162940000Y-157420000D01*
X162940000Y-157420000D02*
X162180000Y-157420000D01*
X162180000Y-157420000D02*
X162180000Y-151420000D01*
X162940000Y-148362929D02*
X162940000Y-148760000D01*
X162180000Y-148362929D02*
X162180000Y-148760000D01*
X161290000Y-148760000D02*
X161290000Y-151420000D01*
X160400000Y-151420000D02*
X160400000Y-157420000D01*
X160400000Y-157420000D02*
X159640000Y-157420000D01*
X159640000Y-157420000D02*
X159640000Y-151420000D01*
X160400000Y-148362929D02*
X160400000Y-148760000D01*
X159640000Y-148362929D02*
X159640000Y-148760000D01*
X158750000Y-148760000D02*
X158750000Y-151420000D01*
X157860000Y-151420000D02*
X157860000Y-157420000D01*
X157860000Y-157420000D02*
X157100000Y-157420000D01*
X157100000Y-157420000D02*
X157100000Y-151420000D01*
X157860000Y-148362929D02*
X157860000Y-148760000D01*
X157100000Y-148362929D02*
X157100000Y-148760000D01*
X156210000Y-148760000D02*
X156210000Y-151420000D01*
X155320000Y-151420000D02*
X155320000Y-157420000D01*
X155320000Y-157420000D02*
X154560000Y-157420000D01*
X154560000Y-157420000D02*
X154560000Y-151420000D01*
X155320000Y-148362929D02*
X155320000Y-148760000D01*
X154560000Y-148362929D02*
X154560000Y-148760000D01*
X153670000Y-148760000D02*
X153670000Y-151420000D01*
X152780000Y-151420000D02*
X152780000Y-157420000D01*
X152780000Y-157420000D02*
X152020000Y-157420000D01*
X152020000Y-157420000D02*
X152020000Y-151420000D01*
X152780000Y-148362929D02*
X152780000Y-148760000D01*
X152020000Y-148362929D02*
X152020000Y-148760000D01*
X151130000Y-148760000D02*
X151130000Y-151420000D01*
X150240000Y-151420000D02*
X150240000Y-157420000D01*
X150240000Y-157420000D02*
X149480000Y-157420000D01*
X149480000Y-157420000D02*
X149480000Y-151420000D01*
X150240000Y-148362929D02*
X150240000Y-148760000D01*
X149480000Y-148362929D02*
X149480000Y-148760000D01*
X148590000Y-148760000D02*
X148590000Y-151420000D01*
X147700000Y-151420000D02*
X147700000Y-157420000D01*
X147700000Y-157420000D02*
X146940000Y-157420000D01*
X146940000Y-157420000D02*
X146940000Y-151420000D01*
X147700000Y-148362929D02*
X147700000Y-148760000D01*
X146940000Y-148362929D02*
X146940000Y-148760000D01*
X146050000Y-148760000D02*
X146050000Y-151420000D01*
X145160000Y-151420000D02*
X145160000Y-157420000D01*
X145160000Y-157420000D02*
X144400000Y-157420000D01*
X144400000Y-157420000D02*
X144400000Y-151420000D01*
X145160000Y-148362929D02*
X145160000Y-148760000D01*
X144400000Y-148362929D02*
X144400000Y-148760000D01*
X143510000Y-148760000D02*
X143510000Y-151420000D01*
X142620000Y-151420000D02*
X142620000Y-157420000D01*
X142620000Y-157420000D02*
X141860000Y-157420000D01*
X141860000Y-157420000D02*
X141860000Y-151420000D01*
X142620000Y-148362929D02*
X142620000Y-148760000D01*
X141860000Y-148362929D02*
X141860000Y-148760000D01*
X140970000Y-148760000D02*
X140970000Y-151420000D01*
X140080000Y-151420000D02*
X140080000Y-157420000D01*
X140080000Y-157420000D02*
X139320000Y-157420000D01*
X139320000Y-157420000D02*
X139320000Y-151420000D01*
X140080000Y-148362929D02*
X140080000Y-148760000D01*
X139320000Y-148362929D02*
X139320000Y-148760000D01*
X138430000Y-148760000D02*
X138430000Y-151420000D01*
X137540000Y-151420000D02*
X137540000Y-157420000D01*
X137540000Y-157420000D02*
X136780000Y-157420000D01*
X136780000Y-157420000D02*
X136780000Y-151420000D01*
X137540000Y-148362929D02*
X137540000Y-148760000D01*
X136780000Y-148362929D02*
X136780000Y-148760000D01*
X135890000Y-148760000D02*
X135890000Y-151420000D01*
X135000000Y-151420000D02*
X135000000Y-157420000D01*
X135000000Y-157420000D02*
X134240000Y-157420000D01*
X134240000Y-157420000D02*
X134240000Y-151420000D01*
X135000000Y-148362929D02*
X135000000Y-148760000D01*
X134240000Y-148362929D02*
X134240000Y-148760000D01*
X133350000Y-148760000D02*
X133350000Y-151420000D01*
X132460000Y-151420000D02*
X132460000Y-157420000D01*
X132460000Y-157420000D02*
X131700000Y-157420000D01*
X131700000Y-157420000D02*
X131700000Y-151420000D01*
X132460000Y-148362929D02*
X132460000Y-148760000D01*
X131700000Y-148362929D02*
X131700000Y-148760000D01*
X130810000Y-148760000D02*
X130810000Y-151420000D01*
X129920000Y-151420000D02*
X129920000Y-157420000D01*
X129920000Y-157420000D02*
X129160000Y-157420000D01*
X129160000Y-157420000D02*
X129160000Y-151420000D01*
X129920000Y-148362929D02*
X129920000Y-148760000D01*
X129160000Y-148362929D02*
X129160000Y-148760000D01*
X128270000Y-148760000D02*
X128270000Y-151420000D01*
X127380000Y-151420000D02*
X127380000Y-157420000D01*
X127380000Y-157420000D02*
X126620000Y-157420000D01*
X126620000Y-157420000D02*
X126620000Y-151420000D01*
X127380000Y-148362929D02*
X127380000Y-148760000D01*
X126620000Y-148362929D02*
X126620000Y-148760000D01*
X125730000Y-148760000D02*
X125730000Y-151420000D01*
X124840000Y-151420000D02*
X124840000Y-157420000D01*
X124840000Y-157420000D02*
X124080000Y-157420000D01*
X124080000Y-157420000D02*
X124080000Y-151420000D01*
X124840000Y-148362929D02*
X124840000Y-148760000D01*
X124080000Y-148362929D02*
X124080000Y-148760000D01*
X123190000Y-148760000D02*
X123190000Y-151420000D01*
X122300000Y-151420000D02*
X122300000Y-157420000D01*
X122300000Y-157420000D02*
X121540000Y-157420000D01*
X121540000Y-157420000D02*
X121540000Y-151420000D01*
X122300000Y-148362929D02*
X122300000Y-148760000D01*
X121540000Y-148362929D02*
X121540000Y-148760000D01*
X120650000Y-148760000D02*
X120650000Y-151420000D01*
X119760000Y-151420000D02*
X119760000Y-157420000D01*
X119760000Y-157420000D02*
X119000000Y-157420000D01*
X119000000Y-157420000D02*
X119000000Y-151420000D01*
X119760000Y-148362929D02*
X119760000Y-148760000D01*
X119000000Y-148362929D02*
X119000000Y-148760000D01*
X118110000Y-148760000D02*
X118110000Y-151420000D01*
X117220000Y-151420000D02*
X117220000Y-157420000D01*
X117220000Y-157420000D02*
X116460000Y-157420000D01*
X116460000Y-157420000D02*
X116460000Y-151420000D01*
X117220000Y-148362929D02*
X117220000Y-148760000D01*
X116460000Y-148362929D02*
X116460000Y-148760000D01*
X115570000Y-148760000D02*
X115570000Y-151420000D01*
X114680000Y-151420000D02*
X114680000Y-157420000D01*
X114680000Y-157420000D02*
X113920000Y-157420000D01*
X113920000Y-157420000D02*
X113920000Y-151420000D01*
X114680000Y-148362929D02*
X114680000Y-148760000D01*
X113920000Y-148362929D02*
X113920000Y-148760000D01*
X113030000Y-148760000D02*
X113030000Y-151420000D01*
X112140000Y-151420000D02*
X112140000Y-157420000D01*
X112140000Y-157420000D02*
X111380000Y-157420000D01*
X111380000Y-157420000D02*
X111380000Y-151420000D01*
X112140000Y-148362929D02*
X112140000Y-148760000D01*
X111380000Y-148362929D02*
X111380000Y-148760000D01*
X110490000Y-148760000D02*
X110490000Y-151420000D01*
X109600000Y-151420000D02*
X109600000Y-157420000D01*
X109600000Y-157420000D02*
X108840000Y-157420000D01*
X108840000Y-157420000D02*
X108840000Y-151420000D01*
X109600000Y-148362929D02*
X109600000Y-148760000D01*
X108840000Y-148362929D02*
X108840000Y-148760000D01*
X107950000Y-148760000D02*
X107950000Y-151420000D01*
X107060000Y-151420000D02*
X107060000Y-157420000D01*
X107060000Y-157420000D02*
X106300000Y-157420000D01*
X106300000Y-157420000D02*
X106300000Y-151420000D01*
X107060000Y-148362929D02*
X107060000Y-148760000D01*
X106300000Y-148362929D02*
X106300000Y-148760000D01*
X105410000Y-148760000D02*
X105410000Y-151420000D01*
X104520000Y-151420000D02*
X104520000Y-157420000D01*
X104520000Y-157420000D02*
X103760000Y-157420000D01*
X103760000Y-157420000D02*
X103760000Y-151420000D01*
X104520000Y-148362929D02*
X104520000Y-148760000D01*
X103760000Y-148362929D02*
X103760000Y-148760000D01*
X102870000Y-148760000D02*
X102870000Y-151420000D01*
X101980000Y-151420000D02*
X101980000Y-157420000D01*
X101980000Y-157420000D02*
X101220000Y-157420000D01*
X101220000Y-157420000D02*
X101220000Y-151420000D01*
X101980000Y-148362929D02*
X101980000Y-148760000D01*
X101220000Y-148362929D02*
X101220000Y-148760000D01*
X100330000Y-148760000D02*
X100330000Y-151420000D01*
X99440000Y-151420000D02*
X99440000Y-157420000D01*
X99440000Y-157420000D02*
X98680000Y-157420000D01*
X98680000Y-157420000D02*
X98680000Y-151420000D01*
X99440000Y-148362929D02*
X99440000Y-148760000D01*
X98680000Y-148362929D02*
X98680000Y-148760000D01*
X97790000Y-148760000D02*
X97790000Y-151420000D01*
X96900000Y-151420000D02*
X96900000Y-157420000D01*
X96900000Y-157420000D02*
X96140000Y-157420000D01*
X96140000Y-157420000D02*
X96140000Y-151420000D01*
X96900000Y-148362929D02*
X96900000Y-148760000D01*
X96140000Y-148362929D02*
X96140000Y-148760000D01*
X193040000Y-146050000D02*
X194310000Y-146050000D01*
X194310000Y-146050000D02*
X194310000Y-147320000D01*
X154340000Y-109895000D02*
X154340000Y-107275000D01*
X154340000Y-107275000D02*
X147920000Y-107275000D01*
X147920000Y-107275000D02*
X147920000Y-109895000D01*
X147920000Y-109895000D02*
X154340000Y-109895000D01*
X155230000Y-108585000D02*
X154340000Y-108585000D01*
X147030000Y-108585000D02*
X147920000Y-108585000D01*
X160620000Y-107275000D02*
X160620000Y-109895000D01*
X160620000Y-109895000D02*
X167040000Y-109895000D01*
X167040000Y-109895000D02*
X167040000Y-107275000D01*
X167040000Y-107275000D02*
X160620000Y-107275000D01*
X159730000Y-108585000D02*
X160620000Y-108585000D01*
X167930000Y-108585000D02*
X167040000Y-108585000D01*
X167040000Y-106085000D02*
X167040000Y-103465000D01*
X167040000Y-103465000D02*
X160620000Y-103465000D01*
X160620000Y-103465000D02*
X160620000Y-106085000D01*
X160620000Y-106085000D02*
X167040000Y-106085000D01*
X167930000Y-104775000D02*
X167040000Y-104775000D01*
X159730000Y-104775000D02*
X160620000Y-104775000D01*
X185785000Y-112335000D02*
G75*
G02X183785000Y-112335000I-1000000J0D01*
G01*
X183785000Y-112335000D02*
X182135000Y-112335000D01*
X182135000Y-112335000D02*
X182135000Y-132775000D01*
X182135000Y-132775000D02*
X187435000Y-132775000D01*
X187435000Y-132775000D02*
X187435000Y-112335000D01*
X187435000Y-112335000D02*
X185785000Y-112335000D01*
X179645000Y-112275000D02*
X179645000Y-132835000D01*
X179645000Y-132835000D02*
X189925000Y-132835000D01*
X189925000Y-132835000D02*
X189925000Y-112275000D01*
X189925000Y-112275000D02*
X179645000Y-112275000D01*
X170545000Y-112335000D02*
G75*
G02X168545000Y-112335000I-1000000J0D01*
G01*
X168545000Y-112335000D02*
X166895000Y-112335000D01*
X166895000Y-112335000D02*
X166895000Y-132775000D01*
X166895000Y-132775000D02*
X172195000Y-132775000D01*
X172195000Y-132775000D02*
X172195000Y-112335000D01*
X172195000Y-112335000D02*
X170545000Y-112335000D01*
X164405000Y-112275000D02*
X164405000Y-132835000D01*
X164405000Y-132835000D02*
X174685000Y-132835000D01*
X174685000Y-132835000D02*
X174685000Y-112275000D01*
X174685000Y-112275000D02*
X164405000Y-112275000D01*
X180915000Y-108645000D02*
X186115000Y-108645000D01*
X180915000Y-95885000D02*
X180915000Y-108645000D01*
X186115000Y-93285000D02*
X186115000Y-108645000D01*
X180915000Y-95885000D02*
X183515000Y-95885000D01*
X183515000Y-95885000D02*
X183515000Y-93285000D01*
X183515000Y-93285000D02*
X186115000Y-93285000D01*
X180915000Y-94615000D02*
X180915000Y-93285000D01*
X180915000Y-93285000D02*
X182245000Y-93285000D01*
X171704278Y-107859723D02*
G75*
G03X176315580Y-107860000I2305722J1179723D01*
G01*
X171704278Y-105500277D02*
G75*
G02X176315580Y-105500000I2305722J-1179723D01*
G01*
X171704278Y-105500277D02*
G75*
G03X171704420Y-107860000I2305722J-1179723D01*
G01*
X174010000Y-109230000D02*
X174010000Y-104130000D01*
X173970000Y-109230000D02*
X173970000Y-104130000D01*
X173930000Y-109229000D02*
X173930000Y-104131000D01*
X173890000Y-109228000D02*
X173890000Y-104132000D01*
X173850000Y-109226000D02*
X173850000Y-104134000D01*
X173810000Y-109223000D02*
X173810000Y-104137000D01*
X173770000Y-109219000D02*
X173770000Y-104141000D01*
X173730000Y-109215000D02*
X173730000Y-107660000D01*
X173730000Y-105700000D02*
X173730000Y-104145000D01*
X173690000Y-109211000D02*
X173690000Y-107660000D01*
X173690000Y-105700000D02*
X173690000Y-104149000D01*
X173650000Y-109205000D02*
X173650000Y-107660000D01*
X173650000Y-105700000D02*
X173650000Y-104155000D01*
X173610000Y-109199000D02*
X173610000Y-107660000D01*
X173610000Y-105700000D02*
X173610000Y-104161000D01*
X173570000Y-109193000D02*
X173570000Y-107660000D01*
X173570000Y-105700000D02*
X173570000Y-104167000D01*
X173530000Y-109186000D02*
X173530000Y-107660000D01*
X173530000Y-105700000D02*
X173530000Y-104174000D01*
X173490000Y-109178000D02*
X173490000Y-107660000D01*
X173490000Y-105700000D02*
X173490000Y-104182000D01*
X173450000Y-109169000D02*
X173450000Y-107660000D01*
X173450000Y-105700000D02*
X173450000Y-104191000D01*
X173410000Y-109160000D02*
X173410000Y-107660000D01*
X173410000Y-105700000D02*
X173410000Y-104200000D01*
X173370000Y-109150000D02*
X173370000Y-107660000D01*
X173370000Y-105700000D02*
X173370000Y-104210000D01*
X173330000Y-109140000D02*
X173330000Y-107660000D01*
X173330000Y-105700000D02*
X173330000Y-104220000D01*
X173289000Y-109128000D02*
X173289000Y-107660000D01*
X173289000Y-105700000D02*
X173289000Y-104232000D01*
X173249000Y-109116000D02*
X173249000Y-107660000D01*
X173249000Y-105700000D02*
X173249000Y-104244000D01*
X173209000Y-109104000D02*
X173209000Y-107660000D01*
X173209000Y-105700000D02*
X173209000Y-104256000D01*
X173169000Y-109090000D02*
X173169000Y-107660000D01*
X173169000Y-105700000D02*
X173169000Y-104270000D01*
X173129000Y-109076000D02*
X173129000Y-107660000D01*
X173129000Y-105700000D02*
X173129000Y-104284000D01*
X173089000Y-109062000D02*
X173089000Y-107660000D01*
X173089000Y-105700000D02*
X173089000Y-104298000D01*
X173049000Y-109046000D02*
X173049000Y-107660000D01*
X173049000Y-105700000D02*
X173049000Y-104314000D01*
X173009000Y-109030000D02*
X173009000Y-107660000D01*
X173009000Y-105700000D02*
X173009000Y-104330000D01*
X172969000Y-109013000D02*
X172969000Y-107660000D01*
X172969000Y-105700000D02*
X172969000Y-104347000D01*
X172929000Y-108995000D02*
X172929000Y-107660000D01*
X172929000Y-105700000D02*
X172929000Y-104365000D01*
X172889000Y-108976000D02*
X172889000Y-107660000D01*
X172889000Y-105700000D02*
X172889000Y-104384000D01*
X172849000Y-108956000D02*
X172849000Y-107660000D01*
X172849000Y-105700000D02*
X172849000Y-104404000D01*
X172809000Y-108936000D02*
X172809000Y-107660000D01*
X172809000Y-105700000D02*
X172809000Y-104424000D01*
X172769000Y-108914000D02*
X172769000Y-107660000D01*
X172769000Y-105700000D02*
X172769000Y-104446000D01*
X172729000Y-108892000D02*
X172729000Y-107660000D01*
X172729000Y-105700000D02*
X172729000Y-104468000D01*
X172689000Y-108869000D02*
X172689000Y-107660000D01*
X172689000Y-105700000D02*
X172689000Y-104491000D01*
X172649000Y-108845000D02*
X172649000Y-107660000D01*
X172649000Y-105700000D02*
X172649000Y-104515000D01*
X172609000Y-108820000D02*
X172609000Y-107660000D01*
X172609000Y-105700000D02*
X172609000Y-104540000D01*
X172569000Y-108793000D02*
X172569000Y-107660000D01*
X172569000Y-105700000D02*
X172569000Y-104567000D01*
X172529000Y-108766000D02*
X172529000Y-107660000D01*
X172529000Y-105700000D02*
X172529000Y-104594000D01*
X172489000Y-108738000D02*
X172489000Y-107660000D01*
X172489000Y-105700000D02*
X172489000Y-104622000D01*
X172449000Y-108708000D02*
X172449000Y-107660000D01*
X172449000Y-105700000D02*
X172449000Y-104652000D01*
X172409000Y-108677000D02*
X172409000Y-107660000D01*
X172409000Y-105700000D02*
X172409000Y-104683000D01*
X172369000Y-108645000D02*
X172369000Y-107660000D01*
X172369000Y-105700000D02*
X172369000Y-104715000D01*
X172329000Y-108612000D02*
X172329000Y-107660000D01*
X172329000Y-105700000D02*
X172329000Y-104748000D01*
X172289000Y-108577000D02*
X172289000Y-107660000D01*
X172289000Y-105700000D02*
X172289000Y-104783000D01*
X172249000Y-108541000D02*
X172249000Y-107660000D01*
X172249000Y-105700000D02*
X172249000Y-104819000D01*
X172209000Y-108503000D02*
X172209000Y-107660000D01*
X172209000Y-105700000D02*
X172209000Y-104857000D01*
X172169000Y-108463000D02*
X172169000Y-107660000D01*
X172169000Y-105700000D02*
X172169000Y-104897000D01*
X172129000Y-108422000D02*
X172129000Y-107660000D01*
X172129000Y-105700000D02*
X172129000Y-104938000D01*
X172089000Y-108379000D02*
X172089000Y-107660000D01*
X172089000Y-105700000D02*
X172089000Y-104981000D01*
X172049000Y-108334000D02*
X172049000Y-107660000D01*
X172049000Y-105700000D02*
X172049000Y-105026000D01*
X172009000Y-108286000D02*
X172009000Y-107660000D01*
X172009000Y-105700000D02*
X172009000Y-105074000D01*
X171969000Y-108236000D02*
X171969000Y-107660000D01*
X171969000Y-105700000D02*
X171969000Y-105124000D01*
X171929000Y-108184000D02*
X171929000Y-107660000D01*
X171929000Y-105700000D02*
X171929000Y-105176000D01*
X171889000Y-108128000D02*
X171889000Y-107660000D01*
X171889000Y-105700000D02*
X171889000Y-105232000D01*
X171849000Y-108070000D02*
X171849000Y-107660000D01*
X171849000Y-105700000D02*
X171849000Y-105290000D01*
X171809000Y-108007000D02*
X171809000Y-107660000D01*
X171809000Y-105700000D02*
X171809000Y-105353000D01*
X171769000Y-107941000D02*
X171769000Y-105419000D01*
X171729000Y-107869000D02*
X171729000Y-105491000D01*
X171689000Y-107792000D02*
X171689000Y-105568000D01*
X171649000Y-107708000D02*
X171649000Y-105652000D01*
X171609000Y-107614000D02*
X171609000Y-105746000D01*
X171569000Y-107509000D02*
X171569000Y-105851000D01*
X171529000Y-107387000D02*
X171529000Y-105973000D01*
X171489000Y-107239000D02*
X171489000Y-106121000D01*
X171449000Y-107034000D02*
X171449000Y-106326000D01*
X177460000Y-106680000D02*
X176260000Y-106680000D01*
X176860000Y-107330000D02*
X176860000Y-106030000D01*
X154460000Y-105835000D02*
X154460000Y-103715000D01*
X154460000Y-103715000D02*
X150340000Y-103715000D01*
X150340000Y-103715000D02*
X150340000Y-105835000D01*
X150340000Y-105835000D02*
X154460000Y-105835000D01*
X155230000Y-104775000D02*
X154460000Y-104775000D01*
X149570000Y-104775000D02*
X150340000Y-104775000D01*
X153800000Y-105835000D02*
X153800000Y-103715000D01*
X129385000Y-107525000D02*
X129385000Y-109645000D01*
X129385000Y-109645000D02*
X133505000Y-109645000D01*
X133505000Y-109645000D02*
X133505000Y-107525000D01*
X133505000Y-107525000D02*
X129385000Y-107525000D01*
X128615000Y-108585000D02*
X129385000Y-108585000D01*
X134275000Y-108585000D02*
X133505000Y-108585000D01*
X130045000Y-107525000D02*
X130045000Y-109645000D01*
X139545000Y-103715000D02*
X139545000Y-105835000D01*
X139545000Y-105835000D02*
X143665000Y-105835000D01*
X143665000Y-105835000D02*
X143665000Y-103715000D01*
X143665000Y-103715000D02*
X139545000Y-103715000D01*
X138775000Y-104775000D02*
X139545000Y-104775000D01*
X144435000Y-104775000D02*
X143665000Y-104775000D01*
X140205000Y-103715000D02*
X140205000Y-105835000D01*
X109160000Y-94675000D02*
X111820000Y-94675000D01*
X109160000Y-92075000D02*
X109160000Y-94675000D01*
X111820000Y-92075000D02*
X111820000Y-94675000D01*
X109160000Y-92075000D02*
X111820000Y-92075000D01*
X109160000Y-90805000D02*
X109160000Y-89475000D01*
X109160000Y-89475000D02*
X110490000Y-89475000D01*
X114240000Y-94675000D02*
X116900000Y-94675000D01*
X114240000Y-92075000D02*
X114240000Y-94675000D01*
X116900000Y-92075000D02*
X116900000Y-94675000D01*
X114240000Y-92075000D02*
X116900000Y-92075000D01*
X114240000Y-90805000D02*
X114240000Y-89475000D01*
X114240000Y-89475000D02*
X115570000Y-89475000D01*
X126425000Y-92135000D02*
X126425000Y-89475000D01*
X121285000Y-92135000D02*
X126425000Y-92135000D01*
X121285000Y-89475000D02*
X126425000Y-89475000D01*
X121285000Y-92135000D02*
X121285000Y-89475000D01*
X120015000Y-92135000D02*
X118685000Y-92135000D01*
X118685000Y-92135000D02*
X118685000Y-90805000D01*
X111700000Y-94675000D02*
X114360000Y-94675000D01*
X111700000Y-92075000D02*
X111700000Y-94675000D01*
X114360000Y-92075000D02*
X114360000Y-94675000D01*
X111700000Y-92075000D02*
X114360000Y-92075000D01*
X111700000Y-90805000D02*
X111700000Y-89475000D01*
X111700000Y-89475000D02*
X113030000Y-89475000D01*
X171815000Y-100115000D02*
X176315000Y-100115000D01*
X170565000Y-96115000D02*
X170565000Y-97615000D01*
X176315000Y-93615000D02*
X171815000Y-93615000D01*
X177565000Y-97615000D02*
X177565000Y-96115000D01*
X140065000Y-112335000D02*
G75*
G02X138065000Y-112335000I-1000000J0D01*
G01*
X138065000Y-112335000D02*
X136415000Y-112335000D01*
X136415000Y-112335000D02*
X136415000Y-130235000D01*
X136415000Y-130235000D02*
X141715000Y-130235000D01*
X141715000Y-130235000D02*
X141715000Y-112335000D01*
X141715000Y-112335000D02*
X140065000Y-112335000D01*
X133925000Y-112275000D02*
X133925000Y-130295000D01*
X133925000Y-130295000D02*
X144205000Y-130295000D01*
X144205000Y-130295000D02*
X144205000Y-112275000D01*
X144205000Y-112275000D02*
X133925000Y-112275000D01*
X105775000Y-102175000D02*
G75*
G02X103775000Y-102175000I-1000000J0D01*
G01*
X103775000Y-102175000D02*
X98315000Y-102175000D01*
X98315000Y-102175000D02*
X98315000Y-132775000D01*
X98315000Y-132775000D02*
X111235000Y-132775000D01*
X111235000Y-132775000D02*
X111235000Y-102175000D01*
X111235000Y-102175000D02*
X105775000Y-102175000D01*
X95825000Y-102115000D02*
X95825000Y-132835000D01*
X95825000Y-132835000D02*
X113725000Y-132835000D01*
X113725000Y-132835000D02*
X113725000Y-102115000D01*
X113725000Y-102115000D02*
X95825000Y-102115000D01*
X155305000Y-112335000D02*
G75*
G02X153305000Y-112335000I-1000000J0D01*
G01*
X153305000Y-112335000D02*
X151655000Y-112335000D01*
X151655000Y-112335000D02*
X151655000Y-130235000D01*
X151655000Y-130235000D02*
X156955000Y-130235000D01*
X156955000Y-130235000D02*
X156955000Y-112335000D01*
X156955000Y-112335000D02*
X155305000Y-112335000D01*
X149165000Y-112275000D02*
X149165000Y-130295000D01*
X149165000Y-130295000D02*
X159445000Y-130295000D01*
X159445000Y-130295000D02*
X159445000Y-112275000D01*
X159445000Y-112275000D02*
X149165000Y-112275000D01*
X124825000Y-112335000D02*
G75*
G02X122825000Y-112335000I-1000000J0D01*
G01*
X122825000Y-112335000D02*
X121175000Y-112335000D01*
X121175000Y-112335000D02*
X121175000Y-130235000D01*
X121175000Y-130235000D02*
X126475000Y-130235000D01*
X126475000Y-130235000D02*
X126475000Y-112335000D01*
X126475000Y-112335000D02*
X124825000Y-112335000D01*
X118685000Y-112275000D02*
X118685000Y-130295000D01*
X118685000Y-130295000D02*
X128965000Y-130295000D01*
X128965000Y-130295000D02*
X128965000Y-112275000D01*
X128965000Y-112275000D02*
X118685000Y-112275000D01*
X99010000Y-93995000D02*
X105260000Y-93995000D01*
X99010000Y-99045000D02*
X105260000Y-99045000D01*
X99010000Y-99045000D02*
G75*
G02X99010000Y-93995000I0J2525000D01*
G01*
X105260000Y-99045000D02*
G75*
G03X105260000Y-93995000I0J2525000D01*
G01*
D11*
X147042143Y-116371666D02*
X147089762Y-116419285D01*
X147137381Y-116562142D01*
X147137381Y-116657380D01*
X147089762Y-116800238D01*
X146994524Y-116895476D01*
X146899286Y-116943095D01*
X146708810Y-116990714D01*
X146565952Y-116990714D01*
X146375476Y-116943095D01*
X146280238Y-116895476D01*
X146185000Y-116800238D01*
X146137381Y-116657380D01*
X146137381Y-116562142D01*
X146185000Y-116419285D01*
X146232619Y-116371666D01*
X147137381Y-115419285D02*
X147137381Y-115990714D01*
X147137381Y-115705000D02*
X146137381Y-115705000D01*
X146280238Y-115800238D01*
X146375476Y-115895476D01*
X146423095Y-115990714D01*
X116562143Y-106211666D02*
X116609762Y-106259285D01*
X116657381Y-106402142D01*
X116657381Y-106497380D01*
X116609762Y-106640238D01*
X116514524Y-106735476D01*
X116419286Y-106783095D01*
X116228810Y-106830714D01*
X116085952Y-106830714D01*
X115895476Y-106783095D01*
X115800238Y-106735476D01*
X115705000Y-106640238D01*
X115657381Y-106497380D01*
X115657381Y-106402142D01*
X115705000Y-106259285D01*
X115752619Y-106211666D01*
X115752619Y-105830714D02*
X115705000Y-105783095D01*
X115657381Y-105687857D01*
X115657381Y-105449761D01*
X115705000Y-105354523D01*
X115752619Y-105306904D01*
X115847857Y-105259285D01*
X115943095Y-105259285D01*
X116085952Y-105306904D01*
X116657381Y-105878333D01*
X116657381Y-105259285D01*
X162282143Y-116371666D02*
X162329762Y-116419285D01*
X162377381Y-116562142D01*
X162377381Y-116657380D01*
X162329762Y-116800238D01*
X162234524Y-116895476D01*
X162139286Y-116943095D01*
X161948810Y-116990714D01*
X161805952Y-116990714D01*
X161615476Y-116943095D01*
X161520238Y-116895476D01*
X161425000Y-116800238D01*
X161377381Y-116657380D01*
X161377381Y-116562142D01*
X161425000Y-116419285D01*
X161472619Y-116371666D01*
X161377381Y-116038333D02*
X161377381Y-115419285D01*
X161758333Y-115752619D01*
X161758333Y-115609761D01*
X161805952Y-115514523D01*
X161853571Y-115466904D01*
X161948810Y-115419285D01*
X162186905Y-115419285D01*
X162282143Y-115466904D01*
X162329762Y-115514523D01*
X162377381Y-115609761D01*
X162377381Y-115895476D01*
X162329762Y-115990714D01*
X162282143Y-116038333D01*
X131802143Y-116371666D02*
X131849762Y-116419285D01*
X131897381Y-116562142D01*
X131897381Y-116657380D01*
X131849762Y-116800238D01*
X131754524Y-116895476D01*
X131659286Y-116943095D01*
X131468810Y-116990714D01*
X131325952Y-116990714D01*
X131135476Y-116943095D01*
X131040238Y-116895476D01*
X130945000Y-116800238D01*
X130897381Y-116657380D01*
X130897381Y-116562142D01*
X130945000Y-116419285D01*
X130992619Y-116371666D01*
X131230714Y-115514523D02*
X131897381Y-115514523D01*
X130849762Y-115752619D02*
X131564048Y-115990714D01*
X131564048Y-115371666D01*
X192762143Y-116371666D02*
X192809762Y-116419285D01*
X192857381Y-116562142D01*
X192857381Y-116657380D01*
X192809762Y-116800238D01*
X192714524Y-116895476D01*
X192619286Y-116943095D01*
X192428810Y-116990714D01*
X192285952Y-116990714D01*
X192095476Y-116943095D01*
X192000238Y-116895476D01*
X191905000Y-116800238D01*
X191857381Y-116657380D01*
X191857381Y-116562142D01*
X191905000Y-116419285D01*
X191952619Y-116371666D01*
X191857381Y-115466904D02*
X191857381Y-115943095D01*
X192333571Y-115990714D01*
X192285952Y-115943095D01*
X192238333Y-115847857D01*
X192238333Y-115609761D01*
X192285952Y-115514523D01*
X192333571Y-115466904D01*
X192428810Y-115419285D01*
X192666905Y-115419285D01*
X192762143Y-115466904D01*
X192809762Y-115514523D01*
X192857381Y-115609761D01*
X192857381Y-115847857D01*
X192809762Y-115943095D01*
X192762143Y-115990714D01*
X177522143Y-116371666D02*
X177569762Y-116419285D01*
X177617381Y-116562142D01*
X177617381Y-116657380D01*
X177569762Y-116800238D01*
X177474524Y-116895476D01*
X177379286Y-116943095D01*
X177188810Y-116990714D01*
X177045952Y-116990714D01*
X176855476Y-116943095D01*
X176760238Y-116895476D01*
X176665000Y-116800238D01*
X176617381Y-116657380D01*
X176617381Y-116562142D01*
X176665000Y-116419285D01*
X176712619Y-116371666D01*
X176617381Y-115514523D02*
X176617381Y-115705000D01*
X176665000Y-115800238D01*
X176712619Y-115847857D01*
X176855476Y-115943095D01*
X177045952Y-115990714D01*
X177426905Y-115990714D01*
X177522143Y-115943095D01*
X177569762Y-115895476D01*
X177617381Y-115800238D01*
X177617381Y-115609761D01*
X177569762Y-115514523D01*
X177522143Y-115466904D01*
X177426905Y-115419285D01*
X177188810Y-115419285D01*
X177093571Y-115466904D01*
X177045952Y-115514523D01*
X176998333Y-115609761D01*
X176998333Y-115800238D01*
X177045952Y-115895476D01*
X177093571Y-115943095D01*
X177188810Y-115990714D01*
X140168334Y-108942143D02*
X140120715Y-108989762D01*
X139977858Y-109037381D01*
X139882620Y-109037381D01*
X139739762Y-108989762D01*
X139644524Y-108894524D01*
X139596905Y-108799286D01*
X139549286Y-108608810D01*
X139549286Y-108465952D01*
X139596905Y-108275476D01*
X139644524Y-108180238D01*
X139739762Y-108085000D01*
X139882620Y-108037381D01*
X139977858Y-108037381D01*
X140120715Y-108085000D01*
X140168334Y-108132619D01*
X140501667Y-108037381D02*
X141168334Y-108037381D01*
X140739762Y-109037381D01*
X194762381Y-152038333D02*
X195476667Y-152038333D01*
X195619524Y-152085953D01*
X195714762Y-152181191D01*
X195762381Y-152324048D01*
X195762381Y-152419286D01*
X195762381Y-151038333D02*
X195762381Y-151609762D01*
X195762381Y-151324048D02*
X194762381Y-151324048D01*
X194905238Y-151419286D01*
X195000476Y-151514524D01*
X195048095Y-151609762D01*
X149058334Y-109037381D02*
X148725000Y-108561190D01*
X148486905Y-109037381D02*
X148486905Y-108037381D01*
X148867858Y-108037381D01*
X148963096Y-108085000D01*
X149010715Y-108132619D01*
X149058334Y-108227857D01*
X149058334Y-108370714D01*
X149010715Y-108465952D01*
X148963096Y-108513571D01*
X148867858Y-108561190D01*
X148486905Y-108561190D01*
X150010715Y-109037381D02*
X149439286Y-109037381D01*
X149725000Y-109037381D02*
X149725000Y-108037381D01*
X149629762Y-108180238D01*
X149534524Y-108275476D01*
X149439286Y-108323095D01*
X151328572Y-109037381D02*
X150757143Y-109037381D01*
X151042857Y-109037381D02*
X151042857Y-108037381D01*
X150947619Y-108180238D01*
X150852381Y-108275476D01*
X150757143Y-108323095D01*
X151947619Y-108037381D02*
X152042858Y-108037381D01*
X152138096Y-108085000D01*
X152185715Y-108132619D01*
X152233334Y-108227857D01*
X152280953Y-108418333D01*
X152280953Y-108656429D01*
X152233334Y-108846905D01*
X152185715Y-108942143D01*
X152138096Y-108989762D01*
X152042858Y-109037381D01*
X151947619Y-109037381D01*
X151852381Y-108989762D01*
X151804762Y-108942143D01*
X151757143Y-108846905D01*
X151709524Y-108656429D01*
X151709524Y-108418333D01*
X151757143Y-108227857D01*
X151804762Y-108132619D01*
X151852381Y-108085000D01*
X151947619Y-108037381D01*
X152900000Y-108037381D02*
X152995239Y-108037381D01*
X153090477Y-108085000D01*
X153138096Y-108132619D01*
X153185715Y-108227857D01*
X153233334Y-108418333D01*
X153233334Y-108656429D01*
X153185715Y-108846905D01*
X153138096Y-108942143D01*
X153090477Y-108989762D01*
X152995239Y-109037381D01*
X152900000Y-109037381D01*
X152804762Y-108989762D01*
X152757143Y-108942143D01*
X152709524Y-108846905D01*
X152661905Y-108656429D01*
X152661905Y-108418333D01*
X152709524Y-108227857D01*
X152757143Y-108132619D01*
X152804762Y-108085000D01*
X152900000Y-108037381D01*
X153661905Y-109037381D02*
X153661905Y-108037381D01*
X153757143Y-108656429D02*
X154042858Y-109037381D01*
X154042858Y-108370714D02*
X153661905Y-108751667D01*
X165568334Y-109037381D02*
X165235000Y-108561190D01*
X164996905Y-109037381D02*
X164996905Y-108037381D01*
X165377858Y-108037381D01*
X165473096Y-108085000D01*
X165520715Y-108132619D01*
X165568334Y-108227857D01*
X165568334Y-108370714D01*
X165520715Y-108465952D01*
X165473096Y-108513571D01*
X165377858Y-108561190D01*
X164996905Y-108561190D01*
X165949286Y-108132619D02*
X165996905Y-108085000D01*
X166092143Y-108037381D01*
X166330239Y-108037381D01*
X166425477Y-108085000D01*
X166473096Y-108132619D01*
X166520715Y-108227857D01*
X166520715Y-108323095D01*
X166473096Y-108465952D01*
X165901667Y-109037381D01*
X166520715Y-109037381D01*
X161488572Y-109037381D02*
X160917143Y-109037381D01*
X161202857Y-109037381D02*
X161202857Y-108037381D01*
X161107619Y-108180238D01*
X161012381Y-108275476D01*
X160917143Y-108323095D01*
X162107619Y-108037381D02*
X162202858Y-108037381D01*
X162298096Y-108085000D01*
X162345715Y-108132619D01*
X162393334Y-108227857D01*
X162440953Y-108418333D01*
X162440953Y-108656429D01*
X162393334Y-108846905D01*
X162345715Y-108942143D01*
X162298096Y-108989762D01*
X162202858Y-109037381D01*
X162107619Y-109037381D01*
X162012381Y-108989762D01*
X161964762Y-108942143D01*
X161917143Y-108846905D01*
X161869524Y-108656429D01*
X161869524Y-108418333D01*
X161917143Y-108227857D01*
X161964762Y-108132619D01*
X162012381Y-108085000D01*
X162107619Y-108037381D01*
X163060000Y-108037381D02*
X163155239Y-108037381D01*
X163250477Y-108085000D01*
X163298096Y-108132619D01*
X163345715Y-108227857D01*
X163393334Y-108418333D01*
X163393334Y-108656429D01*
X163345715Y-108846905D01*
X163298096Y-108942143D01*
X163250477Y-108989762D01*
X163155239Y-109037381D01*
X163060000Y-109037381D01*
X162964762Y-108989762D01*
X162917143Y-108942143D01*
X162869524Y-108846905D01*
X162821905Y-108656429D01*
X162821905Y-108418333D01*
X162869524Y-108227857D01*
X162917143Y-108132619D01*
X162964762Y-108085000D01*
X163060000Y-108037381D01*
X163821905Y-109037381D02*
X163821905Y-108037381D01*
X163917143Y-108656429D02*
X164202858Y-109037381D01*
X164202858Y-108370714D02*
X163821905Y-108751667D01*
X161758334Y-105227381D02*
X161425000Y-104751190D01*
X161186905Y-105227381D02*
X161186905Y-104227381D01*
X161567858Y-104227381D01*
X161663096Y-104275000D01*
X161710715Y-104322619D01*
X161758334Y-104417857D01*
X161758334Y-104560714D01*
X161710715Y-104655952D01*
X161663096Y-104703571D01*
X161567858Y-104751190D01*
X161186905Y-104751190D01*
X162091667Y-104227381D02*
X162710715Y-104227381D01*
X162377381Y-104608333D01*
X162520239Y-104608333D01*
X162615477Y-104655952D01*
X162663096Y-104703571D01*
X162710715Y-104798810D01*
X162710715Y-105036905D01*
X162663096Y-105132143D01*
X162615477Y-105179762D01*
X162520239Y-105227381D01*
X162234524Y-105227381D01*
X162139286Y-105179762D01*
X162091667Y-105132143D01*
X164028572Y-105227381D02*
X163457143Y-105227381D01*
X163742857Y-105227381D02*
X163742857Y-104227381D01*
X163647619Y-104370238D01*
X163552381Y-104465476D01*
X163457143Y-104513095D01*
X164933334Y-104227381D02*
X164457143Y-104227381D01*
X164409524Y-104703571D01*
X164457143Y-104655952D01*
X164552381Y-104608333D01*
X164790477Y-104608333D01*
X164885715Y-104655952D01*
X164933334Y-104703571D01*
X164980953Y-104798810D01*
X164980953Y-105036905D01*
X164933334Y-105132143D01*
X164885715Y-105179762D01*
X164790477Y-105227381D01*
X164552381Y-105227381D01*
X164457143Y-105179762D01*
X164409524Y-105132143D01*
X165600000Y-104227381D02*
X165695239Y-104227381D01*
X165790477Y-104275000D01*
X165838096Y-104322619D01*
X165885715Y-104417857D01*
X165933334Y-104608333D01*
X165933334Y-104846429D01*
X165885715Y-105036905D01*
X165838096Y-105132143D01*
X165790477Y-105179762D01*
X165695239Y-105227381D01*
X165600000Y-105227381D01*
X165504762Y-105179762D01*
X165457143Y-105132143D01*
X165409524Y-105036905D01*
X165361905Y-104846429D01*
X165361905Y-104608333D01*
X165409524Y-104417857D01*
X165457143Y-104322619D01*
X165504762Y-104275000D01*
X165600000Y-104227381D01*
X166361905Y-105227381D02*
X166361905Y-104227381D01*
X166457143Y-104846429D02*
X166742858Y-105227381D01*
X166742858Y-104560714D02*
X166361905Y-104941667D01*
X184023095Y-115657381D02*
X184023095Y-116466905D01*
X184070714Y-116562143D01*
X184118333Y-116609762D01*
X184213571Y-116657381D01*
X184404048Y-116657381D01*
X184499286Y-116609762D01*
X184546905Y-116562143D01*
X184594524Y-116466905D01*
X184594524Y-115657381D01*
X185546905Y-115657381D02*
X185070714Y-115657381D01*
X185023095Y-116133571D01*
X185070714Y-116085952D01*
X185165952Y-116038333D01*
X185404048Y-116038333D01*
X185499286Y-116085952D01*
X185546905Y-116133571D01*
X185594524Y-116228810D01*
X185594524Y-116466905D01*
X185546905Y-116562143D01*
X185499286Y-116609762D01*
X185404048Y-116657381D01*
X185165952Y-116657381D01*
X185070714Y-116609762D01*
X185023095Y-116562143D01*
X184237381Y-125674048D02*
X184237381Y-125007381D01*
X185237381Y-125435953D01*
X184570714Y-124197857D02*
X185237381Y-124197857D01*
X184189762Y-124435953D02*
X184904048Y-124674048D01*
X184904048Y-124055000D01*
X185237381Y-123197857D02*
X185237381Y-123674048D01*
X184237381Y-123674048D01*
X185189762Y-122912143D02*
X185237381Y-122769286D01*
X185237381Y-122531190D01*
X185189762Y-122435952D01*
X185142143Y-122388333D01*
X185046905Y-122340714D01*
X184951667Y-122340714D01*
X184856429Y-122388333D01*
X184808810Y-122435952D01*
X184761190Y-122531190D01*
X184713571Y-122721667D01*
X184665952Y-122816905D01*
X184618333Y-122864524D01*
X184523095Y-122912143D01*
X184427857Y-122912143D01*
X184332619Y-122864524D01*
X184285000Y-122816905D01*
X184237381Y-122721667D01*
X184237381Y-122483571D01*
X184285000Y-122340714D01*
X185237381Y-121388333D02*
X185237381Y-121959762D01*
X185237381Y-121674048D02*
X184237381Y-121674048D01*
X184380238Y-121769286D01*
X184475476Y-121864524D01*
X184523095Y-121959762D01*
X184237381Y-121055000D02*
X184237381Y-120435952D01*
X184618333Y-120769286D01*
X184618333Y-120626428D01*
X184665952Y-120531190D01*
X184713571Y-120483571D01*
X184808810Y-120435952D01*
X185046905Y-120435952D01*
X185142143Y-120483571D01*
X185189762Y-120531190D01*
X185237381Y-120626428D01*
X185237381Y-120912143D01*
X185189762Y-121007381D01*
X185142143Y-121055000D01*
X184665952Y-119864524D02*
X184618333Y-119959762D01*
X184570714Y-120007381D01*
X184475476Y-120055000D01*
X184427857Y-120055000D01*
X184332619Y-120007381D01*
X184285000Y-119959762D01*
X184237381Y-119864524D01*
X184237381Y-119674047D01*
X184285000Y-119578809D01*
X184332619Y-119531190D01*
X184427857Y-119483571D01*
X184475476Y-119483571D01*
X184570714Y-119531190D01*
X184618333Y-119578809D01*
X184665952Y-119674047D01*
X184665952Y-119864524D01*
X184713571Y-119959762D01*
X184761190Y-120007381D01*
X184856429Y-120055000D01*
X185046905Y-120055000D01*
X185142143Y-120007381D01*
X185189762Y-119959762D01*
X185237381Y-119864524D01*
X185237381Y-119674047D01*
X185189762Y-119578809D01*
X185142143Y-119531190D01*
X185046905Y-119483571D01*
X184856429Y-119483571D01*
X184761190Y-119531190D01*
X184713571Y-119578809D01*
X184665952Y-119674047D01*
X168783095Y-115657381D02*
X168783095Y-116466905D01*
X168830714Y-116562143D01*
X168878333Y-116609762D01*
X168973571Y-116657381D01*
X169164048Y-116657381D01*
X169259286Y-116609762D01*
X169306905Y-116562143D01*
X169354524Y-116466905D01*
X169354524Y-115657381D01*
X170259286Y-115657381D02*
X170068809Y-115657381D01*
X169973571Y-115705000D01*
X169925952Y-115752619D01*
X169830714Y-115895476D01*
X169783095Y-116085952D01*
X169783095Y-116466905D01*
X169830714Y-116562143D01*
X169878333Y-116609762D01*
X169973571Y-116657381D01*
X170164048Y-116657381D01*
X170259286Y-116609762D01*
X170306905Y-116562143D01*
X170354524Y-116466905D01*
X170354524Y-116228810D01*
X170306905Y-116133571D01*
X170259286Y-116085952D01*
X170164048Y-116038333D01*
X169973571Y-116038333D01*
X169878333Y-116085952D01*
X169830714Y-116133571D01*
X169783095Y-116228810D01*
X168997381Y-125674048D02*
X168997381Y-125007381D01*
X169997381Y-125435953D01*
X169330714Y-124197857D02*
X169997381Y-124197857D01*
X168949762Y-124435953D02*
X169664048Y-124674048D01*
X169664048Y-124055000D01*
X169997381Y-123197857D02*
X169997381Y-123674048D01*
X168997381Y-123674048D01*
X169949762Y-122912143D02*
X169997381Y-122769286D01*
X169997381Y-122531190D01*
X169949762Y-122435952D01*
X169902143Y-122388333D01*
X169806905Y-122340714D01*
X169711667Y-122340714D01*
X169616429Y-122388333D01*
X169568810Y-122435952D01*
X169521190Y-122531190D01*
X169473571Y-122721667D01*
X169425952Y-122816905D01*
X169378333Y-122864524D01*
X169283095Y-122912143D01*
X169187857Y-122912143D01*
X169092619Y-122864524D01*
X169045000Y-122816905D01*
X168997381Y-122721667D01*
X168997381Y-122483571D01*
X169045000Y-122340714D01*
X169997381Y-121388333D02*
X169997381Y-121959762D01*
X169997381Y-121674048D02*
X168997381Y-121674048D01*
X169140238Y-121769286D01*
X169235476Y-121864524D01*
X169283095Y-121959762D01*
X168997381Y-121055000D02*
X168997381Y-120435952D01*
X169378333Y-120769286D01*
X169378333Y-120626428D01*
X169425952Y-120531190D01*
X169473571Y-120483571D01*
X169568810Y-120435952D01*
X169806905Y-120435952D01*
X169902143Y-120483571D01*
X169949762Y-120531190D01*
X169997381Y-120626428D01*
X169997381Y-120912143D01*
X169949762Y-121007381D01*
X169902143Y-121055000D01*
X169425952Y-119864524D02*
X169378333Y-119959762D01*
X169330714Y-120007381D01*
X169235476Y-120055000D01*
X169187857Y-120055000D01*
X169092619Y-120007381D01*
X169045000Y-119959762D01*
X168997381Y-119864524D01*
X168997381Y-119674047D01*
X169045000Y-119578809D01*
X169092619Y-119531190D01*
X169187857Y-119483571D01*
X169235476Y-119483571D01*
X169330714Y-119531190D01*
X169378333Y-119578809D01*
X169425952Y-119674047D01*
X169425952Y-119864524D01*
X169473571Y-119959762D01*
X169521190Y-120007381D01*
X169616429Y-120055000D01*
X169806905Y-120055000D01*
X169902143Y-120007381D01*
X169949762Y-119959762D01*
X169997381Y-119864524D01*
X169997381Y-119674047D01*
X169949762Y-119578809D01*
X169902143Y-119531190D01*
X169806905Y-119483571D01*
X169616429Y-119483571D01*
X169521190Y-119531190D01*
X169473571Y-119578809D01*
X169425952Y-119674047D01*
X175093334Y-108942143D02*
X175045715Y-108989762D01*
X174902858Y-109037381D01*
X174807620Y-109037381D01*
X174664762Y-108989762D01*
X174569524Y-108894524D01*
X174521905Y-108799286D01*
X174474286Y-108608810D01*
X174474286Y-108465952D01*
X174521905Y-108275476D01*
X174569524Y-108180238D01*
X174664762Y-108085000D01*
X174807620Y-108037381D01*
X174902858Y-108037381D01*
X175045715Y-108085000D01*
X175093334Y-108132619D01*
X175664762Y-108465952D02*
X175569524Y-108418333D01*
X175521905Y-108370714D01*
X175474286Y-108275476D01*
X175474286Y-108227857D01*
X175521905Y-108132619D01*
X175569524Y-108085000D01*
X175664762Y-108037381D01*
X175855239Y-108037381D01*
X175950477Y-108085000D01*
X175998096Y-108132619D01*
X176045715Y-108227857D01*
X176045715Y-108275476D01*
X175998096Y-108370714D01*
X175950477Y-108418333D01*
X175855239Y-108465952D01*
X175664762Y-108465952D01*
X175569524Y-108513571D01*
X175521905Y-108561190D01*
X175474286Y-108656429D01*
X175474286Y-108846905D01*
X175521905Y-108942143D01*
X175569524Y-108989762D01*
X175664762Y-109037381D01*
X175855239Y-109037381D01*
X175950477Y-108989762D01*
X175998096Y-108942143D01*
X176045715Y-108846905D01*
X176045715Y-108656429D01*
X175998096Y-108561190D01*
X175950477Y-108513571D01*
X175855239Y-108465952D01*
X151661905Y-105227381D02*
X151661905Y-104227381D01*
X151900000Y-104227381D01*
X152042858Y-104275000D01*
X152138096Y-104370238D01*
X152185715Y-104465476D01*
X152233334Y-104655952D01*
X152233334Y-104798810D01*
X152185715Y-104989286D01*
X152138096Y-105084524D01*
X152042858Y-105179762D01*
X151900000Y-105227381D01*
X151661905Y-105227381D01*
X153185715Y-105227381D02*
X152614286Y-105227381D01*
X152900000Y-105227381D02*
X152900000Y-104227381D01*
X152804762Y-104370238D01*
X152709524Y-104465476D01*
X152614286Y-104513095D01*
X130706905Y-109037381D02*
X130706905Y-108037381D01*
X130945000Y-108037381D01*
X131087858Y-108085000D01*
X131183096Y-108180238D01*
X131230715Y-108275476D01*
X131278334Y-108465952D01*
X131278334Y-108608810D01*
X131230715Y-108799286D01*
X131183096Y-108894524D01*
X131087858Y-108989762D01*
X130945000Y-109037381D01*
X130706905Y-109037381D01*
X131659286Y-108132619D02*
X131706905Y-108085000D01*
X131802143Y-108037381D01*
X132040239Y-108037381D01*
X132135477Y-108085000D01*
X132183096Y-108132619D01*
X132230715Y-108227857D01*
X132230715Y-108323095D01*
X132183096Y-108465952D01*
X131611667Y-109037381D01*
X132230715Y-109037381D01*
X140866905Y-105227381D02*
X140866905Y-104227381D01*
X141105000Y-104227381D01*
X141247858Y-104275000D01*
X141343096Y-104370238D01*
X141390715Y-104465476D01*
X141438334Y-104655952D01*
X141438334Y-104798810D01*
X141390715Y-104989286D01*
X141343096Y-105084524D01*
X141247858Y-105179762D01*
X141105000Y-105227381D01*
X140866905Y-105227381D01*
X141771667Y-104227381D02*
X142390715Y-104227381D01*
X142057381Y-104608333D01*
X142200239Y-104608333D01*
X142295477Y-104655952D01*
X142343096Y-104703571D01*
X142390715Y-104798810D01*
X142390715Y-105036905D01*
X142343096Y-105132143D01*
X142295477Y-105179762D01*
X142200239Y-105227381D01*
X141914524Y-105227381D01*
X141819286Y-105179762D01*
X141771667Y-105132143D01*
X110156667Y-87082381D02*
X110156667Y-87796667D01*
X110109047Y-87939524D01*
X110013809Y-88034762D01*
X109870952Y-88082381D01*
X109775714Y-88082381D01*
X110537619Y-87082381D02*
X111156667Y-87082381D01*
X110823333Y-87463333D01*
X110966191Y-87463333D01*
X111061429Y-87510952D01*
X111109048Y-87558571D01*
X111156667Y-87653810D01*
X111156667Y-87891905D01*
X111109048Y-87987143D01*
X111061429Y-88034762D01*
X110966191Y-88082381D01*
X110680476Y-88082381D01*
X110585238Y-88034762D01*
X110537619Y-87987143D01*
X115236667Y-87082381D02*
X115236667Y-87796667D01*
X115189047Y-87939524D01*
X115093809Y-88034762D01*
X114950952Y-88082381D01*
X114855714Y-88082381D01*
X116141429Y-87415714D02*
X116141429Y-88082381D01*
X115903333Y-87034762D02*
X115665238Y-87749048D01*
X116284286Y-87749048D01*
X119181667Y-87082381D02*
X119181667Y-87796667D01*
X119134047Y-87939524D01*
X119038809Y-88034762D01*
X118895952Y-88082381D01*
X118800714Y-88082381D01*
X119657857Y-88082381D02*
X119657857Y-87082381D01*
X120038810Y-87082381D01*
X120134048Y-87130000D01*
X120181667Y-87177619D01*
X120229286Y-87272857D01*
X120229286Y-87415714D01*
X120181667Y-87510952D01*
X120134048Y-87558571D01*
X120038810Y-87606190D01*
X119657857Y-87606190D01*
X121181667Y-88082381D02*
X120610238Y-88082381D01*
X120895952Y-88082381D02*
X120895952Y-87082381D01*
X120800714Y-87225238D01*
X120705476Y-87320476D01*
X120610238Y-87368095D01*
X112196667Y-87082381D02*
X112196667Y-87796667D01*
X112149047Y-87939524D01*
X112053809Y-88034762D01*
X111910952Y-88082381D01*
X111815714Y-88082381D01*
X112672857Y-88082381D02*
X112672857Y-87082381D01*
X113053810Y-87082381D01*
X113149048Y-87130000D01*
X113196667Y-87177619D01*
X113244286Y-87272857D01*
X113244286Y-87415714D01*
X113196667Y-87510952D01*
X113149048Y-87558571D01*
X113053810Y-87606190D01*
X112672857Y-87606190D01*
X113625238Y-87177619D02*
X113672857Y-87130000D01*
X113768095Y-87082381D01*
X114006191Y-87082381D01*
X114101429Y-87130000D01*
X114149048Y-87177619D01*
X114196667Y-87272857D01*
X114196667Y-87368095D01*
X114149048Y-87510952D01*
X113577619Y-88082381D01*
X114196667Y-88082381D01*
X172656667Y-97559762D02*
X172799524Y-97607381D01*
X173037620Y-97607381D01*
X173132858Y-97559762D01*
X173180477Y-97512143D01*
X173228096Y-97416905D01*
X173228096Y-97321667D01*
X173180477Y-97226429D01*
X173132858Y-97178810D01*
X173037620Y-97131190D01*
X172847143Y-97083571D01*
X172751905Y-97035952D01*
X172704286Y-96988333D01*
X172656667Y-96893095D01*
X172656667Y-96797857D01*
X172704286Y-96702619D01*
X172751905Y-96655000D01*
X172847143Y-96607381D01*
X173085239Y-96607381D01*
X173228096Y-96655000D01*
X173561429Y-96607381D02*
X173799524Y-97607381D01*
X173990001Y-96893095D01*
X174180477Y-97607381D01*
X174418572Y-96607381D01*
X175323334Y-97607381D02*
X174751905Y-97607381D01*
X175037619Y-97607381D02*
X175037619Y-96607381D01*
X174942381Y-96750238D01*
X174847143Y-96845476D01*
X174751905Y-96893095D01*
X138303095Y-115657381D02*
X138303095Y-116466905D01*
X138350714Y-116562143D01*
X138398333Y-116609762D01*
X138493571Y-116657381D01*
X138684048Y-116657381D01*
X138779286Y-116609762D01*
X138826905Y-116562143D01*
X138874524Y-116466905D01*
X138874524Y-115657381D01*
X139874524Y-116657381D02*
X139303095Y-116657381D01*
X139588809Y-116657381D02*
X139588809Y-115657381D01*
X139493571Y-115800238D01*
X139398333Y-115895476D01*
X139303095Y-115943095D01*
X138517381Y-123927857D02*
X138517381Y-123261190D01*
X139517381Y-123689762D01*
X138850714Y-122451666D02*
X139517381Y-122451666D01*
X138469762Y-122689762D02*
X139184048Y-122927857D01*
X139184048Y-122308809D01*
X139517381Y-121451666D02*
X139517381Y-121927857D01*
X138517381Y-121927857D01*
X139469762Y-121165952D02*
X139517381Y-121023095D01*
X139517381Y-120784999D01*
X139469762Y-120689761D01*
X139422143Y-120642142D01*
X139326905Y-120594523D01*
X139231667Y-120594523D01*
X139136429Y-120642142D01*
X139088810Y-120689761D01*
X139041190Y-120784999D01*
X138993571Y-120975476D01*
X138945952Y-121070714D01*
X138898333Y-121118333D01*
X138803095Y-121165952D01*
X138707857Y-121165952D01*
X138612619Y-121118333D01*
X138565000Y-121070714D01*
X138517381Y-120975476D01*
X138517381Y-120737380D01*
X138565000Y-120594523D01*
X138517381Y-119975476D02*
X138517381Y-119880237D01*
X138565000Y-119784999D01*
X138612619Y-119737380D01*
X138707857Y-119689761D01*
X138898333Y-119642142D01*
X139136429Y-119642142D01*
X139326905Y-119689761D01*
X139422143Y-119737380D01*
X139469762Y-119784999D01*
X139517381Y-119880237D01*
X139517381Y-119975476D01*
X139469762Y-120070714D01*
X139422143Y-120118333D01*
X139326905Y-120165952D01*
X139136429Y-120213571D01*
X138898333Y-120213571D01*
X138707857Y-120165952D01*
X138612619Y-120118333D01*
X138565000Y-120070714D01*
X138517381Y-119975476D01*
X138850714Y-118784999D02*
X139517381Y-118784999D01*
X138469762Y-119023095D02*
X139184048Y-119261190D01*
X139184048Y-118642142D01*
X104013095Y-105497381D02*
X104013095Y-106306905D01*
X104060714Y-106402143D01*
X104108333Y-106449762D01*
X104203571Y-106497381D01*
X104394048Y-106497381D01*
X104489286Y-106449762D01*
X104536905Y-106402143D01*
X104584524Y-106306905D01*
X104584524Y-105497381D01*
X105013095Y-105592619D02*
X105060714Y-105545000D01*
X105155952Y-105497381D01*
X105394048Y-105497381D01*
X105489286Y-105545000D01*
X105536905Y-105592619D01*
X105584524Y-105687857D01*
X105584524Y-105783095D01*
X105536905Y-105925952D01*
X104965476Y-106497381D01*
X105584524Y-106497381D01*
X101655952Y-117927381D02*
X101655952Y-116927381D01*
X101894047Y-116927381D01*
X102036905Y-116975000D01*
X102132143Y-117070238D01*
X102179762Y-117165476D01*
X102227381Y-117355952D01*
X102227381Y-117498810D01*
X102179762Y-117689286D01*
X102132143Y-117784524D01*
X102036905Y-117879762D01*
X101894047Y-117927381D01*
X101655952Y-117927381D01*
X102608333Y-117879762D02*
X102751190Y-117927381D01*
X102989286Y-117927381D01*
X103084524Y-117879762D01*
X103132143Y-117832143D01*
X103179762Y-117736905D01*
X103179762Y-117641667D01*
X103132143Y-117546429D01*
X103084524Y-117498810D01*
X102989286Y-117451190D01*
X102798809Y-117403571D01*
X102703571Y-117355952D01*
X102655952Y-117308333D01*
X102608333Y-117213095D01*
X102608333Y-117117857D01*
X102655952Y-117022619D01*
X102703571Y-116975000D01*
X102798809Y-116927381D01*
X103036905Y-116927381D01*
X103179762Y-116975000D01*
X104132143Y-117927381D02*
X103560714Y-117927381D01*
X103846428Y-117927381D02*
X103846428Y-116927381D01*
X103751190Y-117070238D01*
X103655952Y-117165476D01*
X103560714Y-117213095D01*
X104513095Y-117022619D02*
X104560714Y-116975000D01*
X104655952Y-116927381D01*
X104894048Y-116927381D01*
X104989286Y-116975000D01*
X105036905Y-117022619D01*
X105084524Y-117117857D01*
X105084524Y-117213095D01*
X105036905Y-117355952D01*
X104465476Y-117927381D01*
X105084524Y-117927381D01*
X105655952Y-117355952D02*
X105560714Y-117308333D01*
X105513095Y-117260714D01*
X105465476Y-117165476D01*
X105465476Y-117117857D01*
X105513095Y-117022619D01*
X105560714Y-116975000D01*
X105655952Y-116927381D01*
X105846429Y-116927381D01*
X105941667Y-116975000D01*
X105989286Y-117022619D01*
X106036905Y-117117857D01*
X106036905Y-117165476D01*
X105989286Y-117260714D01*
X105941667Y-117308333D01*
X105846429Y-117355952D01*
X105655952Y-117355952D01*
X105560714Y-117403571D01*
X105513095Y-117451190D01*
X105465476Y-117546429D01*
X105465476Y-117736905D01*
X105513095Y-117832143D01*
X105560714Y-117879762D01*
X105655952Y-117927381D01*
X105846429Y-117927381D01*
X105941667Y-117879762D01*
X105989286Y-117832143D01*
X106036905Y-117736905D01*
X106036905Y-117546429D01*
X105989286Y-117451190D01*
X105941667Y-117403571D01*
X105846429Y-117355952D01*
X106608333Y-117355952D02*
X106513095Y-117308333D01*
X106465476Y-117260714D01*
X106417857Y-117165476D01*
X106417857Y-117117857D01*
X106465476Y-117022619D01*
X106513095Y-116975000D01*
X106608333Y-116927381D01*
X106798810Y-116927381D01*
X106894048Y-116975000D01*
X106941667Y-117022619D01*
X106989286Y-117117857D01*
X106989286Y-117165476D01*
X106941667Y-117260714D01*
X106894048Y-117308333D01*
X106798810Y-117355952D01*
X106608333Y-117355952D01*
X106513095Y-117403571D01*
X106465476Y-117451190D01*
X106417857Y-117546429D01*
X106417857Y-117736905D01*
X106465476Y-117832143D01*
X106513095Y-117879762D01*
X106608333Y-117927381D01*
X106798810Y-117927381D01*
X106894048Y-117879762D01*
X106941667Y-117832143D01*
X106989286Y-117736905D01*
X106989286Y-117546429D01*
X106941667Y-117451190D01*
X106894048Y-117403571D01*
X106798810Y-117355952D01*
X107894048Y-116927381D02*
X107417857Y-116927381D01*
X107370238Y-117403571D01*
X107417857Y-117355952D01*
X107513095Y-117308333D01*
X107751191Y-117308333D01*
X107846429Y-117355952D01*
X107894048Y-117403571D01*
X107941667Y-117498810D01*
X107941667Y-117736905D01*
X107894048Y-117832143D01*
X107846429Y-117879762D01*
X107751191Y-117927381D01*
X107513095Y-117927381D01*
X107417857Y-117879762D01*
X107370238Y-117832143D01*
X153543095Y-115657381D02*
X153543095Y-116466905D01*
X153590714Y-116562143D01*
X153638333Y-116609762D01*
X153733571Y-116657381D01*
X153924048Y-116657381D01*
X154019286Y-116609762D01*
X154066905Y-116562143D01*
X154114524Y-116466905D01*
X154114524Y-115657381D01*
X154495476Y-115657381D02*
X155114524Y-115657381D01*
X154781190Y-116038333D01*
X154924048Y-116038333D01*
X155019286Y-116085952D01*
X155066905Y-116133571D01*
X155114524Y-116228810D01*
X155114524Y-116466905D01*
X155066905Y-116562143D01*
X155019286Y-116609762D01*
X154924048Y-116657381D01*
X154638333Y-116657381D01*
X154543095Y-116609762D01*
X154495476Y-116562143D01*
X153757381Y-123927857D02*
X153757381Y-123261190D01*
X154757381Y-123689762D01*
X154090714Y-122451666D02*
X154757381Y-122451666D01*
X153709762Y-122689762D02*
X154424048Y-122927857D01*
X154424048Y-122308809D01*
X154757381Y-121451666D02*
X154757381Y-121927857D01*
X153757381Y-121927857D01*
X154709762Y-121165952D02*
X154757381Y-121023095D01*
X154757381Y-120784999D01*
X154709762Y-120689761D01*
X154662143Y-120642142D01*
X154566905Y-120594523D01*
X154471667Y-120594523D01*
X154376429Y-120642142D01*
X154328810Y-120689761D01*
X154281190Y-120784999D01*
X154233571Y-120975476D01*
X154185952Y-121070714D01*
X154138333Y-121118333D01*
X154043095Y-121165952D01*
X153947857Y-121165952D01*
X153852619Y-121118333D01*
X153805000Y-121070714D01*
X153757381Y-120975476D01*
X153757381Y-120737380D01*
X153805000Y-120594523D01*
X154757381Y-119642142D02*
X154757381Y-120213571D01*
X154757381Y-119927857D02*
X153757381Y-119927857D01*
X153900238Y-120023095D01*
X153995476Y-120118333D01*
X154043095Y-120213571D01*
X154090714Y-118784999D02*
X154757381Y-118784999D01*
X153709762Y-119023095D02*
X154424048Y-119261190D01*
X154424048Y-118642142D01*
X123063095Y-115657381D02*
X123063095Y-116466905D01*
X123110714Y-116562143D01*
X123158333Y-116609762D01*
X123253571Y-116657381D01*
X123444048Y-116657381D01*
X123539286Y-116609762D01*
X123586905Y-116562143D01*
X123634524Y-116466905D01*
X123634524Y-115657381D01*
X124539286Y-115990714D02*
X124539286Y-116657381D01*
X124301190Y-115609762D02*
X124063095Y-116324048D01*
X124682143Y-116324048D01*
X123277381Y-123927857D02*
X123277381Y-123261190D01*
X124277381Y-123689762D01*
X123610714Y-122451666D02*
X124277381Y-122451666D01*
X123229762Y-122689762D02*
X123944048Y-122927857D01*
X123944048Y-122308809D01*
X124277381Y-121451666D02*
X124277381Y-121927857D01*
X123277381Y-121927857D01*
X124229762Y-121165952D02*
X124277381Y-121023095D01*
X124277381Y-120784999D01*
X124229762Y-120689761D01*
X124182143Y-120642142D01*
X124086905Y-120594523D01*
X123991667Y-120594523D01*
X123896429Y-120642142D01*
X123848810Y-120689761D01*
X123801190Y-120784999D01*
X123753571Y-120975476D01*
X123705952Y-121070714D01*
X123658333Y-121118333D01*
X123563095Y-121165952D01*
X123467857Y-121165952D01*
X123372619Y-121118333D01*
X123325000Y-121070714D01*
X123277381Y-120975476D01*
X123277381Y-120737380D01*
X123325000Y-120594523D01*
X123372619Y-120213571D02*
X123325000Y-120165952D01*
X123277381Y-120070714D01*
X123277381Y-119832618D01*
X123325000Y-119737380D01*
X123372619Y-119689761D01*
X123467857Y-119642142D01*
X123563095Y-119642142D01*
X123705952Y-119689761D01*
X124277381Y-120261190D01*
X124277381Y-119642142D01*
X123277381Y-119308809D02*
X123277381Y-118642142D01*
X124277381Y-119070714D01*
X101758809Y-96496190D02*
X101758809Y-96972381D01*
X101425476Y-95972381D02*
X101758809Y-96496190D01*
X102092143Y-95972381D01*
X102949286Y-96972381D02*
X102377857Y-96972381D01*
X102663571Y-96972381D02*
X102663571Y-95972381D01*
X102568333Y-96115238D01*
X102473095Y-96210476D01*
X102377857Y-96258095D01*
X98425476Y-99782381D02*
X99044524Y-99782381D01*
X98711190Y-100163333D01*
X98854048Y-100163333D01*
X98949286Y-100210952D01*
X98996905Y-100258571D01*
X99044524Y-100353810D01*
X99044524Y-100591905D01*
X98996905Y-100687143D01*
X98949286Y-100734762D01*
X98854048Y-100782381D01*
X98568333Y-100782381D01*
X98473095Y-100734762D01*
X98425476Y-100687143D01*
X99425476Y-99877619D02*
X99473095Y-99830000D01*
X99568333Y-99782381D01*
X99806429Y-99782381D01*
X99901667Y-99830000D01*
X99949286Y-99877619D01*
X99996905Y-99972857D01*
X99996905Y-100068095D01*
X99949286Y-100210952D01*
X99377857Y-100782381D01*
X99996905Y-100782381D01*
X100425476Y-100687143D02*
X100473095Y-100734762D01*
X100425476Y-100782381D01*
X100377857Y-100734762D01*
X100425476Y-100687143D01*
X100425476Y-100782381D01*
X100806428Y-99782381D02*
X101473095Y-99782381D01*
X101044523Y-100782381D01*
X102282619Y-99782381D02*
X102092142Y-99782381D01*
X101996904Y-99830000D01*
X101949285Y-99877619D01*
X101854047Y-100020476D01*
X101806428Y-100210952D01*
X101806428Y-100591905D01*
X101854047Y-100687143D01*
X101901666Y-100734762D01*
X101996904Y-100782381D01*
X102187381Y-100782381D01*
X102282619Y-100734762D01*
X102330238Y-100687143D01*
X102377857Y-100591905D01*
X102377857Y-100353810D01*
X102330238Y-100258571D01*
X102282619Y-100210952D01*
X102187381Y-100163333D01*
X101996904Y-100163333D01*
X101901666Y-100210952D01*
X101854047Y-100258571D01*
X101806428Y-100353810D01*
X102949285Y-100210952D02*
X102854047Y-100163333D01*
X102806428Y-100115714D01*
X102758809Y-100020476D01*
X102758809Y-99972857D01*
X102806428Y-99877619D01*
X102854047Y-99830000D01*
X102949285Y-99782381D01*
X103139762Y-99782381D01*
X103235000Y-99830000D01*
X103282619Y-99877619D01*
X103330238Y-99972857D01*
X103330238Y-100020476D01*
X103282619Y-100115714D01*
X103235000Y-100163333D01*
X103139762Y-100210952D01*
X102949285Y-100210952D01*
X102854047Y-100258571D01*
X102806428Y-100306190D01*
X102758809Y-100401429D01*
X102758809Y-100591905D01*
X102806428Y-100687143D01*
X102854047Y-100734762D01*
X102949285Y-100782381D01*
X103139762Y-100782381D01*
X103235000Y-100734762D01*
X103282619Y-100687143D01*
X103330238Y-100591905D01*
X103330238Y-100401429D01*
X103282619Y-100306190D01*
X103235000Y-100258571D01*
X103139762Y-100210952D01*
X103758809Y-100782381D02*
X103758809Y-99782381D01*
X103854047Y-100401429D02*
X104139762Y-100782381D01*
X104139762Y-100115714D02*
X103758809Y-100496667D01*
X104568333Y-100782381D02*
X104568333Y-99782381D01*
X104568333Y-100258571D02*
X105139762Y-100258571D01*
X105139762Y-100782381D02*
X105139762Y-99782381D01*
X105520714Y-100115714D02*
X106044524Y-100115714D01*
X105520714Y-100782381D01*
X106044524Y-100782381D01*
M02*
