G04 #@! TF.FileFunction,Legend,Top*
%FSLAX46Y46*%
G04 Gerber Fmt 4.6, Leading zero omitted, Abs format (unit mm)*
G04 Created by KiCad (PCBNEW 4.0.7) date 01/27/20 23:17:01*
%MOMM*%
%LPD*%
G01*
G04 APERTURE LIST*
%ADD10C,0.100000*%
%ADD11C,0.300000*%
%ADD12C,0.120000*%
G04 APERTURE END LIST*
D10*
X108813572Y-68306905D02*
X108356429Y-68306905D01*
X108585000Y-68306905D02*
X108585000Y-67506905D01*
X108508810Y-67621190D01*
X108432619Y-67697381D01*
X108356429Y-67735476D01*
X138658572Y-125456905D02*
X138201429Y-125456905D01*
X138430000Y-125456905D02*
X138430000Y-124656905D01*
X138353810Y-124771190D01*
X138277619Y-124847381D01*
X138201429Y-124885476D01*
D11*
X100675714Y-41318571D02*
X100175714Y-40604286D01*
X99818571Y-41318571D02*
X99818571Y-39818571D01*
X100389999Y-39818571D01*
X100532857Y-39890000D01*
X100604285Y-39961429D01*
X100675714Y-40104286D01*
X100675714Y-40318571D01*
X100604285Y-40461429D01*
X100532857Y-40532857D01*
X100389999Y-40604286D01*
X99818571Y-40604286D01*
X102175714Y-41175714D02*
X102104285Y-41247143D01*
X101889999Y-41318571D01*
X101747142Y-41318571D01*
X101532857Y-41247143D01*
X101389999Y-41104286D01*
X101318571Y-40961429D01*
X101247142Y-40675714D01*
X101247142Y-40461429D01*
X101318571Y-40175714D01*
X101389999Y-40032857D01*
X101532857Y-39890000D01*
X101747142Y-39818571D01*
X101889999Y-39818571D01*
X102104285Y-39890000D01*
X102175714Y-39961429D01*
X102818571Y-40747143D02*
X103961428Y-40747143D01*
X104961428Y-39818571D02*
X105247142Y-39818571D01*
X105390000Y-39890000D01*
X105532857Y-40032857D01*
X105604285Y-40318571D01*
X105604285Y-40818571D01*
X105532857Y-41104286D01*
X105390000Y-41247143D01*
X105247142Y-41318571D01*
X104961428Y-41318571D01*
X104818571Y-41247143D01*
X104675714Y-41104286D01*
X104604285Y-40818571D01*
X104604285Y-40318571D01*
X104675714Y-40032857D01*
X104818571Y-39890000D01*
X104961428Y-39818571D01*
X106247143Y-41318571D02*
X106247143Y-39818571D01*
X107104286Y-41318571D01*
X107104286Y-39818571D01*
X107818572Y-40532857D02*
X108318572Y-40532857D01*
X108532858Y-41318571D02*
X107818572Y-41318571D01*
X107818572Y-39818571D01*
X108532858Y-39818571D01*
D12*
X114046000Y-128905000D02*
G75*
G03X114046000Y-128905000I-2286000J0D01*
G01*
X114046000Y-40640000D02*
G75*
G03X114046000Y-40640000I-2286000J0D01*
G01*
X107375000Y-48835000D02*
X102175000Y-48835000D01*
X107375000Y-66675000D02*
X107375000Y-48835000D01*
X102175000Y-69275000D02*
X102175000Y-48835000D01*
X107375000Y-66675000D02*
X104775000Y-66675000D01*
X104775000Y-66675000D02*
X104775000Y-69275000D01*
X104775000Y-69275000D02*
X102175000Y-69275000D01*
X107375000Y-67945000D02*
X107375000Y-69275000D01*
X107375000Y-69275000D02*
X106045000Y-69275000D01*
M02*
