G04 #@! TF.FileFunction,Soldermask,Bot*
%FSLAX46Y46*%
G04 Gerber Fmt 4.6, Leading zero omitted, Abs format (unit mm)*
G04 Created by KiCad (PCBNEW 4.0.7) date 01/27/20 23:17:01*
%MOMM*%
%LPD*%
G01*
G04 APERTURE LIST*
%ADD10C,0.100000*%
%ADD11C,5.400000*%
%ADD12R,2.100000X2.100000*%
%ADD13O,2.100000X2.100000*%
G04 APERTURE END LIST*
D10*
D11*
X111760000Y-128905000D03*
X111760000Y-40640000D03*
D12*
X106045000Y-102870000D03*
D13*
X103505000Y-102870000D03*
X106045000Y-105410000D03*
X103505000Y-105410000D03*
X106045000Y-107950000D03*
X103505000Y-107950000D03*
X106045000Y-110490000D03*
X103505000Y-110490000D03*
X106045000Y-113030000D03*
X103505000Y-113030000D03*
X106045000Y-115570000D03*
X103505000Y-115570000D03*
X106045000Y-118110000D03*
X103505000Y-118110000D03*
X106045000Y-120650000D03*
X103505000Y-120650000D03*
D12*
X138430000Y-127635000D03*
D13*
X138430000Y-130175000D03*
X135890000Y-127635000D03*
X135890000Y-130175000D03*
X133350000Y-127635000D03*
X133350000Y-130175000D03*
X130810000Y-127635000D03*
X130810000Y-130175000D03*
X128270000Y-127635000D03*
X128270000Y-130175000D03*
X125730000Y-127635000D03*
X125730000Y-130175000D03*
X123190000Y-127635000D03*
X123190000Y-130175000D03*
X120650000Y-127635000D03*
X120650000Y-130175000D03*
D12*
X106045000Y-67945000D03*
D13*
X103505000Y-67945000D03*
X106045000Y-65405000D03*
X103505000Y-65405000D03*
X106045000Y-62865000D03*
X103505000Y-62865000D03*
X106045000Y-60325000D03*
X103505000Y-60325000D03*
X106045000Y-57785000D03*
X103505000Y-57785000D03*
X106045000Y-55245000D03*
X103505000Y-55245000D03*
X106045000Y-52705000D03*
X103505000Y-52705000D03*
X106045000Y-50165000D03*
X103505000Y-50165000D03*
M02*
