G04 #@! TF.FileFunction,Legend,Bot*
%FSLAX46Y46*%
G04 Gerber Fmt 4.6, Leading zero omitted, Abs format (unit mm)*
G04 Created by KiCad (PCBNEW 4.0.7) date 01/27/20 23:17:01*
%MOMM*%
%LPD*%
G01*
G04 APERTURE LIST*
%ADD10C,0.100000*%
%ADD11C,0.120000*%
%ADD12C,0.150000*%
G04 APERTURE END LIST*
D10*
X105816428Y-100691905D02*
X106273571Y-100691905D01*
X106045000Y-100691905D02*
X106045000Y-99891905D01*
X106121190Y-100006190D01*
X106197381Y-100082381D01*
X106273571Y-100120476D01*
D11*
X107375000Y-121980000D02*
X102175000Y-121980000D01*
X107375000Y-104140000D02*
X107375000Y-121980000D01*
X102175000Y-101540000D02*
X102175000Y-121980000D01*
X107375000Y-104140000D02*
X104775000Y-104140000D01*
X104775000Y-104140000D02*
X104775000Y-101540000D01*
X104775000Y-101540000D02*
X102175000Y-101540000D01*
X107375000Y-102870000D02*
X107375000Y-101540000D01*
X107375000Y-101540000D02*
X106045000Y-101540000D01*
X119320000Y-126305000D02*
X119320000Y-131505000D01*
X137160000Y-126305000D02*
X119320000Y-126305000D01*
X139760000Y-131505000D02*
X119320000Y-131505000D01*
X137160000Y-126305000D02*
X137160000Y-128905000D01*
X137160000Y-128905000D02*
X139760000Y-128905000D01*
X139760000Y-128905000D02*
X139760000Y-131505000D01*
X138430000Y-126305000D02*
X139760000Y-126305000D01*
X139760000Y-126305000D02*
X139760000Y-127635000D01*
D12*
X132135238Y-133119762D02*
X131992381Y-133167381D01*
X131754285Y-133167381D01*
X131659047Y-133119762D01*
X131611428Y-133072143D01*
X131563809Y-132976905D01*
X131563809Y-132881667D01*
X131611428Y-132786429D01*
X131659047Y-132738810D01*
X131754285Y-132691190D01*
X131944762Y-132643571D01*
X132040000Y-132595952D01*
X132087619Y-132548333D01*
X132135238Y-132453095D01*
X132135238Y-132357857D01*
X132087619Y-132262619D01*
X132040000Y-132215000D01*
X131944762Y-132167381D01*
X131706666Y-132167381D01*
X131563809Y-132215000D01*
X130944762Y-132691190D02*
X130944762Y-133167381D01*
X131278095Y-132167381D02*
X130944762Y-132691190D01*
X130611428Y-132167381D01*
X130325714Y-133119762D02*
X130182857Y-133167381D01*
X129944761Y-133167381D01*
X129849523Y-133119762D01*
X129801904Y-133072143D01*
X129754285Y-132976905D01*
X129754285Y-132881667D01*
X129801904Y-132786429D01*
X129849523Y-132738810D01*
X129944761Y-132691190D01*
X130135238Y-132643571D01*
X130230476Y-132595952D01*
X130278095Y-132548333D01*
X130325714Y-132453095D01*
X130325714Y-132357857D01*
X130278095Y-132262619D01*
X130230476Y-132215000D01*
X130135238Y-132167381D01*
X129897142Y-132167381D01*
X129754285Y-132215000D01*
X129468571Y-132167381D02*
X128897142Y-132167381D01*
X129182857Y-133167381D02*
X129182857Y-132167381D01*
X128563809Y-132643571D02*
X128230475Y-132643571D01*
X128087618Y-133167381D02*
X128563809Y-133167381D01*
X128563809Y-132167381D01*
X128087618Y-132167381D01*
X127659047Y-133167381D02*
X127659047Y-132167381D01*
X127325713Y-132881667D01*
X126992380Y-132167381D01*
X126992380Y-133167381D01*
M02*
