M48
;DRILL file {KiCad 4.0.7} date 01/27/20 23:17:04
;FORMAT={2:4/ absolute / inch / suppress leading zeros}
FMAT,2
INCH,TZ
T1C0.016
T2C0.039
T3C0.120
%
G90
G05
M72
T1
X39000Y-46750
X39000Y-47250
X39250Y-47500
X39500Y-47750
X39750Y-45500
X39750Y-46000
X40000Y-45250
T2
X40750Y-19750
X40750Y-20750
X40750Y-21750
X40750Y-22750
X40750Y-23750
X40750Y-24750
X40750Y-25750
X40750Y-26750
X40750Y-40500
X40750Y-41500
X40750Y-42500
X40750Y-43500
X40750Y-44500
X40750Y-45500
X40750Y-46500
X40750Y-47500
X41750Y-19750
X41750Y-20750
X41750Y-21750
X41750Y-22750
X41750Y-23750
X41750Y-24750
X41750Y-25750
X41750Y-26750
X41750Y-40500
X41750Y-41500
X41750Y-42500
X41750Y-43500
X41750Y-44500
X41750Y-45500
X41750Y-46500
X41750Y-47500
X47500Y-50250
X47500Y-51250
X48500Y-50250
X48500Y-51250
X49500Y-50250
X49500Y-51250
X50500Y-50250
X50500Y-51250
X51500Y-50250
X51500Y-51250
X52500Y-50250
X52500Y-51250
X53500Y-50250
X53500Y-51250
X54500Y-50250
X54500Y-51250
T3
X44000Y-16000
X44000Y-50750
T0
M30
